ply
format ascii 1.0
comment Version 2, Copyright 2017, 8i Labs, Inc.
comment frame_to_world_scale 0.179523
comment frame_to_world_translation -45.2095 7.18301 -54.3561
comment width 1023
element vertex 333
property float x
property float y
property float z
property uchar red
property uchar green
property uchar blue
end_header
167 463 208 121 128 140
171 452 208 115 124 138
171 452 209 104 114 127
171 453 208 130 136 147
171 453 209 99 112 127
171 453 210 100 112 126
171 453 211 119 126 139
170 454 208 130 136 148
170 455 208 110 121 136
170 455 209 104 118 136
171 454 208 137 142 153
171 454 209 109 122 139
171 455 209 102 118 137
170 455 210 90 109 131
171 454 210 92 109 127
171 454 211 96 111 128
171 455 210 83 104 126
171 455 211 55 81 111
171 455 212 49 77 107
172 449 208 76 91 108
172 449 209 115 119 129
173 448 208 67 86 107
173 448 209 80 98 115
173 449 208 67 86 104
173 449 209 108 116 127
173 448 210 97 110 126
173 448 211 95 109 126
173 449 210 127 131 140
173 449 211 107 118 132
172 450 208 100 110 123
172 450 209 128 130 137
172 451 208 108 117 131
172 451 209 123 126 133
173 450 209 138 138 144
172 450 210 143 141 146
172 451 210 143 141 146
172 451 211 138 139 146
173 450 210 142 142 147
173 450 211 118 126 138
173 451 211 125 131 142
174 448 211 87 104 122
173 449 212 91 107 125
173 449 213 93 109 126
173 450 212 83 104 124
173 450 213 86 105 126
173 451 212 90 109 129
173 451 213 71 97 122
173 450 214 100 115 133
173 451 214 82 105 128
173 451 215 88 109 132
174 448 212 96 109 124
174 448 213 113 121 133
174 449 212 100 112 128
174 449 213 112 121 136
174 448 214 105 114 128
174 448 215 105 113 125
174 449 214 115 124 138
174 449 215 102 111 124
174 450 214 110 122 138
174 450 215 97 112 129
174 451 215 88 108 130
172 452 208 108 118 132
172 452 209 110 116 127
172 452 210 131 133 140
172 452 211 135 138 146
172 453 210 115 121 132
172 453 211 130 135 144
172 454 211 104 116 132
172 452 212 112 123 137
172 453 212 103 116 133
172 453 213 75 99 123
173 452 212 96 112 131
173 452 213 67 96 122
173 453 213 66 95 122
173 452 214 66 95 124
173 452 215 78 104 129
173 453 214 67 96 124
173 453 215 75 102 127
172 454 212 85 104 124
172 454 213 77 100 124
172 455 212 63 85 112
172 455 213 65 92 118
172 454 214 76 101 126
172 454 215 79 104 127
172 455 214 73 99 124
172 455 215 78 103 127
173 454 214 74 101 126
173 454 215 80 104 128
173 455 215 87 106 130
174 448 216 134 134 140
174 448 217 148 144 146
174 449 216 125 125 131
174 449 217 145 141 143
175 448 217 146 143 145
175 448 218 143 140 142
175 448 219 135 134 138
175 449 218 150 144 145
175 449 219 150 145 147
174 450 216 96 107 121
174 450 217 128 131 139
174 451 216 87 106 126
174 451 217 108 120 135
174 450 218 144 143 148
174 451 218 116 126 140
174 451 219 108 119 135
175 450 218 152 147 148
175 450 219 139 139 145
175 451 219 99 113 131
175 449 220 145 144 149
175 450 220 129 132 141
175 450 221 112 121 135
175 451 220 93 109 128
175 451 221 92 109 128
173 452 216 78 103 128
173 453 216 62 91 122
173 454 216 72 95 123
173 454 217 51 80 118
173 455 216 84 100 123
173 455 217 76 93 118
173 454 218 46 75 114
173 455 218 67 88 117
173 455 219 68 86 109
174 452 216 79 103 127
174 452 217 76 100 126
174 453 216 62 91 122
174 453 217 41 74 116
174 452 218 64 88 118
174 452 219 49 78 112
174 453 218 16 57 106
174 453 219 43 69 104
175 452 219 60 88 117
174 454 217 33 69 115
174 454 218 34 66 109
174 454 219 67 79 103
174 455 219 93 102 117
174 453 220 88 99 114
175 452 220 80 100 123
175 452 221 93 110 128
175 453 220 95 107 123
175 453 221 126 129 138
175 452 222 102 114 131
175 453 222 139 139 145
175 453 223 150 147 151
174 454 220 128 127 131
174 454 221 151 145 145
174 455 220 145 141 143
174 455 221 153 146 146
175 454 221 145 142 144
174 455 222 153 146 146
175 454 222 155 148 148
175 454 223 154 149 150
175 455 222 155 148 147
175 455 223 156 149 149
169 457 208 94 110 129
168 459 208 95 110 129
169 458 208 80 101 122
169 458 209 90 105 121
169 459 208 90 106 124
169 459 209 112 119 132
169 458 210 112 120 131
169 459 210 132 134 140
169 459 211 139 139 145
170 456 208 95 111 128
170 456 209 110 122 139
170 457 208 103 116 132
170 457 209 108 120 135
170 456 210 93 111 132
170 456 211 60 82 113
170 457 210 91 109 129
170 457 211 50 75 109
171 456 211 26 57 101
171 457 211 20 54 100
170 458 209 94 109 125
170 458 210 98 111 127
170 458 211 86 101 122
170 459 211 129 133 142
171 456 212 21 49 93
171 456 213 50 74 103
171 457 212 25 51 94
171 457 213 67 79 103
171 457 214 104 114 128
171 457 215 105 118 134
170 458 212 63 84 112
170 458 213 81 96 116
170 459 212 104 116 131
170 459 213 84 101 120
171 458 212 45 69 100
171 458 213 93 103 119
170 459 214 120 127 139
171 458 214 132 136 144
171 458 215 119 128 141
171 459 214 140 141 149
171 459 215 138 140 149
168 460 208 104 116 133
168 460 209 124 129 139
168 461 208 97 113 131
168 461 209 124 129 139
169 460 209 129 132 141
168 461 210 140 139 144
169 460 210 145 141 145
169 460 211 147 144 147
169 461 210 146 142 144
169 461 211 149 144 144
168 462 208 99 114 131
168 462 209 105 116 131
168 463 208 107 119 134
168 463 209 95 111 129
168 462 210 133 134 141
168 462 211 144 142 146
168 463 210 108 119 134
168 463 211 134 138 146
169 462 210 147 143 145
169 462 211 149 144 146
169 460 212 141 141 148
169 461 212 144 143 148
169 461 213 137 140 149
168 463 212 132 136 145
169 462 212 151 147 149
169 462 213 142 142 149
169 463 212 138 139 146
169 463 213 129 134 144
169 462 214 116 126 140
169 463 214 96 114 134
170 460 212 125 131 142
170 460 213 90 107 125
170 461 213 111 122 137
170 460 214 94 109 125
170 460 215 132 134 143
170 461 214 85 103 121
170 461 215 125 129 139
171 460 215 139 141 148
170 462 214 86 104 123
170 462 215 88 105 125
170 463 214 77 102 127
170 463 215 58 89 122
172 456 213 64 89 114
172 456 214 80 100 122
172 456 215 81 103 126
172 457 214 99 112 129
172 457 215 86 105 127
172 458 215 87 106 127
171 458 216 92 109 127
171 459 216 104 118 135
170 461 216 129 134 145
171 460 216 123 131 144
171 460 217 88 108 131
171 461 216 127 134 146
171 461 217 91 112 134
171 461 218 60 92 124
170 462 216 100 114 133
170 462 217 78 102 127
170 463 216 55 86 119
170 463 217 54 87 119
171 462 217 86 109 133
170 463 218 60 91 121
171 462 218 63 94 125
171 462 219 75 99 129
171 463 218 68 96 124
171 463 219 80 103 129
171 463 220 100 114 131
172 456 216 99 112 129
172 457 216 101 113 128
172 457 217 133 134 140
173 456 216 100 110 127
173 456 217 120 125 135
173 457 217 140 140 145
173 456 218 109 119 134
173 456 219 84 101 119
173 457 218 139 140 148
173 457 219 102 116 133
172 458 216 86 103 122
172 458 217 113 120 131
172 459 216 87 105 125
172 459 217 85 103 124
172 458 218 138 139 145
172 459 218 106 117 133
172 459 219 133 137 148
173 458 218 143 144 150
173 458 219 127 134 146
173 459 219 131 137 148
174 456 219 105 112 123
173 457 220 92 106 122
173 458 220 95 108 124
173 458 221 108 113 123
173 459 220 109 120 134
173 459 221 101 112 127
174 456 220 130 131 137
174 456 221 149 145 147
174 457 220 117 122 131
174 457 221 139 137 142
174 456 222 152 147 147
174 457 222 152 147 148
174 457 223 155 148 148
175 456 222 153 147 147
175 456 223 155 148 148
175 457 223 156 149 147
174 458 221 130 130 136
174 458 222 146 143 147
174 458 223 150 146 149
174 459 222 124 130 142
174 459 223 126 132 142
175 458 223 151 147 149
175 459 223 113 122 136
172 460 217 75 99 125
172 460 218 81 102 125
172 460 219 109 122 138
172 461 218 63 94 123
172 461 219 71 98 124
172 462 219 68 94 125
172 460 220 109 123 141
172 461 220 72 98 125
173 460 220 110 123 139
173 460 221 96 111 133
173 461 221 77 99 127
173 460 222 89 107 131
173 461 222 73 93 122
173 461 223 57 82 112
172 462 220 77 98 123
172 462 221 99 111 129
172 463 220 111 120 134
172 463 221 133 136 143
173 462 221 75 95 121
172 462 222 117 122 135
172 463 222 130 132 141
173 462 222 92 104 126
173 462 223 93 104 122
173 463 222 106 115 132
173 463 223 109 117 131
174 460 222 90 109 130
174 460 223 76 99 123
174 461 222 60 87 117
174 461 223 75 95 118
174 462 223 119 124 134
