ply
format ascii 1.0
comment Version 2, Copyright 2017, 8i Labs, Inc.
comment frame_to_world_scale 0.179523
comment frame_to_world_translation -45.2095 7.18301 -54.3561
comment width 1023
element vertex 20
property float x
property float y
property float z
property uchar red
property uchar green
property uchar blue
end_header
175 456 224 152 148 150
175 457 224 153 148 150
175 458 224 140 141 148
175 459 224 100 113 130
175 459 225 92 109 129
173 463 224 136 136 143
174 461 224 121 126 137
175 460 224 82 102 123
175 460 225 108 119 134
175 461 224 122 127 138
175 461 225 140 141 148
175 461 226 142 142 148
174 462 224 143 141 145
174 462 225 153 148 149
174 463 224 148 145 148
174 463 225 160 155 156
175 462 225 152 147 149
175 463 225 166 159 159
175 462 226 158 153 155
175 463 226 169 162 161
