ply
format ascii 1.0
comment Version 2, Copyright 2017, 8i Labs, Inc.
comment frame_to_world_scale 0.179523
comment frame_to_world_translation -45.2095 7.18301 -54.3561
comment width 1023
element vertex 331
property float x
property float y
property float z
property uchar red
property uchar green
property uchar blue
end_header
163 464 161 43 79 122
163 465 160 65 84 128
163 465 161 65 92 131
162 465 162 61 92 133
162 465 163 61 95 133
163 464 162 47 79 122
163 464 163 59 89 124
163 465 162 55 87 127
163 465 163 52 87 124
162 466 160 64 83 129
162 466 161 68 97 136
162 467 160 58 80 130
162 467 161 55 90 132
163 466 160 59 81 128
163 466 161 71 96 136
162 466 162 68 100 138
162 466 163 65 98 139
162 467 162 58 97 136
162 467 163 67 101 140
162 464 164 69 101 130
162 464 165 79 107 132
162 465 164 72 106 136
162 465 165 84 114 141
163 464 164 63 96 126
163 464 165 67 98 125
162 464 166 88 110 136
162 464 167 82 102 131
162 465 166 89 118 145
162 465 167 84 111 141
162 466 164 76 111 145
162 466 165 79 116 147
162 467 164 74 111 146
162 467 165 63 109 144
162 466 166 80 117 148
162 466 167 76 112 145
162 467 166 55 107 143
163 466 167 73 111 145
163 467 166 55 107 144
163 467 167 58 106 143
161 470 160 67 100 138
161 471 160 45 91 138
162 468 160 55 82 131
162 468 161 45 85 130
162 469 160 57 89 132
162 469 161 47 87 131
162 468 162 51 92 132
162 468 163 66 103 140
162 469 162 42 86 130
162 469 163 44 93 133
162 470 160 57 95 138
162 470 161 49 92 135
162 471 160 39 88 136
162 471 161 51 98 138
162 470 162 46 93 135
162 470 163 47 95 135
162 471 162 74 112 145
162 471 163 75 110 145
163 470 163 57 100 138
163 471 163 81 114 146
162 468 164 71 111 146
162 468 165 62 109 146
162 469 164 62 107 143
163 468 165 54 107 146
163 469 164 72 113 147
163 469 165 73 115 149
163 468 166 55 106 145
163 468 167 63 105 142
163 469 166 71 112 146
163 470 164 67 108 142
163 470 165 85 120 150
163 471 164 71 110 141
164 464 160 57 81 123
164 464 161 40 76 119
164 465 160 65 84 127
165 464 160 60 79 121
164 464 162 32 73 119
164 468 167 73 108 143
164 469 166 74 111 143
164 469 167 75 109 142
164 470 165 88 121 149
164 471 164 78 114 143
164 471 165 75 111 141
164 470 166 85 117 146
164 470 167 80 112 143
164 471 166 82 113 142
164 471 167 80 112 143
165 471 167 72 106 139
162 464 168 72 78 114
162 464 169 67 55 95
162 465 168 73 87 124
162 465 169 69 70 107
163 464 169 60 37 85
163 465 169 65 50 95
163 464 170 55 36 90
163 464 171 45 50 104
163 465 170 52 31 91
163 465 171 46 51 105
162 466 168 73 90 127
163 466 168 76 102 136
163 466 169 67 56 101
163 467 168 75 106 140
163 467 169 73 75 114
163 466 170 54 31 89
163 464 172 43 57 113
164 465 171 44 54 109
164 467 168 81 104 137
164 467 169 67 66 106
164 466 170 49 30 92
164 466 171 40 49 106
164 467 170 52 31 90
164 467 171 39 42 103
164 464 172 42 59 117
164 464 173 36 57 120
164 465 172 41 61 116
164 465 173 33 61 122
164 464 174 38 61 125
164 464 175 47 67 125
164 465 174 36 64 125
165 464 175 51 69 121
165 465 174 38 67 126
165 465 175 50 73 124
164 466 172 34 59 116
164 466 173 33 62 121
164 467 172 35 58 115
164 467 173 34 62 119
165 467 173 30 60 119
164 466 174 35 64 124
165 466 174 36 66 124
165 466 175 47 73 124
165 467 174 21 60 119
165 467 175 39 69 121
164 468 168 81 110 142
164 468 169 73 86 122
164 469 168 79 111 142
164 469 169 70 89 127
164 468 170 54 44 97
164 468 171 46 50 106
164 469 170 54 47 102
164 469 171 45 49 105
164 470 168 71 106 140
164 470 169 56 81 122
164 471 168 70 104 139
164 471 169 60 87 126
164 470 170 45 41 100
164 470 171 37 43 103
164 471 170 57 64 110
164 471 171 52 60 108
164 468 172 47 64 117
164 468 173 40 63 119
164 469 172 42 56 115
164 469 173 38 60 118
165 468 173 35 62 118
164 469 174 29 57 116
165 468 174 22 60 117
165 468 175 34 67 117
165 469 174 24 58 115
165 469 175 23 61 113
164 470 172 42 56 114
164 470 173 39 62 117
164 471 172 59 72 118
164 471 173 57 77 119
164 470 174 32 63 114
164 470 175 31 63 110
164 471 174 51 78 114
164 471 175 46 72 110
162 472 160 40 90 135
162 472 161 68 108 142
162 473 160 58 100 140
162 473 161 74 111 145
163 473 161 76 114 146
162 472 162 86 119 149
163 472 162 94 124 152
163 472 163 102 128 154
163 473 162 86 119 147
163 473 163 96 123 149
162 474 160 71 108 143
162 474 161 70 111 145
162 475 160 64 104 139
163 474 160 65 109 142
163 474 161 71 113 146
163 475 160 63 105 140
163 475 161 67 108 142
163 474 162 81 116 146
163 474 163 89 118 145
163 475 162 78 114 144
163 472 164 98 126 152
163 473 164 99 125 151
163 474 164 75 110 138
163 476 160 75 110 140
163 476 161 69 108 140
163 477 160 87 118 146
163 477 161 91 121 147
163 476 162 62 104 137
163 477 162 80 113 141
163 477 163 75 108 138
163 478 160 63 103 138
163 478 161 76 110 140
163 479 160 35 82 127
163 479 161 36 81 126
163 478 162 81 111 139
163 478 163 81 110 137
163 479 162 45 87 126
163 479 163 55 92 127
163 477 164 67 103 132
163 477 165 57 91 122
163 477 166 58 87 118
163 477 167 61 88 116
163 478 164 72 104 131
163 478 165 54 89 118
163 479 164 59 94 124
163 479 165 59 91 120
162 479 167 73 99 127
163 478 166 64 91 119
163 478 167 65 92 118
163 479 166 67 95 122
163 479 167 77 101 125
164 474 163 100 126 152
164 475 163 91 120 147
164 472 164 91 121 148
164 472 165 83 113 142
164 473 164 96 123 149
164 473 165 90 117 145
164 472 166 74 107 137
164 472 167 65 102 135
164 473 166 74 105 136
164 473 167 47 86 125
165 472 167 57 96 131
165 473 167 54 92 128
164 474 164 79 112 141
164 474 165 77 108 138
164 475 164 85 115 143
164 475 165 68 101 133
164 474 166 69 101 133
164 474 167 55 92 128
164 475 166 51 87 122
164 475 167 48 85 120
164 476 163 63 103 135
164 476 164 71 105 135
164 476 165 68 99 130
164 477 164 65 100 130
164 477 165 61 93 125
164 476 166 54 85 119
164 476 167 64 90 120
164 477 166 59 88 120
163 475 170 68 91 110
163 475 171 68 87 109
161 475 175 43 79 113
163 473 173 59 80 110
163 472 174 42 78 107
163 472 175 39 72 105
163 473 174 49 78 108
163 473 175 41 72 106
162 475 173 40 72 101
163 474 172 47 57 96
163 474 173 33 59 97
163 475 172 53 62 94
163 475 173 32 60 95
162 474 174 34 68 106
162 474 175 37 70 109
162 475 174 35 75 107
162 475 175 37 73 110
163 474 174 37 69 104
163 475 174 33 66 101
163 476 168 76 97 122
163 476 169 85 103 123
163 477 168 64 89 116
163 477 169 79 98 119
162 477 171 103 115 130
163 476 170 83 102 121
163 476 171 75 92 111
163 477 170 96 110 127
163 477 171 99 112 128
162 478 169 96 113 132
162 479 168 89 110 133
162 479 169 100 118 138
163 478 168 75 98 122
163 478 169 88 106 127
163 479 168 90 110 132
162 478 170 93 109 127
162 478 171 92 108 126
162 479 170 103 119 138
162 479 171 96 114 133
163 478 170 90 107 125
161 476 174 63 97 122
161 476 175 53 90 117
161 477 174 69 101 126
161 477 175 58 94 121
161 478 173 66 97 121
161 479 172 84 107 128
161 479 173 68 99 124
160 479 175 52 92 121
161 478 174 59 95 122
161 478 175 46 88 118
161 479 174 55 94 122
161 479 175 49 90 120
162 476 172 67 81 99
162 476 173 51 74 98
162 477 172 86 100 117
162 477 173 71 94 114
163 476 172 62 74 96
162 476 174 54 89 114
162 477 174 72 100 123
162 478 172 87 104 122
162 478 173 77 100 122
162 479 172 81 103 124
164 472 168 62 97 132
164 472 169 68 94 129
164 473 168 45 84 122
164 473 169 64 90 124
165 472 168 60 97 132
164 472 170 64 78 117
164 472 171 43 60 107
164 473 170 65 86 118
164 473 171 59 73 108
164 474 168 56 90 125
164 474 169 68 93 123
164 475 168 54 87 120
164 475 169 66 92 119
164 474 170 77 96 121
164 474 171 66 81 109
164 475 170 80 100 120
164 475 171 78 94 115
164 472 172 42 61 108
164 472 173 43 70 110
164 473 172 55 69 107
164 473 173 61 79 111
164 472 174 47 79 111
164 472 175 46 77 108
164 474 172 56 63 99
164 476 168 70 94 121
164 476 169 75 97 120
