ply
format ascii 1.0
comment Version 2, Copyright 2017, 8i Labs, Inc.
comment frame_to_world_scale 0.179523
comment frame_to_world_translation -45.2095 7.18301 -54.3561
comment width 1023
element vertex 107
property float x
property float y
property float z
property uchar red
property uchar green
property uchar blue
end_header
165 463 159 63 81 119
167 463 157 46 73 98
166 462 159 42 66 97
166 463 158 50 74 108
166 463 159 49 73 108
167 462 158 51 69 91
167 462 159 48 68 94
167 463 158 45 71 98
167 463 159 43 68 98
175 455 159 77 78 82
174 463 151 59 63 68
175 463 150 48 55 64
175 463 151 56 60 66
170 459 159 59 73 86
171 458 159 67 75 83
171 459 158 57 68 79
171 459 159 59 70 82
169 463 155 58 69 85
170 463 155 56 68 82
171 462 155 62 68 80
171 463 154 52 64 77
171 463 155 58 67 80
168 461 159 48 66 87
169 460 159 53 71 88
169 461 158 58 71 85
169 461 159 54 69 87
168 462 157 57 76 92
168 463 156 62 75 91
168 463 157 55 75 94
169 462 157 62 77 91
169 463 156 64 74 89
169 463 157 61 75 90
168 462 158 54 70 89
168 462 159 53 69 91
168 463 158 48 70 93
169 462 158 56 70 85
170 461 156 64 75 86
170 461 157 63 74 85
171 460 157 60 69 79
171 461 156 65 74 84
171 461 157 63 72 81
170 460 158 57 69 81
170 460 159 52 68 83
170 461 158 59 70 83
171 460 158 54 66 78
170 462 156 64 75 88
170 462 157 62 77 91
170 463 156 64 73 86
171 462 156 63 73 83
174 459 155 61 67 74
175 459 155 64 69 75
172 457 159 73 77 83
173 457 158 69 73 79
173 457 159 72 77 83
172 459 157 60 69 77
173 459 157 59 68 77
172 458 158 62 71 81
172 458 159 66 73 81
172 459 158 57 68 79
172 459 159 62 72 82
173 458 158 61 69 78
173 459 158 59 69 79
175 457 157 61 69 78
174 456 159 72 76 80
174 457 158 68 72 79
174 457 159 76 79 84
175 456 158 74 78 83
175 456 159 73 76 81
175 457 158 67 71 77
174 458 157 59 68 78
174 459 156 61 68 76
174 459 157 58 68 77
175 458 156 59 67 76
175 458 157 58 67 77
175 459 156 61 68 75
174 458 158 63 70 80
172 461 155 59 67 75
173 461 154 58 62 69
173 461 155 59 65 72
172 463 153 57 65 73
173 462 153 54 63 72
173 463 152 63 67 72
173 463 153 61 66 73
172 462 154 51 61 72
172 462 155 57 64 75
172 463 154 45 59 71
173 462 154 56 62 71
175 461 153 52 59 68
174 460 155 59 66 73
174 461 154 56 62 68
174 461 155 56 64 72
175 460 154 59 64 70
175 460 155 61 66 73
175 461 154 55 61 68
174 462 153 54 63 71
174 463 152 64 67 72
174 463 153 61 67 74
175 462 152 63 67 72
175 462 153 52 61 70
175 463 152 64 67 72
172 460 156 64 72 80
172 460 157 60 69 77
172 461 156 63 71 80
173 460 156 64 71 77
173 460 157 63 71 78
173 461 156 60 68 76
174 460 156 61 68 75
