ply
format ascii 1.0
comment Version 2, Copyright 2017, 8i Labs, Inc.
comment frame_to_world_scale 0.179523
comment frame_to_world_translation -45.2095 7.18301 -54.3561
comment width 1023
element vertex 307
property float x
property float y
property float z
property uchar red
property uchar green
property uchar blue
end_header
161 481 145 85 108 131
161 480 146 84 106 128
161 480 147 88 110 132
161 481 146 80 105 131
161 481 147 78 106 134
160 483 145 69 103 136
161 482 144 73 98 123
161 482 145 84 109 133
161 483 144 67 96 123
161 483 145 71 101 131
160 483 146 71 106 137
160 483 147 74 108 138
161 482 146 84 111 137
161 482 147 86 113 140
161 483 146 67 101 130
162 480 144 69 88 106
162 480 145 76 98 117
162 481 144 72 93 113
162 481 145 81 102 123
163 480 144 60 80 98
162 480 146 79 101 122
162 482 144 75 98 120
160 481 149 74 107 136
161 480 148 92 113 135
161 480 149 101 118 137
161 481 148 77 107 136
161 481 149 82 110 136
161 480 150 102 119 137
161 480 151 101 117 135
161 481 150 86 111 136
161 481 151 86 110 134
160 482 148 84 113 140
160 482 149 84 114 141
160 483 148 77 110 139
161 482 148 88 116 144
161 482 149 85 115 142
161 483 148 76 110 139
161 483 149 82 114 144
161 482 150 84 114 141
161 482 151 86 115 142
161 483 150 85 117 147
161 483 151 88 119 148
162 483 151 82 116 148
160 484 145 68 103 137
160 485 144 63 100 133
160 485 145 70 104 137
161 484 144 76 104 132
161 484 145 70 102 133
161 485 144 66 100 133
160 484 146 63 102 139
160 484 147 64 103 141
160 485 146 69 104 140
160 485 147 64 101 139
161 485 147 72 105 139
160 486 144 73 107 137
160 486 145 73 106 138
160 487 144 77 108 137
160 487 145 79 110 140
160 486 146 76 109 141
160 486 147 82 111 140
160 487 146 80 108 138
160 487 147 82 110 138
161 486 147 72 105 137
161 487 147 80 108 135
160 484 148 62 104 140
160 485 148 67 103 140
161 484 148 53 98 137
161 484 149 55 98 139
161 485 148 73 108 142
161 485 149 72 108 143
161 484 150 59 100 142
161 484 151 61 102 142
161 485 150 67 106 144
161 486 148 83 111 137
161 486 149 85 112 138
161 487 148 86 113 139
161 487 149 96 119 144
161 486 150 83 113 139
162 484 151 62 103 144
162 485 151 63 104 143
162 486 151 79 111 140
162 487 150 94 118 143
162 487 151 82 111 139
161 480 152 99 116 133
161 481 152 90 113 136
161 482 152 86 114 141
162 480 152 103 120 139
162 480 153 97 117 141
162 481 152 89 114 141
162 481 153 76 106 138
162 480 154 79 106 136
162 480 155 64 97 130
162 481 154 60 97 132
163 480 155 72 104 135
163 481 155 53 93 129
162 482 152 80 111 140
162 482 153 68 102 135
162 483 152 79 114 144
162 483 153 71 105 139
162 482 154 61 98 132
162 483 154 65 101 136
163 482 154 64 100 134
163 482 155 64 101 134
163 483 154 67 103 137
163 483 155 60 101 135
163 480 156 60 96 127
163 480 157 54 94 126
163 481 156 50 91 125
163 481 157 45 89 121
163 480 158 72 106 135
163 480 159 79 111 140
163 481 158 44 88 119
163 481 159 59 96 125
163 482 156 61 99 132
163 482 157 64 100 128
163 483 156 70 106 138
163 483 157 80 111 140
163 482 158 63 98 125
163 482 159 57 93 121
163 483 158 71 104 132
163 483 159 59 95 124
162 484 152 54 99 139
162 484 153 48 92 132
162 485 152 50 97 138
162 485 153 48 94 132
162 484 154 57 96 132
162 485 154 52 96 129
163 484 154 57 96 131
163 484 155 53 95 129
163 485 155 44 92 125
162 486 152 69 106 138
162 486 153 64 102 135
162 487 152 69 103 134
162 487 153 62 101 132
162 486 154 57 97 129
162 486 155 46 91 124
162 487 154 46 92 126
162 487 155 46 92 125
163 486 155 51 94 125
163 484 156 51 96 131
163 484 157 57 99 132
163 485 156 43 92 126
163 485 157 37 88 123
163 484 158 63 100 130
163 484 159 59 96 125
163 485 158 41 88 121
163 485 159 41 86 117
162 487 156 41 86 121
163 486 156 43 89 121
163 486 157 32 82 116
163 487 156 33 83 118
163 487 157 31 80 115
163 486 158 24 79 112
163 486 159 23 76 109
163 487 158 31 79 111
163 487 159 42 83 113
160 488 144 81 106 130
160 488 145 83 107 131
160 489 144 92 112 131
160 489 145 83 104 123
160 488 146 90 112 137
160 488 147 112 129 149
160 489 146 73 98 120
160 489 147 67 93 116
161 488 147 88 114 140
161 489 147 72 97 121
160 490 144 90 114 140
160 490 145 99 119 144
160 491 144 39 79 132
160 491 145 43 79 132
160 490 146 104 123 143
160 491 146 47 83 133
161 490 146 98 121 145
161 490 147 100 120 140
161 491 146 50 86 133
161 491 147 55 93 133
161 488 148 90 116 142
161 488 149 83 113 140
161 489 148 80 103 126
161 489 149 91 112 135
161 488 150 66 102 133
161 490 148 96 114 135
161 490 149 85 105 128
161 491 148 75 106 136
161 491 149 82 111 136
161 491 150 48 90 126
162 488 150 76 108 137
162 488 151 63 99 131
162 489 150 89 113 138
162 489 151 78 107 134
162 490 150 71 99 125
162 490 151 62 97 125
162 491 150 77 106 133
162 491 151 60 96 128
160 492 144 36 73 134
160 492 145 31 68 132
160 493 144 50 86 134
160 493 145 48 85 134
161 493 145 47 84 133
161 492 146 33 70 130
161 492 147 34 71 129
161 493 146 52 85 133
161 493 147 56 87 133
160 494 144 79 107 137
160 494 145 78 107 137
160 495 144 98 119 140
160 495 145 100 121 142
160 494 146 78 107 137
160 494 147 77 106 136
160 495 146 92 117 141
160 495 147 89 117 142
161 494 146 81 109 139
161 492 148 31 75 128
161 492 149 31 78 124
161 493 148 58 89 134
161 493 149 58 91 135
161 492 150 36 77 121
161 492 151 41 81 118
161 493 150 65 98 132
161 493 151 64 96 127
160 494 148 76 104 136
160 494 149 70 100 137
160 495 148 81 111 139
160 495 149 74 104 137
160 494 150 62 99 135
160 494 151 57 97 130
160 495 150 53 94 129
160 495 151 39 86 123
161 494 150 64 100 134
161 494 151 65 99 129
162 488 152 52 94 127
162 488 153 48 93 126
162 489 152 71 103 131
162 489 153 54 95 125
162 488 154 39 90 123
162 488 155 35 87 121
162 489 154 48 93 123
162 489 155 44 89 121
162 490 152 66 99 128
162 490 153 72 102 130
162 491 152 60 96 127
162 491 153 69 100 128
162 490 154 70 102 130
162 490 155 59 96 126
162 491 154 73 103 129
162 491 155 67 100 127
162 488 156 38 85 119
162 488 157 39 83 116
162 489 156 36 82 115
162 489 157 29 76 109
163 488 157 35 81 114
162 489 158 39 77 109
162 489 159 55 86 115
163 488 158 39 81 112
163 488 159 57 90 117
162 490 156 51 90 120
162 490 157 42 83 113
162 491 156 55 92 120
162 491 157 49 85 114
162 490 158 46 83 113
162 490 159 52 86 116
162 491 158 47 82 112
162 491 159 55 85 114
161 492 152 46 87 119
161 492 153 52 90 118
161 493 152 62 94 123
161 493 153 61 90 116
161 492 154 53 87 114
161 493 154 54 84 109
161 493 155 49 80 105
160 495 152 37 83 119
160 495 153 35 80 116
161 494 152 66 98 127
161 494 153 71 98 123
161 495 152 49 87 121
161 495 153 59 93 123
160 495 154 38 80 115
160 495 155 42 81 117
161 494 154 76 101 125
161 494 155 72 97 120
161 495 154 56 90 119
161 495 155 63 94 122
162 492 153 59 94 121
162 492 154 60 94 120
162 492 155 53 87 114
161 492 157 34 72 101
161 493 156 37 73 101
161 493 157 41 76 103
161 492 158 47 75 103
161 492 159 65 88 113
161 493 158 53 82 109
161 493 159 70 91 115
160 495 156 42 80 118
160 495 157 50 85 120
161 494 156 62 91 116
161 494 157 58 89 116
161 495 156 63 95 122
161 495 157 59 93 121
160 494 158 66 93 118
160 494 159 65 90 112
160 495 158 54 88 119
160 495 159 59 87 113
161 494 158 61 91 117
161 494 159 64 90 114
162 492 156 41 81 109
162 492 157 36 73 104
162 492 158 43 75 104
