ply
format ascii 1.0
comment Version 2, Copyright 2017, 8i Labs, Inc.
comment frame_to_world_scale 0.179523
comment frame_to_world_translation -45.2095 7.18301 -54.3561
comment width 1023
element vertex 289
property float x
property float y
property float z
property uchar red
property uchar green
property uchar blue
end_header
163 608 145 74 80 111
163 609 145 79 85 114
162 608 147 80 83 113
162 609 147 77 81 117
163 608 146 81 85 115
163 609 146 76 83 115
163 609 147 76 84 119
163 610 145 66 78 110
162 610 147 74 82 117
163 610 146 58 72 108
163 610 147 64 75 111
163 611 146 68 76 108
163 611 147 65 74 107
161 608 149 114 111 119
161 609 149 98 98 115
160 608 150 138 132 131
160 608 151 138 131 129
160 609 150 134 127 128
160 609 151 137 130 128
161 608 150 135 128 130
161 609 150 129 124 126
161 610 149 112 112 120
161 611 149 123 122 128
160 610 151 136 130 129
161 610 150 127 123 124
161 610 151 136 130 128
161 611 150 134 129 131
161 611 151 137 131 130
162 608 148 84 84 108
162 609 148 79 81 116
162 610 148 74 82 115
162 610 149 87 92 115
162 611 148 74 81 112
162 611 149 108 111 125
163 611 148 68 75 108
163 612 146 89 91 115
163 612 147 89 91 112
163 613 147 94 97 111
163 614 147 104 107 117
161 612 150 121 121 129
161 612 151 128 128 135
161 613 151 89 96 124
161 614 151 55 66 115
162 612 148 83 86 113
162 612 149 95 96 117
162 613 149 83 86 113
163 612 148 86 87 111
163 613 148 95 97 111
163 613 149 91 96 111
162 612 150 115 115 126
162 613 150 75 81 116
162 613 151 66 75 114
162 614 149 92 97 116
163 614 148 115 115 122
163 614 149 118 119 126
163 615 148 128 124 124
163 615 149 135 130 131
162 614 150 89 96 119
162 614 151 73 83 118
162 615 150 129 128 133
162 615 151 114 119 130
163 615 150 135 131 133
164 608 144 67 73 105
164 609 144 66 72 104
164 609 145 78 85 113
164 610 144 70 74 106
164 610 145 69 78 109
164 611 144 77 80 106
164 611 145 80 84 112
165 610 144 68 72 103
165 611 144 80 82 107
164 611 146 79 83 112
164 612 145 89 91 115
164 613 145 66 78 106
165 612 144 88 91 115
165 613 144 61 76 109
165 613 145 63 79 109
164 612 146 90 92 114
164 613 146 77 85 107
164 614 145 61 69 110
165 614 144 60 74 110
165 614 145 58 71 110
165 615 144 83 90 109
165 615 145 67 72 102
164 614 146 65 72 107
164 614 147 86 90 110
164 615 146 69 68 102
164 615 147 97 96 114
166 615 144 89 95 113
164 615 148 120 117 121
160 608 152 131 126 126
160 608 153 132 126 127
160 609 152 138 131 129
160 609 153 135 130 131
160 609 154 126 125 129
160 610 152 139 133 133
160 610 153 128 127 132
160 611 152 135 131 133
160 611 153 121 123 131
161 611 152 135 132 133
160 610 154 110 115 130
160 611 154 103 110 131
160 611 155 97 105 129
160 612 153 110 117 132
161 612 152 128 130 137
161 612 153 119 123 133
161 613 152 95 102 129
161 613 153 96 104 129
160 612 154 108 115 136
160 612 155 105 111 136
160 613 154 102 109 134
160 613 155 103 109 135
161 614 152 68 77 122
161 614 153 75 86 123
161 615 153 82 93 122
160 614 154 82 97 125
160 614 155 76 91 120
160 615 155 63 76 116
161 614 154 82 95 124
161 615 154 68 83 116
162 614 152 78 87 127
162 615 152 90 100 128
160 613 156 99 105 132
160 614 156 75 86 119
160 614 157 72 80 119
160 615 156 59 71 118
160 615 157 68 75 119
163 616 148 132 126 125
163 616 149 135 129 129
163 617 149 129 125 127
162 616 150 133 130 131
162 616 151 116 119 128
162 617 151 103 108 120
163 616 150 132 127 129
163 617 150 127 123 126
163 617 151 107 110 120
163 618 149 119 117 121
163 619 149 88 93 103
162 618 151 90 99 114
163 618 150 109 110 117
163 618 151 95 102 114
163 619 150 96 100 108
163 619 151 96 103 117
163 620 150 114 115 121
163 620 151 98 106 120
163 621 150 114 118 125
163 621 151 98 105 121
163 622 150 106 112 122
163 622 151 91 99 119
163 623 151 84 89 116
165 616 145 105 105 113
165 617 145 118 114 114
164 616 146 106 105 112
164 616 147 116 113 119
164 617 147 133 126 123
165 616 146 100 100 109
165 617 146 126 120 118
165 618 145 106 105 110
164 618 147 129 125 126
165 618 146 119 117 122
165 618 147 128 125 126
165 619 146 68 79 106
165 619 147 89 98 119
166 616 144 102 104 110
166 617 144 96 97 102
166 617 145 106 105 109
166 618 144 92 94 105
166 618 145 86 88 98
166 619 144 90 95 109
166 619 145 66 76 95
167 618 144 108 110 118
167 619 144 89 95 108
164 616 148 129 124 125
164 617 148 134 127 124
164 617 149 133 127 127
164 618 148 127 123 124
164 618 149 120 118 122
164 619 148 91 99 119
164 619 149 90 96 111
165 620 146 42 61 92
165 620 147 39 59 94
165 621 147 93 96 104
165 622 147 117 112 113
166 620 145 59 73 93
166 621 145 114 113 118
167 620 144 65 75 88
167 620 145 72 81 97
167 621 144 113 111 114
167 621 145 122 118 121
166 620 146 46 60 91
166 621 146 108 108 113
166 622 145 122 116 115
167 622 144 120 115 116
167 622 145 122 115 113
167 623 145 116 110 110
166 622 146 119 112 112
166 622 147 120 113 112
166 623 146 118 112 112
166 623 147 119 112 113
167 623 146 119 113 113
164 620 148 61 75 105
164 620 149 98 103 114
164 621 148 66 78 95
164 621 149 90 95 103
165 620 148 51 69 101
165 621 148 80 87 98
164 621 150 114 116 122
164 622 149 91 95 104
164 623 149 107 109 119
165 622 148 113 110 113
165 622 149 111 110 115
165 623 148 121 115 115
165 623 149 121 117 120
164 622 150 94 99 113
164 623 150 94 98 114
164 623 151 85 91 112
161 616 153 75 88 118
161 617 153 68 81 118
160 616 155 54 69 113
161 616 154 64 75 113
161 616 155 53 66 110
161 617 154 63 72 116
161 617 155 75 86 116
161 618 154 55 65 114
161 618 155 77 85 112
161 619 154 77 84 116
161 619 155 97 102 121
162 616 152 90 99 122
162 616 153 82 93 120
162 617 152 80 91 114
162 617 153 73 87 118
162 618 152 73 87 113
162 618 153 63 77 115
162 619 152 78 90 120
162 619 153 65 77 117
163 619 152 83 95 120
162 619 154 63 74 114
160 616 156 60 72 115
160 616 157 74 82 117
160 617 156 91 101 121
160 617 157 93 100 119
160 618 156 103 110 122
160 618 157 109 113 122
160 619 156 120 123 130
160 619 157 116 118 127
161 618 156 98 105 119
161 619 156 113 117 127
160 618 158 101 105 126
160 619 158 105 109 125
161 620 154 94 100 119
161 620 155 110 114 128
161 621 155 114 117 129
161 622 155 101 103 123
161 623 155 104 104 126
162 620 152 69 82 120
162 620 153 63 74 118
162 621 152 66 78 119
162 621 153 71 80 119
163 620 152 79 92 119
163 621 152 70 84 117
162 620 154 78 86 116
162 621 154 102 108 125
162 622 153 89 95 121
162 623 153 103 104 125
163 622 152 75 85 118
163 622 153 92 97 123
163 623 152 91 95 121
163 623 153 102 103 125
162 622 154 105 108 126
162 622 155 100 99 123
162 623 154 102 100 123
162 623 155 101 97 123
160 620 156 115 117 127
160 620 157 110 113 126
160 621 157 89 94 121
161 620 156 116 119 129
161 621 156 103 106 122
160 620 158 115 119 133
160 621 158 102 107 131
160 622 157 81 87 124
160 623 157 101 109 136
161 622 156 91 95 122
161 623 156 106 110 132
161 623 157 107 115 139
160 622 158 85 93 132
160 623 158 95 107 137
160 623 159 92 105 138
168 622 144 114 109 111
168 623 144 111 105 105
