ply
format ascii 1.0
comment Version 2, Copyright 2017, 8i Labs, Inc.
comment frame_to_world_scale 0.179523
comment frame_to_world_translation -45.2095 7.18301 -54.3561
comment width 1023
element vertex 332
property float x
property float y
property float z
property uchar red
property uchar green
property uchar blue
end_header
167 608 138 29 44 84
167 608 139 27 43 86
167 609 138 36 50 86
167 609 139 43 53 89
167 610 139 39 47 83
167 611 139 39 45 81
165 608 141 46 57 94
164 608 143 58 65 100
164 609 143 60 66 100
165 608 142 48 58 94
165 608 143 54 60 97
165 609 142 48 56 91
165 609 143 60 65 99
165 610 142 59 62 91
165 610 143 66 70 101
165 611 143 67 68 99
166 608 140 33 44 90
166 608 141 46 53 94
166 609 140 41 47 89
166 609 141 47 54 91
167 608 140 28 38 87
167 609 140 38 47 87
166 610 140 43 48 84
166 610 141 40 47 82
166 611 141 37 43 77
167 610 140 41 45 82
167 611 140 37 43 77
166 610 142 46 53 84
166 611 142 53 55 87
165 612 143 72 74 104
165 613 143 56 68 105
166 612 141 38 46 81
166 613 141 35 44 81
167 612 140 37 43 71
167 612 141 31 41 73
167 613 140 31 39 66
167 613 141 28 39 75
166 612 142 47 52 90
166 612 143 57 63 99
166 613 142 43 53 96
166 613 143 49 60 101
167 614 140 27 33 61
167 614 141 35 43 81
167 615 140 33 37 68
167 615 141 40 45 83
166 614 142 40 50 95
166 614 143 54 65 104
166 615 142 52 61 93
166 615 143 71 79 102
167 615 142 48 53 93
167 616 141 42 46 82
167 617 141 42 48 84
166 616 143 77 85 97
166 617 143 90 93 102
167 616 142 63 70 97
167 617 142 69 77 100
167 617 143 94 98 109
167 618 141 45 55 87
166 618 143 104 106 114
167 618 142 78 84 100
167 618 143 107 109 118
167 619 142 86 90 101
167 619 143 99 105 114
167 620 143 73 82 94
167 621 143 83 87 95
170 608 129 72 107 135
170 609 129 65 104 134
171 608 128 68 102 130
171 608 129 67 104 132
171 609 128 66 101 129
171 609 129 68 105 134
170 608 130 64 104 134
170 608 131 66 104 132
170 609 130 61 102 133
170 609 131 63 103 133
171 610 128 61 99 128
171 610 129 69 106 135
171 611 128 62 100 129
171 611 129 65 103 132
170 610 131 63 104 135
171 610 130 69 107 136
171 610 131 66 106 136
171 611 130 65 104 133
171 611 131 61 103 133
169 608 134 56 66 76
169 608 135 47 56 69
169 609 134 54 66 78
169 609 135 47 54 74
169 610 135 50 56 80
170 608 132 63 93 117
170 608 133 58 75 90
170 609 132 64 97 123
170 609 133 60 80 97
170 609 134 57 69 82
170 610 132 64 100 128
170 610 133 62 86 105
170 611 132 64 102 131
170 611 133 58 92 118
171 610 132 62 103 134
171 611 132 62 103 133
170 610 134 58 73 90
170 610 135 54 64 86
170 611 134 56 76 98
170 611 135 49 60 82
171 612 128 59 99 129
171 612 129 65 103 132
171 613 128 59 99 129
171 613 129 63 102 131
171 612 130 68 105 134
171 612 131 62 103 134
171 613 130 66 103 133
171 613 131 64 104 136
171 614 128 62 99 128
171 614 129 62 101 131
171 615 128 74 103 129
171 615 129 59 99 129
171 614 130 65 104 135
171 614 131 60 104 136
171 615 130 57 101 132
171 615 131 60 104 136
170 612 133 51 90 119
170 613 133 51 91 121
171 612 132 60 102 133
171 612 133 54 96 127
171 613 132 62 105 136
171 613 133 57 99 129
170 612 134 46 74 100
170 612 135 46 58 78
170 613 134 46 80 106
170 613 135 50 57 73
171 614 132 58 101 134
171 614 133 55 97 128
171 615 132 57 102 134
171 615 133 57 98 127
170 614 134 45 77 102
170 614 135 52 63 79
170 615 135 48 68 88
171 614 134 44 84 112
171 615 134 47 84 110
171 615 135 44 72 95
168 608 136 30 42 73
168 608 137 29 41 78
168 609 136 33 41 73
168 609 137 35 44 75
169 608 136 34 46 73
169 609 136 36 45 73
168 608 138 30 44 82
168 609 138 32 46 82
168 610 137 30 45 77
169 610 136 36 49 73
169 610 137 33 48 74
169 611 136 30 48 73
169 611 137 30 48 75
168 610 138 33 47 80
168 610 139 34 44 80
168 611 138 31 47 80
168 611 139 33 44 81
169 611 138 26 46 75
170 611 136 42 46 70
169 612 137 34 52 79
168 612 139 35 41 76
168 613 139 38 41 71
169 612 138 30 48 79
169 613 138 32 46 76
169 613 139 37 41 75
168 614 139 31 35 60
168 615 139 23 35 51
169 614 138 31 42 69
169 614 139 41 45 73
169 615 138 34 42 65
169 615 139 24 36 56
170 612 136 40 52 76
170 612 137 39 52 77
170 613 136 40 52 77
170 613 137 34 51 77
170 614 136 45 60 84
170 614 137 32 48 75
170 615 136 36 57 79
170 615 137 32 48 70
168 613 140 32 37 64
168 614 140 22 31 55
168 615 140 23 33 51
171 616 128 86 108 131
171 616 129 66 101 129
171 617 128 100 116 135
171 617 129 76 105 130
171 616 130 56 99 130
171 616 131 55 100 132
171 617 130 64 101 130
171 617 131 58 100 130
171 618 128 109 120 137
171 618 129 92 114 135
171 619 128 112 122 137
171 619 129 102 120 139
171 618 130 76 106 132
171 618 131 63 101 130
171 619 130 79 108 133
171 619 131 70 104 132
171 616 132 54 99 131
171 616 133 56 97 126
171 617 132 55 98 129
171 617 133 56 97 126
170 616 135 40 57 77
170 617 135 34 57 80
171 616 134 46 85 111
171 616 135 40 68 91
171 617 134 47 86 113
171 617 135 31 59 86
171 618 132 56 98 128
171 618 133 59 100 129
171 619 132 56 98 129
171 619 133 52 97 128
170 618 135 39 64 90
171 618 134 55 92 119
171 618 135 39 70 98
171 619 134 51 94 124
171 619 135 40 76 105
171 620 134 54 97 127
171 620 135 41 82 111
171 621 134 45 93 125
171 621 135 43 88 118
171 622 135 50 92 122
171 623 135 57 95 124
172 619 128 115 124 138
172 619 129 102 120 138
172 619 130 85 111 135
172 619 131 74 107 134
172 619 132 59 100 129
172 619 133 52 97 128
172 620 128 120 127 138
172 620 129 107 121 138
172 621 128 123 128 139
172 621 129 109 121 136
172 620 130 80 107 130
172 620 131 64 100 127
172 621 130 84 108 130
172 621 131 63 99 126
172 622 129 114 124 138
173 622 128 124 129 139
173 622 129 118 127 139
173 623 128 119 125 137
173 623 129 112 123 138
172 622 130 89 110 131
172 622 131 81 106 130
172 623 131 76 104 128
173 622 130 96 114 133
173 623 130 97 114 133
173 623 131 80 105 129
172 620 132 54 97 128
172 620 133 52 97 128
172 621 132 52 94 125
172 621 133 45 93 125
172 621 134 44 93 125
172 622 132 64 99 127
172 622 133 57 95 125
172 623 132 60 95 122
172 623 133 57 94 123
172 622 134 47 93 125
172 623 134 53 95 125
172 623 135 50 93 124
168 616 139 27 38 46
168 617 139 29 38 46
169 616 138 31 38 61
169 616 139 26 37 50
169 617 138 27 33 56
169 617 139 26 32 46
169 618 138 29 33 53
169 618 139 30 30 48
169 619 138 32 37 53
169 619 139 33 37 54
170 616 136 29 53 75
170 616 137 34 47 68
170 617 136 32 57 79
170 617 137 32 46 66
170 617 138 27 37 61
170 618 136 40 64 86
170 618 137 32 53 76
170 619 136 41 62 85
170 619 137 37 55 77
171 619 136 43 69 95
170 618 138 29 43 67
170 619 138 34 44 62
168 616 140 30 35 61
168 617 140 37 40 72
168 617 141 45 45 83
168 618 140 32 37 66
168 618 141 44 52 83
168 619 140 38 45 73
168 619 141 47 55 82
169 618 140 35 32 50
169 619 140 33 36 58
168 619 142 74 79 96
169 620 139 32 38 57
169 621 139 31 37 59
169 622 139 28 35 58
170 620 136 37 60 84
170 620 137 41 59 78
170 621 137 43 57 74
171 620 136 35 63 91
171 621 136 33 68 96
170 620 138 34 50 67
170 621 138 43 52 62
170 621 139 38 46 60
170 622 137 42 50 67
171 622 136 33 72 99
171 622 137 33 51 71
171 623 136 47 79 104
171 623 137 36 53 69
170 622 138 45 49 57
170 622 139 38 45 57
170 623 138 47 48 61
170 623 139 40 45 62
168 620 141 37 48 80
168 621 141 31 41 78
169 620 140 27 33 60
169 621 140 28 35 64
169 621 141 33 44 75
168 620 142 56 66 89
168 620 143 64 74 88
168 621 142 40 51 79
168 621 143 76 80 91
169 622 140 32 42 66
169 622 141 27 41 71
169 623 140 32 45 66
169 623 141 37 46 67
168 622 142 56 59 77
168 622 143 92 90 94
168 623 143 95 90 92
169 622 142 37 43 67
169 623 142 59 60 72
170 622 140 32 37 59
170 623 140 33 43 66
