ply
format ascii 1.0
comment Version 2, Copyright 2017, 8i Labs, Inc.
comment frame_to_world_scale 0.179523
comment frame_to_world_translation -45.2095 7.18301 -54.3561
comment width 1023
element vertex 59
property float x
property float y
property float z
property uchar red
property uchar green
property uchar blue
end_header
173 480 224 60 85 138
173 480 225 81 100 144
173 481 224 49 75 131
173 482 224 71 97 137
173 483 224 97 117 146
174 480 225 101 117 150
174 481 224 77 95 140
174 481 225 101 115 147
174 480 226 144 151 166
174 481 226 134 141 157
175 480 227 171 170 175
175 481 226 158 160 168
175 481 227 172 169 174
174 482 224 66 90 136
174 482 225 96 109 144
174 483 224 93 111 144
174 483 225 93 107 143
175 483 225 101 114 146
174 482 226 118 128 150
175 482 226 139 144 158
175 482 227 172 169 175
175 483 226 128 137 157
175 483 227 161 164 174
175 480 228 171 169 174
175 480 229 157 159 168
175 481 228 176 172 177
175 482 228 178 174 178
174 484 224 103 118 146
174 484 225 83 98 138
174 485 224 99 114 145
175 484 225 94 108 145
175 485 225 90 107 146
175 484 226 117 130 154
175 485 226 103 121 153
174 486 224 74 97 139
174 487 224 90 113 147
175 486 224 74 96 141
175 486 225 83 104 147
175 487 224 89 112 149
175 487 225 85 109 151
175 486 226 90 110 151
175 487 226 80 103 150
174 488 224 118 136 157
174 489 224 143 154 169
175 488 224 108 129 154
175 488 225 93 117 151
175 489 224 129 143 161
175 489 225 93 116 145
174 490 224 145 154 168
174 491 224 139 149 165
175 490 224 139 149 165
175 490 225 102 121 147
175 491 224 135 147 164
175 491 225 125 139 160
175 492 224 129 144 163
175 492 225 128 144 163
175 493 224 123 141 161
175 494 224 117 137 160
175 495 224 116 136 159
