ply
format ascii 1.0
comment Version 2, Copyright 2017, 8i Labs, Inc.
comment frame_to_world_scale 0.179523
comment frame_to_world_translation -45.2095 7.18301 -54.3561
comment width 1023
element vertex 107
property float x
property float y
property float z
property uchar red
property uchar green
property uchar blue
end_header
169 528 208 132 145 164
170 528 208 167 170 180
170 528 209 164 168 180
170 529 208 189 184 187
170 529 209 189 184 189
171 528 209 183 182 190
171 529 209 190 184 188
170 528 210 153 161 176
171 528 210 165 168 181
171 529 210 189 184 187
170 530 208 192 183 185
170 531 208 189 181 182
171 530 208 196 187 187
171 530 209 197 188 188
171 531 208 195 186 186
171 531 209 198 189 189
170 532 208 184 177 179
171 532 208 189 181 182
171 532 209 195 186 186
171 533 208 184 178 180
171 534 208 160 157 163
171 535 208 151 150 157
172 528 210 173 172 180
172 528 211 160 161 171
172 529 210 190 184 187
172 529 211 189 183 187
173 529 211 197 190 192
172 531 209 197 188 188
172 530 210 198 189 190
172 530 211 199 191 193
172 531 210 198 189 191
173 530 211 193 186 190
173 531 210 194 188 190
173 531 211 189 184 188
174 531 211 174 171 178
173 528 212 181 177 182
173 528 213 193 186 187
173 529 212 198 190 193
174 528 213 199 190 191
174 529 212 198 190 193
174 529 213 199 191 192
175 529 213 197 190 192
174 528 214 200 191 192
175 528 214 199 190 192
175 528 215 198 190 192
175 529 214 201 192 194
174 530 212 179 175 180
174 530 213 188 181 185
174 531 212 169 167 175
175 530 213 188 183 187
175 531 212 175 172 180
175 531 213 182 177 184
172 532 209 195 186 185
172 533 208 188 180 182
172 533 209 193 184 184
173 533 209 196 187 187
172 532 210 196 187 188
173 532 210 195 187 188
173 532 211 190 184 188
173 533 210 198 189 189
172 534 208 167 162 166
172 534 209 182 175 177
172 535 208 164 160 164
172 535 209 178 171 173
173 534 209 191 182 183
173 535 209 188 180 180
173 534 210 195 186 186
174 532 211 193 186 190
174 533 210 199 190 191
174 533 211 201 192 193
175 532 211 200 193 196
175 533 211 196 189 192
174 535 209 193 184 184
174 534 210 197 187 188
174 535 210 194 185 186
175 534 210 195 187 189
175 534 211 192 185 188
175 535 210 194 185 186
175 532 212 195 189 194
172 536 208 165 161 165
172 537 208 149 148 154
173 536 208 174 169 172
173 536 209 184 176 178
173 537 208 156 154 159
173 537 209 164 160 165
172 538 208 163 161 167
172 539 208 174 174 182
173 538 208 169 167 172
173 539 208 175 174 182
174 536 209 189 180 180
174 537 209 173 167 171
175 536 209 190 181 181
175 537 209 185 177 179
175 536 210 194 184 184
175 537 210 189 181 181
174 538 208 178 174 178
174 538 209 176 171 175
174 539 208 174 172 179
174 539 209 181 176 180
175 538 209 184 178 180
175 539 209 181 177 180
173 540 208 161 166 178
174 540 208 156 164 179
174 541 208 142 162 188
175 540 208 159 166 181
175 540 209 174 172 179
175 541 208 145 165 191
