ply
format ascii 1.0
comment Version 2, Copyright 2017, 8i Labs, Inc.
comment frame_to_world_scale 0.179523
comment frame_to_world_translation -45.2095 7.18301 -54.3561
comment width 1023
element vertex 73
property float x
property float y
property float z
property uchar red
property uchar green
property uchar blue
end_header
172 624 192 130 141 163
172 625 192 131 143 166
173 624 192 121 135 161
173 625 192 109 126 154
173 626 192 119 133 159
173 627 192 124 137 160
174 624 193 137 149 170
174 625 193 147 156 174
175 625 193 171 175 188
175 624 194 156 164 180
175 625 194 168 171 183
174 626 193 149 155 170
174 627 192 159 165 179
174 627 193 168 172 183
175 626 193 161 164 175
175 627 193 168 170 180
175 626 194 174 173 183
175 627 194 166 166 175
173 628 192 136 147 165
173 629 192 158 165 180
173 630 192 147 155 170
173 631 192 158 163 176
174 628 192 147 154 169
174 628 193 155 160 173
174 629 192 155 162 175
174 629 193 149 155 169
175 628 193 167 170 180
175 629 193 156 159 170
175 628 194 173 172 181
175 629 194 166 168 177
174 630 192 163 168 181
174 630 193 169 172 183
174 631 192 148 154 167
174 631 193 152 156 168
175 630 193 160 163 174
175 631 193 163 165 176
175 630 194 153 156 167
173 632 192 152 156 169
173 633 192 146 149 161
173 634 192 159 161 170
173 635 192 153 155 168
174 632 192 159 163 175
174 632 193 156 160 172
174 633 192 147 150 162
174 633 193 154 157 169
175 632 193 151 155 166
175 633 193 156 159 170
174 634 192 152 154 164
174 634 193 148 151 161
174 635 192 163 164 174
174 635 193 161 162 172
175 634 193 154 157 167
175 635 193 150 153 164
175 635 194 129 139 154
173 636 192 114 125 146
173 637 192 113 127 150
173 638 192 117 132 156
173 639 192 88 108 145
174 636 192 133 140 155
174 636 193 143 148 161
174 637 192 122 133 152
174 637 193 120 130 146
175 636 193 140 147 159
175 637 193 129 137 152
175 636 194 128 138 154
174 638 192 129 140 159
174 638 193 134 143 158
174 639 192 110 125 151
174 639 193 138 148 164
175 638 193 139 146 158
175 639 193 154 160 172
175 638 194 144 152 166
175 639 194 133 143 160
