ply
format ascii 1.0
comment Version 2, Copyright 2017, 8i Labs, Inc.
comment frame_to_world_scale 0.179523
comment frame_to_world_translation -45.2095 7.18301 -54.3561
comment width 1023
element vertex 94
property float x
property float y
property float z
property uchar red
property uchar green
property uchar blue
end_header
160 784 176 90 103 119
160 785 176 71 70 75
161 784 176 111 127 145
161 785 176 74 74 82
162 784 176 111 129 150
162 784 177 119 141 167
162 785 176 77 77 84
163 784 176 93 117 143
163 784 177 105 135 166
163 785 176 98 102 108
163 786 176 119 108 101
164 784 177 111 136 164
164 785 176 144 152 167
165 784 177 102 120 144
165 785 176 159 160 173
165 785 177 142 144 159
164 786 176 129 122 120
165 786 176 146 131 127
165 787 176 142 118 111
166 784 177 140 132 139
166 785 177 150 131 127
167 784 177 174 154 147
167 785 177 170 138 115
167 784 178 168 156 154
166 786 176 151 122 104
166 787 176 142 111 97
167 786 176 164 125 105
167 786 177 165 127 99
167 787 176 165 132 127
168 785 177 174 138 110
169 785 177 177 142 109
168 784 178 166 144 134
169 784 178 151 131 122
169 785 178 170 143 120
168 786 177 176 138 100
168 787 176 168 137 126
169 786 177 180 142 108
169 787 176 165 128 113
170 784 178 140 123 113
170 784 179 121 103 88
170 785 178 186 163 145
171 784 178 146 127 119
171 784 179 146 126 113
171 785 178 169 148 136
170 786 177 186 147 121
170 787 176 186 142 116
170 787 177 187 139 116
171 786 177 170 138 115
171 787 176 189 152 128
171 787 177 187 149 126
171 786 178 166 142 125
168 788 176 160 126 140
169 788 176 150 112 110
170 788 176 160 121 96
171 788 176 160 125 100
172 784 179 170 146 141
172 785 178 137 115 112
173 784 179 159 136 122
173 785 178 86 60 71
173 785 179 126 103 96
172 786 177 146 127 114
172 787 177 186 167 157
173 786 177 123 109 107
173 787 177 133 120 121
172 786 178 140 121 114
173 786 178 88 69 79
174 784 179 153 128 110
174 785 179 113 89 93
175 785 179 122 102 111
174 787 177 120 111 121
175 787 177 140 132 140
174 786 178 81 68 82
174 787 178 134 123 132
175 786 178 124 122 132
175 786 179 100 92 104
175 787 178 158 151 156
173 784 180 158 129 106
174 784 180 175 150 129
175 784 180 182 161 150
175 785 180 147 129 132
172 788 176 156 133 122
172 789 176 125 106 107
173 788 176 132 115 110
173 788 177 134 120 116
173 789 176 117 107 115
173 790 176 109 109 124
174 788 176 136 125 124
174 788 177 121 108 116
174 789 176 119 111 120
175 788 177 102 85 99
175 789 176 80 71 86
175 789 177 94 76 88
174 790 176 87 85 101
175 790 176 72 67 80
