ply
format ascii 1.0
comment Version 2, Copyright 2017, 8i Labs, Inc.
comment frame_to_world_scale 0.179523
comment frame_to_world_translation -45.2095 7.18301 -54.3561
comment width 1023
element vertex 76
property float x
property float y
property float z
property uchar red
property uchar green
property uchar blue
end_header
163 816 95 158 10 31
164 816 95 145 15 45
164 817 95 143 42 36
165 816 94 158 94 121
165 816 95 141 60 93
165 817 94 128 88 89
165 817 95 139 83 75
164 818 95 158 96 83
165 818 95 148 103 90
165 819 95 142 122 109
167 816 93 162 133 110
166 816 94 167 129 129
166 817 94 122 84 94
167 816 94 161 131 112
167 817 94 128 97 89
166 818 94 105 76 75
166 818 95 147 126 120
166 819 95 158 144 136
167 818 94 83 48 48
167 818 95 79 46 41
167 819 95 87 72 76
166 820 95 116 104 95
167 820 95 80 77 76
168 816 93 134 133 134
169 816 93 79 112 145
169 817 93 101 135 165
168 817 94 114 115 118
169 817 94 103 126 147
168 818 94 97 84 75
168 819 95 85 74 72
169 818 94 106 110 118
169 819 94 101 95 97
169 819 95 96 92 98
170 816 93 60 51 100
170 817 93 83 96 118
171 816 93 82 49 86
171 817 93 68 49 67
170 817 94 89 103 119
171 817 94 57 47 59
170 818 94 64 68 77
170 819 94 49 54 58
170 819 95 57 51 49
171 818 94 52 46 57
171 819 94 49 46 55
171 819 95 55 49 53
168 820 95 77 76 75
169 820 95 71 68 72
170 820 95 63 50 49
171 820 95 56 32 53
172 816 93 70 61 81
172 817 93 64 60 65
173 816 92 64 74 80
173 816 93 69 76 80
173 817 93 74 78 83
172 818 94 59 57 59
172 819 94 54 45 59
173 818 94 69 73 78
173 819 94 77 76 85
174 816 92 60 70 75
174 816 93 62 67 74
174 817 93 58 58 68
175 816 92 50 55 59
175 816 93 48 49 56
175 817 93 64 51 65
175 818 93 106 102 108
174 818 94 87 87 93
174 819 94 146 133 129
175 818 94 156 145 142
175 819 94 191 168 157
172 820 95 104 93 104
173 820 95 158 145 145
174 820 95 172 147 132
174 821 95 174 151 143
175 820 94 193 156 130
175 820 95 187 153 136
175 821 95 187 155 138
