ply
format ascii 1.0
comment Version 2, Copyright 2017, 8i Labs, Inc.
comment frame_to_world_scale 0.179523
comment frame_to_world_translation -45.2095 7.18301 -54.3561
comment width 1023
element vertex 261
property float x
property float y
property float z
property uchar red
property uchar green
property uchar blue
end_header
185 417 240 72 86 100
185 417 241 84 92 104
184 418 240 95 103 113
184 419 240 134 136 145
185 418 240 93 101 112
185 418 241 109 112 119
185 419 240 122 124 131
185 419 241 149 147 151
185 418 242 115 117 124
185 419 242 150 147 151
186 416 240 64 78 91
186 416 241 69 79 89
186 417 241 74 84 96
187 416 240 73 83 93
187 416 241 73 81 89
186 417 242 82 91 102
186 417 243 86 96 109
187 416 242 75 84 94
187 416 243 73 84 96
187 417 243 67 80 94
186 418 242 107 113 123
186 418 243 110 115 126
186 419 242 148 146 152
186 419 243 150 148 153
186 417 244 85 97 110
186 417 245 92 103 116
187 416 244 73 84 95
187 416 245 75 87 99
187 417 244 72 84 97
187 417 245 86 95 107
187 416 246 82 94 108
187 417 246 93 105 119
187 417 247 95 108 125
186 418 244 114 120 130
186 418 245 121 126 137
186 419 244 149 149 155
186 419 245 147 148 155
187 419 245 149 151 159
186 418 246 121 128 141
187 418 246 118 127 141
187 418 247 104 117 134
187 419 246 134 140 153
187 419 247 122 135 153
184 420 240 156 157 166
184 421 240 163 166 177
185 420 240 164 164 171
185 420 241 172 169 173
185 421 240 169 172 185
185 421 241 182 179 186
186 421 241 187 186 196
186 420 242 176 172 176
186 420 243 178 174 179
186 421 242 189 189 198
186 421 243 189 187 194
187 421 242 177 180 192
187 421 243 176 178 190
186 422 240 164 171 189
186 422 241 176 179 193
187 422 240 152 159 182
187 422 241 159 165 181
187 423 240 145 151 175
187 423 241 151 156 175
187 422 242 167 172 185
186 420 244 174 170 175
187 420 244 176 173 178
187 420 245 169 168 175
187 421 244 177 178 189
187 421 245 173 177 190
187 420 246 148 155 169
187 420 247 133 144 165
188 416 242 73 82 94
188 416 243 65 76 87
188 416 244 67 77 87
188 416 245 56 71 86
189 416 245 54 71 89
188 416 246 72 87 102
188 416 247 82 95 110
188 417 246 85 97 112
188 417 247 89 103 119
189 416 246 77 89 103
189 416 247 84 96 110
188 422 241 160 164 177
188 423 241 164 166 178
189 423 241 175 175 182
188 422 242 167 171 184
188 422 243 169 173 186
188 423 242 176 177 187
189 423 242 181 179 187
189 423 243 179 179 188
188 421 244 166 170 185
188 421 245 146 156 179
188 420 247 130 144 168
188 421 246 132 148 179
188 421 247 111 130 177
189 421 246 124 142 179
189 421 247 108 129 180
188 422 244 161 167 182
188 422 245 137 150 174
189 422 244 164 170 186
189 422 245 150 161 185
189 423 244 174 177 189
189 422 246 134 150 183
189 422 247 131 148 185
190 422 245 161 170 189
190 423 244 180 179 188
190 423 245 175 178 191
191 423 245 179 179 189
190 422 246 149 163 189
190 422 247 134 150 182
190 423 246 162 171 190
191 423 246 166 171 186
191 423 247 150 159 180
187 418 248 104 117 135
187 419 248 120 131 147
188 417 248 85 99 116
188 417 249 89 103 121
189 416 248 83 95 109
189 416 249 84 96 113
189 417 248 78 93 110
189 417 249 84 98 116
189 417 250 81 99 120
189 417 251 82 102 124
188 418 248 98 112 129
188 418 249 103 117 135
188 419 248 129 139 155
188 419 249 130 139 155
189 418 249 89 104 125
188 418 250 101 116 137
188 419 250 130 140 159
189 418 250 94 110 131
189 418 251 92 109 132
189 419 250 126 137 158
189 419 251 118 131 154
190 416 248 91 99 112
190 416 249 88 97 111
190 416 250 87 99 115
190 416 251 89 103 120
190 417 251 81 100 121
191 416 250 93 102 114
191 416 251 91 102 116
189 418 252 94 109 134
189 419 252 111 127 154
190 417 252 86 103 124
190 417 253 89 105 125
191 416 252 86 102 119
191 416 253 85 102 120
191 417 253 89 105 124
191 416 254 89 105 123
191 417 254 92 108 127
191 417 255 95 111 129
190 418 252 90 106 131
190 418 253 95 109 133
190 419 252 106 121 148
190 419 253 105 116 150
190 418 254 100 112 138
190 419 254 106 115 152
191 418 254 97 112 135
191 418 255 99 114 140
191 419 255 104 114 153
188 420 248 132 148 171
188 420 249 144 156 174
189 420 249 136 151 174
189 421 248 104 121 171
189 421 249 87 99 149
188 420 250 146 156 176
189 420 250 125 142 169
189 420 251 119 137 170
189 421 250 91 112 153
190 421 248 118 132 173
190 421 249 116 129 167
190 420 251 111 133 168
190 421 250 134 148 173
190 421 251 116 136 168
191 421 251 173 178 193
190 422 248 131 145 175
190 422 249 148 157 182
191 422 248 162 169 184
191 422 249 187 187 197
191 423 248 153 161 178
191 423 249 186 186 195
190 422 250 168 173 187
191 422 250 189 188 195
191 422 251 189 188 196
191 423 250 192 187 192
190 420 252 105 124 166
190 420 253 106 117 166
190 421 252 137 149 177
191 420 253 117 130 170
191 421 252 176 181 196
191 421 253 161 168 189
190 420 254 105 114 163
191 420 254 108 121 165
191 420 255 106 115 162
191 421 254 137 147 178
191 421 255 114 125 167
191 422 252 188 188 198
191 422 253 187 188 198
188 424 240 157 158 171
188 424 241 172 170 178
188 425 240 156 156 164
189 424 241 177 173 178
189 425 240 161 160 167
189 425 241 173 168 172
189 424 242 181 177 181
189 425 242 177 172 176
189 426 240 152 152 159
189 426 241 166 162 166
189 427 240 137 140 150
189 427 241 158 155 161
190 424 242 182 177 182
190 424 243 183 178 183
190 425 242 177 170 172
190 425 243 179 172 175
191 425 243 178 171 173
190 426 241 169 164 167
190 427 241 164 160 164
190 426 242 173 166 168
190 426 243 174 167 169
190 427 242 164 160 164
191 426 243 172 166 167
191 427 242 164 161 165
191 427 243 160 157 162
190 424 244 183 179 183
191 424 244 181 176 179
191 424 245 179 176 181
191 425 244 178 172 174
191 425 245 176 171 176
191 424 246 168 169 181
191 426 244 171 165 168
191 426 245 168 165 170
191 427 244 159 156 162
189 428 240 119 125 139
189 428 241 133 136 146
189 429 240 111 119 136
189 429 241 112 121 138
189 430 240 103 110 132
189 430 241 107 114 135
189 431 240 106 111 132
189 431 241 103 110 132
190 428 241 146 147 154
190 429 241 115 124 139
190 428 242 151 151 158
190 428 243 157 156 162
190 429 242 116 125 139
190 429 243 110 121 136
191 428 243 139 142 151
191 429 243 120 128 141
190 430 241 110 118 138
190 431 241 104 110 133
190 430 242 112 120 138
190 430 243 113 122 139
190 431 242 103 111 132
190 431 243 106 115 134
191 430 243 115 123 139
191 431 243 111 119 137
191 428 244 137 139 149
191 429 244 134 138 149
191 430 244 118 125 139
191 430 245 127 132 143
191 431 244 113 122 138
191 431 245 116 124 139
