ply
format ascii 1.0
comment Version 2, Copyright 2017, 8i Labs, Inc.
comment frame_to_world_scale 0.179523
comment frame_to_world_translation -45.2095 7.18301 -54.3561
comment width 1023
element vertex 33
property float x
property float y
property float z
property uchar red
property uchar green
property uchar blue
end_header
177 465 145 51 61 71
176 465 147 54 61 69
177 464 147 55 61 69
177 465 146 49 59 68
177 465 147 53 60 68
176 466 145 57 61 67
176 467 145 63 66 72
177 466 145 57 63 71
177 467 144 61 67 76
177 467 145 65 68 74
176 466 146 53 60 67
176 466 147 52 59 67
177 466 146 51 59 67
178 464 145 52 62 75
178 465 144 56 65 75
178 465 145 53 63 74
179 464 144 61 70 80
179 464 145 61 70 80
179 465 144 56 66 77
178 464 146 50 59 70
178 464 147 55 63 70
178 466 144 58 66 75
178 466 145 59 66 74
178 467 144 59 67 76
176 464 148 56 62 69
176 464 149 56 61 68
176 465 148 57 64 71
177 464 148 57 63 70
177 464 149 55 60 67
176 468 144 60 67 77
176 468 145 62 67 74
176 469 144 60 67 78
177 468 144 60 67 77
