ply
format ascii 1.0
comment Version 2, Copyright 2017, 8i Labs, Inc.
comment frame_to_world_scale 0.179523
comment frame_to_world_translation -45.2095 7.18301 -54.3561
comment width 1023
element vertex 237
property float x
property float y
property float z
property uchar red
property uchar green
property uchar blue
end_header
186 448 240 159 153 154
186 449 240 154 151 154
187 448 240 158 152 152
187 448 241 157 151 152
187 449 240 156 151 153
187 449 241 155 151 152
187 448 242 156 151 152
187 449 242 154 151 153
186 450 240 127 133 145
186 451 240 82 99 127
187 450 241 135 139 149
187 451 241 86 105 129
187 450 242 124 133 146
187 451 242 88 107 131
185 454 240 93 107 139
185 455 240 96 110 139
186 452 240 91 103 132
186 452 241 92 104 133
186 453 240 94 105 132
186 453 241 97 107 133
187 452 241 86 101 130
187 453 241 97 107 134
187 452 242 85 102 131
187 452 243 90 107 132
187 453 242 97 108 134
187 453 243 97 109 133
186 454 240 89 101 133
186 454 241 88 101 131
186 455 240 96 108 139
186 455 241 91 104 136
187 454 241 93 104 131
187 454 242 92 104 131
187 454 243 98 108 134
187 455 242 92 104 135
187 455 243 88 102 132
188 448 242 153 149 152
188 448 243 128 136 149
188 449 242 149 149 154
188 449 243 124 133 148
189 448 243 106 122 141
188 450 242 132 137 148
188 450 243 106 120 137
188 451 243 95 113 135
189 448 244 74 101 130
189 448 245 86 107 134
189 449 244 88 109 133
189 449 245 96 114 136
188 450 244 94 112 135
188 451 244 84 103 130
189 450 244 95 113 135
189 450 245 93 111 134
189 451 244 71 92 123
189 451 245 52 78 115
189 450 246 90 110 133
189 451 246 59 86 121
190 448 245 86 107 133
190 448 246 95 113 134
190 448 247 116 126 141
190 449 246 96 114 136
190 449 247 110 122 138
191 448 247 120 128 141
191 449 247 115 123 137
190 450 246 93 112 134
190 450 247 130 137 149
190 451 246 64 92 122
190 451 247 129 135 146
188 452 243 94 110 133
188 453 243 95 108 132
188 454 243 100 110 135
188 455 243 90 102 131
188 452 244 77 96 127
188 453 244 87 101 129
188 453 245 86 98 129
189 452 245 54 77 117
189 453 245 78 94 127
189 452 246 76 96 126
189 453 246 91 106 131
188 454 244 97 107 133
188 454 245 95 104 132
188 455 244 89 101 131
188 455 245 92 102 132
189 454 245 93 103 132
189 454 246 94 105 132
189 454 247 94 108 128
189 455 246 96 105 134
189 455 247 95 106 130
190 452 246 103 117 136
190 452 247 136 139 148
190 453 246 105 118 136
190 453 247 128 134 145
190 454 247 106 116 130
190 455 247 93 104 124
191 448 248 110 121 136
191 448 249 87 106 127
191 449 248 125 132 143
191 449 249 123 131 143
190 451 248 160 155 157
191 450 248 153 151 157
191 450 249 147 147 154
191 451 248 161 155 156
191 451 249 158 154 156
191 450 250 148 148 154
191 451 250 157 154 157
190 452 248 156 152 154
190 453 248 151 149 153
191 452 248 159 153 154
191 452 249 159 154 155
191 453 249 157 152 153
191 452 250 158 153 155
191 453 250 159 153 154
190 454 248 122 127 137
190 454 249 131 134 142
190 455 248 94 105 124
190 455 249 101 111 126
191 454 249 147 145 150
191 455 249 116 122 133
191 454 250 154 151 154
191 454 251 160 156 159
191 455 250 123 128 138
191 455 251 137 140 148
185 456 240 98 111 133
185 457 240 123 131 145
185 458 240 146 149 157
186 456 240 94 107 133
186 456 241 97 110 138
186 457 240 107 120 139
186 457 241 97 112 139
186 457 242 99 112 140
187 456 242 101 113 141
187 456 243 96 109 137
187 457 242 97 111 139
187 457 243 99 112 139
186 458 240 121 132 149
186 458 241 86 107 136
186 459 240 127 138 154
186 459 241 87 109 138
187 458 242 83 103 136
187 458 243 96 112 140
187 459 242 80 104 136
187 459 243 92 113 142
186 460 240 87 107 134
186 460 241 95 113 140
186 461 240 76 97 130
186 461 241 99 115 144
187 460 241 99 116 144
187 461 241 103 119 147
187 460 242 100 118 145
187 460 243 91 113 144
187 461 242 102 119 148
187 461 243 89 110 145
186 462 240 109 124 144
186 462 241 111 126 148
186 463 240 145 149 160
186 463 241 150 154 165
187 462 241 111 127 150
187 463 241 137 147 161
187 462 242 107 125 151
187 462 243 96 117 148
187 463 242 122 136 156
187 463 243 110 129 154
188 456 244 88 101 132
188 456 245 86 98 130
188 457 244 101 114 139
188 457 245 97 110 137
188 456 246 85 97 129
188 457 246 93 105 134
189 456 246 88 99 131
189 456 247 94 105 131
189 457 246 89 102 132
189 457 247 89 101 131
188 458 244 100 114 139
188 458 245 103 116 139
188 459 244 94 110 140
188 459 245 97 111 140
188 458 246 101 114 138
188 459 246 102 116 141
189 458 247 96 109 136
189 459 247 105 117 141
188 462 243 95 117 149
188 460 244 86 105 143
188 460 245 86 103 142
188 461 244 81 103 144
188 461 245 79 100 143
188 460 246 89 105 141
188 461 246 75 96 140
189 460 247 101 115 143
189 461 246 75 97 141
189 461 247 90 107 144
188 462 244 98 119 150
188 462 245 95 116 150
188 463 244 110 129 154
188 463 245 110 129 156
188 462 246 90 112 150
188 463 246 105 125 156
189 462 246 86 109 148
189 462 247 88 109 149
189 463 246 98 119 153
189 463 247 90 113 151
189 456 248 99 109 133
189 457 248 92 104 132
189 458 248 93 105 133
189 459 248 108 119 142
190 456 248 99 108 131
190 456 249 97 106 128
190 457 248 95 106 132
190 457 249 98 106 132
191 456 250 99 109 127
191 456 251 107 116 131
191 457 250 99 107 132
191 457 251 103 111 132
190 458 248 93 105 133
190 458 249 93 103 132
190 459 248 108 119 142
190 459 249 103 114 139
191 458 250 96 105 134
191 458 251 103 111 136
191 459 250 98 110 137
191 459 251 98 109 136
189 460 248 109 121 144
189 461 248 107 120 147
189 463 248 96 115 152
190 460 248 111 122 145
190 460 249 112 123 145
190 461 248 107 120 148
190 461 249 113 125 149
191 460 250 112 123 145
191 460 251 106 118 141
191 461 250 115 126 148
191 461 251 115 125 146
190 462 248 98 115 151
190 462 249 105 120 151
190 463 248 102 120 154
190 463 249 91 111 148
191 462 249 106 121 150
191 463 249 81 100 141
191 462 250 111 123 149
191 463 250 91 106 139
