ply
format ascii 1.0
comment Version 2, Copyright 2017, 8i Labs, Inc.
comment frame_to_world_scale 0.179523
comment frame_to_world_translation -45.2095 7.18301 -54.3561
comment width 1023
element vertex 409
property float x
property float y
property float z
property uchar red
property uchar green
property uchar blue
end_header
179 420 224 163 160 164
179 420 225 164 164 170
179 421 224 164 166 176
179 421 225 165 168 178
179 420 226 166 166 174
179 421 226 168 170 180
179 422 224 153 161 180
179 422 225 161 166 180
181 417 224 78 86 97
180 419 224 144 141 144
180 419 225 142 140 144
181 418 224 103 106 113
181 418 225 98 103 111
180 419 226 145 143 147
180 419 227 153 150 155
181 418 226 102 107 114
181 418 227 102 107 115
181 419 227 134 133 138
182 417 224 61 74 87
182 417 225 68 80 93
183 416 224 45 63 79
183 416 225 48 64 78
183 417 224 47 65 80
183 417 225 51 67 81
182 417 226 73 83 95
182 417 227 76 85 95
183 416 226 49 64 77
183 416 227 48 63 76
183 417 226 53 67 81
183 417 227 56 69 81
180 419 228 150 148 153
181 418 228 104 109 119
181 418 229 107 112 122
181 419 228 135 135 143
181 419 229 132 135 143
181 418 230 115 120 130
181 418 231 121 125 134
181 419 230 131 135 145
181 419 231 139 142 151
182 417 228 75 84 94
182 417 229 90 97 107
183 417 228 65 76 88
183 417 229 75 83 94
182 417 230 97 103 112
182 417 231 104 108 116
183 417 230 83 90 99
183 417 231 96 100 107
182 418 228 91 97 107
182 418 229 97 103 113
182 418 230 101 107 117
182 418 231 117 121 129
180 420 225 162 159 164
180 420 226 164 163 168
180 420 227 164 164 170
180 421 226 169 171 181
180 421 227 172 173 183
180 422 224 150 158 180
180 422 225 157 163 181
180 423 224 132 144 174
180 423 225 142 152 177
180 422 226 167 172 184
180 422 227 175 177 188
180 423 226 154 162 180
180 423 227 161 168 182
181 423 226 148 158 178
181 423 227 156 164 180
180 420 228 158 159 168
180 420 229 151 155 166
180 421 228 169 171 181
180 421 229 166 170 181
180 420 230 146 152 164
180 420 231 148 153 166
180 421 230 161 165 178
181 420 231 151 155 166
181 421 230 159 164 177
181 421 231 155 160 172
180 422 228 178 180 190
181 422 228 179 181 192
181 422 229 173 177 189
181 423 228 165 171 185
181 423 229 170 176 190
181 422 230 160 167 182
181 422 231 157 163 178
182 423 229 162 169 185
182 422 231 160 166 179
182 423 230 150 161 178
182 423 231 156 163 179
183 423 231 150 158 175
181 419 232 151 151 158
183 417 232 109 111 118
183 417 233 109 111 118
183 417 234 92 101 112
182 418 232 119 120 126
182 418 233 125 126 132
182 419 232 143 143 149
182 419 233 147 147 152
183 418 233 115 117 124
182 418 234 102 109 119
182 419 234 136 138 147
182 419 235 136 139 147
183 418 234 91 100 112
183 418 235 101 108 118
183 419 235 132 136 146
183 418 236 102 108 119
183 418 237 103 110 121
183 419 236 122 128 139
183 419 237 120 127 139
181 420 232 159 160 168
181 421 232 161 163 174
182 420 233 163 164 172
182 421 232 163 165 175
182 421 233 169 170 179
182 420 234 165 165 173
182 420 235 162 163 171
182 421 234 172 172 180
182 421 235 171 171 179
183 421 234 174 175 184
183 421 235 182 180 188
182 422 232 172 173 183
182 422 233 175 176 186
182 423 232 169 171 183
183 422 233 179 179 188
183 423 232 170 173 184
183 423 233 173 174 184
183 422 234 181 181 191
183 422 235 181 181 191
183 420 236 155 158 167
183 420 237 152 156 168
183 421 236 183 182 190
183 421 237 177 177 187
183 422 236 189 188 196
180 424 224 112 129 166
180 424 225 118 134 168
181 424 224 96 115 160
181 424 225 107 124 164
181 425 224 86 105 153
181 425 225 89 108 153
181 424 226 127 141 172
181 424 227 140 152 174
182 425 224 82 101 147
182 425 225 87 106 149
182 424 226 109 125 161
182 424 227 121 134 164
182 425 226 94 112 152
182 425 227 98 114 150
183 425 227 99 114 149
182 426 224 77 96 141
182 426 225 76 97 141
182 427 224 85 102 140
182 427 225 77 96 138
183 427 225 81 98 138
182 426 226 84 102 143
183 426 226 85 102 143
183 426 227 89 103 143
183 427 226 79 96 137
183 427 227 83 95 138
182 424 228 138 148 171
182 424 229 143 152 173
183 424 228 128 137 164
183 424 229 134 142 166
183 425 228 109 120 152
183 425 229 119 127 154
182 424 230 138 149 170
183 424 230 135 145 166
183 424 231 140 149 166
183 425 230 129 135 158
183 426 228 95 107 144
182 428 224 92 107 137
182 428 225 86 103 137
182 429 224 120 127 142
183 428 225 89 104 136
183 429 224 117 124 141
183 429 225 110 119 137
183 428 226 89 101 137
183 428 227 89 101 137
183 429 226 99 111 134
183 429 227 94 107 132
182 430 224 133 136 144
182 431 224 134 135 141
183 430 224 130 133 143
183 430 225 124 129 140
183 431 224 131 133 141
183 431 225 128 131 139
183 430 226 111 120 134
183 430 227 104 115 132
183 431 226 121 126 136
183 431 227 119 126 137
183 424 232 159 164 177
184 416 224 54 68 80
184 416 225 54 67 79
185 416 224 62 72 82
185 416 225 59 71 83
184 416 226 56 68 80
184 416 227 52 67 80
185 416 226 56 70 83
185 416 227 50 67 81
184 416 228 55 69 82
184 416 229 59 72 85
184 417 228 60 72 84
184 417 229 65 75 87
185 416 228 48 66 81
185 416 229 50 66 80
184 416 230 64 75 87
184 416 231 79 86 96
184 417 230 76 84 93
184 417 231 84 90 99
185 416 230 52 67 81
185 416 231 63 76 89
186 416 229 51 66 80
186 416 230 55 69 82
186 416 231 65 76 88
184 416 232 84 92 103
184 416 233 90 97 106
184 417 232 92 97 106
184 417 233 97 103 112
185 416 232 77 86 97
185 416 233 86 92 101
184 417 234 99 104 113
184 417 235 75 85 97
185 416 234 88 94 103
185 416 235 71 83 95
184 418 235 90 98 109
186 416 232 68 78 88
186 416 233 73 82 92
186 416 234 83 89 98
186 416 235 81 89 100
184 417 236 77 87 98
184 417 237 81 90 101
185 416 236 60 73 87
185 416 237 66 78 90
185 417 236 63 75 88
185 417 237 73 84 96
184 417 238 84 95 108
185 416 238 69 80 93
185 416 239 62 75 88
185 417 238 73 84 96
185 417 239 72 85 99
184 418 236 92 100 110
184 418 237 96 103 114
184 419 237 122 128 140
184 418 238 92 101 113
184 418 239 90 99 112
184 419 238 126 130 141
184 419 239 125 129 139
186 416 236 53 69 83
186 416 237 54 69 83
186 416 238 58 73 88
186 416 239 65 81 96
187 416 239 75 84 94
184 423 233 168 170 180
184 422 234 182 182 190
184 422 235 181 181 190
184 423 234 173 174 183
184 423 235 176 176 185
185 423 234 173 173 182
185 423 235 171 172 183
184 420 237 154 158 170
184 421 237 177 177 187
184 420 238 147 152 163
184 420 239 151 154 164
184 421 238 171 172 182
184 421 239 164 166 177
185 421 239 164 168 181
184 422 236 190 189 197
184 422 237 186 185 195
185 422 237 184 184 194
185 423 236 183 182 191
185 423 237 185 185 194
185 422 238 176 180 192
185 422 239 165 170 187
186 423 236 171 173 184
186 423 237 170 173 186
186 422 238 164 170 188
186 422 239 155 163 183
186 423 238 156 164 182
186 423 239 148 159 180
187 423 238 143 152 174
187 423 239 137 148 172
184 427 227 85 96 137
184 424 231 139 146 163
184 425 230 123 131 154
184 425 231 123 130 151
184 426 228 96 106 142
184 426 229 103 113 144
184 427 228 90 100 138
184 427 229 96 107 138
184 426 230 113 120 147
184 426 231 112 120 146
184 427 230 101 110 138
185 426 231 111 118 144
185 427 231 103 110 139
184 428 227 89 101 135
184 429 227 95 108 133
184 430 227 107 117 134
184 431 227 123 128 139
184 428 228 91 103 134
184 428 229 91 104 132
184 429 228 98 111 134
184 429 229 96 110 133
184 428 230 93 105 133
184 429 230 94 107 132
185 428 230 96 107 135
185 428 231 99 108 136
185 429 230 92 105 132
185 429 231 91 104 131
184 430 228 111 120 136
184 430 229 109 119 136
184 431 228 126 130 141
184 431 229 124 129 141
184 430 230 103 116 133
184 431 230 117 125 137
185 430 230 97 111 131
185 430 231 98 111 131
185 431 231 105 116 131
184 424 232 153 158 170
184 424 233 159 161 172
184 425 232 140 145 160
185 424 233 163 164 174
185 425 232 130 136 153
185 425 233 145 148 160
185 424 234 161 163 172
185 424 235 165 166 176
185 425 234 148 151 160
185 426 232 115 122 144
185 426 233 127 132 148
185 427 232 107 114 139
185 427 233 114 119 140
185 426 234 139 142 154
186 424 235 160 161 170
186 425 234 146 148 158
186 425 235 150 151 161
186 427 233 112 117 139
186 426 234 136 138 151
186 426 235 136 137 151
186 427 234 118 122 142
186 427 235 126 128 145
187 426 235 138 140 152
187 427 235 124 126 143
186 424 236 161 162 172
186 424 237 161 165 178
187 424 237 157 161 174
187 425 236 155 156 164
187 425 237 161 163 173
187 424 238 149 154 171
187 424 239 142 149 169
187 426 236 141 142 152
187 426 237 148 149 157
187 427 236 129 131 145
187 427 237 135 137 147
187 426 238 158 159 168
185 428 232 100 109 135
185 428 233 105 112 137
185 429 232 92 104 131
185 429 233 92 104 130
185 430 232 94 107 129
185 430 233 91 105 127
185 431 232 103 113 130
185 431 233 99 110 128
186 428 233 109 116 138
186 429 233 97 108 133
186 428 234 111 118 139
186 428 235 113 119 140
186 429 234 100 111 134
186 429 235 102 112 134
187 428 235 113 119 138
187 429 235 102 111 133
186 430 233 91 104 127
186 431 233 98 111 128
186 430 234 92 105 128
186 430 235 92 105 128
186 431 234 96 109 128
186 431 235 92 106 126
187 430 235 97 108 131
187 431 235 91 104 125
187 428 236 115 119 137
187 428 237 118 122 138
187 429 236 103 110 133
187 429 237 105 111 133
187 430 236 98 108 131
187 430 237 100 108 131
187 431 236 92 105 125
187 431 237 96 107 127
188 425 237 165 166 175
188 424 238 153 157 171
188 424 239 149 151 165
188 425 238 156 159 169
188 425 239 149 151 162
188 427 237 132 134 146
188 426 238 146 150 160
188 426 239 136 140 153
188 427 238 127 131 146
188 427 239 121 126 144
189 426 239 142 145 156
189 427 239 121 126 143
188 428 237 120 124 139
188 429 237 111 115 134
188 428 238 120 124 142
188 428 239 113 119 140
188 429 238 116 120 137
188 429 239 116 121 138
189 428 239 113 119 138
189 429 239 110 116 136
188 430 237 102 110 131
188 430 238 106 113 132
188 430 239 111 117 134
188 431 238 102 111 130
188 431 239 105 113 131
189 430 239 104 110 130
189 431 239 108 114 132
