ply
format ascii 1.0
comment Version 2, Copyright 2017, 8i Labs, Inc.
comment frame_to_world_scale 0.179523
comment frame_to_world_translation -45.2095 7.18301 -54.3561
comment width 1023
element vertex 267
property float x
property float y
property float z
property uchar red
property uchar green
property uchar blue
end_header
179 439 129 67 75 85
178 439 131 58 67 76
179 438 131 72 77 84
179 439 130 64 71 80
179 439 131 64 71 80
177 439 133 61 72 82
176 439 135 63 74 86
177 438 135 56 65 75
177 439 134 60 69 80
177 439 135 57 67 78
179 437 132 73 79 86
179 437 133 69 75 83
178 437 135 53 63 74
179 436 135 48 59 70
179 437 134 62 69 76
179 437 135 54 62 71
178 438 133 67 75 83
178 439 132 61 71 80
178 439 133 65 74 83
179 438 132 72 78 85
179 438 133 68 75 83
179 439 132 69 75 83
178 438 134 62 70 78
178 438 135 56 64 73
179 438 134 63 70 77
183 435 128 112 114 120
183 435 129 113 114 119
182 435 131 97 100 105
183 435 130 107 108 112
183 435 131 100 102 107
181 435 133 78 81 87
180 435 135 57 66 76
181 434 135 56 67 78
181 435 134 70 75 82
181 435 135 56 66 76
182 433 135 62 72 83
183 433 134 76 83 93
183 433 135 62 72 84
182 434 133 84 87 94
182 435 132 91 94 99
182 435 133 85 88 93
183 434 132 99 101 107
183 434 133 88 92 99
183 435 132 95 98 104
183 435 133 90 93 99
182 434 134 69 76 85
182 434 135 56 68 79
183 434 134 74 81 90
181 437 128 92 96 104
181 437 129 93 96 102
180 437 131 80 85 92
181 436 131 88 91 96
181 437 130 88 90 96
181 437 131 84 88 94
180 438 128 78 86 97
180 438 129 76 83 92
180 439 128 72 80 91
180 439 129 69 78 88
181 438 128 83 91 102
181 438 129 86 90 96
180 438 130 74 79 86
180 438 131 77 82 88
181 438 130 82 85 90
182 436 128 103 107 115
182 436 129 102 104 109
182 437 128 97 102 110
182 437 129 98 100 106
183 436 128 104 108 116
183 436 129 105 107 112
182 436 130 96 98 103
182 436 131 91 94 100
182 437 130 94 96 100
180 436 133 72 76 82
180 437 132 77 81 88
180 437 133 72 77 83
181 436 132 83 87 93
181 436 133 79 83 89
181 437 132 82 86 92
180 436 134 66 72 79
180 436 135 55 64 74
180 437 134 64 72 82
181 436 134 72 75 81
182 436 132 87 91 96
179 435 137 63 68 74
178 435 139 71 73 78
179 434 139 65 68 74
179 435 138 67 70 76
179 435 139 68 71 75
177 435 140 65 72 79
177 435 141 62 70 80
176 435 142 73 81 90
176 435 143 69 78 88
177 434 142 63 71 80
177 434 143 57 67 77
177 435 142 68 76 86
177 435 143 68 76 85
179 433 140 66 73 81
179 433 141 60 67 76
178 433 142 56 65 74
178 433 143 53 61 71
179 432 142 55 62 70
179 432 143 51 59 68
179 433 142 57 64 73
179 433 143 52 61 70
178 434 140 63 68 75
178 434 141 60 68 76
178 435 140 65 69 75
179 434 140 62 67 74
179 434 141 59 66 74
178 434 142 61 70 79
177 437 136 63 70 78
177 437 137 72 78 85
176 437 139 83 88 94
177 436 138 75 78 83
177 436 139 78 80 84
177 437 138 76 80 86
177 437 139 80 83 89
176 438 137 83 86 93
176 439 136 68 77 87
176 439 137 80 86 93
177 438 136 61 70 80
177 438 137 74 79 86
177 439 136 59 69 80
176 438 138 87 90 95
176 438 139 85 90 96
178 436 137 64 70 77
178 437 136 55 65 75
178 437 137 63 69 77
179 436 136 51 62 72
179 436 137 58 65 73
179 437 136 49 61 72
178 436 138 69 73 78
178 436 139 74 76 80
176 436 140 74 80 88
176 436 141 70 78 88
176 437 140 78 83 91
177 436 140 73 77 83
177 436 141 66 74 84
176 436 142 71 79 89
181 433 137 56 65 75
180 433 139 62 66 72
181 433 138 64 69 76
181 433 139 63 69 75
180 434 137 60 66 73
180 435 136 52 63 73
180 435 137 58 65 72
181 434 136 52 63 74
181 434 137 58 66 75
181 435 136 50 61 72
181 435 137 52 62 71
180 434 138 63 67 72
180 434 139 63 68 73
180 435 138 61 66 72
181 434 138 62 67 73
182 432 137 62 68 76
182 433 136 56 67 79
182 433 137 57 65 74
183 432 136 62 72 83
183 432 137 66 72 80
183 433 136 57 69 79
183 433 137 57 66 76
182 432 138 65 71 79
182 432 139 65 72 80
182 433 138 63 68 75
183 432 138 69 76 84
182 434 136 51 63 75
180 432 141 60 67 76
180 433 140 61 67 74
180 433 141 60 68 76
181 432 140 62 69 77
181 432 141 62 69 77
181 433 140 62 68 76
180 432 142 57 64 72
180 432 143 52 60 68
180 434 140 62 66 72
182 432 140 64 71 79
180 436 136 50 61 71
177 441 129 53 63 76
176 441 131 38 55 70
177 440 130 42 54 65
177 440 131 45 58 69
177 441 130 40 55 68
177 441 131 40 57 71
176 442 129 50 62 76
176 443 128 57 68 78
176 443 129 56 67 79
177 442 128 60 68 79
177 442 129 54 64 75
177 443 128 57 66 79
176 442 130 45 60 73
176 442 131 40 57 73
178 440 129 57 66 75
178 441 128 62 71 81
178 441 129 57 68 79
179 440 128 67 75 85
179 440 129 62 71 81
179 441 128 65 74 86
178 440 130 52 61 70
178 440 131 49 59 70
179 440 130 59 67 76
176 440 133 61 73 84
176 441 132 52 64 76
176 441 133 63 74 85
177 440 132 50 62 72
177 440 133 60 71 83
177 441 132 42 56 69
176 440 134 65 75 88
176 440 135 65 76 88
177 440 134 59 71 83
176 444 128 60 71 81
180 440 128 70 78 89
176 446 141 113 122 136
176 447 140 111 121 140
176 447 141 115 124 139
177 447 140 116 126 144
177 447 141 122 129 144
176 446 142 116 125 140
176 446 143 112 121 136
177 446 142 120 129 144
177 446 143 116 125 141
178 447 140 120 130 149
178 447 141 124 132 150
179 447 141 123 132 153
178 446 142 121 131 147
178 446 143 119 129 147
178 447 142 124 132 148
179 446 142 123 133 151
179 446 143 117 129 151
179 447 142 122 132 154
180 446 143 107 122 151
180 447 142 102 117 149
180 447 143 92 109 147
181 447 143 77 98 143
185 432 128 92 96 101
185 432 129 106 107 113
185 433 128 105 107 113
185 433 129 115 116 120
184 433 130 120 121 125
184 433 131 114 116 122
185 432 130 108 111 117
185 432 131 104 107 114
185 433 130 117 118 123
185 433 131 111 113 120
184 434 128 112 114 119
184 434 129 122 122 127
184 435 128 119 120 125
184 435 129 120 120 125
184 434 130 118 118 123
184 434 131 108 110 115
184 435 130 118 118 123
186 432 128 80 85 91
186 432 129 97 100 105
186 432 130 103 106 112
184 432 133 84 91 100
184 433 132 105 109 115
184 433 133 91 96 104
185 432 132 98 102 110
185 432 133 88 94 103
185 433 132 106 108 115
184 432 134 79 87 97
184 432 135 72 81 91
184 433 134 79 87 96
185 432 134 82 90 100
184 434 132 102 105 112
184 434 133 96 100 107
184 432 136 71 79 89
184 432 137 68 75 84
