ply
format ascii 1.0
comment Version 2, Copyright 2017, 8i Labs, Inc.
comment frame_to_world_scale 0.179523
comment frame_to_world_translation -45.2095 7.18301 -54.3561
comment width 1023
element vertex 60
property float x
property float y
property float z
property uchar red
property uchar green
property uchar blue
end_header
176 512 48 99 110 124
176 513 48 101 110 123
177 512 48 106 115 127
177 513 48 112 118 128
176 514 48 100 110 123
176 515 48 102 111 124
177 514 48 114 120 130
177 515 48 114 121 132
178 512 48 117 122 130
178 513 48 128 130 136
179 512 48 128 130 137
179 513 48 137 137 141
178 514 48 133 133 138
178 515 48 135 136 141
179 514 48 137 136 140
179 515 48 135 135 139
176 516 48 101 112 126
177 516 48 109 119 132
180 512 48 134 136 141
180 513 48 139 138 142
181 512 48 138 136 139
181 513 48 136 134 137
180 514 48 137 135 139
180 515 48 135 133 137
181 514 48 132 133 138
181 515 48 127 130 138
182 512 48 131 131 136
182 513 48 130 131 136
183 512 48 120 125 136
183 513 48 118 125 136
182 514 48 127 130 137
182 515 48 120 125 135
183 514 48 111 119 130
184 512 48 94 108 125
184 513 48 93 105 120
185 512 48 64 89 114
185 513 48 72 89 111
184 514 48 102 111 123
185 514 48 109 115 124
186 512 48 65 90 114
186 513 48 74 92 113
187 512 48 79 97 117
187 513 48 82 98 116
186 514 48 124 126 133
187 514 48 124 127 134
188 512 48 108 117 129
188 513 48 99 111 125
189 512 48 134 134 139
189 513 48 120 124 133
188 514 48 106 115 127
189 514 48 105 114 125
190 512 48 141 137 137
190 513 48 132 132 135
191 512 48 134 133 137
191 513 48 133 132 136
190 514 48 105 113 125
190 515 48 90 106 123
191 514 48 113 120 129
191 515 48 84 102 120
191 516 48 80 101 121
