ply
format ascii 1.0
comment Version 2, Copyright 2017, 8i Labs, Inc.
comment frame_to_world_scale 0.179523
comment frame_to_world_translation -45.2095 7.18301 -54.3561
comment width 1023
element vertex 308
property float x
property float y
property float z
property uchar red
property uchar green
property uchar blue
end_header
176 544 42 90 110 136
176 545 42 44 78 121
177 544 42 91 110 134
177 545 42 62 88 123
177 547 41 68 94 124
176 546 42 47 79 123
176 547 42 93 113 135
177 546 42 54 81 123
177 547 42 69 93 125
178 545 41 101 114 133
179 545 41 131 136 146
178 544 42 122 130 145
178 545 42 97 112 132
179 544 42 139 141 149
179 545 42 136 139 148
178 546 41 80 98 126
178 547 41 68 92 122
179 546 41 106 120 137
179 547 41 84 105 128
176 549 41 161 155 154
177 548 41 118 128 142
177 549 41 151 149 152
176 548 42 144 144 150
176 549 42 159 154 155
177 548 42 137 140 148
176 550 41 164 157 156
176 551 41 162 156 156
177 550 41 158 154 156
177 551 41 157 154 157
176 550 42 162 156 155
178 548 41 90 109 131
178 549 41 127 134 148
179 548 41 80 103 129
179 549 41 97 116 139
178 550 41 140 143 152
178 551 41 141 145 153
179 550 41 118 129 146
179 551 41 125 135 149
180 544 41 134 138 147
180 545 41 137 140 149
181 544 41 115 127 141
181 545 41 119 129 143
180 544 42 136 139 148
180 546 41 123 132 146
180 547 41 106 121 139
181 546 41 115 128 144
181 547 41 111 126 143
182 544 41 101 118 136
182 545 41 102 119 138
183 544 41 95 115 135
183 545 41 95 116 137
182 546 41 107 123 141
182 547 41 105 122 141
183 546 41 99 118 139
183 547 41 101 120 141
180 548 41 94 114 135
180 549 41 95 115 138
181 548 41 110 126 144
181 549 41 106 123 143
180 550 41 108 124 143
180 551 40 119 130 146
180 551 41 117 128 145
181 550 41 111 127 146
181 551 40 115 130 147
181 551 41 117 131 148
182 548 41 105 123 143
182 549 41 104 123 145
183 548 41 103 123 144
183 549 40 108 126 148
183 549 41 104 124 145
182 550 40 106 125 146
182 550 41 106 124 146
182 551 40 108 125 146
183 550 40 107 125 147
183 551 40 107 125 146
178 559 39 147 152 162
179 558 39 124 137 155
179 559 39 143 147 156
181 555 39 124 135 151
182 553 39 114 128 146
183 553 39 116 130 148
182 554 39 118 132 149
182 555 39 118 132 151
183 554 39 120 133 150
183 555 39 121 134 151
180 556 39 110 128 150
180 557 39 104 125 148
181 556 39 119 133 150
181 557 39 102 122 144
180 558 39 111 127 147
180 559 39 127 135 148
181 558 39 103 120 141
181 559 39 114 129 147
182 556 39 116 131 150
182 557 39 110 125 143
183 556 39 116 129 144
183 557 39 120 131 146
182 558 39 111 125 143
182 559 39 117 129 144
183 558 38 120 130 144
183 558 39 121 133 149
183 559 38 121 131 146
183 559 39 119 131 148
176 552 41 153 153 159
176 553 41 116 129 146
177 552 41 147 149 158
177 553 40 108 124 144
177 553 41 121 133 149
176 554 41 93 115 139
176 555 40 102 121 146
176 555 41 104 122 147
177 554 40 100 119 141
177 555 40 104 123 147
178 552 40 123 134 150
178 552 41 131 139 152
178 553 40 107 125 145
179 552 40 119 131 148
179 553 40 107 124 145
178 554 40 102 121 144
178 555 40 108 126 150
179 554 40 117 131 149
179 555 40 120 134 152
176 556 40 103 123 147
176 556 41 104 122 146
176 557 40 127 137 154
177 556 40 102 122 146
177 557 40 117 132 152
176 558 40 125 134 149
176 559 40 117 130 147
177 558 40 125 136 151
177 559 40 133 140 152
178 556 40 109 128 149
178 557 40 119 134 153
179 556 40 114 132 153
179 557 40 112 130 150
178 558 40 133 142 156
178 559 40 145 149 160
179 558 40 131 142 157
179 559 40 145 151 162
180 552 40 118 130 146
180 553 40 124 135 151
181 552 40 120 133 149
181 553 40 122 134 151
180 554 40 131 140 153
180 555 40 134 143 157
181 554 40 125 136 151
181 555 40 129 139 152
182 552 40 111 126 146
182 553 40 114 128 146
183 552 40 111 127 146
183 553 40 113 128 146
180 556 40 121 135 155
186 551 39 109 125 144
187 550 39 106 124 144
187 551 39 105 123 143
188 549 39 115 130 147
189 549 39 109 125 144
188 550 39 114 129 146
188 551 39 115 129 146
189 550 39 114 128 146
189 551 39 115 128 144
190 548 39 103 118 137
190 549 39 105 121 140
191 548 39 108 120 135
191 549 39 110 122 138
190 550 39 106 122 140
190 551 39 107 122 139
191 550 39 107 120 137
191 551 39 101 116 134
184 544 41 100 118 137
184 545 41 101 119 138
185 544 41 109 123 140
185 545 41 110 124 140
184 546 41 105 122 141
184 547 40 110 125 143
184 547 41 105 123 143
185 546 40 112 127 144
185 546 41 112 125 141
185 547 40 113 128 145
186 544 41 112 126 142
186 545 41 113 126 142
187 544 41 109 123 139
187 545 41 108 122 139
186 546 40 108 124 143
186 546 41 111 125 143
186 547 40 108 125 144
187 546 40 106 122 140
187 546 41 106 120 138
187 547 40 104 121 141
184 548 40 112 128 146
184 549 40 114 129 148
185 548 40 116 130 147
185 549 40 116 130 147
184 550 40 114 130 148
184 551 40 114 130 149
185 550 40 116 131 147
185 551 40 117 131 148
186 548 40 110 127 146
186 549 40 110 127 147
187 548 40 107 124 144
187 549 40 109 126 146
186 550 40 111 127 146
186 551 40 110 127 146
187 550 40 106 124 144
188 544 41 105 120 138
188 545 40 105 121 139
188 545 41 103 120 138
189 544 41 97 116 136
189 545 40 97 116 137
189 545 41 97 116 136
188 546 40 107 122 139
188 547 40 107 123 142
189 546 40 101 119 138
189 546 41 103 121 140
189 547 40 103 120 140
190 544 41 90 110 132
190 545 40 94 112 132
190 545 41 92 112 132
191 544 41 95 110 128
191 545 40 100 114 131
191 545 41 94 111 129
190 546 40 96 114 133
190 547 40 99 115 134
191 546 40 105 117 132
191 547 40 103 116 132
188 548 40 109 126 144
188 549 40 113 128 146
189 548 40 104 121 141
190 548 40 101 117 136
191 548 40 104 117 134
184 553 39 116 131 148
185 552 39 115 129 147
185 553 39 115 130 147
184 554 39 118 131 148
184 555 39 116 130 147
185 554 39 119 131 147
185 555 38 117 128 141
185 555 39 113 127 142
186 552 39 107 124 143
186 553 39 109 124 141
187 552 39 105 122 142
187 553 39 102 118 137
186 554 38 122 131 144
186 554 39 118 128 141
186 555 38 126 135 148
187 554 38 108 123 140
187 555 38 116 129 145
184 556 38 121 131 145
184 556 39 117 129 145
184 557 38 125 133 145
184 557 39 123 131 145
185 556 38 117 128 142
185 557 38 122 130 142
184 558 38 123 130 143
184 559 38 128 133 144
185 558 38 123 130 141
185 559 38 126 132 142
186 556 38 125 135 148
186 557 38 119 128 142
187 556 38 115 128 145
187 557 38 108 122 139
186 558 38 116 126 139
186 559 38 118 127 140
187 558 38 109 122 138
187 559 38 113 125 141
188 552 39 116 129 146
188 553 38 110 123 140
188 553 39 109 123 140
189 552 39 118 128 143
189 553 38 119 128 141
189 553 39 123 132 146
188 554 38 106 120 137
188 555 38 99 114 131
189 554 38 114 123 136
189 555 38 110 119 131
190 552 38 109 122 137
190 552 39 109 122 137
190 553 38 116 126 140
191 552 38 102 117 134
191 552 39 102 117 134
191 553 38 108 121 137
190 554 38 119 129 141
190 555 38 121 130 142
191 554 38 112 123 139
191 555 38 112 124 139
189 557 37 108 119 133
188 556 38 98 113 130
188 557 38 104 119 136
189 556 38 110 118 130
189 557 38 107 118 133
188 559 37 105 118 133
189 558 37 104 116 131
189 559 37 102 115 131
188 558 38 102 116 133
188 559 38 106 119 134
189 558 38 103 115 130
190 556 37 117 126 139
190 557 37 105 116 130
191 556 37 115 125 140
191 557 37 118 126 139
190 556 38 119 128 140
190 557 38 111 119 132
190 558 37 99 112 127
190 559 37 95 109 125
191 558 37 112 121 133
191 559 37 110 118 131
184 552 40 115 130 148
185 552 40 115 130 148
