ply
format ascii 1.0
comment Version 2, Copyright 2017, 8i Labs, Inc.
comment frame_to_world_scale 0.179523
comment frame_to_world_translation -45.2095 7.18301 -54.3561
comment width 1023
element vertex 124
property float x
property float y
property float z
property uchar red
property uchar green
property uchar blue
end_header
187 646 208 64 72 83
187 647 208 64 71 82
187 647 209 61 67 78
189 641 208 71 75 84
188 643 208 70 77 87
189 642 208 72 78 87
189 643 208 75 80 89
189 643 209 92 93 98
190 640 208 83 83 88
190 641 208 87 88 92
190 641 209 107 105 108
191 640 208 101 100 105
191 640 209 124 122 126
191 641 209 123 120 123
191 640 210 145 143 147
191 641 210 142 139 142
190 642 208 91 93 98
190 642 209 112 111 114
190 643 209 109 108 112
190 643 210 126 123 127
191 642 210 134 130 134
191 642 211 149 146 149
191 643 210 129 126 130
191 643 211 136 133 138
188 644 208 70 77 87
188 645 208 65 72 82
189 644 208 73 77 86
189 644 209 85 86 92
189 645 209 76 78 84
188 646 208 62 69 79
188 647 208 60 67 77
188 647 209 64 68 77
189 646 209 70 73 80
189 647 209 70 72 79
189 646 210 82 82 87
189 647 210 81 81 86
190 644 209 101 101 105
190 644 210 116 114 118
190 645 210 110 108 112
191 644 210 126 124 129
191 644 211 130 129 134
191 645 210 129 127 131
191 645 211 131 130 135
190 646 210 108 106 109
190 647 210 106 104 107
190 647 211 125 123 126
191 646 210 129 126 129
191 646 211 134 132 137
191 647 211 138 136 140
185 651 208 56 71 87
186 648 208 63 72 83
186 649 208 62 71 83
187 648 208 63 70 82
187 648 209 62 68 78
187 649 208 61 69 80
187 649 209 61 67 76
186 650 208 62 71 83
186 651 208 59 69 81
186 651 209 59 62 69
187 650 209 61 65 72
187 651 209 62 64 69
187 651 210 64 66 71
185 652 208 54 66 84
185 653 208 57 65 89
185 653 209 56 57 64
184 654 208 61 69 102
184 655 208 59 63 99
185 654 208 61 65 92
185 654 209 60 59 69
185 655 208 62 62 90
185 655 209 63 62 71
186 652 208 54 62 74
186 652 209 58 60 66
186 653 209 58 60 65
187 652 209 65 66 70
187 652 210 66 68 72
187 653 210 67 69 73
186 654 209 62 63 67
186 655 209 65 65 69
186 655 210 66 67 71
187 654 210 67 69 73
187 655 210 69 70 75
188 648 209 65 70 77
188 649 209 65 68 76
188 648 210 73 74 81
188 649 210 70 71 77
189 648 210 88 88 92
189 649 210 87 86 90
189 649 211 100 99 102
188 650 210 65 67 73
188 651 210 65 66 72
189 650 210 83 82 87
189 650 211 98 97 101
189 651 210 83 82 87
190 648 210 108 107 110
190 648 211 119 117 121
190 649 211 109 107 112
191 648 211 135 132 137
191 649 211 128 126 131
190 650 210 105 106 111
190 650 211 106 105 111
190 651 210 105 105 111
191 650 210 114 116 124
191 650 211 117 118 125
191 651 210 111 113 122
188 652 210 64 66 73
188 653 210 68 69 75
189 652 210 76 76 82
189 653 210 77 78 85
188 654 210 72 73 79
188 655 210 74 75 80
189 654 210 85 85 91
189 655 210 88 89 94
191 653 209 136 136 143
190 652 210 104 105 111
190 653 210 107 108 114
191 652 210 118 120 128
191 653 210 126 127 134
190 655 209 115 116 123
191 654 209 141 141 148
191 655 209 136 136 143
190 654 210 109 110 117
190 655 210 106 108 115
191 654 210 129 129 136
