ply
format ascii 1.0
comment Version 2, Copyright 2017, 8i Labs, Inc.
comment frame_to_world_scale 0.179523
comment frame_to_world_translation -45.2095 7.18301 -54.3561
comment width 1023
element vertex 389
property float x
property float y
property float z
property uchar red
property uchar green
property uchar blue
end_header
176 757 199 151 101 98
177 757 199 148 99 109
176 759 197 155 132 111
177 759 197 150 127 103
176 758 198 154 118 93
176 758 199 155 114 96
176 759 198 150 119 90
177 758 198 163 127 107
177 758 199 161 123 116
177 759 198 150 118 92
178 758 199 167 125 135
178 759 198 150 110 97
179 758 199 171 133 155
179 759 198 145 109 106
179 759 199 166 125 136
180 758 199 148 97 135
180 759 199 133 84 106
181 759 199 98 31 70
182 759 199 95 36 59
183 759 199 103 66 74
176 752 202 169 66 82
176 752 203 176 70 83
176 753 202 176 92 99
177 752 203 183 83 93
177 753 202 186 99 102
177 753 203 181 88 92
176 754 201 146 73 85
176 755 200 121 31 80
176 755 201 123 29 71
177 754 201 153 70 73
177 755 201 135 43 73
176 754 202 169 97 104
177 754 202 176 89 90
178 752 203 190 82 95
178 753 203 186 74 79
179 752 203 187 64 82
179 753 203 187 61 78
178 755 201 161 74 95
179 755 201 199 129 142
178 754 202 176 63 70
178 755 202 172 85 100
179 754 202 182 69 84
179 754 203 180 56 76
179 755 202 190 111 121
179 752 204 188 71 84
176 756 200 132 61 93
176 757 200 143 86 101
177 756 200 125 45 93
177 756 201 126 34 83
177 757 200 138 78 106
178 756 200 127 38 90
178 756 201 145 63 98
178 757 200 129 57 98
179 756 201 172 96 120
179 757 200 121 40 91
179 757 201 128 33 80
178 758 200 149 101 127
179 758 200 138 85 123
180 753 203 193 97 99
181 753 203 197 137 126
180 754 202 186 98 107
180 754 203 187 98 105
180 755 202 192 106 122
181 754 202 192 116 122
181 754 203 193 125 126
181 755 202 187 98 116
182 754 203 191 141 132
182 755 202 191 128 129
183 754 203 180 146 131
183 755 202 181 142 130
183 755 203 181 143 130
180 752 204 198 119 106
181 752 204 203 154 131
181 753 204 199 144 126
182 752 204 189 147 127
182 752 205 183 142 128
182 753 204 189 147 128
183 752 204 178 145 124
183 752 205 186 151 131
183 753 204 176 144 123
180 756 201 176 85 112
180 757 200 119 45 93
180 757 201 139 45 82
181 756 201 181 94 117
181 757 200 140 90 108
181 757 201 163 95 115
181 756 202 184 89 115
180 758 200 132 77 123
181 758 200 116 61 91
182 757 201 176 141 141
183 757 201 166 144 137
182 756 202 189 127 134
183 756 202 176 139 131
182 758 200 142 108 113
182 759 200 112 67 79
183 758 200 150 133 128
183 759 200 127 103 105
176 762 195 63 56 73
176 763 194 109 125 148
176 763 195 67 74 104
177 762 195 65 54 70
177 763 195 95 94 109
178 763 195 109 103 112
179 763 195 92 87 109
176 760 197 169 157 148
176 761 196 171 168 172
177 760 197 151 146 145
177 761 196 142 143 163
177 761 197 139 147 166
176 762 196 112 109 119
177 762 196 70 61 83
178 760 197 140 143 155
178 761 197 101 113 145
179 760 197 143 146 157
179 761 197 141 153 176
178 760 198 141 128 125
179 760 198 137 127 129
178 762 196 54 42 71
179 762 196 47 42 81
179 762 197 82 92 131
179 763 196 74 62 95
176 765 193 92 103 130
177 765 193 78 75 109
176 764 194 131 140 165
176 765 194 87 91 124
177 764 194 128 128 142
177 764 195 130 128 132
177 765 194 110 103 127
176 766 192 98 114 137
176 766 193 92 107 132
176 767 192 91 104 125
177 766 192 107 128 153
177 766 193 74 82 119
177 767 192 134 145 164
178 764 194 146 144 145
178 764 195 137 138 140
178 765 194 125 117 132
179 764 195 123 120 132
179 765 194 114 106 122
178 766 193 80 77 122
178 767 192 128 143 169
179 766 193 80 78 126
179 767 192 114 127 152
179 767 193 106 120 153
179 766 194 84 70 108
180 763 195 93 77 108
180 761 197 161 173 192
181 761 197 142 157 177
180 760 198 126 112 119
180 761 198 156 164 179
181 760 198 101 76 92
181 760 199 96 43 69
181 761 198 111 116 131
180 762 196 49 49 91
180 762 197 93 111 142
180 763 196 67 56 95
181 762 196 66 87 113
181 762 197 98 119 140
181 763 196 53 66 97
182 760 199 87 37 62
182 761 198 88 75 88
183 760 199 84 37 56
183 761 198 79 54 66
183 761 199 74 37 55
182 762 197 99 115 132
182 763 196 93 115 137
183 762 197 94 97 104
183 763 196 112 124 138
183 763 197 103 113 125
182 762 198 90 96 106
183 762 198 84 76 80
180 764 195 99 81 109
180 765 194 105 96 129
180 765 195 96 78 112
181 764 195 65 56 97
181 765 194 82 83 131
181 765 195 69 65 118
180 766 193 108 117 160
180 767 193 118 133 163
181 767 193 163 178 204
180 766 194 101 101 144
181 766 194 116 133 169
181 767 194 186 201 223
182 764 195 120 136 159
182 765 195 105 121 151
183 765 195 169 176 190
182 767 193 166 182 201
182 766 194 122 145 170
182 766 195 116 135 160
182 767 194 148 165 184
183 766 194 133 146 162
183 766 195 147 156 168
183 767 194 124 133 151
181 764 196 65 77 104
182 764 196 102 121 142
183 764 196 159 166 178
184 754 203 177 150 128
184 755 202 168 144 124
184 755 203 174 148 126
185 754 203 169 148 132
185 755 203 157 142 134
186 754 203 151 139 136
186 755 203 157 154 163
187 754 203 113 106 117
187 755 203 116 117 145
184 752 204 185 153 127
184 752 205 189 156 124
184 753 204 177 148 124
185 752 205 178 143 111
185 753 204 181 153 128
184 754 204 176 148 127
185 754 204 175 151 133
186 752 205 179 144 127
186 753 204 179 154 133
186 753 205 184 159 140
187 752 205 171 136 125
187 753 204 168 148 130
187 753 205 176 151 134
186 754 204 165 144 131
187 754 204 145 129 123
184 757 201 138 127 121
185 757 201 95 100 113
184 756 202 157 136 122
184 757 202 133 122 117
185 756 202 128 118 121
185 757 202 109 103 112
184 758 200 128 121 123
184 758 201 131 122 120
184 759 200 117 105 110
185 758 200 125 137 154
185 758 201 110 121 135
185 759 200 151 157 171
186 757 201 56 55 94
187 757 201 59 51 95
186 756 202 144 138 161
186 757 202 83 72 110
187 756 202 122 118 154
187 757 202 70 52 101
186 758 201 74 98 126
186 759 200 123 143 166
187 758 201 90 97 126
187 759 200 105 118 144
188 754 203 98 93 115
188 755 203 70 60 113
189 755 203 83 81 122
190 755 203 85 94 125
191 755 203 70 94 131
188 752 205 160 122 110
188 753 204 158 143 131
188 753 205 159 138 123
189 752 205 152 102 102
189 753 205 149 130 127
189 752 206 165 113 117
188 754 204 143 138 143
189 754 204 161 162 173
190 752 205 138 69 91
190 753 205 138 108 117
191 752 205 136 71 104
191 753 205 134 91 113
190 752 206 146 73 99
191 752 206 140 77 114
190 754 204 142 147 161
190 755 204 94 111 136
191 754 204 117 130 148
191 754 205 126 119 132
191 755 204 93 116 144
188 757 201 92 94 117
188 756 202 72 45 105
188 756 203 63 46 110
188 757 202 82 67 108
189 756 202 63 34 88
189 756 203 51 33 91
189 757 202 86 71 102
188 758 201 145 144 153
188 759 200 150 147 160
188 759 201 167 162 167
189 758 201 152 149 159
189 759 200 172 166 176
189 759 201 178 172 178
188 758 202 117 122 139
189 758 202 106 103 123
190 756 203 56 35 90
190 757 202 70 48 85
191 756 203 57 59 108
191 757 202 54 46 90
191 757 203 52 53 101
190 758 201 138 131 148
190 759 201 159 158 175
191 758 201 97 98 123
191 759 201 129 137 159
190 758 202 101 88 103
191 758 202 72 67 93
184 760 199 91 70 83
184 761 198 76 56 53
184 761 199 74 48 59
185 760 199 99 101 115
185 761 198 87 70 65
185 761 199 76 65 73
184 762 197 109 99 91
184 763 196 126 124 124
184 763 197 127 118 111
185 762 197 126 110 95
185 763 197 161 143 128
184 762 198 90 75 67
185 762 198 109 92 78
186 760 199 90 103 125
186 761 198 92 76 72
186 761 199 81 78 96
187 760 199 108 116 138
187 761 199 115 114 130
186 763 197 150 130 109
187 763 197 132 113 94
186 762 198 113 93 75
187 762 198 117 99 87
187 763 198 125 106 84
184 765 195 190 183 182
185 765 195 194 178 167
184 766 195 151 149 151
184 767 194 161 160 171
185 766 195 144 133 129
185 767 194 178 173 179
185 767 195 138 135 142
186 766 195 140 128 126
186 767 195 113 97 109
187 766 195 141 125 124
187 767 195 134 115 119
184 764 196 172 162 156
184 765 196 195 182 174
185 764 196 193 174 160
185 764 197 195 176 161
185 765 196 192 175 163
186 764 196 170 154 140
186 764 197 174 156 142
186 765 196 157 142 133
187 764 196 140 128 119
187 764 197 135 123 115
187 765 196 137 128 131
186 766 196 149 136 131
187 766 196 137 127 129
188 761 199 145 156 175
189 761 199 130 148 172
188 763 197 125 114 106
189 763 197 126 115 112
188 762 198 118 104 102
188 762 199 131 131 143
188 763 198 129 113 102
189 762 198 121 111 113
189 762 199 113 118 131
189 763 198 130 116 118
190 761 199 114 136 162
190 762 198 120 112 119
190 762 199 107 115 135
190 763 198 139 124 129
191 762 199 120 119 138
191 763 198 139 127 134
188 766 195 139 119 118
188 767 195 149 121 121
189 767 195 152 114 108
190 767 195 169 126 125
188 764 197 132 126 128
188 765 196 153 143 148
188 765 197 152 143 149
189 764 197 136 127 134
189 765 196 164 146 144
189 765 197 157 142 144
188 766 196 141 122 120
189 766 196 152 118 103
189 767 196 152 110 95
190 764 197 174 162 163
190 765 197 186 165 160
191 764 197 188 173 165
191 765 197 192 168 153
191 764 198 167 153 151
190 766 196 170 123 107
190 767 196 159 111 97
191 766 196 177 131 109
191 766 197 182 139 115
191 767 196 166 121 112
185 760 200 121 134 150
186 760 200 109 127 148
187 760 200 106 119 143
188 760 200 116 123 149
189 760 200 115 122 151
189 761 200 115 139 168
190 760 200 136 147 168
190 761 200 118 140 168
191 760 200 151 164 183
191 760 201 150 164 184
191 761 200 118 133 158
