ply
format ascii 1.0
comment Version 2, Copyright 2017, 8i Labs, Inc.
comment frame_to_world_scale 0.179523
comment frame_to_world_translation -45.2095 7.18301 -54.3561
comment width 1023
element vertex 324
property float x
property float y
property float z
property uchar red
property uchar green
property uchar blue
end_header
176 837 112 222 187 153
176 838 112 236 205 165
176 838 113 207 172 137
176 839 113 198 162 124
177 838 112 228 191 142
177 838 113 202 163 121
177 839 113 206 165 127
176 839 114 202 169 137
176 839 115 193 160 128
177 839 114 188 152 119
177 839 115 193 155 114
178 838 112 233 197 148
178 839 113 201 162 122
179 838 112 239 195 137
179 839 112 205 162 107
179 839 113 210 166 114
178 839 114 181 146 112
178 839 115 176 137 88
179 839 114 164 131 95
176 839 116 221 180 132
177 839 116 202 162 113
180 838 112 255 212 89
180 839 112 227 181 101
180 839 113 190 153 109
181 839 112 225 179 104
181 839 113 201 165 121
180 839 114 175 131 95
182 839 112 226 185 128
183 839 112 227 189 147
178 840 115 198 156 102
179 840 115 166 129 81
176 840 116 218 177 130
176 840 117 235 197 154
177 840 116 217 178 125
177 840 117 240 207 159
176 840 118 242 200 156
176 840 119 230 197 170
176 841 119 212 185 165
177 840 118 248 213 168
177 841 118 248 207 165
177 841 119 222 187 167
178 840 116 210 167 111
178 840 117 238 198 151
178 841 117 244 204 157
179 840 116 212 173 131
179 840 117 238 195 147
179 841 117 252 223 175
178 841 118 249 211 173
178 841 119 232 192 153
179 841 118 249 215 181
179 841 119 242 208 173
181 840 113 166 139 114
180 840 114 162 130 101
180 840 115 171 140 110
181 840 114 160 127 100
181 840 115 176 138 108
182 840 113 200 171 146
183 840 112 218 188 161
183 840 113 197 175 160
182 840 114 161 136 122
182 840 115 189 151 126
182 841 115 202 161 123
183 840 114 173 144 122
183 841 114 177 153 143
183 841 115 195 163 137
180 840 116 215 178 138
180 841 116 255 220 182
180 841 117 244 214 170
181 840 116 214 174 135
181 841 116 235 197 153
181 841 117 239 211 175
180 841 118 252 230 194
180 841 119 240 211 188
181 841 118 244 219 194
181 841 119 243 216 197
181 842 118 243 217 197
181 842 119 239 215 198
182 841 116 228 192 153
182 841 117 228 199 172
183 841 116 224 192 162
183 841 117 226 199 174
183 842 117 223 197 175
182 842 118 239 213 194
182 842 119 240 217 201
183 842 118 236 212 194
183 842 119 231 207 190
176 841 120 183 159 138
176 841 121 145 112 95
177 841 120 196 165 140
177 841 121 141 103 70
176 841 122 171 134 106
176 841 123 218 176 132
177 841 122 180 150 123
177 841 123 223 182 137
176 842 123 240 203 167
177 842 122 202 170 138
177 842 123 240 211 177
178 841 120 203 166 135
178 841 121 139 90 19
179 841 120 222 189 157
178 842 121 151 113 73
179 842 120 182 130 64
179 842 121 157 125 95
178 842 122 201 170 141
178 842 123 245 213 184
179 842 122 214 186 161
179 842 123 244 216 192
176 841 124 241 203 165
176 842 124 244 209 176
176 842 125 243 215 191
177 842 124 243 213 186
177 842 125 252 226 206
176 842 126 225 202 186
176 842 127 219 197 182
177 842 126 240 220 208
177 842 127 207 195 190
178 842 124 246 219 197
178 842 125 252 229 213
179 842 124 247 222 200
179 842 125 249 229 216
178 842 126 225 211 204
178 842 127 190 187 192
179 842 126 232 216 207
179 842 127 207 197 194
180 842 120 188 150 106
180 842 121 148 123 102
181 842 120 190 166 146
181 842 121 161 147 142
180 842 122 215 191 169
180 842 123 242 218 201
181 842 122 214 194 181
181 842 123 235 214 202
182 842 120 188 168 154
182 842 121 180 170 168
183 842 120 197 177 166
183 843 120 182 169 165
183 843 121 186 176 175
182 842 122 211 194 184
182 842 123 229 209 196
182 843 122 210 193 183
182 843 123 232 212 200
183 843 122 205 187 177
183 843 123 218 197 183
180 842 124 250 228 215
180 842 125 251 231 220
181 842 124 244 225 214
181 842 125 238 223 217
180 842 126 235 216 206
180 842 127 204 193 190
181 842 126 223 210 206
181 842 127 201 193 192
182 843 124 234 213 201
182 843 125 226 205 191
183 843 124 226 207 196
183 843 125 216 195 181
182 843 126 214 196 186
182 843 127 197 188 186
183 843 126 211 199 195
183 843 127 198 193 196
184 839 112 230 194 159
184 840 112 223 196 174
184 840 113 186 169 155
185 840 112 226 206 192
185 840 113 195 184 179
185 841 113 190 178 173
184 840 114 160 146 138
184 841 114 165 147 140
184 841 115 184 159 143
185 841 114 161 145 139
185 841 115 174 156 148
185 842 115 186 169 159
186 840 112 236 219 205
186 841 112 227 211 202
186 841 113 177 163 156
187 840 112 238 220 207
187 841 112 231 215 202
187 841 113 163 147 136
186 841 114 133 117 113
187 841 114 132 118 112
186 842 114 139 126 122
186 842 115 176 163 156
187 842 114 141 129 124
187 842 115 176 162 156
184 841 116 211 185 164
184 842 116 216 192 173
184 842 117 228 206 189
185 842 116 204 183 169
185 842 117 217 195 178
184 842 118 232 208 193
184 842 119 223 201 185
185 842 118 226 204 188
185 843 118 213 188 168
185 843 119 213 188 168
186 842 116 207 188 173
186 842 117 217 194 176
186 843 117 213 189 169
187 842 116 185 165 150
187 843 116 207 185 169
187 843 117 216 190 169
186 843 118 201 175 152
186 843 119 206 178 153
187 843 118 189 159 128
187 843 119 203 170 141
188 841 112 228 210 197
188 841 113 169 151 139
189 841 112 228 207 191
189 841 113 180 161 147
188 842 113 144 126 114
189 842 112 240 214 194
189 842 113 170 149 133
188 842 114 135 120 112
188 842 115 161 147 138
189 842 114 152 137 126
189 842 115 168 154 147
189 843 115 185 168 158
190 841 112 222 199 180
191 841 112 217 192 172
190 842 112 208 184 165
190 842 113 194 170 151
191 842 112 210 185 162
191 842 113 190 162 136
190 842 114 161 140 122
190 843 115 173 158 150
191 842 114 182 159 141
191 843 114 186 166 151
191 843 115 179 163 156
188 842 116 184 167 157
188 843 116 202 183 169
188 843 117 201 176 155
189 843 116 201 181 168
189 843 117 194 167 143
188 843 118 196 163 130
188 843 119 206 170 135
189 843 118 198 163 129
189 843 119 209 169 131
190 843 116 201 182 172
190 843 117 201 173 153
191 843 116 184 171 166
189 844 118 212 172 137
189 844 119 212 168 133
190 844 117 199 169 148
191 844 116 195 179 169
191 844 117 189 166 147
190 844 118 200 164 134
190 844 119 189 137 101
191 844 118 171 133 103
191 844 119 173 111 80
184 842 120 216 193 177
184 843 120 192 175 168
184 843 121 191 181 181
185 843 120 195 177 167
185 843 121 190 180 177
184 843 122 195 181 175
184 843 123 214 194 181
185 843 122 197 181 175
185 843 123 213 195 186
186 843 120 190 168 152
186 843 121 194 181 177
187 843 120 187 163 145
187 843 121 204 190 184
186 843 122 197 182 177
186 843 123 208 188 183
187 843 122 195 180 176
184 843 124 217 191 170
184 843 125 215 186 163
185 843 124 211 183 161
185 843 125 212 185 164
184 843 126 215 194 179
184 843 127 201 190 187
185 843 126 196 179 168
185 843 127 198 185 179
186 843 124 210 181 166
186 843 125 210 183 165
187 843 125 213 187 167
186 843 126 207 187 176
186 843 127 161 152 150
187 843 126 205 183 167
187 843 127 198 182 174
187 844 121 209 194 187
187 844 122 194 180 177
187 844 123 195 177 175
187 844 124 209 185 172
187 844 125 179 154 132
188 843 120 204 172 146
188 843 126 196 171 148
188 843 127 203 184 172
188 844 120 213 190 172
188 844 121 214 197 188
189 844 120 204 173 145
189 844 121 212 195 186
188 844 122 192 181 178
188 844 123 177 166 170
189 844 122 189 181 180
189 844 123 163 160 166
190 844 120 185 149 114
190 844 121 206 188 178
190 845 121 213 199 192
191 844 120 169 123 81
191 845 120 198 171 147
191 845 121 201 183 172
190 844 122 205 195 192
190 844 123 180 176 181
190 845 122 192 182 179
190 845 123 174 169 171
191 845 122 182 167 155
191 845 123 174 162 154
188 844 124 205 188 181
188 844 125 213 192 179
189 844 124 186 178 179
189 844 125 191 183 182
188 844 126 204 184 168
188 844 127 205 192 186
189 844 126 198 189 187
189 844 127 169 161 160
190 844 124 175 172 177
190 844 125 153 157 167
190 845 124 172 170 175
191 844 125 131 145 163
191 845 124 159 159 166
191 845 125 126 143 162
190 844 126 153 155 162
190 844 127 141 144 152
191 844 126 122 138 156
191 844 127 127 140 156
