ply
format ascii 1.0
comment Version 2, Copyright 2017, 8i Labs, Inc.
comment frame_to_world_scale 0.179523
comment frame_to_world_translation -45.2095 7.18301 -54.3561
comment width 1023
element vertex 330
property float x
property float y
property float z
property uchar red
property uchar green
property uchar blue
end_header
181 839 135 193 181 177
182 839 135 182 177 180
183 839 135 155 158 166
176 834 143 194 182 177
176 835 142 214 196 185
176 835 143 209 195 189
177 834 143 146 137 134
177 835 142 199 183 174
177 835 143 174 164 161
178 834 143 114 113 116
178 835 142 195 182 176
178 835 143 154 149 150
179 834 143 110 115 123
179 835 142 186 174 166
179 835 143 142 142 147
176 837 139 111 94 88
177 837 139 97 86 92
176 838 137 208 202 205
176 839 136 219 199 187
176 839 137 218 208 206
177 838 137 176 174 179
177 839 136 202 190 186
177 839 137 198 193 195
176 838 138 171 171 177
176 838 139 122 120 124
177 838 138 127 128 134
177 838 139 107 107 108
178 837 139 107 94 97
179 837 139 172 158 149
178 838 137 165 158 156
178 839 136 214 198 191
178 839 137 193 182 178
179 838 137 177 160 148
179 839 136 204 181 162
179 839 137 193 173 158
178 838 138 121 119 120
179 838 138 171 157 149
176 836 140 205 179 159
176 836 141 214 190 173
176 837 140 153 125 107
177 836 141 206 183 167
177 837 140 144 116 108
178 836 141 203 183 170
178 837 140 163 146 138
179 836 141 189 169 156
179 837 140 183 166 158
180 834 143 125 125 129
180 835 142 176 163 154
180 835 143 149 149 152
181 834 143 150 138 130
181 835 142 168 155 144
181 835 143 159 150 146
182 834 143 172 157 146
182 835 142 165 150 144
182 835 143 168 155 149
183 834 143 188 169 161
183 835 142 138 128 127
183 835 143 164 152 146
180 837 139 201 176 166
181 837 139 192 159 151
180 838 137 183 162 146
180 839 136 189 167 150
180 839 137 173 150 127
181 838 137 200 183 170
181 839 136 168 156 148
181 839 137 166 150 138
180 838 138 200 182 169
181 838 138 207 186 171
182 837 139 186 158 146
183 837 139 188 173 164
182 838 137 156 139 125
182 839 136 149 144 143
182 839 137 143 132 125
183 838 137 109 101 96
183 839 136 124 127 133
182 838 138 184 162 146
183 838 138 156 141 131
180 836 140 170 123 123
180 836 141 159 128 113
180 837 140 184 151 147
181 836 140 187 121 129
181 836 141 153 106 93
181 837 140 196 143 147
182 836 140 167 115 112
182 836 141 158 121 113
182 837 140 177 132 129
183 836 140 169 148 139
183 836 141 142 120 115
183 837 140 184 168 158
176 841 131 228 184 135
177 841 131 214 181 149
176 842 128 190 176 168
176 842 129 193 168 144
177 842 128 175 169 173
177 842 129 162 154 157
176 842 130 208 170 124
176 842 131 221 179 129
177 842 130 176 152 136
177 842 131 214 186 164
178 841 131 219 198 185
179 841 131 208 191 181
178 842 128 175 171 178
178 842 129 139 132 146
179 842 128 184 185 194
179 842 129 173 174 184
178 842 130 158 140 150
178 842 131 207 188 182
179 842 130 181 174 177
179 842 131 192 179 175
176 840 133 188 180 177
176 841 132 233 204 179
176 841 133 221 204 194
177 840 133 170 162 160
177 841 132 226 201 181
177 841 133 208 193 187
176 840 134 152 138 129
176 840 135 167 144 121
177 840 134 152 144 145
177 840 135 181 169 164
178 840 133 194 183 179
178 841 132 230 210 198
178 841 133 211 197 191
179 841 132 223 206 196
179 841 133 192 182 178
178 840 134 188 177 174
178 840 135 203 188 181
179 840 134 166 150 138
179 840 135 184 162 143
180 841 131 213 197 188
180 842 128 180 178 184
180 842 129 173 174 182
181 842 128 169 165 167
181 842 129 162 163 170
180 842 130 198 190 192
180 842 131 203 190 185
181 842 130 178 175 180
181 842 131 198 187 184
182 842 128 165 163 168
182 842 129 167 167 174
182 843 128 170 168 173
183 842 128 175 176 185
183 842 129 180 181 190
183 843 128 173 173 182
182 842 130 172 169 174
182 842 131 181 171 169
183 842 130 190 185 189
183 842 131 189 171 165
180 841 132 220 204 196
180 841 133 206 195 190
181 841 132 197 182 172
181 841 133 187 174 166
180 840 134 195 180 171
180 840 135 192 173 159
181 840 134 173 160 152
181 840 135 189 175 168
182 841 132 159 136 132
182 841 133 167 144 141
183 841 132 196 165 150
183 841 133 180 147 134
182 840 134 182 169 164
182 840 135 194 187 186
183 840 134 173 161 159
183 840 135 155 157 164
184 839 135 117 136 156
184 834 143 173 154 146
184 835 142 101 97 106
184 835 143 145 133 127
185 834 143 147 139 138
185 835 142 76 74 89
185 835 143 117 111 113
186 834 143 158 155 162
186 835 142 112 112 119
186 835 143 145 143 150
187 834 143 163 158 163
187 835 142 155 146 145
187 835 143 167 160 162
184 837 139 150 142 138
185 837 139 169 165 169
184 838 137 96 98 107
184 839 136 107 122 140
185 838 137 110 123 139
185 839 136 84 116 144
184 838 138 134 128 127
185 838 138 158 158 165
186 837 139 113 121 131
187 837 139 142 144 151
186 838 137 104 117 133
186 839 136 110 132 154
186 839 137 115 127 142
187 838 137 140 136 139
187 839 136 121 130 146
187 839 137 130 132 139
186 838 138 115 120 129
187 838 138 157 154 157
184 836 140 146 139 139
184 836 141 90 87 97
184 837 140 157 149 145
185 836 140 120 121 126
185 836 141 65 72 93
185 837 140 130 132 137
186 836 141 74 81 92
186 837 140 89 103 117
187 836 141 120 116 116
187 837 140 103 111 121
188 834 143 179 172 174
188 835 142 183 171 167
188 835 143 178 169 169
189 834 143 174 165 164
189 835 142 170 157 153
189 835 143 155 142 136
190 835 142 154 141 135
190 835 143 124 108 99
191 835 142 135 120 107
191 835 143 123 104 90
188 837 139 177 173 178
189 837 139 136 137 145
188 838 137 147 135 134
188 839 136 105 98 118
188 839 137 111 102 111
189 838 137 120 129 143
189 839 136 97 113 134
189 839 137 107 119 138
188 838 138 172 161 162
189 838 138 128 130 142
190 837 139 106 120 138
191 837 139 92 118 143
190 838 137 102 136 166
190 839 136 109 143 172
190 839 137 111 144 174
191 838 137 100 139 172
191 839 136 117 148 176
191 839 137 109 144 175
190 838 138 97 126 153
190 838 139 93 117 139
191 838 138 96 134 166
191 838 139 86 121 151
188 836 141 166 155 150
188 837 140 159 154 155
189 836 141 176 165 161
189 837 140 156 152 154
190 836 141 174 165 163
190 837 140 133 136 144
191 836 141 164 154 150
191 837 140 114 125 140
191 837 141 142 140 144
190 836 142 166 154 148
191 836 142 152 138 129
184 842 129 171 169 174
184 843 128 158 157 163
185 842 129 200 190 188
185 843 128 186 178 178
185 843 129 191 181 180
184 842 130 203 192 191
184 842 131 195 175 160
185 842 130 203 190 185
185 842 131 204 185 174
186 842 129 188 179 179
186 843 128 161 156 160
186 843 129 179 172 173
187 843 128 184 177 177
187 843 129 181 176 177
186 842 130 181 170 165
186 842 131 166 147 132
187 842 130 164 153 148
187 842 131 139 115 95
184 841 132 194 163 131
184 841 133 178 154 131
185 841 132 209 186 169
185 841 133 195 179 168
184 840 134 148 146 152
184 840 135 110 129 147
185 840 134 133 139 149
185 840 135 95 126 152
185 842 132 205 182 168
186 841 132 193 167 153
186 841 133 201 185 174
187 841 132 166 131 116
187 841 133 192 175 166
186 840 134 175 171 173
186 840 135 142 154 170
187 840 134 169 163 164
187 840 135 137 140 152
187 841 134 178 170 168
186 842 132 178 152 134
187 842 132 146 110 86
188 843 128 178 169 168
188 843 129 162 155 156
189 843 128 143 136 135
189 843 129 122 115 115
188 842 130 141 127 118
188 842 131 125 94 67
188 843 130 140 129 124
189 842 130 122 104 87
189 842 131 126 101 79
189 843 130 122 112 106
190 843 128 119 123 131
190 843 129 147 145 149
191 843 129 186 181 181
190 842 131 140 124 113
190 843 130 159 151 150
191 842 131 163 145 131
191 843 130 194 180 173
191 843 131 173 154 138
188 841 132 157 119 104
188 841 133 180 161 155
189 841 132 155 144 145
189 841 133 168 160 161
188 840 134 141 136 143
188 840 135 127 123 134
188 841 134 170 161 162
189 840 134 123 139 156
189 840 135 103 122 142
189 841 134 151 158 168
188 842 132 141 102 81
189 842 132 137 109 94
190 841 132 152 151 154
190 841 133 152 158 169
191 841 133 134 143 156
190 840 134 112 144 172
190 840 135 99 137 168
190 841 134 131 152 173
191 840 134 107 139 166
191 840 135 101 133 161
191 841 134 118 142 164
190 842 132 136 121 109
191 842 132 154 141 131
189 844 128 131 125 122
190 844 128 121 127 135
191 844 128 138 149 163
191 840 136 112 144 172
