ply
format ascii 1.0
comment Version 2, Copyright 2017, 8i Labs, Inc.
comment frame_to_world_scale 0.179523
comment frame_to_world_translation -45.2095 7.18301 -54.3561
comment width 1023
element vertex 329
property float x
property float y
property float z
property uchar red
property uchar green
property uchar blue
end_header
192 368 51 117 109 136
192 369 51 121 116 145
193 368 50 126 135 160
193 368 51 122 126 151
193 369 50 128 140 167
193 369 51 123 131 158
192 370 51 119 123 150
192 371 51 124 131 157
193 370 50 124 144 179
193 370 51 123 137 166
193 371 50 129 150 188
193 371 51 127 142 174
194 368 49 129 145 173
195 368 49 151 165 189
195 369 49 156 169 193
194 368 50 132 146 173
194 369 50 130 144 175
195 369 50 136 151 182
194 370 50 140 155 186
194 371 50 143 158 193
195 370 50 135 152 188
195 371 50 126 146 188
192 371 52 122 125 150
192 372 51 129 136 161
193 372 51 130 143 176
193 373 51 133 145 179
193 374 51 137 152 188
194 372 50 143 157 193
194 372 51 143 158 190
194 373 51 135 147 187
195 372 50 117 140 184
195 373 51 124 143 187
194 374 51 134 147 190
194 375 51 112 134 184
195 374 51 112 133 184
195 375 51 101 121 182
192 372 52 131 134 158
192 373 52 138 142 165
192 374 52 134 145 172
192 375 52 127 141 176
193 374 52 147 163 195
193 375 52 124 146 188
194 375 52 102 129 183
195 375 52 106 128 187
196 368 49 141 156 185
196 369 49 134 150 183
197 368 49 89 119 159
197 369 49 62 94 150
196 370 49 101 126 173
197 370 49 82 103 167
196 370 50 104 129 177
196 371 50 95 121 183
197 370 50 90 113 174
197 371 50 97 114 183
198 368 49 136 153 182
198 369 49 124 142 177
199 368 49 147 163 191
199 369 49 154 167 191
198 370 49 108 126 175
199 370 49 142 155 185
198 371 50 110 127 182
199 371 50 125 142 182
196 372 50 98 122 189
196 373 50 96 121 188
196 373 51 100 124 187
197 372 50 92 112 184
197 373 50 92 114 184
197 373 51 91 115 184
196 374 51 99 122 187
196 375 51 98 120 185
197 374 51 81 109 181
197 375 51 71 100 173
198 372 50 97 116 183
198 373 50 90 114 185
199 372 50 111 130 183
199 373 50 105 124 188
198 374 51 80 107 183
198 375 51 61 93 174
199 374 51 107 125 190
199 375 51 102 121 188
192 368 63 121 81 92
192 369 63 120 83 92
193 368 63 117 75 87
195 376 51 103 122 183
192 376 52 122 138 181
192 376 53 120 136 176
192 377 53 123 140 180
193 376 52 117 137 186
193 377 52 114 137 189
193 377 53 119 138 184
192 378 53 125 144 182
192 379 53 125 147 186
193 378 52 113 137 189
193 378 53 117 140 188
193 379 53 113 139 186
194 376 52 111 135 187
194 377 52 119 140 190
195 376 52 111 134 185
195 377 52 117 140 188
194 378 52 120 140 190
194 378 53 117 138 189
194 379 53 127 146 193
195 378 52 118 141 191
195 379 52 112 137 189
195 379 53 120 143 192
192 380 53 115 138 183
193 380 53 116 139 185
193 381 53 123 143 190
192 380 54 115 137 180
192 381 54 131 149 190
193 381 54 129 148 190
192 382 54 138 156 192
192 383 54 132 149 187
192 383 55 122 138 180
193 382 54 134 152 194
193 383 54 136 154 194
194 380 53 126 144 192
194 381 53 126 143 192
195 380 53 125 147 193
195 381 53 128 149 193
195 382 53 138 155 195
194 382 54 135 151 194
194 383 54 142 157 194
195 382 54 135 153 192
195 383 54 139 156 192
196 376 51 102 122 182
197 376 51 90 111 172
198 376 51 59 85 170
199 376 51 97 118 188
196 376 52 113 133 181
196 377 52 123 143 187
197 376 52 112 129 177
197 377 52 114 133 180
196 378 52 113 136 190
196 379 52 107 133 189
196 379 53 111 137 188
197 378 52 111 135 187
197 379 52 114 139 189
197 379 53 125 146 193
198 376 52 71 90 174
198 377 52 84 105 177
199 376 52 89 114 186
199 377 52 85 111 186
198 378 52 109 133 191
198 379 52 105 132 193
199 378 52 90 120 190
199 379 52 105 135 199
196 380 53 123 146 187
196 381 53 129 147 190
197 380 53 129 148 189
197 381 53 114 133 179
196 382 53 135 149 193
197 382 53 113 129 178
196 382 54 138 152 192
196 383 54 142 155 191
197 382 54 124 138 182
197 383 54 124 137 183
198 380 53 70 108 172
198 381 53 64 98 157
199 380 53 100 134 198
199 381 53 88 121 185
198 382 53 59 82 153
199 382 53 86 117 182
198 382 54 56 75 150
198 383 54 75 98 163
199 382 54 82 111 178
199 383 54 81 111 174
200 368 49 128 150 186
200 369 49 145 163 189
201 368 49 108 138 188
201 369 49 120 148 189
200 370 49 153 168 192
200 371 49 150 164 191
201 370 49 133 158 194
201 371 49 144 164 195
200 371 50 137 154 187
201 371 50 150 165 194
202 368 49 123 140 184
202 369 49 114 138 186
203 368 49 143 124 160
203 369 49 129 138 177
202 370 49 117 143 192
202 371 49 134 153 194
203 370 49 123 140 189
203 371 49 130 147 194
202 371 50 149 164 196
203 371 50 137 153 193
200 372 50 116 139 181
200 373 50 119 138 186
201 372 50 159 167 193
201 373 50 171 175 198
200 374 51 125 141 191
200 375 51 120 138 192
201 374 51 172 176 200
201 375 51 155 164 196
202 372 50 167 174 197
202 373 50 174 178 198
202 373 51 178 182 200
203 372 50 156 168 195
203 373 50 165 173 195
203 373 51 169 174 196
202 374 51 175 180 199
202 375 51 150 160 190
203 374 51 161 168 193
203 375 51 143 154 188
204 368 49 163 98 132
204 369 49 146 123 162
205 368 49 179 80 115
205 369 49 166 98 136
204 370 49 134 138 181
205 370 49 149 124 162
204 371 50 129 144 188
205 370 50 138 134 174
205 371 50 132 141 184
206 368 49 191 70 103
206 369 49 182 86 118
207 368 49 196 67 101
207 369 49 186 83 116
206 370 49 170 100 133
207 370 49 175 95 127
206 370 50 156 120 160
206 371 50 148 131 176
207 370 50 169 106 145
207 371 50 147 133 174
204 372 50 146 157 194
204 373 50 155 165 195
204 373 51 157 167 196
205 372 50 140 152 193
205 373 51 152 164 195
204 374 51 161 169 196
204 375 51 163 167 195
205 374 51 160 169 199
205 375 51 182 180 199
206 372 50 138 144 190
206 373 51 151 161 195
207 372 50 151 131 177
207 372 51 137 152 192
207 373 51 151 162 196
206 374 51 163 172 200
206 375 51 185 184 200
207 374 51 163 173 198
207 375 51 186 186 196
204 375 52 176 175 197
205 375 52 188 185 200
206 375 52 191 186 200
207 375 52 195 191 199
200 376 51 112 132 192
201 376 51 135 151 195
202 376 51 128 146 185
200 376 52 102 129 191
200 377 52 95 125 191
201 376 52 130 148 195
201 377 52 116 137 192
200 378 52 86 119 189
200 379 52 86 122 192
201 378 52 99 125 186
201 379 52 97 125 186
202 376 52 125 141 184
202 377 52 133 144 188
203 376 52 154 158 193
203 377 52 173 171 196
202 378 52 127 142 186
202 379 52 138 148 188
202 379 53 140 152 192
203 378 52 168 169 195
203 379 52 184 179 198
203 379 53 185 181 199
200 380 53 99 133 199
200 381 53 107 138 200
201 380 53 106 134 193
201 381 53 95 128 194
200 382 53 113 142 200
201 382 53 103 133 196
200 382 54 118 144 200
200 383 54 114 140 196
201 382 54 112 138 198
201 383 54 116 140 198
202 380 53 128 146 193
202 381 53 118 139 192
203 380 53 161 167 195
203 381 53 154 161 193
202 382 53 118 138 193
203 382 53 138 150 193
202 382 54 113 135 193
202 383 54 107 132 190
203 382 54 143 153 192
203 383 54 141 153 191
204 376 52 179 176 195
204 377 52 188 182 196
205 376 52 196 188 195
205 377 52 200 191 195
205 377 53 201 192 195
204 378 52 174 172 195
204 378 53 199 190 199
204 379 53 196 189 200
205 378 53 205 194 198
205 379 53 205 196 198
205 379 54 204 196 199
206 376 52 200 190 195
206 377 52 205 193 196
206 377 53 208 195 197
207 376 52 206 194 195
207 377 52 211 198 199
207 377 53 212 198 199
206 378 53 208 196 195
207 378 53 206 194 195
206 379 54 206 196 196
207 378 54 206 194 196
207 379 54 206 195 198
204 380 53 195 190 198
204 381 53 173 174 192
204 380 54 196 191 198
204 381 54 177 177 192
205 380 54 200 193 198
205 381 54 183 182 194
204 382 54 157 162 191
204 383 54 177 178 197
205 382 54 161 166 192
205 383 54 182 182 199
206 380 54 203 195 199
206 381 54 195 191 200
207 380 54 205 197 201
207 381 54 195 192 203
206 382 54 161 167 192
206 383 54 160 168 195
206 383 55 156 163 197
207 382 54 171 174 194
207 382 55 151 160 190
207 383 55 138 150 192
