ply
format ascii 1.0
comment Version 2, Copyright 2017, 8i Labs, Inc.
comment frame_to_world_scale 0.179523
comment frame_to_world_translation -45.2095 7.18301 -54.3561
comment width 1023
element vertex 381
property float x
property float y
property float z
property uchar red
property uchar green
property uchar blue
end_header
199 407 159 84 87 93
195 415 147 62 71 80
195 415 148 66 74 83
195 415 149 76 79 85
194 415 150 100 101 105
194 415 151 99 101 106
195 414 150 85 85 87
195 414 151 89 90 94
195 415 150 92 92 95
195 415 151 95 97 101
199 411 148 51 55 61
199 411 149 63 61 62
198 411 150 63 62 65
198 411 151 65 66 69
199 410 150 62 60 63
199 410 151 67 64 64
199 411 150 58 58 63
199 411 151 61 61 64
197 413 147 44 53 63
196 415 145 46 60 74
197 414 145 42 55 68
197 415 144 32 46 59
197 415 145 40 55 68
196 415 146 51 62 73
196 415 147 54 64 75
197 414 146 45 55 66
197 414 147 48 57 67
197 415 146 47 58 70
198 413 145 42 55 66
199 413 144 39 52 66
199 413 145 38 53 66
198 412 147 36 51 63
198 413 146 43 51 61
198 413 147 37 47 59
199 412 146 47 53 61
199 412 147 45 53 62
199 413 146 37 49 62
198 414 144 32 49 63
198 414 145 39 54 67
198 415 144 33 48 60
199 414 144 34 51 65
198 414 146 43 54 64
197 413 148 46 51 57
197 413 149 57 57 59
196 413 150 70 71 73
196 413 151 77 79 83
197 412 150 66 68 71
197 412 151 69 70 73
197 413 150 66 67 69
197 413 151 73 74 76
196 414 148 52 59 68
196 414 149 63 64 68
196 415 148 62 69 78
197 414 148 52 58 64
196 414 150 77 77 79
198 412 148 46 53 61
198 412 149 58 58 59
198 413 148 47 53 60
198 413 149 56 56 58
199 412 148 54 56 60
198 412 150 66 66 68
198 412 151 65 65 67
193 415 155 98 102 108
194 415 152 106 107 110
194 415 153 101 103 108
195 414 152 98 98 101
195 414 153 101 103 108
195 415 152 106 106 110
194 414 155 98 102 109
194 415 154 98 101 107
194 415 155 100 104 111
195 414 154 96 99 105
195 414 155 95 99 106
193 414 157 93 98 106
193 415 156 93 98 105
193 415 157 87 93 101
192 415 159 79 87 97
193 414 158 94 100 108
193 415 158 89 94 102
193 415 159 81 89 99
195 413 156 88 95 103
195 413 157 87 95 106
195 412 159 89 95 105
195 413 158 86 93 102
195 413 159 87 93 102
194 414 156 90 98 107
194 414 157 91 97 107
194 415 156 95 100 108
195 414 156 94 100 109
195 414 157 88 97 107
194 414 158 88 96 106
194 414 159 81 89 100
195 414 158 86 93 102
195 414 159 87 93 101
197 411 155 91 94 99
199 409 152 75 73 72
199 409 153 68 69 71
199 409 154 71 72 74
199 409 155 73 75 77
198 411 152 66 67 72
198 411 153 74 76 79
199 410 152 69 69 70
199 410 153 71 72 74
199 411 152 63 64 68
198 410 154 77 79 81
198 410 155 82 84 88
198 411 154 81 83 88
198 411 155 88 90 95
199 410 154 73 75 78
197 410 157 92 96 103
197 411 156 92 96 102
197 411 157 91 96 103
196 411 159 87 94 104
197 410 158 91 96 103
197 410 159 88 94 104
197 411 158 94 99 107
197 411 159 88 95 105
198 409 156 80 84 91
198 409 157 89 91 96
199 408 156 71 72 76
199 408 157 72 75 80
199 409 156 78 79 83
199 409 157 82 84 89
198 409 158 90 93 100
198 409 159 89 95 103
199 408 158 82 85 91
199 408 159 87 91 98
199 409 158 84 88 95
198 410 156 87 90 96
198 410 157 91 94 99
198 411 156 91 94 101
198 410 158 91 94 101
198 410 159 88 94 102
196 413 152 87 88 91
196 413 153 92 93 97
197 412 152 77 78 80
197 412 153 80 83 87
197 413 152 77 80 84
196 412 155 92 97 104
196 413 154 89 92 98
196 413 155 94 99 106
197 412 154 84 88 93
197 412 155 92 96 102
198 412 152 70 71 74
196 412 156 92 97 105
196 412 157 89 95 103
196 413 156 93 99 107
196 413 157 89 96 104
197 412 156 91 96 103
197 412 157 89 94 102
196 412 158 91 97 105
196 412 159 88 95 105
203 407 150 67 65 66
203 407 151 74 69 67
207 403 144 116 104 95
207 403 145 124 111 101
205 406 144 69 72 91
205 406 145 75 64 80
205 407 144 57 73 93
205 407 145 65 64 81
205 406 146 77 68 69
205 406 147 78 70 69
205 407 146 64 63 67
205 407 147 69 66 69
206 405 144 89 78 85
206 405 145 93 75 80
207 404 144 104 91 86
207 404 145 114 101 95
207 405 145 102 86 84
206 405 146 95 81 77
206 405 147 87 76 71
207 404 146 113 103 98
207 404 147 104 95 91
207 405 146 100 88 83
207 405 147 95 84 79
206 406 145 79 63 72
206 406 146 82 70 67
206 406 147 82 73 70
205 405 151 80 74 70
204 407 148 60 64 69
204 407 149 67 64 65
205 406 148 73 67 66
205 406 149 69 63 62
205 407 148 71 70 71
204 406 150 75 69 66
204 406 151 77 70 66
204 407 150 72 66 65
204 407 151 77 71 67
205 406 150 74 67 63
205 406 151 79 73 70
206 405 148 78 71 67
206 405 149 72 67 62
207 404 148 94 87 82
207 404 149 85 79 76
207 405 148 87 80 76
207 405 149 80 73 68
206 404 151 81 76 72
206 405 150 79 73 69
206 405 151 83 77 72
207 404 150 84 79 74
207 404 151 84 79 74
206 406 148 72 66 62
206 406 149 67 62 57
203 403 159 75 70 66
201 407 153 63 64 67
200 407 155 66 66 67
201 407 154 70 68 68
201 407 155 76 72 70
203 405 154 78 72 67
203 405 155 76 72 68
202 407 152 80 75 71
202 407 153 71 67 65
203 406 152 79 73 69
203 406 153 77 71 66
203 407 152 77 71 69
203 407 153 76 69 63
202 406 154 68 64 62
202 406 155 69 65 62
202 407 154 71 66 64
203 406 154 75 69 64
203 406 155 76 70 65
201 405 158 75 72 70
201 405 159 78 75 72
200 407 156 78 74 72
200 407 157 72 71 71
201 406 156 70 65 60
201 406 157 70 67 65
201 407 156 73 70 68
201 407 157 70 69 68
200 407 158 74 75 78
200 407 159 79 80 83
201 406 158 72 70 69
201 406 159 76 75 75
201 407 158 71 71 71
202 405 156 76 71 67
202 405 157 74 69 66
203 404 156 76 71 69
203 404 157 74 69 65
203 405 156 75 70 68
203 405 157 76 71 67
202 404 159 75 68 62
202 405 158 74 70 66
202 405 159 75 70 66
203 404 158 75 69 64
203 404 159 74 67 62
202 406 156 70 66 63
202 406 157 72 68 64
205 403 155 75 71 71
207 402 153 77 72 69
207 403 152 78 74 71
207 403 153 78 73 69
206 403 154 76 71 68
206 403 155 77 73 71
207 402 154 78 73 71
207 402 155 78 73 70
207 403 154 76 72 69
207 403 155 75 69 66
204 403 157 76 71 67
205 402 157 78 73 70
205 403 156 76 72 70
205 403 157 76 72 69
204 402 159 80 74 70
204 403 158 76 70 66
204 403 159 78 71 67
205 402 158 79 73 70
205 402 159 80 74 71
205 403 158 80 74 69
206 401 157 77 72 69
207 401 156 77 73 70
207 401 157 76 72 69
206 401 158 78 71 66
206 401 159 78 72 68
207 400 158 80 72 68
207 400 159 78 72 67
207 401 158 79 72 67
207 401 159 76 69 66
206 402 156 79 75 73
206 402 157 79 74 71
206 403 156 79 75 72
207 402 156 80 75 73
207 402 157 80 75 73
206 402 158 78 72 68
206 402 159 78 72 70
204 405 152 80 74 70
204 405 153 77 71 66
205 404 153 78 72 68
205 405 152 80 74 70
205 405 153 79 73 70
204 404 154 78 73 70
204 404 155 78 73 72
204 405 154 81 76 71
204 405 155 78 73 69
205 404 154 78 73 69
205 404 155 78 73 71
204 406 152 79 73 69
206 404 152 79 74 72
206 404 153 77 72 69
206 405 152 79 73 69
207 404 152 78 74 72
206 404 154 76 71 68
204 404 156 74 69 68
204 404 157 72 67 64
205 404 156 71 68 68
201 411 144 33 53 71
201 411 145 43 54 65
200 411 146 42 50 61
200 411 147 47 53 59
201 410 146 46 50 57
201 410 147 55 57 60
201 411 146 43 51 61
201 411 147 52 55 61
203 409 144 53 72 88
203 409 145 51 62 74
202 409 146 51 55 61
202 409 147 57 58 61
203 408 147 63 63 65
203 409 146 57 58 60
203 409 147 59 60 62
202 410 144 38 58 76
202 410 145 47 57 68
202 411 144 35 56 73
202 411 145 44 55 67
203 410 144 46 65 82
203 410 145 47 62 76
202 410 146 49 55 62
202 410 147 53 54 57
201 409 149 69 67 66
200 409 150 68 65 62
200 409 151 62 63 67
201 408 151 71 68 67
201 409 150 67 66 64
201 409 151 67 65 66
200 410 149 63 63 65
200 411 148 55 55 58
200 411 149 63 59 58
201 410 148 59 57 57
201 410 149 64 62 61
200 410 150 68 66 65
200 410 151 67 65 65
202 408 149 61 64 67
202 409 148 65 61 59
202 409 149 70 67 65
203 408 148 57 61 68
203 408 149 68 66 66
203 409 148 67 66 66
202 408 150 68 66 66
202 408 151 72 69 69
202 409 150 63 64 67
203 408 150 68 67 66
203 408 151 69 67 67
200 412 144 36 54 69
200 412 145 41 54 66
200 413 144 38 53 67
200 413 145 36 54 68
201 412 144 36 55 71
201 412 145 39 54 68
200 412 146 47 53 62
200 412 147 48 53 60
204 408 144 53 75 93
204 408 145 54 65 79
204 409 144 52 73 91
204 409 145 52 66 80
204 408 146 56 60 65
204 408 147 61 62 66
204 408 148 68 68 69
204 408 149 69 67 67
200 408 153 70 69 69
200 409 152 70 69 70
200 409 153 73 72 71
201 408 152 73 71 69
201 408 153 69 69 69
201 409 152 79 73 69
200 408 154 70 69 71
200 408 155 69 69 71
200 409 155 66 66 69
201 408 154 69 68 69
200 410 152 70 68 69
202 408 152 72 70 68
200 408 156 74 72 73
200 408 157 72 72 73
200 408 158 78 78 80
