ply
format ascii 1.0
comment Version 2, Copyright 2017, 8i Labs, Inc.
comment frame_to_world_scale 0.179523
comment frame_to_world_translation -45.2095 7.18301 -54.3561
comment width 1023
element vertex 46
property float x
property float y
property float z
property uchar red
property uchar green
property uchar blue
end_header
193 449 80 1 58 96
193 449 81 2 61 97
192 449 83 39 74 101
193 449 82 2 64 99
193 449 83 19 68 99
192 450 80 14 79 110
192 450 81 33 80 107
192 451 80 15 77 108
192 451 81 22 78 109
193 450 80 9 63 104
193 450 81 17 66 99
192 450 82 38 75 102
192 450 83 37 73 100
192 451 82 26 79 108
193 450 82 35 73 102
193 450 83 27 70 99
194 448 81 8 67 100
194 449 80 28 73 107
194 449 81 2 67 102
195 448 80 2 65 102
195 448 81 1 62 97
195 449 80 2 61 99
195 449 81 1 62 98
194 448 82 12 67 100
194 448 83 26 68 98
194 449 82 20 70 103
195 448 82 1 60 95
195 448 83 0 60 94
194 450 80 1 60 97
192 449 84 44 76 102
192 449 85 44 77 103
193 448 84 37 70 100
193 448 85 23 70 100
193 449 84 40 73 102
192 448 86 33 70 101
192 448 87 33 69 100
192 449 86 40 75 102
192 449 87 34 72 101
193 448 86 29 70 101
193 448 87 27 68 101
192 450 84 39 76 101
194 448 84 23 68 100
196 448 80 9 70 105
196 448 81 2 67 103
197 448 80 2 66 103
192 448 88 32 66 99
