ply
format ascii 1.0
comment Version 2, Copyright 2017, 8i Labs, Inc.
comment frame_to_world_scale 0.179523
comment frame_to_world_translation -45.2095 7.18301 -54.3561
comment width 1023
element vertex 187
property float x
property float y
property float z
property uchar red
property uchar green
property uchar blue
end_header
192 464 250 142 147 161
192 464 251 161 162 170
192 465 250 161 162 171
192 465 251 178 174 178
193 465 251 182 176 178
192 466 250 133 138 153
192 466 251 171 169 173
192 467 250 112 125 147
192 467 251 155 157 167
193 466 251 182 176 177
193 467 251 161 163 173
193 464 252 167 165 171
193 465 252 181 175 177
193 466 252 183 176 177
193 467 252 168 169 176
194 464 252 158 157 164
194 464 253 149 150 158
194 465 252 177 173 175
194 465 253 170 167 171
195 465 253 171 169 174
195 464 254 145 149 158
195 464 255 142 149 161
195 465 254 155 158 166
194 466 252 180 175 176
194 466 253 173 171 176
194 467 252 158 161 170
194 467 253 155 158 169
195 466 253 161 163 172
195 467 253 124 137 159
195 466 254 139 146 163
195 467 254 103 121 156
192 468 249 97 117 151
192 469 249 81 103 146
192 468 250 105 123 150
192 469 250 93 113 152
193 468 251 132 143 161
193 469 250 101 121 153
193 469 251 111 129 156
192 470 249 76 99 145
192 471 248 93 113 148
192 471 249 86 107 149
192 470 250 82 104 149
193 470 250 79 101 146
193 470 251 86 105 146
193 471 250 75 97 144
193 471 251 85 103 142
194 470 251 96 114 149
194 471 251 107 119 149
194 468 252 130 143 162
194 469 252 121 138 161
195 468 253 105 125 158
195 469 252 113 133 160
195 469 253 101 122 156
194 470 252 101 120 149
194 471 252 126 134 155
195 470 252 99 118 146
195 470 253 101 119 148
195 471 252 159 159 170
195 471 253 177 174 181
196 464 255 145 152 164
196 465 255 145 150 162
196 466 254 118 129 156
196 466 255 114 123 154
196 467 254 100 116 157
196 467 255 98 113 161
197 467 255 103 118 161
196 468 254 97 118 161
196 468 255 101 119 164
196 469 254 84 109 149
197 468 255 105 122 162
197 469 255 86 106 147
196 470 253 109 126 152
196 471 253 187 183 188
196 470 254 120 134 158
196 471 254 185 184 189
197 470 255 87 99 140
197 471 254 182 182 188
197 471 255 136 142 166
192 478 247 138 147 163
192 479 247 101 119 150
192 472 248 99 120 149
192 472 249 96 116 151
192 473 248 118 133 156
192 473 249 100 119 148
193 473 249 97 116 146
193 472 250 91 111 147
193 473 250 91 109 143
192 474 248 151 155 167
192 474 249 123 135 156
192 475 248 169 167 173
192 475 249 137 144 161
193 474 249 106 121 150
193 475 249 124 136 158
193 474 250 91 106 143
193 475 250 88 110 148
194 472 251 126 135 156
194 473 251 122 129 150
194 474 250 90 104 144
194 474 251 110 120 148
194 475 250 75 96 144
194 475 251 82 97 140
195 475 251 93 103 141
194 472 252 166 164 172
194 473 252 165 162 169
195 472 252 183 176 177
195 472 253 195 186 184
195 473 252 188 179 179
195 474 252 177 173 177
195 475 252 156 158 170
192 476 248 180 175 176
192 476 249 167 167 174
192 477 248 181 177 180
193 476 249 132 144 164
193 477 249 140 150 169
192 478 248 160 164 173
192 479 248 115 130 159
193 478 249 139 148 168
193 479 249 113 128 162
194 476 250 82 106 151
194 476 251 48 69 134
194 477 250 84 108 156
195 476 251 65 78 132
195 477 251 69 89 145
194 478 249 114 131 165
194 479 249 100 118 162
194 478 250 95 116 163
194 479 250 92 112 161
195 478 250 95 113 164
195 478 251 106 122 165
195 479 250 98 113 161
195 479 251 116 126 165
195 476 252 96 106 143
195 477 252 79 95 140
196 472 253 195 186 183
196 473 253 192 183 181
196 472 254 195 187 187
196 473 254 193 184 183
197 472 254 190 185 187
197 472 255 162 165 180
197 473 254 189 183 185
197 473 255 177 178 186
196 474 253 193 183 182
196 475 252 188 183 185
196 475 253 192 185 186
197 475 253 191 188 192
197 474 254 190 183 184
197 474 255 183 181 185
197 475 254 190 186 189
198 472 255 135 144 170
198 473 255 142 152 172
198 474 255 138 145 168
198 475 254 172 175 186
198 475 255 148 157 176
199 474 255 72 93 142
199 475 255 102 119 158
196 479 251 120 132 163
196 476 252 156 159 175
196 476 253 174 176 186
196 477 252 107 120 154
197 476 253 167 172 184
197 477 253 125 139 162
197 476 254 161 167 181
196 478 252 128 139 169
196 479 252 153 159 177
197 478 252 126 139 164
197 478 253 148 155 173
197 479 252 192 188 192
197 479 253 190 187 192
198 476 254 140 151 174
198 476 255 137 148 173
198 477 254 126 139 166
199 476 255 110 124 168
199 477 255 115 128 166
198 479 253 200 193 196
198 478 254 166 169 182
198 479 254 201 194 195
199 478 254 176 178 189
199 478 255 161 168 185
199 479 254 203 196 197
200 476 255 99 111 167
200 477 255 109 122 167
200 478 255 162 169 188
200 479 254 200 195 199
200 479 255 190 189 196
201 478 255 130 141 171
201 479 255 141 148 174
202 479 255 120 123 164
