ply
format ascii 1.0
comment Version 2, Copyright 2017, 8i Labs, Inc.
comment frame_to_world_scale 0.179523
comment frame_to_world_translation -45.2095 7.18301 -54.3561
comment width 1023
element vertex 147
property float x
property float y
property float z
property uchar red
property uchar green
property uchar blue
end_header
192 416 252 80 98 117
192 416 253 84 102 120
192 416 254 86 102 118
192 416 255 91 106 123
193 416 255 94 108 123
192 423 248 153 159 176
192 423 249 178 179 189
192 422 251 192 189 195
192 423 250 188 184 190
192 423 251 191 188 193
193 423 251 189 186 192
192 421 254 175 179 197
192 421 255 163 170 192
192 422 252 193 190 197
192 422 253 192 191 197
192 423 252 194 190 195
193 422 253 197 194 199
193 423 252 189 188 195
193 423 253 188 189 197
192 422 254 189 190 200
193 422 254 195 194 202
193 422 255 185 191 203
193 423 254 192 192 200
193 423 255 189 192 203
194 423 254 172 180 197
194 423 255 163 175 195
192 425 245 172 170 176
192 424 246 160 163 175
192 424 247 141 151 169
192 425 246 163 164 175
192 425 247 132 142 161
192 426 245 169 167 173
192 427 245 153 152 159
192 426 246 159 161 170
192 426 247 138 145 160
192 427 246 142 145 155
192 427 247 133 138 150
193 426 247 124 135 155
193 427 247 134 140 153
192 428 245 142 143 151
192 429 245 148 148 156
192 428 246 144 145 153
192 428 247 143 144 153
192 429 246 153 152 158
192 429 247 154 153 159
193 428 247 139 141 150
193 429 247 143 145 153
192 430 245 135 139 148
192 431 245 118 126 140
192 430 246 145 146 154
192 430 247 147 149 157
192 431 246 123 130 142
192 431 247 128 134 146
193 430 247 141 145 155
193 431 247 130 137 149
192 424 248 141 150 170
192 424 249 167 170 183
192 425 248 128 139 163
193 424 249 151 155 172
193 425 248 108 124 151
193 425 249 107 125 154
192 424 250 184 183 189
193 424 250 173 175 185
193 424 251 176 180 191
193 425 250 117 134 161
193 425 251 163 170 186
193 426 248 114 126 152
193 426 249 88 105 141
193 427 248 138 142 157
194 424 251 157 165 182
194 425 250 84 111 146
194 425 251 108 130 162
194 426 249 96 110 143
194 427 249 132 136 153
194 426 250 90 109 143
194 426 251 107 124 154
194 427 250 145 148 159
194 427 251 153 156 166
195 426 251 140 148 165
195 427 251 166 163 167
193 424 252 180 182 192
194 424 252 160 169 186
194 424 253 129 143 173
194 425 252 97 120 160
195 425 252 78 104 153
195 425 253 78 102 154
194 424 254 133 148 177
195 424 254 90 115 159
195 424 255 99 122 163
195 425 254 87 110 159
195 425 255 102 122 165
195 426 252 132 142 165
195 426 253 116 130 159
195 427 252 167 165 169
193 428 248 136 137 148
193 429 248 129 132 141
193 430 248 125 130 142
193 431 248 118 126 141
194 428 249 151 151 157
194 429 249 147 146 152
194 428 250 164 159 162
194 429 250 158 154 158
195 428 251 169 162 162
195 429 250 160 155 158
195 429 251 162 157 160
194 430 249 129 132 142
194 431 249 116 123 136
194 430 250 137 138 146
194 431 250 133 135 145
195 430 250 146 145 152
195 430 251 138 139 147
195 431 251 140 140 149
195 428 252 172 165 165
195 429 252 163 159 162
195 430 252 127 131 141
195 431 252 133 135 143
196 425 254 96 116 159
196 425 255 106 124 163
196 426 253 142 149 167
196 427 252 171 166 168
196 427 253 171 168 173
196 426 254 138 147 168
196 426 255 142 150 171
196 427 254 173 171 177
197 426 255 158 164 180
197 427 254 176 173 177
197 427 255 168 170 180
196 428 252 173 166 166
196 428 253 175 168 169
196 429 252 162 159 163
196 429 253 154 153 160
196 428 254 175 170 172
196 429 254 142 145 154
197 428 254 173 169 173
197 428 255 156 159 169
197 429 254 133 139 151
197 429 255 116 128 147
196 430 252 116 122 134
196 430 253 119 125 136
196 431 252 133 134 141
196 431 253 142 141 147
196 430 254 123 129 141
196 431 254 150 148 153
197 430 254 121 128 141
197 430 255 113 124 141
197 431 254 152 151 156
197 431 255 149 150 157
