ply
format ascii 1.0
comment Version 2, Copyright 2017, 8i Labs, Inc.
comment frame_to_world_scale 0.179523
comment frame_to_world_translation -45.2095 7.18301 -54.3561
comment width 1023
element vertex 184
property float x
property float y
property float z
property uchar red
property uchar green
property uchar blue
end_header
207 391 183 101 92 83
207 391 184 100 91 83
207 391 185 101 92 84
207 390 186 103 91 80
207 390 187 110 96 83
207 391 186 100 90 82
207 391 187 103 91 81
207 390 189 114 95 76
207 391 188 110 98 89
207 391 189 112 101 90
207 390 190 107 83 57
207 391 190 109 95 79
207 391 191 99 81 59
203 398 176 84 63 50
203 398 177 88 64 51
203 399 176 87 60 53
203 399 177 82 49 43
203 398 178 93 71 56
203 398 179 98 84 68
203 399 178 79 49 37
203 399 179 80 56 42
203 398 181 99 90 81
203 399 180 84 65 52
203 399 181 91 77 68
203 399 182 96 88 82
203 399 183 95 89 85
205 395 176 99 88 79
205 395 177 102 93 83
205 395 178 107 98 89
205 395 179 108 98 89
207 393 176 88 75 65
207 393 177 90 79 70
206 393 178 97 86 78
206 393 179 99 89 81
207 392 178 88 77 69
207 392 179 92 81 72
207 393 178 92 80 73
207 393 179 97 87 78
206 394 176 95 82 73
206 394 177 96 85 77
206 395 176 95 84 75
206 395 177 101 91 82
207 394 176 92 80 70
206 394 178 102 91 83
206 394 179 103 92 85
205 395 180 105 94 86
205 395 181 103 93 85
205 395 182 106 96 87
205 395 183 108 98 90
206 393 180 102 92 84
206 393 181 104 94 86
207 392 180 100 89 79
207 392 181 101 91 81
207 393 180 103 93 84
206 392 182 103 93 84
206 393 182 103 93 84
206 393 183 101 91 83
207 392 182 101 91 82
207 392 183 102 92 83
206 394 180 101 91 83
206 394 181 102 93 84
206 394 182 102 92 82
206 394 183 98 88 79
204 396 177 104 94 83
204 397 176 95 81 65
204 397 177 101 88 75
205 396 176 101 89 78
205 396 177 102 93 84
204 396 178 106 96 87
204 396 179 102 92 84
204 397 178 105 93 81
204 397 179 107 96 86
205 396 178 103 93 85
205 396 179 104 94 85
204 398 176 87 69 54
204 398 177 94 73 59
204 398 178 98 81 65
204 398 179 99 85 70
204 396 180 100 89 82
204 396 181 101 91 83
204 397 180 106 95 85
204 397 181 102 91 83
205 396 180 104 93 84
205 396 181 104 94 85
204 397 182 98 89 83
204 397 183 97 89 85
205 396 182 102 92 85
205 396 183 104 95 88
205 397 183 99 91 86
204 398 180 101 90 77
204 398 181 103 93 83
204 398 182 101 92 88
204 398 183 99 91 88
204 399 182 100 92 86
203 399 184 92 86 83
203 399 185 83 78 75
203 399 186 78 74 72
205 395 184 109 99 93
206 392 185 105 96 90
206 393 184 105 94 86
206 393 185 106 96 89
207 392 184 102 93 84
207 392 185 103 94 88
206 392 186 108 98 92
206 392 187 108 99 93
206 393 186 111 101 96
206 393 187 108 99 95
207 392 186 103 94 88
207 392 187 105 96 89
206 394 184 96 85 77
206 394 185 96 86 79
206 395 184 102 91 84
206 395 185 95 87 82
206 394 186 99 90 84
206 394 187 100 92 88
206 395 186 86 80 75
206 395 187 84 78 74
206 393 188 105 97 93
206 393 189 97 91 87
207 392 188 105 96 89
207 392 189 108 99 92
207 393 188 103 94 89
207 393 189 100 92 88
206 393 190 88 82 79
207 392 190 106 98 93
207 392 191 98 90 83
207 393 190 91 85 82
207 393 191 88 82 79
206 394 188 100 93 90
206 394 189 91 85 81
206 395 188 84 78 74
206 395 189 83 76 72
207 395 189 86 79 75
206 394 190 80 75 71
206 395 190 82 76 71
207 394 190 82 77 73
207 394 191 79 73 69
207 395 190 84 78 73
207 395 191 85 79 74
205 396 184 107 98 93
205 396 185 105 98 94
205 397 184 101 93 90
205 397 185 99 92 90
205 396 186 99 92 89
205 397 186 96 89 87
205 397 187 91 85 83
204 398 184 92 85 81
204 398 185 82 76 73
204 399 184 95 89 85
204 399 185 82 76 74
205 398 184 93 86 82
205 398 185 91 85 81
204 398 186 83 78 76
204 398 187 81 77 75
204 399 186 75 71 69
204 399 187 75 71 69
205 398 186 93 87 84
205 398 187 83 79 77
206 396 186 96 90 87
206 396 187 84 78 75
206 397 187 87 81 78
205 397 188 84 78 74
205 397 189 79 73 68
205 397 190 78 71 66
204 398 188 81 77 74
204 399 188 71 68 66
204 399 189 67 62 59
205 398 188 77 72 69
205 398 189 69 64 60
204 399 190 66 61 58
204 399 191 67 63 60
205 398 190 73 67 63
205 398 191 70 64 60
205 399 190 65 60 55
205 399 191 65 61 58
206 396 188 77 70 65
206 396 189 76 69 64
206 397 188 82 75 70
206 397 189 80 73 66
206 396 190 76 69 65
206 396 191 78 69 65
206 397 190 79 71 66
206 397 191 74 67 61
207 396 191 81 73 69
