ply
format ascii 1.0
comment Version 2, Copyright 2017, 8i Labs, Inc.
comment frame_to_world_scale 0.179523
comment frame_to_world_translation -45.2095 7.18301 -54.3561
comment width 1023
element vertex 158
property float x
property float y
property float z
property uchar red
property uchar green
property uchar blue
end_header
201 594 208 168 165 171
201 595 208 175 171 176
202 592 208 172 167 170
202 593 208 162 160 165
203 592 208 175 170 174
203 593 208 171 168 172
203 593 209 176 173 178
202 594 208 162 160 165
202 595 208 175 171 175
203 594 208 168 165 170
203 594 209 177 174 179
203 595 208 176 172 177
203 595 209 181 176 180
201 596 208 182 176 180
201 597 208 182 176 179
200 598 208 159 159 166
200 599 208 155 158 168
201 598 208 166 163 168
201 599 208 160 160 167
202 596 208 183 177 180
202 597 208 183 177 180
202 597 209 180 175 178
203 596 209 186 180 182
203 597 209 185 178 181
202 598 208 174 171 175
202 598 209 171 168 173
202 599 208 173 171 176
202 599 209 173 171 176
203 598 209 167 164 169
203 599 209 162 160 166
204 592 209 177 172 176
204 593 209 172 169 173
205 592 209 177 173 176
205 593 209 173 169 173
204 594 209 177 173 177
204 595 209 182 177 180
205 594 209 176 171 175
205 595 209 182 176 179
205 594 210 178 173 177
205 595 210 183 177 180
206 592 209 179 174 175
206 592 210 171 164 166
206 593 210 175 171 175
207 592 210 146 121 128
207 593 210 151 135 139
206 594 210 179 175 178
206 595 210 183 178 180
207 594 210 163 157 161
207 595 210 170 164 168
207 595 211 161 153 157
204 596 209 188 181 183
204 597 209 185 179 181
205 596 210 187 180 181
205 597 210 179 173 175
204 598 209 174 170 175
204 599 209 164 163 169
204 598 210 175 172 177
204 599 210 170 167 172
205 598 210 169 165 169
205 599 210 169 165 170
206 596 210 184 179 180
206 597 210 177 172 175
207 596 210 178 173 176
207 596 211 169 163 166
207 597 210 176 172 174
207 597 211 168 165 168
206 598 210 166 163 167
206 598 211 164 162 166
206 599 210 161 157 161
206 599 211 162 159 163
207 598 211 168 166 170
207 599 211 167 165 168
200 600 208 153 157 169
200 601 208 150 158 172
201 600 208 160 161 170
201 601 208 165 166 176
200 602 208 122 140 163
200 603 208 95 122 156
201 602 208 166 169 179
201 603 208 140 149 165
202 600 208 171 168 173
202 600 209 179 175 179
202 601 208 177 173 178
202 601 209 184 179 182
203 600 209 170 167 171
203 601 209 184 178 181
202 602 208 185 182 187
202 602 209 188 183 186
202 603 209 170 168 175
203 602 209 187 181 183
203 603 209 177 172 176
200 604 208 83 113 157
200 605 208 79 112 160
201 604 208 100 121 153
201 604 209 127 136 157
201 605 208 83 110 153
201 605 209 115 129 157
200 606 208 101 129 169
200 607 208 119 145 174
201 606 208 102 126 164
201 606 209 119 137 164
201 607 208 117 141 170
201 607 209 123 142 167
202 604 209 153 155 167
202 605 209 146 152 167
203 604 209 169 167 173
203 605 209 171 170 177
202 606 209 147 156 172
202 607 209 142 153 171
203 606 209 170 171 180
203 607 209 165 168 179
203 606 210 178 175 181
203 607 210 168 169 178
204 600 209 167 164 169
204 601 209 180 175 178
204 600 210 172 168 172
204 601 210 181 175 178
205 600 210 175 170 173
205 601 210 180 175 177
204 602 209 185 178 180
204 602 210 182 175 176
204 603 210 171 166 169
205 602 210 181 175 176
205 603 210 171 166 169
206 600 210 168 164 167
206 600 211 168 164 167
206 601 210 176 172 174
206 601 211 179 174 176
207 600 211 174 170 174
207 601 211 182 177 179
206 602 211 181 175 177
206 603 211 171 167 170
207 602 211 181 176 178
207 603 211 173 169 172
207 602 212 181 177 179
207 603 212 166 164 169
204 604 210 165 163 167
204 605 210 172 169 174
205 604 210 166 163 167
205 605 210 173 169 173
205 605 211 180 175 178
204 606 210 177 172 176
204 607 210 163 163 170
205 606 210 175 170 173
205 606 211 180 174 177
205 607 210 164 162 167
205 607 211 165 164 170
206 604 211 166 164 169
206 605 211 175 172 176
206 606 211 182 176 178
206 607 211 169 168 174
206 605 212 177 173 177
207 604 212 163 162 168
207 605 212 173 170 175
206 606 212 182 176 179
206 607 212 164 164 172
207 606 212 179 174 177
207 607 212 158 160 169
