ply
format ascii 1.0
comment Version 2, Copyright 2017, 8i Labs, Inc.
comment frame_to_world_scale 0.179523
comment frame_to_world_translation -45.2095 7.18301 -54.3561
comment width 1023
element vertex 370
property float x
property float y
property float z
property uchar red
property uchar green
property uchar blue
end_header
192 497 53 123 124 129
192 496 54 122 123 128
192 497 54 125 125 129
193 496 54 119 122 128
193 496 55 116 120 128
193 497 54 122 124 130
192 498 53 123 124 128
192 499 53 121 123 128
193 499 53 112 117 126
192 498 54 124 124 128
193 498 54 116 121 129
193 499 54 111 117 126
194 496 55 109 116 125
194 497 54 113 118 127
194 497 55 111 117 126
195 496 55 103 112 124
195 497 54 108 116 127
195 497 55 103 113 125
194 499 53 105 112 122
194 498 54 113 118 127
194 499 54 109 115 125
195 498 54 104 113 126
195 499 54 97 108 121
192 502 51 116 121 129
192 503 51 117 121 129
193 503 51 115 120 129
192 500 52 117 121 127
192 500 53 117 120 126
192 501 52 115 119 126
193 500 52 111 116 124
193 500 53 107 114 123
193 501 52 113 118 126
192 502 52 115 120 127
193 502 52 116 121 130
193 503 52 114 119 128
194 500 53 105 112 121
194 501 52 110 115 123
194 501 53 110 115 124
195 500 53 101 110 122
195 501 53 106 114 124
194 502 52 112 117 126
194 503 52 111 117 126
195 502 52 109 115 124
195 502 53 105 112 122
195 503 52 102 111 123
196 496 55 94 106 119
196 497 55 91 104 120
197 497 55 90 102 117
196 498 54 92 105 120
196 499 54 90 104 119
197 498 54 87 101 117
197 498 55 90 103 117
197 499 54 90 103 117
197 499 55 94 104 118
198 497 55 92 103 116
198 498 55 91 103 116
198 499 55 92 104 117
199 498 55 88 101 116
199 499 55 92 105 119
196 500 53 92 105 119
196 501 53 92 105 119
197 501 53 93 105 119
196 500 54 90 103 117
197 500 54 91 103 118
197 501 54 92 105 119
196 502 53 90 103 117
196 503 53 88 102 117
197 502 53 92 104 118
197 503 53 90 103 117
198 500 54 90 103 117
198 500 55 87 101 116
198 501 54 89 102 117
199 500 55 93 106 120
199 501 54 98 108 120
199 501 55 99 109 121
198 503 53 91 103 117
198 502 54 90 103 117
198 503 54 88 102 117
199 502 54 99 109 121
199 503 54 95 107 121
196 496 56 86 101 117
197 496 56 90 102 117
198 496 56 92 104 118
198 497 56 92 103 116
199 496 56 87 101 116
199 496 57 86 101 117
199 497 56 90 103 117
199 498 56 92 105 119
199 499 56 98 109 123
192 504 51 111 116 124
192 505 50 115 119 126
192 505 51 113 117 124
193 504 51 109 116 126
193 505 51 102 110 121
192 506 50 114 119 128
192 507 50 118 122 129
193 506 50 107 115 125
193 506 51 100 110 122
193 507 50 114 119 128
194 504 51 106 112 122
194 505 51 98 107 118
195 504 51 101 111 123
195 505 51 97 108 121
194 506 51 101 110 121
194 507 50 110 115 124
194 507 51 108 114 123
195 506 51 98 108 121
195 507 50 106 113 123
195 507 51 100 109 122
194 504 52 109 116 125
195 504 52 98 109 123
195 505 52 93 106 120
195 506 52 94 105 119
192 509 49 132 130 133
193 509 49 122 124 130
192 508 50 127 127 131
193 508 50 120 123 129
193 509 50 117 121 127
192 510 49 133 131 134
192 511 49 132 132 135
193 510 49 118 121 129
193 511 49 116 120 128
194 508 50 107 113 122
194 509 50 106 112 122
195 508 50 95 106 120
195 508 51 90 103 119
195 509 50 95 107 122
194 510 49 105 112 122
194 511 49 105 112 122
195 511 49 96 107 120
194 510 50 103 112 123
195 510 50 91 104 120
196 507 51 92 104 118
197 507 51 94 105 118
196 504 52 90 104 119
196 504 53 89 103 118
196 505 52 91 104 118
197 504 53 92 104 118
197 505 52 92 104 117
197 505 53 92 104 118
196 506 52 92 104 118
196 507 52 92 104 118
197 506 52 93 104 118
197 507 52 96 106 119
198 504 53 91 104 119
198 505 53 90 102 117
199 504 53 91 105 120
199 505 53 92 104 119
199 504 54 96 108 122
198 506 52 95 105 118
198 506 53 92 104 117
198 507 52 96 106 119
199 506 52 98 109 122
199 506 53 96 107 120
199 507 52 99 109 122
196 508 51 90 103 117
196 509 50 86 101 118
196 509 51 90 103 118
197 508 51 95 106 120
197 509 50 96 107 120
197 509 51 95 107 121
196 511 49 99 108 121
197 511 49 105 112 123
196 510 50 90 103 119
196 511 50 91 104 119
197 510 50 98 107 120
197 511 50 103 110 121
198 508 51 96 107 120
198 509 50 97 107 120
198 509 51 95 106 119
199 508 51 99 109 121
199 509 51 97 108 121
198 510 50 96 106 119
198 511 50 101 110 122
199 510 50 94 106 120
199 510 51 99 109 121
199 511 50 98 109 123
199 508 52 99 109 121
200 500 55 100 109 122
200 501 55 103 111 123
201 500 55 101 110 122
201 501 55 105 113 125
200 502 54 103 111 123
200 502 55 103 112 124
200 503 54 102 110 123
201 502 55 106 114 125
201 503 54 100 109 121
201 503 55 104 112 123
202 501 55 107 115 125
202 502 55 112 117 127
202 503 55 110 116 125
203 502 55 114 120 129
203 503 55 113 119 129
204 503 55 107 115 125
200 496 57 93 106 120
200 497 56 101 110 123
200 497 57 100 110 122
201 496 57 100 109 121
201 497 57 107 114 123
201 496 58 100 109 121
201 497 58 107 114 124
200 498 56 101 111 123
200 499 56 101 111 123
201 498 56 105 113 124
201 498 57 110 116 124
201 499 56 106 113 123
202 497 57 112 117 125
202 496 58 106 114 124
202 496 59 107 114 125
202 497 58 113 118 127
203 496 58 117 121 129
203 496 59 112 118 127
203 497 58 117 122 131
202 498 57 114 119 126
202 499 56 110 115 122
202 499 57 114 118 125
203 498 57 119 123 129
203 499 57 120 122 128
203 498 58 119 123 131
200 500 56 99 109 121
201 500 56 104 112 124
201 501 56 105 114 125
202 500 56 110 116 124
202 501 56 111 116 126
203 500 56 115 119 125
203 500 57 116 119 125
203 501 56 114 119 128
203 502 56 115 121 131
204 496 59 120 122 129
204 497 58 122 125 131
204 497 59 125 126 131
205 496 59 126 127 132
205 497 59 128 128 132
204 499 57 124 125 129
204 498 58 124 125 130
204 499 58 125 126 130
205 498 58 126 127 132
205 498 59 130 130 134
205 499 58 124 126 130
206 497 59 128 128 130
206 498 59 131 130 133
206 499 58 124 125 130
206 499 59 128 129 133
207 498 59 125 127 132
207 499 59 121 123 129
204 496 60 116 119 127
205 496 60 121 123 129
206 496 60 125 126 131
206 497 60 125 125 130
207 496 60 121 123 129
207 496 61 119 122 128
207 497 60 121 124 129
207 498 60 119 123 130
204 500 56 112 117 125
204 500 57 117 120 127
204 501 56 108 115 126
205 500 57 116 119 126
205 501 56 103 112 123
205 501 57 109 115 124
205 500 58 121 123 129
204 502 56 106 115 126
204 503 56 102 112 124
205 502 56 106 114 125
205 502 57 106 114 125
205 503 56 103 111 122
206 501 57 113 118 127
206 500 58 117 120 126
206 501 58 115 120 128
207 500 58 117 119 125
207 500 59 116 119 125
207 501 58 116 120 128
206 502 57 109 117 127
206 503 56 101 110 121
206 503 57 106 114 125
207 502 57 110 116 126
207 503 57 104 113 124
207 502 58 110 116 125
200 505 53 99 107 118
201 505 53 106 112 122
200 504 54 96 107 119
201 504 54 99 109 121
201 505 54 102 111 122
200 506 52 103 112 123
200 506 53 102 110 121
200 507 52 105 113 123
200 507 53 106 112 122
201 506 53 108 114 123
201 507 52 110 116 124
201 507 53 111 116 125
202 504 54 107 114 124
202 504 55 112 118 127
202 505 54 108 115 125
203 504 54 115 120 128
203 504 55 113 119 129
203 505 54 114 119 128
202 506 53 110 116 125
202 507 53 115 119 127
203 506 53 115 120 129
203 507 53 116 121 129
202 506 54 111 117 127
203 506 54 115 120 129
200 509 51 106 113 123
201 509 51 117 121 129
200 510 51 102 111 122
200 511 50 105 114 125
200 511 51 103 112 123
201 510 51 113 119 128
201 511 50 107 116 127
201 511 51 115 120 129
202 510 51 124 126 131
202 511 51 126 127 132
200 508 52 106 113 123
201 508 52 116 119 127
201 509 52 117 121 128
202 508 52 123 125 130
202 508 53 121 123 129
202 509 52 127 127 131
203 508 53 122 124 130
203 509 52 129 129 132
203 509 53 128 128 132
202 510 52 129 129 133
203 510 52 130 129 133
203 511 52 128 128 133
204 504 55 116 120 128
204 505 54 119 123 129
204 505 55 122 124 130
205 504 55 116 120 128
205 505 55 124 126 133
204 507 53 119 124 132
204 506 54 119 123 131
204 507 54 119 123 131
205 506 54 125 126 132
205 506 55 126 127 132
205 507 54 124 126 132
206 505 55 123 125 130
206 506 55 126 127 132
206 507 54 126 127 132
206 507 55 126 127 132
207 506 55 122 123 129
207 507 55 125 126 132
204 508 53 121 124 132
204 509 53 125 126 130
205 508 53 121 124 131
205 509 53 119 121 128
204 508 54 121 125 132
205 508 54 121 123 130
205 509 54 112 116 123
204 510 52 124 125 130
204 510 53 125 126 130
204 511 52 120 123 131
205 510 53 113 118 126
205 511 52 110 117 127
205 511 53 104 113 123
206 508 54 120 123 130
206 509 54 105 113 123
207 508 54 116 122 130
207 508 55 117 121 129
207 509 54 104 113 125
206 510 53 92 104 119
206 511 53 92 104 118
207 510 53 73 91 110
207 511 53 79 95 110
206 510 54 95 106 120
207 510 54 82 98 115
205 504 56 111 117 126
206 504 56 107 115 124
206 505 56 115 119 128
207 504 56 103 112 124
207 504 57 98 109 121
207 505 56 115 119 126
