ply
format ascii 1.0
comment Version 2, Copyright 2017, 8i Labs, Inc.
comment frame_to_world_scale 0.179523
comment frame_to_world_translation -45.2095 7.18301 -54.3561
comment width 1023
element vertex 341
property float x
property float y
property float z
property uchar red
property uchar green
property uchar blue
end_header
192 704 48 113 150 207
192 704 49 115 151 205
192 705 49 117 153 206
193 704 48 98 138 204
193 704 49 103 143 207
193 705 49 112 149 209
192 706 49 133 163 208
192 707 49 125 157 204
193 706 49 114 151 208
193 707 49 108 145 204
192 707 50 135 163 204
193 707 50 95 135 194
194 704 48 91 131 195
194 704 49 98 138 202
194 705 49 113 151 207
195 704 48 134 160 210
195 705 49 112 149 203
194 706 49 104 146 208
194 707 49 107 149 209
195 706 49 93 140 202
195 707 49 102 146 209
192 708 50 143 164 202
192 709 50 161 175 215
192 709 51 144 162 210
193 708 50 93 134 191
193 709 50 121 151 203
192 710 50 132 156 208
192 710 51 110 142 202
192 711 51 112 146 200
193 710 50 116 149 191
193 710 51 119 149 196
193 711 51 161 177 208
195 708 49 106 149 210
194 708 50 108 151 205
194 709 50 122 158 209
195 708 50 108 152 210
195 709 50 118 158 208
194 710 50 140 167 203
194 710 51 170 183 208
194 711 51 184 189 210
195 710 50 170 186 213
195 711 51 195 195 211
196 704 48 129 160 214
196 705 49 112 152 207
197 704 48 100 141 207
197 705 49 97 139 207
196 706 49 98 144 205
196 707 49 105 147 208
197 706 49 100 145 209
197 707 49 107 148 208
198 704 48 117 150 208
198 704 49 116 148 206
198 705 49 104 142 205
199 704 48 139 166 212
199 704 49 141 167 211
199 705 49 118 152 207
198 706 49 103 142 208
198 707 49 107 146 209
199 706 49 107 146 207
199 707 49 104 143 207
199 707 50 106 145 207
196 708 49 110 149 210
197 708 49 110 149 209
196 708 50 110 150 211
196 709 50 116 155 209
197 708 50 109 149 209
197 709 50 114 152 210
196 710 50 144 168 205
196 711 50 179 187 211
196 711 51 183 189 210
197 710 50 124 155 205
197 711 50 138 161 202
197 711 51 141 162 202
198 708 50 110 149 209
198 709 50 114 151 207
199 708 50 112 150 207
199 709 50 112 151 205
198 710 50 120 154 208
198 711 51 127 156 206
199 710 50 115 152 207
199 710 51 116 153 207
199 711 51 119 154 208
192 712 51 165 180 211
192 713 51 196 199 217
193 712 51 188 193 210
193 713 51 204 202 212
194 712 51 172 173 194
194 713 51 186 182 198
195 712 51 169 166 186
195 713 51 179 174 189
194 714 51 204 195 205
195 714 51 198 193 203
192 713 52 194 196 213
192 714 52 161 171 197
192 715 52 144 161 196
193 714 52 197 194 207
193 715 52 175 180 202
194 714 52 204 196 206
194 715 52 192 190 208
195 714 52 200 195 206
195 715 52 189 188 208
192 716 52 150 169 203
192 717 52 154 174 207
192 717 53 154 177 215
193 716 52 158 173 204
193 717 52 152 173 211
193 717 53 147 172 214
192 718 53 136 164 204
192 719 53 143 165 202
193 718 53 118 150 197
193 719 53 136 158 199
194 716 52 163 178 209
194 717 52 151 176 212
194 717 53 157 181 215
195 716 52 159 172 207
195 717 52 142 166 206
194 718 53 150 174 210
194 719 53 148 168 206
195 718 53 148 172 207
195 719 53 146 168 204
196 712 51 195 193 205
196 713 51 204 197 205
197 712 51 181 187 207
197 713 51 205 200 210
196 714 51 203 197 210
197 714 51 208 200 211
198 712 51 151 168 201
198 713 51 193 192 208
199 712 51 132 159 203
199 713 51 168 178 203
198 714 51 204 199 210
196 715 52 178 180 203
197 714 52 203 196 209
197 715 52 181 180 197
198 714 52 207 200 209
198 715 52 202 195 203
199 714 52 197 194 206
199 715 52 204 197 204
196 716 52 146 160 196
196 717 52 124 149 191
196 717 53 130 153 193
197 716 52 161 167 191
197 717 52 163 169 197
197 717 53 159 165 195
196 718 53 140 160 199
196 719 53 138 161 199
197 718 53 146 158 192
197 719 53 135 158 197
198 716 52 195 190 201
198 717 53 198 193 207
199 716 52 201 195 204
199 717 53 205 198 208
198 718 53 176 180 204
198 719 53 148 167 204
199 718 53 188 184 204
199 719 53 155 166 202
200 704 49 144 170 212
200 705 49 136 165 212
201 704 49 125 157 208
201 705 49 117 153 207
200 706 49 127 160 212
200 707 49 111 149 206
201 706 49 123 158 209
200 707 50 116 153 207
201 706 50 121 157 209
201 707 50 129 163 211
202 704 49 115 148 209
202 705 49 110 149 210
203 704 49 115 148 208
202 705 50 110 150 209
203 704 50 117 149 206
203 705 50 112 149 207
202 706 50 114 153 208
202 707 50 122 158 208
203 706 50 114 151 207
203 707 50 117 154 208
203 707 51 115 154 208
200 708 50 113 151 206
200 709 50 116 152 207
200 709 51 119 153 208
201 708 50 129 162 211
201 709 51 120 155 206
200 710 51 113 149 208
200 711 51 108 147 205
201 710 51 117 151 207
201 711 51 116 150 206
202 708 50 130 163 211
202 708 51 138 168 213
202 709 51 132 162 209
203 708 50 118 155 207
203 708 51 123 159 209
203 709 51 131 164 211
202 710 51 130 159 208
202 711 51 131 159 209
203 710 51 137 165 210
203 711 51 136 162 209
203 710 52 143 167 212
203 711 52 147 169 211
204 704 50 127 152 203
204 705 50 114 148 204
205 704 50 129 152 200
205 704 51 136 155 197
205 705 51 121 150 199
204 706 50 112 150 204
204 706 51 113 150 204
204 707 51 111 152 207
205 706 51 113 148 201
205 707 51 107 148 204
206 704 51 142 158 193
206 705 51 125 150 196
205 707 52 105 145 199
206 704 52 157 166 192
206 705 52 132 152 190
207 704 52 157 164 187
207 704 53 163 165 178
207 705 52 140 154 185
207 705 53 159 165 183
206 706 52 115 146 192
206 707 52 108 145 195
207 706 52 123 147 186
207 706 53 146 157 183
207 707 53 129 151 187
204 708 51 111 152 208
204 709 51 115 153 208
205 708 51 103 147 205
204 709 52 116 153 206
205 708 52 98 143 204
205 709 52 107 147 204
204 710 52 130 159 207
204 711 52 148 169 209
205 710 52 125 155 202
205 711 52 151 170 206
205 711 53 160 174 207
206 708 52 99 141 199
206 708 53 106 142 193
206 709 52 104 143 198
206 709 53 101 140 192
207 708 53 114 143 186
207 709 53 110 143 187
206 710 52 126 154 200
206 710 53 126 154 196
206 711 53 157 172 204
207 710 53 118 149 191
207 711 53 148 166 198
207 710 54 117 146 184
207 711 54 151 166 193
200 712 51 118 152 204
200 713 51 139 160 194
201 712 51 116 150 205
200 712 52 129 157 203
200 713 52 147 164 194
201 712 52 125 156 205
201 713 52 154 172 206
200 714 52 175 176 191
200 715 52 199 192 201
201 714 52 193 193 210
201 715 52 199 194 205
201 715 53 199 193 204
202 712 52 133 162 208
202 713 52 153 173 209
203 712 52 149 171 211
203 713 52 149 170 210
203 713 53 151 170 210
202 714 52 186 191 213
202 714 53 186 190 212
202 715 53 196 193 208
203 714 53 172 183 210
203 715 53 189 189 207
200 716 52 202 195 205
200 716 53 202 196 207
200 717 53 202 196 208
201 716 53 191 187 201
201 717 53 189 187 203
200 718 53 184 182 202
200 719 53 148 156 193
201 718 53 189 188 206
200 719 54 154 161 194
201 718 54 187 187 206
201 719 54 177 179 201
202 716 53 183 181 198
202 717 53 177 178 198
203 716 53 180 179 197
202 717 54 175 177 198
203 716 54 185 184 202
203 717 54 180 180 200
202 718 54 182 183 202
202 719 54 179 180 200
202 719 55 180 179 199
203 718 54 183 184 202
203 718 55 185 184 202
203 719 54 182 183 201
203 719 55 182 180 198
204 712 52 153 172 210
204 712 53 149 169 209
204 713 53 150 170 210
205 712 53 158 173 208
205 713 53 153 170 207
204 714 53 159 175 207
204 715 53 175 184 208
205 714 53 153 171 207
204 715 54 177 184 206
205 714 54 151 169 206
205 715 54 163 175 203
206 712 53 160 173 204
206 713 53 155 170 204
206 713 54 153 169 203
207 712 54 156 168 196
207 713 54 151 166 196
207 713 55 147 162 190
206 714 54 151 167 202
206 715 54 152 168 201
206 715 55 156 168 195
207 714 54 146 164 196
207 714 55 145 162 191
207 715 55 143 159 188
204 716 54 185 186 204
204 717 54 186 185 203
204 717 55 187 186 203
205 716 54 182 185 204
205 716 55 179 182 200
205 717 55 187 187 201
204 718 55 187 185 201
204 719 55 185 183 199
205 718 55 183 183 197
206 716 55 165 174 196
207 715 56 143 159 186
205 717 56 180 182 197
205 718 56 186 186 199
205 719 56 187 187 202
206 716 56 164 172 192
206 717 56 180 182 196
207 716 56 153 166 190
207 716 57 143 158 182
207 717 56 166 173 192
207 717 57 150 163 186
206 718 56 180 181 196
206 718 57 172 176 193
206 719 56 186 187 203
206 719 57 164 171 191
207 718 57 150 162 185
207 719 57 144 158 185
