ply
format ascii 1.0
comment Version 2, Copyright 2017, 8i Labs, Inc.
comment frame_to_world_scale 0.179523
comment frame_to_world_translation -45.2095 7.18301 -54.3561
comment width 1023
element vertex 385
property float x
property float y
property float z
property uchar red
property uchar green
property uchar blue
end_header
192 832 98 246 179 57
192 832 99 244 165 65
192 833 99 238 163 94
193 832 98 248 191 76
193 832 99 247 174 72
193 833 99 239 175 103
194 832 98 234 194 115
194 833 99 229 182 121
195 832 98 219 190 137
195 833 99 232 196 153
192 833 100 225 165 115
193 833 100 231 183 135
192 834 100 177 134 105
192 834 101 185 132 98
192 835 101 174 124 88
193 834 100 204 157 115
193 834 101 164 119 78
193 835 101 162 114 79
192 835 102 186 137 93
193 835 102 181 128 79
194 834 100 214 167 138
194 835 101 120 73 69
195 834 100 215 175 151
195 835 100 154 105 113
195 835 101 111 73 88
192 836 102 194 146 96
192 836 103 215 162 107
193 836 102 196 139 85
193 836 103 231 175 103
193 837 103 230 180 116
195 836 101 64 26 69
194 836 102 129 89 78
194 837 103 180 149 125
195 836 102 88 72 76
195 837 103 168 147 135
195 838 103 218 201 187
196 832 98 216 191 152
196 833 98 226 203 171
196 833 99 239 213 187
197 832 98 223 189 141
197 833 98 223 200 165
197 833 99 231 208 180
196 834 99 235 201 180
197 834 99 239 212 188
199 832 97 235 190 126
198 832 98 235 189 116
198 833 98 224 196 152
198 833 99 224 201 170
199 832 98 219 173 105
199 833 98 215 183 136
199 833 99 218 196 163
198 834 99 234 211 181
199 834 99 228 207 178
196 834 100 226 191 170
196 835 100 197 162 148
196 835 101 178 143 134
197 834 100 232 199 176
197 835 100 215 184 164
197 835 101 179 150 131
198 834 100 238 213 182
198 835 100 213 181 154
198 835 101 201 168 142
199 835 100 226 198 174
196 836 101 94 59 85
197 836 101 146 127 116
196 836 102 83 78 86
196 837 102 162 155 153
196 837 103 163 147 136
197 836 102 167 160 159
197 837 102 147 143 143
197 837 103 177 168 167
196 838 103 210 193 177
197 838 103 201 188 182
198 836 101 161 137 119
199 836 101 154 119 92
198 836 102 141 135 137
198 837 102 150 140 145
198 837 103 169 163 168
199 837 102 132 101 97
198 838 103 168 155 149
198 839 103 174 159 151
199 838 103 169 151 141
199 839 103 180 163 151
192 837 104 218 178 138
193 837 104 215 174 131
192 838 104 219 184 151
192 838 105 228 197 168
193 838 104 215 184 153
193 838 105 208 181 157
193 839 105 212 187 167
192 839 106 230 204 179
192 839 107 225 202 183
193 839 106 212 190 175
193 839 107 212 192 179
194 837 104 218 182 128
194 838 104 201 175 154
194 839 105 207 181 163
195 838 104 201 181 165
195 839 104 203 181 164
195 839 105 203 179 161
194 839 106 201 178 162
196 838 104 206 187 174
196 839 104 202 180 164
196 839 105 205 178 157
197 838 104 198 182 174
197 839 104 198 176 162
197 839 105 195 167 147
198 839 104 188 164 150
199 839 104 190 171 157
192 840 107 207 188 175
193 840 107 197 181 173
194 840 106 188 167 153
194 840 107 160 144 135
195 840 106 193 168 149
195 840 107 153 132 117
192 840 108 187 172 165
192 840 109 189 176 170
192 841 109 194 181 174
193 840 108 164 155 153
193 841 108 141 133 131
193 841 109 166 154 147
192 841 110 212 193 182
192 841 111 206 183 165
193 841 110 193 175 163
192 842 111 187 156 127
193 842 110 202 181 165
193 842 111 188 160 136
194 840 108 118 107 109
194 841 108 123 111 110
194 841 109 163 149 143
195 841 108 137 119 109
195 841 109 161 144 133
195 842 109 179 163 154
194 842 110 193 173 161
194 842 111 180 155 133
195 842 110 181 164 154
195 842 111 186 167 155
196 840 105 200 171 148
197 840 105 191 157 134
196 840 106 198 168 142
196 840 107 199 171 149
196 841 107 180 154 131
197 840 106 190 148 121
197 841 106 193 148 122
197 841 107 179 139 110
198 840 105 187 153 132
199 840 104 196 173 158
199 840 105 189 160 140
198 840 106 190 150 124
198 841 106 196 154 124
198 841 107 191 156 126
199 841 106 186 153 124
199 841 107 184 156 131
199 842 107 182 156 133
196 841 108 180 160 145
197 841 108 182 155 131
196 842 108 178 160 147
196 842 109 172 155 144
197 842 108 192 169 152
197 842 109 174 158 149
196 842 110 160 145 138
196 842 111 171 156 150
196 843 111 187 174 171
197 842 110 159 147 141
197 843 110 154 147 148
197 843 111 158 155 160
198 842 108 198 175 156
198 842 109 170 154 145
198 843 109 159 149 147
199 842 108 192 170 153
199 843 108 183 166 156
199 843 109 146 144 147
198 843 110 139 143 155
198 843 111 129 139 154
199 843 110 116 128 145
198 844 111 126 137 151
199 844 111 130 136 146
200 832 97 189 172 158
201 832 97 64 70 113
200 832 98 209 189 168
200 833 98 226 203 179
200 833 99 222 200 174
201 832 98 131 128 137
201 833 98 212 196 187
201 833 99 229 214 202
200 834 99 221 202 176
201 834 99 218 199 179
201 835 99 227 205 178
202 832 97 102 116 136
203 832 97 139 138 146
202 832 98 171 168 172
202 833 98 203 190 182
203 832 98 180 172 170
203 833 98 192 183 179
202 834 99 221 202 184
202 835 99 226 196 163
203 834 99 214 197 184
203 835 99 213 174 139
200 835 100 231 203 178
201 835 100 231 207 178
202 835 100 212 165 114
203 835 100 189 127 78
200 836 101 184 146 117
200 837 101 181 150 125
201 836 100 230 202 166
201 836 101 228 199 172
201 837 101 209 177 147
200 837 102 162 129 109
201 837 102 205 174 147
200 838 103 179 158 143
200 839 103 189 175 163
201 838 102 209 183 167
201 838 103 195 175 170
201 839 103 186 169 163
202 836 100 209 157 108
202 836 101 194 132 93
202 837 101 193 129 88
203 836 100 189 109 77
203 836 101 206 131 112
203 837 101 216 159 132
202 837 102 193 145 102
203 837 102 210 177 152
202 838 102 208 184 168
202 838 103 205 186 177
202 839 103 186 166 158
203 838 102 200 178 165
203 839 103 171 151 141
204 832 97 157 149 148
205 832 97 177 169 170
204 832 98 188 181 181
204 833 98 178 173 175
205 832 98 168 164 168
205 833 98 169 167 177
204 834 99 177 163 156
204 835 99 198 168 142
205 834 98 176 171 177
205 834 99 188 175 174
205 835 99 199 185 180
206 832 97 217 199 191
207 832 97 209 184 163
206 833 98 192 177 171
207 833 98 183 155 131
206 834 98 175 166 163
206 834 99 172 168 170
206 835 99 168 174 187
207 834 98 186 167 154
207 834 99 179 172 173
207 835 99 136 154 177
204 835 100 182 141 112
205 835 100 196 175 161
204 836 100 178 121 86
204 836 101 197 128 95
204 837 101 207 163 128
205 836 100 191 174 163
205 837 101 200 183 174
204 837 102 207 181 166
204 838 102 175 163 161
204 839 103 128 128 137
205 838 102 167 162 168
205 839 102 138 149 169
205 839 103 135 154 179
206 836 100 143 163 185
206 837 100 148 164 186
206 837 101 161 166 179
207 836 100 121 149 177
207 837 100 131 154 178
207 837 101 143 163 186
206 838 101 121 135 154
207 838 101 134 162 190
206 838 102 124 137 158
206 839 102 129 155 185
207 838 102 127 156 186
207 839 102 127 153 180
200 839 104 205 190 179
201 839 104 192 175 166
203 840 103 137 121 119
204 840 103 134 138 150
205 840 103 154 169 188
206 840 103 139 151 167
206 841 103 166 153 144
207 840 102 141 147 158
207 840 103 145 142 144
207 841 103 146 127 113
200 840 104 201 179 164
200 840 105 195 170 151
200 841 105 191 165 145
201 840 104 188 163 148
201 840 105 175 148 129
201 841 105 170 141 123
200 841 106 175 146 123
200 841 107 165 139 116
201 841 106 161 132 109
200 842 107 154 126 102
201 842 106 164 135 110
201 842 107 162 135 109
201 843 107 175 149 127
202 840 104 159 130 119
202 841 105 175 148 133
203 840 104 151 131 125
203 841 104 180 171 169
203 841 105 209 185 165
202 841 106 174 146 125
202 842 106 181 152 125
202 842 107 180 150 120
202 843 107 170 144 119
203 842 106 209 176 143
203 842 107 189 157 125
203 843 107 182 151 120
200 842 108 179 154 135
200 843 108 171 154 143
200 843 109 132 134 142
201 842 108 169 145 124
201 843 108 157 141 128
201 843 109 128 127 131
200 843 110 107 119 135
202 843 108 145 126 109
203 843 108 157 132 110
201 844 109 116 114 116
200 844 110 110 116 127
200 844 111 143 135 131
201 844 110 124 113 105
201 844 111 150 129 107
201 845 111 176 143 104
202 844 108 131 116 105
202 844 109 126 110 97
203 844 108 130 113 97
203 844 109 132 109 87
203 845 109 156 121 84
202 844 110 135 113 93
202 845 110 156 121 81
202 845 111 192 153 107
203 845 110 184 140 96
203 845 111 204 161 116
203 846 111 206 162 119
204 840 104 160 160 167
204 841 104 183 178 174
204 841 105 210 192 169
205 840 104 171 176 182
205 841 104 204 189 166
205 841 105 228 199 154
204 842 105 224 195 156
205 842 105 236 199 136
204 842 106 221 183 137
204 843 107 191 157 121
205 842 106 235 196 134
205 843 106 228 186 126
205 843 107 201 165 121
206 841 104 190 160 122
207 841 104 180 151 117
206 842 104 205 173 131
206 842 105 225 192 143
207 842 104 206 180 144
207 842 105 218 193 155
207 843 105 225 198 158
206 843 106 231 199 150
206 843 107 208 176 140
207 843 106 230 202 164
205 844 107 191 157 119
206 844 107 197 165 132
207 844 107 213 178 136
204 844 108 142 120 99
204 845 109 171 132 91
205 844 108 150 128 106
205 845 108 152 119 84
205 845 109 183 138 95
204 845 110 202 155 111
205 846 109 198 150 110
204 846 110 203 155 109
204 846 111 204 156 117
205 846 110 202 152 110
205 846 111 204 154 118
205 847 111 206 154 119
206 844 108 175 138 103
206 845 108 173 135 98
206 845 109 193 146 110
207 844 108 211 160 120
207 845 108 192 146 105
206 846 109 200 151 111
207 846 109 201 149 109
206 846 110 203 151 112
206 847 110 204 152 116
206 847 111 206 151 116
207 846 110 203 151 112
207 847 110 204 150 113
207 847 111 204 148 114
