ply
format ascii 1.0
comment Version 2, Copyright 2017, 8i Labs, Inc.
comment frame_to_world_scale 0.179523
comment frame_to_world_translation -45.2095 7.18301 -54.3561
comment width 1023
element vertex 284
property float x
property float y
property float z
property uchar red
property uchar green
property uchar blue
end_header
203 912 192 153 119 90
203 913 192 151 119 90
202 915 192 152 121 93
203 914 192 150 118 90
203 914 193 146 116 86
203 915 192 150 119 91
203 915 193 147 117 88
203 915 194 147 117 88
203 915 195 148 119 90
201 919 192 154 121 94
202 916 192 154 123 95
202 916 193 152 121 93
202 917 192 154 123 95
202 917 193 154 122 94
203 916 192 152 121 94
203 916 193 151 120 92
203 917 193 153 122 94
203 916 194 151 120 92
203 916 195 151 120 92
203 917 194 153 122 94
203 917 195 153 121 94
202 918 192 154 122 94
202 918 193 154 122 94
202 919 192 155 122 95
202 919 193 155 122 95
202 918 194 155 122 94
202 919 194 156 122 94
202 919 195 156 122 94
203 918 195 155 122 95
203 919 195 156 122 94
203 916 196 151 120 93
203 917 196 153 121 95
203 917 197 153 121 95
203 918 196 154 120 94
203 918 197 153 119 94
203 919 196 155 121 94
203 919 197 153 118 91
203 919 198 149 114 88
204 912 192 152 119 90
204 912 193 148 118 88
204 913 192 150 118 89
204 913 193 147 117 88
204 912 194 145 117 90
204 913 194 144 116 88
204 913 195 143 116 88
205 912 194 145 118 91
205 912 195 141 115 90
205 913 195 141 115 87
204 914 193 145 115 85
204 914 194 144 115 86
204 914 195 143 116 87
204 915 194 145 116 86
204 915 195 146 118 89
205 912 196 138 113 88
205 913 196 137 112 85
204 914 196 141 115 87
204 915 196 146 118 89
204 915 197 143 116 87
205 914 196 139 113 86
205 914 197 138 111 84
205 915 196 142 115 86
205 915 197 141 114 85
205 915 198 141 115 87
206 912 196 137 111 86
206 912 197 133 107 82
206 913 197 133 108 82
207 912 197 130 105 81
206 913 198 129 104 79
207 912 198 128 104 80
207 912 199 125 102 79
207 913 198 127 102 78
207 913 199 124 100 76
206 914 197 135 109 83
206 914 198 132 106 80
206 914 199 129 104 78
206 915 198 137 111 84
206 915 199 136 111 86
207 914 199 125 101 76
204 916 196 149 120 92
204 916 197 148 119 91
204 917 197 152 121 94
204 916 198 149 121 92
204 917 198 152 122 95
204 917 199 152 123 98
205 916 198 146 120 92
205 916 199 145 119 93
205 917 199 151 123 97
204 918 198 150 116 91
204 918 199 148 114 91
204 919 198 144 107 84
204 919 199 140 104 81
206 915 200 135 111 86
207 914 200 122 99 74
207 915 200 130 106 82
207 915 201 128 104 81
205 916 200 145 119 92
205 917 200 150 123 97
204 918 200 139 104 82
204 919 200 133 99 77
205 918 200 145 114 91
205 918 201 143 112 89
205 919 200 128 92 73
205 919 201 127 92 75
205 918 202 140 107 87
205 919 202 127 92 76
206 916 200 141 115 90
206 916 201 143 118 91
206 917 200 147 121 94
206 917 201 147 122 95
207 916 201 136 112 88
206 917 202 147 122 97
207 916 202 137 114 91
207 917 202 143 119 94
207 917 203 145 121 97
206 918 201 151 123 98
206 918 202 148 120 96
206 918 203 148 119 96
206 919 202 134 100 82
206 919 203 135 102 83
207 918 203 149 123 99
207 919 203 144 113 92
207 918 204 151 124 101
207 919 204 143 114 93
207 919 205 143 114 94
201 920 192 154 120 93
201 921 192 155 121 93
201 921 193 156 121 93
201 921 194 158 122 93
201 922 192 156 122 93
201 922 193 157 122 93
201 923 192 155 121 91
201 923 193 157 123 93
201 922 194 159 123 93
201 923 194 159 123 93
201 923 195 160 124 94
202 920 193 156 121 94
202 920 194 157 122 94
202 920 195 158 123 95
202 921 194 158 122 93
202 921 195 160 123 94
202 922 194 160 124 94
202 922 195 161 125 95
202 923 195 161 125 96
202 920 196 160 124 97
202 920 197 162 126 99
202 921 196 161 125 96
202 921 197 162 126 98
203 920 196 157 122 96
203 920 197 160 125 98
203 921 197 163 128 100
203 920 198 157 124 98
203 920 199 158 128 102
203 921 198 165 129 101
203 921 199 165 131 104
202 922 196 163 126 96
202 922 197 163 126 97
202 923 196 162 126 97
202 923 197 163 126 98
202 922 198 164 127 98
202 923 198 164 126 98
203 922 198 165 128 99
203 922 199 166 129 101
203 923 198 164 127 99
203 923 199 165 127 100
201 924 192 153 120 90
201 924 193 155 122 93
201 925 192 154 122 92
201 925 193 154 121 91
201 924 194 158 123 94
201 924 195 159 124 96
201 925 194 154 121 91
201 925 195 155 121 92
201 926 192 154 122 92
201 926 193 154 121 91
201 927 192 155 122 92
201 927 193 155 122 92
201 926 194 153 120 90
201 927 194 155 122 92
202 925 195 155 121 93
202 926 195 154 120 91
202 927 194 156 122 93
202 927 195 157 123 94
202 924 196 159 125 97
202 924 197 160 125 98
202 925 196 156 123 94
202 925 197 157 123 95
203 924 197 159 124 97
203 925 197 158 123 96
203 924 198 161 125 97
203 924 199 161 125 98
203 925 198 158 124 96
203 925 199 159 124 96
202 926 196 155 122 93
202 926 197 156 123 94
202 927 196 157 124 94
203 926 197 157 123 95
203 927 196 157 124 95
203 927 197 156 123 94
203 926 198 159 125 98
203 926 199 160 125 98
203 927 198 158 124 96
203 927 199 160 125 98
204 920 199 151 121 97
204 921 199 164 132 106
204 925 199 160 125 97
204 926 199 160 125 98
204 927 199 160 125 98
203 922 200 167 131 104
203 923 200 165 128 101
203 924 200 162 125 98
204 920 200 150 121 99
204 920 201 142 113 93
204 921 200 163 132 107
204 921 201 161 132 108
205 920 201 138 108 90
205 920 202 130 101 84
205 920 203 126 97 80
205 921 202 154 127 105
205 921 203 145 120 100
204 922 200 167 132 106
204 922 201 167 133 108
204 923 200 165 128 102
204 923 201 166 130 104
204 922 202 166 135 110
204 923 202 167 132 106
205 922 202 165 135 109
205 922 203 160 133 108
205 923 202 168 134 107
205 923 203 167 135 108
206 920 203 125 95 78
206 921 203 137 113 95
205 923 204 167 135 107
206 920 204 126 96 79
206 921 204 130 106 88
207 920 204 127 97 79
207 920 205 127 96 79
207 921 205 123 96 80
207 921 206 120 91 75
206 922 204 151 126 104
206 922 205 144 120 99
206 923 204 164 135 108
206 923 205 163 134 108
207 922 205 138 115 95
207 923 205 160 132 108
207 922 206 130 109 90
207 923 206 155 129 105
204 924 200 162 126 99
204 924 201 163 126 99
204 925 200 161 125 97
204 925 201 162 126 98
204 924 202 165 127 101
204 925 202 163 126 99
205 924 202 167 130 104
205 924 203 167 131 104
205 925 202 164 128 100
205 925 203 167 130 103
204 926 200 161 125 98
204 926 201 162 126 98
204 927 200 162 127 99
204 927 201 163 128 100
205 927 201 165 129 102
204 926 202 163 126 99
205 926 202 164 127 100
205 926 203 166 128 102
205 927 202 165 128 102
205 927 203 166 128 102
206 927 203 167 129 103
205 924 204 168 132 104
206 924 204 168 132 105
206 924 205 168 133 105
206 925 204 170 132 106
206 925 205 171 133 107
207 924 205 169 133 107
207 925 205 171 133 107
207 924 206 169 135 108
207 925 206 170 133 106
206 926 204 169 130 105
206 926 205 171 132 106
206 927 204 169 130 104
206 927 205 170 131 105
207 926 205 171 133 107
207 927 205 171 131 106
207 926 206 171 132 106
207 927 206 172 132 106
