ply
format ascii 1.0
comment Version 2, Copyright 2017, 8i Labs, Inc.
comment frame_to_world_scale 0.179523
comment frame_to_world_translation -45.2095 7.18301 -54.3561
comment width 1023
element vertex 357
property float x
property float y
property float z
property uchar red
property uchar green
property uchar blue
end_header
213 176 80 146 63 2
213 176 81 144 62 8
213 177 80 148 68 0
213 177 81 146 66 2
213 176 82 142 63 1
213 176 83 141 62 0
213 177 82 143 63 1
213 177 83 142 61 0
213 178 80 149 68 0
213 178 81 147 69 0
213 179 80 148 68 0
213 179 81 148 68 0
213 178 82 146 68 2
213 178 83 144 64 2
213 179 82 146 66 0
213 179 83 144 65 0
214 179 80 147 62 0
214 178 83 143 61 2
214 179 83 143 64 0
213 176 84 141 62 0
213 177 84 140 63 0
214 176 84 140 63 0
214 176 85 141 63 0
214 177 84 140 60 0
214 177 85 140 61 0
214 176 86 142 64 0
214 177 86 142 62 0
215 176 86 142 65 0
215 176 87 142 63 1
215 177 86 142 63 0
215 177 87 142 63 1
214 178 84 142 60 0
214 178 85 141 59 0
214 179 84 142 63 1
214 179 85 141 61 0
214 178 86 142 60 0
214 179 86 140 60 0
215 178 86 141 61 2
215 178 87 141 63 2
215 179 86 140 58 1
215 179 87 140 59 4
213 180 81 146 63 0
213 180 82 146 62 0
213 180 83 145 64 0
214 180 80 147 60 0
214 180 81 147 63 0
214 181 80 149 64 0
214 181 81 148 64 0
214 180 82 146 63 0
214 180 83 144 64 0
214 181 82 147 64 2
214 181 83 144 64 4
214 182 80 149 64 0
214 182 81 149 64 0
214 183 80 149 62 1
214 183 81 148 63 1
214 182 82 148 64 0
214 182 83 146 65 0
214 183 82 147 64 2
214 183 83 146 64 0
215 183 83 147 63 1
214 180 84 142 62 0
214 180 85 141 60 0
214 181 84 142 63 0
214 181 85 142 62 0
215 181 85 141 60 1
215 180 86 140 56 2
215 180 87 140 57 0
215 181 86 139 57 1
215 181 87 139 57 1
214 182 84 144 65 0
214 182 85 143 65 0
214 183 84 146 66 0
215 182 85 142 64 2
215 183 84 147 64 0
215 183 85 146 62 0
215 182 86 141 60 3
215 182 87 141 59 0
215 183 86 145 60 1
215 176 88 140 63 1
215 177 88 140 63 1
215 178 88 141 63 1
214 184 80 148 60 0
214 184 81 147 61 1
214 185 81 144 60 6
215 184 80 148 59 0
215 185 80 142 63 24
215 185 81 140 63 18
214 184 82 147 63 1
215 184 82 146 63 0
215 184 83 146 64 0
215 185 82 141 64 14
215 185 83 139 67 6
214 186 81 122 79 63
215 186 80 122 83 66
215 186 81 122 80 66
215 187 80 101 106 115
215 187 81 99 104 112
214 186 82 119 81 66
215 186 82 131 73 40
215 186 83 118 83 65
215 187 82 100 101 108
215 187 83 99 101 109
215 184 84 146 63 0
215 184 85 146 60 0
215 185 84 139 67 0
215 185 85 137 66 8
215 184 86 145 59 6
215 185 86 140 63 8
215 186 84 116 85 69
215 186 85 117 82 63
215 187 84 98 105 113
215 187 85 97 108 118
215 188 80 105 116 127
215 188 81 104 115 127
215 189 80 119 115 118
215 189 81 117 115 116
215 188 82 102 114 126
215 188 83 102 113 124
215 189 82 117 115 116
215 189 83 117 115 116
215 190 80 121 73 69
215 190 81 121 74 69
215 191 80 127 32 39
215 191 81 128 30 38
215 190 82 121 73 66
215 190 83 122 82 73
215 191 82 129 28 36
215 191 83 129 36 36
215 188 84 104 114 124
215 189 84 118 115 114
215 190 84 122 84 73
215 191 84 128 45 37
216 180 87 140 59 0
216 181 87 138 60 0
216 182 87 141 59 0
216 183 86 146 57 2
216 183 87 144 57 0
216 176 88 139 62 1
216 176 89 137 59 2
216 177 88 138 61 1
216 177 89 137 60 1
217 177 89 136 60 4
216 176 90 136 58 3
217 176 90 136 58 3
217 177 90 135 59 4
216 178 88 140 62 6
216 178 89 138 62 3
216 179 88 139 60 6
217 178 89 137 63 3
217 179 89 137 62 3
217 178 90 136 62 0
217 179 90 137 63 0
218 176 90 137 57 4
218 176 91 137 57 5
218 177 90 136 57 4
219 176 91 135 58 3
219 177 91 136 58 3
218 178 90 135 61 1
218 179 90 136 62 0
219 178 90 135 60 1
219 178 91 135 60 1
219 179 90 135 62 0
219 179 91 136 61 1
216 180 88 139 60 0
216 181 88 138 62 0
217 180 89 138 63 0
217 181 89 137 63 3
217 180 90 137 64 0
216 182 88 139 60 2
217 182 88 140 60 3
217 182 89 138 62 6
217 183 88 142 59 0
217 183 89 142 59 0
218 180 90 136 63 2
218 181 90 137 63 4
219 180 91 136 60 4
219 181 91 136 61 7
218 183 89 141 59 0
218 182 90 138 62 3
218 183 90 140 59 2
219 182 91 138 60 3
219 183 91 138 62 2
220 177 91 135 62 0
220 178 91 135 58 2
220 179 91 136 59 2
220 176 92 135 60 2
220 177 92 135 62 0
221 176 92 135 61 1
221 176 93 135 61 0
221 177 92 135 60 1
220 178 92 136 58 2
220 179 92 137 59 1
221 178 92 136 61 2
221 179 92 136 60 0
222 176 93 136 59 4
222 177 93 135 60 4
223 176 93 135 58 2
222 176 94 135 58 5
222 177 94 134 60 7
223 176 94 135 58 4
223 177 94 134 61 6
222 178 92 136 63 3
222 178 93 135 62 4
222 179 93 136 61 1
223 178 93 135 62 2
223 179 93 135 63 4
223 178 94 134 61 4
223 179 94 134 62 2
220 180 91 136 59 2
220 181 91 136 60 4
220 180 92 135 59 0
220 181 92 136 59 0
221 180 92 136 59 0
221 181 92 136 59 0
221 181 93 136 60 0
220 182 92 137 58 3
220 183 92 136 64 4
221 182 92 137 57 2
221 182 93 137 57 2
221 183 93 129 64 21
222 180 93 136 62 2
222 181 93 136 61 1
223 180 93 136 61 0
223 180 94 135 62 0
223 181 94 136 62 3
222 182 93 134 60 11
222 183 93 122 68 34
222 182 94 132 60 14
222 183 94 121 69 38
222 183 95 113 75 58
223 182 94 133 61 10
223 182 95 124 65 31
223 183 95 112 75 62
216 184 86 145 59 8
216 184 87 142 60 3
216 185 86 132 67 22
216 185 87 129 67 20
216 186 85 107 91 86
216 187 85 98 105 113
216 186 86 110 85 73
216 186 87 107 85 74
216 187 86 97 107 116
216 187 87 96 107 118
217 186 87 101 91 88
217 187 87 98 110 120
216 191 82 130 30 37
216 191 83 131 29 37
216 188 85 104 114 123
216 189 85 119 113 111
216 188 86 106 114 122
216 188 87 105 114 122
216 189 86 120 106 103
217 188 87 112 115 118
217 189 87 120 98 94
216 190 85 122 74 63
216 191 84 131 30 28
216 191 85 130 35 29
216 190 86 122 73 63
216 191 86 128 36 30
217 190 86 124 55 48
217 190 87 125 49 44
217 191 86 131 34 30
218 189 87 122 87 81
218 190 87 128 39 39
218 191 87 132 34 34
217 184 88 137 63 0
217 184 89 138 61 0
217 185 88 124 71 36
217 186 88 101 95 92
217 187 88 97 109 118
218 184 89 134 64 8
218 185 89 118 78 52
218 184 90 134 62 6
219 184 90 131 66 17
219 184 91 129 67 17
219 185 90 113 81 64
219 185 91 111 81 69
218 186 88 95 107 116
218 186 89 99 100 103
218 187 88 104 113 121
218 187 89 102 113 121
219 186 89 97 106 114
219 187 89 107 115 121
219 186 90 98 102 109
219 186 91 101 94 97
219 187 90 110 114 119
218 188 88 116 114 114
218 188 89 119 112 110
218 189 88 123 73 65
219 188 89 121 107 103
219 189 89 124 62 55
219 188 90 120 102 100
219 189 90 124 54 48
218 191 88 132 33 37
219 190 88 129 36 37
219 190 89 130 32 34
219 191 88 132 31 37
219 191 89 131 30 35
219 190 90 130 31 32
220 184 91 125 69 25
220 185 91 108 85 75
220 186 91 98 104 113
220 187 90 114 111 113
220 187 91 111 111 114
220 184 92 120 71 34
220 185 92 105 86 80
221 184 93 112 78 60
221 185 93 100 93 93
220 186 92 98 104 112
220 187 92 109 107 111
221 186 92 102 111 120
221 186 93 99 108 117
221 187 92 110 107 110
221 187 93 108 105 110
222 185 93 98 97 103
222 184 94 107 85 79
222 185 94 99 97 102
223 184 95 101 93 96
223 185 95 98 106 115
222 186 93 99 108 117
222 187 93 110 99 102
222 186 94 99 108 117
222 187 94 108 95 99
223 186 94 103 105 110
223 186 95 103 106 113
223 187 94 107 93 96
223 187 95 107 88 90
220 188 90 118 95 91
220 188 91 117 91 87
220 189 90 124 53 45
220 189 91 123 49 37
220 190 90 130 30 32
220 190 91 130 30 32
220 191 90 130 30 35
220 191 91 129 30 37
221 190 91 128 33 34
221 191 91 129 33 38
221 188 92 116 86 81
221 188 93 117 81 77
221 189 92 124 51 38
221 189 93 125 52 42
221 190 92 129 33 33
221 190 93 128 38 36
221 191 92 128 33 40
221 191 93 127 38 42
222 188 93 117 70 67
222 189 93 126 41 34
222 188 94 113 71 72
223 188 94 116 55 55
223 188 95 110 78 79
223 189 94 124 43 41
222 190 93 127 35 35
222 191 93 126 40 42
222 191 94 123 39 41
223 190 94 122 38 33
223 191 94 119 40 37
