ply
format ascii 1.0
comment Version 2, Copyright 2017, 8i Labs, Inc.
comment frame_to_world_scale 0.179523
comment frame_to_world_translation -45.2095 7.18301 -54.3561
comment width 1023
element vertex 159
property float x
property float y
property float z
property uchar red
property uchar green
property uchar blue
end_header
215 300 31 95 118 142
215 301 31 92 117 141
215 302 31 95 120 146
215 303 31 103 126 153
219 288 30 126 129 136
219 288 31 123 126 133
219 289 30 122 123 127
219 289 31 130 131 137
218 290 31 133 133 139
218 291 31 128 130 136
219 290 30 122 129 141
219 290 31 126 127 133
219 291 30 118 127 141
219 291 31 122 124 131
217 293 31 125 129 138
217 294 31 102 112 125
217 295 30 105 122 141
217 295 31 104 119 138
219 292 29 101 118 137
219 293 29 104 117 138
218 292 31 125 129 139
218 293 30 107 121 139
218 293 31 112 124 139
219 292 30 111 122 136
218 295 29 105 124 146
219 294 29 111 118 138
219 295 28 133 132 151
219 295 29 121 123 142
218 294 30 108 123 142
218 295 30 105 123 142
222 288 27 112 137 164
222 289 27 111 137 165
223 288 27 121 139 161
223 289 27 124 143 165
222 290 27 112 142 172
222 291 27 113 140 172
223 290 27 122 143 166
223 291 27 120 141 165
220 288 29 127 133 143
220 289 29 122 130 142
221 288 28 123 134 150
221 288 29 126 133 144
221 289 28 117 134 154
221 289 29 120 130 143
220 288 30 128 132 142
220 289 30 125 131 141
220 290 29 119 129 143
220 291 29 114 127 144
221 290 28 111 138 167
221 290 29 117 129 144
221 291 28 112 140 171
220 290 30 121 129 141
222 289 28 108 135 163
221 292 27 117 144 174
221 293 27 131 144 167
221 294 27 135 137 157
222 292 27 117 144 176
222 293 27 124 144 170
223 292 27 132 150 172
223 293 27 132 143 163
222 294 27 130 132 152
222 295 27 139 149 170
223 294 27 138 142 158
223 295 27 162 165 176
220 292 29 109 125 146
220 293 28 116 118 136
221 292 28 113 139 166
221 293 28 123 137 159
220 294 28 122 124 145
220 295 28 132 131 153
221 294 28 129 135 158
221 295 28 135 139 161
222 295 28 138 158 181
216 297 31 90 112 135
217 296 30 105 122 142
217 296 31 85 107 128
217 297 30 88 113 137
217 297 31 102 120 141
217 299 29 116 139 167
216 298 31 79 106 130
216 299 30 96 119 144
216 299 31 89 113 137
217 298 30 98 121 145
217 299 30 108 130 154
218 296 29 121 135 155
218 297 29 126 143 164
219 296 28 131 137 157
219 296 29 130 138 157
219 297 28 134 148 172
219 297 29 132 148 171
218 296 30 96 118 140
218 297 30 101 121 143
218 298 29 128 145 168
218 299 29 128 149 176
219 298 28 141 156 179
219 298 29 135 152 175
219 299 28 136 158 184
219 299 29 133 154 180
217 300 29 113 140 172
217 301 29 107 137 170
216 300 30 104 129 158
216 300 31 93 117 142
216 301 30 102 131 162
216 301 31 91 116 142
217 300 30 107 134 163
217 301 30 106 136 169
216 302 30 105 135 169
216 302 31 99 126 156
216 303 31 107 134 166
217 302 30 107 140 177
217 303 30 108 142 181
218 300 29 115 144 178
218 301 29 108 142 181
219 300 29 122 153 186
219 301 29 122 153 189
218 302 29 109 144 185
219 302 29 119 150 189
219 303 29 119 151 189
218 302 30 107 145 185
218 303 30 110 145 186
219 303 30 115 148 188
220 296 28 140 140 159
220 297 28 141 156 179
221 296 28 140 156 179
221 297 28 136 159 186
220 298 28 136 158 185
220 299 28 121 152 185
221 298 28 116 150 183
221 299 28 110 144 184
222 296 28 147 162 183
222 297 28 133 156 182
223 296 28 173 176 185
223 297 28 154 166 185
222 298 28 97 140 180
222 299 28 120 150 186
223 298 28 109 143 180
223 299 28 93 137 184
223 299 29 116 148 187
220 300 28 106 144 183
220 300 29 109 148 185
220 301 29 119 151 189
221 300 28 106 141 186
221 301 29 114 145 188
220 302 29 129 157 193
220 303 29 133 160 195
221 302 29 120 150 190
221 303 29 126 155 193
221 303 30 122 153 192
222 300 28 102 141 189
222 300 29 106 144 192
222 301 29 111 146 191
223 300 29 99 143 191
223 301 29 105 147 191
222 302 29 110 147 190
222 303 29 112 148 191
223 302 29 105 147 191
222 303 30 112 149 193
223 302 30 105 147 192
223 303 30 108 148 194
