ply
format ascii 1.0
comment Version 2, Copyright 2017, 8i Labs, Inc.
comment frame_to_world_scale 0.179523
comment frame_to_world_translation -45.2095 7.18301 -54.3561
comment width 1023
element vertex 306
property float x
property float y
property float z
property uchar red
property uchar green
property uchar blue
end_header
217 256 256 108 118 131
217 256 257 108 119 133
217 257 256 100 113 129
217 257 257 103 116 131
217 258 256 96 111 128
217 258 257 94 109 126
217 259 256 93 109 127
217 259 257 91 107 125
217 259 258 91 107 125
218 256 256 111 119 132
218 256 257 111 119 133
218 256 258 108 119 133
218 256 259 110 121 136
218 257 258 107 119 134
218 257 259 110 122 137
218 258 258 102 115 131
218 258 259 103 116 131
218 259 258 90 106 124
218 259 259 87 102 120
218 256 260 103 117 134
218 256 261 91 109 128
218 257 260 99 115 132
218 257 261 95 113 132
218 256 262 91 109 128
218 256 263 100 116 133
218 257 262 93 113 133
218 257 263 91 112 133
219 256 263 103 118 136
218 258 260 97 112 129
218 258 261 100 116 133
218 259 260 95 108 124
218 259 261 102 113 127
218 258 262 95 114 134
218 258 263 89 114 137
218 259 262 98 112 128
218 259 263 89 112 133
217 260 256 95 111 129
217 260 257 96 112 130
217 261 256 83 102 122
217 261 257 96 112 131
217 260 258 92 108 127
217 260 259 93 108 126
217 261 258 102 116 134
217 261 259 108 119 134
217 262 256 91 108 127
217 262 257 102 116 134
217 263 256 104 119 136
217 263 257 108 121 137
217 262 258 107 121 137
217 262 259 114 124 138
217 263 258 108 121 137
217 263 259 111 122 137
218 260 258 85 102 121
218 260 259 87 102 119
218 261 259 103 115 130
217 261 260 112 122 135
217 262 260 121 127 138
217 263 260 122 128 139
217 263 261 130 133 140
218 260 260 94 104 118
218 260 261 99 101 112
218 261 260 106 113 125
218 261 261 104 100 107
218 260 262 89 88 99
218 260 263 80 84 99
218 261 262 91 75 78
218 261 263 86 47 60
218 262 260 120 124 134
218 262 261 126 124 128
218 263 261 136 135 139
218 262 262 116 105 102
218 262 263 99 65 64
218 263 262 134 130 131
218 263 263 117 104 99
219 256 264 104 120 138
219 256 265 91 113 135
219 257 264 88 110 133
219 257 265 76 104 130
219 256 266 82 108 133
219 256 267 74 105 133
219 257 266 72 103 130
219 257 267 72 104 131
218 258 264 81 111 136
218 259 264 82 111 136
219 258 264 71 104 132
219 258 265 64 99 129
219 259 264 72 107 134
219 259 265 71 106 134
219 258 266 67 102 131
219 258 267 78 110 136
219 259 266 69 103 132
219 259 267 75 107 135
219 257 268 78 108 135
219 258 268 84 115 141
219 259 268 82 114 140
219 259 269 82 114 141
218 260 264 84 102 120
218 260 265 84 103 120
218 261 264 84 65 75
218 261 265 86 82 91
219 260 265 79 108 131
218 261 266 87 86 94
219 260 266 75 103 127
219 260 267 70 101 128
219 261 266 86 97 111
219 261 267 80 101 120
218 262 264 91 45 51
218 262 265 90 52 60
218 263 264 100 71 70
218 263 265 93 49 55
218 262 266 88 69 76
218 263 266 92 50 57
219 262 266 85 68 72
219 262 267 85 89 98
219 263 266 87 53 57
219 263 267 84 63 67
219 260 268 69 100 128
219 260 269 72 105 132
219 261 268 71 98 122
219 261 269 69 97 122
219 260 270 74 106 132
219 261 270 68 98 124
219 262 268 82 98 114
219 262 269 75 98 118
219 263 268 80 79 89
219 263 269 78 90 104
219 262 270 72 97 120
219 263 270 82 101 119
220 256 267 80 111 137
220 256 268 80 110 137
220 256 269 81 112 138
220 257 268 79 109 137
220 257 269 80 111 138
220 256 270 78 110 136
220 257 270 79 111 138
221 256 270 77 109 135
221 256 271 74 105 132
221 257 271 77 109 136
220 258 268 82 113 140
220 258 269 81 113 140
220 259 269 82 114 141
220 258 270 80 111 138
220 258 271 78 110 137
220 259 270 80 113 140
220 259 271 78 110 138
221 258 271 76 108 135
221 259 271 78 110 137
220 260 270 78 111 138
220 260 271 77 110 138
220 261 270 70 101 128
220 261 271 75 108 135
221 260 271 77 110 137
220 262 270 72 99 124
220 262 271 75 106 133
220 263 270 86 108 128
220 263 271 83 110 135
217 264 256 98 114 132
217 264 257 105 119 135
217 265 256 89 108 128
217 265 257 97 113 132
217 264 258 105 119 135
217 264 259 103 117 133
217 265 258 100 115 133
217 265 259 94 113 132
217 266 256 87 107 127
217 266 257 94 111 129
217 267 256 85 106 127
217 267 257 90 109 129
217 266 258 96 113 132
217 266 259 90 111 131
217 267 258 94 112 131
217 267 259 91 111 132
217 264 260 108 119 134
217 264 261 118 125 136
217 265 260 88 109 129
217 265 261 92 109 127
217 264 262 121 125 135
217 265 262 104 115 129
217 266 260 84 107 129
217 266 261 83 105 126
217 267 260 86 108 130
217 267 261 84 107 129
217 266 262 91 108 126
217 267 262 84 106 127
217 267 263 85 105 126
218 264 262 132 133 139
218 264 263 132 130 133
218 265 262 118 124 134
218 265 263 128 132 141
218 266 263 109 119 132
218 267 263 95 110 127
217 268 256 85 107 128
217 268 257 87 108 129
217 269 256 88 108 130
217 269 257 87 109 131
217 268 258 90 110 131
217 268 259 94 113 132
217 269 258 90 110 131
217 269 259 93 112 132
217 270 256 91 110 129
217 270 257 89 110 131
217 271 256 102 115 130
217 271 257 97 113 131
217 270 258 89 110 132
217 270 259 93 112 132
217 271 258 92 111 132
217 271 259 92 112 132
217 268 260 94 113 133
217 268 261 88 110 132
217 269 260 97 115 135
217 269 261 94 114 135
217 268 262 84 108 131
217 268 263 81 106 129
217 269 262 87 110 133
217 269 263 82 108 132
217 270 260 97 115 134
217 270 261 98 116 136
217 271 260 94 113 133
217 271 261 99 117 136
217 270 262 93 113 135
217 270 263 86 109 132
217 271 262 98 116 136
217 271 263 91 111 132
218 268 263 85 107 129
218 269 263 78 105 131
218 270 263 81 107 131
218 271 263 84 108 131
218 264 264 118 111 111
218 264 265 106 91 89
218 265 264 134 134 138
218 265 265 130 125 125
218 264 266 100 70 71
218 265 266 127 116 112
219 264 266 96 53 57
219 264 267 91 43 50
219 265 266 116 95 91
219 265 267 109 80 81
218 266 264 132 134 141
218 266 265 139 136 140
218 267 264 112 121 134
218 267 265 130 132 140
218 266 266 140 135 135
218 267 266 135 135 140
218 267 267 135 134 138
219 266 267 137 132 130
219 267 267 135 134 138
219 264 268 83 49 58
219 264 269 77 68 77
219 265 268 96 60 64
219 265 269 87 59 62
219 264 270 80 90 102
219 265 270 76 67 73
219 265 271 75 66 74
219 266 268 132 126 125
219 266 269 114 106 103
219 267 268 137 135 138
219 267 269 139 134 136
219 266 270 96 82 82
219 266 271 87 68 73
219 267 270 128 120 121
219 267 271 106 83 85
218 268 264 91 110 130
218 268 265 106 118 133
218 269 264 80 106 130
218 269 265 90 110 131
218 268 266 123 129 139
218 268 267 129 131 138
218 269 266 103 117 134
218 269 267 119 126 138
219 268 267 128 130 137
219 269 267 127 130 139
218 270 264 79 106 131
218 270 265 81 106 130
218 271 264 82 106 129
218 271 265 79 105 130
218 270 266 90 110 131
218 270 267 109 120 134
218 271 266 86 108 131
218 271 267 105 118 133
219 268 268 128 128 134
219 268 269 134 133 136
219 269 268 130 132 139
219 269 269 134 133 136
219 268 270 141 137 138
219 268 271 135 124 122
219 269 270 143 140 142
219 269 271 146 140 140
218 270 268 123 128 138
218 271 268 120 127 138
219 270 268 132 134 141
219 270 269 143 140 144
219 271 268 130 133 140
219 271 269 140 139 143
219 270 270 148 144 146
219 270 271 151 147 149
219 271 270 144 140 143
219 271 271 145 142 145
220 264 270 85 100 114
220 264 271 85 108 128
220 265 271 75 86 99
220 266 271 75 53 66
220 267 271 91 54 61
220 268 271 120 101 97
220 269 271 142 135 134
220 270 271 149 146 148
220 271 271 148 145 148
