ply
format ascii 1.0
comment Version 2, Copyright 2017, 8i Labs, Inc.
comment frame_to_world_scale 0.179523
comment frame_to_world_translation -45.2095 7.18301 -54.3561
comment width 1023
element vertex 22
property float x
property float y
property float z
property uchar red
property uchar green
property uchar blue
end_header
223 247 272 122 121 125
223 248 272 101 95 95
223 249 272 87 77 81
223 249 273 88 67 70
223 250 272 75 77 88
223 250 273 81 69 76
223 251 272 82 99 116
223 251 273 82 87 97
222 252 272 90 115 137
222 253 272 79 106 131
223 252 272 92 114 135
223 252 273 88 106 124
223 253 272 85 112 136
223 253 273 85 112 136
223 253 274 87 114 138
222 254 272 68 95 122
222 255 272 72 101 127
222 255 273 74 104 130
223 254 273 75 103 130
223 255 273 78 108 134
223 254 274 85 114 139
223 255 274 83 114 140
