ply
format ascii 1.0
comment Version 2, Copyright 2017, 8i Labs, Inc.
comment frame_to_world_scale 0.179523
comment frame_to_world_translation -45.2095 7.18301 -54.3561
comment width 1023
element vertex 293
property float x
property float y
property float z
property uchar red
property uchar green
property uchar blue
end_header
221 224 243 69 93 115
221 225 243 71 97 120
221 226 243 74 100 122
221 227 243 72 97 118
222 224 240 66 92 114
222 224 241 65 91 113
222 225 240 70 97 119
222 225 241 70 97 120
223 224 240 69 93 115
223 225 240 70 97 119
222 224 242 67 91 114
222 225 242 71 98 120
222 225 243 70 98 121
222 226 240 73 100 123
222 226 241 74 100 123
222 227 240 74 99 121
222 227 241 72 98 120
223 226 240 73 100 122
223 227 240 74 99 121
222 226 242 74 100 123
222 226 243 72 100 122
222 227 242 70 96 118
222 227 243 69 94 116
221 224 244 71 98 121
221 224 245 74 102 126
221 225 244 72 99 122
221 225 245 75 102 125
221 224 246 77 104 128
221 224 247 77 101 122
221 225 246 77 102 124
221 225 247 76 96 113
221 226 244 76 101 122
221 226 245 77 101 121
221 227 244 76 97 115
221 227 245 76 92 107
221 226 246 77 96 114
221 226 247 76 86 97
221 227 246 80 85 95
221 227 247 79 67 73
222 228 240 74 97 118
222 228 241 72 96 116
222 229 240 68 92 112
222 229 241 69 92 111
223 228 240 76 99 119
223 229 240 70 95 115
222 228 242 68 91 111
222 228 243 67 88 107
222 229 242 73 92 110
222 229 243 74 88 103
222 230 240 64 89 110
222 230 241 63 85 105
222 231 240 72 95 116
222 231 241 72 93 111
223 230 240 69 93 114
223 231 240 72 97 118
222 230 242 68 85 102
222 230 243 77 84 96
222 231 242 72 87 102
222 231 243 75 72 83
221 228 244 72 87 101
221 228 245 74 79 89
221 229 244 75 81 91
221 229 245 75 69 75
221 228 246 80 64 71
221 228 247 87 45 54
221 229 246 83 50 57
221 229 247 92 41 50
221 230 244 83 75 81
221 230 245 83 66 68
221 231 244 81 53 64
221 231 245 85 56 56
221 230 246 87 48 54
221 230 247 93 48 54
221 231 246 91 60 61
221 231 247 100 77 75
222 230 244 82 78 87
222 231 244 78 57 69
221 224 248 73 89 103
221 224 249 72 70 77
221 225 248 71 78 89
221 225 249 72 58 61
221 224 250 77 48 51
221 224 251 85 38 36
221 225 250 79 44 41
221 225 251 87 51 39
221 226 248 79 74 73
221 226 249 82 60 54
221 227 248 85 58 51
221 227 249 94 69 58
221 226 250 88 61 48
221 226 251 101 84 73
221 227 250 109 93 85
221 227 251 123 114 109
221 224 252 97 62 49
221 224 253 110 96 85
221 225 252 111 92 78
221 225 253 127 117 110
221 225 254 131 124 120
221 225 255 134 129 128
221 226 252 123 113 106
221 226 253 133 125 120
221 227 252 127 122 121
221 227 253 126 121 120
221 226 254 135 129 127
221 226 255 136 131 131
221 227 254 133 128 127
221 227 255 138 133 133
222 224 253 108 92 82
222 224 254 117 108 102
222 224 255 125 119 118
222 225 254 131 124 121
222 225 255 132 127 126
220 228 249 111 89 81
220 229 248 107 77 64
220 229 249 118 99 88
221 228 248 96 58 51
221 228 249 104 81 74
221 229 248 101 63 54
220 228 250 121 110 104
220 228 251 126 118 115
220 229 250 126 115 108
220 229 251 126 119 115
221 228 251 128 121 118
220 230 248 112 89 80
220 230 249 124 110 100
220 231 248 118 105 100
220 231 249 132 122 116
221 230 248 106 76 67
220 230 250 134 124 118
220 230 251 137 129 126
220 231 250 141 132 129
220 231 251 145 138 137
220 228 252 121 115 114
220 229 252 121 115 115
220 229 253 125 121 121
221 228 252 120 116 116
221 228 253 120 117 118
221 229 253 123 120 121
221 228 254 130 126 127
221 228 255 138 134 135
221 229 254 133 129 130
221 229 255 137 133 135
220 230 252 137 130 129
220 230 253 138 133 133
220 231 252 145 138 138
220 231 253 144 138 138
220 230 254 140 135 136
220 231 254 139 134 135
220 231 255 135 130 131
221 230 254 138 133 134
221 230 255 134 130 132
221 231 255 132 128 129
222 232 241 76 95 113
222 233 241 74 90 105
223 232 240 75 98 119
223 232 241 76 97 115
223 233 240 74 96 116
223 233 241 73 90 107
222 232 242 78 88 100
222 232 243 83 69 77
222 233 242 71 77 86
222 233 243 81 62 65
223 234 240 75 93 109
223 234 241 74 85 97
223 235 240 71 81 92
223 235 241 71 74 81
222 234 242 70 71 74
222 234 243 77 58 51
222 235 242 76 68 67
222 235 243 85 69 60
221 232 245 91 47 46
221 233 245 105 70 63
221 232 246 94 69 63
221 232 247 107 96 90
221 233 246 112 95 87
221 233 247 123 115 110
221 234 245 113 93 81
221 235 245 120 109 100
221 234 246 128 115 107
221 234 247 137 129 125
221 235 246 130 121 115
221 235 247 138 130 127
222 232 244 87 49 58
222 233 244 93 56 55
222 234 244 92 69 56
222 235 244 100 87 77
223 236 240 68 67 71
223 236 241 73 55 60
223 237 240 72 58 55
223 237 241 82 49 52
222 236 242 85 63 59
222 236 243 104 90 81
222 237 242 91 68 60
222 237 243 108 95 85
222 239 241 94 79 66
223 238 240 75 49 40
223 238 241 88 58 54
223 239 240 76 44 37
223 239 241 88 65 53
222 238 242 101 84 74
222 238 243 117 106 98
222 239 242 106 93 83
222 239 243 126 117 112
221 236 245 122 116 113
221 237 245 117 114 115
221 236 246 123 117 115
221 236 247 132 125 123
221 237 246 118 114 115
221 237 247 131 126 126
221 238 244 118 113 112
221 238 245 116 113 115
221 239 244 128 122 121
221 239 245 125 121 122
220 238 247 135 130 132
220 239 247 132 128 130
221 238 246 121 119 121
221 238 247 131 127 128
221 239 246 128 125 127
221 239 247 132 128 130
222 236 244 115 107 102
222 237 244 120 113 109
222 238 244 122 114 110
222 239 244 127 120 116
219 238 251 138 132 131
219 239 251 136 131 131
219 237 253 134 130 131
219 237 254 130 126 127
219 238 252 138 132 132
219 238 253 136 130 130
219 239 252 139 133 132
219 239 253 139 134 133
219 238 254 134 129 130
219 238 255 135 131 132
219 239 254 138 133 133
219 239 255 139 133 133
220 232 248 123 116 114
220 232 249 135 129 127
220 233 248 133 127 126
220 233 249 137 132 133
220 232 250 140 135 134
220 232 251 139 134 135
220 233 250 135 131 133
220 233 251 130 127 129
220 234 248 138 132 130
220 234 249 137 132 132
220 235 248 139 132 130
220 235 249 136 131 130
221 234 248 139 132 130
220 234 250 131 128 130
220 234 251 125 123 126
220 235 250 132 128 129
220 235 251 128 125 127
220 232 252 141 136 137
220 232 253 143 138 138
220 233 252 133 130 132
220 233 253 140 136 137
220 232 254 143 137 137
220 232 255 140 135 135
220 233 254 144 138 139
220 233 255 144 138 138
220 234 252 130 127 130
220 234 253 137 133 136
220 235 252 131 128 131
220 235 253 135 132 134
220 234 254 142 137 139
220 234 255 142 137 138
220 235 254 136 132 135
220 235 255 134 130 132
220 236 248 139 132 131
220 236 249 140 134 133
220 237 248 139 133 133
220 237 249 141 134 134
220 236 250 141 135 135
220 236 251 139 134 135
220 237 250 141 135 135
220 237 251 140 135 135
220 238 248 138 133 134
220 238 249 137 133 133
220 239 248 130 127 129
220 239 249 127 124 126
220 238 250 138 132 132
220 238 251 138 133 132
220 239 250 130 126 128
220 236 252 138 134 135
220 236 253 135 131 133
220 237 252 138 133 134
220 237 253 133 129 130
220 236 254 128 125 128
220 236 255 126 123 127
220 237 254 127 124 125
220 237 255 128 125 129
220 238 255 134 131 132
220 239 255 138 133 134
