ply
format ascii 1.0
comment Version 2, Copyright 2017, 8i Labs, Inc.
comment frame_to_world_scale 0.179523
comment frame_to_world_translation -45.2095 7.18301 -54.3561
comment width 1023
element vertex 296
property float x
property float y
property float z
property uchar red
property uchar green
property uchar blue
end_header
215 353 48 173 81 119
214 355 48 189 125 143
215 354 48 174 84 122
215 354 49 169 79 111
215 355 48 184 111 136
215 355 49 177 100 124
213 356 48 190 109 131
213 357 48 191 98 129
212 359 48 207 109 139
213 358 48 203 108 138
213 359 48 203 114 140
214 356 48 190 117 137
214 357 48 188 107 130
214 357 49 187 117 132
215 356 49 179 108 130
215 357 49 179 109 127
215 356 50 175 104 127
215 357 50 171 97 118
214 358 48 196 121 138
214 358 49 192 127 135
214 359 49 197 132 143
215 358 49 180 112 123
215 358 50 175 107 119
215 359 50 183 120 129
209 362 48 207 98 130
209 363 48 204 91 118
211 361 48 207 102 135
210 362 48 206 93 129
210 363 48 207 111 135
211 362 48 208 110 141
211 363 48 208 118 144
208 364 48 202 77 114
208 365 48 204 87 114
209 364 48 196 65 99
209 365 48 204 104 127
209 365 49 209 122 139
208 366 48 202 71 105
208 366 49 198 63 102
208 367 49 204 80 112
209 366 49 200 73 106
209 367 49 210 114 132
210 364 48 205 107 135
210 365 49 205 111 133
211 364 48 207 112 139
211 364 49 206 114 140
211 365 49 208 122 143
210 366 49 205 107 131
210 367 49 205 106 127
211 366 49 206 111 137
210 367 50 207 109 133
211 366 50 208 123 146
211 367 50 207 108 137
212 360 48 205 105 137
212 361 48 205 104 136
213 360 48 201 108 139
213 360 49 200 112 141
213 361 49 202 106 138
212 362 48 208 111 141
212 362 49 205 108 139
212 363 49 206 113 141
213 362 49 203 112 141
213 363 49 205 117 143
213 363 50 206 120 144
214 360 49 192 116 137
214 361 49 187 106 132
214 360 50 185 117 131
214 361 50 189 116 135
215 360 50 178 111 124
215 360 51 173 102 118
215 361 50 181 112 128
215 361 51 174 103 119
214 362 49 191 112 138
214 362 50 200 119 143
214 363 50 199 123 144
215 362 50 185 119 135
215 362 51 180 115 127
215 363 51 186 124 135
215 363 52 180 115 126
212 364 49 204 114 141
212 365 49 205 117 142
213 364 49 204 115 141
212 365 50 205 113 142
213 364 50 205 117 143
213 365 50 205 118 144
212 366 50 206 121 147
212 367 50 206 118 144
212 367 51 206 118 146
213 366 50 206 121 147
213 366 51 205 121 149
213 367 51 203 112 143
214 364 50 196 126 143
214 364 51 196 134 145
214 365 50 206 126 148
214 365 51 199 132 146
215 364 51 189 129 139
215 365 51 188 128 137
214 366 51 197 131 147
214 367 51 190 117 141
214 365 52 186 125 136
215 364 52 176 112 124
215 365 52 175 112 125
214 366 52 191 128 144
214 367 52 187 116 137
215 366 52 176 113 128
215 366 53 166 102 117
215 367 52 176 107 127
215 367 53 169 104 118
216 352 48 184 91 125
216 353 48 180 91 125
216 353 49 182 98 124
217 352 48 187 93 124
217 352 49 187 92 123
217 353 49 184 91 125
217 352 50 186 80 117
217 353 50 183 76 121
216 354 49 174 86 115
216 355 49 176 95 119
216 355 50 182 106 129
217 354 50 181 87 124
217 355 50 180 103 128
217 355 51 179 91 121
218 352 50 183 71 77
218 353 50 183 61 105
218 353 51 177 59 79
219 352 50 187 107 54
219 352 51 204 135 40
219 353 51 194 96 38
218 354 51 183 59 79
218 355 51 164 47 97
219 354 51 175 69 74
219 353 52 184 108 59
218 355 52 161 31 88
219 354 52 176 77 75
219 355 52 158 44 74
219 355 53 178 80 40
216 356 50 180 111 130
216 357 50 175 97 122
216 357 51 180 108 128
217 356 51 182 103 125
217 357 51 180 97 123
216 358 50 173 98 116
216 358 51 176 94 118
216 359 50 174 104 118
216 359 51 175 99 119
217 358 51 178 92 122
217 359 51 177 94 121
217 357 52 178 85 119
217 358 52 177 84 117
217 359 52 178 91 121
218 356 52 161 45 91
218 357 52 161 76 100
219 356 52 145 21 73
219 356 53 162 39 40
219 357 53 166 48 64
218 358 52 157 78 100
218 359 52 161 79 106
218 359 53 151 71 95
219 358 53 159 43 62
219 359 53 170 28 68
220 352 51 201 141 53
221 352 51 198 148 60
220 353 52 196 134 51
221 352 52 196 146 62
221 353 52 191 138 52
220 354 52 183 118 74
220 355 52 179 89 83
220 355 53 183 123 65
221 354 52 185 133 69
221 354 53 175 131 76
221 355 53 167 130 97
221 355 54 171 140 108
222 352 52 191 146 74
222 352 53 180 138 76
222 353 52 190 141 61
222 353 53 179 138 81
223 352 53 208 162 99
223 353 53 222 169 97
222 353 54 177 143 103
223 353 54 186 148 101
222 354 54 176 144 108
222 355 54 195 141 92
223 354 54 207 158 97
223 355 54 198 141 88
223 355 55 205 149 82
220 356 53 166 102 60
220 357 53 160 94 61
221 356 53 160 128 103
221 356 54 175 135 96
221 357 54 168 126 76
220 358 53 159 82 63
220 359 53 146 78 67
220 358 54 148 106 69
221 358 54 164 125 69
221 359 54 160 114 60
222 356 54 201 141 85
222 357 54 204 146 78
223 356 54 196 135 79
223 356 55 197 153 103
223 357 55 175 146 122
222 358 54 178 138 86
222 359 54 183 128 55
222 359 55 162 134 104
223 358 55 173 143 118
223 359 55 170 138 108
216 360 51 173 98 117
216 361 51 174 103 119
216 362 51 175 107 121
216 361 52 175 100 120
217 360 52 176 93 122
217 361 52 174 95 120
216 362 52 175 103 120
216 363 52 170 98 117
217 362 52 171 91 115
217 362 53 172 83 112
217 363 52 169 89 114
217 363 53 170 87 115
218 360 52 165 87 113
218 360 53 159 78 104
218 361 52 167 86 113
218 361 53 175 78 110
219 360 53 167 56 91
219 361 53 160 77 100
218 362 53 171 84 109
218 363 53 162 85 104
219 362 53 161 79 103
219 363 53 160 79 103
218 363 54 169 81 103
219 362 54 159 71 99
219 363 54 163 66 98
216 364 52 171 103 119
216 364 53 164 92 115
216 365 53 161 93 113
217 364 53 163 85 110
217 365 53 163 87 113
217 365 54 177 81 112
216 366 53 162 98 112
216 367 53 162 102 108
216 366 54 156 97 104
216 367 54 163 98 101
217 366 54 166 79 102
217 367 54 162 75 92
217 367 55 164 75 97
218 364 53 160 80 102
218 364 54 172 84 109
218 365 54 172 88 113
219 364 54 163 69 94
219 365 54 151 70 89
218 366 54 155 86 98
218 367 54 159 81 94
218 367 55 156 88 103
219 366 54 150 76 89
219 366 55 155 64 78
219 367 55 144 83 99
220 360 53 148 71 68
220 361 53 155 73 81
220 360 54 149 77 65
220 361 54 156 79 80
221 360 54 161 106 44
221 361 54 153 92 44
220 362 54 155 63 73
220 363 54 157 70 88
221 362 54 152 94 66
221 362 55 150 93 64
221 363 55 149 76 68
222 360 54 161 131 93
222 360 55 165 136 101
222 361 54 160 127 84
222 361 55 164 130 91
223 360 55 167 139 110
223 361 55 168 122 62
222 362 55 157 109 58
222 363 55 144 75 31
223 362 55 159 107 30
223 363 55 159 113 46
220 364 54 152 55 78
220 364 55 150 65 89
220 365 54 149 59 79
220 365 55 146 56 80
221 364 55 141 61 69
221 365 55 119 22 52
220 366 55 143 67 76
220 367 55 129 104 112
221 366 55 118 82 94
221 367 55 121 127 136
222 364 55 125 37 26
222 365 55 103 48 66
223 364 55 129 92 56
223 365 55 112 106 115
222 366 55 114 117 130
222 367 55 118 132 148
223 366 55 121 125 146
223 367 55 125 129 150
223 364 56 129 106 73
223 365 56 124 126 137
223 366 56 132 134 158
223 367 56 130 136 157
