ply
format ascii 1.0
comment Version 2, Copyright 2017, 8i Labs, Inc.
comment frame_to_world_scale 0.179523
comment frame_to_world_translation -45.2095 7.18301 -54.3561
comment width 1023
element vertex 97
property float x
property float y
property float z
property uchar red
property uchar green
property uchar blue
end_header
210 448 272 39 73 145
210 449 272 61 90 155
211 448 272 35 67 141
211 449 272 55 83 151
211 450 272 79 103 161
212 448 272 27 59 138
212 448 273 17 49 134
212 449 272 45 77 147
213 448 273 54 77 141
213 449 272 43 75 145
213 449 273 53 80 142
212 450 272 78 103 161
212 451 272 88 109 167
213 450 272 73 101 159
213 451 272 94 113 168
214 448 273 149 156 175
214 449 273 114 129 163
215 448 273 193 190 193
215 449 273 166 171 184
214 450 272 71 100 159
214 450 273 62 92 147
214 451 272 107 126 172
215 450 272 76 102 161
215 450 273 86 109 155
215 451 272 117 135 177
214 452 272 106 124 172
215 452 272 124 138 179
215 453 272 104 120 170
216 448 273 203 195 195
216 449 273 187 187 194
217 448 273 202 196 195
217 449 273 199 195 198
217 448 274 199 193 195
216 450 272 79 103 160
216 450 273 99 119 160
216 451 272 113 129 174
217 450 273 128 143 173
217 451 272 104 121 169
217 451 273 82 104 159
218 449 273 200 196 200
219 449 273 189 190 199
218 448 274 179 180 190
218 449 274 191 190 198
219 448 274 135 144 178
219 449 274 172 176 193
218 450 273 167 174 190
218 451 272 94 112 164
218 451 273 95 116 161
219 450 273 184 188 200
219 451 273 118 135 173
216 452 272 133 143 180
216 453 272 113 125 172
217 452 272 134 143 179
217 453 272 119 129 173
218 452 272 126 135 176
218 453 272 131 138 178
219 452 272 111 122 170
219 453 272 143 146 183
218 454 272 98 113 165
219 454 272 119 126 172
220 448 274 103 116 168
220 449 274 137 146 177
221 448 274 113 126 171
221 449 274 105 120 165
220 450 273 172 179 194
220 451 273 142 156 187
221 450 273 151 161 185
221 451 273 149 161 191
220 450 274 150 159 180
221 450 274 123 135 169
222 448 274 158 165 189
222 448 275 174 178 194
222 449 274 117 129 170
223 448 275 195 194 203
223 449 274 145 153 181
222 450 273 138 148 181
222 451 273 146 155 189
223 451 273 145 151 184
222 450 274 94 107 160
223 450 274 91 102 156
220 452 272 108 118 169
220 452 273 99 117 168
220 453 272 143 145 182
221 452 273 106 120 171
221 453 272 135 137 178
220 454 272 121 128 171
221 454 272 144 145 181
222 452 273 114 124 174
222 453 272 140 139 180
222 453 273 115 119 170
223 452 273 132 139 180
223 453 272 138 137 177
223 453 273 117 121 169
222 454 272 160 157 188
222 455 272 133 133 174
223 454 272 167 163 191
223 455 272 155 153 185
