ply
format ascii 1.0
comment Version 2, Copyright 2017, 8i Labs, Inc.
comment frame_to_world_scale 0.179523
comment frame_to_world_translation -45.2095 7.18301 -54.3561
comment width 1023
element vertex 354
property float x
property float y
property float z
property uchar red
property uchar green
property uchar blue
end_header
215 358 96 132 132 137
215 359 96 136 135 139
215 360 96 140 138 143
215 360 97 142 140 144
215 361 96 137 136 141
215 361 97 139 137 142
214 363 96 137 137 143
214 363 97 133 134 141
215 362 96 134 134 140
215 362 97 129 130 135
215 363 96 133 133 140
215 363 97 129 130 137
215 362 98 132 131 136
215 363 98 127 129 135
215 363 99 128 129 135
213 365 96 132 133 139
213 366 96 132 132 139
213 366 97 136 136 142
213 367 96 137 137 143
213 367 97 140 140 146
213 367 98 143 142 148
214 364 96 139 139 144
214 364 97 137 138 144
214 365 96 135 135 141
214 365 97 139 138 144
214 364 98 138 138 144
214 365 98 140 140 145
215 364 98 132 133 140
215 364 99 133 134 140
215 365 98 139 138 144
215 365 99 138 138 144
214 366 97 137 137 142
214 366 98 140 139 144
214 366 99 138 138 144
214 367 98 141 141 146
214 367 99 138 138 143
215 366 99 136 137 143
215 367 99 133 133 139
215 365 100 141 140 146
214 367 100 130 131 137
215 366 100 138 138 144
215 366 101 138 138 144
215 367 100 128 129 136
215 367 101 127 128 136
215 367 102 126 128 136
217 352 96 140 138 142
217 353 96 144 140 143
217 353 97 143 140 143
216 355 96 135 134 139
217 354 96 140 138 141
217 354 97 140 138 142
217 355 96 134 133 138
217 355 97 131 131 135
217 355 98 133 132 137
218 352 96 140 138 141
218 352 97 139 137 141
218 353 97 142 140 143
218 352 98 137 136 140
218 353 98 141 138 143
218 353 99 138 137 142
219 352 98 134 133 138
219 352 99 127 128 133
219 353 99 130 130 136
218 354 97 143 140 143
218 354 98 143 140 145
218 354 99 141 139 144
218 355 98 141 139 143
218 355 99 140 138 142
219 354 99 135 134 139
219 355 99 142 140 144
219 352 100 121 123 130
219 353 100 118 121 128
219 354 100 128 129 135
219 354 101 130 130 135
219 355 100 140 138 142
219 355 101 140 138 142
216 356 96 139 138 143
216 356 97 134 134 139
216 357 96 142 140 145
216 357 97 139 139 144
217 356 97 129 129 134
217 357 97 135 135 140
217 356 98 126 126 132
217 356 99 126 126 131
217 357 98 135 135 140
217 357 99 135 134 139
216 358 96 138 136 141
216 358 97 141 140 145
216 359 96 135 133 138
216 359 97 138 137 142
216 358 98 141 140 145
216 359 98 140 139 144
216 359 99 136 135 140
217 358 98 140 139 144
217 358 99 141 140 144
217 359 98 140 138 143
217 359 99 135 134 139
218 356 99 132 131 135
218 357 99 135 134 137
218 358 99 142 139 143
217 359 100 132 131 137
218 356 100 140 137 140
218 357 100 137 135 138
219 356 100 139 137 140
219 356 101 137 136 139
219 357 100 138 135 138
219 357 101 137 135 139
219 356 102 134 133 137
219 357 102 129 129 134
218 358 100 141 139 143
218 358 101 142 140 144
218 359 100 138 137 141
218 359 101 140 138 143
219 358 101 140 138 143
219 359 101 143 141 145
219 358 102 133 133 138
219 358 103 125 126 133
219 359 102 140 139 144
219 359 103 136 136 142
220 352 100 132 132 137
220 352 101 140 136 138
220 353 100 116 119 126
220 353 101 127 127 133
220 352 102 140 136 136
220 353 102 140 137 138
221 352 102 130 122 120
221 352 103 114 100 96
221 353 102 139 134 134
221 353 103 134 129 128
220 354 101 126 126 131
220 355 101 139 136 140
220 354 102 135 133 135
220 354 103 140 138 140
220 355 102 141 138 142
220 355 103 142 140 143
221 354 103 140 137 139
221 355 103 139 138 141
220 356 102 139 137 140
220 356 103 141 139 143
220 357 102 127 127 132
220 357 103 127 127 133
220 358 103 119 120 127
220 359 103 131 131 137
221 352 104 96 68 68
221 353 104 109 97 96
221 354 104 125 120 120
221 355 104 137 136 138
221 355 105 123 119 119
222 352 104 91 36 51
222 352 105 97 26 49
222 353 104 94 64 67
222 353 105 96 40 54
222 353 106 97 30 51
223 352 106 88 48 58
223 352 107 79 66 73
223 353 106 92 22 42
223 353 107 87 39 49
222 354 105 100 77 79
222 355 105 104 95 94
222 354 106 95 40 56
222 355 106 95 77 78
222 355 107 94 72 72
223 354 107 94 30 47
223 355 107 96 51 61
223 353 108 86 54 56
223 354 108 92 37 50
223 355 108 96 32 51
220 356 104 143 141 146
220 357 104 134 133 139
221 356 104 143 141 145
221 356 105 135 133 136
221 357 104 141 140 145
221 357 105 142 141 145
221 357 106 140 139 142
220 358 104 124 125 131
220 359 104 131 131 136
220 359 105 134 134 139
221 358 104 134 134 139
221 358 105 137 137 142
221 359 105 134 133 138
221 358 106 140 139 143
221 359 106 137 136 141
221 359 107 132 133 139
222 356 106 125 122 123
222 356 107 110 103 101
222 357 106 139 137 141
222 357 107 138 135 137
222 358 106 141 140 144
222 358 107 139 139 143
222 359 107 129 130 137
222 357 108 131 126 126
223 356 108 93 58 60
223 356 109 89 30 36
223 357 108 116 107 104
223 357 109 94 70 63
222 358 108 142 140 143
222 359 108 122 124 132
222 359 109 114 117 123
223 358 108 143 139 141
223 358 109 131 127 126
223 359 109 136 136 140
223 358 110 109 101 98
223 359 110 138 136 139
223 359 111 135 134 136
216 360 97 142 140 144
216 360 98 142 140 145
216 360 99 136 136 141
216 361 98 141 140 144
216 361 99 139 138 143
217 360 99 131 131 137
217 361 99 135 135 141
216 362 98 136 135 140
216 362 99 138 137 142
216 363 99 134 134 139
217 360 100 126 127 133
217 361 100 130 131 137
217 361 101 128 129 134
216 362 100 141 140 146
216 363 100 140 139 145
217 362 100 138 138 144
217 362 101 136 135 141
217 363 100 140 140 146
217 363 101 139 139 144
217 363 102 137 136 142
218 360 101 128 128 133
218 361 101 127 127 133
218 360 102 136 135 140
218 361 102 133 131 136
219 360 102 141 139 144
219 360 103 141 140 145
219 361 102 136 134 138
219 361 103 141 139 143
218 362 101 132 131 137
218 362 102 137 135 140
218 362 103 140 138 142
218 363 102 138 137 143
218 363 103 140 139 143
219 362 103 140 138 142
216 364 99 134 134 140
216 364 100 140 140 145
216 364 101 141 140 145
216 365 100 142 141 146
216 365 101 142 141 146
217 364 101 139 139 144
216 365 102 139 139 144
217 364 102 135 135 141
217 364 103 130 131 138
217 365 102 135 135 141
217 365 103 127 128 135
216 366 101 142 141 147
216 366 102 141 140 145
216 367 102 135 136 142
216 367 103 138 138 145
217 366 103 132 133 140
217 367 103 138 138 145
218 364 103 129 130 137
218 365 103 123 125 132
219 361 104 138 136 141
218 363 104 141 140 145
219 362 104 138 137 141
219 362 105 131 132 138
219 363 104 140 139 143
219 363 105 131 132 138
219 363 106 124 126 133
217 366 104 125 127 134
217 367 104 135 135 141
218 364 104 136 136 141
218 364 105 139 138 143
218 365 104 125 126 133
218 365 105 132 132 138
219 364 104 142 140 145
219 364 105 139 138 144
219 365 105 138 137 143
219 364 106 134 135 141
219 365 106 140 139 144
219 365 107 140 139 144
218 366 104 126 127 134
218 366 105 130 130 137
218 367 104 131 132 138
218 367 105 136 136 142
218 366 106 137 136 141
218 367 106 139 138 144
219 366 106 139 138 142
219 366 107 139 138 143
219 367 106 141 140 145
219 367 107 139 138 143
219 367 108 132 132 137
220 360 104 141 139 143
220 360 105 142 139 143
220 361 104 138 136 140
220 361 105 134 133 138
220 361 106 135 134 139
221 360 106 141 139 143
221 360 107 136 135 141
221 361 106 142 139 143
221 361 107 141 139 143
220 362 105 125 127 133
220 362 106 119 121 127
220 362 107 119 119 124
220 363 106 117 119 127
220 363 107 114 115 120
221 362 107 137 134 138
221 363 107 124 123 127
222 360 107 125 127 135
221 362 108 142 140 144
221 363 108 135 133 137
221 363 109 138 135 139
222 360 108 114 118 126
222 360 109 107 111 119
222 361 108 131 131 137
222 361 109 123 124 130
223 360 109 110 113 120
222 361 110 123 123 128
223 360 110 125 126 131
223 360 111 138 137 141
223 361 110 122 123 127
223 361 111 134 133 137
222 362 108 140 139 144
222 362 109 137 136 141
222 363 109 140 138 142
222 362 110 137 136 140
222 363 110 138 137 141
223 362 110 136 135 139
223 362 111 139 137 141
223 363 110 140 138 142
223 363 111 140 138 142
220 364 106 127 128 135
220 364 107 129 128 134
220 365 107 140 139 144
220 366 107 138 137 143
220 364 108 136 135 139
220 365 108 140 139 144
221 364 108 130 128 132
221 364 109 135 133 136
221 365 109 141 140 144
221 364 110 137 135 140
221 365 110 138 137 142
220 366 108 135 135 141
220 366 109 135 135 141
220 367 108 128 129 135
220 367 109 125 127 134
221 366 109 139 138 144
220 367 110 125 126 133
221 366 110 140 139 144
221 366 111 139 138 143
221 367 110 134 133 139
221 367 111 140 139 144
222 364 109 139 136 140
222 364 110 131 131 136
222 364 111 119 121 128
222 365 111 125 126 133
223 364 111 132 132 137
222 366 111 132 132 138
222 367 111 140 139 144
