ply
format ascii 1.0
comment Version 2, Copyright 2017, 8i Labs, Inc.
comment frame_to_world_scale 0.179523
comment frame_to_world_translation -45.2095 7.18301 -54.3561
comment width 1023
element vertex 196
property float x
property float y
property float z
property uchar red
property uchar green
property uchar blue
end_header
214 47 231 132 120 112
215 47 231 132 119 111
211 47 235 136 125 118
211 45 239 139 127 121
211 46 236 137 125 119
211 46 237 137 126 120
211 47 236 137 125 119
211 47 237 137 126 120
211 46 238 138 126 120
211 46 239 139 127 121
211 47 238 137 126 120
211 47 239 137 126 121
212 43 239 138 126 119
213 42 239 137 125 118
213 43 238 136 124 117
213 43 239 137 125 118
214 43 237 135 123 116
215 43 237 135 122 115
214 42 239 136 124 117
214 43 238 136 124 117
214 43 239 136 124 117
215 42 238 135 123 115
215 42 239 135 123 116
215 43 238 135 123 115
213 45 235 135 123 116
213 47 232 133 121 114
213 47 233 134 122 115
212 46 235 136 124 118
212 47 234 135 124 117
212 47 235 136 124 118
213 46 234 135 123 115
213 46 235 135 124 117
213 47 234 135 123 116
214 45 234 134 122 114
214 45 235 135 123 115
215 44 235 134 122 114
215 45 234 134 121 113
215 45 235 134 122 114
214 46 233 134 121 114
214 47 232 133 121 113
214 47 233 134 121 114
215 46 232 133 120 112
215 46 233 134 121 113
215 47 232 132 120 112
214 46 234 134 122 114
215 46 234 134 121 114
212 45 237 137 125 119
213 44 236 136 124 117
213 44 237 136 124 117
213 45 236 136 124 117
213 45 237 137 125 118
212 44 238 137 125 119
212 44 239 138 127 120
212 45 238 138 126 119
212 45 239 139 127 120
213 44 238 137 125 118
213 44 239 138 126 119
212 46 236 137 125 119
212 46 237 137 125 119
214 44 236 135 123 116
214 44 237 135 123 116
215 44 236 135 122 115
220 39 239 131 119 112
221 39 239 131 119 111
222 38 239 130 119 111
222 39 238 130 118 111
222 39 239 130 118 111
223 38 239 130 118 111
223 39 238 130 118 110
223 39 239 130 118 110
216 47 231 131 119 110
217 46 231 132 119 110
217 47 230 131 118 108
217 47 231 131 118 109
219 47 229 131 117 106
218 46 231 132 119 109
218 47 230 131 118 108
218 47 231 132 118 108
219 46 231 132 118 108
219 47 230 131 118 107
220 45 231 132 118 108
221 45 231 131 117 107
220 47 229 131 117 106
221 47 229 130 116 105
220 46 230 131 117 107
220 46 231 131 118 107
220 47 230 131 117 107
221 46 230 131 117 106
221 46 231 131 117 107
221 47 230 131 117 106
222 45 231 131 117 106
223 44 231 130 116 105
223 45 231 130 116 105
222 46 229 130 116 104
222 47 228 129 115 104
222 47 229 130 115 104
223 46 229 130 115 104
223 47 228 129 114 103
223 47 229 129 115 103
222 46 230 131 116 105
222 46 231 131 117 106
223 46 230 130 116 104
217 43 235 133 120 112
218 43 235 132 120 111
219 43 234 132 119 110
219 43 235 132 119 111
216 41 239 134 122 115
217 41 239 133 121 114
216 43 236 134 121 114
216 43 237 134 122 114
217 42 237 134 121 113
217 43 236 133 121 113
217 43 237 134 121 113
216 42 238 135 122 115
216 42 239 135 122 115
217 42 238 134 121 114
219 41 237 132 119 111
218 40 239 132 120 113
218 41 238 132 120 112
218 41 239 132 120 113
219 40 239 131 119 112
219 41 238 132 119 112
218 42 236 133 120 112
218 42 237 133 120 112
218 43 236 133 120 112
219 42 236 132 120 111
219 42 237 132 120 111
218 42 238 133 120 113
216 45 233 133 121 112
217 45 233 133 120 111
216 44 235 134 121 113
216 45 234 134 121 113
216 45 235 134 121 113
217 44 234 133 120 112
217 44 235 133 120 112
217 45 234 133 120 112
216 46 232 132 120 111
216 46 233 133 120 112
217 46 232 132 119 111
218 44 233 132 119 110
218 45 232 132 119 110
218 45 233 132 119 110
219 44 233 132 119 109
219 45 232 132 119 109
219 45 233 132 119 110
218 44 234 132 119 111
218 44 235 133 120 111
219 44 234 132 119 110
218 46 232 132 119 110
216 44 236 134 122 114
221 43 233 131 118 108
220 42 235 132 119 110
220 43 234 131 118 109
220 43 235 132 119 110
221 42 235 131 118 109
221 43 234 131 118 109
221 43 235 131 118 109
222 41 235 130 117 108
223 41 235 130 117 108
222 43 233 131 117 107
223 43 233 130 117 106
222 42 234 130 117 107
222 42 235 130 117 108
222 43 234 131 117 108
223 42 234 130 117 107
223 42 235 130 117 107
223 43 234 130 117 107
220 41 236 131 119 110
220 41 237 131 119 111
221 40 237 130 118 110
221 41 236 131 118 109
221 41 237 130 118 110
220 40 238 131 119 111
220 40 239 131 119 112
220 41 238 131 119 111
221 40 238 130 118 111
221 40 239 131 119 111
220 42 236 131 119 110
221 42 236 131 118 109
222 40 237 130 118 110
222 41 236 130 118 109
222 41 237 130 118 109
223 40 236 130 117 109
223 40 237 130 118 109
223 41 236 130 117 108
222 40 238 130 118 110
220 44 233 132 118 109
220 45 232 132 118 108
221 44 232 131 118 108
221 44 233 131 118 108
221 45 232 131 118 107
220 44 234 132 118 109
222 44 232 131 117 106
222 44 233 131 117 107
222 45 232 131 117 107
223 44 232 130 116 106
