ply
format ascii 1.0
comment Version 2, Copyright 2017, 8i Labs, Inc.
comment frame_to_world_scale 0.179523
comment frame_to_world_translation -45.2095 7.18301 -54.3561
comment width 1023
element vertex 230
property float x
property float y
property float z
property uchar red
property uchar green
property uchar blue
end_header
209 387 192 128 59 3
211 385 192 123 60 11
211 385 193 125 60 5
211 384 194 127 60 11
211 384 195 130 63 8
211 385 194 128 59 4
211 385 195 131 63 7
210 386 192 127 58 4
210 386 193 128 61 7
210 387 192 128 59 5
210 387 193 129 61 7
211 386 192 123 57 8
211 386 193 127 60 8
210 386 194 130 63 8
210 386 195 131 62 2
210 387 194 130 63 10
210 387 195 130 61 6
211 386 194 129 62 10
211 384 196 131 63 2
211 384 197 132 61 1
211 385 196 133 62 6
211 385 197 133 60 1
211 384 198 132 63 2
211 384 199 133 63 0
211 385 198 132 60 1
211 385 199 132 61 1
210 386 196 131 60 4
210 386 197 130 57 2
210 387 196 129 60 2
210 387 197 127 57 4
211 386 197 131 58 2
210 387 198 125 55 5
211 386 198 129 58 3
211 386 199 128 59 3
211 387 198 125 56 5
211 387 199 122 55 5
208 389 192 126 59 20
208 389 193 126 58 14
209 388 192 129 59 8
209 388 193 128 58 4
209 389 193 128 58 5
209 388 194 128 59 4
209 388 195 127 59 3
209 389 194 126 56 10
209 389 195 124 56 9
208 390 192 108 57 16
208 390 193 113 57 13
208 391 192 92 65 34
208 391 193 91 59 20
208 390 194 113 56 13
208 391 194 93 55 24
209 390 194 117 56 13
209 390 195 117 57 14
209 391 195 99 56 17
210 388 195 128 60 2
209 389 196 122 58 8
209 390 196 115 56 9
209 390 197 114 55 7
209 391 196 106 57 17
209 391 197 107 52 12
209 391 198 105 49 12
209 391 199 102 49 12
210 388 196 127 60 2
210 388 197 124 59 3
210 389 196 123 59 5
210 389 197 119 59 5
210 388 198 122 59 5
210 389 198 116 58 6
210 389 199 114 57 7
211 388 199 120 57 7
211 389 199 115 58 8
210 390 197 113 55 7
210 390 198 109 52 9
210 390 199 106 51 9
210 391 198 106 49 10
210 391 199 101 49 11
212 384 192 113 60 6
212 384 193 118 58 6
212 385 192 119 61 7
212 384 194 124 58 8
212 384 198 133 64 0
212 384 199 133 64 0
211 384 200 132 61 0
211 385 200 131 63 1
211 385 201 130 62 1
211 386 200 127 62 4
211 386 201 125 61 5
211 387 200 122 58 7
211 387 201 120 59 8
209 391 200 92 45 14
209 391 201 91 45 14
211 388 200 117 55 7
211 388 201 115 55 8
211 389 200 112 55 9
211 389 201 109 51 9
211 389 202 105 49 10
211 389 203 104 52 10
210 390 200 103 49 10
210 391 200 98 47 11
210 391 201 94 46 12
211 390 200 106 51 10
211 390 201 101 47 11
210 391 202 88 45 13
210 391 203 88 48 13
211 390 202 100 48 12
211 390 203 97 51 12
211 391 202 94 47 13
211 391 203 92 49 12
209 391 206 76 45 15
209 391 207 76 48 14
211 389 206 86 44 15
211 389 207 84 46 14
210 391 204 88 52 13
210 391 205 84 49 13
211 390 204 96 52 12
211 390 205 91 51 14
211 391 204 91 50 12
211 391 205 88 48 13
210 390 207 79 47 14
210 391 206 80 47 13
210 391 207 80 47 14
211 390 206 86 48 14
211 390 207 81 45 15
212 384 200 131 60 2
212 384 201 131 62 2
212 385 201 128 61 2
212 384 202 130 63 3
212 385 202 127 61 3
212 385 203 124 59 3
213 384 203 129 60 4
213 385 203 125 58 4
212 386 201 124 60 4
212 387 201 118 58 5
212 386 202 122 57 5
212 386 203 118 55 6
212 387 202 117 55 7
212 387 203 113 53 7
213 386 203 118 55 5
213 384 204 127 56 5
213 385 204 123 54 6
213 385 205 121 52 7
212 387 204 110 53 8
213 386 204 114 51 8
213 386 205 110 50 9
213 387 204 109 53 11
213 387 205 103 51 12
213 386 206 104 51 11
213 386 207 102 54 21
213 387 206 97 49 13
213 387 207 95 48 19
214 384 205 121 56 8
214 385 205 117 54 9
214 384 206 114 74 20
214 384 207 119 95 62
214 385 206 111 59 11
214 385 207 110 74 37
214 386 206 108 54 9
214 386 207 105 61 25
212 388 201 115 55 7
212 388 202 111 52 8
212 388 203 107 52 9
212 389 202 106 51 9
212 389 203 103 52 9
212 388 204 105 53 11
212 388 205 102 54 17
212 389 204 100 52 11
212 389 205 96 50 18
213 388 205 100 52 13
212 388 206 93 46 13
212 388 207 88 41 14
212 389 206 90 44 15
212 389 207 86 41 18
213 388 206 95 47 12
213 388 207 91 47 15
208 392 192 95 83 69
208 392 193 91 80 65
208 393 193 88 81 74
208 392 194 85 68 48
208 392 195 82 59 31
208 393 194 89 79 68
208 393 195 87 73 55
209 392 195 90 54 17
208 394 193 73 68 66
208 394 194 80 73 68
208 394 195 81 73 65
208 395 194 71 65 63
208 395 195 69 62 56
208 393 196 83 69 54
208 393 197 79 61 41
209 392 196 87 56 19
209 392 197 91 53 17
209 393 196 79 63 44
209 393 197 80 56 27
208 393 198 78 56 31
208 393 199 77 54 33
209 392 198 92 51 16
209 392 199 89 49 15
209 393 198 82 52 21
209 393 199 80 54 31
208 394 196 78 68 57
208 394 197 76 65 52
208 395 196 68 62 56
208 395 197 68 59 49
208 394 198 74 60 45
208 394 199 71 55 43
208 395 198 71 61 53
208 393 200 81 53 30
208 393 201 76 51 28
209 392 200 85 48 16
209 392 201 81 48 15
208 393 202 73 49 24
208 393 203 71 47 19
209 392 202 80 45 15
209 392 203 81 45 16
209 393 202 77 46 15
208 394 200 73 55 42
208 394 201 73 56 42
210 392 202 86 45 13
210 392 203 82 42 15
208 392 205 75 45 18
208 393 204 76 47 15
208 393 205 75 46 19
209 392 204 80 46 17
209 392 205 80 48 15
208 392 206 74 44 17
208 392 207 73 42 17
208 393 206 72 43 21
209 392 206 77 47 14
209 392 207 76 43 15
210 392 204 84 50 15
