ply
format ascii 1.0
comment Version 2, Copyright 2017, 8i Labs, Inc.
comment frame_to_world_scale 0.179523
comment frame_to_world_translation -45.2095 7.18301 -54.3561
comment width 1023
element vertex 41
property float x
property float y
property float z
property uchar red
property uchar green
property uchar blue
end_header
221 640 80 137 143 158
221 641 80 125 134 153
222 640 80 144 149 165
222 640 81 146 152 169
222 641 80 134 143 164
222 641 81 137 146 167
223 640 81 144 150 170
223 641 81 125 138 165
222 642 80 116 130 158
222 643 80 95 113 150
223 642 81 102 121 158
223 643 81 82 106 151
222 644 80 72 99 143
222 645 80 42 81 129
223 644 81 39 80 133
223 645 81 39 76 127
222 646 80 36 75 122
222 647 80 59 92 132
223 646 81 63 91 133
223 647 81 84 110 145
222 648 80 90 115 146
222 649 80 91 116 148
223 648 81 102 126 155
223 649 81 100 125 156
222 650 80 78 106 145
222 651 80 74 103 144
223 650 81 90 117 155
223 651 81 72 103 145
221 653 80 72 97 140
221 654 80 77 100 142
221 655 80 84 106 145
222 652 80 63 94 138
222 653 80 74 100 143
223 652 81 63 94 140
223 653 81 83 109 150
222 654 80 86 109 149
222 655 80 86 109 150
223 654 81 88 112 153
223 655 81 80 107 152
223 654 82 88 112 156
223 655 82 75 105 156
