ply
format ascii 1.0
comment Version 2, Copyright 2017, 8i Labs, Inc.
comment frame_to_world_scale 0.179523
comment frame_to_world_translation -45.2095 7.18301 -54.3561
comment width 1023
element vertex 340
property float x
property float y
property float z
property uchar red
property uchar green
property uchar blue
end_header
211 755 203 105 75 71
208 753 205 99 82 87
209 752 205 148 128 117
209 753 205 130 105 93
208 752 206 124 115 120
208 753 206 88 81 92
209 752 206 123 103 101
208 754 205 151 134 122
208 755 204 169 135 107
209 754 204 171 148 137
209 754 205 158 133 119
209 755 204 192 166 154
210 752 205 159 138 128
210 753 205 154 131 121
211 752 205 159 130 116
211 753 205 148 118 102
210 752 206 160 140 131
210 754 204 177 157 148
210 754 205 162 141 132
210 755 204 157 132 124
211 754 204 163 140 130
211 755 204 137 113 107
208 757 203 171 127 108
209 756 203 162 132 121
209 757 203 148 121 114
209 759 201 107 102 111
208 758 202 180 147 146
208 758 203 176 133 129
208 759 202 154 126 121
209 758 202 146 129 135
209 758 203 158 130 134
209 759 202 126 114 117
210 756 203 127 101 88
210 757 202 131 122 123
210 757 203 130 117 113
211 756 203 91 66 62
211 757 202 134 127 127
211 757 203 119 107 106
210 759 201 90 92 104
211 759 201 68 69 76
210 758 202 142 137 139
210 759 202 120 118 124
211 758 202 122 119 121
208 756 204 176 135 106
209 756 204 185 152 138
212 755 203 136 119 115
213 754 203 174 154 149
213 755 203 153 138 133
214 754 203 156 139 131
214 755 203 121 103 90
215 754 203 160 152 148
215 755 202 146 126 110
215 755 203 153 137 125
212 752 205 173 133 123
212 753 204 146 111 93
212 753 205 149 110 91
213 752 205 149 102 98
213 753 204 140 103 89
213 753 205 145 104 92
212 754 204 155 133 122
213 754 204 157 133 126
214 752 204 142 103 88
214 752 205 148 107 95
214 753 204 143 116 97
215 752 204 148 119 106
215 753 204 126 104 92
214 754 204 151 132 121
212 756 203 137 125 124
212 757 202 146 143 145
213 756 202 154 147 145
213 756 203 148 138 133
213 757 202 153 152 157
212 758 201 66 57 69
212 759 201 42 41 50
213 758 201 67 48 66
213 759 201 40 33 49
212 758 202 116 115 121
213 758 202 121 111 126
214 756 202 116 102 93
214 757 202 137 128 128
215 756 202 156 136 120
215 757 202 193 176 165
214 758 201 138 122 119
214 759 201 119 103 96
215 758 201 211 193 180
215 759 200 203 182 167
215 759 201 202 182 168
214 758 202 123 110 115
209 763 199 195 174 158
210 763 199 206 184 169
211 763 199 211 194 185
208 764 199 210 193 182
208 765 198 216 197 185
208 765 199 219 200 188
209 764 199 196 172 155
209 765 198 214 191 174
209 765 199 205 183 166
208 766 197 185 166 154
208 767 197 154 137 126
209 766 197 203 183 167
209 767 197 198 180 167
208 766 198 206 187 175
209 766 198 214 192 176
210 764 199 198 170 149
210 765 198 194 166 145
210 765 199 189 159 136
211 764 199 211 187 171
211 765 198 180 153 132
211 765 199 199 172 152
210 766 197 170 145 122
210 767 197 189 167 151
211 766 197 158 132 109
211 767 197 164 142 124
210 766 198 176 150 126
211 766 198 163 136 112
212 763 199 187 177 174
213 762 199 79 86 101
213 763 199 127 124 126
214 762 199 101 102 108
214 763 199 115 114 117
215 762 199 148 143 143
215 763 199 147 141 141
212 764 199 202 182 171
212 765 198 177 153 134
213 764 198 164 148 137
213 764 199 163 149 141
213 765 198 173 151 133
212 766 197 176 153 134
212 767 197 162 139 121
213 766 197 175 151 131
213 767 197 174 149 130
212 766 198 175 150 130
215 765 197 193 164 134
214 764 198 141 130 124
214 765 198 168 146 126
215 764 198 145 134 127
215 765 198 168 144 122
214 766 197 188 163 140
214 767 197 193 169 148
215 766 197 194 163 134
215 767 197 181 153 124
208 760 201 145 132 139
208 761 200 148 133 145
208 761 201 153 142 159
209 760 201 110 113 127
209 761 201 127 128 142
208 762 200 160 146 148
208 763 200 186 171 164
209 762 200 177 165 162
209 763 200 196 176 162
210 760 201 55 68 90
210 761 200 117 124 132
210 761 201 87 98 115
211 760 201 44 57 76
211 761 200 87 96 106
211 761 201 66 81 95
210 762 200 178 170 168
210 763 200 209 190 179
211 762 200 172 166 165
211 763 200 214 199 190
212 760 201 41 51 69
212 761 200 61 74 88
213 760 200 37 44 60
213 760 201 37 39 54
213 761 200 40 51 71
212 762 200 132 133 139
213 762 200 60 72 91
214 760 200 97 87 83
214 760 201 62 52 53
214 761 200 82 79 86
215 760 200 171 153 139
215 761 200 155 142 135
214 762 200 93 92 101
215 762 200 152 143 139
216 753 203 108 93 90
217 752 203 167 157 155
217 753 203 126 112 109
216 754 203 145 138 135
216 755 202 188 172 161
216 755 203 177 163 154
217 754 202 173 167 168
217 754 203 121 111 114
217 755 202 202 188 180
218 752 203 109 98 106
218 753 203 73 59 66
219 752 203 49 37 57
219 753 203 38 34 43
218 754 202 80 80 91
218 754 203 66 62 73
218 755 202 167 158 155
219 754 202 52 50 58
219 755 202 99 94 97
216 752 204 160 146 141
216 753 204 124 112 107
217 752 204 174 166 164
216 757 201 200 178 161
217 757 201 193 170 151
216 756 202 183 162 144
216 757 202 191 170 153
217 756 202 201 180 164
216 758 201 202 180 163
216 759 200 196 173 155
216 759 201 205 183 165
217 758 201 177 150 126
217 759 200 174 148 123
217 759 201 175 147 119
218 756 201 200 181 168
218 757 201 198 177 161
219 756 201 152 142 138
219 757 201 181 164 154
218 756 202 196 180 169
218 758 201 176 151 128
218 759 200 160 132 106
219 758 201 175 155 141
219 759 200 166 144 125
220 752 203 49 38 37
220 753 202 49 42 43
220 753 203 53 40 40
221 752 203 104 89 80
221 753 202 100 86 78
220 755 201 73 64 67
221 755 201 103 85 77
220 754 202 50 42 46
220 755 202 66 57 61
221 754 202 97 82 79
221 755 202 92 76 73
222 752 202 186 167 152
222 752 203 170 153 143
222 753 202 160 144 132
223 752 202 172 149 129
223 752 203 181 159 140
223 753 202 165 143 124
222 755 201 165 145 132
223 755 201 184 160 144
222 754 202 154 137 128
222 755 202 160 142 132
223 754 202 167 144 128
220 756 201 110 104 104
220 757 201 146 135 130
221 756 201 95 79 72
221 757 201 99 85 80
220 758 201 163 146 134
220 759 200 171 149 131
221 758 200 145 124 107
221 758 201 135 117 104
221 759 200 181 156 135
222 756 201 160 138 121
222 757 201 146 122 105
223 756 201 178 151 132
223 757 200 170 142 120
223 757 201 174 146 124
222 758 200 158 131 107
222 759 200 197 166 136
223 758 200 174 145 120
223 759 200 197 163 131
216 762 199 160 148 142
216 763 199 158 150 147
217 762 199 155 135 120
217 763 199 154 139 128
218 762 199 150 124 98
218 763 199 150 129 110
219 762 199 159 132 107
219 763 199 162 138 116
216 765 197 207 170 130
216 764 198 175 160 149
216 765 198 191 162 133
217 764 198 178 156 138
217 765 198 194 160 124
216 766 197 200 162 121
216 767 197 184 149 112
217 766 197 200 161 117
217 767 197 204 166 125
217 766 198 193 153 110
218 764 198 173 148 124
218 765 198 180 146 109
219 764 198 169 141 114
219 765 198 172 139 104
218 766 197 191 154 125
218 767 197 221 185 152
219 766 197 188 159 137
219 767 196 207 175 145
219 767 197 211 180 154
218 766 198 180 143 105
219 766 198 176 145 118
220 761 199 184 161 142
221 761 199 184 156 132
220 762 199 187 164 145
220 763 199 171 145 123
221 762 199 195 169 148
221 763 198 172 145 120
221 763 199 183 157 135
222 760 199 204 170 136
222 761 199 188 155 123
223 760 199 210 173 137
223 761 199 210 172 134
223 763 197 179 150 122
222 762 198 186 156 125
222 762 199 188 158 129
222 763 198 168 140 111
223 762 198 202 166 126
223 762 199 205 170 133
223 763 198 181 151 119
222 767 195 168 138 106
223 766 195 130 92 64
223 767 195 170 137 103
221 765 197 136 110 82
220 764 198 160 133 103
220 765 198 157 128 95
221 764 198 152 126 98
221 765 198 142 115 86
220 766 197 162 136 114
220 767 196 181 149 117
220 767 197 171 143 119
221 766 196 137 111 85
221 766 197 141 115 91
221 767 196 162 135 109
222 764 197 136 109 78
222 765 197 125 99 69
223 764 197 151 125 103
223 765 196 132 104 87
223 765 197 125 99 78
222 764 198 149 122 93
222 766 196 134 109 83
222 766 197 128 102 75
222 767 196 152 127 101
223 766 196 125 91 63
216 760 200 181 160 143
216 761 200 168 151 139
217 760 200 167 143 119
217 761 200 162 141 122
218 760 200 162 135 109
218 761 200 157 130 104
219 760 200 163 139 116
219 761 200 156 132 107
220 760 200 175 152 130
220 761 200 186 163 144
221 760 200 188 160 134
221 761 200 186 159 138
222 760 200 202 170 139
223 760 200 209 173 139
