ply
format ascii 1.0
comment Version 2, Copyright 2017, 8i Labs, Inc.
comment frame_to_world_scale 0.179523
comment frame_to_world_translation -45.2095 7.18301 -54.3561
comment width 1023
element vertex 313
property float x
property float y
property float z
property uchar red
property uchar green
property uchar blue
end_header
208 656 48 137 140 148
208 656 49 139 139 145
208 657 48 133 135 142
208 657 49 140 139 144
208 656 50 139 139 146
209 656 50 140 141 147
209 656 51 142 142 149
209 657 50 141 141 146
209 657 51 142 143 150
208 658 48 131 132 140
208 658 49 136 136 142
208 659 48 133 133 140
208 659 49 138 137 142
209 658 49 139 138 142
209 659 49 140 139 143
209 658 50 142 141 146
209 659 50 142 141 147
210 657 51 144 144 151
210 658 51 144 145 152
210 659 50 141 142 149
210 659 51 145 147 155
210 656 52 147 146 152
210 656 53 150 150 158
210 657 52 148 148 154
210 657 53 152 152 159
211 657 53 153 154 162
211 656 54 150 154 164
211 656 55 148 153 165
211 657 54 154 157 167
211 657 55 149 153 164
210 658 52 147 148 155
210 658 53 151 151 158
210 659 52 149 151 159
210 659 53 151 152 160
211 658 53 152 153 161
211 659 53 153 154 163
211 658 54 155 158 167
211 658 55 152 155 165
211 659 54 157 159 168
211 659 55 151 154 164
208 660 48 133 134 141
208 661 48 135 136 142
209 660 49 136 137 143
209 661 48 137 139 145
209 661 49 137 139 146
209 660 50 136 137 145
209 661 50 137 139 147
208 662 48 139 139 145
208 663 48 141 141 147
208 663 49 143 144 152
209 662 48 138 139 146
209 662 49 142 143 150
209 663 49 147 148 155
209 662 50 146 148 155
209 663 50 150 151 158
210 660 50 137 140 148
210 660 51 141 145 155
210 661 50 137 141 149
210 661 51 139 144 154
210 662 50 144 147 155
210 662 51 143 147 156
210 663 50 151 152 160
210 663 51 152 154 163
210 660 52 147 150 159
210 661 52 141 145 156
211 660 52 143 146 157
211 660 53 150 152 162
211 661 52 138 142 153
211 661 53 144 147 158
211 660 54 155 158 168
211 660 55 147 152 164
211 661 54 155 159 170
211 661 55 133 144 160
210 663 52 152 155 164
211 662 52 141 144 155
211 662 53 147 151 162
211 663 52 152 155 164
211 663 53 154 158 169
211 662 54 150 156 168
211 662 55 122 137 157
211 663 54 148 155 169
211 663 55 117 135 158
211 656 56 141 146 159
211 657 56 134 141 154
211 658 56 135 143 156
211 659 56 126 137 153
211 660 56 126 137 154
211 661 56 104 122 142
211 662 56 94 116 139
211 663 56 105 127 150
211 663 57 108 129 153
212 656 56 133 140 153
212 656 57 111 124 141
212 657 56 122 133 149
212 657 57 107 123 144
212 656 58 97 121 145
212 656 59 95 125 153
212 657 58 95 121 148
212 657 59 102 128 155
212 658 56 124 136 153
212 658 57 105 125 148
212 659 56 121 134 152
212 659 57 99 123 147
212 658 58 99 125 153
212 658 59 102 127 154
212 659 58 89 120 150
212 659 59 76 112 142
212 656 60 93 124 154
212 657 60 100 127 154
213 656 60 81 118 150
213 656 61 90 123 156
213 657 61 101 129 156
213 656 62 88 124 157
213 656 63 95 125 154
213 657 62 100 129 157
213 657 63 107 131 157
212 658 60 88 116 146
212 659 60 50 94 133
213 658 61 82 114 146
213 659 61 50 97 135
213 658 62 94 123 150
213 658 63 102 127 153
213 659 62 84 117 146
213 659 63 110 134 159
212 660 57 97 121 146
212 661 57 112 131 153
212 660 58 81 116 146
212 660 59 93 124 153
212 661 58 112 135 161
212 661 59 98 128 157
212 662 57 110 130 152
212 663 57 111 131 153
212 662 58 106 130 156
212 662 59 92 124 155
212 663 58 97 124 151
212 663 59 101 128 157
212 660 60 96 125 154
212 660 61 88 119 149
212 661 60 99 129 159
212 661 61 96 126 155
213 660 61 84 117 147
213 661 61 104 130 157
213 660 62 104 129 155
213 660 63 113 136 161
213 661 62 110 133 158
213 661 63 115 138 163
212 662 60 90 125 157
212 662 61 96 127 158
212 663 60 88 123 154
212 663 61 97 128 158
213 662 61 103 131 160
213 662 62 110 134 161
213 662 63 112 137 165
213 663 62 110 135 162
213 663 63 104 133 163
208 664 48 144 145 152
208 664 49 141 143 151
208 665 48 144 146 155
209 664 49 149 150 157
209 665 49 151 151 158
209 664 50 155 154 160
209 665 50 156 156 163
208 666 48 139 142 152
208 667 48 140 143 153
209 666 48 142 144 153
209 666 49 147 148 156
209 667 48 144 146 155
209 667 49 147 150 159
209 666 50 148 151 160
209 667 50 140 147 159
209 667 51 129 139 155
210 664 50 157 156 164
210 664 51 158 159 166
210 665 50 157 157 166
210 665 51 153 155 166
210 666 50 148 151 162
210 666 51 138 145 159
210 667 51 123 136 154
210 664 52 162 162 170
210 665 52 154 157 168
210 665 53 146 152 165
211 664 52 155 157 166
211 664 53 158 161 172
211 665 53 152 156 168
211 664 54 146 154 169
211 664 55 114 135 158
211 665 54 143 152 166
211 665 55 125 143 164
210 666 52 135 144 159
210 666 53 129 139 155
210 667 52 123 137 156
210 667 53 115 132 152
211 666 53 126 137 154
211 666 54 122 135 152
211 666 55 125 140 160
211 667 54 120 136 156
211 667 55 122 138 159
208 668 48 149 152 161
208 669 48 148 151 161
208 669 49 146 149 159
209 668 49 148 151 162
209 669 49 146 150 160
209 668 50 141 148 160
209 668 51 130 141 158
209 669 50 142 148 160
209 669 51 128 139 156
208 670 48 149 152 161
208 670 49 151 154 164
208 671 48 155 157 165
208 671 49 153 156 166
209 670 49 148 152 163
208 671 50 140 146 159
209 670 50 141 147 159
209 670 51 125 136 153
209 671 50 131 139 154
209 671 51 123 137 156
210 670 50 136 143 156
209 669 52 125 139 157
209 670 52 122 137 156
209 671 52 120 137 157
209 671 53 119 137 158
210 668 52 126 140 159
210 668 53 125 139 158
210 669 52 122 137 157
210 669 53 123 138 157
210 668 54 125 140 160
210 669 54 119 134 154
210 669 55 111 129 151
211 668 54 128 143 163
211 668 55 116 133 154
211 669 55 106 124 146
210 670 53 121 137 157
210 671 53 115 134 156
210 670 54 111 130 151
210 670 55 111 131 153
210 671 54 111 131 154
210 671 55 106 128 152
211 670 55 106 126 148
211 671 55 97 122 148
211 664 56 104 128 154
211 664 57 105 129 154
211 665 56 112 136 161
211 665 57 116 139 164
211 664 58 115 138 163
211 665 58 121 142 167
211 666 56 117 140 165
211 666 57 113 136 161
211 667 56 102 129 156
211 667 57 100 128 156
211 666 58 112 131 154
211 667 58 103 124 148
211 668 56 106 131 156
211 668 57 99 127 154
211 669 56 110 131 155
211 669 57 105 128 153
211 668 58 110 130 152
211 669 58 116 133 153
211 670 56 100 123 146
211 670 57 105 126 150
211 671 56 86 114 139
211 671 57 108 127 148
211 670 58 112 128 147
211 670 59 124 136 154
211 671 58 126 138 155
212 664 58 110 134 160
212 664 59 96 124 151
212 665 58 112 135 161
212 665 59 82 112 140
212 666 59 107 125 146
212 667 59 122 135 153
212 664 60 90 118 145
212 664 61 114 133 157
212 665 60 103 122 144
212 665 61 144 151 165
212 664 62 129 143 164
212 665 62 155 160 173
213 664 62 124 141 164
213 664 63 112 135 162
213 665 62 156 161 175
213 665 63 145 155 173
212 666 60 133 142 158
212 666 61 155 156 165
212 667 60 132 141 156
212 667 61 150 152 161
212 666 62 161 162 171
212 667 62 157 159 170
213 666 62 161 163 172
213 666 63 158 162 173
213 667 62 155 158 170
213 667 63 157 161 172
212 668 59 133 143 160
212 669 59 132 141 156
212 670 59 138 144 157
212 671 59 135 142 155
212 668 60 140 147 161
212 668 61 146 150 161
212 669 60 138 144 157
212 669 61 137 143 155
212 668 62 137 143 156
212 669 62 137 141 153
213 668 62 135 143 157
213 668 63 139 146 158
213 669 63 142 145 156
212 670 60 144 148 159
212 670 61 145 149 160
212 671 60 138 142 153
212 671 61 143 147 157
212 670 62 146 148 157
212 671 62 149 150 159
213 670 62 146 147 157
213 670 63 144 146 155
213 671 62 148 148 156
213 671 63 146 146 154
