ply
format ascii 1.0
comment Version 2, Copyright 2017, 8i Labs, Inc.
comment frame_to_world_scale 0.179523
comment frame_to_world_translation -45.2095 7.18301 -54.3561
comment width 1023
element vertex 271
property float x
property float y
property float z
property uchar red
property uchar green
property uchar blue
end_header
215 720 64 139 140 148
215 721 64 145 149 159
215 721 65 147 148 157
215 722 64 142 148 160
215 722 65 145 149 160
215 723 64 140 149 163
215 723 65 142 149 161
215 724 64 140 150 164
215 725 64 141 151 167
215 726 64 147 157 173
215 727 64 153 164 180
215 727 65 152 161 178
214 729 64 144 157 175
215 728 64 149 161 178
215 728 65 143 155 172
215 729 64 138 152 171
215 729 65 133 147 166
214 730 64 137 152 171
214 731 64 140 155 174
215 730 64 136 151 170
215 730 65 135 150 169
215 731 64 140 154 173
215 731 65 138 152 171
214 732 64 147 160 179
214 733 64 149 162 180
215 732 64 146 159 177
215 732 65 140 154 172
215 733 64 146 159 176
215 733 65 143 156 174
214 734 64 150 163 182
214 735 64 155 168 187
215 734 64 152 163 180
215 734 65 151 163 181
215 735 64 157 168 186
215 735 65 157 168 186
216 720 65 121 119 123
216 721 65 140 141 147
216 721 66 139 142 151
217 720 66 133 134 143
217 720 67 137 140 151
217 721 66 138 143 153
217 721 67 135 142 155
216 722 65 144 148 158
216 723 65 141 149 161
216 722 66 142 147 158
216 723 66 140 147 159
217 722 66 137 144 156
217 722 67 133 142 156
217 723 66 137 146 159
217 723 67 135 144 158
218 720 67 135 142 154
218 721 67 132 141 156
218 722 67 129 141 156
218 723 67 130 141 156
218 720 68 134 145 160
218 721 68 130 142 160
219 720 68 138 148 163
219 720 69 134 147 164
219 721 68 130 144 163
219 721 69 132 146 165
219 720 70 133 146 164
219 721 70 133 147 166
218 722 68 127 141 158
218 723 68 126 139 156
219 722 68 129 144 162
219 722 69 131 145 163
219 723 69 130 144 163
219 722 70 133 147 165
219 723 70 135 148 166
216 724 65 139 149 163
216 725 65 143 152 168
216 724 66 139 148 162
216 725 66 144 153 168
217 724 66 139 147 161
217 724 67 135 145 159
217 725 66 143 153 167
217 725 67 143 152 167
216 726 65 149 157 172
216 727 65 152 161 177
216 726 66 152 160 175
216 727 66 150 159 174
217 726 66 151 160 175
217 726 67 149 158 173
217 727 66 150 159 175
217 727 67 145 155 169
218 724 67 134 143 158
218 725 67 136 146 161
218 726 67 144 153 168
218 727 67 142 152 166
218 724 68 131 142 158
218 725 68 133 144 160
219 724 69 132 146 163
219 725 69 136 147 163
218 726 68 141 151 165
218 727 68 138 148 161
219 726 69 133 138 148
219 727 69 126 123 133
219 727 70 119 105 113
220 720 70 130 144 162
220 720 71 128 142 159
220 721 70 134 148 166
220 721 71 136 149 166
221 720 71 125 138 155
221 721 71 137 149 165
220 722 70 134 148 167
220 722 71 136 149 166
220 723 70 137 150 169
220 723 71 137 150 167
221 722 71 139 150 167
220 724 70 137 152 169
220 724 71 138 151 168
220 725 70 141 149 163
220 725 71 140 146 160
221 724 71 138 151 167
221 725 71 138 144 157
220 726 70 126 110 120
220 726 71 128 94 105
220 727 70 119 62 76
221 726 71 125 90 98
221 727 71 126 33 52
221 720 72 127 140 156
221 721 72 136 147 163
221 722 72 135 147 164
221 723 72 129 142 160
222 720 72 128 139 155
222 720 73 125 137 153
222 721 72 133 144 160
222 721 73 131 143 159
223 720 73 129 141 156
223 721 73 131 144 160
223 720 74 125 138 154
223 720 75 124 136 152
223 721 74 131 144 161
222 722 73 131 144 161
222 723 73 125 138 155
223 722 73 128 142 160
223 723 73 124 138 156
223 723 74 127 142 160
221 724 72 129 142 159
221 725 72 130 135 148
221 726 72 122 111 119
222 724 72 124 136 153
222 724 73 124 135 152
222 725 72 125 131 145
222 725 73 124 133 147
223 725 73 131 136 148
223 724 74 128 141 159
223 725 74 135 147 163
222 726 72 118 93 102
222 726 73 121 108 116
222 727 72 121 53 64
222 727 73 121 76 83
223 726 73 131 128 136
223 727 73 125 97 102
223 726 74 138 146 157
216 728 65 143 154 171
216 729 65 137 150 167
216 728 66 143 154 170
216 729 66 139 150 167
217 728 67 137 148 163
217 729 66 139 149 165
217 729 67 137 148 163
216 730 65 137 150 167
216 731 65 135 149 167
216 730 66 138 150 166
216 731 66 135 148 165
217 730 66 138 149 164
217 730 67 136 147 161
217 731 66 135 147 163
217 731 67 135 145 160
218 731 67 133 143 157
218 728 68 129 140 153
218 729 68 129 140 154
219 728 69 119 113 121
219 729 68 124 135 147
219 729 69 120 116 121
218 730 68 133 144 157
218 731 68 135 144 157
219 730 68 128 138 150
219 730 69 120 119 123
219 731 68 130 140 152
219 731 69 126 135 145
216 732 65 135 149 168
216 732 66 135 149 167
216 733 66 146 159 178
217 732 66 136 148 165
217 732 67 142 156 174
217 733 66 148 159 175
217 733 67 152 165 184
216 735 65 154 165 183
216 734 66 150 162 179
216 735 66 154 166 183
217 734 66 149 160 177
217 734 67 148 159 175
217 735 66 149 161 177
217 735 67 146 158 174
218 732 67 140 150 164
218 733 67 152 162 177
218 734 67 147 159 176
218 735 67 143 157 174
218 732 68 144 152 165
218 733 68 153 162 176
219 732 68 144 153 164
219 732 69 138 148 158
219 733 68 152 162 174
219 733 69 145 155 168
218 734 68 143 155 171
218 735 68 140 153 170
219 734 68 143 155 170
219 734 69 136 149 164
219 735 68 137 150 167
219 735 69 130 145 162
220 728 69 116 89 94
220 729 69 117 77 73
220 728 70 121 49 59
220 729 70 118 61 61
221 728 71 125 20 35
221 729 70 119 30 31
221 729 71 117 20 21
220 730 69 117 92 85
220 731 69 117 114 114
220 730 70 118 83 76
220 731 70 118 87 81
221 730 70 123 34 29
221 730 71 132 26 31
221 731 70 126 33 31
221 731 71 138 24 26
222 729 71 123 20 26
222 730 71 138 32 41
222 731 71 148 30 37
220 732 69 126 131 136
220 733 69 133 142 154
220 732 70 119 99 103
220 733 70 116 108 118
221 732 70 125 48 62
221 732 71 137 18 30
221 733 70 119 57 82
221 733 71 133 23 52
220 734 69 119 131 146
220 735 69 110 125 142
220 734 70 109 117 131
221 734 70 105 64 90
221 734 71 123 26 57
221 735 70 91 67 96
221 735 71 106 26 68
222 732 71 150 26 31
222 733 71 147 20 32
222 734 71 138 20 39
222 735 71 129 24 57
222 728 72 128 29 47
222 729 72 129 16 35
223 728 73 126 56 64
223 729 73 133 26 41
223 729 74 129 37 45
222 730 72 148 35 46
222 731 72 157 33 46
223 730 73 148 27 37
223 731 72 160 31 40
223 731 73 162 30 38
222 732 72 164 35 41
222 733 72 159 23 30
223 732 72 165 35 39
223 732 73 166 36 40
223 733 72 160 27 29
223 733 73 159 32 28
222 734 72 155 24 35
222 735 72 156 38 49
223 734 72 160 21 30
223 734 73 153 28 20
223 735 72 161 42 37
223 735 73 163 45 34
