ply
format ascii 1.0
comment Version 2, Copyright 2017, 8i Labs, Inc.
comment frame_to_world_scale 0.179523
comment frame_to_world_translation -45.2095 7.18301 -54.3561
comment width 1023
element vertex 31
property float x
property float y
property float z
property uchar red
property uchar green
property uchar blue
end_header
208 800 176 152 145 142
208 801 176 148 136 130
209 800 176 133 123 119
209 801 176 110 87 79
210 800 176 123 110 104
210 801 176 98 71 62
211 800 176 112 102 97
211 801 176 119 102 93
212 800 176 138 134 136
212 801 176 154 142 137
213 800 176 150 151 158
213 801 176 161 153 151
214 800 176 156 151 152
214 801 176 180 167 159
215 800 176 188 167 150
215 800 177 163 147 135
215 801 176 203 180 160
216 800 176 199 169 138
216 800 177 177 148 118
216 801 176 203 173 143
217 800 176 190 154 113
217 800 177 173 137 98
217 801 176 187 148 109
218 800 176 184 139 106
218 800 177 171 132 98
218 801 176 185 138 108
219 800 176 191 145 122
220 800 176 199 148 124
221 800 176 202 146 122
222 800 176 202 144 121
223 800 176 203 145 122
