ply
format ascii 1.0
comment Version 2, Copyright 2017, 8i Labs, Inc.
comment frame_to_world_scale 0.179523
comment frame_to_world_translation -45.2095 7.18301 -54.3561
comment width 1023
element vertex 60
property float x
property float y
property float z
property uchar red
property uchar green
property uchar blue
end_header
222 863 160 139 105 76
222 863 161 130 97 69
223 862 160 141 108 77
223 862 161 137 104 74
223 863 160 141 108 78
223 863 161 132 100 69
222 863 162 123 90 59
222 863 163 117 84 53
223 863 162 124 91 59
223 863 163 118 84 52
222 863 164 114 81 49
222 863 165 113 80 49
223 863 164 114 82 49
223 863 165 113 80 49
222 863 166 113 81 49
222 863 167 114 82 51
223 862 167 114 82 51
223 863 166 113 81 49
223 863 167 113 82 50
218 863 175 128 98 68
219 863 174 125 95 65
219 863 175 126 97 66
221 863 169 116 84 53
221 863 170 117 86 56
221 863 171 119 89 58
222 863 168 114 82 52
222 863 169 115 84 53
223 862 168 114 83 50
223 862 169 115 84 53
223 863 168 114 83 52
223 863 169 115 84 51
222 862 170 117 86 55
222 862 171 117 87 56
222 863 170 117 86 55
222 863 171 118 88 57
223 862 170 116 85 54
223 862 171 116 86 54
220 863 172 122 91 61
220 863 173 123 94 64
221 862 173 122 93 63
221 863 172 121 91 61
221 863 173 122 93 63
220 862 175 125 96 66
220 863 174 124 95 64
220 863 175 126 96 66
221 862 174 123 94 64
221 862 175 124 95 65
221 863 174 123 94 64
223 861 172 117 86 55
223 861 173 119 89 58
222 861 174 121 92 62
222 861 175 122 93 62
223 861 174 119 90 59
223 861 175 120 91 59
222 862 172 119 89 59
222 862 173 120 91 61
222 863 172 120 90 60
223 862 172 118 88 57
222 862 174 122 93 63
222 862 175 123 94 64
