ply
format ascii 1.0
comment Version 2, Copyright 2017, 8i Labs, Inc.
comment frame_to_world_scale 0.179523
comment frame_to_world_translation -45.2095 7.18301 -54.3561
comment width 1023
element vertex 117
property float x
property float y
property float z
property uchar red
property uchar green
property uchar blue
end_header
208 973 160 99 79 63
208 973 161 105 87 71
208 973 162 112 95 81
208 973 163 108 92 78
209 974 160 100 82 65
209 974 161 106 88 71
209 975 160 103 85 69
209 975 161 106 87 71
209 974 162 107 90 74
209 974 163 102 83 69
209 975 162 104 85 69
210 975 160 105 86 69
210 975 161 102 82 65
210 975 162 100 79 64
210 975 163 97 78 65
208 972 165 91 73 61
208 973 164 99 81 67
208 973 165 94 76 64
209 973 164 98 79 66
209 973 165 96 78 67
208 972 166 95 80 68
208 972 167 95 80 68
208 973 166 95 79 67
209 973 166 96 81 70
209 973 167 90 74 61
209 974 164 99 80 67
209 974 165 97 80 69
209 974 166 94 78 67
209 974 167 88 71 58
210 973 167 88 72 59
210 974 165 95 78 66
210 975 164 95 77 64
210 975 165 89 71 58
211 975 164 92 74 60
211 975 165 91 74 59
210 974 166 89 71 59
210 974 167 89 72 60
210 975 166 87 69 56
211 975 166 93 76 64
211 975 167 93 76 65
212 975 167 93 75 61
208 971 168 93 78 67
208 971 169 90 74 64
208 970 171 86 71 61
208 971 170 87 71 61
208 971 171 88 73 62
208 969 173 85 70 61
208 968 174 87 71 61
208 968 175 88 72 62
208 969 174 88 73 62
208 969 175 90 76 64
208 970 172 85 71 61
208 970 173 88 74 64
208 971 172 90 76 65
208 971 173 93 78 67
209 971 173 94 79 68
208 970 174 91 76 64
208 970 175 92 77 65
208 971 174 93 78 66
209 971 174 94 78 65
209 971 175 95 78 66
208 972 168 91 75 64
208 972 169 88 72 61
209 972 168 85 68 56
209 972 169 90 73 61
209 973 168 88 71 59
209 973 169 92 76 63
208 972 170 89 73 61
208 972 171 92 77 65
209 972 170 92 76 64
209 972 171 93 77 65
209 973 170 92 76 62
210 973 169 93 76 63
210 973 170 91 72 58
210 973 171 90 72 59
210 974 168 92 75 63
210 974 169 93 76 63
211 974 169 93 75 61
211 975 168 93 76 63
211 975 169 92 73 58
210 974 170 91 72 58
210 974 171 93 74 61
211 974 170 92 73 59
211 974 171 94 76 63
211 975 170 97 79 65
211 975 171 97 79 67
209 972 172 93 77 66
209 972 173 94 78 67
209 972 174 95 78 67
209 972 175 96 79 67
210 972 173 94 77 65
210 973 172 93 75 64
210 973 173 91 73 61
210 972 174 94 76 64
210 972 175 93 75 64
210 973 174 91 72 60
210 973 175 90 70 58
211 973 175 88 67 53
210 974 172 92 73 62
211 974 172 91 71 60
211 974 173 89 69 56
211 975 172 92 72 61
211 974 174 88 68 52
211 974 175 87 67 51
212 975 168 90 72 56
212 975 169 95 77 62
212 975 170 99 81 67
212 975 171 91 71 57
212 975 172 87 67 53
212 975 173 86 66 52
213 975 173 95 77 62
212 974 174 89 71 54
212 974 175 91 72 54
212 975 174 92 75 58
212 975 175 93 75 56
213 975 174 101 84 66
213 975 175 112 94 77
