ply
format ascii 1.0
comment Version 2, Copyright 2017, 8i Labs, Inc.
comment frame_to_world_scale 0.179523
comment frame_to_world_translation -45.2095 7.18301 -54.3561
comment width 1023
element vertex 331
property float x
property float y
property float z
property uchar red
property uchar green
property uchar blue
end_header
213 976 144 82 62 49
213 976 145 78 56 43
212 976 147 87 62 49
213 976 146 82 58 44
213 976 147 87 61 45
214 976 144 80 61 48
214 976 145 78 57 42
214 977 144 75 53 37
214 977 145 73 49 35
214 977 146 78 55 41
214 977 147 84 59 44
215 978 144 69 45 29
215 978 145 68 42 29
214 978 146 75 51 40
214 978 147 80 56 44
215 978 146 74 49 38
215 978 147 80 56 41
212 976 148 90 64 48
212 976 149 94 67 48
213 976 148 89 62 46
213 976 149 91 66 48
213 977 148 85 56 40
213 977 149 90 60 38
212 976 150 105 76 53
212 976 151 114 86 60
212 977 151 109 79 54
213 977 150 99 68 47
213 977 151 102 70 50
213 978 151 97 63 43
214 977 148 84 57 38
214 977 149 88 60 39
214 978 148 84 59 38
214 978 149 90 63 42
215 978 148 83 60 38
215 978 149 88 63 41
214 978 150 92 61 42
214 978 151 90 56 39
215 978 150 87 57 39
215 978 151 86 56 40
215 979 150 84 54 37
215 979 151 83 54 40
211 976 152 121 94 68
211 976 153 118 91 66
211 976 154 113 88 65
211 976 155 108 85 64
210 976 157 101 80 60
211 976 156 105 83 64
211 976 157 103 82 62
210 976 158 100 80 60
210 976 159 104 85 66
211 976 158 104 82 64
211 976 159 104 83 64
212 976 152 113 84 59
212 976 153 112 85 62
212 977 152 108 79 54
212 977 153 109 83 60
213 977 152 103 73 52
213 977 153 105 77 59
212 976 154 111 87 65
212 977 154 109 85 66
212 977 155 105 82 64
213 977 154 103 77 61
213 977 155 99 74 56
213 978 152 96 63 46
213 978 153 100 73 58
213 978 154 97 71 55
213 978 155 96 70 53
214 978 152 92 65 48
214 978 153 91 65 48
215 979 152 85 62 45
215 979 153 85 62 47
214 978 154 92 66 51
214 978 155 94 68 53
214 979 154 90 65 52
214 979 155 92 68 54
215 979 154 86 61 48
215 979 155 83 58 41
212 977 156 101 78 59
212 977 157 100 75 56
212 977 158 100 76 57
212 977 159 99 76 58
213 978 156 96 70 52
213 978 157 96 71 55
213 978 158 95 72 56
213 978 159 95 73 58
214 978 156 93 68 53
214 978 157 93 71 56
214 979 156 91 67 52
214 979 157 88 66 50
215 979 156 80 56 37
215 979 157 77 54 38
214 978 158 91 69 56
214 978 159 92 73 60
214 979 158 86 64 50
214 979 159 85 63 48
215 979 158 79 55 41
215 979 159 84 62 48
216 979 144 65 39 29
216 979 145 66 39 28
217 979 145 66 40 27
216 979 146 72 46 33
216 979 147 79 55 40
217 979 146 70 44 29
217 979 147 77 51 35
216 979 148 83 59 40
216 979 149 84 57 37
217 979 148 82 56 37
217 979 149 79 52 33
216 979 150 80 51 37
216 979 151 79 52 39
217 979 150 76 46 32
217 979 151 76 51 38
216 980 144 61 35 30
217 980 144 61 35 28
217 980 145 64 38 27
217 981 144 57 33 26
217 980 146 68 41 26
217 980 147 75 47 31
218 980 145 61 35 25
218 981 144 58 34 26
218 981 145 60 36 29
218 980 146 66 40 26
218 980 147 72 43 32
218 981 146 63 37 29
219 981 146 63 40 32
219 981 147 66 40 32
218 982 144 62 44 36
218 982 145 61 42 39
218 983 144 66 50 38
219 982 145 63 43 41
219 983 144 67 48 36
219 983 145 64 45 40
219 982 146 63 41 35
217 980 148 78 51 33
217 980 149 76 48 30
217 980 150 75 46 33
217 980 151 75 50 36
218 980 148 75 48 34
218 980 149 74 47 30
219 980 148 71 44 33
219 980 149 73 48 32
219 981 148 68 43 30
219 981 149 70 47 31
218 980 150 74 49 36
218 980 151 74 48 38
219 980 150 72 48 34
219 980 151 72 47 35
219 981 150 68 45 32
219 981 151 68 45 34
220 981 147 63 40 32
220 982 145 63 44 40
220 983 145 65 45 35
221 983 145 65 47 32
220 982 146 62 42 37
220 982 147 60 39 32
221 982 146 60 42 32
221 982 147 57 39 27
221 983 146 64 46 34
222 983 145 72 54 35
223 983 145 75 56 35
222 982 146 64 48 34
222 982 147 59 44 29
222 983 146 68 51 34
223 983 146 72 54 35
223 983 147 67 51 33
220 981 148 65 43 26
220 981 149 66 45 29
221 981 148 63 45 29
221 981 149 59 43 28
220 981 150 64 44 32
220 981 151 60 36 33
221 981 150 61 46 33
221 981 151 53 32 31
221 982 148 60 44 30
221 982 149 59 46 32
221 982 150 58 44 34
221 982 151 54 38 32
222 982 148 62 48 33
222 982 149 60 47 33
223 982 148 64 49 34
223 982 149 66 51 37
223 983 148 68 52 36
223 983 149 72 55 40
222 982 150 58 44 33
222 982 151 59 45 36
222 983 151 68 55 42
223 982 150 66 50 37
223 983 150 75 59 45
223 983 151 83 69 55
216 979 152 80 55 40
216 979 153 81 57 41
216 979 154 77 51 34
216 979 155 74 47 25
216 980 152 77 52 39
217 980 152 75 48 34
217 980 153 75 49 37
216 980 154 74 47 33
216 980 155 71 45 26
217 980 154 69 43 30
217 980 155 69 44 32
218 980 152 73 44 36
218 980 153 71 45 35
218 981 153 68 44 35
219 981 152 66 36 33
219 981 153 64 37 34
218 980 154 66 40 34
218 981 154 66 41 36
218 981 155 70 46 41
219 981 154 67 42 38
219 981 155 70 44 39
216 980 156 72 47 31
216 980 157 74 50 36
217 980 156 73 50 38
217 980 157 80 57 48
216 980 158 83 60 50
216 980 159 93 72 60
217 980 158 87 64 55
217 980 159 95 73 59
217 981 159 100 76 61
218 980 156 75 54 47
218 981 156 78 55 46
218 981 157 81 56 44
219 981 156 73 46 36
219 981 157 76 47 32
218 981 158 87 60 45
218 981 159 97 68 50
219 982 156 73 44 32
219 982 157 82 51 34
219 982 158 91 60 41
219 982 159 99 68 44
220 981 152 59 31 32
220 981 153 60 38 36
221 981 152 53 32 31
220 981 154 64 45 41
220 982 153 61 42 36
221 982 152 53 37 32
221 982 153 54 38 29
220 982 154 63 38 34
220 982 155 66 40 34
221 982 154 58 39 29
221 982 155 69 43 31
221 983 154 63 42 23
221 983 155 69 43 25
222 982 152 56 46 35
222 982 153 59 44 26
222 983 152 70 56 41
222 983 153 68 51 29
223 983 152 86 70 51
223 983 153 82 65 43
222 983 154 71 51 27
222 983 155 78 53 26
220 982 156 72 44 30
220 982 157 83 53 35
221 983 156 77 50 27
221 983 157 89 60 37
220 982 158 93 61 40
220 982 159 103 70 46
220 983 158 98 65 43
220 983 159 101 68 43
221 983 158 101 69 45
221 983 159 110 78 54
222 983 156 84 58 29
222 983 157 94 64 39
222 983 158 104 71 47
222 983 159 110 77 54
218 984 144 73 53 34
219 984 144 76 55 34
219 984 145 72 52 33
219 985 144 82 62 40
219 986 144 87 67 44
219 987 144 91 71 50
220 984 144 78 58 34
220 984 145 74 55 34
220 985 144 81 61 37
221 984 145 76 56 34
221 985 144 81 62 38
221 985 145 82 62 39
220 986 144 88 68 46
220 987 144 92 72 51
221 986 144 87 66 43
221 987 144 92 73 53
222 984 145 77 58 33
222 985 144 85 65 42
222 985 145 82 63 39
223 984 145 80 60 36
223 985 144 86 65 40
222 986 144 90 70 45
222 987 144 96 77 56
222 987 145 100 80 60
223 986 144 90 69 43
223 986 145 88 67 43
223 987 145 99 79 57
220 988 144 95 75 52
221 988 144 98 79 59
221 989 144 102 81 60
221 990 144 106 85 61
221 990 145 104 82 57
221 991 144 117 96 73
221 991 145 112 91 69
222 988 144 102 83 66
222 988 145 102 83 65
222 989 145 103 81 64
223 988 145 102 81 62
223 989 145 99 76 57
222 989 146 101 78 60
223 989 146 99 76 57
222 990 145 105 83 63
222 991 145 108 87 68
222 990 146 101 79 61
222 991 146 103 82 63
223 990 146 96 74 55
223 990 147 98 76 57
223 991 147 94 72 50
223 991 148 97 76 53
223 984 153 95 76 53
222 984 154 83 62 35
222 984 155 89 65 35
223 984 154 96 75 48
223 984 155 95 71 41
222 984 156 87 59 31
222 984 157 95 65 38
223 984 156 89 62 33
223 984 157 91 60 27
223 985 156 91 66 40
223 985 157 92 65 32
222 984 158 103 70 45
222 984 159 109 76 52
223 984 158 97 63 28
223 984 159 102 70 41
223 985 158 94 64 27
223 985 159 96 65 30
