ply
format ascii 1.0
comment Version 2, Copyright 2017, 8i Labs, Inc.
comment frame_to_world_scale 0.179523
comment frame_to_world_translation -45.2095 7.18301 -54.3561
comment width 1023
element vertex 75
property float x
property float y
property float z
property uchar red
property uchar green
property uchar blue
end_header
223 113 240 102 91 78
223 114 240 100 84 61
223 115 240 101 71 20
223 115 241 101 72 25
222 116 240 121 59 0
222 117 240 125 58 0
222 117 241 124 55 0
223 116 240 117 58 0
223 116 241 117 54 1
223 117 241 122 54 0
223 116 242 120 55 0
223 117 242 122 55 0
222 118 240 127 61 1
222 118 241 123 56 0
222 119 240 129 62 2
222 119 241 126 58 0
223 118 241 123 54 0
223 118 242 123 54 0
223 118 243 123 54 0
223 119 242 125 55 0
223 119 243 124 52 0
221 120 240 132 57 0
221 121 240 138 59 3
221 122 240 140 62 3
221 123 240 143 64 3
222 120 240 131 58 1
222 120 241 130 58 1
222 121 240 138 60 3
222 121 241 137 60 3
222 120 242 129 56 0
222 121 242 133 56 1
223 120 242 126 54 0
223 120 243 125 52 2
223 121 243 129 51 0
222 122 240 140 61 3
222 122 241 140 62 3
222 123 241 143 64 3
222 122 242 139 60 3
222 122 243 136 58 2
222 123 242 142 62 3
222 123 243 141 60 3
223 122 243 133 54 1
223 123 243 140 60 3
223 122 244 129 56 0
223 123 244 136 64 3
221 124 240 147 57 3
222 124 240 149 60 3
222 124 241 147 60 3
222 125 240 151 58 3
222 125 241 149 63 4
222 124 242 147 60 3
222 124 243 146 59 5
222 125 242 148 60 4
222 125 243 147 58 3
223 124 243 144 61 9
223 125 243 147 57 5
222 126 240 147 66 6
222 126 241 147 66 6
222 127 240 130 80 57
222 127 241 134 80 55
223 127 240 115 95 93
223 127 241 126 88 78
222 126 242 147 63 6
222 126 243 148 60 3
223 126 242 145 64 6
223 126 243 147 60 13
223 127 242 132 84 70
223 127 243 133 75 59
223 124 244 141 62 10
223 124 245 139 60 16
223 125 244 146 58 4
223 125 245 144 58 8
223 126 244 146 60 15
223 126 245 145 59 11
223 127 244 131 70 46
