ply
format ascii 1.0
comment Version 2, Copyright 2017, 8i Labs, Inc.
comment frame_to_world_scale 0.179523
comment frame_to_world_translation -45.2095 7.18301 -54.3561
comment width 1023
element vertex 124
property float x
property float y
property float z
property uchar red
property uchar green
property uchar blue
end_header
223 115 199 110 96 83
223 116 198 110 96 82
223 116 199 110 96 82
223 117 198 109 95 80
223 117 199 110 95 81
223 118 198 109 95 80
223 118 199 109 94 79
223 119 199 108 92 76
223 113 201 109 96 84
222 113 203 106 95 85
223 112 203 107 96 85
223 113 202 108 96 85
223 113 203 107 96 85
222 115 201 109 96 83
223 114 200 109 96 84
223 114 201 109 96 84
223 115 200 110 97 83
222 114 202 107 96 84
222 114 203 107 96 85
222 115 202 108 95 84
222 115 203 107 95 84
223 114 202 108 96 85
222 113 204 103 93 84
223 112 204 105 94 85
223 112 205 105 94 85
223 113 204 104 93 84
223 113 205 101 91 82
223 112 206 98 89 82
223 112 207 100 90 83
223 113 206 96 87 79
223 113 207 98 89 82
222 114 204 104 94 84
222 114 205 98 88 80
222 115 204 105 94 84
222 115 205 99 88 80
222 114 206 92 83 77
222 115 206 92 83 78
222 115 207 94 84 78
223 114 206 92 84 77
223 114 207 97 87 80
223 115 207 97 87 80
222 116 200 110 97 83
222 116 201 110 97 83
222 117 200 110 96 82
222 117 201 110 96 82
223 116 200 110 97 83
223 117 200 110 96 81
223 117 201 111 96 81
222 116 202 109 96 83
222 116 203 112 99 87
222 117 202 110 97 85
222 117 203 114 100 90
223 118 200 107 94 81
223 118 201 102 92 82
223 119 200 102 89 79
223 119 201 102 88 76
222 118 202 109 97 86
222 118 203 114 100 85
222 119 203 117 100 80
223 118 202 109 96 84
223 119 202 110 94 77
223 119 203 115 98 76
221 119 206 107 80 33
221 119 207 108 76 10
222 116 204 110 99 88
222 116 205 102 92 84
222 117 204 111 99 88
222 117 205 104 92 81
222 116 206 95 85 78
222 116 207 97 85 75
222 117 206 98 85 72
222 117 207 98 82 65
222 118 204 114 99 82
222 118 205 108 92 74
222 119 204 117 97 72
222 119 205 113 92 64
222 118 206 103 84 62
222 118 207 103 81 51
222 119 206 108 84 48
222 119 207 106 79 31
223 120 201 102 85 69
222 120 203 115 94 67
223 120 202 108 86 57
223 120 203 113 88 51
223 121 202 111 77 9
223 121 203 116 76 6
223 122 203 123 68 0
221 120 206 114 79 4
221 120 207 118 73 5
221 121 207 128 69 0
221 122 207 134 66 0
221 123 207 138 66 0
222 120 204 116 90 50
222 120 205 116 88 37
222 121 205 120 74 0
223 120 204 115 85 36
223 121 204 118 75 3
222 120 206 115 83 19
222 121 206 123 71 0
222 122 205 128 66 0
223 122 204 128 67 0
223 122 205 130 65 0
223 123 204 135 66 0
223 123 205 136 65 0
222 122 206 131 64 0
222 122 207 134 66 0
222 123 206 137 62 0
222 123 207 139 66 0
223 123 206 141 61 0
223 124 204 138 61 0
223 124 205 142 62 0
223 125 205 143 63 0
222 124 206 141 62 0
222 124 207 142 65 0
222 125 206 143 60 0
222 125 207 143 60 0
223 124 206 142 61 0
223 125 206 143 60 0
223 126 205 143 59 0
222 126 207 144 60 0
223 126 206 143 58 0
223 126 207 144 59 0
223 127 206 144 59 0
223 127 207 144 59 0
