ply
format ascii 1.0
comment Version 2, Copyright 2017, 8i Labs, Inc.
comment frame_to_world_scale 0.179523
comment frame_to_world_translation -45.2095 7.18301 -54.3561
comment width 1023
element vertex 208
property float x
property float y
property float z
property uchar red
property uchar green
property uchar blue
end_header
219 128 80 108 88 66
219 128 81 108 88 67
219 129 80 108 88 67
219 129 81 108 88 67
219 129 82 108 88 67
219 130 80 108 88 66
219 130 81 107 87 66
219 131 80 108 88 67
219 131 81 107 87 66
219 130 82 107 87 66
219 132 80 108 88 67
219 132 81 108 88 67
219 133 80 108 88 66
219 133 81 108 88 66
219 134 80 108 88 66
219 134 81 108 88 66
219 135 80 108 88 66
219 135 81 108 88 66
220 128 82 108 88 67
220 128 83 108 88 66
220 129 82 107 87 66
220 129 83 107 86 65
220 130 82 107 87 65
220 130 83 106 86 64
220 131 82 107 87 65
220 131 83 107 87 65
220 128 84 109 88 67
220 128 85 109 89 67
220 129 84 107 87 65
220 129 85 108 88 65
221 128 86 110 89 66
221 128 87 109 88 66
221 129 86 108 87 65
221 129 87 108 88 65
220 130 84 107 87 65
220 130 85 108 88 65
220 131 84 108 88 66
220 131 85 109 88 65
221 131 85 109 88 66
221 130 86 109 88 66
221 130 87 109 89 66
221 131 86 110 89 66
221 131 87 110 89 66
222 128 87 109 88 66
222 129 87 109 87 64
222 130 87 110 89 66
222 131 87 110 89 66
220 132 82 108 88 66
220 132 83 108 88 66
220 133 82 109 88 67
220 133 83 109 88 66
220 134 81 108 88 66
220 135 81 108 88 66
220 134 82 109 88 66
220 134 83 109 88 65
220 135 82 108 88 65
220 135 83 109 88 65
220 132 84 109 88 66
220 132 85 110 89 66
220 133 84 109 88 66
221 132 85 110 89 67
221 133 85 110 89 66
221 132 86 110 89 67
221 133 86 110 89 67
220 134 84 109 88 65
220 135 84 109 88 65
221 134 84 109 88 65
221 134 85 110 89 66
221 135 84 109 88 66
221 135 85 110 89 66
221 135 86 110 89 66
222 132 86 110 89 66
222 132 87 110 89 66
222 133 86 110 89 67
222 133 87 110 89 66
222 134 85 110 89 67
222 134 86 110 89 67
222 134 87 110 89 67
222 135 86 110 89 67
222 135 87 110 89 68
223 134 87 109 89 67
222 128 88 110 89 66
222 129 88 109 88 65
223 128 88 111 90 67
223 128 89 111 90 68
223 129 88 110 89 66
223 129 89 111 90 68
222 130 88 110 89 67
222 131 88 110 89 67
223 130 88 110 89 67
223 130 89 110 89 66
223 131 88 110 89 68
222 132 88 109 89 67
223 132 88 110 89 68
223 132 89 110 90 69
223 133 88 109 88 67
223 133 89 109 89 68
223 134 88 109 89 67
223 134 89 109 89 68
223 135 88 109 89 67
223 135 89 108 88 67
219 136 80 108 88 66
219 137 80 108 88 66
219 138 80 108 87 65
219 139 80 108 87 65
219 140 80 108 88 65
219 141 80 108 87 65
220 136 80 108 88 66
220 136 81 108 88 66
220 137 81 108 88 66
220 136 82 108 87 65
220 136 83 108 88 65
220 137 82 108 88 65
220 137 83 109 88 66
220 138 80 108 87 65
220 138 81 109 88 65
220 139 80 108 87 64
220 139 81 108 88 65
220 138 82 109 88 66
220 138 83 109 89 66
220 139 82 108 88 65
220 139 83 108 87 65
220 136 84 109 89 66
220 137 84 110 89 66
221 136 84 110 89 67
221 136 85 110 89 67
221 137 84 109 89 66
221 137 85 110 89 66
221 136 86 110 89 67
221 137 86 110 89 67
220 138 84 109 88 66
220 139 84 108 87 64
221 138 85 109 88 65
221 139 84 108 87 64
221 139 85 109 88 66
221 138 86 109 88 66
221 139 86 109 89 67
221 139 87 109 89 67
222 136 86 110 89 67
222 136 87 110 90 68
222 137 87 110 89 68
222 138 87 109 88 67
222 139 87 109 89 67
220 140 80 108 87 64
220 140 81 108 87 64
220 141 80 108 87 64
220 141 81 108 87 64
220 140 82 108 88 65
220 140 83 108 88 66
220 141 82 108 87 65
220 141 83 108 88 65
220 142 80 108 87 64
220 142 81 108 87 64
220 143 80 108 87 65
220 143 81 108 87 65
220 142 82 108 87 64
220 142 83 108 87 64
220 143 82 108 87 64
220 143 83 108 87 65
220 140 84 108 88 65
220 140 85 108 88 65
220 141 84 108 87 65
220 141 85 108 87 64
221 140 85 109 88 66
221 141 85 108 87 65
221 140 86 109 88 67
221 140 87 109 88 66
221 141 86 108 88 65
221 141 87 109 88 66
220 142 84 108 87 64
220 142 85 108 87 64
220 143 84 108 87 65
220 143 85 108 88 65
221 142 85 108 87 64
221 143 85 108 87 65
221 142 86 109 88 66
221 142 87 109 88 66
221 143 86 108 88 66
221 143 87 108 87 66
222 140 87 109 89 67
222 141 87 109 88 66
222 142 87 109 88 66
222 143 87 108 87 66
222 136 88 110 89 68
222 137 88 109 89 67
223 136 88 109 89 68
223 136 89 109 89 68
223 137 88 109 88 67
223 137 89 108 89 68
222 138 88 108 88 67
222 139 88 109 89 68
223 138 88 108 88 67
223 138 89 108 88 67
223 139 89 108 89 68
222 140 88 109 89 67
222 141 88 109 88 67
222 141 89 108 88 67
223 140 89 108 88 67
223 141 89 108 88 67
223 141 90 108 88 67
222 142 88 108 88 67
222 142 89 108 88 67
222 143 88 107 88 67
222 143 89 107 87 67
223 142 89 108 88 67
223 143 89 107 87 67
223 142 90 107 87 67
223 143 90 107 88 67
