ply
format ascii 1.0
comment Version 2, Copyright 2017, 8i Labs, Inc.
comment frame_to_world_scale 0.179523
comment frame_to_world_translation -45.2095 7.18301 -54.3561
comment width 1023
element vertex 207
property float x
property float y
property float z
property uchar red
property uchar green
property uchar blue
end_header
237 176 23 141 55 5
237 177 23 141 62 9
237 178 23 135 70 24
237 179 23 125 92 76
238 176 23 141 57 7
238 177 23 141 62 11
239 176 22 142 59 11
239 177 22 141 65 17
238 178 23 135 73 32
238 179 23 124 93 78
239 178 22 135 78 43
239 179 22 123 94 83
237 180 23 118 104 100
237 181 23 117 115 117
237 182 23 121 105 98
237 183 23 120 67 60
238 180 23 118 107 106
238 181 23 120 115 117
239 180 22 121 110 109
239 180 23 117 116 119
239 181 22 123 118 117
239 181 23 121 117 117
238 182 23 123 100 93
238 183 23 127 69 58
239 182 23 130 102 95
239 183 23 134 66 56
235 176 26 142 60 3
235 176 27 141 59 5
235 177 26 143 58 8
235 177 27 142 58 7
235 178 26 141 62 14
235 178 27 142 62 9
235 179 26 135 73 27
235 179 27 136 71 20
234 176 29 142 60 3
234 177 29 141 58 5
235 176 28 141 61 3
235 176 29 142 62 2
235 177 28 143 58 3
235 177 29 141 58 6
234 176 30 141 57 3
234 176 31 139 56 2
234 177 30 139 60 5
234 177 31 137 60 4
234 178 29 141 58 8
234 179 29 138 61 8
235 178 28 143 61 10
235 178 29 142 58 9
235 179 28 138 66 14
234 178 30 139 58 6
234 178 31 136 60 5
234 179 30 137 59 5
234 179 31 138 55 6
235 180 26 117 90 69
235 180 27 124 83 57
235 181 26 110 102 99
235 181 27 113 95 88
235 182 25 112 109 111
235 183 25 116 97 90
234 182 27 106 110 114
234 183 27 113 102 98
235 182 26 110 107 110
235 182 27 108 107 110
235 183 26 116 101 94
235 183 27 113 105 103
234 180 29 130 72 27
234 181 28 116 91 81
234 181 29 117 87 67
235 180 28 127 79 48
235 181 28 117 93 85
234 180 30 131 65 22
234 180 31 132 62 20
234 181 30 117 84 62
234 181 31 120 77 52
234 182 28 106 105 106
234 182 29 106 105 105
234 183 28 112 108 109
234 183 29 112 109 112
234 182 30 107 103 104
234 182 31 109 97 92
234 183 30 108 109 113
234 183 31 107 107 111
236 176 25 142 58 4
236 177 25 141 59 7
237 176 24 142 58 5
237 177 24 141 62 11
236 176 26 142 59 4
236 177 26 142 59 8
236 178 24 140 66 20
236 178 25 141 63 20
236 179 24 125 88 60
236 179 25 134 76 42
237 178 24 140 67 18
237 179 24 129 87 61
236 179 26 129 79 42
236 180 24 119 96 83
236 180 25 119 94 77
236 181 24 114 109 108
236 181 25 112 107 106
237 180 24 116 101 95
237 181 24 114 110 111
236 182 24 117 107 103
236 182 25 116 109 109
236 183 24 116 85 80
236 183 25 116 88 84
237 182 24 120 107 102
237 183 24 117 76 70
237 184 23 121 43 39
237 185 23 121 41 36
238 184 23 128 45 29
238 185 23 125 44 32
239 184 23 136 45 26
239 185 23 132 49 22
238 186 23 111 41 46
239 186 23 110 50 50
235 184 25 111 71 60
235 185 25 110 48 39
234 184 27 115 90 81
234 185 27 111 51 42
235 184 26 112 76 64
235 184 27 115 85 75
235 185 26 111 44 31
235 185 27 113 54 43
235 186 25 104 40 38
235 187 25 89 44 54
234 186 27 103 36 36
235 186 26 109 33 30
235 186 27 106 36 38
235 187 26 91 47 52
235 187 27 91 47 50
234 184 28 115 99 92
234 184 29 116 102 96
234 185 28 108 68 59
234 185 29 110 84 74
234 184 30 113 103 100
234 184 31 109 105 106
234 185 30 108 84 78
234 185 31 107 89 84
234 186 28 97 34 34
234 186 29 93 34 36
234 187 28 90 39 45
234 187 29 91 38 44
234 186 30 92 36 39
234 186 31 96 49 50
234 187 30 95 40 43
234 187 31 96 36 40
235 188 25 85 45 69
235 188 26 81 47 67
235 188 27 83 44 51
235 189 26 81 39 66
235 189 27 80 49 66
235 190 27 79 54 70
233 191 31 82 36 51
234 188 28 86 41 40
234 188 29 87 45 38
234 189 29 79 42 43
235 188 28 88 45 43
235 189 28 81 52 63
235 189 29 77 45 53
234 188 30 88 45 32
234 188 31 95 51 30
234 189 30 79 42 36
234 189 31 81 43 39
235 190 28 80 45 57
235 190 29 79 44 52
235 191 28 84 51 60
235 191 29 83 42 54
234 190 30 80 44 54
234 190 31 81 43 57
234 191 30 81 40 52
234 191 31 84 37 53
235 191 30 78 42 52
236 184 24 114 54 48
236 185 24 116 50 38
237 184 24 118 44 39
237 185 24 119 43 37
236 186 24 106 39 40
236 187 24 98 51 62
236 187 25 92 45 61
237 186 24 105 46 51
237 187 24 91 53 72
238 186 24 99 50 61
238 187 24 85 52 80
239 187 24 84 55 85
236 188 25 86 47 74
236 189 25 82 49 74
237 188 25 88 50 78
237 189 25 81 55 81
236 189 26 77 44 69
237 190 25 73 51 84
237 191 25 86 54 82
236 190 26 77 54 77
236 190 27 78 46 65
236 191 26 81 48 72
236 191 27 81 45 66
237 190 26 78 50 84
237 191 26 84 52 78
238 188 24 87 49 78
238 189 24 82 56 84
238 189 25 80 57 85
239 188 24 85 52 88
239 189 25 80 60 90
238 190 25 76 53 89
238 191 25 83 51 86
239 190 25 76 57 89
239 191 25 79 50 85
239 191 26 77 51 84
