ply
format ascii 1.0
comment Version 2, Copyright 2017, 8i Labs, Inc.
comment frame_to_world_scale 0.179523
comment frame_to_world_translation -45.2095 7.18301 -54.3561
comment width 1023
element vertex 434
property float x
property float y
property float z
property uchar red
property uchar green
property uchar blue
end_header
231 224 42 28 49 79
231 224 43 34 47 77
231 225 42 28 50 77
231 225 43 35 50 76
231 226 43 40 54 79
229 224 45 54 52 65
228 224 47 63 48 60
228 225 47 64 46 57
229 224 46 61 50 63
229 224 47 63 50 62
229 225 46 63 51 65
229 225 47 63 46 60
229 226 47 62 46 59
229 227 47 65 45 56
230 224 44 48 53 76
230 224 45 54 54 72
230 225 45 55 47 67
231 224 44 43 50 77
231 225 44 43 49 73
230 225 46 59 50 65
230 226 45 56 45 62
231 226 44 38 53 76
231 226 45 42 46 66
231 227 44 31 44 70
231 227 45 34 45 69
230 226 46 55 42 59
230 226 47 60 44 58
230 227 46 57 43 58
230 227 47 66 46 57
231 227 46 32 45 69
229 231 42 53 48 61
229 231 43 54 46 61
230 231 42 36 40 62
230 231 43 36 45 72
231 231 42 36 44 71
231 231 43 38 53 86
229 228 47 62 43 55
229 229 47 70 43 58
229 231 44 53 44 61
229 231 45 56 44 61
228 230 47 71 48 58
228 231 47 77 52 63
229 230 47 66 40 59
229 231 46 59 43 60
229 231 47 68 45 59
231 228 44 40 48 76
231 228 45 38 49 71
231 229 44 35 45 70
231 229 45 30 42 70
230 228 46 47 50 65
230 228 47 63 45 59
230 229 46 65 42 67
230 229 47 67 46 63
231 229 46 32 46 70
230 230 45 47 47 70
230 231 44 41 48 74
230 231 45 51 47 69
231 230 44 33 49 77
231 230 45 31 48 84
231 231 44 41 57 88
231 231 45 29 50 90
230 230 46 55 45 71
230 230 47 66 44 63
230 231 46 59 45 64
231 235 39 43 40 46
229 237 39 44 40 47
228 239 39 63 33 37
229 238 39 49 39 43
229 239 38 57 36 39
229 239 39 56 34 38
230 236 39 46 38 44
230 237 39 45 38 45
231 236 39 48 39 46
231 237 38 45 38 46
231 237 39 47 39 47
231 239 37 42 40 45
230 238 38 47 39 48
230 238 39 48 38 46
230 239 38 50 36 42
231 238 38 45 38 45
231 239 38 43 39 45
229 232 42 41 42 58
229 232 43 54 42 58
229 233 42 39 39 54
229 233 43 47 40 55
229 235 41 44 35 42
229 234 42 47 41 53
229 234 43 48 43 54
229 235 42 44 38 47
229 235 43 44 37 44
230 233 41 42 40 55
231 232 41 41 43 59
231 233 41 46 42 57
230 232 42 41 41 60
230 233 42 40 37 54
231 232 42 39 44 67
230 234 40 41 35 46
230 234 41 43 38 51
230 235 40 46 38 47
230 235 41 46 40 49
231 234 40 41 38 47
231 234 41 43 37 50
231 235 40 43 39 46
230 234 42 45 40 53
230 235 42 41 36 43
230 235 43 45 37 45
229 232 44 57 42 59
229 232 45 58 41 59
229 233 44 57 36 54
229 233 45 60 39 55
229 232 46 63 44 60
229 232 47 71 47 58
229 233 46 65 41 55
229 233 47 75 50 56
229 234 44 49 45 53
229 234 45 62 39 51
229 235 44 49 38 44
229 235 45 67 42 48
229 234 46 66 43 53
229 234 47 77 53 55
230 234 44 50 46 53
230 234 45 63 42 52
230 235 44 52 38 43
230 235 45 56 36 42
230 234 46 69 47 54
230 234 47 76 51 57
230 235 46 67 42 48
230 235 47 76 48 55
229 236 40 42 36 41
229 236 41 44 37 42
229 237 40 43 38 40
229 237 41 45 38 39
229 236 42 47 37 42
229 236 43 56 39 43
229 237 42 56 35 38
229 237 43 63 38 42
228 238 40 52 38 39
228 238 41 53 38 37
228 239 40 64 34 39
228 239 41 64 36 37
229 238 40 47 39 40
229 238 41 47 39 38
229 239 40 57 37 42
228 238 42 59 32 33
228 238 43 66 31 37
228 239 42 70 36 37
228 239 43 78 34 39
229 238 42 64 31 37
229 238 43 71 37 42
230 236 40 45 36 43
229 236 44 66 41 47
229 237 44 69 38 44
229 237 45 73 37 44
228 239 44 85 32 38
229 238 44 75 35 40
229 238 45 78 32 42
229 239 44 81 33 39
229 239 45 85 35 42
230 236 44 60 41 45
230 236 45 68 43 48
230 237 45 72 30 42
230 236 46 73 37 45
230 236 47 75 36 47
230 237 46 74 28 43
230 237 47 78 33 45
230 238 46 82 36 48
230 238 47 84 37 49
230 239 46 84 36 46
230 239 47 82 33 44
231 239 47 83 34 43
235 231 39 41 51 66
239 227 35 43 43 57
237 227 38 46 45 66
237 227 39 49 51 70
239 225 38 43 48 74
239 225 39 49 54 79
238 227 37 41 42 63
239 226 36 46 47 64
239 226 37 42 47 69
239 227 36 43 45 63
238 226 38 42 48 69
238 226 39 52 56 80
238 227 38 46 46 67
238 227 39 45 52 72
239 226 38 41 48 70
237 230 35 45 46 64
237 231 34 45 44 60
237 231 35 45 47 63
239 229 33 50 49 63
238 229 35 45 43 64
239 228 34 53 51 63
239 228 35 46 47 61
239 229 34 47 47 60
239 229 35 45 46 60
238 231 33 55 47 60
239 230 32 50 47 64
239 230 33 54 48 65
239 231 32 54 48 56
238 230 34 51 48 64
238 230 35 51 50 67
238 231 34 55 49 65
239 230 34 51 49 62
237 228 37 49 45 66
237 229 36 50 44 68
237 229 37 48 44 67
236 229 38 36 41 69
236 229 39 37 43 68
237 228 38 48 46 65
237 228 39 47 48 68
237 229 38 46 45 68
237 229 39 40 43 65
236 230 37 43 44 65
236 231 37 44 52 67
237 230 36 44 43 66
237 230 37 41 41 65
237 231 36 45 47 64
237 231 37 43 50 68
236 230 38 38 45 67
236 230 39 35 44 66
236 231 38 49 55 68
236 231 39 45 53 66
238 228 36 44 45 65
238 228 37 41 45 67
238 229 36 47 45 66
239 228 36 38 43 59
232 224 40 41 50 82
232 224 41 34 52 82
232 225 41 30 48 80
233 224 40 43 52 79
233 225 41 39 48 83
232 224 42 27 50 80
232 225 42 27 50 78
232 226 41 26 48 79
232 227 41 35 51 83
233 226 41 29 48 81
233 227 41 33 52 84
232 226 42 35 52 81
232 226 43 37 51 78
232 227 42 40 52 84
232 227 43 30 44 74
234 224 40 48 53 80
234 224 41 44 52 83
234 225 41 38 46 84
235 224 41 44 53 79
235 225 41 35 46 79
235 224 42 37 54 78
235 225 42 30 47 77
234 226 41 36 49 83
234 227 41 33 54 84
235 226 41 36 50 81
235 227 41 33 51 80
235 226 42 36 52 80
232 227 44 28 41 72
233 228 41 39 55 81
232 228 42 34 49 79
232 228 43 32 48 77
232 229 42 36 56 80
232 229 43 37 55 78
233 228 42 36 51 80
233 229 42 40 54 79
232 230 42 36 53 75
232 230 43 36 53 76
232 231 42 38 47 68
232 231 43 45 54 75
233 230 42 33 52 73
233 231 42 36 48 71
234 228 41 38 53 79
234 229 41 45 57 81
235 228 41 40 52 79
235 229 41 35 49 76
234 229 42 42 56 78
234 231 41 31 45 64
235 230 41 31 48 71
235 231 40 37 52 70
235 231 41 34 46 64
234 230 42 34 49 68
234 231 42 35 48 70
235 231 42 35 46 65
232 228 44 36 50 74
232 229 44 35 51 75
237 224 41 36 51 76
237 225 41 35 50 77
236 224 42 37 50 73
236 225 42 31 47 76
237 224 42 34 50 74
237 225 42 33 48 77
236 226 41 33 48 76
236 227 41 30 47 74
237 226 41 33 47 74
237 227 40 43 45 68
237 227 41 29 45 71
236 226 42 36 50 78
238 224 41 35 50 76
238 225 40 53 59 82
238 225 41 46 56 79
239 224 40 48 48 73
239 224 41 42 50 75
239 225 40 51 58 82
239 225 41 49 58 81
238 226 40 43 51 75
238 226 41 39 50 73
236 228 40 45 56 80
236 228 41 39 52 78
236 229 40 39 49 73
236 229 41 36 51 76
237 228 40 41 51 73
236 230 40 31 49 70
236 230 41 29 49 71
236 231 41 35 50 72
232 235 39 45 39 48
233 235 39 44 37 47
235 232 39 40 52 64
235 233 39 39 43 59
234 235 39 53 37 44
235 234 39 57 41 50
235 235 38 47 35 39
235 235 39 56 38 41
235 237 35 64 37 42
234 239 35 52 37 43
235 238 34 59 36 44
235 238 35 56 38 42
235 239 34 58 40 43
235 239 35 55 40 43
232 236 38 49 42 46
232 236 39 49 41 47
232 237 38 47 39 42
232 237 39 48 39 43
233 236 38 49 39 44
233 236 39 48 36 44
233 237 38 48 37 42
232 239 37 50 36 40
233 238 37 50 36 41
233 239 37 56 30 40
232 238 38 46 38 41
233 238 38 48 35 40
234 237 37 54 38 43
235 236 36 53 37 38
235 236 37 52 38 38
235 237 36 57 41 41
235 237 37 56 40 42
234 236 38 51 37 40
234 236 39 50 36 43
234 237 38 51 37 42
235 236 38 49 36 37
234 238 36 51 40 45
234 238 37 57 38 44
234 239 36 56 33 42
234 239 37 53 36 44
235 238 36 54 40 42
237 232 34 49 52 60
237 232 35 49 48 60
237 233 34 55 46 54
237 233 35 54 44 57
237 234 33 69 47 52
237 235 33 65 47 45
236 235 35 59 35 39
237 234 34 62 43 51
237 234 35 55 35 48
237 235 34 65 42 47
237 235 35 62 35 41
238 232 33 57 38 55
238 233 33 59 43 50
239 232 32 56 47 61
239 233 32 61 46 67
238 232 34 49 44 56
238 234 32 61 50 58
238 234 33 61 50 52
238 235 32 69 51 43
238 235 33 59 53 50
236 232 37 47 50 66
236 233 36 48 43 56
236 233 37 47 44 60
237 232 36 48 46 59
237 233 36 48 42 54
236 232 38 47 49 65
236 232 39 40 51 66
236 233 38 50 45 59
236 233 39 57 46 59
236 234 36 51 36 47
236 234 37 50 38 48
236 235 36 54 36 40
236 235 37 50 36 38
236 234 38 52 42 48
236 234 39 56 42 50
236 235 38 51 39 42
236 237 33 69 40 46
237 236 32 76 41 40
237 236 33 71 42 41
237 237 32 70 46 38
237 237 33 69 42 41
236 236 34 63 38 41
236 236 35 61 35 38
236 237 34 65 37 45
236 237 35 62 36 42
237 236 34 65 40 42
237 236 35 62 34 39
236 238 32 69 29 42
236 238 33 66 30 47
236 239 32 65 35 44
236 239 33 62 35 47
237 238 32 65 40 45
236 238 34 64 33 47
236 239 34 60 37 46
238 236 32 75 41 38
236 236 36 57 34 37
236 236 37 49 35 34
236 237 36 61 37 43
232 232 41 42 44 61
232 233 41 45 39 54
233 232 41 44 50 67
233 233 41 42 40 57
232 232 42 38 48 67
233 232 42 41 48 70
232 234 40 42 36 49
232 234 41 41 34 49
232 235 40 43 39 47
233 234 40 40 35 49
233 235 40 43 38 49
234 232 41 41 48 63
234 233 41 41 39 55
235 232 40 37 49 62
235 232 41 38 46 63
235 233 40 54 42 54
235 233 41 48 42 56
234 232 42 39 47 68
235 232 42 36 45 66
234 234 40 43 37 49
234 234 41 47 38 47
234 235 40 47 37 44
235 234 40 57 40 49
235 235 40 62 41 45
236 232 41 58 43 57
236 233 40 56 39 53
236 233 41 57 42 56
