ply
format ascii 1.0
comment Version 2, Copyright 2017, 8i Labs, Inc.
comment frame_to_world_scale 0.179523
comment frame_to_world_translation -45.2095 7.18301 -54.3561
comment width 1023
element vertex 366
property float x
property float y
property float z
property uchar red
property uchar green
property uchar blue
end_header
231 208 40 113 31 32
231 208 41 111 36 32
231 209 40 104 33 38
231 209 41 105 38 38
230 208 42 111 40 33
230 208 43 106 41 32
230 209 42 107 38 34
230 209 43 104 34 34
231 208 42 111 41 37
231 209 42 106 39 36
231 210 40 101 41 43
231 210 41 101 41 41
231 211 41 99 40 40
230 210 42 104 36 36
230 210 43 103 35 36
230 211 43 100 36 39
231 210 42 103 40 41
231 211 42 99 41 43
229 208 45 103 31 28
229 209 45 101 35 36
229 208 46 102 34 31
229 208 47 100 43 32
229 209 46 101 38 34
229 209 47 97 41 32
229 210 45 99 41 38
229 211 45 98 44 41
228 210 47 96 42 36
228 211 47 94 42 37
229 210 46 99 42 38
229 210 47 96 42 36
229 211 46 98 45 40
229 211 47 98 47 44
230 208 44 104 35 27
230 208 45 102 30 31
230 209 44 104 34 33
230 209 45 103 34 35
230 210 44 103 35 36
230 210 45 102 39 37
230 211 44 98 38 36
230 211 45 98 42 40
231 212 41 92 44 47
231 213 41 90 46 45
230 212 43 93 41 45
230 213 43 85 41 51
231 212 42 90 39 43
231 212 43 88 36 45
231 213 42 87 42 47
231 213 43 84 38 48
231 214 42 82 45 53
231 214 43 81 45 54
231 215 43 70 48 65
229 212 45 96 47 45
229 213 45 89 48 49
228 212 47 90 46 45
229 212 46 94 45 39
229 212 47 93 46 43
229 213 46 90 46 42
229 213 47 84 46 46
229 214 46 79 47 47
229 214 47 77 45 46
229 215 46 69 47 53
229 215 47 73 46 50
230 212 44 96 45 45
230 212 45 97 47 47
230 213 44 92 50 51
230 213 45 91 50 50
230 214 44 79 47 54
230 214 45 79 48 52
230 215 44 68 45 60
230 215 45 71 46 55
231 215 44 69 48 63
230 215 46 65 47 57
231 216 42 56 46 63
231 216 43 64 46 63
231 217 42 57 51 68
231 217 43 58 47 62
231 218 42 50 51 75
231 218 43 52 53 71
231 219 42 56 51 74
231 219 43 54 53 72
229 216 46 66 44 54
229 216 47 66 48 58
229 217 46 64 42 57
229 217 47 62 45 63
229 218 47 62 46 64
229 219 47 61 49 67
230 216 44 64 44 62
230 216 45 62 44 63
230 217 45 63 48 68
231 216 44 62 45 65
231 217 44 56 45 66
230 216 46 61 43 60
230 217 46 61 46 64
230 218 45 58 46 64
230 219 45 53 45 62
231 218 44 54 51 69
231 218 45 57 45 61
231 219 44 48 51 66
230 218 46 61 46 65
230 218 47 59 43 66
230 219 46 59 44 65
230 219 47 59 47 68
231 220 41 58 51 78
231 221 41 48 51 82
230 221 43 46 51 74
231 220 42 56 50 74
231 220 43 48 50 73
231 221 42 46 51 81
231 221 43 46 48 73
231 222 41 42 48 81
231 223 41 40 47 79
230 222 43 49 51 75
230 223 43 48 50 74
231 222 42 39 48 80
231 222 43 38 49 78
231 223 42 36 49 81
231 223 43 42 48 76
229 221 45 46 52 73
228 221 47 68 52 60
229 220 46 54 48 69
229 220 47 60 49 66
229 221 46 52 51 71
229 221 47 61 52 66
229 222 45 48 50 71
229 223 45 52 52 71
228 222 47 65 50 60
228 223 47 63 48 57
229 222 46 57 51 68
229 222 47 64 51 62
229 223 46 57 47 64
229 223 47 61 46 58
230 220 44 45 51 70
230 220 45 49 52 72
230 221 44 47 56 78
230 221 45 48 54 74
231 220 44 43 52 72
231 221 44 46 52 73
230 220 46 51 48 70
230 221 46 46 52 73
230 222 44 50 52 72
230 222 45 48 50 70
230 223 44 50 52 73
234 208 35 98 45 63
235 208 35 92 43 58
233 208 36 99 35 58
233 208 37 102 41 56
233 209 37 101 41 62
232 208 38 104 41 44
232 208 39 109 34 38
232 209 38 99 40 49
232 209 39 103 32 43
233 208 38 104 44 50
233 209 38 100 40 52
233 210 37 101 38 62
232 210 38 95 37 49
232 210 39 94 37 45
232 211 39 91 28 40
233 210 38 90 36 51
233 211 38 90 43 56
233 211 39 91 32 45
234 208 36 99 39 63
234 209 36 99 41 59
234 209 37 100 40 60
235 208 36 96 33 61
235 209 36 97 38 60
234 210 37 99 35 61
234 211 37 92 42 57
235 210 36 97 36 64
235 210 37 99 38 65
235 211 37 95 37 60
234 211 38 92 45 58
233 212 38 84 39 48
233 212 39 91 28 42
233 213 39 94 40 48
233 214 39 92 40 41
235 212 37 86 35 53
234 212 38 87 37 50
234 213 38 87 39 46
234 213 39 90 39 47
235 212 38 85 38 51
235 213 38 90 37 48
234 214 39 89 37 49
234 215 39 88 37 50
235 214 38 92 40 50
235 215 38 91 36 49
235 215 39 88 35 47
236 208 35 90 42 58
236 208 36 91 34 57
236 209 36 93 36 60
237 208 36 93 30 59
237 208 37 92 31 59
237 209 37 94 33 62
237 209 38 93 35 61
236 210 36 93 37 60
236 210 37 93 33 63
236 211 37 93 34 60
237 210 37 92 31 62
237 211 37 90 35 59
237 210 38 88 32 56
237 211 38 89 40 57
238 208 38 93 33 60
238 208 39 86 33 48
238 209 38 86 31 51
238 209 39 85 36 47
239 208 39 86 36 49
239 209 39 85 38 47
238 210 38 86 36 53
238 210 39 85 37 52
238 211 38 90 43 58
238 211 39 82 35 46
239 210 39 80 35 46
239 211 39 83 38 46
236 212 37 88 41 53
237 212 37 89 38 55
236 213 38 91 35 48
237 212 38 90 40 54
237 213 38 93 39 51
236 214 38 92 39 50
236 215 38 90 38 50
237 214 38 90 41 50
237 215 38 92 42 50
237 215 39 89 41 50
238 212 38 89 38 50
238 212 39 89 37 51
238 213 38 91 41 51
238 213 39 92 47 53
239 212 39 89 40 51
239 213 39 86 41 44
238 214 38 91 42 51
238 214 39 90 39 48
238 215 39 91 40 47
232 209 40 101 34 43
232 210 40 97 36 43
232 211 40 96 35 41
232 211 41 98 40 43
232 212 40 94 45 51
232 212 41 90 45 49
232 213 40 95 41 45
232 213 41 89 48 48
233 213 40 93 41 50
232 214 40 92 39 42
232 214 41 85 49 57
232 215 41 74 43 54
233 214 40 85 37 39
233 215 40 84 43 52
233 215 41 75 40 50
232 214 42 73 47 59
232 215 42 70 52 68
234 214 40 88 41 51
234 215 40 87 39 53
239 208 40 83 37 44
239 209 40 81 37 43
239 210 40 78 39 43
239 211 40 84 37 48
238 213 40 89 40 49
239 212 40 91 41 54
239 213 40 88 42 47
238 214 40 88 36 46
238 215 40 94 48 53
239 214 40 93 42 49
239 215 40 95 48 51
239 215 41 93 46 45
235 216 39 89 40 51
235 217 39 87 40 53
234 219 39 81 47 55
235 218 39 88 41 52
235 219 39 88 47 52
232 221 39 57 46 72
233 220 39 68 47 65
233 221 39 59 46 67
232 222 39 55 48 77
232 223 39 45 47 77
233 222 39 55 47 72
234 220 39 77 46 55
234 221 39 68 46 62
235 220 39 81 45 53
234 222 39 62 48 70
236 216 38 89 40 52
236 216 39 89 43 54
236 217 39 88 40 52
237 216 39 89 38 51
237 217 39 91 44 54
236 218 39 89 42 51
236 219 39 88 45 51
237 218 39 91 45 54
238 216 39 92 41 50
233 216 41 74 40 47
233 217 41 78 41 44
232 216 42 62 47 62
232 217 42 55 50 68
233 216 42 65 38 51
233 217 42 80 42 46
232 219 41 61 47 72
233 218 40 75 45 62
233 218 41 89 45 56
233 219 40 70 46 66
232 218 42 60 48 64
233 218 42 92 44 54
234 216 40 87 42 52
234 216 41 80 42 46
234 217 40 84 46 48
234 217 41 79 45 52
235 217 40 85 46 48
234 218 40 86 40 51
234 218 41 77 39 47
234 219 40 86 46 58
235 219 40 81 40 52
232 220 40 57 42 72
232 220 41 55 47 76
232 221 40 52 48 77
233 220 40 66 45 67
232 222 40 49 48 78
232 222 41 41 48 81
232 223 40 44 46 77
232 223 41 41 49 80
233 223 40 45 47 74
234 221 40 67 45 62
235 220 40 74 40 57
235 221 40 72 48 66
235 221 41 71 46 64
234 222 40 59 44 67
234 223 40 45 46 73
234 223 41 47 44 72
235 222 40 64 43 65
235 222 41 60 43 64
235 223 41 48 47 71
237 217 40 93 51 55
236 218 40 87 52 51
236 219 40 84 44 53
237 218 40 90 51 52
237 219 40 81 44 50
237 219 41 81 45 51
238 216 40 93 46 51
238 216 41 93 49 48
238 217 40 93 52 50
238 217 41 89 48 45
239 216 41 89 41 40
239 217 41 88 46 42
238 218 40 88 51 50
238 218 41 85 47 48
238 219 41 80 42 46
239 218 41 84 45 44
239 219 41 81 45 45
236 220 40 78 42 56
236 220 41 77 48 63
236 221 41 71 47 63
237 220 41 78 45 57
237 221 41 70 46 63
237 221 42 61 40 60
236 222 41 63 43 60
236 222 42 57 40 59
236 223 42 50 48 63
237 222 42 53 40 61
237 223 42 46 48 65
238 220 41 76 42 54
238 221 41 65 42 61
239 220 41 79 46 52
239 221 41 65 40 58
238 221 42 67 43 61
238 222 41 52 44 69
238 223 41 47 50 74
239 222 41 56 46 72
239 223 40 47 48 75
239 223 41 50 51 78
238 222 42 56 44 64
238 223 42 47 49 70
