ply
format ascii 1.0
comment Version 2, Copyright 2017, 8i Labs, Inc.
comment frame_to_world_scale 0.179523
comment frame_to_world_translation -45.2095 7.18301 -54.3561
comment width 1023
element vertex 171
property float x
property float y
property float z
property uchar red
property uchar green
property uchar blue
end_header
235 193 27 76 42 60
235 194 27 76 40 62
233 192 31 78 36 49
233 193 31 85 46 50
233 194 31 88 36 38
233 195 31 92 45 39
234 193 29 81 42 48
235 192 28 78 44 54
235 192 29 76 43 55
235 193 28 81 42 59
235 193 29 80 41 51
234 192 30 79 47 55
234 192 31 78 39 49
234 193 30 82 42 47
235 192 30 82 53 59
235 194 28 83 48 63
235 194 29 97 46 52
235 195 28 72 50 66
235 195 29 73 43 52
234 194 30 83 34 43
234 195 30 87 48 45
234 195 31 93 51 42
235 194 30 88 41 47
235 195 30 83 46 46
233 196 30 91 38 38
233 196 31 99 42 40
233 197 30 101 44 53
233 197 31 99 42 45
233 198 30 99 38 55
233 198 31 102 40 48
233 199 30 99 39 51
233 199 31 98 38 45
235 196 28 75 45 66
235 196 29 78 45 65
235 197 29 81 47 67
234 196 30 88 46 45
234 197 30 91 43 59
235 196 30 81 48 55
235 197 30 85 44 63
235 198 29 83 39 69
235 199 28 87 42 71
235 199 29 88 43 72
234 198 30 92 39 60
234 199 30 95 45 63
236 192 26 74 47 66
236 192 27 78 51 63
236 193 26 75 50 67
237 192 26 74 49 73
237 193 26 75 48 69
236 194 26 85 46 68
236 194 27 82 40 67
236 195 26 80 44 66
236 195 27 76 45 67
237 194 26 82 49 69
237 195 26 77 45 70
238 192 26 79 51 80
238 193 26 77 49 73
239 192 26 77 49 84
239 193 26 74 52 84
238 194 26 77 47 71
238 195 26 73 45 70
238 195 27 64 46 77
239 194 26 76 56 83
239 194 27 67 46 77
239 195 27 66 45 75
236 195 28 73 48 61
239 194 28 63 42 77
239 195 28 62 49 78
239 195 29 60 52 77
239 195 30 55 49 73
236 196 26 78 44 65
236 196 27 80 45 66
236 197 27 84 44 65
237 196 26 79 45 71
237 197 27 81 43 70
236 198 27 88 41 67
237 198 27 82 42 69
238 196 26 65 44 74
238 196 27 66 44 75
238 197 27 72 44 71
239 196 27 63 48 76
236 196 28 75 43 65
236 197 28 84 46 64
236 198 28 83 46 70
236 198 29 83 46 71
236 199 28 86 47 71
237 198 28 80 48 71
237 199 28 78 49 68
238 197 28 64 41 68
239 196 28 61 48 75
239 196 29 55 47 70
239 197 28 59 43 69
239 197 29 58 43 66
239 196 30 51 43 64
239 197 30 57 46 67
239 197 31 53 44 64
238 198 28 73 47 69
238 198 29 63 45 68
238 199 28 74 48 65
238 199 29 67 46 66
239 198 29 62 46 71
238 199 30 63 43 67
238 199 31 57 43 68
239 198 30 61 43 67
239 198 31 50 40 64
239 199 30 61 43 65
239 199 31 54 41 66
233 200 30 96 36 58
233 200 31 96 36 53
233 201 31 97 40 56
233 202 31 100 43 60
233 203 31 97 39 61
234 200 29 90 45 72
234 201 29 89 38 65
235 200 28 89 40 73
235 200 29 88 38 74
235 201 28 95 42 74
235 201 29 91 39 70
234 200 30 92 40 63
234 201 30 91 41 63
234 201 31 94 45 60
235 202 28 98 41 71
235 202 29 93 42 68
235 203 28 93 44 70
235 203 29 91 45 67
234 202 30 98 46 66
234 202 31 99 42 61
234 203 30 86 44 65
234 203 31 90 43 66
235 203 30 86 43 65
235 204 29 94 46 70
234 204 31 90 46 68
234 205 31 100 46 70
235 204 30 91 47 70
235 204 31 92 48 69
235 205 30 90 48 65
235 205 31 96 43 65
235 206 31 93 39 64
236 200 28 88 42 73
236 201 28 92 46 72
237 200 28 79 46 68
237 200 29 73 45 65
237 201 28 81 47 68
237 201 29 74 42 64
237 201 30 65 45 67
236 202 28 91 44 69
236 203 28 89 44 67
236 203 29 81 43 64
237 202 28 85 45 67
237 202 29 74 41 64
237 203 29 72 38 61
237 202 30 63 42 61
237 202 31 62 45 58
237 203 30 68 43 59
237 203 31 72 45 59
238 200 28 73 47 67
238 200 29 69 43 66
238 201 29 71 43 65
238 200 30 65 41 67
238 200 31 58 44 69
238 201 30 62 43 65
238 201 31 55 45 63
239 200 31 57 47 72
238 202 31 57 45 59
236 204 29 89 47 66
236 204 30 86 46 66
236 205 30 88 46 64
236 205 31 89 39 62
237 204 30 78 47 61
237 204 31 78 39 59
237 205 31 82 34 59
