ply
format ascii 1.0
comment Version 2, Copyright 2017, 8i Labs, Inc.
comment frame_to_world_scale 0.179523
comment frame_to_world_translation -45.2095 7.18301 -54.3561
comment width 1023
element vertex 380
property float x
property float y
property float z
property uchar red
property uchar green
property uchar blue
end_header
225 179 96 133 60 1
226 176 96 133 59 6
226 177 96 134 60 2
227 176 96 133 61 4
227 176 97 133 60 3
227 177 96 134 62 3
227 177 97 134 64 2
226 178 96 133 62 1
226 179 96 133 62 0
227 178 96 134 64 2
227 178 97 133 63 3
227 179 97 134 64 0
225 180 96 133 60 1
225 181 96 129 63 25
224 182 96 117 75 58
224 183 96 103 84 79
225 182 96 116 72 54
225 183 96 100 88 89
226 180 96 131 63 8
226 181 96 127 66 30
226 181 97 125 64 23
227 180 97 132 64 0
227 181 97 124 66 24
226 182 96 111 75 61
226 182 97 111 75 55
226 183 97 96 95 100
227 182 97 108 80 68
227 183 97 95 99 106
227 183 98 95 102 110
228 176 97 134 62 0
228 177 97 134 63 1
228 176 98 135 62 2
228 177 98 134 63 4
229 176 98 134 61 2
229 176 99 133 62 2
229 177 98 134 62 0
229 177 99 133 62 1
228 178 97 134 63 4
228 179 97 135 62 0
228 178 98 134 61 1
229 178 98 135 60 4
229 178 99 136 60 3
229 179 98 135 59 2
229 179 99 135 57 3
230 176 99 133 63 3
230 177 99 133 64 7
230 178 99 135 61 5
230 179 99 136 56 3
230 176 100 132 63 3
230 177 100 133 63 3
231 176 101 133 65 3
231 177 101 133 63 1
230 178 100 135 62 0
230 179 100 134 60 4
231 178 101 134 62 0
231 179 100 133 60 4
231 179 101 130 62 4
228 180 97 132 64 1
228 180 98 129 62 10
228 181 98 119 68 37
229 180 98 130 61 6
229 180 99 127 63 17
229 181 98 113 76 57
229 181 99 110 76 58
228 182 98 102 86 79
228 183 98 94 104 114
229 182 99 97 91 91
229 183 99 95 107 120
230 180 99 125 64 24
230 181 99 106 78 62
230 182 99 92 96 102
230 183 99 96 108 121
230 180 100 121 66 32
230 181 100 102 80 71
231 180 100 117 68 37
231 180 101 115 73 46
231 181 100 101 87 84
231 181 101 98 90 89
230 182 100 92 100 109
230 183 100 101 111 122
231 182 101 97 106 117
231 183 100 102 112 123
231 183 101 105 106 116
224 184 96 99 96 101
224 185 96 97 107 118
225 184 96 96 100 109
225 185 96 100 108 118
224 186 96 100 106 116
225 186 96 103 100 105
225 187 96 98 71 74
226 184 97 96 104 115
226 185 97 100 108 117
227 184 97 98 106 117
227 185 97 100 107 115
227 184 98 97 108 120
227 185 98 104 108 114
226 186 97 105 94 99
226 187 97 99 61 72
227 186 97 104 86 94
227 187 97 101 53 68
227 186 98 104 74 82
227 187 98 99 47 64
225 188 96 109 47 59
225 189 96 115 42 54
225 190 96 114 40 50
225 191 96 113 41 44
226 188 97 104 53 66
226 189 96 110 41 55
226 189 97 107 51 63
227 188 97 103 53 67
227 189 97 104 49 63
227 188 98 100 53 68
227 189 98 101 51 66
226 190 96 110 37 49
226 190 97 107 43 54
226 191 96 111 38 46
226 191 97 110 43 48
227 190 97 102 44 55
227 191 97 105 49 53
227 190 98 101 46 61
227 191 98 100 51 54
228 184 98 100 108 119
228 185 98 103 100 104
229 184 99 101 106 114
229 185 99 101 90 95
228 186 98 102 65 75
228 187 98 96 49 64
229 186 99 97 57 72
229 187 99 92 51 66
230 184 99 104 106 113
230 185 99 99 79 84
230 186 99 94 56 70
230 184 100 103 100 106
230 185 100 93 73 79
231 184 101 97 85 94
231 185 100 85 58 67
231 185 101 86 62 72
230 186 100 90 59 73
230 187 100 87 55 74
231 186 100 87 58 74
231 186 101 86 59 78
231 187 100 83 54 77
231 187 101 83 57 77
228 188 98 95 51 66
228 189 98 99 49 67
228 189 99 95 51 68
229 188 99 90 52 68
229 189 99 91 54 72
228 190 98 99 48 62
228 190 99 92 47 62
228 191 98 96 49 53
228 191 99 95 51 57
229 190 99 89 50 64
229 191 99 91 52 59
229 190 100 84 51 65
229 191 100 87 53 61
230 188 100 87 54 75
230 189 100 87 54 74
231 188 100 82 52 75
231 188 101 82 57 76
231 189 101 81 54 73
231 189 102 78 54 74
230 190 100 80 51 67
230 190 101 81 52 66
230 191 100 85 54 63
230 191 101 81 55 63
231 190 101 82 53 71
231 191 101 84 56 68
231 190 102 79 54 73
231 191 102 74 55 68
232 176 102 134 66 1
232 177 102 134 63 2
232 177 103 134 62 2
233 176 102 134 65 0
233 176 103 134 63 1
233 177 102 134 63 1
233 177 103 134 61 2
232 179 101 126 66 7
232 178 102 134 64 3
232 178 103 132 65 5
232 179 102 125 68 19
233 178 103 130 65 5
233 179 103 119 74 41
234 178 103 121 67 21
234 179 103 110 79 58
232 180 101 113 77 51
232 181 101 97 92 94
232 180 102 111 79 59
232 181 102 98 94 95
233 180 103 105 86 74
233 181 102 94 99 106
233 181 103 97 108 119
232 182 101 100 109 120
232 182 102 99 109 121
232 183 102 103 98 108
233 182 102 103 109 121
233 182 103 103 109 120
233 183 102 97 92 104
233 183 103 93 89 102
234 180 103 96 98 102
234 182 103 102 108 120
234 183 103 89 86 99
233 176 104 134 60 1
234 176 104 134 60 1
234 177 104 133 61 0
235 176 105 135 62 1
235 177 105 131 64 2
234 178 104 126 63 7
234 179 104 106 84 67
235 178 104 120 66 23
235 178 105 121 66 21
235 179 104 105 85 72
235 179 105 101 91 87
234 180 104 95 100 107
234 181 104 100 111 124
235 180 104 98 106 117
235 180 105 99 109 120
235 181 104 106 115 126
234 182 104 101 107 119
234 183 104 79 79 94
235 182 104 93 101 114
235 183 104 64 71 88
236 176 105 134 64 5
236 177 105 126 68 15
237 176 106 131 65 5
237 177 106 119 73 33
236 178 105 113 75 38
236 179 105 100 97 96
236 178 106 105 83 64
236 179 106 101 93 88
237 178 106 105 86 71
237 179 106 98 105 114
238 176 106 132 63 2
238 176 107 127 68 9
238 177 107 111 82 59
239 176 107 121 75 29
238 178 106 100 98 96
238 178 107 101 97 95
238 179 106 99 101 104
238 179 107 102 111 123
239 179 107 104 114 127
239 176 108 117 78 42
239 177 108 106 93 85
239 178 108 101 108 118
239 179 108 107 117 130
236 180 105 100 111 124
236 181 105 107 116 127
237 180 105 104 115 128
237 181 105 104 114 126
237 180 106 102 114 128
237 181 106 98 107 120
236 182 105 80 91 106
236 183 105 57 67 88
237 182 105 78 88 104
237 183 105 54 66 87
236 183 106 56 65 88
237 182 106 65 74 93
237 183 106 54 63 86
237 183 107 53 61 87
238 180 106 103 115 129
238 180 107 104 116 130
238 181 106 88 100 114
238 181 107 77 90 105
239 180 107 100 110 123
239 181 107 72 85 101
238 182 107 56 68 88
238 183 107 54 63 87
239 182 107 57 70 89
239 180 108 91 103 117
239 181 108 64 78 95
238 182 108 50 63 86
238 183 108 51 64 88
239 182 108 53 64 87
239 183 108 49 64 88
239 183 109 47 66 89
232 184 101 93 77 89
232 185 101 82 59 77
232 184 102 85 69 86
232 185 102 76 55 77
233 184 102 79 68 88
233 184 103 77 68 88
233 185 102 74 59 81
233 185 103 69 59 83
232 186 101 82 59 77
232 187 101 79 61 78
232 186 102 75 59 78
232 187 102 76 61 78
233 186 102 72 61 80
233 186 103 68 61 81
233 187 102 70 60 79
233 187 103 69 61 80
234 184 103 76 65 87
234 185 103 71 62 85
234 186 103 68 62 83
234 187 103 66 61 82
232 188 102 77 63 79
232 189 102 74 57 77
232 189 103 71 59 76
233 188 102 73 60 79
233 188 103 69 63 81
233 189 103 68 58 77
232 190 102 78 56 75
232 190 103 74 57 77
232 191 102 75 57 72
232 191 103 75 55 73
233 190 103 73 58 80
234 184 104 68 64 85
234 185 104 66 66 87
235 184 104 61 63 83
235 184 105 59 64 85
235 185 104 66 68 89
235 185 105 61 69 90
234 186 104 62 61 85
234 187 104 62 63 85
235 186 104 60 63 86
235 186 105 56 66 88
235 187 105 55 67 86
233 189 104 70 60 80
233 190 104 73 59 80
233 191 104 73 57 78
234 188 104 60 63 81
234 189 104 69 62 80
234 189 105 69 64 82
235 188 105 60 63 81
235 189 105 65 63 83
235 188 106 62 63 83
235 189 106 63 63 84
234 190 104 73 63 81
234 190 105 69 62 82
234 191 105 68 60 77
235 190 106 66 62 83
235 191 106 66 62 82
236 184 105 54 62 86
236 185 105 58 68 90
236 184 106 55 63 89
236 185 106 56 67 91
237 184 106 55 62 89
237 184 107 53 66 92
237 185 106 56 68 94
237 185 107 55 70 94
236 186 106 47 64 87
236 187 106 58 66 87
237 186 107 49 66 89
237 187 107 61 66 89
238 184 107 44 65 90
238 184 108 51 71 93
238 185 108 49 71 94
239 184 108 47 69 93
239 184 109 48 69 93
239 185 108 47 70 94
239 185 109 49 68 93
238 186 108 54 67 89
238 187 108 61 69 90
239 186 108 55 71 92
239 186 109 53 72 95
239 187 108 60 69 93
239 187 109 60 72 96
236 188 106 59 61 83
236 189 106 63 65 85
237 188 107 61 62 85
237 189 107 64 68 89
236 190 106 66 66 84
236 190 107 65 68 86
236 191 106 66 65 85
236 191 107 64 68 87
237 190 107 66 72 90
237 191 107 64 73 91
237 190 108 65 73 92
237 191 108 66 79 96
238 188 108 62 66 90
238 189 108 66 72 95
239 188 108 63 72 96
239 188 109 64 75 100
239 189 109 67 79 103
238 190 108 66 77 97
238 191 108 69 85 104
239 190 109 70 86 108
239 191 109 70 90 111
239 190 110 70 89 111
239 191 110 70 92 113
