ply
format ascii 1.0
comment Version 2, Copyright 2017, 8i Labs, Inc.
comment frame_to_world_scale 0.179523
comment frame_to_world_translation -45.2095 7.18301 -54.3561
comment width 1023
element vertex 267
property float x
property float y
property float z
property uchar red
property uchar green
property uchar blue
end_header
226 31 247 129 115 105
227 31 247 128 113 103
229 31 245 127 111 101
228 30 247 126 110 99
228 31 246 128 112 102
228 31 247 127 111 101
229 30 247 126 109 99
229 31 246 127 111 101
229 31 247 127 111 100
230 29 247 119 100 87
231 29 247 117 98 84
230 31 245 126 110 99
231 31 244 125 108 97
231 31 245 124 107 96
230 30 246 124 107 96
230 30 247 123 106 94
230 31 246 125 109 98
231 30 246 123 105 93
231 30 247 121 102 89
226 27 254 124 105 91
226 27 255 124 105 90
227 27 254 121 102 88
227 27 255 122 102 87
224 31 248 130 117 108
224 31 249 131 117 108
225 31 248 130 115 106
225 31 249 130 116 107
224 30 250 130 116 106
224 30 251 130 116 106
224 31 250 130 116 107
225 30 250 129 114 104
225 30 251 129 113 103
225 31 250 130 115 106
226 29 250 126 109 97
226 29 251 126 109 97
227 29 250 124 106 94
227 29 251 124 106 93
226 30 249 128 112 102
226 31 248 129 114 104
226 31 249 129 114 105
227 30 248 127 111 100
227 30 249 126 109 97
227 31 248 128 112 102
226 30 250 127 111 100
226 30 251 127 111 100
224 29 252 129 113 103
224 29 253 130 114 103
225 29 252 128 112 101
225 29 253 128 111 99
224 28 255 128 110 96
224 29 254 129 112 101
224 29 255 128 112 99
225 28 254 126 109 96
225 28 255 126 108 94
225 29 254 128 111 99
224 30 252 130 115 105
226 28 252 125 108 95
226 28 253 126 108 95
226 29 252 126 109 98
227 28 252 123 104 91
227 28 253 122 103 89
227 29 252 124 107 94
226 28 254 125 106 94
226 28 255 125 106 92
227 28 254 122 103 89
230 27 251 115 95 80
231 27 250 112 92 76
231 27 251 113 93 77
228 27 253 119 99 85
229 27 252 117 97 82
229 27 253 117 97 82
228 26 255 119 98 83
228 27 254 120 100 84
228 27 255 120 100 84
229 26 254 117 97 81
229 26 255 117 97 81
229 27 254 118 98 82
230 25 255 115 95 79
231 25 254 113 93 78
231 25 255 114 94 78
230 26 252 114 93 78
230 26 253 114 94 78
230 27 252 115 95 80
230 27 253 116 96 80
231 26 252 112 92 76
231 26 253 113 93 77
231 27 252 113 92 77
230 26 254 115 95 79
230 26 255 116 95 80
231 26 254 113 93 78
228 29 249 123 105 92
229 29 248 121 103 90
229 29 249 121 102 88
228 28 251 121 103 89
228 29 250 122 103 90
228 29 251 122 103 90
229 28 250 119 99 85
229 28 251 119 99 84
229 29 250 120 100 86
228 30 248 126 109 98
228 30 249 125 108 96
229 30 248 123 106 94
230 28 249 116 96 81
230 29 248 118 99 85
230 29 249 118 98 84
231 28 249 114 93 78
231 29 248 115 95 80
230 28 250 116 96 81
230 28 251 116 96 81
231 28 250 113 93 78
228 28 252 120 101 87
228 28 253 120 100 86
229 28 252 118 99 84
234 23 255 109 90 74
235 23 255 109 89 74
236 23 254 108 88 72
236 23 255 108 89 73
237 23 254 108 88 71
237 23 255 108 88 72
238 23 253 108 87 70
239 23 253 108 86 69
238 22 255 108 88 72
238 23 254 108 87 71
238 23 255 108 88 71
239 22 255 108 88 72
239 23 254 108 87 70
233 31 243 123 106 94
234 31 243 122 104 92
235 31 243 121 100 87
232 29 247 116 96 81
233 28 247 114 93 78
233 29 246 118 99 85
233 29 247 116 95 80
232 30 245 123 104 92
232 31 244 123 106 94
232 31 245 123 105 93
233 30 245 121 102 89
233 31 244 123 104 92
232 30 246 121 102 89
233 30 246 120 100 86
235 29 245 118 98 83
234 28 247 113 92 77
234 29 246 118 97 83
234 29 247 116 96 81
235 28 247 113 91 75
235 29 246 117 96 81
234 30 244 121 101 88
234 30 245 120 99 86
234 31 244 122 103 90
235 30 244 120 99 85
235 30 245 119 98 84
237 27 247 111 88 71
238 27 247 111 88 71
239 27 247 112 89 72
236 30 243 119 97 83
236 31 242 121 101 88
236 31 243 120 99 86
237 30 243 118 97 82
237 31 242 121 101 88
237 31 243 119 98 84
238 31 241 121 101 88
239 31 241 121 101 89
238 30 243 118 97 83
238 31 242 120 100 86
238 31 243 119 98 84
239 30 243 119 97 83
239 31 242 120 100 87
236 29 245 117 96 81
237 29 245 116 94 78
236 28 246 114 91 75
236 28 247 112 89 73
236 29 246 116 94 79
237 28 246 113 90 74
237 28 247 112 89 73
237 29 246 114 92 76
236 30 244 119 97 82
237 30 244 118 96 81
238 29 244 116 93 78
238 29 245 115 92 77
239 29 244 115 93 78
239 29 245 115 92 76
238 28 246 113 90 74
238 28 247 112 89 73
238 29 246 114 91 75
239 28 246 114 91 75
239 28 247 112 89 73
238 30 244 117 95 80
239 30 244 116 94 79
233 27 249 111 90 74
232 27 250 112 91 75
232 27 251 112 91 75
233 26 251 110 89 73
233 27 250 111 90 74
233 27 251 110 90 73
234 27 248 110 88 72
234 27 249 110 89 72
235 27 248 110 88 71
235 27 249 109 87 71
234 26 250 109 87 71
234 26 251 109 88 71
234 27 250 109 88 71
235 26 250 109 87 70
235 26 251 108 87 71
235 27 250 109 87 70
232 25 253 112 91 76
233 25 253 111 90 74
232 25 254 112 92 77
232 25 255 113 93 77
233 24 255 112 92 76
233 25 254 111 91 76
232 26 252 111 91 75
232 26 253 112 92 76
233 26 252 110 89 73
234 25 252 109 88 72
234 25 253 110 89 73
235 24 253 109 89 73
235 25 252 109 88 72
235 25 253 109 88 72
234 24 254 109 89 73
234 24 255 110 90 74
234 25 254 110 90 74
235 24 254 109 89 73
235 24 255 109 89 73
234 26 252 109 88 72
235 26 252 108 87 71
232 28 248 114 93 78
232 28 249 112 92 76
232 29 248 114 94 79
233 28 248 113 92 76
233 28 249 111 90 74
232 28 250 112 92 76
234 28 248 111 90 74
235 28 248 110 88 72
236 25 251 108 87 70
237 25 251 108 86 69
236 26 249 109 87 70
236 27 248 110 87 71
236 27 249 109 87 70
237 26 249 109 87 70
237 27 248 110 87 71
236 26 250 108 87 70
236 26 251 108 87 70
237 26 250 109 86 69
237 26 251 108 86 70
238 25 250 109 86 69
238 25 251 108 86 69
239 25 250 109 87 70
239 25 251 109 87 70
238 26 248 110 87 70
238 26 249 109 87 70
238 27 248 110 87 71
239 26 248 111 88 71
239 26 249 110 87 70
239 27 248 111 88 71
238 26 250 109 86 69
236 24 253 108 88 71
236 25 252 108 87 71
237 24 252 108 87 70
237 24 253 108 87 71
237 25 252 108 87 70
236 24 254 108 88 72
237 24 254 108 88 71
238 24 252 108 86 69
238 24 253 108 87 70
238 25 252 108 86 69
239 24 252 108 86 69
239 24 253 108 86 69
