ply
format ascii 1.0
comment Version 2, Copyright 2017, 8i Labs, Inc.
comment frame_to_world_scale 0.179523
comment frame_to_world_translation -45.2095 7.18301 -54.3561
comment width 1023
element vertex 371
property float x
property float y
property float z
property uchar red
property uchar green
property uchar blue
end_header
225 160 96 96 85 78
225 161 96 103 92 83
225 162 96 102 91 81
225 163 96 104 94 84
226 160 96 92 81 73
226 161 96 100 89 81
227 160 96 95 84 77
227 160 97 95 84 77
227 161 96 100 89 79
227 161 97 97 86 78
226 162 96 103 92 82
226 163 96 106 95 85
227 162 96 104 92 82
227 162 97 100 89 80
227 163 96 107 95 86
227 163 97 106 95 85
225 164 96 104 93 85
225 165 96 100 89 81
225 166 96 97 87 78
225 167 96 98 86 75
226 164 96 107 96 86
226 165 96 103 92 83
227 164 96 108 96 86
227 164 97 108 97 86
227 165 96 105 94 85
227 165 97 105 94 84
226 166 96 101 90 79
226 167 96 101 88 74
227 166 96 106 93 81
227 166 97 108 95 82
227 167 96 106 89 72
227 167 97 108 91 73
228 160 97 92 82 76
228 161 97 94 84 76
229 160 97 94 84 77
229 161 97 94 84 77
228 162 97 98 87 78
228 163 97 103 91 81
229 162 97 93 83 77
229 163 97 99 88 80
230 160 97 97 87 79
230 160 98 100 89 80
230 161 98 101 90 81
231 160 98 105 93 83
231 161 98 105 92 84
230 162 98 97 87 79
230 163 98 97 87 80
231 162 98 102 91 82
231 162 99 105 94 85
231 163 98 99 89 81
231 163 99 100 90 82
228 164 97 106 95 86
228 165 97 106 95 86
229 164 97 100 90 82
229 165 97 107 96 86
228 166 97 111 97 83
228 167 97 110 91 72
229 166 97 111 96 80
229 167 97 111 89 67
230 164 98 98 88 79
230 165 98 106 93 80
231 164 98 96 86 78
231 164 99 98 87 79
231 165 99 104 89 74
230 166 98 107 90 75
230 167 98 112 88 62
230 167 99 116 86 58
231 166 99 109 89 69
231 167 99 115 85 59
231 167 100 120 82 47
225 168 96 102 86 72
225 169 96 109 85 59
225 170 96 122 73 23
225 171 96 130 62 2
226 168 96 104 86 68
226 169 96 112 79 46
227 168 96 107 86 68
227 168 97 110 82 61
227 169 97 114 72 32
226 170 96 125 64 9
226 171 96 131 59 2
227 170 96 118 67 19
227 170 97 128 56 8
227 171 97 131 54 5
225 172 96 132 63 0
225 173 96 133 62 4
225 174 96 133 58 2
226 172 96 132 62 2
226 172 97 132 61 2
226 173 96 133 63 4
227 172 96 132 60 2
227 172 97 131 57 3
227 173 97 132 60 6
226 174 96 133 60 5
226 175 96 133 59 3
227 174 96 133 62 4
227 174 97 133 63 4
227 175 96 133 61 7
227 175 97 132 62 2
228 168 97 110 81 53
228 169 97 116 71 28
229 168 97 112 80 47
229 169 97 123 68 19
229 168 98 118 75 32
229 169 98 124 67 16
228 170 97 128 57 8
228 171 97 131 54 4
228 171 98 131 55 4
229 170 98 130 58 4
229 171 98 132 59 1
230 168 98 117 77 39
230 168 99 120 76 33
230 169 98 126 67 14
230 169 99 126 67 12
231 168 99 123 71 14
231 169 99 129 65 2
230 170 98 131 61 2
230 170 99 134 62 0
230 171 98 133 63 3
230 171 99 134 63 2
231 170 99 133 63 0
231 171 99 135 64 1
231 171 100 134 64 0
228 172 97 131 54 5
228 173 97 132 60 4
228 172 98 131 56 6
228 173 98 132 57 8
229 172 98 132 59 3
229 173 98 132 60 5
229 173 99 131 60 3
228 174 97 132 62 3
228 175 97 133 62 0
228 174 98 132 59 3
228 175 98 133 61 2
229 174 98 132 60 3
229 174 99 133 62 2
229 175 98 133 60 2
229 175 99 133 60 2
230 172 99 133 63 1
230 173 99 132 63 1
231 172 99 134 64 1
230 174 99 133 62 2
230 175 99 133 61 2
231 172 100 134 64 5
231 173 100 133 64 4
230 174 100 132 62 3
230 175 100 133 62 4
231 174 100 133 63 6
231 174 101 133 64 1
231 175 100 133 62 4
231 175 101 134 65 3
232 160 99 105 93 82
232 161 99 107 96 85
233 160 99 101 89 79
232 162 99 107 96 86
232 163 99 103 93 84
233 160 100 98 87 78
233 161 100 104 93 82
232 162 100 106 96 87
232 163 100 103 93 85
233 162 100 106 96 85
233 162 101 105 94 85
233 163 100 104 93 84
233 163 101 106 95 84
234 160 100 94 83 76
234 160 101 95 85 77
234 161 100 102 91 80
234 161 101 100 89 80
235 160 101 99 88 80
235 161 101 102 90 82
235 160 102 103 91 83
234 162 101 104 93 84
234 163 101 107 96 85
235 162 101 105 94 85
235 163 101 113 99 84
235 163 102 115 98 79
232 164 99 100 89 79
232 164 100 101 89 80
232 165 100 105 87 70
233 164 100 101 88 78
233 164 101 105 92 80
233 165 100 104 86 69
233 165 101 108 86 67
232 166 100 112 83 62
232 167 100 119 77 40
233 166 101 115 78 48
233 167 100 128 62 3
233 167 101 124 66 26
234 164 101 109 94 79
234 165 101 111 88 67
234 165 102 118 87 62
235 164 102 115 95 74
235 165 102 118 85 56
234 166 101 121 76 43
234 167 101 128 65 15
234 166 102 123 75 41
234 167 102 127 69 37
235 166 102 125 74 36
235 167 102 131 69 9
236 160 102 108 97 87
236 161 102 106 94 86
237 160 103 108 98 87
237 161 102 108 97 89
237 161 103 107 96 88
236 162 101 111 98 85
236 162 102 109 96 85
236 163 102 115 98 80
237 162 102 111 97 85
237 162 103 110 95 82
237 163 103 116 94 70
238 163 103 114 91 67
236 164 102 116 94 68
236 164 103 116 92 63
236 165 102 117 88 59
236 165 103 123 82 44
237 164 103 118 86 55
237 165 103 126 77 40
236 166 103 129 73 25
236 167 103 131 69 9
237 166 103 131 68 11
238 160 104 106 96 87
238 161 104 107 95 85
239 160 104 110 99 89
239 160 105 111 99 89
239 161 104 109 95 82
239 161 105 112 97 81
239 160 106 112 100 90
239 161 106 116 99 80
238 162 104 110 92 75
238 163 104 117 88 57
239 162 104 110 90 69
239 162 105 113 89 64
239 163 104 118 85 54
239 163 105 122 82 49
239 162 106 119 89 62
239 163 106 125 80 41
237 165 104 127 72 32
237 166 104 131 64 6
237 167 104 132 65 2
238 164 104 122 78 41
238 164 105 127 69 17
238 165 104 127 70 30
238 165 105 128 67 17
239 164 105 127 72 18
239 165 105 129 69 17
239 164 106 130 72 20
239 165 106 132 68 3
238 166 105 132 62 2
238 167 105 133 61 0
238 166 106 134 62 1
238 167 106 133 62 0
239 166 106 133 66 0
239 166 107 134 66 0
239 167 106 134 63 0
239 167 107 134 66 0
232 170 99 133 61 2
232 168 100 127 65 5
232 169 100 131 62 3
233 168 100 130 60 4
233 168 101 131 59 3
233 169 100 131 60 2
233 169 101 131 60 3
232 170 100 132 61 4
232 171 100 133 62 5
232 171 101 132 62 4
233 170 101 132 60 3
233 171 101 132 62 3
233 171 102 132 64 0
234 168 101 131 61 3
234 169 101 131 60 3
234 169 102 132 59 2
235 168 102 132 66 5
235 169 102 132 60 2
235 169 103 133 65 1
234 170 101 132 59 2
234 170 102 133 62 0
234 171 102 132 64 0
234 171 103 133 66 0
235 170 102 133 62 0
235 170 103 133 66 0
235 171 103 133 66 0
232 172 100 133 63 4
232 172 101 133 64 2
232 173 100 133 64 4
232 173 101 133 66 4
233 172 101 132 63 2
232 173 102 133 65 0
233 172 102 132 63 0
233 173 102 133 63 0
233 173 103 133 61 0
232 174 101 134 66 2
232 175 101 134 66 3
232 174 102 134 66 0
232 175 102 134 66 0
233 174 102 133 64 1
233 174 103 133 62 0
233 175 102 133 65 3
233 175 103 133 63 1
234 172 102 132 63 0
234 172 103 132 62 0
234 173 103 132 59 2
235 172 103 133 63 0
234 174 103 133 61 1
236 168 103 132 67 0
236 169 103 133 67 0
236 170 103 134 69 0
235 171 104 134 67 0
235 172 104 133 63 1
235 173 104 133 62 2
234 174 104 132 61 2
234 175 104 133 61 0
235 174 104 134 64 1
235 174 105 134 65 0
235 175 105 134 62 1
236 168 104 133 65 0
236 169 104 133 67 0
237 168 104 134 65 0
237 168 105 134 63 0
237 169 104 134 66 0
237 169 105 134 65 0
236 170 104 134 68 0
236 171 104 134 68 0
237 170 104 134 67 0
237 170 105 134 64 0
237 171 105 134 66 0
238 168 105 133 62 0
238 169 105 134 65 0
238 168 106 133 63 0
238 169 106 133 65 0
239 168 106 133 64 0
239 168 107 134 67 2
239 169 106 133 66 0
239 169 107 134 68 3
238 170 105 133 64 0
238 171 105 134 63 0
238 170 106 133 65 0
238 171 106 134 63 0
239 170 106 134 62 1
239 170 107 135 66 1
239 171 106 135 64 1
239 171 107 136 67 0
236 172 104 134 66 0
236 172 105 134 68 0
236 173 104 134 66 0
236 173 105 135 67 0
237 172 105 135 67 0
237 173 105 135 68 0
237 173 106 135 69 0
236 174 105 135 68 0
236 175 105 136 66 0
237 174 105 136 70 0
237 175 105 136 64 0
236 174 106 136 68 0
236 175 106 136 66 1
237 174 106 136 69 0
237 175 106 136 65 0
238 172 106 135 66 0
238 172 107 136 66 0
238 173 106 135 67 0
238 173 107 136 67 0
239 172 107 136 67 0
239 173 107 136 66 2
238 174 106 136 68 0
238 174 107 136 65 0
238 175 106 135 64 1
238 175 107 135 64 0
239 174 107 137 64 4
239 175 107 135 65 0
239 173 108 136 66 3
239 174 108 137 63 0
239 175 108 131 66 4
