ply
format ascii 1.0
comment Version 2, Copyright 2017, 8i Labs, Inc.
comment frame_to_world_scale 0.179523
comment frame_to_world_translation -45.2095 7.18301 -54.3561
comment width 1023
element vertex 234
property float x
property float y
property float z
property uchar red
property uchar green
property uchar blue
end_header
231 211 272 90 86 92
231 212 272 93 72 82
231 213 272 106 30 61
230 214 272 123 17 57
230 215 272 121 25 64
231 214 272 122 16 57
231 215 272 123 25 65
231 215 273 124 37 72
230 216 272 117 78 80
230 217 272 131 124 119
231 216 272 117 75 80
231 216 273 121 79 85
231 217 272 126 117 111
231 217 273 128 117 110
230 218 272 141 137 136
230 219 272 138 135 136
230 219 273 136 133 135
231 218 272 137 133 131
231 218 273 139 135 134
231 219 273 139 136 137
229 220 272 124 123 126
229 221 272 129 127 130
228 222 272 141 137 139
228 223 272 134 131 133
229 222 272 141 137 139
229 223 272 141 137 138
229 223 273 143 138 139
230 220 272 126 125 128
230 220 273 133 131 133
230 221 272 127 126 129
230 221 273 133 131 134
231 220 273 139 135 136
231 221 273 138 134 136
231 220 274 141 136 137
231 221 274 136 132 133
230 222 273 135 132 135
230 223 273 141 137 138
230 223 274 135 132 134
231 222 274 126 123 126
231 223 274 126 124 127
231 223 275 129 126 129
232 208 272 103 22 52
232 209 272 111 25 53
233 208 272 97 24 52
233 208 273 100 23 50
233 209 272 109 23 53
233 209 273 108 23 52
232 210 272 106 45 62
232 211 272 94 72 79
233 210 272 109 39 60
233 210 273 107 42 60
233 211 273 96 67 72
234 208 273 91 38 61
234 209 273 104 24 53
234 209 274 101 27 54
235 208 274 85 56 70
235 209 274 98 32 53
234 210 273 108 36 58
234 211 273 102 54 62
234 210 274 107 35 56
234 211 274 97 67 70
235 210 274 106 30 51
235 211 274 103 50 63
235 211 275 98 56 66
232 212 272 93 78 85
232 212 273 94 80 87
232 213 272 98 50 68
232 213 273 102 38 63
233 212 273 91 82 86
233 213 273 96 49 66
233 213 274 92 58 68
232 214 273 120 18 55
232 215 273 125 34 68
233 214 273 113 29 57
233 214 274 115 27 55
233 215 274 124 34 65
234 212 274 90 87 88
234 212 275 90 89 89
234 213 274 92 68 74
234 213 275 93 81 84
235 212 275 88 84 86
235 213 275 91 84 87
234 214 274 105 36 58
234 214 275 103 38 62
234 215 274 122 28 62
234 215 275 119 30 64
235 214 275 95 55 68
235 215 275 110 26 59
235 214 276 100 39 60
235 215 276 114 27 62
236 208 274 79 63 74
236 209 274 93 36 53
236 209 275 90 43 58
237 208 274 72 65 79
237 208 275 73 61 76
237 209 275 85 49 64
236 210 275 102 30 45
236 211 275 102 42 60
237 210 275 97 31 48
237 211 275 104 32 54
238 208 275 63 63 79
238 209 275 80 56 70
239 208 275 53 62 79
238 210 275 91 38 55
237 211 276 103 42 60
238 209 276 81 51 65
239 208 276 59 61 78
239 209 276 76 57 72
238 210 276 90 39 54
238 211 276 102 32 53
239 210 276 90 42 59
239 211 276 101 28 49
236 212 275 89 78 83
236 212 276 92 75 81
236 213 276 91 86 89
237 212 276 91 65 74
237 213 276 89 81 87
236 214 276 91 62 69
236 215 276 108 31 58
236 215 277 113 26 58
237 214 276 88 67 74
237 214 277 89 70 77
237 215 277 105 37 57
238 212 276 97 54 67
238 212 277 94 54 66
238 213 276 89 76 83
238 213 277 89 75 82
239 212 276 101 37 56
239 212 277 99 43 61
239 213 277 90 67 75
238 214 277 90 77 81
238 215 277 100 41 59
239 214 277 91 82 84
238 215 278 105 34 59
239 215 278 97 52 66
232 216 273 125 77 86
232 217 273 134 125 119
232 216 274 128 96 96
232 217 274 135 125 119
233 216 274 124 74 85
233 217 274 131 118 114
232 218 273 139 136 134
232 219 273 137 133 134
232 218 274 135 131 129
232 219 274 136 132 133
233 218 274 132 128 126
233 218 275 128 125 125
233 219 274 130 127 128
233 219 275 128 126 127
234 216 275 121 62 78
234 217 275 129 110 108
234 218 275 135 130 127
234 219 275 132 129 130
234 217 276 129 105 105
235 216 276 117 50 71
235 217 276 126 95 97
234 218 276 140 134 131
234 219 276 139 135 136
235 218 276 141 132 127
235 218 277 144 137 133
235 219 276 144 141 141
235 219 277 145 141 141
232 220 274 140 136 136
232 221 274 137 133 134
232 221 275 137 132 133
233 220 275 140 135 137
233 221 275 142 137 138
232 222 274 130 127 129
232 222 275 131 128 129
232 223 275 133 130 133
233 222 275 139 135 136
233 223 275 138 134 136
234 220 275 140 135 136
234 221 275 143 139 140
233 222 276 142 138 139
233 223 276 140 137 140
234 220 276 140 136 137
234 221 276 140 137 139
235 220 276 137 134 136
235 220 277 133 131 134
235 221 277 126 125 128
234 222 276 144 140 142
234 222 277 144 140 143
234 223 276 140 138 142
234 223 277 136 135 141
235 222 277 133 131 135
235 223 277 136 135 140
235 223 278 133 134 140
236 216 276 116 34 64
236 216 277 115 41 66
236 217 277 119 75 84
237 216 277 116 33 64
237 217 277 116 62 78
237 217 278 117 56 75
236 218 277 135 122 118
236 219 277 145 140 139
237 218 277 121 96 94
236 219 278 143 140 140
237 218 278 124 104 100
237 219 278 141 136 132
238 216 278 116 31 65
238 217 278 116 42 70
239 216 278 113 29 63
239 217 278 117 30 65
239 217 279 117 34 65
238 218 278 115 75 81
238 219 278 132 122 117
238 219 279 126 117 113
239 218 279 114 52 71
239 219 279 114 100 99
236 220 277 136 134 136
236 221 277 127 126 129
236 220 278 140 137 139
236 221 278 134 131 134
237 220 278 144 140 141
237 221 278 143 140 141
236 222 278 133 131 134
236 223 278 133 133 139
237 222 278 140 137 140
237 222 279 142 140 144
237 223 278 136 135 140
237 223 279 128 131 139
238 220 278 143 138 137
238 220 279 137 134 134
238 221 279 142 140 142
239 220 279 120 120 121
239 221 279 125 127 131
238 222 279 140 139 144
238 223 279 125 130 139
239 222 279 130 132 139
239 221 280 121 124 130
238 223 280 118 125 135
239 222 280 126 130 138
239 223 280 119 126 136
