ply
format ascii 1.0
comment Version 2, Copyright 2017, 8i Labs, Inc.
comment frame_to_world_scale 0.179523
comment frame_to_world_translation -45.2095 7.18301 -54.3561
comment width 1023
element vertex 400
property float x
property float y
property float z
property uchar red
property uchar green
property uchar blue
end_header
227 241 39 76 27 32
227 242 39 83 32 34
227 243 38 91 34 33
227 243 39 95 32 37
227 244 38 101 31 30
227 244 39 102 34 30
227 245 38 100 35 29
227 245 39 106 33 27
227 247 37 107 22 31
226 247 39 107 35 32
227 246 38 101 30 28
227 246 39 98 30 27
227 247 38 106 31 34
227 247 39 102 33 29
230 243 35 93 34 42
231 242 35 73 37 34
231 243 35 87 35 39
229 240 37 72 32 39
229 241 37 71 33 35
228 240 39 77 29 34
228 241 38 78 37 39
228 241 39 78 31 35
229 240 38 70 32 35
229 240 39 67 36 39
228 242 37 81 31 36
228 243 37 99 31 37
229 242 36 89 31 34
229 242 37 81 31 34
229 243 36 103 28 41
229 243 37 103 33 43
228 242 38 79 29 32
228 243 38 90 31 32
230 240 37 56 36 37
230 241 36 72 36 37
230 241 37 74 32 39
231 240 37 59 37 38
231 241 36 69 37 37
230 240 38 52 37 38
230 242 36 82 37 36
230 243 36 99 33 43
231 242 36 71 41 35
229 244 35 100 33 37
229 245 35 104 28 31
229 246 35 104 26 30
229 247 34 104 31 36
229 247 35 105 29 36
231 245 33 89 34 33
230 244 34 90 38 33
230 244 35 101 34 37
230 245 34 98 30 31
230 245 35 103 26 33
231 244 34 89 36 34
231 245 34 90 34 31
230 246 33 98 28 32
230 247 33 97 34 34
231 246 33 94 32 33
231 247 32 94 28 37
231 247 33 96 31 37
230 246 34 104 27 33
230 247 34 104 30 36
230 247 35 111 28 35
228 244 36 103 31 40
228 244 37 99 25 32
228 245 36 105 35 35
228 245 37 101 33 34
229 244 36 101 31 40
229 245 36 106 34 35
228 244 38 99 30 31
228 246 36 104 33 32
228 246 37 103 32 28
228 247 36 105 28 32
228 247 37 110 32 36
227 240 41 84 25 29
227 241 40 81 26 29
227 241 41 87 28 33
227 240 42 88 23 30
227 240 43 92 26 32
227 241 42 88 29 30
227 241 43 92 34 32
227 242 40 89 32 35
227 242 41 90 33 35
227 243 40 95 28 37
227 243 41 98 30 38
226 243 42 99 36 40
227 242 42 93 38 38
227 242 43 95 41 36
227 243 42 100 39 44
227 243 43 98 36 37
227 241 44 95 42 36
227 242 44 99 43 36
227 243 44 100 35 33
227 243 45 99 33 28
226 244 41 106 23 32
226 245 40 108 27 37
226 245 41 106 30 39
227 244 40 103 31 37
227 244 41 106 24 35
227 245 40 103 26 31
226 244 42 101 29 31
226 244 43 100 31 36
226 245 42 104 33 34
226 245 43 99 32 34
226 246 40 104 32 30
226 246 41 105 30 36
226 247 40 103 29 29
226 247 41 107 26 33
227 246 40 103 38 32
226 246 42 107 28 35
226 246 43 104 31 33
226 247 42 107 28 37
226 247 43 102 25 30
225 247 46 97 32 40
225 247 47 96 31 43
226 244 44 99 33 35
226 245 44 100 32 35
226 245 45 98 32 35
227 244 44 98 31 32
227 244 45 96 35 32
227 245 45 99 37 38
227 244 46 98 42 39
227 245 46 98 35 35
227 245 47 91 41 36
226 246 44 101 32 36
226 246 45 102 33 40
226 247 44 101 38 38
226 247 45 104 37 42
227 246 45 99 29 36
226 246 46 95 33 35
226 246 47 93 31 37
226 247 46 101 36 41
226 247 47 96 35 44
227 246 46 98 30 35
227 246 47 95 39 36
228 240 40 79 32 37
228 240 41 81 37 42
228 240 42 85 34 40
228 240 43 87 28 34
228 240 44 93 26 35
228 241 44 95 34 33
228 241 45 98 35 34
229 240 44 89 29 36
229 240 45 91 29 35
229 241 45 99 37 37
228 242 44 99 42 33
228 242 45 101 43 36
228 243 45 102 39 34
229 242 45 97 39 30
228 243 46 100 40 33
229 242 46 97 37 31
229 243 46 99 39 34
229 243 47 98 37 35
230 240 46 88 37 35
230 241 46 95 36 31
231 240 47 85 36 36
231 241 47 90 33 36
230 242 46 94 34 29
230 242 47 93 32 29
230 243 46 96 35 31
230 243 47 94 33 29
231 242 47 92 30 31
231 243 47 90 33 31
228 244 46 99 41 38
228 244 47 98 38 36
228 245 47 97 35 33
229 244 47 96 32 31
229 245 47 99 34 31
230 244 47 92 30 28
227 248 37 110 26 38
227 249 37 115 33 40
226 248 39 112 28 30
226 249 39 116 26 25
227 248 38 113 31 37
227 248 39 104 31 28
227 249 38 116 26 33
227 250 37 111 31 37
227 251 37 117 33 39
226 250 39 122 31 27
226 251 39 126 32 24
227 250 38 119 34 31
227 251 38 122 36 34
227 252 37 116 28 37
227 253 37 111 30 32
226 252 39 128 36 26
226 253 39 127 40 26
227 252 38 118 31 30
227 252 39 122 36 28
227 253 38 114 29 24
227 253 39 122 38 24
227 255 37 95 38 43
226 254 39 120 46 32
226 255 39 111 33 33
227 254 38 107 27 24
227 254 39 114 38 25
227 255 38 103 28 31
227 255 39 111 31 27
229 248 34 103 33 37
229 248 35 111 33 37
229 249 34 103 39 38
229 249 35 105 41 41
228 251 35 106 30 33
229 250 35 107 34 35
229 251 34 109 34 39
229 251 35 107 31 36
230 248 33 98 28 35
230 249 33 105 34 42
231 248 32 97 28 40
231 248 33 99 30 35
231 249 32 102 38 47
231 249 33 103 33 42
230 248 34 100 36 35
230 249 34 102 34 39
230 249 35 101 36 36
230 250 33 106 34 43
230 251 33 107 38 45
231 250 32 104 44 51
231 250 33 103 36 40
231 251 32 107 42 50
231 251 33 103 43 48
230 250 34 107 35 38
230 250 35 106 35 35
230 251 34 110 37 41
228 248 36 106 27 37
228 248 37 111 30 40
228 249 36 106 36 43
228 249 37 111 31 39
229 248 36 106 29 39
229 249 36 109 32 39
228 250 36 106 37 38
228 250 37 114 35 40
228 251 36 109 24 32
228 251 37 112 29 40
228 250 38 119 41 42
229 252 34 109 33 40
229 252 35 109 33 39
229 253 34 106 48 48
229 253 35 106 45 43
228 255 35 100 51 57
229 254 34 103 54 57
229 254 35 101 47 48
229 255 34 102 57 60
229 255 35 100 50 54
230 252 33 104 57 56
230 253 33 103 58 62
231 252 32 101 59 67
231 252 33 102 50 53
231 253 32 99 62 64
231 253 33 103 56 57
230 252 34 107 42 47
230 253 34 106 50 55
230 254 33 99 60 66
230 255 32 94 62 67
230 255 33 96 61 68
231 254 32 96 62 62
231 255 32 93 67 74
230 254 34 103 57 65
230 255 34 101 56 65
228 252 36 111 26 33
228 252 37 112 22 35
228 253 36 107 35 35
228 253 37 110 31 34
229 253 36 106 36 39
228 254 36 99 43 39
228 254 37 102 32 34
228 255 36 98 47 46
228 255 37 98 41 40
229 254 36 105 45 42
225 248 43 103 27 31
225 249 43 105 28 27
225 250 42 111 27 33
225 250 43 109 28 24
225 251 42 119 26 25
225 251 43 113 30 23
226 248 40 109 29 32
226 248 41 111 25 38
226 249 40 116 26 28
226 249 41 116 21 34
226 248 42 109 24 39
226 248 43 105 25 33
226 249 42 109 23 34
226 249 43 107 20 32
226 250 40 124 29 29
226 250 41 120 23 32
226 251 40 128 32 23
226 251 41 126 27 25
226 250 42 115 23 33
226 251 42 120 18 22
224 249 45 102 42 34
225 248 44 103 32 31
225 248 45 99 33 31
225 249 44 102 35 29
225 249 45 103 39 35
225 248 46 96 33 33
225 249 46 95 40 34
225 249 47 93 42 35
224 250 44 101 35 25
224 250 45 100 36 30
224 251 44 104 39 29
224 251 45 102 36 33
225 250 44 102 35 24
224 250 46 97 37 33
224 251 46 96 36 35
225 250 46 92 39 31
225 250 47 90 45 37
225 251 46 96 40 38
225 251 47 95 42 42
226 248 45 101 34 37
226 248 46 102 35 38
226 248 47 91 34 39
226 249 47 90 41 34
226 250 47 90 44 36
226 251 47 93 46 43
225 253 41 130 37 28
224 252 43 113 34 27
224 253 43 116 35 29
225 252 42 126 34 28
225 252 43 120 33 23
225 253 42 127 34 27
225 253 43 123 35 22
225 254 41 129 35 29
225 255 41 122 26 42
224 254 43 110 37 32
224 255 43 111 41 46
225 254 42 124 36 27
225 254 43 118 41 31
225 255 42 117 36 41
225 255 43 116 39 35
226 252 40 128 34 20
226 252 41 130 35 25
226 253 40 128 38 21
226 253 41 129 39 28
226 254 40 125 43 34
226 255 40 120 34 38
224 252 44 108 38 32
224 252 45 106 37 35
224 253 44 106 34 34
224 253 45 102 40 35
224 252 46 101 39 36
224 253 46 99 42 37
225 252 47 97 38 40
225 253 47 96 36 36
224 254 44 105 36 36
224 254 45 102 39 37
224 255 44 102 41 45
224 255 45 98 39 45
224 254 46 94 41 36
224 254 47 88 39 36
224 255 46 97 42 42
224 255 47 80 46 52
225 254 47 89 38 40
225 255 46 84 41 43
225 255 47 83 45 49
232 241 35 74 32 29
233 240 35 63 28 37
233 241 34 67 29 35
233 241 35 67 29 33
233 243 33 85 37 44
232 242 35 75 32 32
232 243 34 86 34 38
232 243 35 90 33 44
233 242 34 76 30 37
233 242 35 75 30 33
233 243 34 84 36 40
234 241 33 72 32 35
235 240 32 61 42 40
235 240 33 62 41 43
235 241 32 69 44 40
235 241 33 70 37 38
234 240 34 67 36 44
234 240 35 64 35 45
234 241 34 68 29 39
235 240 34 64 40 43
234 242 32 76 40 43
234 242 33 75 37 40
234 243 32 83 34 43
234 243 33 80 35 42
235 242 32 75 43 44
234 242 34 75 30 35
232 240 36 63 34 33
232 240 37 63 32 39
232 241 36 71 35 32
233 240 36 63 32 40
233 240 37 64 29 37
233 241 36 63 29 31
232 244 33 84 36 37
232 245 32 89 33 35
232 245 33 88 33 35
233 244 32 87 29 38
233 244 33 85 32 38
233 245 32 91 27 35
232 244 34 88 33 35
232 246 32 93 33 32
232 246 33 92 35 35
232 247 32 94 33 35
233 246 32 93 31 34
234 244 32 86 32 42
236 240 32 69 41 43
236 240 33 59 36 41
232 248 32 97 35 39
232 249 32 99 36 42
232 250 32 105 44 52
