ply
format ascii 1.0
comment Version 2, Copyright 2017, 8i Labs, Inc.
comment frame_to_world_scale 0.179523
comment frame_to_world_translation -45.2095 7.18301 -54.3561
comment width 1023
element vertex 233
property float x
property float y
property float z
property uchar red
property uchar green
property uchar blue
end_header
231 270 223 90 94 100
231 271 223 95 100 108
239 260 215 114 111 111
239 261 215 109 106 106
239 262 215 102 102 105
239 263 214 92 96 104
239 263 215 94 98 105
234 256 223 105 103 105
234 257 223 109 106 108
235 256 223 107 104 105
235 257 222 115 111 112
235 257 223 113 110 111
234 258 223 112 110 112
234 259 223 113 111 113
235 258 222 115 112 113
235 258 223 114 112 113
235 259 222 115 111 112
235 259 223 114 111 112
233 261 223 102 100 102
233 262 223 114 111 112
233 263 223 112 109 109
235 260 221 116 112 112
235 261 221 116 112 112
234 260 223 110 107 108
234 261 222 112 109 110
234 261 223 107 105 106
235 260 222 114 110 111
235 261 222 114 110 111
234 263 221 110 107 108
235 262 220 113 110 111
235 262 221 115 112 112
235 263 220 110 109 112
235 263 221 110 108 109
234 262 222 115 112 112
234 262 223 113 110 111
234 263 222 110 107 107
234 263 223 114 110 111
237 257 219 102 100 102
237 258 219 110 108 110
237 259 219 113 111 113
239 256 217 111 108 110
239 257 217 114 111 113
238 256 219 102 101 103
238 257 218 111 109 111
238 257 219 103 102 104
239 256 218 107 105 107
239 256 219 104 103 104
239 257 218 111 109 111
238 259 217 97 96 98
239 258 216 108 105 106
239 258 217 111 108 109
239 259 216 103 101 102
239 259 217 99 98 100
238 258 218 115 112 114
238 258 219 112 109 112
238 259 218 107 106 108
238 259 219 112 110 113
236 256 221 113 109 109
236 257 221 111 108 109
237 256 220 108 106 107
237 256 221 113 109 110
237 257 220 106 103 104
237 257 221 110 107 108
236 256 222 111 107 106
236 257 222 114 110 111
236 258 221 112 109 110
236 259 220 114 110 111
236 259 221 115 112 112
237 258 220 109 107 108
237 259 220 113 111 112
236 258 222 114 111 112
238 256 220 109 106 107
236 261 219 115 112 114
237 260 219 110 108 110
237 261 218 114 112 113
237 261 219 113 110 112
237 263 217 113 113 118
236 262 219 116 114 116
236 263 219 113 113 117
237 262 218 117 115 117
237 262 219 116 115 117
237 263 218 113 114 118
238 260 217 105 103 105
238 261 216 115 112 112
238 261 217 117 113 114
239 260 216 112 109 109
239 260 217 102 101 102
239 261 216 116 112 112
238 260 218 102 101 103
238 261 218 114 111 112
238 262 216 110 109 111
238 262 217 116 114 116
238 263 216 102 104 110
238 263 217 111 112 116
239 262 216 109 107 108
239 263 216 102 103 108
236 260 220 115 112 113
236 260 221 116 112 113
236 261 220 115 112 114
236 261 221 116 113 113
237 260 220 114 111 113
237 261 220 113 111 112
236 262 220 113 111 113
236 263 220 113 112 116
239 265 213 85 94 105
238 265 215 78 88 100
239 264 214 84 92 102
239 264 215 81 90 101
239 265 214 85 94 105
239 265 215 83 92 104
239 266 213 84 92 103
239 267 213 82 89 99
238 266 215 84 92 104
238 267 214 75 85 97
238 267 215 83 91 102
239 266 214 83 93 104
239 267 214 79 89 100
239 271 211 98 101 107
237 268 215 63 76 88
237 269 214 93 100 110
237 269 215 81 90 101
236 271 215 86 97 109
237 270 214 94 102 111
237 270 215 92 100 110
237 271 214 95 102 113
237 271 215 90 99 111
239 268 213 76 85 96
239 269 212 87 94 104
239 269 213 86 94 104
238 268 214 77 87 98
238 268 215 70 81 92
238 269 214 88 96 106
239 268 214 79 88 98
238 270 213 94 101 111
238 271 213 96 103 112
239 270 212 94 100 109
239 270 213 92 99 109
239 271 212 93 99 108
238 270 214 94 101 111
235 265 219 71 83 96
235 266 219 77 89 103
235 267 219 79 91 105
233 264 223 102 100 100
233 265 222 111 109 112
233 265 223 107 105 107
233 267 221 88 95 105
232 267 223 111 111 116
233 266 222 96 98 104
233 266 223 112 112 115
233 267 222 95 99 106
233 267 223 104 105 110
234 264 221 106 105 107
234 265 220 77 84 93
234 265 221 104 104 109
235 264 220 109 110 115
235 264 221 107 106 109
235 265 220 89 95 103
234 264 222 104 101 103
234 265 222 109 108 111
234 266 220 75 85 96
234 266 221 78 85 93
234 267 220 82 93 106
234 267 221 85 93 104
235 266 220 74 85 98
235 267 220 84 94 107
235 268 218 65 82 97
235 268 219 71 85 100
235 269 218 63 81 97
235 269 219 65 81 96
235 271 217 77 90 104
234 271 219 80 91 104
235 270 218 80 93 107
235 270 219 77 89 102
235 271 218 80 93 107
235 271 219 80 92 106
233 268 221 84 95 108
233 269 221 79 92 107
232 268 222 91 95 103
232 268 223 102 104 110
232 269 222 78 87 97
232 269 223 82 88 96
233 268 222 85 93 103
233 269 222 81 91 103
233 270 221 80 92 105
233 271 221 81 92 105
232 270 222 89 98 109
232 270 223 86 93 103
232 271 222 96 103 114
232 271 223 96 103 113
233 270 222 87 97 109
233 271 222 91 100 112
234 268 220 77 92 107
234 268 221 81 95 110
234 269 220 70 86 101
234 269 221 76 91 107
234 270 220 75 87 101
234 270 221 73 87 102
234 271 220 78 90 103
237 264 217 92 99 108
237 265 217 80 90 102
236 264 218 98 103 112
236 264 219 106 109 115
236 265 218 82 92 104
236 265 219 79 88 99
237 264 218 99 104 113
237 265 218 83 93 106
237 266 216 73 85 98
237 266 217 77 89 101
237 267 216 84 94 106
237 267 217 82 94 107
236 266 218 83 94 107
236 266 219 79 90 104
236 267 218 81 93 107
236 267 219 77 90 105
237 266 218 83 94 106
238 264 216 82 90 101
238 265 216 68 80 92
238 266 216 76 88 100
238 267 216 84 93 105
236 268 217 79 91 105
236 269 216 74 86 99
236 269 217 77 90 103
237 268 216 73 85 98
237 268 217 80 92 105
237 269 216 71 83 96
236 268 218 72 86 102
236 269 218 73 88 103
236 270 216 82 92 104
236 270 217 79 91 104
236 271 216 82 93 106
236 271 217 77 89 102
237 270 216 84 93 105
236 270 218 80 93 107
