ply
format ascii 1.0
comment Version 2, Copyright 2017, 8i Labs, Inc.
comment frame_to_world_scale 0.179523
comment frame_to_world_translation -45.2095 7.18301 -54.3561
comment width 1023
element vertex 336
property float x
property float y
property float z
property uchar red
property uchar green
property uchar blue
end_header
227 226 272 139 135 137
227 227 272 138 135 137
227 228 272 137 135 139
227 229 272 133 133 138
226 231 272 130 130 135
227 230 272 122 124 132
227 231 272 108 114 124
227 231 273 82 96 112
228 224 272 126 124 125
228 225 272 132 129 130
229 224 272 138 134 135
229 224 273 144 140 141
229 225 272 140 136 137
229 225 273 142 139 140
228 226 272 140 136 138
228 227 272 139 137 139
228 227 273 137 136 139
229 226 273 136 133 135
229 227 273 134 132 136
229 227 274 132 132 136
230 224 273 145 140 142
230 225 273 142 139 141
230 224 274 142 139 141
230 225 274 135 132 135
231 224 274 139 136 138
231 224 275 139 135 137
231 225 275 137 133 135
230 226 274 124 123 127
230 226 275 127 126 130
230 227 274 127 127 132
230 227 275 130 131 136
231 226 275 134 131 134
231 227 275 130 130 135
231 227 276 126 127 133
228 228 272 136 134 139
228 228 273 131 131 136
228 229 272 121 124 131
228 229 273 111 116 125
229 228 273 128 128 135
229 228 274 127 129 135
229 229 274 104 111 123
228 230 273 93 104 117
228 231 273 81 96 113
228 231 274 82 99 117
229 230 274 93 105 119
229 230 275 93 106 122
229 231 274 85 101 119
229 231 275 83 101 120
230 228 274 122 125 133
230 228 275 122 125 134
230 229 274 114 119 128
230 229 275 108 116 128
231 228 275 119 123 131
230 230 275 98 109 124
230 231 275 84 102 121
231 228 276 111 117 127
231 229 276 107 116 129
230 230 276 99 112 127
230 231 276 88 106 125
231 230 276 95 109 126
231 231 276 89 107 126
231 231 277 88 107 126
225 234 272 125 127 135
225 235 272 110 117 128
226 232 272 122 123 130
226 233 272 116 119 127
227 232 272 96 105 116
227 232 273 91 103 117
227 233 273 95 107 121
226 234 272 109 115 126
226 234 273 97 108 121
226 235 272 98 108 121
226 235 273 85 100 116
227 234 273 91 105 122
227 235 273 81 99 118
227 234 274 87 104 123
227 235 274 79 100 120
225 236 272 96 108 123
225 237 272 104 117 132
225 238 272 105 119 136
225 238 273 99 114 132
225 239 272 108 122 140
225 239 273 104 119 138
226 236 272 86 101 117
226 236 273 92 106 122
226 237 273 104 116 132
226 236 274 98 111 127
226 237 274 97 111 127
227 236 274 86 104 122
227 236 275 88 105 123
227 237 274 91 107 125
227 237 275 86 103 121
226 238 273 96 111 129
226 239 273 102 118 136
226 238 274 93 109 127
226 239 274 102 117 135
227 238 275 92 109 127
227 239 275 100 116 134
227 239 276 88 106 126
228 232 273 87 102 119
228 232 274 82 99 118
228 233 274 84 102 120
229 232 274 66 90 112
229 232 275 65 90 113
229 233 274 65 89 112
229 233 275 71 94 116
228 234 274 84 103 122
228 235 274 76 98 119
228 235 275 74 97 118
229 234 275 81 102 123
229 235 275 78 100 120
230 232 275 70 93 116
230 233 275 77 99 120
229 235 276 78 99 120
230 232 276 84 103 124
230 233 276 86 105 124
231 232 276 90 108 128
231 232 277 89 108 127
231 233 277 87 106 126
230 234 276 86 104 124
230 235 276 83 103 123
230 235 277 86 104 124
231 234 277 89 107 126
231 235 277 91 108 127
228 236 275 73 95 115
228 237 275 83 100 118
229 236 275 59 86 109
228 238 275 89 105 123
228 237 276 79 97 115
229 236 276 62 87 109
229 237 276 73 93 113
228 238 276 86 104 122
228 239 276 84 103 122
229 238 276 84 102 120
229 238 277 92 108 125
229 239 277 90 107 125
230 236 276 74 95 116
230 236 277 89 106 124
230 237 276 85 102 120
230 237 277 97 112 129
231 236 277 95 110 128
231 236 278 96 111 128
231 237 278 96 112 129
230 238 277 99 114 132
230 239 277 96 112 130
230 238 278 98 115 133
230 239 278 97 113 132
231 238 278 95 111 129
231 239 278 94 111 131
231 239 279 88 107 127
232 224 275 139 135 138
232 225 275 140 136 138
232 224 276 139 136 138
232 225 276 138 135 138
233 224 276 132 131 136
233 225 276 129 129 134
233 225 277 123 125 131
232 226 276 137 135 138
232 227 276 124 125 132
233 226 276 135 134 139
233 226 277 129 130 136
233 227 277 118 122 131
234 224 276 127 128 134
234 224 277 119 123 130
234 225 277 111 115 124
235 224 277 124 127 135
234 225 278 104 111 121
235 224 278 119 124 133
235 225 278 108 116 126
234 226 277 114 119 129
234 227 277 110 117 129
234 226 278 104 112 123
234 227 278 103 113 125
235 226 278 105 113 125
235 227 278 102 112 125
235 227 279 107 116 129
232 228 276 106 113 125
232 228 277 104 113 125
232 229 276 102 112 126
232 229 277 98 111 126
233 228 277 104 113 126
233 229 277 99 111 127
233 229 278 97 111 126
232 230 277 87 105 123
232 231 277 86 105 124
233 230 277 90 106 124
232 231 278 89 108 127
233 230 278 86 104 122
233 231 278 86 105 124
234 228 278 103 114 128
234 229 278 103 115 130
234 229 279 108 119 132
235 228 279 107 116 130
235 229 279 112 122 134
234 230 278 93 107 124
234 230 279 101 113 128
234 231 278 89 106 123
234 231 279 89 106 123
235 230 279 108 119 132
235 231 279 101 113 128
236 224 278 123 128 137
236 224 279 120 127 137
236 225 278 113 121 132
236 225 279 114 123 135
237 224 279 120 127 138
237 225 279 114 123 136
236 226 279 111 120 133
236 227 279 108 118 131
237 226 279 112 122 135
237 227 279 105 116 130
238 224 279 115 124 136
236 228 279 107 117 131
236 229 279 111 120 134
235 231 280 92 106 122
237 226 280 111 121 134
237 227 280 103 114 128
238 224 280 111 120 133
238 225 280 111 121 134
239 224 280 109 119 133
239 225 280 107 118 132
238 226 280 113 123 137
238 227 280 105 116 130
239 226 280 112 123 137
239 227 280 115 125 138
239 227 281 108 119 132
236 228 280 108 118 132
236 229 280 107 117 131
237 228 280 103 114 128
237 229 280 102 113 127
236 230 280 106 116 130
236 231 280 94 106 121
237 230 280 95 107 121
237 231 280 95 106 120
237 231 281 93 102 113
238 228 280 99 111 125
238 228 281 99 111 124
238 229 280 98 109 123
238 229 281 96 106 118
239 228 281 96 107 120
239 229 281 95 100 110
238 230 281 98 105 115
238 231 281 106 104 108
239 230 281 109 103 107
239 231 281 120 99 89
232 232 277 88 107 127
232 233 277 87 106 126
232 232 278 88 107 127
232 233 278 88 107 127
233 232 278 88 107 127
233 232 279 87 107 127
233 233 278 89 108 128
233 233 279 89 108 127
232 234 278 91 109 128
232 235 278 94 110 128
233 234 278 90 108 127
233 234 279 91 109 128
233 235 279 94 111 128
234 232 279 85 106 126
234 233 279 89 108 128
234 234 279 91 109 128
234 235 279 93 110 128
232 236 278 97 111 128
232 236 279 98 111 126
232 237 278 100 113 129
232 237 279 97 109 123
233 236 279 98 111 127
233 237 279 98 107 119
232 238 279 92 105 121
232 239 279 83 101 119
233 238 279 91 101 113
234 232 280 81 101 121
234 233 280 90 108 127
235 232 280 78 96 115
235 233 280 88 103 121
234 234 280 93 110 128
234 235 280 95 111 129
235 234 280 94 109 127
235 234 281 94 108 124
235 235 280 97 112 129
235 235 281 97 111 127
233 237 280 101 107 116
232 239 280 78 96 114
233 238 280 90 98 108
233 239 280 78 90 103
234 236 280 99 112 127
234 237 280 105 111 121
234 237 281 107 114 124
235 236 281 100 114 130
235 237 281 107 115 127
234 238 280 103 105 110
234 238 281 110 112 116
234 239 280 91 96 103
234 239 281 103 104 107
235 238 281 115 118 124
235 239 281 120 118 119
235 239 282 126 122 122
236 232 280 80 96 112
236 232 281 82 95 109
236 233 281 85 98 111
237 232 281 86 94 103
237 233 281 88 92 98
236 234 281 87 98 110
236 235 281 95 106 118
237 234 281 84 87 90
237 235 281 92 97 103
238 232 281 102 92 87
238 233 281 96 84 70
239 232 281 120 84 60
239 233 281 115 76 35
239 233 282 118 75 23
238 234 281 98 88 77
238 234 282 107 94 78
238 235 282 105 97 89
239 234 282 117 86 45
239 235 282 120 97 69
236 236 281 105 115 128
236 237 281 107 117 130
237 236 281 104 109 118
236 237 282 108 118 131
237 236 282 109 115 124
237 237 282 110 119 131
236 238 281 111 118 128
236 238 282 113 120 130
236 239 282 122 123 127
237 238 282 110 119 132
237 239 282 113 120 130
238 236 282 111 108 107
238 237 282 115 117 123
239 236 282 118 103 87
239 237 282 117 111 106
239 237 283 118 110 104
238 238 282 112 120 132
238 238 283 117 120 127
238 239 283 114 121 131
239 238 283 121 116 112
239 239 283 119 117 119
