ply
format ascii 1.0
comment Version 2, Copyright 2017, 8i Labs, Inc.
comment frame_to_world_scale 0.179523
comment frame_to_world_translation -45.2095 7.18301 -54.3561
comment width 1023
element vertex 88
property float x
property float y
property float z
property uchar red
property uchar green
property uchar blue
end_header
228 400 79 151 155 177
228 401 79 150 158 195
229 400 79 141 147 174
229 401 79 114 132 186
229 402 79 97 127 182
230 400 79 157 161 182
230 401 79 124 144 190
231 400 79 150 158 182
231 401 79 121 139 187
230 402 79 105 135 181
231 402 79 125 143 178
231 403 79 150 161 182
232 400 79 126 138 171
232 401 79 101 124 170
233 400 79 141 154 190
233 401 79 124 143 179
232 402 79 104 128 166
232 403 79 123 139 169
233 402 79 147 159 190
233 403 79 162 168 189
234 400 78 106 130 177
234 400 79 108 131 177
234 401 79 105 129 168
235 400 78 121 142 185
235 400 79 102 127 174
235 401 78 106 125 171
235 401 79 112 131 170
234 402 79 138 148 177
234 403 79 150 155 177
235 402 79 131 143 173
235 403 79 144 154 174
233 404 79 172 173 186
234 404 79 144 151 170
235 404 79 138 146 172
235 405 79 129 135 170
236 400 78 95 122 174
236 401 78 71 105 164
236 401 79 115 132 173
237 400 78 81 120 171
237 401 78 58 95 165
236 402 79 117 135 173
236 403 79 136 148 174
237 402 78 67 99 163
237 402 79 69 101 162
237 403 79 75 105 164
239 400 77 112 128 172
238 400 78 81 110 167
238 401 78 113 135 175
239 400 78 107 127 171
239 401 78 129 148 180
238 402 78 127 146 178
238 403 78 122 141 179
238 403 79 90 118 166
239 402 78 125 144 180
239 403 78 121 138 177
236 404 79 133 143 171
236 405 79 120 129 159
237 404 79 87 109 162
237 405 79 116 126 156
237 406 79 130 137 153
238 404 79 107 127 171
238 405 79 130 141 163
239 404 78 107 125 167
239 404 79 94 116 159
239 405 79 112 127 150
238 406 79 147 154 166
238 407 79 132 142 160
239 406 79 132 144 161
239 407 79 121 137 160
238 408 79 65 96 132
238 409 79 48 85 125
239 408 79 58 95 132
239 409 79 53 89 123
238 410 79 108 121 140
238 411 79 96 111 128
239 410 79 93 110 130
239 411 79 96 109 126
237 413 79 87 100 118
237 414 79 106 111 123
237 415 79 125 125 132
238 412 79 69 91 114
238 413 79 87 100 119
239 412 79 80 95 115
239 413 79 96 104 119
238 414 79 112 117 128
238 415 79 132 133 140
239 414 79 121 124 133
239 415 79 135 137 146
