ply
format ascii 1.0
comment Version 2, Copyright 2017, 8i Labs, Inc.
comment frame_to_world_scale 0.179523
comment frame_to_world_translation -45.2095 7.18301 -54.3561
comment width 1023
element vertex 323
property float x
property float y
property float z
property uchar red
property uchar green
property uchar blue
end_header
231 352 208 108 37 50
231 352 209 111 37 53
231 353 208 112 73 58
231 353 209 114 69 57
230 353 211 107 37 37
231 352 210 114 32 52
231 352 211 117 32 57
231 353 210 109 49 39
231 353 211 113 33 49
230 354 209 142 123 100
230 355 208 148 131 113
230 355 209 150 132 112
231 354 208 138 119 95
231 354 209 137 116 92
231 355 208 147 130 112
230 354 210 124 101 73
230 354 211 107 66 40
230 355 210 145 127 107
230 355 211 130 111 86
230 353 212 112 26 52
230 353 213 112 24 57
231 352 212 114 28 56
231 352 213 110 26 50
231 353 212 114 26 58
231 353 213 112 27 56
230 353 214 110 27 49
230 353 215 109 29 47
231 352 214 110 33 51
231 352 215 112 38 53
231 353 214 110 31 49
231 353 215 111 32 48
230 354 212 105 34 37
230 354 213 110 22 53
230 355 212 109 75 50
230 355 213 103 41 36
230 354 214 110 24 52
230 354 215 109 27 48
230 355 214 106 21 42
230 355 215 108 27 46
229 359 208 149 130 111
229 359 209 147 127 107
229 358 210 143 124 104
229 358 211 146 127 108
229 359 210 145 125 105
229 359 211 147 128 108
230 356 208 148 132 116
230 356 209 150 132 115
230 357 208 141 124 107
230 357 209 144 126 109
230 356 210 150 133 115
230 356 211 146 129 109
230 357 210 148 130 112
230 357 211 148 130 110
230 358 208 141 123 105
230 358 209 139 121 102
230 359 208 146 127 109
230 358 210 144 125 107
230 358 211 146 127 108
229 357 213 111 80 60
229 356 215 107 43 50
229 357 214 109 56 50
229 357 215 109 52 56
228 359 212 137 120 102
228 359 213 119 98 81
229 358 212 131 110 87
229 358 213 111 83 63
229 359 212 136 117 98
229 359 213 114 92 74
228 359 214 111 82 62
228 359 215 106 75 58
229 358 214 109 61 56
229 358 215 110 65 61
229 359 214 108 71 58
230 356 212 127 106 83
230 356 213 107 71 46
230 357 212 133 112 90
230 357 213 111 79 56
230 356 214 104 35 33
230 356 215 106 33 44
227 359 221 132 116 100
227 358 223 129 114 99
227 359 222 131 116 101
227 359 223 129 114 99
230 353 216 109 27 47
230 353 217 110 33 53
231 352 216 110 35 51
231 352 217 108 34 50
231 353 216 111 30 48
231 353 217 109 31 49
230 353 218 110 38 53
231 352 218 109 39 56
231 352 219 111 38 58
231 353 218 109 38 54
231 353 219 111 38 59
230 354 216 108 28 45
230 354 217 109 34 49
230 355 216 107 33 47
230 355 217 108 39 49
230 354 218 109 39 53
230 354 219 111 45 58
230 355 218 110 44 55
230 355 219 113 47 59
231 354 219 112 39 60
231 352 220 111 35 58
231 352 221 110 26 54
231 353 220 110 38 59
231 353 221 109 35 57
230 353 223 105 64 45
231 352 222 107 27 49
231 352 223 106 38 46
231 353 222 108 38 51
231 353 223 106 52 44
230 354 220 113 43 61
230 354 221 110 50 57
230 355 220 113 50 58
230 355 221 108 58 49
231 354 220 112 38 60
231 354 221 111 46 60
230 354 222 107 60 49
230 354 223 112 85 59
230 355 222 109 79 52
230 355 223 125 106 82
231 354 222 106 49 49
229 356 216 107 43 53
229 356 217 110 54 60
229 357 216 111 55 62
229 357 217 109 58 58
229 356 218 111 59 58
229 356 219 108 62 46
229 357 218 110 67 56
229 357 219 109 77 54
228 359 216 106 80 59
228 359 217 111 87 64
229 358 216 110 67 62
229 358 217 107 69 56
229 359 216 107 72 58
228 358 219 118 100 75
228 359 218 118 98 74
228 359 219 126 109 89
229 358 218 108 77 57
229 358 219 111 90 61
230 356 216 106 38 49
230 356 217 109 45 53
230 356 218 113 56 60
230 356 219 113 55 56
230 357 219 112 67 56
229 356 220 107 67 44
229 356 221 110 85 56
229 357 220 112 86 58
229 357 221 119 97 71
228 357 222 132 116 99
228 357 223 131 116 100
229 356 222 119 100 74
229 356 223 130 113 94
229 357 222 127 109 89
229 357 223 133 117 101
228 358 220 128 111 90
228 358 221 131 114 95
228 359 220 131 115 98
228 359 221 134 119 103
229 358 220 122 102 77
228 358 222 133 118 102
228 358 223 129 114 98
228 359 222 133 118 103
230 356 220 109 57 47
230 356 221 106 67 43
230 356 222 109 85 55
227 362 209 141 124 108
227 363 208 138 122 105
227 363 209 134 118 103
226 363 210 129 115 102
226 363 211 131 118 105
227 362 210 137 121 106
227 362 211 139 123 109
227 363 210 131 116 101
227 363 211 133 119 106
227 361 212 137 121 105
227 361 213 130 115 99
227 360 215 118 98 76
227 361 214 127 111 93
227 361 215 127 110 91
226 363 212 132 118 106
226 363 213 131 116 101
227 362 212 135 119 105
227 362 213 132 117 102
227 363 212 133 119 105
227 363 213 131 116 101
226 362 215 130 115 101
226 363 214 131 117 103
226 363 215 131 116 102
227 362 214 132 117 102
227 362 215 131 116 101
225 365 208 128 115 103
225 365 209 125 112 99
225 365 210 128 116 104
225 365 211 128 115 102
224 366 209 124 111 98
224 367 208 125 111 98
224 367 209 121 107 95
225 366 208 130 116 104
225 366 209 125 112 100
224 366 210 122 109 96
224 366 211 120 106 93
224 367 210 119 106 92
224 367 211 120 106 92
225 366 210 125 111 99
225 366 211 123 110 97
226 364 208 129 114 101
226 364 209 128 114 102
226 365 208 128 114 102
226 365 209 126 113 102
227 364 208 132 117 102
227 364 209 130 115 101
226 364 210 128 115 102
226 364 211 131 117 105
226 365 210 130 117 104
225 365 212 126 113 100
225 365 213 126 111 97
224 365 214 125 109 96
224 365 215 126 111 97
225 364 214 130 116 101
225 364 215 129 115 101
225 365 214 127 112 98
225 365 215 128 114 100
224 366 212 121 107 94
224 366 213 121 106 92
224 367 212 121 107 93
224 367 213 121 107 93
224 366 214 122 106 92
224 366 215 124 109 94
226 364 212 130 117 105
226 364 213 129 114 100
226 364 214 130 115 101
226 364 215 130 116 102
228 361 208 150 132 115
228 361 209 152 133 115
229 360 208 153 133 115
229 360 209 153 133 114
229 361 208 153 134 116
228 360 210 151 132 113
228 360 211 150 131 113
228 361 210 150 132 114
228 361 211 147 130 114
229 360 210 150 131 112
228 362 208 146 128 112
228 362 209 146 129 113
228 363 208 144 126 110
228 363 209 141 124 109
228 362 210 145 128 112
228 360 212 140 123 105
228 360 213 125 109 92
228 361 212 140 124 107
228 361 213 131 115 100
228 360 214 118 98 77
228 360 215 114 92 69
225 363 217 127 112 98
225 362 219 120 105 91
225 363 218 123 109 95
225 363 219 122 107 93
227 360 216 119 100 81
227 360 217 125 109 91
227 361 216 127 111 93
227 361 217 130 115 99
226 361 218 123 109 96
226 361 219 122 108 94
227 360 218 129 114 97
227 360 219 128 113 98
227 361 218 127 112 98
227 361 219 125 111 97
226 362 216 129 114 100
226 362 217 128 114 100
226 363 216 129 114 99
226 363 217 126 111 98
227 362 216 131 116 101
226 362 218 124 110 96
226 362 219 121 107 93
226 363 218 125 110 96
225 361 222 124 109 94
225 361 223 126 111 97
224 363 221 124 108 93
225 362 220 122 107 93
225 362 221 122 108 94
225 363 220 123 109 94
225 363 221 124 109 95
224 362 223 125 110 96
224 363 222 122 107 91
224 363 223 126 110 95
225 362 222 122 107 91
225 362 223 125 110 95
225 363 222 121 106 91
226 360 221 125 111 96
226 361 220 121 107 93
226 361 221 123 109 95
227 360 220 128 113 98
227 360 221 129 114 99
226 360 222 127 113 98
226 360 223 129 114 99
226 361 222 126 111 97
226 361 223 127 113 98
227 360 222 130 115 101
227 360 223 129 114 98
226 362 220 121 106 92
224 364 217 125 111 97
224 365 216 126 112 98
224 365 217 125 110 96
225 364 216 128 113 99
225 364 217 125 111 97
225 365 216 127 113 99
224 364 218 123 109 95
224 364 219 123 109 94
224 365 218 124 109 95
224 365 219 124 109 95
225 364 218 123 109 95
225 364 219 123 108 94
224 366 216 127 112 97
224 364 220 124 110 95
224 364 221 124 108 93
224 364 222 124 107 91
224 364 223 126 110 94
228 360 216 112 92 72
228 360 217 121 104 83
228 360 218 127 110 91
228 360 219 130 114 97
