ply
format ascii 1.0
comment Version 2, Copyright 2017, 8i Labs, Inc.
comment frame_to_world_scale 0.179523
comment frame_to_world_translation -45.2095 7.18301 -54.3561
comment width 1023
element vertex 23
property float x
property float y
property float z
property uchar red
property uchar green
property uchar blue
end_header
224 432 80 61 104 135
233 447 80 94 116 161
234 447 80 97 116 162
234 447 81 86 106 158
235 446 80 108 123 163
235 447 80 96 113 159
235 447 81 89 109 159
236 445 80 110 129 169
237 445 80 112 128 173
236 446 80 109 123 163
236 447 81 91 113 161
237 446 80 109 122 164
237 446 81 106 120 164
237 447 81 102 120 163
238 445 80 113 128 174
239 444 80 112 128 175
239 445 80 112 126 176
238 446 80 107 124 165
238 446 81 104 122 162
238 447 81 110 125 161
239 446 80 108 125 167
239 446 81 105 124 164
239 447 81 108 124 161
