ply
format ascii 1.0
comment Version 2, Copyright 2017, 8i Labs, Inc.
comment frame_to_world_scale 0.179523
comment frame_to_world_translation -45.2095 7.18301 -54.3561
comment width 1023
element vertex 368
property float x
property float y
property float z
property uchar red
property uchar green
property uchar blue
end_header
227 353 288 131 119 112
227 354 288 136 124 117
227 355 288 138 126 119
227 355 289 137 125 118
227 356 288 140 128 120
227 356 289 139 126 120
227 357 288 140 127 119
227 357 289 140 128 121
226 358 288 139 126 118
226 359 288 138 125 117
226 359 289 142 129 121
227 358 288 140 127 119
227 358 289 141 129 122
227 359 289 142 130 122
227 358 290 138 126 119
227 359 290 141 128 120
227 359 291 143 130 122
228 352 288 113 101 94
228 352 289 110 98 89
228 353 288 126 114 107
228 353 289 120 108 101
228 352 290 114 103 96
228 353 290 113 102 94
229 352 290 113 102 94
229 352 291 116 105 96
229 353 290 114 103 96
229 353 291 114 103 94
228 354 288 133 121 114
228 354 289 128 116 109
228 355 289 133 122 115
228 354 290 119 107 100
228 354 291 122 111 104
228 355 290 129 117 111
228 355 291 125 114 109
229 354 291 120 109 102
229 355 291 123 112 106
229 352 292 122 109 97
229 352 293 127 111 97
229 353 292 120 109 98
229 353 293 124 110 96
229 354 292 125 114 106
229 354 293 125 113 102
229 355 292 122 111 104
229 355 293 120 108 99
230 352 293 127 111 96
230 353 293 125 110 95
230 352 294 130 115 100
230 352 295 132 117 103
230 353 294 127 112 98
230 353 295 129 114 99
231 352 295 133 118 104
231 353 295 129 113 99
230 354 293 123 109 96
230 355 293 119 106 94
230 354 294 120 106 93
230 354 295 121 106 93
230 355 294 119 105 94
230 355 295 123 108 93
228 356 289 137 125 119
228 356 290 136 124 118
228 356 291 133 121 115
228 357 290 138 126 120
228 357 291 130 118 111
228 358 290 136 123 116
228 358 291 131 118 111
228 359 291 138 125 117
228 357 292 124 112 105
229 356 292 124 113 107
229 356 293 114 103 95
229 357 292 120 108 100
229 357 293 110 98 90
229 357 294 108 96 88
228 358 292 126 113 105
228 359 292 137 124 117
228 359 293 140 128 121
229 358 292 123 110 102
229 358 293 119 107 99
229 359 293 133 120 112
229 358 294 119 106 97
229 359 294 127 113 102
230 356 294 111 100 90
230 356 295 118 105 92
230 357 294 110 99 90
230 357 295 119 106 95
230 358 294 123 110 100
230 358 295 128 114 102
230 359 294 129 114 103
230 359 295 130 115 100
231 352 296 133 118 104
231 352 297 133 118 105
231 353 296 130 115 101
231 353 297 134 119 104
231 354 296 130 114 99
231 354 297 140 124 108
231 355 296 134 118 102
231 355 297 141 125 108
230 357 296 123 108 96
231 356 296 129 114 100
231 356 297 138 122 107
231 357 296 124 109 96
231 357 297 128 112 99
230 358 296 127 111 97
230 359 296 135 118 102
231 358 296 127 111 96
231 358 297 129 113 99
231 359 296 135 118 101
231 359 297 136 120 104
225 362 288 134 121 112
225 363 288 147 133 124
225 363 289 140 126 116
226 360 288 134 121 113
226 360 289 142 129 121
226 361 288 130 117 107
226 361 289 141 128 120
227 360 289 145 132 124
227 360 290 144 131 124
227 360 291 145 132 125
227 361 290 146 133 127
227 361 291 144 131 125
226 362 288 132 119 110
226 362 289 145 132 125
226 363 289 140 127 117
226 362 290 144 132 126
226 363 290 141 128 120
227 362 290 144 132 126
227 362 291 142 130 123
227 363 290 142 129 122
227 363 291 145 133 125
227 363 292 148 135 127
225 364 288 134 120 107
225 364 289 136 121 109
225 365 288 132 116 99
225 365 289 146 129 116
224 366 288 125 102 78
224 367 288 114 79 73
225 366 288 128 107 85
225 366 289 136 111 99
225 367 288 115 77 78
225 367 289 116 80 91
226 364 289 144 130 118
226 365 289 150 134 122
226 364 290 149 135 126
226 365 290 148 132 122
227 364 291 147 133 125
227 365 291 133 116 110
226 366 290 128 101 101
226 366 291 118 92 98
226 367 290 104 81 103
226 367 291 91 82 106
227 366 291 102 77 92
227 367 291 86 82 108
227 364 292 140 128 120
227 365 292 113 100 97
227 366 292 98 91 104
227 367 292 80 90 115
227 367 293 66 95 124
228 360 291 145 132 124
228 361 291 143 131 124
228 360 292 140 127 119
228 360 293 134 121 113
228 361 292 136 123 115
228 361 293 133 119 111
229 360 293 129 115 107
229 361 293 136 123 114
229 360 294 128 112 101
229 361 294 138 124 114
228 362 292 141 128 120
228 362 293 140 127 120
228 363 292 145 133 125
228 363 293 144 132 123
229 362 293 143 131 124
229 363 293 139 125 115
229 362 294 143 128 120
229 362 295 136 111 103
229 363 294 132 111 104
229 363 295 126 88 90
230 360 295 132 115 99
230 361 295 141 124 110
230 362 295 136 110 101
230 363 295 125 70 85
228 364 292 134 123 115
228 364 293 124 114 108
228 365 292 112 103 97
228 365 293 95 96 100
229 364 294 108 95 95
229 364 295 101 78 93
229 365 294 83 92 107
229 365 295 80 87 111
228 366 293 78 94 114
228 367 293 65 95 124
228 366 294 66 93 122
228 367 294 70 98 127
229 366 294 73 95 122
229 366 295 74 94 125
229 367 294 81 105 132
229 367 295 85 104 129
230 364 295 107 63 89
230 360 296 135 117 98
230 361 296 135 115 95
231 360 297 137 118 98
231 361 297 134 110 87
230 362 296 127 89 81
230 363 296 121 53 81
230 363 297 118 54 88
231 362 297 122 76 69
231 363 297 119 69 90
231 362 298 120 85 79
231 363 298 114 89 105
230 364 296 105 70 101
230 364 297 108 86 112
230 365 296 83 86 114
230 365 297 94 102 122
231 364 297 113 105 123
231 365 297 106 116 129
231 364 298 108 110 127
231 365 298 109 119 133
230 366 296 78 94 121
230 366 297 103 113 129
230 367 296 102 113 129
230 367 297 132 135 143
231 366 297 125 130 139
231 367 297 148 147 151
231 366 298 136 139 147
231 367 298 151 151 155
232 352 297 130 116 104
232 353 297 136 121 107
232 352 298 124 111 99
232 353 298 133 118 104
233 352 298 122 109 97
233 352 299 116 103 92
233 353 298 129 115 102
233 353 299 122 108 96
232 354 297 142 126 110
232 355 297 143 127 110
232 354 298 138 122 107
232 355 298 143 126 110
233 354 299 131 116 103
233 355 299 135 121 107
233 354 300 126 111 99
233 355 300 129 115 103
234 352 300 113 99 85
234 352 301 116 102 90
234 353 300 114 99 87
234 353 301 112 99 85
235 352 301 126 113 103
235 353 301 116 103 91
235 353 302 122 110 100
234 354 300 122 108 95
234 354 301 118 103 90
234 355 300 123 109 97
234 355 301 115 101 90
235 354 301 115 102 90
235 355 301 116 101 89
235 354 302 119 105 93
235 355 302 122 106 91
232 356 297 140 124 108
232 357 297 132 117 103
232 356 298 142 125 110
232 357 298 138 122 107
233 356 299 134 119 107
233 357 299 134 120 106
232 358 297 131 116 101
232 358 298 135 120 105
232 358 299 134 119 106
232 359 298 137 120 103
232 359 299 133 116 100
233 358 299 130 116 103
233 359 299 131 115 99
233 356 300 127 113 100
233 357 300 131 116 103
233 358 300 129 113 101
233 359 300 135 118 102
234 356 300 125 111 98
234 356 301 125 110 97
234 357 300 131 116 102
234 357 301 130 114 101
235 356 301 125 110 95
235 357 301 130 114 99
235 356 302 128 111 93
235 357 302 134 116 97
234 358 300 129 114 101
234 358 301 135 120 104
234 359 301 141 124 107
235 358 301 139 122 104
235 359 301 144 127 109
235 358 302 139 121 102
235 359 302 129 112 97
236 352 302 125 112 102
236 353 302 125 113 103
236 353 303 131 118 109
237 352 303 133 119 110
237 353 303 135 121 112
236 354 302 124 110 99
236 354 303 128 114 103
236 355 302 124 109 95
236 355 303 138 123 110
237 354 303 133 118 108
236 356 303 134 117 99
236 357 303 130 110 87
236 358 303 127 104 79
236 359 303 108 80 76
232 360 298 142 123 102
232 360 299 141 123 103
232 361 298 137 116 95
232 361 299 128 111 97
233 360 299 139 122 104
233 361 299 133 118 104
232 362 298 116 86 85
232 362 299 109 92 96
232 363 298 107 92 109
232 363 299 100 96 114
233 360 300 138 122 107
233 361 300 128 119 113
233 361 301 118 117 120
233 362 300 108 109 117
233 362 301 110 116 127
233 363 300 97 108 126
233 363 301 102 117 137
234 360 301 127 116 106
234 361 301 111 110 114
235 360 302 100 90 92
235 361 302 95 98 115
235 361 303 84 96 124
234 362 301 98 109 128
234 363 301 86 106 133
235 362 302 83 97 127
235 362 303 71 90 125
235 363 302 62 88 125
235 363 303 60 87 124
232 364 298 102 108 127
232 364 299 99 110 129
232 365 298 109 119 134
232 365 299 101 115 131
232 366 298 131 136 146
232 366 299 111 121 135
232 367 298 145 147 155
232 367 299 115 126 140
233 364 300 88 106 127
233 364 301 75 99 126
233 365 300 84 105 126
233 365 301 55 85 116
233 366 300 93 111 130
233 366 301 76 99 125
233 367 300 90 109 130
233 367 301 86 106 130
234 364 301 59 88 124
234 365 301 46 78 119
234 364 302 40 75 121
234 365 302 49 78 124
235 364 302 49 80 122
235 364 303 67 92 126
235 365 302 62 88 127
235 365 303 72 94 129
234 366 301 55 83 121
234 367 301 71 94 125
234 366 302 59 85 126
234 367 302 61 88 123
235 366 302 66 90 127
235 366 303 61 87 123
235 367 302 56 84 121
235 367 303 45 77 117
236 360 303 89 78 100
236 361 303 81 91 121
236 362 303 65 89 126
236 363 303 69 95 126
236 364 303 79 101 130
236 365 303 72 94 126
236 366 303 52 80 118
