ply
format ascii 1.0
comment Version 2, Copyright 2017, 8i Labs, Inc.
comment frame_to_world_scale 0.179523
comment frame_to_world_translation -45.2095 7.18301 -54.3561
comment width 1023
element vertex 301
property float x
property float y
property float z
property uchar red
property uchar green
property uchar blue
end_header
237 336 128 81 109 134
237 336 129 80 108 133
237 337 128 92 113 135
237 337 129 87 110 133
237 336 130 82 108 132
237 337 130 87 110 132
236 338 128 97 116 136
236 339 128 96 116 137
237 338 128 97 116 136
237 338 129 98 117 137
237 339 128 98 118 138
237 339 129 100 119 140
237 338 130 99 118 138
237 339 130 104 122 141
237 339 131 103 119 137
238 336 130 79 107 132
238 336 131 80 106 131
238 337 130 85 109 132
238 337 131 88 111 134
238 338 131 99 118 139
238 339 131 104 119 137
238 336 132 77 104 128
238 337 132 89 111 134
238 337 133 93 113 134
239 336 133 78 103 127
239 337 133 90 111 132
239 336 134 80 104 127
239 336 135 85 107 128
239 337 134 93 112 133
239 337 135 95 114 134
238 338 132 99 117 137
238 338 133 100 116 134
238 339 132 103 116 131
238 339 133 99 108 121
238 338 134 104 117 134
238 339 134 103 109 120
238 339 135 112 116 124
239 338 134 102 117 135
239 338 135 106 118 134
239 339 135 113 120 131
236 340 128 87 110 133
236 341 128 74 104 131
237 340 128 90 113 136
237 340 129 91 114 136
237 341 129 82 108 131
237 340 130 95 114 133
237 340 131 93 109 126
237 341 130 84 102 119
237 341 131 74 83 95
236 342 128 73 106 132
236 342 129 82 107 128
236 343 128 77 105 128
236 343 129 79 94 111
237 342 129 79 102 123
236 343 130 75 60 67
237 342 130 77 88 104
237 342 131 76 73 84
237 343 130 71 71 83
237 343 131 75 59 62
238 340 131 91 103 118
237 341 132 65 65 74
237 342 132 80 70 73
237 342 133 106 100 101
237 343 132 98 84 83
237 343 133 120 114 114
237 343 134 125 124 128
237 343 135 121 122 128
238 340 132 88 97 108
238 340 133 86 87 92
238 341 132 71 71 78
238 341 133 91 86 87
238 340 134 106 105 110
238 340 135 125 125 130
238 341 134 118 115 118
238 341 135 126 125 130
238 342 133 109 104 105
238 342 134 122 120 124
238 342 135 119 120 126
238 343 135 118 120 126
239 336 136 90 108 128
239 336 137 96 111 129
239 337 136 100 116 135
239 337 137 104 119 137
239 337 138 111 123 139
238 339 136 130 131 137
239 338 136 113 123 137
239 338 137 117 126 139
239 339 136 126 130 138
239 339 137 132 134 141
239 338 138 123 129 141
239 338 139 124 129 140
239 339 138 135 136 142
239 339 139 134 135 140
239 338 140 126 130 138
239 339 140 136 135 140
239 339 141 135 134 139
239 339 142 132 131 137
237 343 136 126 127 133
237 343 137 129 130 136
238 340 136 129 129 135
238 340 137 133 133 138
238 341 136 125 125 131
238 341 137 134 134 139
239 340 137 138 137 141
238 341 138 138 137 142
239 340 138 140 139 143
239 340 139 139 138 142
239 341 138 139 138 143
239 341 139 138 137 141
238 342 136 124 125 131
238 342 137 133 133 139
238 343 136 126 127 133
238 343 137 129 130 136
238 342 138 134 134 139
238 342 139 131 131 137
238 343 138 126 127 133
238 343 139 128 129 134
239 342 139 135 134 139
239 340 140 138 137 141
239 340 141 136 135 140
239 341 140 137 136 141
239 341 141 137 136 141
239 340 142 136 135 139
239 340 143 137 136 141
239 341 142 137 136 140
239 341 143 138 137 142
238 343 140 131 131 137
238 343 141 127 128 134
239 342 140 135 135 140
239 342 141 135 134 139
239 343 141 130 131 137
239 342 142 135 134 139
239 342 143 138 137 142
239 343 142 133 133 138
239 343 143 138 137 142
235 344 128 81 96 112
235 345 128 78 84 98
235 345 129 80 63 73
234 347 128 74 51 64
235 346 128 72 57 70
235 346 129 81 48 51
235 347 128 74 49 59
235 347 129 88 69 69
235 346 130 105 90 83
235 347 130 121 113 110
235 347 131 135 131 131
233 351 128 136 129 125
234 348 128 82 60 68
234 349 128 84 69 71
234 349 129 106 102 101
235 348 129 101 93 93
235 349 129 119 116 118
235 348 130 127 124 126
235 348 131 133 132 136
235 349 130 131 130 134
235 349 131 127 128 134
234 350 128 110 99 95
234 350 129 128 125 127
234 351 128 135 128 125
234 351 129 135 132 134
234 350 130 126 126 131
234 350 131 122 122 128
234 351 130 129 128 132
234 351 131 126 126 131
235 350 130 129 129 134
235 350 131 122 123 130
235 348 132 128 128 132
235 348 133 125 125 129
235 349 132 119 120 127
235 349 133 123 124 129
235 348 134 133 132 136
235 349 134 131 130 135
235 349 135 129 129 135
234 351 132 130 129 135
234 351 133 129 130 135
235 350 132 121 122 129
235 350 133 126 127 133
235 351 132 128 129 135
235 351 133 129 129 135
234 351 134 123 124 131
235 350 134 127 127 133
235 350 135 122 123 129
235 351 134 121 123 129
235 351 135 120 122 129
236 344 128 83 102 120
236 344 129 76 70 81
236 345 129 79 51 57
236 344 130 78 46 49
236 344 131 94 72 65
236 345 130 91 60 57
236 345 131 113 97 88
237 344 131 97 78 71
236 346 130 103 85 77
236 346 131 130 121 115
236 347 131 139 135 135
236 344 132 124 113 108
236 345 132 133 124 120
236 345 133 138 133 133
237 344 132 115 102 98
237 344 133 130 124 123
237 345 133 136 131 132
236 345 134 137 134 137
237 344 134 127 125 128
237 344 135 128 128 133
237 345 134 133 131 134
237 345 135 133 132 136
236 346 132 141 135 133
236 346 133 140 136 138
236 347 132 139 136 138
236 347 133 135 133 136
236 346 134 138 136 139
236 346 135 136 134 138
236 347 134 136 134 138
236 347 135 137 135 139
236 348 133 128 127 131
236 348 134 134 133 137
236 348 135 135 134 139
235 349 136 128 129 135
235 350 136 125 127 134
235 350 137 129 130 136
235 351 136 124 126 134
235 351 137 122 124 131
235 350 138 125 126 132
235 351 138 122 124 130
235 351 139 131 132 138
235 351 140 133 134 140
237 344 136 130 130 136
237 344 137 123 125 131
237 345 136 130 129 135
237 345 137 124 126 132
237 344 138 121 123 129
237 345 138 126 128 135
237 345 139 129 130 137
236 346 136 133 132 135
236 346 137 131 131 135
236 347 136 136 134 139
236 347 137 135 134 138
237 346 136 131 130 134
237 346 137 130 130 135
237 347 137 134 134 138
236 347 138 136 134 138
236 347 139 135 134 138
237 346 138 132 133 138
237 346 139 128 130 135
237 347 138 134 134 138
237 347 139 133 133 138
238 344 137 120 122 129
238 344 138 122 124 130
238 344 139 128 129 135
238 345 139 129 130 136
237 346 140 126 127 134
237 346 141 131 132 138
237 347 140 134 134 139
237 347 141 134 134 139
237 346 142 130 131 137
237 346 143 125 126 133
237 347 142 129 130 136
237 347 143 127 128 135
238 344 140 126 128 134
238 344 141 125 127 133
238 345 140 122 124 132
238 345 141 125 127 134
238 344 142 133 133 139
238 344 143 135 134 140
238 345 142 133 133 140
238 345 143 130 131 137
239 344 143 137 136 141
238 346 140 121 124 131
238 346 141 129 131 138
238 346 142 130 131 138
238 346 143 125 126 133
236 348 136 134 133 138
236 348 137 136 135 139
236 349 136 131 131 136
236 349 137 133 133 138
236 348 138 136 135 139
236 348 139 137 135 139
236 349 138 134 134 138
236 349 139 136 135 139
236 350 138 128 129 134
236 350 139 133 133 138
236 351 139 132 132 138
236 348 140 138 136 140
236 349 140 139 137 141
236 349 141 138 136 140
237 348 140 138 137 141
237 348 141 137 136 140
237 349 141 136 135 139
236 349 142 136 135 139
237 348 142 133 133 138
237 348 143 133 134 139
237 349 142 135 134 139
237 349 143 135 135 140
236 350 140 138 137 141
236 350 141 136 135 139
236 351 140 134 134 140
236 351 141 130 131 137
236 350 142 135 134 139
236 350 143 135 136 141
236 351 142 132 133 139
236 351 143 133 135 142
