ply
format ascii 1.0
comment Version 2, Copyright 2017, 8i Labs, Inc.
comment frame_to_world_scale 0.179523
comment frame_to_world_translation -45.2095 7.18301 -54.3561
comment width 1023
element vertex 300
property float x
property float y
property float z
property uchar red
property uchar green
property uchar blue
end_header
225 336 272 158 132 103
225 336 273 160 133 103
226 336 272 157 131 102
226 336 273 159 132 102
226 337 272 155 130 101
226 337 273 158 130 98
226 336 274 160 132 100
226 336 275 161 131 97
226 337 274 157 127 90
226 337 275 156 121 78
226 338 272 153 127 99
226 338 273 151 120 84
226 339 272 143 122 102
226 339 273 135 108 82
226 338 274 146 108 58
226 338 275 143 94 33
226 339 274 127 93 56
226 339 275 123 81 40
225 336 276 158 122 86
225 336 277 152 103 57
225 336 278 152 80 24
226 336 276 156 117 76
226 336 277 151 96 41
226 337 276 152 105 51
226 337 277 149 84 15
226 336 278 153 76 9
226 336 279 155 58 2
226 337 278 153 72 4
226 337 279 154 64 9
226 338 276 143 79 17
226 338 277 143 74 20
226 339 276 123 79 51
226 339 277 122 85 66
226 338 278 143 74 34
226 338 279 139 75 47
226 339 278 118 92 85
226 339 279 112 98 97
225 342 272 97 113 129
225 342 273 97 113 130
225 343 272 114 117 121
225 343 273 114 117 122
225 343 274 114 117 122
225 343 275 123 118 114
226 340 272 122 116 114
226 340 273 115 108 108
226 341 272 100 110 123
226 341 273 97 109 124
226 340 274 111 102 102
226 340 275 108 99 102
226 341 274 95 108 124
226 341 275 94 109 126
226 342 272 95 111 128
226 342 273 95 111 130
226 343 272 104 115 129
226 342 274 96 113 131
226 342 275 95 113 131
226 343 275 108 117 127
225 343 276 129 117 106
226 340 276 106 100 105
226 340 277 105 105 113
226 341 276 94 111 129
226 341 277 94 112 130
226 340 278 101 107 118
226 340 279 99 111 125
226 341 278 94 113 131
226 341 279 97 115 133
226 342 276 96 114 133
226 342 277 98 115 133
226 343 276 116 117 120
226 343 277 121 118 117
226 342 278 101 117 134
226 342 279 106 119 134
226 343 278 122 119 117
226 343 279 127 117 111
226 336 280 157 56 3
226 336 281 156 54 6
226 337 280 154 65 15
226 337 281 151 69 22
226 336 282 157 51 6
226 336 283 155 53 11
226 337 282 145 70 31
226 337 283 140 68 35
227 337 283 128 80 61
226 338 280 134 83 62
226 338 281 127 91 72
226 339 280 106 105 111
226 339 281 104 112 123
226 338 282 119 97 87
226 338 283 116 99 92
226 339 282 102 113 126
227 338 283 107 107 111
227 339 282 100 117 133
227 339 283 100 116 132
227 336 284 150 62 23
227 336 285 137 78 52
227 337 284 128 79 61
227 337 285 117 100 100
227 336 286 124 90 76
227 337 286 107 107 115
227 338 284 104 109 118
227 338 285 100 113 128
227 339 284 101 118 136
227 339 285 103 120 138
227 338 286 98 113 129
226 340 280 98 114 131
226 340 281 99 117 135
226 341 280 99 116 134
226 341 281 100 116 134
227 341 281 103 118 134
226 340 282 99 117 136
227 340 282 100 118 137
227 340 283 101 118 136
227 341 282 103 118 135
227 341 283 104 119 135
226 342 280 108 120 133
226 342 281 112 122 133
226 343 280 127 115 108
226 343 281 130 113 105
227 342 281 113 122 133
227 343 281 131 113 103
227 342 282 115 123 132
227 342 283 118 123 130
227 343 282 134 111 99
227 343 283 135 106 88
227 340 284 104 120 137
227 340 285 107 121 139
227 341 284 111 123 136
227 341 285 116 126 138
227 342 284 124 123 125
227 342 285 128 124 124
227 343 284 139 99 73
227 343 285 141 97 66
228 336 286 121 97 88
228 336 287 114 106 109
228 337 286 104 110 121
228 337 287 102 115 129
228 339 285 103 119 137
228 338 286 99 117 135
228 338 287 100 117 135
228 339 286 101 118 136
228 339 287 102 117 135
228 340 285 107 122 139
228 341 285 118 126 136
228 340 286 109 122 138
228 340 287 111 123 137
228 341 286 120 125 132
228 341 287 123 123 125
228 342 285 134 123 118
228 343 285 144 92 56
228 342 286 136 117 104
228 342 287 137 106 86
228 343 286 146 81 30
228 343 287 149 72 17
225 344 272 128 100 74
225 344 273 130 100 72
225 345 272 135 65 14
225 345 273 137 68 13
225 344 274 132 99 69
225 344 275 134 98 62
225 345 274 140 67 11
225 345 275 141 68 10
225 346 272 140 56 2
225 346 273 141 58 0
225 347 272 137 54 2
225 347 273 138 56 2
225 346 274 142 61 0
225 346 275 143 62 0
225 347 274 139 61 0
225 347 275 141 65 0
225 344 276 134 93 51
225 345 276 142 68 6
225 345 277 145 67 3
225 346 276 145 63 0
225 346 277 147 67 0
225 347 276 142 67 1
225 347 277 144 68 5
225 346 278 147 67 0
225 347 278 146 68 1
225 347 279 147 69 0
226 344 276 132 102 71
226 344 277 136 90 46
226 345 277 143 69 0
226 344 278 139 87 40
226 344 279 142 76 25
226 345 278 146 66 0
226 345 279 147 61 1
226 346 278 147 67 0
226 346 279 147 66 0
226 347 279 147 68 0
225 348 272 135 52 3
225 348 273 138 54 3
225 349 272 136 56 1
225 349 273 138 54 1
224 348 274 139 58 1
224 348 275 141 59 0
225 348 274 140 56 1
225 348 275 141 61 0
225 349 274 140 54 1
225 349 275 142 57 2
225 350 272 137 60 1
225 350 273 138 56 1
225 351 272 138 67 0
225 351 273 139 61 0
225 350 274 139 55 2
225 350 275 140 56 2
225 351 274 139 61 0
225 351 275 140 61 0
225 348 276 142 66 0
225 348 277 143 68 0
225 349 276 142 61 6
225 349 277 143 65 5
225 348 278 144 70 1
225 348 279 146 71 0
225 349 278 144 68 1
225 349 279 144 69 2
225 350 276 142 56 1
225 350 277 144 60 0
225 351 276 140 58 3
225 351 277 139 60 8
225 350 278 143 63 2
225 350 279 142 66 5
225 351 278 135 62 5
225 351 279 130 64 7
226 344 280 141 74 30
226 344 281 141 66 22
226 345 280 148 54 2
226 345 281 148 52 2
227 344 281 143 65 23
227 344 282 145 63 21
227 344 283 146 63 12
227 345 282 150 54 2
227 345 283 150 57 2
226 346 280 147 63 0
226 346 281 148 59 1
226 347 280 147 68 0
226 347 281 147 65 2
226 346 282 148 59 0
226 347 282 148 63 2
227 346 282 148 57 0
227 346 283 148 55 2
227 347 282 148 56 1
227 347 283 148 56 4
227 344 284 149 64 5
227 344 285 151 68 0
227 345 284 150 60 0
227 345 285 151 64 3
227 346 284 148 57 1
227 346 285 148 61 3
227 347 284 147 55 5
227 347 285 145 57 10
225 348 280 147 71 1
225 349 280 145 69 4
225 350 280 140 67 9
225 351 280 124 69 25
225 351 281 114 83 58
226 348 280 146 69 1
226 348 281 146 68 3
226 349 280 145 69 5
226 349 281 144 69 9
226 348 282 146 68 8
226 348 283 146 67 12
226 349 282 142 69 19
226 349 283 138 72 35
227 348 283 145 64 15
227 349 283 136 76 45
226 350 281 136 70 26
226 351 281 120 78 49
226 350 282 133 72 38
226 350 283 129 84 62
226 351 282 123 94 73
226 351 283 132 109 94
227 348 284 139 64 22
227 348 285 134 68 35
227 349 284 131 78 52
227 349 285 127 89 65
226 351 284 136 120 107
227 350 284 131 102 82
227 350 285 130 110 93
227 351 284 135 119 106
227 351 285 132 119 109
227 350 286 123 108 92
227 351 286 128 116 107
228 344 285 151 70 2
228 345 285 150 65 2
228 344 286 150 69 5
228 344 287 151 69 3
228 345 286 148 65 1
228 345 287 148 70 5
228 346 285 147 63 4
228 346 286 146 63 5
228 346 287 144 71 17
228 347 286 141 67 22
228 347 287 135 76 30
228 348 286 126 79 50
228 348 287 120 86 56
228 349 286 120 95 75
228 349 287 113 94 74
228 350 286 120 106 91
228 350 287 117 104 91
228 351 287 123 112 103
