ply
format ascii 1.0
comment Version 2, Copyright 2017, 8i Labs, Inc.
comment frame_to_world_scale 0.179523
comment frame_to_world_translation -45.2095 7.18301 -54.3561
comment width 1023
element vertex 318
property float x
property float y
property float z
property uchar red
property uchar green
property uchar blue
end_header
224 560 214 164 166 176
224 561 214 172 172 180
225 560 214 164 165 175
225 561 214 170 170 179
225 561 215 171 172 180
224 562 214 175 174 182
224 563 214 173 173 182
224 563 215 176 175 183
225 562 214 172 171 179
225 562 215 174 173 180
225 563 215 174 172 179
226 560 215 169 169 178
226 561 215 174 173 180
227 560 215 172 172 179
227 561 215 176 174 180
226 562 215 176 174 180
226 563 215 177 174 179
224 564 214 162 165 176
224 564 215 169 170 180
224 565 214 147 156 172
224 565 215 151 157 171
225 564 215 170 169 176
225 565 215 164 166 176
224 566 214 137 151 170
224 566 215 140 151 169
224 567 214 133 149 170
224 567 215 133 149 170
225 566 215 155 160 174
225 567 215 155 163 179
226 564 215 174 172 179
226 565 215 169 171 180
231 560 215 125 147 173
231 561 215 126 148 173
231 562 215 126 146 170
231 563 215 120 142 166
229 567 215 170 168 175
231 564 215 118 139 166
231 565 215 115 135 161
230 566 215 141 147 160
230 567 215 162 162 171
231 566 215 128 142 160
231 567 215 155 159 171
226 560 216 168 169 178
227 560 216 172 171 179
227 561 216 176 173 179
226 562 216 176 174 180
226 563 216 176 174 180
227 562 216 177 174 179
227 563 216 177 174 181
225 566 216 169 172 183
225 567 216 170 174 186
226 564 216 173 171 178
226 565 216 169 169 178
227 564 216 174 173 180
227 565 216 165 166 176
226 566 216 174 175 185
226 567 216 178 179 189
227 566 216 169 171 182
227 567 216 176 177 187
228 560 216 166 166 175
228 561 216 170 169 177
229 560 216 140 149 165
229 561 216 144 152 167
228 562 216 175 172 179
228 563 216 178 175 181
229 562 216 165 168 179
229 563 216 169 169 179
230 560 216 123 144 169
230 561 216 117 139 164
231 561 216 125 148 174
230 562 216 133 148 168
230 563 216 139 151 170
231 562 216 123 143 167
231 563 216 119 141 166
228 564 216 175 174 182
228 565 216 169 171 181
229 564 216 156 159 170
229 565 216 155 158 168
228 566 216 170 171 181
228 567 216 175 175 184
229 566 216 162 162 170
229 567 216 174 172 179
230 564 216 125 139 163
230 565 216 123 135 155
230 566 216 140 145 157
224 568 215 131 149 172
224 569 215 130 149 173
225 568 215 152 162 179
225 569 215 140 155 176
224 570 215 126 147 172
224 571 215 127 147 171
225 570 215 131 151 176
225 571 215 126 148 173
227 569 215 169 172 182
226 570 215 143 157 178
226 571 215 135 152 174
227 570 215 155 163 179
227 571 215 139 152 170
224 572 215 129 148 171
224 573 214 138 151 169
224 573 215 136 151 172
225 572 215 124 146 172
225 573 215 124 147 173
224 574 214 142 154 171
224 574 215 139 153 172
224 575 214 154 160 174
225 574 215 128 149 176
225 575 215 136 151 176
226 572 215 131 150 175
226 573 215 124 147 174
227 572 215 135 151 173
227 573 215 131 150 174
226 574 215 121 146 175
226 575 215 126 148 178
227 574 215 124 147 174
227 575 215 127 149 175
228 569 215 173 173 181
229 568 215 172 171 178
229 569 215 172 171 178
228 570 215 169 170 180
228 571 215 159 164 176
229 570 215 168 167 174
229 571 215 168 167 175
230 568 215 168 168 176
230 569 215 163 163 171
231 568 214 160 164 175
231 568 215 161 163 172
231 569 214 159 162 173
231 569 215 159 161 170
230 570 214 149 151 162
230 570 215 157 158 168
230 571 214 154 155 165
231 570 214 149 154 165
231 570 215 148 151 163
231 571 214 144 149 161
228 572 215 150 158 174
228 573 215 138 152 172
229 572 215 168 169 179
229 573 215 157 163 178
228 574 215 132 149 171
228 575 215 130 148 171
229 574 215 143 154 172
229 575 214 135 148 167
229 575 215 135 149 169
230 572 214 162 162 172
230 572 215 168 169 178
230 573 214 169 169 178
230 573 215 168 170 180
231 572 214 157 159 168
231 573 214 167 166 174
230 574 214 166 167 178
230 575 214 159 163 175
231 574 214 170 169 177
231 575 214 174 173 180
225 568 216 167 172 185
225 569 216 153 162 179
226 568 216 174 177 188
226 569 216 162 168 183
227 568 216 177 178 188
227 569 216 174 176 187
228 568 216 174 174 182
228 569 216 176 176 184
232 560 215 120 140 164
232 561 215 122 142 167
233 560 215 111 129 153
233 561 214 108 129 154
233 561 215 112 132 156
232 562 215 125 144 167
232 563 215 126 144 167
233 562 214 113 133 157
233 562 215 116 136 159
233 563 214 120 140 163
233 563 215 123 141 164
234 560 214 121 136 157
234 560 215 106 124 150
234 561 214 107 127 152
235 560 214 150 161 178
235 561 214 132 146 167
235 563 213 109 134 163
234 562 214 113 133 158
234 563 214 116 138 163
235 562 214 118 138 163
235 563 214 113 136 164
232 564 215 127 144 166
232 565 214 124 143 167
232 565 215 117 137 160
233 564 214 126 145 170
233 565 214 124 146 171
232 566 214 120 140 163
232 567 214 140 153 172
233 566 214 123 146 171
233 567 214 125 146 171
234 565 213 112 138 166
235 564 213 107 133 162
235 565 213 105 131 161
234 564 214 113 138 166
234 565 214 113 139 168
235 564 214 110 135 164
234 566 213 124 146 172
234 567 213 121 145 170
235 566 213 112 137 165
235 567 213 118 142 168
234 566 214 123 145 171
236 560 213 123 137 160
236 561 213 124 141 168
237 560 213 149 156 171
237 561 213 120 135 158
236 560 214 134 146 169
236 562 213 119 140 167
236 563 213 110 135 165
237 562 213 114 132 159
237 563 213 116 134 165
236 562 214 119 141 168
238 560 213 178 178 186
238 561 213 170 172 183
239 560 213 180 179 187
239 561 213 179 179 187
238 562 213 157 162 179
238 563 213 138 147 172
239 562 213 168 173 184
239 563 213 138 148 170
236 564 213 104 128 162
236 565 213 100 123 161
237 564 213 103 121 163
237 565 213 80 99 155
236 566 213 98 124 159
236 567 213 99 125 155
237 566 212 90 104 152
237 566 213 93 111 157
237 567 213 84 107 145
238 564 213 102 112 159
238 565 213 54 66 141
239 564 213 94 104 152
239 565 213 54 67 137
238 566 212 62 79 139
238 566 213 62 79 140
238 567 213 70 92 138
239 566 212 56 77 133
239 567 212 68 93 135
239 567 213 76 99 140
232 568 214 144 154 172
232 569 214 145 155 171
233 568 214 123 143 168
233 569 214 124 143 167
232 570 214 148 156 171
232 571 214 148 155 168
233 570 214 112 134 160
233 571 214 116 135 160
234 568 213 113 139 166
234 569 213 110 136 165
235 568 213 115 139 165
235 569 213 110 136 163
234 568 214 114 139 166
234 569 214 111 136 163
234 570 213 105 133 162
234 571 213 104 130 161
235 570 213 108 133 162
235 571 213 111 135 164
234 570 214 104 131 160
234 571 214 106 131 161
235 571 214 109 132 163
232 572 214 154 158 169
232 573 214 161 163 172
233 572 214 127 142 163
233 573 214 138 149 166
232 574 214 167 167 176
232 575 214 171 170 178
233 574 214 143 151 166
233 575 214 147 153 165
234 573 213 102 123 156
235 572 213 101 128 159
235 573 213 92 119 154
234 572 214 103 127 158
234 573 214 105 126 156
235 572 214 101 126 158
234 574 213 106 126 157
235 574 213 98 123 156
235 575 213 109 129 159
234 574 214 113 131 157
234 575 214 114 131 156
235 575 214 106 128 158
236 568 213 104 129 157
236 569 213 106 133 162
237 568 213 86 113 145
237 569 213 103 131 162
236 570 213 102 131 163
236 571 213 104 131 161
237 570 213 100 131 164
237 571 213 100 130 163
238 568 213 95 118 151
238 569 213 110 136 166
239 568 212 81 107 141
239 568 213 95 119 152
239 569 213 101 128 161
238 570 213 104 134 167
238 571 213 101 131 164
239 570 213 101 129 164
239 571 213 101 130 164
236 572 213 100 128 159
236 573 213 86 119 153
237 572 213 102 131 163
237 573 213 81 112 149
237 573 214 85 118 152
236 574 213 84 115 151
236 575 213 92 120 155
237 574 213 67 100 142
237 575 213 82 109 149
236 575 214 102 127 160
238 572 213 99 129 161
238 573 213 96 123 156
239 572 213 101 130 163
239 573 213 104 131 164
238 572 214 101 132 163
238 574 213 82 110 149
238 575 213 86 115 152
239 574 213 96 126 160
238 575 214 90 120 156
239 575 214 90 123 158
