ply
format ascii 1.0
comment Version 2, Copyright 2017, 8i Labs, Inc.
comment frame_to_world_scale 0.179523
comment frame_to_world_translation -45.2095 7.18301 -54.3561
comment width 1023
element vertex 165
property float x
property float y
property float z
property uchar red
property uchar green
property uchar blue
end_header
224 512 227 127 141 182
224 513 226 127 139 183
224 513 227 120 134 179
225 512 227 121 137 185
225 513 226 134 144 186
225 513 227 127 141 186
224 514 225 112 126 177
224 515 225 112 127 177
225 514 225 101 116 168
225 515 225 117 130 176
224 514 226 123 135 182
225 514 226 120 131 177
226 512 227 118 135 187
226 513 226 124 138 183
227 512 227 126 141 189
227 513 226 124 137 187
226 514 225 98 116 166
226 515 225 127 144 180
227 514 225 107 122 174
227 515 225 128 143 180
226 514 226 109 123 169
224 516 224 125 139 181
224 516 225 119 133 179
224 517 224 130 146 183
225 516 224 132 148 184
225 516 225 133 147 184
225 517 224 137 153 186
224 518 224 156 173 200
225 518 224 151 168 196
226 516 224 151 165 191
226 516 225 146 160 189
226 517 224 143 158 185
227 516 224 142 156 180
227 516 225 150 163 187
227 517 224 142 157 180
226 518 224 146 162 190
227 518 224 136 153 179
228 513 225 125 138 190
228 512 227 131 146 191
228 513 226 125 137 190
229 512 227 140 154 195
229 513 226 129 143 192
228 514 225 116 133 183
228 515 225 123 141 180
229 514 225 126 144 187
229 515 225 129 147 184
230 513 225 165 181 207
230 512 227 140 156 193
230 513 226 144 161 198
231 512 226 152 168 204
231 512 227 135 150 192
231 513 226 166 182 209
230 514 225 161 176 203
230 515 224 142 155 187
230 515 225 145 159 191
231 514 225 186 198 216
231 515 224 159 171 199
231 515 225 172 183 207
228 516 224 124 141 174
228 517 224 119 139 172
229 516 224 121 139 177
229 516 225 122 140 178
229 517 224 115 135 175
229 518 224 121 142 179
230 516 224 119 136 178
230 517 224 116 136 177
231 516 224 123 143 183
231 517 224 114 141 182
230 518 224 126 149 181
231 518 224 132 156 185
231 519 224 132 153 178
232 512 227 125 140 187
232 513 226 142 163 197
232 513 227 127 145 188
233 512 227 126 145 187
233 513 226 113 135 182
233 513 227 113 135 180
232 514 225 158 175 202
232 515 225 144 161 196
233 515 225 100 120 182
232 514 226 130 152 188
233 514 226 112 133 182
234 512 227 150 166 199
234 513 226 120 139 181
234 513 227 146 163 194
235 512 227 153 169 198
235 513 227 165 179 202
234 515 225 87 108 176
235 515 225 81 110 175
234 514 226 111 129 176
234 515 226 92 111 173
235 514 226 156 169 197
235 514 227 173 184 206
235 515 226 108 129 178
233 512 228 133 149 191
234 512 228 138 154 196
235 512 228 131 147 191
232 516 224 95 125 178
232 516 225 113 138 184
232 517 224 118 147 190
233 516 225 81 112 179
233 517 224 125 154 197
232 518 224 138 163 192
232 519 224 135 158 184
233 518 224 146 171 200
233 519 224 141 164 192
234 516 225 79 113 181
234 517 224 136 167 201
234 517 225 108 145 193
235 516 225 94 130 187
235 517 225 123 160 200
234 518 224 153 178 207
234 519 224 150 173 200
235 518 224 162 185 212
235 518 225 155 181 211
235 519 224 155 178 206
236 513 227 145 161 186
237 513 227 166 178 198
236 514 227 162 175 197
236 515 226 123 140 183
237 514 226 130 145 181
237 514 227 159 172 194
237 515 226 97 120 175
238 513 227 182 192 207
239 513 227 129 148 174
238 514 227 160 174 201
238 515 226 85 114 170
239 514 227 134 153 188
239 515 226 78 109 165
236 512 228 129 143 188
236 513 228 142 157 185
237 512 228 158 169 201
237 513 228 166 178 200
238 512 228 165 175 199
238 513 228 176 187 204
239 512 228 123 138 166
239 513 228 121 141 166
236 516 225 109 142 191
236 517 225 149 177 209
237 516 225 138 164 199
237 517 225 154 179 207
236 516 226 86 117 175
237 516 226 110 139 185
236 518 224 157 181 211
236 518 225 154 179 209
236 519 224 148 174 205
237 518 224 150 177 207
237 518 225 153 178 206
237 519 224 143 170 203
238 516 225 144 166 194
238 517 225 155 175 199
239 516 225 153 174 200
239 517 225 165 183 206
238 516 226 121 147 186
239 516 226 118 144 181
238 518 224 149 174 203
238 518 225 153 176 203
238 519 224 138 165 196
239 518 224 145 171 200
239 518 225 154 176 203
239 519 224 131 159 195
234 520 224 141 162 191
235 520 224 146 169 200
236 520 224 151 176 207
237 520 224 138 167 199
