ply
format ascii 1.0
comment Version 2, Copyright 2017, 8i Labs, Inc.
comment frame_to_world_scale 0.179523
comment frame_to_world_translation -45.2095 7.18301 -54.3561
comment width 1023
element vertex 20
property float x
property float y
property float z
property uchar red
property uchar green
property uchar blue
end_header
224 736 208 136 116 121
224 736 209 146 122 124
224 737 208 131 108 103
225 736 208 161 137 140
225 736 209 162 136 137
225 737 208 141 113 108
224 738 208 126 99 85
225 738 208 132 100 83
226 736 208 156 128 121
226 736 209 157 128 124
226 737 208 140 111 111
227 736 208 147 117 106
227 736 209 154 123 109
227 737 208 139 116 110
226 738 208 134 106 97
227 738 208 132 108 104
228 736 208 142 116 104
228 737 208 139 120 110
229 736 208 131 109 105
229 737 208 127 107 104
