ply
format ascii 1.0
comment Version 2, Copyright 2017, 8i Labs, Inc.
comment frame_to_world_scale 0.179523
comment frame_to_world_translation -45.2095 7.18301 -54.3561
comment width 1023
element vertex 48
property float x
property float y
property float z
property uchar red
property uchar green
property uchar blue
end_header
224 769 193 183 169 161
225 768 193 124 126 131
225 769 192 130 131 135
225 769 193 143 141 143
224 768 194 166 148 133
224 769 194 187 169 156
225 768 194 123 120 121
224 770 192 196 179 167
224 770 193 188 172 161
224 771 192 203 183 169
225 770 192 177 164 157
225 770 193 165 155 151
225 771 192 198 178 163
226 768 193 94 102 116
226 769 192 104 109 120
227 768 192 103 103 117
227 768 193 104 105 119
227 769 192 103 108 119
226 770 192 149 141 139
227 770 192 134 129 128
224 772 192 194 176 163
228 768 192 115 105 113
228 769 192 121 117 121
229 768 192 157 124 125
229 769 192 154 136 130
228 770 192 148 139 136
229 770 192 167 152 143
230 768 192 172 111 119
230 769 192 166 133 123
231 768 192 173 119 123
231 769 192 180 155 144
232 768 192 161 141 135
232 769 192 171 156 147
233 768 192 145 141 140
233 769 192 146 133 124
234 768 192 140 142 149
234 769 192 138 125 118
235 768 192 128 131 140
235 769 192 117 106 102
236 768 192 96 105 119
236 769 192 96 97 104
237 768 192 96 110 127
237 769 192 102 117 135
238 768 192 106 128 151
238 769 192 88 114 138
239 768 192 96 126 152
239 769 192 91 107 124
239 770 192 139 132 130
