ply
format ascii 1.0
comment Version 2, Copyright 2017, 8i Labs, Inc.
comment frame_to_world_scale 0.179523
comment frame_to_world_translation -45.2095 7.18301 -54.3561
comment width 1023
element vertex 308
property float x
property float y
property float z
property uchar red
property uchar green
property uchar blue
end_header
225 704 80 117 134 153
226 704 80 124 138 156
226 704 81 131 143 158
226 705 80 123 138 156
226 705 81 130 142 158
227 704 81 134 145 160
227 705 81 132 143 159
227 704 82 135 146 161
227 705 82 134 145 161
226 706 80 119 136 155
226 706 81 128 141 157
226 707 80 119 137 156
227 706 81 130 142 159
227 707 80 128 141 159
227 707 81 130 143 159
227 706 82 133 145 161
227 707 82 130 143 159
226 708 80 121 138 157
227 708 80 124 140 159
227 708 81 129 143 161
227 709 80 123 141 161
227 709 81 128 143 161
226 710 80 123 141 161
227 710 80 124 141 161
227 710 81 127 143 162
227 711 80 127 142 161
227 711 81 128 143 162
228 704 82 134 146 162
228 704 83 134 145 161
228 705 82 134 145 161
228 705 83 134 145 161
229 704 83 136 146 162
229 705 83 137 147 162
228 706 82 135 146 162
228 706 83 136 148 164
228 707 82 134 146 163
228 707 83 136 148 164
229 706 83 138 148 163
229 707 83 137 148 164
230 707 83 139 149 165
229 704 84 138 148 163
230 704 84 139 148 162
230 705 84 140 149 163
231 704 84 141 149 163
231 704 85 141 149 164
231 705 84 143 151 165
231 705 85 143 152 166
230 706 84 141 150 164
230 707 84 140 150 165
231 706 84 143 151 165
231 706 85 144 152 166
231 707 84 140 149 164
231 707 85 142 151 165
228 709 81 131 145 163
228 708 82 133 146 164
228 708 83 133 146 164
228 709 82 133 146 163
229 708 82 134 147 165
229 708 83 134 147 164
229 709 82 134 147 164
229 709 83 134 147 164
228 710 81 129 144 162
228 711 81 131 144 163
228 710 82 130 144 162
228 711 82 131 145 162
229 710 82 132 144 161
229 710 83 132 145 162
229 711 82 133 146 163
229 711 83 131 145 163
230 708 83 135 147 163
230 709 83 134 146 163
230 710 83 132 145 162
230 711 83 131 145 163
231 711 83 131 146 165
230 708 84 136 147 164
230 709 84 135 147 164
231 708 84 139 150 165
231 709 84 136 148 165
231 710 84 132 147 165
231 711 84 133 148 167
227 712 80 130 145 163
227 712 81 130 144 162
227 713 80 130 144 163
228 712 81 132 146 163
228 713 80 132 144 162
228 713 81 132 144 161
229 713 81 131 144 161
229 712 82 132 145 163
229 713 82 131 144 161
228 714 80 132 145 162
228 714 81 134 145 162
228 715 80 135 148 165
228 715 81 137 148 164
229 714 81 132 144 161
229 715 81 136 148 165
230 712 82 132 145 163
230 712 83 132 146 164
230 713 82 130 143 161
230 713 83 128 143 161
231 712 83 132 146 165
231 713 83 129 144 163
230 714 82 126 141 159
230 715 82 128 143 162
231 714 83 126 142 162
231 715 83 129 144 164
231 712 84 132 147 166
231 713 84 132 147 165
231 714 84 130 145 164
228 716 80 135 148 165
228 717 80 131 145 163
229 716 80 136 149 166
229 716 81 137 150 167
229 717 80 135 149 166
229 717 81 137 151 168
228 718 80 129 143 160
229 718 80 135 148 164
229 719 80 127 141 158
230 716 81 137 150 168
230 717 81 137 150 167
230 716 82 136 150 167
230 717 82 134 146 162
231 716 82 132 146 163
231 716 83 129 143 160
231 717 82 113 125 139
231 717 83 113 125 138
230 718 81 138 148 162
230 719 80 126 138 153
230 719 81 128 135 146
231 718 81 126 128 138
231 719 81 122 124 134
230 718 82 128 136 150
231 718 82 106 105 114
231 719 82 114 98 101
232 704 85 136 147 163
232 705 85 142 152 166
233 705 85 138 150 167
233 704 86 132 145 164
233 705 86 134 148 166
232 706 85 142 151 166
232 707 85 137 147 162
233 706 85 136 148 165
233 707 85 130 143 161
233 706 86 132 146 163
234 704 86 129 144 164
234 704 87 127 143 163
234 705 86 131 145 164
234 705 87 128 144 163
235 704 87 127 143 162
235 705 87 128 142 161
234 706 86 127 142 160
234 707 86 126 140 158
235 706 87 125 140 158
235 707 86 124 139 156
235 707 87 123 138 156
232 708 85 136 147 163
232 709 84 133 146 163
232 709 85 133 146 163
233 708 85 130 144 162
233 709 85 131 145 163
232 710 84 134 148 166
232 710 85 135 149 167
232 711 84 136 150 168
232 711 85 136 150 167
233 710 85 132 147 165
233 711 85 131 145 164
234 708 85 128 142 160
234 709 85 130 144 162
234 708 86 126 140 157
234 709 86 129 143 160
235 708 86 125 138 156
235 708 87 124 138 156
235 709 86 124 138 156
234 710 85 129 144 163
234 711 85 125 141 160
234 710 86 127 142 160
235 710 86 125 139 157
235 711 86 126 140 158
236 704 87 128 142 160
236 705 87 125 140 157
236 706 87 122 136 154
236 707 87 122 137 154
237 706 87 122 134 149
237 707 87 123 135 150
236 708 87 123 137 154
236 709 87 124 138 155
237 708 87 124 136 151
237 709 87 125 137 153
236 710 86 126 139 157
236 710 87 126 140 157
236 711 86 128 142 159
236 711 87 128 142 160
237 710 87 128 140 157
237 711 87 128 141 158
238 710 87 126 138 153
238 711 87 125 137 153
236 704 88 130 144 161
237 704 88 132 143 159
237 705 88 129 139 154
237 706 88 125 136 150
237 707 88 126 136 149
238 704 88 134 143 157
238 704 89 133 142 157
238 705 88 131 139 153
239 704 89 127 139 154
239 705 89 127 137 152
238 706 88 130 138 151
238 707 88 127 136 149
239 706 88 131 139 153
239 706 89 131 140 153
239 707 88 126 135 147
239 707 89 128 136 149
237 708 88 124 135 150
238 708 88 123 132 146
238 709 88 124 134 148
239 708 88 123 132 144
239 709 88 124 133 146
238 710 88 124 135 150
238 711 88 121 133 149
239 710 88 120 131 146
239 711 88 119 131 145
232 715 83 133 147 165
232 712 84 134 148 166
232 713 84 134 148 165
233 712 85 132 146 164
233 713 84 132 145 162
233 713 85 130 144 161
232 714 84 134 147 164
232 715 84 134 144 159
233 714 84 122 135 152
233 714 85 107 123 142
233 715 84 95 110 127
234 712 85 128 143 162
234 713 85 124 141 160
235 712 85 128 143 162
235 713 85 128 144 164
235 712 86 127 141 160
235 713 86 129 143 162
234 714 85 119 136 155
234 715 85 118 133 152
235 714 85 128 145 165
235 715 85 126 143 164
232 716 83 130 139 152
232 717 83 97 95 100
232 718 83 102 70 77
232 719 82 121 75 80
232 719 83 123 46 54
233 718 83 111 74 76
233 719 83 127 49 58
234 719 83 129 61 69
232 716 84 109 114 122
233 716 84 88 97 107
233 717 84 98 91 93
233 718 84 111 95 93
234 716 84 124 134 147
234 716 85 128 140 156
234 717 84 130 133 139
235 716 85 127 143 162
235 717 84 133 140 152
235 717 85 128 141 156
234 718 84 125 109 111
234 719 84 124 75 78
235 718 84 125 124 129
235 718 85 126 133 143
235 719 84 122 102 103
236 712 86 130 143 160
236 713 86 129 142 159
237 712 86 128 141 158
237 712 87 128 142 159
237 713 86 125 139 156
237 713 87 125 139 156
236 714 85 127 142 161
236 715 85 123 140 160
236 714 86 124 139 157
236 715 86 121 137 156
237 714 86 121 135 152
237 715 86 119 134 151
238 712 87 125 137 153
238 713 87 124 137 152
239 713 87 120 131 146
238 714 86 121 134 150
238 714 87 122 134 149
238 715 86 122 133 148
238 715 87 123 134 148
239 714 87 123 133 147
239 715 87 124 134 147
236 716 85 121 139 158
236 717 85 122 137 155
237 717 85 115 131 149
236 716 86 119 137 156
237 716 86 117 133 152
237 717 86 116 131 149
236 718 85 122 133 146
236 719 85 121 123 129
237 718 85 115 130 146
237 719 85 118 128 139
237 718 86 116 131 147
238 716 86 120 131 146
238 717 86 118 130 145
239 716 86 122 131 143
239 716 87 124 133 146
239 717 86 123 131 144
239 717 87 125 133 144
238 718 86 118 130 145
238 719 86 117 129 141
239 718 86 121 129 142
239 719 86 122 131 143
239 712 88 118 130 145
239 713 88 113 126 141
