ply
format ascii 1.0
comment Version 2, Copyright 2017, 8i Labs, Inc.
comment frame_to_world_scale 0.179523
comment frame_to_world_translation -45.2095 7.18301 -54.3561
comment width 1023
element vertex 204
property float x
property float y
property float z
property uchar red
property uchar green
property uchar blue
end_header
230 65 112 104 86 69
231 64 112 103 86 70
231 65 112 104 87 70
230 66 112 106 88 70
230 67 112 109 90 73
231 66 112 105 87 70
231 67 112 107 89 70
231 67 113 106 88 69
230 68 112 111 92 74
230 69 112 113 94 76
231 68 113 108 89 70
231 69 113 110 91 72
230 70 112 113 94 76
230 71 112 112 93 74
231 70 113 112 93 74
231 71 113 112 93 74
230 72 112 113 93 74
230 73 112 113 94 75
231 72 112 113 93 75
231 72 113 112 93 74
231 73 112 113 94 75
231 73 113 112 93 74
230 74 112 114 95 76
231 74 112 114 94 76
231 75 112 114 95 76
231 76 112 114 95 76
231 77 112 114 94 75
231 78 112 114 93 73
232 64 113 104 86 69
232 65 113 103 86 68
233 64 114 104 86 68
233 65 114 103 85 66
232 66 113 103 85 67
232 67 113 104 86 67
232 67 114 106 87 68
233 66 114 103 85 66
233 66 115 105 86 67
233 67 114 105 87 67
233 67 115 107 88 69
234 64 114 105 87 68
234 64 115 105 87 68
234 65 114 103 85 66
234 65 115 105 86 66
235 64 115 107 88 69
235 65 115 106 87 68
234 66 115 105 86 66
234 67 115 108 88 68
235 66 115 107 87 68
235 67 115 109 89 69
235 64 116 107 88 69
235 65 116 107 88 69
235 66 116 108 88 68
235 67 116 109 89 68
232 68 113 106 87 68
232 69 113 109 90 70
232 68 114 106 87 68
232 69 114 108 89 69
233 68 114 107 88 68
233 68 115 108 89 69
233 69 114 108 89 69
233 69 115 110 91 71
232 70 113 110 91 72
232 71 113 111 92 73
232 70 114 110 91 72
232 71 114 111 92 73
233 70 114 111 91 72
233 70 115 111 91 72
233 71 114 112 92 73
234 68 115 110 90 70
234 69 115 111 91 71
235 68 115 110 90 69
235 69 115 111 91 70
234 70 115 112 92 72
234 71 115 113 92 73
235 70 115 112 92 71
235 71 115 112 91 70
236 64 116 107 88 68
236 65 116 108 88 68
237 64 116 108 88 68
237 64 117 108 88 68
237 65 116 108 88 67
237 65 117 108 88 67
236 66 116 108 88 67
236 67 116 108 88 67
237 66 116 107 87 65
237 66 117 107 86 64
237 67 116 108 87 66
238 64 117 109 89 68
238 65 117 108 88 66
239 64 117 110 89 67
239 65 117 110 89 67
238 66 117 108 87 66
238 67 117 109 87 65
239 66 117 110 89 67
239 67 117 110 88 66
236 68 116 109 88 67
236 69 116 110 90 68
237 68 116 109 87 67
237 69 116 110 88 68
236 70 116 111 90 69
236 71 116 111 90 69
237 70 116 111 89 69
237 71 116 111 89 68
238 68 116 109 86 66
238 68 117 109 86 66
238 69 116 110 87 67
238 69 117 110 86 66
239 68 117 111 87 66
239 69 117 111 87 67
238 70 116 111 88 68
238 70 117 111 87 67
238 71 116 111 88 68
238 71 117 111 87 67
239 70 117 112 87 68
239 71 117 112 87 68
232 73 113 111 92 73
232 72 114 111 92 73
232 73 114 110 91 71
233 72 114 112 92 72
233 73 114 110 90 70
232 74 113 112 92 73
232 75 112 114 95 77
232 75 113 113 94 75
233 75 113 113 93 73
233 74 114 110 90 70
233 75 114 112 91 72
234 72 114 112 91 72
234 72 115 112 92 71
234 73 114 111 90 70
234 73 115 112 90 69
235 72 115 112 90 69
235 73 115 112 90 69
234 74 114 110 89 69
234 74 115 111 90 69
234 75 114 111 90 70
234 75 115 111 89 69
235 74 115 112 89 69
235 75 115 112 89 69
232 76 112 114 95 76
232 76 113 114 94 75
232 77 112 114 94 74
233 76 113 113 93 74
233 77 113 114 93 74
233 76 114 112 92 72
232 78 112 114 94 74
232 79 112 115 93 73
233 78 113 115 93 74
233 79 112 115 93 72
233 79 113 115 93 72
234 76 114 112 90 70
234 76 115 111 89 69
234 77 114 113 91 71
235 76 115 112 88 68
235 77 114 112 89 69
235 77 115 112 89 69
234 78 113 115 93 74
234 79 113 115 93 71
235 79 113 114 91 70
234 78 114 113 91 71
235 78 114 113 89 70
235 79 114 114 90 70
236 74 115 112 89 69
236 75 115 112 89 69
236 72 116 111 89 68
236 73 116 112 88 68
237 72 116 112 88 68
237 73 116 112 89 68
236 74 116 112 88 68
236 75 116 113 89 69
237 74 116 113 89 68
237 75 116 114 89 69
238 72 116 112 88 68
238 72 117 112 87 68
238 73 116 113 89 69
238 73 117 113 88 69
239 72 117 113 87 69
239 73 117 114 88 70
238 74 116 114 89 69
238 74 117 114 88 69
238 75 116 114 89 69
239 74 116 115 89 71
239 74 117 115 88 71
239 75 116 116 89 72
236 76 115 113 88 69
236 77 115 114 89 69
237 76 115 114 89 70
237 77 115 114 88 69
236 78 114 114 89 70
236 78 115 114 89 70
236 79 114 114 89 69
237 78 115 114 89 70
237 79 114 114 89 70
237 79 115 114 89 70
238 77 115 116 88 71
239 77 115 116 88 71
238 78 115 116 90 71
238 79 115 114 90 70
239 78 115 117 90 72
239 79 115 116 91 71
237 76 116 114 88 69
238 76 116 115 88 69
238 77 116 115 88 69
239 76 116 116 89 71
239 77 116 117 89 70
