ply
format ascii 1.0
comment Version 2, Copyright 2017, 8i Labs, Inc.
comment frame_to_world_scale 0.179523
comment frame_to_world_translation -45.2095 7.18301 -54.3561
comment width 1023
element vertex 265
property float x
property float y
property float z
property uchar red
property uchar green
property uchar blue
end_header
230 656 224 93 84 138
230 656 225 84 73 124
230 657 224 102 91 147
230 657 225 93 82 134
231 656 225 79 64 121
231 657 225 81 70 125
231 656 226 75 61 118
231 656 227 68 54 110
231 657 226 69 63 118
231 657 227 66 62 111
230 658 224 88 79 130
230 658 225 86 79 125
230 659 224 97 87 135
231 658 225 86 83 124
231 659 224 101 93 139
231 659 225 96 90 132
231 658 226 75 75 121
231 659 226 96 92 135
231 660 224 84 80 121
231 660 225 94 89 128
231 661 224 66 59 105
231 661 225 64 59 104
231 660 226 99 93 133
231 662 224 83 71 114
231 663 224 87 82 113
231 664 224 88 90 113
231 668 224 127 107 96
231 669 224 148 125 104
231 670 224 159 133 105
231 671 224 162 134 103
232 656 227 68 58 106
232 657 227 63 58 110
232 658 226 74 76 120
232 658 227 72 67 121
232 659 226 91 90 132
232 659 227 85 84 127
232 656 228 71 57 101
232 656 229 78 60 99
232 657 228 67 58 108
232 657 229 77 58 103
233 657 229 78 54 103
233 656 230 97 72 100
233 656 231 127 101 93
233 657 230 99 74 100
233 657 231 132 102 96
232 658 228 75 63 119
232 658 229 76 60 109
232 659 228 89 85 126
233 658 229 80 58 110
233 659 228 94 88 126
233 659 229 90 75 117
233 658 230 97 68 100
233 658 231 128 93 93
233 659 230 96 66 102
234 656 231 127 101 78
234 657 231 162 124 90
234 658 231 145 101 80
234 659 230 99 59 91
234 659 231 140 95 77
235 659 231 168 125 78
232 661 225 68 58 100
232 660 226 88 82 121
232 660 227 91 85 121
232 661 226 80 67 102
232 661 227 92 77 110
233 660 227 99 90 121
233 661 227 94 73 107
232 662 225 72 53 97
232 663 224 77 72 105
232 663 225 80 60 96
232 662 226 84 58 91
232 662 227 89 66 98
232 663 226 91 66 92
232 663 227 91 61 90
233 662 227 93 69 95
233 663 227 96 69 88
233 660 228 103 96 125
233 660 229 101 89 120
233 661 228 99 85 108
233 661 229 103 94 112
233 662 228 102 83 95
233 663 228 100 71 80
234 660 229 103 92 118
234 661 229 107 97 105
234 660 230 108 83 101
234 660 231 136 96 83
234 661 230 120 104 100
235 660 231 171 130 76
235 661 230 151 122 92
235 661 231 178 138 85
234 662 229 121 104 98
234 663 228 108 81 82
234 663 229 124 94 78
234 662 230 140 117 99
234 663 230 147 115 87
235 662 230 157 128 93
235 662 231 185 142 80
235 663 230 160 120 76
235 663 231 186 142 81
239 659 231 137 101 111
236 661 231 197 148 83
236 662 231 196 146 79
236 663 231 196 145 78
237 662 231 191 135 74
237 663 231 198 141 72
238 661 231 152 112 88
239 660 231 140 108 112
239 661 231 130 97 99
238 662 231 163 114 74
238 663 231 167 114 67
239 662 231 120 82 80
239 663 230 120 87 79
239 663 231 140 104 72
234 656 232 142 106 62
234 657 232 169 126 71
235 656 233 148 111 58
235 657 232 176 129 68
235 657 233 165 120 55
234 658 232 172 128 76
235 658 232 176 130 69
235 658 233 176 128 64
235 659 232 182 135 75
235 660 232 181 135 73
236 656 233 142 111 76
236 657 233 158 116 61
237 656 233 137 110 96
237 657 233 164 128 90
236 658 233 184 139 76
236 659 232 194 145 79
236 659 233 196 148 83
237 658 233 184 143 94
237 659 232 185 139 78
237 659 233 189 145 88
238 656 233 114 92 105
238 657 232 108 83 103
238 657 233 127 101 102
239 656 232 146 114 106
239 657 232 137 105 115
238 658 232 123 98 113
238 658 233 153 124 102
238 659 232 151 117 98
238 659 233 163 128 96
239 658 232 133 102 125
239 659 232 137 102 119
236 660 232 195 147 82
236 661 232 194 144 80
237 660 232 182 134 74
237 661 232 182 131 71
238 660 232 157 117 87
238 661 232 164 118 73
232 664 224 78 80 102
232 664 225 84 78 94
232 665 224 71 70 75
232 665 225 83 80 78
232 664 226 99 81 96
232 665 226 92 85 83
233 664 227 101 80 88
233 665 226 100 90 86
233 665 227 106 91 91
232 666 224 79 69 68
232 666 225 84 75 75
232 667 224 91 77 71
232 667 225 92 79 75
232 666 226 95 85 86
232 667 226 99 86 85
233 666 226 103 91 93
233 666 227 113 99 97
233 667 226 104 86 86
233 667 227 117 98 93
233 664 228 101 77 75
233 665 228 103 84 82
233 667 228 127 107 95
234 664 228 101 76 71
234 664 229 118 84 63
234 665 228 106 85 76
234 665 229 127 94 68
235 664 230 163 120 70
235 665 230 174 132 85
234 666 228 117 95 84
234 666 229 137 107 81
234 667 228 137 110 87
234 667 229 159 120 83
235 666 229 160 126 89
235 667 229 179 138 94
235 666 230 187 146 96
235 667 230 194 148 90
232 668 224 119 101 89
232 668 225 114 95 82
232 669 224 145 123 100
232 669 225 140 118 98
232 668 226 107 89 81
232 669 226 136 115 98
233 668 226 107 88 82
233 668 227 119 98 84
233 669 226 133 112 98
233 669 227 137 116 95
232 670 224 158 133 105
232 670 225 157 133 108
232 671 224 170 143 112
232 671 225 173 146 117
232 670 226 157 133 110
232 671 226 169 141 112
233 670 226 152 128 105
233 670 227 150 122 92
233 671 226 164 135 106
233 671 227 159 127 92
234 671 227 164 123 70
233 668 228 134 111 90
234 668 228 149 117 83
234 668 229 168 125 75
234 669 228 158 123 83
234 669 229 175 131 79
235 668 229 176 129 71
235 669 229 190 136 73
235 668 230 185 136 69
234 670 228 169 127 72
234 671 228 174 126 63
235 670 228 195 138 62
235 670 229 199 142 67
235 671 228 190 130 57
235 671 229 198 138 60
236 664 230 191 140 70
236 664 231 201 144 69
236 665 230 209 156 87
236 665 231 213 158 83
237 664 231 207 148 72
237 665 231 216 158 81
236 666 230 218 165 96
236 667 230 206 154 85
237 666 230 215 155 82
237 667 230 205 148 84
238 664 231 195 144 79
238 665 230 214 161 92
238 665 231 213 156 81
239 664 230 172 138 101
239 664 231 162 124 82
239 665 230 201 160 106
239 666 229 191 150 100
239 667 229 172 124 68
238 666 230 210 154 85
238 667 230 197 141 78
239 666 230 203 157 99
239 667 230 186 136 76
236 669 229 203 147 72
236 668 230 190 135 63
236 669 230 198 141 67
237 668 230 202 147 79
237 669 230 213 156 80
236 670 229 216 158 73
236 671 229 205 143 66
237 670 229 220 160 78
237 671 229 204 144 66
238 668 229 203 150 85
238 669 229 217 162 92
239 668 229 180 131 75
239 669 228 194 151 96
239 669 229 206 157 93
238 668 230 204 148 83
238 669 230 217 160 92
238 670 229 210 152 82
238 671 228 180 126 59
238 671 229 189 132 61
239 670 228 186 139 81
239 670 229 202 148 81
239 671 228 178 134 78
