ply
format ascii 1.0
comment Version 2, Copyright 2017, 8i Labs, Inc.
comment frame_to_world_scale 0.179523
comment frame_to_world_translation -45.2095 7.18301 -54.3561
comment width 1023
element vertex 464
property float x
property float y
property float z
property uchar red
property uchar green
property uchar blue
end_header
227 880 112 129 87 58
227 880 113 134 92 61
227 881 112 128 87 63
227 881 113 130 87 59
226 880 114 135 101 73
226 880 115 123 96 71
226 881 114 130 98 71
226 881 115 122 95 71
227 880 114 137 101 71
227 881 114 136 99 71
227 882 113 126 83 62
227 883 113 121 82 63
226 882 115 120 92 65
226 883 115 121 94 67
227 882 114 131 95 70
227 882 115 122 93 65
227 883 114 125 87 64
227 883 115 124 94 67
225 880 117 121 94 65
225 881 116 118 92 65
225 881 117 119 91 64
225 880 118 128 96 69
225 880 119 129 93 66
225 881 118 124 93 66
225 881 119 127 92 67
225 882 117 115 89 64
225 882 118 119 92 65
225 882 119 126 94 67
225 883 118 115 89 61
225 883 119 123 94 67
226 880 116 120 94 68
226 881 116 119 94 70
226 882 116 118 91 64
226 882 117 116 90 65
226 883 116 115 89 61
226 883 117 114 88 62
227 884 113 123 84 69
226 884 115 122 94 69
227 884 114 120 84 63
227 884 115 120 90 64
227 885 114 119 82 62
227 885 115 119 89 67
227 886 114 115 80 56
227 886 115 116 85 65
227 887 115 113 83 61
225 884 118 110 83 53
225 884 119 116 87 59
225 885 118 106 82 53
225 885 119 111 85 57
225 886 119 109 84 58
225 887 119 105 78 52
226 884 116 117 91 67
226 884 117 110 84 57
226 885 116 114 89 64
226 885 117 108 84 57
227 885 116 117 91 67
226 884 118 109 83 54
226 885 118 107 82 54
226 886 116 111 86 62
226 886 117 107 81 55
226 887 117 111 84 64
227 886 116 116 89 70
227 887 116 113 85 67
226 886 118 106 80 53
226 886 119 106 80 53
226 887 118 106 79 54
226 887 119 105 77 51
228 880 112 140 102 77
228 881 112 135 96 74
229 880 112 153 115 82
229 881 112 149 112 80
228 882 112 129 92 69
228 883 112 131 97 75
228 883 113 120 84 64
229 882 112 147 112 81
229 883 112 146 112 86
230 880 112 149 111 78
230 881 112 149 111 77
231 880 112 134 95 59
231 881 112 134 96 64
230 882 112 147 110 77
230 883 112 145 110 79
231 882 112 133 95 65
231 883 112 135 98 69
228 884 113 125 89 69
228 885 113 125 87 66
229 884 112 143 108 82
229 885 112 142 105 77
229 885 113 136 98 69
228 885 114 117 77 53
228 886 113 124 85 58
228 887 113 127 89 62
229 886 112 141 104 76
229 886 113 134 95 67
229 887 113 137 100 73
228 886 114 115 76 48
228 887 114 117 77 49
228 887 115 113 81 57
230 884 112 144 108 79
230 885 112 144 107 79
231 884 112 134 96 68
231 885 112 135 96 69
230 886 112 140 104 78
230 887 112 139 103 79
231 886 112 136 98 71
231 887 112 135 98 71
224 880 120 134 98 69
224 880 121 141 106 77
224 881 120 133 97 67
224 881 121 136 104 75
225 881 120 129 92 64
224 880 122 145 108 82
224 880 123 151 110 84
224 881 122 142 108 81
224 881 123 146 106 79
224 882 120 129 93 64
224 882 121 131 97 69
224 883 121 126 91 62
225 882 120 126 91 62
225 883 120 123 89 61
224 882 122 138 103 75
224 882 123 140 104 77
224 883 122 133 98 70
224 883 123 137 101 74
224 881 124 148 106 77
224 882 124 143 105 78
224 883 124 139 103 76
224 884 121 121 87 58
224 885 121 119 87 61
225 884 120 119 88 60
225 884 121 119 86 58
225 885 120 115 86 59
225 885 121 118 87 61
224 884 122 125 91 62
224 884 123 132 97 69
224 885 122 121 90 62
224 885 123 128 96 68
224 886 121 115 84 58
225 886 120 113 86 62
225 886 121 114 84 59
225 887 120 108 82 58
225 887 121 110 79 57
224 886 122 114 82 56
224 886 123 120 88 61
224 887 122 109 77 52
224 887 123 111 80 54
224 884 124 135 101 73
224 885 124 133 101 73
224 886 124 126 94 68
224 887 124 117 85 60
224 887 125 123 91 65
227 888 115 111 81 60
225 888 119 104 77 52
225 889 119 105 79 57
226 888 117 112 86 68
227 888 116 109 81 62
227 888 117 112 85 68
227 889 116 110 81 61
227 889 117 106 79 61
226 888 118 111 84 65
226 888 119 107 80 57
226 889 118 107 80 61
226 889 119 107 81 61
227 890 116 111 83 63
227 890 117 106 78 56
227 891 117 107 81 61
226 890 118 101 73 49
226 890 119 101 74 52
226 891 118 101 74 56
226 891 119 97 72 54
227 890 118 102 73 51
227 891 118 103 77 59
226 892 119 99 74 54
226 893 119 104 78 58
227 892 118 107 81 63
227 893 118 109 83 65
227 893 119 106 81 61
226 894 119 105 81 63
226 895 119 105 81 64
227 894 118 107 82 64
227 894 119 105 80 62
227 895 119 103 78 62
229 888 113 136 100 77
229 889 113 132 97 79
228 888 114 121 83 59
228 888 115 115 80 55
228 889 114 121 86 67
228 889 115 115 81 58
229 888 114 129 92 73
229 889 114 128 93 75
228 890 115 114 81 61
229 890 114 123 89 73
229 890 115 117 84 67
229 891 115 117 85 67
230 888 112 137 100 78
230 888 113 137 101 78
230 889 113 133 98 77
231 888 112 133 96 70
231 888 113 133 96 69
231 889 113 132 96 69
230 890 114 127 93 74
230 891 114 121 89 72
230 891 115 116 88 70
231 890 114 127 91 68
231 891 114 123 91 69
231 891 115 119 88 68
228 890 116 114 84 64
228 891 116 112 84 65
228 891 117 112 85 67
229 891 116 114 84 65
230 892 115 114 87 66
231 892 115 116 87 68
231 893 115 111 87 70
228 892 117 114 86 68
228 893 117 113 87 68
229 892 116 114 86 67
229 893 116 113 86 65
229 893 117 113 86 66
228 893 118 111 86 68
229 894 117 111 86 67
229 895 117 110 84 68
228 894 118 110 84 67
228 895 118 105 79 63
229 894 118 112 87 68
229 895 118 107 82 65
230 892 116 113 87 69
230 893 116 112 86 67
231 893 116 112 86 68
230 894 116 107 83 64
230 894 117 110 83 65
230 895 117 108 83 68
231 894 116 105 81 64
231 895 116 104 80 65
231 895 117 104 81 65
225 888 120 105 77 53
225 888 121 106 77 54
225 889 120 106 79 59
225 889 121 106 78 58
224 888 122 106 74 52
224 888 123 107 75 53
224 889 122 101 71 50
224 889 123 101 70 52
225 888 122 105 74 52
225 889 122 103 73 52
225 890 120 101 75 54
225 890 121 101 75 54
225 891 120 92 67 50
225 891 121 91 67 48
224 890 122 97 68 47
224 890 123 97 67 48
224 891 122 93 69 51
224 891 123 92 67 50
225 890 122 99 71 50
225 891 122 93 69 51
226 891 120 92 66 49
224 888 124 112 80 58
224 888 125 116 85 62
224 889 124 106 77 56
224 889 125 110 81 60
224 890 124 100 72 52
224 890 125 103 75 54
224 891 124 91 64 47
224 891 125 94 67 49
225 892 120 92 68 48
225 892 121 88 65 46
225 893 120 95 70 50
225 893 121 90 67 46
224 892 123 89 64 49
224 893 123 87 64 47
225 892 122 88 65 48
225 893 122 86 63 45
225 894 121 97 73 52
225 895 121 103 80 61
224 894 123 88 65 45
224 895 123 95 73 53
225 894 122 91 68 48
225 894 123 91 68 49
225 895 122 100 76 57
225 895 123 97 74 54
226 892 120 96 71 51
226 893 120 100 74 54
226 894 120 103 78 59
226 895 120 105 81 64
226 895 121 104 81 63
224 892 124 89 63 47
224 893 124 86 63 46
224 894 124 85 63 42
224 894 125 83 62 41
224 895 124 93 71 51
224 895 125 92 70 49
232 880 112 129 90 50
232 880 113 140 101 65
232 881 112 127 89 53
232 881 113 135 96 62
233 880 113 154 112 77
233 881 113 155 112 77
233 880 114 160 117 81
232 882 112 127 87 56
232 882 113 134 94 63
232 883 112 128 90 59
232 883 113 132 92 59
233 882 113 148 107 70
233 883 113 144 104 66
234 880 114 161 115 77
234 881 114 160 114 77
235 880 114 159 112 72
235 880 115 162 115 76
235 881 114 159 112 70
235 881 115 160 114 74
234 882 113 156 111 74
234 883 113 152 109 70
234 882 114 157 112 72
235 882 114 157 113 73
235 883 114 154 110 74
232 884 112 130 91 59
232 885 112 134 93 63
233 884 112 133 92 53
233 884 113 140 100 63
233 885 112 135 92 54
233 885 113 142 101 67
232 886 112 136 95 68
232 887 112 137 97 71
232 887 113 137 97 70
233 886 112 134 91 59
233 886 113 137 94 65
233 887 113 136 94 66
234 884 113 149 106 71
234 885 113 147 106 73
235 884 113 153 111 78
235 885 113 154 109 77
235 884 114 152 108 75
235 885 114 149 106 72
234 886 113 145 104 75
234 887 113 142 101 71
235 886 113 152 108 77
234 887 114 142 103 72
235 886 114 145 104 70
235 887 114 144 105 71
236 880 115 158 111 70
236 881 115 155 108 68
237 880 115 156 108 67
237 881 115 150 104 63
236 882 114 153 108 71
236 882 115 151 106 66
236 883 114 152 108 71
236 883 115 148 104 66
237 882 115 147 103 62
237 883 115 147 105 65
238 880 115 160 114 78
238 881 115 153 109 72
239 880 115 159 113 76
238 882 115 146 104 63
238 883 115 146 106 68
239 880 116 155 110 72
239 881 116 150 107 70
238 882 116 149 107 68
238 883 116 150 111 75
239 882 116 145 102 63
239 883 116 145 106 69
236 884 114 149 107 71
236 884 115 147 105 69
236 885 114 147 105 70
237 884 115 145 104 68
237 885 115 142 101 64
236 886 114 142 102 68
236 887 114 141 101 67
236 887 115 139 100 67
237 886 115 138 98 61
237 887 115 138 98 64
238 884 115 148 110 74
238 885 115 144 107 72
238 886 115 141 102 67
238 887 115 138 99 66
239 886 115 141 104 72
239 887 115 138 101 69
238 884 116 150 113 79
238 885 116 148 112 79
239 884 116 144 108 72
239 885 116 143 107 73
239 886 116 142 103 72
239 887 116 139 101 71
232 888 113 135 97 71
232 889 113 134 96 69
233 888 113 135 95 69
233 889 113 133 95 66
233 889 114 133 95 67
232 890 114 129 90 64
232 891 114 129 92 66
232 891 115 125 88 63
233 890 114 130 93 67
233 890 115 127 89 63
233 891 115 123 88 62
234 888 113 136 96 66
234 888 114 137 97 66
234 889 114 134 96 66
234 889 115 136 99 70
235 888 114 142 104 72
235 889 115 139 102 72
234 890 114 132 93 66
234 890 115 128 92 64
234 891 115 125 91 64
235 890 115 134 98 70
235 891 115 131 96 66
235 891 116 129 96 66
232 892 115 121 89 66
232 893 115 117 90 69
233 892 115 119 86 61
233 893 115 116 85 59
233 895 115 104 81 60
234 892 115 121 89 64
234 895 115 105 82 60
235 894 115 110 85 58
235 895 115 105 83 60
232 893 116 115 89 69
233 893 116 114 85 61
232 894 116 112 86 68
232 895 116 106 82 63
233 894 116 112 84 60
233 895 116 106 82 61
234 892 116 122 90 63
234 893 116 116 87 61
235 892 116 122 91 61
235 893 116 116 87 58
234 894 116 111 84 58
235 894 116 113 86 58
236 888 114 140 101 69
236 888 115 137 100 69
236 889 115 136 100 71
237 888 115 134 98 65
237 889 115 130 95 64
236 890 115 133 98 68
237 890 115 129 95 61
237 891 115 123 92 62
238 888 115 134 98 64
238 889 115 130 95 64
239 888 115 133 97 67
239 889 115 129 92 63
238 890 115 124 92 60
238 891 115 119 88 59
239 890 115 121 87 61
239 891 115 115 83 59
236 891 116 129 97 68
237 891 116 126 94 65
237 893 115 115 86 62
236 894 115 113 87 63
236 895 115 106 83 57
237 894 115 110 84 60
237 895 114 105 82 58
237 895 115 107 84 58
238 892 115 114 84 59
238 893 115 111 82 59
239 892 115 113 82 59
239 893 114 107 79 59
239 893 115 109 80 60
239 895 113 104 82 63
238 894 114 103 77 58
238 894 115 105 78 60
238 895 114 104 80 60
239 894 114 105 81 62
239 895 114 105 82 65
236 892 116 123 93 65
236 893 116 118 90 63
237 892 116 120 90 63
237 893 116 119 89 64
