ply
format ascii 1.0
comment Version 2, Copyright 2017, 8i Labs, Inc.
comment frame_to_world_scale 0.179523
comment frame_to_world_translation -45.2095 7.18301 -54.3561
comment width 1023
element vertex 461
property float x
property float y
property float z
property uchar red
property uchar green
property uchar blue
end_header
227 880 208 162 122 102
227 881 208 163 122 103
227 882 208 162 119 102
227 883 208 153 107 92
227 883 209 148 101 88
225 887 208 150 112 89
226 885 208 129 88 68
227 884 208 139 92 77
227 884 209 135 89 75
227 885 208 128 85 67
227 885 209 122 83 63
227 884 210 129 85 72
227 885 210 116 75 60
227 885 211 102 60 50
226 886 208 136 102 79
226 886 209 131 102 76
226 887 208 148 112 89
226 887 209 148 113 89
227 886 209 120 89 65
226 886 210 126 99 73
226 886 211 130 102 77
226 887 210 148 114 90
226 887 211 145 114 89
227 886 210 113 80 55
227 886 211 110 78 57
226 887 212 146 116 92
226 887 213 148 115 92
227 886 212 106 76 59
227 886 213 110 85 66
227 887 213 138 111 87
226 887 214 146 113 90
227 886 214 114 89 68
227 886 215 124 100 76
227 887 214 139 110 86
227 887 215 137 107 83
228 880 208 162 124 102
228 881 208 163 123 103
228 881 209 164 125 105
229 880 209 162 126 102
229 881 209 163 126 104
228 882 209 160 119 101
228 883 209 150 105 90
229 882 209 160 121 102
228 883 210 144 99 86
229 882 210 155 116 98
229 883 210 143 100 85
229 883 211 133 92 76
230 880 209 161 126 101
230 881 209 162 127 103
230 880 210 161 127 102
230 881 210 162 127 104
231 880 210 159 126 100
231 881 210 160 128 103
230 882 210 159 124 103
230 882 211 151 115 96
230 883 210 151 113 95
230 883 211 141 103 85
231 882 210 160 127 104
231 882 211 155 121 101
231 883 211 144 108 89
230 883 212 131 93 75
231 883 212 131 93 73
228 884 209 138 91 79
228 884 210 134 89 77
228 884 211 124 80 69
228 885 211 111 68 58
229 884 211 127 86 71
230 884 211 129 91 73
228 885 212 103 57 49
228 885 213 95 48 42
229 884 212 117 75 63
229 884 213 115 71 61
229 885 212 112 66 59
229 885 213 103 56 50
228 885 214 89 41 38
229 885 214 96 46 36
229 885 215 103 61 42
228 886 213 84 46 35
228 886 214 93 60 44
228 886 215 111 81 62
229 886 215 113 80 59
230 884 212 126 88 71
230 884 213 119 81 67
231 884 212 128 91 71
231 884 213 124 91 69
230 884 214 119 86 67
230 885 214 109 68 50
230 885 215 115 81 59
231 884 214 124 95 71
231 885 215 124 96 71
227 887 216 140 108 84
227 887 217 141 109 85
228 886 216 129 101 78
228 886 217 134 106 80
228 887 216 133 104 79
228 887 217 139 108 82
229 886 216 126 98 77
229 886 217 134 107 83
228 887 218 145 113 88
229 886 218 138 110 84
229 887 218 146 116 90
230 885 216 125 97 75
230 885 217 131 106 82
231 885 216 124 98 73
231 885 217 129 103 77
230 886 216 125 98 78
230 886 217 134 109 84
231 886 217 132 107 82
230 886 218 137 111 85
230 887 218 142 113 87
230 887 219 155 123 99
231 886 218 135 109 84
231 887 218 140 113 87
231 887 219 152 120 96
225 888 208 156 114 93
225 888 209 159 115 95
225 889 208 160 115 96
225 889 209 165 119 101
225 888 210 163 119 99
225 889 210 171 125 107
225 889 211 173 128 110
225 890 208 161 114 97
225 890 209 167 120 103
225 891 208 157 111 94
225 891 209 163 116 101
225 890 210 173 125 110
225 890 211 176 127 113
225 891 210 169 121 107
225 891 211 171 123 110
226 888 209 158 115 94
226 888 210 159 118 97
226 888 211 161 122 100
226 889 211 171 126 108
226 890 211 173 125 112
226 891 211 171 123 110
226 888 212 161 123 101
226 888 213 157 119 98
226 889 212 169 124 107
226 889 213 165 121 103
226 888 214 153 114 94
226 888 215 152 113 92
226 889 214 161 117 101
226 889 215 159 117 99
227 888 215 148 112 90
226 890 212 169 121 108
226 890 213 167 120 104
226 891 212 168 119 106
226 891 213 166 119 104
226 890 214 165 119 103
226 890 215 165 121 103
226 891 214 167 122 104
226 891 215 169 125 106
225 892 208 152 107 90
225 892 209 159 112 97
225 893 208 153 110 91
225 893 209 158 113 95
225 892 210 165 117 103
225 892 211 166 118 104
225 893 210 162 117 100
225 893 211 164 118 102
225 894 208 157 117 96
225 894 209 160 118 98
225 895 208 166 127 105
225 895 209 167 127 106
225 894 210 163 121 102
225 895 210 170 128 108
226 892 211 166 118 105
226 893 211 164 117 100
226 894 211 164 121 101
226 895 211 168 126 105
226 892 212 166 118 104
226 892 213 165 118 102
226 893 212 164 117 101
226 893 213 165 119 102
226 892 214 167 123 104
226 892 215 171 128 108
226 893 214 170 125 106
226 893 215 172 127 108
227 893 215 174 128 109
226 894 212 165 120 101
226 894 213 168 123 104
226 895 212 169 125 105
226 895 213 170 126 106
226 894 214 171 126 106
226 894 215 173 127 108
226 895 214 171 126 106
227 894 215 175 128 109
227 895 214 172 126 107
227 895 215 176 128 111
226 889 216 162 120 101
227 888 216 149 114 92
227 888 217 150 116 93
227 889 216 159 120 100
227 889 217 162 123 102
226 890 216 167 125 105
226 891 216 172 129 109
227 890 216 169 127 106
227 890 217 171 130 108
227 891 216 174 130 111
227 891 217 177 132 113
227 890 218 176 133 113
227 891 218 182 137 119
226 892 216 175 130 111
227 892 216 176 131 111
227 892 217 179 132 114
227 893 216 177 130 112
227 893 217 181 132 115
227 894 216 178 130 112
227 894 217 180 131 114
227 895 216 178 129 112
228 888 218 155 120 98
228 889 218 170 130 110
229 888 218 160 126 104
229 888 219 167 133 111
229 889 218 177 137 119
229 889 219 181 141 122
228 890 218 181 138 119
228 891 218 186 139 121
229 890 219 188 141 124
229 891 219 191 140 124
230 888 219 169 132 110
230 889 219 180 137 119
231 888 219 167 128 108
231 889 219 178 132 115
230 890 219 187 138 121
230 891 219 194 142 126
231 890 219 186 135 118
231 891 219 194 141 124
228 892 218 186 137 120
228 893 218 187 136 121
229 892 218 191 139 123
229 892 219 193 141 125
229 893 218 191 139 123
229 893 219 194 141 125
228 894 217 182 131 115
228 895 216 179 129 112
228 895 217 181 130 114
229 895 217 182 131 115
228 894 218 186 134 119
229 894 218 191 139 123
229 894 219 194 141 124
229 895 218 187 136 120
230 892 219 197 144 128
230 893 219 197 144 128
231 892 219 198 144 129
231 893 219 198 144 129
230 894 218 194 142 126
230 894 219 195 143 126
230 895 218 193 142 125
231 894 219 197 145 128
231 895 218 195 144 126
231 895 219 197 146 127
232 880 210 155 121 95
232 881 210 155 123 97
233 880 210 153 120 92
233 881 210 151 118 91
232 882 210 156 123 100
232 882 211 151 117 94
232 883 211 142 105 84
233 882 211 146 110 85
233 883 211 141 104 80
234 880 210 154 120 94
234 881 210 152 119 92
235 880 210 158 123 96
235 881 210 157 123 97
234 882 211 145 109 83
235 882 211 154 118 95
235 883 211 146 109 86
232 883 212 130 92 69
233 883 212 131 94 68
233 883 213 125 92 64
234 883 212 134 98 73
234 883 213 130 97 71
235 883 212 137 99 77
232 884 213 123 89 63
233 884 213 125 94 66
232 884 214 121 92 63
232 884 215 120 93 65
232 885 215 120 94 66
233 884 214 125 97 69
233 884 215 124 98 71
233 885 215 125 98 72
234 884 213 130 98 73
235 884 213 130 95 72
234 884 214 129 99 75
234 885 215 126 96 73
235 884 214 130 94 73
235 885 214 130 93 73
235 885 215 122 84 64
236 880 210 159 125 97
236 881 210 160 127 100
237 880 210 160 125 98
237 881 210 161 127 99
236 882 211 157 121 98
236 883 211 148 111 88
237 882 211 159 123 100
237 883 211 145 105 83
238 880 210 161 125 99
238 881 210 162 126 98
239 880 210 160 122 97
239 881 210 162 126 99
238 882 210 163 127 99
238 882 211 161 124 98
238 883 211 149 108 85
239 882 210 164 126 99
239 883 210 159 118 95
239 883 211 152 112 88
236 883 212 139 100 78
237 883 212 142 101 80
238 883 212 141 98 76
238 884 211 140 94 73
239 884 211 140 97 76
239 885 211 132 92 72
236 884 212 134 96 73
236 884 213 133 95 73
237 884 212 135 95 73
237 884 213 135 95 75
237 885 213 131 90 72
236 884 214 132 94 74
236 885 214 128 88 73
236 885 215 112 69 57
237 885 214 119 76 65
237 885 215 108 65 56
236 886 215 99 59 46
237 886 215 96 59 45
238 884 212 137 94 75
238 885 212 133 90 74
238 885 213 121 75 62
239 885 212 127 86 67
238 885 214 110 64 56
238 886 213 102 51 37
239 886 213 110 67 47
239 887 213 144 109 84
238 886 214 101 60 44
238 886 215 104 72 50
238 887 215 138 106 83
239 886 214 123 90 63
239 887 214 149 113 90
239 887 215 154 117 95
232 885 216 121 95 68
232 885 217 124 99 73
233 885 216 124 98 72
233 885 217 125 101 74
233 886 217 130 105 80
232 886 218 133 107 81
232 887 219 149 117 93
233 886 218 134 108 82
233 887 219 149 116 92
234 885 216 125 95 71
234 885 217 130 103 79
235 885 216 114 75 53
234 886 217 130 102 79
235 886 216 107 68 49
235 886 217 125 96 74
234 886 218 135 109 85
234 887 218 138 108 84
234 887 219 144 113 88
235 886 218 134 106 85
235 887 218 137 107 84
236 886 216 102 66 47
236 886 217 118 90 69
236 887 217 134 105 82
237 886 216 103 72 51
237 887 216 131 102 78
237 887 217 139 109 85
236 887 218 139 109 85
238 887 216 137 107 83
238 888 215 154 116 95
239 888 214 165 124 105
239 888 215 165 123 105
239 889 215 179 131 117
239 890 215 190 140 125
239 891 215 189 137 121
239 892 215 187 135 120
239 893 215 183 133 115
238 895 215 190 141 122
239 894 214 184 137 116
239 894 215 185 137 117
239 895 214 186 139 119
239 895 215 188 141 121
232 888 219 166 126 105
232 889 219 177 130 112
233 888 219 163 124 103
233 889 219 175 129 111
232 890 219 187 134 118
232 891 219 195 141 125
233 890 219 187 134 117
233 891 219 195 142 125
234 888 219 158 123 101
234 889 219 178 137 119
235 888 218 148 114 90
235 888 219 154 120 96
235 889 219 174 134 116
234 890 219 188 139 124
234 891 219 192 138 122
235 890 219 189 141 126
235 891 219 192 139 124
232 892 219 198 144 129
232 893 219 199 144 129
233 892 219 203 150 134
233 893 219 203 149 135
232 894 219 199 145 129
232 895 219 198 146 128
233 894 219 199 146 131
233 895 219 197 146 129
234 892 219 196 141 126
234 893 219 198 143 129
235 892 219 194 139 125
235 893 219 196 141 128
234 894 219 197 143 128
234 895 218 193 141 125
234 895 219 195 143 127
235 894 218 195 142 128
235 894 219 196 142 128
235 895 218 192 141 125
237 888 216 150 115 92
237 888 217 156 118 97
237 889 217 173 128 110
236 888 218 152 117 93
236 889 218 171 128 109
237 889 218 171 128 110
237 890 217 181 133 117
236 890 218 185 137 121
236 890 219 189 140 125
236 891 218 192 140 125
236 891 219 193 140 126
237 890 218 183 135 119
237 891 218 189 139 122
238 888 216 159 118 99
238 889 216 174 128 112
238 889 217 172 128 110
238 890 216 187 137 121
238 890 217 186 137 121
238 891 216 188 138 120
238 891 217 189 139 121
239 890 216 188 138 122
239 891 216 188 137 120
237 892 217 190 140 121
237 893 217 191 139 121
236 892 218 193 140 125
236 892 219 194 140 125
236 893 218 193 139 124
237 892 218 192 139 123
237 893 218 192 138 122
236 895 217 190 141 124
237 894 217 191 139 122
237 895 216 191 140 122
237 895 217 191 140 124
236 894 218 194 141 125
236 895 218 192 141 125
237 894 218 191 138 123
238 892 216 188 137 120
238 892 217 190 139 121
238 893 216 189 137 121
238 893 217 191 139 121
239 892 216 187 135 119
239 893 216 187 136 119
238 894 216 190 140 121
238 894 217 191 140 121
238 895 216 191 140 122
239 894 216 188 137 119
