ply
format ascii 1.0
comment Version 2, Copyright 2017, 8i Labs, Inc.
comment frame_to_world_scale 0.179523
comment frame_to_world_translation -45.2095 7.18301 -54.3561
comment width 1023
element vertex 224
property float x
property float y
property float z
property uchar red
property uchar green
property uchar blue
end_header
224 816 92 207 184 167
224 817 92 182 160 144
225 816 92 199 175 156
225 817 92 193 167 144
224 818 92 159 138 121
224 819 93 153 135 121
225 818 92 191 167 147
225 818 93 190 164 142
225 819 93 171 144 119
226 816 92 193 169 149
226 817 92 172 143 112
227 816 92 164 141 120
227 817 92 179 154 133
226 818 92 155 119 78
226 818 93 156 109 68
226 819 93 178 123 88
227 818 92 150 112 77
227 818 93 149 95 54
227 819 93 172 112 71
224 820 93 178 164 156
224 821 93 186 167 153
225 820 93 169 139 107
225 821 93 180 154 131
224 822 94 171 149 129
224 823 94 152 127 111
225 822 94 151 127 112
225 823 94 145 121 111
226 820 93 181 129 89
226 821 93 181 150 121
227 820 93 183 140 102
227 821 93 175 149 126
226 821 94 187 162 141
227 821 94 158 135 114
226 822 94 164 141 120
226 823 94 161 138 120
227 822 94 163 143 125
227 823 94 163 143 128
228 816 92 166 151 141
228 817 92 181 160 141
229 816 92 148 139 134
229 817 92 171 150 132
228 818 92 177 154 136
228 818 93 170 146 128
228 819 93 170 146 128
229 818 93 177 160 149
229 819 93 143 133 132
230 816 92 162 144 130
230 817 92 169 149 134
231 816 92 157 104 77
231 817 92 169 131 104
230 818 93 143 130 122
230 819 93 69 64 79
231 818 92 178 154 137
231 818 93 160 140 124
231 819 93 123 105 90
228 820 93 178 158 141
228 821 93 166 146 128
229 820 93 108 105 109
229 821 93 155 146 144
228 821 94 168 148 130
229 821 94 185 172 167
228 822 94 183 163 148
228 823 94 131 109 91
229 822 94 177 160 148
229 823 94 142 132 128
230 820 93 56 59 85
230 821 93 130 125 124
231 820 93 134 119 112
231 821 93 136 125 116
230 821 94 157 149 147
230 822 94 137 129 126
230 823 94 106 114 125
231 822 94 112 127 143
231 823 94 81 124 157
224 824 94 135 111 98
224 825 94 97 67 57
225 824 94 131 109 91
225 825 94 113 94 77
225 825 95 105 88 76
224 826 95 94 64 57
224 827 95 116 98 83
225 826 95 113 96 81
225 827 95 134 118 105
226 824 94 123 99 73
226 825 94 96 79 63
226 825 95 110 97 87
227 824 94 112 90 72
227 825 95 107 104 106
226 826 95 149 135 126
226 827 95 139 131 127
227 826 95 80 89 98
227 827 95 73 86 98
224 828 95 128 112 98
225 828 95 117 105 96
226 828 95 94 93 94
227 828 95 71 83 94
228 824 94 85 75 76
228 825 95 64 88 108
229 824 94 83 98 115
229 824 95 39 88 120
229 825 95 50 100 133
228 826 95 76 100 122
228 827 95 115 120 128
229 826 95 111 128 146
229 827 95 170 159 154
230 824 94 81 120 152
230 824 95 68 122 160
230 825 95 94 133 165
231 824 94 72 128 168
231 824 95 94 135 169
231 825 95 133 149 167
230 826 95 148 155 164
230 827 95 194 174 156
231 826 95 183 171 163
231 827 95 213 184 157
232 816 92 185 127 105
232 817 92 187 151 121
233 816 92 180 133 96
233 817 92 194 167 146
232 818 92 205 179 161
232 818 93 202 178 160
232 819 93 182 158 139
233 818 92 191 172 159
233 818 93 175 157 143
233 819 93 170 152 138
234 816 92 178 148 122
234 817 92 153 123 101
235 816 92 158 129 105
235 817 92 123 90 67
234 818 92 126 95 71
234 818 93 110 80 60
234 819 93 107 83 66
235 818 92 105 71 48
235 818 93 99 67 42
235 819 93 106 74 50
232 820 93 155 134 116
232 821 93 146 134 128
233 820 93 178 157 144
233 821 93 164 151 145
232 822 94 94 124 150
232 823 94 66 125 168
233 822 94 111 134 156
233 823 94 90 136 171
234 820 93 132 106 79
234 821 93 154 134 117
235 820 93 127 91 63
235 821 93 138 115 93
234 822 93 165 155 153
235 822 93 147 132 121
234 822 94 154 157 166
234 823 94 124 140 158
235 822 94 143 136 133
235 823 94 115 119 126
236 816 92 163 139 120
236 817 92 122 97 78
237 816 92 150 127 110
237 817 92 99 74 50
236 818 92 118 99 87
236 818 93 118 96 80
236 819 93 117 89 62
237 818 92 99 83 69
237 818 93 123 108 95
237 819 93 162 146 137
238 816 92 102 92 88
238 817 92 100 100 107
239 816 92 113 118 127
239 817 92 94 125 152
238 818 92 108 123 139
238 818 93 122 118 119
238 819 93 133 148 165
239 818 92 85 130 166
239 818 93 76 131 173
239 819 93 74 128 169
236 820 93 133 109 86
236 821 93 142 130 124
237 820 93 154 144 138
237 821 93 143 136 136
236 822 93 145 139 138
237 822 93 155 142 135
236 822 94 151 144 144
236 823 94 150 143 139
237 822 94 164 149 138
237 823 94 180 159 140
238 820 93 142 150 163
238 821 93 166 157 153
239 820 93 135 145 159
239 821 93 173 151 130
238 822 93 189 166 147
239 822 93 191 156 117
238 822 94 195 169 145
238 823 94 210 180 154
239 822 94 202 167 131
239 823 94 199 159 119
232 824 94 82 133 172
232 824 95 116 139 161
232 825 95 158 151 148
233 824 94 110 134 157
233 824 95 136 125 114
233 825 95 177 140 90
232 826 95 196 168 141
232 827 95 208 171 133
233 826 95 212 163 108
233 827 95 209 159 110
234 824 94 124 124 130
234 824 95 146 112 82
234 825 95 189 134 69
235 824 94 92 75 73
235 824 95 112 58 35
235 825 95 158 99 60
234 826 95 209 152 84
235 826 95 183 131 81
236 824 94 148 119 96
236 825 95 175 122 88
237 824 94 186 152 120
237 825 95 184 131 93
236 826 95 180 131 92
237 826 95 179 129 86
238 824 94 200 161 120
238 824 95 190 140 92
238 825 95 187 132 91
239 824 94 193 142 92
239 824 95 194 135 91
239 825 95 189 132 92
238 826 95 181 129 88
