ply
format ascii 1.0
comment Version 2, Copyright 2017, 8i Labs, Inc.
comment frame_to_world_scale 0.179523
comment frame_to_world_translation -45.2095 7.18301 -54.3561
comment width 1023
element vertex 25
property float x
property float y
property float z
property uchar red
property uchar green
property uchar blue
end_header
237 91 256 107 88 68
238 89 256 107 88 68
239 89 256 108 89 68
238 90 256 106 87 68
238 91 256 107 88 68
239 90 256 109 90 70
239 91 256 108 89 69
237 92 256 108 88 69
237 93 256 109 89 70
236 94 256 110 90 71
236 95 256 112 92 73
237 94 256 110 90 70
237 95 256 112 92 72
238 92 256 108 88 69
238 93 256 108 89 70
238 93 257 109 90 70
239 92 256 109 89 70
239 92 257 109 90 70
239 93 257 110 91 71
238 94 256 109 90 70
238 94 257 110 91 71
238 95 256 112 92 72
238 95 257 112 92 72
239 94 257 111 91 71
239 95 257 112 92 72
