ply
format ascii 1.0
comment Version 2, Copyright 2017, 8i Labs, Inc.
comment frame_to_world_scale 0.179523
comment frame_to_world_translation -45.2095 7.18301 -54.3561
comment width 1023
element vertex 295
property float x
property float y
property float z
property uchar red
property uchar green
property uchar blue
end_header
224 928 219 183 141 118
224 929 219 181 139 116
225 928 219 182 140 116
225 929 219 180 138 114
224 930 219 179 136 114
224 931 219 178 135 112
225 930 219 178 135 112
225 931 219 176 134 110
225 928 220 181 139 115
225 929 220 180 137 114
225 930 220 178 136 112
225 931 220 176 134 111
226 928 220 183 140 117
226 929 220 181 139 116
227 928 220 185 143 118
227 929 220 183 142 118
226 930 220 180 137 114
226 931 220 178 136 112
227 930 220 182 141 117
227 931 220 180 140 114
224 932 219 177 137 113
224 933 219 177 137 112
225 932 219 177 136 111
225 933 219 178 138 113
224 934 219 176 136 110
224 935 219 177 137 111
225 934 219 178 137 112
225 935 219 177 137 112
226 932 219 176 135 110
226 933 219 177 137 112
226 934 219 179 139 113
226 935 219 179 139 113
227 935 219 182 142 116
226 932 220 177 137 112
226 933 220 178 139 113
227 932 220 179 140 114
227 933 220 181 141 116
227 934 220 181 142 116
227 935 220 183 143 117
228 928 220 186 145 120
228 929 220 186 145 120
229 928 220 187 146 121
229 929 220 188 147 122
228 930 220 185 144 119
228 931 220 181 142 115
229 930 220 188 147 122
229 931 220 183 144 116
230 928 220 188 147 123
230 929 220 189 148 124
231 928 220 188 147 123
231 929 220 188 147 124
230 930 220 189 149 124
230 931 220 184 145 118
231 930 220 188 148 124
231 931 220 184 144 118
228 932 220 180 141 115
228 933 220 181 142 116
229 932 220 183 144 118
229 933 220 182 144 117
228 934 220 182 143 117
228 935 220 184 145 119
229 934 220 184 145 119
229 935 220 186 146 121
230 932 220 184 145 119
230 933 220 184 146 120
231 932 220 184 145 119
231 933 220 186 148 122
230 934 220 185 146 120
230 935 220 187 148 122
231 934 220 187 148 122
231 935 220 188 148 122
224 936 218 182 141 115
224 936 219 181 140 115
224 937 218 185 144 119
224 937 219 184 143 117
225 936 219 181 140 115
225 937 219 185 143 118
224 938 218 189 146 121
224 939 218 190 146 121
225 938 218 189 147 122
225 938 219 188 146 121
225 939 218 191 147 123
226 936 219 181 141 114
226 937 219 186 144 119
227 936 219 184 143 117
227 937 219 188 146 120
226 938 219 190 149 123
226 939 218 193 149 126
226 939 219 194 151 127
227 938 219 192 150 125
227 939 219 196 153 129
224 941 217 194 148 125
224 940 218 191 145 121
224 941 218 193 147 124
225 940 218 192 146 122
225 941 218 194 148 125
224 942 217 195 148 126
224 943 217 197 151 128
225 943 217 197 150 127
224 942 218 195 149 127
225 942 218 196 149 128
225 943 218 196 149 126
226 940 218 193 147 124
226 941 218 195 149 127
227 940 218 196 151 127
227 940 219 198 154 129
227 941 218 197 150 127
227 941 219 198 153 129
226 942 218 197 150 129
226 943 218 199 152 131
227 942 218 199 152 129
227 943 218 204 159 136
228 936 219 186 145 119
228 937 219 189 148 122
229 937 219 191 150 124
228 938 219 193 151 126
228 939 219 197 154 129
229 938 219 193 152 126
229 939 219 197 154 129
230 938 219 194 152 127
230 939 219 197 154 130
231 939 219 197 154 129
228 936 220 187 146 121
229 936 220 188 147 122
229 937 220 190 149 123
230 936 220 190 150 124
230 937 220 191 149 124
231 936 220 191 151 125
231 937 220 192 151 126
230 938 220 193 151 126
230 939 220 196 153 129
231 938 220 195 153 128
231 939 220 197 154 130
228 940 219 199 155 130
228 941 219 199 154 130
229 940 219 199 156 131
229 941 219 201 156 133
228 942 218 201 156 133
228 942 219 201 156 133
228 943 218 205 161 137
229 942 219 202 158 135
229 943 218 205 160 137
230 940 219 199 157 131
230 941 219 200 157 132
231 940 219 200 158 132
231 941 219 200 158 135
230 942 219 202 157 135
230 943 218 206 162 141
230 943 219 206 162 141
231 942 219 203 160 138
231 943 219 208 164 144
232 928 220 187 147 122
232 929 220 186 145 120
233 928 221 187 147 121
233 929 220 185 143 118
233 929 221 185 144 119
232 930 220 187 147 122
232 931 220 185 145 120
233 930 220 187 146 121
233 930 221 187 146 121
233 931 220 186 145 120
233 931 221 186 145 118
234 928 221 188 147 122
234 929 221 187 146 120
235 928 221 191 150 125
235 929 221 188 148 122
234 930 221 187 146 120
234 931 221 186 145 117
235 930 221 187 146 120
235 931 221 186 145 118
232 932 220 186 146 121
232 933 220 187 149 122
233 932 220 187 148 123
233 933 220 189 150 125
232 934 220 188 149 122
232 935 220 190 151 125
233 934 220 189 150 124
233 935 220 192 152 127
234 932 220 189 150 124
234 932 221 188 149 122
234 933 220 190 151 126
234 933 221 190 151 126
235 932 221 188 148 121
235 933 221 189 150 124
234 934 220 189 150 125
234 934 221 190 151 126
234 935 220 193 154 129
234 935 221 192 153 128
235 934 221 190 149 125
235 935 220 194 153 128
235 935 221 193 153 129
236 928 221 191 150 126
236 929 221 188 147 122
237 928 221 191 149 125
237 929 221 188 147 123
236 930 221 188 148 121
236 931 221 186 145 117
237 930 221 188 148 123
237 931 221 186 146 119
238 928 221 190 149 125
238 929 221 188 147 123
239 928 221 190 149 125
239 929 221 187 145 120
238 930 221 187 147 122
238 931 221 186 147 121
239 930 221 187 147 121
239 931 221 186 147 120
236 932 221 187 146 119
236 933 221 189 149 123
237 932 221 186 146 119
237 933 221 188 147 122
236 934 221 190 149 125
236 935 221 192 152 128
237 934 221 190 149 126
237 935 221 192 151 129
238 932 221 186 146 120
238 933 221 187 146 121
239 932 221 186 146 120
239 933 221 185 144 119
238 934 221 188 147 124
238 935 221 191 150 127
239 934 221 187 146 123
239 935 221 189 150 127
232 936 220 192 152 127
232 937 220 194 153 127
233 936 220 193 153 127
233 937 220 195 154 128
232 938 220 196 154 129
232 939 220 197 154 131
233 938 220 196 154 129
233 939 220 196 153 129
234 936 220 193 153 126
234 937 220 195 154 127
235 936 220 193 151 125
235 937 220 193 150 123
234 938 220 196 154 128
234 939 220 197 154 129
235 938 220 196 153 128
235 939 220 199 156 132
232 940 219 200 158 133
232 941 219 202 160 136
233 940 219 199 157 131
233 941 219 202 160 135
232 942 219 203 158 136
232 943 219 206 162 141
233 942 219 203 160 136
233 943 219 206 161 139
234 941 219 203 160 135
235 941 219 204 161 136
234 942 219 206 162 139
234 943 219 207 162 141
235 942 219 206 162 139
235 943 219 207 162 140
232 940 220 199 156 131
233 940 220 198 156 131
234 940 220 200 157 133
234 941 220 202 159 134
235 940 220 200 157 133
235 941 220 202 158 133
236 936 220 192 150 125
236 936 221 193 152 127
236 937 220 191 148 122
237 936 221 193 152 127
237 937 220 192 150 124
236 938 220 195 152 127
236 939 220 198 155 132
237 938 220 194 152 127
237 939 220 197 154 132
238 936 221 192 151 127
238 937 220 193 152 127
238 937 221 194 153 127
239 936 221 193 153 128
239 937 221 193 154 128
238 938 220 193 152 127
238 939 220 194 151 129
239 938 220 194 153 128
239 939 220 190 145 123
236 941 219 202 158 134
237 941 219 200 156 132
236 942 219 203 159 135
236 943 219 204 158 135
237 942 219 200 156 132
237 943 219 202 156 132
238 942 219 198 153 130
238 943 219 201 155 132
239 942 219 198 152 130
239 943 219 200 153 130
236 940 220 200 156 132
236 941 220 201 157 133
237 940 220 198 155 132
237 941 220 199 156 133
238 940 220 192 147 126
238 941 220 196 151 130
239 940 220 183 135 111
239 941 220 193 148 126
