ply
format ascii 1.0
comment Version 2, Copyright 2017, 8i Labs, Inc.
comment frame_to_world_scale 0.179523
comment frame_to_world_translation -45.2095 7.18301 -54.3561
comment width 1023
element vertex 441
property float x
property float y
property float z
property uchar red
property uchar green
property uchar blue
end_header
225 993 160 131 108 85
225 994 160 130 105 80
225 995 160 126 101 74
226 992 160 124 100 77
226 993 160 124 101 77
226 993 161 118 93 67
227 992 161 115 90 64
227 993 161 116 90 64
227 992 162 113 87 62
227 993 162 116 90 66
227 993 163 114 88 65
226 994 160 124 99 74
226 994 161 120 94 69
226 995 161 118 92 66
226 994 162 120 95 70
226 995 162 117 91 65
227 994 162 119 94 70
227 994 163 114 87 62
227 995 162 118 93 67
227 995 163 114 87 61
227 995 164 113 84 58
227 995 165 112 83 57
225 996 160 123 97 70
225 996 161 116 88 64
225 997 160 116 86 59
225 997 161 114 82 53
225 998 160 113 81 52
225 998 161 119 90 63
225 999 160 121 93 67
225 999 161 129 102 73
226 996 161 114 85 60
226 997 161 113 82 54
226 996 162 114 86 59
226 996 163 115 88 60
226 997 162 118 89 63
226 997 163 121 94 67
227 996 163 116 89 61
226 998 161 121 93 65
226 998 162 125 97 67
226 998 163 132 105 75
226 999 162 135 108 77
226 999 163 144 116 84
226 997 164 129 103 75
227 996 164 116 90 62
227 996 165 118 92 64
227 997 164 126 100 73
227 997 165 135 109 83
227 997 166 146 121 97
226 998 164 140 113 83
226 999 164 156 127 98
226 999 165 166 139 111
227 998 165 157 130 103
227 999 165 175 147 121
227 998 166 171 144 119
227 999 166 185 156 130
228 992 162 111 85 59
228 992 163 111 84 59
228 993 163 112 84 61
229 992 163 111 84 59
228 993 164 107 78 51
229 992 164 109 82 57
229 992 165 110 83 56
229 993 164 108 79 53
229 993 165 109 81 52
229 993 166 112 86 57
229 993 167 115 90 61
228 994 164 109 79 53
228 994 165 109 78 50
228 995 164 112 82 57
228 995 165 112 83 57
229 994 165 110 81 52
228 995 166 117 90 61
229 994 166 114 86 57
229 994 167 120 94 65
229 995 166 116 89 60
229 995 167 132 107 79
230 992 166 111 85 60
230 992 167 108 81 54
230 993 166 113 87 62
230 993 167 113 87 58
230 994 167 119 94 64
228 996 165 118 93 65
228 996 166 127 101 73
228 996 167 139 114 88
228 997 166 147 122 97
228 997 167 162 137 113
229 996 167 147 123 97
229 997 167 166 142 119
228 998 167 178 151 126
228 999 167 192 165 139
229 998 167 187 160 136
229 999 167 192 164 139
230 992 168 105 76 43
230 993 168 115 87 55
231 992 168 113 85 54
231 992 169 125 99 69
231 993 168 120 92 59
231 993 169 133 105 73
230 994 168 127 101 71
230 995 168 142 116 90
231 994 168 133 105 74
231 994 169 138 110 78
231 995 168 141 114 83
231 995 169 147 119 90
229 997 168 178 153 130
229 998 168 187 161 138
230 996 168 157 133 109
230 996 169 162 137 113
230 997 168 174 148 126
230 997 169 167 142 118
231 996 169 153 127 99
231 997 169 152 121 91
230 998 168 173 145 120
230 999 168 168 137 108
231 998 169 150 115 81
231 999 168 153 117 81
231 999 169 153 117 80
225 1000 160 129 102 72
225 1000 161 141 114 84
225 1001 160 146 118 87
225 1001 161 164 136 107
225 1000 162 150 123 94
225 1001 162 175 147 119
225 1002 160 171 144 116
225 1002 161 186 157 130
225 1003 160 186 158 132
225 1003 161 186 156 128
225 1002 162 193 164 136
225 1003 162 190 158 129
226 1000 162 154 126 97
226 1000 163 162 134 106
226 1001 163 183 154 127
226 1002 163 194 164 136
226 1003 163 204 174 146
226 1000 164 175 147 118
226 1000 165 183 155 128
226 1001 164 192 163 136
226 1001 165 198 168 142
227 1000 165 189 160 133
227 1001 165 203 173 146
227 1000 166 198 169 142
227 1001 166 207 178 152
226 1002 164 202 173 146
226 1003 164 212 182 155
227 1002 164 210 180 154
227 1002 165 207 178 152
227 1003 164 209 178 151
227 1003 165 205 176 150
225 1004 160 184 154 126
225 1004 161 184 153 123
225 1005 160 183 153 125
225 1005 161 194 165 138
225 1004 162 198 167 138
225 1006 160 192 163 137
226 1005 161 206 177 152
226 1004 162 205 175 148
226 1004 163 214 184 157
226 1005 162 210 180 154
226 1005 163 210 179 150
227 1005 163 200 170 141
226 1006 160 199 169 144
226 1006 161 200 170 144
226 1007 160 189 160 133
227 1006 161 185 154 125
227 1007 160 177 147 119
227 1007 161 176 146 117
226 1006 162 199 169 141
227 1006 162 191 160 132
227 1006 163 191 160 132
226 1004 164 216 185 157
227 1004 164 205 174 146
227 1005 164 201 170 143
228 1000 166 201 172 147
228 1000 167 200 172 147
228 1001 166 202 173 147
229 1000 167 189 160 132
229 1001 166 178 146 117
229 1001 167 180 149 119
228 1002 165 200 171 145
228 1003 165 192 162 136
229 1003 165 164 131 101
228 1002 166 196 166 141
229 1002 166 172 139 111
229 1003 166 159 125 95
230 1000 167 169 137 107
230 1001 167 162 128 95
231 1001 167 162 130 103
230 1003 165 151 119 92
230 1002 166 155 121 92
230 1002 167 161 127 96
230 1003 166 153 123 96
231 1002 167 158 129 104
231 1003 166 146 115 87
228 1005 163 188 158 131
228 1007 160 159 129 98
228 1007 161 159 129 96
229 1007 161 156 127 97
228 1006 162 171 139 108
228 1006 163 177 145 114
228 1007 162 162 130 96
229 1006 162 160 129 96
229 1006 163 164 134 104
229 1007 162 161 132 102
230 1007 161 163 136 110
230 1006 163 160 134 109
230 1007 162 162 135 110
230 1007 163 159 133 109
231 1007 162 143 113 87
231 1007 163 145 116 91
228 1004 164 189 159 131
228 1004 165 179 149 120
228 1005 164 181 152 123
229 1004 165 156 124 91
229 1005 164 160 130 99
229 1006 164 160 131 102
230 1004 165 153 125 100
230 1005 164 158 132 109
230 1005 165 156 129 107
231 1004 165 149 120 91
231 1005 165 152 123 97
231 1004 166 144 113 80
230 1006 164 159 133 110
231 1006 164 146 119 92
230 1000 168 159 124 91
230 1001 168 160 124 92
231 1000 168 157 121 88
231 1000 169 157 121 87
231 1001 168 159 124 95
232 992 169 128 102 74
232 993 169 140 113 84
232 992 170 133 109 84
232 993 170 145 120 93
233 992 171 130 106 83
233 993 171 141 116 91
232 994 169 146 119 89
232 995 169 147 119 90
232 994 170 146 119 91
232 995 170 144 115 85
233 994 171 138 108 78
233 995 171 139 108 76
233 992 172 127 103 78
233 992 173 123 97 70
233 993 172 133 106 78
233 994 172 136 106 74
233 995 172 142 111 80
234 992 173 130 104 80
234 993 173 138 109 81
234 992 174 139 113 89
234 993 174 144 115 89
235 992 174 145 117 93
235 992 175 157 127 100
235 993 174 152 120 92
235 993 175 168 136 105
234 994 173 140 109 78
234 995 172 141 110 78
234 995 173 139 105 72
234 994 174 144 112 81
235 994 174 164 129 96
235 995 174 160 123 86
232 996 170 145 114 85
232 997 170 150 116 85
233 996 171 148 117 87
233 997 171 149 116 85
232 998 169 154 118 84
232 999 169 152 116 80
232 998 170 153 117 86
232 999 170 152 116 83
233 998 170 144 107 74
233 998 171 137 100 65
233 999 170 134 95 62
234 998 171 125 86 54
234 999 170 125 84 61
234 999 171 128 89 62
235 999 171 141 105 72
233 996 172 146 116 85
233 997 172 140 108 76
234 996 172 135 102 69
234 996 173 134 97 65
234 997 172 126 88 54
234 997 173 128 87 55
235 996 173 154 115 79
235 997 172 139 102 74
235 997 173 148 110 78
235 996 174 167 130 95
234 998 172 126 88 59
235 998 172 138 102 71
235 999 172 138 102 69
236 993 175 167 139 113
237 993 175 134 108 81
236 994 174 176 143 112
236 994 175 171 141 111
236 995 174 169 135 102
237 994 175 141 112 81
237 995 174 143 110 73
237 995 175 142 110 75
238 994 175 125 98 68
238 995 175 134 105 74
239 994 175 130 101 73
239 995 175 131 100 71
236 997 173 151 110 73
237 997 173 153 118 84
236 996 174 162 124 88
236 997 174 154 114 76
237 996 174 144 110 73
237 997 174 149 113 79
236 998 172 149 114 78
236 998 173 149 112 76
236 999 172 153 120 87
237 998 172 156 122 87
237 998 173 154 120 85
237 999 172 152 117 83
238 997 173 139 104 76
239 997 173 118 79 54
238 996 174 137 107 76
238 997 174 139 106 78
239 996 174 126 92 60
239 997 174 120 83 52
238 998 173 136 98 66
238 999 172 129 89 55
239 998 173 119 83 61
239 999 172 120 87 61
239 999 173 120 90 67
232 1002 167 133 100 73
232 1003 166 137 104 73
232 1003 167 132 101 69
233 1003 167 132 102 70
234 1003 167 161 132 101
232 1007 162 152 122 100
232 1007 163 162 134 112
233 1007 163 150 118 89
234 1007 163 127 94 63
235 1007 163 133 102 71
232 1005 165 161 130 103
233 1005 165 163 129 97
232 1004 166 149 119 88
233 1004 166 159 130 102
233 1004 167 159 131 102
233 1005 166 168 136 107
232 1006 164 162 133 106
232 1006 165 162 132 103
233 1006 164 149 116 79
233 1006 165 154 121 84
233 1007 164 145 111 74
234 1004 166 173 142 112
234 1004 167 169 137 106
234 1005 166 162 124 91
235 1004 167 148 111 75
235 1005 166 145 110 80
234 1006 164 139 105 73
234 1006 165 148 110 77
234 1007 164 133 100 68
235 1006 164 141 112 85
235 1006 165 145 115 89
235 1007 164 141 111 83
236 1007 162 134 104 77
236 1007 163 136 106 77
237 1007 162 124 93 71
237 1007 163 126 97 71
238 1007 162 96 62 38
238 1007 163 103 70 47
239 1007 163 105 76 58
236 1004 167 144 115 85
236 1005 166 147 119 94
236 1005 167 152 125 99
237 1004 167 146 115 85
237 1005 166 145 111 83
237 1005 167 145 113 82
236 1006 164 140 110 83
236 1006 165 145 116 90
236 1007 164 139 110 82
237 1006 164 133 102 71
237 1006 165 137 105 75
237 1007 164 130 99 70
236 1006 166 145 117 91
237 1006 166 144 111 83
238 1005 166 128 89 64
238 1005 167 130 92 67
239 1005 167 124 92 70
238 1006 165 118 84 59
238 1007 164 113 81 58
238 1007 165 117 87 71
239 1006 165 123 92 79
239 1007 164 112 83 66
239 1007 165 119 90 76
238 1006 166 117 79 53
239 1006 166 124 93 76
232 1000 169 146 107 73
232 1001 168 136 98 70
232 1001 169 134 93 64
233 1000 169 129 87 62
233 1001 168 113 68 46
233 1001 169 117 73 52
233 1000 170 127 84 59
232 1002 168 120 82 52
233 1002 168 115 78 50
234 1001 169 129 92 64
235 1001 169 154 121 85
234 1000 170 127 86 65
234 1000 171 132 94 68
234 1001 170 137 101 71
235 1000 170 145 110 76
235 1000 171 148 113 79
235 1001 170 155 120 85
234 1002 168 141 110 79
234 1002 169 145 113 81
234 1003 168 157 126 96
235 1002 169 159 126 91
235 1003 168 160 126 93
235 1004 168 144 108 69
236 1000 171 158 124 91
236 1001 170 153 116 81
236 1001 171 153 115 80
237 1000 171 144 106 72
237 1001 170 135 95 63
237 1001 171 140 99 66
236 1002 169 146 108 75
236 1003 168 140 106 72
236 1003 169 141 105 72
237 1002 169 137 106 79
237 1003 168 144 117 91
237 1003 169 141 114 87
237 1002 170 133 98 68
238 1000 171 128 89 59
238 1001 170 130 97 70
238 1001 171 129 95 67
239 1000 171 126 94 67
239 1001 170 127 93 67
239 1001 171 129 97 69
238 1002 169 135 105 80
238 1003 169 135 104 76
239 1003 169 117 82 55
238 1002 170 133 101 76
239 1002 170 122 87 63
238 1000 172 122 85 56
239 1000 172 123 91 63
236 1004 168 141 110 77
237 1004 168 147 118 89
238 1004 168 133 98 70
239 1004 168 118 83 56
239 1004 169 117 84 57
239 1005 168 121 86 63
