ply
format ascii 1.0
comment Version 2, Copyright 2017, 8i Labs, Inc.
comment frame_to_world_scale 0.179523
comment frame_to_world_translation -45.2095 7.18301 -54.3561
comment width 1023
element vertex 335
property float x
property float y
property float z
property uchar red
property uchar green
property uchar blue
end_header
225 112 96 115 93 71
225 112 97 116 94 72
225 113 96 116 94 73
225 114 96 115 94 73
226 112 97 117 95 73
226 113 96 116 94 72
226 113 97 116 95 73
227 113 97 116 95 72
226 112 98 118 96 74
227 112 98 118 96 74
227 112 99 119 97 75
227 113 98 117 96 74
227 113 99 118 96 74
226 114 96 115 94 71
226 114 97 114 93 70
226 115 96 114 93 70
227 114 97 116 94 72
227 115 96 114 92 70
227 115 97 115 94 72
227 114 98 116 95 73
227 112 100 119 96 75
226 116 96 115 93 71
227 116 96 114 93 71
227 116 97 114 93 71
227 117 96 114 93 71
227 118 96 114 93 72
227 119 96 114 93 72
228 112 99 118 96 75
228 113 99 117 95 74
228 115 97 115 94 72
228 114 98 115 94 73
228 114 99 115 94 72
228 115 98 114 93 72
229 114 99 115 94 72
229 115 98 114 93 72
229 115 99 114 93 73
228 112 100 118 96 75
228 112 101 117 95 74
228 113 100 116 95 74
229 112 101 116 95 74
229 113 100 116 95 73
229 113 101 116 95 74
229 112 102 115 94 74
229 113 102 116 95 74
229 114 100 116 94 73
229 114 101 116 95 73
229 115 100 116 95 73
230 112 102 115 93 73
230 112 103 114 93 73
230 113 102 116 94 74
230 113 103 115 93 73
231 112 103 114 92 71
231 113 103 115 93 72
230 114 101 116 94 72
230 115 101 116 95 73
230 114 102 116 94 73
230 114 103 116 94 72
230 115 102 116 94 72
231 114 103 115 93 72
231 115 102 116 94 72
231 115 103 115 93 71
228 116 97 114 93 72
228 117 97 113 93 71
228 116 98 114 93 72
229 116 98 114 93 72
229 116 99 115 94 73
229 117 98 113 92 71
229 117 99 114 93 71
228 118 96 113 93 71
228 118 97 113 92 71
228 119 97 113 92 72
228 119 98 113 93 72
229 118 98 113 93 71
229 118 99 113 92 70
229 119 98 113 93 72
229 119 99 113 92 70
230 117 99 115 93 71
230 118 99 115 93 71
230 119 99 114 92 70
229 116 100 116 95 73
230 116 100 116 95 73
230 116 101 116 95 72
230 117 100 115 94 71
230 117 101 116 93 70
231 117 101 115 93 69
230 116 102 116 94 72
231 116 102 116 94 71
231 116 103 115 93 71
231 117 102 115 93 70
230 118 100 116 94 71
230 118 101 115 93 69
230 119 100 115 93 71
231 118 101 115 92 69
231 119 100 114 93 70
231 119 101 113 92 69
231 118 102 114 92 69
231 119 102 113 91 68
231 112 104 113 92 71
227 120 96 113 92 71
227 121 96 113 92 71
227 122 96 113 92 72
227 123 96 112 92 71
227 124 96 111 91 70
228 120 97 113 92 71
228 121 97 112 92 71
228 120 98 112 91 70
228 121 98 111 91 70
229 120 98 112 91 70
229 120 99 112 91 70
229 121 98 111 90 70
228 122 97 111 91 70
228 123 96 112 91 70
228 123 97 111 90 69
229 123 97 110 90 69
229 122 98 110 90 69
229 123 98 110 90 69
230 120 99 113 92 70
230 121 98 111 91 70
230 121 99 112 92 70
231 121 99 111 91 69
230 122 98 110 90 69
230 123 98 109 89 69
231 122 99 110 89 68
231 123 98 109 89 68
231 123 99 108 88 66
230 120 100 114 93 70
231 120 100 113 92 69
231 120 101 113 91 68
231 121 100 112 91 68
228 124 96 111 91 70
228 124 97 110 90 70
228 125 96 109 89 68
228 125 97 110 90 69
229 124 97 110 89 69
229 125 97 109 89 68
228 126 96 108 87 65
228 127 96 107 87 65
229 126 96 107 86 64
229 126 97 108 87 66
229 127 96 108 87 65
229 127 97 108 88 66
230 125 97 108 88 67
230 124 98 109 89 68
230 125 98 108 88 67
231 124 98 108 87 66
231 124 99 107 87 66
231 125 98 107 87 66
231 125 99 107 87 66
230 126 97 108 88 66
230 127 97 109 88 67
230 126 98 108 88 66
230 127 98 109 89 68
231 126 98 108 88 66
231 126 99 108 88 66
231 127 98 108 88 67
231 127 99 108 88 66
232 114 103 113 92 71
232 115 103 113 92 70
232 116 103 113 92 70
232 117 102 113 91 68
232 117 103 113 91 69
233 116 103 111 90 69
233 117 103 109 88 68
232 118 102 112 90 68
232 118 103 111 89 68
232 119 102 111 89 68
233 118 103 109 87 67
233 119 102 109 87 67
233 119 103 108 86 66
234 118 103 106 85 65
234 119 103 106 85 64
232 112 104 111 90 70
232 113 104 112 91 70
233 112 104 108 88 68
233 112 105 106 86 66
233 113 104 108 88 68
232 114 104 111 91 70
232 115 104 111 90 69
233 114 104 108 88 68
233 115 104 108 88 67
234 112 105 103 83 63
234 113 104 105 85 65
234 113 105 103 83 63
235 112 105 100 81 61
235 113 105 100 81 60
234 114 104 103 83 62
234 115 104 103 83 63
235 114 104 101 81 61
235 114 105 100 80 61
235 115 104 102 81 61
233 116 104 108 88 68
233 117 104 107 86 66
234 116 104 104 83 64
234 117 104 105 83 64
235 116 104 102 81 61
235 117 104 102 81 60
234 118 104 104 83 64
234 119 104 104 83 62
235 118 104 102 81 61
235 119 104 101 81 60
236 112 105 98 79 59
236 113 105 99 80 60
237 112 105 97 78 58
237 113 105 97 77 58
236 112 106 97 78 58
237 112 106 96 77 57
236 114 105 99 79 60
236 115 104 99 78 59
237 114 105 95 76 55
237 115 104 95 75 53
238 113 105 94 75 56
239 113 105 91 74 55
238 112 106 93 75 55
239 112 106 91 73 55
239 113 106 90 73 54
238 114 105 93 74 54
238 115 105 92 73 52
239 114 105 90 73 55
239 115 105 90 72 53
236 116 104 99 78 57
236 117 104 99 78 57
237 116 104 97 76 55
237 117 104 97 76 55
236 118 104 99 78 57
236 119 104 98 78 57
237 118 104 96 75 54
237 118 105 96 76 54
237 119 105 96 76 54
238 116 104 93 74 53
238 116 105 92 73 52
238 117 104 94 75 54
239 116 105 90 72 53
239 117 104 91 73 53
239 117 105 90 72 53
238 118 105 94 74 54
238 119 105 94 74 54
239 118 105 90 72 53
239 119 105 90 73 53
232 122 99 110 88 66
232 123 99 108 87 65
232 120 101 111 89 67
232 121 100 110 89 67
232 121 101 110 88 67
233 121 101 108 87 67
232 120 102 110 88 67
233 120 102 108 87 66
233 120 103 107 86 65
233 121 102 108 87 66
232 122 100 109 88 66
233 122 100 107 86 65
233 123 100 107 86 64
234 120 103 104 83 62
234 121 102 106 85 65
234 121 103 104 84 63
235 121 103 101 81 61
234 122 101 105 84 63
234 123 100 106 85 64
234 123 101 105 84 63
235 123 101 104 83 62
234 122 102 104 84 63
235 122 102 102 81 61
235 122 103 101 80 61
235 123 102 102 82 61
232 124 99 107 87 65
232 125 99 107 87 66
233 124 99 107 86 66
233 125 99 107 87 66
232 126 99 108 87 65
232 127 99 108 87 64
233 126 99 107 86 65
233 124 100 106 86 66
233 125 100 107 86 66
232 127 100 106 85 64
233 126 100 107 86 65
233 127 100 107 86 65
234 124 100 106 85 64
234 125 100 106 85 64
235 124 101 104 84 63
235 125 100 105 84 63
235 125 101 104 83 62
235 124 102 102 81 61
235 125 102 101 80 60
234 126 100 106 85 64
234 127 100 107 85 64
234 127 101 106 84 62
235 126 101 104 83 62
235 127 101 102 82 60
235 126 102 101 81 60
235 127 102 101 80 58
236 122 103 99 79 59
236 123 103 98 78 58
237 123 103 96 76 55
236 124 102 99 79 59
236 124 103 97 78 58
236 125 102 99 79 58
236 125 103 96 77 57
237 124 103 95 76 55
237 125 103 94 75 54
236 126 102 98 78 57
236 126 103 96 77 56
236 127 102 98 78 57
236 127 103 96 76 56
237 126 103 95 75 55
237 127 103 94 75 56
238 125 103 93 74 53
235 120 104 101 81 60
235 121 104 100 81 60
236 120 104 99 79 57
236 120 105 97 77 56
236 121 104 99 79 58
237 120 104 97 77 55
237 120 105 95 76 55
237 121 104 96 77 56
237 121 105 95 75 54
236 122 104 98 79 58
237 122 104 97 77 56
237 123 104 95 75 55
238 120 105 93 74 53
238 121 104 93 74 54
238 121 105 93 74 53
239 120 105 90 72 52
239 121 105 89 72 52
238 122 104 93 74 54
238 123 104 92 74 54
239 122 104 90 72 53
239 122 105 88 71 52
239 123 104 89 72 53
238 124 104 92 73 53
238 125 104 91 72 51
239 124 104 89 72 53
239 125 104 88 71 52
238 126 104 91 72 51
238 127 104 91 72 53
239 126 104 88 71 51
239 127 104 88 70 51
