ply
format ascii 1.0
comment Version 2, Copyright 2017, 8i Labs, Inc.
comment frame_to_world_scale 0.179523
comment frame_to_world_translation -45.2095 7.18301 -54.3561
comment width 1023
element vertex 306
property float x
property float y
property float z
property uchar red
property uchar green
property uchar blue
end_header
224 114 199 109 96 83
224 115 198 110 96 83
224 115 199 110 96 83
225 114 198 110 96 83
225 114 199 109 96 83
225 115 198 110 96 82
226 113 198 110 97 84
226 113 199 109 96 84
227 112 199 109 97 85
227 113 198 109 97 84
227 113 199 109 97 85
226 115 197 110 96 83
227 114 197 110 96 84
227 115 196 110 96 83
227 115 197 110 96 83
226 114 198 110 96 83
226 114 199 109 96 84
226 115 198 110 96 83
227 114 198 110 97 84
225 118 195 112 96 80
225 119 194 112 96 80
225 119 195 113 96 80
226 117 195 111 96 82
227 116 195 111 96 82
227 117 194 111 96 82
227 117 195 111 96 82
226 119 193 112 96 81
227 119 192 112 96 82
227 119 193 112 96 82
226 118 194 112 96 81
226 118 195 112 96 81
226 119 194 112 96 80
227 118 194 111 96 82
224 116 197 110 96 81
224 117 197 111 96 81
225 116 197 111 96 81
225 117 196 111 96 81
225 117 197 111 96 80
224 116 198 110 96 82
224 117 198 110 95 80
225 116 198 110 96 82
224 118 197 111 96 79
224 119 196 113 97 79
224 119 197 112 96 79
225 118 196 112 96 80
225 118 197 112 96 79
225 119 196 113 97 80
224 118 198 110 95 79
224 119 198 111 95 78
224 119 199 108 93 78
226 116 196 111 96 82
226 116 197 110 96 82
226 117 196 111 96 82
227 116 196 110 96 83
229 115 195 110 96 83
230 114 195 110 97 84
230 115 194 110 97 84
230 115 195 110 97 84
231 114 194 110 97 84
231 114 195 109 97 84
231 115 194 110 96 84
228 113 197 109 97 84
229 113 197 109 97 85
228 112 198 109 97 85
228 112 199 109 97 86
228 113 198 109 97 85
229 112 198 109 97 85
229 112 199 109 97 85
229 113 198 109 97 85
228 114 197 110 97 84
228 115 196 110 96 83
229 114 196 110 96 84
229 114 197 109 97 84
229 115 196 110 97 84
230 113 196 109 97 84
230 113 197 109 97 85
231 112 197 109 97 85
231 113 196 109 97 84
231 113 197 109 97 85
230 112 198 109 97 85
230 113 198 109 97 85
231 112 198 109 97 85
230 114 196 110 96 84
231 114 196 109 96 84
229 117 193 111 96 83
228 116 194 111 97 83
228 116 195 110 96 83
228 117 194 111 96 83
229 116 194 110 97 83
229 116 195 110 96 83
229 117 194 111 96 83
228 118 193 111 96 82
228 119 192 112 97 82
229 118 192 111 96 82
229 118 193 111 96 82
229 119 192 112 97 82
228 118 194 111 96 82
230 116 193 110 97 84
230 117 192 111 96 83
230 117 193 111 96 83
231 116 192 110 96 84
231 116 193 110 97 84
231 117 192 110 97 84
230 116 194 110 97 84
230 118 192 111 97 83
228 116 196 110 96 83
224 113 200 109 96 84
224 113 201 109 96 85
225 112 201 109 96 85
225 113 200 109 96 84
225 113 201 109 96 85
224 112 202 108 96 86
224 112 203 107 96 86
224 113 202 108 96 85
225 112 202 108 97 86
224 114 200 109 96 84
226 112 200 109 97 85
226 112 201 109 97 85
226 113 200 109 97 85
227 112 200 109 97 86
224 112 204 106 95 86
224 112 205 106 95 85
224 112 206 100 91 83
224 112 207 103 93 84
224 119 200 102 88 78
225 121 192 113 96 80
225 121 193 111 95 79
224 121 195 113 97 79
225 120 194 113 96 80
225 120 195 113 96 79
225 121 194 113 96 78
225 121 195 113 96 79
224 123 193 115 95 71
225 122 192 114 97 80
225 122 193 114 96 78
225 123 192 116 96 74
225 123 193 115 95 73
224 122 194 113 95 74
224 122 195 108 92 74
224 123 194 110 93 75
224 123 195 106 87 67
225 122 194 113 95 77
226 120 192 112 96 81
226 120 193 112 96 80
226 121 192 113 96 80
226 121 193 112 96 80
227 120 192 112 96 81
226 120 194 112 96 80
224 120 196 114 97 79
224 120 197 117 100 82
224 121 196 114 96 77
224 121 197 117 101 86
225 120 196 113 97 79
224 120 198 120 103 85
224 120 199 114 96 78
224 121 198 123 102 80
224 121 199 119 95 64
224 122 196 110 94 76
224 122 197 118 99 75
224 123 196 110 88 58
224 123 197 116 89 48
224 122 198 123 97 64
224 122 199 119 89 43
224 123 198 119 87 34
224 123 199 120 81 10
224 124 192 119 93 62
224 124 193 123 100 70
224 125 192 129 103 67
224 125 193 129 98 46
225 124 192 118 96 67
224 124 194 116 92 58
224 124 195 112 80 36
224 125 194 128 86 23
224 125 195 128 74 11
224 126 192 125 92 35
224 126 193 131 82 9
225 127 192 129 81 4
225 127 193 134 75 0
224 126 194 134 68 4
224 126 195 135 58 4
225 127 194 137 69 0
225 127 195 137 64 0
224 124 196 113 76 21
224 124 197 118 74 2
224 125 196 129 69 7
224 125 197 130 64 0
224 124 198 123 73 3
224 124 199 126 70 0
224 125 198 130 64 0
224 125 199 131 62 0
224 126 196 135 61 1
224 126 197 134 63 0
224 127 196 137 63 0
224 127 197 136 66 0
225 127 196 139 65 0
224 126 198 131 62 0
224 126 199 132 61 0
224 127 198 133 67 0
224 127 199 133 65 0
224 120 200 107 89 68
224 120 201 107 85 58
224 121 200 113 86 47
224 121 201 110 79 23
224 120 202 107 81 45
224 121 202 111 74 7
224 122 200 115 81 15
224 122 201 116 73 2
224 123 200 118 77 5
224 123 201 123 64 1
225 123 200 122 72 0
225 123 201 124 64 1
224 122 202 121 69 0
224 122 203 127 68 0
224 123 202 129 63 0
224 123 203 134 64 0
224 123 204 136 63 0
224 124 200 129 64 1
224 124 201 130 61 1
224 125 200 133 58 3
224 125 201 134 59 1
225 124 200 127 64 1
224 124 202 134 62 0
224 124 203 140 63 0
224 125 202 137 63 0
224 125 203 140 64 0
224 126 200 135 60 1
224 126 201 136 61 0
224 127 200 134 64 0
224 127 201 135 65 0
224 126 202 137 65 0
224 126 203 141 66 0
224 127 202 138 68 0
224 127 203 141 68 0
224 124 204 140 64 0
224 125 204 142 65 0
224 126 204 142 66 0
224 126 205 142 60 0
224 127 204 144 64 0
224 127 205 144 60 0
224 127 206 144 59 0
232 113 195 109 96 84
233 113 195 109 96 84
232 115 193 110 97 84
233 115 192 110 97 84
233 115 193 110 97 84
232 114 194 109 96 84
232 114 195 109 96 84
232 115 194 110 96 84
233 114 194 109 96 84
233 115 194 109 96 85
234 112 195 108 95 84
234 113 194 109 96 84
234 113 195 108 96 84
235 112 195 108 95 84
235 113 194 109 96 84
235 113 195 108 95 84
234 114 193 109 96 85
234 115 192 110 96 84
234 115 193 109 96 84
235 114 193 109 96 84
235 115 192 110 96 84
234 114 194 109 96 84
235 114 194 109 96 84
232 112 196 109 96 84
232 112 197 109 96 84
232 113 196 109 96 84
233 112 196 109 96 84
233 112 197 109 96 84
233 113 196 109 96 84
234 112 196 108 95 84
234 112 197 108 96 84
235 112 196 107 95 83
232 116 192 110 97 84
232 116 193 110 97 84
233 116 192 110 97 84
234 116 192 110 97 84
236 112 195 107 95 83
236 113 194 108 95 84
236 113 195 108 95 84
237 112 195 107 94 83
237 113 194 108 95 83
237 113 195 107 94 83
236 114 193 109 96 84
236 115 192 109 96 84
237 114 193 109 95 84
237 115 192 109 96 84
236 114 194 109 96 84
237 114 194 108 95 84
238 112 195 106 93 82
238 113 194 107 94 83
238 113 195 106 94 83
239 112 195 105 93 82
239 113 194 106 94 82
239 113 195 106 93 82
238 114 192 108 95 83
238 114 193 108 95 83
238 115 192 109 95 83
239 114 192 108 95 82
239 114 193 108 94 82
239 115 192 109 95 82
238 114 194 108 95 83
239 114 194 107 94 82
236 112 196 107 95 83
237 112 196 106 94 83
238 112 196 105 93 82
239 112 196 105 92 81
