ply
format ascii 1.0
comment Version 2, Copyright 2017, 8i Labs, Inc.
comment frame_to_world_scale 0.179523
comment frame_to_world_translation -45.2095 7.18301 -54.3561
comment width 1023
element vertex 310
property float x
property float y
property float z
property uchar red
property uchar green
property uchar blue
end_header
224 128 208 147 60 0
224 128 209 148 62 0
224 129 208 148 54 0
224 129 209 148 59 0
225 129 208 144 55 1
225 129 209 144 64 0
224 129 210 143 67 0
224 129 211 138 69 4
225 130 208 136 68 29
225 130 209 132 74 38
224 130 210 128 73 31
224 130 211 123 78 58
225 130 210 125 77 49
225 130 211 116 81 69
225 131 210 109 87 84
225 131 211 103 95 98
226 130 208 130 68 36
226 131 208 111 84 79
226 131 209 109 90 86
226 131 210 101 97 102
224 129 212 134 69 33
224 130 212 120 80 72
224 130 213 117 82 79
224 131 212 107 94 97
224 131 213 104 99 103
225 131 212 104 100 104
225 131 213 102 104 109
224 130 214 110 87 87
224 131 214 101 102 106
224 131 215 106 106 108
226 132 208 102 101 107
226 132 209 99 100 108
227 132 208 104 104 109
227 132 209 106 110 117
227 133 208 111 113 117
227 133 209 114 114 117
226 132 210 101 107 115
226 132 211 106 112 119
226 133 211 116 112 116
227 132 210 103 110 118
227 133 210 114 111 116
227 133 211 119 99 106
225 132 212 104 109 115
225 132 213 108 109 113
224 132 214 109 111 114
224 132 215 114 111 113
224 133 215 121 110 111
225 132 214 113 110 112
225 132 215 117 112 113
225 133 214 119 104 107
225 133 215 117 95 98
225 134 215 116 94 90
226 132 212 112 113 117
226 132 213 111 110 112
226 133 212 119 110 113
226 133 213 120 101 104
227 133 212 120 90 97
227 133 213 118 83 90
226 133 214 120 96 101
226 133 215 119 88 97
227 134 212 119 68 82
227 134 213 114 67 79
226 134 214 113 79 88
226 134 215 111 78 87
226 135 215 100 71 79
227 134 214 110 67 80
227 135 214 111 76 85
227 135 215 109 80 89
228 133 208 116 114 116
228 133 209 117 111 109
228 133 210 120 98 105
228 134 208 104 97 101
228 134 209 107 88 95
229 135 208 82 62 77
229 135 209 86 55 77
228 134 210 115 77 92
228 134 211 118 67 87
228 135 211 112 68 88
229 135 210 93 57 79
229 135 211 105 70 88
228 134 212 118 62 81
228 135 212 110 69 84
228 135 213 109 71 82
229 135 212 108 77 91
228 135 214 103 77 81
224 132 216 116 112 112
224 132 217 117 112 111
224 133 216 120 108 108
224 133 217 119 108 107
225 133 216 115 94 94
224 133 218 120 108 106
224 133 219 119 104 101
224 134 217 120 99 99
225 134 216 117 92 92
225 134 217 118 91 93
225 135 216 115 87 91
225 135 217 119 94 95
224 134 218 120 102 101
224 134 219 119 97 94
224 135 218 121 100 98
224 135 219 124 100 95
225 135 218 120 99 97
226 135 216 112 84 88
224 135 220 125 90 86
224 135 221 126 89 83
227 136 215 112 78 91
227 137 215 114 77 92
229 136 208 75 48 71
229 136 209 76 50 75
229 136 210 77 60 79
229 136 211 81 66 82
230 136 208 78 56 79
230 136 209 78 65 83
230 137 208 72 58 82
230 137 209 70 65 85
231 137 208 58 56 81
231 137 209 54 61 83
230 136 210 76 70 84
230 137 210 71 73 94
230 137 211 72 78 97
231 137 210 55 63 89
231 138 208 62 73 91
231 138 209 56 74 94
230 138 211 55 77 101
231 138 210 54 77 101
231 138 211 58 82 106
231 139 210 36 71 98
231 139 211 40 77 102
228 136 213 104 85 90
229 136 212 90 74 86
229 136 213 96 80 90
229 137 212 82 81 96
229 137 213 88 78 95
228 136 214 108 80 87
228 136 215 112 78 90
228 137 214 114 85 98
228 137 215 112 81 98
229 137 214 99 80 97
229 137 215 101 76 94
228 138 215 105 83 97
229 138 214 75 76 94
229 138 215 91 82 96
229 139 215 64 78 91
230 137 212 70 78 99
230 137 213 73 77 96
230 138 212 52 77 100
230 138 213 53 74 96
230 139 213 59 87 109
231 138 212 59 85 108
231 139 212 47 82 107
231 139 213 46 81 106
230 138 214 53 73 92
230 139 214 55 82 103
230 139 215 59 83 102
229 140 215 59 79 96
231 140 212 32 74 101
231 140 213 37 75 102
231 141 213 49 72 102
230 140 214 44 77 101
230 140 215 51 79 102
230 141 215 52 78 104
231 140 214 42 75 101
231 141 214 49 70 100
231 141 215 51 71 101
231 142 214 51 74 101
231 142 215 48 71 99
231 143 215 53 74 101
225 136 217 113 95 95
224 136 219 122 100 94
224 137 219 121 100 94
225 136 218 114 99 97
225 136 219 119 100 96
225 137 218 112 99 97
225 137 219 119 104 100
225 138 219 118 102 101
226 136 216 112 84 94
226 136 217 112 88 94
226 137 217 111 89 97
227 136 216 111 80 96
227 137 216 112 79 96
227 137 217 108 80 93
226 137 218 107 95 97
226 137 219 113 102 100
227 138 217 107 87 93
226 138 218 109 93 94
226 138 219 113 98 99
226 139 219 116 101 100
227 138 218 109 90 93
227 139 218 106 86 85
227 139 219 109 92 91
224 136 220 127 98 92
224 136 221 130 98 90
224 137 220 123 96 92
224 137 221 125 92 87
225 137 220 124 103 99
224 136 222 128 94 85
224 136 223 128 86 76
224 137 222 126 90 86
224 137 223 130 89 87
224 138 221 129 94 91
225 138 220 122 101 101
225 138 221 125 96 94
225 139 220 118 104 105
225 139 221 115 100 98
224 138 222 131 91 91
224 138 223 132 81 85
224 139 223 130 88 91
225 139 222 121 94 95
225 139 223 124 89 93
226 139 220 118 105 103
227 140 219 114 91 93
227 141 219 114 87 93
224 140 223 122 76 82
225 140 222 121 97 98
225 140 223 122 82 89
225 141 223 121 89 93
226 140 220 117 103 96
226 140 221 118 105 100
226 141 221 115 100 95
227 140 220 113 95 91
227 141 220 113 92 90
227 141 221 115 96 89
226 140 222 118 102 99
226 141 222 115 101 95
226 141 223 113 92 91
227 141 222 116 102 92
227 142 221 120 91 91
226 142 222 118 99 96
226 142 223 119 94 96
226 143 223 122 97 98
227 142 222 119 96 95
227 143 222 123 96 96
227 143 223 122 100 98
228 137 216 110 85 100
228 138 216 101 82 92
228 138 217 100 84 89
228 139 216 93 89 92
228 139 217 96 87 89
229 139 216 80 83 88
228 139 218 102 88 89
228 140 217 89 85 94
229 140 216 64 83 98
229 140 217 78 85 97
229 141 216 56 81 103
229 141 217 75 83 102
228 140 218 100 85 97
228 140 219 109 83 95
228 141 218 102 81 102
228 141 219 114 79 99
229 141 218 93 80 102
229 141 219 109 81 103
228 142 219 122 79 97
229 142 218 95 74 96
229 142 219 112 77 95
229 143 219 112 80 85
230 141 216 52 81 103
230 141 217 68 84 101
230 142 216 49 77 95
230 142 217 67 80 94
230 143 217 73 78 90
231 142 216 51 73 94
231 143 216 65 75 98
231 143 217 68 74 90
230 142 218 86 76 92
230 143 218 89 78 88
230 143 219 103 72 82
228 141 220 114 88 93
228 142 220 119 89 91
228 142 221 118 93 92
228 143 220 120 96 90
228 143 221 122 97 93
229 143 220 117 84 79
228 143 222 122 96 92
232 139 208 47 74 95
232 139 209 48 78 100
232 139 210 38 75 100
232 139 211 29 72 99
232 140 208 59 84 106
232 140 209 60 87 109
233 140 208 57 84 107
233 140 209 60 87 110
233 141 208 33 75 103
233 141 209 30 73 102
232 140 210 60 87 108
232 140 211 48 81 105
232 141 210 50 79 102
232 141 211 46 77 101
233 141 210 37 75 99
233 142 209 36 79 108
232 142 211 45 77 103
233 142 210 41 78 105
233 142 211 40 76 103
233 143 210 33 76 107
233 143 211 26 71 102
234 142 208 52 89 116
234 142 209 37 81 110
234 143 208 54 92 121
234 143 209 47 88 116
234 143 210 47 85 114
232 140 212 51 78 104
232 141 212 49 74 103
232 141 213 47 71 101
232 142 212 45 76 103
232 142 213 50 77 104
232 143 212 27 71 100
232 143 213 30 71 99
233 143 212 26 72 101
232 142 214 50 77 103
232 143 214 34 72 99
232 143 215 40 71 99
