ply
format ascii 1.0
comment Version 2, Copyright 2017, 8i Labs, Inc.
comment frame_to_world_scale 0.179523
comment frame_to_world_translation -45.2095 7.18301 -54.3561
comment width 1023
element vertex 146
property float x
property float y
property float z
property uchar red
property uchar green
property uchar blue
end_header
241 160 209 127 87 66
241 161 209 123 77 61
240 160 210 126 76 64
240 160 211 127 78 64
240 161 210 127 73 68
240 161 211 127 70 66
241 160 210 128 87 68
241 161 210 124 75 63
241 162 209 123 73 64
241 163 209 120 71 64
240 162 211 124 66 63
240 163 211 127 68 67
241 162 210 122 66 61
241 163 210 124 68 66
242 160 208 129 86 66
242 161 208 130 83 70
242 161 209 125 79 64
242 162 208 126 77 66
242 162 209 123 74 64
242 163 208 123 76 66
242 163 209 121 72 63
240 160 212 128 78 65
240 161 212 129 73 70
240 162 212 126 65 65
240 163 212 128 70 68
241 164 209 117 67 60
240 164 211 127 66 65
240 165 211 124 64 62
241 164 210 120 61 60
241 164 211 125 61 61
241 165 210 121 62 62
241 165 211 123 64 64
241 166 210 125 63 71
241 166 211 125 68 74
241 167 210 122 67 67
241 167 211 122 69 68
242 164 208 120 68 62
242 164 209 119 67 60
242 165 208 121 58 60
242 165 209 120 61 60
242 166 208 124 61 64
242 166 209 125 65 67
242 167 209 123 61 63
243 166 208 123 56 61
243 167 208 124 56 64
242 166 210 126 65 69
242 167 210 124 65 65
240 164 212 128 69 66
240 164 213 128 70 68
240 165 212 124 70 65
240 165 213 124 70 64
240 166 212 123 72 70
240 166 213 121 73 68
240 167 213 119 66 68
241 166 212 124 72 72
241 167 212 121 69 69
240 166 214 116 68 64
240 167 214 113 58 62
241 168 210 119 60 61
241 168 211 119 63 64
241 169 211 116 56 60
241 170 211 112 43 54
242 168 209 125 55 67
242 169 209 123 39 63
243 168 208 126 46 67
243 168 209 125 48 67
243 169 208 124 29 65
243 169 209 124 35 65
242 168 210 123 57 65
242 169 210 120 43 62
242 169 211 116 53 60
243 170 208 123 40 69
243 170 209 123 39 67
243 171 209 121 48 68
242 170 210 118 35 62
242 170 211 113 42 57
242 171 210 117 41 64
242 171 211 112 37 61
243 170 210 121 40 66
243 171 210 119 45 65
240 168 213 119 65 67
240 169 213 117 62 66
241 168 212 121 71 69
241 168 213 120 68 68
241 169 212 117 62 63
241 169 213 118 64 67
240 168 214 115 61 63
240 168 215 110 57 58
240 169 214 115 58 62
240 169 215 111 59 60
240 170 213 115 57 63
241 170 212 113 51 59
241 170 213 115 57 64
241 171 212 110 41 58
241 171 213 110 46 60
240 170 214 114 57 64
240 170 215 110 58 60
240 171 214 113 56 66
240 171 215 111 60 64
243 172 209 119 50 65
242 172 210 114 39 64
242 172 211 111 36 64
242 173 211 111 39 66
243 172 210 117 47 63
243 173 210 116 49 65
243 173 211 112 40 69
242 174 211 108 40 67
243 174 210 112 41 63
243 174 211 109 43 70
243 175 210 108 38 63
243 175 211 104 40 66
241 172 212 109 43 61
241 172 213 109 46 63
241 173 213 105 40 60
240 172 214 109 51 65
240 172 215 108 56 63
240 173 214 104 43 60
240 173 215 103 49 61
241 173 214 102 36 58
241 174 213 103 43 62
241 175 213 101 49 64
240 174 214 99 38 57
240 174 215 96 39 54
240 175 214 100 50 65
240 175 215 97 46 60
241 174 214 101 40 60
241 175 214 101 50 65
242 172 212 109 39 61
242 173 212 107 41 62
242 174 212 104 41 63
242 175 212 101 45 63
244 170 208 123 40 70
244 171 208 122 48 69
244 172 208 120 43 65
244 172 209 120 51 67
244 173 208 119 37 62
244 173 209 118 44 63
245 173 208 119 33 62
244 174 208 118 32 61
244 174 209 117 39 63
244 175 209 117 52 70
245 174 208 119 36 65
245 175 208 120 53 72
245 175 209 117 55 72
244 174 210 113 36 58
244 175 210 112 45 63
