ply
format ascii 1.0
comment Version 2, Copyright 2017, 8i Labs, Inc.
comment frame_to_world_scale 0.179523
comment frame_to_world_translation -45.2095 7.18301 -54.3561
comment width 1023
element vertex 122
property float x
property float y
property float z
property uchar red
property uchar green
property uchar blue
end_header
255 176 144 131 80 74
255 176 145 129 73 69
255 177 144 129 76 70
255 177 145 131 77 73
255 176 146 130 73 67
255 176 147 130 76 67
255 177 146 137 88 81
255 177 147 140 95 84
255 178 144 138 90 83
255 178 145 137 87 81
255 179 144 129 75 65
255 179 145 129 69 62
255 178 146 136 86 81
255 178 147 134 84 78
255 179 146 128 68 65
255 179 147 125 68 68
255 178 148 127 76 71
255 178 149 118 72 77
255 179 148 120 69 73
255 179 149 112 69 80
255 178 150 117 77 84
255 179 150 105 79 92
255 180 144 134 85 73
255 180 145 136 84 77
255 181 144 140 102 86
255 181 145 138 96 86
255 180 146 134 83 78
255 180 147 130 81 81
255 181 146 134 91 86
255 181 147 131 90 90
255 182 144 135 101 79
255 182 145 130 93 76
255 183 144 132 101 77
255 183 145 125 95 78
255 182 146 119 78 73
255 182 147 114 75 77
255 183 146 117 89 81
255 183 147 107 81 83
255 180 148 123 79 86
255 180 149 110 76 88
255 181 148 124 85 93
255 181 149 113 84 96
255 180 150 103 81 93
255 181 150 105 87 97
255 182 148 110 77 88
255 182 149 102 78 93
255 183 148 100 81 93
255 183 149 99 86 100
255 182 150 98 83 97
255 183 150 95 84 99
255 176 152 124 78 86
255 176 153 118 81 90
255 177 153 115 82 93
255 176 154 110 83 96
255 176 155 101 82 98
255 177 154 106 82 98
255 177 155 100 84 102
255 178 153 102 74 90
255 178 154 96 74 93
255 178 155 91 75 97
255 176 156 97 83 101
255 176 157 96 83 102
255 177 156 96 83 103
255 177 157 88 75 95
255 176 158 97 83 101
255 176 159 97 79 98
255 177 158 90 77 94
255 177 159 89 71 89
255 178 159 99 83 98
255 184 144 131 104 83
255 184 145 124 102 89
255 185 144 127 104 90
255 185 145 119 102 97
255 184 146 114 98 93
255 184 147 108 96 99
255 185 146 109 98 98
255 185 147 104 96 102
255 186 144 111 97 91
255 186 145 103 97 98
255 187 144 107 99 102
255 187 145 103 101 108
255 186 146 99 99 105
255 186 147 97 99 107
255 187 146 101 104 113
255 187 147 103 107 116
255 184 148 103 94 101
255 184 149 99 93 104
255 185 148 98 92 102
255 185 149 91 87 100
255 186 148 99 101 108
255 186 149 94 95 104
255 187 148 103 107 115
255 187 149 103 106 115
253 189 144 101 102 110
253 189 145 98 100 110
253 191 144 95 101 113
253 190 146 98 102 114
253 191 147 97 100 108
255 188 144 102 100 106
255 188 145 98 102 111
255 189 144 99 102 112
255 189 145 93 99 111
255 188 146 97 102 113
255 188 147 98 103 113
255 189 146 94 99 111
255 189 147 95 100 111
255 190 144 97 103 116
255 190 145 97 103 116
255 191 144 94 101 113
255 191 145 94 101 113
255 190 146 98 102 114
255 190 147 98 101 112
255 191 146 96 102 113
255 191 147 100 103 111
253 191 148 100 103 112
255 188 148 99 103 112
255 188 149 97 101 109
255 189 148 96 100 111
255 189 149 98 101 111
255 190 148 99 101 110
255 190 149 99 101 110
255 191 148 99 102 111
