ply
format ascii 1.0
comment Version 2, Copyright 2017, 8i Labs, Inc.
comment frame_to_world_scale 0.179523
comment frame_to_world_translation -45.2095 7.18301 -54.3561
comment width 1023
element vertex 379
property float x
property float y
property float z
property uchar red
property uchar green
property uchar blue
end_header
240 161 32 125 111 99
241 161 32 127 111 101
241 161 33 128 113 102
241 161 35 126 112 101
240 162 32 126 110 98
240 162 33 128 113 99
241 162 33 128 113 101
240 162 34 128 113 100
240 162 35 127 113 100
241 162 34 128 113 101
241 162 35 127 113 100
242 161 32 129 113 104
242 161 33 129 113 103
243 160 32 129 114 104
243 161 32 129 113 104
243 161 33 128 113 103
242 161 34 128 114 102
242 161 35 125 112 101
243 160 34 126 112 102
243 160 35 125 111 101
243 161 34 127 113 102
242 162 34 128 113 101
240 161 37 120 108 98
241 160 37 122 109 99
241 161 36 124 111 99
241 161 37 121 109 99
240 160 38 121 108 97
240 160 39 123 109 97
240 161 38 121 109 99
240 161 39 121 108 98
241 160 38 122 109 98
241 160 39 122 108 96
240 162 36 125 111 99
240 162 37 121 109 98
242 160 36 124 111 100
242 160 37 123 109 99
242 161 36 125 112 101
243 160 36 125 111 101
244 160 32 130 115 104
244 160 33 128 113 103
244 161 32 129 114 104
245 160 32 130 115 104
245 160 33 128 113 102
244 160 34 127 112 102
240 160 40 122 108 95
247 171 34 120 94 90
247 171 35 116 96 94
247 170 37 116 87 81
247 171 36 113 92 90
247 171 37 109 87 82
247 171 38 110 86 79
247 172 33 127 100 97
247 173 32 128 101 99
247 173 33 126 103 101
247 172 34 128 95 92
247 172 35 118 98 94
247 173 34 125 97 92
247 173 35 122 90 81
246 174 33 127 85 72
246 175 32 127 93 82
246 175 33 128 82 73
247 174 32 133 102 100
247 174 33 129 98 92
247 175 32 127 93 81
246 174 34 117 69 62
246 174 35 111 62 57
246 175 34 115 61 56
246 175 35 110 57 53
247 174 34 123 91 85
247 174 35 119 87 80
247 172 36 117 90 83
247 172 37 111 86 78
247 173 36 116 88 80
247 173 37 115 85 77
247 172 38 101 83 78
247 172 39 96 72 68
247 173 38 97 78 75
247 173 39 93 72 73
246 174 36 107 63 56
246 174 37 101 64 61
246 175 36 107 59 52
246 175 37 96 58 59
247 174 36 104 68 64
247 174 37 98 67 63
246 175 38 87 59 63
247 174 38 90 57 59
247 174 39 87 58 62
247 175 38 89 57 61
247 175 39 91 60 64
251 163 35 127 65 34
249 167 32 135 68 37
249 167 33 133 68 38
249 166 34 129 79 57
249 166 35 124 84 61
249 167 34 131 72 41
249 167 35 125 73 34
250 165 33 141 94 74
251 164 32 139 79 52
251 164 33 144 78 40
251 165 32 142 85 60
251 165 33 134 85 53
250 164 35 132 76 55
250 165 34 132 76 54
250 165 35 127 75 56
251 164 34 135 71 38
251 164 35 137 67 36
251 165 34 132 83 53
250 166 32 141 73 30
250 166 33 137 74 41
250 167 32 136 68 35
251 166 32 136 78 33
250 166 34 133 79 53
250 166 35 129 82 62
249 166 36 125 79 58
249 166 37 124 76 55
249 167 36 115 78 47
249 167 37 106 90 81
249 166 38 122 76 58
249 167 38 103 84 78
249 167 39 100 73 66
250 165 36 125 77 60
250 165 37 129 74 52
251 164 36 130 70 48
251 164 37 127 71 53
251 165 37 127 71 47
250 165 38 129 71 48
250 165 39 120 70 55
251 164 38 120 65 48
251 165 38 123 70 52
251 165 39 118 69 54
250 166 36 129 81 62
250 166 37 128 77 56
250 166 38 121 71 54
250 166 39 115 68 55
250 167 39 102 67 56
252 163 32 147 81 52
252 163 33 140 76 34
253 162 32 141 83 60
253 162 33 127 74 46
253 163 32 142 83 59
252 163 34 136 72 33
252 163 35 130 63 32
253 162 34 133 73 36
253 162 35 127 65 29
253 163 34 135 75 34
253 163 35 125 58 31
254 161 32 135 79 59
254 161 33 130 76 51
255 160 32 127 79 59
255 160 33 127 80 50
254 160 34 116 71 35
254 160 35 124 70 34
254 161 34 128 73 42
254 161 35 119 70 32
255 160 34 127 80 40
255 160 35 116 75 41
254 162 32 141 84 63
254 162 33 122 73 56
254 162 34 128 74 36
252 163 36 131 56 31
252 163 37 125 55 38
253 162 36 123 61 39
253 162 37 120 62 36
253 163 37 121 57 40
253 163 38 117 61 43
253 163 39 113 68 51
254 160 36 108 64 33
254 161 36 117 67 34
255 160 36 108 70 46
255 160 37 113 77 54
255 161 37 111 68 42
255 161 38 111 67 41
255 161 39 109 68 45
254 162 36 118 64 32
254 162 37 115 61 36
255 162 37 110 66 36
254 162 38 114 60 42
254 162 39 109 60 45
254 163 38 112 62 44
254 163 39 113 66 52
255 162 38 111 64 40
255 162 39 111 63 46
252 164 32 140 78 44
252 164 33 142 84 48
252 164 34 137 67 33
252 164 37 126 61 47
252 164 38 123 63 46
252 164 39 121 72 59
253 164 39 122 76 61
249 167 40 96 76 69
251 165 40 121 68 59
251 165 41 117 61 53
250 166 40 107 66 53
250 167 40 100 76 68
250 167 41 98 85 78
251 166 40 110 63 52
251 166 41 107 70 54
251 167 41 102 77 64
250 167 42 94 94 95
251 166 42 91 74 65
251 167 42 96 98 102
251 167 43 91 84 85
254 163 40 116 73 67
254 163 41 128 75 69
255 162 40 110 67 57
255 163 40 114 70 63
255 163 41 120 69 61
252 164 40 121 73 66
252 165 40 123 71 64
252 165 41 125 70 69
253 164 40 123 76 70
253 164 41 126 76 70
253 165 40 126 77 68
253 165 41 124 73 69
252 165 42 102 79 75
253 164 42 123 76 68
253 165 42 102 79 78
253 165 43 93 82 82
252 166 41 115 65 52
252 166 42 100 69 56
252 166 43 90 78 76
252 167 43 79 77 80
253 166 42 89 78 78
253 166 43 88 83 84
253 167 43 77 77 83
254 164 41 125 72 68
254 164 42 114 75 72
254 165 42 92 76 77
255 164 42 113 74 73
255 165 42 92 74 78
254 166 42 88 78 79
254 166 43 75 77 82
254 167 43 78 76 82
255 166 42 75 75 81
255 166 43 70 76 84
255 167 43 85 77 81
249 168 32 132 71 43
249 168 33 130 70 44
249 169 32 132 74 50
249 169 33 126 78 56
248 169 34 119 87 64
248 169 35 115 90 71
249 168 34 127 79 56
249 168 35 118 87 68
249 169 34 124 84 60
248 170 32 131 80 59
248 170 33 129 85 66
248 171 32 132 84 65
248 171 33 129 90 77
249 170 32 128 78 58
249 170 33 127 82 58
248 170 34 124 89 74
248 170 35 118 91 84
248 171 34 124 94 86
248 171 35 118 93 90
248 168 36 114 92 74
248 168 37 104 92 86
248 169 36 110 91 82
248 169 37 106 91 84
249 168 36 110 89 73
249 168 37 104 88 72
248 168 38 95 90 89
248 169 38 101 93 91
248 169 39 97 98 101
249 168 38 95 87 83
249 168 39 97 89 88
249 169 39 98 99 104
248 170 36 113 90 85
248 170 37 112 88 84
248 170 38 115 92 89
248 170 39 104 99 102
248 171 38 115 86 80
248 171 39 96 79 76
248 172 32 134 96 89
248 172 33 130 92 83
248 173 32 131 102 98
248 172 39 88 59 62
248 173 39 92 58 69
248 174 39 93 61 66
248 169 40 101 102 106
249 168 40 97 93 92
249 168 41 98 95 95
249 169 40 99 98 102
249 169 41 94 94 98
249 169 42 83 84 90
248 170 40 93 91 95
248 170 41 79 75 79
248 171 40 87 72 73
248 171 41 80 63 73
249 170 41 81 81 87
249 171 41 75 65 74
249 170 42 69 68 76
249 171 42 73 56 68
250 168 41 94 91 90
250 168 42 91 93 97
250 168 43 81 83 90
250 169 42 77 80 88
250 169 43 73 75 84
251 168 43 78 83 91
251 169 43 66 69 79
250 170 42 68 64 74
250 170 43 65 58 71
250 171 42 70 53 65
250 171 43 70 56 64
251 171 43 70 54 63
251 168 44 69 77 88
251 169 44 67 61 72
251 170 44 72 52 65
251 171 44 70 55 62
248 172 40 87 66 71
248 172 41 77 54 70
248 173 40 84 56 64
248 173 41 73 56 66
249 172 41 74 59 68
249 173 41 69 55 59
249 172 42 70 53 61
249 173 42 68 54 57
248 174 40 84 56 60
248 175 40 82 61 66
249 174 41 71 53 59
249 175 41 69 54 62
250 172 42 69 55 60
250 172 43 68 56 62
250 173 42 71 55 60
250 173 43 70 54 60
251 172 43 70 52 61
251 173 43 73 51 61
250 175 41 60 56 66
250 174 42 69 55 61
250 175 42 59 55 63
251 174 42 65 57 64
251 174 43 63 58 67
251 175 42 59 57 66
253 168 43 76 76 84
254 168 43 78 70 76
254 169 43 70 64 76
255 168 43 77 64 72
255 169 43 73 58 63
255 170 43 77 56 59
255 171 43 79 59 58
252 168 44 72 70 79
252 169 44 68 55 66
253 168 44 72 67 77
253 169 44 65 59 70
252 170 44 70 52 61
252 171 44 74 57 62
253 170 44 68 54 60
253 171 44 73 55 61
254 168 44 79 69 73
254 169 44 66 58 70
255 169 44 74 56 62
254 170 44 71 55 62
254 171 44 68 51 58
255 170 44 78 57 61
255 171 44 71 54 58
252 172 43 73 52 61
252 173 43 70 59 66
253 172 43 71 50 58
253 173 43 70 52 57
252 174 42 60 58 67
252 174 43 65 58 64
252 175 42 61 57 68
253 174 42 64 57 65
253 174 43 66 55 60
253 175 42 63 58 68
254 172 43 70 46 54
254 173 43 71 45 49
255 172 43 73 48 54
255 173 42 77 45 49
255 173 43 74 43 46
255 175 41 61 47 54
254 174 42 59 48 57
254 174 43 62 48 55
254 175 42 60 49 58
255 174 42 70 50 55
255 175 42 56 45 53
252 172 44 76 56 63
253 172 44 71 51 59
254 172 44 66 45 55
