ply
format ascii 1.0
comment Version 2, Copyright 2017, 8i Labs, Inc.
comment frame_to_world_scale 0.179523
comment frame_to_world_translation -45.2095 7.18301 -54.3561
comment width 1023
element vertex 258
property float x
property float y
property float z
property uchar red
property uchar green
property uchar blue
end_header
243 176 210 104 42 63
243 176 211 100 37 63
243 177 211 98 39 62
243 178 211 95 47 68
243 179 211 88 47 67
241 176 213 97 47 62
241 177 213 95 48 61
240 176 214 96 46 63
240 176 215 96 47 62
240 177 214 96 45 63
240 177 215 94 44 61
241 176 214 97 47 63
241 177 214 96 47 63
241 178 213 92 44 57
240 178 214 96 49 64
240 178 215 95 43 61
240 179 215 93 37 58
241 178 214 94 44 60
241 179 214 93 39 57
242 176 212 97 42 60
242 176 213 97 47 61
242 177 212 94 41 58
242 177 213 94 45 59
242 178 212 93 44 58
242 178 213 91 45 57
242 179 212 87 40 61
242 179 213 91 43 58
243 178 212 93 46 63
243 179 212 87 41 62
243 180 211 89 45 64
240 180 215 92 44 57
240 181 215 91 52 61
241 180 214 93 43 55
241 180 215 93 45 56
241 181 214 92 47 57
241 181 215 93 53 62
240 182 215 92 60 71
241 182 215 92 57 72
241 183 215 87 56 75
242 180 213 89 39 54
242 181 213 93 45 59
243 180 212 89 42 60
243 181 212 93 40 59
243 181 213 93 43 59
242 180 214 91 40 54
242 181 214 93 47 60
242 182 213 95 44 61
243 182 212 93 33 54
243 182 213 93 39 57
243 183 213 88 49 54
242 182 214 92 45 63
242 182 215 89 47 67
242 183 214 88 53 65
242 183 215 88 54 70
243 183 214 88 52 62
244 176 209 109 49 65
245 176 208 116 55 70
245 176 209 111 50 66
245 177 208 115 52 68
245 177 209 106 47 61
244 176 210 107 48 63
244 177 210 100 43 57
245 178 208 116 52 68
245 178 209 109 52 61
245 179 209 99 46 53
244 178 210 96 46 55
244 179 210 91 46 54
244 179 211 89 49 69
245 178 210 100 47 53
245 179 210 93 44 49
246 177 208 118 52 71
246 178 208 113 48 64
246 179 208 102 36 51
246 179 209 101 42 51
244 180 210 90 48 58
244 180 211 92 44 64
244 181 211 94 34 57
245 180 210 93 52 61
245 181 210 93 45 61
244 182 211 94 38 52
244 183 211 88 44 48
245 182 210 94 30 62
245 182 211 94 38 54
245 183 210 95 37 66
245 183 211 90 41 54
246 180 208 98 35 49
246 180 209 97 41 52
246 181 208 101 48 57
246 181 209 97 37 53
247 180 208 101 41 53
247 181 208 101 51 60
246 181 210 95 37 59
246 182 209 97 40 59
246 183 209 94 46 61
247 182 208 92 42 55
247 183 208 81 45 54
247 183 209 87 43 55
246 182 210 95 28 59
246 183 210 99 50 70
244 181 212 93 30 55
244 182 212 93 35 51
244 183 212 87 45 48
240 180 216 93 47 59
240 181 216 90 49 59
240 182 216 93 63 76
240 182 217 88 68 78
240 183 216 90 69 84
240 183 217 85 76 82
241 183 216 89 61 81
241 184 215 83 62 77
241 185 215 82 64 76
243 184 213 84 54 55
243 185 213 86 59 66
242 184 214 82 58 62
242 184 215 83 62 72
242 185 214 81 61 65
242 185 215 80 62 70
243 184 214 82 56 59
243 185 214 86 64 69
243 186 213 86 61 74
242 186 215 89 70 83
242 187 215 85 74 86
243 186 214 88 69 80
243 187 214 66 67 75
243 187 215 75 70 80
242 188 215 68 75 85
242 189 215 59 77 92
243 188 214 56 72 83
243 188 215 61 73 84
243 189 214 53 73 88
243 189 215 59 78 93
243 190 215 33 63 86
243 191 215 46 72 92
245 184 210 90 38 64
245 184 211 86 38 56
245 185 210 81 46 64
245 185 211 84 39 64
245 186 211 66 43 62
245 187 211 43 52 61
246 184 209 83 44 55
246 185 209 69 46 50
247 184 208 67 47 51
247 184 209 77 44 50
247 185 208 56 49 52
247 185 209 65 49 51
246 184 210 91 47 64
246 185 210 75 45 57
247 186 208 47 39 50
247 186 209 53 42 52
247 187 209 53 37 61
246 186 210 56 42 55
246 186 211 48 46 58
246 187 210 49 46 67
246 187 211 42 50 63
247 186 210 52 44 58
247 187 210 48 39 64
244 184 212 85 45 52
244 185 212 84 42 62
244 185 213 86 53 64
244 186 212 76 51 68
244 186 213 77 58 70
244 187 213 59 64 72
245 186 212 65 48 63
245 187 212 45 56 64
246 188 211 48 46 68
246 189 211 54 56 74
247 188 210 41 39 67
247 189 210 42 59 73
247 189 211 50 58 74
247 190 210 64 76 88
247 190 211 54 67 81
247 191 211 41 63 80
244 188 213 42 61 73
244 189 213 32 59 76
245 188 212 36 53 66
245 188 213 36 57 71
245 189 212 43 54 72
245 189 213 41 57 75
244 188 214 46 66 80
244 189 214 38 63 81
245 190 213 36 60 78
245 191 213 22 57 78
244 190 214 34 62 83
244 191 214 46 70 89
244 191 215 50 73 92
245 190 214 30 60 80
245 191 214 32 62 82
246 188 212 44 50 67
246 189 212 53 56 75
246 190 212 50 65 79
246 190 213 37 60 77
246 191 212 41 63 80
246 191 213 39 62 81
247 190 212 45 62 78
247 191 212 44 65 82
240 184 216 81 63 79
240 184 217 79 74 79
240 185 217 78 69 77
241 184 216 80 60 77
241 185 216 83 68 80
240 185 218 80 74 82
240 186 217 86 71 81
240 187 217 84 62 76
241 186 216 86 68 82
241 186 217 86 70 80
241 187 216 86 66 83
241 187 217 86 66 80
240 186 218 91 77 88
240 187 218 84 61 78
242 187 216 85 72 86
241 188 216 82 77 89
241 188 217 86 71 84
241 189 216 76 85 95
241 189 217 77 76 89
240 188 218 84 66 81
240 188 219 82 64 82
240 189 218 90 83 94
240 189 219 88 81 93
241 189 218 79 76 89
241 190 217 53 70 87
241 191 217 56 78 97
240 190 218 75 79 91
240 190 219 68 77 89
240 191 219 58 76 92
241 190 218 54 71 87
241 191 218 61 82 99
241 191 219 62 81 98
242 188 216 78 78 88
242 189 216 62 79 92
242 190 216 41 68 90
242 190 217 47 71 91
242 191 216 59 79 100
242 191 217 56 77 96
243 191 216 51 75 96
240 190 220 78 82 92
240 191 220 66 77 89
248 186 208 48 39 56
248 187 208 54 32 61
248 187 209 56 36 63
248 188 208 46 40 62
248 188 209 47 45 66
248 189 209 51 59 73
249 188 208 45 37 60
249 189 208 47 46 64
249 189 209 53 59 73
248 189 210 51 64 76
248 190 209 59 69 80
249 190 208 60 66 78
249 190 209 56 68 81
249 191 209 43 62 78
248 190 210 58 71 85
248 191 210 37 60 78
248 191 211 38 62 79
249 190 210 53 70 85
249 191 210 35 60 78
250 190 208 59 64 75
250 191 208 49 58 72
250 191 209 45 62 78
