ply
format ascii 1.0
comment Version 2, Copyright 2017, 8i Labs, Inc.
comment frame_to_world_scale 0.179523
comment frame_to_world_translation -45.2095 7.18301 -54.3561
comment width 1023
element vertex 297
property float x
property float y
property float z
property uchar red
property uchar green
property uchar blue
end_header
247 304 160 121 117 119
247 304 161 116 120 129
247 305 160 123 124 130
247 305 161 109 119 132
247 304 162 97 112 129
247 304 163 85 106 127
247 305 162 90 109 129
247 305 163 81 105 128
247 306 160 116 122 132
247 306 161 99 114 131
247 307 160 111 120 132
247 307 161 92 110 129
247 306 162 83 106 128
247 306 163 79 106 130
247 307 162 80 104 128
247 307 163 79 106 130
247 304 164 80 104 127
247 304 165 82 107 130
247 305 164 82 106 129
247 305 165 85 108 131
246 305 166 89 111 132
246 305 167 87 108 130
247 304 166 86 109 132
247 304 167 86 108 130
247 305 166 88 110 132
247 305 167 86 109 130
246 306 165 88 110 131
246 307 164 84 108 131
246 307 165 88 109 131
247 306 164 83 107 130
247 306 165 86 109 131
247 307 164 81 107 131
246 306 166 89 110 131
246 306 167 88 109 129
246 307 166 88 108 129
246 307 167 86 106 126
246 308 160 102 115 131
246 308 161 85 106 126
246 309 160 104 117 133
246 309 161 84 105 126
247 308 160 107 117 131
247 308 161 88 108 127
246 308 162 77 103 127
246 308 163 80 106 130
246 309 162 77 102 126
246 309 163 82 106 129
247 308 162 78 104 128
246 310 160 104 117 133
246 310 161 88 107 126
246 311 160 105 117 131
246 311 161 92 109 127
246 310 162 81 104 126
246 310 163 92 111 131
246 311 162 97 113 132
246 311 163 105 119 136
245 310 167 115 122 132
245 311 166 117 123 135
245 311 167 125 129 137
246 308 164 85 108 131
246 308 165 90 110 130
246 309 164 89 110 131
246 309 165 94 112 131
246 308 166 90 109 128
246 308 167 89 107 125
246 309 166 95 111 128
246 309 167 96 110 126
246 310 164 97 114 133
246 310 165 101 116 133
246 311 164 106 119 136
246 311 165 107 119 135
246 310 166 105 116 130
246 310 167 105 115 129
246 311 166 110 120 133
245 307 171 129 132 140
246 304 168 83 106 128
246 304 169 85 105 126
246 305 168 85 106 128
246 305 169 89 107 126
247 304 168 83 106 128
246 304 170 93 108 125
246 304 171 106 115 127
246 305 170 101 112 127
246 305 171 114 120 131
246 306 168 85 106 126
246 306 169 94 109 126
246 307 168 88 105 123
246 307 169 104 114 128
246 306 170 112 120 132
246 306 171 124 128 137
246 307 170 122 127 137
246 307 171 129 132 141
245 305 173 126 129 136
245 304 174 127 129 136
245 304 175 125 129 138
245 305 174 125 129 137
245 305 175 124 129 138
245 306 172 131 134 142
245 306 173 128 132 140
245 307 172 127 131 140
245 307 173 120 127 137
245 306 174 123 129 139
245 306 175 118 126 138
245 307 174 115 124 137
245 307 175 110 121 136
246 304 172 116 121 129
246 304 173 120 122 129
246 305 172 124 127 135
246 305 173 124 127 134
246 304 174 123 125 133
246 306 172 130 132 140
246 306 173 130 132 139
245 309 169 120 125 134
245 308 170 128 131 140
245 308 171 126 130 139
245 309 170 127 130 139
245 309 171 123 127 136
245 310 168 119 124 134
245 310 169 126 129 137
245 311 168 130 132 139
245 311 169 130 133 139
245 310 170 126 129 137
245 310 171 120 125 134
245 311 170 126 130 138
245 311 171 119 125 135
246 308 168 94 108 124
246 308 169 111 119 131
246 309 168 104 114 127
246 309 169 113 120 131
246 308 170 126 130 138
245 308 172 119 124 135
245 308 173 110 119 132
245 309 172 111 119 131
245 309 173 101 113 128
244 309 174 105 119 136
244 309 175 105 119 137
245 308 174 108 119 134
245 308 175 107 121 137
245 309 174 104 118 134
245 309 175 107 121 138
244 310 173 98 112 129
244 311 173 101 114 129
245 310 172 110 118 130
245 310 173 100 113 128
245 311 172 110 118 131
245 311 173 103 113 127
244 310 174 101 116 133
244 310 175 100 115 132
244 311 174 103 117 133
244 311 175 99 113 130
245 313 160 105 116 130
245 313 161 113 122 136
245 313 162 119 127 140
245 313 163 115 125 139
245 314 160 104 116 130
245 314 161 115 124 138
245 315 160 106 118 133
245 315 161 114 124 138
245 314 162 117 126 139
245 314 163 114 123 136
245 315 162 116 125 138
245 315 163 116 124 136
246 312 160 103 115 129
246 312 161 101 114 130
246 313 160 104 115 129
246 313 161 110 119 133
246 312 162 110 122 137
246 312 163 115 125 140
245 312 164 112 122 136
245 312 165 113 122 136
245 313 164 114 123 136
245 313 165 117 124 135
245 312 166 122 128 138
245 312 167 129 132 139
245 313 166 124 128 138
245 313 167 126 129 137
245 314 164 116 123 135
245 314 165 121 126 135
245 315 164 120 126 136
245 315 165 122 126 135
244 315 167 119 124 133
245 314 166 120 124 132
245 314 167 119 122 131
245 315 166 120 124 132
245 315 167 119 123 132
246 312 164 111 122 137
245 316 160 107 118 133
245 316 161 114 124 138
245 317 160 108 120 135
245 317 161 114 123 138
245 316 162 116 125 138
245 316 163 118 126 138
245 317 162 116 125 138
245 317 163 121 129 140
244 318 161 116 125 138
244 319 160 109 120 135
244 319 161 117 125 138
245 318 160 109 120 136
245 318 161 113 123 137
245 319 160 107 119 134
244 318 162 120 127 139
244 318 163 124 130 142
244 319 162 123 129 141
244 319 163 122 129 140
245 318 162 117 126 139
244 317 164 127 132 143
244 317 165 123 129 139
245 316 164 124 129 139
245 316 165 126 130 139
245 317 164 127 132 142
245 317 165 127 131 141
244 316 166 122 126 135
244 316 167 119 124 134
244 317 166 118 124 134
244 317 167 109 118 131
245 316 166 124 128 136
244 318 164 123 130 141
244 318 165 110 120 132
244 319 164 111 120 134
244 319 165 97 111 127
244 318 166 102 113 128
244 318 167 97 111 127
244 319 166 90 108 126
244 319 167 89 108 127
243 313 175 95 105 118
243 315 173 84 103 122
243 314 174 91 107 124
243 314 175 94 105 118
243 315 174 87 104 121
243 315 175 102 110 122
243 317 171 87 108 129
243 318 170 85 109 132
243 318 171 86 109 132
243 319 170 85 109 133
243 319 171 84 109 133
243 316 172 83 105 126
243 316 173 79 101 121
243 317 172 86 106 127
243 317 173 86 105 125
243 316 174 88 103 120
243 316 175 107 115 127
243 317 174 94 108 124
243 317 175 103 113 127
243 318 172 86 108 129
243 318 173 87 107 127
243 319 172 83 107 130
243 319 173 86 108 130
243 318 174 93 110 127
243 318 175 96 111 128
243 319 174 91 110 130
243 319 175 93 111 130
245 312 168 129 131 138
245 312 169 129 131 138
245 313 168 125 127 135
245 313 169 124 129 137
244 313 171 109 120 134
245 312 170 124 129 138
245 312 171 117 124 134
245 313 170 119 126 137
245 313 171 114 122 135
244 314 169 114 121 132
244 315 168 118 124 133
244 315 169 109 119 131
245 314 168 121 125 133
245 314 169 119 125 135
244 314 170 107 118 131
244 314 171 101 115 131
244 315 170 98 112 128
244 315 171 92 110 128
244 312 172 108 117 130
244 312 173 105 117 131
244 313 172 105 117 133
244 313 173 105 119 135
245 312 172 111 120 132
244 312 174 108 120 135
244 312 175 101 113 128
244 313 174 103 117 134
244 313 175 98 110 124
244 314 172 97 113 130
244 314 173 97 114 132
244 315 172 88 107 127
244 315 173 88 107 126
244 314 174 95 110 128
244 316 168 116 123 134
244 316 169 105 116 130
244 317 168 108 118 132
244 317 169 97 112 130
244 316 170 91 108 126
244 316 171 85 105 125
244 317 170 86 106 126
244 317 171 84 106 127
244 318 168 96 112 130
244 318 169 90 110 131
244 319 168 90 109 131
244 319 169 86 109 132
244 318 170 85 108 131
244 319 170 85 109 133
244 316 172 84 105 126
