ply
format ascii 1.0
comment Version 2, Copyright 2017, 8i Labs, Inc.
comment frame_to_world_scale 0.179523
comment frame_to_world_translation -45.2095 7.18301 -54.3561
comment width 1023
element vertex 353
property float x
property float y
property float z
property uchar red
property uchar green
property uchar blue
end_header
240 288 35 77 107 135
240 289 35 75 110 139
241 288 35 74 105 131
241 289 35 77 111 138
240 290 34 79 113 145
240 290 35 78 115 146
240 291 34 87 125 157
240 291 35 86 124 154
241 290 35 79 114 143
241 291 35 81 117 148
242 288 35 71 102 130
242 289 35 77 109 136
242 290 35 71 104 134
242 291 35 79 112 142
243 291 35 81 111 140
243 288 36 70 100 127
243 289 36 66 100 129
243 290 36 73 108 135
243 291 36 81 112 140
240 292 34 90 130 162
240 292 35 90 129 161
240 293 34 83 125 158
240 293 35 85 127 160
241 292 35 86 125 157
241 293 35 85 126 159
240 294 34 79 121 154
240 294 35 82 123 157
240 295 34 79 118 150
240 295 35 81 120 153
241 294 35 79 121 155
241 295 35 81 121 154
242 292 35 82 118 149
242 293 35 79 119 151
243 292 35 80 108 138
243 293 35 76 108 138
242 294 35 80 119 150
242 295 35 89 125 156
243 294 35 87 119 148
243 295 35 90 123 151
243 292 36 82 109 138
243 293 36 81 112 140
243 294 36 87 116 142
243 295 36 79 113 141
244 288 36 76 102 129
244 288 37 81 112 138
244 289 36 77 105 132
245 288 37 85 113 138
245 289 37 84 112 139
244 290 36 85 115 140
244 291 36 89 118 143
245 290 37 87 117 143
245 291 36 88 117 142
245 291 37 86 116 141
246 288 37 85 112 138
246 289 37 84 112 138
246 288 38 83 111 137
246 289 38 81 109 136
247 288 38 81 109 133
247 289 38 82 110 134
246 290 37 83 112 137
246 291 37 83 112 138
247 291 37 81 110 135
247 290 38 77 107 132
247 291 38 80 109 134
244 292 36 84 112 137
244 293 36 82 111 137
245 292 36 87 116 141
245 292 37 84 114 139
245 293 36 78 103 130
245 293 37 79 107 132
244 294 36 77 106 133
244 295 36 75 108 137
245 294 36 75 100 128
245 294 37 82 108 133
245 295 36 82 111 137
246 292 37 82 112 137
246 293 37 82 107 132
247 292 37 85 114 140
247 293 37 88 112 137
247 292 38 84 112 137
247 293 38 89 111 137
246 294 37 83 107 131
246 295 37 86 112 136
247 294 37 87 110 136
247 295 37 85 112 136
240 296 34 86 123 154
240 296 35 86 124 156
240 297 34 89 125 156
240 297 35 91 127 158
241 296 35 84 125 158
241 297 35 88 126 159
240 298 35 93 125 152
240 299 35 82 96 111
241 298 35 92 125 153
241 299 35 86 104 120
242 296 35 81 123 156
242 297 35 86 125 158
243 296 35 78 119 151
242 298 35 90 121 150
242 299 35 93 110 126
243 296 36 75 114 145
243 297 36 87 124 154
243 298 36 89 120 147
243 299 36 92 109 126
240 300 35 84 44 37
240 301 35 97 30 38
241 300 35 93 58 44
241 301 35 99 11 31
240 302 35 110 78 69
240 303 35 153 145 140
241 302 35 103 57 54
241 303 35 136 126 120
242 300 35 92 69 64
242 301 35 92 34 29
241 302 36 102 54 50
241 303 36 121 106 103
242 300 36 90 78 82
242 301 36 91 17 26
243 300 36 86 82 89
243 301 36 95 51 44
242 302 36 103 54 50
242 303 36 119 81 88
243 302 36 114 59 59
243 303 36 121 53 65
244 296 36 77 113 142
244 297 36 81 115 144
245 296 36 81 110 136
245 297 36 75 104 130
244 298 36 84 115 141
244 299 36 87 108 126
245 298 36 81 108 133
245 299 36 93 114 132
246 296 36 83 110 134
246 296 37 84 110 133
246 297 36 77 101 126
246 297 37 81 106 129
247 296 37 82 109 133
247 297 37 83 110 133
246 298 36 83 107 130
246 298 37 80 106 128
246 299 36 96 117 136
246 299 37 87 112 132
247 298 37 76 101 126
247 299 37 76 106 133
244 300 36 86 94 103
244 301 36 101 67 66
245 300 36 90 104 118
245 300 37 96 78 102
245 301 36 98 61 77
245 301 37 109 60 82
244 302 36 121 47 52
244 303 36 138 53 62
244 303 37 155 62 68
245 302 36 118 40 50
245 302 37 125 46 50
245 303 37 145 45 46
246 300 36 83 108 127
246 300 37 87 102 122
246 301 37 110 91 104
247 300 37 90 118 141
247 301 37 106 105 116
247 301 38 107 111 125
246 302 37 124 65 60
246 303 37 147 47 45
246 303 38 148 50 47
247 302 38 118 71 77
247 303 38 143 63 71
248 288 38 81 108 131
248 288 39 80 105 128
248 289 38 78 106 129
248 289 39 77 103 127
249 288 39 81 102 126
249 289 39 79 100 125
248 290 38 75 102 127
248 290 39 74 100 126
248 291 38 81 107 133
249 290 39 81 108 132
249 291 39 80 103 129
250 289 39 82 105 130
250 290 39 85 110 133
250 291 39 83 103 126
248 293 37 89 110 137
248 292 38 83 109 136
248 293 38 83 108 134
249 292 38 77 102 128
249 292 39 78 100 125
249 293 38 77 103 128
249 293 39 77 103 126
248 294 37 84 107 134
248 295 37 82 109 135
248 294 38 83 105 132
248 295 38 83 110 135
249 294 38 78 105 130
249 295 38 80 107 132
250 292 39 79 98 121
250 293 39 81 105 127
251 292 39 79 101 122
251 293 39 75 98 121
250 294 38 77 103 127
250 294 39 77 103 126
250 295 38 77 102 127
251 294 39 74 99 123
251 295 38 77 101 127
251 295 39 76 102 128
252 294 39 78 105 129
252 295 39 77 104 129
250 288 40 84 107 131
250 289 40 86 109 132
251 288 40 84 108 131
251 288 41 81 104 127
251 289 40 85 108 131
250 290 40 86 110 132
251 290 40 86 108 131
251 291 40 82 106 127
251 292 40 78 100 122
251 293 40 76 92 115
252 288 41 79 102 126
252 289 40 86 106 130
252 289 41 83 103 127
253 288 41 78 100 127
253 289 41 83 107 131
253 288 42 77 103 127
253 289 42 80 105 128
252 290 40 86 108 132
252 291 40 81 105 128
253 290 40 84 106 130
253 290 41 85 107 131
253 291 40 80 106 130
253 291 41 80 105 128
254 288 42 77 104 127
254 289 42 80 101 127
255 288 42 74 99 123
255 288 43 72 98 122
255 289 42 81 103 129
254 290 41 83 106 132
254 291 41 79 106 131
255 291 41 79 105 133
254 290 42 84 104 131
255 290 42 85 106 134
255 291 42 79 104 131
252 292 40 77 95 118
252 293 40 76 95 120
253 292 40 80 97 120
253 292 41 80 100 123
253 293 40 82 100 123
252 294 40 78 104 128
253 294 40 81 106 130
253 295 40 76 104 129
254 292 41 78 104 129
254 293 40 82 105 128
254 293 41 80 103 128
255 292 41 75 102 129
255 293 41 76 103 130
255 292 42 73 102 129
254 294 40 81 107 132
254 295 40 80 109 134
255 294 40 80 108 134
255 294 41 78 107 134
255 295 40 81 112 137
255 295 41 82 112 138
248 296 37 81 109 133
248 297 37 82 107 132
249 296 38 81 107 132
249 297 38 81 108 133
248 298 37 76 103 131
248 299 37 79 112 142
248 299 38 85 121 151
249 298 38 83 111 138
249 299 38 89 124 154
250 296 38 79 105 131
250 297 38 82 110 135
251 296 38 78 104 129
251 296 39 79 105 130
251 297 39 82 110 136
250 298 38 84 118 146
250 299 38 89 126 156
250 299 39 89 126 156
251 298 39 85 118 146
251 299 39 87 124 154
248 300 37 96 130 157
248 300 38 99 131 158
248 301 38 96 119 141
249 300 38 97 133 164
249 301 38 96 132 161
249 301 39 96 134 164
248 302 38 102 89 111
248 302 39 106 103 123
248 303 38 127 73 88
248 303 39 128 67 90
249 302 39 97 125 152
249 303 39 105 92 120
250 300 38 91 130 162
250 300 39 92 132 165
250 301 39 100 138 169
251 300 39 90 130 163
251 301 39 96 137 170
250 302 39 100 132 161
250 303 39 108 114 141
251 302 39 111 142 170
252 296 39 80 100 125
252 297 39 83 110 136
253 296 39 78 96 122
253 297 39 80 106 131
252 298 39 80 116 145
252 299 39 87 125 157
252 300 39 93 133 166
251 301 40 106 141 171
250 303 40 113 111 140
251 302 40 112 142 171
251 303 40 116 121 146
252 297 40 82 115 143
253 296 40 75 97 123
253 297 40 82 112 137
252 298 40 77 118 150
252 299 40 83 126 160
253 298 40 79 116 146
253 299 40 80 125 163
254 296 40 75 104 131
254 297 40 68 103 133
255 296 40 81 111 139
255 297 40 69 104 137
255 297 41 74 108 141
254 298 40 80 120 154
254 298 41 88 131 168
254 299 40 86 135 173
254 299 41 91 139 176
255 298 40 80 121 154
255 298 41 88 131 166
255 299 41 93 140 178
252 300 40 93 134 169
252 301 40 99 140 175
253 300 40 93 139 178
253 301 40 92 134 169
253 301 41 86 130 167
252 302 40 116 146 174
252 303 40 109 135 162
252 303 41 113 129 157
253 302 40 112 143 173
253 302 41 110 140 170
253 303 41 114 141 168
253 303 42 109 136 164
254 300 41 100 143 180
254 301 41 97 137 173
255 300 41 100 145 182
255 301 41 107 144 178
255 301 42 110 143 177
254 302 41 91 128 160
254 302 42 94 128 158
254 303 42 119 146 174
254 303 43 123 151 180
255 302 42 102 135 167
255 302 43 104 140 175
255 303 43 119 148 178
