ply
format ascii 1.0
comment Version 2, Copyright 2017, 8i Labs, Inc.
comment frame_to_world_scale 0.179523
comment frame_to_world_translation -45.2095 7.18301 -54.3561
comment width 1023
element vertex 354
property float x
property float y
property float z
property uchar red
property uchar green
property uchar blue
end_header
243 176 112 107 114 124
243 176 113 110 118 129
243 177 112 109 118 129
243 177 113 103 111 122
242 179 112 49 63 85
243 178 112 76 91 105
243 178 113 66 81 96
243 179 112 49 66 86
243 179 113 50 61 81
241 182 112 48 67 89
241 183 112 49 71 92
242 180 112 52 58 84
242 181 112 60 64 86
243 180 112 52 60 81
243 180 113 57 62 81
243 181 112 62 65 86
243 181 113 59 66 86
243 181 114 57 68 87
242 182 112 54 67 88
242 183 112 48 71 93
242 183 113 46 70 92
243 182 113 58 71 93
243 183 113 48 71 94
243 182 114 57 73 96
243 182 115 52 73 98
243 183 114 52 76 100
243 183 115 55 80 104
244 176 113 112 120 131
244 177 113 98 106 117
244 176 114 113 121 132
244 177 114 93 100 109
245 176 115 110 114 123
245 177 114 77 81 92
245 177 115 80 81 92
244 178 113 65 78 91
244 179 113 50 63 80
244 178 114 61 67 81
244 179 114 60 64 81
244 179 115 64 70 86
245 178 115 66 63 79
245 179 115 61 69 85
245 176 116 99 99 107
245 177 116 77 71 84
245 177 117 75 61 79
245 178 116 68 64 80
245 178 117 74 66 84
245 179 116 65 72 88
245 179 117 70 75 91
246 176 116 92 90 98
246 176 117 88 81 89
246 177 116 76 68 82
246 177 117 79 64 79
246 176 118 86 73 83
246 177 118 83 66 79
247 176 118 88 75 83
247 176 119 89 69 78
247 177 119 87 68 79
246 178 117 79 68 85
246 179 117 75 73 90
246 178 118 80 72 87
246 178 119 81 75 87
246 179 118 70 75 90
246 179 119 71 79 94
247 178 119 85 76 86
244 180 114 61 67 85
244 180 115 61 71 90
244 181 114 57 68 89
244 181 115 55 70 92
245 180 115 63 72 90
244 182 114 61 73 94
244 182 115 52 73 96
244 183 115 55 84 107
245 180 116 58 72 92
245 180 117 55 74 93
245 181 116 54 72 94
245 181 117 55 79 100
245 181 118 55 82 103
244 182 116 55 79 101
244 183 116 58 87 111
245 182 116 60 84 105
245 182 117 64 88 109
245 183 116 62 91 115
245 183 117 61 91 115
245 182 118 63 91 113
245 183 118 62 92 116
245 183 119 60 91 115
246 180 118 53 74 93
246 180 119 60 80 99
246 181 118 56 83 104
246 181 119 62 87 109
246 182 119 61 90 114
246 183 119 59 90 115
247 176 120 91 70 77
247 177 120 90 75 82
246 179 120 72 84 101
247 178 120 83 79 91
247 178 121 83 85 98
247 179 120 74 81 98
247 179 121 75 85 102
247 179 122 77 86 102
246 180 120 68 87 106
246 181 120 65 90 111
247 180 120 73 88 107
247 180 121 75 89 108
247 181 120 68 91 112
247 181 121 71 91 112
247 180 122 79 91 109
247 181 122 73 89 109
246 182 120 60 89 114
246 183 120 61 90 115
247 182 121 61 87 111
247 183 121 61 89 113
247 182 122 65 88 110
247 183 122 61 88 111
241 184 112 51 73 95
241 186 112 59 89 113
241 187 112 62 94 119
242 184 112 53 75 97
242 184 113 54 80 102
242 185 112 55 80 102
242 185 113 55 85 108
243 184 113 54 81 104
243 185 113 55 85 108
243 184 114 57 85 108
243 184 115 57 86 109
243 185 114 61 91 115
242 186 112 59 87 110
242 186 113 60 90 115
242 187 112 63 95 120
242 187 113 64 96 121
243 186 114 62 94 119
243 186 115 63 95 122
243 187 114 63 96 123
243 187 115 63 97 124
241 188 112 62 95 121
241 189 112 61 95 121
241 190 112 62 95 121
241 191 112 63 94 119
241 191 113 60 94 121
242 188 112 60 95 121
242 188 113 64 98 124
242 189 112 61 97 124
242 189 113 61 97 124
242 188 114 63 98 125
242 189 114 61 97 125
243 188 114 65 99 126
243 188 115 64 98 126
243 189 114 62 98 126
243 189 115 62 98 125
242 190 113 61 96 123
242 191 113 61 95 122
242 190 114 60 96 124
242 191 114 61 96 123
243 190 114 62 97 125
243 190 115 63 98 125
243 191 115 63 96 123
243 189 116 62 97 125
243 190 116 63 98 125
243 191 116 63 97 124
244 184 115 60 89 113
244 185 115 62 94 119
244 186 115 63 96 122
244 184 116 58 90 115
244 185 116 62 94 119
245 184 116 59 91 116
245 184 117 59 91 116
245 185 117 63 95 120
245 184 118 60 91 116
245 184 119 61 91 116
245 185 118 62 93 118
245 185 119 61 92 117
244 186 116 63 96 121
244 186 117 59 94 121
244 187 116 61 96 123
244 187 117 60 95 122
245 186 117 61 95 121
245 187 117 58 94 121
245 186 118 58 92 119
245 186 119 54 89 116
245 187 118 58 93 120
245 187 119 59 93 120
246 184 119 62 91 116
246 185 119 61 91 116
246 186 119 58 90 116
244 188 116 63 98 125
244 188 117 59 95 122
244 189 116 62 98 126
244 189 117 63 98 125
245 188 117 57 93 121
245 188 118 58 94 122
245 188 119 58 94 121
245 189 118 63 99 127
245 189 119 63 98 126
244 190 116 64 99 126
244 190 117 63 99 126
244 191 116 63 98 126
244 191 117 62 97 125
244 190 118 63 99 127
244 191 118 63 98 125
245 190 118 65 100 128
245 190 119 68 100 126
245 191 118 67 99 125
245 191 119 72 100 124
246 184 120 60 89 114
246 185 120 57 88 113
247 184 121 58 87 112
247 185 121 57 87 112
247 184 122 56 85 109
247 185 122 57 85 110
246 186 120 55 89 114
246 187 120 61 92 118
247 186 121 56 88 113
247 187 121 63 90 114
247 186 122 60 88 112
247 187 122 63 89 111
245 191 120 77 100 121
246 188 120 60 93 118
246 189 120 67 98 123
247 188 121 66 92 115
247 189 121 74 97 118
247 188 122 70 92 113
247 189 122 78 96 115
246 190 120 72 100 124
246 191 120 78 100 120
247 190 121 82 100 118
247 191 121 87 100 115
247 190 122 89 101 116
247 191 122 94 101 112
248 176 120 95 75 81
248 176 121 99 79 86
248 177 121 93 83 89
248 176 122 101 84 91
248 177 122 96 87 94
249 176 122 104 85 92
249 176 123 108 90 96
249 177 123 101 92 97
248 178 121 87 85 97
248 179 121 78 85 101
248 178 122 89 89 100
248 178 123 92 94 102
248 179 122 81 88 103
248 179 123 84 92 105
249 178 123 95 95 101
249 179 123 87 94 104
249 176 124 112 93 98
249 176 125 115 95 98
249 177 124 107 93 98
249 177 125 109 93 97
249 178 124 98 95 101
249 178 125 100 94 99
249 179 124 90 95 105
249 179 125 91 93 103
250 176 125 114 94 97
250 177 125 109 93 96
250 176 126 115 95 94
250 176 127 119 96 95
250 177 126 111 95 95
250 177 127 116 97 96
251 176 127 120 96 95
251 177 127 118 98 96
250 178 126 104 95 96
250 178 127 111 95 95
250 179 126 98 93 100
250 179 127 105 94 98
248 180 122 79 90 108
248 180 123 81 92 107
248 181 122 73 88 108
248 181 123 72 87 107
248 182 123 69 88 109
248 183 123 61 85 108
248 181 124 74 88 107
249 180 124 83 92 107
249 180 125 86 91 105
249 181 124 76 89 107
249 181 125 83 92 108
249 180 126 92 93 106
249 181 126 88 94 108
248 182 124 71 88 108
248 183 124 64 84 107
249 182 124 74 90 109
249 182 125 77 91 109
249 183 124 69 86 108
249 183 125 70 87 108
249 182 126 80 90 107
250 180 126 92 91 103
250 180 127 102 93 102
250 181 126 91 94 108
250 181 127 98 93 105
250 182 126 80 88 104
250 182 127 88 88 102
250 183 126 75 87 104
250 183 127 87 89 100
248 184 122 57 85 109
248 184 123 58 83 107
248 185 122 59 85 110
248 185 123 61 86 110
248 186 122 63 90 112
248 186 123 64 88 109
248 187 122 65 89 111
248 187 123 70 90 109
248 184 124 61 81 106
248 185 124 66 84 108
249 184 124 66 82 107
249 184 125 72 84 107
249 185 124 71 85 108
249 185 125 77 84 106
249 185 126 83 86 102
248 186 124 69 88 107
248 187 124 78 92 107
249 186 124 72 86 104
249 186 125 80 86 100
249 187 124 84 93 104
249 187 125 94 94 98
249 186 126 92 89 96
249 187 126 104 96 95
250 184 126 78 86 104
250 184 127 93 91 100
250 185 126 85 87 100
250 185 127 97 92 97
250 186 126 96 91 94
250 186 127 107 97 94
250 187 126 108 96 92
250 187 127 111 97 89
248 188 122 73 92 112
248 188 123 79 93 110
248 189 122 83 96 113
248 189 123 88 94 108
248 190 122 93 101 114
248 190 123 98 100 110
248 191 122 95 101 112
248 191 123 101 101 108
248 188 124 89 94 104
248 189 124 93 94 104
249 188 124 91 92 99
249 188 125 101 95 94
249 189 124 100 95 98
249 189 125 105 95 91
249 188 126 108 95 90
249 189 126 112 96 92
249 189 127 112 92 89
248 190 124 101 98 104
248 191 124 102 99 103
249 190 124 104 98 102
249 190 125 108 99 100
249 191 125 104 98 102
249 190 126 112 98 98
249 190 127 111 95 94
249 191 126 108 98 101
249 191 127 106 96 98
250 188 126 110 96 92
250 188 127 115 97 93
250 189 127 114 94 90
250 190 127 112 96 92
250 191 127 108 97 97
