ply
format ascii 1.0
comment Version 2, Copyright 2017, 8i Labs, Inc.
comment frame_to_world_scale 0.179523
comment frame_to_world_translation -45.2095 7.18301 -54.3561
comment width 1023
element vertex 301
property float x
property float y
property float z
property uchar red
property uchar green
property uchar blue
end_header
251 166 128 118 93 78
251 167 128 110 107 106
252 160 128 143 71 0
252 160 129 143 72 0
252 161 128 144 71 0
252 161 129 144 73 0
252 160 130 143 69 0
252 160 131 143 68 0
252 161 130 144 70 1
253 160 131 144 69 0
253 161 131 143 69 0
252 162 128 144 72 2
252 162 129 144 73 5
252 163 128 141 71 0
252 163 129 140 71 11
252 162 130 143 70 10
252 163 130 140 71 20
253 162 130 143 67 8
253 162 131 141 70 13
253 163 130 136 72 26
253 163 131 132 78 37
253 160 132 144 70 0
253 160 133 145 70 0
253 161 132 143 71 4
253 161 133 142 72 11
253 162 132 136 74 20
253 162 133 137 75 19
253 163 132 123 86 54
254 160 133 144 73 7
254 161 133 140 72 16
254 160 134 143 73 4
254 160 135 138 73 17
254 161 134 136 74 27
254 161 135 129 77 44
254 162 133 128 81 46
254 163 132 118 92 75
254 163 133 115 98 89
254 162 134 123 86 61
254 162 135 120 86 66
254 163 134 112 104 100
254 163 135 112 108 108
255 162 135 112 101 97
255 163 135 113 116 119
252 164 128 137 75 20
252 164 129 132 76 32
252 165 128 130 83 45
252 165 129 123 88 59
252 164 130 130 78 40
252 165 130 117 91 71
253 164 130 127 81 49
253 164 131 118 88 68
253 165 130 111 98 89
253 165 131 111 103 98
252 166 128 119 92 75
252 166 129 114 101 94
252 167 128 111 109 110
252 167 129 113 118 124
252 166 130 111 110 110
252 167 130 115 120 126
253 166 130 112 113 117
253 166 131 113 117 122
253 167 130 117 121 126
253 167 131 120 120 123
253 164 132 111 99 90
253 165 132 111 112 114
253 166 132 117 121 126
253 167 132 122 112 111
254 164 132 108 106 107
254 164 133 110 112 115
254 165 132 111 115 120
254 165 133 114 119 125
254 164 134 113 116 120
254 164 135 114 118 123
254 165 134 118 121 125
255 164 135 116 120 125
255 165 135 119 119 122
254 166 132 120 121 124
254 166 133 120 119 120
254 167 132 123 110 108
254 167 133 121 91 93
254 166 134 122 109 110
254 166 135 121 78 87
254 167 134 122 71 83
254 167 135 124 59 79
255 166 135 121 92 97
255 167 135 126 52 77
254 160 136 136 75 24
254 161 136 126 78 45
255 160 136 132 76 31
255 160 137 127 79 45
255 161 136 121 85 60
255 161 137 114 95 83
255 160 138 122 86 63
255 160 139 117 93 80
255 161 138 112 103 100
255 161 139 111 109 109
255 162 136 111 101 98
255 162 137 111 112 115
255 163 136 113 117 123
255 163 137 114 120 125
255 162 138 113 117 122
255 162 139 111 116 121
255 163 138 116 119 122
255 160 140 112 103 99
255 160 141 109 108 108
255 161 140 110 114 119
255 161 141 112 116 122
255 160 142 109 111 113
255 160 143 109 112 116
255 161 142 112 115 120
255 161 143 110 111 116
255 162 140 111 116 122
255 162 141 110 108 111
255 163 141 111 89 91
255 162 142 108 102 105
255 162 143 108 92 97
255 163 142 110 78 83
255 163 143 111 64 76
255 164 136 118 120 123
255 164 137 117 113 114
255 165 136 119 108 109
255 165 137 118 88 92
255 164 138 115 101 102
255 165 138 117 75 82
255 165 139 117 55 73
255 166 136 121 71 84
255 166 137 123 56 77
255 167 136 129 49 78
255 167 137 130 47 78
255 166 138 124 53 72
255 166 139 124 51 71
255 167 138 129 53 75
255 167 139 129 56 73
255 164 141 112 63 74
255 165 140 117 52 73
255 165 141 119 54 74
255 164 142 111 54 66
255 164 143 113 48 64
255 165 142 118 53 72
255 165 143 119 54 71
255 166 140 124 51 72
255 166 141 125 54 75
255 167 140 128 59 74
255 167 141 129 61 77
255 166 142 124 59 76
255 166 143 124 62 76
255 167 142 128 64 78
255 167 143 127 67 78
251 168 128 115 119 125
251 169 128 120 114 118
251 170 128 124 103 102
251 171 128 127 93 89
251 172 128 125 88 83
251 173 128 126 93 85
251 173 129 129 93 84
251 174 128 126 97 90
251 174 129 126 94 85
251 175 128 124 91 90
251 175 129 127 93 88
252 168 128 117 120 126
252 168 129 118 120 125
252 169 128 121 113 116
252 169 129 122 111 112
252 168 130 121 115 116
252 169 130 122 97 98
253 168 130 120 118 120
253 168 131 120 103 102
253 169 131 121 80 85
252 170 128 126 101 98
252 170 129 126 93 90
252 171 129 129 85 82
252 170 130 127 83 81
252 170 131 131 77 78
252 171 130 129 77 75
252 171 131 131 72 75
253 170 131 129 67 78
253 171 131 130 67 73
253 168 132 120 85 87
253 169 132 124 60 73
253 169 133 127 52 72
253 170 132 129 58 76
253 170 133 130 58 78
253 171 132 128 60 74
253 171 133 127 59 76
253 171 134 127 58 79
254 168 133 124 65 76
254 169 133 129 51 73
254 168 134 126 54 74
254 168 135 129 50 75
254 169 134 129 50 74
254 169 135 129 54 75
254 170 133 130 52 76
254 170 134 129 56 78
254 170 135 130 59 80
254 171 134 128 57 79
254 171 135 130 58 80
252 172 129 127 83 79
252 173 129 130 91 83
252 172 130 129 76 75
252 172 131 130 74 76
252 173 130 132 86 83
252 173 131 133 85 85
253 172 131 131 73 76
253 173 131 133 83 85
252 174 129 127 90 80
252 175 129 127 93 87
252 174 130 128 86 79
252 174 131 127 78 79
252 175 130 129 89 83
252 175 131 130 83 83
253 174 131 127 75 79
253 175 131 128 77 81
253 172 132 131 73 81
253 172 133 129 69 79
253 173 132 132 81 84
253 173 133 131 75 82
253 172 134 128 63 79
253 172 135 128 60 78
253 173 134 128 66 77
253 173 135 126 60 74
253 174 132 127 73 77
253 174 133 128 69 75
253 175 132 132 77 82
253 175 133 134 76 81
253 174 134 127 64 74
253 174 135 129 64 74
253 175 134 133 73 80
253 175 135 132 71 77
254 172 135 129 59 79
254 173 135 127 58 77
254 168 136 130 52 77
254 169 136 129 57 76
255 168 136 130 52 78
255 168 137 131 52 78
255 169 136 129 57 77
255 169 137 129 59 77
255 168 138 129 59 78
255 168 139 128 59 75
255 169 138 128 60 77
255 169 139 128 61 76
254 170 136 129 62 80
254 170 137 129 63 80
254 171 136 130 60 80
254 171 137 129 60 78
255 170 137 129 63 79
255 171 137 129 62 80
255 170 138 130 63 79
255 170 139 130 62 79
255 171 138 130 62 79
255 171 139 131 64 78
255 168 140 128 61 74
255 168 141 128 62 75
255 169 140 127 62 75
255 169 141 128 66 76
255 168 142 126 61 74
255 168 143 126 65 74
255 169 142 128 67 76
255 169 143 129 71 78
255 170 140 131 68 80
255 170 141 131 73 80
255 171 140 130 66 75
255 171 141 128 67 72
255 170 142 132 77 81
255 170 143 133 82 83
255 171 142 127 71 71
255 171 143 127 77 73
254 172 136 130 59 79
254 172 137 128 57 76
254 173 136 128 58 77
254 173 137 128 56 76
254 172 138 127 58 74
254 173 138 127 58 75
255 172 138 127 58 72
255 172 139 127 60 72
255 173 138 128 62 76
255 173 139 128 68 76
254 174 136 130 65 76
254 174 137 129 62 76
254 175 136 129 68 70
254 175 137 127 70 70
254 174 138 129 65 76
254 175 138 129 75 74
254 175 139 130 77 75
255 174 139 129 72 76
255 175 139 130 79 74
255 172 140 127 65 72
255 172 141 130 73 75
255 173 140 130 77 78
255 173 141 133 86 82
255 172 142 132 83 79
255 172 143 133 91 84
255 173 142 136 92 87
255 173 143 133 91 84
255 174 140 129 79 76
255 174 141 130 83 77
255 175 140 130 83 74
255 175 141 131 84 74
255 174 142 129 80 73
255 174 143 128 80 71
255 175 142 133 87 77
255 175 143 136 91 82
