ply
format ascii 1.0
comment Version 2, Copyright 2017, 8i Labs, Inc.
comment frame_to_world_scale 0.179523
comment frame_to_world_translation -45.2095 7.18301 -54.3561
comment width 1023
element vertex 429
property float x
property float y
property float z
property uchar red
property uchar green
property uchar blue
end_header
240 193 32 53 52 78
241 192 32 55 57 87
241 192 33 53 57 90
241 193 32 54 55 81
241 193 33 55 54 85
241 192 34 52 55 90
241 193 34 53 50 85
241 193 35 57 49 82
240 194 32 56 46 72
240 195 32 52 47 68
241 194 32 66 51 73
241 194 33 56 52 75
241 195 33 55 49 69
241 194 34 48 47 75
241 194 35 46 45 75
241 195 34 60 44 61
241 195 35 64 45 58
242 192 33 49 56 91
242 193 33 54 53 88
242 192 34 49 55 91
242 192 35 49 46 74
242 193 34 53 53 88
242 193 35 47 46 71
243 192 34 47 51 85
243 192 35 48 49 78
242 194 34 46 43 73
242 194 35 46 45 74
241 195 36 65 44 54
242 193 36 44 45 70
242 193 37 37 40 67
243 192 36 49 50 76
243 192 37 49 45 68
243 193 36 48 46 71
243 193 37 44 44 60
243 193 38 40 41 56
242 194 36 45 41 66
242 194 37 53 38 51
242 195 36 63 44 53
242 195 37 63 41 45
243 194 37 46 38 51
243 194 38 48 38 50
243 195 38 64 41 44
240 196 32 55 48 64
240 196 33 58 51 64
240 197 32 50 45 63
240 197 33 51 48 63
241 196 33 58 48 67
240 197 34 48 49 62
240 197 35 63 51 54
241 196 34 60 45 58
241 196 35 62 41 50
241 197 35 64 46 51
240 198 32 45 41 61
240 198 33 42 39 59
240 199 33 46 43 65
240 198 34 54 44 55
240 198 35 59 42 47
240 199 34 50 41 58
240 199 35 58 34 46
241 196 36 66 41 49
241 197 36 62 42 43
241 197 37 61 44 42
240 198 36 59 36 43
240 199 36 66 35 46
241 198 36 61 41 44
241 198 37 63 39 44
241 199 37 69 39 46
241 198 38 61 29 42
241 199 38 67 35 41
242 196 37 64 37 41
242 197 37 61 42 38
242 196 38 61 35 33
242 197 38 61 35 41
242 197 39 60 33 42
243 196 38 62 36 36
243 197 38 61 40 38
243 197 39 61 35 43
242 198 38 61 31 41
242 198 39 61 32 42
242 199 38 61 31 42
242 199 39 66 32 37
243 198 39 63 31 42
243 199 39 71 28 36
244 192 38 49 44 61
244 193 38 44 42 54
245 192 38 49 43 54
245 192 39 49 39 53
245 193 38 45 41 46
244 194 38 47 38 47
244 195 38 52 40 50
245 194 38 48 39 43
245 195 38 52 38 45
246 192 38 47 42 50
246 193 38 45 42 47
247 192 38 47 42 52
247 193 38 47 42 50
247 194 37 51 44 52
246 194 38 53 42 49
246 195 38 59 41 48
247 194 38 52 43 50
247 195 38 59 44 50
244 196 38 51 37 47
244 196 39 60 42 43
244 197 39 62 36 43
245 196 38 53 39 45
245 197 38 57 41 46
245 197 39 58 38 44
244 198 39 69 35 44
244 199 39 78 32 41
245 198 38 71 41 48
245 198 39 76 39 47
245 199 39 76 33 44
246 196 38 55 40 46
246 197 38 60 41 45
246 197 39 63 40 46
247 196 38 55 41 47
247 196 39 56 42 49
247 197 39 58 41 48
246 198 38 70 38 44
246 198 39 69 38 45
246 199 38 75 31 45
246 199 39 75 33 45
247 198 39 65 36 42
247 199 39 73 35 42
240 200 34 52 40 58
240 200 35 62 39 49
240 201 35 64 45 54
240 200 36 68 35 42
240 200 37 69 37 41
240 201 36 73 39 47
240 201 37 77 36 40
241 200 37 71 44 46
241 200 38 67 39 35
241 201 38 74 36 34
241 201 39 73 34 27
240 202 36 78 43 47
240 202 37 84 41 43
240 203 37 89 36 36
240 202 38 93 38 32
240 203 38 99 39 37
240 203 39 104 37 35
241 202 38 84 42 35
241 202 39 93 36 36
241 203 39 109 36 39
242 200 39 72 41 35
242 201 39 83 37 37
243 200 39 80 41 38
243 201 39 80 43 37
242 202 39 91 32 35
240 204 38 102 40 39
240 204 39 102 33 40
240 205 39 99 26 47
244 200 39 80 39 33
244 201 39 85 41 36
245 200 39 78 34 36
245 201 39 84 39 41
244 202 39 90 34 36
244 203 39 81 38 48
245 202 39 83 37 41
245 203 39 81 39 50
246 200 38 79 30 44
246 200 39 81 33 45
246 201 39 82 31 41
247 200 39 81 32 41
247 201 38 79 24 34
247 201 39 82 31 37
247 203 37 79 38 49
246 202 39 76 34 42
246 203 39 84 39 52
247 202 38 77 32 46
247 202 39 73 33 44
247 203 38 82 38 51
247 203 39 77 39 48
244 204 39 84 39 52
245 204 39 87 39 54
245 205 38 88 31 53
245 205 39 87 36 51
244 206 39 87 40 53
244 207 39 86 39 53
245 206 38 89 37 56
245 206 39 89 38 55
245 207 38 87 37 54
247 204 37 75 32 44
247 205 36 76 35 42
247 205 37 81 37 48
246 204 38 82 33 49
246 204 39 85 36 52
246 205 38 83 34 50
246 205 39 86 28 49
247 204 38 79 34 47
246 206 37 88 42 57
246 207 37 82 39 50
247 206 36 82 41 50
247 206 37 86 43 53
247 207 36 82 36 50
247 207 37 86 42 51
246 206 38 87 38 56
241 203 40 106 34 36
242 201 40 84 28 30
243 201 40 88 39 35
242 202 40 100 32 38
242 203 40 105 33 39
243 202 40 104 40 43
243 203 40 96 34 38
240 204 40 97 24 41
240 205 40 96 24 35
241 204 40 98 30 37
241 205 40 95 33 41
241 205 41 79 38 46
240 206 40 90 32 45
240 207 40 84 38 45
241 206 40 83 40 47
241 206 41 79 34 43
241 207 40 80 36 41
241 207 41 78 34 44
242 204 40 93 33 33
242 204 41 89 35 35
242 205 41 78 36 44
243 204 40 87 35 43
243 204 41 79 29 39
243 205 40 79 35 45
243 205 41 78 36 43
242 206 41 76 30 41
242 207 41 83 37 53
243 206 41 78 34 45
243 207 40 82 36 55
243 207 41 83 37 56
243 207 42 86 39 57
244 201 40 88 39 36
244 202 40 94 35 37
244 203 40 81 36 43
244 204 40 85 38 51
244 205 40 84 37 50
245 205 40 86 35 50
244 206 40 86 40 52
244 206 41 81 38 52
244 207 40 85 41 56
244 207 41 87 42 61
245 206 40 89 39 53
244 207 42 87 39 59
248 193 37 43 44 52
248 192 38 42 45 51
248 193 38 44 44 50
249 192 38 44 44 50
249 193 38 44 42 48
248 194 38 47 42 48
248 195 38 53 42 47
248 195 39 53 42 45
249 194 38 43 40 47
249 195 38 47 41 49
250 192 38 41 41 49
250 193 38 41 40 48
251 192 38 43 42 47
251 193 38 43 42 47
250 194 38 42 39 48
250 195 38 46 43 53
251 194 38 43 40 50
251 195 38 46 41 51
248 196 38 56 43 49
248 196 39 55 43 49
248 197 39 59 42 49
249 196 38 53 43 51
249 197 38 61 42 49
249 197 39 58 42 51
249 199 37 73 38 43
248 198 38 70 35 34
248 198 39 67 37 39
248 199 38 74 39 39
248 199 39 80 39 35
249 198 38 65 37 41
249 199 38 73 41 43
251 196 37 60 45 53
251 197 37 63 38 46
250 196 38 50 43 53
250 197 38 57 42 50
251 196 38 56 49 54
251 197 38 58 43 49
250 198 37 66 43 48
250 199 36 77 36 53
250 199 37 69 40 45
251 198 37 64 38 46
251 199 36 78 39 53
251 199 37 68 40 50
250 198 38 63 40 46
255 192 35 69 39 59
255 193 35 68 40 58
255 194 35 64 42 50
255 195 35 64 41 45
252 192 37 45 41 46
252 193 37 48 44 47
253 192 37 60 45 56
253 193 37 51 44 49
252 192 38 45 41 46
252 193 38 44 42 47
253 192 38 55 41 50
252 194 37 49 39 46
252 195 36 50 42 46
252 195 37 49 39 47
253 194 36 53 37 45
253 194 37 52 43 48
253 195 36 55 43 46
254 192 37 63 42 57
254 193 36 61 44 53
254 193 37 62 45 56
255 192 36 69 40 59
255 193 36 67 38 57
254 194 36 57 41 48
254 195 36 59 41 45
255 194 36 64 39 51
253 199 35 85 32 42
254 196 35 61 37 45
254 197 34 76 31 42
254 197 35 68 34 42
255 196 34 82 35 44
255 196 35 66 32 46
255 197 34 97 30 41
255 198 33 112 32 41
255 199 32 115 31 37
255 199 33 109 30 40
254 198 34 96 34 39
254 198 35 67 32 36
254 199 34 97 32 36
254 199 35 102 35 44
255 198 34 102 35 40
252 196 36 57 38 48
252 196 37 58 41 51
252 197 37 67 37 51
253 196 36 57 40 44
253 197 36 66 38 46
253 197 37 65 37 49
252 198 36 70 31 45
252 198 37 69 35 42
252 199 36 75 33 47
253 198 36 68 34 43
253 199 36 72 34 43
254 198 36 64 33 35
249 202 35 79 39 57
249 203 35 76 34 53
250 200 35 75 29 54
250 201 35 76 32 56
251 200 35 76 31 50
251 201 35 74 27 51
250 203 33 89 27 30
251 203 33 91 34 30
250 202 34 91 35 53
250 202 35 78 36 56
250 203 34 82 32 51
250 203 35 80 39 57
251 202 34 96 33 50
248 201 37 77 33 44
249 200 37 68 33 43
249 201 36 73 35 50
249 201 37 70 34 44
248 200 38 80 33 39
248 200 39 83 34 38
248 201 38 75 31 40
249 200 38 76 36 45
249 201 38 75 30 43
248 202 36 84 38 56
248 202 37 83 39 51
248 203 36 78 35 47
248 203 37 82 40 52
249 202 36 81 39 56
249 203 36 82 36 54
248 202 38 83 35 52
250 200 36 72 30 52
250 200 37 64 32 41
250 201 36 75 31 55
251 200 36 72 31 49
249 205 33 87 33 48
248 204 35 75 27 50
248 205 35 77 25 50
249 204 34 76 25 48
249 204 35 72 26 48
249 205 34 85 30 49
249 205 35 77 26 50
249 206 33 90 32 48
249 207 33 93 34 49
248 206 35 80 27 54
248 207 34 90 27 47
248 207 35 82 26 49
249 206 34 89 27 51
249 207 34 91 27 48
250 204 33 84 32 34
250 205 32 92 37 27
250 205 33 88 35 33
251 204 32 94 32 24
251 204 33 91 27 27
251 205 32 97 39 29
250 206 32 94 39 26
250 206 33 94 31 46
250 207 32 102 42 26
250 207 33 95 32 47
251 206 32 103 46 27
251 207 32 110 53 32
248 204 36 77 32 47
248 204 37 76 35 43
248 205 36 78 26 47
248 206 36 80 36 44
248 207 36 78 29 53
252 200 35 82 33 49
252 201 34 101 42 50
252 201 35 92 34 49
253 200 35 92 30 52
253 201 34 107 38 52
253 201 35 92 33 50
252 203 33 101 32 31
253 202 33 110 29 33
253 203 32 112 32 30
253 203 33 111 27 28
252 202 34 101 36 50
253 202 34 108 41 52
254 200 33 112 31 40
254 201 32 118 28 41
254 201 33 121 21 38
255 200 32 116 30 37
255 200 33 116 31 38
255 201 32 117 36 40
255 201 33 107 31 17
254 200 34 101 34 40
254 200 35 99 31 41
254 201 34 114 26 49
254 202 32 120 31 20
254 202 33 117 29 33
254 203 32 120 39 31
255 202 32 123 36 33
255 203 32 124 38 28
252 204 32 105 40 28
253 204 32 120 39 37
