ply
format ascii 1.0
comment Version 2, Copyright 2017, 8i Labs, Inc.
comment frame_to_world_scale 0.179523
comment frame_to_world_translation -45.2095 7.18301 -54.3561
comment width 1023
element vertex 186
property float x
property float y
property float z
property uchar red
property uchar green
property uchar blue
end_header
240 196 272 88 88 94
240 197 272 87 87 94
241 196 272 89 86 93
241 197 272 83 78 86
240 198 272 85 85 95
240 198 273 81 84 95
240 199 273 67 78 92
241 198 272 88 83 92
241 198 273 89 85 94
241 199 273 77 81 91
242 196 272 87 86 91
242 197 272 85 80 87
243 196 272 91 91 96
243 197 272 91 90 96
242 198 272 86 80 88
242 199 273 85 87 94
243 198 272 90 89 95
243 199 272 91 90 96
243 199 273 89 90 96
244 197 272 93 92 97
245 197 272 90 87 92
244 198 272 92 91 96
244 199 272 89 88 93
244 199 273 87 87 92
245 198 272 93 88 93
245 199 272 91 88 90
246 198 272 89 84 86
246 199 272 89 81 83
247 198 272 86 82 82
247 199 272 90 82 82
240 200 273 71 88 104
241 200 273 75 88 102
240 201 274 69 87 104
241 201 274 67 84 101
240 202 274 58 80 100
240 203 274 46 70 93
240 203 275 46 69 91
241 202 274 52 74 94
241 203 274 46 68 92
241 203 275 47 68 91
242 200 273 80 88 98
242 201 273 72 80 92
243 200 273 81 83 92
243 201 273 74 78 87
242 201 274 65 77 92
243 201 274 72 75 87
242 202 274 55 67 85
242 203 274 50 62 85
242 203 275 52 66 89
243 202 274 67 70 84
243 203 274 58 62 83
240 204 275 39 65 88
240 205 275 41 67 89
241 204 275 43 66 89
241 205 275 43 67 90
240 206 275 36 63 88
240 207 275 42 66 88
241 206 275 39 65 88
241 207 275 43 66 89
242 204 275 51 67 90
242 205 275 45 65 88
243 204 275 60 66 89
243 205 275 49 64 87
242 206 275 42 66 87
242 207 275 42 68 89
243 206 275 45 66 86
243 207 275 43 67 87
242 207 276 45 68 91
243 207 276 45 67 90
244 200 273 84 82 89
244 201 273 82 79 87
245 200 273 90 84 87
245 201 273 83 73 78
245 202 273 78 61 70
244 202 274 75 69 80
244 203 274 65 59 77
245 202 274 76 61 72
245 203 274 72 57 70
246 200 272 90 77 79
246 200 273 89 76 78
246 201 273 85 66 70
247 200 272 91 77 77
247 201 272 87 66 67
247 201 273 86 63 65
246 202 273 81 57 64
247 202 273 86 54 59
247 203 273 88 56 57
246 202 274 79 56 66
246 203 274 81 56 63
247 203 274 88 58 59
244 204 274 63 59 77
244 204 275 64 64 84
244 205 275 57 60 81
245 204 274 72 59 73
245 204 275 68 61 77
245 205 275 68 62 77
244 206 275 49 63 83
244 207 275 48 65 85
245 206 275 60 63 80
245 207 275 56 65 84
246 204 274 79 59 68
246 205 274 73 56 63
246 205 275 71 59 69
247 204 274 85 58 59
247 205 274 79 57 61
246 206 275 68 60 73
246 207 275 63 62 79
247 206 274 79 58 66
247 206 275 75 58 69
247 207 275 70 56 72
244 207 276 48 66 87
245 207 276 51 62 84
248 199 272 90 81 79
249 199 272 86 76 73
248 200 272 89 74 72
248 201 272 87 64 64
248 201 273 87 60 63
249 200 272 87 72 69
249 201 272 88 63 62
248 202 273 88 55 57
248 203 273 90 55 51
249 202 272 91 59 59
249 202 273 91 56 55
249 203 273 90 53 48
248 203 274 89 54 50
250 200 272 91 69 68
250 201 272 90 60 61
251 201 272 91 57 59
250 202 272 91 52 55
250 203 272 91 47 46
250 203 273 93 55 52
251 202 272 91 49 53
251 203 272 92 48 51
251 203 273 93 50 50
249 204 273 89 53 45
248 204 274 86 52 49
248 205 274 84 54 54
249 204 274 89 52 46
249 205 274 88 54 49
248 206 274 81 51 60
248 206 275 80 53 66
248 207 275 79 54 69
249 206 274 85 50 54
249 207 274 87 51 60
249 207 275 84 52 64
250 204 273 94 60 51
250 205 273 94 59 47
251 204 273 92 49 45
251 205 273 91 50 42
250 204 274 91 58 46
250 205 274 90 55 44
250 206 274 88 49 45
250 207 274 91 49 54
250 207 275 91 53 60
251 206 274 92 50 45
251 207 274 94 48 52
252 201 272 90 51 54
252 202 272 89 46 49
252 203 272 93 51 54
253 202 272 90 44 48
253 203 272 91 44 48
254 203 272 92 43 47
255 203 272 89 40 41
252 204 272 94 53 55
252 204 273 93 52 52
252 205 273 90 47 44
253 204 272 93 50 51
253 204 273 92 50 51
253 205 273 91 50 46
252 206 273 91 49 46
253 206 273 91 49 45
253 207 273 94 55 53
252 206 274 92 47 45
252 207 274 95 50 53
253 207 274 95 52 54
254 204 272 91 49 48
254 205 272 91 51 45
254 205 273 89 51 44
255 204 272 90 47 44
255 205 272 89 47 42
254 206 273 89 50 42
254 207 273 92 51 50
255 206 272 88 45 41
255 206 273 89 48 42
255 207 272 91 48 45
255 207 273 93 49 48
