ply
format ascii 1.0
comment Version 2, Copyright 2017, 8i Labs, Inc.
comment frame_to_world_scale 0.179523
comment frame_to_world_translation -45.2095 7.18301 -54.3561
comment width 1023
element vertex 68
property float x
property float y
property float z
property uchar red
property uchar green
property uchar blue
end_header
251 193 144 90 103 121
251 193 145 94 102 118
250 195 144 74 103 128
251 194 144 83 103 126
251 194 145 86 102 124
251 195 145 90 103 121
251 194 146 97 103 116
251 194 147 100 102 112
250 196 145 79 104 127
250 197 145 72 106 133
251 196 144 71 105 132
251 197 145 73 108 137
250 196 146 87 103 121
250 197 146 82 104 125
250 197 147 83 103 122
250 198 146 74 108 135
250 198 147 72 105 132
250 199 147 68 101 128
251 198 146 74 107 133
251 199 147 67 102 130
249 199 149 69 96 122
250 198 148 70 101 126
250 199 148 70 101 127
250 199 149 68 96 120
252 193 144 87 102 122
252 193 145 94 102 118
253 192 144 92 102 116
253 192 145 92 101 114
252 193 146 101 104 116
252 193 147 102 104 114
253 192 146 97 103 115
255 192 144 91 102 117
255 192 145 94 102 114
255 193 144 89 104 121
255 193 145 93 104 118
255 192 146 99 104 114
255 192 147 102 105 112
255 193 146 96 103 115
255 193 147 100 103 111
255 194 144 82 104 126
255 194 145 91 106 123
255 195 144 74 106 132
255 195 145 83 106 128
255 194 146 95 105 118
255 194 147 100 103 113
255 195 146 90 108 126
252 193 148 100 103 113
255 192 148 101 105 113
255 194 148 98 101 111
252 199 146 65 102 131
252 199 147 62 99 128
253 199 146 64 102 131
255 196 144 69 105 134
255 197 144 67 106 135
254 198 146 68 106 134
249 200 149 67 96 119
248 201 150 68 96 121
249 200 150 79 92 110
249 201 150 69 97 121
248 202 150 64 94 118
250 200 148 71 97 120
250 201 149 66 96 121
251 200 148 64 96 122
251 201 149 60 93 120
250 202 150 60 90 115
251 202 150 56 89 116
252 200 148 55 92 119
253 201 149 51 90 120
