ply
format ascii 1.0
comment Version 2, Copyright 2017, 8i Labs, Inc.
comment frame_to_world_scale 0.179523
comment frame_to_world_translation -45.2095 7.18301 -54.3561
comment width 1023
element vertex 301
property float x
property float y
property float z
property uchar red
property uchar green
property uchar blue
end_header
243 320 144 75 99 121
243 321 144 75 89 105
243 321 145 71 61 75
243 322 144 78 79 94
243 322 145 77 53 70
243 323 144 80 62 75
243 323 145 89 66 71
243 323 146 107 96 94
243 323 147 133 129 130
243 324 144 83 54 58
243 324 145 104 88 81
243 325 144 95 67 63
243 325 145 123 112 104
243 324 146 124 118 114
243 324 147 135 133 135
243 325 146 137 131 130
243 325 147 135 134 139
242 327 144 127 120 118
243 326 144 118 102 96
243 326 145 137 131 129
243 327 144 131 124 123
243 327 145 137 135 138
243 326 146 139 137 140
243 326 147 133 135 143
243 327 146 135 137 144
243 327 147 127 133 144
243 324 148 131 133 139
243 324 149 122 127 138
243 325 148 126 130 138
243 325 149 117 125 138
243 324 150 118 126 138
243 325 150 109 122 137
243 325 151 98 116 135
243 326 148 124 130 141
243 326 149 110 122 137
243 327 148 112 124 139
243 327 149 98 115 133
243 326 150 98 115 134
243 326 151 94 113 133
243 327 150 96 114 134
243 327 151 97 114 133
244 320 144 78 97 114
244 320 145 79 81 92
244 321 145 75 58 71
244 320 146 81 57 66
244 320 147 92 62 61
244 321 146 86 56 62
244 321 147 104 85 79
244 322 145 80 50 66
244 322 146 95 72 74
244 322 147 122 113 110
244 323 146 107 96 94
244 323 147 130 125 125
244 320 148 121 109 103
244 320 149 138 132 131
244 321 148 130 121 116
244 321 149 142 137 137
244 320 150 138 135 137
244 320 151 138 137 141
244 321 150 140 138 141
244 321 151 138 138 144
244 322 148 138 133 133
244 322 149 141 137 140
244 323 148 136 135 140
244 323 149 133 134 140
244 322 150 135 135 141
244 322 151 133 135 144
244 323 150 127 132 141
244 323 151 122 130 143
244 324 149 126 130 139
244 324 150 118 127 140
244 324 151 112 124 140
244 325 151 99 116 136
243 325 152 94 113 133
243 325 153 96 113 132
243 325 154 102 116 132
243 325 155 109 119 132
243 326 152 95 112 132
243 326 153 100 115 131
243 327 152 101 115 133
243 327 153 110 120 134
243 326 154 109 119 133
243 326 155 117 123 134
243 327 154 119 124 135
243 327 155 127 130 139
243 325 156 120 126 137
243 325 157 131 134 142
243 324 159 135 136 141
243 325 158 133 134 140
243 325 159 134 135 141
243 326 156 126 130 139
243 326 157 133 135 142
243 327 156 133 134 141
243 327 157 130 132 139
243 326 158 129 131 138
243 326 159 130 132 138
243 327 158 124 127 134
243 327 159 127 130 138
244 320 152 136 137 143
244 320 153 127 131 140
244 321 152 134 137 144
244 321 153 122 128 140
244 320 154 114 122 135
244 321 154 105 118 133
244 321 155 97 113 130
245 320 154 109 119 133
245 320 155 99 114 130
245 321 155 96 112 130
244 322 152 126 132 143
244 322 153 111 122 136
244 323 152 112 123 138
244 323 153 100 115 133
244 322 154 97 113 131
244 322 155 98 114 132
244 323 154 96 113 131
244 323 155 99 114 132
244 321 156 98 114 132
244 321 157 107 118 133
245 320 156 99 113 131
245 320 157 103 116 132
245 321 156 99 115 132
245 321 157 104 118 133
244 320 158 107 118 133
244 320 159 108 119 134
244 321 158 110 120 133
244 321 159 113 122 134
245 320 158 106 118 133
245 320 159 107 119 134
244 322 156 100 115 133
244 322 157 108 119 134
244 323 156 104 117 132
244 323 157 115 123 135
244 322 158 117 124 135
244 322 159 123 127 137
244 323 158 127 130 139
244 323 159 132 133 140
244 324 152 101 117 134
244 324 153 95 112 131
244 325 152 97 114 133
244 325 153 95 112 132
244 324 154 97 113 131
244 324 155 102 115 131
244 325 154 99 115 132
244 325 155 105 117 132
244 324 156 109 119 132
244 324 157 122 127 137
244 325 156 116 123 134
244 325 157 127 131 140
244 324 158 132 134 141
244 324 159 135 135 141
242 328 144 128 127 131
242 329 144 119 124 133
242 329 145 118 126 137
243 328 144 130 129 134
243 328 145 129 132 139
243 329 145 123 129 140
243 328 146 126 132 142
243 328 147 114 125 139
243 329 146 112 123 138
243 329 147 103 118 135
242 330 144 106 117 131
242 330 145 103 117 133
242 331 144 97 113 130
242 331 145 95 113 132
242 330 146 97 115 134
242 330 147 98 116 136
242 331 146 97 115 135
242 331 147 101 118 137
243 328 148 101 117 135
243 328 149 97 115 134
243 329 148 97 115 134
243 329 149 99 116 136
243 328 150 98 115 134
243 328 151 103 117 134
243 329 150 103 118 136
243 329 151 110 121 136
242 330 148 100 118 137
242 330 149 106 121 138
242 331 148 106 121 138
242 331 149 111 122 137
243 330 148 99 116 136
243 330 149 101 118 137
242 330 150 112 123 138
242 330 151 119 127 140
242 331 150 117 126 138
242 331 151 124 129 140
243 330 150 110 122 137
243 330 151 116 125 139
241 333 144 98 113 131
241 334 144 112 122 135
241 334 145 122 128 139
241 335 144 127 132 141
241 335 145 136 138 145
241 334 146 133 136 145
241 334 147 137 138 146
241 335 146 141 141 147
241 335 147 140 140 145
242 332 144 95 112 131
242 332 145 97 114 133
242 333 144 97 113 132
242 333 145 105 119 135
242 332 146 103 119 137
242 332 147 110 123 139
242 333 146 116 126 140
242 333 147 121 129 141
242 334 146 128 133 143
242 334 147 131 135 144
241 334 148 136 137 143
241 334 149 136 137 142
241 335 148 137 137 143
241 335 149 137 137 142
241 335 150 136 136 141
241 335 151 135 134 139
242 332 148 115 125 139
242 332 149 117 124 136
242 333 148 123 129 140
242 333 149 124 128 137
242 332 150 121 126 136
242 332 151 128 132 140
242 333 150 128 130 138
242 333 151 129 130 137
242 334 148 132 135 142
242 334 149 133 134 141
242 334 150 134 134 140
242 334 151 132 132 137
243 328 152 110 121 135
243 328 153 120 126 137
243 329 152 119 127 138
243 329 153 128 132 141
242 329 154 136 136 141
243 328 154 129 131 139
243 328 155 134 134 140
243 329 154 134 135 141
243 329 155 137 137 142
242 330 152 128 132 142
242 330 153 133 134 141
242 331 152 130 134 142
242 331 153 130 132 139
243 330 152 124 130 140
243 330 153 131 134 141
242 330 154 137 136 141
242 330 155 139 138 143
242 331 154 133 134 140
242 331 155 138 137 143
242 329 157 129 132 140
243 328 156 135 136 142
243 328 157 128 130 137
243 329 156 137 137 142
243 329 157 131 132 139
242 329 158 125 130 139
242 329 159 122 128 140
243 328 158 121 125 134
243 328 159 124 129 138
243 329 158 122 127 136
243 329 159 124 129 139
242 330 156 139 138 143
242 330 157 133 135 142
242 331 156 136 137 143
242 331 157 128 132 140
242 330 158 124 130 140
242 330 159 118 127 139
242 331 158 117 125 137
242 331 159 111 123 138
241 334 152 131 131 136
241 334 153 131 132 138
241 335 152 134 134 139
241 335 153 134 135 141
241 334 154 130 132 141
241 334 155 115 123 136
241 335 154 130 133 142
241 335 155 115 124 137
242 332 152 128 130 138
242 332 153 125 127 134
242 333 152 124 126 133
242 333 153 125 126 132
242 332 154 131 133 140
242 332 155 133 135 142
242 333 154 129 132 139
242 333 155 125 130 139
242 334 152 127 128 133
242 334 153 128 128 134
242 334 154 128 131 140
242 334 155 116 124 135
241 334 156 101 114 130
241 334 157 97 112 129
241 335 156 101 115 132
241 335 157 99 114 133
241 334 158 101 116 133
241 334 159 102 118 136
241 335 158 100 115 133
241 335 159 98 115 133
242 332 156 126 129 138
242 332 157 114 121 133
242 333 156 111 120 132
242 333 157 100 112 128
242 332 158 105 117 132
242 332 159 106 120 138
242 333 158 100 113 130
242 333 159 104 119 136
242 334 156 104 115 129
242 334 157 98 111 127
