ply
format ascii 1.0
comment Version 2, Copyright 2017, 8i Labs, Inc.
comment frame_to_world_scale 0.179523
comment frame_to_world_translation -45.2095 7.18301 -54.3561
comment width 1023
element vertex 238
property float x
property float y
property float z
property uchar red
property uchar green
property uchar blue
end_header
240 384 303 93 114 152
240 385 303 78 103 151
241 384 303 101 121 160
241 385 303 81 105 155
240 386 302 96 117 159
240 386 303 83 107 154
240 387 302 83 108 156
241 386 303 59 89 150
241 387 302 57 90 152
241 387 303 55 88 151
242 385 303 59 89 151
242 386 303 45 81 150
242 387 303 45 82 151
243 387 303 49 89 154
240 388 301 51 81 148
240 389 301 39 73 146
241 389 301 29 68 144
240 388 302 57 87 149
241 388 302 49 81 149
241 389 302 35 70 145
240 390 301 28 67 144
240 391 300 52 82 154
240 391 301 37 74 150
241 390 301 28 68 146
241 391 301 42 80 152
242 388 302 46 81 149
242 388 303 52 88 152
242 389 302 31 69 143
243 388 302 58 92 151
243 388 303 69 103 156
243 389 302 39 79 145
242 390 301 27 69 147
242 391 301 46 83 154
243 391 301 57 88 159
242 390 302 25 67 145
243 390 302 29 69 147
244 387 303 65 100 157
244 388 303 87 118 161
244 389 302 53 91 149
244 389 303 72 107 154
245 388 303 92 123 162
245 389 303 68 104 154
244 391 301 75 101 166
244 390 302 35 74 150
244 391 302 58 87 160
245 390 302 45 83 155
245 391 302 77 103 169
246 388 303 73 111 153
246 389 303 65 102 153
247 389 303 59 97 153
246 390 302 52 87 159
246 390 303 55 91 158
246 391 302 80 105 171
247 390 303 57 90 162
247 391 302 82 107 172
240 394 299 116 140 172
240 395 299 99 124 166
241 395 299 109 133 171
242 395 299 88 115 165
240 392 300 87 113 164
240 393 300 115 140 172
241 392 300 112 136 174
241 392 301 84 111 164
241 393 300 125 149 177
240 394 300 122 146 175
241 394 300 121 145 175
242 392 300 121 144 177
242 392 301 98 124 169
242 393 300 114 138 172
243 392 301 98 122 169
243 393 300 73 104 152
243 393 301 92 119 161
242 394 300 98 124 166
242 395 300 86 112 163
243 394 300 75 102 154
243 395 300 97 118 165
240 396 298 42 79 150
240 396 299 62 93 155
240 397 298 66 93 157
241 396 299 70 99 158
241 397 298 64 92 158
240 399 297 85 109 163
241 399 297 83 107 163
240 398 298 92 113 164
240 399 298 91 114 164
241 398 298 76 100 160
241 399 298 86 108 164
242 396 299 68 99 159
242 397 298 60 91 159
242 397 299 61 94 159
243 396 299 99 126 169
243 397 299 80 113 165
242 398 298 59 91 159
242 399 298 78 102 165
243 398 298 64 101 164
243 398 299 69 105 164
243 399 298 74 103 167
243 396 300 117 138 174
244 392 301 107 128 175
244 393 301 96 122 163
245 392 301 108 130 178
245 393 301 110 134 170
244 394 300 102 125 164
244 395 300 129 149 178
245 394 300 134 154 179
245 394 301 122 144 173
245 395 300 143 161 183
246 392 301 108 131 176
246 393 301 120 143 175
247 392 301 117 139 180
247 393 301 136 156 182
246 392 302 101 124 179
247 392 302 107 129 180
246 394 301 140 159 182
246 395 300 149 167 187
247 394 301 156 171 191
247 395 300 144 163 186
247 395 301 154 170 190
244 396 299 129 152 179
244 397 299 116 145 177
245 396 299 137 159 182
245 397 299 136 160 186
244 398 299 95 128 171
244 399 298 79 111 169
245 398 299 125 151 184
245 399 298 84 116 170
245 399 299 97 128 173
246 397 299 112 138 175
247 397 299 69 98 162
246 398 299 107 134 175
246 399 299 88 117 171
247 398 299 66 96 163
247 399 299 81 108 170
244 396 300 135 156 181
245 396 300 140 160 182
246 396 300 141 161 186
246 397 300 116 141 175
247 396 300 123 146 178
247 397 300 73 103 163
248 389 303 60 95 158
249 389 303 61 96 159
248 390 303 62 94 163
248 391 302 81 107 172
248 391 303 71 99 169
249 390 303 64 95 165
249 391 302 83 107 175
249 391 303 70 98 170
250 390 303 64 95 164
250 391 303 71 97 170
251 390 303 59 92 164
251 391 303 62 90 169
252 390 303 54 87 164
252 391 303 55 85 166
253 391 303 59 89 164
254 391 303 56 86 163
255 391 303 51 78 163
248 393 301 148 164 187
249 393 301 151 166 185
248 392 302 122 142 182
249 392 302 112 133 179
249 393 302 145 162 187
248 394 301 154 168 186
248 395 300 132 153 180
248 395 301 148 165 185
249 394 301 161 173 191
249 395 301 147 165 188
250 392 302 111 130 179
250 393 302 151 167 191
251 392 302 110 129 179
251 392 303 87 109 173
251 393 302 144 161 189
250 394 301 160 173 190
250 395 301 148 166 188
251 394 301 151 166 187
251 395 301 143 163 187
251 394 302 153 169 189
248 398 299 61 89 165
248 399 299 74 101 168
249 398 299 58 86 165
249 399 299 77 104 169
250 398 299 60 90 165
250 399 299 79 106 170
251 399 299 74 100 168
248 396 300 95 123 167
248 397 300 59 91 161
249 396 300 99 128 170
249 397 300 55 89 159
249 398 300 55 85 164
250 396 300 98 129 172
250 396 301 124 150 181
250 397 300 70 104 162
251 396 300 105 132 176
251 396 301 120 145 181
251 397 300 88 118 169
250 398 300 61 92 163
251 398 300 70 97 165
252 392 302 114 132 181
252 392 303 83 106 172
252 393 302 133 152 187
253 392 303 86 108 173
253 393 302 110 131 179
252 394 301 124 145 178
252 395 301 118 142 176
253 395 301 90 115 169
252 394 302 129 149 181
253 394 302 95 120 171
254 392 303 82 104 172
254 393 302 98 119 176
255 392 303 77 97 170
255 393 302 96 116 178
254 395 301 76 101 170
255 394 301 105 125 181
255 395 301 86 108 173
254 394 302 80 105 171
255 394 302 101 120 181
252 399 299 59 93 164
253 399 299 57 90 165
254 399 299 62 92 166
255 398 299 70 101 167
255 399 299 72 101 170
252 396 300 101 125 176
252 396 301 104 127 175
252 397 300 89 118 171
253 396 301 79 107 169
253 397 300 73 104 167
252 398 300 64 95 163
252 399 300 61 90 164
253 398 300 61 91 162
253 399 300 53 87 162
254 396 300 77 101 170
254 396 301 67 94 167
254 397 300 72 99 168
255 396 300 95 117 175
255 396 301 89 111 173
255 397 300 89 111 172
254 398 300 55 83 157
254 399 300 51 83 160
255 398 300 67 96 164
