ply
format ascii 1.0
comment Version 2, Copyright 2017, 8i Labs, Inc.
comment frame_to_world_scale 0.179523
comment frame_to_world_translation -45.2095 7.18301 -54.3561
comment width 1023
element vertex 347
property float x
property float y
property float z
property uchar red
property uchar green
property uchar blue
end_header
240 451 271 160 163 189
241 451 271 164 168 190
242 450 271 148 154 182
242 451 271 177 182 201
243 450 271 138 147 191
243 451 270 188 194 210
243 451 271 167 174 203
243 455 267 208 200 202
241 453 269 204 196 197
240 452 270 199 197 205
240 452 271 188 188 203
240 453 270 204 198 203
241 452 270 202 200 205
241 452 271 197 197 206
241 453 270 205 198 201
240 454 269 197 192 197
240 455 268 186 184 197
240 455 269 191 187 193
241 454 268 199 193 197
241 454 269 202 195 198
241 455 268 194 192 200
241 455 269 198 193 197
242 453 269 204 194 194
243 453 269 208 201 205
242 452 270 202 200 206
242 453 270 204 197 198
243 452 270 203 202 211
242 454 268 199 192 194
242 454 269 200 192 194
242 455 268 200 194 197
243 454 268 207 200 204
243 454 269 208 201 205
243 455 268 210 202 204
244 450 271 127 136 191
244 451 270 161 168 198
244 451 271 138 147 190
245 450 271 139 148 193
245 451 270 156 161 197
245 451 271 139 147 188
246 450 271 177 184 210
246 451 270 182 184 206
246 451 271 169 173 203
247 450 271 206 207 216
247 451 270 205 203 212
244 455 267 213 206 209
245 455 267 200 197 204
246 455 267 180 181 196
247 455 267 166 168 194
244 453 269 205 202 209
245 452 269 182 182 204
245 453 269 197 196 207
244 452 270 188 190 207
245 452 270 176 177 204
244 454 268 208 203 209
244 454 269 210 204 209
244 455 268 211 205 208
245 454 268 198 197 205
245 455 268 203 200 206
246 452 269 185 185 203
246 453 269 188 189 204
247 452 269 200 198 209
247 453 269 194 192 207
246 452 270 181 181 203
247 452 270 204 201 210
246 454 268 183 184 199
247 454 268 172 173 191
240 462 263 156 152 187
240 463 262 178 181 195
240 463 263 148 151 179
241 462 263 153 151 184
241 463 262 165 168 191
241 463 263 157 160 184
242 461 263 138 133 182
243 461 263 138 133 187
243 463 261 147 147 192
242 462 263 141 140 181
242 463 262 153 155 190
243 462 262 131 132 182
243 462 263 132 130 182
243 463 262 142 144 187
244 461 263 138 133 191
245 460 263 128 130 183
245 461 263 135 133 192
244 463 261 150 150 196
245 463 261 137 142 192
244 462 262 131 133 184
244 462 263 139 137 192
244 463 262 138 142 187
245 462 262 137 138 190
245 462 263 141 139 194
245 463 262 128 131 183
246 460 263 137 140 189
246 461 263 131 133 190
247 460 263 155 159 195
247 461 262 135 141 190
247 461 263 140 144 194
246 463 261 131 136 192
247 462 261 134 140 192
247 463 261 133 134 192
246 462 262 136 140 193
246 463 262 139 144 195
247 462 262 129 135 189
240 456 267 160 161 188
240 457 267 155 159 185
241 456 267 181 182 194
241 457 266 148 157 177
241 457 267 157 163 183
240 459 265 150 144 180
241 459 265 144 139 177
240 458 266 147 146 187
240 458 267 155 158 188
240 459 266 148 141 181
241 458 266 152 154 189
242 456 267 195 193 199
242 457 266 152 161 176
242 457 267 179 182 192
243 456 267 206 200 205
243 457 266 179 182 193
242 458 265 152 152 191
242 459 265 139 134 178
243 458 265 151 154 193
243 459 264 141 136 184
243 459 265 143 140 187
242 458 266 150 157 185
243 458 266 145 154 179
240 456 268 171 172 194
241 456 268 182 182 199
240 460 264 146 140 181
240 460 265 153 147 181
240 461 264 141 135 182
241 460 264 153 147 185
241 460 265 156 151 183
241 461 264 141 135 180
240 462 264 158 153 192
242 460 264 146 140 182
242 461 264 146 140 186
243 460 264 138 131 181
244 456 266 206 204 211
244 456 267 212 207 211
244 457 266 182 185 199
245 456 266 191 190 203
245 456 267 203 199 207
245 457 266 177 180 198
244 458 265 156 163 190
244 459 264 156 154 194
244 459 265 163 165 200
245 458 265 176 181 201
245 459 264 163 165 196
245 459 265 170 174 200
246 457 265 183 186 205
247 457 265 177 180 195
246 456 266 178 176 201
246 457 266 172 171 198
247 456 266 170 167 199
247 457 266 167 167 191
246 458 264 192 193 206
246 458 265 197 199 211
246 459 264 168 170 194
247 458 264 196 196 206
247 458 265 194 196 204
247 459 264 174 177 193
244 460 264 138 132 183
245 460 264 141 143 185
246 460 264 154 157 193
248 449 271 202 205 215
249 449 271 206 208 216
248 450 270 212 208 212
248 450 271 211 208 214
248 451 270 211 206 211
249 450 270 211 205 209
249 450 271 211 207 211
249 451 270 211 205 208
250 449 271 200 203 215
251 449 271 159 167 202
250 451 269 208 204 209
251 451 269 203 202 211
250 450 270 210 205 210
250 450 271 207 205 212
250 451 270 210 205 210
251 450 270 197 200 212
251 450 271 182 189 208
251 451 270 201 202 212
248 455 266 169 168 196
248 455 267 174 176 200
249 454 267 198 199 209
249 455 266 173 173 195
249 455 267 176 179 198
250 454 267 190 191 204
250 455 266 183 186 200
250 455 267 172 173 195
251 454 267 177 178 198
251 455 266 197 200 212
251 455 267 172 174 197
248 452 269 209 204 210
248 453 268 203 201 210
248 453 269 210 205 211
249 452 269 210 203 206
249 453 268 207 202 207
249 453 269 209 202 205
248 454 268 193 193 206
249 454 268 203 201 211
250 452 269 209 203 207
250 453 268 207 202 207
250 453 269 208 202 206
251 452 269 207 204 212
251 453 268 206 203 212
250 454 268 201 199 207
251 454 268 193 193 207
252 449 271 120 130 187
253 449 271 118 127 188
252 451 269 182 188 204
253 451 269 149 160 187
252 450 270 169 182 203
252 450 271 145 158 193
252 451 270 178 186 204
253 450 270 155 170 197
253 450 271 141 153 194
253 451 270 150 163 188
254 448 271 123 133 197
254 449 270 137 148 192
254 449 271 124 133 191
255 448 271 119 133 194
255 449 270 127 138 186
255 449 271 123 134 192
254 451 269 168 179 202
255 451 269 195 203 220
254 450 270 169 180 209
254 450 271 146 156 197
255 450 270 162 172 204
252 454 267 164 168 199
252 455 266 196 199 213
252 455 267 180 184 207
253 454 267 158 164 198
253 455 266 176 181 206
253 455 267 170 175 204
254 453 267 175 183 207
255 453 267 175 184 206
254 454 267 161 169 201
254 455 266 156 163 197
255 454 267 167 178 201
255 455 266 170 179 203
252 452 269 189 194 209
252 453 268 195 198 212
253 452 269 152 162 188
253 453 268 179 185 206
252 454 268 180 185 206
253 454 268 176 182 207
254 452 268 139 149 178
254 452 269 139 150 180
254 453 268 162 169 194
255 452 268 168 173 201
255 452 269 182 187 211
255 453 268 160 167 196
250 459 263 200 201 209
251 459 263 204 202 209
248 460 263 163 169 198
248 461 262 146 152 196
248 461 263 161 166 205
249 460 263 171 177 198
249 461 262 156 161 202
249 461 263 167 171 205
248 462 261 133 138 189
248 463 261 138 139 192
249 462 261 127 134 185
249 463 261 136 140 192
248 462 262 129 134 188
249 462 262 131 136 187
251 461 261 157 161 195
250 460 263 187 192 207
250 461 262 168 172 202
250 461 263 170 175 204
251 460 262 204 205 213
251 460 263 203 203 211
251 461 262 174 179 200
250 462 261 128 135 186
250 463 260 130 138 190
250 463 261 128 136 189
251 462 261 134 141 189
251 463 260 127 135 188
251 463 261 125 135 187
250 462 262 143 147 192
252 459 263 208 203 209
253 459 263 207 201 206
254 458 263 202 198 204
254 459 263 203 199 204
255 458 263 187 188 199
255 459 263 190 192 202
252 461 261 158 165 196
253 461 261 160 171 195
252 460 262 206 205 212
252 460 263 209 206 211
252 461 262 188 192 207
253 460 262 198 199 209
253 460 263 208 204 210
253 461 262 174 182 201
252 462 261 147 156 197
252 463 260 134 141 194
252 463 261 136 144 194
253 462 261 150 162 197
253 463 260 144 153 200
254 461 261 170 180 199
255 461 261 188 191 202
254 460 262 187 191 204
255 460 262 179 184 199
254 462 261 178 189 209
254 463 260 162 172 205
255 462 261 204 207 217
255 463 260 181 189 208
248 457 265 181 183 194
249 457 265 199 198 205
248 456 266 175 172 198
248 457 266 174 175 193
249 456 266 188 187 202
248 458 265 190 190 199
248 459 264 185 186 197
249 458 264 198 197 205
249 458 265 199 198 206
249 459 264 188 189 199
250 457 265 209 204 209
251 457 265 211 206 210
250 456 266 202 201 209
251 456 266 207 206 214
250 458 264 206 203 210
250 458 265 209 204 210
250 459 264 205 203 211
251 458 264 208 203 208
251 458 265 210 205 209
251 459 264 207 203 210
252 457 265 210 206 211
253 456 265 202 202 212
253 457 264 209 204 210
253 457 265 208 206 212
252 456 266 206 205 214
253 456 266 195 196 211
252 458 264 209 204 209
252 458 265 211 205 209
253 458 264 209 203 208
254 456 265 183 185 204
254 457 264 200 199 207
254 457 265 195 195 208
255 456 265 180 182 204
255 457 264 185 186 202
255 457 265 182 183 204
254 456 266 171 175 203
255 456 266 176 180 204
254 458 264 203 200 205
255 458 264 184 185 198
