ply
format ascii 1.0
comment Version 2, Copyright 2017, 8i Labs, Inc.
comment frame_to_world_scale 0.179523
comment frame_to_world_translation -45.2095 7.18301 -54.3561
comment width 1023
element vertex 384
property float x
property float y
property float z
property uchar red
property uchar green
property uchar blue
end_header
240 51 71 126 116 109
240 52 71 134 125 118
240 53 70 135 129 125
240 53 71 135 128 122
241 52 71 134 126 119
241 53 71 138 131 126
240 55 69 124 118 115
240 54 70 131 125 121
240 55 70 123 118 114
241 54 71 131 125 122
241 55 70 109 102 96
241 55 71 110 104 99
242 54 71 116 108 102
242 55 71 101 90 78
243 55 71 107 92 77
240 49 73 114 101 88
241 49 73 111 100 91
240 48 74 115 102 88
240 49 74 113 100 88
241 48 74 113 100 88
241 49 74 113 103 93
240 50 72 115 104 96
240 50 73 112 100 90
240 51 72 127 117 109
241 50 72 131 123 116
241 50 73 124 116 110
241 51 72 133 125 119
242 48 74 114 104 96
242 48 75 117 108 99
242 49 74 126 117 109
243 48 75 129 120 113
243 49 74 133 124 116
243 49 75 133 125 117
242 50 73 132 125 119
242 51 72 132 125 121
242 51 73 134 127 122
243 51 73 132 126 123
242 50 74 132 124 117
243 50 74 136 129 124
243 50 75 138 130 125
243 51 74 132 125 120
241 52 72 135 127 120
242 52 72 132 126 121
242 52 73 134 127 123
242 53 72 130 123 119
243 52 73 119 112 109
243 53 72 111 103 97
243 53 73 90 81 73
242 54 72 105 96 89
242 55 72 97 85 74
243 54 72 94 82 72
243 54 73 87 74 61
243 55 72 103 88 72
244 48 75 137 128 120
244 49 75 139 131 125
245 49 75 129 121 116
244 50 74 125 117 112
244 50 75 128 120 115
244 51 74 100 91 86
245 50 75 93 84 80
245 51 74 74 63 54
245 51 75 72 61 53
246 50 75 67 56 45
246 51 75 80 68 57
247 51 75 96 83 71
244 48 76 137 129 122
245 48 76 137 128 122
245 49 76 121 113 108
245 50 76 91 84 80
246 48 76 112 105 101
246 48 77 101 95 91
246 49 76 74 68 63
247 48 77 56 48 43
247 49 76 55 46 38
247 49 77 65 54 43
246 50 76 65 56 48
247 50 76 84 72 58
247 51 76 101 87 74
244 53 73 81 70 59
244 52 74 81 71 63
244 53 74 83 72 62
245 52 74 81 69 56
245 53 74 92 79 68
244 54 73 95 82 70
244 55 72 110 96 83
244 55 73 110 97 85
245 54 73 101 89 77
245 55 73 111 99 87
245 54 74 102 90 79
246 52 74 96 84 73
246 52 75 99 87 75
246 53 74 107 94 82
246 53 75 111 97 84
247 52 75 107 94 81
247 53 75 114 100 85
246 55 73 111 96 80
246 54 74 110 96 82
246 55 74 111 95 79
247 54 74 116 100 84
247 54 75 116 100 84
247 55 74 117 99 81
247 52 76 109 95 81
240 59 67 114 95 72
240 56 69 104 95 87
240 57 68 102 88 75
240 57 69 101 88 75
241 57 69 107 91 74
241 56 70 98 87 76
241 57 70 105 90 75
240 58 68 109 92 72
240 59 68 113 93 71
241 58 69 113 94 74
241 59 68 118 96 74
241 59 69 118 97 74
242 56 70 105 90 76
242 56 71 110 95 80
242 57 70 111 95 78
242 57 71 113 97 82
243 56 71 111 96 81
243 57 71 114 98 84
242 58 69 117 97 77
242 59 69 121 101 80
242 58 70 116 98 78
242 59 70 121 101 82
243 58 70 118 101 84
243 58 71 115 99 83
243 59 70 119 100 81
240 60 67 119 98 76
240 61 66 128 104 78
241 60 67 125 104 82
241 61 67 131 108 83
240 63 65 138 112 85
240 62 66 134 109 81
240 63 66 136 112 84
241 62 66 135 110 83
241 62 67 134 111 87
241 63 66 136 113 89
241 63 67 135 113 92
242 63 67 133 111 90
241 60 68 123 102 81
241 61 68 129 107 84
242 60 68 126 105 84
242 60 69 124 105 84
242 61 68 130 108 87
242 61 69 128 107 86
243 60 69 124 104 84
243 61 69 124 104 83
243 60 70 122 101 80
243 61 70 123 102 79
242 62 68 131 109 88
242 63 68 127 106 85
243 62 69 125 104 81
243 63 69 127 106 84
243 62 70 126 104 81
243 63 70 130 109 88
244 57 71 113 98 82
244 58 71 116 100 83
244 59 71 117 98 80
245 59 71 123 105 88
244 60 70 122 101 79
244 60 71 124 104 84
244 61 70 124 103 80
244 61 71 128 107 88
245 60 71 128 108 89
245 61 71 128 108 89
244 62 70 129 108 86
244 62 71 130 110 90
244 63 70 132 111 91
244 63 71 130 111 92
245 62 71 127 107 88
245 63 71 125 106 87
243 56 72 110 95 80
244 56 72 114 100 87
244 57 72 115 100 85
245 56 72 117 103 90
245 56 73 117 103 90
245 57 72 120 104 89
245 58 72 122 105 89
245 59 72 124 106 89
246 56 73 113 97 80
246 57 72 118 101 86
246 57 73 113 96 78
247 56 73 112 94 74
247 57 73 114 96 77
247 56 74 115 97 79
246 58 72 119 102 86
246 58 73 116 98 79
246 59 72 121 102 84
246 59 73 119 101 82
247 58 73 117 98 79
247 59 73 117 99 81
245 60 72 125 105 87
245 61 72 125 105 86
245 62 72 124 105 85
245 63 72 121 102 83
246 60 72 122 103 84
246 60 73 122 103 84
246 61 72 122 103 85
246 61 73 121 102 84
247 60 73 119 100 82
247 61 73 118 99 81
247 60 74 116 98 80
247 61 74 116 97 78
246 62 72 120 101 83
246 62 73 120 101 82
246 63 73 118 99 80
247 62 73 119 100 81
246 63 74 117 97 78
247 62 74 118 98 79
247 63 74 118 98 79
248 48 77 69 58 48
248 49 77 88 74 60
249 49 77 98 85 71
248 48 78 72 60 50
249 48 78 91 78 64
249 49 78 99 86 72
248 50 76 106 92 78
248 50 77 100 86 71
248 51 76 109 95 81
249 50 77 105 91 77
249 51 76 108 94 80
249 51 77 107 93 79
250 48 78 99 86 73
250 49 78 101 88 75
251 48 78 100 88 76
251 48 79 99 87 76
251 49 78 100 87 75
250 50 77 101 88 74
250 51 76 107 92 77
250 51 77 105 90 75
251 50 77 99 85 70
251 51 77 102 87 71
251 50 78 98 85 71
248 53 75 112 97 81
249 53 75 109 93 76
248 54 74 117 100 83
248 54 75 114 98 81
248 55 74 118 100 83
249 54 75 112 95 77
249 55 74 118 100 83
249 55 75 116 99 82
250 54 75 114 97 79
250 55 75 116 98 80
248 52 76 109 95 80
248 53 76 109 94 79
249 52 76 107 93 78
249 53 76 109 93 77
250 52 76 109 94 78
250 53 76 112 95 78
251 52 76 109 92 76
251 52 77 106 90 73
251 53 76 110 93 75
251 53 77 108 91 73
250 54 76 115 97 79
251 54 76 114 96 78
251 55 76 118 99 81
252 48 79 98 86 74
252 49 78 100 87 75
252 49 79 99 87 75
253 48 79 96 83 71
253 49 79 99 86 72
252 51 77 102 86 70
252 50 78 101 86 72
252 51 78 102 86 69
253 50 78 102 87 72
253 50 79 101 87 73
253 51 78 104 88 70
254 48 79 98 84 70
254 49 79 100 85 70
255 48 79 100 85 71
255 49 79 103 87 71
254 50 78 105 89 72
254 50 79 104 88 72
254 51 78 106 89 71
254 51 79 106 89 73
255 50 79 105 89 72
255 51 79 108 91 75
252 52 77 105 88 71
252 53 77 109 91 72
253 52 77 107 89 70
253 53 77 110 92 72
253 52 78 106 88 70
253 53 78 110 91 72
252 54 76 116 97 78
252 54 77 113 94 74
252 55 76 118 99 80
252 55 77 115 95 75
253 54 77 112 92 72
253 55 77 113 93 73
253 54 78 111 92 72
253 55 78 112 91 71
254 52 78 108 90 71
254 53 78 108 90 71
255 52 79 109 91 74
255 53 79 109 91 72
254 54 78 109 90 70
254 55 78 109 89 70
255 54 79 107 88 69
255 55 79 108 89 70
248 56 74 119 101 84
248 57 74 120 102 85
249 56 74 120 102 84
249 56 75 119 101 84
249 57 74 121 103 85
249 57 75 120 102 84
248 58 74 119 101 84
248 59 74 118 100 82
249 58 74 120 101 83
249 58 75 119 100 81
249 59 74 119 100 81
249 59 75 119 99 80
250 56 75 118 99 80
250 57 75 118 100 81
250 58 75 120 100 81
249 59 76 118 99 80
250 57 76 118 99 79
251 56 76 118 99 81
251 57 76 118 99 79
250 58 76 119 99 79
250 59 76 117 98 80
251 58 76 117 97 77
251 58 77 115 95 76
251 59 77 113 94 76
248 60 74 117 98 81
248 60 75 118 98 80
248 61 74 118 98 80
248 61 75 118 98 80
249 60 75 118 99 80
249 61 75 118 98 79
248 62 74 117 97 78
248 62 75 117 97 78
248 63 75 118 97 78
249 62 75 116 96 77
249 60 76 118 98 80
249 61 76 117 98 79
249 62 76 115 95 76
249 63 76 115 95 76
250 60 76 116 97 79
250 60 77 114 95 78
250 61 76 115 96 78
250 61 77 113 95 77
251 60 77 112 93 75
251 61 77 113 94 78
251 60 78 110 91 73
251 61 78 111 93 76
250 62 76 113 94 76
250 62 77 113 94 76
250 63 77 115 96 79
250 63 78 114 95 78
251 62 78 113 94 78
251 62 79 110 92 76
251 63 78 111 94 77
251 63 79 108 91 74
252 56 76 118 99 81
252 56 77 118 99 80
252 57 77 117 97 78
253 56 77 115 96 77
253 57 77 115 96 76
253 56 78 114 94 75
253 57 78 114 94 74
252 58 77 113 93 74
252 59 77 110 90 70
252 58 78 113 93 73
252 59 78 112 93 74
253 58 78 115 96 77
253 58 79 118 99 81
253 59 79 117 98 81
254 56 78 111 91 72
254 56 79 112 92 73
254 57 78 114 94 74
254 57 79 114 95 76
255 56 79 111 92 73
255 57 79 115 95 77
254 58 79 116 97 79
254 59 79 115 97 78
255 58 79 115 96 78
252 60 78 110 92 74
252 60 79 113 95 78
252 61 78 109 92 75
252 61 79 111 94 78
253 60 79 116 98 81
253 61 79 116 98 82
252 62 79 110 93 77
252 63 79 108 91 74
