ply
format ascii 1.0
comment Version 2, Copyright 2017, 8i Labs, Inc.
comment frame_to_world_scale 0.179523
comment frame_to_world_translation -45.2095 7.18301 -54.3561
comment width 1023
element vertex 291
property float x
property float y
property float z
property uchar red
property uchar green
property uchar blue
end_header
240 785 183 206 149 126
241 785 183 206 149 126
240 786 183 204 146 121
240 787 182 205 146 125
241 786 183 204 145 122
241 787 182 205 144 124
242 784 183 204 146 123
242 785 183 205 146 124
243 784 183 205 147 123
243 785 183 206 147 124
242 786 183 204 144 120
242 787 182 205 143 122
243 786 182 204 144 120
243 786 183 205 145 121
243 787 182 205 143 120
242 791 179 206 144 122
243 791 179 207 147 123
240 788 181 206 145 124
240 789 181 206 146 125
241 788 181 206 144 124
241 789 181 207 145 124
240 788 182 206 146 126
241 788 182 205 144 123
240 790 180 205 144 122
240 790 181 206 145 123
240 791 180 206 144 121
241 790 180 206 143 122
241 790 181 206 144 123
241 791 180 206 144 122
242 788 181 206 143 122
242 789 181 206 144 122
243 788 181 206 145 122
243 789 181 206 146 122
242 788 182 205 143 121
242 790 180 207 145 123
242 790 181 206 144 122
242 791 180 206 144 122
243 790 180 207 147 124
243 791 180 207 146 124
244 784 183 205 148 124
244 785 183 205 146 123
245 784 183 205 149 124
245 785 183 205 146 122
244 786 182 205 144 120
244 786 183 204 144 121
244 787 182 206 146 121
245 786 182 206 146 123
245 786 183 205 145 122
245 787 182 206 147 122
246 784 183 205 150 124
246 785 183 205 146 123
247 784 183 207 148 123
247 785 182 208 149 125
247 785 183 207 148 126
246 787 181 206 146 122
247 787 181 206 146 122
246 786 182 207 147 124
246 787 182 208 148 125
247 786 182 207 148 125
247 787 182 207 147 125
244 791 179 205 147 121
245 791 179 205 146 122
246 791 179 205 145 122
247 791 179 203 143 120
244 788 181 206 147 121
244 789 181 207 147 123
245 788 181 206 147 122
245 789 181 207 148 123
244 790 180 206 146 120
244 791 180 206 148 122
245 790 180 205 146 119
245 791 180 205 146 120
246 788 181 205 145 121
246 789 180 205 145 120
246 789 181 205 146 120
247 788 181 205 146 121
247 789 180 206 147 123
247 789 181 207 147 123
246 790 180 205 146 121
246 791 180 206 147 123
247 790 180 206 146 123
240 784 184 206 150 126
241 784 184 206 150 127
242 784 184 205 149 125
243 784 184 205 148 123
244 784 184 205 149 124
240 792 179 208 147 124
240 793 179 207 146 124
241 792 179 207 145 123
241 793 178 208 147 124
241 793 179 206 146 123
240 795 177 204 142 119
241 795 177 203 142 118
240 794 178 206 145 123
240 795 178 205 144 122
241 794 178 207 147 124
241 795 178 206 145 122
242 792 179 205 143 120
242 793 178 205 146 122
242 793 179 205 145 121
243 792 179 205 146 121
243 793 178 203 145 121
243 793 179 203 144 119
242 795 177 201 140 117
243 795 177 201 141 119
242 794 178 204 144 120
242 795 178 203 143 119
243 794 178 202 143 120
240 796 177 202 143 116
240 797 176 202 143 117
241 796 176 200 141 114
241 796 177 201 141 115
241 797 176 202 142 117
240 798 176 202 141 117
241 798 176 202 141 117
242 796 176 200 140 116
242 796 177 201 141 118
242 797 176 200 139 115
243 796 176 202 142 120
243 796 177 202 143 122
243 797 176 201 139 116
242 798 176 201 139 116
244 792 179 204 145 120
244 793 178 202 143 120
245 792 179 204 146 122
245 793 178 202 143 119
244 794 177 201 142 120
244 795 177 201 141 120
245 794 177 200 141 117
245 795 176 202 140 118
245 795 177 201 140 117
244 794 178 202 143 120
245 794 178 200 141 116
246 792 178 203 145 120
246 792 179 203 145 121
246 793 178 203 145 120
247 792 178 203 145 119
247 792 179 203 144 119
247 793 178 204 147 119
246 794 177 201 141 115
246 795 176 202 139 116
246 795 177 201 139 115
247 794 177 203 144 116
247 795 176 202 141 116
247 795 177 202 140 114
246 794 178 201 141 115
244 796 176 203 142 121
244 797 176 203 141 118
245 796 176 203 141 120
245 797 176 203 141 119
246 796 176 203 139 117
246 797 176 203 140 119
247 796 176 201 140 115
248 784 183 206 146 121
248 785 182 207 148 124
248 785 183 207 148 123
249 784 183 206 147 120
249 785 182 206 147 123
249 785 183 206 147 122
248 787 181 207 148 124
249 787 181 206 147 122
248 786 182 207 147 124
248 787 182 207 147 125
249 786 182 206 146 123
249 787 182 206 146 124
250 784 183 207 148 122
250 785 182 207 147 123
250 785 183 207 148 123
251 784 183 207 148 124
251 785 182 206 145 122
250 786 181 204 142 118
250 787 181 205 145 119
251 786 181 207 146 122
251 787 181 206 145 120
250 786 182 206 145 122
251 786 182 207 147 123
248 791 179 204 144 121
249 790 179 206 147 125
249 791 179 205 146 124
250 790 179 204 145 121
250 791 179 205 146 121
251 790 179 207 149 124
251 791 178 205 147 124
251 791 179 207 150 125
248 788 181 206 146 120
248 789 180 206 147 123
248 789 181 207 148 123
249 788 181 205 145 118
249 789 180 206 145 121
248 790 180 206 146 123
249 790 180 205 145 122
250 788 180 205 144 118
250 788 181 205 144 117
250 789 180 204 142 117
251 788 180 205 146 119
251 788 181 205 146 119
251 789 180 206 147 121
250 790 180 203 143 119
251 790 180 206 148 122
252 784 182 207 147 124
252 784 183 207 148 125
252 785 182 206 146 122
253 784 182 206 146 122
253 784 183 207 147 123
253 785 182 205 145 120
252 786 181 207 146 123
252 787 181 206 146 124
253 786 181 205 145 121
253 787 180 204 147 123
253 787 181 205 147 124
252 786 182 207 146 123
253 786 182 205 145 122
254 785 181 204 146 120
255 785 181 204 147 121
254 784 182 206 147 121
254 785 182 204 144 118
255 784 182 205 148 122
255 785 182 205 147 122
254 786 181 203 145 120
254 787 180 202 145 120
254 787 181 203 146 121
255 786 181 204 146 121
255 787 180 203 145 122
255 787 181 204 147 123
252 790 179 205 148 124
252 791 178 204 148 123
252 791 179 205 149 125
253 790 179 204 149 124
253 791 178 205 149 122
253 791 179 205 150 124
254 789 179 204 150 123
255 789 179 203 147 120
254 790 179 204 150 123
254 791 178 205 148 122
254 791 179 205 149 123
255 790 179 204 147 121
255 791 178 205 146 122
252 788 180 205 147 122
252 789 180 206 149 124
253 788 180 205 148 124
253 789 180 204 148 123
254 788 180 202 146 120
254 789 180 204 149 123
255 788 180 203 147 121
249 793 177 206 146 123
248 792 178 203 145 118
248 792 179 203 145 120
248 793 178 204 147 119
249 792 178 204 146 121
249 792 179 203 146 121
249 793 178 206 147 122
248 794 177 205 146 119
248 795 176 203 144 120
248 795 177 203 143 117
249 794 177 206 146 123
249 795 176 204 144 122
249 795 177 204 145 122
250 793 177 205 144 121
251 793 177 202 142 117
250 792 178 204 144 120
250 793 178 205 145 122
251 792 178 204 145 122
250 794 177 204 144 121
250 795 176 204 144 121
251 794 176 202 141 115
251 794 177 202 141 116
251 795 176 203 143 118
248 796 176 202 143 120
249 796 176 203 143 121
250 796 176 202 141 118
252 793 177 203 144 118
253 792 177 203 145 118
253 793 177 201 139 113
252 792 178 204 147 121
253 792 178 204 146 119
252 794 176 201 139 113
252 794 177 202 141 115
252 795 176 202 141 116
253 794 176 202 140 116
253 794 177 202 140 114
253 795 176 201 140 117
254 792 177 202 139 115
254 793 177 200 137 112
255 792 177 204 144 119
255 793 176 205 145 121
255 793 177 203 144 119
254 792 178 203 143 118
254 794 176 203 143 119
254 795 176 203 143 120
255 794 176 204 145 121
255 795 176 204 144 120
