ply
format ascii 1.0
comment Version 2, Copyright 2017, 8i Labs, Inc.
comment frame_to_world_scale 0.179523
comment frame_to_world_translation -45.2095 7.18301 -54.3561
comment width 1023
element vertex 27
property float x
property float y
property float z
property uchar red
property uchar green
property uchar blue
end_header
240 656 95 172 166 171
240 657 95 169 164 176
240 658 95 156 156 164
240 659 95 142 144 155
240 660 95 144 146 155
240 661 95 153 153 160
240 662 95 158 156 163
240 663 95 156 155 162
241 662 95 156 155 162
241 663 95 158 156 163
240 664 95 154 153 160
240 665 95 157 156 162
241 664 95 156 156 163
241 665 95 155 154 161
240 666 95 160 156 161
240 667 95 160 156 162
241 666 95 153 151 158
241 667 95 155 153 158
240 668 95 168 162 166
240 669 95 166 160 163
241 668 95 164 160 163
241 669 95 167 161 161
240 670 95 162 157 162
240 671 95 157 154 160
241 670 95 158 153 154
241 671 95 144 140 144
242 671 95 140 123 127
