ply
format ascii 1.0
comment Version 2, Copyright 2017, 8i Labs, Inc.
comment frame_to_world_scale 0.179523
comment frame_to_world_translation -45.2095 7.18301 -54.3561
comment width 1023
element vertex 159
property float x
property float y
property float z
property uchar red
property uchar green
property uchar blue
end_header
244 720 208 92 83 80
244 721 208 105 96 90
245 720 208 130 119 115
245 721 208 147 134 126
245 722 208 158 142 131
246 720 208 155 141 133
246 721 208 163 148 139
247 720 209 164 151 143
247 721 208 166 151 139
247 721 209 169 154 144
246 722 208 165 148 135
246 723 208 159 141 128
247 722 208 163 145 131
247 722 209 163 146 133
247 723 208 150 133 120
246 724 208 137 121 108
247 724 208 140 122 107
247 725 208 153 134 120
247 726 208 153 132 112
247 727 208 152 130 111
248 720 209 146 136 131
248 721 209 157 144 135
249 720 209 108 101 98
249 721 209 123 114 108
248 722 209 161 146 136
248 723 209 148 131 119
249 722 209 139 127 120
249 723 209 140 125 113
250 721 209 104 98 95
250 720 210 92 87 85
250 721 210 106 100 97
251 720 210 123 113 107
251 721 210 123 115 109
250 722 209 115 106 101
250 723 209 124 113 105
251 723 209 122 111 106
251 722 210 123 113 108
251 723 210 142 128 124
248 724 208 148 131 117
248 724 209 147 129 115
248 725 208 155 137 122
249 724 209 152 136 122
249 725 208 154 136 121
249 725 209 158 141 127
248 726 208 152 132 115
248 727 208 171 151 132
249 726 208 161 143 128
249 727 208 186 165 150
250 724 209 139 126 118
250 725 209 145 130 119
251 724 209 132 119 112
251 725 209 138 123 113
251 724 210 144 128 123
250 726 208 177 158 145
250 726 209 165 147 135
250 727 208 191 169 155
250 727 209 191 170 158
251 726 209 169 150 137
251 727 209 180 156 137
252 720 210 152 135 124
252 721 210 142 128 117
253 720 210 147 127 112
253 721 210 138 119 103
252 722 210 138 125 119
252 723 210 165 152 147
253 722 210 142 125 114
253 723 210 165 150 139
254 720 210 148 128 113
254 721 210 138 117 97
255 720 211 151 131 115
255 721 211 150 130 113
254 722 210 137 118 101
254 723 210 144 125 108
255 722 210 140 121 105
255 722 211 142 123 108
255 723 210 152 131 116
255 723 211 169 148 133
252 725 209 146 131 117
252 724 210 158 140 131
252 725 210 153 135 119
253 724 210 154 134 119
253 725 210 148 127 108
252 726 209 169 149 131
252 727 209 175 150 125
253 726 209 168 145 122
253 727 209 167 140 113
252 726 210 162 142 125
253 726 210 156 133 112
253 727 210 160 135 110
254 724 210 144 120 98
254 725 210 144 120 96
255 724 210 170 143 121
255 725 210 161 131 104
254 726 210 150 127 106
254 727 210 158 135 113
255 726 210 163 137 114
255 727 210 156 128 106
248 728 208 157 133 110
248 729 208 145 123 102
249 728 208 178 154 135
249 729 208 154 131 111
249 730 208 142 119 96
249 731 208 140 116 91
250 728 208 170 145 121
250 729 208 155 130 108
251 728 208 158 132 104
251 728 209 167 141 116
251 729 208 157 133 108
251 729 209 164 139 114
250 730 208 148 126 105
250 731 208 139 118 96
251 730 208 160 136 112
251 730 209 170 145 121
251 731 208 151 128 105
250 732 208 126 104 81
250 733 208 128 104 83
251 732 208 160 137 119
251 733 208 151 123 103
251 734 208 110 77 43
252 728 209 176 151 125
252 729 209 174 149 124
253 728 209 171 143 113
253 729 209 180 150 118
252 730 209 183 155 128
252 731 208 171 144 119
252 731 209 179 150 120
253 730 209 194 161 126
253 731 209 196 161 122
254 729 209 181 149 114
254 728 210 173 146 119
254 729 210 175 143 108
255 728 210 157 126 96
255 729 210 161 126 89
254 730 209 182 147 106
254 731 209 178 141 97
255 731 209 139 105 68
254 730 210 166 133 93
255 730 210 147 113 74
255 731 210 130 96 60
252 732 208 195 168 147
252 732 209 192 162 134
252 733 208 172 140 114
253 732 209 199 163 125
253 733 208 188 153 117
253 733 209 201 163 121
252 734 208 128 97 66
252 735 208 119 95 72
253 734 208 154 124 92
253 735 208 148 126 107
254 732 209 187 148 103
254 733 209 196 158 115
255 732 209 165 130 98
255 733 209 179 145 110
254 734 208 187 155 122
254 734 209 191 157 120
254 735 208 190 166 145
255 734 208 200 172 145
255 734 209 192 161 131
255 735 208 207 181 158
