ply
format ascii 1.0
comment Version 2, Copyright 2017, 8i Labs, Inc.
comment frame_to_world_scale 0.179523
comment frame_to_world_translation -45.2095 7.18301 -54.3561
comment width 1023
element vertex 225
property float x
property float y
property float z
property uchar red
property uchar green
property uchar blue
end_header
240 854 192 128 102 76
240 854 193 130 104 79
241 854 192 128 102 74
241 854 193 130 104 77
240 854 194 134 107 82
240 854 195 137 109 85
240 855 195 139 110 87
241 854 194 133 106 81
241 855 194 135 108 82
241 855 195 139 110 86
242 854 192 129 102 74
242 854 193 130 104 76
243 854 192 129 102 73
243 854 193 130 103 75
243 855 192 130 102 73
243 855 193 131 105 76
242 854 194 132 105 79
242 855 194 134 107 80
242 855 195 139 110 85
243 855 194 135 107 80
243 855 195 140 111 84
240 855 196 144 114 91
240 855 197 147 116 94
241 855 196 144 114 90
242 855 196 143 113 88
243 855 196 144 114 88
244 855 192 130 102 73
244 855 193 132 105 76
245 855 192 131 103 73
245 855 193 134 106 77
244 855 194 136 108 81
244 855 195 140 111 85
245 855 194 137 109 81
246 855 192 133 104 75
246 855 193 134 106 77
240 856 197 152 119 98
241 856 197 151 118 96
240 856 198 156 122 101
240 857 198 164 129 109
241 856 198 156 122 101
241 857 198 165 130 109
240 858 198 170 133 114
240 858 199 172 135 116
240 859 199 171 133 114
241 858 198 170 134 114
241 858 199 171 134 114
241 859 199 171 133 114
242 856 196 146 115 90
242 856 197 152 120 96
242 857 197 161 127 105
243 856 196 146 116 90
243 856 197 151 119 95
243 857 197 158 125 102
242 857 198 166 130 110
243 857 198 166 130 110
242 858 198 170 132 113
242 858 199 170 132 112
242 859 199 170 131 111
243 858 198 169 132 112
243 858 199 170 131 111
243 859 199 169 128 109
240 860 199 165 126 106
240 861 199 155 116 94
241 860 199 166 127 107
241 861 199 155 116 94
242 860 199 166 127 107
242 861 199 156 118 96
243 860 199 165 124 104
243 861 199 159 120 99
244 856 195 142 113 87
245 856 194 139 111 83
245 856 195 142 113 86
246 856 192 134 105 76
246 856 193 136 108 79
247 856 192 134 106 77
247 856 193 138 109 81
247 857 193 140 111 84
246 856 194 139 110 82
246 856 195 142 113 85
247 856 194 140 111 83
247 857 194 143 113 86
247 857 195 145 115 88
244 856 196 146 116 90
244 856 197 151 120 94
244 857 197 159 125 102
245 856 196 147 116 90
245 857 196 149 119 92
245 857 197 156 123 99
244 857 198 164 128 107
245 857 198 161 125 102
244 858 198 167 129 108
244 859 199 168 128 108
245 858 198 163 125 103
245 859 198 165 126 104
245 859 199 166 127 105
246 856 196 147 116 90
246 857 196 150 119 92
246 857 197 155 122 96
247 857 196 149 118 91
246 858 197 158 123 99
247 858 196 153 120 94
247 858 197 156 123 97
247 859 197 158 123 98
246 858 198 160 123 99
246 859 198 162 125 101
247 859 198 160 124 99
244 860 199 164 123 102
244 861 199 158 120 99
245 860 199 164 124 103
245 861 199 159 121 98
245 862 199 150 115 91
246 860 198 163 125 101
246 860 199 164 125 103
246 861 198 160 124 100
246 861 199 159 123 99
247 860 198 160 124 99
247 861 198 158 123 99
246 862 199 152 117 93
246 863 199 149 117 91
247 862 198 156 122 98
247 862 199 154 121 97
247 863 199 151 118 94
240 861 200 148 112 88
241 861 200 148 111 87
240 862 200 144 111 87
240 863 200 140 111 85
241 862 200 144 111 86
241 863 200 140 112 85
242 861 200 149 112 89
243 861 200 152 115 93
242 862 200 145 112 87
242 863 200 141 112 86
243 862 200 147 113 89
243 863 200 142 111 86
244 862 200 148 114 90
244 863 200 143 113 88
245 862 200 147 113 88
245 863 200 146 115 90
246 863 200 148 117 91
248 856 192 136 108 80
248 857 192 137 108 81
248 857 193 140 110 84
249 857 192 137 107 81
249 857 193 139 109 83
248 857 194 142 112 86
248 857 195 145 115 89
249 858 193 142 112 85
248 858 195 148 118 91
249 858 194 145 116 88
249 858 195 150 120 93
249 859 195 150 120 93
250 857 192 137 108 81
250 858 192 138 110 81
250 858 193 141 113 84
250 859 193 145 117 88
251 858 192 139 111 81
251 859 192 140 112 81
251 859 193 143 115 86
250 858 194 146 116 88
250 859 194 147 118 90
250 859 195 149 119 91
251 859 194 146 117 88
248 858 196 153 121 95
248 859 196 154 121 95
248 859 197 156 122 96
249 859 196 152 120 92
251 860 193 144 116 85
250 860 195 149 118 89
251 860 194 147 118 88
251 860 195 148 119 90
251 861 195 149 119 90
248 860 197 157 121 96
248 861 197 157 120 95
249 860 196 152 118 90
249 860 197 155 119 92
249 861 196 152 117 90
249 861 197 154 118 90
248 861 198 157 121 97
249 862 197 154 119 92
249 863 197 153 119 92
248 862 198 155 121 97
248 863 198 151 118 94
248 863 199 150 117 93
249 862 198 154 120 94
249 863 198 151 118 91
250 860 196 150 118 88
250 861 196 151 118 90
251 861 196 150 118 89
250 862 196 152 119 93
250 862 197 152 119 92
250 863 197 153 120 94
251 862 196 150 119 91
251 863 196 149 117 89
251 863 197 151 119 92
252 859 192 141 113 82
252 859 193 142 113 82
252 860 192 141 113 82
252 860 193 143 114 83
252 861 193 144 115 83
253 860 192 142 113 81
253 860 193 142 113 81
253 861 192 142 113 80
253 861 193 143 114 82
252 860 194 146 117 86
252 861 194 147 118 87
252 861 195 149 119 91
253 862 193 144 115 84
252 862 194 146 116 86
252 862 195 149 118 90
252 863 195 149 119 91
253 862 194 145 116 84
253 863 195 147 116 86
254 861 192 142 112 80
254 862 192 142 113 81
254 862 193 144 115 83
255 862 192 142 113 81
255 862 193 144 115 83
255 863 193 143 114 84
254 862 194 145 116 85
254 863 194 145 116 85
254 863 195 146 116 86
255 863 194 144 115 85
252 862 196 150 118 91
252 863 196 149 117 90
253 863 196 149 118 89
