ply
format ascii 1.0
comment Version 2, Copyright 2017, 8i Labs, Inc.
comment frame_to_world_scale 0.179523
comment frame_to_world_translation -45.2095 7.18301 -54.3561
comment width 1023
element vertex 213
property float x
property float y
property float z
property uchar red
property uchar green
property uchar blue
end_header
240 864 109 236 171 128
240 865 109 233 166 121
241 864 109 238 173 129
241 865 109 235 169 125
240 865 110 230 162 116
240 866 110 227 158 112
240 867 110 223 154 108
241 866 110 230 162 115
241 867 110 226 158 111
242 864 109 241 178 136
242 865 109 238 173 129
243 864 109 242 182 139
243 865 109 240 179 135
242 866 109 236 171 126
243 866 109 238 175 130
242 866 110 233 167 121
242 867 110 229 162 115
243 866 110 236 171 127
243 867 110 231 166 120
240 868 110 223 156 110
240 868 111 222 155 111
240 869 111 223 157 113
241 868 110 225 157 110
241 868 111 223 157 112
241 869 111 224 159 112
240 870 111 222 156 112
240 871 111 220 151 106
241 870 111 223 159 114
241 871 111 221 154 108
242 868 110 225 158 111
242 869 110 226 161 116
242 869 111 224 162 117
243 868 110 226 159 112
243 869 110 225 160 114
242 870 110 228 165 124
242 870 111 227 163 120
242 871 111 224 159 114
243 870 110 226 162 117
243 870 111 228 164 120
243 871 110 225 160 116
243 871 111 227 161 117
244 864 109 243 184 141
244 865 109 241 182 136
245 864 109 242 182 139
245 865 109 240 180 137
244 866 109 238 178 134
245 866 109 239 178 135
244 866 110 237 175 130
244 867 110 233 169 122
245 866 110 236 174 131
245 867 110 233 169 123
246 864 109 238 176 135
246 865 109 237 176 134
247 864 109 234 172 131
247 865 109 233 171 129
246 866 109 237 175 133
247 866 109 233 171 127
246 866 110 235 173 130
246 867 110 232 170 127
247 866 110 232 169 126
247 867 110 230 167 123
244 868 110 228 163 114
244 869 110 224 160 113
245 868 110 229 164 115
245 869 110 225 161 114
244 870 110 228 160 113
244 871 110 227 158 112
244 871 111 226 157 110
245 870 110 227 159 114
245 871 110 225 155 108
246 868 110 229 165 120
246 869 110 225 161 115
247 868 110 226 162 116
247 869 110 221 155 110
246 870 110 223 158 113
246 871 110 224 157 113
246 871 111 222 155 109
247 870 110 220 154 108
247 870 111 219 153 107
247 871 111 218 151 105
246 879 101 165 120 86
247 879 100 165 119 86
247 879 101 165 120 87
247 878 103 184 132 93
247 879 102 165 120 88
247 879 103 163 118 85
240 872 111 217 149 103
241 872 111 219 151 106
241 873 111 219 151 106
242 872 111 224 157 111
242 873 111 222 156 110
243 872 111 224 159 113
243 873 111 223 158 113
244 872 111 225 157 110
244 873 111 224 158 113
245 872 111 223 155 109
245 873 111 223 157 111
246 872 111 220 152 105
246 873 111 218 150 102
247 872 111 215 148 99
247 873 111 215 147 96
248 864 109 231 169 129
248 865 109 230 166 125
249 864 109 227 165 122
249 865 109 226 162 120
248 865 110 227 164 122
249 865 110 225 160 119
248 866 110 228 165 123
248 867 110 226 161 119
249 866 110 224 159 118
249 867 110 221 157 116
250 864 109 221 157 115
250 865 109 223 157 115
250 864 110 215 149 108
250 865 110 214 149 106
251 864 110 200 138 94
251 865 110 192 131 86
250 866 110 211 147 104
250 867 110 208 146 103
251 866 110 193 132 88
251 866 111 181 124 79
251 867 111 184 126 81
248 868 110 222 156 113
248 869 110 219 153 109
248 869 111 216 151 108
249 868 110 219 155 115
249 869 110 218 154 113
249 869 111 216 152 110
248 870 111 216 151 105
248 871 111 213 149 103
249 870 111 214 151 105
249 871 111 210 149 103
250 868 110 211 150 108
250 868 111 203 144 102
250 869 111 210 151 110
251 868 111 185 129 85
251 869 111 188 133 92
250 870 111 212 153 111
250 871 111 214 154 109
251 870 111 198 142 102
252 864 110 181 126 80
252 865 110 177 122 75
252 865 111 173 120 75
253 864 111 178 126 85
253 865 111 173 122 81
252 866 111 171 118 73
252 867 111 168 116 71
253 866 111 165 114 73
253 867 111 163 112 69
254 864 111 166 114 71
254 865 111 164 112 69
255 864 111 163 113 69
252 868 111 171 118 74
252 869 111 174 121 80
248 879 99 143 107 78
249 879 99 143 107 78
250 878 99 152 115 85
250 879 99 152 115 85
251 878 99 152 115 85
251 879 98 152 115 85
249 877 103 184 132 93
248 878 100 162 117 82
248 878 101 163 117 82
248 879 100 156 113 81
249 878 100 164 118 85
248 878 103 184 131 92
249 878 102 182 130 90
251 875 107 181 131 93
248 872 111 214 150 103
249 872 111 210 148 102
248 877 104 183 131 91
248 877 105 184 131 93
249 877 104 184 132 93
249 877 106 183 132 94
248 878 104 183 131 92
248 878 105 184 133 95
248 879 104 173 125 90
248 879 105 173 126 92
248 878 106 184 133 96
248 879 106 183 132 95
249 878 106 183 132 95
249 878 107 183 131 94
249 879 106 183 132 95
249 879 107 181 131 95
250 877 106 181 130 92
250 877 107 177 129 91
251 876 107 180 130 92
250 878 107 182 132 94
249 879 108 176 127 90
249 879 109 175 126 88
249 878 110 174 126 88
249 878 111 175 126 89
249 879 110 176 127 91
249 879 111 175 126 89
251 876 108 188 136 95
251 877 108 184 133 92
251 877 109 182 132 91
251 876 111 185 135 95
251 877 110 181 131 91
251 877 111 180 130 90
250 878 108 175 127 90
250 878 109 175 127 91
251 878 108 173 126 90
251 878 109 183 131 91
250 878 111 180 130 90
251 878 110 182 131 92
252 876 108 187 136 95
252 876 109 184 135 95
252 877 109 183 134 94
252 876 110 181 133 93
252 876 111 171 123 84
252 877 110 181 132 92
252 877 111 175 128 87
