ply
format ascii 1.0
comment Version 2, Copyright 2017, 8i Labs, Inc.
comment frame_to_world_scale 0.179523
comment frame_to_world_translation -45.2095 7.18301 -54.3561
comment width 1023
element vertex 374
property float x
property float y
property float z
property uchar red
property uchar green
property uchar blue
end_header
240 912 214 117 94 70
240 912 215 118 94 69
241 912 214 114 91 67
241 912 215 114 91 66
241 913 215 112 89 63
242 912 213 111 86 64
243 912 213 109 85 64
242 912 214 111 87 63
242 912 215 111 87 62
242 913 215 110 86 62
243 912 214 109 85 62
243 913 214 108 84 62
243 913 215 108 85 61
243 914 215 108 86 61
244 912 213 109 84 63
245 912 212 106 82 65
245 912 213 108 83 64
245 913 213 107 83 64
244 913 214 108 84 62
244 913 215 107 84 60
245 913 214 108 83 61
245 913 215 106 83 59
244 914 215 107 85 60
245 914 215 107 84 59
246 912 212 102 80 67
246 912 213 104 81 66
246 913 213 106 81 64
247 912 212 98 78 68
247 912 213 103 82 69
247 913 213 105 81 65
246 913 214 106 82 62
247 913 214 106 82 63
246 914 215 106 83 60
247 914 214 108 84 65
247 914 215 107 83 61
247 915 215 106 83 60
240 912 216 117 93 67
240 913 216 116 93 67
241 913 216 113 90 65
240 914 217 114 91 68
241 914 216 113 90 66
241 914 217 110 87 64
241 915 217 106 84 61
240 915 218 109 87 65
241 915 218 103 82 60
242 913 216 110 87 62
243 913 216 108 86 61
242 914 216 110 88 65
242 914 217 109 87 64
242 915 217 103 82 59
243 914 216 109 87 64
243 914 217 108 86 64
243 915 217 105 83 62
242 915 218 97 75 54
243 915 218 97 75 54
240 916 218 113 92 70
240 916 219 117 94 71
240 917 219 127 102 76
241 916 218 106 85 65
241 916 219 111 89 68
241 917 219 121 98 74
242 916 218 95 75 54
242 916 219 99 79 58
242 917 219 111 90 67
243 916 218 92 72 52
243 916 219 89 70 52
243 917 219 99 80 60
240 918 220 142 116 88
240 919 220 151 121 91
241 918 220 139 114 89
241 919 220 151 121 91
242 918 220 132 108 84
242 919 220 150 121 92
243 918 220 120 99 76
243 919 220 149 121 94
244 914 216 108 86 63
244 915 217 106 85 63
245 914 216 107 85 60
245 915 216 108 86 62
245 915 217 106 85 63
244 915 218 97 77 55
246 915 216 106 84 60
246 915 217 105 85 63
247 915 216 106 84 61
247 915 217 106 86 65
244 916 218 91 71 51
244 916 219 85 67 49
244 917 219 91 74 57
245 916 218 92 73 53
245 917 219 87 70 54
245 918 219 98 81 65
246 916 217 105 85 64
247 916 217 106 86 65
246 916 218 94 75 56
246 917 219 85 68 52
247 916 218 95 76 58
247 917 218 89 71 55
247 917 219 87 71 57
246 918 219 96 80 65
247 918 219 95 80 66
244 918 220 115 95 76
244 919 220 146 120 95
245 918 220 116 98 79
245 919 220 145 121 97
246 918 220 120 100 81
246 919 220 142 118 95
247 918 220 114 96 78
247 919 220 135 113 91
240 920 220 160 124 96
240 921 220 164 128 100
240 921 221 167 130 102
241 920 220 160 125 96
241 921 220 164 128 100
241 921 221 166 131 102
240 922 221 172 134 106
240 923 221 177 139 112
241 922 221 170 134 105
241 923 221 177 138 111
242 920 220 160 125 98
242 921 220 163 127 100
242 921 221 165 129 100
243 920 220 161 125 99
243 921 220 163 125 100
243 921 221 164 127 99
242 922 221 169 132 103
242 923 221 178 138 111
243 922 221 169 132 104
243 923 221 177 136 108
240 924 221 183 144 116
240 925 221 188 148 120
241 924 221 184 144 117
241 925 221 188 147 120
240 926 221 190 149 122
240 927 221 191 149 124
241 926 221 190 149 122
241 927 221 192 149 124
242 924 221 183 142 115
242 925 221 188 146 119
243 924 221 182 140 113
243 925 221 186 142 116
242 926 221 191 148 122
242 927 221 193 149 124
243 926 221 190 146 121
243 927 221 191 147 122
244 920 220 161 125 99
244 921 220 164 125 100
244 921 221 166 127 101
245 920 220 160 127 99
245 921 220 166 129 102
244 922 221 169 131 105
244 923 221 175 134 107
245 922 220 170 132 105
245 922 221 170 132 105
245 923 221 175 133 106
246 920 220 158 127 99
246 921 220 167 131 102
247 920 220 154 126 98
247 921 220 164 131 100
246 922 220 171 134 106
246 923 220 174 135 106
246 923 221 176 134 106
247 922 220 172 135 104
247 923 220 175 134 105
244 924 221 179 136 109
244 925 221 184 139 113
245 924 221 178 134 106
245 925 221 182 137 110
244 926 221 186 142 116
244 927 221 188 143 117
245 926 221 184 139 112
245 927 221 186 140 113
246 924 221 177 134 105
246 925 221 180 136 107
247 924 220 176 134 102
247 925 220 178 135 104
247 925 221 178 135 105
246 926 221 182 137 109
246 927 221 183 137 110
247 926 221 180 136 107
247 927 221 182 136 109
248 912 213 100 82 71
248 913 213 106 83 69
249 912 213 100 84 74
249 913 213 109 88 72
248 913 214 108 84 67
248 914 214 111 87 67
248 914 215 111 87 65
248 915 215 109 86 63
249 914 214 116 93 73
249 914 215 118 94 73
249 915 215 113 91 68
250 912 213 102 88 78
250 913 213 116 95 79
251 912 213 104 92 82
251 913 213 119 100 83
250 914 214 123 101 80
250 914 215 124 101 78
250 915 215 118 95 72
251 914 214 129 106 85
251 915 214 129 107 85
251 915 215 123 100 77
251 916 215 124 102 78
255 912 211 94 82 74
252 912 212 99 86 78
252 912 213 107 92 81
252 913 213 121 101 83
253 912 212 96 83 74
253 912 213 110 93 79
253 913 213 120 98 80
252 914 213 132 108 87
253 914 213 131 108 85
252 914 214 133 111 89
252 915 214 131 107 84
252 915 215 128 104 79
253 914 214 133 109 86
253 915 214 131 106 80
253 915 215 130 105 79
254 912 212 97 83 74
254 913 212 115 94 77
254 913 213 119 97 78
255 912 212 102 86 75
255 913 212 120 98 79
254 914 213 130 106 83
254 915 213 128 104 79
255 914 212 128 103 79
255 914 213 128 103 79
255 915 213 126 102 78
254 915 214 130 105 79
255 915 214 128 104 78
252 916 215 129 105 81
253 916 215 134 111 86
254 916 215 137 112 87
254 917 215 142 119 95
255 916 214 133 110 85
255 916 215 141 116 91
255 917 215 145 121 96
248 915 216 108 86 63
249 915 216 112 89 66
248 916 216 110 88 65
248 916 217 107 87 67
249 916 216 112 90 69
249 916 217 109 90 70
248 916 218 97 78 60
248 917 218 92 75 59
249 917 218 97 79 63
248 918 219 98 83 70
248 919 219 124 104 83
249 918 218 93 77 63
249 918 219 98 84 70
249 919 219 119 99 80
250 916 216 116 94 72
250 916 217 115 95 76
250 917 217 108 89 70
251 916 216 122 100 79
251 917 216 126 106 86
251 917 217 116 96 78
250 917 218 99 81 64
251 918 217 104 83 66
250 918 218 93 78 63
250 918 219 98 84 71
250 919 218 103 88 74
250 919 219 111 94 78
251 918 218 95 77 62
251 919 218 99 84 71
248 919 220 129 108 86
252 916 216 131 109 88
252 917 216 129 108 87
252 917 217 124 103 83
253 917 216 134 111 89
252 918 217 103 83 64
252 919 217 97 81 68
253 918 216 124 100 77
253 918 217 109 86 66
253 919 217 101 82 69
252 919 218 97 83 69
254 917 216 139 115 91
255 917 216 142 118 94
254 918 216 124 99 75
254 918 217 110 85 67
254 919 217 105 84 68
255 918 216 128 100 78
255 919 216 109 85 68
255 919 217 107 86 69
249 920 219 140 116 90
249 921 219 159 129 99
249 922 219 169 134 102
250 920 219 132 110 86
250 921 219 156 128 99
251 920 218 122 103 84
251 921 218 150 125 101
250 922 219 170 135 105
250 923 219 176 135 107
251 922 218 168 134 108
251 922 219 171 134 108
251 923 218 176 134 107
251 923 219 176 135 107
248 920 220 149 122 95
248 921 220 163 131 100
249 920 220 149 122 95
249 921 220 161 130 100
248 922 220 171 135 103
248 923 220 175 135 105
249 922 220 171 134 103
249 923 220 175 135 106
250 924 219 176 135 107
250 925 219 176 134 105
251 924 218 177 135 107
251 924 219 176 136 107
251 925 218 178 135 108
251 925 219 177 135 107
250 926 219 176 132 103
250 927 219 179 133 107
251 926 219 178 132 106
251 927 219 179 133 106
248 924 220 176 134 102
248 925 220 178 135 104
249 924 220 177 135 104
249 925 220 178 134 104
248 926 220 180 135 105
248 926 221 180 136 107
248 927 220 182 136 109
248 927 221 181 136 108
249 926 220 179 134 104
249 927 220 181 135 107
250 925 220 177 135 105
250 926 220 178 133 104
250 927 220 181 134 108
253 920 217 115 96 80
253 921 217 142 118 97
252 920 218 115 97 81
252 921 218 144 120 99
253 921 218 140 116 96
253 922 217 168 133 107
253 923 217 177 137 111
252 922 218 168 133 108
252 923 218 177 136 109
253 922 218 167 133 107
253 923 218 177 137 111
254 920 217 114 95 77
254 921 217 140 116 94
255 920 216 116 96 75
255 920 217 115 95 75
255 921 216 143 119 96
255 921 217 140 116 93
254 922 217 168 134 108
254 923 217 177 138 112
255 922 216 170 138 110
255 922 217 170 137 110
255 923 216 177 139 112
255 923 217 177 138 113
253 924 217 179 138 109
253 925 217 181 137 110
252 924 218 178 136 108
252 925 218 179 135 109
253 924 218 178 136 108
253 925 218 181 136 110
253 926 217 181 133 109
253 927 217 180 133 108
252 926 218 180 132 108
252 927 218 180 132 108
253 926 218 181 132 109
253 927 218 179 132 106
254 924 217 179 138 110
254 925 217 179 137 109
255 924 216 178 138 110
255 924 217 179 138 111
255 925 216 178 137 109
255 925 217 178 138 109
254 926 217 180 135 109
254 927 217 178 134 106
255 926 216 178 136 108
255 926 217 178 135 108
255 927 216 177 134 106
255 927 217 177 135 105
