ply
format ascii 1.0
comment Version 2, Copyright 2017, 8i Labs, Inc.
comment frame_to_world_scale 0.179523
comment frame_to_world_translation -45.2095 7.18301 -54.3561
comment width 1023
element vertex 253
property float x
property float y
property float z
property uchar red
property uchar green
property uchar blue
end_header
240 100 207 99 89 81
240 101 207 99 89 80
241 101 207 97 87 79
240 103 205 97 87 78
241 103 205 96 86 77
240 102 206 98 88 80
240 103 206 97 87 79
241 102 206 97 87 78
241 102 207 97 87 79
241 103 206 95 85 77
242 101 207 96 86 78
242 102 206 95 85 77
242 102 207 95 85 77
242 103 206 94 85 76
243 102 207 94 84 75
243 103 206 93 83 74
243 103 207 93 83 75
244 102 207 93 84 75
244 103 206 91 82 73
244 103 207 92 82 73
245 102 207 91 82 73
245 103 207 90 81 72
246 103 207 89 80 71
240 109 199 100 89 78
241 109 199 99 88 78
240 111 197 103 91 79
241 111 197 102 90 79
240 110 198 101 90 79
240 111 198 102 90 79
241 110 198 101 89 78
241 110 199 100 89 78
241 111 198 102 90 79
242 109 199 98 87 77
243 109 199 98 86 76
242 111 197 102 89 78
243 111 197 101 89 78
242 110 198 100 88 77
242 110 199 99 88 77
242 111 198 100 89 78
243 110 198 99 87 77
243 110 199 98 86 76
243 111 198 100 88 77
244 111 197 100 88 77
245 111 197 100 88 77
244 110 198 98 87 76
244 110 199 97 86 75
244 111 198 99 88 77
245 110 198 97 86 76
245 110 199 96 85 75
245 111 198 99 87 77
246 110 199 95 84 75
246 111 198 97 86 76
247 110 199 94 84 74
247 111 198 96 86 76
247 111 199 95 84 75
240 105 203 97 87 77
241 105 203 96 86 76
240 107 201 98 87 77
240 106 202 97 87 77
240 106 203 97 87 77
240 107 202 98 87 77
241 106 202 97 86 76
241 106 203 97 86 76
241 107 202 97 86 76
242 106 202 95 85 75
242 106 203 95 85 75
242 107 202 95 84 75
243 106 203 93 83 74
243 107 202 94 83 74
240 104 204 97 87 77
240 104 205 96 86 77
240 105 204 97 87 77
241 104 204 96 86 76
241 104 205 95 85 76
241 105 204 96 85 76
242 104 205 94 84 75
242 105 204 94 84 75
243 104 205 92 82 73
243 105 204 93 83 74
243 105 205 92 82 73
242 104 206 93 83 74
243 104 206 93 83 74
243 106 204 92 82 73
240 108 200 99 88 78
240 108 201 98 87 77
240 109 200 100 88 78
241 108 200 99 88 78
241 108 201 98 87 77
241 109 200 99 88 77
242 108 200 98 87 76
242 108 201 96 86 75
242 109 200 97 86 76
243 108 201 95 84 74
243 109 200 96 85 75
242 108 202 95 84 74
243 108 202 95 84 74
244 106 203 92 82 73
244 107 202 93 82 73
244 107 203 92 82 73
245 106 203 91 81 72
245 107 202 92 82 72
245 107 203 91 81 72
246 107 203 90 80 71
247 107 203 89 79 71
244 104 205 91 81 72
244 105 204 91 82 73
244 105 205 91 81 72
245 104 205 90 80 72
245 105 205 90 81 72
244 104 206 91 81 72
245 104 206 90 80 71
245 104 207 89 79 71
244 106 204 92 82 73
245 106 204 91 81 72
246 105 205 89 79 70
247 105 205 87 78 70
246 104 206 89 79 70
246 104 207 88 79 70
246 105 206 88 78 70
247 104 206 88 78 70
247 104 207 88 78 70
247 105 206 87 78 69
246 106 204 89 80 71
246 106 205 88 78 70
246 107 204 89 79 71
247 106 204 88 79 70
247 106 205 88 78 70
247 107 204 88 79 70
244 108 201 94 83 73
244 109 200 95 84 74
244 109 201 94 84 74
245 108 201 93 82 73
245 109 200 94 83 74
245 109 201 93 83 73
244 108 202 93 83 73
245 108 202 92 82 73
245 110 200 95 84 74
246 109 200 94 83 73
246 109 201 92 82 73
247 109 201 92 82 72
246 108 202 91 81 72
247 108 202 90 80 72
247 108 203 90 80 71
247 109 202 91 81 72
246 110 200 94 84 74
247 110 200 93 83 74
248 110 199 94 83 74
248 111 198 96 86 76
248 111 199 95 84 75
249 111 198 96 86 76
249 111 199 95 85 76
250 111 199 95 85 76
251 111 199 94 84 75
248 107 203 88 79 70
248 104 207 87 77 69
248 105 206 86 77 69
249 104 207 86 77 68
249 105 206 85 76 68
249 105 207 86 77 68
248 106 205 87 78 69
248 107 204 88 79 70
248 107 205 87 77 69
249 106 205 86 77 69
249 107 204 87 78 69
249 107 205 86 77 69
248 106 206 86 77 69
249 106 206 86 77 69
250 105 207 85 76 68
250 107 204 87 78 69
250 107 205 86 77 69
251 107 205 86 77 69
250 106 206 85 76 68
250 106 207 85 75 67
250 107 206 85 76 68
251 106 206 85 76 68
251 106 207 84 75 67
251 107 206 85 76 68
248 109 201 91 81 72
248 108 202 90 80 71
248 108 203 89 79 71
248 109 202 91 81 72
249 108 203 89 79 71
249 109 202 90 81 72
248 110 200 93 83 74
248 110 201 92 82 73
249 110 200 93 83 74
249 110 201 92 82 73
249 111 200 94 84 75
250 108 203 88 79 70
250 109 202 89 80 71
250 109 203 88 79 71
251 109 202 88 79 71
251 109 203 88 79 71
250 110 200 93 83 74
250 110 201 92 82 74
250 111 200 93 84 75
251 110 201 91 82 74
251 111 200 93 83 75
251 111 201 92 82 74
250 110 202 91 81 73
251 110 202 89 80 72
249 108 204 87 78 69
250 108 204 87 78 70
250 108 205 86 77 69
251 108 204 87 78 70
251 108 205 86 77 69
251 109 204 87 78 70
252 106 207 84 75 67
252 107 206 85 76 68
252 107 207 84 76 68
253 107 206 84 76 68
253 107 207 84 75 67
254 107 207 84 75 67
252 109 203 87 78 70
253 109 203 87 78 70
252 111 200 92 83 74
252 111 201 91 82 74
253 111 200 92 82 74
253 111 201 91 82 74
252 110 202 89 80 72
252 110 203 88 79 70
253 110 202 90 81 73
253 110 203 88 79 71
253 111 202 90 81 73
254 111 201 91 82 74
255 111 201 91 82 74
254 110 202 89 80 73
254 110 203 89 80 72
254 111 202 90 81 73
255 110 203 89 80 72
255 111 202 90 81 74
255 111 203 89 80 73
252 108 204 86 77 69
252 108 205 86 77 69
252 109 204 87 78 70
253 108 205 85 77 69
253 109 204 87 78 70
253 109 205 86 77 69
252 108 206 85 76 68
253 108 206 85 76 68
254 109 204 87 78 70
254 109 205 86 77 69
255 109 205 86 77 69
254 108 206 85 76 68
254 108 207 84 75 68
254 109 206 85 77 69
255 108 206 84 76 68
255 108 207 84 75 68
255 109 206 86 77 69
255 109 207 85 76 68
254 110 204 87 78 71
255 110 204 88 79 72
255 110 205 86 78 70
