ply
format ascii 1.0
comment Version 2, Copyright 2017, 8i Labs, Inc.
comment frame_to_world_scale 0.179523
comment frame_to_world_translation -45.2095 7.18301 -54.3561
comment width 1023
element vertex 267
property float x
property float y
property float z
property uchar red
property uchar green
property uchar blue
end_header
240 979 197 117 99 84
240 978 199 110 92 79
240 979 198 116 98 84
240 979 199 111 94 82
241 978 199 90 70 54
241 979 198 95 75 61
241 979 199 94 74 59
242 978 199 97 75 61
242 979 198 93 71 56
242 979 199 102 81 64
243 979 199 120 99 81
240 980 195 131 112 97
240 981 194 133 113 94
240 981 195 131 111 93
241 981 194 105 84 65
241 981 195 101 80 62
240 982 192 132 110 91
240 982 193 135 113 93
240 983 192 139 116 97
241 982 193 114 93 71
241 983 192 108 87 67
241 983 193 104 83 60
240 982 194 135 113 93
241 982 194 109 88 67
242 981 195 81 61 48
243 981 195 122 100 82
242 982 193 84 69 58
242 983 192 89 74 61
242 983 193 92 74 60
243 983 192 113 91 72
243 983 193 122 100 81
242 982 194 84 65 54
243 982 194 119 97 77
243 982 195 121 99 80
240 980 196 126 107 91
240 980 197 121 103 87
241 980 196 101 80 63
241 980 197 95 74 59
241 981 196 85 64 48
242 980 196 77 55 44
242 980 197 86 64 50
242 981 196 86 66 51
243 980 197 123 102 85
243 981 196 123 102 84
243 981 197 131 110 95
242 980 198 90 68 54
243 980 198 125 105 87
244 979 199 105 88 74
245 979 199 85 70 59
246 979 199 90 71 57
247 979 199 114 92 73
244 981 195 132 111 92
244 983 192 124 100 80
244 983 193 126 103 82
245 983 192 90 69 51
245 983 193 87 67 50
244 982 194 129 106 85
244 982 195 125 104 84
244 983 194 129 106 85
245 982 194 92 72 52
245 982 195 89 70 51
245 983 194 87 68 49
246 983 193 85 70 58
247 983 193 104 81 63
246 982 194 83 67 54
246 982 195 83 67 54
246 983 194 83 68 55
247 982 194 104 83 66
247 982 195 106 85 69
247 983 194 103 81 64
244 980 197 117 97 80
244 981 196 123 103 84
244 981 197 120 101 82
245 981 196 91 73 56
245 981 197 90 73 57
244 980 198 112 94 78
244 980 199 103 87 74
245 980 198 86 70 56
245 980 199 85 69 57
246 981 196 85 68 55
246 981 197 86 69 54
247 981 196 110 90 74
247 981 197 112 92 76
246 980 198 86 67 52
246 980 199 87 68 53
247 980 198 114 93 75
247 980 199 106 84 68
246 982 196 85 68 56
247 982 196 108 88 72
240 977 200 106 89 74
240 977 201 102 85 70
241 977 201 95 75 54
240 976 202 100 81 65
241 976 202 102 80 59
241 976 203 112 92 74
241 977 202 99 77 56
240 978 200 107 90 76
241 978 200 90 70 52
242 977 201 112 91 73
243 977 201 110 90 74
242 976 202 118 98 81
242 976 203 112 94 77
242 977 202 118 98 81
243 976 202 104 86 69
243 976 203 102 84 69
243 977 202 104 85 69
242 978 200 107 86 69
242 978 201 116 97 80
243 978 200 115 94 77
243 978 201 107 87 71
244 976 203 98 78 63
244 977 202 93 75 62
245 976 203 105 82 66
245 977 202 95 75 60
244 978 200 95 77 65
244 978 201 94 77 65
244 979 200 97 80 68
245 978 200 83 67 58
245 978 201 89 72 61
245 979 200 85 69 61
246 976 203 118 97 79
246 977 202 114 93 75
247 976 203 110 90 72
247 977 202 115 95 76
246 978 200 90 71 59
246 978 201 103 82 64
246 979 200 99 80 65
247 978 200 115 93 75
247 978 201 115 94 76
247 979 200 116 94 77
246 978 202 110 90 72
246 976 204 117 97 79
243 984 192 129 107 86
244 984 192 121 97 76
245 984 192 83 64 48
246 984 192 83 68 57
247 984 192 104 83 67
248 979 199 113 90 66
249 979 199 112 91 72
251 977 199 102 84 71
251 979 197 101 83 71
250 978 199 91 70 57
250 979 198 88 67 55
250 979 199 93 72 57
251 978 198 106 87 75
251 978 199 100 81 69
251 979 198 98 79 68
248 983 193 128 103 79
249 983 192 145 117 93
249 983 193 140 115 90
248 982 194 124 101 79
248 982 195 125 103 83
248 983 194 126 102 79
249 982 194 131 107 83
249 982 195 128 105 81
249 983 194 136 111 87
250 981 195 115 94 74
251 980 195 96 77 65
251 981 194 86 69 58
251 981 195 85 65 51
250 983 192 134 110 91
250 983 193 131 108 89
251 982 192 81 65 53
251 982 193 86 69 55
251 983 192 93 75 58
251 983 193 98 79 62
250 982 194 123 102 83
250 982 195 115 95 76
250 983 194 133 110 90
251 982 194 86 68 54
251 982 195 87 67 50
248 981 196 125 104 84
248 981 197 123 101 83
249 981 196 124 102 80
249 981 197 121 100 79
248 980 198 116 94 72
249 980 198 116 95 76
249 980 199 115 94 75
248 982 196 125 104 87
250 980 197 96 76 59
250 981 196 107 87 68
250 981 197 111 90 70
251 980 196 92 72 59
251 980 197 88 68 55
251 981 196 87 66 51
250 980 198 99 78 61
253 979 194 106 83 62
253 979 195 103 82 59
255 977 194 93 76 65
255 977 195 90 72 61
255 978 193 95 79 65
255 979 192 101 84 70
255 979 193 99 82 67
254 978 195 97 80 65
254 979 194 108 89 72
254 979 195 104 86 67
255 978 194 93 76 60
255 979 194 99 81 64
253 977 197 101 83 68
252 977 199 102 84 68
253 976 198 101 86 71
253 976 199 100 83 67
253 977 198 100 83 64
253 977 199 101 83 65
252 978 197 102 83 64
252 979 196 107 87 69
252 979 197 107 89 74
253 978 196 100 81 62
253 978 197 99 80 59
253 979 196 100 79 56
252 978 198 103 85 67
252 978 199 107 89 76
253 978 198 97 78 56
254 976 197 84 65 54
254 977 196 89 72 58
254 977 197 93 76 63
255 976 196 89 72 58
255 976 197 89 72 59
255 977 196 87 70 58
254 976 198 86 67 55
254 976 199 88 71 57
254 978 196 100 83 68
252 981 193 98 76 63
253 980 193 112 87 71
253 981 192 114 88 70
253 981 193 112 86 71
252 980 194 107 84 66
252 980 195 107 86 69
252 981 194 101 81 67
253 980 194 108 84 65
253 980 195 106 83 62
252 982 192 95 75 60
252 982 193 90 73 60
253 982 192 109 84 66
254 980 192 116 96 78
254 980 193 113 93 76
254 981 192 116 94 75
255 980 192 105 87 70
254 980 194 112 91 74
252 980 196 110 92 78
249 977 201 97 79 64
248 976 202 101 80 63
248 976 203 101 82 64
248 977 202 107 88 71
249 976 202 92 71 57
249 976 203 94 74 58
249 977 202 93 74 59
248 978 200 111 90 71
248 978 201 111 91 75
248 979 200 114 92 70
249 978 200 107 87 71
249 978 201 101 83 68
250 976 201 96 78 64
250 977 200 88 69 56
250 977 201 88 69 56
251 976 201 101 83 69
251 977 200 98 81 68
250 976 202 93 73 59
251 976 202 101 83 69
250 978 200 91 71 58
252 976 200 101 84 67
252 976 201 103 86 70
252 977 200 102 84 68
253 976 200 100 83 68
248 984 192 129 104 79
249 984 192 142 115 90
250 984 192 143 116 94
