ply
format ascii 1.0
comment Version 2, Copyright 2017, 8i Labs, Inc.
comment frame_to_world_scale 0.179523
comment frame_to_world_translation -45.2095 7.18301 -54.3561
comment width 1023
element vertex 361
property float x
property float y
property float z
property uchar red
property uchar green
property uchar blue
end_header
240 994 175 126 95 69
240 995 175 119 85 56
241 994 175 114 80 51
241 995 175 113 79 51
242 994 175 109 77 48
242 995 175 113 85 59
243 995 175 114 88 61
240 996 174 113 77 46
240 996 175 114 77 47
240 997 174 112 78 49
241 996 174 114 80 58
241 996 175 115 82 59
241 997 174 114 83 59
240 998 173 116 86 59
240 999 172 121 91 63
240 999 173 122 92 65
241 998 173 117 85 57
241 999 172 121 90 58
241 999 173 122 90 60
241 998 174 114 82 52
242 996 175 115 88 61
242 997 174 121 91 63
242 997 175 119 90 58
243 996 175 124 98 69
243 997 174 140 111 84
243 997 175 134 107 80
242 998 173 129 98 70
242 999 173 137 106 79
243 999 173 133 99 70
242 998 174 131 101 72
243 998 174 138 107 77
244 995 175 132 107 81
244 996 175 139 112 85
244 997 174 132 97 68
244 997 175 138 108 80
245 996 175 132 101 71
245 997 174 119 82 56
245 997 175 125 90 60
244 999 173 115 76 46
245 999 173 106 67 46
244 998 174 126 89 57
244 999 174 121 82 50
245 998 174 115 75 50
245 999 174 109 71 51
246 996 175 115 82 52
246 997 174 110 73 45
246 997 175 110 75 48
247 996 175 111 79 55
247 997 175 115 85 62
246 998 174 111 77 55
246 999 174 112 81 59
247 998 174 117 87 62
247 998 175 118 87 61
247 999 174 122 92 60
240 1005 167 125 97 76
240 1006 165 112 80 63
240 1007 164 100 69 50
240 1007 165 103 71 53
241 1007 165 91 63 49
240 1006 166 116 86 67
240 1006 167 124 95 75
241 1006 166 105 76 57
241 1006 167 110 80 60
241 1007 166 100 71 54
242 1007 165 83 60 47
242 1006 167 104 76 57
242 1007 166 87 62 44
242 1007 167 93 65 48
243 1007 166 92 70 49
243 1007 167 91 63 43
244 1007 167 130 106 81
245 1007 167 158 129 98
246 1007 167 136 99 49
247 1007 167 167 136 106
240 1001 171 120 86 56
241 1001 171 129 97 70
240 1003 169 122 91 66
240 1002 170 119 84 57
240 1003 170 121 88 63
241 1002 170 127 95 70
241 1002 171 128 96 70
241 1003 170 124 94 69
242 1001 171 126 93 67
242 1002 171 118 85 59
242 1003 170 112 81 55
242 1003 171 102 69 40
243 1002 171 105 73 47
243 1003 170 104 76 54
243 1003 171 105 76 54
240 1000 172 120 88 59
241 1000 172 126 95 65
241 1001 172 130 99 71
242 1000 172 133 101 73
242 1000 173 137 105 78
242 1001 172 127 95 67
243 1000 173 124 90 63
243 1001 172 112 76 47
243 1002 172 103 70 44
240 1004 168 126 97 73
240 1004 169 125 97 72
240 1005 168 127 99 76
241 1004 169 120 91 64
241 1005 168 115 84 57
242 1004 169 112 83 56
242 1005 168 112 84 60
242 1005 169 110 82 58
243 1005 169 108 80 60
242 1004 170 107 80 56
243 1004 170 108 81 62
243 1005 170 109 81 62
242 1006 168 109 80 60
243 1006 168 102 71 53
243 1006 169 109 78 59
244 1002 171 108 78 58
244 1003 171 112 83 62
245 1003 171 114 84 62
244 1000 173 109 70 45
244 1001 172 105 72 47
244 1001 173 105 68 46
245 1000 173 110 77 57
245 1001 172 112 81 58
245 1001 173 112 81 57
244 1002 172 108 79 56
245 1002 172 114 83 58
245 1003 172 116 85 63
246 1000 173 114 85 58
246 1001 173 116 85 58
247 1001 173 125 94 64
246 1000 174 114 86 57
247 1000 174 126 96 61
247 1001 174 131 98 62
246 1002 172 115 81 58
246 1002 173 118 82 58
246 1003 172 115 82 53
247 1002 173 137 105 79
247 1003 172 155 126 96
247 1003 173 149 120 92
244 1005 169 107 77 49
245 1005 169 113 82 50
244 1004 170 113 84 64
244 1004 171 116 86 66
244 1005 170 112 84 60
245 1004 171 107 75 49
245 1005 170 105 73 41
244 1006 168 107 77 52
244 1006 169 107 76 52
244 1007 168 113 86 58
245 1006 168 142 119 95
245 1006 169 127 100 74
245 1007 168 159 133 106
246 1004 171 122 93 60
246 1005 170 151 123 95
246 1005 171 141 114 84
247 1004 171 161 130 97
247 1005 170 154 117 80
247 1005 171 156 122 85
246 1006 169 154 123 90
246 1007 168 146 112 72
246 1007 169 149 113 77
247 1006 169 156 122 90
247 1007 168 160 128 96
247 1007 169 160 127 95
246 1006 170 159 127 95
247 1006 170 155 118 84
246 1004 172 140 112 80
247 1004 172 159 128 95
248 996 175 133 100 74
248 997 175 133 99 72
249 996 175 158 124 93
249 997 175 156 121 89
248 998 174 137 104 75
248 998 175 136 102 74
248 999 174 143 109 81
249 998 174 154 120 93
249 998 175 154 119 89
249 999 174 153 118 89
250 996 175 142 107 75
250 997 175 141 105 75
251 996 175 118 88 66
251 997 175 124 96 71
250 998 175 138 105 75
250 999 174 139 107 75
251 998 174 144 116 88
251 998 175 134 106 79
251 999 174 150 120 89
252 995 175 109 80 57
253 994 175 115 88 61
253 995 175 120 93 68
254 993 175 121 97 72
255 992 175 110 88 66
255 993 174 151 125 99
255 993 175 128 104 80
255 995 173 170 138 110
254 994 175 135 109 83
254 995 174 164 136 108
254 995 175 149 122 97
255 994 174 164 137 109
255 994 175 153 127 101
255 995 174 172 142 113
255 998 171 142 100 78
255 999 170 111 68 49
255 999 171 138 97 75
252 996 175 113 84 60
252 997 175 132 103 76
253 996 175 136 108 80
253 997 174 161 131 100
253 997 175 151 121 93
253 999 173 172 139 105
252 998 174 151 122 92
252 999 174 159 127 96
253 998 174 164 133 100
253 999 174 168 136 104
254 997 173 172 138 107
255 996 173 167 133 102
255 997 172 160 124 94
255 997 173 165 129 97
254 996 174 170 139 109
254 996 175 161 132 103
254 997 174 171 139 109
254 998 173 168 134 103
254 999 172 156 121 90
254 999 173 165 130 99
255 998 172 159 122 94
255 998 173 164 127 95
255 999 172 154 120 92
254 998 174 173 141 110
248 1007 167 153 119 85
249 1007 167 129 92 62
251 1007 165 94 68 47
250 1007 166 96 62 44
250 1007 167 106 70 46
251 1006 167 106 74 53
251 1007 166 100 71 49
251 1007 167 105 74 54
255 1002 167 94 65 50
255 1003 166 90 63 42
255 1003 167 88 61 45
253 1005 167 101 73 52
252 1007 165 106 81 61
253 1006 165 117 94 74
253 1007 164 129 105 80
253 1007 165 119 97 75
252 1006 166 101 69 51
252 1006 167 104 71 51
252 1007 166 94 60 39
253 1006 166 109 80 65
253 1006 167 103 70 54
254 1004 167 88 62 43
254 1005 166 107 82 65
254 1005 167 94 66 46
255 1004 166 91 66 47
255 1004 167 87 64 47
255 1005 166 103 78 61
254 1006 165 121 99 76
254 1007 164 138 113 87
254 1007 165 133 110 84
255 1006 165 117 93 67
255 1007 164 140 113 87
255 1007 165 135 111 85
254 1006 166 114 92 73
248 1001 173 151 119 91
248 1000 174 151 118 89
248 1001 174 155 122 92
249 1000 174 155 120 89
249 1001 174 154 119 83
248 1002 173 153 120 90
248 1003 172 157 125 92
248 1003 173 155 122 88
249 1002 173 151 115 75
249 1003 173 154 117 80
249 1002 174 151 115 74
251 1001 173 168 131 98
250 1000 174 146 114 81
250 1001 174 154 120 84
251 1000 174 160 126 97
251 1001 174 164 127 96
250 1002 173 162 127 88
250 1003 173 166 130 91
251 1002 173 172 136 100
251 1003 172 164 120 89
251 1003 173 173 134 98
250 1002 174 156 121 81
248 1005 170 162 128 92
248 1005 171 158 124 90
249 1005 170 170 138 105
249 1005 171 167 135 100
248 1006 169 167 134 98
248 1007 168 162 129 96
248 1007 169 169 136 103
249 1006 169 157 124 91
249 1007 168 140 105 70
249 1007 169 156 123 89
248 1006 170 164 129 94
249 1006 170 168 136 104
251 1005 169 117 76 52
250 1004 171 158 115 80
250 1005 170 144 106 70
250 1005 171 164 127 92
251 1004 171 134 90 60
251 1005 170 119 78 52
251 1005 171 132 88 56
250 1006 168 108 71 40
250 1006 169 126 89 55
250 1007 168 117 81 47
251 1006 168 110 75 51
251 1006 169 114 74 50
250 1006 170 156 123 89
248 1004 172 153 118 84
249 1004 172 159 125 89
249 1005 172 165 132 95
250 1004 172 170 133 96
251 1004 172 158 114 81
252 1003 171 119 74 53
253 1002 171 119 77 56
253 1003 170 108 69 48
253 1003 171 112 69 49
255 1000 169 100 69 48
255 1001 168 99 70 51
255 1001 169 102 72 52
254 1000 171 146 110 83
254 1001 170 124 84 59
254 1001 171 137 99 73
255 1000 170 106 67 50
255 1000 171 136 97 76
255 1001 170 112 75 58
254 1002 169 95 64 47
254 1003 168 86 60 46
254 1003 169 98 65 43
255 1002 168 93 62 47
255 1002 169 97 66 50
255 1003 168 85 60 47
254 1002 170 114 77 55
254 1002 171 126 87 65
254 1003 170 106 71 45
255 1002 170 108 73 56
252 1001 173 170 133 97
253 1000 173 168 134 101
253 1001 172 149 110 82
253 1001 173 163 127 94
252 1000 174 166 132 104
252 1001 174 167 132 100
252 1002 172 159 118 89
252 1002 173 171 131 99
252 1003 172 142 99 73
253 1002 172 136 93 67
253 1003 172 125 79 55
254 1000 172 152 116 85
254 1000 173 161 125 95
254 1001 172 141 101 72
252 1005 168 112 81 60
252 1005 169 112 79 58
253 1004 168 98 67 44
253 1004 169 105 71 50
253 1005 168 108 80 59
253 1005 169 108 77 59
252 1004 170 111 75 53
252 1004 171 115 72 47
252 1005 170 116 80 59
253 1004 170 106 66 46
252 1006 168 111 78 58
254 1004 168 93 62 42
