ply
format ascii 1.0
comment Version 2, Copyright 2017, 8i Labs, Inc.
comment frame_to_world_scale 0.179523
comment frame_to_world_translation -45.2095 7.18301 -54.3561
comment width 1023
element vertex 150
property float x
property float y
property float z
property uchar red
property uchar green
property uchar blue
end_header
240 112 195 105 92 81
240 113 194 106 93 81
240 113 195 105 93 81
241 112 195 104 92 80
241 113 194 106 93 81
241 113 195 105 92 80
240 114 192 108 94 82
240 114 193 108 94 81
240 115 192 109 95 82
241 114 192 108 94 81
241 114 193 107 94 81
241 115 192 108 94 81
242 112 195 104 91 79
242 113 194 106 92 80
242 113 195 105 91 79
243 113 194 106 92 79
243 113 195 104 91 79
242 114 192 108 94 80
242 114 193 107 93 80
242 115 192 108 94 80
243 114 192 108 93 79
243 114 193 107 93 79
243 115 192 108 94 80
242 114 194 106 92 79
243 114 194 106 92 79
240 112 196 104 91 80
241 112 196 104 91 80
242 112 196 103 90 79
243 112 196 103 90 78
243 112 197 101 89 78
244 113 194 105 91 78
244 113 195 104 90 78
245 113 194 104 90 77
245 113 195 103 90 77
244 114 192 108 93 78
244 114 193 107 92 78
244 115 192 108 93 78
245 114 192 107 92 77
245 114 193 106 92 77
245 115 192 108 92 77
244 114 194 106 92 78
245 114 194 106 91 77
246 113 194 103 90 77
246 113 195 102 89 77
247 113 194 102 89 77
247 113 195 101 89 77
246 114 192 106 91 77
246 114 193 105 91 77
246 115 192 107 92 77
247 114 192 105 91 78
247 114 193 105 91 77
247 115 192 106 91 77
246 114 194 104 90 77
247 114 194 103 90 77
244 112 196 102 90 78
244 112 197 101 89 78
245 112 196 102 89 78
245 112 197 100 88 77
246 112 196 101 88 77
246 112 197 99 87 77
246 113 196 101 88 77
247 112 196 100 88 77
247 112 197 99 87 77
247 113 196 100 88 77
247 112 198 98 87 77
248 113 194 102 89 77
248 113 195 101 88 77
249 113 195 100 88 77
248 114 193 104 90 77
248 115 192 105 91 78
249 114 193 103 90 78
249 115 192 104 90 78
249 115 193 103 90 78
248 114 194 102 89 77
249 114 194 101 89 78
250 113 195 99 88 77
251 113 195 99 88 77
250 114 193 102 89 78
250 115 192 103 90 78
250 115 193 102 89 78
251 115 192 102 89 78
251 115 193 101 89 78
250 114 194 101 89 78
250 114 195 100 88 77
251 114 194 100 88 78
251 114 195 99 88 77
248 112 196 99 87 77
248 112 197 98 87 77
248 113 196 99 88 77
249 112 197 98 87 77
249 113 196 99 87 77
248 112 198 98 86 76
249 112 198 97 86 77
250 112 197 97 86 77
250 113 196 99 87 77
250 113 197 97 87 77
251 113 196 98 87 77
251 113 197 97 86 77
250 112 198 96 86 76
251 112 198 96 85 76
251 112 199 94 84 75
252 115 192 101 89 78
252 115 193 100 88 78
253 115 192 100 88 78
253 115 193 100 88 78
252 114 194 99 88 77
252 114 195 99 87 77
252 115 194 100 88 78
253 114 194 99 87 77
253 114 195 98 87 77
253 115 194 99 88 78
254 115 192 99 88 78
254 115 193 98 87 78
255 115 192 98 87 78
255 115 193 98 87 78
254 114 194 98 87 77
254 114 195 97 87 77
254 115 194 98 87 78
255 114 195 96 86 77
255 115 194 97 86 78
255 115 195 96 86 77
252 113 196 97 87 77
252 113 197 97 86 77
253 113 196 97 86 77
253 113 197 96 86 77
252 112 198 95 85 76
252 112 199 94 84 76
252 113 198 96 86 77
253 112 198 95 85 76
253 112 199 94 84 76
253 113 198 96 86 77
253 114 196 98 87 77
254 113 197 96 86 77
255 113 197 95 85 77
254 112 199 94 84 76
254 113 198 95 85 77
255 112 199 93 84 77
255 113 198 94 85 77
255 113 199 94 84 77
254 114 196 96 86 77
254 114 197 96 86 77
255 114 196 96 86 77
255 114 197 95 85 77
254 116 192 99 88 78
255 116 192 98 87 78
253 112 200 92 83 74
254 112 200 92 83 75
255 112 200 93 84 76
255 112 201 92 82 75
255 112 202 91 82 74
