ply
format ascii 1.0
comment Version 2, Copyright 2017, 8i Labs, Inc.
comment frame_to_world_scale 0.179523
comment frame_to_world_translation -45.2095 7.18301 -54.3561
comment width 1023
element vertex 299
property float x
property float y
property float z
property uchar red
property uchar green
property uchar blue
end_header
258 192 160 119 76 77
259 192 160 118 75 75
259 192 161 114 67 69
259 193 160 112 72 70
259 193 161 113 68 68
259 192 162 113 57 64
259 192 163 116 53 64
259 193 162 117 65 67
259 193 163 122 65 70
259 194 160 118 81 80
259 194 161 121 80 80
259 195 160 119 77 77
259 195 161 121 72 75
259 194 162 124 73 75
259 194 163 126 69 72
259 195 162 128 75 78
259 195 163 132 75 79
259 192 164 120 51 67
259 192 165 125 53 71
259 193 164 128 65 74
259 193 165 132 64 75
259 194 164 130 66 72
259 194 165 134 66 73
259 195 164 135 70 76
259 195 165 135 67 73
259 196 160 122 76 74
259 196 161 128 75 77
259 197 160 128 79 79
259 197 161 131 73 77
259 196 162 131 71 75
259 196 163 133 70 76
259 197 162 132 65 72
259 197 163 131 61 71
259 198 160 130 73 77
259 198 161 133 71 77
259 198 162 134 68 75
259 196 164 135 66 76
260 192 165 129 56 73
260 193 165 133 63 75
260 192 166 129 51 72
260 192 167 130 46 71
260 193 166 133 57 71
260 193 167 134 53 71
260 194 165 136 65 73
260 195 165 136 63 70
260 194 166 137 63 72
260 194 167 138 62 73
260 195 166 135 58 64
260 195 167 137 61 68
260 197 163 132 61 72
260 198 161 137 73 80
260 199 160 135 73 78
260 199 161 137 71 77
260 198 162 137 72 79
260 198 163 137 71 78
260 199 162 136 66 73
260 199 163 136 68 74
260 196 164 135 64 73
260 196 165 135 61 70
260 197 164 134 62 73
260 197 165 136 65 75
260 196 166 136 59 68
260 196 167 137 62 71
260 197 166 137 63 74
260 197 167 137 65 73
260 198 164 137 71 77
260 198 165 136 68 74
260 199 164 135 68 74
261 198 165 133 62 67
261 199 164 135 68 72
261 199 165 134 67 69
260 198 166 136 63 73
261 198 166 133 61 67
261 198 167 133 61 68
261 199 166 136 69 72
261 199 167 136 70 77
259 192 172 131 41 72
259 192 173 131 47 75
259 192 174 130 47 75
259 192 175 130 43 75
259 193 174 130 44 74
259 193 175 129 39 74
260 192 168 133 49 73
260 192 169 135 52 76
260 193 168 135 53 72
260 193 169 134 51 71
260 192 170 134 47 74
260 192 171 131 40 72
260 193 170 132 45 70
260 193 171 131 41 69
260 194 168 137 59 72
260 194 169 134 53 69
260 195 168 137 62 69
260 195 169 136 62 69
260 194 170 134 53 70
260 194 171 132 48 69
260 195 170 135 60 69
260 195 171 133 57 69
260 192 172 130 41 72
260 192 173 131 44 73
260 193 172 130 41 70
260 193 173 130 42 70
260 193 174 129 38 70
260 193 175 128 36 73
260 194 172 130 42 66
260 194 173 129 39 66
260 195 172 132 53 68
260 195 173 132 49 68
260 194 174 130 39 68
260 194 175 129 37 71
260 195 174 133 49 70
260 195 175 134 53 71
260 196 168 139 68 75
260 196 169 137 68 72
260 197 168 137 69 74
260 197 169 135 68 70
261 197 168 135 65 71
261 197 169 134 67 69
260 196 170 132 61 64
260 196 171 132 61 66
260 197 170 132 64 66
261 197 170 133 66 69
261 197 171 133 67 70
261 198 168 135 66 73
261 198 169 136 71 77
261 199 168 134 69 76
261 199 169 132 66 71
261 198 170 133 65 73
261 198 171 132 62 70
261 199 170 131 60 65
261 199 171 132 61 65
260 196 172 133 62 69
260 196 173 134 61 70
261 196 172 134 66 72
261 196 173 135 65 70
261 197 172 135 70 73
261 197 173 135 64 68
260 196 174 134 57 70
260 196 175 135 61 70
261 196 174 133 56 65
261 196 175 135 61 66
261 197 174 131 54 57
261 197 175 132 59 57
261 198 172 132 62 70
261 198 173 132 59 63
261 199 172 134 66 69
261 199 173 135 69 70
261 198 174 133 58 58
261 198 175 134 64 57
261 199 174 137 74 68
261 199 175 138 79 66
259 207 160 97 85 102
259 207 161 95 86 102
260 200 160 134 62 68
260 200 161 135 60 67
260 201 160 138 70 75
260 201 161 138 70 71
260 200 162 137 65 72
260 200 163 137 68 74
260 201 162 138 67 70
261 200 163 141 76 80
261 201 162 139 69 72
261 201 163 140 72 77
260 202 160 135 69 79
260 202 161 136 68 72
260 203 160 128 68 85
260 203 161 133 67 81
261 202 161 135 64 71
261 202 162 136 66 70
261 202 163 136 66 72
261 203 162 138 71 80
261 203 163 138 71 78
261 200 164 140 74 78
261 200 165 140 75 78
261 201 164 139 70 76
261 201 165 138 67 72
261 200 166 139 72 76
261 200 167 135 68 74
261 201 166 137 66 69
261 201 167 135 65 68
261 202 164 136 66 74
261 202 165 136 66 73
261 203 164 136 68 74
261 203 165 134 61 69
261 202 166 136 68 70
261 202 167 135 66 69
261 203 166 132 57 62
261 203 167 132 57 63
262 203 167 131 56 63
260 204 160 120 81 98
260 204 161 126 74 92
260 205 160 107 84 100
260 205 161 112 75 95
260 204 162 126 66 85
260 205 162 119 75 93
261 204 162 132 68 82
261 204 163 133 66 78
261 205 162 122 74 91
261 205 163 129 76 91
260 206 160 97 84 102
260 206 161 98 82 100
260 207 160 96 86 103
260 207 161 94 85 101
260 206 162 104 82 100
260 206 163 101 81 98
260 207 162 92 81 101
260 207 163 94 79 101
261 206 163 111 80 97
261 207 163 96 80 99
261 204 164 135 62 74
261 204 165 136 58 71
261 205 164 133 71 86
261 205 165 134 63 79
261 204 166 137 60 69
261 204 167 137 65 71
261 205 166 135 59 72
261 205 167 134 58 65
261 206 164 113 73 91
261 206 165 117 69 85
261 207 164 96 78 98
261 207 165 102 83 98
261 206 166 124 71 83
261 206 167 129 75 80
261 207 166 112 93 101
262 204 167 137 65 69
262 205 167 135 61 65
262 207 167 119 98 100
261 200 168 132 65 70
261 200 169 132 66 70
261 201 168 135 66 69
261 201 169 134 65 69
261 200 170 134 66 69
261 200 171 135 65 67
261 201 170 135 62 68
261 201 171 137 65 69
261 202 168 134 62 66
261 202 169 132 57 61
261 203 168 132 59 64
261 203 169 135 67 66
261 202 170 135 60 62
261 202 171 139 69 65
261 203 170 139 76 69
261 203 171 141 82 68
262 203 168 134 63 66
262 203 170 142 84 72
262 203 171 143 90 72
261 200 172 136 69 68
261 200 173 138 77 70
261 201 172 138 71 69
261 201 173 140 82 70
261 200 174 139 81 69
261 200 175 139 84 66
261 201 174 140 86 68
261 201 175 138 85 60
261 202 172 140 74 66
261 202 173 140 83 69
261 203 172 139 79 65
261 203 173 140 86 68
261 202 174 141 91 71
261 202 175 139 89 65
261 203 174 140 91 70
261 203 175 139 91 68
262 203 172 142 88 69
262 203 173 142 90 70
262 203 174 141 92 70
261 204 169 139 75 71
262 204 168 136 65 66
262 204 169 139 76 71
262 205 168 135 64 62
262 205 169 140 78 69
262 204 170 142 87 73
262 204 171 143 94 73
262 205 170 142 90 73
262 205 171 139 90 66
262 206 168 133 75 73
262 206 169 136 79 69
262 207 168 121 95 92
262 207 169 126 95 87
262 206 170 139 88 69
262 206 171 140 92 70
262 207 170 133 97 85
262 207 171 135 98 82
261 204 175 137 87 61
262 204 172 141 94 69
262 204 173 139 89 62
262 205 172 137 88 60
262 205 173 138 90 61
262 204 174 139 90 63
262 204 175 138 89 61
262 205 174 138 89 59
262 205 175 139 91 64
262 206 172 139 93 68
262 206 173 141 95 70
262 207 172 134 94 75
262 207 173 134 90 71
262 206 174 140 93 67
262 206 175 139 89 62
262 207 174 134 85 65
262 207 175 137 87 66
