ply
format ascii 1.0
comment Version 2, Copyright 2017, 8i Labs, Inc.
comment frame_to_world_scale 0.179523
comment frame_to_world_translation -45.2095 7.18301 -54.3561
comment width 1023
element vertex 294
property float x
property float y
property float z
property uchar red
property uchar green
property uchar blue
end_header
257 208 144 83 97 113
257 208 145 99 101 111
257 209 144 75 95 115
257 209 145 92 101 115
257 208 146 97 93 104
257 208 147 89 86 102
257 209 146 102 101 109
257 210 144 59 90 116
257 210 145 76 97 118
257 211 144 45 87 116
257 211 145 67 99 124
257 210 146 93 104 118
258 208 147 91 86 101
258 209 147 103 96 106
258 210 146 99 105 116
258 210 147 102 102 110
258 211 146 89 108 126
258 211 147 101 108 117
258 208 148 85 81 101
258 208 149 84 81 103
258 209 148 102 88 103
258 209 149 100 81 100
259 208 150 92 91 109
259 208 151 97 97 111
259 209 150 101 86 103
259 209 151 105 92 106
258 210 148 107 93 103
258 210 149 110 82 98
258 211 148 109 99 105
258 211 149 118 85 95
259 210 150 110 79 97
259 210 151 109 80 97
259 211 150 119 75 92
259 211 151 116 71 92
257 212 144 47 90 120
257 212 145 60 98 127
257 213 144 66 99 126
257 213 145 64 102 131
257 214 144 76 102 125
257 214 145 69 104 132
257 215 144 80 101 121
257 215 145 72 102 126
258 212 146 80 106 128
258 212 147 98 110 123
258 213 146 72 105 130
258 213 147 90 109 126
258 214 146 69 105 133
258 214 147 77 105 128
258 215 146 68 103 131
258 215 147 67 102 129
258 212 148 110 104 110
258 212 149 122 88 96
258 213 148 108 108 118
258 213 149 121 98 105
259 213 149 125 88 98
259 212 150 127 76 91
259 212 151 123 69 89
259 213 150 126 77 93
259 213 151 126 70 89
258 214 148 97 109 123
258 214 149 112 106 114
258 215 148 79 104 125
258 215 149 93 107 121
259 214 149 118 100 109
259 215 149 106 106 115
259 214 150 123 85 98
259 214 151 124 74 90
259 215 150 117 98 106
259 215 151 123 88 97
259 208 152 101 96 112
259 208 153 102 94 110
259 209 152 105 93 107
259 209 153 106 95 110
259 208 154 99 91 108
259 210 152 104 80 96
259 210 153 101 83 98
259 211 152 113 74 92
259 211 153 109 83 97
259 208 157 97 85 104
259 208 158 99 83 104
259 208 159 99 80 102
259 209 158 103 85 107
259 209 159 103 84 106
259 212 152 121 66 89
259 212 153 117 67 91
259 213 152 125 68 89
259 213 153 122 64 88
259 214 152 124 72 87
259 214 153 121 70 86
259 215 152 124 81 90
259 215 153 121 74 85
260 209 153 105 94 109
260 208 154 96 88 105
260 208 155 95 87 105
260 209 154 103 92 108
260 209 155 100 90 107
260 210 153 101 87 102
260 211 153 105 87 100
260 210 154 99 88 102
260 210 155 99 88 103
260 211 154 105 88 100
260 211 155 104 91 103
260 208 156 96 87 105
260 208 157 100 87 106
260 209 156 101 88 106
260 209 157 102 88 107
260 209 158 103 87 107
260 210 156 99 87 104
260 210 157 99 86 103
260 211 156 101 89 103
260 211 157 100 88 103
260 210 158 101 87 104
260 210 159 102 86 105
260 211 158 100 88 103
260 211 159 100 89 102
260 212 154 110 68 91
260 212 155 108 77 95
260 213 154 118 61 88
260 213 155 115 69 92
260 215 153 119 73 84
260 214 154 120 69 87
260 214 155 120 71 91
260 215 154 120 72 85
260 215 155 119 69 87
260 212 156 108 84 100
260 212 157 103 88 103
260 213 156 115 81 99
260 213 157 111 86 105
260 212 158 100 87 103
260 212 159 96 85 100
261 212 159 99 88 103
261 213 158 105 87 104
261 213 159 100 88 103
260 214 156 115 72 93
260 214 157 111 71 93
260 215 156 116 66 87
260 215 157 110 63 82
261 214 157 108 73 95
261 215 157 107 65 82
261 214 158 105 76 95
261 214 159 100 83 97
261 215 158 105 74 87
261 215 159 109 89 97
257 216 144 88 100 117
257 216 145 82 101 120
257 217 144 97 101 114
257 217 145 90 100 115
257 218 144 101 101 112
257 218 145 98 103 114
257 219 144 96 97 108
257 219 145 94 95 109
258 216 146 71 100 125
258 216 147 67 101 128
258 217 146 81 101 121
258 217 147 76 102 125
258 218 145 94 100 112
258 219 145 92 94 109
258 218 146 88 99 114
258 218 147 85 100 117
258 219 146 90 94 109
258 219 147 87 94 110
258 216 148 73 103 127
258 216 149 82 106 126
258 217 148 77 104 127
259 216 149 94 109 123
259 217 149 87 108 126
259 216 150 110 106 114
259 216 151 121 99 105
259 217 150 106 110 120
259 217 151 120 105 109
258 218 148 79 102 122
258 219 148 81 97 114
259 218 149 81 104 124
259 219 148 84 98 114
259 219 149 78 100 118
259 218 150 92 106 120
259 218 151 113 108 112
259 219 150 85 101 115
259 219 151 105 107 114
257 220 144 99 98 111
257 220 145 102 99 113
257 221 144 95 96 108
257 221 145 95 95 108
257 222 144 96 98 109
257 222 145 92 95 105
257 223 144 96 95 109
258 220 145 103 100 114
258 221 145 98 96 109
258 220 146 102 100 114
258 220 147 101 98 113
258 221 146 101 98 110
258 221 147 103 97 108
258 222 145 96 98 108
258 223 145 98 91 106
258 222 146 97 97 107
258 222 147 98 96 103
258 223 146 105 92 104
258 223 147 113 93 100
259 222 147 102 96 102
259 223 147 115 95 99
258 220 148 101 99 113
259 220 148 102 100 114
259 220 149 98 102 114
259 221 148 108 97 106
259 221 149 113 101 107
259 220 150 96 99 108
259 220 151 100 98 103
259 221 150 113 100 104
259 221 151 110 95 96
259 222 148 111 96 97
259 222 149 122 99 95
259 223 148 124 99 93
259 223 149 131 101 87
259 222 150 127 101 95
259 222 151 127 102 93
259 223 150 134 102 84
259 223 151 135 102 83
260 222 150 129 102 94
259 216 152 128 90 100
259 216 153 125 81 93
259 217 152 127 92 102
259 217 153 129 84 98
259 218 152 125 96 105
259 219 152 120 103 110
259 220 152 114 101 104
259 220 153 122 103 104
259 221 152 115 97 95
259 221 153 122 104 102
259 222 152 125 102 93
259 223 152 132 101 84
260 216 153 122 75 88
260 217 153 128 81 96
260 216 154 121 74 88
260 216 155 121 72 88
260 217 154 125 78 93
260 217 155 122 75 90
260 218 153 128 84 98
260 219 153 124 88 100
260 218 154 126 80 94
260 218 155 122 80 90
260 219 154 124 82 92
260 219 155 125 88 92
260 216 156 119 71 88
260 216 157 115 70 85
260 217 156 121 76 89
260 217 157 119 78 87
261 217 157 118 81 87
260 216 158 111 69 85
261 216 158 111 75 85
261 216 159 107 83 89
261 217 158 113 79 84
261 217 159 107 78 81
260 218 156 123 84 91
261 218 156 122 88 89
261 218 157 125 94 93
261 219 156 125 95 94
261 219 157 119 94 89
261 218 158 122 93 91
261 218 159 116 88 85
261 219 158 114 88 82
261 219 159 114 87 81
260 220 153 126 101 104
260 221 152 117 100 99
260 221 153 126 105 103
260 220 154 128 95 99
260 220 155 127 93 98
260 221 154 129 102 102
260 221 155 128 97 100
260 222 152 128 101 90
260 222 153 129 104 94
260 223 152 133 101 83
260 223 153 133 102 86
260 222 154 131 104 100
260 222 155 127 97 96
260 223 154 136 109 98
260 223 155 134 108 102
260 220 156 124 95 95
260 221 156 126 99 98
261 220 157 119 93 89
261 221 157 123 100 96
261 220 158 114 89 84
261 220 159 114 89 83
261 221 158 119 97 91
261 221 159 120 99 92
260 222 156 125 97 95
260 223 156 129 102 100
261 222 156 124 96 94
261 222 157 123 99 96
261 223 156 130 103 100
261 223 157 126 98 98
261 222 158 124 104 98
261 222 159 122 104 96
261 223 158 124 98 97
261 223 159 122 101 96
