ply
format ascii 1.0
comment Version 2, Copyright 2017, 8i Labs, Inc.
comment frame_to_world_scale 0.179523
comment frame_to_world_translation -45.2095 7.18301 -54.3561
comment width 1023
element vertex 168
property float x
property float y
property float z
property uchar red
property uchar green
property uchar blue
end_header
271 214 32 162 122 122
271 215 32 161 125 120
266 223 32 122 107 138
266 223 33 131 111 139
267 222 32 122 105 134
267 222 33 137 107 133
267 223 32 119 107 140
267 223 33 135 109 138
266 223 34 146 109 136
266 223 35 163 130 139
267 222 34 149 112 133
267 222 35 156 125 138
267 223 34 151 115 136
267 223 35 158 126 139
266 223 36 170 141 146
266 223 37 174 140 142
267 222 36 169 137 144
267 222 37 169 127 132
267 223 36 169 139 146
267 223 37 173 133 136
266 223 38 171 117 126
266 223 39 178 118 127
267 222 38 175 115 123
267 222 39 182 119 123
267 223 38 175 118 127
267 223 39 179 117 123
269 218 32 162 123 119
269 219 32 162 117 126
269 219 33 170 122 129
269 219 34 173 123 126
270 216 32 167 131 128
270 217 32 161 122 118
270 217 33 168 125 120
271 216 32 167 130 126
271 216 33 167 127 124
271 217 33 168 124 123
271 217 34 171 122 124
270 218 32 168 126 121
270 218 33 171 124 118
270 219 33 173 125 122
270 218 34 171 120 112
270 219 34 176 125 122
270 219 35 178 127 128
271 218 34 177 123 121
271 218 35 180 136 138
271 219 35 178 132 133
270 219 36 178 140 137
270 219 37 178 132 124
271 218 36 177 136 126
271 218 37 182 137 124
271 219 36 178 141 139
271 219 37 182 134 123
270 219 38 183 131 120
270 219 39 187 133 124
271 218 38 182 133 119
271 218 39 186 135 122
271 219 38 182 131 118
271 219 39 186 134 122
268 220 32 151 104 125
268 221 32 143 107 129
268 221 33 154 110 131
269 220 32 158 110 129
269 220 33 161 110 130
268 221 34 162 118 130
268 221 35 167 134 138
269 220 34 166 115 129
269 220 35 172 126 130
269 221 34 161 111 128
269 221 35 167 127 131
268 222 33 146 108 130
268 222 34 156 117 131
268 222 35 161 126 137
270 220 35 179 133 135
268 221 36 173 140 142
269 220 36 179 140 137
269 220 37 179 133 129
269 221 36 177 140 138
269 221 37 175 129 126
268 221 38 176 112 120
268 221 39 179 111 119
269 220 38 179 121 119
269 221 38 181 118 122
269 221 39 180 115 119
268 222 36 174 141 145
268 222 37 175 131 133
268 222 38 172 107 117
268 222 39 181 116 122
270 220 36 182 141 138
270 220 37 180 133 128
270 220 38 184 128 121
270 220 39 183 123 119
266 223 40 181 118 124
266 223 41 171 92 97
267 222 40 178 109 114
267 222 41 178 92 107
267 223 40 184 121 128
267 223 41 179 102 115
266 223 42 167 80 91
266 223 43 164 75 95
267 222 42 171 74 97
267 222 43 171 78 97
267 223 42 170 80 100
267 223 43 166 72 93
266 223 44 164 77 98
267 222 44 168 70 93
267 222 45 167 66 93
267 223 44 165 71 93
267 223 45 163 62 92
267 223 46 159 56 89
267 223 47 155 53 85
270 219 40 183 126 117
270 219 41 181 116 110
271 218 40 183 135 116
271 218 41 182 125 108
271 219 40 183 132 117
271 219 41 182 125 110
270 219 42 181 106 106
270 219 43 176 86 94
271 218 42 184 121 108
271 218 43 185 117 107
271 219 43 182 104 104
270 219 44 178 89 97
270 219 45 175 82 96
271 218 44 183 110 105
271 218 45 184 110 107
270 219 46 169 63 88
270 219 47 170 51 90
271 218 46 179 100 102
271 218 47 173 80 93
268 221 40 179 107 111
268 221 41 172 81 94
269 220 40 176 104 106
269 220 41 177 90 100
269 221 40 178 108 111
269 221 41 175 84 97
268 221 42 177 82 100
268 221 43 179 81 103
269 220 42 177 81 99
269 220 43 179 80 102
269 221 42 176 78 97
269 221 43 180 80 103
268 222 40 179 107 112
268 222 41 175 89 102
268 222 42 175 82 101
268 222 43 175 78 99
270 220 40 178 113 110
270 220 41 179 100 105
270 220 42 179 92 104
270 220 43 176 77 97
269 220 44 178 76 100
269 220 45 173 65 93
269 221 44 176 74 100
269 221 45 176 77 101
269 221 46 175 71 98
269 221 47 171 61 94
268 222 44 173 77 96
268 222 45 169 65 90
268 223 45 167 62 92
268 222 46 163 53 88
268 222 47 161 63 90
268 223 46 162 58 91
268 223 47 159 58 87
269 222 46 167 61 91
269 222 47 164 63 89
270 220 44 177 76 97
270 220 45 172 65 94
270 220 46 173 66 96
270 220 47 173 57 97
