ply
format ascii 1.0
comment Version 2, Copyright 2017, 8i Labs, Inc.
comment frame_to_world_scale 0.179523
comment frame_to_world_translation -45.2095 7.18301 -54.3561
comment width 1023
element vertex 320
property float x
property float y
property float z
property uchar red
property uchar green
property uchar blue
end_header
256 464 86 105 118 143
256 465 86 123 127 143
257 464 86 107 121 150
257 465 86 124 127 144
256 466 86 123 128 146
256 466 87 104 117 140
256 467 87 100 117 139
257 466 86 110 121 143
257 466 87 99 116 140
257 467 87 104 119 139
259 464 85 88 111 148
259 465 85 105 117 143
258 464 86 97 116 149
258 465 86 118 124 145
259 464 86 91 112 147
259 465 86 113 122 144
258 466 86 103 118 141
258 467 86 108 122 140
259 466 86 103 118 143
259 467 86 110 124 145
256 468 87 118 127 142
256 469 87 106 118 138
257 468 87 130 133 143
257 469 87 122 128 141
256 470 87 90 104 121
256 471 86 103 113 125
256 471 87 101 111 123
257 470 86 101 113 130
257 470 87 95 108 126
257 471 86 84 101 120
257 471 87 85 102 121
258 468 86 139 140 147
258 468 87 140 141 148
258 469 86 142 143 150
258 469 87 132 135 144
259 468 86 147 147 154
259 469 86 155 152 156
258 470 86 108 119 134
258 470 87 118 125 137
258 471 86 76 98 119
259 470 86 127 133 146
259 471 86 83 102 125
260 464 85 92 116 150
260 465 85 108 121 145
261 464 85 95 117 152
261 465 85 107 122 150
260 466 85 119 127 149
261 466 85 100 118 147
260 466 86 96 114 143
260 467 86 103 121 148
261 466 86 75 103 140
261 467 86 97 118 145
262 464 84 96 116 147
262 464 85 97 116 145
262 465 85 99 118 145
263 464 84 79 106 144
263 465 84 84 108 144
263 465 85 91 113 145
262 466 85 91 113 147
262 467 85 87 109 135
263 466 85 83 106 148
263 467 85 67 94 133
260 468 86 150 149 156
260 469 86 161 155 156
261 468 86 146 147 155
261 469 86 161 155 154
260 470 86 142 143 152
260 471 86 102 115 135
261 470 86 154 151 156
261 471 86 120 127 141
262 468 85 134 136 144
263 468 85 111 122 138
263 469 85 134 136 142
262 468 86 150 147 151
262 469 86 157 150 148
263 470 85 125 129 138
262 470 86 160 154 155
262 471 86 145 143 147
263 470 86 153 149 151
263 471 86 136 137 144
256 472 86 123 125 132
256 473 86 132 129 132
257 472 86 101 111 126
257 473 86 124 126 133
256 474 86 127 123 124
256 474 87 119 117 118
256 475 86 110 109 111
256 475 87 114 112 115
257 474 86 129 126 128
257 474 87 125 121 122
257 475 87 118 116 117
258 472 86 73 95 116
258 473 86 111 118 130
259 472 86 55 86 115
259 473 86 78 98 120
258 474 86 128 128 131
258 474 87 125 123 126
258 475 87 121 118 119
259 474 86 116 121 131
259 474 87 108 114 125
259 475 87 116 117 123
256 476 86 109 107 107
256 477 86 106 103 104
257 476 87 109 107 107
257 477 87 103 101 102
256 478 87 95 96 100
256 479 86 66 75 89
256 479 87 76 83 92
257 478 87 96 97 100
257 479 87 80 86 94
258 476 87 112 109 109
258 477 87 103 101 103
259 476 87 110 109 113
259 477 87 96 97 101
258 478 87 91 92 96
258 479 87 82 86 92
259 478 87 84 87 92
259 479 87 88 91 97
260 472 86 64 90 122
260 473 86 48 81 118
260 473 87 50 83 116
261 472 86 81 100 124
261 473 87 69 94 122
260 474 87 75 96 117
260 475 87 100 108 120
261 474 87 69 96 120
261 475 87 73 95 117
262 472 86 119 124 134
262 473 86 124 132 143
262 473 87 104 118 136
263 472 86 134 137 144
263 473 86 121 130 143
262 474 87 105 119 137
262 475 87 84 104 125
263 474 86 90 110 131
263 474 87 92 110 129
263 475 87 50 83 112
260 476 87 86 96 108
260 477 87 70 84 97
261 476 87 62 85 108
261 477 87 58 81 100
260 478 87 78 87 97
260 479 87 87 92 99
261 478 87 65 81 97
261 479 87 64 78 91
262 476 87 71 92 116
262 477 87 67 85 106
263 476 87 39 69 103
263 477 87 38 67 95
262 478 87 61 78 95
262 479 87 52 70 85
263 478 87 38 66 89
263 479 87 44 67 86
265 464 83 61 85 132
266 464 83 64 88 134
266 465 83 72 99 142
267 464 83 61 86 133
267 465 83 73 100 144
267 466 83 61 93 143
267 467 83 53 81 140
264 464 84 57 92 138
264 465 84 77 105 143
265 464 84 59 88 134
265 465 84 80 106 145
264 466 84 78 104 145
264 467 84 54 84 134
264 467 85 48 81 131
265 466 84 69 100 143
265 467 84 48 80 134
266 465 84 80 105 146
266 466 84 64 97 143
266 467 84 52 85 135
267 466 84 58 89 142
267 467 84 49 79 134
264 468 85 51 82 124
264 469 85 51 85 119
265 468 84 35 67 124
265 468 85 29 65 120
265 469 85 25 66 118
264 470 85 49 82 119
264 471 85 31 68 113
265 470 85 28 69 121
265 471 85 26 65 117
264 471 86 58 84 119
266 468 84 28 69 119
266 469 84 26 72 113
267 468 84 48 80 124
267 469 84 66 94 123
266 470 84 66 93 124
266 470 85 57 86 126
266 471 85 45 80 121
267 470 84 79 103 131
267 470 85 69 97 127
267 471 85 65 97 125
268 464 83 62 85 133
268 465 83 73 96 143
269 464 82 71 92 135
269 465 82 79 103 144
269 465 83 79 101 144
268 466 83 57 89 142
268 467 83 46 77 136
269 466 83 67 98 145
269 467 83 58 89 139
270 464 82 79 101 140
270 465 82 85 111 146
271 464 82 86 112 147
271 465 82 97 122 155
270 466 82 82 113 150
270 467 82 75 108 148
270 467 83 73 104 146
271 466 82 94 123 156
271 467 82 87 115 150
268 467 84 45 73 135
268 468 83 59 80 132
269 468 83 57 83 131
269 469 83 70 91 133
269 470 83 52 81 125
270 468 83 67 95 139
270 469 83 60 88 132
271 468 82 80 106 142
271 468 83 75 101 140
271 469 83 68 97 136
270 470 83 54 86 130
270 471 83 53 88 134
271 470 83 64 95 137
271 471 83 68 96 138
268 468 84 66 87 134
268 469 84 100 115 144
269 469 84 92 106 140
268 470 84 86 106 137
268 471 84 93 113 139
268 471 85 105 122 145
269 470 84 68 91 130
269 471 84 57 89 131
270 471 84 44 82 130
264 472 86 52 83 118
264 473 86 58 87 122
265 472 86 33 72 115
265 473 86 50 83 120
264 474 86 52 84 122
264 475 86 53 85 123
264 475 87 42 77 116
265 474 86 70 95 128
265 475 86 84 105 134
266 472 85 53 86 123
267 472 85 86 111 136
267 473 85 117 132 151
266 472 86 64 93 127
266 473 86 72 100 129
267 472 86 76 104 131
267 473 86 97 118 140
266 474 86 77 101 127
266 475 86 72 95 121
267 474 86 87 108 131
267 475 86 68 94 120
264 476 86 64 91 121
264 476 87 48 80 116
264 477 86 75 97 123
264 477 87 65 87 113
265 476 86 89 109 133
265 477 86 89 106 128
264 478 86 76 94 115
264 478 87 67 86 105
264 479 87 69 82 97
265 478 86 75 92 110
265 479 86 56 74 89
265 479 87 56 72 86
266 476 86 87 104 125
266 477 86 102 115 133
267 476 86 79 99 123
267 477 86 90 106 127
266 478 86 101 112 129
266 479 86 91 102 116
267 478 86 98 111 131
267 479 86 96 107 123
271 472 83 58 85 131
271 473 83 49 80 131
268 472 85 102 122 146
268 473 85 84 109 132
269 472 84 53 85 127
269 472 85 53 88 125
269 473 85 55 90 124
268 474 85 70 96 121
268 475 85 83 104 126
269 474 85 86 108 130
269 475 85 109 122 139
268 474 86 67 95 120
268 475 86 66 93 119
270 472 84 55 82 131
270 473 84 58 85 133
271 472 84 56 82 131
271 473 84 50 81 134
270 474 84 75 101 136
270 474 85 89 111 139
270 475 85 94 113 135
271 474 84 46 86 134
271 475 84 53 92 128
268 476 85 102 117 135
268 477 85 110 121 138
269 476 85 118 128 143
269 477 85 108 120 138
268 476 86 82 102 126
268 477 86 98 113 132
269 478 85 85 103 124
269 479 85 84 101 120
268 478 86 98 113 131
268 479 86 90 103 120
269 478 86 89 106 125
269 479 86 88 103 121
270 476 85 88 107 127
270 477 85 80 100 121
271 476 84 79 101 129
271 476 85 73 96 124
271 477 84 91 106 126
271 477 85 92 107 128
270 478 85 93 107 124
270 479 85 99 110 127
271 478 84 100 112 127
271 478 85 101 112 127
271 479 85 103 113 128
