ply
format ascii 1.0
comment Version 2, Copyright 2017, 8i Labs, Inc.
comment frame_to_world_scale 0.179523
comment frame_to_world_translation -45.2095 7.18301 -54.3561
comment width 1023
element vertex 295
property float x
property float y
property float z
property uchar red
property uchar green
property uchar blue
end_header
256 416 74 127 137 157
256 416 75 137 144 160
256 417 75 132 137 157
257 416 74 123 136 165
257 417 74 135 141 167
256 418 75 133 140 165
256 419 75 97 117 150
257 418 74 137 141 165
257 418 75 119 131 155
257 419 75 92 113 148
259 417 73 103 121 159
258 416 74 111 128 160
258 417 74 120 131 161
259 416 74 127 137 165
259 417 74 108 125 159
259 418 73 82 109 153
258 418 74 114 128 157
258 418 75 93 117 146
258 419 74 97 115 153
258 419 75 93 112 150
259 418 74 103 123 161
259 419 74 112 126 162
256 420 75 90 111 146
256 421 75 102 116 148
257 420 75 86 104 145
257 421 75 110 121 152
256 422 75 113 126 146
256 423 75 113 124 145
257 422 75 131 139 154
257 423 75 127 135 149
258 420 75 77 92 139
258 421 75 97 109 143
259 420 74 97 115 150
259 421 74 119 133 157
258 422 75 129 136 154
258 423 75 133 140 157
259 422 74 146 149 166
259 422 75 132 138 158
259 423 75 120 129 153
260 416 73 136 144 168
260 417 73 111 126 159
261 416 73 126 138 162
261 417 73 114 127 156
260 418 73 87 108 147
261 418 73 91 112 143
261 419 73 125 140 160
260 418 74 79 102 150
260 419 74 120 133 167
261 419 74 135 148 170
262 416 73 90 114 145
262 417 73 69 99 135
263 416 73 69 97 135
263 417 73 27 75 129
262 418 73 73 98 134
262 419 73 128 137 158
263 418 73 31 69 124
263 419 73 68 90 124
260 420 74 123 138 162
260 421 74 136 144 162
261 420 74 135 148 167
261 421 74 122 133 151
260 422 74 153 155 167
260 423 74 134 138 158
261 422 74 149 151 163
261 423 74 145 149 166
262 420 73 135 144 164
263 420 73 92 107 132
263 421 73 71 91 121
262 420 74 129 140 161
262 421 74 110 122 143
263 421 74 78 96 126
262 422 74 127 134 149
262 423 74 144 149 167
263 422 74 72 91 125
263 423 74 109 119 148
256 424 75 96 106 136
256 425 75 82 97 121
257 424 75 130 136 152
257 425 75 115 124 143
256 426 75 83 98 115
256 427 75 76 92 108
257 426 75 120 124 133
257 427 75 106 112 123
258 424 75 141 149 163
258 425 75 136 142 160
259 424 75 110 125 150
259 425 75 110 123 149
258 426 75 131 135 148
258 427 75 129 132 140
259 426 75 117 127 151
259 427 75 117 125 138
256 428 75 93 103 115
256 429 75 120 125 134
257 428 75 85 98 114
257 429 75 94 108 125
256 430 75 121 125 136
256 431 75 115 125 141
257 430 75 100 112 128
257 431 75 102 114 131
258 428 75 97 107 122
258 429 75 71 93 116
259 428 75 100 113 129
259 429 75 79 98 118
258 430 75 76 96 118
258 431 75 83 99 119
259 430 75 75 93 115
259 431 75 96 106 124
260 424 74 121 132 156
260 424 75 113 126 152
260 425 74 118 131 154
260 425 75 114 127 153
261 424 74 130 140 163
261 425 74 105 121 147
261 425 75 105 120 147
260 426 75 104 119 149
260 427 75 90 108 138
261 426 74 92 109 140
261 427 74 104 118 146
262 424 74 130 140 162
262 425 74 108 125 148
263 424 74 115 127 151
263 425 74 110 126 149
262 426 74 121 133 154
262 427 74 136 145 162
263 426 74 122 135 155
263 427 74 128 141 161
260 428 75 97 113 133
260 429 75 92 107 124
261 428 74 107 121 144
261 428 75 100 115 135
261 429 75 94 107 123
260 430 75 87 101 117
260 431 75 105 113 127
261 430 75 107 115 127
261 431 75 103 111 125
262 428 74 114 128 146
262 429 74 112 122 135
262 429 75 111 119 130
263 428 74 121 134 154
263 429 74 122 130 143
262 430 74 136 139 147
262 430 75 131 135 144
262 431 75 112 120 132
263 430 74 123 128 137
263 431 74 102 111 125
263 431 75 123 128 137
264 416 73 51 88 129
264 417 72 58 89 131
264 417 73 39 75 127
265 416 72 77 105 139
265 417 72 85 109 139
265 417 73 77 100 133
264 418 73 36 63 120
264 419 73 67 79 121
265 418 73 72 93 128
265 419 73 70 86 123
266 416 72 100 118 149
266 417 72 115 128 147
267 416 72 94 112 146
267 417 72 117 128 147
266 418 72 123 134 152
266 418 73 115 127 147
266 419 73 100 115 139
267 418 72 121 132 150
267 419 72 101 120 149
267 419 73 110 126 151
264 420 73 67 81 118
264 421 73 48 72 111
265 420 73 60 80 117
265 421 73 88 105 135
264 421 74 43 73 113
264 423 73 98 113 150
265 422 73 104 119 148
265 423 73 98 116 149
264 422 74 71 92 130
264 423 74 97 111 147
265 422 74 104 119 150
266 420 73 87 106 133
266 421 73 102 118 143
267 420 73 100 120 149
267 421 73 72 100 135
266 422 73 96 115 142
266 423 73 91 112 142
267 422 73 68 94 130
267 423 73 73 97 133
268 416 72 87 106 142
268 417 72 114 127 148
269 416 72 90 109 140
269 417 72 110 126 148
268 418 72 114 127 148
268 418 73 112 127 147
268 419 72 96 118 146
269 418 72 114 129 150
269 419 72 109 127 152
270 416 72 77 101 138
270 417 72 81 107 140
271 416 72 72 97 129
271 417 72 74 100 134
270 418 72 79 108 138
270 419 72 80 108 141
271 418 72 69 97 131
271 419 72 54 89 125
268 420 73 67 100 140
268 421 73 61 91 138
269 420 72 85 111 144
269 421 72 82 105 147
269 421 73 71 98 143
268 422 73 72 95 140
268 423 73 85 104 143
269 422 73 66 92 141
269 423 73 71 97 140
270 420 72 83 109 144
270 421 72 93 114 148
271 420 72 58 89 128
271 421 72 61 90 133
270 422 72 90 111 142
270 423 72 117 132 152
270 423 73 85 108 138
271 422 72 69 94 134
271 423 72 98 117 142
264 424 73 94 113 148
264 425 73 73 100 139
265 424 73 72 100 139
265 425 73 75 101 139
264 424 74 97 115 149
264 425 74 86 109 142
264 426 74 88 110 141
264 427 74 91 114 145
265 426 74 77 99 139
265 427 74 82 104 142
266 424 73 84 109 141
266 425 73 88 109 141
267 424 73 73 98 132
267 425 73 83 105 135
266 426 73 91 111 143
267 426 73 98 115 143
266 426 74 95 114 144
266 427 74 92 111 141
267 426 74 98 117 144
267 427 74 97 115 141
264 428 74 93 116 146
264 429 74 83 103 131
265 428 74 85 108 139
265 429 74 79 100 136
264 430 74 71 91 111
264 431 74 47 78 106
265 430 74 72 95 120
265 431 74 47 81 109
266 428 74 97 115 138
266 429 74 96 114 137
267 428 74 96 114 137
267 429 74 101 116 136
266 430 74 106 119 138
266 431 74 98 112 128
267 430 74 108 121 138
267 431 74 118 125 138
268 424 73 84 108 142
268 425 73 98 118 145
269 424 73 76 105 143
269 425 73 80 110 143
268 426 73 93 115 145
268 427 73 72 102 135
269 426 73 70 104 140
269 427 73 68 101 139
268 427 74 79 104 134
270 424 73 109 127 149
270 425 73 94 118 146
271 424 72 122 134 152
271 424 73 131 142 157
271 425 72 109 123 145
271 425 73 116 132 157
270 426 73 82 109 144
270 427 73 78 105 143
271 426 73 95 120 152
271 427 73 77 105 142
268 428 73 92 110 138
268 429 73 93 109 138
269 428 73 90 110 143
269 429 73 96 112 143
268 428 74 89 109 134
268 429 74 93 110 136
269 430 73 96 113 141
268 430 74 92 110 135
268 431 74 101 115 140
269 430 74 99 116 140
269 431 74 108 122 144
270 428 73 93 112 146
270 429 73 110 125 152
271 428 73 79 103 141
271 429 73 106 124 155
270 430 73 108 125 148
271 430 73 103 125 152
271 431 73 97 121 148
270 430 74 117 132 153
270 431 74 119 133 153
