ply
format ascii 1.0
comment Version 2, Copyright 2017, 8i Labs, Inc.
comment frame_to_world_scale 0.179523
comment frame_to_world_translation -45.2095 7.18301 -54.3561
comment width 1023
element vertex 34
property float x
property float y
property float z
property uchar red
property uchar green
property uchar blue
end_header
256 32 129 172 150 148
256 33 128 164 146 141
256 33 129 170 150 147
257 32 129 175 152 149
257 33 128 168 149 145
257 33 129 172 150 147
256 32 130 175 154 151
257 32 130 177 154 152
256 34 128 155 139 133
258 32 128 174 152 149
258 32 129 177 153 150
258 33 128 171 151 149
259 32 128 175 152 153
259 32 129 179 154 153
258 32 130 176 152 150
260 32 128 176 152 151
260 32 129 174 150 149
261 32 128 173 150 149
261 32 129 164 141 141
262 32 128 165 139 141
262 32 129 151 125 127
263 32 128 157 129 134
263 32 129 145 120 125
264 32 128 158 133 138
264 32 129 177 157 161
265 32 128 144 116 123
265 32 129 154 131 141
266 32 128 121 96 106
266 32 129 128 107 114
267 32 128 122 105 105
267 32 129 130 116 115
268 32 128 119 106 101
269 32 128 112 106 105
270 32 128 133 126 126
