ply
format ascii 1.0
comment Version 2, Copyright 2017, 8i Labs, Inc.
comment frame_to_world_scale 0.179523
comment frame_to_world_translation -45.2095 7.18301 -54.3561
comment width 1023
element vertex 370
property float x
property float y
property float z
property uchar red
property uchar green
property uchar blue
end_header
256 544 225 120 133 174
256 545 225 123 139 177
256 544 226 115 128 173
256 545 226 123 139 179
257 544 226 109 127 174
257 544 227 107 126 174
257 545 226 105 127 173
257 545 227 102 126 174
256 546 225 120 138 176
256 547 225 123 141 178
256 546 226 120 138 179
256 547 226 123 141 180
257 546 226 121 139 182
257 546 227 107 130 178
257 547 226 124 144 182
257 547 227 112 136 179
258 544 227 103 125 172
258 545 227 102 126 173
259 545 227 103 124 168
258 546 227 97 123 173
258 547 227 105 130 175
259 546 227 94 120 168
259 547 227 93 117 166
259 544 228 89 114 161
259 545 228 101 122 164
259 546 228 86 108 157
259 547 228 86 109 159
256 548 225 121 138 175
256 549 225 118 135 176
256 548 226 125 143 178
256 549 226 124 142 179
257 548 226 132 151 185
257 548 227 129 150 186
257 549 226 136 154 188
256 550 225 110 128 177
256 551 225 105 123 176
256 550 226 113 131 178
256 551 226 101 119 176
257 550 226 112 131 178
257 551 226 96 116 172
258 548 227 123 144 181
258 549 226 129 148 184
258 549 227 134 152 187
259 548 227 101 123 166
259 549 227 122 140 174
258 550 226 102 122 170
258 550 227 115 133 173
258 551 226 95 116 168
258 551 227 101 121 166
259 550 227 113 130 166
259 551 227 101 118 160
259 548 228 90 110 158
259 549 228 113 131 166
260 544 228 82 109 156
260 544 229 84 114 158
260 545 228 90 114 155
261 544 229 86 113 157
261 545 229 95 118 159
260 546 228 91 112 156
260 547 228 97 116 160
261 546 229 110 130 166
261 547 229 112 129 166
262 545 229 110 130 168
262 544 230 103 126 170
262 545 230 121 139 178
263 544 230 90 116 163
263 544 231 76 106 155
263 545 230 113 135 176
263 545 231 103 127 169
262 547 229 133 149 180
262 546 230 139 158 186
262 547 230 135 154 183
263 546 230 139 159 191
263 546 231 120 143 180
263 547 230 128 150 182
263 547 231 121 143 180
260 548 228 90 109 155
260 549 228 88 110 154
261 548 229 102 122 163
261 549 229 91 116 161
260 550 228 91 113 155
260 551 228 89 110 155
261 550 229 99 125 169
261 551 229 100 124 171
262 548 229 114 136 172
262 549 229 101 127 166
262 548 230 120 142 176
262 549 230 135 156 187
263 548 230 134 154 184
263 549 230 157 173 197
262 550 230 136 159 191
262 551 230 116 142 182
263 550 230 159 175 199
263 551 230 145 164 194
256 552 225 103 125 176
256 553 225 110 134 177
256 552 226 98 118 175
256 553 226 98 121 173
257 552 226 92 114 170
257 553 226 95 117 168
256 554 225 120 141 179
256 555 225 127 144 179
257 554 226 110 129 172
257 555 226 116 133 172
258 552 226 89 111 164
258 552 227 95 116 162
258 553 226 86 108 161
258 553 227 98 117 163
259 552 227 101 118 160
259 553 227 108 126 164
258 554 227 101 117 162
258 555 226 101 116 161
258 555 227 101 118 160
259 554 227 102 121 160
259 555 226 86 104 149
259 555 227 101 117 157
256 556 225 128 142 177
256 557 225 126 141 176
257 557 225 120 134 169
257 556 226 121 135 170
257 557 226 117 131 167
256 558 225 121 135 170
256 559 225 114 130 169
257 558 225 106 122 158
257 559 225 101 119 156
258 556 226 97 114 158
258 557 226 104 120 158
259 556 226 86 104 149
259 556 227 94 110 152
259 557 226 77 100 147
259 557 227 100 122 160
258 558 225 102 118 156
258 558 226 89 108 152
258 559 226 91 112 154
259 558 226 84 109 157
259 558 227 105 129 170
259 559 226 94 119 167
259 559 227 89 119 166
260 554 227 102 121 160
260 555 227 113 130 163
260 552 228 89 110 158
260 553 228 99 121 166
261 552 228 95 118 167
261 552 229 103 128 177
261 553 229 109 134 181
260 554 228 112 131 171
260 555 228 132 147 178
261 554 229 123 148 189
261 555 228 141 158 189
261 555 229 123 150 187
262 553 229 110 141 186
262 552 230 109 138 181
262 553 230 106 138 184
263 552 230 117 143 182
263 553 230 97 130 178
262 554 229 115 144 190
262 555 229 113 141 188
263 554 229 109 139 187
263 555 229 117 143 191
263 554 230 102 133 183
260 556 227 115 133 163
260 557 227 134 154 180
260 558 227 133 155 188
260 559 227 105 134 177
261 559 227 132 156 193
260 556 228 135 152 178
260 557 228 127 146 174
261 556 228 126 148 178
261 556 229 115 144 180
261 557 228 147 167 194
261 557 229 143 164 196
261 558 228 148 171 199
261 559 228 140 164 197
262 556 229 120 147 191
262 557 228 146 166 201
262 557 229 138 160 199
263 556 229 121 147 193
263 557 229 122 148 192
262 558 228 129 156 193
262 559 228 124 151 191
263 558 228 103 134 183
263 559 228 109 138 185
264 544 231 125 148 185
264 545 231 98 119 169
265 545 231 123 147 188
264 546 231 107 126 176
264 547 231 115 136 180
265 546 231 107 126 179
265 547 231 126 148 189
267 544 231 143 161 197
267 545 231 106 128 184
266 546 231 102 122 180
266 547 231 118 140 185
267 546 231 99 122 181
267 547 231 121 141 185
264 548 231 144 163 192
264 549 230 167 179 200
264 549 231 162 177 198
265 548 231 153 171 197
265 549 230 176 187 204
265 549 231 170 184 203
264 550 230 172 183 203
264 551 230 167 179 202
265 550 230 181 189 207
265 551 230 165 172 197
267 549 229 117 136 168
266 548 231 155 173 199
266 549 230 179 190 207
266 549 231 178 191 210
267 548 230 142 159 189
267 548 231 154 172 199
267 549 230 161 175 195
266 551 229 120 131 167
267 550 229 108 125 164
267 551 228 121 143 178
267 551 229 113 133 167
266 550 230 171 181 201
266 551 230 146 155 184
267 550 230 132 149 175
269 544 224 67 87 134
269 544 225 66 88 135
269 545 224 77 99 137
269 545 225 61 85 130
269 544 226 76 94 135
269 544 227 94 113 147
269 545 226 78 100 137
269 545 227 112 129 158
269 546 224 78 102 137
269 546 225 78 102 137
269 547 224 79 104 137
269 547 225 88 108 140
269 546 226 90 111 147
269 546 227 113 132 161
269 547 226 88 112 145
269 547 227 99 124 158
270 544 225 69 94 137
270 544 226 82 104 140
270 544 227 95 110 145
269 544 228 122 141 171
269 544 229 122 146 179
269 545 228 122 143 172
269 545 229 134 156 184
268 544 231 133 155 191
268 545 230 113 137 182
268 545 231 104 127 182
269 544 230 118 140 177
269 544 231 124 145 179
269 545 230 133 153 186
268 547 229 119 141 179
269 546 228 127 148 175
269 546 229 128 149 178
269 547 228 123 143 175
269 547 229 120 142 176
268 546 230 117 142 182
268 546 231 100 124 181
268 547 230 118 141 182
269 546 230 131 153 184
270 544 228 113 131 164
270 544 229 100 123 162
268 549 224 79 105 141
268 549 225 87 111 146
269 548 224 80 107 138
269 548 225 91 113 142
269 549 224 87 112 143
269 549 225 91 115 144
268 548 227 91 110 156
268 549 226 91 110 151
268 549 227 93 115 160
269 548 226 93 114 147
269 548 227 97 119 158
269 549 226 95 114 153
268 550 224 63 93 135
268 550 225 73 99 139
268 551 224 64 91 134
268 551 225 87 109 144
268 550 226 103 122 159
268 550 227 110 133 168
268 551 226 113 130 163
268 551 227 129 147 178
268 548 228 90 111 158
268 548 229 114 130 175
268 549 228 91 112 160
268 549 229 106 122 167
269 548 228 106 127 167
268 548 230 131 146 185
268 550 228 92 118 164
268 550 229 91 110 161
268 551 228 94 123 165
265 544 232 138 164 196
265 545 232 125 150 191
265 546 232 107 128 180
266 544 232 127 152 193
266 545 232 110 134 187
267 544 232 138 158 198
267 545 232 107 126 185
266 546 232 102 124 180
267 553 224 89 107 143
267 553 225 101 117 150
267 552 226 136 150 176
267 552 227 152 167 190
267 553 226 133 148 174
267 553 227 158 172 191
267 554 224 89 106 141
267 554 225 98 117 151
267 555 224 95 113 145
267 555 225 106 126 157
266 554 227 146 165 190
266 555 227 120 143 176
267 554 226 125 144 174
267 554 227 147 164 188
267 555 226 119 140 172
267 555 227 127 148 178
264 553 229 85 112 165
265 553 229 101 122 169
264 552 230 142 156 189
264 553 230 100 128 175
265 552 230 138 148 182
265 553 230 101 119 168
264 554 229 101 128 178
264 555 229 110 139 184
265 554 229 115 141 181
265 555 228 119 146 184
265 555 229 123 149 188
264 554 230 93 122 175
266 552 229 111 125 165
266 553 228 146 164 189
266 553 229 122 142 178
267 552 228 144 162 188
267 552 229 116 135 171
267 553 228 152 168 190
266 552 230 117 129 168
266 554 228 141 161 189
266 554 229 132 153 187
266 555 228 126 150 184
267 554 228 152 169 192
265 557 227 109 134 178
264 559 227 122 147 191
265 558 226 110 136 175
265 558 227 113 137 179
265 559 226 108 132 174
265 559 227 116 140 183
266 556 225 99 123 153
266 557 224 88 110 143
266 557 225 93 117 151
267 556 224 97 116 145
267 556 225 110 130 158
266 556 226 105 129 165
266 556 227 100 128 169
266 557 226 101 126 166
266 557 227 100 127 171
266 558 224 70 97 139
266 558 225 77 108 150
266 559 224 72 100 147
266 559 225 90 115 160
266 558 226 102 129 169
266 559 226 101 128 169
264 556 229 117 147 189
264 557 228 114 143 188
264 557 229 125 153 194
265 556 228 101 131 176
265 556 229 110 140 182
265 557 228 99 129 176
264 558 228 103 132 184
264 559 228 111 139 187
265 558 228 109 134 183
266 556 228 99 128 172
268 552 224 85 107 142
268 552 225 108 127 155
268 552 226 128 142 169
268 552 227 142 157 184
