ply
format ascii 1.0
comment Version 2, Copyright 2017, 8i Labs, Inc.
comment frame_to_world_scale 0.179523
comment frame_to_world_translation -45.2095 7.18301 -54.3561
comment width 1023
element vertex 82
property float x
property float y
property float z
property uchar red
property uchar green
property uchar blue
end_header
256 48 231 111 102 96
256 49 231 110 101 96
256 50 231 118 108 103
256 51 231 128 118 112
256 52 231 130 119 114
256 48 232 114 105 100
256 48 233 118 108 102
256 49 232 116 106 100
256 49 233 121 111 105
256 48 234 125 114 108
256 48 235 132 121 115
256 49 234 129 117 110
256 49 235 135 123 116
256 50 232 124 113 107
256 50 233 129 118 112
256 51 232 131 120 115
256 51 233 134 123 117
256 50 234 134 122 116
256 50 235 138 127 120
256 51 234 135 124 119
256 51 235 138 127 122
256 48 236 139 127 120
256 48 237 143 131 125
256 49 236 140 128 120
256 49 237 145 132 125
256 48 238 147 134 127
256 48 239 149 136 128
256 49 238 149 136 128
256 49 239 152 138 130
256 50 236 144 132 125
256 50 237 148 135 128
256 51 236 141 130 124
256 51 237 144 132 126
256 50 238 150 138 130
256 50 239 152 139 132
256 51 238 146 134 127
256 51 239 147 135 128
256 52 232 129 118 111
256 52 233 130 119 113
256 53 232 122 111 104
256 53 233 122 110 102
256 52 234 132 121 115
256 52 235 133 122 116
256 53 234 123 111 103
256 53 235 124 112 104
256 54 233 114 100 88
256 54 234 114 99 87
256 54 235 116 102 90
256 55 234 118 100 81
256 55 235 121 103 86
256 52 236 135 123 116
256 52 237 137 124 116
256 53 236 126 111 100
256 53 237 126 111 99
256 52 238 137 123 115
256 52 239 136 122 113
256 53 238 125 109 97
256 53 239 123 108 96
256 54 236 119 102 86
256 54 237 120 102 86
256 55 236 121 103 84
256 55 237 122 103 84
256 54 238 120 102 85
256 54 239 120 103 87
256 55 238 123 103 84
256 56 235 122 104 88
256 57 235 121 103 86
256 58 235 120 101 85
256 59 235 118 100 82
256 56 236 123 104 86
256 56 237 123 103 84
256 57 236 122 103 85
256 57 237 122 101 81
256 56 238 123 103 83
256 57 238 122 101 81
256 58 236 121 101 82
256 58 237 120 100 79
256 59 236 118 99 79
256 59 237 118 97 76
256 60 235 117 98 80
256 60 236 117 97 77
256 60 237 117 97 76
