ply
format ascii 1.0
comment Version 2, Copyright 2017, 8i Labs, Inc.
comment frame_to_world_scale 0.179523
comment frame_to_world_translation -45.2095 7.18301 -54.3561
comment width 1023
element vertex 169
property float x
property float y
property float z
property uchar red
property uchar green
property uchar blue
end_header
258 787 179 204 149 125
259 787 179 204 148 123
256 785 181 205 147 121
257 785 181 205 147 120
256 784 182 205 148 122
256 785 182 205 147 122
257 784 182 206 148 123
256 786 181 203 145 119
256 787 180 203 145 121
257 786 180 203 145 119
257 786 181 203 145 118
257 787 180 202 144 119
258 784 181 206 149 121
258 785 181 204 148 119
259 784 181 205 148 120
259 785 181 203 146 119
258 784 182 206 149 122
259 784 182 205 149 121
258 786 180 203 146 120
258 786 181 204 146 119
258 787 180 203 147 121
259 786 180 202 146 120
259 787 180 204 149 124
256 788 179 203 146 121
256 789 179 203 145 120
257 788 179 205 147 122
257 789 179 205 147 121
257 791 177 206 147 123
256 790 178 205 147 122
256 790 179 204 146 120
256 791 178 205 147 121
257 790 178 205 148 122
257 790 179 205 147 121
257 791 178 206 148 124
258 788 179 204 148 121
258 789 178 205 148 124
258 789 179 205 149 123
259 788 179 203 146 121
259 789 178 203 146 122
259 789 179 203 146 122
258 791 177 205 145 123
259 791 177 204 144 122
258 790 178 205 147 124
258 791 178 205 147 124
259 790 178 205 146 124
256 788 180 203 146 121
257 788 180 204 146 121
260 787 179 203 146 121
261 787 179 204 147 122
263 785 179 203 144 118
262 786 179 204 146 121
262 787 178 204 146 121
262 787 179 204 147 122
263 786 178 202 142 119
263 786 179 203 143 118
263 787 178 203 143 121
260 784 181 204 147 120
260 785 180 204 147 121
260 785 181 204 147 121
261 784 181 204 146 121
261 785 180 203 145 120
261 785 181 204 146 121
260 786 180 204 147 122
260 787 180 205 150 125
261 786 180 204 147 122
262 784 180 203 144 118
262 784 181 203 144 119
262 785 180 203 144 118
263 784 180 203 144 117
263 785 180 202 142 117
262 786 180 204 146 121
260 788 178 202 144 121
260 788 179 202 145 121
260 789 178 203 145 122
261 788 178 204 146 122
261 788 179 203 146 122
261 789 178 203 144 121
260 790 177 203 144 121
260 791 176 204 144 121
260 791 177 203 143 120
261 790 177 203 143 119
261 791 176 204 145 121
261 791 177 203 143 119
260 790 178 204 145 123
262 789 177 203 145 120
263 788 177 203 143 122
263 789 177 202 145 122
262 788 178 204 146 122
262 789 178 204 145 121
263 788 178 203 142 122
262 790 176 203 145 122
262 790 177 203 145 120
262 791 176 204 146 122
262 791 177 203 144 119
263 790 176 202 145 122
263 790 177 203 145 123
263 791 176 203 145 121
256 792 177 207 149 125
256 793 176 206 147 124
256 793 177 208 149 126
257 792 177 206 146 124
257 793 176 206 145 122
256 794 176 205 144 121
257 794 176 204 143 120
258 792 176 205 145 123
258 792 177 205 145 123
258 793 176 205 143 121
259 792 176 204 143 121
259 792 177 205 144 122
259 793 176 204 143 121
258 794 176 205 143 122
260 792 176 204 143 120
260 793 176 203 142 119
261 792 176 204 144 120
262 792 176 204 146 122
264 784 179 203 144 118
264 785 179 204 144 120
265 784 179 204 146 120
265 785 178 203 144 121
265 785 179 204 145 121
264 787 177 203 142 121
265 786 177 201 141 118
265 787 177 202 142 119
264 786 178 202 141 119
264 786 179 202 142 117
264 787 178 202 141 120
265 786 178 202 142 119
267 785 177 203 146 121
266 784 178 203 145 120
266 784 179 203 145 120
266 785 178 203 144 120
267 784 178 204 146 121
267 785 178 203 146 121
266 786 177 201 142 118
266 787 176 200 140 117
266 787 177 200 140 115
267 786 177 201 143 120
267 787 176 200 140 117
267 787 177 199 140 116
266 786 178 202 142 118
264 784 180 202 143 116
264 788 177 202 142 121
264 789 176 203 147 122
264 789 177 203 147 123
265 788 176 201 141 118
265 788 177 202 141 119
265 789 176 202 145 120
264 790 176 203 146 121
265 790 176 203 148 122
266 788 176 200 140 118
266 789 176 201 141 118
267 788 176 200 142 119
268 784 177 202 145 119
268 785 177 202 145 121
269 784 177 202 144 119
269 785 176 201 143 120
269 785 177 202 144 120
268 784 178 202 145 119
268 786 176 201 144 121
268 786 177 202 145 122
268 787 176 200 143 119
269 786 176 200 141 118
269 787 176 201 143 120
270 784 176 201 144 119
270 784 177 202 145 119
270 785 176 200 143 119
271 784 176 201 143 117
271 785 176 200 142 118
270 786 176 200 142 119
