ply
format ascii 1.0
comment Version 2, Copyright 2017, 8i Labs, Inc.
comment frame_to_world_scale 0.179523
comment frame_to_world_translation -45.2095 7.18301 -54.3561
comment width 1023
element vertex 67
property float x
property float y
property float z
property uchar red
property uchar green
property uchar blue
end_header
256 767 191 207 151 122
257 767 191 207 151 123
258 767 191 206 149 120
259 767 191 206 150 121
260 767 191 206 149 121
261 767 191 206 148 120
262 766 191 206 149 120
262 767 191 205 147 119
263 766 191 205 148 119
263 767 190 205 146 118
263 767 191 205 148 119
265 765 191 202 145 116
264 766 191 203 145 115
264 767 190 205 148 120
264 767 191 204 147 118
265 766 191 203 145 116
265 767 190 205 148 120
265 767 191 205 148 119
266 765 191 203 147 118
267 764 191 202 145 118
267 765 190 203 145 119
267 765 191 202 145 119
266 767 189 206 148 120
267 766 189 204 146 119
267 767 189 205 148 119
266 766 190 205 148 120
266 766 191 204 147 119
266 767 190 205 148 120
267 766 190 204 146 119
268 763 191 201 143 117
269 762 191 199 140 112
269 763 191 200 141 115
271 760 191 202 147 117
271 761 191 201 146 117
271 763 189 201 146 117
270 762 191 200 142 114
270 763 190 199 141 115
270 763 191 199 140 113
271 762 190 200 145 117
271 762 191 201 145 118
271 763 190 200 144 117
270 767 187 204 149 119
271 766 187 200 145 114
271 767 187 201 145 116
269 765 189 200 142 115
268 764 191 202 143 118
268 765 190 202 143 117
269 764 190 199 140 114
269 764 191 201 142 116
269 765 190 199 140 113
268 766 189 203 145 117
268 767 188 204 148 119
268 767 189 204 148 119
269 766 188 202 146 118
269 766 189 201 144 116
269 767 188 204 148 120
268 766 190 203 144 117
270 765 189 199 141 113
271 764 189 199 144 115
271 765 188 199 144 113
271 765 189 198 141 111
270 764 190 199 141 114
271 764 190 200 143 117
270 766 188 201 145 116
270 766 189 200 143 115
270 767 188 203 148 119
271 766 188 200 145 114
