ply
format ascii 1.0
comment Version 2, Copyright 2017, 8i Labs, Inc.
comment frame_to_world_scale 0.179523
comment frame_to_world_translation -45.2095 7.18301 -54.3561
comment width 1023
element vertex 264
property float x
property float y
property float z
property uchar red
property uchar green
property uchar blue
end_header
259 658 215 178 124 55
259 659 215 177 123 54
256 663 215 183 113 66
257 662 215 178 124 59
257 663 215 190 126 54
258 660 215 167 115 70
258 661 215 176 127 74
259 660 215 169 119 61
259 661 214 182 136 87
259 661 215 180 134 81
258 662 215 192 140 68
258 663 214 202 140 49
258 663 215 203 144 55
259 662 214 188 132 63
259 663 214 194 124 39
260 656 215 184 130 59
260 657 215 180 128 58
261 656 215 180 135 90
261 657 214 162 117 70
261 657 215 179 130 74
261 659 213 162 120 84
260 658 215 175 120 47
260 659 214 168 106 45
260 659 215 171 110 43
261 658 214 167 111 64
261 658 215 172 117 59
261 659 214 162 103 59
262 656 213 152 111 69
262 657 213 141 101 63
263 656 212 163 120 71
263 656 213 158 118 72
263 657 212 141 101 69
263 657 213 137 100 68
262 656 214 156 115 75
262 657 214 154 111 65
262 658 213 153 116 84
262 659 213 166 130 97
263 658 212 151 125 101
263 658 213 149 121 97
263 659 212 157 131 105
263 659 213 156 127 99
262 658 214 159 114 74
263 660 211 140 113 88
263 661 211 139 110 84
262 663 211 139 102 78
263 662 210 122 92 70
263 662 211 127 97 71
263 663 210 143 112 87
263 663 211 137 104 81
261 661 213 162 114 67
260 660 214 165 109 58
260 660 215 172 115 54
260 661 214 161 114 70
261 660 214 159 107 64
261 661 214 156 105 70
260 662 213 173 90 42
260 663 212 177 92 40
260 663 213 179 96 33
261 662 212 173 110 59
261 662 213 168 106 61
261 663 212 163 100 53
260 662 214 169 105 56
262 660 213 170 132 89
262 661 212 171 134 88
262 661 213 169 126 73
263 660 212 164 136 107
263 661 212 162 131 96
262 662 212 162 119 74
262 663 212 153 103 71
263 662 212 158 122 83
256 657 217 174 122 66
257 656 217 188 130 50
257 657 217 184 127 63
256 656 218 187 132 70
256 656 219 192 141 86
256 657 218 178 118 51
257 656 218 184 128 54
256 658 217 169 115 61
256 659 217 157 98 56
257 658 217 174 122 82
257 659 216 165 113 86
257 659 217 159 105 79
258 656 217 190 129 44
258 657 216 191 139 72
258 657 217 188 132 60
259 656 216 193 135 50
259 656 217 192 131 42
259 657 216 189 136 68
258 658 216 185 139 86
258 659 216 170 119 74
259 658 216 182 133 70
256 660 216 143 87 74
256 660 217 145 85 56
256 661 216 163 104 79
256 661 217 162 106 85
257 660 216 145 84 68
257 661 216 162 105 72
256 662 216 168 97 61
256 663 216 174 94 47
257 662 216 173 111 60
258 660 216 160 105 66
258 661 216 162 110 73
260 656 216 192 134 53
256 664 215 179 112 64
256 665 215 182 115 69
257 664 214 189 127 46
257 664 215 186 124 56
257 665 214 190 125 48
257 665 215 182 118 52
256 666 215 173 87 48
256 667 214 163 67 45
256 667 215 167 68 43
257 666 214 183 103 48
257 667 214 172 78 48
259 664 213 187 102 24
259 665 213 186 95 27
258 664 214 200 137 47
258 665 214 195 128 46
259 664 214 198 130 38
258 666 213 186 105 41
258 667 213 169 77 47
259 666 212 176 66 26
259 666 213 181 82 35
259 667 212 169 70 49
259 667 213 175 74 45
258 666 214 188 115 52
258 667 214 174 80 49
259 670 211 161 76 37
259 671 211 170 69 28
257 668 213 162 108 78
257 669 213 166 118 83
256 668 214 160 91 73
256 669 214 178 129 105
257 668 214 163 90 62
256 670 213 160 76 39
256 671 213 166 68 31
257 670 213 168 99 56
257 671 213 177 74 31
256 670 214 168 101 68
256 671 214 166 70 36
258 668 212 161 93 76
258 668 213 165 102 76
258 669 212 173 113 91
258 669 213 178 132 104
259 668 212 155 71 54
259 669 212 154 77 57
258 670 212 173 93 62
258 670 213 175 102 64
258 671 212 179 74 29
259 670 212 166 82 48
261 664 211 170 118 68
261 665 211 171 108 44
260 667 211 167 89 74
261 666 211 165 95 48
261 667 211 158 90 72
263 665 209 163 126 79
262 664 211 154 109 72
262 665 210 140 88 52
262 665 211 148 95 50
263 664 210 151 114 83
263 664 211 155 117 90
263 665 210 145 101 66
263 666 208 158 124 82
263 666 209 156 119 74
263 667 208 158 128 91
263 667 209 151 119 83
262 666 210 138 83 46
262 667 210 130 83 62
260 664 212 179 93 36
260 664 213 181 88 29
260 665 212 179 86 24
261 664 212 173 108 58
261 665 212 176 104 33
260 666 212 173 77 35
260 667 212 167 70 54
260 668 211 153 69 63
260 669 211 144 56 38
261 668 210 132 69 55
261 668 211 147 76 65
261 669 210 134 64 39
261 669 211 138 58 39
260 670 211 151 60 28
260 671 210 156 54 31
260 671 211 160 60 27
261 670 210 140 57 30
261 671 210 144 58 30
262 669 209 136 96 62
263 668 208 147 120 87
263 668 209 145 116 84
263 669 208 140 113 78
263 669 209 143 108 70
262 668 210 132 91 75
262 669 210 130 82 56
262 670 209 143 88 44
262 671 209 142 75 36
263 670 208 142 111 71
263 670 209 148 109 61
263 671 208 138 99 55
263 671 209 147 102 50
262 670 210 134 72 39
260 668 212 157 62 62
256 664 216 176 102 62
264 656 211 167 116 61
264 657 211 163 118 70
265 656 210 188 138 72
265 656 211 179 128 68
265 657 210 186 139 79
265 658 209 182 134 78
265 659 209 173 131 83
264 658 210 170 129 81
264 658 211 161 123 86
264 659 210 159 122 80
264 659 211 153 126 97
265 658 210 179 134 79
265 659 210 169 128 81
266 656 209 184 129 52
266 657 209 188 134 59
267 656 208 185 130 48
267 656 209 183 127 45
267 657 208 181 125 45
266 658 208 177 126 58
266 658 209 179 128 60
266 659 208 167 123 67
267 658 208 175 123 53
267 659 208 171 125 62
264 656 212 162 112 62
264 657 212 144 100 61
264 658 212 144 110 81
264 661 209 159 124 82
265 660 209 171 132 88
265 661 208 154 118 80
265 661 209 159 124 84
264 660 210 151 117 81
264 660 211 137 111 88
264 661 210 145 113 79
264 661 211 133 105 85
265 660 210 161 124 82
264 662 209 143 110 71
264 663 208 144 114 80
264 663 209 150 118 81
265 662 208 136 101 69
265 662 209 147 112 71
265 663 208 130 99 68
264 662 210 136 107 75
264 663 210 147 116 79
266 660 208 167 127 81
266 661 208 164 127 86
268 656 208 187 132 53
268 656 209 185 130 51
268 657 208 174 117 36
269 656 208 186 131 52
269 657 208 179 122 45
270 656 208 182 129 53
271 656 208 176 122 49
264 664 208 154 124 90
264 664 209 160 126 86
264 665 208 155 123 84
265 664 208 142 115 88
264 666 208 151 118 80
264 667 208 145 119 88
264 668 208 141 118 90
264 669 208 134 109 77
264 670 208 131 104 71
264 671 208 126 94 62
