ply
format ascii 1.0
comment Version 2, Copyright 2017, 8i Labs, Inc.
comment frame_to_world_scale 0.179523
comment frame_to_world_translation -45.2095 7.18301 -54.3561
comment width 1023
element vertex 127
property float x
property float y
property float z
property uchar red
property uchar green
property uchar blue
end_header
267 659 207 174 128 65
265 663 207 132 100 71
266 660 207 168 128 80
266 661 207 159 122 82
267 660 207 168 124 67
267 661 207 172 128 79
266 662 207 151 113 73
266 663 206 160 122 78
266 663 207 149 113 75
267 662 206 176 128 66
267 662 207 170 125 71
267 663 206 174 130 74
269 657 207 173 114 40
268 658 207 170 116 47
268 659 207 179 130 66
269 658 207 168 112 46
269 659 207 178 128 62
270 657 207 179 124 48
271 656 207 176 124 46
271 657 207 178 126 47
270 658 207 171 117 42
270 659 206 180 129 55
270 659 207 177 126 53
271 658 207 171 117 45
271 659 206 173 121 50
268 660 207 178 129 64
268 661 206 180 130 67
268 661 207 182 132 71
269 660 206 183 131 66
269 660 207 182 131 64
269 661 206 184 132 65
268 662 206 180 128 60
268 663 206 179 129 61
269 662 206 176 124 52
269 663 206 172 122 48
270 660 206 181 128 56
270 660 207 180 128 60
270 661 206 177 124 50
271 660 206 178 125 50
271 661 206 174 123 50
270 663 205 166 110 59
271 662 205 163 110 40
271 663 205 164 107 55
270 662 206 166 112 45
270 663 206 168 115 56
271 662 206 163 106 36
264 665 207 135 107 79
265 664 207 128 103 80
265 665 207 120 97 76
264 666 207 127 102 75
264 667 207 130 107 85
265 666 206 126 97 64
265 666 207 115 91 71
265 667 206 124 94 65
265 667 207 123 101 83
266 664 206 158 121 81
266 664 207 141 109 77
266 665 206 152 118 78
266 665 207 134 105 73
267 664 206 175 134 83
267 665 206 165 126 79
267 667 205 138 103 66
266 666 206 141 107 67
266 667 206 135 99 57
267 666 206 152 115 73
267 667 206 137 100 61
264 668 207 128 110 94
264 669 207 117 95 77
265 668 206 128 102 81
265 668 207 132 116 102
265 669 206 127 100 73
265 669 207 115 92 78
264 670 207 112 90 66
264 671 207 120 93 66
265 670 206 140 113 81
265 670 207 127 103 77
265 671 206 139 112 83
265 671 207 127 100 74
267 668 205 122 89 58
267 669 205 112 88 66
266 668 206 128 95 59
266 669 206 134 110 85
267 668 206 125 93 60
267 669 206 119 97 79
267 671 205 116 97 85
266 670 206 144 121 99
266 671 206 137 111 86
267 670 206 128 109 96
267 671 206 118 99 85
268 664 205 163 120 62
268 665 205 152 114 66
269 664 205 156 112 48
269 665 205 142 103 51
268 664 206 171 126 62
268 665 206 159 120 71
269 664 206 164 116 44
268 666 205 146 113 77
268 667 205 140 109 81
269 666 205 129 94 58
269 667 205 128 95 61
270 664 205 158 109 50
270 665 205 144 104 48
271 664 205 167 116 59
271 665 204 176 129 63
271 665 205 163 119 56
270 666 205 142 102 54
270 667 205 145 107 55
271 666 204 171 124 58
271 666 205 159 115 55
271 667 204 168 120 53
268 668 205 121 91 63
268 669 205 115 90 65
269 668 205 128 95 60
269 669 205 134 101 64
268 670 205 132 110 91
268 671 205 131 109 91
269 670 205 149 120 85
269 671 205 154 127 102
270 668 205 154 113 57
270 669 205 158 117 60
271 668 204 171 123 53
271 669 204 171 124 56
270 670 204 160 112 52
270 670 205 159 119 70
270 671 205 157 127 99
271 670 204 159 110 52
271 671 204 158 116 81
