ply
format ascii 1.0
comment Version 2, Copyright 2017, 8i Labs, Inc.
comment frame_to_world_scale 0.179523
comment frame_to_world_translation -45.2095 7.18301 -54.3561
comment width 1023
element vertex 159
property float x
property float y
property float z
property uchar red
property uchar green
property uchar blue
end_header
256 87 231 95 84 75
256 83 235 98 84 72
256 80 237 106 90 75
256 81 237 105 89 74
256 80 238 106 90 75
256 80 239 105 88 72
256 81 238 106 90 75
256 81 239 105 88 72
256 82 236 105 87 70
256 82 237 106 90 75
256 83 236 104 87 70
256 83 237 105 89 73
256 82 238 105 89 75
256 82 239 104 88 73
256 83 238 104 89 74
256 83 239 104 88 73
256 85 233 93 80 68
256 84 234 92 79 66
256 84 235 98 84 72
256 85 234 94 81 68
256 85 235 97 84 71
257 85 235 100 86 73
256 86 232 93 81 71
256 86 233 96 83 71
256 87 232 95 83 73
256 87 233 95 82 71
257 87 233 96 83 71
256 86 234 96 82 70
257 86 234 96 83 70
257 86 235 99 85 72
257 87 234 97 83 71
257 87 235 99 84 71
258 87 235 99 84 71
256 84 236 103 87 72
256 84 237 104 88 73
257 84 236 103 87 72
257 84 237 103 87 72
257 85 236 102 86 72
257 85 237 102 87 72
256 84 239 103 87 71
257 84 238 102 86 72
257 84 239 103 87 72
257 85 238 102 87 73
257 85 239 104 88 74
257 86 236 102 86 72
257 86 237 102 87 73
257 87 236 100 85 71
257 86 238 101 87 73
257 86 239 102 87 73
257 87 239 102 87 73
258 87 236 99 84 70
258 87 237 100 86 72
258 87 238 101 87 74
258 87 239 101 87 74
256 88 231 95 84 75
256 89 231 95 84 74
256 90 230 95 85 76
256 90 231 95 84 75
256 91 230 95 84 75
256 91 231 96 85 75
257 90 231 95 84 74
257 91 231 96 84 74
256 92 229 95 83 73
256 93 229 96 84 73
256 92 230 95 83 73
256 93 230 96 83 73
257 92 231 96 85 75
257 93 230 95 83 72
257 93 231 97 85 74
256 94 229 96 84 74
256 95 228 94 85 78
256 95 229 96 85 76
256 94 230 96 83 73
257 94 230 96 84 73
257 94 231 97 85 74
257 95 230 97 84 73
257 95 231 99 87 76
258 92 231 98 86 76
258 93 231 100 88 78
258 94 231 100 88 77
258 95 231 100 88 77
256 88 232 96 84 75
257 88 232 97 85 74
257 88 233 97 83 72
257 89 232 98 86 76
257 89 233 98 85 74
257 88 234 98 84 71
257 90 232 97 85 75
257 91 232 96 84 73
258 89 233 99 86 74
258 88 234 99 84 71
258 88 235 100 85 71
258 89 234 99 85 71
258 89 235 102 86 72
258 90 233 100 87 75
258 91 232 98 85 75
258 91 233 101 87 75
258 90 234 101 87 74
258 90 235 102 87 73
258 91 234 101 87 73
258 91 235 102 86 72
259 90 235 103 87 72
259 91 235 102 86 72
258 88 236 100 86 73
258 88 237 100 87 74
258 89 236 103 89 77
258 89 237 102 89 77
258 88 238 101 88 76
258 88 239 101 87 75
258 89 238 101 88 76
258 89 239 101 87 74
258 90 236 103 89 77
258 90 237 101 88 77
259 90 236 102 88 75
259 90 237 101 87 76
259 91 236 103 88 75
259 91 237 101 87 75
258 90 238 101 87 76
258 90 239 99 86 73
258 91 239 99 85 72
259 90 238 100 87 75
259 91 238 100 86 74
259 91 239 99 85 73
258 92 232 98 85 74
258 92 233 101 87 76
258 93 232 101 88 77
258 93 233 101 87 76
259 92 233 102 88 76
259 93 233 102 88 76
258 92 234 102 87 74
259 92 234 102 87 73
259 92 235 102 86 71
259 93 234 103 88 74
259 93 235 104 88 73
258 94 232 102 89 78
258 95 232 101 88 77
259 94 233 102 88 75
259 95 233 102 87 75
259 94 234 104 89 76
259 94 235 105 89 75
259 95 234 104 89 76
259 95 235 105 90 76
259 92 236 103 89 75
259 92 237 102 87 74
259 93 236 104 89 75
259 93 237 103 88 73
258 92 239 99 85 72
259 92 238 100 86 73
259 92 239 100 85 72
259 93 238 101 86 71
259 93 239 100 85 71
259 94 236 105 89 74
259 94 237 103 88 73
259 95 236 105 89 73
259 95 237 103 87 71
259 94 238 101 86 71
259 94 239 100 85 71
259 95 238 101 85 70
259 95 239 100 84 69
