ply
format ascii 1.0
comment Version 2, Copyright 2017, 8i Labs, Inc.
comment frame_to_world_scale 0.179523
comment frame_to_world_translation -45.2095 7.18301 -54.3561
comment width 1023
element vertex 281
property float x
property float y
property float z
property uchar red
property uchar green
property uchar blue
end_header
256 123 160 100 88 78
256 123 161 100 88 79
257 122 161 100 88 79
257 123 160 100 88 78
257 123 161 100 88 79
256 122 163 100 89 80
256 123 162 100 89 80
256 123 163 100 89 80
257 122 162 100 89 80
257 122 163 99 89 80
257 123 162 100 89 80
258 122 160 100 88 78
258 122 161 99 88 79
258 123 160 100 88 78
259 122 160 99 88 78
259 122 161 99 88 79
259 123 160 100 88 78
258 122 162 99 89 80
258 122 163 99 89 80
259 122 162 99 89 80
259 122 163 98 89 81
256 122 164 100 89 81
256 122 165 100 89 81
257 122 164 99 89 81
257 122 165 99 89 81
256 122 166 100 90 81
256 122 167 99 89 81
257 122 166 99 89 81
257 122 167 99 89 81
258 122 164 99 89 81
258 122 165 98 89 81
259 122 164 98 88 81
259 122 165 97 88 81
258 122 166 98 89 81
258 122 167 98 89 81
259 122 166 97 88 81
259 122 167 97 88 81
260 122 160 99 88 78
260 122 161 98 88 79
260 123 160 99 88 78
261 122 160 99 88 78
261 122 161 98 88 80
260 122 162 98 88 80
260 122 163 98 88 81
261 122 162 98 88 80
261 122 163 97 88 81
262 122 160 98 87 78
262 122 161 98 88 79
263 122 160 98 87 79
263 122 161 97 88 80
262 122 162 97 88 80
262 122 163 97 88 81
263 122 162 97 88 81
263 122 163 96 88 81
260 121 167 96 88 81
261 121 166 96 88 81
261 121 167 96 87 81
260 122 164 97 88 81
260 122 165 97 88 81
261 122 164 97 88 81
261 122 165 97 88 81
260 122 166 97 88 81
260 122 167 96 88 81
261 122 166 96 88 81
263 121 165 95 87 81
262 121 166 96 87 81
262 121 167 96 87 81
263 121 166 95 87 81
263 121 167 95 87 81
262 122 164 96 88 81
262 122 165 96 88 81
263 122 164 96 87 81
263 122 165 96 87 81
262 122 166 96 87 81
256 121 169 99 90 81
257 121 169 99 89 81
256 121 170 100 90 81
256 121 171 100 90 82
257 121 170 99 89 81
257 121 171 99 89 81
256 122 168 99 89 81
256 122 169 100 90 81
257 122 168 99 89 81
258 121 168 98 89 81
258 121 169 98 89 81
259 121 168 97 88 81
259 121 169 97 88 81
258 121 170 99 89 81
258 121 171 99 89 81
259 121 170 97 88 81
259 121 171 97 88 81
258 122 168 98 89 81
259 122 168 98 88 81
256 121 172 101 90 82
256 121 173 101 90 82
257 121 172 100 90 81
257 121 173 99 89 81
256 120 175 102 91 83
256 121 174 101 91 82
257 120 174 100 90 82
257 120 175 100 90 82
257 121 174 99 89 81
258 121 172 99 89 81
258 121 173 98 89 81
259 121 172 97 88 81
259 121 173 97 88 81
258 120 174 98 88 81
258 120 175 98 89 81
258 121 174 98 89 81
259 120 174 97 88 81
259 120 175 97 88 81
260 121 168 97 88 81
260 121 169 96 88 81
261 121 168 96 88 81
261 121 169 96 88 81
260 121 170 97 88 81
260 121 171 97 88 81
261 121 170 96 88 81
261 121 171 96 88 81
262 121 168 96 87 81
262 121 169 96 87 81
263 121 168 95 87 81
263 121 169 95 87 81
262 121 170 96 87 81
262 121 171 95 87 81
263 121 170 95 86 81
263 121 171 94 86 80
260 121 172 97 88 81
260 121 173 96 87 81
261 121 172 96 87 81
261 121 173 96 87 80
260 120 174 96 87 80
260 120 175 96 87 81
261 120 174 96 87 80
261 120 175 95 87 80
262 121 172 95 87 80
262 121 173 95 86 80
263 121 172 94 86 80
263 121 173 94 86 80
262 120 174 95 86 80
262 120 175 94 86 80
262 121 174 94 86 80
263 120 174 94 86 80
263 120 175 93 85 80
263 121 174 94 86 80
265 121 163 95 87 81
264 122 160 97 87 79
264 122 161 97 87 80
265 122 160 97 87 79
265 122 161 96 87 80
264 122 162 96 87 81
264 122 163 96 87 81
265 122 162 95 87 81
265 122 163 95 87 81
266 121 161 95 87 81
267 121 160 95 87 80
267 121 161 95 87 81
266 121 162 95 87 81
266 121 163 95 87 81
267 121 162 95 87 81
267 121 163 94 87 81
266 122 160 96 87 80
266 122 161 95 87 81
267 122 160 96 87 80
264 121 164 95 87 81
264 121 165 95 87 81
265 121 164 95 87 81
265 121 165 95 87 81
264 121 166 95 87 81
264 121 167 94 87 81
265 121 166 94 87 81
265 121 167 94 86 81
264 122 164 95 87 81
266 121 164 94 87 81
266 121 165 94 87 81
267 121 164 94 87 81
267 121 165 94 86 81
266 121 166 94 86 81
266 121 167 94 86 81
267 121 166 94 86 81
267 121 167 93 86 81
268 121 160 95 87 80
268 121 161 94 86 81
269 121 160 95 86 81
269 121 161 94 86 81
268 121 162 94 86 81
268 121 163 94 86 81
269 121 162 94 86 81
269 121 163 93 86 81
270 121 160 94 86 81
270 121 161 94 86 81
271 121 160 94 86 81
271 121 161 93 86 81
270 121 162 93 86 81
270 121 163 93 86 81
271 121 162 93 85 81
271 121 163 92 85 81
268 121 164 94 86 81
268 121 165 93 86 81
269 121 164 93 86 81
269 121 165 93 86 81
268 121 166 93 85 80
268 121 167 93 86 80
269 121 166 93 85 80
269 121 167 93 85 81
270 121 164 93 85 81
270 121 165 92 85 81
271 121 164 92 85 81
271 121 165 92 85 80
270 121 166 92 85 80
270 121 167 93 85 80
271 121 166 92 85 80
271 121 167 92 85 80
264 121 168 94 86 81
264 121 169 94 86 80
265 121 168 94 86 81
265 121 169 93 86 80
264 121 170 94 86 80
264 121 171 94 86 80
265 121 170 93 85 80
265 121 171 93 86 80
266 121 168 93 86 80
266 121 169 93 85 80
267 121 168 93 85 80
267 121 169 93 85 80
266 121 170 93 85 80
266 121 171 93 85 80
267 121 170 93 85 80
267 121 171 93 85 80
264 121 172 93 86 80
264 121 173 93 85 80
265 121 172 93 85 80
265 121 173 93 85 80
264 120 174 93 85 80
264 120 175 92 85 79
264 121 174 93 85 80
265 120 174 92 85 79
265 120 175 92 84 79
265 121 174 93 85 80
266 121 172 93 85 80
266 121 173 93 85 80
267 121 172 93 85 80
267 121 173 92 84 79
266 120 174 92 84 79
266 120 175 92 84 79
266 121 174 92 84 79
267 120 175 91 84 78
267 121 174 91 84 79
267 121 175 91 83 78
268 121 168 93 86 81
268 121 169 93 85 80
269 121 168 93 85 80
269 121 169 93 85 80
268 121 170 93 85 80
268 121 171 93 85 80
269 121 170 93 85 80
269 121 171 92 85 80
270 121 168 93 85 80
270 121 169 92 85 80
271 121 168 92 85 80
271 121 169 92 85 80
270 121 170 92 85 80
270 121 171 92 85 80
271 121 170 92 84 80
271 121 171 92 84 79
268 121 172 92 85 80
268 121 173 92 84 79
269 121 172 92 84 79
269 121 173 92 84 79
268 121 174 91 83 78
268 121 175 91 83 78
269 121 174 91 84 79
269 121 175 91 83 78
270 121 172 92 84 79
270 121 173 91 84 79
271 121 172 91 84 79
271 121 173 91 83 78
270 121 174 91 83 78
270 121 175 91 83 78
271 121 174 91 83 77
271 121 175 91 83 77
