ply
format ascii 1.0
comment Version 2, Copyright 2017, 8i Labs, Inc.
comment frame_to_world_scale 0.179523
comment frame_to_world_translation -45.2095 7.18301 -54.3561
comment width 1023
element vertex 284
property float x
property float y
property float z
property uchar red
property uchar green
property uchar blue
end_header
256 139 51 123 113 106
257 139 51 121 110 102
259 139 48 117 105 96
259 139 49 118 105 97
258 139 50 119 107 99
258 139 51 120 108 100
259 139 50 118 106 97
259 139 51 119 107 98
256 139 52 125 115 107
256 139 53 127 117 109
257 139 52 122 112 104
257 139 53 124 113 105
256 138 54 125 115 107
256 138 55 123 112 105
257 138 54 124 113 105
257 138 55 122 111 103
257 139 54 124 112 104
258 138 53 122 110 102
258 139 52 121 109 101
258 139 53 123 111 103
259 138 53 120 108 99
259 139 52 120 107 99
258 138 54 122 110 102
258 138 55 121 109 101
259 138 54 120 107 99
259 138 55 120 107 98
256 141 48 122 111 105
256 141 49 122 111 105
257 140 49 120 109 100
257 141 48 119 108 100
257 141 49 120 109 100
256 140 50 123 113 105
256 140 51 125 115 107
256 141 50 124 114 107
257 140 50 120 109 101
257 140 51 122 112 103
256 142 48 122 111 104
258 140 48 118 106 98
258 140 49 118 107 99
258 141 48 118 106 98
259 140 48 117 105 97
259 140 49 118 106 97
258 140 50 118 107 99
258 140 51 119 108 100
260 139 48 117 104 95
260 139 49 118 104 94
261 139 48 118 103 93
261 139 49 118 103 93
260 139 50 118 105 96
260 139 51 118 105 96
261 139 50 118 102 92
261 139 51 117 102 91
262 139 48 118 102 92
262 139 49 118 102 91
263 139 48 118 101 90
263 139 49 118 101 89
262 139 50 117 101 90
262 139 51 117 101 89
263 139 50 117 100 88
263 139 51 117 99 87
260 138 53 119 106 97
260 139 52 119 106 97
260 139 53 120 106 96
261 139 52 117 102 91
261 139 53 119 104 95
260 138 54 119 105 96
260 138 55 119 105 96
260 139 54 119 105 95
260 139 55 119 104 95
261 139 54 119 104 94
261 139 55 118 102 92
262 139 52 117 100 89
262 139 53 117 100 89
263 139 52 116 98 86
262 139 54 118 102 91
262 139 55 117 100 89
263 139 55 117 99 88
263 140 52 116 98 86
263 140 53 116 98 86
262 140 54 117 101 90
262 140 55 116 99 88
263 140 54 116 97 85
263 140 55 115 96 85
256 138 56 121 111 104
256 139 56 121 110 104
257 138 56 121 110 102
257 139 56 121 110 102
257 139 57 120 109 102
258 138 56 120 108 100
258 138 57 120 108 100
258 139 57 120 108 100
259 138 56 120 107 98
259 138 57 118 106 97
259 139 57 119 106 97
259 139 58 119 105 97
256 140 57 120 109 102
256 141 57 121 109 101
257 140 57 120 108 101
257 141 57 120 108 100
256 140 58 119 109 102
256 140 59 118 108 101
256 141 58 119 108 101
257 141 58 120 108 100
257 141 59 118 107 99
258 140 57 120 107 99
258 141 57 120 107 99
258 140 58 119 106 97
258 141 58 119 106 98
258 141 59 119 106 97
259 140 58 119 105 96
259 141 58 119 104 95
259 141 59 118 104 95
259 142 59 117 103 94
256 140 60 118 108 101
256 140 61 118 107 101
257 141 60 118 106 99
257 141 61 117 106 99
256 140 62 118 107 100
256 140 63 117 106 100
257 141 62 117 105 98
257 141 63 116 104 98
258 141 60 117 105 97
258 141 61 117 104 97
258 141 62 116 104 97
258 141 63 115 103 96
258 142 61 116 104 96
259 142 60 117 103 95
259 142 61 116 103 95
258 142 62 116 103 96
258 142 63 115 103 95
259 142 62 115 102 95
259 142 63 114 102 94
260 138 56 119 105 95
260 138 57 119 105 95
260 139 56 119 104 94
260 139 57 118 104 94
261 138 56 119 104 94
261 139 56 118 101 91
261 139 57 117 101 90
260 139 58 118 102 93
261 139 58 117 100 90
261 140 57 117 100 90
260 140 58 118 103 93
260 141 58 117 101 92
261 140 58 117 100 89
261 141 58 116 99 88
260 142 58 117 100 90
260 142 59 117 100 91
260 143 59 116 99 88
261 142 58 115 96 86
261 143 58 114 94 82
261 143 59 115 96 84
262 140 56 116 99 88
262 140 57 115 97 86
263 140 56 114 96 84
263 140 57 114 96 84
263 141 57 114 94 82
262 140 58 115 97 85
262 141 58 115 96 84
263 141 58 113 93 81
262 142 58 114 93 82
262 143 58 114 92 81
263 142 58 113 92 79
263 143 58 113 90 77
260 142 60 116 101 92
260 142 61 116 102 94
260 143 60 116 99 90
260 143 61 115 100 91
261 143 60 116 97 86
261 143 61 115 97 87
260 142 62 115 101 93
260 142 63 114 101 92
260 143 62 114 100 91
260 143 63 114 99 91
261 143 62 114 98 88
261 143 63 113 97 88
264 139 48 118 100 88
264 139 49 118 99 87
265 139 48 119 100 87
265 139 49 118 98 85
264 139 50 117 99 87
264 139 51 117 98 85
265 139 50 117 98 85
265 139 51 117 97 84
266 139 48 121 97 82
266 139 49 119 97 83
267 139 48 121 96 80
267 139 49 120 95 80
266 139 50 118 97 83
264 139 52 116 97 85
265 140 51 117 96 82
267 140 48 121 96 81
267 140 49 121 95 79
266 140 50 118 96 82
266 140 51 116 95 81
267 140 50 118 95 80
267 140 51 117 94 79
264 140 52 116 97 84
264 140 53 115 96 83
265 140 52 116 95 82
265 140 53 114 95 81
264 140 54 114 94 81
264 140 55 113 92 78
265 140 54 114 93 79
265 141 54 114 92 78
265 141 55 112 89 74
266 140 52 115 94 79
266 140 53 115 93 78
266 141 53 114 92 77
267 140 52 115 92 77
267 141 52 115 93 77
267 141 53 114 91 76
266 141 54 114 90 75
266 141 55 112 88 72
267 141 54 114 90 73
266 142 55 111 86 70
267 142 55 112 86 69
268 140 48 122 94 78
268 140 49 121 94 76
269 140 48 123 93 74
269 140 49 122 92 74
268 140 50 119 93 76
268 140 51 117 92 76
268 141 51 115 91 75
269 140 50 118 91 73
269 141 50 119 91 73
269 141 51 116 89 72
270 140 48 124 92 71
270 140 49 121 92 72
270 141 48 125 90 66
270 141 49 123 91 68
270 141 50 122 90 69
270 141 51 117 88 68
271 141 50 123 88 63
270 142 48 127 89 63
271 142 48 127 86 59
271 142 49 125 88 59
270 142 51 117 85 62
271 142 50 125 88 59
271 142 51 121 83 53
268 141 52 115 91 76
268 141 53 115 92 76
269 141 52 114 89 73
269 141 53 114 91 74
268 141 54 116 92 74
268 142 53 115 91 74
269 142 52 113 87 68
269 142 53 112 88 69
268 142 54 116 91 73
268 142 55 113 89 71
268 143 55 116 87 68
269 142 54 115 89 69
269 143 54 118 89 65
269 143 55 119 86 61
270 142 52 113 84 64
270 142 53 114 84 61
270 143 53 117 84 58
271 142 52 118 81 55
271 143 53 117 79 51
270 143 54 119 84 57
264 140 56 113 93 81
264 140 57 113 93 80
264 141 56 113 93 80
264 141 57 112 92 80
265 141 56 111 88 73
265 141 57 111 89 75
264 141 58 113 92 78
265 142 57 111 87 72
264 142 58 112 90 76
264 143 58 112 87 74
265 142 58 111 88 74
265 143 58 109 84 69
266 141 56 111 87 71
266 142 56 111 85 69
266 142 57 110 84 68
266 143 57 108 81 64
267 142 56 110 84 68
267 142 57 110 83 67
267 143 56 110 82 66
267 143 57 108 79 62
266 143 58 107 80 64
268 142 56 112 85 67
268 143 56 113 83 65
268 143 57 111 80 61
