ply
format ascii 1.0
comment Version 2, Copyright 2017, 8i Labs, Inc.
comment frame_to_world_scale 0.179523
comment frame_to_world_translation -45.2095 7.18301 -54.3561
comment width 1023
element vertex 181
property float x
property float y
property float z
property uchar red
property uchar green
property uchar blue
end_header
287 288 149 109 131 154
287 289 149 105 128 153
287 288 150 107 129 153
287 288 151 95 122 149
287 289 150 107 129 153
287 289 151 102 126 151
287 290 149 99 124 151
287 291 149 72 107 141
287 290 150 105 127 150
287 290 151 116 134 154
287 291 150 97 121 147
287 291 151 131 143 160
287 292 150 104 124 149
287 292 151 142 149 163
287 293 150 129 138 151
287 293 151 151 153 162
287 294 150 155 156 162
287 294 151 152 153 160
287 295 150 160 158 164
287 295 151 152 152 159
286 288 153 103 129 156
286 289 152 97 122 147
286 289 153 93 120 147
287 288 152 94 123 151
287 288 153 95 124 152
287 289 152 97 123 150
287 289 153 94 123 151
286 288 154 101 127 154
286 288 155 100 127 153
286 289 154 106 129 155
286 289 155 113 135 158
287 288 154 96 125 152
286 290 152 116 132 152
286 290 153 88 113 137
286 291 152 144 151 164
286 291 153 127 137 152
287 290 152 120 135 155
287 291 152 143 151 165
286 290 154 71 103 131
286 290 155 99 124 149
286 291 154 96 117 139
286 291 155 87 114 140
286 288 156 104 127 152
286 288 157 109 129 151
286 289 156 111 132 156
286 289 157 110 131 153
287 288 157 110 129 150
286 289 158 111 133 156
286 289 159 110 132 155
287 288 158 116 133 152
287 288 159 129 142 159
287 289 158 111 131 153
287 289 159 114 133 155
286 290 156 116 137 160
286 290 157 119 139 162
286 291 156 97 123 149
286 291 157 104 128 153
286 290 158 117 137 160
286 290 159 110 132 155
286 291 158 108 130 154
286 291 159 112 133 156
285 294 154 157 158 166
285 294 155 161 162 169
285 295 154 154 156 165
285 295 155 158 158 166
286 292 152 154 156 164
286 292 153 151 153 161
286 293 152 157 157 164
286 293 153 155 155 161
287 292 152 155 158 168
287 293 152 156 156 164
286 292 154 135 142 154
286 292 155 115 131 150
286 293 154 148 150 159
286 293 155 146 152 164
286 294 152 141 144 153
286 294 153 145 147 156
286 295 152 139 142 151
286 295 153 140 144 154
286 294 154 153 154 163
286 294 155 160 160 168
286 295 154 149 152 161
285 293 156 140 148 162
285 293 157 128 141 158
285 294 156 155 157 165
285 294 157 130 139 154
285 295 156 158 158 164
285 295 157 148 150 158
285 294 158 109 124 144
285 294 159 96 116 139
285 295 158 134 141 153
285 295 159 106 120 137
286 292 156 102 123 147
286 292 157 99 123 149
286 293 156 125 139 156
286 293 157 112 131 152
286 292 158 101 126 150
286 292 159 101 125 149
286 293 158 107 129 152
286 293 159 106 128 152
286 294 159 91 114 138
287 296 150 157 157 163
287 296 151 153 153 161
287 297 150 145 147 155
287 297 151 139 142 151
287 298 150 136 136 142
287 298 151 138 141 150
287 299 150 146 145 151
287 299 151 151 152 159
287 300 151 155 154 160
287 301 151 156 155 161
287 302 151 152 152 159
287 303 151 144 145 152
285 296 154 151 152 160
285 296 155 147 148 156
285 297 154 152 152 158
285 297 155 141 142 150
285 298 154 156 155 160
285 298 155 155 155 162
285 299 154 149 149 155
285 299 155 159 157 162
286 296 152 152 152 160
286 296 153 152 153 160
286 297 152 154 153 159
286 297 153 158 157 162
286 296 154 153 155 162
286 298 152 154 155 162
286 298 153 156 155 161
286 299 152 151 152 160
286 299 153 139 141 149
285 296 156 148 148 155
285 296 157 155 154 161
285 297 156 145 145 152
285 297 157 156 155 161
285 296 158 156 157 164
285 296 159 141 145 155
285 297 158 160 158 163
285 297 159 152 152 158
285 298 156 155 155 161
285 298 157 150 150 156
285 299 156 161 159 163
285 299 157 149 147 151
285 298 158 144 143 149
285 298 159 144 143 148
285 299 158 134 131 134
285 299 159 129 123 127
285 300 154 148 149 155
285 300 155 159 157 161
285 301 154 155 154 160
285 301 155 152 148 150
285 302 154 149 149 153
285 302 155 134 130 130
285 303 154 148 146 149
285 303 155 126 112 113
286 300 152 142 143 151
286 300 153 128 132 141
286 301 152 149 148 154
286 301 153 149 149 156
286 302 152 155 154 159
286 302 153 157 156 161
286 303 152 156 155 160
286 303 153 159 157 161
287 303 152 153 152 158
284 300 157 148 143 143
284 301 157 111 85 88
285 300 156 161 157 160
285 300 157 157 152 152
285 301 156 139 134 133
285 301 157 133 122 120
284 300 158 135 125 125
284 300 159 116 94 102
284 301 158 119 87 94
284 301 159 111 59 77
284 302 157 113 77 86
284 303 157 115 62 77
285 302 156 116 100 100
285 303 156 117 81 90
284 302 158 113 51 75
284 302 159 114 43 71
284 303 158 115 58 75
284 303 159 107 56 75
