ply
format ascii 1.0
comment Version 2, Copyright 2017, 8i Labs, Inc.
comment frame_to_world_scale 0.179523
comment frame_to_world_translation -45.2095 7.18301 -54.3561
comment width 1023
element vertex 35
property float x
property float y
property float z
property uchar red
property uchar green
property uchar blue
end_header
287 294 193 93 84 98
287 295 192 96 91 96
287 295 193 98 93 103
287 294 194 90 88 101
287 295 194 96 95 107
287 296 192 105 103 106
287 296 193 105 104 112
287 297 192 112 110 114
287 297 193 108 109 115
287 296 194 100 102 114
287 296 195 99 105 117
287 297 194 104 106 116
287 297 195 100 106 115
287 298 192 109 108 113
287 298 193 106 107 113
287 299 192 109 109 113
287 299 193 105 107 112
287 298 194 105 107 116
287 298 195 102 108 116
287 299 194 105 107 115
287 299 195 103 106 113
287 300 193 107 109 114
287 301 192 108 109 115
287 301 193 107 108 113
287 300 194 104 106 112
287 300 195 100 102 107
287 301 194 101 104 109
287 301 195 92 94 100
287 302 192 104 105 110
287 302 193 107 107 113
287 303 193 107 108 112
287 302 194 99 102 109
287 302 195 87 92 101
287 303 194 98 101 107
287 303 195 86 93 102
