ply
format ascii 1.0
comment Version 2, Copyright 2017, 8i Labs, Inc.
comment frame_to_world_scale 0.179523
comment frame_to_world_translation -45.2095 7.18301 -54.3561
comment width 1023
element vertex 238
property float x
property float y
property float z
property uchar red
property uchar green
property uchar blue
end_header
274 304 291 142 141 146
274 305 291 142 141 144
275 304 290 139 138 143
275 305 290 142 139 142
275 305 291 142 140 143
275 306 290 149 144 147
275 306 291 147 144 147
275 307 291 147 144 147
272 304 293 140 141 146
273 304 292 143 142 147
273 304 293 143 142 148
273 305 293 144 143 147
272 304 294 139 139 145
272 305 294 142 142 146
273 306 293 143 140 144
273 307 293 146 142 145
272 306 294 141 139 142
272 306 295 141 138 141
272 307 294 144 140 141
272 307 295 142 138 142
273 306 294 142 140 143
273 307 294 145 141 143
274 305 292 142 141 145
274 306 292 144 141 144
274 306 293 144 141 144
274 307 292 145 142 145
274 307 293 146 143 146
275 306 292 147 144 147
275 307 292 146 144 147
275 308 291 145 141 143
275 309 291 145 141 142
275 310 291 150 145 146
272 308 294 148 144 145
272 308 295 147 144 146
272 309 295 149 145 146
273 308 294 149 145 146
273 309 294 146 141 143
273 309 295 147 143 144
272 310 295 142 139 142
273 310 294 147 143 145
273 310 295 144 141 143
273 311 295 147 144 146
274 308 292 145 142 145
274 308 293 145 141 144
274 309 292 146 142 144
274 309 293 145 141 143
275 308 292 144 141 144
275 309 292 146 142 144
274 309 294 145 140 142
274 310 293 147 143 145
274 311 293 146 143 146
275 310 292 149 145 146
275 310 293 147 143 146
275 311 292 145 142 144
275 311 293 145 141 144
274 310 294 148 143 145
274 311 294 148 144 147
276 304 288 137 136 141
276 304 289 136 135 140
276 305 289 143 140 144
277 304 288 138 137 142
277 305 288 143 141 145
276 304 290 137 135 140
276 305 290 145 141 143
276 306 289 149 145 147
276 307 289 146 143 145
277 306 288 145 142 145
277 306 289 146 143 146
277 307 288 148 144 147
277 307 289 145 142 144
276 306 290 149 145 147
276 307 290 146 143 146
276 308 289 145 141 144
277 308 288 152 147 150
277 308 289 148 143 145
277 309 288 151 147 149
277 309 289 150 146 148
276 308 290 144 140 143
276 308 291 145 141 143
276 309 290 149 145 146
276 309 291 149 144 145
277 309 290 150 145 147
277 310 289 145 142 145
277 311 289 146 143 145
276 310 290 151 146 147
276 310 291 148 144 145
276 311 291 146 142 144
277 310 290 148 144 146
277 311 290 148 144 146
277 311 291 146 142 144
278 308 288 152 148 150
278 309 288 148 144 147
278 309 289 147 144 147
278 310 288 147 144 147
278 310 289 145 142 144
278 311 288 150 146 149
278 311 289 148 144 147
279 311 288 150 147 151
272 309 296 147 143 144
272 310 296 143 140 143
272 311 296 143 140 143
272 311 297 144 140 142
273 311 296 145 142 145
273 312 295 146 142 145
273 313 295 144 140 142
275 312 292 144 140 142
275 312 293 143 140 142
275 313 293 146 142 144
274 312 294 145 141 143
274 312 295 146 142 144
274 313 294 146 141 143
274 313 295 144 140 141
275 312 294 143 140 142
275 313 294 146 142 144
275 314 293 151 146 147
274 314 295 147 143 144
274 315 295 148 144 145
275 314 294 149 144 146
275 315 294 147 142 143
274 316 295 147 143 145
274 317 295 147 144 146
275 316 294 145 140 142
275 316 295 146 142 143
275 317 294 149 144 146
275 317 295 149 145 147
274 318 295 148 144 147
275 318 295 147 143 147
275 319 295 140 139 144
276 312 291 148 143 145
277 312 290 150 146 148
277 312 291 150 146 148
277 313 290 151 146 148
277 313 291 150 146 148
277 314 290 148 143 144
277 314 291 149 144 145
277 315 291 148 144 145
278 312 288 149 146 149
278 312 289 150 147 149
278 313 289 147 144 147
279 312 288 146 144 148
279 313 288 142 140 145
279 313 289 142 141 145
278 313 290 150 146 148
278 314 289 144 142 146
278 315 289 145 144 149
279 314 288 140 140 147
279 314 289 142 141 146
279 315 288 134 138 147
279 315 289 141 142 148
278 314 290 147 143 145
278 315 290 147 144 148
278 315 291 147 144 147
276 312 292 145 141 143
276 313 292 149 144 146
276 313 293 151 145 146
277 313 292 149 144 146
276 314 292 151 145 147
276 314 293 151 146 147
276 315 293 145 141 143
277 314 292 149 144 145
277 315 292 147 143 145
277 316 291 145 143 148
278 316 289 137 139 147
278 317 289 128 133 144
279 316 288 122 130 143
279 316 289 129 134 144
279 317 288 119 129 144
279 317 289 120 129 142
278 316 290 141 141 148
278 316 291 144 144 149
278 317 290 125 131 143
278 317 291 131 135 144
279 318 288 117 129 146
279 318 289 117 129 145
279 319 289 110 124 141
278 318 290 114 125 140
278 318 291 116 126 140
278 319 290 113 125 141
278 319 291 116 127 142
279 318 290 116 127 143
279 319 290 116 128 143
276 316 293 146 142 145
276 317 293 148 145 148
277 316 292 146 144 148
277 316 293 147 144 148
277 317 292 138 139 147
277 317 293 144 142 147
276 316 294 146 142 144
276 317 294 149 145 147
277 318 292 128 134 145
277 318 293 135 138 145
277 319 293 128 133 144
276 318 294 146 143 146
276 319 294 134 135 142
276 319 295 136 136 142
277 318 294 141 140 145
277 319 294 131 134 142
278 317 292 130 134 144
278 318 292 122 131 144
278 319 292 117 128 142
272 312 296 147 143 145
272 312 297 147 143 144
272 313 296 146 142 144
272 313 297 147 143 144
273 312 296 147 143 145
273 313 296 145 141 142
272 314 297 146 141 143
272 315 297 147 143 144
273 314 296 146 142 144
273 315 296 149 144 146
273 315 297 149 144 146
272 314 298 145 141 143
272 315 298 145 141 143
272 316 297 147 142 143
273 316 296 146 141 143
273 316 297 144 140 141
273 317 296 143 139 142
273 317 297 140 137 138
272 316 298 145 141 143
272 317 298 143 138 139
272 317 299 143 138 139
273 318 297 144 141 144
273 319 297 143 141 145
272 318 298 142 139 140
272 318 299 141 137 139
272 319 298 147 143 146
272 319 299 147 142 144
273 318 298 144 141 143
273 319 298 145 142 146
274 316 296 146 143 145
274 317 296 144 141 144
274 318 296 146 143 145
274 319 296 143 141 145
274 319 297 142 141 145
275 319 296 141 140 144
280 317 288 118 129 144
280 318 288 114 127 144
280 319 288 107 120 138
