ply
format ascii 1.0
comment Version 2, Copyright 2017, 8i Labs, Inc.
comment frame_to_world_scale 0.179523
comment frame_to_world_translation -45.2095 7.18301 -54.3561
comment width 1023
element vertex 294
property float x
property float y
property float z
property uchar red
property uchar green
property uchar blue
end_header
278 256 80 83 40 45
278 256 81 83 39 50
278 257 80 97 32 46
278 257 81 98 35 51
278 256 82 84 42 55
278 256 83 89 43 58
278 257 82 100 36 56
278 257 83 102 38 58
278 258 80 105 28 51
278 258 81 106 29 51
278 259 80 110 17 51
278 259 81 110 14 48
278 258 82 107 30 52
278 258 83 109 30 52
278 259 82 111 15 49
278 259 83 113 15 46
278 256 84 93 43 65
278 256 85 96 45 72
278 257 84 102 37 62
278 257 85 104 39 67
278 256 86 96 48 75
278 256 87 96 49 74
278 257 86 103 43 69
278 257 87 100 43 68
278 258 84 110 32 55
278 258 85 111 33 59
278 259 84 113 13 43
278 259 85 113 17 45
279 259 85 114 15 42
278 258 86 108 30 57
278 258 87 106 34 59
278 259 86 113 15 44
278 259 87 112 15 45
279 259 87 115 10 44
278 260 80 112 22 54
278 260 81 114 26 55
278 261 80 107 39 62
278 261 81 106 44 66
279 261 80 94 71 80
279 261 81 95 71 80
278 260 82 115 22 56
278 260 83 117 22 52
278 261 82 106 50 71
278 261 83 112 38 64
279 261 83 105 60 76
279 262 80 92 79 86
279 262 81 95 84 90
279 263 80 92 80 86
279 263 81 96 79 88
279 262 82 94 79 87
279 262 83 98 83 92
279 263 82 99 79 88
279 263 83 100 80 91
278 260 84 117 20 47
278 260 85 118 19 48
279 260 84 117 21 50
279 260 85 117 18 46
279 261 84 108 47 67
279 261 85 110 45 67
278 260 86 119 16 48
279 260 86 117 21 51
279 260 87 119 19 53
279 261 86 109 48 71
279 261 87 110 50 73
279 262 84 97 86 96
279 262 85 101 87 98
279 263 84 100 80 93
279 263 85 99 78 93
279 262 86 101 80 93
279 262 87 102 80 93
279 263 86 101 79 95
279 263 87 101 79 93
278 256 88 97 49 70
278 256 89 98 50 65
278 257 88 100 46 66
278 257 89 99 53 69
279 257 89 101 51 66
278 256 90 105 50 57
279 256 90 100 52 62
279 256 91 107 48 53
279 257 90 99 51 66
279 257 91 99 51 65
278 258 88 107 45 64
279 258 88 107 38 58
279 258 89 106 41 60
279 259 88 114 17 49
279 259 89 112 22 51
279 258 90 107 45 64
279 258 91 105 45 64
279 259 90 113 27 55
279 259 91 113 22 54
279 256 92 117 42 46
279 256 93 125 38 41
279 257 92 106 44 57
279 257 93 112 35 51
279 256 94 128 38 39
279 256 95 129 43 35
279 257 94 117 31 49
279 257 95 121 33 48
279 258 92 108 38 62
279 258 93 110 39 60
279 259 92 112 18 51
279 259 93 114 19 53
279 258 94 113 32 57
279 258 95 114 28 55
279 259 94 114 11 54
279 259 95 115 11 51
279 260 88 120 20 54
279 260 89 121 20 53
279 261 88 110 50 75
279 261 89 113 47 73
279 260 90 120 22 55
279 260 91 121 23 56
279 261 90 113 45 71
279 261 91 110 49 72
279 262 88 102 81 95
279 262 89 102 88 101
279 263 88 99 76 90
279 263 89 99 79 90
279 262 90 103 90 101
279 262 91 100 88 98
279 263 90 97 81 91
279 263 91 96 83 93
279 260 92 120 17 51
279 260 93 120 20 50
279 261 92 109 51 73
279 261 93 103 56 73
279 260 94 120 22 50
279 260 95 119 19 50
279 261 94 103 61 74
279 261 95 104 66 77
279 262 92 101 92 102
279 262 93 98 95 103
279 263 92 97 77 89
279 263 93 99 73 86
279 262 94 97 93 102
279 262 95 98 96 104
279 263 94 98 67 82
279 263 95 99 63 82
279 264 80 90 57 73
279 264 81 98 51 72
279 265 80 102 29 62
279 265 81 113 25 62
279 264 82 106 39 67
279 264 83 110 35 64
279 265 82 118 28 63
279 265 83 121 31 63
279 266 80 98 33 60
279 266 81 110 38 62
279 267 81 99 46 63
279 266 82 114 45 65
279 266 83 116 43 69
279 267 82 102 50 64
279 267 83 106 43 63
279 264 84 113 36 64
279 264 85 113 34 64
279 265 84 123 31 63
279 265 85 125 26 62
279 264 86 113 33 64
279 264 87 112 33 66
279 265 86 125 23 62
279 265 87 126 19 63
279 266 84 119 39 71
279 266 85 120 39 71
279 267 84 108 47 66
279 267 85 108 57 74
279 266 86 121 40 69
279 266 87 121 39 68
279 267 86 115 65 79
279 267 87 117 70 80
279 268 82 88 52 56
279 268 83 95 47 55
279 269 82 80 50 51
279 269 83 83 46 42
279 268 84 93 52 60
279 268 85 103 83 84
279 269 84 91 67 63
279 269 85 110 101 97
278 269 87 142 139 138
279 268 86 123 112 108
279 268 87 127 113 111
279 269 86 132 129 127
279 269 87 141 137 137
279 270 84 109 96 91
279 270 85 133 127 125
279 271 85 142 136 136
278 270 87 132 127 131
278 271 87 131 127 132
279 270 86 140 137 138
279 270 87 140 139 142
279 271 86 141 138 141
279 264 88 113 34 66
279 264 89 113 32 64
279 265 88 127 11 65
279 265 89 128 11 65
279 264 90 113 28 61
279 264 91 112 27 60
279 265 90 129 7 63
279 265 91 130 6 61
279 266 88 123 38 70
279 266 89 123 38 70
279 267 88 121 76 86
279 267 89 123 83 89
279 266 90 123 37 70
279 266 91 121 36 69
279 267 90 123 85 89
279 267 91 123 88 91
279 264 92 115 24 59
279 264 93 117 21 57
279 265 92 129 7 61
279 265 93 128 12 61
279 264 94 119 15 54
279 264 95 121 8 55
279 265 94 127 16 60
279 265 95 127 14 61
279 266 92 121 40 68
279 266 93 122 46 70
279 267 92 123 89 91
279 267 93 124 89 93
279 266 94 122 51 71
279 266 95 124 57 75
279 267 94 127 91 96
279 267 95 132 104 105
278 269 88 131 122 123
278 269 89 133 128 128
279 268 88 128 114 113
279 268 89 129 117 117
279 269 88 134 122 121
278 268 90 135 127 126
278 268 91 141 133 130
278 269 90 138 134 134
278 269 91 142 138 137
279 268 90 131 112 110
279 268 91 134 117 114
278 270 88 130 122 126
278 270 89 132 127 130
278 271 88 128 123 127
278 271 89 135 131 134
278 270 90 136 133 134
278 270 91 140 137 139
278 271 90 139 136 139
278 271 91 139 136 139
278 268 92 143 136 134
278 268 93 139 136 135
278 269 92 142 138 137
278 269 93 139 135 135
279 268 92 139 126 123
279 268 93 137 128 126
278 269 94 138 136 137
279 268 94 137 131 131
279 268 95 140 135 133
279 269 94 137 136 138
279 269 95 138 136 139
278 270 92 141 137 138
278 270 93 139 135 135
278 271 92 139 136 139
278 271 93 142 138 139
278 270 94 142 137 137
278 270 95 142 137 138
278 271 94 143 138 139
278 271 95 141 137 138
279 270 95 140 137 138
280 265 80 97 31 61
280 266 80 94 35 63
280 267 80 85 51 67
280 267 81 90 53 65
280 268 80 76 69 78
280 268 81 83 67 73
280 269 80 79 78 86
280 269 81 76 71 78
281 268 80 71 68 79
281 269 80 69 73 84
280 269 82 75 54 55
280 270 80 74 80 90
280 270 81 68 75 83
281 270 80 64 75 88
281 271 81 60 73 86
280 270 82 64 55 58
280 270 83 71 44 39
280 271 82 64 62 72
280 271 83 76 63 64
281 271 82 64 69 80
281 271 83 66 58 69
282 269 80 60 65 82
282 270 80 56 70 87
282 271 80 54 74 92
283 270 80 55 73 93
283 271 80 62 86 108
280 270 84 99 84 77
280 270 85 125 117 113
280 271 84 123 115 113
284 270 80 71 95 115
284 271 80 68 93 115
285 271 80 78 106 132
