ply
format ascii 1.0
comment Version 2, Copyright 2017, 8i Labs, Inc.
comment frame_to_world_scale 0.179523
comment frame_to_world_translation -45.2095 7.18301 -54.3561
comment width 1023
element vertex 115
property float x
property float y
property float z
property uchar red
property uchar green
property uchar blue
end_header
287 305 193 107 108 114
287 304 194 100 103 110
287 304 195 93 99 108
287 305 194 102 105 113
287 305 195 98 102 110
287 306 194 103 106 114
287 306 195 98 103 112
287 307 195 98 104 113
287 309 195 92 97 108
287 310 195 103 105 112
287 311 195 103 105 112
287 309 196 90 93 100
287 310 196 94 94 98
287 310 197 117 102 88
287 311 196 91 92 97
287 311 197 115 100 87
287 311 198 153 129 104
287 307 207 148 11 69
286 309 207 150 52 70
287 308 207 149 8 75
287 309 207 151 46 71
286 310 207 153 84 71
286 311 207 156 108 80
287 310 207 162 111 83
287 311 207 170 135 99
287 312 195 101 104 112
287 313 194 103 104 111
287 313 195 94 96 103
287 314 194 103 101 105
287 314 195 98 96 100
287 315 194 107 103 105
287 315 195 103 100 101
287 312 196 99 96 98
287 312 197 118 102 88
287 313 196 96 91 90
287 313 197 127 108 90
287 312 198 155 131 107
287 313 198 161 136 110
287 313 199 176 149 122
287 314 196 100 94 93
287 314 197 128 109 89
287 315 196 107 97 91
287 315 197 138 116 94
287 314 198 165 140 114
287 314 199 179 152 126
287 315 198 163 138 111
287 315 199 175 149 123
286 317 195 117 106 99
287 316 194 115 108 108
287 316 195 109 103 101
287 317 194 115 110 110
287 317 195 116 107 101
286 318 195 115 99 86
286 319 194 108 93 89
286 319 195 111 92 84
287 318 194 111 105 103
287 318 195 118 107 99
287 319 194 108 110 117
286 316 196 128 110 91
286 316 197 147 124 101
286 317 196 127 108 91
286 317 197 155 131 105
287 316 196 118 105 94
287 316 197 144 121 98
286 317 198 170 145 120
287 316 198 164 138 111
287 316 199 170 144 118
287 317 198 171 145 120
287 317 199 176 150 124
286 318 196 132 111 89
286 318 197 161 136 110
286 319 196 124 102 81
286 319 197 157 131 105
286 318 198 176 151 127
286 319 198 177 151 125
286 319 199 181 155 129
287 318 199 180 154 129
287 319 199 185 158 131
285 314 207 176 147 114
285 315 207 177 147 113
286 312 207 163 127 92
286 313 207 175 147 113
287 312 206 184 156 123
287 312 207 176 148 113
287 313 206 186 157 126
287 313 207 183 155 123
286 314 207 180 151 119
286 315 207 179 149 117
287 314 206 185 155 123
287 314 207 183 154 122
287 315 206 185 154 122
287 315 207 180 150 118
287 316 200 179 152 126
287 317 200 181 153 126
287 318 200 180 152 124
287 319 200 183 155 127
287 319 201 179 150 119
285 316 207 178 147 113
285 317 207 180 148 114
284 319 207 179 150 119
285 318 207 177 144 107
285 319 207 180 148 115
286 316 207 179 149 116
286 317 207 181 150 117
287 316 206 180 150 119
287 316 207 179 149 117
287 317 206 183 153 122
287 317 207 180 150 118
287 318 205 183 154 123
287 319 205 181 151 119
286 318 207 179 147 111
286 319 206 182 152 118
286 319 207 181 150 115
287 318 206 181 151 119
287 319 206 181 150 117
