ply
format ascii 1.0
comment Version 2, Copyright 2017, 8i Labs, Inc.
comment frame_to_world_scale 0.179523
comment frame_to_world_translation -45.2095 7.18301 -54.3561
comment width 1023
element vertex 393
property float x
property float y
property float z
property uchar red
property uchar green
property uchar blue
end_header
279 301 214 145 134 123
279 301 215 135 130 129
279 303 213 132 66 61
279 302 214 140 120 102
279 302 215 141 127 116
279 303 214 138 102 86
279 303 215 141 118 103
279 302 216 131 125 122
279 303 216 137 125 116
279 303 217 125 118 115
283 288 213 141 145 154
283 289 213 125 133 146
282 289 215 132 138 149
283 288 214 143 145 154
283 288 215 147 148 156
283 289 214 125 133 146
283 289 215 135 139 151
282 291 213 108 124 144
283 290 213 107 122 140
283 291 212 113 128 146
283 291 213 109 125 143
282 290 214 105 120 138
282 290 215 120 129 144
282 291 214 105 121 140
282 291 215 118 128 143
283 290 214 107 121 139
283 294 211 95 120 146
283 295 211 102 122 143
281 293 215 109 124 142
281 295 213 101 121 142
281 294 214 106 123 143
281 294 215 105 120 139
281 295 214 109 127 148
281 295 215 102 120 140
282 292 213 110 126 146
282 293 213 105 123 144
283 292 212 114 130 148
283 292 213 112 127 147
283 293 212 107 126 148
283 293 213 107 124 145
282 292 214 106 122 142
282 292 215 112 125 141
282 293 214 106 123 144
282 293 215 107 122 141
282 294 212 96 119 144
282 294 213 103 122 144
282 295 212 99 120 143
282 295 213 99 120 142
283 294 212 98 122 147
283 295 212 95 120 145
282 294 214 104 122 142
285 288 211 96 114 133
285 289 211 93 113 136
284 290 211 108 124 145
284 291 211 116 131 150
285 290 211 112 128 147
285 291 211 118 132 151
286 288 211 88 112 137
286 289 210 103 123 146
286 289 211 95 118 143
287 288 210 85 114 143
287 288 211 87 114 142
287 289 210 91 118 144
287 291 209 81 109 140
286 290 210 108 126 146
286 291 210 109 126 146
287 290 210 88 114 140
287 291 210 84 111 137
284 288 212 126 133 145
284 288 213 141 144 154
284 289 212 104 118 136
284 289 213 118 127 142
285 288 212 111 123 138
284 290 212 108 124 143
284 291 212 112 128 148
284 292 211 121 135 153
284 293 211 107 126 148
285 292 210 114 129 149
285 292 211 118 132 151
285 293 210 100 121 143
284 294 210 90 113 136
284 294 211 91 116 142
284 295 210 117 127 140
284 295 211 102 120 140
285 294 210 95 115 135
285 295 210 128 133 141
287 292 209 88 115 142
287 293 209 97 119 142
286 292 210 105 125 147
286 293 210 96 118 141
287 292 210 91 117 142
287 293 210 94 119 143
286 294 209 113 123 136
286 295 209 140 138 140
287 294 209 118 129 143
287 295 209 140 137 137
286 294 210 104 119 136
286 295 210 139 139 143
284 292 212 117 132 151
284 293 212 115 131 151
282 289 216 139 143 154
282 289 217 139 142 152
283 288 216 142 144 152
283 288 217 136 140 149
283 289 216 142 145 155
283 289 217 135 139 149
283 288 218 134 139 149
283 289 218 133 138 148
282 290 216 137 141 152
282 290 217 138 141 150
282 291 216 135 140 151
282 291 217 143 145 153
282 291 218 136 138 146
283 290 218 131 135 145
283 290 219 139 141 150
283 291 218 134 136 145
283 291 219 137 139 146
283 291 220 144 146 154
281 293 216 121 130 143
281 293 217 132 137 147
281 294 216 112 123 139
281 294 217 130 135 146
281 295 216 107 120 137
281 295 217 122 129 142
282 292 216 128 135 148
282 292 217 144 146 154
282 293 217 143 145 154
282 292 218 141 142 150
282 293 218 144 145 152
282 293 219 141 141 147
283 292 219 139 140 147
283 293 219 141 141 148
282 294 217 142 144 152
282 295 217 134 138 149
282 294 218 145 145 152
282 294 219 138 139 146
282 295 218 142 144 152
282 295 219 135 137 146
283 294 219 135 136 143
283 292 220 143 144 152
283 293 220 141 142 149
283 294 220 136 138 145
283 294 221 136 137 144
283 295 220 130 132 140
283 295 221 131 133 141
284 288 218 138 142 152
284 288 219 128 132 143
284 289 218 141 144 154
284 289 219 137 140 150
284 290 219 144 145 154
284 289 220 131 134 143
285 288 220 127 131 141
285 288 221 136 139 148
285 289 220 127 130 139
285 289 221 132 134 143
285 289 222 137 140 148
284 290 220 141 143 151
284 291 220 145 146 154
284 291 221 141 142 150
285 290 221 135 138 146
285 291 221 136 138 146
285 290 222 136 138 146
285 291 222 134 135 143
286 288 221 140 143 151
286 288 222 139 141 150
286 289 222 134 137 145
287 288 222 134 136 145
287 288 223 137 138 145
287 289 223 135 137 144
286 290 222 131 133 141
286 290 223 128 130 138
286 291 222 132 134 142
286 291 223 132 134 142
287 290 223 135 136 144
287 291 223 138 139 146
284 292 220 145 146 154
284 292 221 139 141 148
284 293 220 143 144 152
284 293 221 138 139 147
285 292 221 135 137 145
285 293 221 131 133 140
284 293 222 131 132 140
285 292 222 136 138 145
285 293 222 131 132 140
285 293 223 129 131 138
284 294 221 137 138 146
284 295 221 130 132 140
284 294 222 121 123 131
284 295 222 123 125 133
285 294 222 119 121 129
285 294 223 121 123 131
285 295 222 118 121 129
285 295 223 120 122 129
286 292 222 137 138 146
286 292 223 139 139 147
286 293 223 134 136 143
286 294 223 122 124 131
281 299 211 150 118 97
282 297 211 140 141 144
283 296 211 122 130 143
283 297 210 162 144 124
283 297 211 155 146 137
282 298 211 159 142 124
282 299 211 147 114 91
283 298 210 145 109 82
283 298 211 157 136 113
283 299 210 133 55 53
283 299 211 137 87 67
281 296 213 94 118 142
281 297 212 108 124 142
281 297 213 94 117 140
280 296 215 106 124 145
280 297 214 97 119 142
280 297 215 103 121 142
281 296 214 103 123 146
281 296 215 109 125 145
281 297 214 94 118 142
280 298 213 114 118 126
280 299 213 139 135 134
281 298 212 140 137 135
281 298 213 110 119 130
281 299 212 155 137 121
281 299 213 143 138 135
280 298 214 100 116 134
280 298 215 102 120 140
280 299 214 109 119 132
280 299 215 104 120 139
282 296 212 101 120 141
282 296 213 98 120 142
282 297 212 122 130 142
282 298 212 142 139 140
281 300 211 142 98 77
281 301 211 136 39 64
281 302 211 139 24 72
281 303 211 141 35 75
282 300 211 133 55 55
282 301 210 140 5 72
282 301 211 137 18 64
283 300 210 135 23 58
283 301 210 139 1 65
282 302 210 141 23 73
282 302 211 141 24 75
282 303 210 141 33 75
282 303 211 142 32 76
283 302 210 139 12 68
283 303 210 139 22 70
280 300 212 151 125 105
280 300 213 156 144 133
280 301 212 145 99 87
280 301 213 152 130 111
281 300 212 153 128 107
281 301 212 141 82 75
280 300 214 132 132 136
280 300 215 111 123 137
280 301 214 144 135 129
280 301 215 126 128 134
280 302 212 133 51 64
280 302 213 143 103 87
280 303 212 133 29 63
280 303 213 133 64 62
281 302 212 135 42 67
280 302 214 147 129 112
285 297 209 150 118 92
284 296 210 145 140 139
284 296 211 141 139 141
284 297 210 159 137 114
285 296 210 153 143 135
285 297 210 159 135 112
284 299 209 135 25 48
285 298 209 137 65 57
285 299 209 135 9 50
284 298 210 141 87 68
284 299 210 135 35 50
286 296 209 152 133 119
286 297 209 141 92 71
287 296 208 129 91 90
287 296 209 143 118 107
287 297 208 133 43 72
287 297 209 134 60 64
286 298 209 133 33 54
286 299 209 138 7 59
287 298 208 138 27 73
287 298 209 134 23 65
287 299 208 140 18 68
284 300 209 139 6 60
284 301 209 137 1 60
285 300 209 138 6 60
285 301 209 136 0 60
284 300 210 138 16 59
284 301 210 138 0 61
284 302 209 137 8 62
284 303 209 139 26 67
285 302 209 138 17 65
285 303 209 139 23 67
286 300 208 139 6 63
286 300 209 139 10 63
286 301 208 139 6 63
286 301 209 138 8 63
287 300 208 141 8 64
287 301 208 141 5 62
286 302 208 140 16 68
286 303 208 140 17 67
287 302 208 143 12 67
287 303 208 142 13 65
280 297 216 106 121 140
281 296 216 109 122 139
281 296 217 118 126 138
281 297 216 110 123 140
281 297 217 112 122 136
281 297 218 124 129 140
280 298 216 106 121 139
280 298 217 111 123 140
280 299 216 108 123 142
280 299 217 107 120 139
281 298 217 113 123 139
281 299 217 108 120 140
281 298 218 115 123 137
281 299 218 110 119 136
282 296 218 133 137 147
282 296 219 129 133 143
282 297 218 132 136 146
282 297 219 130 134 145
282 298 218 125 130 141
282 298 219 129 132 142
282 299 219 123 128 139
282 297 220 121 126 136
283 296 220 122 126 135
283 296 221 126 128 136
283 297 220 122 125 134
283 297 221 127 129 137
282 298 220 128 131 140
282 299 220 126 129 138
283 298 220 121 125 135
283 298 221 122 125 134
283 299 220 125 128 137
283 299 221 127 127 133
283 299 222 129 127 132
280 300 216 111 124 141
280 300 217 105 119 138
280 301 216 119 123 131
280 301 217 110 119 133
280 300 218 101 114 136
280 301 218 103 115 131
281 300 218 107 117 136
281 300 219 114 123 136
281 301 218 103 114 132
281 301 219 107 117 132
280 302 217 120 120 124
280 303 217 119 116 118
280 302 218 106 114 125
280 303 218 112 114 121
280 303 219 103 111 124
281 302 218 101 111 127
281 302 219 106 115 131
281 303 219 105 114 128
282 300 219 118 125 137
282 301 219 111 120 134
281 302 220 104 112 124
281 303 220 99 109 123
282 300 220 124 128 138
282 301 220 114 120 131
282 301 221 122 124 132
283 300 221 130 129 134
283 301 221 124 125 131
283 300 222 133 130 132
283 301 222 131 128 132
282 302 220 104 112 125
282 302 221 106 113 124
282 303 220 100 109 123
282 303 221 97 105 118
282 303 222 93 101 113
283 302 222 116 119 127
283 302 223 122 123 129
283 303 222 103 109 119
283 303 223 103 109 119
284 296 222 124 126 134
284 297 222 126 127 135
285 296 222 121 123 130
285 296 223 126 127 134
285 297 223 129 129 136
284 298 222 128 129 136
284 299 222 130 129 134
284 299 223 129 129 135
285 298 223 130 129 135
285 299 223 131 130 135
284 300 222 133 130 132
284 300 223 134 132 136
284 301 222 134 131 134
284 301 223 137 133 136
285 300 223 133 132 137
285 301 223 134 132 136
284 302 223 128 126 130
284 303 223 110 112 120
