ply
format ascii 1.0
comment Version 2, Copyright 2017, 8i Labs, Inc.
comment frame_to_world_scale 0.179523
comment frame_to_world_translation -45.2095 7.18301 -54.3561
comment width 1023
element vertex 306
property float x
property float y
property float z
property uchar red
property uchar green
property uchar blue
end_header
272 400 72 76 98 124
272 401 72 77 99 125
273 400 72 61 91 123
273 401 72 62 92 123
272 402 72 79 101 126
272 403 72 80 103 127
273 402 72 65 94 124
273 403 72 66 95 124
274 400 72 57 90 126
274 400 73 58 92 129
274 401 72 59 91 125
275 400 73 59 92 127
275 401 73 59 91 125
274 402 72 57 90 125
274 403 72 57 90 125
275 402 72 58 89 123
275 402 73 58 88 122
275 403 72 58 88 123
272 404 72 82 104 128
272 405 72 86 107 130
273 404 72 67 96 125
273 405 72 73 100 127
272 406 72 88 108 130
272 407 72 91 109 131
273 406 72 79 103 128
273 407 72 81 103 128
274 404 72 56 90 124
274 405 72 59 91 124
275 404 72 59 89 124
275 405 72 59 90 124
274 406 72 60 92 124
274 407 72 61 92 124
275 406 72 58 90 124
275 407 72 56 90 123
276 400 73 60 90 123
276 401 73 59 90 124
277 400 73 72 97 126
277 401 73 69 96 125
276 402 73 57 88 122
276 403 72 58 87 122
276 403 73 58 88 122
277 402 73 66 94 125
277 403 73 66 94 124
278 400 73 77 99 126
278 401 73 78 100 127
279 401 73 72 95 124
278 400 74 75 98 124
279 400 74 64 90 119
279 401 74 65 91 119
278 402 73 79 102 127
278 403 73 77 100 125
279 402 73 71 96 123
279 403 73 72 96 123
279 402 74 65 91 118
276 404 72 60 89 123
276 405 72 60 90 123
277 404 72 70 97 126
277 404 73 69 96 125
277 405 72 72 98 127
276 406 72 60 91 123
276 407 72 58 90 123
277 406 72 73 99 126
277 407 72 74 98 124
278 404 73 80 101 126
278 405 72 85 104 128
278 405 73 83 102 127
279 404 73 73 96 123
279 405 73 75 96 122
278 406 72 87 104 126
278 407 72 86 102 123
279 406 73 80 99 124
279 407 72 84 101 124
279 407 73 74 95 121
272 408 71 89 108 130
272 409 71 89 106 132
272 410 71 92 109 132
272 411 71 92 107 129
273 411 71 93 108 129
272 412 71 94 109 128
272 413 71 96 108 125
273 412 71 94 109 128
273 413 71 93 107 127
273 414 71 93 109 130
274 414 71 85 104 128
275 415 71 63 91 124
272 408 72 90 108 130
272 409 72 88 106 133
273 408 72 82 103 128
273 409 72 83 103 129
272 410 72 90 107 132
272 411 72 88 105 128
273 410 72 87 106 132
273 411 72 87 106 130
274 408 72 58 91 122
274 409 72 59 91 122
275 408 72 55 90 123
275 409 72 56 91 123
274 410 72 56 89 121
274 411 72 64 92 123
275 410 72 56 90 123
275 411 72 55 89 122
272 413 72 93 106 127
273 412 72 89 106 130
273 413 72 96 110 130
272 414 72 92 107 127
272 415 72 91 107 126
273 414 72 93 107 128
273 415 72 90 106 127
274 412 72 67 93 124
274 413 72 76 98 126
275 412 72 57 89 122
275 413 72 58 89 123
274 414 72 77 99 126
274 415 72 79 101 126
275 414 72 61 91 125
275 415 72 60 90 125
276 408 72 59 91 123
276 409 72 60 92 126
277 408 72 74 98 125
277 409 72 79 100 127
276 410 72 59 91 125
276 411 72 59 91 123
277 410 72 78 99 126
277 411 72 77 99 124
278 408 72 85 101 121
278 409 72 87 101 121
279 408 72 76 96 119
279 409 72 80 97 119
278 410 72 89 101 121
278 411 72 89 101 120
279 410 72 82 99 121
279 411 72 81 98 121
276 412 72 56 88 122
276 413 72 56 89 123
277 412 72 76 97 122
277 413 72 75 98 124
276 414 72 61 91 124
276 415 72 62 92 125
277 414 72 78 99 125
277 415 72 82 101 126
278 412 72 89 101 120
278 413 72 86 101 121
279 412 72 79 97 120
279 413 72 83 100 122
278 414 72 87 101 122
278 415 72 89 104 123
279 414 72 83 100 122
279 415 72 82 99 121
280 400 74 34 68 100
280 401 74 26 62 96
281 400 74 55 83 109
281 400 75 65 93 116
281 401 74 44 76 103
280 403 73 53 83 111
280 402 74 24 63 98
280 403 74 26 65 101
281 402 74 33 67 98
281 403 74 40 73 106
282 400 75 78 102 123
282 401 74 77 101 122
282 401 75 71 98 123
283 400 75 59 92 119
283 401 75 55 89 120
282 402 74 73 98 123
282 403 74 78 101 126
283 402 74 54 87 118
283 402 75 53 88 119
283 403 74 53 86 117
280 404 73 40 75 108
280 405 73 40 75 108
281 404 73 32 72 108
281 405 73 44 79 111
281 404 74 53 84 114
280 406 73 39 74 106
280 407 73 43 76 106
281 406 73 58 85 112
281 407 73 64 88 114
282 404 74 82 105 128
282 405 74 84 105 127
283 404 74 51 86 116
283 405 74 53 86 116
282 406 73 81 102 124
282 407 73 78 98 121
282 406 74 88 107 127
282 407 74 74 97 122
283 406 74 51 84 115
283 407 74 50 83 116
284 400 75 59 88 117
284 401 75 46 81 113
285 400 75 43 76 107
285 401 75 33 67 103
284 402 75 41 82 115
284 403 74 43 82 115
284 403 75 41 81 114
285 402 75 39 74 107
285 403 75 55 85 114
286 401 75 27 61 101
286 402 75 45 75 107
286 403 75 69 93 117
284 400 76 57 85 113
285 400 76 36 68 100
285 401 76 27 59 100
286 400 76 31 64 100
286 401 76 35 68 104
287 400 76 49 77 107
287 400 77 45 76 104
287 401 76 53 81 108
286 402 76 58 85 112
287 402 76 66 91 114
287 403 76 82 101 121
284 404 74 39 78 112
284 404 75 41 78 111
284 405 74 33 75 112
285 404 74 47 80 114
285 404 75 72 95 122
285 405 74 48 81 116
285 405 75 65 90 121
284 406 74 38 78 116
284 407 74 40 79 117
285 406 74 44 79 116
285 407 74 56 86 118
285 407 75 73 94 121
286 404 75 73 96 120
286 405 75 64 91 118
287 404 75 81 102 123
287 405 75 75 96 120
286 406 75 63 89 117
286 407 75 88 104 126
287 406 75 70 91 116
287 407 75 71 91 114
287 404 76 85 104 124
280 408 72 50 81 108
280 408 73 38 72 103
280 409 72 53 82 110
281 408 73 54 82 112
281 409 73 62 90 119
280 410 72 55 83 112
280 411 72 50 81 111
281 410 73 63 91 120
281 411 72 61 89 121
281 411 73 70 96 125
282 408 73 63 89 117
282 409 73 57 87 116
283 409 73 51 84 116
282 408 74 55 83 115
283 408 74 49 81 114
283 409 74 41 79 112
282 410 73 58 90 119
282 411 73 68 96 124
283 410 73 50 85 116
283 411 73 50 86 117
283 410 74 38 80 111
280 412 72 45 78 110
280 413 72 42 74 107
281 412 72 56 85 119
281 412 73 70 95 125
281 413 72 40 75 111
280 414 72 49 81 111
280 415 72 63 90 118
281 414 72 47 75 110
281 415 72 65 94 122
282 412 73 69 95 123
282 413 73 58 88 116
283 412 73 53 86 117
283 413 73 58 87 115
282 414 73 63 91 116
282 415 73 76 99 123
283 414 73 69 92 116
283 415 73 88 105 125
284 408 74 49 83 115
284 409 74 52 86 113
285 408 74 77 99 123
285 409 74 96 112 131
284 410 74 61 93 118
284 411 74 53 88 116
285 410 74 107 121 137
285 411 74 86 106 127
286 408 75 107 118 135
286 409 74 126 134 147
286 409 75 108 118 133
287 408 75 67 87 110
287 409 75 70 89 112
286 410 74 101 114 128
286 411 74 95 110 126
287 410 74 80 100 121
287 410 75 77 98 120
287 411 74 106 118 135
284 412 73 37 80 110
284 413 73 48 82 111
285 413 73 59 86 113
284 412 74 36 79 109
285 412 74 55 86 112
285 413 74 43 78 108
284 414 73 75 96 120
284 415 73 94 109 127
285 414 73 78 97 122
285 415 73 100 113 131
285 414 74 63 86 118
286 412 74 84 104 124
286 413 74 51 83 112
287 412 74 114 125 139
287 413 74 69 92 116
286 414 74 55 82 114
286 415 74 87 104 126
287 414 74 35 70 100
287 415 74 39 71 105
