ply
format ascii 1.0
comment Version 2, Copyright 2017, 8i Labs, Inc.
comment frame_to_world_scale 0.179523
comment frame_to_world_translation -45.2095 7.18301 -54.3561
comment width 1023
element vertex 298
property float x
property float y
property float z
property uchar red
property uchar green
property uchar blue
end_header
272 418 71 98 113 135
273 418 71 94 109 129
273 419 71 96 112 132
275 416 71 57 88 123
275 417 71 75 98 124
274 418 71 90 107 128
274 419 71 96 111 132
275 418 71 89 106 131
275 419 71 72 96 128
273 420 71 98 113 136
273 421 71 99 115 139
274 420 71 96 112 134
274 421 71 99 114 139
275 420 71 89 108 136
275 421 71 98 114 140
276 418 71 68 93 126
276 419 71 71 97 127
277 418 71 80 101 126
276 420 71 77 101 130
272 416 72 90 106 128
272 417 72 87 104 132
273 416 72 89 105 125
273 417 72 94 109 128
272 418 72 86 104 133
272 419 72 70 95 126
274 416 72 81 101 125
274 417 72 91 108 128
275 416 72 62 90 123
275 417 72 67 92 124
274 418 72 91 108 128
275 418 72 75 97 128
275 419 72 89 107 134
272 420 72 70 96 128
272 421 72 57 86 128
273 420 72 98 114 136
273 421 72 97 114 141
272 422 72 56 84 130
272 423 72 66 93 135
273 422 72 98 116 145
273 423 72 97 115 145
274 420 72 96 112 135
274 421 72 95 111 136
275 420 72 89 108 136
275 421 72 94 112 140
274 422 72 99 115 140
274 423 72 101 117 141
275 422 72 95 113 141
275 423 72 98 116 143
276 416 72 63 91 124
276 417 72 66 92 124
277 416 72 82 101 125
277 417 72 82 101 125
276 418 72 70 93 127
276 419 72 74 98 130
277 418 72 85 103 126
277 419 72 85 103 127
278 416 72 92 105 124
278 417 72 93 106 125
279 416 72 84 101 122
279 417 72 88 104 125
278 418 72 97 109 128
278 419 72 97 110 129
279 418 72 89 105 127
279 419 72 93 107 128
276 420 72 79 102 133
276 421 72 85 108 138
277 420 72 90 108 133
277 421 72 96 114 139
276 422 72 84 107 137
276 423 72 81 106 137
277 422 72 98 116 141
277 423 72 99 117 143
278 420 72 99 113 132
278 421 72 104 118 139
279 420 72 95 110 130
279 421 72 98 113 135
278 422 72 105 120 142
278 423 72 104 119 142
279 422 72 99 114 137
279 423 72 95 112 138
272 424 72 72 98 141
272 425 72 64 92 140
272 425 73 63 91 141
273 424 72 94 114 148
273 425 72 85 107 144
272 426 73 64 95 143
272 427 73 61 89 135
273 426 73 77 101 142
273 427 73 67 94 139
274 424 72 102 118 143
274 425 72 104 119 145
275 424 72 102 118 145
275 425 72 104 119 147
274 426 72 105 118 146
274 426 73 101 115 146
274 427 73 101 116 151
275 426 72 105 120 148
275 426 73 106 118 145
275 427 73 107 120 150
272 428 73 63 91 134
272 429 73 86 111 147
273 428 73 71 97 141
273 429 73 73 99 143
272 430 73 84 111 148
272 431 73 66 99 143
273 430 73 68 96 143
273 431 73 62 91 141
274 428 73 102 117 152
274 429 73 95 112 149
275 428 73 108 121 150
275 429 73 109 123 150
274 430 73 92 109 147
274 431 73 93 108 147
275 430 73 107 121 148
275 431 73 108 121 147
276 424 72 85 109 140
276 425 72 92 113 143
277 424 72 100 117 143
277 425 72 102 118 145
277 425 73 102 118 145
276 426 72 98 117 146
276 427 73 104 119 147
277 426 72 104 119 146
277 426 73 105 120 145
277 427 73 106 118 145
278 424 72 103 117 142
278 425 72 101 116 142
278 425 73 101 115 142
279 424 72 96 112 139
279 424 73 77 99 135
279 425 73 86 105 138
278 426 73 102 116 142
278 427 73 106 118 143
279 426 73 83 102 136
279 427 73 88 104 139
276 428 73 108 121 148
276 429 73 113 125 151
277 428 73 108 120 145
277 429 73 111 121 147
276 430 73 110 122 148
276 431 73 109 121 147
277 430 73 109 118 146
277 431 73 105 115 143
278 428 73 107 120 142
278 429 73 107 119 143
279 428 73 88 105 138
279 429 73 80 101 137
278 430 73 103 115 143
278 431 73 98 112 142
279 430 73 70 95 137
279 431 73 65 93 138
280 416 72 60 89 116
280 417 72 54 86 114
281 416 72 67 95 123
281 417 72 52 86 117
280 418 72 47 81 112
280 419 72 51 81 113
281 418 72 44 82 116
281 419 72 47 83 117
281 419 73 56 89 120
282 416 73 81 103 128
282 417 72 70 96 124
282 417 73 78 102 129
283 416 73 99 115 135
283 417 73 93 112 134
282 418 72 68 96 124
282 418 73 76 104 132
282 419 72 65 95 124
282 419 73 66 97 125
283 418 73 77 104 131
283 419 73 61 94 123
280 420 72 54 85 115
280 421 72 64 92 121
281 420 72 55 87 120
281 420 73 75 100 127
281 421 72 86 107 133
281 421 73 99 117 139
280 422 72 69 96 125
280 422 73 71 99 128
280 423 72 66 94 126
280 423 73 67 97 128
281 422 73 110 125 145
281 423 73 112 128 148
282 420 73 74 98 123
282 421 73 98 114 133
283 420 73 57 88 118
283 421 73 63 90 119
282 422 73 114 126 142
282 423 73 110 124 144
283 422 73 69 97 122
283 423 73 73 101 128
284 416 73 99 113 131
284 417 73 87 106 127
285 416 73 111 122 136
285 417 73 106 118 132
284 418 73 65 95 122
284 419 73 46 86 117
285 418 73 87 105 125
285 419 73 54 85 112
286 416 73 100 113 129
286 417 73 98 109 124
286 416 74 74 93 115
286 417 74 83 99 116
287 416 74 34 62 103
287 417 74 42 63 99
286 418 73 94 107 125
286 419 73 90 106 125
287 418 73 87 101 118
287 419 73 93 106 124
287 418 74 62 79 105
287 419 74 78 93 114
284 420 73 52 85 120
284 421 73 66 94 125
285 420 73 34 74 109
285 421 73 56 85 116
284 422 73 77 103 129
284 423 73 86 110 136
285 422 73 77 99 124
285 423 73 96 113 134
286 420 73 67 92 115
286 421 73 63 90 114
287 420 73 92 106 125
287 421 73 71 96 120
286 421 74 80 100 121
286 422 73 71 95 118
286 423 73 78 100 123
287 422 74 40 83 116
287 423 74 43 80 121
280 424 73 57 91 127
280 425 73 34 78 120
281 424 73 100 121 144
281 425 73 61 98 128
280 426 73 33 75 118
280 427 73 57 87 129
281 426 73 48 87 124
281 427 73 76 103 137
282 424 73 93 115 139
282 425 73 66 100 131
283 424 73 67 100 132
283 425 73 65 100 134
282 426 73 69 100 132
282 427 73 89 112 140
283 426 73 71 102 136
283 427 73 82 108 138
280 428 73 79 105 139
280 429 73 75 103 140
281 428 73 90 115 144
281 429 73 90 115 145
280 430 73 68 102 141
280 431 73 79 111 149
281 430 73 104 125 154
281 431 73 119 139 165
282 428 73 103 120 142
282 429 73 121 130 147
283 428 73 100 115 144
283 429 73 128 135 152
282 430 73 134 142 157
282 431 73 130 143 161
283 430 73 130 138 153
283 431 73 117 132 151
283 431 74 97 119 144
284 424 73 76 105 134
284 425 73 65 99 131
285 424 73 98 116 137
285 425 73 78 104 131
284 426 73 68 101 132
284 427 73 77 104 135
285 426 73 68 99 129
285 427 73 85 109 137
286 424 73 85 104 128
286 425 73 88 109 133
287 425 73 83 105 130
287 424 74 57 85 124
287 425 74 78 100 129
286 426 73 86 110 135
286 427 73 96 116 140
287 426 73 103 118 138
287 427 73 104 119 140
287 426 74 99 116 138
287 427 74 92 113 137
284 428 73 95 111 143
284 429 73 122 131 149
285 428 73 106 122 144
285 429 73 123 133 149
284 430 73 119 129 145
284 430 74 114 127 146
284 431 74 96 117 145
285 430 74 117 130 147
285 431 74 101 121 147
286 428 73 106 121 141
286 429 73 115 127 145
286 429 74 106 120 140
287 428 74 86 110 135
287 429 74 60 92 129
286 430 74 100 116 139
286 431 74 95 115 143
287 430 74 56 82 129
287 431 74 70 89 135
