ply
format ascii 1.0
comment Version 2, Copyright 2017, 8i Labs, Inc.
comment frame_to_world_scale 0.179523
comment frame_to_world_translation -45.2095 7.18301 -54.3561
comment width 1023
element vertex 288
property float x
property float y
property float z
property uchar red
property uchar green
property uchar blue
end_header
279 372 272 91 110 132
279 373 272 92 112 135
279 374 272 92 112 137
279 374 273 100 119 141
279 375 272 93 113 139
279 375 273 95 116 140
279 374 274 104 122 144
279 374 275 93 114 141
279 375 274 94 115 138
279 375 275 88 111 137
279 374 276 76 104 135
279 374 277 80 107 138
279 375 276 78 107 138
279 375 277 80 110 140
279 374 278 82 110 142
279 374 279 74 107 139
279 375 278 83 111 142
279 375 279 73 106 139
279 368 287 90 108 138
279 369 286 104 120 145
279 369 287 92 110 139
279 370 285 96 117 140
279 371 285 89 113 138
279 370 286 94 114 140
279 370 287 88 110 138
279 371 286 78 105 134
279 371 287 68 99 131
279 373 281 78 111 138
279 373 282 76 109 137
279 373 283 71 104 133
279 374 280 74 108 140
279 374 281 75 110 140
279 375 280 69 106 138
279 375 281 77 112 143
279 374 282 72 108 139
279 374 283 71 107 138
279 375 282 79 114 145
279 375 283 78 113 143
279 372 284 78 105 135
279 372 285 70 100 133
279 373 284 67 101 133
279 373 285 64 99 135
279 372 286 65 99 132
279 372 287 59 97 132
279 373 286 61 100 135
279 373 287 62 103 136
279 374 284 66 104 136
279 374 285 67 106 137
279 375 284 76 111 142
279 375 285 78 113 142
279 374 286 73 110 141
279 374 287 72 111 142
279 375 286 82 117 145
279 375 287 84 119 148
279 376 272 86 110 134
279 376 273 84 110 135
279 377 272 84 108 135
279 377 273 84 110 136
279 376 274 84 111 136
279 376 275 85 111 138
279 377 274 83 111 137
279 377 275 83 111 138
279 378 272 85 109 136
279 378 273 86 111 138
279 379 272 85 109 137
279 379 273 83 108 137
279 378 274 85 111 138
279 378 275 83 109 137
279 379 274 85 109 137
279 379 275 87 110 137
279 376 276 82 110 140
279 376 277 77 109 138
279 377 276 77 108 135
279 377 277 71 106 136
279 376 278 72 106 137
279 376 279 67 103 136
279 377 278 71 106 137
279 377 279 65 101 136
279 378 276 81 107 136
279 378 277 80 109 139
279 379 276 91 113 139
279 379 277 93 115 142
279 378 278 80 108 140
279 378 279 70 103 137
279 379 278 86 111 140
279 379 279 75 107 139
279 380 272 78 104 134
279 380 273 80 106 135
279 381 272 76 102 133
279 381 273 82 107 135
279 380 274 91 112 140
279 380 275 98 118 143
279 381 274 95 116 141
279 381 275 100 121 145
278 383 272 76 102 134
278 383 273 78 104 134
279 382 272 73 101 133
279 382 273 85 110 137
279 383 272 70 97 132
279 383 273 79 105 134
278 382 275 79 109 136
278 383 274 82 107 134
278 383 275 75 106 134
279 382 274 87 111 137
279 382 275 87 113 139
278 381 277 85 111 141
279 380 276 100 120 143
279 380 277 94 116 141
279 381 276 97 119 145
279 381 277 85 112 141
278 380 279 73 108 138
278 381 278 69 103 136
278 381 279 70 104 137
279 380 278 83 111 139
279 380 279 78 109 139
279 381 278 76 107 137
278 382 276 75 107 138
278 382 277 70 103 138
278 383 276 70 104 136
278 383 277 70 103 139
279 382 276 87 114 141
278 382 278 66 100 136
278 382 279 62 97 134
278 383 278 70 101 138
278 383 279 69 98 137
279 376 280 66 104 137
279 376 281 72 109 142
279 377 280 61 100 136
279 377 281 65 104 140
279 376 282 75 111 144
279 376 283 76 111 143
279 377 282 65 102 139
279 377 283 65 102 139
279 378 280 66 102 138
279 378 281 64 101 139
279 379 280 71 105 140
279 379 281 66 102 139
278 379 282 61 99 137
278 379 283 62 98 138
279 378 282 60 98 137
279 378 283 60 95 137
279 379 282 63 99 137
279 376 284 75 110 142
279 376 285 77 112 143
279 377 284 59 99 137
279 377 285 60 100 137
278 377 287 62 100 137
279 376 286 79 114 144
279 376 287 82 117 146
279 377 286 66 103 138
279 377 287 75 111 143
278 378 284 52 91 135
278 378 285 55 92 134
278 379 284 61 99 139
278 379 285 67 103 140
279 378 284 54 92 135
279 378 285 51 91 133
278 378 286 61 95 136
278 378 287 59 94 136
278 379 286 68 105 141
278 379 287 65 103 139
278 380 280 69 107 140
278 380 281 64 103 139
278 381 280 65 103 138
278 381 281 54 99 136
279 380 280 73 108 141
279 380 281 67 105 139
278 380 282 57 100 137
278 380 283 55 100 138
278 381 282 45 96 134
278 381 283 43 97 136
278 382 280 59 96 135
278 382 281 51 94 133
278 383 280 66 97 135
278 383 281 62 96 136
278 382 282 51 96 134
278 382 283 46 95 134
278 383 282 65 99 136
278 383 283 63 99 136
277 383 285 76 108 142
277 382 286 64 107 141
277 382 287 65 107 142
277 383 286 75 110 143
277 383 287 75 109 143
278 380 284 60 104 141
278 380 285 66 109 142
278 381 284 50 100 138
278 381 285 58 105 140
278 380 286 69 111 143
278 380 287 72 112 145
278 381 286 66 111 144
278 381 287 70 111 145
278 382 284 50 99 135
278 382 285 54 101 136
278 383 284 66 102 136
278 383 285 70 105 139
278 382 286 58 104 140
278 382 287 67 108 143
280 368 272 88 108 133
280 368 273 81 104 133
280 369 272 97 112 135
280 369 273 94 111 136
280 368 274 75 100 131
280 368 275 73 99 131
280 369 274 90 111 135
280 369 275 89 111 134
280 370 272 105 117 138
280 370 273 107 121 142
280 371 272 99 114 133
280 371 273 104 118 137
280 370 274 105 121 141
280 370 275 104 121 140
280 371 274 109 124 142
280 371 275 110 125 143
280 368 276 75 101 133
280 368 277 81 104 134
280 369 276 94 114 137
280 369 277 101 117 140
280 368 278 83 106 134
280 368 279 83 106 134
280 369 278 107 121 142
280 369 279 105 120 141
280 370 276 112 127 145
280 370 277 116 129 147
280 371 276 106 122 142
280 371 277 107 123 143
280 370 278 120 130 147
280 370 279 114 126 143
280 371 278 107 123 141
280 371 279 100 117 137
280 372 272 92 111 131
280 372 273 93 112 132
280 373 272 94 114 135
280 373 273 97 116 137
280 372 274 103 120 139
280 372 275 104 122 142
280 373 274 100 119 139
280 373 275 96 116 141
280 374 273 101 120 141
280 374 274 104 122 143
280 374 275 91 113 140
280 372 276 96 117 140
280 372 277 85 109 135
280 373 276 83 108 137
280 373 277 72 100 133
280 372 278 81 108 135
280 372 279 83 110 136
280 373 278 80 108 140
280 373 279 79 108 140
280 374 276 76 104 135
280 374 277 76 104 136
280 374 278 83 110 142
280 374 279 81 110 142
280 368 280 78 103 134
280 368 281 77 101 134
280 369 280 93 114 136
280 369 281 92 112 138
280 368 282 81 102 135
280 368 283 81 103 136
280 369 282 96 114 141
280 369 283 95 114 141
280 370 280 104 121 141
280 370 281 100 118 142
280 371 280 99 117 138
280 371 281 101 118 141
280 370 282 107 123 146
280 370 283 109 125 147
280 371 282 101 117 142
280 371 283 95 114 140
280 368 284 82 103 137
280 368 285 89 109 138
280 369 284 91 112 140
280 369 285 103 121 144
280 368 286 93 111 139
280 369 286 105 121 146
280 370 284 108 125 148
280 370 285 105 124 145
280 371 284 100 118 143
280 371 285 98 118 142
280 370 286 103 121 144
280 372 280 90 114 139
280 372 281 92 115 139
280 373 280 79 110 140
280 373 281 81 111 139
280 372 282 94 114 139
280 372 283 92 112 139
280 373 282 83 111 137
280 372 284 82 105 135
