ply
format ascii 1.0
comment Version 2, Copyright 2017, 8i Labs, Inc.
comment frame_to_world_scale 0.179523
comment frame_to_world_translation -45.2095 7.18301 -54.3561
comment width 1023
element vertex 290
property float x
property float y
property float z
property uchar red
property uchar green
property uchar blue
end_header
282 336 272 160 124 70
282 337 272 158 120 61
283 336 272 160 124 74
283 336 273 165 130 83
283 337 272 160 122 66
283 337 273 165 128 79
283 336 274 165 133 95
283 336 275 166 135 98
283 337 274 167 134 92
283 337 275 168 136 99
282 338 272 153 110 47
282 339 272 147 94 45
283 338 272 154 111 44
283 338 273 161 121 62
283 339 272 152 106 40
283 339 273 161 119 54
283 338 274 163 126 78
283 338 275 166 132 90
283 339 274 166 127 72
283 339 275 167 130 81
282 336 277 164 132 95
282 337 277 165 133 94
283 336 276 165 135 100
283 337 276 166 135 99
283 337 277 165 132 91
282 336 278 164 130 89
282 336 279 166 129 84
282 337 278 166 130 90
282 337 279 167 130 88
283 337 278 165 131 91
282 338 277 167 136 99
283 338 276 166 134 96
283 338 277 167 135 97
283 339 276 167 133 90
283 339 277 165 132 92
282 338 278 166 130 87
282 338 279 166 129 83
282 339 278 165 132 90
282 339 279 166 131 89
283 338 278 166 132 91
283 339 278 165 132 89
282 340 272 147 91 44
282 341 272 148 89 55
283 340 272 153 104 43
283 340 273 157 113 49
283 341 273 156 107 48
283 340 274 165 124 65
283 340 275 168 129 77
283 341 274 162 118 57
283 341 275 165 123 68
282 342 272 147 82 60
282 342 273 151 96 50
282 343 272 143 77 63
282 343 273 148 89 55
283 342 273 155 105 47
283 343 273 152 97 55
283 342 274 160 114 53
283 342 275 163 119 59
283 343 274 155 103 52
283 343 275 160 114 54
282 341 277 166 129 81
283 340 276 170 133 87
283 340 277 167 132 90
283 341 276 167 129 80
283 341 277 167 131 85
282 340 278 165 131 89
282 340 279 163 129 86
282 341 278 166 129 84
282 341 279 167 130 86
283 340 278 166 131 89
282 342 277 168 129 79
282 343 277 169 127 75
283 342 276 167 127 71
283 342 277 168 130 81
283 343 276 165 123 64
282 342 278 168 129 80
282 342 279 169 129 79
282 343 278 171 130 79
282 343 279 172 131 79
282 336 280 165 128 78
282 336 281 164 124 69
282 337 280 165 126 80
282 337 281 165 125 71
282 336 282 165 121 66
282 336 283 164 119 63
282 337 282 166 123 67
282 337 283 165 121 63
282 338 280 166 126 79
282 338 281 163 121 69
282 339 280 166 128 84
282 339 281 167 125 74
282 338 282 163 119 62
282 338 283 163 118 60
282 339 282 167 123 65
282 339 283 165 119 56
281 336 284 162 116 51
281 336 285 152 104 39
281 337 284 161 114 52
281 337 285 155 105 39
281 336 286 143 97 38
281 336 287 138 96 40
281 337 286 147 97 37
281 337 287 140 95 36
281 338 284 163 117 54
281 338 285 159 111 42
281 339 284 163 117 52
281 339 285 158 109 46
281 338 286 150 101 40
281 338 287 142 95 43
281 339 286 151 104 37
281 339 287 141 97 38
281 342 283 168 123 64
282 340 280 163 126 81
282 340 281 165 124 76
282 341 280 166 129 84
282 341 281 167 127 79
282 340 282 167 122 70
282 340 283 166 120 59
282 341 282 168 125 75
282 341 283 167 122 62
282 342 280 167 125 75
282 342 281 166 124 74
282 343 280 172 131 76
282 343 281 172 129 74
282 342 282 167 124 71
282 342 283 168 123 66
282 343 282 168 124 67
282 343 283 168 121 64
281 340 284 165 118 52
281 340 285 161 112 46
281 341 284 165 119 53
281 341 285 162 114 46
281 340 286 153 106 38
281 340 287 143 98 35
281 341 286 157 109 40
281 341 287 144 98 38
281 342 284 167 121 58
281 342 285 166 119 52
281 343 284 168 122 61
281 343 285 166 119 56
281 342 286 159 112 44
281 342 287 146 102 42
281 343 286 160 114 49
281 343 287 144 105 48
282 343 284 170 123 62
282 344 272 142 73 74
282 344 273 145 84 67
282 345 272 141 70 75
282 345 273 143 77 70
283 344 273 148 88 63
283 345 273 146 84 65
283 344 274 154 97 58
283 344 275 158 108 52
283 345 274 154 95 65
283 345 275 157 104 58
282 346 272 140 67 77
282 346 273 142 73 75
282 347 272 136 68 79
282 347 273 141 76 78
283 346 273 144 77 70
283 347 273 142 77 74
283 346 274 149 87 64
283 346 275 155 98 61
283 347 274 146 83 69
283 347 275 150 90 64
282 344 277 171 128 73
282 345 277 169 125 67
283 344 276 165 119 61
283 344 277 170 127 69
283 345 276 162 114 56
283 345 277 168 122 61
282 344 278 172 129 78
282 344 279 171 129 81
282 345 278 172 127 73
282 345 279 174 129 79
282 346 277 166 119 58
282 347 277 161 112 58
283 346 276 159 108 57
283 346 277 164 116 58
283 347 276 155 102 54
282 346 278 169 123 64
282 346 279 172 127 71
282 347 278 166 120 62
282 347 279 169 125 67
282 348 272 132 69 79
282 348 273 141 79 78
282 349 272 130 65 82
282 349 273 132 70 80
282 348 274 140 80 73
282 349 274 135 78 79
282 349 275 138 80 65
283 348 274 141 80 69
283 348 275 144 85 64
283 349 275 133 79 70
282 350 272 127 75 95
282 350 273 126 75 93
282 351 272 124 91 106
282 351 273 122 89 107
282 350 274 127 78 89
282 350 275 124 80 88
282 351 274 116 96 111
282 351 275 112 98 113
282 348 276 145 94 51
282 348 277 153 106 54
282 349 276 142 88 59
282 349 277 143 99 57
283 348 276 145 93 49
283 348 277 151 104 54
283 349 276 139 91 63
282 348 278 161 116 63
282 348 279 165 124 69
282 349 278 146 108 69
282 349 279 147 114 78
282 350 276 124 88 88
282 350 277 126 96 86
282 351 276 111 100 114
282 351 277 110 106 119
282 350 278 128 107 98
282 350 279 129 116 110
282 351 278 111 116 131
282 351 279 110 119 136
281 346 283 170 128 73
281 347 283 166 127 75
282 344 280 171 129 80
282 344 281 171 129 78
282 345 280 175 131 81
282 345 281 173 129 77
282 344 282 172 128 74
282 344 283 170 126 66
282 345 282 172 128 74
282 345 283 169 126 67
282 346 280 173 129 76
282 346 281 173 129 74
282 347 280 171 128 74
282 347 281 171 129 80
282 346 282 172 129 73
282 346 283 173 130 75
282 347 282 168 129 80
282 347 283 164 129 87
281 344 284 170 126 64
281 344 285 166 122 60
281 345 284 168 124 66
281 345 285 164 123 69
281 344 286 161 119 62
281 344 287 150 115 71
281 345 286 158 123 83
281 345 287 150 122 93
281 346 284 169 128 76
281 346 285 161 128 86
281 347 284 158 128 95
281 347 285 150 128 109
281 346 286 153 128 102
281 346 287 144 127 114
281 347 286 142 128 121
281 347 287 134 128 128
282 344 284 170 126 65
282 348 280 165 127 82
282 348 281 162 130 94
282 349 280 146 121 95
282 349 281 144 124 106
282 348 282 154 129 103
282 348 283 147 129 113
282 349 282 136 125 120
282 349 283 128 125 126
282 350 280 129 119 115
282 350 281 122 120 124
282 351 280 110 120 137
282 351 281 111 121 138
282 350 282 120 123 132
282 350 283 116 123 136
282 351 282 112 124 141
282 351 283 114 126 142
281 348 284 140 127 118
281 348 285 133 126 127
281 349 284 124 124 130
281 349 285 118 124 137
281 348 286 123 125 133
281 348 287 121 126 136
281 349 286 114 125 140
281 349 287 114 125 141
281 350 284 115 125 140
281 350 285 113 126 142
281 351 284 118 129 144
281 351 285 117 129 145
281 350 286 114 127 144
281 350 287 117 128 144
281 351 286 119 131 147
281 351 287 124 133 148
282 350 284 115 125 139
282 351 284 116 127 142
