ply
format ascii 1.0
comment Version 2, Copyright 2017, 8i Labs, Inc.
comment frame_to_world_scale 0.179523
comment frame_to_world_translation -45.2095 7.18301 -54.3561
comment width 1023
element vertex 197
property float x
property float y
property float z
property uchar red
property uchar green
property uchar blue
end_header
275 384 208 177 147 116
275 384 209 173 144 111
275 385 208 179 150 121
275 385 209 177 148 118
274 384 211 180 149 117
274 385 211 175 145 111
275 384 210 176 147 114
275 384 211 180 150 118
275 385 210 177 148 117
275 385 211 176 146 114
275 386 208 180 153 126
275 386 209 179 153 126
275 387 208 181 155 129
275 387 209 180 154 129
274 386 211 177 147 116
274 387 210 179 152 125
274 387 211 179 151 121
275 386 210 177 149 121
275 387 210 178 152 126
273 384 214 177 149 119
273 384 215 165 140 114
273 385 214 177 149 120
273 385 215 167 142 116
273 387 213 180 150 119
273 386 214 177 149 119
273 386 215 155 128 100
273 387 214 177 148 117
273 387 215 162 135 105
274 384 212 179 149 115
274 384 213 178 148 115
274 385 212 179 148 114
274 385 213 180 149 117
274 386 212 179 149 117
274 386 213 180 150 118
274 387 212 179 149 118
274 387 213 179 150 117
275 388 208 181 154 128
275 388 209 179 152 127
275 389 208 178 150 122
275 389 209 176 150 123
274 388 210 176 150 123
274 388 211 174 146 116
274 389 210 174 147 119
274 389 211 169 141 111
275 388 210 178 152 126
275 390 208 176 148 119
275 390 209 177 150 123
275 391 208 180 152 122
275 391 209 177 150 122
274 390 210 173 146 119
274 390 211 173 146 118
274 391 210 173 146 118
274 391 211 174 148 121
273 388 213 178 149 117
273 389 213 174 146 115
273 388 214 179 150 120
273 388 215 171 144 114
273 389 214 175 146 115
273 389 215 170 142 111
273 390 213 174 146 116
273 391 213 178 150 122
273 390 214 171 142 110
273 390 215 168 139 108
273 391 214 177 148 118
273 391 215 171 143 112
274 388 212 168 138 104
274 388 213 173 144 112
274 389 212 166 137 107
274 389 213 172 143 113
274 390 212 175 149 123
274 390 213 175 148 120
274 391 212 178 152 126
274 391 213 178 151 125
276 384 208 179 150 120
276 385 208 179 150 121
272 384 216 141 115 83
272 385 216 134 108 76
272 386 216 136 111 84
272 387 216 146 122 96
272 388 216 152 126 96
272 389 216 150 123 92
272 390 216 154 127 95
272 391 216 144 117 82
272 391 217 138 111 76
273 391 216 159 131 98
275 392 208 180 151 118
275 392 209 177 149 119
275 393 208 182 152 119
275 393 209 180 151 118
274 392 210 176 147 118
274 392 211 175 147 117
274 393 210 177 147 113
274 393 211 176 146 112
275 394 208 181 151 120
275 394 209 180 150 116
275 395 208 174 144 111
275 395 209 178 147 111
274 394 210 179 148 112
274 394 211 179 148 111
274 395 210 179 147 108
274 395 211 178 144 98
273 392 213 179 152 124
273 392 214 178 149 117
273 392 215 167 137 101
273 393 214 174 142 100
273 393 215 159 123 76
273 395 213 163 113 36
273 394 214 165 123 63
273 394 215 153 103 37
273 395 214 159 101 18
273 395 215 155 86 8
274 392 212 176 149 121
274 392 213 178 150 121
274 393 212 177 148 114
274 393 213 178 148 114
274 392 214 178 148 115
274 394 212 179 146 104
274 394 213 174 138 89
274 395 212 174 135 79
274 395 213 168 123 55
274 397 209 146 93 36
275 396 208 169 140 103
275 396 209 173 141 100
275 397 208 169 137 99
275 397 209 158 119 72
274 396 210 169 133 82
274 396 211 166 123 58
274 397 210 150 95 32
274 397 211 155 81 9
274 398 209 151 83 17
274 399 209 158 84 9
275 398 208 165 124 75
275 398 209 155 99 34
275 399 208 162 110 42
274 398 210 152 71 6
274 398 211 159 59 3
274 399 210 159 70 4
274 399 211 160 58 2
273 397 213 165 71 6
273 396 214 161 81 7
273 396 215 158 71 5
273 397 214 164 71 6
273 397 215 156 62 3
273 398 214 163 65 3
273 398 215 156 64 3
273 399 215 156 69 4
274 396 212 161 106 27
274 396 213 161 94 12
274 397 212 162 73 5
274 397 213 164 75 6
274 398 212 163 58 3
274 398 213 164 61 3
274 399 212 163 63 2
274 399 213 164 67 4
274 398 214 163 66 3
274 398 215 160 66 3
274 399 214 163 69 5
274 399 215 160 71 5
272 392 216 132 96 50
272 392 217 128 92 42
272 393 216 122 64 14
272 393 217 119 53 4
273 392 216 147 116 76
273 393 216 137 95 40
272 394 216 128 54 7
272 394 217 124 45 8
272 395 217 122 43 10
273 394 216 136 72 9
273 395 216 145 67 9
273 395 217 126 47 7
272 394 218 123 46 9
272 395 218 120 47 8
272 393 223 121 54 3
272 394 223 120 57 0
272 395 223 120 54 2
272 396 217 119 54 10
272 397 217 120 51 11
273 396 216 142 57 4
273 396 217 124 56 6
273 397 216 145 55 3
273 397 217 126 54 5
272 396 218 117 51 9
272 397 218 117 44 15
273 398 216 145 61 3
273 398 217 127 58 9
273 399 216 146 65 4
273 399 217 128 60 6
272 398 218 116 46 14
272 398 219 114 48 9
272 399 218 120 59 12
272 399 219 116 52 2
272 396 223 120 50 4
272 397 223 120 51 4
273 397 223 119 53 1
272 398 223 120 58 0
272 399 223 118 54 3
273 398 223 120 54 0
