ply
format ascii 1.0
comment Version 2, Copyright 2017, 8i Labs, Inc.
comment frame_to_world_scale 0.179523
comment frame_to_world_translation -45.2095 7.18301 -54.3561
comment width 1023
element vertex 350
property float x
property float y
property float z
property uchar red
property uchar green
property uchar blue
end_header
281 320 262 146 111 85
281 320 263 151 111 81
281 321 263 152 110 82
282 320 261 134 103 88
283 320 260 128 92 83
283 321 260 127 92 87
283 321 261 130 97 88
282 320 262 141 107 86
282 320 263 148 107 80
282 321 262 139 102 87
282 321 263 147 107 86
283 322 261 130 94 90
283 323 261 130 88 85
282 322 262 136 96 86
282 322 263 144 104 86
282 323 262 133 87 81
282 323 263 140 94 80
283 324 260 127 88 83
283 324 261 130 85 81
283 325 260 125 84 81
283 325 261 127 83 78
282 324 262 133 81 77
282 324 263 140 90 82
282 325 262 133 81 77
282 325 263 139 87 81
283 324 262 131 80 78
283 325 262 131 82 79
282 327 261 125 74 73
283 326 260 123 79 77
283 326 261 124 77 72
283 327 260 120 74 73
283 327 261 125 77 71
282 326 262 133 81 77
282 326 263 139 85 81
282 327 262 134 83 79
282 327 263 141 88 85
283 326 262 127 77 74
284 320 259 126 108 100
284 321 259 122 103 96
285 320 258 120 114 119
285 320 259 127 110 103
285 321 258 116 113 121
285 321 259 121 105 101
284 322 259 118 101 98
284 323 259 119 102 96
285 322 258 106 108 121
285 322 259 109 101 107
285 323 258 104 107 121
285 323 259 107 101 109
286 320 257 125 137 153
286 321 257 113 129 149
287 320 256 121 136 155
287 320 257 124 137 155
287 321 256 114 133 155
287 321 257 113 132 154
286 320 258 125 130 143
286 321 258 114 123 139
286 322 257 107 127 148
286 323 257 107 126 147
287 322 256 112 132 154
287 322 257 109 131 154
287 323 256 114 134 156
287 323 257 112 131 154
286 322 258 105 116 134
286 323 258 106 119 137
284 320 260 124 96 87
284 322 260 124 92 84
284 323 260 124 90 82
284 324 259 111 96 96
284 325 259 111 98 99
285 324 258 107 106 120
285 324 259 109 99 106
285 325 258 119 118 129
285 325 259 111 102 111
285 327 257 130 132 139
284 326 259 113 102 109
284 327 258 114 105 110
284 327 259 112 90 96
285 326 258 122 119 127
285 326 259 111 99 105
285 327 258 121 119 127
286 324 257 119 131 149
286 325 257 129 136 149
287 324 256 125 139 158
287 324 257 118 135 155
287 325 256 140 147 160
287 325 257 138 145 158
286 324 258 109 119 135
286 325 258 114 117 130
286 326 257 141 145 154
286 327 257 146 148 156
287 326 256 154 155 164
287 326 257 144 149 159
287 327 256 156 156 164
284 324 260 123 89 83
284 325 260 115 84 82
284 326 260 113 79 81
281 320 264 155 114 77
281 321 264 153 114 82
282 320 264 158 118 76
282 320 265 162 122 76
282 321 265 155 118 80
283 321 265 157 119 79
282 320 266 162 122 75
283 320 266 165 124 76
283 320 267 165 125 75
283 321 266 163 125 81
283 321 267 165 125 77
282 322 264 150 111 86
282 322 265 154 119 84
282 323 264 142 99 78
282 323 265 150 113 78
282 322 266 163 128 86
282 322 267 163 127 84
282 323 266 159 124 80
282 323 267 161 125 78
283 322 266 163 127 85
283 322 267 164 127 82
283 323 267 161 124 76
283 320 268 166 125 76
283 320 269 166 126 75
283 321 268 165 127 77
283 321 269 165 127 79
283 320 270 166 125 76
283 320 271 169 127 79
283 321 270 165 126 78
283 321 271 165 125 78
283 322 268 164 128 80
283 322 269 167 130 83
283 323 268 163 127 81
283 323 269 166 129 82
283 322 270 167 130 83
283 322 271 166 127 80
283 323 270 167 128 81
283 323 271 168 128 75
281 327 264 147 96 91
282 324 264 145 101 84
282 324 265 153 116 83
282 325 264 145 99 85
282 325 265 151 112 84
282 324 266 159 125 85
282 324 267 161 126 83
282 325 266 158 125 89
282 325 267 160 127 88
283 324 267 162 127 82
283 325 267 161 128 85
282 326 264 142 92 82
282 326 265 148 106 83
282 327 264 145 94 86
282 327 265 148 100 86
282 326 266 154 119 86
282 326 267 158 126 90
282 327 266 151 110 83
282 327 267 155 120 84
282 325 269 166 132 92
283 324 268 165 130 86
283 324 269 167 131 87
283 325 268 164 130 88
283 325 269 165 132 91
283 324 270 166 129 83
283 324 271 166 127 78
283 325 270 165 130 86
283 325 271 166 129 83
282 326 268 164 131 92
282 326 269 168 135 97
282 327 268 159 126 87
283 326 268 162 131 92
283 326 269 167 134 95
283 327 268 161 129 89
283 327 269 165 132 93
283 326 270 167 134 93
283 326 271 167 132 89
283 327 270 166 133 95
283 327 271 166 133 93
284 320 271 165 124 75
283 328 259 114 76 81
283 329 259 115 71 80
282 330 259 119 67 82
282 331 259 120 74 85
283 330 259 119 73 87
283 331 259 123 82 94
281 328 262 131 75 75
281 328 263 141 88 85
281 329 262 128 74 73
281 329 263 139 87 81
281 330 261 125 63 81
281 331 261 126 63 84
281 330 262 128 71 78
281 330 263 133 76 81
281 331 262 128 65 82
281 331 263 130 68 81
282 328 260 124 70 73
282 328 261 128 77 75
282 329 260 119 60 73
282 329 261 125 68 77
283 328 260 118 65 71
282 328 262 133 81 78
282 329 262 127 74 72
282 330 260 120 59 77
282 330 261 124 61 79
282 331 260 121 61 78
282 331 261 123 60 80
282 332 259 122 74 87
283 332 259 127 90 99
283 333 259 126 91 101
283 334 259 127 94 105
283 335 259 125 93 104
281 332 261 124 60 84
281 332 262 122 56 81
281 332 263 127 57 82
281 333 263 127 56 84
281 334 263 129 65 86
282 332 260 122 69 85
282 332 261 122 60 83
282 333 260 121 72 88
282 333 261 121 64 84
283 333 260 120 72 87
282 333 262 122 58 81
282 333 263 123 56 81
282 334 260 121 73 87
282 334 261 119 70 84
282 335 261 117 72 86
283 334 260 122 80 92
283 335 260 124 92 102
283 335 261 116 73 86
282 334 262 121 66 80
282 334 263 126 66 85
282 335 262 118 69 80
282 335 263 126 70 85
285 328 257 121 123 131
285 329 257 127 125 131
284 328 258 113 104 110
284 328 259 111 98 105
284 329 258 116 105 111
285 328 258 116 114 121
284 331 257 133 125 129
285 330 257 139 134 137
285 331 257 139 133 135
284 330 258 127 117 121
284 331 258 128 115 119
286 328 257 135 137 145
286 329 256 148 147 154
286 329 257 141 141 147
287 328 256 149 150 158
287 329 256 147 147 154
286 330 256 153 150 154
286 330 257 150 148 151
286 331 256 156 151 154
286 331 257 151 147 149
287 330 256 153 152 157
287 331 256 161 157 160
285 332 257 135 128 132
285 333 257 132 126 130
284 332 258 128 115 119
284 332 259 127 108 113
284 333 258 126 110 115
284 333 259 127 89 99
285 333 258 128 117 121
285 334 257 125 120 125
285 335 257 115 111 120
284 334 258 121 106 112
284 334 259 131 101 109
284 335 258 115 99 109
284 335 259 124 94 105
286 332 256 158 154 156
286 332 257 151 146 149
286 333 256 149 147 151
286 333 257 148 143 147
287 332 256 161 157 160
287 333 256 153 151 156
286 334 256 139 138 145
286 334 257 134 131 135
286 335 256 133 134 142
287 335 256 133 136 145
281 328 264 144 92 88
281 328 265 148 96 88
281 329 264 142 89 84
281 329 265 146 93 84
281 329 266 149 99 86
281 330 264 138 84 83
281 330 265 144 91 83
281 331 264 137 78 82
281 331 265 141 87 81
281 330 266 148 95 85
281 331 266 146 93 83
282 328 264 146 95 91
282 328 265 148 97 85
282 328 266 150 103 83
282 328 267 153 115 79
282 329 266 150 101 85
282 329 267 153 108 80
282 330 266 148 96 84
282 330 267 151 103 79
282 331 266 144 90 80
282 331 267 150 97 79
282 328 268 160 127 84
282 328 269 163 132 93
282 329 268 157 121 78
282 329 269 160 128 87
283 328 269 164 132 93
282 329 270 162 132 98
283 328 270 164 133 98
283 328 271 164 133 97
283 329 270 164 134 100
283 329 271 165 137 105
282 330 268 154 115 74
282 330 269 158 124 83
282 331 268 150 105 71
282 331 269 154 119 76
282 330 270 159 130 95
282 330 271 163 135 105
282 331 270 158 128 89
282 331 271 162 134 103
283 330 270 163 134 102
283 330 271 164 137 107
281 332 264 132 60 83
281 332 265 138 76 80
281 333 264 131 60 84
281 333 265 134 69 83
281 332 266 142 86 79
281 333 266 139 79 81
281 334 264 130 61 86
281 334 265 134 67 85
281 335 264 129 68 88
281 335 265 131 67 87
281 334 266 136 72 83
281 335 266 134 70 86
281 335 267 137 76 84
282 332 266 142 86 80
282 332 267 147 93 80
282 333 266 140 77 81
282 333 267 144 87 82
282 334 267 140 81 81
282 335 267 139 78 82
282 332 268 149 99 71
282 332 269 153 114 72
282 333 268 148 95 75
282 333 269 149 108 66
282 332 270 157 125 84
282 332 271 161 132 98
282 333 270 155 121 75
282 333 271 160 129 90
282 334 268 145 91 74
282 334 269 148 103 67
282 335 268 142 82 78
282 335 269 146 93 71
282 334 270 154 116 66
282 334 271 160 126 81
282 335 270 152 110 61
282 335 271 158 122 72
