ply
format ascii 1.0
comment Version 2, Copyright 2017, 8i Labs, Inc.
comment frame_to_world_scale 0.179523
comment frame_to_world_translation -45.2095 7.18301 -54.3561
comment width 1023
element vertex 49
property float x
property float y
property float z
property uchar red
property uchar green
property uchar blue
end_header
272 496 241 167 180 202
272 497 241 157 173 196
273 496 241 157 173 196
273 497 241 160 175 195
272 498 241 152 170 194
272 499 241 155 170 196
273 498 241 173 184 203
273 499 241 166 179 199
274 496 241 155 170 193
274 497 241 167 178 197
275 496 241 150 165 186
275 497 240 157 170 190
275 497 241 169 179 196
274 498 241 178 187 203
274 499 241 166 177 195
275 498 240 177 184 199
275 498 241 180 187 202
275 499 240 159 169 188
272 500 241 149 164 190
272 501 240 127 141 183
272 501 241 141 155 189
273 500 241 148 165 189
273 501 240 125 142 182
273 501 241 136 153 187
272 502 240 126 137 185
272 502 241 132 144 187
272 503 240 134 142 190
273 502 240 123 137 183
273 503 240 130 139 188
274 500 240 141 158 185
274 500 241 144 160 185
274 501 240 122 140 182
275 500 240 138 152 177
275 501 240 125 138 179
274 502 240 119 134 178
274 503 240 128 137 180
275 502 240 120 132 176
275 503 240 130 139 178
276 496 240 149 163 185
276 496 241 142 158 182
276 497 240 151 164 183
276 498 240 165 174 189
276 499 240 165 174 192
272 504 240 121 138 185
272 505 240 133 158 187
273 504 240 120 139 182
273 505 240 133 157 186
272 506 240 158 174 195
274 504 240 120 136 176
