ply
format ascii 1.0
comment Version 2, Copyright 2017, 8i Labs, Inc.
comment frame_to_world_scale 0.179523
comment frame_to_world_translation -45.2095 7.18301 -54.3561
comment width 1023
element vertex 128
property float x
property float y
property float z
property uchar red
property uchar green
property uchar blue
end_header
272 528 210 89 110 150
272 529 210 100 124 158
272 529 211 91 115 153
273 528 210 93 115 154
273 529 210 98 122 157
273 529 211 100 123 157
272 530 211 97 120 153
272 531 211 100 119 151
273 530 210 104 125 157
273 530 211 98 120 154
273 531 210 97 117 150
273 531 211 90 112 146
275 528 209 96 114 149
275 529 209 92 111 147
274 528 210 78 105 146
274 529 210 89 115 151
275 528 210 84 107 148
275 529 210 92 116 150
275 530 209 95 116 147
275 531 209 86 108 141
274 530 210 101 122 154
274 531 210 85 107 143
275 530 210 97 119 151
275 531 210 75 99 137
272 532 211 85 108 143
272 533 211 81 108 144
273 532 210 74 96 137
273 532 211 88 109 144
273 533 210 76 98 140
272 534 211 93 118 151
272 535 211 99 122 154
273 534 210 92 114 149
273 535 210 100 121 153
275 532 209 89 105 143
275 533 209 82 100 141
274 532 210 66 86 133
274 533 210 67 90 136
275 532 210 72 92 136
275 534 209 70 93 138
275 535 209 78 99 144
274 534 210 78 102 144
274 535 210 93 114 152
276 528 208 109 125 147
276 529 208 109 123 148
277 528 208 132 143 159
277 529 208 131 143 161
276 530 208 112 126 150
276 530 209 104 118 147
276 531 208 101 118 147
276 531 209 97 116 145
277 530 208 127 140 160
277 531 208 108 126 152
276 532 208 76 100 138
276 532 209 83 105 140
276 533 208 74 94 138
277 532 208 88 110 146
277 533 208 85 104 147
276 534 208 72 93 139
276 534 209 66 88 135
276 535 208 65 88 138
276 535 209 64 84 136
277 534 208 86 104 149
277 535 208 76 96 146
272 536 211 95 118 152
272 537 210 82 107 149
272 537 211 89 112 150
273 536 210 85 109 148
273 537 210 73 104 146
272 538 210 72 94 144
272 538 211 82 99 146
272 539 210 80 101 145
272 539 211 76 91 142
273 538 210 72 105 150
273 539 210 102 126 159
274 537 209 69 101 143
275 536 209 69 91 142
275 537 209 65 92 138
274 536 210 83 106 149
274 537 210 69 101 145
274 538 209 93 118 151
274 539 209 145 161 182
275 538 209 92 115 147
275 539 209 123 138 158
274 538 210 87 117 154
274 539 210 147 162 183
272 540 210 81 104 143
272 541 210 72 95 138
273 540 210 112 135 161
273 541 210 101 125 155
272 542 210 61 79 131
272 543 210 56 75 126
272 543 211 69 86 129
273 542 210 79 103 142
273 543 210 66 84 133
274 540 209 152 162 178
274 541 209 130 143 159
275 540 209 140 150 163
275 541 209 124 137 152
274 540 210 153 165 181
274 541 210 129 144 163
275 542 209 102 118 142
275 543 209 66 83 127
274 542 210 98 117 144
274 543 210 76 91 131
276 536 208 69 92 142
276 536 209 60 80 135
276 537 208 75 100 143
276 537 209 63 86 136
277 536 208 80 102 151
277 537 208 88 111 152
276 538 208 93 116 146
276 538 209 85 107 140
276 539 208 121 137 157
276 539 209 115 130 148
277 538 208 101 124 154
277 539 208 126 143 165
276 540 208 135 146 163
276 540 209 131 141 155
276 541 208 115 132 156
276 541 209 119 133 152
277 540 208 128 144 166
277 541 208 113 133 159
276 542 208 81 104 144
276 542 209 91 108 142
276 543 208 61 84 137
276 543 209 50 66 127
277 542 208 89 117 153
277 543 208 92 117 154
