ply
format ascii 1.0
comment Version 2, Copyright 2017, 8i Labs, Inc.
comment frame_to_world_scale 0.179523
comment frame_to_world_translation -45.2095 7.18301 -54.3561
comment width 1023
element vertex 23
property float x
property float y
property float z
property uchar red
property uchar green
property uchar blue
end_header
272 688 207 89 65 52
272 689 207 107 91 78
273 688 207 71 49 40
273 689 207 97 73 55
272 690 207 118 99 81
272 691 207 92 76 60
273 690 207 117 95 72
274 688 207 83 59 49
274 689 207 105 76 59
275 688 207 123 91 72
276 688 207 139 85 49
277 688 207 147 84 35
280 688 207 143 83 44
281 688 207 144 77 40
282 688 207 145 59 22
282 689 207 145 54 17
283 688 207 149 50 23
283 689 207 146 50 22
284 688 207 149 52 31
284 689 207 143 46 25
285 688 207 149 55 29
285 689 207 146 50 31
286 688 207 145 57 19
