ply
format ascii 1.0
comment Version 2, Copyright 2017, 8i Labs, Inc.
comment frame_to_world_scale 0.179523
comment frame_to_world_translation -45.2095 7.18301 -54.3561
comment width 1023
element vertex 307
property float x
property float y
property float z
property uchar red
property uchar green
property uchar blue
end_header
272 720 90 110 31 65
272 721 90 113 23 48
273 720 90 93 56 56
273 721 90 98 50 44
272 723 89 118 35 24
272 722 90 118 28 37
272 723 90 120 37 30
273 722 90 107 49 43
273 723 90 115 49 38
274 720 90 114 94 64
274 720 91 117 101 78
274 721 90 109 86 54
275 720 90 149 120 86
275 720 91 155 128 97
275 721 90 138 109 79
274 722 90 103 76 44
274 723 90 109 74 47
275 722 90 130 103 71
275 723 90 120 95 60
272 724 89 115 31 21
272 725 89 111 33 23
273 724 89 116 47 31
273 725 89 114 48 23
272 726 89 109 37 31
272 727 89 105 32 30
273 726 89 116 67 36
273 727 89 113 71 37
274 724 89 113 63 35
274 725 89 113 67 27
275 725 89 116 86 50
274 724 90 112 73 43
275 724 90 116 89 54
275 725 90 116 89 54
274 726 89 122 83 33
274 727 89 125 91 38
275 726 89 124 94 56
275 727 89 127 96 56
276 720 90 159 131 97
276 720 91 146 123 96
276 721 90 151 124 92
276 721 91 149 126 98
277 720 91 121 86 68
277 721 90 134 109 80
277 721 91 128 97 69
276 722 90 151 122 89
276 723 90 147 119 86
277 722 90 134 111 84
277 723 90 139 118 95
278 720 91 113 44 40
278 721 90 115 80 47
278 721 91 114 55 34
279 720 91 118 28 30
279 721 91 117 29 23
278 722 90 112 80 57
278 723 90 114 92 75
279 722 90 114 50 45
279 722 91 114 42 31
279 723 90 114 68 59
276 725 89 127 98 67
276 724 90 140 113 81
276 725 90 133 106 75
277 724 90 147 125 101
277 725 90 149 125 97
276 726 89 130 101 71
276 727 89 129 101 65
277 726 89 141 115 87
277 727 89 132 108 80
278 724 90 123 104 81
278 725 90 137 116 93
279 724 90 120 91 73
279 725 90 122 98 71
278 726 89 133 112 88
278 727 89 121 101 80
279 727 89 111 92 74
278 726 90 128 108 87
279 726 90 116 95 70
279 727 90 115 96 75
272 733 87 88 23 40
273 733 87 89 26 46
272 734 87 88 20 35
272 735 87 92 35 39
273 734 87 83 27 42
273 735 87 78 33 43
274 733 87 96 49 41
275 733 87 91 89 89
274 734 87 87 48 45
274 735 87 83 56 53
275 734 87 86 92 98
275 735 87 86 96 106
276 734 87 66 97 126
276 735 87 70 102 132
277 734 87 38 56 92
277 735 87 48 58 89
278 735 87 56 46 68
272 728 89 104 31 42
272 729 88 104 41 64
272 729 89 103 29 54
273 728 89 108 69 41
273 729 88 104 66 70
272 730 88 107 50 62
272 731 88 104 49 59
273 730 88 107 70 78
273 731 88 105 66 72
274 728 89 120 90 43
274 729 88 111 86 60
275 728 89 119 91 53
275 729 88 101 80 53
275 729 89 107 83 48
274 730 88 117 94 77
274 731 88 119 91 72
275 730 88 102 85 64
275 731 88 105 85 63
272 732 88 96 36 50
272 733 88 90 26 41
273 732 88 102 56 61
273 733 88 94 33 49
274 732 88 117 79 62
274 733 88 107 61 49
275 732 88 104 86 67
275 733 88 98 88 81
276 728 89 110 84 51
276 729 88 101 84 64
276 729 89 102 79 49
277 728 89 120 98 74
277 729 89 116 96 77
276 730 88 106 92 80
276 731 88 104 97 91
277 730 88 108 95 83
277 730 89 110 94 81
277 731 88 96 91 90
278 728 89 119 101 82
278 729 89 118 101 86
279 728 89 112 95 79
279 729 89 115 100 86
278 730 89 104 91 82
278 731 88 77 74 75
278 731 89 82 78 77
279 730 89 98 89 82
279 731 89 66 64 68
276 732 88 95 98 102
276 733 88 78 97 115
277 732 88 71 78 87
277 733 88 33 52 77
276 734 88 56 85 115
277 734 88 39 37 75
278 732 88 40 47 59
278 733 88 39 33 57
279 732 88 37 38 57
279 733 88 53 39 63
278 734 88 60 35 60
278 735 88 63 44 61
279 734 88 67 45 66
279 735 88 68 49 66
280 720 91 127 24 33
280 721 91 127 29 32
281 720 91 130 17 26
281 721 91 127 23 29
280 722 91 121 35 37
280 723 90 116 55 45
280 723 91 110 37 30
281 722 91 118 28 32
281 723 91 103 29 24
282 720 91 129 25 22
282 721 91 128 22 30
283 720 91 126 26 24
283 721 91 129 24 29
282 722 91 120 23 29
282 723 91 110 25 23
283 722 91 128 24 30
283 723 91 126 22 29
280 724 90 114 73 49
280 725 90 128 93 68
281 724 90 109 58 46
281 724 91 106 52 48
281 725 90 119 63 50
280 726 90 125 100 76
280 727 90 119 100 80
281 726 90 118 79 62
281 727 90 119 95 82
282 724 91 114 37 39
282 725 90 116 42 44
282 725 91 121 39 43
283 724 91 126 28 33
283 725 90 119 26 27
283 725 91 126 31 33
282 726 90 106 44 39
282 727 90 104 71 62
283 726 90 113 33 28
283 726 91 119 33 28
283 727 90 106 48 43
284 720 91 112 33 30
284 721 91 115 29 30
285 720 91 96 23 33
285 721 91 92 26 35
284 722 91 115 30 35
284 723 91 115 26 35
285 722 91 86 26 45
285 723 91 87 37 57
286 721 91 98 43 34
287 721 91 110 66 30
286 722 91 93 44 50
286 723 91 93 49 68
287 722 91 106 70 41
287 723 91 104 69 58
285 720 92 100 22 30
286 720 92 115 42 27
286 721 92 105 42 25
287 720 92 125 67 17
287 721 92 120 77 26
287 722 92 116 79 33
284 724 91 111 29 42
284 725 91 111 33 41
285 724 91 93 39 65
285 725 91 96 39 67
284 726 91 106 34 38
284 727 90 100 38 46
284 727 91 97 31 47
285 726 91 94 29 60
285 727 91 93 27 64
286 724 91 94 53 72
286 725 91 102 58 71
287 724 91 108 80 64
287 725 91 125 97 77
286 726 91 106 51 67
286 727 91 103 38 61
287 726 91 133 93 76
287 727 91 119 70 54
280 728 89 118 101 86
280 729 89 119 102 88
281 729 89 118 101 85
280 728 90 120 102 85
280 729 90 123 103 83
281 728 90 122 103 90
281 729 90 122 103 86
280 730 89 100 91 84
280 731 89 62 63 68
281 730 89 104 93 88
281 731 89 71 73 82
282 728 90 116 95 87
282 729 90 118 100 87
283 728 90 108 66 66
283 729 90 118 96 88
282 730 89 105 94 87
282 731 89 83 86 91
283 730 89 103 95 89
283 731 89 93 93 94
283 730 90 117 105 96
283 731 90 100 95 91
280 732 88 37 36 58
280 732 89 35 35 56
280 733 88 61 59 67
280 733 89 52 51 63
281 732 89 40 51 73
281 733 89 51 55 71
280 734 88 82 74 82
280 735 88 92 82 93
281 734 88 80 75 79
281 734 89 69 64 73
281 735 88 69 59 71
281 735 89 64 51 64
282 732 89 65 79 95
282 733 89 44 60 84
283 732 89 82 89 98
283 733 89 65 82 100
282 734 89 56 56 80
282 735 89 55 46 72
283 734 89 61 79 101
283 735 89 63 79 104
284 728 90 97 42 55
284 729 90 105 78 78
285 728 90 84 25 59
285 728 91 88 19 63
285 729 90 75 35 56
284 730 90 112 101 95
284 731 90 101 92 87
285 730 90 71 49 59
285 731 90 69 50 52
286 728 91 94 24 55
286 729 90 81 31 53
286 729 91 88 25 50
287 728 91 104 57 41
287 729 91 94 60 50
286 730 90 74 44 47
286 731 90 70 48 46
287 730 90 86 65 52
287 730 91 93 75 63
287 731 90 81 61 54
284 732 89 80 86 94
284 733 89 79 90 104
284 732 90 83 77 76
284 733 90 76 76 82
285 732 90 70 53 50
285 733 90 69 57 55
284 734 89 76 91 107
284 735 89 73 90 106
285 735 89 68 64 62
284 734 90 74 77 86
285 734 90 68 60 58
285 735 90 74 66 59
286 732 90 67 50 45
286 733 90 68 55 48
287 732 90 77 65 57
287 733 90 79 68 57
286 734 90 77 62 54
286 735 90 91 74 56
287 734 90 98 84 70
287 735 90 126 108 91
