ply
format ascii 1.0
comment Version 2, Copyright 2017, 8i Labs, Inc.
comment frame_to_world_scale 0.179523
comment frame_to_world_translation -45.2095 7.18301 -54.3561
comment width 1023
element vertex 155
property float x
property float y
property float z
property uchar red
property uchar green
property uchar blue
end_header
283 912 165 118 76 54
282 912 167 117 77 56
283 912 166 116 75 53
283 912 167 112 75 52
285 912 163 124 82 58
286 912 163 118 75 50
287 912 163 119 77 52
284 912 164 120 79 55
284 912 165 113 75 50
285 912 164 117 78 51
285 912 165 112 76 51
284 912 166 109 73 50
284 912 167 107 73 49
284 913 167 106 74 51
285 912 166 108 75 50
285 913 166 108 77 53
285 913 167 105 74 51
286 912 164 116 77 52
286 912 165 112 79 55
286 913 165 112 80 56
287 912 164 115 76 52
287 913 165 110 75 51
286 913 166 109 79 55
286 913 167 102 73 50
287 913 166 104 74 49
287 913 167 101 73 47
287 914 166 102 72 48
287 914 167 100 71 48
281 912 170 120 85 62
281 912 171 119 84 63
282 912 168 115 77 55
282 912 169 114 80 57
283 912 168 110 75 52
283 912 169 107 74 51
283 913 169 104 71 49
282 912 170 112 81 56
282 912 171 112 81 59
282 913 170 106 76 50
282 913 171 102 72 48
283 913 170 101 71 47
283 913 171 99 72 48
283 914 171 96 73 49
280 912 173 112 80 60
281 912 172 113 80 61
281 912 173 110 78 59
281 913 173 103 76 58
280 912 174 109 78 59
280 912 175 109 79 59
280 913 175 105 77 59
281 912 174 108 77 60
281 913 174 102 77 59
281 913 175 101 77 61
281 914 174 94 71 51
281 914 175 93 68 49
281 915 175 92 68 52
282 912 172 109 77 59
282 913 172 100 72 52
282 913 173 99 73 54
282 914 173 95 74 54
283 914 172 96 74 50
283 914 173 95 74 52
283 915 172 96 71 49
283 915 173 95 72 50
282 914 174 94 71 51
282 915 174 94 72 53
282 915 175 94 71 54
283 915 174 93 69 47
283 916 173 95 72 51
282 916 175 94 71 52
283 916 174 93 70 48
283 916 175 92 69 48
283 917 174 93 72 50
283 917 175 92 71 51
283 918 175 93 74 56
284 912 168 108 75 52
284 913 168 106 74 51
284 913 169 101 71 49
285 913 168 102 73 51
285 913 169 100 71 49
284 913 170 98 70 48
285 914 169 98 71 49
284 914 170 97 71 48
284 914 171 96 72 48
284 915 171 96 71 49
285 914 170 98 73 49
285 915 170 98 73 52
285 915 171 99 74 56
286 913 168 102 73 53
286 914 168 99 70 51
286 914 169 97 71 49
286 915 169 98 73 50
287 914 168 99 71 51
287 915 168 101 75 53
287 915 169 100 76 53
286 915 170 97 73 50
284 915 172 97 72 52
284 915 173 98 72 54
285 916 171 96 71 54
285 917 171 94 71 49
287 916 169 101 77 53
287 917 169 103 78 54
286 916 170 99 73 52
286 916 171 97 71 52
286 917 170 98 72 50
286 917 171 99 75 53
287 917 170 105 79 58
286 918 171 108 86 66
286 919 171 107 81 60
287 918 170 113 87 68
287 918 171 111 87 67
287 919 171 109 81 60
284 916 172 98 73 57
284 916 173 96 71 53
284 917 173 91 69 48
285 916 172 96 70 54
285 917 172 93 72 52
285 917 173 92 72 51
284 916 174 93 70 49
284 917 174 91 70 48
285 918 172 103 85 67
285 918 173 101 83 66
285 919 173 99 77 58
284 918 174 95 77 60
284 918 175 95 77 61
284 919 174 93 73 58
284 919 175 90 70 55
285 918 174 100 82 66
285 919 174 93 71 54
286 918 172 108 87 69
286 919 172 105 79 59
286 919 173 101 77 59
287 920 171 112 82 63
284 920 175 87 64 51
285 920 174 96 72 60
285 920 175 91 68 56
285 921 174 94 73 62
285 921 175 89 68 56
285 922 175 85 66 49
286 920 172 107 79 63
286 920 173 104 78 64
286 921 173 100 73 57
287 920 172 111 81 64
287 921 172 106 76 60
287 921 173 98 70 52
286 920 174 102 78 67
286 921 174 94 71 56
287 922 173 94 71 49
287 923 173 95 73 54
286 922 174 89 67 47
286 922 175 86 67 49
286 923 175 93 76 60
287 922 174 91 70 51
287 923 174 98 77 60
287 923 175 98 79 64
287 924 175 98 79 61
