ply
format ascii 1.0
comment Version 2, Copyright 2017, 8i Labs, Inc.
comment frame_to_world_scale 0.179523
comment frame_to_world_translation -45.2095 7.18301 -54.3561
comment width 1023
element vertex 237
property float x
property float y
property float z
property uchar red
property uchar green
property uchar blue
end_header
279 975 157 83 66 51
279 975 158 83 66 52
279 975 159 89 72 62
287 961 144 118 92 65
286 963 144 123 95 64
287 962 144 120 93 64
287 963 144 122 94 64
287 963 145 127 97 65
285 965 144 135 106 74
284 966 144 141 111 79
284 967 144 150 119 90
285 966 144 146 116 87
285 966 145 155 127 97
285 967 144 158 129 102
285 967 145 156 129 103
285 967 146 132 105 79
286 964 144 126 98 67
286 964 145 133 105 74
286 965 144 132 103 72
286 965 145 147 117 87
287 964 145 138 108 76
287 964 146 155 124 93
287 965 146 151 120 87
287 965 147 138 108 80
286 966 145 154 126 97
286 966 146 142 113 85
286 967 146 124 96 68
286 967 147 119 91 65
287 966 146 140 110 80
287 966 147 127 96 66
287 967 147 114 88 67
287 967 148 119 96 76
287 965 158 90 72 62
287 965 159 82 65 55
287 966 157 106 88 69
287 967 156 134 109 84
287 967 157 111 92 74
286 966 159 75 56 42
286 967 158 89 73 62
286 967 159 78 59 44
287 966 158 91 74 63
287 966 159 76 57 46
287 967 158 89 73 62
283 968 144 155 122 91
283 969 144 166 135 105
283 969 145 151 124 97
282 970 144 170 140 109
282 971 144 153 124 94
283 970 144 154 126 95
283 970 145 134 107 79
283 971 145 137 110 83
283 970 146 137 114 90
283 971 146 141 116 88
281 975 144 105 81 55
282 972 144 138 107 81
282 972 145 135 107 83
282 973 144 127 97 73
282 973 145 121 89 68
283 972 145 135 107 80
283 973 145 119 86 62
283 972 146 140 112 84
283 972 147 151 125 100
283 973 146 126 93 69
283 973 147 146 119 96
282 974 144 116 87 69
282 974 145 104 73 49
282 975 144 110 87 69
282 975 145 104 81 56
283 974 145 102 70 40
283 974 146 120 87 61
283 974 147 153 126 101
283 975 146 118 88 59
283 975 147 155 128 102
283 973 148 153 129 106
283 974 148 154 129 105
283 974 149 133 107 82
283 975 148 152 126 102
283 975 149 126 99 71
283 974 150 120 90 61
283 975 150 125 95 61
283 975 151 143 109 72
284 968 144 158 129 99
284 968 145 153 127 101
284 969 145 144 119 93
285 968 145 144 118 93
284 969 146 126 103 84
285 968 146 120 94 70
285 968 147 120 94 71
285 969 146 121 98 77
285 969 147 131 107 84
284 970 145 134 109 84
284 970 146 136 112 89
284 970 147 143 119 94
284 971 146 145 120 93
284 971 147 148 123 100
285 970 147 140 116 94
286 968 147 122 98 74
286 969 147 128 105 82
284 971 148 141 117 95
285 970 148 132 108 87
285 970 149 129 103 77
285 971 148 133 109 86
285 971 149 131 106 80
285 971 150 127 101 74
285 971 151 128 101 74
286 968 148 122 98 76
286 969 148 125 101 79
286 969 149 121 96 71
287 968 148 118 94 68
287 968 149 113 87 63
287 969 149 119 94 71
286 969 150 119 94 66
287 968 150 112 87 66
287 969 150 117 92 70
287 969 151 120 94 69
286 970 148 126 102 80
286 970 149 124 99 73
286 970 150 124 98 70
286 970 151 124 98 73
286 971 151 128 102 77
284 972 147 151 126 103
284 973 147 150 125 101
284 972 148 143 119 96
284 972 149 132 106 79
284 973 148 147 124 100
284 973 149 131 106 81
285 972 149 130 104 76
284 972 150 129 102 79
284 973 150 125 98 70
284 973 151 129 98 64
285 972 150 129 102 77
285 972 151 130 102 72
284 974 149 129 103 77
284 974 150 123 93 61
284 974 151 133 102 65
283 971 158 89 72 60
283 971 159 78 61 44
281 975 155 113 89 64
283 973 155 147 119 90
282 975 153 169 137 103
283 974 153 176 142 104
283 975 152 165 130 91
283 975 153 174 140 103
282 975 154 150 121 91
282 975 155 126 101 76
283 974 154 168 137 103
283 974 155 137 110 83
283 975 154 165 134 101
281 973 159 82 66 52
280 975 156 94 77 60
280 975 157 84 68 53
281 974 157 84 68 55
281 975 156 100 80 58
281 975 157 90 73 57
280 974 158 83 66 53
280 974 159 90 73 60
280 975 158 83 66 53
280 975 159 88 71 58
281 974 158 78 63 49
281 974 159 82 65 51
282 973 157 95 80 67
283 972 157 104 87 71
283 973 156 121 97 73
283 973 157 106 86 66
282 972 158 84 70 57
282 972 159 77 63 48
282 973 158 83 69 57
282 973 159 80 65 51
283 972 158 91 76 64
283 972 159 79 64 50
282 974 156 108 84 62
282 974 157 95 78 62
282 975 156 103 81 58
283 974 156 117 92 69
282 974 158 84 70 59
285 971 152 132 104 70
285 971 153 149 118 82
285 970 155 143 118 93
285 971 154 160 130 99
285 971 155 150 123 97
286 969 153 135 105 71
287 968 153 128 98 65
287 969 152 124 96 67
287 969 153 128 99 66
286 969 154 146 117 85
286 969 155 142 116 88
287 968 154 134 104 71
287 968 155 139 111 82
287 969 154 140 110 78
287 969 155 141 115 86
286 970 152 124 96 64
286 970 153 140 111 77
286 971 152 129 101 69
286 971 153 145 115 82
286 970 154 152 123 91
286 970 155 148 121 94
285 969 157 105 86 70
284 969 159 85 69 54
285 968 158 87 69 54
285 968 159 87 70 56
285 969 158 92 75 62
285 969 159 88 72 59
284 970 157 102 85 71
284 971 156 123 101 77
284 971 157 110 91 74
285 970 156 125 103 81
285 970 157 110 91 74
285 971 156 129 106 82
285 971 157 114 94 75
284 970 158 93 77 63
284 970 159 83 67 52
284 971 158 93 76 63
284 971 159 84 68 55
285 970 158 98 80 67
286 968 157 107 88 73
286 969 156 126 103 80
286 969 157 106 87 70
287 968 156 132 109 85
287 968 157 119 100 80
286 968 158 87 70 56
286 968 159 83 66 50
284 973 152 147 115 79
284 973 153 171 138 101
285 972 152 137 106 71
285 972 153 156 124 88
285 973 152 142 111 74
285 973 153 156 124 87
284 972 155 156 127 98
284 973 154 171 139 105
284 973 155 152 124 94
285 972 154 169 138 106
285 972 155 154 126 98
284 974 152 154 121 84
284 974 153 174 140 103
284 972 156 129 105 79
284 972 157 115 95 75
284 973 156 127 102 77
