ply
format ascii 1.0
comment Version 2, Copyright 2017, 8i Labs, Inc.
comment frame_to_world_scale 0.179523
comment frame_to_world_translation -45.2095 7.18301 -54.3561
comment width 1023
element vertex 315
property float x
property float y
property float z
property uchar red
property uchar green
property uchar blue
end_header
279 119 142 112 83 57
279 119 143 112 83 58
272 127 134 121 83 52
272 127 135 121 84 52
273 126 135 121 82 48
273 127 134 121 82 49
273 127 135 121 82 48
275 125 135 122 80 39
274 127 133 122 81 44
275 127 133 122 80 43
274 126 135 122 81 45
274 127 134 122 81 46
274 127 135 122 82 46
275 126 135 122 80 41
275 127 134 122 80 42
279 127 131 124 76 25
276 125 135 122 79 36
277 125 135 123 79 33
276 127 132 123 79 37
276 127 133 123 79 38
277 126 133 123 78 32
277 127 132 123 78 33
277 127 133 123 78 33
276 126 134 123 79 37
276 126 135 122 79 37
276 127 134 122 80 39
277 126 134 123 79 33
277 126 135 123 79 34
278 124 135 123 79 31
278 125 134 123 78 29
278 125 135 123 78 31
279 124 135 123 79 30
279 125 134 123 77 27
279 125 135 123 78 29
278 126 133 123 78 30
278 127 132 123 77 29
278 127 133 123 78 30
279 126 133 123 77 28
279 127 132 123 77 27
279 127 133 123 78 29
278 126 134 123 78 30
279 126 134 123 78 29
274 123 139 117 79 36
275 123 139 118 79 36
272 123 141 115 79 39
273 123 140 116 79 37
273 123 141 115 79 38
272 122 143 113 79 44
272 123 142 115 79 41
272 123 143 114 79 43
273 122 143 113 79 43
273 123 142 115 79 40
273 123 143 114 79 42
275 121 143 113 80 46
274 123 140 117 78 36
274 123 141 116 79 38
275 122 141 115 79 39
275 123 140 117 79 37
275 123 141 116 79 38
274 122 142 114 79 40
274 122 143 113 79 43
274 123 142 114 79 40
275 122 142 114 79 41
275 122 143 113 79 44
272 125 137 120 82 46
273 125 137 121 81 43
272 124 138 120 82 43
272 124 139 120 81 43
272 125 138 120 82 45
273 124 138 120 81 41
273 124 139 119 80 40
273 125 138 121 81 42
272 126 136 121 83 50
272 126 137 121 83 49
272 127 136 120 84 52
273 126 136 121 82 47
273 126 137 121 82 45
274 125 136 121 81 41
274 125 137 121 81 41
275 124 137 121 80 36
275 125 136 122 80 39
275 125 137 121 80 38
274 124 138 121 80 39
274 124 139 119 80 38
274 125 138 121 81 41
275 124 138 121 80 37
274 126 136 121 81 43
272 124 140 117 80 40
272 124 141 116 79 39
273 124 140 117 79 38
277 123 137 121 79 33
276 122 139 117 79 36
276 123 138 120 79 34
276 123 139 119 79 35
277 122 139 119 79 36
277 123 138 121 79 33
277 123 139 120 79 33
279 121 139 118 80 41
278 123 137 121 80 30
279 122 137 121 77 27
279 123 136 122 80 30
279 123 137 121 79 28
278 122 138 120 79 32
278 122 139 118 79 36
278 123 138 121 79 31
279 122 138 120 79 32
279 122 139 119 79 36
276 121 141 115 79 42
277 121 140 116 79 42
277 121 141 114 80 44
276 120 143 112 81 51
276 121 142 114 79 44
276 121 143 112 80 47
277 120 143 112 81 51
277 121 142 113 80 47
277 121 143 113 81 49
276 122 140 116 79 38
276 122 141 115 79 40
276 123 140 117 79 36
277 122 140 116 79 40
278 120 141 113 81 48
278 121 140 115 80 43
278 121 141 114 80 46
279 120 140 114 81 49
279 120 141 113 82 51
279 121 140 115 81 45
278 120 142 113 81 51
278 120 143 112 82 55
278 121 142 113 81 49
279 120 142 112 82 54
279 120 143 111 82 56
276 124 136 122 80 35
276 124 137 121 80 35
276 125 136 122 80 36
277 124 136 122 79 33
277 124 137 121 80 33
277 125 136 122 79 34
276 124 138 121 80 35
278 124 136 122 80 33
278 124 137 121 80 32
279 124 136 122 80 31
283 119 139 115 85 59
280 119 141 113 83 56
281 119 141 113 84 57
280 119 142 113 84 58
280 119 143 111 85 62
281 118 143 111 87 68
281 119 142 112 85 62
283 117 143 109 91 77
282 119 140 114 84 58
282 119 141 114 85 61
283 118 141 113 88 67
283 119 140 114 86 61
283 119 141 113 87 64
282 118 142 112 88 67
282 118 143 111 89 71
282 119 142 112 87 65
283 118 142 111 89 70
283 118 143 110 90 74
284 119 139 115 86 61
285 119 138 116 86 62
285 119 139 115 87 65
287 119 137 115 86 63
286 118 139 114 89 68
286 119 138 115 87 63
286 119 139 114 88 66
287 118 139 113 89 69
287 119 138 114 87 66
287 119 139 114 88 68
284 117 143 109 92 78
285 117 142 111 91 76
285 117 143 110 92 79
284 118 141 113 88 68
284 119 140 114 87 64
284 119 141 114 87 66
285 118 140 114 88 67
285 118 141 112 89 70
285 119 140 114 88 66
284 118 142 111 90 73
284 118 143 110 91 76
285 118 142 111 90 74
287 117 141 112 91 75
286 117 142 111 91 76
286 117 143 109 93 81
287 116 143 109 94 83
287 117 142 111 92 78
287 117 143 109 94 82
286 118 140 113 89 69
286 118 141 112 90 73
286 119 140 114 88 67
287 118 140 113 89 71
287 118 141 112 90 74
286 118 142 111 91 75
281 123 135 123 79 21
282 123 135 123 80 19
283 122 135 120 78 21
283 123 134 119 76 7
283 123 135 120 77 14
280 127 131 124 77 24
281 127 131 123 78 24
282 127 131 122 78 28
283 126 131 124 74 13
283 127 130 123 72 12
283 127 131 123 74 14
280 125 133 123 77 22
281 125 133 123 79 17
280 124 135 123 79 28
280 125 134 123 77 24
281 124 134 124 80 24
281 124 135 123 80 26
281 125 134 124 79 18
280 126 132 123 78 24
280 126 133 123 77 24
280 127 132 123 77 25
281 126 132 123 79 24
281 126 133 123 79 22
281 127 132 123 78 25
282 125 133 122 78 18
283 124 133 121 75 12
283 125 132 122 77 20
283 125 133 121 76 17
282 124 134 123 79 23
282 124 135 123 79 21
282 125 134 123 78 14
283 124 134 121 76 14
282 126 132 122 79 28
283 126 132 122 76 16
284 122 135 121 77 20
284 123 134 121 77 10
284 123 135 122 78 9
285 122 135 120 74 16
285 123 134 120 77 10
285 123 135 120 77 15
287 121 135 117 74 28
287 123 133 119 74 16
286 122 135 118 72 19
286 123 134 118 74 9
287 122 135 117 72 16
287 123 134 119 74 12
287 123 135 116 71 10
284 126 131 123 73 8
284 127 130 123 70 8
284 127 131 123 72 9
285 126 131 122 75 14
285 127 130 121 72 8
285 127 131 122 74 13
287 125 131 118 73 14
286 126 131 121 72 11
286 127 130 121 69 11
286 127 131 121 71 11
287 126 131 119 69 7
287 127 130 121 68 8
287 127 131 121 69 6
284 124 133 121 75 5
284 125 132 122 76 8
284 125 133 121 76 9
285 124 133 120 76 14
285 125 132 121 76 12
285 125 133 121 77 15
284 124 134 120 76 8
285 124 134 119 77 17
284 126 132 122 76 9
285 126 132 122 76 10
286 124 133 119 75 19
286 125 132 119 71 13
287 124 132 119 73 17
287 124 133 119 76 19
287 125 132 119 72 14
286 124 134 119 76 17
286 126 132 120 70 7
281 121 137 119 80 35
280 120 139 116 81 46
280 121 138 118 79 37
280 121 139 118 80 43
281 120 139 116 82 49
281 121 138 119 80 40
281 121 139 117 81 45
280 122 137 121 78 28
280 123 136 122 78 26
280 123 137 121 77 26
281 122 136 122 79 25
281 122 137 121 79 29
281 123 136 123 79 23
280 122 138 120 79 36
282 121 137 120 80 33
283 121 137 120 82 40
282 120 138 117 82 46
282 120 139 117 83 51
282 121 138 118 81 42
283 120 138 118 82 48
283 120 139 116 84 54
283 121 138 118 82 44
282 122 136 122 81 23
282 123 136 124 81 21
283 122 136 120 79 22
280 120 140 114 82 51
280 120 141 113 83 55
281 120 140 115 83 53
282 120 140 115 84 55
283 120 140 115 84 56
280 124 136 122 79 28
284 120 137 119 83 50
284 121 136 121 78 35
284 121 137 120 81 45
285 120 137 117 84 54
285 121 136 118 76 41
285 121 137 119 80 46
284 120 138 117 84 53
285 120 138 117 86 58
284 122 136 121 79 33
285 122 136 120 75 32
286 120 137 116 84 57
286 121 136 117 74 38
287 120 137 114 84 58
287 121 136 115 77 39
