ply
format ascii 1.0
comment Version 2, Copyright 2017, 8i Labs, Inc.
comment frame_to_world_scale 0.179523
comment frame_to_world_translation -45.2095 7.18301 -54.3561
comment width 1023
element vertex 319
property float x
property float y
property float z
property uchar red
property uchar green
property uchar blue
end_header
272 117 224 82 75 69
272 117 225 84 77 70
272 117 226 86 79 73
272 117 227 86 79 74
273 118 224 80 74 67
273 118 225 81 75 68
273 118 226 87 79 73
273 118 227 86 79 73
274 118 224 82 73 66
274 118 225 79 72 66
274 119 224 86 78 70
274 119 225 79 72 66
275 119 224 84 78 72
275 119 225 85 78 72
274 118 226 82 75 70
274 118 227 84 77 72
274 119 226 80 73 67
274 119 227 84 77 72
275 119 226 80 73 67
272 117 228 88 83 78
272 117 229 88 83 78
272 116 231 88 81 75
272 117 230 86 81 76
272 117 231 87 81 75
273 117 231 88 81 76
273 118 228 85 79 75
273 118 229 87 82 78
273 118 230 90 84 80
273 118 231 89 82 78
274 118 228 83 77 74
274 118 229 82 77 74
274 119 228 83 77 74
274 119 229 82 77 74
274 119 230 86 80 77
274 119 231 92 85 80
272 116 232 90 82 75
272 117 232 92 85 77
272 117 233 94 86 78
273 117 232 91 84 77
273 117 233 92 84 77
272 117 234 86 80 75
272 117 235 94 88 82
273 117 234 94 86 79
273 117 235 86 82 78
273 118 232 91 84 78
273 118 233 91 84 77
273 118 234 90 83 78
273 118 235 93 87 81
273 119 235 95 89 84
274 119 232 90 84 79
274 119 233 90 83 78
274 119 234 87 81 77
274 119 235 90 85 81
272 117 236 99 90 82
272 117 237 96 85 76
272 117 238 95 83 74
272 117 239 80 70 64
272 118 237 95 84 79
273 118 236 99 93 87
273 118 237 103 95 87
273 119 236 99 92 85
273 119 237 100 93 87
272 118 238 95 83 78
272 118 239 85 74 69
272 119 239 96 85 74
273 118 238 102 91 83
273 118 239 100 87 79
273 119 238 107 97 87
273 119 239 102 90 81
274 119 236 97 91 87
274 119 237 99 91 87
274 119 238 104 95 87
275 120 224 82 76 72
275 120 225 83 77 73
275 120 226 82 76 73
275 120 227 83 78 72
275 120 228 86 80 74
275 120 229 83 78 73
274 120 230 82 76 73
274 120 231 91 84 79
275 120 230 81 76 71
275 120 231 87 80 74
275 121 230 80 73 69
275 121 231 86 79 74
275 122 231 88 81 74
276 120 224 81 76 72
276 120 225 81 76 73
276 121 224 82 76 72
276 121 225 82 77 74
277 121 224 83 77 72
277 121 225 82 76 73
276 120 226 82 77 74
276 120 227 85 79 75
276 121 226 82 77 75
276 121 227 84 79 76
277 121 226 83 78 75
277 122 225 80 75 73
277 122 226 81 77 75
277 122 227 85 80 77
278 121 224 82 76 71
278 122 224 83 77 72
278 122 225 82 77 73
279 122 224 83 78 74
279 122 225 84 78 74
279 123 224 81 76 73
279 123 225 83 77 73
278 122 226 80 76 73
278 122 227 81 77 76
278 123 226 79 75 73
278 123 227 82 78 76
279 123 226 80 75 72
279 123 227 78 74 72
276 121 228 83 78 73
276 121 229 80 74 70
276 121 230 78 72 68
276 122 228 81 76 73
276 122 229 79 74 70
277 122 228 84 79 75
277 122 229 81 76 72
277 123 228 85 79 75
277 123 229 81 76 71
276 122 230 79 73 68
276 122 231 85 79 72
276 123 230 77 71 68
276 123 231 86 79 73
277 123 230 79 73 69
277 123 231 81 74 69
278 123 228 84 79 76
278 123 229 83 77 73
279 123 228 81 77 74
279 124 227 78 74 71
277 124 231 81 73 68
278 124 229 86 79 74
279 124 228 83 78 74
279 124 229 85 79 74
278 124 230 83 77 71
278 124 231 82 74 68
278 125 231 82 73 66
279 124 230 87 80 73
279 124 231 84 76 69
279 125 230 86 78 71
279 125 231 82 72 65
279 126 231 84 74 66
274 120 232 90 83 78
274 120 233 88 82 76
274 121 233 87 80 74
275 120 232 92 84 78
275 121 232 89 82 76
275 121 233 87 80 74
274 120 234 85 79 74
274 120 235 87 82 78
274 121 234 83 77 71
274 121 235 84 78 73
275 121 234 84 77 72
275 122 232 93 85 78
275 122 233 90 83 77
275 123 233 93 85 76
274 122 235 81 76 71
275 122 234 83 77 72
275 122 235 80 75 70
275 123 234 88 79 70
275 123 235 78 72 66
273 120 239 97 82 78
273 121 239 102 87 76
274 120 236 95 89 84
274 120 237 99 92 86
274 121 236 92 86 80
274 121 237 98 91 84
274 120 238 102 92 86
274 120 239 102 89 84
274 121 238 100 91 83
274 121 239 102 89 81
274 122 236 93 87 81
274 122 237 99 92 86
274 123 237 98 91 85
275 122 236 86 81 77
275 123 236 85 80 76
275 123 237 95 88 81
274 122 238 102 94 86
274 122 239 100 89 81
274 123 238 103 93 85
274 123 239 97 87 81
275 124 234 86 75 67
275 124 235 76 65 55
275 124 236 83 71 60
275 124 237 98 84 74
275 125 236 86 73 61
275 125 237 91 78 67
274 124 238 103 91 80
274 124 239 95 85 77
274 125 239 93 78 67
275 124 238 100 86 75
275 125 238 93 75 66
275 126 237 90 76 62
274 126 239 98 79 66
274 127 239 97 72 51
275 126 238 95 77 62
275 126 239 96 75 63
275 127 238 96 71 44
275 127 239 98 72 47
276 122 232 93 86 78
276 123 232 92 84 77
276 123 233 92 83 75
276 124 232 89 81 75
276 124 233 91 82 75
277 124 232 85 77 71
277 125 232 85 77 72
277 125 233 92 83 75
276 124 234 91 81 73
276 124 235 82 70 61
276 125 234 96 83 71
276 125 235 86 72 59
277 125 234 95 83 72
276 126 235 84 68 50
277 126 234 93 80 67
277 126 235 91 74 57
277 127 235 91 64 31
278 125 232 85 75 70
278 125 233 89 80 75
279 125 232 84 74 67
278 126 233 86 76 69
279 126 232 84 71 59
279 126 233 88 72 59
279 127 233 88 68 46
278 126 234 92 75 60
278 127 234 92 72 49
278 127 235 91 63 29
279 127 234 89 65 34
276 125 236 86 74 62
276 126 236 85 69 52
276 126 237 90 71 55
276 127 236 88 60 25
276 127 237 93 67 37
277 127 236 91 54 27
280 123 224 77 73 71
280 123 225 80 75 72
281 123 224 74 70 69
280 123 226 82 76 71
280 124 225 80 75 71
281 124 224 74 70 68
281 124 225 78 73 70
280 124 226 81 75 71
280 124 227 81 75 72
281 124 226 83 77 73
281 124 227 88 81 76
281 125 227 88 81 75
282 124 224 72 67 66
282 124 225 74 70 67
283 124 224 72 68 65
283 125 224 74 69 64
283 125 225 74 67 63
282 124 226 80 75 71
282 125 226 79 74 71
282 125 227 84 78 73
283 125 226 76 70 67
283 125 227 81 75 71
283 126 227 80 74 69
280 124 228 82 77 73
280 124 229 86 79 73
280 125 229 83 77 72
281 125 228 83 76 72
281 125 229 80 74 71
280 125 230 86 78 72
280 125 231 85 76 68
281 125 230 83 77 72
280 126 231 85 73 62
281 126 230 83 76 72
281 126 231 86 75 64
281 127 231 83 70 54
282 125 228 82 74 72
282 125 229 81 73 71
282 126 229 78 70 68
283 126 228 81 75 72
283 126 229 80 72 69
283 127 229 77 69 64
282 126 230 80 72 68
282 126 231 89 79 68
282 127 231 85 69 53
283 126 230 79 68 63
283 127 230 77 64 56
283 127 231 81 66 52
284 125 224 76 70 64
284 125 225 73 66 59
285 125 224 78 72 67
284 125 226 71 65 60
284 126 225 71 64 58
285 126 224 76 70 66
285 126 225 73 67 61
284 126 226 73 65 61
284 126 227 77 71 66
285 126 226 69 63 59
285 126 227 73 66 62
285 127 227 73 67 62
286 126 224 76 73 71
286 126 225 69 68 66
287 126 224 81 76 73
287 126 225 76 70 66
287 127 224 77 71 72
287 127 225 71 67 66
286 126 226 67 63 60
286 127 226 65 61 60
286 127 227 68 62 60
287 127 226 68 62 60
287 127 227 71 63 61
284 126 228 76 71 68
284 127 228 78 70 67
284 127 229 77 69 64
285 127 228 74 67 60
285 127 229 77 67 58
284 127 230 77 65 55
284 127 231 76 60 46
285 127 230 76 67 57
286 127 228 74 64 57
280 126 232 83 67 52
280 127 232 84 65 45
280 127 233 85 63 34
281 127 232 83 64 49
281 127 233 87 54 32
282 127 232 84 59 42
