ply
format ascii 1.0
comment Version 2, Copyright 2017, 8i Labs, Inc.
comment frame_to_world_scale 0.179523
comment frame_to_world_translation -45.2095 7.18301 -54.3561
comment width 1023
element vertex 40
property float x
property float y
property float z
property uchar red
property uchar green
property uchar blue
end_header
272 143 87 98 86 76
272 143 88 98 86 76
272 143 89 97 85 75
273 143 89 98 86 76
272 142 90 96 84 74
272 142 91 95 84 74
272 143 90 96 85 75
272 143 91 96 84 75
273 143 90 97 85 75
273 143 91 96 85 75
274 143 90 98 86 76
274 143 91 97 86 75
275 143 91 96 84 74
272 142 92 94 83 73
272 142 93 93 82 72
273 142 92 94 83 73
273 142 93 93 81 72
273 143 92 95 83 73
272 142 94 92 81 71
272 142 95 92 82 72
273 142 94 93 82 72
273 142 95 93 82 73
274 143 92 95 83 73
274 143 93 94 82 72
275 143 92 95 83 73
275 143 93 94 82 72
274 142 94 93 82 73
274 142 95 94 83 74
274 143 94 93 82 72
274 143 95 93 82 73
275 142 95 95 84 75
275 143 94 95 84 74
275 143 95 95 84 74
276 143 92 95 84 73
276 143 93 96 84 74
276 143 94 96 85 75
276 143 95 98 87 77
277 143 94 102 90 80
277 143 95 102 91 81
278 143 95 106 95 86
