ply
format ascii 1.0
comment Version 2, Copyright 2017, 8i Labs, Inc.
comment frame_to_world_scale 0.179523
comment frame_to_world_translation -45.2095 7.18301 -54.3561
comment width 1023
element vertex 301
property float x
property float y
property float z
property uchar red
property uchar green
property uchar blue
end_header
295 176 170 62 86 108
295 176 171 65 81 100
295 177 170 53 77 99
295 177 171 62 75 94
295 178 170 60 78 97
295 178 171 64 74 89
295 179 170 67 82 98
295 179 171 70 79 93
293 176 174 83 71 77
293 176 175 78 71 78
293 177 174 87 74 80
293 177 175 81 73 78
293 178 174 86 73 80
293 178 175 87 76 82
293 179 174 85 72 82
293 179 175 80 68 78
294 176 172 78 79 93
294 176 173 76 72 82
294 177 172 77 74 87
294 177 173 78 71 81
295 176 172 75 82 98
295 177 172 78 80 94
294 176 174 81 72 78
294 177 174 87 74 80
294 178 172 73 69 82
294 178 173 81 71 81
294 179 172 76 72 86
294 179 173 80 69 83
295 178 172 69 70 84
295 179 172 77 78 92
295 180 170 67 79 97
295 180 171 72 78 94
295 181 170 72 79 97
295 181 171 75 76 90
295 182 169 72 77 93
295 183 169 66 75 92
294 182 171 75 76 87
294 183 171 72 73 84
295 182 170 76 79 93
295 182 171 78 78 90
295 183 170 77 77 90
295 183 171 79 78 89
293 180 174 82 69 82
293 180 175 80 68 81
293 181 174 80 66 80
293 181 175 80 66 80
293 182 174 86 67 79
293 182 175 78 61 74
293 183 174 80 66 74
293 183 175 76 64 72
294 180 172 79 72 87
294 180 173 81 68 83
294 181 172 82 76 87
294 181 173 84 72 84
295 180 172 78 77 93
295 181 172 76 73 86
294 181 174 80 66 80
294 182 172 77 73 85
294 182 173 83 70 83
294 183 172 73 71 81
294 183 173 83 74 82
294 182 174 88 71 83
294 183 174 83 71 77
295 184 169 81 81 91
295 185 169 92 74 85
294 184 171 86 76 86
294 185 170 98 74 81
294 185 171 95 72 81
295 184 170 87 74 83
295 185 170 94 74 83
295 186 169 102 71 79
295 187 169 118 76 77
294 186 170 111 77 79
294 186 171 110 74 75
294 187 170 121 78 75
294 187 171 121 77 71
295 186 170 105 73 76
295 187 170 117 73 70
293 185 173 106 67 73
293 184 174 82 66 70
293 184 175 79 64 69
293 185 174 97 67 72
293 185 175 91 63 67
293 186 172 115 70 69
293 186 173 111 61 65
293 187 172 118 69 64
293 187 173 115 64 58
292 187 175 111 55 53
293 186 174 111 61 65
293 186 175 110 59 62
293 187 174 113 56 55
293 187 175 114 56 56
294 184 172 81 73 82
294 184 173 79 67 76
294 185 172 97 70 79
294 185 173 94 65 73
294 184 174 81 68 73
294 186 172 114 73 74
294 187 172 120 74 67
294 188 171 120 75 67
295 188 170 121 72 66
295 188 171 124 75 66
295 189 171 125 76 63
295 190 171 124 74 59
295 191 171 123 72 59
293 188 172 117 70 60
293 188 173 114 65 54
293 189 173 112 67 51
292 188 175 110 54 49
292 189 175 106 52 46
293 188 174 110 55 46
293 188 175 108 54 48
293 189 174 110 63 50
293 189 175 110 60 54
293 190 173 114 69 55
292 190 175 107 55 58
292 191 175 108 55 58
293 190 174 112 64 58
293 190 175 107 55 55
293 191 174 111 59 56
293 191 175 109 56 56
294 188 172 119 75 66
294 188 173 117 72 59
294 189 172 118 73 62
294 189 173 116 70 54
294 190 172 119 74 62
294 190 173 117 70 56
294 191 172 122 75 62
294 191 173 118 69 58
295 190 172 119 73 62
295 191 172 123 74 61
299 176 167 52 87 112
299 177 167 49 84 110
298 179 167 50 82 106
299 178 167 48 82 107
299 179 167 54 84 107
297 181 167 53 81 104
296 182 167 51 78 101
297 182 167 50 79 102
297 183 167 51 79 100
298 180 167 51 81 105
298 181 167 48 80 105
299 180 167 52 82 105
299 181 167 49 80 105
298 182 167 41 78 104
298 183 167 40 78 103
299 182 167 40 78 104
299 183 167 39 78 104
300 176 167 51 85 111
300 177 167 47 83 109
301 176 167 50 84 109
301 177 167 45 82 108
300 178 167 48 82 107
300 179 167 54 84 108
301 178 167 48 83 108
301 179 167 52 84 108
302 176 167 47 82 106
302 177 167 47 83 109
303 176 167 54 82 103
303 177 167 49 82 106
302 178 167 48 84 110
302 179 167 53 85 111
303 178 167 52 85 110
303 179 167 54 86 112
300 180 167 53 83 106
300 181 167 49 80 104
301 180 167 53 83 106
301 181 167 52 82 106
300 182 167 44 79 105
300 183 167 42 79 106
301 182 167 46 80 105
301 183 167 46 82 108
302 180 167 55 86 110
302 181 167 53 84 108
303 180 167 56 88 112
303 181 167 57 87 111
302 182 167 48 82 106
302 183 167 48 84 109
303 182 167 53 85 110
303 183 167 51 86 112
296 176 169 55 86 109
296 177 169 53 83 108
297 176 168 57 90 114
297 176 169 55 88 112
297 177 168 52 85 110
297 177 169 45 82 107
296 176 170 56 84 107
296 177 170 53 80 104
296 178 169 52 80 106
296 179 169 59 83 106
297 178 168 51 84 108
297 178 169 49 82 107
297 179 168 52 82 106
297 179 169 52 83 107
296 178 170 52 76 100
296 179 170 58 79 100
298 176 168 54 87 112
298 177 168 51 85 111
298 178 168 53 86 110
298 179 168 54 85 109
299 178 168 51 84 109
299 179 168 51 83 107
296 180 168 58 83 104
296 180 169 61 82 104
296 181 168 60 83 102
296 181 169 63 80 100
297 180 168 57 84 106
297 181 168 59 84 104
296 180 170 64 80 101
296 182 168 57 78 99
296 182 169 65 78 96
296 183 168 63 79 98
296 183 169 60 76 94
297 184 167 54 76 97
297 185 167 60 75 95
298 184 167 44 76 100
298 185 167 53 74 96
299 184 167 42 78 103
299 185 167 48 76 99
298 186 167 54 73 93
299 186 167 54 75 94
300 184 167 45 80 105
300 185 167 50 79 102
301 184 167 47 82 108
301 185 167 51 82 106
300 186 167 54 77 98
301 186 167 52 80 104
302 184 167 50 85 111
302 185 167 51 85 110
303 184 167 50 86 113
303 185 167 52 87 113
302 186 167 48 83 109
296 184 168 69 80 96
296 184 169 75 80 93
296 185 168 73 73 86
296 185 169 79 74 83
297 185 168 67 74 91
296 186 168 82 72 83
296 186 169 94 67 78
296 187 169 114 71 78
297 186 168 74 71 84
297 186 169 91 70 81
297 187 169 103 68 79
298 186 168 68 74 89
298 187 168 82 71 82
298 187 169 95 70 80
299 186 168 65 75 89
299 187 168 75 71 82
299 187 169 82 70 80
296 188 169 119 68 68
297 188 169 119 72 74
296 188 170 120 67 61
296 189 170 124 72 61
296 189 171 124 74 62
297 188 170 121 68 66
297 189 170 123 73 65
296 190 170 125 73 60
296 190 171 123 73 56
296 191 171 124 75 59
297 190 170 124 73 58
297 191 170 124 74 57
298 188 169 109 70 75
298 189 169 115 70 71
299 188 169 100 75 81
299 189 169 114 74 75
298 189 170 119 71 68
299 189 170 116 71 72
298 190 170 120 69 62
298 191 170 122 70 60
299 190 170 119 72 71
299 191 170 119 69 67
300 186 168 59 77 95
300 187 168 70 72 87
301 186 168 57 79 101
301 187 168 69 78 95
303 185 168 51 87 113
302 186 168 52 82 106
302 187 168 64 80 98
303 186 168 53 87 112
303 187 168 55 82 104
300 188 169 87 75 82
300 189 169 102 74 77
301 188 168 81 79 93
301 188 169 85 80 87
301 189 169 93 78 84
300 190 169 107 72 75
301 190 169 101 75 81
300 190 170 111 70 72
300 191 170 114 70 72
301 191 170 107 73 80
302 188 168 78 82 95
302 188 169 85 85 94
302 189 169 91 85 90
303 188 168 61 79 97
303 188 169 72 84 98
303 189 169 86 87 96
302 190 169 100 78 87
303 190 169 97 87 93
303 191 169 98 83 90
302 191 170 104 77 87
303 191 170 100 79 89
