ply
format ascii 1.0
comment Version 2, Copyright 2017, 8i Labs, Inc.
comment frame_to_world_scale 0.179523
comment frame_to_world_translation -45.2095 7.18301 -54.3561
comment width 1023
element vertex 94
property float x
property float y
property float z
property uchar red
property uchar green
property uchar blue
end_header
300 161 192 85 45 50
301 160 192 82 40 46
301 160 193 82 45 48
301 161 192 82 44 50
301 161 193 78 40 46
300 162 192 85 50 46
300 163 192 79 38 37
301 162 192 81 46 47
301 162 193 76 45 50
301 163 192 78 41 43
301 163 193 73 42 46
302 160 193 76 49 49
302 161 193 80 52 55
303 160 194 63 50 56
303 161 194 67 56 63
302 162 193 75 49 55
302 163 193 69 47 54
302 162 194 71 49 58
302 163 194 65 46 58
303 162 194 68 55 67
303 163 194 57 48 64
300 164 192 75 31 35
300 165 192 78 44 48
301 164 192 74 37 42
301 164 193 71 44 49
301 165 192 77 48 53
301 165 193 77 56 62
300 166 192 77 50 54
300 167 192 81 61 65
301 166 192 80 57 61
301 166 193 79 62 67
301 167 192 78 58 62
301 167 193 80 64 68
302 164 193 66 46 56
302 164 194 59 46 60
302 165 194 65 54 65
303 164 194 51 49 66
303 164 195 45 50 70
303 165 194 52 48 68
303 165 195 46 51 74
302 166 193 77 64 69
302 167 193 79 67 72
302 166 194 72 64 73
302 167 194 69 63 71
303 166 194 55 53 71
303 166 195 43 48 74
303 167 194 63 63 75
303 167 195 52 57 77
299 172 192 73 62 67
299 173 192 74 60 69
299 174 192 77 58 73
299 175 192 78 57 71
300 168 192 78 60 66
300 169 192 75 60 67
301 168 193 76 60 65
301 169 192 77 61 69
301 169 193 74 61 68
300 170 192 74 59 67
300 171 192 73 60 67
301 170 192 74 58 68
301 170 193 75 59 69
301 171 192 74 59 69
301 171 193 77 61 73
302 168 193 74 63 70
302 169 193 74 63 71
303 168 194 64 62 71
303 168 195 54 59 75
303 169 194 65 63 71
303 169 195 56 62 73
302 170 193 76 63 73
302 171 193 77 63 74
303 170 194 72 67 76
303 171 194 72 63 75
300 172 192 74 62 69
300 173 192 74 60 69
301 172 193 74 59 70
301 173 193 74 58 69
300 174 192 77 60 74
300 174 193 77 58 75
300 175 192 78 57 72
300 175 193 79 58 73
301 174 193 79 63 76
301 175 193 77 57 73
302 172 193 78 62 74
302 173 193 74 56 69
302 172 194 75 59 72
302 173 194 75 58 72
303 172 194 75 62 75
303 173 194 71 56 70
302 174 193 79 63 74
302 174 194 78 62 74
302 175 194 77 58 73
303 174 194 75 59 71
303 175 194 76 57 70
