ply
format ascii 1.0
comment Version 2, Copyright 2017, 8i Labs, Inc.
comment frame_to_world_scale 0.179523
comment frame_to_world_translation -45.2095 7.18301 -54.3561
comment width 1023
element vertex 63
property float x
property float y
property float z
property uchar red
property uchar green
property uchar blue
end_header
293 224 175 45 57 80
295 224 173 81 55 73
294 224 174 67 66 82
294 224 175 46 60 81
294 225 175 51 65 85
295 224 174 73 63 79
295 225 174 68 69 84
295 225 175 53 60 80
294 226 175 47 63 84
295 226 175 50 64 84
295 227 175 58 70 90
295 228 175 49 66 88
295 229 175 27 59 84
295 230 175 42 66 92
295 231 175 48 69 93
296 224 173 87 54 75
296 224 174 85 60 80
296 225 174 79 72 86
296 225 175 80 72 88
297 224 174 91 43 76
297 225 175 88 64 85
296 226 175 61 64 82
296 227 175 65 71 89
297 226 175 77 66 84
297 227 175 80 70 90
298 224 174 92 37 74
298 224 175 92 45 77
298 225 175 87 53 80
299 224 174 93 44 75
299 224 175 90 42 73
299 225 175 85 47 76
298 226 175 80 61 83
298 227 175 83 66 89
299 226 175 84 59 82
296 228 175 62 70 90
296 229 175 43 65 88
297 228 175 72 68 90
297 229 175 64 73 92
296 230 175 38 63 88
296 231 175 53 70 92
297 230 175 50 67 86
297 231 175 52 69 84
298 228 175 77 61 88
298 229 175 75 71 91
299 229 175 75 65 87
298 230 175 65 67 86
298 231 175 62 66 82
299 230 175 73 67 86
299 231 175 70 63 81
300 224 175 89 43 71
300 225 175 85 50 74
301 224 175 90 44 73
301 225 175 83 50 74
300 226 175 84 59 79
302 224 175 88 44 71
302 225 175 81 47 72
303 224 175 91 39 71
296 232 175 46 65 88
297 232 175 64 73 89
297 233 175 52 69 87
298 232 175 69 71 88
298 233 175 62 71 89
299 232 175 72 68 85
