ply
format ascii 1.0
comment Version 2, Copyright 2017, 8i Labs, Inc.
comment frame_to_world_scale 0.179523
comment frame_to_world_translation -45.2095 7.18301 -54.3561
comment width 1023
element vertex 207
property float x
property float y
property float z
property uchar red
property uchar green
property uchar blue
end_header
288 192 96 77 24 34
288 192 97 67 37 41
288 193 96 68 42 52
288 193 97 56 47 60
288 192 98 64 39 56
288 192 99 49 39 75
288 193 98 49 42 68
288 193 99 42 40 82
289 192 99 49 48 83
288 194 96 64 52 63
288 194 97 59 57 73
288 195 96 50 42 65
288 195 97 38 45 72
288 194 98 52 56 79
288 194 99 50 55 88
288 195 98 32 43 75
288 195 99 35 42 77
288 193 100 35 41 86
288 193 101 40 48 88
289 192 100 35 40 83
289 192 101 31 42 83
289 193 101 32 42 84
289 192 102 32 46 85
289 192 103 25 46 86
289 193 102 35 46 80
289 193 103 31 45 77
288 194 100 48 53 88
288 194 101 55 60 90
288 195 100 32 40 77
288 195 101 38 42 79
288 194 102 53 58 88
288 195 102 39 41 81
288 195 103 32 39 80
289 194 102 53 61 88
289 194 103 49 56 84
289 195 103 28 35 78
288 196 97 35 55 81
288 196 98 41 58 84
288 196 99 44 56 84
288 197 98 44 59 85
288 197 99 41 54 81
288 196 100 43 55 84
288 196 101 49 53 87
288 197 100 39 53 81
288 197 101 49 54 86
288 196 102 50 52 88
288 196 103 47 52 87
288 197 102 49 54 88
288 197 103 50 55 88
288 198 100 25 43 74
288 198 101 32 40 73
288 199 101 42 50 79
288 198 102 25 41 76
288 198 103 29 39 79
288 199 102 46 56 83
288 199 103 47 55 86
289 192 104 24 44 90
289 192 105 33 56 99
289 193 104 30 46 83
289 193 105 31 50 90
289 194 104 53 62 88
289 194 105 50 60 89
289 195 104 27 35 76
289 195 105 35 43 79
289 194 106 44 57 90
289 195 106 32 43 81
289 195 107 30 43 82
290 192 105 36 59 101
290 192 106 40 63 105
290 192 107 45 70 112
290 193 106 35 57 97
290 193 107 44 66 106
290 194 106 42 59 96
290 194 107 44 61 97
290 195 107 31 44 84
290 192 108 43 71 114
290 193 108 49 70 110
291 192 108 38 70 113
291 192 109 32 69 112
291 193 109 43 68 109
291 192 110 33 68 111
291 193 110 42 68 109
291 193 111 39 69 110
290 194 108 40 56 96
290 194 109 35 54 94
290 195 108 31 43 83
290 195 109 27 42 83
291 194 109 42 61 101
290 195 110 24 42 82
291 194 110 36 59 99
291 194 111 35 62 101
291 195 110 22 45 85
291 195 111 29 50 88
288 197 104 47 53 85
289 196 104 43 47 84
289 196 105 42 44 81
289 197 104 49 53 85
289 197 105 48 52 84
289 196 106 44 50 85
289 196 107 45 53 86
289 197 106 49 55 86
289 197 107 51 59 89
288 198 104 28 39 75
288 199 104 47 55 85
288 199 105 50 58 86
289 198 104 30 39 75
289 198 105 33 42 75
289 199 105 39 50 78
288 199 106 52 60 86
289 198 106 35 45 78
289 198 107 38 51 81
289 199 106 46 56 83
289 199 107 53 63 87
289 197 108 51 60 90
289 198 108 40 54 87
289 199 108 57 66 93
289 199 109 56 66 93
290 196 108 49 59 88
290 196 109 49 59 89
290 197 108 52 61 91
290 197 109 52 61 93
290 196 110 49 62 91
290 197 110 49 61 90
290 197 111 45 60 88
291 196 110 48 62 89
291 196 111 52 66 93
291 197 111 52 64 90
290 198 108 34 46 86
290 198 109 35 47 87
290 199 109 51 62 93
290 198 110 33 46 84
290 198 111 33 50 82
290 199 110 53 63 93
290 199 111 50 60 84
291 198 111 35 51 81
292 192 111 31 69 112
292 193 111 39 71 111
288 200 102 46 45 75
288 200 103 43 40 76
288 200 104 41 42 79
288 200 105 42 47 80
288 201 104 53 47 78
288 201 105 45 47 79
288 200 106 37 44 76
288 201 106 42 45 78
288 201 107 44 48 79
289 200 106 39 50 79
289 200 107 34 44 76
289 201 107 40 47 78
288 202 104 76 57 79
288 202 105 70 60 82
288 203 104 92 51 79
288 203 105 88 47 74
288 202 106 57 59 80
288 202 107 55 58 82
288 203 106 69 43 66
288 203 107 65 48 69
289 202 107 52 57 84
289 200 108 41 51 81
289 200 109 41 52 81
289 201 108 39 45 76
289 201 109 44 48 77
288 202 108 49 55 76
288 203 108 52 42 60
289 202 108 52 57 80
289 202 109 53 56 75
289 203 108 46 44 59
289 203 109 53 44 55
289 202 110 55 54 73
289 203 110 53 42 51
290 200 109 50 60 87
290 200 110 47 56 84
290 200 111 49 54 78
290 201 110 44 50 77
290 201 111 42 42 68
290 202 110 52 48 69
290 202 111 50 42 62
290 203 111 52 40 46
288 204 105 105 49 74
288 204 106 103 50 69
288 204 107 91 47 64
288 205 106 110 54 68
288 205 107 109 47 62
288 206 107 104 35 49
288 207 107 95 34 38
288 204 108 76 33 54
288 205 108 103 46 61
289 204 108 75 33 51
289 204 109 73 35 48
289 205 109 100 47 61
289 204 110 69 38 42
289 204 111 72 41 40
289 205 110 92 45 50
289 205 111 89 50 50
288 206 108 105 37 53
288 206 109 105 36 52
288 207 108 96 34 37
288 207 109 99 30 35
289 206 109 103 34 46
289 206 110 103 43 50
289 206 111 99 43 44
289 207 110 103 27 33
289 207 111 103 34 39
290 204 111 59 38 37
290 205 111 82 48 45
290 206 111 96 43 43
290 207 111 98 35 37
