ply
format ascii 1.0
comment Version 2, Copyright 2017, 8i Labs, Inc.
comment frame_to_world_scale 0.179523
comment frame_to_world_translation -45.2095 7.18301 -54.3561
comment width 1023
element vertex 243
property float x
property float y
property float z
property uchar red
property uchar green
property uchar blue
end_header
301 224 144 150 66 76
301 224 145 147 72 78
301 225 144 150 72 78
301 225 145 148 78 83
301 224 146 141 68 76
301 225 146 139 69 75
301 225 147 141 75 75
301 226 144 149 71 83
301 226 145 143 72 82
301 227 144 149 66 84
301 227 145 145 69 83
301 226 146 141 69 76
301 226 147 140 73 74
301 227 146 146 76 85
301 227 147 145 82 88
302 224 146 139 61 70
302 224 147 141 66 72
302 225 147 144 80 82
301 226 148 139 76 77
301 227 148 142 81 87
301 227 149 132 68 69
302 224 148 140 68 71
302 225 148 141 74 77
302 225 149 142 81 85
303 224 149 138 71 72
303 225 149 137 77 78
303 224 150 136 74 73
303 225 150 132 71 72
303 225 151 133 73 74
302 226 148 137 72 74
302 226 149 130 67 71
302 227 149 132 70 71
302 226 150 127 63 67
302 227 150 131 66 70
302 227 151 128 70 73
303 226 150 128 65 68
303 226 151 126 64 72
303 227 151 129 71 76
300 228 144 150 73 80
300 229 144 144 72 69
301 228 144 149 68 78
301 228 145 146 67 73
301 229 144 143 69 70
301 229 145 143 64 68
301 228 146 145 72 78
301 228 147 141 70 79
301 229 146 142 62 65
301 229 147 140 65 68
300 230 144 143 83 77
300 231 144 145 96 78
300 231 145 145 95 83
301 230 145 141 72 74
301 231 145 140 82 79
301 230 146 143 70 75
301 230 147 138 69 72
301 231 146 141 83 78
301 231 147 136 77 78
301 228 148 137 68 81
301 228 149 131 61 67
301 229 148 136 65 77
301 229 149 132 66 78
301 230 148 137 78 80
301 230 149 125 70 84
301 231 148 131 80 78
301 231 149 117 77 84
301 231 150 113 84 104
302 228 149 131 64 67
302 228 150 130 62 69
302 228 151 126 72 78
302 229 150 129 67 83
302 229 151 121 79 90
302 230 150 115 69 92
302 230 151 104 71 92
302 231 150 111 78 101
302 231 151 99 73 100
303 226 152 129 72 82
303 227 152 124 73 85
302 228 152 115 77 82
302 229 152 109 81 89
303 228 152 112 73 82
303 228 153 102 76 86
303 229 152 103 82 92
303 229 153 101 87 97
302 230 152 92 76 91
302 231 152 98 84 102
302 231 153 95 86 103
303 230 152 96 83 94
303 230 153 93 85 99
303 231 153 97 89 105
303 230 154 95 86 103
303 231 154 94 83 103
299 233 144 148 104 85
299 234 144 146 103 85
299 234 145 140 110 99
299 235 144 138 95 84
299 235 145 134 105 99
299 235 146 125 113 116
298 237 144 115 102 110
299 236 144 127 100 101
299 236 145 121 102 104
299 237 144 115 102 109
299 237 145 113 108 116
299 236 146 113 104 108
299 236 147 106 104 113
299 237 146 109 107 113
299 237 147 104 106 113
298 238 144 116 109 121
298 238 145 111 108 122
298 239 144 108 104 117
298 239 145 105 101 114
299 238 145 114 112 124
298 238 146 106 103 120
298 239 146 106 103 119
298 239 147 113 113 126
299 238 146 112 111 124
299 238 147 107 109 121
299 239 147 107 108 125
299 236 148 99 99 116
299 237 148 106 108 119
299 237 149 108 110 124
299 237 150 114 118 131
298 239 148 113 116 129
298 239 149 110 114 126
299 238 148 105 107 120
299 238 149 106 109 122
299 239 148 106 109 124
299 239 149 105 109 122
299 238 150 111 116 127
299 238 151 108 114 126
299 239 150 110 116 128
299 239 151 105 112 126
300 232 144 144 97 67
300 232 145 143 99 72
300 233 144 144 99 73
300 233 145 142 106 85
300 232 146 141 96 77
300 233 146 132 99 88
300 233 147 127 100 92
301 232 146 138 92 77
301 232 147 136 91 81
301 233 147 130 98 88
300 234 145 140 111 101
300 235 145 128 107 104
300 234 146 126 106 105
300 234 147 120 103 102
300 235 146 120 107 110
300 235 147 117 112 118
300 233 148 123 98 92
301 232 148 136 100 94
301 232 149 126 101 104
301 233 148 128 102 96
301 233 149 127 108 108
301 232 150 108 88 104
301 232 151 94 79 101
301 233 150 101 91 106
301 233 151 98 92 106
300 234 148 109 96 97
300 234 149 106 99 102
300 235 148 111 107 116
300 235 149 108 109 117
301 234 148 110 94 93
301 234 149 108 98 99
300 235 150 107 109 116
300 235 151 102 105 113
301 234 150 103 102 109
301 234 151 106 107 115
301 235 150 107 109 115
301 235 151 103 106 113
302 232 150 107 84 107
302 232 151 97 80 102
302 233 151 100 90 104
300 236 147 111 105 119
300 236 148 107 103 119
300 236 149 101 104 118
300 237 149 111 114 127
300 236 150 104 108 118
300 236 151 101 107 117
300 237 150 116 120 130
300 237 151 110 115 125
300 238 151 106 112 123
299 239 152 97 106 120
301 234 152 114 111 117
301 235 152 105 106 112
301 235 153 103 104 111
301 235 154 105 107 116
302 232 152 94 84 100
302 232 153 93 82 102
302 233 152 100 93 105
302 233 153 98 87 102
303 232 153 91 81 101
302 233 154 95 83 103
303 232 154 92 80 100
303 232 155 94 79 98
303 233 154 100 85 104
303 233 155 99 84 103
302 234 153 101 94 105
302 235 153 98 96 104
302 234 154 94 83 100
302 235 154 98 97 108
302 235 155 107 102 115
303 234 154 96 82 102
303 234 155 98 83 103
303 235 155 105 95 110
303 234 156 102 89 106
303 235 156 107 97 110
303 235 157 109 98 111
300 236 152 105 109 119
300 237 152 94 100 113
300 237 153 93 98 111
301 236 152 105 108 117
301 236 153 101 105 114
301 237 153 97 101 112
301 236 154 99 102 112
301 236 155 98 101 112
301 237 154 94 99 109
301 237 155 110 111 120
300 238 152 97 104 118
300 238 153 97 103 116
300 239 152 98 106 121
300 239 153 96 104 119
300 239 154 98 103 116
301 238 154 100 105 116
301 238 155 110 111 119
301 239 154 104 106 116
301 239 155 116 114 121
302 236 155 101 104 115
302 237 155 109 109 117
301 239 156 121 112 116
302 236 156 112 110 119
302 237 156 112 109 115
302 237 157 111 102 107
303 236 156 107 102 112
303 236 157 114 103 113
303 237 157 117 103 109
303 237 158 125 105 109
302 238 156 107 100 103
302 238 157 102 84 84
302 239 156 117 107 107
302 239 157 114 91 90
303 238 157 107 83 84
303 238 158 111 87 84
303 239 158 118 91 90
303 239 159 116 89 88
