ply
format ascii 1.0
comment Version 2, Copyright 2017, 8i Labs, Inc.
comment frame_to_world_scale 0.179523
comment frame_to_world_translation -45.2095 7.18301 -54.3561
comment width 1023
element vertex 42
property float x
property float y
property float z
property uchar red
property uchar green
property uchar blue
end_header
288 275 80 71 113 147
288 276 80 78 118 151
288 277 80 77 114 148
288 278 80 74 113 146
288 283 80 81 108 132
288 283 81 77 101 121
288 284 80 77 97 116
288 284 81 82 94 110
288 285 80 70 81 96
288 285 81 68 75 89
289 285 80 71 70 85
289 285 81 65 60 70
288 284 82 73 83 94
288 284 83 97 97 102
288 285 82 81 82 90
288 285 83 107 105 110
289 285 82 91 88 90
289 285 83 106 105 108
289 286 80 72 70 82
289 286 81 72 65 69
289 287 81 81 75 78
289 286 82 96 91 92
289 286 83 119 116 117
289 287 82 93 87 87
289 287 83 121 118 120
290 286 80 70 64 78
290 286 81 76 68 73
290 287 80 67 64 71
290 287 81 83 83 86
290 287 82 106 106 108
290 287 83 122 121 123
288 285 84 123 120 121
288 286 84 130 128 130
288 286 85 132 132 138
288 287 85 131 134 141
289 286 84 131 129 133
289 287 84 128 128 133
289 287 85 132 133 139
288 287 86 106 112 122
289 287 86 129 133 142
290 287 84 130 130 135
290 287 85 130 132 140
