ply
format ascii 1.0
comment Version 2, Copyright 2017, 8i Labs, Inc.
comment frame_to_world_scale 0.179523
comment frame_to_world_translation -45.2095 7.18301 -54.3561
comment width 1023
element vertex 259
property float x
property float y
property float z
property uchar red
property uchar green
property uchar blue
end_header
301 160 215 102 67 59
303 160 213 93 45 37
303 161 213 108 70 59
302 160 214 100 59 51
302 160 215 106 71 64
302 161 214 113 78 66
302 161 215 119 88 78
303 161 214 107 68 56
303 162 212 70 52 53
303 162 213 101 77 69
303 163 212 49 54 71
303 163 213 45 49 71
302 162 214 107 79 66
302 162 215 108 77 62
302 163 214 58 43 60
302 163 215 61 37 50
303 162 214 107 83 73
303 163 214 54 48 66
303 164 212 63 84 103
303 164 213 61 81 105
303 165 212 55 81 105
303 165 213 60 87 110
302 164 214 54 62 91
302 164 215 58 55 85
302 165 214 49 71 99
302 165 215 58 69 95
303 164 214 53 68 96
303 165 214 53 78 104
303 166 212 42 67 96
303 166 213 43 72 99
303 167 212 62 87 111
303 167 213 61 86 111
302 166 214 35 62 91
302 166 215 37 63 89
302 167 214 56 80 106
302 167 215 69 91 113
303 166 214 36 67 94
303 167 214 57 83 110
298 160 219 112 84 71
298 161 219 101 66 55
299 160 218 98 64 54
299 160 219 103 70 60
299 161 218 90 51 41
299 161 219 96 58 49
298 162 219 116 85 72
299 162 218 116 87 75
299 162 219 110 82 67
299 163 219 84 54 33
297 160 221 113 86 71
297 161 221 101 71 59
296 160 223 122 92 79
296 161 223 101 67 56
297 160 222 114 84 70
297 161 222 96 63 53
297 162 221 120 90 80
297 163 221 107 78 64
296 162 223 117 85 78
296 163 223 98 67 59
297 162 222 118 86 79
297 162 223 122 93 89
297 163 222 98 67 53
297 163 223 97 65 55
298 160 220 108 80 60
298 161 220 98 63 45
298 161 221 99 66 54
298 162 220 120 92 77
298 162 221 122 93 81
298 163 220 96 65 50
298 163 221 100 72 58
299 164 219 96 64 49
299 165 219 118 94 80
299 166 219 75 70 69
299 167 219 54 75 95
296 164 223 95 72 55
296 165 223 122 104 89
297 164 222 98 74 54
297 164 223 98 74 57
297 165 222 119 100 86
297 165 223 122 104 89
296 166 223 98 76 67
296 167 223 81 57 54
297 166 222 100 83 75
297 166 223 102 81 70
297 167 222 75 65 71
297 167 223 80 65 64
298 164 220 95 65 47
298 164 221 99 73 55
298 165 220 116 91 76
298 165 221 117 95 80
299 164 220 91 57 40
299 165 220 116 91 76
298 165 222 120 101 88
298 166 220 105 87 76
298 166 221 83 68 63
298 167 221 50 56 76
299 166 220 75 67 67
299 167 220 54 70 89
298 166 222 93 77 70
298 167 222 62 57 71
300 160 216 87 53 35
300 160 217 101 70 54
300 161 217 101 69 51
301 160 216 91 54 40
301 161 216 109 80 67
300 160 218 91 54 43
300 161 218 98 60 49
300 162 217 115 90 74
300 163 217 80 48 39
301 162 216 118 93 79
301 162 217 107 82 67
301 163 216 77 49 46
301 163 217 83 50 41
300 162 218 108 81 66
300 163 218 82 51 33
300 164 217 94 61 59
300 165 217 106 80 83
301 164 216 77 57 74
301 164 217 89 58 62
301 165 216 79 69 87
301 165 217 92 78 83
300 164 218 97 66 55
300 165 218 110 91 87
300 165 219 118 95 85
301 166 216 51 57 80
301 166 217 54 58 73
301 167 216 76 93 112
301 167 217 68 84 103
300 166 218 74 74 78
300 166 219 77 74 74
300 167 218 62 81 98
300 167 219 56 78 96
302 165 216 69 70 93
302 166 216 46 61 85
302 167 216 80 99 118
303 168 212 67 90 113
303 168 213 57 80 105
303 169 213 33 60 87
302 168 214 61 84 106
302 168 215 76 96 116
302 169 214 43 66 91
302 169 215 57 77 99
303 168 214 49 75 100
303 169 214 32 58 86
303 170 213 48 73 98
303 171 213 51 75 103
302 170 214 42 65 92
302 170 215 52 74 99
302 171 214 49 70 99
302 171 215 49 70 99
303 170 214 42 67 93
303 171 214 45 70 99
303 172 213 39 62 92
303 173 213 52 76 103
302 172 214 40 64 93
302 172 215 40 64 94
302 173 214 49 72 102
302 173 215 45 70 101
303 172 214 34 60 91
303 173 214 51 75 104
303 174 213 50 76 104
303 175 212 37 44 80
303 175 213 46 62 91
302 174 214 47 73 104
302 174 215 47 74 105
302 175 214 53 74 102
302 175 215 48 72 102
299 168 219 67 95 118
299 169 219 54 86 111
297 168 222 83 81 91
297 168 223 100 92 92
297 169 223 82 81 90
297 170 223 42 61 86
297 171 223 49 74 100
298 168 221 62 80 103
298 169 221 43 69 97
299 168 220 59 86 110
299 169 220 40 76 104
299 169 221 33 67 98
298 168 222 76 81 96
298 169 222 59 74 95
298 170 221 39 66 97
298 171 221 61 87 112
299 170 220 60 90 116
299 170 221 52 81 109
299 171 220 63 93 120
299 171 221 65 92 117
298 170 222 39 64 95
298 171 222 48 77 103
298 171 223 54 80 104
297 172 223 46 71 98
297 173 223 37 65 94
297 174 223 59 84 109
299 172 220 46 78 107
299 172 221 39 72 101
299 173 220 36 70 99
299 173 221 35 69 98
298 172 222 35 67 96
298 172 223 36 65 94
298 173 222 35 68 97
298 173 223 39 66 97
299 174 220 60 90 116
299 174 221 60 88 114
299 175 220 36 66 99
299 175 221 39 67 98
298 174 222 58 85 110
298 174 223 55 83 109
298 175 222 38 68 98
298 175 223 37 69 98
299 174 222 58 85 111
299 175 222 35 65 95
301 168 216 87 104 122
301 168 217 83 99 117
301 169 216 50 75 97
301 169 217 54 77 100
300 168 218 70 93 113
300 168 219 68 94 116
300 169 218 42 74 100
300 169 219 40 73 101
301 168 218 70 92 112
301 169 218 52 78 102
301 170 216 48 76 102
301 170 217 53 82 107
301 171 216 49 79 108
301 171 217 54 84 112
300 170 218 56 87 114
300 170 219 52 83 112
300 171 218 53 85 114
300 171 219 58 90 118
301 170 218 58 87 113
301 171 218 50 82 112
302 168 216 86 104 122
302 169 216 47 72 95
302 170 216 55 79 103
302 171 216 46 73 102
301 172 216 29 60 95
301 172 217 40 73 103
301 173 216 44 72 102
301 173 217 55 83 109
300 172 218 43 73 104
300 172 219 42 75 106
300 173 219 39 71 101
301 172 218 42 72 103
301 173 218 49 77 105
301 174 216 58 84 111
301 174 217 64 91 115
301 175 216 46 76 105
301 175 217 40 69 101
300 174 218 61 88 115
300 174 219 59 89 116
300 175 219 43 75 106
301 174 218 64 92 117
301 175 218 47 76 105
302 172 216 31 61 94
302 173 216 38 67 98
302 174 216 54 80 108
300 172 220 47 77 107
300 173 220 37 71 101
300 174 220 59 90 116
300 175 220 31 66 100
