ply
format ascii 1.0
comment Version 2, Copyright 2017, 8i Labs, Inc.
comment frame_to_world_scale 0.179523
comment frame_to_world_translation -45.2095 7.18301 -54.3561
comment width 1023
element vertex 417
property float x
property float y
property float z
property uchar red
property uchar green
property uchar blue
end_header
288 224 179 43 53 72
288 225 179 41 44 68
289 224 178 61 48 71
289 224 179 76 59 73
289 225 179 67 52 71
288 226 179 25 45 72
289 226 179 36 48 74
289 227 179 39 54 74
291 224 177 47 64 83
290 224 178 34 47 68
290 225 178 31 47 72
290 225 179 46 44 71
291 224 178 33 58 78
291 225 178 24 52 76
290 226 179 36 50 76
290 227 179 38 43 75
291 226 178 30 59 84
291 226 179 36 56 83
291 227 178 45 69 92
291 227 179 40 59 85
288 225 180 24 44 71
288 226 180 37 51 74
288 227 180 40 51 70
289 227 180 39 51 70
290 228 179 43 43 70
290 229 179 42 45 65
291 228 179 29 51 79
291 229 179 24 50 75
290 230 179 42 54 71
290 231 179 35 51 69
291 230 179 41 61 79
291 231 179 35 58 78
288 228 180 38 48 66
288 229 180 47 54 71
288 229 181 52 57 75
289 228 180 32 47 66
289 229 180 35 47 64
288 230 180 45 54 72
288 230 181 46 57 73
288 231 180 32 51 63
288 231 181 37 54 67
289 230 180 38 50 67
289 231 180 38 53 67
290 229 180 33 43 63
290 230 180 42 50 68
290 231 180 38 51 69
292 224 176 43 61 82
292 224 177 47 62 83
292 225 176 51 71 89
292 225 177 43 64 85
293 224 176 36 57 79
293 225 176 50 70 89
292 226 177 33 60 82
292 227 177 37 61 84
293 226 176 46 65 86
293 226 177 31 57 80
293 227 176 34 55 80
293 227 177 37 59 82
292 226 178 35 65 85
292 227 178 46 70 92
294 225 176 53 71 90
294 226 176 48 66 87
294 227 176 37 56 82
295 227 176 55 69 90
292 228 177 44 66 88
293 228 176 43 57 83
293 228 177 46 64 88
293 229 176 54 68 93
293 229 177 44 64 90
292 228 178 42 65 90
292 228 179 32 61 89
292 229 178 30 58 86
292 229 179 31 57 84
293 228 178 47 67 92
293 229 178 31 56 85
293 230 177 26 54 83
293 231 177 42 63 88
292 230 178 39 62 87
292 230 179 47 68 90
292 231 178 40 65 89
292 231 179 41 60 85
293 230 178 34 60 86
293 231 178 47 71 92
294 228 176 40 60 84
294 229 176 49 66 90
295 228 176 36 59 83
295 229 176 41 61 87
294 230 176 40 60 88
294 230 177 31 54 84
294 231 176 29 47 81
294 231 177 36 53 83
295 230 176 48 65 92
295 231 176 38 57 88
288 224 188 26 41 73
288 224 189 22 39 75
288 225 188 41 50 78
288 225 189 30 45 79
289 224 188 15 34 72
289 224 189 26 46 79
289 225 188 40 53 82
289 225 189 28 48 82
288 226 188 44 53 80
288 226 189 39 52 84
288 227 188 44 60 87
289 226 188 40 53 83
289 226 189 30 51 84
289 227 189 35 54 87
290 224 190 40 59 86
290 225 190 35 58 88
291 224 190 46 64 89
291 225 190 42 63 91
291 225 191 39 62 91
290 226 190 29 55 88
290 227 190 31 56 89
291 226 190 38 62 92
291 226 191 39 62 92
291 227 190 34 61 92
291 227 191 37 63 94
288 228 188 47 64 89
288 228 189 49 65 91
288 229 188 37 62 88
288 229 189 40 63 90
289 228 189 40 61 90
289 229 189 39 61 90
288 230 188 48 61 84
288 230 189 44 60 85
288 231 188 63 64 81
288 231 189 68 66 84
289 230 189 39 57 85
289 231 189 56 60 82
290 228 190 34 60 91
290 229 190 33 59 90
291 228 190 33 60 92
291 228 191 34 61 93
291 229 190 30 60 91
291 229 191 33 61 92
290 230 189 35 56 85
290 231 189 64 63 83
290 230 190 29 58 88
290 231 190 42 54 80
291 230 190 23 57 87
291 230 191 24 57 89
291 231 190 32 55 82
292 224 191 40 60 87
292 225 191 37 62 90
293 224 191 41 60 88
293 225 191 36 59 89
292 226 191 30 59 90
292 227 191 35 61 94
293 226 191 28 58 90
293 227 191 23 56 90
292 228 191 36 62 94
292 229 191 35 62 92
293 228 191 31 59 93
292 230 191 32 60 90
292 231 191 28 56 83
291 232 179 28 55 79
291 233 179 41 67 90
291 234 179 56 69 90
291 235 179 57 52 73
288 232 181 48 61 73
288 233 181 52 58 70
289 232 180 38 56 70
289 233 180 45 55 72
288 234 181 47 43 56
288 235 181 65 49 53
289 234 180 42 42 62
289 235 180 44 39 55
289 235 181 52 37 49
288 235 182 75 55 57
290 232 180 40 55 72
290 233 180 47 56 79
290 234 180 49 46 69
290 235 180 58 47 63
291 234 180 51 54 75
291 236 179 77 62 72
291 237 179 88 72 74
291 238 179 83 54 53
288 236 181 79 58 59
288 237 181 80 56 57
289 236 181 67 46 52
289 237 181 71 48 52
288 236 182 77 53 53
288 237 182 78 50 51
288 238 181 78 51 53
288 239 181 79 55 57
289 238 181 72 46 47
289 239 181 76 55 55
288 238 182 75 48 48
288 239 182 76 52 56
290 236 180 69 51 63
290 237 180 62 41 48
290 238 180 63 41 44
290 239 180 69 44 44
290 239 181 71 53 52
291 238 180 75 45 42
291 239 180 77 45 43
293 232 177 59 75 97
293 233 177 41 61 87
292 232 178 29 60 88
292 232 179 26 56 83
292 233 178 33 64 90
292 233 179 41 68 92
293 232 178 49 70 94
293 233 178 26 57 86
293 234 177 21 42 76
293 235 177 48 61 83
292 234 178 51 73 93
292 235 178 53 62 82
292 235 179 46 44 67
293 234 178 34 62 88
293 235 178 57 68 87
294 232 176 52 68 90
294 233 176 50 67 89
295 232 176 32 54 83
295 233 176 47 66 88
294 234 176 36 55 82
294 234 177 24 44 76
294 235 177 46 54 79
295 234 176 43 65 89
295 235 176 24 48 76
295 235 177 41 51 76
293 236 177 72 71 86
292 236 178 59 43 65
292 236 179 62 47 64
292 237 178 84 62 72
292 237 179 89 70 77
293 236 178 62 44 66
293 237 178 74 40 58
292 238 179 91 62 67
292 239 179 85 52 53
293 238 178 95 66 72
293 239 178 106 84 81
293 239 179 100 75 75
294 236 177 80 70 85
294 237 177 83 56 75
295 236 177 74 70 85
295 237 177 98 78 90
294 237 178 78 42 64
295 238 177 88 51 66
294 238 178 87 51 64
294 239 178 108 84 85
295 239 178 92 61 66
288 232 188 68 57 72
288 233 188 77 56 70
289 232 189 76 64 80
289 233 189 75 53 70
288 234 188 76 47 62
288 235 188 73 44 65
288 235 189 75 45 65
289 234 189 79 50 65
289 235 189 78 46 67
290 232 189 70 60 80
290 233 189 76 55 75
291 233 189 74 55 76
290 232 190 60 53 77
291 232 190 53 50 76
291 233 190 68 49 74
290 234 189 75 43 65
290 235 189 78 43 66
291 234 189 75 43 67
291 235 189 75 36 63
291 235 190 77 39 65
288 236 188 70 46 67
288 236 189 67 43 65
288 237 189 67 50 65
289 236 189 69 44 64
288 237 190 77 61 72
289 236 190 68 45 65
289 237 190 71 52 68
288 238 190 77 56 66
288 239 190 83 45 61
289 238 190 82 62 73
289 239 190 84 50 65
289 239 191 84 47 63
290 236 189 77 47 68
290 236 190 74 46 67
290 237 190 69 43 62
290 237 191 66 40 57
291 236 190 76 41 64
291 236 191 73 41 60
291 237 191 68 39 56
290 238 190 79 61 73
290 238 191 77 56 68
290 239 191 84 54 67
291 238 191 71 45 57
291 239 191 81 52 63
292 232 190 54 46 73
292 232 191 44 52 79
292 233 190 60 40 69
292 233 191 56 43 71
293 232 191 49 57 81
293 233 191 54 44 73
292 234 190 73 43 70
292 234 191 65 36 67
292 235 190 79 42 67
292 235 191 76 41 67
293 234 191 63 40 70
293 235 191 69 36 67
292 236 191 78 46 67
292 237 191 74 45 61
299 227 176 85 60 86
299 228 176 83 57 86
299 229 176 78 59 85
299 230 176 74 62 84
300 226 176 81 62 80
300 227 176 84 55 82
301 226 176 77 56 75
301 227 176 83 61 83
302 225 176 78 54 74
303 224 176 89 44 71
303 225 176 84 53 74
302 226 176 74 56 74
302 227 176 80 64 82
303 226 176 80 58 76
303 227 176 79 61 79
303 227 177 82 65 83
300 228 176 85 57 85
300 229 176 81 58 84
301 228 176 86 60 85
301 229 176 80 57 81
300 230 176 77 64 84
300 231 176 79 65 85
301 230 176 79 64 84
301 231 176 80 64 85
302 228 176 83 63 84
302 229 176 80 60 83
302 229 177 78 59 81
303 228 176 84 67 85
303 228 177 82 66 84
303 229 177 79 62 81
302 230 176 79 63 81
302 230 177 79 63 82
302 231 176 76 57 80
302 231 177 79 60 82
303 230 177 75 60 79
303 231 177 78 62 81
296 232 176 31 57 82
296 233 176 31 60 83
297 233 176 39 61 82
296 234 176 47 73 94
296 235 176 45 68 90
296 235 177 35 55 79
297 234 176 36 66 86
297 235 176 45 73 93
297 235 177 48 75 93
298 233 176 59 67 87
299 232 176 71 65 82
299 233 176 68 65 84
298 234 176 44 62 83
298 235 176 30 65 86
298 235 177 41 68 87
299 234 176 62 65 86
299 234 177 67 68 87
299 235 177 45 61 84
296 236 177 58 63 83
296 237 177 92 81 94
297 236 177 46 64 85
297 237 177 74 65 85
296 238 177 89 62 75
296 239 177 81 44 58
297 238 177 88 71 85
296 239 178 82 48 55
297 238 178 90 71 84
297 239 178 92 72 79
298 236 177 54 73 91
298 237 177 59 56 81
299 236 177 53 69 89
299 237 177 57 61 85
298 237 178 62 52 78
299 236 178 51 64 86
299 237 178 60 57 82
298 238 178 83 65 82
298 239 178 98 79 86
299 238 178 71 53 76
299 239 178 90 69 80
300 232 176 75 61 82
300 233 176 71 62 80
301 232 176 76 59 81
301 233 176 74 65 81
301 233 177 75 62 81
300 234 176 76 69 84
300 234 177 75 69 86
300 235 177 61 60 82
301 234 176 76 69 83
301 234 177 77 70 84
301 235 177 69 63 83
302 232 177 78 60 85
302 233 177 76 63 83
303 232 177 79 61 85
303 233 177 75 60 84
303 232 178 79 62 84
302 234 177 74 65 82
302 235 177 76 66 84
303 234 177 76 65 83
302 235 178 75 66 84
303 234 178 78 66 85
303 235 178 79 66 83
300 236 178 52 58 82
300 237 178 64 60 85
301 236 178 61 58 81
301 237 178 69 58 83
300 238 178 74 56 81
300 239 178 77 49 70
301 238 178 79 56 81
301 239 178 86 58 78
301 239 179 90 58 75
302 236 178 70 61 81
302 237 178 75 58 80
303 236 178 78 63 80
303 237 178 77 54 74
302 238 178 82 54 79
302 238 179 88 53 77
302 239 179 94 58 76
303 238 178 81 48 69
303 238 179 88 51 71
303 239 179 96 56 70
