ply
format ascii 1.0
comment Version 2, Copyright 2017, 8i Labs, Inc.
comment frame_to_world_scale 0.179523
comment frame_to_world_translation -45.2095 7.18301 -54.3561
comment width 1023
element vertex 317
property float x
property float y
property float z
property uchar red
property uchar green
property uchar blue
end_header
288 288 160 141 148 161
288 288 161 137 144 157
288 289 161 116 131 149
288 288 162 134 140 152
288 289 162 114 126 143
289 288 162 142 145 154
289 288 163 146 147 155
289 289 162 127 134 146
289 289 163 126 132 144
288 290 162 104 122 142
288 290 163 111 125 143
288 291 162 102 121 141
288 291 163 111 125 142
289 290 163 117 127 142
290 288 163 147 147 154
289 289 164 132 137 146
289 290 164 128 134 145
289 291 164 131 137 149
289 291 165 138 142 152
290 288 164 143 144 151
290 289 164 139 142 151
290 289 165 141 143 151
291 288 165 128 131 140
291 289 165 135 138 146
291 289 166 135 138 146
290 290 164 133 138 148
290 290 165 141 143 151
290 291 165 141 143 151
291 290 165 144 145 152
291 290 166 143 145 152
291 291 166 144 145 152
291 291 167 143 145 152
288 292 163 106 122 141
288 293 163 110 126 144
288 294 163 114 130 148
288 292 164 113 125 141
288 293 164 104 120 138
289 292 164 122 131 144
289 292 165 131 137 149
289 293 164 107 120 136
289 293 165 113 124 139
288 294 164 110 127 146
288 294 165 103 121 141
288 295 164 108 127 147
288 295 165 105 124 145
289 294 165 103 119 138
289 295 165 103 122 142
289 294 166 104 119 136
289 295 166 101 119 138
290 292 165 138 142 151
290 293 165 135 140 150
290 292 166 142 144 152
290 293 166 130 136 147
291 292 166 143 144 151
291 292 167 142 144 152
291 293 166 141 143 151
291 293 167 139 142 151
290 294 166 117 127 141
290 294 167 132 138 149
290 295 166 108 121 138
290 295 167 114 125 140
291 294 167 137 142 152
291 295 167 126 134 146
292 288 165 125 130 139
292 288 166 129 134 143
292 289 166 130 134 143
292 289 167 133 137 146
293 288 167 139 141 150
293 289 167 135 138 147
292 290 167 137 141 150
292 291 167 142 145 153
292 292 167 142 144 152
292 293 167 137 140 148
291 293 168 135 138 147
291 294 168 134 139 149
291 295 168 133 139 151
293 288 168 140 142 149
293 289 168 135 138 147
292 290 168 135 139 149
292 291 168 140 143 152
293 290 168 134 138 147
293 290 169 136 140 148
293 291 168 139 143 152
293 291 169 137 140 149
294 288 168 140 141 149
294 288 169 134 137 145
294 289 168 139 142 150
294 289 169 140 142 150
295 288 169 137 139 147
295 289 169 139 142 150
295 288 170 137 138 145
295 289 170 139 141 149
294 290 169 135 139 148
294 291 169 134 137 147
294 291 170 127 131 141
295 290 170 135 138 146
295 291 170 126 130 139
295 291 171 129 133 141
292 292 168 139 142 151
292 293 168 130 134 144
293 292 168 139 142 152
293 292 169 138 141 150
293 293 168 133 138 147
293 293 169 133 137 146
292 294 168 131 136 145
292 294 169 131 134 144
292 295 168 138 143 153
292 295 169 137 141 150
293 294 169 131 134 143
293 295 169 135 138 147
293 294 170 133 136 145
293 295 170 135 138 147
294 292 169 134 137 146
294 292 170 131 134 143
294 293 170 137 139 148
295 292 170 128 131 139
295 292 171 125 129 137
295 293 171 136 138 146
294 294 170 138 140 148
294 294 171 141 142 150
294 295 170 135 138 146
294 295 171 138 140 148
295 294 171 141 143 151
295 293 172 138 140 148
295 294 172 141 143 151
295 295 172 139 142 151
295 295 173 137 141 150
288 296 164 110 128 148
288 296 165 107 126 146
288 297 165 98 118 140
288 297 166 98 118 139
289 296 166 107 125 145
289 297 166 109 126 145
289 297 167 110 126 146
288 298 166 98 115 135
288 299 166 94 111 129
288 299 167 107 121 138
289 298 166 98 117 138
289 298 167 105 122 141
289 299 167 109 124 141
290 296 167 107 122 139
290 297 167 108 124 143
288 300 166 85 103 122
288 300 167 96 112 131
288 301 166 70 94 115
288 301 167 77 100 121
289 300 167 104 119 137
288 302 167 81 105 127
288 303 167 71 96 118
289 298 168 108 125 144
289 299 168 112 127 145
290 296 168 108 121 138
290 297 168 106 123 141
291 296 168 120 129 144
291 296 169 130 137 150
291 297 168 112 125 141
291 297 169 115 126 142
290 298 168 108 125 144
290 298 169 108 124 143
290 299 168 109 125 143
290 299 169 108 123 141
291 298 169 109 123 140
291 299 169 106 122 140
291 298 170 107 121 138
291 299 170 104 119 136
289 300 168 113 127 143
289 301 168 88 108 128
289 301 169 96 112 132
288 302 168 72 96 118
288 303 168 70 93 116
289 302 168 75 97 118
289 302 169 87 105 124
289 303 168 73 95 116
289 303 169 78 99 119
290 300 169 113 127 143
290 301 169 106 121 138
290 301 170 109 123 140
291 300 170 106 121 139
291 301 170 110 124 142
291 301 171 105 121 140
290 302 169 94 110 129
290 302 170 98 113 131
290 303 170 92 109 127
291 302 170 101 117 136
291 302 171 106 122 140
291 303 170 97 113 131
291 303 171 101 117 136
292 296 169 136 141 151
292 297 169 130 137 149
292 296 170 138 142 151
292 297 170 134 140 151
293 296 170 138 141 150
293 296 171 138 140 149
293 297 170 139 142 152
293 297 171 138 142 151
292 298 170 118 128 143
292 298 171 120 129 142
292 299 170 107 120 137
292 299 171 114 124 139
293 298 171 129 134 145
293 299 171 119 127 139
294 296 171 139 142 150
294 297 171 140 143 152
293 298 172 135 139 148
293 299 172 128 132 142
294 296 172 138 142 151
294 297 172 138 141 151
295 296 172 135 139 149
295 296 173 132 136 146
295 297 173 127 132 142
295 297 174 129 133 142
294 298 172 142 144 152
294 298 173 142 145 153
294 299 173 145 146 152
295 298 173 138 141 149
295 298 174 142 143 151
295 299 174 152 151 156
292 300 170 100 117 136
292 300 171 108 121 137
292 301 171 104 119 138
292 302 171 106 121 140
292 301 172 115 126 142
293 300 172 127 133 144
293 300 173 140 142 150
293 301 172 127 135 148
293 301 173 138 142 153
292 302 172 102 119 138
292 303 172 108 124 144
292 303 173 108 125 144
293 302 172 113 126 142
293 302 173 121 131 145
293 303 173 108 123 141
293 302 174 132 139 151
293 303 174 113 126 142
294 300 173 146 146 152
294 301 173 144 147 155
294 300 174 153 152 157
294 301 174 149 150 157
295 300 174 153 152 158
295 301 174 150 150 157
295 301 175 149 150 158
294 302 174 144 147 157
294 302 175 150 151 159
294 303 174 123 133 147
294 303 175 140 144 154
295 302 174 150 151 158
295 302 175 148 149 157
295 303 175 152 153 161
296 288 170 137 140 147
296 288 171 134 137 146
296 289 170 138 140 148
296 289 171 131 134 143
297 288 171 134 138 147
297 289 171 128 131 140
296 290 171 136 138 145
296 291 171 135 137 144
297 288 172 134 138 146
297 289 172 126 130 138
297 289 173 127 130 138
296 290 172 135 136 143
296 291 172 138 139 146
297 290 172 131 132 140
297 290 173 133 133 140
297 291 172 140 141 147
297 291 173 141 142 149
298 288 172 136 139 148
298 288 173 137 140 149
298 289 173 137 140 148
299 288 173 137 141 149
298 289 174 146 147 154
299 288 174 138 141 149
299 288 175 144 147 155
299 289 174 148 149 156
299 289 175 155 155 162
298 290 173 137 138 146
298 290 174 147 147 153
298 291 174 147 147 153
298 291 175 151 151 157
299 290 175 152 152 159
299 291 175 151 152 159
296 292 171 127 130 138
296 292 172 136 137 144
296 293 172 136 138 146
296 293 173 142 143 150
297 292 173 143 144 151
297 293 173 143 144 151
297 292 174 144 145 151
297 293 174 142 143 150
296 294 172 141 143 151
296 294 173 142 144 152
296 295 173 140 143 152
297 294 173 140 142 150
296 295 174 142 145 154
297 294 174 139 141 149
297 295 174 142 144 153
297 295 175 139 141 150
298 292 174 147 148 154
298 292 175 152 153 160
298 293 174 143 144 151
298 293 175 149 151 159
299 292 175 153 153 160
298 294 175 138 141 150
298 295 175 133 137 147
300 288 175 149 150 158
296 296 173 135 138 148
296 296 174 141 144 152
296 297 174 137 140 148
296 297 175 147 148 156
297 296 175 152 152 160
297 297 175 155 155 163
296 298 174 144 145 152
296 298 175 150 150 156
296 299 174 154 153 159
296 299 175 155 155 161
297 298 175 152 152 159
296 300 175 152 152 159
296 301 175 147 149 158
