ply
format ascii 1.0
comment Version 2, Copyright 2017, 8i Labs, Inc.
comment frame_to_world_scale 0.179523
comment frame_to_world_translation -45.2095 7.18301 -54.3561
comment width 1023
element vertex 411
property float x
property float y
property float z
property uchar red
property uchar green
property uchar blue
end_header
291 272 187 64 97 125
291 273 187 54 91 121
290 273 189 47 86 115
291 272 188 58 92 119
291 272 189 54 90 116
291 273 188 53 89 118
291 273 189 49 87 115
290 273 190 53 90 117
290 273 191 59 92 117
291 272 190 55 91 117
291 272 191 57 88 114
291 273 190 51 88 116
291 273 191 61 91 115
290 274 189 50 89 118
290 275 189 55 92 121
291 274 188 58 95 123
291 275 188 63 98 125
290 274 190 50 89 118
290 274 191 58 89 113
290 275 190 52 90 117
290 275 191 55 87 111
290 276 189 60 94 121
290 277 189 57 88 113
291 276 188 66 97 123
291 277 188 59 88 115
290 276 190 56 88 113
290 276 191 60 84 105
290 277 190 53 80 102
290 277 191 62 76 93
290 278 189 54 84 108
290 279 188 57 92 119
290 279 189 55 88 114
291 278 188 58 91 118
291 279 188 59 94 122
290 278 190 54 76 95
290 278 191 61 64 80
290 279 190 57 75 96
290 279 191 62 62 78
292 272 187 65 99 127
292 273 187 60 97 127
293 272 186 67 101 130
293 273 186 59 98 128
293 273 187 65 103 133
292 274 187 65 102 131
292 275 187 68 104 133
293 274 186 60 102 133
293 274 187 64 105 136
293 275 187 61 103 135
294 272 186 59 93 122
294 273 186 63 99 129
295 272 186 54 93 124
295 273 186 65 101 131
294 274 186 59 100 132
294 275 186 58 102 135
294 275 187 59 101 134
295 274 186 66 104 135
295 275 186 65 107 139
295 275 187 63 106 139
292 276 187 64 99 129
292 277 187 58 97 127
293 276 187 59 97 130
293 277 187 62 101 131
292 278 187 58 97 126
293 278 187 66 103 133
293 279 187 65 104 134
294 276 187 61 103 136
294 277 187 68 107 137
295 276 186 75 115 146
295 276 187 69 111 143
295 277 187 74 113 144
294 278 187 70 107 136
294 279 187 68 106 137
295 278 187 74 112 142
295 279 187 71 110 142
292 277 188 55 89 118
292 278 188 53 91 121
292 279 188 61 96 126
293 279 188 62 101 132
289 283 191 61 85 107
290 280 189 56 90 116
290 281 189 54 80 106
291 280 188 58 95 125
291 280 189 57 94 123
291 281 188 58 96 127
291 281 189 54 89 118
290 280 190 60 72 95
290 280 191 62 66 80
290 281 190 63 65 90
290 281 191 65 69 86
291 282 189 51 81 111
291 283 189 52 84 114
290 282 190 62 63 86
290 282 191 68 78 96
290 283 190 59 72 93
290 283 191 63 82 103
291 283 190 48 70 99
289 284 191 62 87 110
289 285 191 63 89 112
289 286 191 67 92 114
289 287 191 70 94 115
291 284 189 55 89 116
291 285 189 62 92 117
290 284 190 60 82 103
290 284 191 60 83 104
290 285 190 58 85 108
290 285 191 61 89 111
291 284 190 53 82 106
291 285 190 59 88 112
290 286 190 62 91 115
290 286 191 67 94 117
290 287 190 67 98 123
290 287 191 70 96 119
291 286 190 62 90 114
291 287 190 69 96 120
294 280 187 73 114 145
294 281 187 75 116 148
295 280 187 77 116 148
295 281 187 79 119 151
295 282 187 76 116 147
295 283 187 69 105 137
292 280 188 62 100 130
292 281 188 60 100 131
293 280 188 63 103 135
293 281 188 66 108 139
292 282 188 62 104 134
292 282 189 58 99 130
292 283 189 60 100 131
293 282 188 71 110 140
293 283 188 68 106 137
294 280 188 69 110 142
294 281 188 72 114 145
294 282 188 78 114 143
294 283 188 73 105 135
295 282 188 78 115 145
295 283 188 70 105 135
292 284 189 63 99 128
292 285 189 70 102 129
293 284 188 66 100 132
293 284 189 64 103 135
293 285 188 72 107 137
293 285 189 73 108 137
292 286 189 77 106 131
292 287 189 85 106 127
293 286 189 81 111 137
293 287 189 86 104 122
292 286 190 69 97 121
292 287 190 79 102 124
294 284 188 72 104 133
294 285 188 75 108 137
295 284 188 69 105 135
295 285 188 79 113 140
294 286 188 79 110 134
294 286 189 81 107 128
294 287 188 81 97 113
294 287 189 82 92 106
295 286 188 82 107 128
295 287 188 85 85 97
302 272 183 72 105 138
302 273 183 70 104 136
303 272 182 71 113 148
303 272 183 74 110 145
303 273 182 77 120 154
303 273 183 69 108 143
302 274 183 85 119 147
302 275 183 79 119 151
303 274 182 75 120 155
303 275 182 71 118 154
303 276 176 80 120 153
303 276 177 73 119 155
303 277 176 79 123 157
303 277 177 77 122 158
303 277 178 84 128 163
303 277 179 87 131 166
302 278 176 85 127 160
302 279 176 86 122 151
302 279 177 84 124 155
303 278 176 85 128 161
303 278 177 82 127 162
303 279 177 83 126 159
303 278 178 76 120 156
303 278 179 80 122 157
303 279 178 75 119 154
303 279 179 68 111 147
303 276 181 79 126 161
303 277 180 85 130 165
303 277 181 81 128 164
302 276 183 71 116 152
302 277 183 73 122 158
303 276 182 75 121 157
303 276 183 72 118 154
303 277 182 79 126 162
303 278 180 86 130 164
303 278 181 84 130 165
303 279 180 76 116 151
303 279 181 79 124 160
302 278 182 80 128 165
302 278 183 77 125 162
302 279 182 80 127 164
302 279 183 78 125 162
303 278 182 81 128 165
303 279 182 81 128 165
296 272 185 60 99 130
297 272 185 71 109 139
297 273 185 68 109 140
296 272 186 58 98 129
296 273 186 65 106 137
297 273 186 65 107 139
297 274 185 72 114 146
296 274 186 68 109 140
296 275 186 73 113 145
297 274 186 72 113 144
297 275 186 78 118 150
298 272 185 77 113 142
298 273 185 75 113 143
299 272 184 79 114 143
299 272 185 79 114 142
299 273 185 78 112 140
298 274 185 74 115 147
298 275 185 75 116 149
299 274 185 72 108 139
299 275 185 73 114 146
298 275 186 77 118 151
296 276 186 78 118 149
296 277 186 79 118 148
296 277 187 76 115 146
297 276 186 80 119 150
297 277 186 80 118 148
296 278 187 72 110 141
296 279 187 72 108 140
297 278 186 71 103 137
297 278 187 68 103 136
297 279 186 69 104 137
297 279 187 70 107 138
298 276 185 77 119 151
298 277 185 78 117 148
299 276 185 75 119 152
299 277 185 72 111 145
298 276 186 78 119 152
298 277 186 80 118 149
299 278 185 74 108 140
299 279 185 80 116 145
298 278 186 71 107 138
298 279 186 69 106 137
300 272 184 76 114 144
300 273 184 73 105 133
301 272 184 78 115 145
301 273 184 68 98 129
300 274 184 71 105 135
300 274 185 70 104 136
300 275 184 69 112 146
301 274 184 79 110 139
301 275 184 74 116 148
302 275 184 76 115 147
300 276 184 68 115 151
300 276 185 71 117 152
300 277 184 68 112 148
300 277 185 69 109 145
301 276 184 66 113 150
301 277 184 68 116 152
300 278 184 72 115 148
300 278 185 72 110 144
300 279 184 76 119 152
300 279 185 77 117 149
301 278 184 75 120 154
301 279 184 75 121 156
302 276 184 70 114 150
302 277 184 65 113 151
301 282 176 101 40 50
301 283 176 104 64 64
301 283 177 109 63 64
302 280 176 87 99 117
302 280 177 85 116 142
302 281 176 95 57 75
302 281 177 97 85 103
302 280 178 84 121 149
302 280 179 83 120 150
302 281 178 95 107 127
302 281 179 90 118 142
303 280 178 83 122 154
303 280 179 76 115 148
302 282 176 104 38 54
302 282 177 106 47 63
302 283 177 110 51 55
302 282 178 106 77 89
302 282 179 95 94 109
302 283 178 112 50 63
302 283 179 102 64 78
301 280 183 76 121 156
301 281 183 78 124 160
301 283 180 100 86 102
301 283 181 91 112 133
301 282 182 85 131 166
301 282 183 81 129 165
301 283 182 90 130 160
301 283 183 85 131 165
302 280 180 74 114 148
302 280 181 72 114 151
302 281 180 77 117 147
302 281 181 73 117 152
303 280 180 74 112 147
303 280 181 75 114 150
302 280 182 77 121 158
302 280 183 77 124 160
302 281 182 79 122 158
302 281 183 80 124 160
302 282 180 87 114 137
302 282 181 82 124 155
302 283 180 95 103 122
302 283 181 86 119 144
302 282 182 85 131 165
301 284 176 112 98 103
301 284 177 111 72 79
301 285 176 136 134 139
301 285 177 124 107 111
301 284 178 112 39 54
301 284 179 114 36 58
301 285 178 120 76 79
301 285 179 118 52 60
300 286 176 162 163 170
300 286 177 170 169 174
300 287 176 160 160 167
300 287 177 168 168 175
301 286 176 154 155 161
301 286 177 157 154 157
300 287 178 162 163 170
300 287 179 154 157 165
301 286 178 160 151 151
301 286 179 142 121 118
301 287 178 168 166 170
301 287 179 159 157 160
301 284 180 110 60 78
301 284 181 100 82 97
301 285 180 113 34 50
301 285 181 104 45 64
300 284 183 81 121 151
300 285 183 77 97 119
301 284 182 88 109 132
301 284 183 85 124 155
301 285 182 96 74 93
301 285 183 79 105 128
301 286 180 126 93 92
301 286 181 113 73 78
301 287 180 158 154 158
301 287 181 154 148 151
300 286 182 103 62 79
300 286 183 98 60 81
300 287 182 118 92 95
300 287 183 111 60 70
301 286 182 109 70 79
301 287 182 144 134 136
296 280 187 81 119 150
296 281 187 81 121 152
297 280 186 76 114 144
297 280 187 78 116 147
297 281 186 78 118 151
297 281 187 81 120 151
296 282 187 74 115 147
296 283 187 64 102 136
297 282 186 74 114 147
297 282 187 78 118 150
297 283 186 70 113 146
297 283 187 66 105 140
299 280 185 79 117 148
299 281 185 74 116 149
298 280 186 77 115 145
298 281 186 76 117 150
298 283 185 76 123 159
299 282 185 72 119 155
299 283 185 76 124 161
298 282 186 72 117 152
298 283 186 75 120 155
296 284 187 70 109 141
296 285 187 81 115 142
297 284 186 73 118 152
297 284 187 70 112 145
297 285 187 76 112 139
296 286 187 87 106 125
296 287 187 91 71 84
297 286 186 86 89 101
297 286 187 91 98 112
297 287 186 95 50 62
297 287 187 95 64 76
299 284 185 80 127 162
299 285 185 86 120 146
298 284 186 72 121 155
298 285 186 84 118 145
298 286 185 95 80 93
298 287 185 108 41 49
299 286 184 109 52 72
299 286 185 96 75 91
299 287 184 120 25 51
299 287 185 116 35 54
298 286 186 91 86 98
298 287 186 100 42 48
296 286 188 88 95 111
296 287 188 90 77 88
300 280 184 75 118 152
300 280 185 80 120 152
300 281 184 75 119 153
300 281 185 74 118 151
301 280 184 72 118 154
301 281 184 74 118 153
300 282 184 77 125 160
300 283 184 78 128 165
300 283 185 75 126 164
301 282 184 78 126 162
300 284 184 81 129 163
300 284 185 78 128 165
300 285 184 78 111 136
300 286 184 87 61 82
300 287 184 112 24 51
