ply
format ascii 1.0
comment Version 2, Copyright 2017, 8i Labs, Inc.
comment frame_to_world_scale 0.179523
comment frame_to_world_translation -45.2095 7.18301 -54.3561
comment width 1023
element vertex 267
property float x
property float y
property float z
property uchar red
property uchar green
property uchar blue
end_header
295 160 172 105 108 115
295 160 173 105 107 114
295 161 172 84 90 102
295 161 173 87 88 100
295 160 174 96 94 102
295 160 175 83 69 88
295 161 174 75 74 90
295 161 175 67 57 82
295 162 172 44 60 85
295 162 173 49 59 85
295 163 172 33 55 85
295 163 173 44 54 89
295 162 174 50 57 85
295 162 175 51 55 83
295 163 174 40 54 85
295 163 175 44 56 81
295 164 173 39 55 86
295 165 172 38 56 85
295 165 173 43 58 86
294 165 175 57 49 80
295 164 174 41 53 85
295 164 175 50 54 82
295 165 174 49 56 86
295 165 175 50 50 82
295 166 172 49 62 90
295 166 173 43 57 88
295 167 172 42 57 88
295 167 173 43 55 87
294 166 174 62 64 86
294 166 175 67 58 80
294 167 174 62 58 81
294 167 175 78 58 73
295 166 174 49 58 85
295 166 175 55 51 80
295 167 174 53 59 85
295 171 171 45 59 85
293 169 175 89 43 49
293 170 175 88 44 55
293 171 174 87 51 69
293 171 175 87 46 59
294 168 173 55 58 86
294 169 173 49 55 84
295 168 172 35 59 87
295 168 173 43 56 88
295 169 172 42 64 89
294 168 174 68 53 76
294 168 175 83 50 64
294 169 174 74 49 69
294 169 175 83 40 53
294 170 173 57 52 78
294 171 172 56 61 84
294 171 173 69 55 77
295 170 172 40 60 86
295 171 172 45 58 84
294 170 174 76 41 62
294 170 175 84 38 50
294 171 174 81 46 69
295 172 171 45 61 89
295 173 171 43 64 92
295 174 170 42 77 100
295 174 171 53 78 101
295 175 170 60 87 108
295 175 171 63 84 104
293 172 174 82 52 70
293 172 175 83 51 64
293 173 174 85 66 78
293 173 175 84 63 74
293 174 174 88 77 87
293 174 175 80 72 81
293 175 174 83 76 84
293 175 175 82 77 86
294 172 172 57 56 80
294 172 173 69 55 76
294 173 172 53 62 85
294 173 173 70 63 79
295 172 172 50 58 86
294 174 172 64 75 94
294 174 173 80 79 90
294 175 172 70 81 96
294 175 173 80 81 91
295 175 172 72 83 100
294 174 174 87 83 91
294 175 174 86 81 89
299 160 167 128 61 21
299 161 167 115 71 57
299 162 167 103 86 88
299 163 167 101 100 105
300 160 166 131 59 15
300 160 167 131 61 13
300 161 166 126 62 30
300 161 167 124 68 39
301 160 166 135 60 9
301 161 166 130 60 13
300 162 166 119 65 43
300 162 167 111 76 69
300 163 167 103 90 91
301 162 166 121 63 30
301 162 167 111 75 64
301 163 167 103 81 75
303 161 165 133 62 6
302 160 166 135 61 1
302 161 166 133 58 1
303 160 166 133 62 3
303 161 166 132 60 8
303 162 165 132 59 1
302 162 166 127 61 14
302 163 166 115 65 37
302 163 167 107 76 61
303 162 166 130 59 4
303 163 166 122 62 24
300 164 167 97 101 107
300 165 167 99 107 119
301 164 167 95 95 98
301 165 167 98 106 116
300 167 167 50 73 92
301 166 167 95 105 118
301 167 167 71 86 101
302 164 167 100 88 85
302 165 167 95 101 110
303 164 166 115 70 47
303 164 167 106 82 73
303 165 167 96 90 90
302 166 167 99 108 119
302 167 167 88 98 110
303 166 167 94 101 110
303 167 167 100 107 117
296 161 171 97 106 117
297 160 171 96 100 107
297 161 170 99 107 117
297 161 171 99 108 119
296 162 171 74 90 108
296 163 170 59 82 102
296 163 171 38 63 88
297 162 170 95 107 121
297 163 170 82 98 114
298 161 169 101 92 95
299 160 168 126 67 35
299 160 169 118 75 55
299 161 168 110 79 74
299 161 169 107 79 74
298 160 170 105 86 81
298 161 170 98 100 107
298 162 169 99 105 114
298 163 169 97 107 119
299 162 168 99 92 97
299 163 168 100 103 111
298 162 170 99 107 118
296 160 172 103 107 115
296 161 172 99 105 114
296 162 172 53 71 92
296 163 172 36 57 87
297 164 169 54 75 96
297 165 169 37 62 88
296 164 170 41 67 92
296 164 171 32 59 88
296 165 171 39 55 88
297 164 170 58 79 100
297 165 170 36 57 87
297 166 169 38 56 87
297 167 169 44 57 88
296 166 170 41 52 85
296 166 171 45 55 87
296 167 170 46 58 88
296 167 171 44 60 87
297 166 170 43 57 89
297 167 170 45 59 89
298 164 169 81 96 112
298 165 169 51 74 95
299 164 168 97 105 116
299 165 168 82 96 111
298 166 169 38 60 88
298 167 169 42 61 90
299 166 168 52 75 94
299 167 168 34 65 88
296 164 172 38 56 86
296 165 172 38 56 86
300 165 168 93 104 117
300 166 168 76 91 107
300 167 168 42 70 90
301 166 168 86 99 113
301 167 168 53 73 90
299 172 167 42 64 88
299 173 167 41 65 90
299 174 167 42 73 98
299 175 167 52 84 109
300 168 167 34 58 81
301 168 167 49 67 84
301 169 167 37 52 77
300 170 167 48 65 88
300 171 167 45 65 86
301 170 167 46 60 83
301 171 167 49 63 85
302 168 167 65 77 91
302 169 167 43 54 76
303 168 167 85 91 101
303 169 167 57 64 79
302 170 167 46 50 76
302 171 167 53 58 81
303 170 167 46 42 68
303 171 167 53 48 72
300 172 167 44 66 87
300 173 167 38 62 86
301 172 167 45 61 84
301 173 167 44 62 85
300 174 167 38 68 91
300 175 167 52 82 106
301 174 167 42 67 89
301 175 167 49 79 102
302 172 167 51 58 82
302 173 167 45 57 83
303 172 167 58 57 77
303 173 167 55 53 81
302 174 167 43 66 89
302 175 167 47 77 99
303 174 167 41 57 84
303 175 167 50 75 96
297 168 169 41 58 87
296 168 171 40 62 86
296 169 170 36 61 85
296 169 171 37 61 84
297 168 170 42 62 88
297 169 170 40 61 85
297 170 169 42 64 86
297 171 169 39 62 88
296 170 170 41 65 88
296 170 171 42 64 86
296 171 170 39 63 88
296 171 171 38 62 86
297 170 170 42 64 87
297 171 170 41 65 89
298 168 169 42 63 89
298 169 169 40 62 85
299 168 168 39 65 89
299 169 168 44 64 89
299 169 169 40 63 86
298 170 168 39 62 85
298 170 169 43 65 86
298 171 168 41 61 88
298 171 169 40 62 87
299 170 168 43 63 88
299 171 168 45 65 89
296 173 169 24 62 92
297 172 169 35 60 92
297 173 168 33 64 95
297 173 169 27 62 94
296 172 170 32 60 90
296 173 170 28 64 92
296 174 169 42 76 102
296 175 169 58 88 112
297 174 168 45 77 104
297 174 169 44 76 103
297 175 168 59 90 113
297 175 169 57 88 113
296 174 170 43 77 100
296 175 170 61 89 112
298 172 168 41 60 93
298 173 168 37 61 93
299 172 168 41 62 88
299 173 168 41 61 89
298 174 168 42 73 100
298 175 168 52 86 110
300 168 168 36 62 85
300 169 168 40 55 84
301 168 168 39 61 81
301 169 168 38 51 78
300 170 168 46 64 88
300 171 168 46 66 88
