ply
format ascii 1.0
comment Version 2, Copyright 2017, 8i Labs, Inc.
comment frame_to_world_scale 0.179523
comment frame_to_world_translation -45.2095 7.18301 -54.3561
comment width 1023
element vertex 293
property float x
property float y
property float z
property uchar red
property uchar green
property uchar blue
end_header
291 262 244 84 101 116
291 262 245 85 80 94
291 263 244 97 76 89
291 263 245 101 62 78
293 256 240 77 124 162
293 256 241 74 119 158
293 257 240 79 127 165
293 257 241 78 126 164
292 256 242 70 109 144
292 256 243 67 103 138
292 257 242 76 123 159
292 257 243 73 119 154
293 256 242 72 112 149
293 257 242 75 121 158
293 258 240 79 127 165
293 258 241 80 127 164
293 259 240 79 128 165
293 259 241 80 127 164
292 258 242 79 125 162
292 258 243 77 124 160
292 259 242 77 123 160
292 259 243 76 122 158
293 258 242 79 126 163
292 256 244 71 107 140
292 256 245 80 117 148
292 257 244 69 112 147
292 257 245 69 110 145
292 256 246 74 110 143
292 256 247 75 113 146
292 257 246 77 117 150
292 257 247 76 115 149
292 258 244 73 120 156
292 258 245 71 116 152
292 259 244 74 121 157
292 259 245 74 120 156
292 258 246 71 114 150
292 258 247 77 120 154
292 259 246 74 118 154
292 259 247 78 121 154
292 260 241 71 116 152
292 261 241 65 104 140
293 260 240 76 121 158
293 260 241 76 123 159
293 261 240 65 99 139
292 260 242 68 109 146
292 260 243 68 107 144
292 261 242 74 110 142
292 261 243 73 110 140
292 262 240 66 107 141
292 262 241 69 108 138
292 263 240 74 115 146
292 263 241 75 107 132
293 262 240 68 110 145
292 262 242 84 113 138
292 262 243 84 110 131
292 263 242 79 101 119
292 263 243 89 93 106
292 260 244 75 118 152
292 260 245 76 119 153
292 261 244 80 116 143
292 261 245 78 113 139
292 260 246 80 121 154
292 260 247 81 119 149
292 261 246 84 113 137
292 261 247 86 105 125
292 262 244 83 109 129
292 262 245 78 89 105
292 263 244 98 71 84
292 262 246 83 75 89
292 262 247 92 68 83
292 263 246 99 42 63
292 263 247 99 43 63
291 258 251 89 67 83
291 259 251 94 58 70
291 256 252 84 105 126
291 256 253 87 87 107
291 257 252 91 72 88
291 257 253 100 59 74
290 256 255 88 69 79
291 256 254 92 77 90
291 256 255 93 69 79
291 257 254 112 77 84
291 257 255 115 84 88
291 258 252 98 50 66
291 258 253 110 58 74
291 259 252 105 59 73
291 259 253 115 77 84
290 259 255 137 126 126
291 258 254 125 90 96
291 258 255 125 94 99
291 259 254 132 108 111
291 259 255 133 112 115
291 260 251 103 66 76
291 263 249 101 62 73
291 263 250 127 107 112
291 260 252 110 76 85
291 260 253 124 101 104
291 261 252 126 109 113
291 261 253 146 139 141
290 260 255 150 146 148
290 261 255 159 159 164
291 260 254 142 131 133
291 260 255 151 146 148
291 261 254 155 154 158
291 261 255 159 158 162
291 262 252 160 157 160
291 262 253 163 161 165
291 263 252 160 158 161
291 263 253 159 158 164
290 262 255 154 154 159
290 263 255 150 148 153
291 262 254 160 160 166
291 262 255 159 158 163
291 263 254 155 155 163
291 263 255 153 152 157
292 256 248 77 116 149
292 256 249 74 112 143
292 257 248 75 116 148
292 257 249 76 114 143
292 256 250 74 107 136
292 256 251 78 107 132
292 257 250 83 109 132
292 257 251 86 96 114
292 258 248 79 119 151
292 258 249 82 117 144
292 259 248 82 120 150
292 259 249 84 112 136
292 258 250 88 108 128
292 258 251 91 91 104
292 259 250 90 98 111
292 259 251 94 82 90
292 260 248 85 115 141
292 260 249 87 104 123
292 261 248 83 92 108
292 261 249 89 74 90
292 260 250 86 79 88
292 260 251 94 62 69
292 261 250 95 61 75
292 261 251 107 74 84
292 262 248 96 62 77
292 262 249 98 61 71
292 263 248 98 45 61
292 263 249 102 63 72
292 262 250 100 65 73
292 262 251 125 112 114
292 263 250 116 89 94
292 263 251 145 137 138
292 261 252 126 110 116
292 262 252 146 141 142
292 263 252 156 152 154
291 265 243 107 34 49
291 266 243 107 33 48
291 267 242 111 78 76
291 267 243 117 86 85
291 264 244 100 35 55
291 264 245 106 38 61
291 265 244 103 38 56
291 265 245 100 47 64
291 264 246 105 37 56
291 264 247 105 62 68
291 265 246 99 59 64
291 265 247 114 87 86
291 266 244 99 50 60
291 266 245 98 68 76
291 267 244 123 110 109
291 267 245 130 125 126
291 266 246 110 97 100
291 266 247 130 117 116
291 267 246 132 129 132
291 267 247 140 137 140
291 269 241 150 154 164
291 268 242 152 149 151
291 268 243 155 153 155
291 269 242 144 150 160
291 269 243 140 146 155
291 270 241 127 134 146
291 271 241 131 134 144
291 270 242 118 128 142
291 270 243 126 135 149
291 271 242 125 132 144
291 271 243 136 142 153
291 268 244 158 156 159
291 268 245 157 155 160
291 269 244 154 155 162
291 269 245 159 159 165
291 268 246 154 154 160
291 268 247 152 153 161
291 269 246 158 159 166
291 269 247 150 153 161
291 270 244 149 151 160
291 270 245 155 156 164
291 271 244 153 154 161
291 271 245 155 156 164
291 270 246 155 156 164
291 270 247 149 151 160
291 271 246 156 157 166
291 271 247 154 155 163
292 264 240 84 109 131
292 264 241 86 95 109
292 265 240 84 69 82
292 265 241 98 46 58
292 264 242 90 72 83
292 264 243 94 47 65
292 265 242 105 35 46
292 265 243 104 26 41
292 266 240 106 41 58
292 266 241 113 23 47
292 267 240 104 41 51
292 267 241 104 35 46
292 266 242 115 28 47
292 267 242 107 48 52
292 264 244 98 46 64
292 264 246 106 36 55
292 264 247 100 36 52
292 268 240 128 114 114
292 268 241 137 129 129
292 269 240 167 164 165
292 269 241 164 165 171
292 268 242 142 133 132
292 270 240 154 154 158
292 270 241 140 144 153
292 271 240 146 147 154
292 271 241 128 133 142
291 264 248 115 86 91
291 264 249 125 102 108
291 265 248 136 123 123
291 265 249 141 127 130
291 264 250 134 120 124
291 264 251 142 136 139
291 265 250 137 130 134
291 265 251 141 139 144
291 266 248 143 133 133
291 266 249 142 135 136
291 267 248 149 147 150
291 267 249 147 144 146
291 266 250 140 137 142
291 266 251 147 147 152
291 267 250 149 147 152
291 267 251 153 153 159
291 264 252 153 151 154
291 264 253 154 153 159
291 265 252 153 152 156
291 265 253 160 158 163
290 264 255 150 148 153
291 264 254 153 152 158
291 264 255 152 149 154
291 265 254 162 159 163
291 265 255 163 159 162
291 266 252 154 154 161
291 266 253 158 157 163
291 267 252 151 152 159
291 267 253 150 150 156
291 266 254 159 157 161
291 266 255 158 155 159
291 267 254 151 150 154
291 267 255 154 152 156
291 268 248 148 150 157
291 268 249 145 146 153
291 269 248 141 145 155
291 269 249 138 141 150
291 268 250 147 148 154
291 268 251 150 150 156
291 269 250 142 144 153
291 269 251 148 148 154
291 270 248 143 146 155
291 270 249 140 143 152
291 271 248 151 152 160
291 271 249 148 149 157
291 270 250 144 145 154
291 270 251 146 146 153
291 271 250 142 144 153
291 271 251 143 145 152
291 268 252 144 145 152
291 268 253 148 147 153
291 269 252 150 149 155
291 269 253 155 154 159
290 269 255 156 154 159
291 268 254 152 151 157
291 268 255 157 154 157
291 269 254 159 158 164
291 269 255 160 158 163
291 270 252 152 151 157
291 270 253 157 156 161
291 271 252 153 152 158
291 271 253 154 154 160
290 270 255 149 149 155
290 271 255 148 148 155
291 270 254 151 152 160
291 270 255 151 152 159
291 271 254 145 147 155
291 271 255 140 143 151
292 264 248 98 47 59
292 271 252 148 149 155
