ply
format ascii 1.0
comment Version 2, Copyright 2017, 8i Labs, Inc.
comment frame_to_world_scale 0.179523
comment frame_to_world_translation -45.2095 7.18301 -54.3561
comment width 1023
element vertex 113
property float x
property float y
property float z
property uchar red
property uchar green
property uchar blue
end_header
288 304 228 106 120 138
288 304 229 96 115 134
288 305 228 108 122 138
288 305 229 110 125 143
288 304 230 83 111 135
288 304 231 102 124 148
288 305 230 107 126 146
288 305 231 106 126 146
289 304 231 110 130 152
289 305 231 113 131 152
288 306 228 124 132 144
288 306 229 124 133 146
288 307 229 130 133 140
288 306 230 118 134 152
288 306 231 119 136 155
288 307 230 119 132 148
288 307 231 126 142 162
288 308 229 130 130 134
288 309 229 138 129 124
288 308 230 110 121 134
288 308 231 113 132 152
288 309 230 117 120 125
288 309 231 86 109 131
288 310 230 154 144 137
288 310 231 112 122 135
288 311 230 170 155 144
288 311 231 146 144 148
288 305 232 105 124 145
289 304 232 118 136 157
289 304 233 125 141 159
289 305 232 117 134 154
289 305 233 118 135 155
288 305 235 145 152 165
289 304 234 138 149 165
289 304 235 152 157 170
289 305 234 121 136 156
289 305 235 143 151 165
288 306 232 118 135 156
288 307 232 131 147 166
288 307 233 130 145 164
289 306 232 113 131 152
289 306 233 119 136 157
289 307 233 125 141 161
288 306 235 134 145 161
288 307 235 127 142 162
289 306 234 117 135 155
289 306 235 121 136 156
289 307 234 120 137 158
289 307 235 119 137 157
288 304 236 145 149 160
288 304 237 141 147 158
288 305 236 143 147 159
288 305 237 127 134 146
288 304 238 138 146 161
288 306 236 146 152 165
288 306 237 144 149 161
288 307 236 141 151 167
288 307 237 148 155 168
288 308 232 129 145 165
288 308 233 129 145 166
288 309 232 103 126 150
288 309 233 110 132 155
289 308 233 128 144 164
288 308 234 121 140 162
288 308 235 119 138 161
288 309 234 107 130 154
288 309 235 115 137 161
289 308 234 125 142 163
289 308 235 119 138 159
289 309 234 112 134 157
288 310 232 93 116 139
288 310 233 98 122 148
288 311 232 113 127 145
288 311 233 99 122 146
288 310 234 100 124 149
288 310 235 106 130 155
288 311 234 108 129 152
288 311 235 111 133 156
288 308 236 126 142 162
288 308 237 134 146 164
288 309 236 115 137 160
288 309 237 109 131 153
288 310 236 111 134 159
288 310 237 103 128 152
288 311 236 109 131 156
288 311 237 103 127 152
288 312 230 175 157 141
288 312 231 160 153 151
288 313 230 177 156 138
288 313 231 172 159 150
288 314 230 175 151 128
288 314 231 174 150 127
288 315 231 170 144 119
288 312 232 129 137 149
288 312 233 100 121 144
288 313 232 146 146 151
288 313 233 110 127 146
288 312 234 101 124 149
288 312 235 115 135 157
288 313 234 91 118 144
288 313 235 119 137 158
288 314 232 166 153 146
288 314 233 126 131 141
288 315 232 171 152 137
288 315 233 154 146 142
288 314 234 93 115 138
288 314 235 101 125 150
288 315 234 105 118 133
288 312 236 113 133 155
288 312 237 97 121 146
288 313 236 126 141 161
288 314 236 124 141 162
288 318 232 153 146 145
