ply
format ascii 1.0
comment Version 2, Copyright 2017, 8i Labs, Inc.
comment frame_to_world_scale 0.179523
comment frame_to_world_translation -45.2095 7.18301 -54.3561
comment width 1023
element vertex 246
property float x
property float y
property float z
property uchar red
property uchar green
property uchar blue
end_header
302 176 213 59 75 97
302 177 213 61 71 94
303 176 212 57 57 83
303 176 213 58 67 93
303 177 212 57 49 77
303 177 213 59 60 84
302 176 214 61 80 104
302 176 215 53 78 105
302 177 214 66 80 102
302 177 215 61 82 107
302 178 213 45 44 73
302 179 213 53 38 67
303 178 212 60 46 71
303 178 213 55 46 72
303 179 212 64 53 73
303 179 213 58 43 68
302 178 214 47 53 79
302 178 215 52 60 86
302 179 214 52 38 67
302 179 215 53 38 68
301 180 215 54 38 65
301 182 215 88 55 72
301 183 215 95 55 72
302 180 213 52 42 67
302 181 213 51 43 68
303 180 212 57 51 71
303 180 213 52 42 68
303 181 212 50 47 68
303 181 213 49 44 67
302 180 214 54 42 67
302 180 215 54 38 66
302 181 214 54 40 67
302 181 215 57 38 64
302 182 213 57 42 65
302 183 213 72 47 66
303 182 212 54 41 66
303 182 213 55 44 66
303 183 212 61 42 64
303 183 213 68 48 66
302 182 214 62 40 63
302 182 215 71 44 66
302 183 214 80 44 63
302 183 215 88 50 67
299 176 220 46 71 101
299 176 221 50 73 102
299 177 220 59 86 110
299 177 221 66 88 111
298 176 223 55 78 103
298 177 223 87 102 118
299 176 222 47 67 97
299 177 222 75 93 114
299 177 223 83 97 115
299 178 220 44 67 94
299 178 221 49 70 96
299 179 220 86 82 102
299 179 221 81 81 103
298 178 223 88 84 100
298 179 223 92 80 98
299 178 222 65 77 102
299 178 223 70 79 101
299 179 222 90 90 109
299 179 223 94 89 109
299 181 219 103 51 71
299 182 219 104 41 61
299 183 219 106 43 63
299 180 220 108 84 99
299 180 221 104 83 99
299 181 220 111 60 77
299 181 221 110 57 76
298 180 223 104 88 106
298 181 223 106 67 90
299 180 222 105 89 106
299 181 222 109 61 80
299 182 220 108 41 63
299 182 221 112 46 67
299 183 220 107 42 65
299 183 221 115 60 77
298 182 223 109 40 71
298 183 223 112 47 73
299 182 222 110 44 65
299 183 222 111 51 72
301 176 216 55 81 108
301 176 217 51 77 105
301 177 216 53 81 107
301 177 217 59 86 109
300 176 218 55 81 109
300 176 219 47 77 106
300 177 218 52 82 107
300 177 219 54 84 110
301 176 218 51 77 107
301 177 218 57 84 109
301 178 216 45 56 85
301 178 217 44 55 85
301 179 216 57 41 71
301 179 217 57 40 72
300 178 218 47 61 89
300 178 219 45 66 94
300 179 218 68 52 80
300 179 219 76 67 91
301 178 218 48 75 100
302 176 216 53 79 107
300 176 220 41 71 102
300 177 220 55 85 110
300 178 220 45 67 94
300 179 220 84 79 99
300 181 217 75 44 64
301 180 216 59 43 67
301 180 217 65 41 67
301 181 216 64 44 66
301 181 217 69 45 66
300 180 218 78 46 71
300 180 219 96 67 87
300 181 218 86 46 65
300 181 219 98 47 67
300 182 217 91 53 70
300 183 217 108 57 77
301 182 216 84 53 72
301 182 217 92 59 75
301 183 216 103 55 74
301 183 217 106 54 75
300 182 218 96 50 66
300 182 219 102 46 63
300 183 218 104 50 68
300 183 219 105 46 63
300 183 220 107 44 64
301 184 215 105 38 65
301 185 215 107 35 63
301 186 215 108 40 58
302 184 213 94 57 74
302 185 213 104 54 69
303 184 212 76 42 62
303 184 213 88 54 71
303 185 212 95 43 61
303 185 213 101 52 67
302 184 214 97 48 69
302 184 215 99 41 65
302 185 214 106 49 67
302 185 215 106 39 62
302 186 213 112 46 66
302 187 213 124 37 65
303 186 212 114 42 61
303 186 213 113 49 69
303 187 212 130 44 68
303 187 213 124 40 66
302 186 214 113 46 65
302 186 215 113 44 64
302 187 214 121 32 60
302 187 215 121 40 65
302 188 213 133 37 66
302 189 213 140 42 70
303 188 212 139 46 69
303 188 213 136 39 67
303 189 212 143 45 70
303 189 213 141 44 70
302 188 214 133 39 68
302 188 215 131 43 70
302 189 214 137 39 70
302 189 215 137 43 73
302 190 213 140 41 72
302 191 213 139 39 74
303 190 212 140 35 68
303 190 213 140 37 70
303 191 212 139 36 71
303 191 213 139 37 74
302 190 214 141 45 75
302 190 215 140 46 76
302 191 214 141 43 78
302 191 215 142 49 81
299 184 220 110 42 68
299 184 221 112 49 72
299 185 220 111 38 69
299 185 221 111 41 68
298 184 223 114 49 74
298 185 223 115 50 71
299 184 222 115 56 74
299 185 222 113 52 69
299 186 220 112 42 69
299 186 221 113 44 68
299 187 221 116 37 67
298 186 223 113 46 70
298 187 223 111 49 68
299 186 222 114 51 69
299 186 223 116 55 73
299 187 222 114 42 66
299 187 223 115 47 69
299 188 221 122 51 74
299 189 221 127 53 76
298 188 223 116 48 70
298 189 223 123 47 74
299 188 222 123 48 73
299 188 223 118 38 67
299 189 222 128 49 75
299 189 223 124 42 72
299 190 221 135 59 83
299 191 221 140 52 81
298 190 223 123 46 72
298 191 223 123 40 67
299 190 222 130 47 74
299 190 223 126 46 71
299 191 222 134 47 74
299 191 223 127 41 68
300 184 217 111 48 73
301 184 216 111 48 71
301 184 217 115 49 74
301 185 216 113 41 64
301 185 217 115 41 65
300 184 218 110 48 70
300 184 219 109 46 67
300 185 218 114 48 70
300 185 219 110 41 67
301 186 216 115 39 64
301 186 217 117 41 67
301 187 216 118 39 64
301 187 217 118 44 69
300 186 218 119 52 75
300 186 219 114 48 73
300 187 218 116 44 70
300 187 219 118 57 78
301 186 218 120 44 75
301 187 218 116 40 67
300 185 220 111 41 71
300 186 220 112 39 69
300 187 220 115 45 70
301 188 216 128 45 73
301 188 217 123 42 70
301 189 216 138 50 79
301 189 217 132 46 75
300 188 218 117 45 70
300 188 219 120 58 77
300 189 218 121 37 66
300 189 219 121 50 72
301 188 218 119 41 68
301 189 218 126 40 70
301 190 216 141 53 79
301 190 217 140 56 81
301 191 216 139 44 74
301 191 217 143 56 81
300 190 219 129 46 75
300 191 219 139 44 77
301 190 218 135 49 77
301 191 218 146 59 84
302 190 216 140 48 76
300 188 220 120 55 77
300 189 220 128 64 83
300 190 220 130 51 77
300 191 220 138 45 77
