ply
format ascii 1.0
comment Version 2, Copyright 2017, 8i Labs, Inc.
comment frame_to_world_scale 0.179523
comment frame_to_world_translation -45.2095 7.18301 -54.3561
comment width 1023
element vertex 357
property float x
property float y
property float z
property uchar red
property uchar green
property uchar blue
end_header
291 368 130 133 133 138
291 368 131 134 134 139
291 369 131 126 126 131
291 368 132 137 137 143
291 368 133 132 133 139
291 369 132 128 129 134
291 369 133 134 134 140
291 368 134 128 128 134
291 368 135 127 127 131
291 369 134 129 129 135
291 369 135 127 127 132
291 370 132 127 128 132
291 370 133 131 132 137
291 370 134 132 132 137
291 370 135 130 130 136
291 371 134 134 134 139
291 371 135 133 133 138
292 368 128 140 138 143
292 368 129 138 137 141
292 369 128 141 139 144
292 369 129 141 139 144
293 369 128 139 139 144
292 368 130 134 134 138
292 369 130 137 136 140
292 369 131 130 130 134
292 370 129 138 137 143
293 370 128 124 127 135
293 370 129 132 133 139
293 371 128 108 114 125
293 371 129 114 118 127
292 370 130 141 140 145
292 370 131 136 135 140
292 371 130 131 132 139
292 371 131 136 136 141
293 371 130 118 122 130
294 371 128 106 114 126
292 370 132 133 133 137
292 370 133 134 133 138
292 371 132 135 134 139
292 371 133 135 133 138
292 371 134 136 135 140
292 371 135 134 134 138
293 372 129 102 111 124
293 373 129 104 115 130
292 372 131 125 127 135
293 372 130 112 118 128
293 372 131 121 125 133
293 373 130 106 116 129
293 373 131 118 123 133
293 374 130 103 116 132
293 374 131 112 121 133
293 375 131 102 113 127
294 372 128 105 114 128
294 373 128 108 117 131
294 373 129 105 115 129
295 373 128 112 122 137
294 374 128 107 119 134
294 374 129 106 118 134
294 375 129 108 120 135
295 374 128 108 120 136
295 375 128 104 118 135
295 375 129 106 119 135
294 374 130 101 116 134
294 375 130 105 118 134
294 375 131 97 110 125
292 372 132 130 130 136
292 372 133 135 133 137
292 373 133 136 135 139
293 373 132 129 131 137
293 373 133 134 134 139
292 372 134 137 135 139
292 372 135 137 136 140
292 373 134 138 136 139
292 373 135 138 137 141
292 374 133 138 136 140
293 374 132 125 128 137
293 374 133 135 135 140
293 375 132 112 118 129
293 375 133 130 131 137
292 374 134 136 135 139
292 374 135 136 135 139
292 375 135 125 125 130
293 375 134 132 131 136
291 368 136 133 132 138
291 368 137 132 132 138
291 369 136 129 128 133
291 369 137 133 132 137
291 368 138 129 129 135
291 369 138 129 129 135
291 370 136 130 129 133
291 370 137 131 131 135
291 371 136 133 132 137
291 371 137 132 131 136
291 370 138 130 130 135
292 368 138 130 131 136
292 368 139 131 131 137
292 369 139 122 123 129
292 371 136 133 132 137
292 371 137 134 133 138
292 370 138 125 126 132
292 370 139 119 120 126
292 371 138 133 132 137
292 371 139 128 129 135
292 368 140 133 133 138
292 369 140 128 129 134
293 368 141 131 131 137
293 369 140 130 130 136
293 369 141 131 131 136
293 368 142 122 124 130
293 369 142 121 122 128
292 370 140 121 122 128
292 371 140 130 130 136
293 370 140 126 126 132
293 370 141 130 130 135
293 371 140 130 130 136
293 371 141 126 127 133
293 371 142 120 122 128
294 368 143 124 126 132
294 369 142 121 122 128
294 369 143 124 126 132
294 370 142 128 129 134
294 370 143 130 131 137
294 371 142 122 124 131
294 371 143 129 130 137
295 370 143 133 134 140
292 372 136 133 133 137
292 372 137 133 132 137
292 373 136 135 134 139
292 373 137 127 127 132
292 372 138 132 133 139
292 372 139 132 133 140
292 373 138 124 126 132
292 373 139 118 122 130
292 374 136 136 135 139
292 374 137 128 128 133
292 375 136 131 130 135
292 375 137 134 133 137
292 374 138 118 121 127
292 374 139 114 119 127
292 375 138 129 129 135
292 375 139 120 123 131
293 375 138 132 132 138
293 375 139 125 127 135
292 372 140 128 130 136
292 373 140 119 123 132
293 372 140 125 126 133
293 372 141 119 121 128
293 373 140 121 125 133
293 373 141 114 118 126
293 372 142 114 116 123
293 373 142 109 113 120
292 374 140 114 119 129
293 374 140 115 121 130
293 374 141 117 122 131
293 375 140 117 121 131
293 375 141 118 122 131
293 374 142 113 118 126
294 372 142 116 119 126
294 372 143 125 127 134
294 373 142 112 116 124
294 373 143 122 125 132
294 374 142 117 121 129
294 374 143 125 128 135
294 375 142 122 126 135
294 375 143 126 129 138
295 375 143 119 122 130
295 376 128 101 117 135
295 376 129 103 118 135
295 377 129 103 118 136
294 376 130 110 123 139
294 376 131 103 115 130
294 377 131 110 122 137
295 376 130 108 121 137
295 377 130 108 122 137
295 377 131 113 125 140
295 378 130 110 122 138
295 378 131 112 123 138
295 379 131 102 113 127
293 376 132 106 114 125
293 376 133 121 124 132
293 377 133 110 117 127
293 376 134 129 129 134
293 376 135 123 122 127
293 377 134 117 120 128
293 377 135 127 126 131
293 378 134 110 117 127
293 378 135 121 124 131
294 376 132 103 113 125
294 377 132 107 117 131
294 377 133 108 115 127
294 378 132 110 121 136
294 378 133 109 119 133
294 379 133 113 125 139
295 378 132 116 127 141
295 379 132 109 120 134
295 379 133 114 126 141
294 378 134 107 117 129
294 378 135 115 121 133
294 379 134 110 121 135
294 379 135 111 121 135
295 380 133 113 124 138
295 381 133 116 126 140
294 380 135 109 121 135
295 380 134 114 125 139
295 380 135 110 122 136
295 381 134 116 125 138
295 381 135 115 125 137
295 382 135 116 125 137
292 376 136 123 124 129
292 376 137 128 128 133
293 376 136 123 123 128
293 376 137 126 126 132
293 377 136 125 124 128
293 377 137 124 125 131
293 376 138 130 130 137
293 376 139 129 130 136
293 377 138 127 127 133
293 377 139 128 128 134
293 378 136 127 128 133
293 378 137 131 131 137
293 379 137 131 132 138
293 378 138 131 131 136
293 378 139 133 132 136
293 379 138 135 135 140
294 379 136 122 127 138
294 379 137 128 131 140
294 378 139 137 134 138
294 379 138 134 135 141
294 379 139 138 137 142
293 376 140 126 128 135
293 376 141 123 126 134
293 377 140 128 128 133
294 376 141 126 128 135
294 377 140 127 127 132
294 377 141 127 126 131
294 376 142 126 128 136
294 376 143 123 126 133
294 377 142 128 128 133
294 377 143 123 125 132
295 376 143 114 118 126
295 377 143 122 124 131
294 378 140 136 134 137
294 378 141 134 132 135
294 379 140 140 139 143
294 379 141 141 138 141
295 378 141 140 136 138
295 379 141 140 139 142
294 378 143 131 130 134
295 378 142 136 134 137
295 378 143 129 130 137
295 379 142 136 136 140
295 379 143 135 135 140
294 380 136 109 120 135
294 380 137 116 124 137
294 381 136 103 115 130
294 381 137 107 118 132
295 381 136 111 121 136
295 381 137 102 115 130
294 380 138 127 131 140
294 380 139 131 133 140
294 381 138 113 121 134
294 381 139 120 126 136
295 382 136 115 124 136
295 382 137 106 117 131
295 383 136 118 125 136
295 383 137 115 123 135
295 382 138 99 112 127
295 382 139 105 114 128
295 383 138 111 121 133
295 383 139 102 113 128
294 380 140 131 132 138
294 381 140 116 122 133
295 380 140 121 125 133
295 380 141 129 131 138
295 381 140 116 121 131
295 381 141 113 118 128
294 380 143 120 126 136
295 380 142 127 129 137
295 380 143 129 131 139
295 381 142 112 118 128
295 381 143 118 124 134
295 382 140 103 112 124
295 382 141 99 108 121
295 383 140 95 107 121
295 383 141 96 107 121
295 382 142 94 105 118
295 383 142 91 103 117
296 375 128 102 117 135
296 376 128 96 114 133
296 377 128 103 119 136
296 377 129 101 117 134
297 377 128 113 125 141
296 378 129 105 118 133
297 378 128 128 135 148
297 378 129 118 126 139
297 379 128 131 136 147
297 379 129 122 129 141
296 378 130 101 114 129
296 378 131 104 115 130
296 379 130 99 111 124
296 379 131 97 109 122
297 379 130 110 119 132
298 379 128 131 134 144
297 380 129 115 123 136
296 380 131 104 114 128
296 381 131 111 121 136
297 380 130 109 118 132
297 380 131 109 119 132
297 381 130 104 115 129
297 381 131 109 120 134
297 382 130 95 107 122
297 382 131 98 109 124
298 380 128 114 121 133
298 380 129 115 122 134
298 381 128 101 110 124
298 381 129 102 111 125
299 381 128 96 108 123
298 382 129 97 106 120
298 383 129 100 110 123
299 382 128 99 109 123
299 382 129 100 109 123
299 383 128 103 111 124
299 383 129 101 110 124
298 382 130 94 105 119
298 382 131 98 108 121
298 383 130 98 108 122
298 383 131 102 111 124
299 383 130 95 106 121
296 380 132 106 116 130
296 380 133 109 120 135
296 381 132 110 121 136
296 381 133 110 122 137
296 381 134 115 124 138
296 382 132 106 118 134
296 382 133 107 120 135
297 382 132 105 116 131
297 382 133 106 117 132
297 383 132 110 117 130
297 383 133 111 118 130
296 382 134 108 118 131
296 382 135 113 121 132
296 383 134 106 115 128
296 383 135 106 114 126
297 383 134 109 117 129
298 383 132 108 115 127
300 383 128 99 108 122
300 383 129 95 105 119
296 382 136 115 122 132
296 383 136 111 119 129
296 383 137 118 124 135
296 383 138 119 127 137
296 381 142 102 111 123
296 381 143 110 118 131
296 382 142 82 96 112
296 382 143 94 106 121
296 383 142 94 106 120
296 383 143 80 96 113
