ply
format ascii 1.0
comment Version 2, Copyright 2017, 8i Labs, Inc.
comment frame_to_world_scale 0.179523
comment frame_to_world_translation -45.2095 7.18301 -54.3561
comment width 1023
element vertex 311
property float x
property float y
property float z
property uchar red
property uchar green
property uchar blue
end_header
292 336 144 92 115 138
292 336 145 99 121 143
292 337 144 93 117 141
292 337 145 94 118 142
292 336 146 112 129 149
292 337 146 100 122 145
293 336 146 112 130 149
293 336 147 113 130 149
293 337 146 106 126 147
293 337 147 111 129 150
292 338 144 87 116 142
292 338 145 88 117 143
292 339 144 79 113 141
292 339 145 83 117 146
292 338 146 94 121 146
292 339 146 88 120 147
293 338 146 98 124 148
293 338 147 104 126 148
293 339 146 88 120 147
293 339 147 91 118 143
292 336 148 107 126 147
292 336 149 107 126 146
293 336 148 110 128 148
293 337 148 116 132 151
293 337 149 118 133 151
292 336 150 104 123 144
292 336 151 100 118 139
292 337 150 117 132 149
292 337 151 117 131 149
293 337 150 121 134 152
293 338 148 109 127 147
293 338 149 116 130 147
293 339 148 96 116 136
293 339 149 94 106 120
292 338 150 121 132 147
292 338 151 129 136 149
292 339 150 98 101 111
292 339 151 111 108 114
293 338 150 123 135 152
292 340 144 78 113 143
292 340 145 81 116 146
292 341 144 74 109 138
292 341 145 78 113 142
293 340 145 83 118 147
293 341 145 82 113 141
293 340 146 84 116 144
293 340 147 84 109 133
293 341 146 85 110 134
293 341 147 86 101 123
292 342 144 81 108 133
292 343 144 79 98 116
293 342 144 83 110 134
293 342 145 83 103 124
293 343 144 84 101 120
293 343 145 86 93 107
293 342 146 85 93 112
293 342 147 90 85 101
293 343 146 88 72 82
293 343 147 94 53 60
293 340 148 82 98 117
293 340 149 84 76 90
293 341 148 85 75 90
293 341 149 91 56 72
292 340 150 98 72 87
292 340 151 111 92 95
292 341 150 105 75 85
292 341 151 132 116 118
293 341 150 102 65 76
293 342 148 92 57 66
293 342 149 99 54 64
293 343 148 104 53 54
293 343 149 117 83 82
292 342 150 118 101 103
292 342 151 142 131 132
292 343 151 148 143 143
293 342 150 115 91 94
293 342 151 143 135 133
293 343 150 135 119 118
293 343 151 149 142 140
289 336 155 108 96 111
289 337 155 108 123 142
289 338 155 114 132 151
289 339 155 134 141 154
291 336 152 97 115 134
291 336 153 99 109 129
291 337 152 117 133 151
291 337 153 111 127 147
290 336 154 104 97 116
290 336 155 107 91 109
290 337 154 109 124 143
290 337 155 110 125 144
291 338 152 131 140 154
291 338 153 127 138 154
291 339 152 141 138 143
291 339 153 144 144 150
290 338 154 122 136 153
290 338 155 118 134 153
290 339 154 143 147 156
290 339 155 140 145 155
291 339 154 147 147 154
288 336 156 126 124 133
288 336 157 138 141 150
288 337 156 110 126 144
288 337 157 111 128 147
288 338 156 111 130 150
288 338 157 111 129 149
288 339 156 128 137 152
288 339 157 128 136 151
289 339 156 136 142 153
289 340 155 152 150 155
289 341 155 160 154 156
291 340 153 154 147 148
291 341 153 155 150 151
290 340 154 161 156 159
290 340 155 156 153 157
290 341 155 159 153 154
291 340 154 161 155 157
291 341 154 154 149 151
291 342 153 147 143 146
290 342 155 160 154 154
290 343 155 158 152 153
291 342 154 148 145 148
291 342 155 155 150 152
291 343 154 148 144 147
291 343 155 156 151 152
288 340 156 143 144 151
288 340 157 144 144 150
288 341 157 153 150 153
289 340 156 149 149 155
289 341 156 159 154 156
288 342 157 159 153 154
288 343 157 158 151 151
289 342 156 161 154 154
289 342 157 162 155 154
289 343 156 161 155 154
289 343 157 160 153 152
288 343 158 156 150 151
290 342 156 161 154 155
290 343 156 160 154 154
292 336 152 101 118 138
292 337 152 113 128 147
292 338 152 130 139 152
292 339 152 133 132 138
292 340 152 136 127 128
292 341 152 151 144 143
292 341 153 154 149 150
292 342 152 149 144 145
292 342 153 146 142 144
292 343 152 145 141 142
292 343 153 143 139 142
292 343 154 147 143 145
292 344 144 83 93 108
292 345 144 84 86 98
293 344 144 80 91 105
293 344 145 84 73 86
293 345 144 85 80 91
293 345 145 87 56 72
293 344 146 91 51 59
293 344 147 95 40 46
293 345 146 93 53 65
293 345 147 101 71 77
293 346 144 83 71 81
293 346 145 95 58 69
293 347 144 92 70 77
293 347 145 108 78 83
293 346 146 103 76 81
293 346 147 114 101 106
293 347 146 120 103 105
293 347 147 134 127 130
293 344 148 109 68 68
293 344 149 133 113 109
293 345 148 116 100 100
293 345 149 135 125 122
293 344 150 147 137 133
293 344 151 155 149 148
293 345 150 150 143 142
293 345 151 156 150 150
293 346 148 128 122 126
293 346 149 139 134 136
293 347 148 134 131 136
293 347 149 138 136 140
293 346 150 145 142 143
293 346 151 150 146 148
293 347 150 141 139 143
293 347 151 139 138 142
294 347 151 136 135 141
293 348 144 103 80 82
293 348 145 121 103 105
293 349 144 112 100 98
293 349 145 137 130 130
293 348 146 133 123 124
293 348 147 142 136 139
293 349 146 143 138 142
293 349 147 145 141 145
293 350 144 127 121 121
293 350 145 141 139 142
293 351 144 136 135 139
293 351 145 133 134 140
293 350 146 142 141 147
293 350 147 148 147 152
293 351 146 137 138 145
293 351 147 147 146 151
294 351 146 144 143 149
294 351 147 146 145 150
293 348 148 141 138 142
293 348 149 139 138 142
293 349 148 146 143 146
293 349 149 144 141 145
293 348 150 135 135 140
293 348 151 134 134 140
293 349 150 138 137 142
293 349 151 139 139 145
293 350 148 151 148 151
293 350 149 148 146 150
293 351 148 149 148 152
293 351 149 149 147 152
293 350 150 144 143 147
293 350 151 146 145 150
293 351 150 147 146 151
293 351 151 148 147 151
291 344 154 153 148 150
291 344 155 155 149 150
291 345 155 147 142 144
291 346 155 150 145 146
291 347 155 163 155 155
288 344 157 159 152 153
289 344 156 157 151 152
289 344 157 157 151 150
289 345 157 153 148 148
288 344 158 159 153 153
288 345 158 158 152 154
289 346 157 152 147 148
289 347 157 149 145 147
288 346 158 154 149 152
288 347 158 146 143 146
288 347 159 145 142 146
289 346 158 153 148 150
289 347 158 147 143 146
290 344 156 156 151 152
290 345 156 148 144 146
291 345 156 142 138 140
290 346 156 149 145 147
290 346 157 152 147 150
290 347 156 153 149 151
290 347 157 150 146 147
291 346 156 149 144 145
291 347 156 159 152 153
289 348 157 146 142 145
289 349 157 149 145 148
288 348 158 143 141 144
288 348 159 144 141 145
288 349 159 148 146 150
289 348 158 144 141 144
289 349 158 151 148 152
288 350 159 147 145 150
288 351 159 148 147 152
289 350 158 154 151 156
289 350 159 151 149 153
289 351 158 155 153 157
289 351 159 151 149 154
290 348 157 149 144 145
290 349 157 155 150 152
291 348 156 160 152 151
291 349 156 160 153 153
291 349 157 160 154 156
290 350 157 158 154 158
290 351 157 155 153 158
291 350 156 159 154 156
291 350 157 160 155 158
291 351 157 153 151 157
290 350 158 155 152 156
290 351 158 153 151 156
292 344 152 151 146 147
292 344 153 151 146 147
292 345 152 159 152 152
292 345 153 156 150 150
293 344 152 154 149 149
293 345 152 160 154 154
292 344 154 152 147 149
292 345 154 152 147 149
292 346 153 158 151 151
293 346 152 154 149 149
293 346 153 157 150 150
293 347 152 145 142 145
293 347 153 156 150 151
292 346 154 155 149 149
292 346 155 151 145 147
292 347 154 161 155 155
292 347 155 162 155 155
293 348 152 141 139 145
293 348 153 151 148 151
293 349 152 144 143 148
293 349 153 147 146 151
292 348 154 160 154 155
292 348 155 161 155 154
292 349 154 151 147 150
292 349 155 156 150 151
293 348 154 156 151 153
293 349 154 148 146 150
293 350 152 145 144 148
293 350 153 143 143 149
293 351 152 148 147 151
293 351 153 145 144 150
292 350 155 147 145 149
292 351 155 141 142 149
293 350 154 142 142 148
293 351 154 143 144 151
293 351 155 141 143 151
292 349 156 160 153 153
292 350 156 153 149 152
292 351 156 149 148 155
