ply
format ascii 1.0
comment Version 2, Copyright 2017, 8i Labs, Inc.
comment frame_to_world_scale 0.179523
comment frame_to_world_translation -45.2095 7.18301 -54.3561
comment width 1023
element vertex 102
property float x
property float y
property float z
property uchar red
property uchar green
property uchar blue
end_header
288 704 211 112 94 82
288 705 211 86 71 71
289 704 211 139 116 102
289 705 211 132 116 113
288 706 211 91 90 97
288 707 211 90 88 95
289 706 211 115 108 111
289 707 210 99 96 105
289 707 211 102 99 105
290 704 211 156 129 113
290 705 210 137 116 106
290 705 211 145 122 114
291 704 210 150 114 87
291 704 211 153 122 101
291 705 210 139 113 95
291 705 211 144 113 91
291 707 209 109 106 115
290 706 210 115 105 104
290 707 210 102 100 107
291 706 210 126 116 112
291 707 210 98 99 108
288 708 211 71 63 72
288 709 210 76 68 67
288 709 211 77 68 70
289 708 210 62 56 77
289 708 211 62 54 68
289 709 210 39 33 53
288 710 210 95 87 85
288 710 211 132 122 119
288 711 210 121 112 111
288 711 211 153 141 138
289 710 210 53 49 57
289 711 210 82 77 79
290 709 209 70 68 76
291 708 209 101 100 108
291 709 208 165 153 150
291 709 209 127 119 121
290 708 210 78 77 91
290 709 210 46 47 62
290 710 209 102 97 98
290 711 209 122 111 106
291 710 208 174 159 150
291 710 209 141 131 128
291 711 208 185 166 152
291 711 209 166 149 137
290 710 210 65 65 69
292 705 209 156 131 118
293 704 209 158 119 100
293 705 208 152 125 112
293 705 209 156 127 112
292 704 210 154 114 87
292 705 210 154 127 108
293 704 210 150 107 83
292 706 209 129 118 116
292 707 208 110 106 120
292 707 209 103 100 112
293 706 208 124 115 114
293 707 208 114 113 120
294 704 208 156 130 112
294 705 208 131 110 102
292 708 208 113 108 117
292 708 209 127 122 127
292 709 208 152 143 140
292 710 208 197 180 170
289 712 209 118 99 89
289 713 209 146 127 116
288 712 210 160 146 139
288 713 210 161 146 138
289 712 210 116 102 95
289 713 210 145 131 123
289 714 209 165 147 136
289 715 209 161 146 139
288 714 210 148 135 129
288 715 210 160 147 144
289 714 210 157 142 134
290 712 208 169 149 133
290 712 209 141 121 109
290 713 209 172 150 137
291 712 208 175 153 134
291 713 208 175 151 130
290 714 208 173 149 131
290 714 209 167 145 131
290 715 208 151 131 114
290 715 209 153 134 121
291 714 208 169 142 123
291 715 208 158 135 116
288 716 209 183 167 156
288 717 209 182 161 144
289 716 209 175 159 148
289 717 208 184 159 136
289 717 209 187 165 146
288 716 210 179 163 154
288 718 209 178 152 127
288 719 208 185 151 114
288 719 209 167 138 108
289 718 208 196 165 132
289 719 208 198 161 120
290 716 208 166 144 125
290 716 209 171 151 137
290 717 208 167 143 120
291 716 208 164 139 120
290 718 208 178 147 116
