ply
format ascii 1.0
comment Version 2, Copyright 2017, 8i Labs, Inc.
comment frame_to_world_scale 0.179523
comment frame_to_world_translation -45.2095 7.18301 -54.3561
comment width 1023
element vertex 176
property float x
property float y
property float z
property uchar red
property uchar green
property uchar blue
end_header
288 688 208 134 49 29
288 689 208 133 46 22
288 689 209 138 49 21
289 688 208 137 45 25
289 688 209 130 32 21
289 689 209 136 39 20
288 690 209 144 60 25
288 691 209 145 62 31
289 690 209 150 57 23
289 691 209 154 61 32
290 688 209 138 46 21
290 689 209 143 48 21
291 688 209 151 64 23
291 689 209 160 72 31
290 690 209 156 63 22
290 691 209 159 65 27
291 690 209 168 77 24
291 691 209 169 73 16
288 692 209 136 53 35
288 693 209 132 46 27
289 692 209 148 54 41
289 693 209 141 46 39
289 693 210 142 45 34
288 694 209 132 49 19
288 694 210 144 56 28
288 695 210 140 55 22
289 694 210 149 56 34
289 695 210 153 62 29
290 692 209 153 55 32
291 692 209 164 63 19
290 693 210 146 47 29
291 692 210 163 62 21
291 693 210 162 64 26
290 694 210 154 60 25
290 695 210 158 65 29
291 694 210 165 70 23
291 695 210 169 74 25
292 688 209 151 63 25
292 689 209 167 82 36
293 688 209 155 67 35
293 689 209 170 86 43
292 690 209 173 86 24
292 691 209 173 83 20
293 690 209 172 86 29
293 691 209 172 81 27
294 688 209 159 69 30
294 689 209 166 82 40
295 688 209 156 68 31
295 689 209 157 72 30
294 690 209 166 78 28
294 691 209 166 76 24
295 690 209 160 72 27
295 691 209 161 70 26
292 692 209 172 79 18
293 692 209 169 75 27
292 692 210 170 75 20
292 693 210 164 69 24
293 692 210 169 74 26
293 693 210 162 70 33
292 694 210 170 78 31
292 695 210 176 93 33
293 694 210 171 90 49
293 695 210 181 109 49
294 692 209 162 72 22
294 693 209 161 75 30
295 692 209 158 68 25
295 693 209 161 81 38
294 694 209 170 100 42
294 695 209 178 112 45
295 694 208 166 98 63
295 694 209 169 97 45
295 695 208 161 94 55
295 695 209 161 87 33
288 696 210 131 49 24
288 697 210 112 47 40
289 696 210 142 57 41
289 697 210 120 61 66
288 698 210 94 83 90
288 699 210 94 96 105
288 699 211 93 97 106
289 698 210 105 102 113
289 699 211 120 125 133
290 696 210 151 60 34
290 697 210 124 66 59
291 696 210 165 82 37
291 697 210 141 88 65
290 698 210 107 104 111
290 699 211 120 123 128
291 698 210 129 118 115
291 699 210 128 123 124
291 699 211 127 121 121
288 700 211 91 83 86
288 701 211 125 112 104
289 700 211 129 119 119
289 701 211 141 118 107
288 702 211 140 125 113
288 703 211 131 113 98
289 702 211 145 120 102
289 703 211 139 113 94
290 700 211 138 122 111
290 701 211 147 117 94
291 700 211 141 120 104
291 701 211 164 136 113
290 702 211 147 114 91
290 703 211 153 121 99
291 702 211 158 127 108
291 703 211 155 124 105
292 696 210 172 99 35
292 697 210 149 99 55
293 696 210 174 110 34
293 697 210 155 108 51
292 698 210 130 112 101
292 699 210 125 119 124
293 698 210 132 109 89
293 699 210 122 116 116
294 696 209 171 108 39
294 697 209 161 112 59
295 696 208 154 88 51
295 696 209 160 93 43
295 697 208 148 93 64
295 697 209 159 107 66
294 698 209 148 121 96
294 699 209 123 114 113
295 698 208 132 102 84
295 698 209 140 109 84
295 699 208 118 106 103
295 699 209 118 108 110
293 701 209 141 123 119
292 700 210 129 118 119
292 700 211 137 116 101
292 701 210 152 130 125
292 701 211 169 142 124
293 700 210 147 141 149
293 701 210 140 127 129
293 702 209 159 127 103
293 703 209 162 125 101
292 702 210 158 129 120
292 702 211 159 130 120
292 703 210 152 113 94
292 703 211 146 111 100
293 702 210 159 131 120
293 703 210 162 127 107
294 700 209 133 128 138
294 701 209 146 126 121
295 700 208 109 103 110
295 701 208 123 113 112
294 702 208 144 118 103
294 702 209 148 117 96
294 703 208 159 135 115
294 703 209 165 133 108
295 702 208 140 118 108
295 703 208 148 129 113
296 688 208 148 63 44
296 688 209 149 64 38
296 689 208 147 72 43
296 689 209 149 68 38
297 688 208 156 76 56
297 689 208 154 87 59
296 690 209 149 70 37
296 691 208 144 72 45
296 691 209 149 69 35
297 690 208 144 83 58
297 691 208 132 79 64
298 688 208 159 84 71
298 689 208 149 88 65
298 690 208 135 89 70
298 691 208 125 89 78
296 692 208 135 70 55
296 692 209 146 68 38
296 693 208 137 76 63
297 692 208 125 79 73
297 693 208 130 85 82
296 694 208 160 99 73
296 695 208 159 103 80
296 696 208 148 87 59
296 697 208 146 96 78
