ply
format ascii 1.0
comment Version 2, Copyright 2017, 8i Labs, Inc.
comment frame_to_world_scale 0.179523
comment frame_to_world_translation -45.2095 7.18301 -54.3561
comment width 1023
element vertex 58
property float x
property float y
property float z
property uchar red
property uchar green
property uchar blue
end_header
302 656 208 92 87 88
302 657 208 78 80 90
303 656 208 99 88 88
303 657 208 83 77 83
302 658 208 77 78 90
302 659 208 89 79 86
303 658 208 82 78 88
303 659 208 88 77 83
301 660 208 113 77 73
301 661 208 118 68 68
301 662 208 124 61 60
301 663 208 131 69 67
302 660 208 108 84 83
302 661 208 117 73 74
303 660 208 94 74 76
303 661 208 107 76 83
302 662 208 123 67 71
302 663 208 125 65 65
303 662 208 117 74 82
303 663 208 115 66 70
299 667 208 137 49 49
299 668 208 137 51 43
299 669 208 138 55 51
298 670 208 138 51 49
298 671 208 139 61 61
299 670 208 142 59 60
299 671 208 139 49 51
300 665 208 142 66 65
301 664 208 142 78 78
301 665 208 141 69 70
300 666 208 149 78 77
300 667 208 144 68 66
301 666 208 144 74 70
301 667 208 141 74 66
302 664 208 131 66 69
302 665 208 139 75 80
303 664 208 114 62 67
303 665 208 121 70 77
302 666 208 133 65 66
302 667 208 129 61 64
303 666 208 122 68 71
303 667 208 131 79 81
300 668 208 138 56 48
300 669 208 141 60 60
301 668 208 136 58 55
301 669 208 134 44 49
300 670 208 147 64 71
300 671 208 143 53 59
301 670 208 134 41 50
301 671 208 135 45 51
302 668 208 130 55 67
302 669 208 133 47 62
303 668 208 123 64 71
303 669 208 121 58 68
302 670 208 131 57 61
302 671 208 123 47 52
303 670 208 120 68 73
303 671 208 114 60 63
