ply
format ascii 1.0
comment Version 2, Copyright 2017, 8i Labs, Inc.
comment frame_to_world_scale 0.179523
comment frame_to_world_translation -45.2095 7.18301 -54.3561
comment width 1023
element vertex 305
property float x
property float y
property float z
property uchar red
property uchar green
property uchar blue
end_header
288 774 87 116 97 81
288 775 87 100 93 90
288 768 88 98 83 72
288 769 88 99 80 65
289 768 88 106 91 78
289 769 88 112 98 87
288 770 88 104 76 55
288 771 88 118 81 39
289 770 88 124 103 85
289 771 88 146 115 83
290 768 88 134 112 90
290 769 88 133 114 97
291 768 88 158 131 103
291 768 89 158 132 103
291 769 88 151 126 100
291 769 89 156 129 100
290 770 88 137 119 101
290 771 88 149 129 110
291 770 88 154 129 104
291 770 89 154 127 100
291 771 88 159 137 117
288 772 88 129 92 53
288 773 88 141 111 79
289 772 88 166 136 104
289 773 88 166 138 108
288 774 88 142 118 93
288 775 88 145 130 117
289 774 88 158 134 110
289 775 88 143 130 122
290 772 88 161 140 121
290 773 88 167 146 127
291 772 88 166 145 127
291 773 88 171 151 134
290 774 88 164 146 131
290 775 88 150 137 130
291 774 88 168 149 134
291 775 88 148 133 122
292 768 89 125 103 82
292 769 89 137 116 96
293 768 89 88 64 43
293 769 89 110 79 56
292 770 89 146 125 105
292 771 88 148 129 112
292 771 89 142 124 109
293 770 89 121 96 73
293 771 89 112 94 80
294 768 89 123 92 58
294 769 89 139 92 49
295 768 89 142 115 87
295 769 89 156 125 97
294 770 89 154 106 54
294 771 89 158 123 82
295 770 89 168 139 111
295 771 89 162 139 117
292 772 88 150 132 117
292 772 89 132 119 111
292 773 88 138 124 115
293 772 89 97 89 85
293 773 89 82 82 85
292 774 88 115 105 99
292 774 89 53 60 68
292 775 88 86 83 81
293 774 88 58 65 73
293 774 89 89 90 94
293 775 89 123 117 115
294 772 89 149 123 95
294 773 89 146 129 114
295 772 89 152 133 116
295 773 89 145 128 114
294 774 89 152 139 132
294 775 89 148 134 123
295 774 89 153 135 122
295 775 89 161 143 128
288 776 87 99 100 106
288 777 87 97 101 109
289 777 87 117 114 117
288 778 87 100 101 105
288 779 87 133 126 124
289 778 87 119 113 109
289 779 87 139 127 119
290 779 87 147 132 121
288 780 87 137 128 124
288 781 87 125 117 112
289 780 87 134 120 108
289 781 87 106 88 69
288 782 87 116 102 89
288 783 87 120 100 79
289 782 87 107 79 51
289 783 87 127 97 72
290 780 87 140 126 116
290 781 87 117 100 86
291 780 87 133 121 113
291 781 87 130 118 110
290 782 87 109 84 63
290 783 87 119 96 76
291 782 87 121 107 94
291 783 87 121 110 103
292 782 87 137 126 118
292 783 87 115 112 114
289 776 88 137 130 128
289 777 88 133 128 128
290 776 88 150 140 135
290 777 88 155 145 139
291 776 88 147 135 128
291 777 88 149 137 130
290 778 88 151 138 129
290 779 88 153 138 127
291 778 88 147 133 123
291 779 88 134 120 109
291 780 88 127 116 109
291 781 88 139 129 123
292 776 88 111 106 104
292 777 88 119 112 109
293 776 88 136 127 123
293 776 89 137 127 121
293 777 88 129 121 116
293 777 89 144 134 128
292 778 88 132 123 117
292 779 88 124 114 106
293 778 88 127 117 110
293 779 88 126 114 106
294 776 89 138 122 109
294 777 89 147 134 125
295 776 89 156 137 121
295 777 89 152 137 127
294 778 89 135 123 114
294 779 88 119 102 84
294 779 89 118 100 83
295 778 89 141 128 119
295 779 89 117 98 77
292 780 88 128 117 110
292 781 88 139 129 121
293 780 88 126 111 99
293 781 88 124 106 88
292 782 88 143 131 124
292 783 88 127 122 121
293 782 88 126 108 88
293 783 88 124 117 113
294 780 88 118 95 71
294 780 89 124 97 68
294 781 88 127 100 71
295 780 89 119 92 64
295 781 89 128 102 79
294 782 88 119 92 60
294 783 88 123 115 110
295 782 88 126 103 84
295 782 89 126 110 100
295 783 88 122 122 126
296 768 90 157 135 114
296 769 90 164 142 124
297 768 90 164 136 107
297 769 90 165 143 123
296 770 89 163 143 126
296 771 89 162 142 126
296 770 90 169 150 134
296 771 90 167 148 132
297 770 90 160 142 128
297 771 90 151 137 127
298 768 90 154 134 116
298 769 90 138 124 113
299 768 90 106 94 84
299 768 91 77 69 64
299 769 90 83 78 76
299 769 91 70 66 67
298 770 90 115 112 112
298 771 90 100 107 117
299 770 90 59 74 87
299 770 91 56 70 86
299 771 90 54 81 105
299 771 91 56 83 107
296 772 89 159 141 125
296 773 89 157 139 124
296 772 90 165 146 131
296 773 90 162 143 129
297 772 90 141 129 121
297 773 90 121 112 107
296 774 89 163 145 131
296 775 89 155 137 124
296 774 90 160 142 128
297 774 90 110 103 100
297 775 90 107 101 100
298 772 90 81 97 113
298 773 90 70 90 108
299 772 90 53 87 113
299 773 90 70 95 115
298 774 90 93 101 112
298 775 90 102 103 109
299 774 90 106 114 124
299 775 90 126 123 124
300 768 91 114 80 60
300 769 91 114 84 62
301 768 91 150 109 68
301 769 91 161 124 81
300 770 91 116 103 92
300 771 91 111 110 113
301 770 91 159 130 100
301 771 91 144 127 113
302 768 91 164 139 114
302 769 91 166 143 122
303 768 91 176 152 131
303 769 91 176 153 134
302 770 91 162 143 128
302 771 91 160 144 132
303 770 91 174 152 135
303 771 91 170 151 136
303 768 92 181 156 135
303 769 92 174 151 132
303 770 92 169 148 130
303 771 92 161 141 126
300 772 91 104 112 123
300 773 91 104 113 124
301 772 91 135 128 126
301 773 91 132 128 129
300 774 90 121 125 131
300 774 91 128 129 134
300 775 90 145 140 140
301 774 91 143 135 131
301 775 91 153 143 138
302 772 91 152 138 129
302 773 91 155 141 132
303 772 91 148 131 118
303 773 91 128 113 102
302 774 91 158 141 129
302 775 91 159 143 131
303 774 91 134 119 107
303 775 91 129 115 103
296 776 89 141 124 110
296 777 89 131 120 111
297 776 89 115 103 94
297 777 89 92 88 88
297 776 90 93 93 97
297 777 90 86 89 96
296 778 89 131 120 115
296 779 89 131 116 105
297 778 89 98 93 92
297 779 89 122 112 107
297 778 90 93 92 94
298 776 90 100 102 109
298 777 90 96 100 107
299 776 90 122 118 117
299 777 90 118 116 118
298 778 90 99 98 101
298 779 90 122 114 111
299 778 90 129 123 122
299 779 90 139 126 118
296 780 89 123 105 88
296 781 89 128 115 106
297 780 89 139 130 125
297 781 89 130 130 134
296 782 89 120 117 119
296 783 88 100 113 129
296 783 89 88 106 123
297 782 89 98 113 130
297 783 89 70 95 116
298 780 89 138 134 134
298 781 89 133 133 137
298 780 90 140 133 131
298 781 90 143 138 139
299 780 90 134 119 108
299 781 90 130 117 107
298 782 89 118 123 131
298 783 89 100 104 111
299 782 89 135 129 127
299 783 89 120 112 108
299 782 90 135 123 116
299 783 90 132 123 119
300 776 90 152 143 140
300 777 90 145 135 130
301 776 90 163 151 144
301 776 91 168 156 149
301 777 91 162 148 141
300 778 90 131 117 106
300 779 90 135 109 89
301 778 90 132 111 93
301 778 91 139 118 101
301 779 90 128 97 67
301 779 91 121 93 63
302 776 91 161 146 137
302 777 91 156 142 132
303 776 91 136 122 113
303 777 91 127 116 108
302 778 91 152 135 124
302 779 91 132 114 99
303 778 91 138 130 126
303 779 91 133 123 118
300 780 90 136 105 82
300 781 90 121 91 62
301 780 90 128 104 82
301 780 91 123 98 76
301 781 90 117 104 93
300 782 90 125 107 93
300 783 90 122 114 108
301 782 90 105 104 107
301 783 90 99 104 111
302 780 91 119 107 99
302 781 90 98 101 107
302 781 91 99 100 104
303 780 91 111 107 105
303 781 91 86 93 101
302 782 90 74 90 106
302 782 91 55 84 106
302 783 90 75 96 114
303 782 91 71 93 112
303 783 90 113 122 135
303 783 91 108 121 137
