ply
format ascii 1.0
comment Version 2, Copyright 2017, 8i Labs, Inc.
comment frame_to_world_scale 0.179523
comment frame_to_world_translation -45.2095 7.18301 -54.3561
comment width 1023
element vertex 324
property float x
property float y
property float z
property uchar red
property uchar green
property uchar blue
end_header
288 816 96 224 160 120
288 816 97 225 161 121
288 817 97 227 162 123
289 816 96 223 160 119
289 816 97 220 159 119
289 817 97 224 162 122
289 817 98 221 160 123
288 818 97 229 162 124
288 818 98 224 160 123
288 819 98 226 161 124
288 819 99 226 161 124
289 818 98 222 159 124
289 818 99 222 160 123
289 819 99 225 162 124
290 816 97 221 160 118
291 816 97 218 160 118
290 816 98 220 161 120
290 817 98 223 162 123
291 816 98 220 162 122
291 817 98 220 160 123
291 817 99 222 162 127
290 818 99 222 161 125
290 819 99 222 162 124
291 818 99 224 164 127
289 819 100 221 160 124
290 819 100 221 161 124
291 818 100 222 163 125
291 819 100 228 165 127
288 820 99 227 162 125
288 820 100 226 161 124
288 821 100 229 162 126
289 820 100 228 163 126
289 821 100 231 165 127
289 821 101 227 163 125
288 822 101 228 162 126
288 823 101 229 165 127
289 822 101 222 160 123
288 823 102 221 161 123
289 822 102 222 160 124
289 823 102 220 161 123
289 823 103 221 161 124
290 820 100 228 165 127
290 820 101 225 162 125
290 821 101 221 159 122
291 820 100 222 162 124
291 820 101 220 159 123
291 821 101 219 158 122
290 821 102 219 158 121
291 821 102 220 159 122
290 822 102 220 159 122
290 823 102 221 161 122
290 823 103 220 161 124
291 822 102 220 160 123
291 822 103 221 161 125
291 823 103 221 161 126
292 816 98 222 164 125
292 816 99 220 162 126
292 817 99 222 162 126
293 816 99 220 162 127
292 817 100 226 165 127
293 816 100 220 162 126
293 817 100 222 162 126
292 818 100 224 164 126
292 818 101 219 160 123
292 819 100 220 161 123
292 819 101 220 160 122
293 818 100 221 162 124
293 818 101 219 160 122
293 819 101 218 159 121
293 819 102 218 159 121
294 816 100 222 164 126
294 817 100 221 162 125
294 817 101 220 162 125
295 816 100 224 165 127
295 816 101 221 164 126
295 817 101 220 162 125
295 817 102 218 162 124
294 818 101 217 159 121
295 818 101 218 160 121
294 818 102 217 158 120
294 819 102 218 160 121
295 818 102 218 160 121
295 819 102 219 161 122
295 819 103 221 163 126
292 820 101 219 160 123
292 820 102 219 159 123
292 821 102 220 161 123
292 821 103 221 162 125
293 820 102 219 160 122
293 820 103 220 161 123
293 821 103 221 162 125
292 822 103 222 162 125
294 820 102 219 159 121
294 820 103 221 161 123
295 820 103 222 163 126
291 823 104 222 163 126
295 819 104 224 166 129
293 821 104 223 164 127
292 822 104 223 163 128
292 823 104 223 165 128
292 823 105 225 167 127
293 822 104 224 166 129
293 822 105 227 169 131
293 823 105 227 168 130
292 823 106 228 169 131
293 822 106 229 170 132
293 823 106 229 170 132
293 823 107 231 172 133
294 820 104 222 163 126
294 821 104 223 164 127
294 821 105 226 168 130
295 820 104 225 167 130
295 820 105 228 171 135
295 821 105 228 171 134
294 821 106 229 171 133
295 821 106 231 173 135
295 821 107 233 174 136
294 822 105 228 170 132
294 822 106 230 171 133
294 822 107 232 173 134
294 823 107 233 173 134
295 822 107 233 174 136
293 823 108 233 174 137
294 823 108 234 174 136
294 823 109 235 175 137
295 822 108 235 176 138
295 822 109 237 179 140
295 823 109 237 177 139
294 823 110 236 176 138
294 823 111 238 179 141
295 823 110 237 178 140
295 823 111 239 180 143
288 824 102 220 160 123
288 824 103 220 160 124
288 825 103 221 161 126
289 824 103 220 160 125
290 824 103 220 161 126
288 825 104 221 162 125
289 824 104 221 162 127
289 825 104 222 164 125
289 825 105 224 167 130
288 826 104 221 162 125
288 826 105 222 164 127
288 827 105 222 164 126
289 826 105 223 165 129
288 827 106 225 167 130
288 827 107 227 169 132
289 826 106 224 166 129
289 826 107 228 169 132
289 827 107 228 170 133
290 824 104 221 163 126
290 824 105 223 166 126
290 825 104 222 165 125
290 825 105 225 167 129
291 824 104 222 165 125
291 824 105 224 167 126
290 825 106 226 167 130
290 825 107 228 168 131
291 824 106 226 167 128
291 824 107 226 166 128
291 825 106 227 167 130
291 825 107 229 168 131
290 826 107 229 169 132
288 827 108 228 170 133
289 826 108 230 171 135
289 826 109 230 171 134
289 827 108 230 171 136
289 827 109 231 172 135
289 827 110 231 174 137
289 827 111 233 175 137
291 825 108 232 171 133
291 825 109 232 171 132
291 825 110 232 171 132
290 826 108 232 172 135
290 826 109 232 172 134
291 826 109 231 171 132
290 826 110 232 173 136
290 826 111 232 175 133
290 827 111 233 175 135
291 826 110 232 173 134
291 826 111 233 175 133
288 828 108 227 169 134
288 828 109 230 171 136
288 828 110 229 170 135
288 828 111 229 169 133
292 824 106 227 168 128
292 824 107 228 168 130
293 824 107 231 171 133
292 824 108 233 173 136
292 824 109 235 174 136
292 825 108 233 172 135
292 825 109 233 173 134
293 824 108 234 173 137
293 824 109 235 174 137
292 825 110 235 174 137
292 825 111 236 177 137
293 824 110 237 176 139
293 824 111 237 177 139
293 825 110 237 178 141
293 825 111 237 178 139
292 826 111 234 176 135
294 824 110 237 176 138
294 824 111 239 179 141
296 816 101 222 165 127
296 817 101 221 164 127
297 816 101 220 164 125
296 817 102 219 164 126
297 816 102 221 164 127
297 817 102 220 164 127
296 818 102 219 163 124
296 818 103 221 164 126
296 819 103 222 166 129
297 818 102 220 164 126
297 818 103 222 166 128
298 816 102 219 163 126
298 816 103 219 164 127
298 817 102 220 164 127
298 817 103 221 166 128
299 816 102 219 164 127
299 816 103 220 164 128
299 817 103 223 166 129
300 816 103 221 166 128
301 816 103 222 166 128
296 819 104 225 167 130
297 818 104 223 167 130
297 819 104 224 167 129
297 819 105 227 169 131
297 819 106 231 173 135
299 817 104 224 167 131
298 818 104 224 166 130
298 819 105 226 168 130
299 818 104 224 166 130
299 818 105 226 169 131
298 819 106 231 173 134
298 819 107 234 176 137
299 818 106 229 171 132
299 819 106 229 171 132
299 819 107 233 174 135
299 819 108 235 177 138
296 820 104 227 169 133
296 820 105 229 172 135
297 820 105 229 172 134
296 820 106 231 174 136
296 820 107 232 174 135
296 821 106 232 174 136
296 821 107 233 175 136
297 820 106 232 174 136
297 820 107 233 175 136
297 821 107 236 177 139
298 820 107 234 176 137
296 821 108 235 176 138
297 820 108 238 180 143
297 821 108 238 179 142
297 821 109 239 181 143
297 821 110 239 181 143
296 822 108 236 177 139
296 822 109 238 180 142
297 822 109 239 181 143
296 822 110 240 182 144
296 822 111 239 181 143
296 823 110 238 181 142
296 823 111 240 181 144
297 822 110 240 182 144
297 822 111 239 181 143
298 820 108 237 179 141
298 820 109 238 180 142
298 821 109 239 181 143
299 820 108 236 178 140
299 820 109 237 178 139
298 821 110 240 182 144
298 821 111 240 182 144
299 820 110 239 180 142
299 820 111 240 181 143
299 821 110 240 181 144
299 821 111 240 182 144
298 822 111 239 181 142
300 816 104 224 167 131
300 817 104 225 167 132
300 817 105 227 170 134
301 816 104 224 167 130
301 816 105 225 168 132
301 817 105 226 168 132
300 817 106 228 170 130
301 817 106 228 170 131
301 817 107 230 172 132
300 818 105 227 170 132
300 818 106 229 172 132
300 818 107 233 175 135
301 818 107 234 176 135
302 816 104 224 167 130
302 816 105 227 168 132
303 816 105 228 170 133
302 816 106 228 170 131
302 817 106 229 171 131
302 817 107 234 176 135
303 816 106 230 171 132
303 816 107 234 176 136
303 817 107 236 179 139
300 818 108 236 178 139
300 819 108 236 178 138
300 819 109 237 177 138
301 818 108 237 178 138
301 818 109 237 178 138
301 819 109 238 178 139
300 819 110 239 178 139
301 819 110 240 179 140
301 819 111 241 180 141
302 817 108 238 180 140
303 817 108 238 179 140
303 817 109 239 180 140
302 818 108 238 179 139
302 818 109 239 179 139
303 818 109 239 180 140
302 818 110 241 180 141
302 818 111 242 181 142
302 819 110 241 180 141
302 819 111 242 181 141
303 818 110 241 180 141
303 818 111 243 182 143
303 819 111 244 183 143
300 820 109 236 176 137
300 820 110 238 177 139
300 820 111 240 180 140
301 820 111 240 180 139
