ply
format ascii 1.0
comment Version 2, Copyright 2017, 8i Labs, Inc.
comment frame_to_world_scale 0.179523
comment frame_to_world_translation -45.2095 7.18301 -54.3561
comment width 1023
element vertex 209
property float x
property float y
property float z
property uchar red
property uchar green
property uchar blue
end_header
288 903 153 83 68 49
288 903 154 84 66 45
288 903 155 86 63 38
288 903 156 97 67 38
288 903 157 118 80 55
288 903 158 140 94 72
288 903 159 154 102 82
288 905 151 74 60 48
288 907 148 105 72 51
288 907 149 75 57 40
288 906 150 65 51 39
288 906 151 69 54 42
288 907 150 70 56 41
288 907 151 71 55 40
288 909 145 93 66 47
288 908 146 104 78 60
288 908 147 115 79 57
288 909 146 93 69 50
288 909 147 103 76 58
289 909 147 90 65 43
288 910 144 77 58 40
288 910 145 77 57 37
288 911 144 93 61 44
289 910 145 74 54 37
289 911 144 76 57 44
289 911 145 80 56 44
289 910 146 83 56 38
289 910 147 84 58 41
289 911 146 92 56 46
289 911 147 96 59 48
290 911 147 93 57 46
288 908 148 96 74 57
288 908 149 93 72 52
288 909 148 99 76 60
289 909 148 95 72 54
289 909 149 96 75 59
288 908 150 86 70 54
289 908 150 95 77 61
289 908 151 88 71 55
289 909 150 99 79 63
289 909 151 104 83 66
289 910 148 86 59 43
289 910 149 82 57 42
289 911 148 122 72 49
290 909 150 94 75 58
290 909 151 104 85 69
290 910 148 83 56 50
290 910 149 82 57 47
290 911 148 101 64 49
290 911 149 115 74 58
290 910 150 82 57 45
290 910 151 86 63 49
290 911 150 152 102 79
291 910 151 85 57 47
291 911 150 112 74 60
291 911 151 96 66 54
292 911 151 104 74 59
288 904 152 82 68 53
288 904 153 83 68 51
288 905 152 75 62 50
288 905 153 77 64 50
288 904 154 82 65 45
288 904 155 86 64 41
288 905 154 80 65 51
288 905 155 88 66 45
289 905 154 79 63 50
289 905 155 86 64 45
288 906 152 72 59 46
288 906 153 71 59 49
288 907 152 67 50 35
289 906 152 73 60 45
289 906 153 72 60 48
289 907 152 68 52 37
289 907 153 67 54 40
289 906 154 75 62 50
289 906 155 84 65 46
289 907 154 71 59 45
289 907 155 79 63 48
288 904 156 101 70 44
288 904 157 124 85 60
288 905 156 103 71 47
288 905 157 125 85 61
289 905 156 104 72 48
288 904 158 146 97 74
288 904 159 156 99 78
288 905 158 146 96 73
288 905 159 153 95 73
289 906 156 103 73 50
289 906 157 129 87 60
289 907 156 104 76 55
289 907 157 129 86 61
288 906 158 145 95 72
288 906 159 147 91 71
288 907 159 145 90 70
289 906 158 146 95 73
289 907 158 145 94 71
289 907 159 146 92 72
289 908 152 87 71 57
289 908 153 66 52 37
289 908 154 71 57 40
290 908 152 85 69 55
290 908 153 83 66 52
290 909 152 100 83 68
290 909 153 97 81 66
291 909 153 97 80 63
290 908 154 73 58 42
290 908 155 79 63 47
290 909 154 86 71 55
290 909 155 85 68 49
291 909 154 101 83 68
291 909 155 101 80 63
291 910 152 90 64 48
291 910 153 88 70 53
291 910 154 105 81 59
291 910 155 108 83 66
289 908 156 109 79 57
289 908 157 128 87 64
289 908 158 144 94 73
289 908 159 143 89 67
289 909 159 140 89 66
290 908 156 93 71 51
290 908 157 121 84 57
290 909 156 97 73 50
290 909 157 118 81 52
291 909 156 100 75 55
291 909 157 107 74 45
290 909 158 137 92 68
290 909 159 140 89 66
291 910 156 104 79 64
291 910 157 107 78 58
290 910 159 137 89 66
291 910 158 123 86 64
291 910 159 130 89 66
291 911 159 124 85 58
292 910 152 108 74 55
292 910 153 78 59 42
292 911 152 97 72 58
292 911 153 81 63 50
293 911 153 103 84 68
292 910 154 85 66 50
292 910 155 108 79 57
292 911 154 83 65 47
293 911 154 98 78 58
293 911 155 106 77 54
294 911 154 123 100 79
294 911 155 126 98 76
292 910 156 106 78 66
292 910 157 105 76 59
293 910 156 103 74 58
293 910 157 105 75 59
293 911 156 95 68 52
293 911 157 104 76 58
292 910 158 114 82 62
292 911 158 114 84 62
292 911 159 117 84 61
293 910 158 112 84 65
293 911 158 111 84 64
293 911 159 114 86 64
294 911 156 106 82 67
294 911 157 110 85 65
295 911 156 122 98 78
295 911 157 126 101 78
294 911 158 116 90 69
294 911 159 119 92 70
295 911 158 124 98 75
295 911 159 123 96 72
297 908 158 133 102 77
297 909 158 133 102 76
296 911 158 130 105 79
297 910 158 136 105 78
297 911 158 135 107 81
298 908 157 131 98 71
299 908 157 128 96 66
299 909 157 129 98 70
298 908 158 135 101 72
298 909 158 135 102 74
299 909 158 134 100 69
298 910 157 135 106 79
298 911 157 137 109 82
299 910 157 130 101 75
299 911 157 140 112 88
298 910 158 135 101 73
299 910 158 133 101 73
299 911 158 132 104 79
303 908 152 127 104 79
302 908 154 123 95 67
302 908 155 118 88 59
303 908 154 121 94 67
303 908 155 121 93 65
303 911 155 134 109 82
300 908 156 120 90 62
300 908 157 120 90 61
300 909 157 126 96 68
301 908 156 117 85 58
301 908 157 121 90 59
301 909 157 122 91 61
300 910 157 129 99 73
300 910 158 122 89 65
300 911 158 128 98 73
301 910 158 125 96 70
301 911 158 125 98 74
302 908 156 117 84 56
303 908 156 122 93 64
303 909 157 127 96 71
302 910 157 130 98 74
302 911 156 131 101 76
302 911 157 124 97 71
303 910 156 128 101 73
303 910 157 129 98 74
