ply
format ascii 1.0
comment Version 2, Copyright 2017, 8i Labs, Inc.
comment frame_to_world_scale 0.179523
comment frame_to_world_translation -45.2095 7.18301 -54.3561
comment width 1023
element vertex 540
property float x
property float y
property float z
property uchar red
property uchar green
property uchar blue
end_header
289 912 144 93 66 51
289 912 145 99 70 55
289 913 144 125 91 75
289 913 145 138 100 80
289 913 146 147 107 85
289 914 144 136 98 78
289 914 145 136 93 71
289 915 144 120 83 63
289 915 145 124 81 60
289 914 146 143 92 67
290 912 145 115 75 52
290 912 146 94 65 54
290 912 147 106 67 52
290 913 146 142 102 82
290 913 147 138 97 79
290 915 145 118 75 55
290 914 146 151 103 78
290 914 147 150 99 76
290 915 146 127 77 53
290 915 147 133 79 54
290 912 148 128 79 61
290 912 149 134 84 61
290 913 148 158 106 84
290 913 149 158 109 86
291 912 149 127 82 61
291 913 149 154 108 84
291 912 150 127 88 67
291 913 150 162 115 86
290 914 148 153 102 76
290 914 149 153 105 78
290 915 148 136 84 59
290 915 149 136 88 63
291 914 149 156 111 82
291 915 149 140 95 71
291 914 150 162 119 92
289 916 144 106 76 54
290 916 144 108 78 57
290 916 145 111 76 58
290 917 144 105 82 65
290 917 145 109 83 67
291 917 144 107 86 71
291 917 145 108 87 73
290 916 146 112 77 62
290 916 147 123 79 59
290 917 146 104 78 61
290 917 147 109 80 59
291 917 146 101 81 61
290 918 144 96 77 62
291 918 144 95 77 61
291 918 145 102 83 68
291 919 144 93 75 59
291 919 145 95 78 62
291 918 146 102 81 65
291 918 147 103 80 59
291 919 146 96 77 61
291 919 147 104 83 66
290 916 148 128 84 63
290 916 149 129 86 63
290 917 148 121 86 63
291 916 149 133 94 74
291 917 148 117 88 70
291 917 149 126 92 73
290 918 148 108 81 58
291 918 148 110 84 61
291 918 149 127 94 71
291 919 148 108 86 67
291 919 149 111 87 66
292 912 151 142 102 81
292 913 150 161 121 95
292 913 151 160 120 96
293 913 151 159 122 98
292 914 150 156 115 86
292 914 151 150 111 84
292 915 150 140 99 76
292 915 151 143 105 82
293 914 151 156 119 93
293 915 151 140 104 82
292 919 146 98 79 61
292 919 147 102 82 65
292 916 150 134 97 76
292 916 151 139 103 77
292 917 150 131 98 78
292 917 151 134 101 80
293 916 151 142 107 86
293 917 151 132 101 78
292 918 149 150 111 89
292 919 148 107 87 69
292 919 149 136 101 78
293 919 149 140 103 82
292 918 150 144 107 86
292 919 150 147 108 87
293 918 151 140 107 87
293 919 150 156 115 94
293 919 151 180 130 107
294 919 150 149 114 91
294 919 151 160 120 93
295 919 151 152 117 92
292 912 152 130 96 78
293 912 152 152 118 98
293 912 153 146 119 98
293 913 152 155 119 93
293 914 152 149 113 88
293 915 152 141 106 84
294 912 153 152 119 93
294 913 153 150 117 87
294 912 154 149 117 91
294 912 155 139 107 82
295 912 155 142 114 90
295 913 154 147 117 91
295 913 155 148 119 96
294 914 152 151 118 92
294 914 153 147 116 92
294 915 152 149 115 90
294 915 153 150 118 94
295 914 153 146 114 87
295 915 153 148 119 93
295 914 154 150 120 93
295 915 154 155 124 92
295 912 156 140 115 94
293 916 152 144 107 86
293 917 152 144 110 88
293 918 152 150 111 83
294 916 153 150 116 93
294 917 153 150 113 92
295 916 153 152 123 96
295 917 153 156 123 96
295 916 154 157 126 95
295 917 154 160 128 99
294 918 152 157 116 92
294 918 153 155 116 95
295 918 152 160 125 94
295 918 153 150 117 90
295 919 152 151 119 92
289 923 144 78 62 48
290 920 144 85 68 52
290 921 144 81 65 53
291 920 144 88 71 56
291 920 145 90 72 58
291 921 144 82 66 53
291 921 145 86 69 56
290 922 144 81 65 54
290 922 145 84 67 54
290 923 144 83 67 54
290 923 145 82 65 51
291 922 145 85 68 54
291 923 145 87 69 52
290 923 146 86 68 52
291 922 146 89 71 55
291 923 146 88 70 54
289 924 144 77 61 47
289 924 145 78 62 49
289 925 144 75 60 47
289 925 145 78 63 48
289 926 144 73 59 47
289 926 145 74 59 46
289 927 144 72 57 48
290 924 145 82 66 51
290 925 145 80 63 47
290 924 146 85 69 54
290 925 146 79 63 47
290 925 147 81 64 49
291 924 146 115 90 68
291 924 147 103 82 62
291 925 147 83 67 52
290 926 145 74 60 47
290 927 145 73 58 47
290 926 146 77 62 47
290 926 147 80 64 49
290 927 146 75 60 46
290 927 147 78 62 48
291 926 147 99 75 57
291 927 147 80 64 49
291 925 148 120 93 73
291 926 148 102 80 63
291 927 148 84 65 53
292 921 145 86 68 53
292 920 146 94 77 61
292 920 147 98 80 64
292 921 146 88 70 55
292 921 147 94 76 60
293 921 147 101 81 65
292 922 146 90 73 58
292 923 146 90 72 55
292 923 147 92 74 59
293 922 147 91 74 58
293 923 147 93 77 61
292 920 148 130 91 67
293 920 148 126 99 80
293 920 149 128 102 83
293 921 148 112 89 74
293 923 148 94 77 62
294 920 149 132 103 82
294 921 148 105 85 72
294 921 149 116 92 77
295 920 149 121 96 77
295 921 149 111 90 74
294 920 150 142 110 86
295 920 150 135 106 84
294 922 148 94 79 64
294 922 149 108 89 73
294 923 148 107 88 68
294 923 149 93 77 62
295 922 149 114 97 84
295 923 149 101 84 67
295 923 150 92 76 61
292 924 147 88 72 56
292 924 148 97 80 63
292 925 148 110 87 67
293 924 148 95 78 63
293 924 149 95 78 62
293 925 148 95 77 60
293 925 149 91 74 58
292 926 148 110 83 64
292 926 149 86 69 52
292 927 148 85 67 54
292 927 149 84 68 53
293 926 149 85 68 52
293 927 149 84 68 53
293 926 150 84 68 52
293 927 150 84 69 54
293 927 151 84 68 52
294 924 149 93 77 60
294 925 149 93 77 63
294 924 150 91 75 59
294 925 150 91 74 58
294 925 151 86 70 53
295 924 150 93 77 62
295 925 151 88 73 57
294 926 150 84 67 51
294 926 151 87 71 55
294 927 151 84 67 51
295 926 151 87 70 55
294 927 152 83 66 51
295 926 152 89 74 59
295 926 153 91 73 61
295 927 152 86 69 55
295 927 153 86 68 53
295 927 154 85 64 50
296 919 151 138 108 85
297 919 151 132 105 83
296 913 155 150 121 95
296 914 155 154 125 97
296 915 154 164 135 104
296 915 155 162 133 106
297 914 155 157 129 102
297 915 155 162 133 109
298 915 155 160 132 108
299 915 155 157 132 109
296 912 156 139 110 85
296 912 157 138 111 87
296 913 156 145 114 87
297 913 156 152 121 93
297 913 157 143 114 88
296 912 158 136 109 83
296 912 159 133 106 80
297 912 158 132 106 79
297 913 158 144 118 97
297 913 159 139 113 90
297 914 156 162 134 108
297 914 157 148 120 96
297 914 159 142 116 95
299 912 156 140 109 83
299 912 157 142 113 87
299 913 156 142 113 85
299 913 157 134 102 77
298 912 158 140 114 90
298 912 159 139 111 87
298 914 156 154 124 99
298 914 157 146 116 93
298 915 156 160 131 104
298 915 157 152 123 99
299 914 157 131 100 78
298 914 158 143 116 95
298 914 159 144 118 96
298 915 158 139 113 92
298 915 159 141 114 92
299 914 158 134 101 79
296 916 154 165 135 104
296 917 154 159 125 97
297 916 155 160 131 106
297 917 154 151 120 91
297 917 155 150 121 97
296 918 153 147 114 86
296 919 152 145 115 87
297 919 152 137 108 80
297 919 153 137 106 84
296 918 154 150 112 85
297 918 154 138 105 82
298 916 155 166 137 110
298 917 155 146 119 94
298 919 152 123 97 74
298 919 153 113 91 73
299 919 153 118 96 76
298 918 154 139 109 85
298 918 155 143 115 90
298 919 154 128 101 80
299 918 155 145 116 91
299 919 154 117 91 67
299 919 155 131 102 80
298 916 156 160 133 106
299 916 156 164 137 113
299 916 157 145 118 95
299 917 156 152 123 95
299 917 157 155 126 98
298 916 159 130 104 86
298 917 159 116 88 72
299 916 158 132 105 85
299 917 158 115 97 83
299 917 159 100 82 69
299 918 156 144 118 93
299 918 157 155 128 101
299 919 156 144 112 90
298 918 159 105 91 80
299 918 158 125 103 83
299 918 159 96 83 71
299 919 158 155 125 92
299 919 159 119 101 83
300 912 154 132 105 79
300 912 155 142 114 90
300 914 155 147 120 97
300 915 155 155 129 107
301 914 155 139 110 84
302 912 154 142 118 94
302 912 155 134 108 82
302 913 155 146 121 96
303 912 154 143 118 94
303 913 155 142 118 93
303 914 154 134 108 82
303 914 155 134 108 83
300 912 156 133 98 71
300 913 157 132 100 75
301 912 157 138 112 88
300 912 158 139 111 90
300 913 159 140 112 92
301 912 158 136 110 84
301 913 159 137 111 90
300 914 157 134 104 85
301 914 156 132 104 84
301 914 157 135 110 87
301 915 157 134 105 85
300 914 158 126 93 71
300 915 158 138 112 91
300 915 159 130 103 82
301 914 158 129 100 79
302 912 156 131 104 77
302 912 157 132 107 84
302 912 159 130 104 79
302 913 158 117 92 67
302 913 159 130 104 79
303 912 158 133 106 82
303 913 158 133 106 80
302 914 156 151 123 98
303 914 156 149 122 92
303 914 157 131 107 85
302 914 158 129 105 82
302 915 158 130 108 86
302 915 159 123 95 72
303 914 158 118 95 72
303 915 158 117 94 71
300 919 155 126 96 75
301 916 157 134 111 92
300 916 158 131 110 92
301 916 158 120 98 77
301 917 158 137 113 87
300 919 156 135 101 82
300 919 157 146 118 94
300 919 158 146 119 93
300 919 159 136 111 88
302 916 158 126 101 78
302 916 159 123 98 76
302 917 159 136 112 87
296 921 149 110 92 78
296 920 150 124 98 78
296 920 151 131 103 81
296 921 150 107 88 72
297 920 150 115 92 74
297 920 151 126 100 79
297 921 150 101 83 66
296 922 149 109 90 75
296 922 150 104 86 69
296 923 150 99 83 67
296 923 151 93 77 61
297 922 150 97 81 63
297 922 151 93 76 59
297 923 151 91 74 58
298 920 150 103 85 69
298 920 151 114 92 72
298 921 150 99 82 65
299 920 150 104 87 70
299 920 151 110 89 70
299 921 150 101 83 67
299 921 151 97 78 59
298 923 149 89 74 59
298 922 150 96 79 62
298 922 151 96 79 61
298 923 150 92 76 60
298 923 151 93 75 59
299 922 151 100 77 61
296 924 150 92 76 61
296 924 151 92 76 61
296 925 151 89 74 59
297 924 151 89 73 55
298 924 150 90 73 57
300 920 150 85 71 56
300 920 151 86 69 48
300 921 151 98 78 58
300 922 148 91 75 58
300 922 149 82 62 45
301 922 148 71 54 32
300 923 150 91 74 58
300 923 151 96 78 61
302 921 149 98 82 76
302 922 149 85 70 54
302 922 150 94 74 64
298 920 152 121 95 72
298 920 153 115 93 72
299 920 152 110 89 69
299 920 153 111 91 71
299 921 152 107 85 68
299 920 154 118 93 70
298 922 152 96 76 59
298 923 152 95 77 60
298 923 153 95 80 67
299 922 152 103 81 66
299 922 153 110 89 72
299 923 153 100 82 65
299 922 154 109 91 75
299 923 154 101 82 64
299 923 155 109 90 72
299 923 156 119 101 83
296 924 152 90 75 60
296 925 152 88 73 59
296 925 153 96 80 64
297 924 152 88 71 53
297 924 153 96 79 62
297 925 153 96 80 63
297 925 154 105 86 71
297 925 155 107 86 72
296 926 152 90 74 61
296 926 153 95 78 62
296 926 154 97 78 63
296 927 154 86 68 54
296 927 155 87 69 55
297 926 154 99 80 66
297 926 155 99 79 65
297 927 155 97 78 64
298 924 152 88 71 55
298 924 153 98 81 65
298 924 154 104 87 70
298 924 155 106 89 72
298 925 154 103 87 77
298 925 155 103 82 64
299 924 154 103 85 67
299 924 155 108 90 71
296 927 156 87 67 51
296 927 157 89 67 50
297 926 156 100 80 61
297 926 157 99 78 60
297 927 156 94 74 56
297 927 157 94 72 54
297 927 158 92 69 50
297 927 159 92 67 47
298 925 156 107 87 67
298 925 157 114 93 76
299 924 156 111 94 76
299 924 157 120 101 84
299 925 157 130 109 91
298 925 158 133 111 97
299 924 158 123 102 85
299 925 158 133 112 95
299 925 159 132 109 91
298 926 156 109 89 69
298 926 157 108 85 65
298 926 158 113 89 72
298 926 159 118 93 77
298 927 158 100 73 52
298 927 159 104 76 55
299 926 159 122 96 80
300 920 152 113 91 73
300 920 153 110 91 72
300 921 152 111 89 70
300 921 153 110 90 73
300 920 154 114 94 75
300 920 155 115 91 70
300 921 154 116 94 77
300 921 155 124 100 79
301 921 155 125 98 78
300 922 153 108 85 70
300 923 152 98 78 60
300 922 154 113 83 67
300 922 155 109 81 59
300 923 155 105 80 57
301 922 155 118 87 67
303 922 152 107 93 81
303 922 153 102 88 78
303 923 153 114 97 79
302 923 154 105 86 68
303 923 154 104 85 66
300 920 156 128 96 75
300 920 157 137 102 77
300 921 156 129 97 75
301 921 156 131 100 77
301 921 157 131 98 74
300 920 158 150 116 88
300 920 159 149 119 90
301 921 158 139 105 82
301 921 159 148 113 91
300 923 156 112 86 68
300 923 157 110 83 64
301 922 156 122 91 70
301 922 157 127 94 75
301 923 157 117 84 66
301 922 158 133 98 79
301 922 159 145 111 92
301 923 158 116 84 66
301 923 159 139 101 84
302 922 157 133 98 75
302 922 158 132 97 81
302 922 159 143 109 90
302 923 158 129 94 78
302 923 159 144 110 93
301 924 153 102 83 65
300 925 155 100 81 58
302 924 155 106 86 70
300 924 156 115 96 78
300 924 157 109 86 68
300 924 158 121 96 77
300 924 159 129 102 80
301 924 158 119 88 70
301 924 159 141 110 90
301 925 158 114 90 74
301 926 158 115 92 76
301 926 159 116 92 75
302 925 157 116 97 77
303 924 156 111 88 66
303 924 157 114 91 69
302 925 158 114 90 69
302 925 159 117 90 66
303 924 158 122 91 70
303 924 159 137 102 76
