ply
format ascii 1.0
comment Version 2, Copyright 2017, 8i Labs, Inc.
comment frame_to_world_scale 0.179523
comment frame_to_world_translation -45.2095 7.18301 -54.3561
comment width 1023
element vertex 251
property float x
property float y
property float z
property uchar red
property uchar green
property uchar blue
end_header
288 123 192 104 95 89
288 123 193 104 95 89
288 123 194 103 95 88
288 123 195 102 94 88
288 123 196 102 93 87
288 123 197 101 93 87
288 123 198 101 93 86
288 123 199 100 92 86
288 124 192 104 96 89
288 124 193 104 95 89
289 124 192 104 95 89
289 124 193 104 95 89
288 124 195 102 94 88
289 124 194 103 95 89
289 124 195 102 94 88
290 124 192 104 95 89
290 124 193 104 95 89
291 124 192 104 95 89
291 124 193 103 95 89
290 124 194 103 95 89
290 124 195 103 94 88
291 124 194 103 95 89
291 124 195 103 95 88
288 124 196 102 94 87
288 124 197 101 93 87
289 124 196 102 94 87
289 124 197 102 93 87
288 124 198 101 93 87
288 124 199 100 92 85
289 124 198 101 93 87
289 124 199 101 93 86
290 124 196 102 94 88
290 124 197 102 94 87
291 124 196 103 94 88
291 124 197 102 94 88
290 124 198 101 93 87
290 124 199 101 93 86
291 124 198 102 93 87
291 124 199 101 93 87
292 125 192 104 95 89
292 125 193 103 95 89
293 125 192 103 95 89
293 125 193 103 95 89
292 124 194 103 95 89
292 124 195 103 95 88
292 125 194 103 95 89
292 125 195 103 95 88
293 125 194 103 95 89
293 125 195 103 95 88
294 125 192 103 95 89
294 125 193 103 95 89
295 125 192 103 95 89
295 125 193 103 95 89
294 125 194 103 95 89
294 125 195 103 95 88
295 125 194 103 95 89
295 125 195 103 95 88
295 126 192 103 95 89
295 126 193 103 95 89
295 126 194 103 95 89
295 126 195 103 95 88
292 124 196 103 95 88
292 124 197 102 94 88
292 125 196 103 94 88
292 125 197 102 94 88
293 125 196 103 95 88
293 125 197 103 94 88
292 125 198 102 94 88
292 125 199 102 94 87
293 125 198 102 94 88
293 125 199 102 94 87
294 125 196 103 95 88
294 125 197 103 94 88
295 125 196 103 95 88
295 125 197 103 95 88
294 125 198 103 94 88
294 125 199 103 94 88
295 125 198 103 95 88
295 125 199 103 94 88
295 126 196 103 95 88
295 126 197 103 95 88
295 126 198 103 95 88
295 126 199 103 95 88
288 123 201 99 91 84
288 123 202 98 90 84
288 123 203 97 89 83
288 124 200 99 91 85
288 124 201 99 91 84
289 124 200 100 92 85
289 124 201 100 91 85
288 124 202 98 90 84
288 124 203 97 89 83
289 124 202 99 91 84
289 124 203 98 90 83
290 124 200 101 92 86
290 124 201 100 92 85
291 124 200 101 93 86
291 125 200 101 93 87
291 125 201 101 92 86
290 124 202 99 91 85
290 124 203 98 90 84
290 125 203 99 91 85
291 125 202 100 92 85
291 125 203 100 91 85
288 124 204 96 88 82
288 124 205 96 88 82
289 124 204 97 89 83
289 124 205 97 89 82
288 124 206 95 87 81
288 124 207 94 86 80
289 124 206 95 87 81
289 124 207 94 86 80
290 124 204 98 90 83
290 124 205 97 89 83
290 125 204 99 90 84
290 125 205 98 90 84
291 125 204 99 91 85
291 125 205 99 91 84
290 124 206 96 88 82
290 125 206 97 89 82
290 125 207 95 88 81
291 125 206 98 90 84
291 125 207 98 90 83
292 125 200 101 93 87
292 125 201 101 93 86
293 125 200 102 94 87
293 125 201 102 93 87
292 125 202 101 92 86
292 125 203 100 92 86
293 125 202 101 93 86
293 125 203 101 93 86
294 125 200 102 94 87
294 125 201 102 94 87
295 125 200 103 94 88
294 125 202 102 93 87
294 125 203 102 93 87
295 126 200 103 94 88
295 126 201 103 94 88
294 126 202 102 94 87
294 126 203 102 94 87
295 126 202 102 94 88
295 126 203 103 94 87
292 125 204 100 92 86
292 125 205 100 92 85
293 125 204 101 93 86
293 125 205 101 92 86
292 125 206 100 91 85
292 125 207 99 91 84
293 125 206 100 92 85
293 126 205 101 93 86
293 126 206 101 92 86
293 126 207 101 92 85
294 126 204 102 93 87
294 126 205 102 93 87
295 126 204 103 94 87
295 126 205 103 94 88
294 126 206 102 93 86
294 126 207 102 93 86
295 126 206 103 95 88
295 126 207 104 95 88
296 126 192 103 95 89
296 126 193 103 95 89
297 126 192 103 95 89
297 126 193 103 95 89
296 126 194 103 95 89
296 126 195 103 95 88
297 126 194 103 95 88
297 126 195 103 95 89
298 126 192 103 95 89
298 126 193 103 94 88
298 127 192 103 95 88
298 127 193 103 94 88
299 127 192 103 94 88
299 127 193 103 94 88
298 126 194 103 95 88
298 126 195 103 95 88
298 127 194 103 95 88
298 127 195 103 95 89
299 127 194 103 95 88
299 127 195 103 95 89
296 126 196 103 95 88
296 126 197 103 95 88
297 126 196 103 95 88
297 126 197 103 95 88
296 126 198 103 95 88
296 126 199 103 95 88
297 126 198 103 95 89
297 126 199 103 95 89
298 126 196 103 95 89
298 126 197 103 95 89
298 127 197 103 95 89
299 127 196 103 95 89
299 127 197 104 95 89
298 126 198 103 95 89
298 126 199 104 95 89
298 127 198 104 95 89
298 127 199 104 95 89
299 127 198 104 95 89
299 127 199 104 95 89
300 127 192 102 94 88
300 127 193 102 94 88
300 127 194 103 94 88
300 127 195 103 95 89
300 127 196 104 95 89
300 127 197 104 95 89
300 127 198 104 95 89
300 127 199 104 95 89
296 126 200 103 95 88
296 126 201 103 95 88
297 126 200 103 95 89
297 126 201 103 95 88
296 126 202 103 95 88
296 126 203 103 95 88
297 126 202 103 95 88
297 126 203 103 95 88
297 127 202 103 95 88
297 127 203 104 95 89
298 126 200 104 95 89
298 126 201 104 95 89
298 127 200 104 95 89
298 127 201 104 95 89
299 127 200 104 96 89
299 127 201 104 95 89
298 127 202 104 95 89
298 127 203 104 95 89
299 127 202 104 95 89
299 127 203 104 96 89
296 126 204 104 95 88
296 126 205 104 95 88
297 126 204 104 95 89
297 127 204 104 95 89
297 127 205 105 96 89
296 126 206 104 95 88
296 127 206 104 95 89
296 127 207 105 96 89
297 127 206 105 96 89
297 127 207 105 96 89
298 127 204 104 96 89
298 127 205 105 96 89
299 127 204 104 96 89
299 127 205 105 96 89
298 127 206 105 96 90
298 127 207 106 97 90
299 127 206 106 97 90
299 127 207 107 98 91
300 127 200 104 95 89
300 127 201 104 95 89
300 127 202 104 96 89
300 127 203 104 96 89
300 127 204 104 96 89
300 127 205 105 96 89
