ply
format ascii 1.0
comment Version 2, Copyright 2017, 8i Labs, Inc.
comment frame_to_world_scale 0.179523
comment frame_to_world_translation -45.2095 7.18301 -54.3561
comment width 1023
element vertex 345
property float x
property float y
property float z
property uchar red
property uchar green
property uchar blue
end_header
295 153 177 125 60 24
295 153 178 117 66 39
294 155 177 102 93 91
295 154 176 117 61 36
295 154 177 117 68 46
295 155 176 110 77 65
295 155 177 108 82 75
295 154 178 112 76 62
295 154 179 109 86 76
295 155 178 101 95 93
295 155 179 106 98 94
295 155 180 108 97 94
295 155 181 105 54 61
294 156 176 102 100 100
294 156 177 100 95 96
294 157 176 105 100 102
294 157 177 102 93 97
295 156 176 103 99 98
295 157 177 95 80 86
294 156 178 100 97 98
294 157 178 98 89 93
295 156 178 99 94 95
295 156 179 102 95 94
295 157 178 88 71 77
295 157 179 89 68 75
294 158 176 102 91 96
294 158 177 102 91 94
295 158 176 105 96 101
295 158 177 92 75 83
295 159 176 90 75 86
295 159 177 84 59 75
295 158 178 88 63 73
295 158 179 98 59 67
295 159 178 90 61 73
295 159 179 99 58 67
295 156 180 102 79 77
295 156 181 104 51 52
295 157 180 102 55 59
295 157 181 109 42 45
295 158 180 108 56 63
295 158 181 115 47 55
295 159 180 107 49 58
295 159 181 112 43 52
295 158 182 118 39 47
295 159 182 114 43 49
295 159 183 114 40 48
296 144 176 146 67 3
296 145 176 144 68 2
296 145 177 143 66 2
297 144 176 146 67 2
297 144 177 144 66 2
297 145 176 145 67 2
297 145 177 143 67 2
297 144 178 141 65 3
297 144 179 136 61 3
297 145 178 140 68 2
297 145 179 135 62 3
296 146 176 144 69 2
296 146 177 143 70 2
296 147 176 144 70 7
296 147 177 142 70 4
297 146 177 141 69 2
296 147 178 140 71 3
297 146 178 139 69 3
297 146 179 135 63 3
297 147 178 139 71 3
297 147 179 134 66 4
298 144 178 139 62 5
298 144 179 135 60 2
297 145 180 131 55 0
297 146 180 131 58 5
297 146 181 133 60 9
297 147 180 129 60 5
297 147 181 132 63 13
297 147 182 137 68 14
297 147 183 140 71 12
298 144 180 134 61 2
298 144 181 135 64 6
298 145 180 132 56 1
298 145 181 135 60 9
298 144 182 137 66 8
298 144 183 141 69 6
298 145 182 136 65 7
298 145 183 140 69 5
299 144 182 139 67 12
299 144 183 141 67 7
298 146 180 132 57 6
298 146 181 133 59 10
298 146 182 136 66 8
298 146 183 141 71 6
298 147 183 141 72 8
296 148 176 143 65 7
296 148 177 141 68 4
296 149 176 141 65 3
296 149 177 140 66 3
296 148 178 139 70 5
296 149 178 137 69 5
297 148 179 133 68 7
297 149 178 136 70 6
297 149 179 131 67 6
296 150 176 140 62 3
296 150 177 139 62 4
296 151 176 138 58 3
296 151 177 137 61 6
296 150 178 136 67 5
296 150 179 131 66 11
296 151 178 131 64 6
296 151 179 126 62 18
297 150 179 130 65 14
297 148 180 129 63 6
297 148 181 132 63 15
297 149 180 128 64 12
297 149 181 128 64 25
297 148 182 134 63 17
297 148 183 134 66 18
297 149 182 129 67 34
297 149 183 123 74 46
296 150 180 125 65 19
296 151 180 120 72 42
296 151 181 115 80 64
297 150 180 124 64 23
297 150 181 122 70 43
297 151 181 117 80 60
297 150 182 118 78 61
297 150 183 109 82 74
297 151 182 113 87 75
297 151 183 106 93 92
297 147 184 140 70 10
297 147 185 136 71 24
298 144 184 145 68 5
298 145 184 145 70 5
298 145 185 145 67 5
299 144 184 145 69 6
299 144 185 147 67 5
298 145 186 142 64 5
298 145 187 136 60 14
299 144 186 145 64 5
299 144 187 142 63 7
299 145 187 139 61 6
298 146 184 143 71 7
298 146 185 140 67 8
298 147 185 136 68 18
298 146 186 134 64 12
298 146 187 127 66 40
298 147 186 124 73 46
298 147 187 111 75 64
298 145 188 129 64 32
299 144 188 141 63 6
299 145 188 133 64 11
299 145 189 126 67 14
298 146 188 120 66 56
298 147 188 108 80 85
299 146 188 122 68 45
299 146 189 119 72 56
299 147 189 104 78 84
299 146 190 114 79 62
299 147 190 102 87 91
297 148 184 132 73 26
297 148 185 125 76 46
297 149 184 117 87 67
297 149 185 108 91 82
297 148 186 112 85 73
297 149 186 106 93 87
297 150 184 105 96 94
297 150 185 103 102 103
297 151 184 102 103 106
297 151 185 103 108 114
298 148 186 115 81 63
298 148 187 106 90 87
298 149 186 100 101 103
298 149 187 100 104 108
298 150 185 101 105 110
298 151 185 104 110 116
298 150 186 101 109 115
298 150 187 102 109 118
298 151 186 107 111 116
298 151 187 110 108 112
298 148 188 96 93 97
298 148 189 98 92 98
298 149 188 99 106 112
298 149 189 97 101 105
299 148 189 95 91 96
299 149 189 99 104 109
299 148 190 93 97 105
299 149 190 100 105 111
298 150 188 104 109 116
298 151 188 109 103 107
299 150 189 106 106 111
299 151 188 110 102 105
299 151 189 111 98 102
299 150 190 107 106 109
299 151 190 110 98 99
300 144 187 145 63 4
300 144 188 141 61 4
300 144 189 143 64 5
300 145 189 134 66 8
301 144 189 147 66 4
300 145 190 126 67 14
301 144 190 147 70 9
301 144 191 145 70 13
301 145 190 139 69 11
301 145 191 133 64 7
300 146 190 114 77 52
300 147 190 101 94 95
300 147 191 103 95 92
301 146 191 111 71 46
301 147 191 107 100 98
302 144 191 143 64 16
302 145 191 138 60 9
300 148 191 90 100 110
300 149 191 99 106 114
301 148 191 95 104 115
301 149 191 98 108 119
300 150 190 109 108 111
300 150 191 108 109 113
300 151 190 109 96 95
300 151 191 107 95 96
301 150 191 107 109 115
301 151 191 105 93 96
296 152 176 137 57 6
296 152 177 135 61 10
296 153 176 134 56 6
296 153 177 127 59 20
296 152 178 128 65 19
296 152 179 118 67 37
296 153 178 120 67 37
296 153 179 111 77 60
296 154 176 126 56 14
296 154 179 108 86 76
296 152 180 114 78 61
296 152 181 112 83 71
296 153 180 112 89 77
296 153 181 114 88 76
297 152 181 112 84 72
297 153 181 105 92 83
297 152 182 112 92 85
297 152 183 110 98 95
297 153 182 108 94 86
297 153 183 111 98 96
296 154 180 105 92 85
296 155 180 109 100 97
296 155 181 111 91 91
297 154 181 107 96 91
297 155 181 110 91 92
297 154 182 111 91 89
297 154 183 115 78 79
297 155 182 114 66 74
297 155 183 114 59 65
296 156 181 107 59 63
296 157 181 110 44 44
296 156 182 111 43 52
296 156 183 117 37 43
296 157 182 116 41 45
296 157 183 117 37 37
297 156 182 113 50 59
297 156 183 117 36 43
296 158 182 120 40 44
296 158 183 119 37 42
296 159 183 117 28 45
297 152 184 106 106 108
297 152 185 110 110 113
297 153 184 113 104 102
297 153 185 113 102 100
297 154 184 114 77 78
297 154 185 114 54 56
297 155 184 117 57 59
297 155 185 119 33 40
297 154 186 116 28 41
297 155 186 120 29 41
298 152 185 108 110 114
298 152 186 115 110 108
298 152 187 116 96 95
298 153 186 112 76 70
298 153 187 111 54 51
298 154 186 113 33 39
298 154 187 116 32 38
298 155 186 119 11 35
298 155 187 116 16 36
299 152 188 111 78 83
299 152 189 108 69 77
299 153 188 114 37 46
299 153 189 112 33 47
298 154 188 115 24 32
299 154 188 117 28 30
299 154 189 115 27 30
299 155 188 115 28 31
299 155 189 114 38 31
296 157 184 116 34 29
297 156 184 119 31 36
297 156 185 118 24 26
297 157 184 118 31 29
297 157 185 115 34 30
297 156 186 116 22 21
297 157 186 115 34 33
296 158 184 116 38 37
296 158 185 114 28 35
296 159 184 113 33 44
296 159 185 111 33 41
297 158 185 114 33 39
297 159 185 110 37 42
297 158 186 113 29 37
297 159 186 109 32 42
297 159 187 105 39 46
298 156 186 115 19 25
298 156 187 115 23 38
298 157 186 115 36 32
298 157 187 112 32 39
298 158 186 113 33 33
298 158 187 111 36 37
298 159 187 108 40 44
298 156 188 113 27 43
298 157 188 112 32 45
299 156 188 114 29 33
299 156 189 113 38 39
299 157 188 113 26 40
299 157 189 110 37 44
299 157 190 99 46 42
298 158 188 109 39 44
298 158 189 100 43 45
298 159 188 105 42 43
298 159 189 92 39 37
299 158 189 104 38 45
299 159 189 87 37 36
299 158 190 92 45 41
299 159 190 85 42 41
300 152 190 102 71 68
300 152 191 98 67 64
300 153 190 102 44 40
300 153 191 96 42 37
301 152 191 99 69 70
301 153 191 98 50 50
300 154 190 109 38 43
300 154 191 104 45 43
300 155 190 108 37 41
300 155 191 104 40 45
301 154 191 100 45 45
301 155 191 102 41 46
300 156 190 105 41 44
300 156 191 100 33 47
300 157 190 96 43 44
300 157 191 91 35 41
301 156 191 97 36 47
301 157 191 92 36 47
300 158 191 85 40 40
300 159 191 86 48 47
