ply
format ascii 1.0
comment Version 2, Copyright 2017, 8i Labs, Inc.
comment frame_to_world_scale 0.179523
comment frame_to_world_translation -45.2095 7.18301 -54.3561
comment width 1023
element vertex 160
property float x
property float y
property float z
property uchar red
property uchar green
property uchar blue
end_header
304 308 87 135 102 60
304 309 87 132 97 54
304 310 86 140 102 60
304 310 87 135 97 51
304 311 86 145 104 55
304 311 87 135 97 49
304 308 88 132 96 48
304 308 89 137 100 55
304 309 88 135 98 52
304 309 89 141 104 62
305 309 89 141 104 64
304 308 90 146 109 66
304 308 91 153 115 74
304 309 90 147 109 70
304 309 91 151 114 77
305 309 90 147 110 72
305 309 91 151 115 75
304 310 88 136 99 53
304 311 88 136 99 54
305 310 88 140 106 64
305 310 89 144 109 73
305 311 88 140 105 66
305 311 89 147 114 81
305 310 90 149 112 76
305 310 91 153 117 79
305 311 90 149 115 81
305 311 91 153 118 81
306 311 90 150 117 84
306 311 91 153 118 83
304 309 92 152 116 77
304 310 92 154 117 80
304 310 93 150 114 77
304 311 93 151 115 76
305 310 92 155 119 82
305 310 93 154 118 80
305 311 92 156 121 83
305 311 93 155 118 77
304 310 94 149 113 75
304 311 94 151 114 73
305 311 94 153 116 75
304 312 86 150 106 50
304 312 87 140 101 52
304 313 86 157 109 46
304 313 87 147 104 52
305 312 87 141 105 63
305 313 87 144 107 64
304 314 86 161 111 50
304 314 87 152 108 53
304 315 86 166 116 52
305 314 87 153 110 59
305 315 87 162 116 57
306 314 87 148 110 67
306 315 87 158 115 66
304 316 86 170 119 52
304 316 87 172 120 52
304 317 86 182 124 52
304 317 87 179 124 53
305 316 87 167 119 58
305 317 87 171 122 61
304 318 87 186 126 55
304 319 87 194 130 53
305 318 87 174 125 68
305 319 87 180 129 69
306 316 87 158 117 67
306 317 87 167 120 63
306 318 87 174 124 67
306 319 87 193 139 79
305 312 88 141 107 71
305 313 88 146 111 74
306 312 89 151 118 86
306 313 88 147 112 79
306 313 89 150 116 86
306 312 90 153 120 87
306 312 91 154 120 84
306 313 90 153 119 90
306 313 91 155 120 86
307 313 90 152 117 88
307 313 91 154 120 87
306 314 88 148 113 77
306 314 89 149 113 78
306 315 88 150 114 75
306 315 89 148 112 74
307 314 89 149 113 78
307 315 88 149 114 77
307 315 89 146 112 76
306 314 90 149 115 84
307 314 90 151 116 84
307 314 91 154 118 84
307 315 90 148 114 80
307 315 91 152 117 81
305 312 92 156 119 83
305 312 93 157 121 79
304 312 94 151 114 70
304 312 95 150 113 69
304 313 95 150 113 70
305 312 94 154 117 74
305 313 94 156 118 74
305 313 95 155 118 74
305 314 95 153 117 72
306 312 92 156 121 85
306 312 93 157 120 81
306 313 92 157 121 84
306 313 93 158 121 81
307 313 92 157 121 84
306 313 94 159 121 78
307 314 92 157 120 83
307 314 93 158 121 80
307 315 93 156 119 78
306 314 94 160 123 80
306 314 95 157 119 76
306 315 95 159 121 80
307 314 94 159 122 79
307 314 95 158 121 78
307 315 94 158 122 80
307 315 95 160 123 82
306 316 88 154 115 70
306 317 88 161 117 64
307 316 88 151 115 75
307 316 89 148 114 76
307 317 88 153 114 71
307 317 89 151 116 77
307 316 90 146 112 79
306 318 88 166 120 65
306 319 88 174 126 71
307 318 88 158 117 69
307 318 89 152 116 77
307 319 88 167 122 67
307 316 95 159 122 82
308 315 91 152 117 81
308 315 92 156 120 82
308 315 93 155 120 79
308 317 89 149 116 80
308 316 90 146 113 80
308 316 91 150 116 82
308 317 90 148 116 82
308 317 91 151 119 84
308 318 89 152 118 79
308 319 89 152 118 75
308 318 90 149 117 84
308 318 91 148 117 83
308 319 90 148 117 83
309 318 91 149 118 83
309 319 91 148 117 83
308 316 92 154 120 83
308 316 93 156 121 82
308 317 92 154 122 86
308 317 93 155 121 85
308 316 94 158 122 81
308 316 95 159 123 82
308 317 94 158 123 84
308 317 95 158 122 81
309 318 92 152 121 86
309 318 93 154 122 86
309 319 92 152 122 86
309 319 93 155 124 88
308 318 95 160 125 85
309 318 94 157 123 85
309 318 95 158 124 85
309 319 94 157 126 90
309 319 95 158 125 87
