ply
format ascii 1.0
comment Version 2, Copyright 2017, 8i Labs, Inc.
comment frame_to_world_scale 0.179523
comment frame_to_world_translation -45.2095 7.18301 -54.3561
comment width 1023
element vertex 39
property float x
property float y
property float z
property uchar red
property uchar green
property uchar blue
end_header
310 367 112 64 84 104
311 367 112 63 85 104
313 365 112 78 94 112
312 366 112 65 86 106
312 367 112 65 86 107
313 366 112 74 92 111
313 367 112 74 92 111
313 367 113 73 92 112
314 364 112 79 94 111
314 365 112 85 99 116
315 364 112 78 94 111
315 365 112 87 101 117
314 366 112 80 96 114
314 367 113 73 92 111
315 366 112 90 104 120
315 367 113 80 97 115
317 363 112 97 112 128
318 363 112 94 109 130
319 363 112 88 106 128
316 364 112 84 100 117
316 365 112 86 103 120
317 364 112 92 107 125
317 365 112 87 105 125
316 366 112 91 106 124
316 366 113 88 105 124
316 367 113 81 100 120
317 366 112 86 105 125
317 366 113 82 103 123
317 367 113 79 101 122
318 364 112 92 110 129
318 365 112 81 103 124
319 364 112 85 108 131
319 365 112 82 106 129
318 366 112 77 101 123
318 366 113 78 101 124
318 367 113 83 105 127
319 366 112 81 105 129
319 366 113 83 106 129
319 367 113 80 104 128
