ply
format ascii 1.0
comment Version 2, Copyright 2017, 8i Labs, Inc.
comment frame_to_world_scale 0.179523
comment frame_to_world_translation -45.2095 7.18301 -54.3561
comment width 1023
element vertex 356
property float x
property float y
property float z
property uchar red
property uchar green
property uchar blue
end_header
304 416 81 61 87 108
304 417 80 87 103 121
304 417 81 63 90 113
305 416 81 57 86 113
305 417 81 74 97 123
305 416 82 48 84 111
305 417 82 69 95 122
304 418 80 117 127 141
304 418 81 104 117 132
304 419 80 122 130 142
304 419 81 117 125 138
305 418 81 88 105 124
305 419 81 91 107 123
305 418 82 76 98 119
306 416 82 68 97 121
306 417 82 60 91 119
307 416 83 61 93 121
307 417 82 54 87 114
307 417 83 56 87 116
306 419 81 87 103 120
306 418 82 72 95 117
306 419 82 85 102 120
307 418 82 72 95 119
307 419 82 86 102 120
304 420 80 111 119 131
304 421 80 88 105 122
305 420 81 92 106 123
305 421 80 79 98 117
305 421 81 82 100 120
304 422 80 74 97 119
304 423 80 72 97 121
305 422 80 72 97 120
305 422 81 75 98 120
305 423 80 76 100 123
306 420 81 87 102 119
306 421 81 89 104 121
307 421 81 98 111 126
306 420 82 87 103 119
307 420 82 88 103 120
307 421 82 94 107 123
306 422 81 84 103 122
306 423 81 84 103 122
307 422 81 99 111 126
307 423 81 94 108 125
307 422 82 101 112 126
307 423 82 95 107 122
308 416 83 54 87 117
308 417 83 51 85 114
309 417 83 54 85 112
308 418 83 65 90 116
308 419 82 92 106 123
308 419 83 89 105 122
309 418 83 78 96 115
309 419 83 107 116 129
309 416 84 76 99 120
309 417 84 60 87 112
310 416 84 90 104 119
310 417 84 77 95 114
311 416 85 101 111 123
311 417 84 89 102 116
311 417 85 94 107 122
310 418 84 97 105 118
310 419 84 114 121 132
311 418 84 89 102 117
311 419 84 87 104 121
308 420 82 96 108 122
308 420 83 102 113 127
308 421 82 91 104 119
308 421 83 93 107 123
309 420 83 108 117 130
309 421 83 90 108 126
308 422 82 93 106 122
308 423 82 89 104 120
309 422 83 84 101 118
309 423 83 82 99 119
310 420 83 109 119 133
310 421 83 91 107 126
310 422 83 82 98 117
310 423 83 91 104 122
310 420 84 104 114 128
310 421 84 83 101 123
311 420 84 77 96 114
311 421 84 100 112 127
310 422 84 65 87 114
311 422 84 107 117 131
311 423 84 106 116 128
304 424 80 83 105 126
304 425 80 88 107 127
305 424 80 84 104 124
305 425 80 83 103 124
305 426 80 86 105 125
305 427 80 105 118 134
306 424 80 72 96 118
306 424 81 76 98 119
306 425 80 80 100 122
306 425 81 94 109 127
307 424 81 88 103 120
307 425 81 102 113 128
307 424 82 92 106 122
307 425 82 104 113 126
306 426 80 101 114 131
306 426 81 116 124 138
306 427 80 122 128 140
306 427 81 133 135 147
307 426 81 116 122 134
307 427 81 129 131 141
305 428 80 114 122 135
305 429 80 122 131 152
305 430 80 133 140 159
305 431 80 134 142 159
306 428 80 122 127 136
306 428 81 134 136 142
306 429 80 124 128 137
307 428 81 131 132 139
307 429 81 125 128 136
306 430 80 128 135 149
306 430 81 122 127 138
306 431 80 115 129 151
306 431 81 110 124 147
307 430 81 119 124 133
307 431 81 105 116 132
308 424 82 103 114 129
308 425 82 112 118 128
309 424 82 112 117 130
309 424 83 106 113 130
309 425 82 125 130 140
309 425 83 119 123 132
308 427 81 128 130 138
308 426 82 117 121 129
308 427 82 120 125 133
309 426 82 123 126 133
309 426 83 109 114 123
309 427 82 126 130 137
310 424 83 106 115 132
310 425 83 120 127 141
311 425 83 115 121 132
310 426 83 114 119 128
310 427 83 123 127 136
311 426 83 119 126 150
311 427 83 118 124 136
311 424 84 108 118 130
311 425 84 110 118 131
311 426 84 114 119 129
311 427 84 119 128 143
308 428 81 126 129 137
308 429 81 116 122 132
308 428 82 126 131 146
308 429 82 125 131 142
309 428 82 122 126 136
309 429 82 116 123 135
309 429 83 119 128 143
308 430 81 112 118 128
308 431 81 104 112 124
308 430 82 123 128 137
308 431 82 114 123 134
309 430 82 103 112 125
309 431 82 101 113 128
310 428 83 126 131 140
310 429 82 115 121 130
310 429 83 122 130 142
311 428 83 116 120 128
311 429 83 117 124 136
310 430 82 102 113 127
310 430 83 104 119 139
310 431 83 95 112 135
311 430 83 95 112 132
311 431 83 86 107 132
312 416 85 118 122 131
312 417 85 94 107 121
313 417 85 88 103 119
313 416 86 121 124 130
313 417 86 100 111 124
312 418 85 64 88 109
312 419 85 56 82 106
313 418 85 69 89 110
313 419 85 88 101 115
313 418 86 86 101 116
313 419 86 104 111 122
314 416 86 120 123 129
314 416 87 121 125 132
314 417 86 103 114 128
314 417 87 106 117 130
315 416 87 122 125 131
315 417 87 111 119 129
314 418 86 97 106 117
314 418 87 97 106 117
314 419 86 104 110 120
315 418 87 96 107 120
315 419 87 95 105 118
312 420 84 81 96 114
312 420 85 87 102 117
312 421 84 98 108 123
312 421 85 126 128 135
313 420 85 115 119 126
313 421 85 133 132 134
313 420 86 113 116 123
312 422 84 127 130 137
312 422 85 140 140 144
312 423 84 125 127 132
312 423 85 141 141 146
313 422 85 125 127 133
313 423 85 129 132 139
314 420 86 114 117 125
314 421 86 124 126 134
315 420 87 100 108 120
315 421 86 114 120 131
315 421 87 106 114 126
314 422 85 134 134 140
314 423 85 124 127 135
314 422 86 126 129 136
314 423 86 147 146 149
315 422 86 116 123 133
315 422 87 109 117 128
315 423 86 120 126 135
316 416 87 123 125 130
316 417 87 111 117 127
316 418 87 88 101 115
316 419 87 87 101 117
316 420 87 91 104 121
316 421 87 98 112 127
316 422 87 108 117 129
316 423 86 113 120 131
316 423 87 108 117 128
317 422 87 99 113 129
317 423 87 102 115 130
316 416 88 127 127 131
316 417 88 115 119 128
317 416 88 130 130 135
317 417 88 117 122 130
316 418 88 95 108 122
316 419 88 87 102 118
317 418 88 94 106 119
317 418 89 98 109 123
317 419 88 87 101 118
318 416 89 136 135 139
318 417 89 127 129 136
319 416 89 137 136 140
319 416 90 140 140 144
319 417 90 132 132 137
318 418 89 105 115 127
318 419 89 91 105 121
319 418 89 112 118 128
319 419 89 89 105 122
319 418 90 114 119 128
319 419 90 92 103 117
316 420 88 89 104 120
316 421 88 92 106 121
317 420 88 91 105 122
317 421 88 90 104 120
317 422 88 93 107 123
317 423 88 88 106 125
318 420 88 89 106 124
318 420 89 94 108 126
318 421 88 91 105 120
318 421 89 96 110 127
319 420 89 86 104 123
319 421 89 91 105 122
318 422 88 90 105 122
318 422 89 96 107 121
318 423 88 80 98 118
319 422 89 92 105 120
319 423 88 84 100 120
319 423 89 96 107 121
312 424 84 110 116 125
312 424 85 117 121 129
312 425 84 107 114 126
313 424 85 126 131 140
313 425 85 107 114 123
312 426 84 109 117 131
312 427 84 111 118 130
313 426 85 113 119 129
313 427 84 116 121 131
313 427 85 115 120 131
314 424 85 119 125 134
314 425 85 102 111 122
314 424 86 130 132 139
314 425 86 109 115 125
315 424 86 125 128 135
315 425 86 128 130 137
314 426 85 111 118 129
314 427 85 107 119 135
315 426 86 109 117 128
315 427 86 114 121 133
312 429 83 108 116 129
312 430 83 87 105 125
312 431 83 84 102 124
312 428 84 115 125 137
312 429 84 101 118 137
313 428 84 112 120 133
313 428 85 102 115 132
313 429 84 97 113 131
312 430 84 77 105 134
312 431 84 77 102 131
313 430 84 85 107 132
313 431 84 92 110 134
314 428 85 105 117 133
314 429 84 94 112 133
314 429 85 98 115 134
315 428 85 97 117 139
315 429 85 114 123 136
315 428 86 108 122 139
314 430 84 100 114 134
314 430 85 100 115 137
314 431 84 106 115 132
314 431 85 98 115 145
315 430 85 124 129 139
315 431 85 121 128 141
316 424 86 107 116 127
316 424 87 104 114 126
316 425 86 100 110 123
316 425 87 94 107 121
317 424 87 94 109 126
317 425 87 86 103 121
316 426 86 107 116 127
316 427 86 116 125 138
317 426 87 96 110 126
317 427 86 116 124 135
317 427 87 120 128 139
318 427 87 112 121 133
316 429 85 127 130 137
316 428 86 124 130 141
316 429 86 126 130 138
317 428 86 134 139 149
317 428 87 133 135 141
317 429 86 133 134 139
317 429 87 132 133 139
316 430 85 128 133 142
316 431 85 131 133 142
316 430 86 133 135 142
316 431 86 140 143 152
317 430 86 133 133 138
317 430 87 135 135 140
317 431 86 143 143 148
318 428 87 127 131 140
318 429 87 135 135 140
318 430 87 139 139 144
318 431 86 142 142 147
318 431 87 149 148 153
319 430 87 145 144 149
319 431 87 144 145 152
317 424 88 78 101 123
317 425 88 80 102 124
318 424 88 82 101 121
318 425 88 85 104 125
319 424 88 82 101 124
319 424 89 84 103 122
319 425 88 88 104 121
318 426 88 108 119 136
318 427 88 120 127 139
319 426 88 103 112 126
319 427 88 115 123 135
318 428 88 117 124 135
319 428 88 120 127 139
319 429 88 128 132 140
319 430 88 139 140 147
319 431 88 141 142 148
