ply
format ascii 1.0
comment Version 2, Copyright 2017, 8i Labs, Inc.
comment frame_to_world_scale 0.179523
comment frame_to_world_translation -45.2095 7.18301 -54.3561
comment width 1023
element vertex 360
property float x
property float y
property float z
property uchar red
property uchar green
property uchar blue
end_header
304 432 80 161 159 164
304 433 80 158 157 162
305 432 80 140 146 160
305 433 80 148 152 160
304 434 80 148 151 159
304 435 80 136 142 154
305 434 80 135 141 153
305 435 80 125 134 151
306 432 80 117 130 152
306 432 81 97 116 145
306 433 80 123 133 151
306 433 81 118 130 150
307 432 81 87 108 140
307 433 81 116 128 152
306 434 81 124 134 152
306 435 81 123 133 152
307 434 81 136 143 160
307 435 81 134 142 160
307 434 82 144 149 165
307 435 82 145 150 166
304 436 80 124 133 155
304 437 80 128 138 159
305 436 80 122 133 156
305 437 80 137 145 165
304 438 80 123 135 158
304 439 80 124 136 162
305 438 80 133 141 165
305 438 81 145 149 168
305 439 80 127 139 165
306 436 81 127 136 156
306 437 81 143 149 165
307 436 81 136 143 161
307 437 81 141 146 159
306 438 81 154 159 175
306 439 81 155 159 174
307 438 81 151 153 163
307 439 81 165 165 173
307 438 82 151 153 161
307 439 82 161 161 168
308 432 81 92 108 130
308 433 81 121 131 153
308 432 82 94 112 133
308 433 82 115 128 154
309 432 82 103 118 138
309 433 82 107 121 143
308 434 81 133 141 159
308 434 82 123 136 161
308 435 82 127 139 166
309 434 82 125 134 150
309 435 82 138 145 161
309 435 83 131 139 156
310 432 82 110 121 140
310 432 83 105 119 142
310 433 82 112 121 138
310 433 83 115 124 140
311 432 83 89 108 141
311 433 83 113 124 144
310 434 82 120 127 140
310 434 83 123 129 141
310 435 83 147 153 169
311 434 83 136 142 156
311 435 83 143 148 158
308 436 82 144 150 167
308 437 82 147 150 162
309 436 82 150 154 167
309 436 83 150 153 166
309 437 82 146 150 162
309 437 83 148 152 165
308 438 82 147 149 158
308 439 82 169 167 171
309 438 82 122 131 146
309 438 83 125 133 150
309 439 82 129 136 148
309 439 83 122 132 147
310 436 83 152 156 170
310 437 83 142 148 165
311 436 83 133 142 156
311 437 83 135 143 157
310 438 83 134 141 162
310 439 83 127 136 157
311 438 83 127 136 155
311 439 83 115 128 151
311 438 84 125 136 155
311 439 84 118 131 155
304 440 80 135 146 167
304 441 80 142 152 172
305 440 80 135 145 164
305 441 80 132 144 167
304 442 80 113 131 158
304 443 80 105 126 155
305 442 80 112 131 160
305 443 80 106 127 156
306 440 81 150 156 174
306 441 81 128 140 166
307 440 81 164 165 177
307 441 81 142 149 169
307 440 82 165 166 175
307 441 82 142 149 165
306 442 81 112 129 156
306 443 81 102 122 150
307 442 81 111 125 150
307 443 81 94 113 140
307 442 82 110 125 146
307 443 82 94 113 138
304 444 80 107 127 156
304 445 80 89 107 140
305 444 80 104 125 153
305 444 81 95 117 147
305 445 80 80 102 134
305 445 81 70 93 126
304 446 80 91 106 133
304 447 80 84 99 131
305 446 80 85 102 130
305 446 81 88 104 132
305 447 81 96 108 147
306 444 81 89 111 139
306 445 81 79 99 128
307 444 81 88 110 135
307 445 81 93 112 137
307 444 82 92 112 136
307 445 82 101 119 148
306 446 81 101 114 142
306 447 81 108 119 158
307 446 81 110 123 150
307 447 81 110 123 152
307 446 82 114 126 157
307 447 82 110 124 156
308 440 82 165 166 173
308 441 82 140 148 162
309 440 82 148 151 161
309 440 83 141 147 159
309 441 82 137 146 159
309 441 83 130 140 155
308 442 82 109 125 147
308 443 82 98 117 140
309 442 82 113 128 152
309 442 83 99 121 145
309 443 82 98 118 146
309 443 83 94 116 143
310 440 83 129 139 155
310 441 83 121 132 148
311 440 83 121 133 153
310 442 83 93 116 142
310 443 83 86 112 141
311 443 83 83 109 140
310 441 84 105 119 137
311 440 84 125 136 156
311 441 84 111 124 143
311 442 84 91 112 136
311 443 84 86 108 136
308 444 82 95 115 140
308 445 82 98 116 144
309 444 82 93 114 139
309 444 83 92 113 139
309 445 82 96 115 142
309 445 83 98 115 145
308 446 82 107 122 151
308 447 82 108 123 155
309 446 82 103 119 151
309 446 83 100 117 150
309 447 82 106 122 156
309 447 83 104 120 155
310 444 83 93 113 138
310 445 83 97 115 145
311 444 83 92 113 140
311 445 83 98 117 146
310 446 83 101 117 150
310 447 83 103 119 155
311 446 83 101 118 152
311 444 84 93 113 141
311 445 84 99 118 146
311 446 84 99 116 152
311 447 84 103 118 154
312 432 83 109 119 138
312 433 83 121 128 142
312 434 83 129 135 146
312 435 83 139 146 159
312 432 84 110 122 142
312 433 84 128 134 146
313 432 84 120 129 145
313 433 84 129 135 147
312 435 84 143 152 168
313 434 84 139 146 161
313 435 84 142 150 166
313 435 85 134 144 162
314 432 84 118 125 136
314 432 85 119 126 141
314 433 84 124 130 140
314 433 85 144 148 157
315 432 85 126 132 147
315 433 85 131 137 151
314 434 85 154 158 169
314 435 85 137 147 164
315 434 85 147 151 161
315 435 85 126 138 155
315 435 86 121 136 155
312 436 84 133 144 161
312 437 84 122 135 152
313 436 84 127 141 160
313 436 85 124 138 158
313 437 84 115 134 156
313 437 85 146 159 181
312 438 84 125 138 157
312 439 84 104 126 161
313 438 85 127 144 169
313 439 84 120 138 162
313 439 85 118 139 165
314 436 85 126 142 164
314 437 85 106 129 155
315 436 85 115 133 155
315 437 85 103 126 154
315 436 86 130 148 172
315 437 86 101 126 153
314 438 85 112 134 161
314 439 85 122 140 166
315 438 85 112 134 163
314 439 86 122 141 167
315 438 86 109 131 159
315 439 86 125 143 172
316 432 85 135 138 148
316 433 85 131 136 149
316 432 86 138 142 153
316 433 86 137 141 154
317 432 86 151 151 157
317 433 86 143 146 157
316 434 85 111 125 143
316 434 86 120 133 154
316 435 86 110 128 150
317 434 86 105 120 142
317 435 86 82 112 142
318 432 86 151 151 156
318 432 87 147 148 154
318 433 86 146 148 158
318 433 87 134 138 149
319 432 87 142 145 154
319 433 87 119 128 141
318 434 86 122 132 149
318 434 87 109 122 142
318 435 87 91 116 144
319 434 87 98 114 134
316 436 86 108 128 151
316 437 86 105 127 154
317 436 86 102 124 148
317 436 87 95 119 146
317 437 86 110 130 156
317 437 87 112 130 155
316 438 86 109 131 157
316 439 86 121 138 163
316 439 87 124 140 163
317 438 87 117 137 169
317 439 87 126 139 161
318 436 87 95 119 147
318 437 87 114 129 150
318 438 87 113 127 148
318 439 87 126 136 155
319 432 88 124 132 144
319 433 88 96 113 133
319 434 88 97 115 136
319 435 88 107 122 143
318 437 88 124 134 152
319 436 88 129 138 155
319 437 88 153 154 165
318 438 88 129 137 154
318 439 88 144 147 161
319 438 88 151 154 166
319 438 89 167 166 176
319 439 88 158 158 168
319 439 89 166 165 174
312 440 84 123 136 159
312 441 84 116 130 151
312 441 85 110 125 147
313 440 85 122 138 165
313 441 85 104 123 152
312 442 84 94 117 145
312 442 85 106 123 145
312 443 84 88 111 142
313 442 85 99 119 149
313 443 85 99 118 143
314 440 85 110 129 153
314 441 85 107 124 147
314 440 86 109 129 154
314 441 86 105 124 147
315 440 86 118 137 165
315 441 86 111 128 152
314 442 85 122 136 157
314 443 85 115 131 153
314 442 86 121 136 156
315 442 86 128 141 160
315 443 86 129 141 159
312 444 84 94 113 143
312 445 84 104 121 150
312 445 85 107 123 154
313 444 85 95 116 143
313 445 85 107 126 155
312 446 84 98 115 155
312 446 85 98 115 157
312 447 84 103 117 157
312 447 85 104 117 157
313 446 85 99 117 158
313 447 85 100 114 155
314 444 85 100 121 146
314 445 85 108 129 156
314 445 86 109 130 157
315 444 86 107 125 152
315 445 86 108 130 161
314 446 85 106 127 161
314 446 86 102 123 160
314 447 86 93 111 154
315 446 86 107 130 163
315 447 86 94 115 158
316 440 86 122 138 160
316 440 87 127 141 163
316 441 86 113 128 149
316 441 87 123 139 166
317 440 87 139 148 166
317 441 87 134 142 158
316 442 86 111 126 145
316 442 87 108 123 142
316 443 86 113 129 149
316 443 87 103 121 141
317 442 87 129 137 153
317 443 87 116 129 146
318 440 87 154 158 173
318 441 87 147 151 162
318 442 87 146 150 161
316 444 86 102 122 147
316 444 87 94 116 143
316 445 86 110 130 159
316 445 87 106 127 157
317 444 87 96 117 141
317 445 87 103 124 153
316 446 86 113 135 165
316 446 87 111 133 165
316 447 87 95 118 160
317 446 87 111 132 165
317 447 87 95 121 161
318 440 88 148 150 160
318 441 88 142 144 153
319 440 88 144 145 154
319 440 89 133 136 145
319 441 89 114 121 131
318 442 88 147 150 159
318 443 88 142 148 161
319 442 88 145 148 157
319 442 89 117 125 138
319 443 88 144 149 159
319 443 89 127 137 150
317 446 88 112 131 164
317 447 88 94 120 160
318 444 88 114 128 147
318 445 88 101 121 148
319 444 88 123 135 152
319 444 89 120 134 152
319 445 88 101 121 147
319 445 89 98 119 146
318 446 88 114 133 164
318 447 88 100 125 162
319 446 88 115 134 165
319 446 89 116 135 165
319 447 89 106 129 165
