ply
format ascii 1.0
comment Version 2, Copyright 2017, 8i Labs, Inc.
comment frame_to_world_scale 0.179523
comment frame_to_world_translation -45.2095 7.18301 -54.3561
comment width 1023
element vertex 306
property float x
property float y
property float z
property uchar red
property uchar green
property uchar blue
end_header
304 368 90 77 108 137
304 369 90 72 106 136
305 368 90 87 117 145
305 369 90 84 114 143
304 370 90 68 105 137
304 371 90 68 104 137
305 370 90 78 112 142
305 371 90 71 107 138
306 368 90 86 118 146
306 369 90 87 118 146
307 368 90 73 109 138
307 369 90 79 112 140
306 370 90 86 117 146
306 371 90 79 113 143
307 370 90 77 110 140
307 371 90 70 106 136
307 371 91 66 103 135
304 372 90 65 100 134
304 373 90 65 102 134
305 372 90 68 104 136
305 373 90 65 102 133
304 375 89 75 109 137
304 374 90 70 106 135
304 375 90 74 107 135
305 374 90 66 103 134
305 375 90 64 101 132
306 372 90 78 111 142
306 373 90 81 114 144
306 373 91 83 114 142
307 372 90 67 104 134
307 372 91 69 105 136
307 373 91 73 106 136
306 374 90 84 115 143
306 374 91 89 118 145
306 375 90 80 112 140
306 375 91 98 123 147
307 374 91 79 110 139
307 375 91 76 108 137
308 368 90 80 115 145
308 368 91 82 117 147
308 369 90 83 116 145
308 369 91 86 118 147
309 368 91 82 118 149
309 369 91 82 118 148
308 370 91 79 112 142
308 371 91 69 105 138
309 370 91 79 116 146
309 371 91 74 111 143
310 368 91 77 114 146
310 369 91 71 110 143
311 368 91 76 116 149
311 369 91 68 110 146
310 370 91 72 111 143
310 371 91 72 108 140
311 370 91 58 103 140
311 371 91 53 98 136
308 372 91 62 102 135
308 373 91 62 101 134
309 372 91 61 99 132
309 373 91 75 107 137
308 374 91 70 104 135
308 375 91 67 103 135
309 374 91 86 115 142
309 375 91 84 116 144
310 372 91 66 103 136
310 373 91 70 105 137
311 372 91 52 97 134
311 373 91 60 101 137
310 374 91 81 114 143
311 373 92 68 107 142
310 374 92 77 110 140
310 375 92 79 114 143
311 374 92 68 108 143
311 375 92 73 110 143
304 376 89 77 107 133
304 376 90 78 109 135
304 377 90 84 110 135
305 376 90 66 102 131
305 376 91 76 107 135
305 377 91 69 103 132
304 378 90 74 103 130
304 379 90 64 95 125
305 378 91 62 97 128
305 379 91 50 88 122
306 376 91 93 118 143
306 377 91 84 111 137
307 376 91 71 106 135
307 377 91 75 106 134
306 378 91 73 104 133
306 379 91 53 92 125
307 378 91 70 104 133
307 379 91 55 96 132
304 380 90 54 87 121
304 381 90 52 86 118
305 380 90 45 82 120
305 380 91 45 84 120
305 381 90 66 95 127
305 381 91 61 93 126
304 382 90 70 97 121
304 383 90 81 104 127
305 382 90 85 110 137
305 383 90 105 125 150
306 380 91 52 90 125
306 381 91 67 100 136
307 380 91 54 96 136
307 381 91 63 101 140
306 382 90 105 127 151
306 382 91 89 117 146
306 383 90 114 132 156
306 383 91 88 114 142
307 382 91 70 105 138
307 383 91 74 105 135
308 376 91 65 104 135
308 377 91 71 106 136
309 376 91 78 110 139
309 377 91 74 108 138
308 378 91 67 105 135
308 379 91 47 94 131
309 376 92 83 114 143
309 377 92 88 118 146
308 378 92 72 108 139
308 379 92 48 96 134
309 378 92 82 115 145
309 379 92 66 105 139
310 376 92 87 119 149
310 377 92 93 123 152
311 376 92 78 114 146
311 377 92 81 116 147
310 378 92 89 119 149
310 379 92 75 110 143
311 378 92 78 114 145
311 379 92 62 102 138
308 380 91 42 94 134
308 381 91 49 95 135
308 382 91 59 99 133
308 383 91 73 104 131
309 382 91 85 112 140
309 383 91 104 123 144
308 381 92 53 96 139
309 380 92 51 94 134
309 381 92 60 97 134
309 382 92 77 108 138
310 380 92 52 93 132
310 381 92 58 94 132
311 380 92 46 90 129
311 381 92 50 90 130
310 382 92 83 110 140
310 383 92 101 122 143
311 382 92 68 100 132
311 383 92 88 112 139
312 368 91 89 124 155
312 369 91 86 122 154
312 370 91 74 114 149
312 371 91 55 103 140
312 368 92 92 125 155
312 369 92 91 126 155
313 368 92 88 122 152
313 369 92 86 122 152
312 370 92 82 120 152
312 371 92 67 110 145
313 370 92 80 119 152
313 371 92 71 113 148
314 368 92 62 106 142
314 369 92 65 110 144
315 368 92 53 102 140
315 369 92 60 108 145
314 370 92 66 111 147
314 371 92 62 110 148
315 370 92 57 108 146
315 371 92 57 109 148
312 372 92 51 99 137
312 373 92 65 107 143
313 372 92 63 106 145
313 373 92 68 111 149
312 374 92 77 117 151
312 375 92 78 116 149
313 374 92 82 120 154
313 375 92 80 118 152
313 375 93 75 114 148
314 372 92 49 99 142
314 373 92 47 98 141
315 372 92 50 103 144
315 373 92 40 92 138
315 373 93 54 103 144
314 374 92 60 106 144
314 374 93 65 109 144
314 375 93 72 112 146
315 374 93 53 103 139
315 375 93 79 116 146
316 368 92 76 119 156
316 368 93 81 125 161
316 369 92 69 116 155
316 369 93 76 122 160
317 368 93 84 128 164
317 369 93 90 132 168
316 370 92 64 113 152
316 370 93 75 121 159
316 371 92 65 114 153
316 371 93 74 117 155
317 370 93 86 129 165
317 371 93 76 118 154
318 368 93 78 124 162
318 369 93 88 130 166
319 368 93 79 118 155
319 369 93 78 119 154
319 368 94 78 117 152
319 369 94 76 116 149
318 370 93 82 125 160
318 371 93 70 116 152
319 370 94 70 113 148
319 371 94 60 105 143
316 372 93 69 113 151
316 373 93 61 107 146
317 372 93 62 107 145
317 373 93 59 103 141
316 374 93 55 102 140
316 375 93 69 108 142
317 374 93 69 106 141
317 375 93 82 115 145
318 372 93 54 104 143
318 373 93 53 100 137
319 372 93 50 100 140
319 373 93 58 100 138
319 372 94 53 99 138
318 374 93 80 113 144
318 375 93 110 134 160
319 374 93 83 115 148
319 375 93 101 129 158
319 375 94 91 122 154
312 376 92 74 113 146
312 377 92 75 113 145
312 377 93 71 110 143
313 376 93 77 115 148
313 377 93 77 113 145
312 378 92 69 107 139
312 378 93 70 107 139
312 379 92 62 101 136
312 379 93 67 103 136
313 378 93 71 108 140
313 379 93 67 104 138
314 376 93 79 115 147
314 377 93 74 111 143
315 376 93 101 129 156
315 377 93 96 125 152
314 378 93 70 107 140
314 379 93 55 98 133
315 378 93 88 120 148
315 379 93 65 105 138
312 380 92 61 98 132
312 380 93 64 100 133
312 381 92 65 99 130
312 381 93 71 100 132
313 380 93 66 100 134
313 381 93 68 99 133
312 382 92 96 117 142
312 382 93 78 104 131
312 383 92 120 132 150
313 382 92 81 105 132
313 382 93 68 99 130
313 383 92 112 125 141
313 383 93 79 104 129
314 380 93 42 91 130
314 381 93 43 91 132
315 380 93 52 98 137
315 381 93 52 97 139
314 382 93 46 94 135
314 383 93 67 104 138
315 382 93 67 107 144
315 383 93 84 117 149
316 376 93 77 113 144
316 377 93 79 115 146
317 376 93 89 120 149
317 377 93 80 115 146
316 378 93 72 110 143
316 379 93 68 107 140
317 378 93 72 110 143
317 379 93 66 106 140
318 376 93 113 138 163
318 377 93 107 134 160
319 376 93 108 135 162
319 376 94 95 128 157
319 377 94 99 129 158
318 378 93 91 122 150
318 379 93 64 105 139
318 378 94 98 128 156
318 379 94 71 109 142
319 378 94 87 122 152
319 379 94 67 108 144
316 380 93 63 103 139
316 381 93 65 104 142
317 380 93 49 96 134
317 381 93 59 98 136
316 382 93 78 111 144
316 383 93 109 130 155
317 382 93 81 111 144
317 383 93 98 119 148
318 380 93 36 88 131
318 381 93 47 89 132
318 380 94 47 90 133
318 381 94 63 98 139
319 380 94 57 98 140
319 381 94 69 105 144
318 382 94 76 107 142
318 383 94 103 125 155
319 382 94 90 119 153
319 383 94 115 134 164
