ply
format ascii 1.0
comment Version 2, Copyright 2017, 8i Labs, Inc.
comment frame_to_world_scale 0.179523
comment frame_to_world_translation -45.2095 7.18301 -54.3561
comment width 1023
element vertex 46
property float x
property float y
property float z
property uchar red
property uchar green
property uchar blue
end_header
319 562 175 117 130 151
319 563 175 118 131 153
318 565 175 110 123 143
319 564 175 123 136 158
319 565 174 102 119 143
319 565 175 106 122 145
318 566 175 141 146 159
318 567 175 154 155 164
319 566 174 117 127 146
319 566 175 123 132 148
319 567 174 134 140 153
319 569 173 149 149 157
318 568 174 141 144 154
318 568 175 146 149 158
318 569 174 143 148 159
318 569 175 138 144 155
319 568 174 145 148 156
319 569 174 150 152 161
319 570 173 140 144 155
319 571 173 123 132 148
318 570 174 134 142 156
318 570 175 117 128 143
318 571 174 116 130 148
318 571 175 111 126 144
319 570 174 139 146 158
319 571 174 122 133 150
317 573 175 129 139 154
317 574 175 121 133 148
317 575 174 110 123 140
317 575 175 112 124 141
319 572 173 103 119 141
319 573 173 101 118 137
318 572 174 108 125 146
318 572 175 116 131 150
318 573 174 118 131 149
318 573 175 127 138 154
319 572 174 107 123 143
319 573 174 108 123 143
318 575 173 123 134 150
319 574 172 114 127 144
319 574 173 120 131 147
319 575 172 117 129 145
319 575 173 121 132 147
318 574 174 127 137 152
318 574 175 128 138 153
318 575 174 118 131 147
