ply
format ascii 1.0
comment Version 2, Copyright 2017, 8i Labs, Inc.
comment frame_to_world_scale 0.179523
comment frame_to_world_translation -45.2095 7.18301 -54.3561
comment width 1023
element vertex 208
property float x
property float y
property float z
property uchar red
property uchar green
property uchar blue
end_header
304 592 88 106 118 132
304 593 88 133 146 163
304 593 89 136 149 166
305 592 89 102 115 129
305 593 89 126 139 157
304 594 88 130 146 166
304 594 89 148 162 181
304 595 88 129 143 162
305 594 89 135 149 168
305 595 89 131 146 165
306 592 89 102 114 128
306 593 89 116 129 146
306 592 90 99 111 124
306 593 90 103 119 136
307 592 90 95 106 119
307 593 90 90 109 129
306 594 89 126 141 159
306 595 89 132 147 166
306 594 90 113 130 150
306 595 90 122 142 164
307 594 90 100 121 144
307 595 90 125 147 173
304 596 88 133 148 168
304 596 89 132 148 169
304 597 88 132 146 167
304 597 89 126 142 163
305 596 89 132 149 170
305 597 89 124 142 164
304 598 89 125 140 159
304 599 88 126 138 156
304 599 89 126 140 160
305 598 89 125 140 158
305 599 89 126 140 158
305 599 90 130 143 161
306 596 89 125 143 165
306 596 90 115 140 166
306 597 90 137 157 179
307 596 90 122 149 176
307 597 90 162 179 203
306 598 90 145 158 177
306 599 90 138 149 166
307 598 90 159 172 194
307 598 91 173 187 211
307 599 91 145 165 192
308 592 90 88 106 124
308 592 91 93 107 123
308 593 91 86 112 141
309 592 91 89 106 124
309 593 91 84 110 144
308 594 91 94 125 157
308 595 91 130 154 184
309 595 91 109 139 173
309 592 92 83 103 126
309 593 92 78 104 140
309 594 92 82 118 156
309 595 92 115 143 175
310 592 92 77 103 129
310 592 93 74 102 130
310 593 92 87 107 145
311 592 93 71 100 137
311 593 93 107 121 155
311 592 94 85 109 145
311 593 94 115 130 159
310 594 92 96 124 158
310 594 93 98 121 155
310 595 92 101 132 163
310 595 93 110 137 166
311 594 93 129 144 174
311 595 93 120 143 170
311 594 94 132 146 173
311 595 94 131 151 176
308 596 90 131 155 185
308 596 91 143 163 189
308 597 91 170 182 204
308 598 91 172 187 210
308 599 91 152 170 195
308 597 92 175 184 203
309 596 92 144 161 184
309 597 92 170 178 195
308 598 92 161 177 200
308 599 92 149 169 194
309 598 92 156 171 194
309 598 93 149 163 184
309 599 93 141 156 176
310 596 92 130 149 174
310 596 93 148 160 180
310 597 93 160 168 183
311 596 94 151 165 185
311 596 95 163 176 197
311 597 94 158 171 191
311 597 95 162 178 200
310 598 93 143 154 173
310 598 94 137 151 170
310 599 94 149 158 172
311 598 94 138 156 179
311 598 95 111 135 161
311 599 95 155 162 175
304 600 88 126 136 152
304 600 89 126 137 153
304 601 89 124 134 149
305 600 89 129 139 155
305 601 89 128 137 150
305 600 90 128 138 153
305 601 90 136 142 154
304 602 89 138 143 155
304 603 89 147 149 158
304 602 90 145 148 157
304 603 90 150 151 158
305 602 90 146 149 158
305 603 90 149 150 157
305 603 91 151 150 156
306 600 90 134 144 158
306 600 91 136 143 156
306 601 90 141 146 156
306 601 91 152 154 162
307 600 91 149 157 172
307 601 91 182 181 188
306 602 91 151 151 157
306 603 91 149 149 156
307 600 92 180 175 178
307 601 92 183 180 185
306 603 92 148 148 156
307 602 92 155 156 164
307 602 93 136 141 152
307 603 92 152 153 163
307 603 93 160 162 173
304 604 89 156 156 163
304 605 89 156 156 163
304 604 90 153 154 161
304 605 90 155 156 164
304 605 91 158 159 167
305 604 90 154 154 161
305 604 91 153 152 159
305 605 90 157 158 166
305 605 91 159 159 167
304 606 90 164 164 172
304 606 91 164 163 171
304 607 90 166 165 174
304 607 91 162 162 171
305 606 91 162 161 168
306 604 91 151 151 158
306 605 91 159 159 166
304 607 92 163 163 171
305 606 92 163 161 168
305 607 92 165 164 170
306 604 92 151 150 156
306 605 92 155 154 161
306 605 93 152 151 158
307 604 92 150 149 156
307 604 93 153 155 166
307 605 93 147 147 154
307 605 94 141 145 155
306 606 92 160 160 167
306 606 93 158 158 165
306 607 92 165 163 170
306 607 93 162 161 168
307 606 93 159 159 166
306 607 94 152 152 160
307 606 94 162 162 168
307 607 94 170 168 174
307 607 95 175 171 176
308 600 92 160 164 177
308 600 93 177 178 188
308 601 92 190 183 185
308 601 93 183 176 177
309 600 93 177 179 189
309 601 93 197 187 186
309 600 94 192 186 190
309 601 94 185 178 179
308 602 93 146 148 155
308 603 93 163 163 173
308 602 94 154 155 164
308 603 94 169 167 174
309 602 94 162 164 173
309 602 95 172 171 178
309 603 94 173 172 179
309 603 95 177 175 180
310 600 94 190 186 191
310 600 95 194 190 194
310 601 95 194 187 187
311 600 95 185 184 192
310 602 95 183 174 175
310 603 95 177 171 173
308 604 94 157 157 165
308 604 95 143 146 156
308 605 94 139 143 153
308 605 95 137 142 153
309 604 95 160 160 167
309 605 95 131 139 151
308 606 95 152 153 161
308 607 95 163 161 167
309 606 95 124 130 142
312 592 94 89 112 146
312 593 94 117 135 160
312 593 95 123 140 162
313 592 94 110 128 156
313 592 95 120 134 162
313 593 95 128 143 166
312 594 94 136 153 176
312 594 95 133 148 170
312 595 94 138 156 181
312 595 95 165 177 198
313 594 95 153 166 185
313 595 95 171 180 197
314 592 95 127 138 164
312 596 95 168 179 198
312 597 95 164 177 197
312 598 95 116 136 158
