ply
format ascii 1.0
comment Version 2, Copyright 2017, 8i Labs, Inc.
comment frame_to_world_scale 0.179523
comment frame_to_world_translation -45.2095 7.18301 -54.3561
comment width 1023
element vertex 236
property float x
property float y
property float z
property uchar red
property uchar green
property uchar blue
end_header
309 496 175 59 85 123
309 497 175 81 104 129
311 496 173 87 107 145
311 497 173 98 117 146
310 496 174 116 131 152
310 496 175 85 104 135
310 497 174 123 137 155
310 497 175 109 126 146
311 496 174 119 131 155
311 497 174 115 130 153
311 498 173 100 121 149
310 498 174 120 135 155
310 498 175 114 131 149
310 499 174 104 122 148
310 499 175 111 128 151
311 498 174 104 123 147
311 499 174 88 111 143
310 500 175 77 99 134
310 501 175 67 94 135
311 500 174 68 97 138
311 501 174 75 103 146
310 502 175 83 110 146
310 503 175 92 121 156
311 502 174 89 115 155
311 502 175 94 120 154
311 503 174 105 128 164
311 503 175 110 135 165
310 504 175 55 95 143
310 505 175 42 83 135
311 504 174 111 134 167
311 504 175 90 118 156
311 505 174 73 105 148
311 505 175 57 94 141
311 506 174 59 96 143
311 506 175 71 100 144
311 507 175 82 105 149
311 508 175 45 76 136
311 509 175 30 70 136
311 510 175 49 81 142
311 511 175 62 89 146
318 496 167 91 108 131
318 497 167 98 114 137
319 496 166 70 93 123
319 496 167 76 97 126
319 497 167 76 97 127
319 498 167 70 94 125
319 499 167 62 88 123
313 496 171 115 130 155
313 497 171 127 142 163
313 498 171 111 129 156
314 496 170 115 129 155
314 496 171 118 131 156
314 497 170 120 134 158
314 497 171 122 137 160
315 496 170 87 106 139
315 497 170 92 112 141
314 498 171 99 120 149
314 499 171 74 103 143
315 498 170 100 120 147
315 499 170 114 134 161
312 496 172 75 98 140
312 496 173 64 92 137
312 497 172 96 118 147
312 497 173 80 105 142
313 496 172 106 123 152
313 497 172 114 131 155
312 498 172 92 114 144
312 498 173 100 122 151
312 499 172 106 126 154
312 499 173 121 140 165
313 498 172 95 115 145
313 499 172 82 107 145
314 500 171 66 100 143
314 501 171 62 96 143
315 500 170 112 136 164
315 500 171 107 131 162
315 501 170 76 108 147
315 501 171 80 110 150
314 502 171 38 78 135
314 503 171 38 76 136
315 502 171 49 84 138
315 503 171 43 80 135
312 500 173 112 133 162
312 501 173 101 123 156
313 500 172 85 110 150
313 500 173 127 144 169
313 501 172 83 108 150
313 501 173 116 134 164
312 500 174 87 113 151
312 501 174 78 105 148
312 502 173 73 98 144
312 503 173 57 87 142
313 502 172 56 84 141
313 502 173 75 97 146
313 503 172 43 75 139
313 503 173 44 75 139
312 502 174 68 97 144
312 503 174 108 130 165
314 501 172 48 86 138
314 502 172 30 71 134
314 503 172 43 77 138
316 496 169 92 112 142
316 497 169 102 120 148
317 496 168 116 130 151
317 497 168 103 120 146
316 498 169 103 121 149
316 499 169 86 108 139
317 498 168 84 105 136
317 498 169 73 96 133
317 499 168 64 88 126
317 499 169 71 94 131
316 498 170 130 144 165
316 499 170 121 138 161
318 496 168 110 124 144
318 497 168 108 123 145
318 498 168 91 109 136
318 499 168 71 94 128
319 499 168 63 88 124
316 500 169 78 105 138
316 501 169 88 113 144
317 500 169 90 109 139
317 501 169 105 123 149
316 500 170 82 112 145
316 501 170 59 96 137
316 502 169 116 134 159
317 502 169 99 119 146
317 503 169 67 93 130
316 502 170 65 97 140
316 503 170 88 111 146
318 500 168 76 98 132
318 501 168 70 94 130
318 501 169 81 102 135
319 500 168 52 80 120
319 501 168 47 74 119
318 502 168 46 74 121
318 502 169 64 90 129
318 503 169 38 65 118
319 502 168 40 66 116
319 503 168 36 60 115
319 503 169 32 59 115
315 504 171 44 82 134
315 505 171 40 78 131
315 506 171 40 74 128
315 507 171 48 75 130
312 504 173 56 88 144
312 505 173 50 88 141
313 504 172 57 88 144
313 504 173 49 85 142
313 505 172 58 90 144
313 505 173 49 86 141
312 504 174 93 118 157
312 505 174 68 100 147
313 506 173 48 86 139
313 507 173 56 90 143
312 506 174 61 94 144
312 507 174 72 97 148
313 507 174 40 78 138
314 504 172 60 90 144
314 505 172 62 91 144
314 506 172 63 93 144
314 507 172 67 97 145
315 506 172 45 78 134
315 507 172 52 81 135
315 508 171 55 83 132
313 508 173 64 98 144
313 509 173 96 122 150
312 508 174 39 75 137
312 509 174 51 86 138
312 509 175 34 74 136
313 508 174 46 83 139
313 509 174 67 98 141
313 510 173 134 150 168
313 511 173 121 139 161
312 510 174 83 109 148
312 510 175 61 90 144
312 511 174 86 109 150
312 511 175 66 92 145
313 510 174 102 124 154
313 511 174 102 124 155
314 508 172 70 101 143
314 508 173 83 112 146
314 509 172 112 131 155
314 509 173 115 135 157
315 508 172 62 91 137
315 509 172 90 110 144
314 510 172 136 149 165
314 510 173 146 158 172
314 511 172 109 126 148
314 511 173 119 136 156
315 510 172 109 124 149
315 511 172 85 103 137
317 504 169 57 85 126
317 505 169 71 92 129
316 504 170 66 97 132
316 504 171 57 91 135
316 505 170 68 94 132
316 505 171 47 82 129
317 504 170 56 88 125
317 505 170 78 100 134
316 506 170 86 104 140
316 506 171 59 84 130
316 507 170 57 79 127
316 507 171 51 75 127
317 506 170 68 87 127
317 507 170 37 66 118
318 504 169 47 71 120
318 505 169 51 72 118
319 504 169 40 66 115
319 505 169 40 65 112
318 506 169 33 57 110
318 507 169 21 58 115
319 506 169 37 59 111
319 507 169 31 59 114
318 507 170 25 57 113
316 508 170 36 66 121
316 508 171 40 69 125
316 509 171 60 84 133
317 508 170 36 68 122
317 509 170 52 81 129
317 509 171 57 84 132
316 510 171 67 88 133
316 511 171 57 79 129
317 510 170 56 82 130
317 510 171 51 77 129
317 511 171 42 67 125
319 508 169 36 67 117
318 508 170 37 70 121
318 509 170 58 85 127
319 508 170 46 75 121
319 509 170 57 83 123
318 510 170 55 82 126
318 511 170 48 72 120
318 511 171 42 68 121
319 510 170 47 76 117
319 511 170 35 61 109
316 511 172 63 82 129
