ply
format ascii 1.0
comment Version 2, Copyright 2017, 8i Labs, Inc.
comment frame_to_world_scale 0.179523
comment frame_to_world_translation -45.2095 7.18301 -54.3561
comment width 1023
element vertex 135
property float x
property float y
property float z
property uchar red
property uchar green
property uchar blue
end_header
319 610 128 55 69 83
319 610 129 56 69 83
319 611 128 54 68 82
319 611 129 56 70 83
319 610 130 57 70 83
319 610 131 56 68 81
319 611 130 59 71 83
319 611 131 61 72 84
319 610 132 59 71 83
319 610 133 64 73 85
319 611 132 64 74 85
319 611 133 68 76 86
319 610 134 69 77 87
319 610 135 70 77 86
319 611 134 70 76 85
319 611 135 66 73 81
318 612 128 54 69 83
318 613 128 56 70 84
318 613 129 63 74 86
319 612 128 54 69 83
319 612 129 59 72 85
318 612 131 65 73 83
318 613 130 67 77 88
318 613 131 66 74 83
319 612 130 65 76 88
319 612 131 65 74 84
318 614 128 66 76 87
318 614 129 67 76 87
318 615 128 68 77 86
318 615 129 66 74 84
319 615 129 68 75 83
318 614 130 67 75 84
318 614 131 65 72 81
318 615 130 65 72 80
318 615 131 64 71 79
319 615 130 67 73 80
319 615 131 66 72 79
318 612 132 64 72 81
318 613 132 63 70 79
318 613 133 63 70 78
319 612 132 65 73 83
319 612 133 65 73 82
319 613 133 64 72 81
318 612 134 65 71 78
318 612 135 66 72 80
318 613 134 64 70 78
318 613 135 64 70 78
319 612 134 68 73 81
319 612 135 66 71 79
318 614 132 63 69 77
318 614 133 63 69 78
318 615 132 63 69 76
318 615 133 64 69 77
319 615 132 65 70 78
318 614 134 62 68 76
318 614 135 63 68 75
318 615 134 61 67 74
318 615 135 55 61 69
319 609 137 66 75 85
319 609 138 67 76 87
319 609 139 70 79 89
319 610 136 64 73 82
319 610 137 63 71 81
319 611 136 65 71 80
319 611 137 71 76 84
318 611 138 71 75 82
318 611 139 70 74 81
319 610 138 68 74 83
319 610 139 72 78 86
319 611 138 73 78 85
319 611 139 72 76 83
319 609 140 70 79 90
319 609 141 70 79 90
319 609 142 72 81 92
319 609 143 70 79 90
318 611 140 69 74 81
318 611 141 67 73 80
319 610 140 72 78 86
319 610 141 70 76 84
318 611 142 65 71 80
318 611 143 64 71 79
319 610 142 67 75 84
319 610 143 64 72 81
318 612 136 67 72 80
318 612 137 67 73 80
318 613 136 64 70 77
318 613 137 62 68 75
319 612 136 67 73 80
318 612 138 68 72 79
318 612 139 67 72 78
318 613 138 59 65 73
318 613 139 59 64 72
318 614 136 62 67 74
318 614 137 61 65 72
318 615 136 56 61 68
318 615 137 56 60 66
318 614 138 59 64 70
318 614 139 59 63 68
318 615 138 56 60 64
318 615 139 56 59 63
319 615 139 58 60 63
318 612 140 66 71 78
318 612 141 65 70 78
318 613 140 61 67 74
318 613 141 64 68 74
318 612 142 64 70 77
318 612 143 64 70 77
318 613 142 67 70 75
318 613 143 65 68 74
318 614 140 61 64 70
318 614 141 62 65 69
319 615 140 62 62 65
319 615 141 64 64 67
318 614 142 65 67 72
319 614 142 64 66 69
319 614 143 65 66 69
319 615 142 66 66 68
318 616 128 70 76 84
319 616 128 71 78 87
319 616 129 69 75 83
319 616 130 68 74 82
319 616 131 68 73 80
318 616 133 63 68 75
319 616 132 63 68 76
319 616 133 61 66 74
318 616 134 60 65 72
318 616 135 54 60 66
319 616 134 61 65 72
319 616 135 59 63 70
318 616 136 55 59 65
318 616 137 58 60 65
319 616 136 58 61 67
319 616 137 59 62 66
319 616 138 59 61 65
319 616 139 60 62 65
