ply
format ascii 1.0
comment Version 2, Copyright 2017, 8i Labs, Inc.
comment frame_to_world_scale 0.179523
comment frame_to_world_translation -45.2095 7.18301 -54.3561
comment width 1023
element vertex 154
property float x
property float y
property float z
property uchar red
property uchar green
property uchar blue
end_header
315 578 175 153 147 149
315 579 175 149 144 145
315 580 175 144 139 140
315 581 175 147 142 143
314 582 175 152 145 145
314 583 175 155 149 149
315 582 175 146 141 144
315 583 175 146 141 143
319 579 171 114 125 140
316 576 175 95 105 119
316 577 175 124 126 134
317 576 174 101 115 131
317 576 175 99 111 126
317 577 174 101 111 126
317 579 173 137 137 144
316 578 174 145 143 147
316 578 175 150 146 148
316 579 174 150 146 149
316 579 175 152 147 150
317 578 174 122 127 137
317 579 174 146 143 146
318 576 173 113 127 146
318 577 173 104 121 140
319 576 172 113 127 143
319 576 173 119 130 146
319 577 172 122 135 151
319 577 173 111 126 145
318 576 174 105 121 139
318 577 174 91 110 131
318 578 173 93 110 130
318 579 173 114 122 136
319 578 172 110 125 144
319 578 173 104 121 141
319 579 172 107 119 136
319 581 171 119 126 138
319 582 171 131 133 142
319 583 171 143 141 145
317 580 173 142 140 144
317 581 173 143 140 144
316 580 174 153 147 150
316 580 175 152 146 148
316 581 174 153 147 148
316 581 175 151 146 148
317 580 174 149 145 148
317 581 174 148 144 146
317 582 173 148 144 147
317 583 173 148 145 149
316 582 174 150 145 147
316 583 174 141 138 142
318 580 172 113 122 136
318 580 173 122 127 137
318 581 172 119 125 137
318 581 173 127 131 140
319 580 172 114 123 137
319 581 172 116 123 135
318 582 172 132 132 138
318 582 173 133 132 139
318 583 172 143 140 144
319 582 172 131 131 137
319 583 172 140 138 142
319 590 167 138 131 131
319 591 167 139 132 131
314 584 175 153 145 145
314 585 175 149 142 143
315 584 175 148 142 143
315 585 174 144 139 141
315 585 175 150 145 145
314 586 175 139 135 138
314 587 175 137 133 136
315 586 174 150 144 146
315 586 175 146 141 143
315 587 174 151 145 144
315 587 175 143 138 138
313 589 175 149 142 142
313 590 175 147 141 141
313 591 175 140 134 135
315 588 173 145 137 134
315 589 173 142 135 134
314 588 175 134 129 130
314 589 174 139 133 133
314 589 175 142 135 135
315 588 174 145 138 137
315 588 175 137 131 131
315 589 174 140 134 133
315 590 173 139 132 132
315 591 173 134 129 131
314 590 174 142 135 134
314 590 175 148 140 139
314 591 174 141 134 134
314 591 175 146 138 137
315 590 174 140 133 132
318 585 171 149 141 140
319 584 170 140 136 138
319 584 171 146 141 143
319 585 170 139 134 136
319 585 171 145 139 139
319 587 169 127 123 124
318 586 171 142 136 136
318 587 170 130 126 128
318 587 171 136 131 132
319 586 170 134 129 131
319 586 171 142 136 137
319 587 170 130 126 128
316 584 173 141 138 142
316 585 173 137 133 134
317 584 173 149 145 147
317 585 172 150 144 144
317 585 173 144 138 139
316 584 174 137 134 137
316 585 174 135 132 134
316 586 173 143 137 138
316 587 173 149 141 140
317 586 172 144 137 137
317 586 173 141 134 134
317 587 172 141 135 135
317 587 173 144 137 136
316 586 174 146 140 142
316 587 174 151 144 144
318 584 172 149 144 145
318 585 172 151 144 143
318 586 172 146 138 136
318 587 172 142 135 134
317 588 171 136 131 133
317 589 171 131 126 127
316 591 171 135 129 130
317 590 170 127 123 124
317 590 171 133 127 127
317 591 170 133 128 129
317 591 171 134 129 130
318 589 169 135 130 131
319 588 169 133 128 128
319 589 168 139 132 132
319 589 169 138 132 133
318 588 170 135 131 132
318 588 171 136 131 133
318 589 170 131 126 127
318 589 171 134 128 129
319 588 170 133 128 130
318 590 169 135 129 130
318 591 168 139 133 133
318 591 169 137 130 130
319 590 168 139 133 133
319 590 169 138 132 133
319 591 168 139 133 133
318 590 170 129 125 126
316 588 173 147 138 136
316 589 172 139 131 130
316 589 173 142 134 132
317 588 172 140 134 134
317 589 172 138 131 131
316 590 172 135 128 128
316 590 173 138 131 131
316 591 172 132 126 127
316 591 173 132 127 129
