ply
format ascii 1.0
comment Version 2, Copyright 2017, 8i Labs, Inc.
comment frame_to_world_scale 0.179523
comment frame_to_world_translation -45.2095 7.18301 -54.3561
comment width 1023
element vertex 65
property float x
property float y
property float z
property uchar red
property uchar green
property uchar blue
end_header
313 655 189 153 175 202
312 655 191 114 155 192
313 654 190 115 156 192
313 654 191 112 158 196
313 655 190 130 162 195
313 655 191 116 156 193
314 653 190 113 159 199
314 653 191 121 167 207
315 652 191 125 168 206
315 653 190 108 155 194
315 653 191 117 163 202
314 654 189 123 158 191
314 655 189 142 168 196
315 654 188 94 144 183
315 654 189 105 151 188
315 655 188 101 146 182
314 654 190 116 157 193
314 654 191 113 161 201
315 654 190 108 154 192
316 651 191 118 165 204
317 651 190 109 159 201
317 651 191 107 157 199
318 651 189 90 150 194
319 651 188 74 139 185
319 651 189 81 145 191
318 650 190 118 161 200
318 650 191 119 162 200
318 651 190 109 158 199
318 651 191 118 162 201
319 650 190 105 155 196
319 650 191 120 162 200
319 651 190 97 152 196
317 653 187 89 146 189
316 655 187 95 143 181
317 654 187 93 145 186
317 655 186 85 136 176
317 655 187 100 145 183
318 652 187 72 137 183
318 653 186 66 129 176
318 653 187 74 137 182
319 652 187 76 137 181
319 653 186 74 135 180
319 653 187 71 135 180
318 655 185 79 138 182
319 654 185 85 143 186
319 655 185 89 144 187
318 654 186 68 131 178
318 655 186 77 137 181
319 654 186 71 135 182
316 652 189 96 151 194
316 653 189 99 152 194
317 652 188 78 144 190
317 652 189 90 150 195
317 653 188 93 150 193
316 652 190 108 158 198
316 652 191 136 175 211
316 653 190 102 154 195
317 652 190 98 154 198
316 654 188 95 147 188
316 654 189 92 148 191
316 655 188 96 143 182
317 654 188 98 150 192
318 652 188 76 141 187
318 652 189 87 149 194
319 652 188 75 138 184
