ply
format ascii 1.0
comment Version 2, Copyright 2017, 8i Labs, Inc.
comment frame_to_world_scale 0.179523
comment frame_to_world_translation -45.2095 7.18301 -54.3561
comment width 1023
element vertex 221
property float x
property float y
property float z
property uchar red
property uchar green
property uchar blue
end_header
309 775 159 197 142 112
310 775 159 197 144 112
311 774 159 196 143 111
311 775 159 196 143 110
304 779 159 198 143 109
305 779 159 198 144 111
307 777 159 197 142 108
306 778 159 198 144 110
306 779 158 197 144 109
306 779 159 198 144 110
307 778 159 197 143 109
307 779 158 197 144 108
307 779 159 197 143 108
304 780 159 199 144 111
304 781 158 199 146 113
304 781 159 200 146 114
305 780 158 198 144 111
305 780 159 199 144 112
305 781 158 199 146 112
304 783 157 199 146 111
305 782 157 197 143 108
305 783 157 198 144 110
304 782 158 198 145 110
304 783 158 198 144 109
305 782 158 198 144 109
307 781 157 198 146 110
306 780 158 198 145 110
306 781 158 199 147 112
307 780 158 198 146 109
307 781 158 198 146 111
306 782 157 198 144 110
306 783 156 198 144 111
306 783 157 197 143 109
307 782 157 196 144 109
307 783 156 197 145 111
307 783 157 197 144 110
308 776 159 196 141 111
308 777 159 197 142 110
309 776 159 196 141 110
309 777 158 196 144 111
309 777 159 195 142 109
309 779 157 195 143 109
308 778 158 197 144 109
308 778 159 197 143 110
308 779 158 197 145 109
309 778 158 196 144 110
309 779 158 196 145 110
310 776 159 197 144 112
310 777 158 196 144 110
311 776 158 197 145 112
311 776 159 197 144 111
311 777 158 196 145 112
310 779 157 194 141 108
311 778 157 195 143 110
311 779 157 195 143 110
310 778 158 196 143 110
311 778 158 195 144 111
309 783 155 196 146 112
310 783 155 195 144 110
311 782 155 195 144 108
311 783 155 196 145 109
308 780 157 197 145 110
308 781 157 197 145 110
309 780 157 195 142 108
309 781 156 193 141 106
309 781 157 194 141 107
308 780 158 197 146 109
308 782 156 197 145 111
308 782 157 196 144 110
308 783 156 197 145 111
309 782 156 195 143 109
309 783 156 195 145 111
310 780 157 193 141 108
310 781 156 194 142 108
311 780 156 197 146 113
311 780 157 196 144 111
311 781 156 197 146 112
310 782 156 195 143 108
310 783 156 195 144 110
311 782 156 195 143 108
314 771 159 198 145 111
315 771 159 198 146 112
312 773 159 197 142 111
313 772 159 197 143 111
313 773 159 197 143 111
312 774 159 196 141 108
312 775 158 197 144 111
312 775 159 196 141 108
313 774 158 198 146 111
313 774 159 197 143 110
313 775 158 197 145 111
314 772 159 198 146 111
314 773 158 197 145 109
314 773 159 197 145 109
315 772 159 198 146 111
315 773 158 198 145 110
315 773 159 198 145 110
314 775 157 198 147 111
315 775 157 198 146 112
314 774 158 198 146 110
314 775 158 198 147 111
315 774 158 198 146 111
315 775 158 199 147 113
316 770 159 198 146 110
316 771 159 198 146 111
317 770 159 195 143 107
317 771 159 197 144 110
319 769 159 192 140 105
318 770 159 194 142 107
318 771 158 196 143 109
318 771 159 195 143 108
319 770 159 194 142 106
319 771 158 195 143 110
319 771 159 196 144 110
316 772 158 198 144 111
316 772 159 198 145 111
316 773 158 198 145 112
317 772 158 197 143 111
317 773 158 197 143 112
316 775 157 197 145 112
317 774 157 197 144 112
317 775 157 197 145 113
316 774 158 197 145 111
317 774 158 197 144 112
319 773 157 194 143 110
318 772 158 196 144 111
318 773 158 195 143 111
319 772 158 195 144 111
319 773 158 194 144 111
318 774 157 194 142 110
318 775 157 196 145 112
319 774 157 194 143 111
319 775 157 196 146 113
312 777 157 196 144 109
313 776 157 199 148 112
313 777 157 198 147 111
312 776 158 197 145 112
312 777 158 196 144 111
313 776 158 198 147 112
312 778 157 196 144 110
312 779 156 198 146 110
312 779 157 197 145 110
313 778 157 198 147 111
313 779 156 197 145 107
313 779 157 198 146 109
314 776 157 198 147 112
314 777 157 198 147 111
315 776 157 198 147 113
315 777 157 198 146 113
314 778 156 197 145 109
314 778 157 198 145 109
314 779 156 198 146 110
315 778 156 198 147 114
315 778 157 198 147 113
315 779 156 198 147 113
313 781 155 199 147 111
312 782 155 198 145 108
312 783 155 199 147 111
313 782 155 199 148 110
313 783 154 199 147 111
313 783 155 200 149 113
314 780 155 200 150 113
314 781 155 199 149 111
315 780 155 199 150 113
315 781 155 199 150 113
314 782 155 199 149 111
314 783 154 198 148 111
314 783 155 199 148 111
315 782 155 198 148 111
315 783 154 199 149 113
315 783 155 199 149 112
312 780 156 199 148 113
312 781 156 200 148 113
313 780 156 199 147 110
313 781 156 201 148 112
312 782 156 197 144 108
314 780 156 200 148 113
315 780 156 198 148 112
319 779 155 197 148 113
316 776 157 197 145 112
316 777 156 198 148 114
316 777 157 198 147 113
317 776 156 198 149 115
317 776 157 199 149 115
317 777 156 198 149 114
317 777 157 199 149 115
316 778 156 198 148 114
316 779 156 198 149 114
317 778 156 199 150 114
317 779 156 198 150 114
318 776 156 197 147 112
318 776 157 197 147 113
318 777 156 198 148 113
319 776 156 198 148 114
319 777 156 198 149 113
318 778 156 198 149 113
318 779 156 198 150 113
319 778 156 197 148 112
319 779 156 197 148 112
316 780 155 199 150 114
316 781 155 198 149 112
317 780 155 199 150 114
317 781 155 197 148 112
316 782 155 197 148 111
316 783 154 199 151 114
316 783 155 198 148 112
317 782 155 197 148 112
317 783 154 198 151 115
317 783 155 197 149 113
318 780 155 197 148 112
318 781 155 195 147 111
319 780 155 196 147 113
319 781 155 196 147 115
318 782 155 196 147 112
318 783 154 197 150 114
318 783 155 196 149 113
319 782 155 195 147 114
319 783 154 195 147 111
319 783 155 194 147 111
316 780 156 198 149 114
317 780 156 199 150 114
