ply
format ascii 1.0
comment Version 2, Copyright 2017, 8i Labs, Inc.
comment frame_to_world_scale 0.179523
comment frame_to_world_translation -45.2095 7.18301 -54.3561
comment width 1023
element vertex 254
property float x
property float y
property float z
property uchar red
property uchar green
property uchar blue
end_header
304 131 195 95 88 83
304 130 196 105 96 90
304 130 197 104 95 90
304 131 196 100 92 86
304 131 197 104 95 88
304 130 198 105 96 92
304 130 199 106 97 92
304 131 198 104 96 90
304 131 199 105 96 92
305 131 198 104 95 89
305 131 199 102 93 89
304 133 193 99 88 78
304 132 194 88 81 74
304 132 195 89 82 77
304 133 194 90 82 74
304 133 195 88 80 73
304 134 193 107 89 66
304 135 192 120 73 19
304 135 193 120 79 29
304 134 194 101 84 63
304 134 195 96 80 62
304 135 194 118 76 33
304 135 195 115 76 35
304 132 196 93 86 81
304 133 196 88 81 76
305 132 196 94 87 82
305 132 197 97 89 84
305 133 196 93 86 80
305 133 197 95 88 82
305 132 198 96 88 84
305 132 199 96 88 84
305 133 198 92 86 82
305 133 199 91 85 81
304 134 196 99 85 67
304 135 196 114 81 38
305 134 197 101 89 74
305 135 197 112 89 54
305 134 198 97 88 78
305 134 199 90 81 77
305 135 198 111 87 56
306 134 199 93 82 73
306 135 199 99 79 55
304 129 202 100 92 88
304 129 203 104 95 90
304 130 200 101 91 87
304 130 201 102 92 87
304 131 200 106 96 91
304 131 201 105 96 89
305 131 200 106 98 91
305 131 201 106 97 91
304 130 202 101 91 87
304 130 203 102 93 89
305 130 203 97 88 84
305 131 202 100 90 86
305 131 203 94 85 82
306 131 203 92 83 81
304 129 204 103 95 89
304 129 205 105 96 90
304 129 206 105 96 90
304 129 207 104 94 89
304 130 204 103 94 89
305 130 204 98 90 84
305 130 205 105 95 90
305 131 204 95 86 81
304 130 206 109 99 93
304 130 207 109 98 93
305 130 206 110 100 94
305 130 207 113 102 96
305 131 207 116 104 98
306 131 204 90 83 79
306 131 205 96 87 80
306 131 206 106 96 88
306 131 207 116 104 95
305 132 200 99 92 86
305 132 201 106 99 92
305 133 200 93 86 83
305 132 202 102 95 89
306 132 201 105 98 92
306 133 200 94 87 83
306 133 201 97 92 86
306 132 202 102 95 89
306 132 203 93 87 83
306 133 202 101 95 89
306 133 203 99 92 85
306 134 200 93 84 76
306 134 201 100 89 78
306 135 200 94 74 55
306 135 201 101 82 61
306 134 202 103 93 82
306 134 203 105 93 82
306 135 202 106 87 64
307 134 203 104 91 79
307 135 202 107 85 57
307 135 203 107 84 60
306 132 204 89 83 80
306 132 205 88 81 77
306 133 204 90 83 79
306 133 205 84 79 76
307 133 204 92 83 76
307 133 205 83 76 72
306 132 206 95 87 81
306 132 207 110 100 91
307 132 207 102 94 86
307 133 206 89 82 75
307 133 207 101 92 84
307 134 204 103 88 74
307 134 205 97 80 67
307 135 204 105 79 52
307 135 205 106 75 47
307 134 206 96 83 70
307 134 207 104 92 78
307 135 206 111 80 50
307 135 207 117 89 59
304 136 192 134 64 4
304 136 193 136 65 5
304 137 192 143 63 3
304 137 193 146 65 4
304 136 194 139 61 4
304 136 195 139 62 9
304 137 194 148 62 4
304 137 195 147 57 4
304 138 195 146 61 3
304 139 195 145 62 3
304 136 196 138 67 13
304 136 197 132 74 14
304 137 196 144 52 3
304 137 197 140 53 3
305 136 197 127 74 16
305 137 197 139 56 5
305 136 198 123 70 15
305 136 199 120 66 16
305 137 198 135 58 5
305 137 199 127 56 2
304 138 196 143 60 3
304 138 197 137 55 3
304 139 196 141 58 3
304 139 197 134 53 3
305 138 197 134 53 2
305 139 197 131 50 9
305 138 198 130 54 2
305 138 199 125 57 2
305 139 198 127 53 14
305 139 199 123 55 3
306 136 199 113 65 23
306 137 199 122 54 3
306 138 199 121 56 2
306 139 199 119 55 0
304 140 195 142 59 11
304 141 195 142 61 5
304 142 195 138 60 3
304 143 195 133 61 4
304 140 196 141 56 4
304 141 196 137 54 5
304 141 197 135 52 2
305 140 197 131 51 8
305 141 197 128 51 5
305 140 198 125 47 25
305 140 199 121 50 14
305 141 198 120 48 13
304 142 196 132 54 7
304 143 196 131 58 3
305 142 197 123 48 6
305 143 196 127 52 5
305 143 197 122 50 14
305 142 198 117 47 5
305 143 198 117 47 10
306 140 199 120 48 12
306 141 199 116 46 16
306 142 198 117 50 8
306 142 199 113 48 8
306 143 198 115 47 6
306 143 199 112 48 4
306 136 200 106 61 18
306 136 201 103 66 30
306 137 200 117 50 5
306 137 201 115 51 2
307 136 201 106 62 23
307 137 201 114 50 4
307 136 202 106 70 32
307 136 203 107 72 32
307 137 202 113 56 3
307 137 203 114 58 3
306 138 200 118 56 2
306 138 201 116 57 0
306 139 200 116 57 0
306 139 201 114 58 1
307 138 201 117 55 0
307 139 201 115 59 0
307 138 202 118 53 0
307 138 203 122 57 0
307 139 202 117 57 0
307 136 204 111 68 25
307 136 205 115 65 23
307 137 204 116 59 0
307 136 206 116 68 27
307 136 207 122 79 35
306 140 200 116 51 5
306 141 200 115 45 10
307 140 201 114 57 0
307 141 200 113 44 11
307 141 201 113 53 8
307 140 202 116 59 0
307 141 202 115 57 0
306 142 200 111 44 7
307 142 200 111 43 11
307 142 201 113 50 21
307 143 200 112 46 5
307 143 201 113 47 11
308 138 203 125 58 1
308 139 202 120 58 0
308 139 203 126 59 1
308 137 204 123 57 0
308 137 205 125 58 3
308 136 206 120 61 12
308 136 207 131 70 16
308 137 206 130 59 1
308 137 207 137 65 4
308 138 204 127 56 0
308 138 205 130 56 0
308 139 204 128 56 1
308 139 205 130 54 0
308 138 206 133 61 1
308 138 207 138 67 3
308 139 206 135 61 2
308 139 207 138 65 3
308 140 202 118 57 0
308 140 203 122 57 1
308 141 202 116 55 0
308 141 203 118 54 0
308 143 201 112 52 7
308 142 202 115 56 8
308 142 203 117 55 2
308 143 202 114 54 7
308 143 203 116 54 0
309 142 203 116 53 5
309 143 203 117 52 1
308 140 204 125 54 1
308 140 205 126 51 2
308 141 204 121 50 1
308 141 205 123 46 3
309 141 204 120 49 2
309 141 205 123 46 3
308 140 206 133 57 4
308 140 207 137 63 3
309 141 206 129 56 2
309 141 207 136 64 4
309 142 204 120 53 3
309 142 205 122 53 1
309 143 204 120 51 4
309 143 205 124 57 2
309 142 206 130 61 2
309 142 207 136 66 3
309 143 206 132 63 2
309 143 207 139 68 3
