ply
format ascii 1.0
comment Version 2, Copyright 2017, 8i Labs, Inc.
comment frame_to_world_scale 0.179523
comment frame_to_world_translation -45.2095 7.18301 -54.3561
comment width 1023
element vertex 124
property float x
property float y
property float z
property uchar red
property uchar green
property uchar blue
end_header
320 448 90 90 117 155
320 449 90 98 119 153
321 448 90 104 123 158
321 448 91 94 117 151
321 449 91 91 115 151
320 450 90 108 121 158
320 450 91 109 123 159
320 451 90 110 123 159
320 451 91 120 132 164
321 450 91 110 125 156
321 451 91 109 128 159
322 448 91 107 126 155
322 449 91 81 108 150
321 450 92 110 127 151
321 451 92 107 131 163
322 448 92 101 123 155
322 449 92 89 110 154
323 448 93 110 131 158
323 449 93 90 113 153
322 450 92 110 126 152
322 450 93 104 122 154
322 451 92 101 124 150
322 451 93 103 124 148
323 450 93 101 120 153
323 451 93 105 124 149
323 450 94 99 118 152
323 451 94 105 124 150
320 452 91 153 163 181
320 453 91 154 158 170
321 452 91 119 142 169
320 454 91 134 138 151
320 455 91 134 142 157
320 453 92 146 149 161
321 452 92 118 141 168
321 453 92 136 144 160
320 454 92 149 149 159
320 455 92 154 156 168
321 454 92 163 160 167
321 454 93 170 166 170
321 455 92 168 166 173
321 455 93 171 168 173
322 452 92 88 121 152
322 452 93 103 127 153
322 453 93 144 153 169
322 453 94 171 174 184
323 452 94 114 132 156
323 453 94 159 166 179
323 453 95 164 168 179
322 454 93 177 172 175
322 455 93 176 169 170
322 454 94 181 173 174
322 455 94 176 168 168
323 454 94 176 171 173
323 454 95 174 170 173
323 455 94 175 167 167
323 455 95 175 169 169
324 448 93 115 135 160
324 448 94 118 137 161
324 449 94 96 120 157
324 449 95 87 111 157
325 448 94 114 135 160
325 448 95 107 130 156
325 449 95 97 120 155
324 450 94 92 114 153
324 450 95 89 114 153
324 451 94 102 121 152
324 451 95 97 116 152
325 450 95 80 108 150
325 451 95 88 110 151
326 448 95 102 127 154
324 452 95 96 116 147
324 453 95 124 137 155
325 452 95 83 103 144
324 454 95 169 169 175
324 455 95 173 169 173
320 456 91 126 135 151
320 456 92 148 152 165
320 457 92 138 144 158
321 456 93 168 167 175
321 457 92 147 150 161
321 457 93 165 164 170
320 458 92 135 142 156
320 459 92 154 154 161
321 458 92 137 142 154
321 458 93 155 156 165
321 459 93 145 147 157
322 456 93 172 168 171
322 457 93 171 167 172
322 456 94 172 167 169
322 457 94 171 167 169
323 456 94 172 166 167
323 456 95 172 166 168
323 457 94 171 166 167
323 457 95 171 166 167
322 459 93 145 148 158
322 458 94 173 168 172
322 459 94 172 169 175
323 458 95 173 167 169
323 459 95 172 167 170
320 460 92 162 162 171
320 460 93 161 162 171
320 461 92 160 158 163
320 461 93 166 164 170
321 460 93 148 151 162
321 461 93 156 157 166
320 462 92 160 155 158
320 462 93 159 154 157
320 463 92 160 156 159
320 463 93 157 154 158
321 462 93 167 164 168
321 463 93 151 149 154
322 460 93 138 143 155
322 460 94 146 150 163
322 461 94 133 140 154
322 461 95 130 139 154
323 460 95 169 167 176
323 461 95 149 154 167
322 462 94 158 158 166
322 462 95 142 148 162
322 463 94 148 147 154
323 462 95 141 146 158
323 463 95 127 129 137
324 457 95 172 167 170
324 458 95 169 165 168
