ply
format ascii 1.0
comment Version 2, Copyright 2017, 8i Labs, Inc.
comment frame_to_world_scale 0.179523
comment frame_to_world_translation -45.2095 7.18301 -54.3561
comment width 1023
element vertex 371
property float x
property float y
property float z
property uchar red
property uchar green
property uchar blue
end_header
320 448 147 71 91 118
321 448 147 72 89 114
321 449 147 86 99 119
320 450 147 106 116 131
322 448 146 61 83 108
322 448 147 72 90 111
322 449 147 88 101 118
323 448 146 83 102 122
323 448 147 84 101 119
323 449 147 91 104 120
322 450 147 104 111 126
323 450 147 104 113 126
323 451 147 109 116 128
320 448 148 95 107 126
320 448 149 111 119 132
320 449 148 112 120 134
320 449 149 126 131 141
321 448 148 90 103 123
321 449 148 99 110 127
320 450 149 124 128 139
320 451 149 116 122 132
321 450 148 106 115 131
321 451 148 120 125 136
321 451 149 120 126 136
320 451 150 115 120 131
322 450 148 108 114 128
322 451 148 118 122 133
323 451 148 115 120 131
320 452 149 113 118 129
321 452 148 124 127 135
321 452 149 127 130 137
321 453 149 129 130 136
320 452 150 106 112 124
320 452 151 113 119 131
320 453 150 95 106 121
321 453 150 115 120 129
320 454 151 98 111 127
320 455 151 107 118 132
321 454 150 118 122 132
321 455 150 115 120 130
321 455 151 114 120 132
322 452 148 125 127 134
322 452 149 126 126 132
322 453 149 122 123 130
323 452 148 116 120 130
323 453 148 113 119 129
323 453 149 110 116 127
322 454 149 111 115 125
323 454 149 97 106 121
323 455 149 78 92 112
322 455 150 104 110 122
323 455 150 80 93 111
324 448 146 93 109 127
324 448 147 106 118 133
324 449 147 103 116 132
325 448 146 109 122 138
325 448 147 103 117 133
325 449 147 115 126 140
324 450 147 109 118 132
324 451 147 112 120 132
325 450 147 115 126 140
325 451 147 114 125 140
326 448 146 115 129 147
326 449 146 120 132 149
326 449 147 120 131 147
327 448 146 111 128 148
327 449 146 118 133 152
326 450 147 118 129 145
326 451 147 114 126 142
327 450 146 120 135 153
327 450 147 118 132 149
327 451 147 116 130 148
324 451 148 115 122 134
325 451 148 111 123 140
326 451 148 110 124 140
327 452 147 112 127 146
324 452 148 107 116 129
324 453 148 99 112 128
324 453 149 96 110 128
325 452 148 101 116 134
325 453 148 95 112 131
325 453 149 93 111 131
324 454 149 88 105 124
324 455 149 73 94 116
325 454 149 84 105 127
325 455 149 69 94 121
326 452 148 106 122 141
326 453 148 102 119 139
327 452 148 112 127 145
327 453 148 106 123 144
326 454 148 95 115 137
326 454 149 80 105 131
326 455 149 58 89 122
327 454 148 92 114 138
327 454 149 76 104 131
327 455 149 54 90 125
320 454 152 123 130 142
320 455 152 121 128 140
320 455 153 132 136 146
321 456 151 122 127 138
321 457 151 121 126 136
322 456 150 97 106 119
322 456 151 117 121 131
322 457 150 93 103 118
322 457 151 96 107 122
323 456 150 75 90 110
323 457 150 84 97 116
323 457 151 86 102 122
322 458 151 85 101 120
323 458 151 80 99 119
323 459 151 74 94 116
324 456 150 66 87 111
324 457 150 74 93 115
325 456 150 65 92 120
325 457 150 75 99 123
324 458 151 80 99 120
324 459 151 80 99 119
325 458 150 91 112 133
325 458 151 88 108 129
325 459 151 95 113 132
326 456 149 57 89 125
327 456 149 63 95 130
326 456 150 63 94 125
326 457 150 86 110 135
327 456 150 69 99 131
327 457 150 99 120 143
326 458 150 111 127 147
326 458 151 109 125 143
326 459 151 115 130 148
327 458 150 131 142 158
327 459 151 137 146 160
324 460 151 82 100 120
325 460 151 98 115 134
326 460 151 122 134 150
327 460 151 141 148 162
327 461 151 143 150 162
320 456 152 128 134 145
320 456 153 124 131 143
320 457 152 137 141 151
320 457 153 114 126 143
321 457 152 121 130 143
320 457 154 99 117 138
320 458 153 79 101 129
321 458 152 92 108 128
321 458 153 80 99 126
321 459 153 61 84 117
320 458 154 79 103 132
320 459 154 83 104 132
322 457 152 110 120 135
322 458 152 81 98 120
322 459 152 62 86 113
322 459 153 52 78 113
323 459 152 73 93 115
321 460 153 60 80 113
321 461 153 95 108 128
320 460 154 96 114 137
320 460 155 97 116 137
320 461 154 121 132 148
320 461 155 110 125 142
321 460 154 87 105 130
321 461 154 121 130 145
320 462 154 135 143 157
320 462 155 137 144 157
320 463 155 140 145 156
321 462 154 127 134 147
321 463 154 112 120 133
321 463 155 124 131 143
322 460 152 53 79 109
322 460 153 63 84 112
322 461 153 87 102 121
323 460 152 78 96 118
323 461 152 92 106 125
323 461 153 90 104 122
322 462 153 93 107 123
322 463 153 92 104 122
323 462 153 88 102 121
323 463 153 88 101 122
322 462 154 96 109 125
322 463 154 97 108 124
320 462 156 128 138 153
320 463 156 139 146 158
320 463 157 123 135 151
324 460 152 85 102 122
324 461 152 91 106 125
324 461 153 92 106 125
325 460 152 94 111 129
325 461 152 99 114 132
324 462 153 86 102 123
324 463 153 81 99 122
325 462 152 98 114 133
325 462 153 88 107 129
325 463 153 78 102 126
326 461 152 118 130 147
327 461 152 141 148 161
326 462 152 115 129 147
326 462 153 103 119 138
326 463 152 114 130 149
326 463 153 97 117 139
327 462 152 131 142 157
327 463 152 114 129 148
327 463 153 105 123 144
328 448 145 124 137 155
328 449 145 143 149 161
329 448 145 137 146 161
329 449 145 146 151 162
328 448 146 118 133 152
328 449 146 128 139 154
329 450 145 146 151 162
328 450 146 131 141 156
328 451 146 134 143 158
328 451 147 123 136 154
329 450 146 148 153 163
329 451 146 145 151 164
330 448 144 126 139 157
330 449 144 130 141 157
330 449 145 136 144 159
331 448 144 117 133 153
331 449 144 121 135 154
330 450 145 134 142 157
330 451 145 129 139 155
331 450 144 113 132 153
331 450 145 127 140 159
331 451 144 106 128 152
331 451 145 116 133 154
330 451 146 135 143 157
328 452 147 127 139 155
328 453 147 134 144 158
329 452 146 145 151 163
329 452 147 149 155 167
329 453 147 138 147 161
329 454 147 113 128 147
331 452 144 112 131 154
331 452 145 117 134 154
331 453 145 122 139 159
330 452 146 135 144 158
330 453 146 128 140 156
330 453 147 132 143 158
331 453 146 122 138 157
331 454 145 117 134 156
330 454 146 120 135 155
330 454 147 95 114 140
330 455 147 70 94 130
331 454 146 105 124 148
331 455 146 108 127 150
331 455 147 96 117 144
328 453 148 122 135 152
328 454 148 89 113 137
328 455 148 60 93 128
328 455 149 56 89 129
329 454 148 96 117 140
329 455 148 56 85 124
330 455 148 58 83 125
332 450 144 108 129 154
332 451 144 110 130 153
332 452 144 122 138 158
332 453 144 131 145 163
332 453 145 124 140 161
333 453 144 142 151 166
332 454 144 138 150 167
332 454 145 124 139 159
332 455 144 146 154 168
332 455 145 135 147 164
333 454 144 151 157 168
333 455 144 157 160 171
332 455 146 118 134 155
331 456 146 108 129 152
331 456 147 94 118 146
331 457 147 96 121 148
331 458 147 93 120 147
328 456 149 76 103 138
328 457 149 110 128 151
329 456 148 64 92 130
329 456 149 81 107 139
329 457 149 102 122 146
328 457 150 121 136 155
329 458 149 129 140 156
328 458 150 136 146 161
328 459 150 146 151 162
328 459 151 145 151 161
329 458 150 134 142 155
329 459 150 135 142 153
330 456 148 67 94 132
330 457 148 80 105 137
330 457 149 96 118 142
331 457 148 84 111 142
330 458 148 100 120 145
330 458 149 117 132 151
330 459 149 120 133 152
331 458 148 93 117 144
331 459 148 102 124 149
331 459 149 105 125 148
330 459 150 131 141 155
328 460 151 143 149 161
328 461 151 141 148 160
329 460 150 138 144 156
329 460 151 138 144 155
329 461 151 135 144 158
329 462 151 126 141 161
329 463 151 103 127 154
330 460 149 108 125 144
331 460 149 114 133 154
331 461 149 124 140 160
330 460 150 124 136 152
330 461 150 127 139 155
330 461 151 130 143 160
331 462 149 128 142 160
331 463 149 130 141 158
330 462 150 120 134 153
330 462 151 121 137 158
330 463 151 106 128 153
331 462 150 129 143 161
331 463 150 123 139 158
332 456 145 140 151 167
332 457 145 125 140 159
333 456 144 156 162 174
333 456 145 149 158 171
333 457 144 141 152 169
333 457 145 122 138 157
332 456 146 121 137 158
332 457 146 102 126 150
332 457 147 98 124 150
333 458 145 66 91 128
333 459 145 44 80 126
332 458 146 67 99 135
332 458 147 84 113 144
332 459 147 88 114 144
333 458 146 53 82 125
333 459 146 63 94 133
334 457 144 136 148 164
334 458 144 95 116 143
334 459 144 63 92 134
334 459 145 45 79 127
332 459 148 96 120 148
333 460 145 55 89 135
332 460 147 108 128 152
333 460 146 81 108 141
333 460 147 100 122 148
333 461 146 99 123 151
333 461 147 128 143 163
333 462 146 122 140 162
333 462 147 144 154 170
333 463 146 115 135 158
333 463 147 133 146 164
334 460 144 44 83 133
334 460 145 45 84 134
334 461 144 37 79 133
334 461 145 57 90 138
335 460 144 34 83 132
335 461 144 36 82 133
334 461 146 95 121 151
334 462 145 74 106 146
334 463 145 83 112 147
335 462 144 58 94 141
335 463 144 82 106 143
335 463 145 81 108 145
334 462 146 98 125 152
334 463 146 97 123 149
332 460 148 108 129 153
332 461 148 135 148 167
332 461 149 131 144 163
332 462 148 149 157 172
332 462 149 142 151 166
332 463 148 149 156 170
332 463 149 142 152 168
333 462 148 151 158 171
333 463 148 140 150 166
328 461 152 143 149 161
328 462 152 132 140 154
328 463 152 115 128 146
329 462 152 128 140 157
329 463 152 115 132 153
