ply
format ascii 1.0
comment Version 2, Copyright 2017, 8i Labs, Inc.
comment frame_to_world_scale 0.179523
comment frame_to_world_translation -45.2095 7.18301 -54.3561
comment width 1023
element vertex 197
property float x
property float y
property float z
property uchar red
property uchar green
property uchar blue
end_header
320 416 90 138 138 143
320 416 91 137 138 144
320 417 90 134 134 139
321 416 91 133 134 141
321 417 91 125 129 136
320 418 90 118 121 129
320 419 90 94 106 119
321 418 91 111 117 127
321 419 90 100 108 119
321 419 91 106 112 122
322 417 91 118 124 135
322 418 91 110 117 128
322 419 91 112 118 128
322 416 92 119 121 128
322 417 92 113 118 127
323 416 93 113 119 129
323 417 92 112 116 123
323 417 93 116 119 127
322 418 92 115 121 131
322 419 92 116 123 133
323 418 92 120 124 133
323 418 93 123 126 133
323 419 92 118 124 133
323 419 93 123 127 135
320 420 90 84 99 116
320 421 90 87 103 121
321 420 90 91 101 115
321 420 91 98 105 116
321 421 90 93 104 118
321 421 91 100 107 118
320 422 89 98 110 124
320 423 89 104 114 126
321 423 89 115 118 125
320 422 90 97 111 127
321 422 90 115 120 128
321 422 91 116 120 127
321 423 90 124 125 130
322 420 91 106 113 124
322 421 91 99 107 119
322 422 91 122 125 131
322 423 91 135 133 137
323 422 91 122 125 132
323 423 91 137 135 138
322 420 92 107 115 127
322 421 92 94 104 117
323 420 92 111 118 129
323 421 92 100 109 121
323 422 92 114 119 128
323 423 92 134 133 138
324 416 93 125 130 140
324 417 93 134 136 144
324 416 94 132 135 143
324 417 94 138 140 148
325 416 94 138 139 147
325 416 95 141 142 150
325 417 94 141 144 153
325 417 95 140 143 153
324 418 93 139 140 146
324 419 93 140 141 149
325 418 94 139 142 151
325 419 94 140 144 154
326 416 95 142 144 152
326 417 95 135 140 151
326 418 95 130 137 149
326 419 95 129 137 151
324 420 93 136 139 148
324 421 93 123 130 142
325 421 93 110 120 136
325 420 94 124 132 145
325 421 94 101 115 133
324 422 92 121 125 134
324 422 93 125 131 144
324 423 92 131 132 138
324 423 93 127 134 147
325 422 93 114 124 140
325 423 93 120 130 146
325 422 94 105 119 138
325 423 94 112 125 143
326 420 95 116 128 146
326 421 94 93 111 133
326 421 95 94 113 136
326 422 94 99 116 138
326 422 95 94 114 139
326 423 94 105 120 141
326 423 95 95 115 139
327 422 95 93 115 141
327 423 95 87 111 137
320 424 89 104 112 124
320 425 89 89 103 119
321 424 89 113 116 123
321 425 89 112 117 124
321 424 90 125 124 127
321 425 90 122 123 128
320 426 89 94 107 124
320 427 88 106 115 128
320 427 89 114 124 142
321 426 89 108 116 127
321 427 89 107 116 129
321 426 90 116 121 130
321 427 90 113 120 132
322 424 90 135 132 133
322 424 91 138 135 136
322 425 90 130 128 131
322 425 91 136 133 136
323 424 91 141 137 138
323 425 91 143 139 139
322 427 89 113 120 132
322 426 90 123 125 132
322 426 91 132 132 137
322 427 90 119 125 135
323 426 91 137 137 142
323 427 91 138 142 151
323 424 92 141 138 140
320 428 88 105 117 132
320 428 89 110 121 137
320 429 88 110 121 134
320 429 89 92 111 131
321 428 89 108 118 133
321 429 89 71 98 124
321 428 90 81 102 124
320 430 88 124 130 141
320 430 89 105 117 132
320 431 88 129 134 143
321 430 89 82 103 124
321 431 89 108 118 133
322 428 89 102 113 128
322 429 89 63 94 121
322 428 90 128 134 145
322 429 90 79 101 123
323 428 91 136 142 153
323 429 91 96 111 130
322 430 89 62 93 119
322 431 89 90 107 127
322 430 90 56 88 116
322 431 90 78 100 123
323 430 90 56 87 114
323 430 91 64 90 116
323 431 90 76 98 122
323 431 91 81 102 126
324 427 91 145 147 155
324 424 92 140 138 141
324 424 93 130 135 147
324 425 92 145 142 143
324 425 93 128 133 144
325 424 93 122 131 145
325 425 93 125 132 146
325 424 94 116 127 143
325 425 94 123 131 148
324 426 92 149 146 149
324 426 93 127 132 144
324 427 92 148 149 155
325 426 92 149 148 153
325 426 93 122 129 144
325 427 92 142 144 151
325 427 93 125 134 147
326 424 94 109 122 141
326 424 95 101 118 138
326 425 94 118 128 146
326 425 95 111 123 143
327 424 95 92 113 136
327 425 95 98 115 137
326 426 94 117 126 145
326 426 95 106 118 140
326 427 94 95 112 134
326 427 95 83 102 128
327 426 95 105 118 142
327 427 95 86 104 131
324 428 91 132 139 152
324 429 91 94 109 128
324 430 91 70 93 117
324 431 91 84 106 129
324 428 92 127 135 146
324 429 92 88 106 126
325 428 92 118 125 137
325 428 93 86 103 122
325 429 92 81 102 125
325 429 93 88 109 132
324 430 92 84 103 125
324 431 92 87 107 129
325 430 92 91 109 129
325 430 93 99 116 136
325 431 92 95 112 132
325 431 93 102 116 132
326 428 94 66 95 123
326 428 95 79 103 128
326 429 94 99 117 139
326 429 95 99 115 135
327 428 95 92 112 136
327 429 95 95 112 132
326 430 93 102 118 136
326 431 93 109 120 135
326 430 94 108 122 139
326 430 95 111 122 137
326 431 94 121 128 140
326 431 95 132 136 146
327 430 95 114 122 135
327 431 95 136 139 148
