ply
format ascii 1.0
comment Version 2, Copyright 2017, 8i Labs, Inc.
comment frame_to_world_scale 0.179523
comment frame_to_world_translation -45.2095 7.18301 -54.3561
comment width 1023
element vertex 135
property float x
property float y
property float z
property uchar red
property uchar green
property uchar blue
end_header
320 400 92 96 115 139
320 401 92 105 121 141
321 400 93 109 124 143
321 401 92 105 122 145
321 401 93 112 125 142
320 402 92 109 124 146
320 403 92 100 118 138
321 402 92 110 124 146
321 402 93 115 127 143
321 403 92 112 125 143
321 403 93 113 126 143
322 400 93 114 125 141
322 401 93 112 124 140
322 400 94 123 132 145
323 400 94 128 136 149
323 400 95 123 136 152
323 401 94 121 130 143
323 401 95 110 124 142
322 402 93 113 125 141
322 403 93 110 124 141
323 402 94 103 119 139
323 402 95 100 119 139
323 403 94 92 113 138
320 405 91 78 102 127
320 406 91 100 119 140
320 407 91 87 109 130
320 404 92 84 105 130
320 405 92 85 105 128
321 404 92 93 110 133
321 404 93 101 115 136
321 405 92 91 108 128
321 405 93 93 111 131
320 406 92 91 112 134
320 407 92 87 109 131
321 406 92 77 102 126
321 407 92 86 107 127
322 404 93 90 109 132
322 405 93 91 109 131
323 404 93 81 103 128
323 405 93 86 106 129
323 404 94 74 103 131
323 405 94 66 97 125
322 406 93 94 111 131
322 407 93 91 107 127
323 406 93 88 109 131
323 407 93 88 106 127
323 406 94 81 106 130
323 407 94 80 102 129
324 400 95 108 128 149
324 401 95 100 122 145
324 402 95 78 106 132
324 403 95 80 106 134
324 404 95 63 97 128
324 405 95 50 90 123
324 406 94 75 103 130
324 406 95 60 94 129
324 407 94 77 102 132
324 407 95 72 102 132
325 407 95 82 109 138
320 408 91 77 98 119
320 409 91 83 100 120
320 410 91 104 115 129
320 411 90 130 135 144
320 411 91 121 127 136
321 410 91 103 113 128
321 411 91 125 130 141
321 408 92 82 102 123
321 409 92 82 99 118
321 410 92 103 114 128
321 411 92 118 124 134
322 408 92 80 99 119
322 408 93 85 102 122
322 409 92 82 98 117
322 409 93 81 97 117
323 408 93 81 100 123
323 409 93 78 98 122
323 408 94 82 102 129
322 410 92 100 111 125
322 411 92 115 121 132
323 410 93 96 108 126
323 411 92 117 123 134
323 411 93 113 120 131
320 412 90 132 134 140
320 412 91 131 132 138
320 413 90 134 134 138
320 413 91 133 133 137
321 412 91 130 132 139
321 413 91 132 133 138
320 414 90 137 137 143
320 414 91 135 134 139
320 415 90 138 138 143
320 415 91 136 136 142
321 414 91 132 132 137
321 415 91 131 131 136
322 412 92 128 132 140
322 413 92 131 131 137
323 412 92 127 130 138
323 412 93 126 129 138
323 413 92 131 132 137
323 413 93 126 128 135
322 414 92 128 128 133
322 415 92 125 125 130
323 414 92 128 128 133
323 414 93 124 127 135
323 415 92 118 120 126
323 415 93 120 124 132
324 408 94 80 104 132
324 408 95 83 109 134
324 409 94 78 100 127
324 409 95 86 105 132
325 408 95 84 110 137
325 409 95 94 112 137
324 411 93 108 120 138
324 410 94 94 111 134
324 411 94 108 120 139
325 410 95 105 117 138
325 411 95 118 128 144
324 412 93 119 127 141
324 413 93 121 127 139
324 412 94 118 128 143
324 413 94 123 131 144
325 412 95 120 129 143
325 413 94 130 136 147
325 413 95 129 135 147
324 414 93 125 129 140
324 415 93 126 130 140
324 414 94 130 134 144
324 415 94 130 133 141
325 414 94 133 136 146
325 414 95 139 141 149
325 415 94 133 136 143
325 415 95 140 140 147
326 413 95 136 140 151
326 414 95 142 144 152
326 415 95 143 144 151
