ply
format ascii 1.0
comment Version 2, Copyright 2017, 8i Labs, Inc.
comment frame_to_world_scale 0.179523
comment frame_to_world_translation -45.2095 7.18301 -54.3561
comment width 1023
element vertex 368
property float x
property float y
property float z
property uchar red
property uchar green
property uchar blue
end_header
325 449 96 81 106 152
325 450 96 73 102 148
325 451 96 81 106 149
326 448 96 102 128 156
326 449 96 98 121 152
326 449 97 106 126 152
327 448 97 101 126 157
327 449 97 106 127 154
327 449 98 103 124 152
326 450 96 72 100 148
326 450 97 77 103 147
326 451 96 79 105 148
326 451 97 76 104 147
327 450 97 77 105 147
327 451 97 78 102 149
327 450 98 74 104 146
327 451 98 72 98 146
325 452 96 81 100 148
325 453 96 90 112 140
324 454 96 161 162 170
324 455 96 167 166 172
325 454 96 144 148 161
325 454 97 126 135 150
325 455 96 160 160 168
325 455 97 150 153 162
326 452 97 82 104 151
326 453 97 82 107 141
327 452 97 80 105 149
327 452 98 74 101 146
327 453 98 77 108 140
327 453 99 74 104 142
326 454 97 110 125 144
326 455 97 127 136 152
326 454 98 121 133 151
326 455 98 110 124 144
327 454 98 129 142 160
327 454 99 131 145 164
327 455 98 114 128 147
327 455 99 132 142 158
323 463 96 127 129 137
324 456 96 168 166 171
324 457 96 167 164 170
325 456 96 166 166 172
325 456 97 158 160 170
325 457 97 164 165 174
324 458 96 166 163 168
324 458 97 165 164 173
324 459 96 161 159 165
325 458 97 153 155 165
325 459 97 153 154 163
326 456 97 133 142 158
326 457 97 149 152 163
326 456 98 129 139 156
326 457 98 128 138 156
327 456 98 107 124 146
327 456 99 115 130 150
327 457 99 109 128 152
326 458 98 123 132 148
326 459 98 139 143 155
326 459 99 129 134 147
327 458 99 120 130 148
327 459 99 134 139 151
327 457 100 111 126 145
327 458 100 131 139 153
327 459 100 139 144 156
324 460 96 152 150 156
324 461 96 143 145 155
324 461 97 134 137 146
325 460 97 145 146 154
325 461 97 140 142 151
325 460 98 139 142 151
325 461 98 143 144 151
324 462 96 133 137 147
324 462 97 132 134 142
324 463 96 132 133 140
324 463 97 137 138 143
325 462 97 142 142 149
325 463 97 148 146 151
325 462 98 143 142 147
325 463 98 151 147 150
326 460 98 142 143 151
326 460 99 146 145 151
326 461 98 140 140 146
326 461 99 142 140 144
327 460 99 145 145 152
327 461 99 145 142 145
326 462 99 143 141 145
326 463 99 150 146 149
327 462 99 144 141 145
327 460 100 139 141 149
327 461 100 146 144 148
327 462 100 152 149 153
327 463 100 152 149 153
328 448 98 91 116 148
328 448 99 89 118 149
328 449 98 103 125 151
328 449 99 101 125 152
329 448 99 83 115 148
329 449 99 89 119 149
328 450 98 84 112 144
328 450 99 83 110 143
328 451 99 74 99 146
329 448 100 82 115 151
329 449 100 86 118 151
328 450 100 62 94 135
328 451 100 71 96 144
329 450 100 89 116 146
329 450 101 85 112 145
329 451 100 73 97 146
329 451 101 71 96 143
330 448 100 85 114 153
330 448 101 83 113 151
330 449 101 80 110 153
330 448 102 89 117 151
330 449 102 78 105 151
331 448 102 105 129 156
331 448 103 135 150 170
331 449 103 79 104 144
330 450 101 89 115 150
330 451 101 75 100 143
330 450 102 89 112 150
330 451 102 79 104 140
331 450 102 95 114 152
331 450 103 86 112 151
331 451 102 86 109 141
331 451 103 79 111 144
328 452 99 73 99 144
328 453 99 72 102 142
328 454 99 123 139 159
328 452 100 81 104 142
328 453 100 71 99 143
329 452 100 84 106 138
329 452 101 85 106 137
329 453 100 78 102 144
329 453 101 85 108 142
328 454 100 100 122 149
328 455 100 135 142 155
329 454 100 80 107 143
329 454 101 82 108 145
329 455 100 123 135 152
329 455 101 129 140 156
329 455 102 122 134 152
330 452 101 77 99 145
330 452 102 84 106 143
330 453 102 93 114 139
331 452 103 83 109 140
331 453 103 98 117 142
330 454 102 85 110 144
330 454 103 98 120 146
330 455 102 118 134 154
330 455 103 123 136 155
331 454 103 94 117 142
331 455 103 122 134 153
331 449 104 81 107 143
331 450 104 82 109 147
331 451 104 78 111 144
331 452 104 84 110 140
331 453 104 92 114 140
331 454 104 98 119 144
331 454 105 96 116 140
331 455 104 120 133 152
331 455 105 114 127 146
332 448 104 127 144 166
332 448 105 80 116 147
332 449 104 79 110 142
332 449 105 44 96 134
332 448 106 76 115 151
332 449 106 45 96 138
333 448 106 90 122 156
333 448 107 101 122 155
333 449 106 53 98 139
333 449 107 82 108 141
332 450 104 81 108 144
332 450 105 79 108 141
332 451 104 83 113 143
332 451 105 90 115 142
332 450 106 77 109 138
332 451 106 93 115 139
333 450 106 96 117 141
333 450 107 102 120 142
333 451 106 98 118 140
333 451 107 98 117 141
333 448 108 94 115 143
333 449 108 123 137 157
333 450 108 111 126 146
333 451 108 100 118 141
334 448 109 122 135 154
334 449 109 133 144 162
334 448 110 133 144 162
334 449 110 133 144 160
335 448 111 130 142 161
335 449 110 125 139 158
335 449 111 118 135 154
334 450 108 107 123 143
334 450 109 116 131 149
334 451 108 97 117 140
334 451 109 94 115 139
334 450 110 113 128 147
334 451 110 84 110 135
335 450 110 103 123 145
335 450 111 95 118 141
335 451 110 75 106 134
335 451 111 68 100 131
332 452 105 89 111 139
332 453 105 92 113 141
332 452 106 88 110 138
332 453 106 87 109 139
332 453 107 76 105 136
333 452 106 85 109 138
333 452 107 85 111 139
333 453 106 80 107 138
333 453 107 80 108 137
332 454 105 93 114 138
332 455 105 117 128 146
332 454 106 94 114 138
332 454 107 97 116 139
332 455 106 108 122 142
332 455 107 108 122 141
333 454 107 96 116 140
333 455 107 101 119 141
333 452 108 86 111 139
333 453 108 82 111 139
333 454 108 99 119 143
333 455 108 99 117 140
334 452 108 81 108 138
334 452 109 79 107 136
334 453 109 83 111 141
334 452 110 75 105 136
334 453 110 83 110 141
335 452 110 75 105 136
335 452 111 78 105 138
335 453 110 84 111 139
335 453 111 83 109 138
334 454 108 99 119 144
334 454 109 96 118 145
334 455 108 102 119 142
334 455 109 95 115 138
334 454 110 90 112 142
334 455 110 86 109 134
335 454 110 87 110 138
335 454 111 80 106 131
335 455 110 79 105 131
335 455 111 79 103 128
328 456 100 136 141 153
328 457 100 133 140 155
328 457 101 151 152 160
329 456 101 145 149 161
329 457 101 155 155 163
329 456 102 149 152 163
329 457 102 159 159 166
328 458 100 139 144 156
328 458 101 151 153 162
328 459 100 143 146 155
328 459 101 144 147 155
329 458 101 155 156 163
329 459 101 148 149 158
329 458 102 163 162 168
329 459 102 153 154 161
330 456 102 152 155 166
330 456 103 150 154 164
330 457 102 162 162 168
330 457 103 161 161 166
331 456 103 147 151 162
331 457 103 160 158 163
330 458 102 163 161 166
330 458 103 161 158 163
330 459 102 159 158 163
330 459 103 162 160 164
328 460 100 142 143 150
328 460 101 144 145 152
328 461 100 144 143 149
328 461 101 150 150 155
329 460 102 151 152 159
329 461 102 153 153 161
328 462 101 153 152 157
328 463 101 152 150 156
328 462 102 153 152 157
328 463 102 150 149 155
329 462 102 149 150 158
329 463 102 143 144 152
330 460 102 153 153 160
330 460 103 161 160 165
330 461 102 154 155 162
330 461 103 154 155 163
330 462 103 141 145 157
330 463 103 128 134 146
331 456 104 142 148 161
331 456 105 141 146 159
331 457 104 157 157 164
331 457 105 150 152 161
331 458 104 158 156 160
331 458 105 154 154 159
331 459 104 161 159 165
331 459 105 159 158 165
331 460 104 160 159 165
331 460 105 156 155 163
331 461 104 153 153 160
331 461 105 148 148 156
330 462 104 126 132 145
330 463 104 121 127 139
331 462 104 135 139 150
331 462 105 134 137 147
331 463 104 120 125 136
331 463 105 130 133 142
332 456 105 133 141 155
332 457 105 143 146 157
332 456 106 123 133 150
332 457 106 131 138 152
333 456 107 109 123 141
333 457 107 118 129 147
332 458 105 150 151 158
332 459 105 157 157 165
332 458 106 142 146 156
332 459 106 147 150 160
333 458 107 127 136 152
333 459 107 125 134 149
333 456 108 98 115 136
333 457 108 104 120 141
333 457 109 99 118 141
333 458 108 114 127 147
333 459 108 114 126 143
334 456 109 91 111 134
334 457 109 93 114 137
334 456 110 89 111 134
334 456 111 92 113 136
334 457 110 92 113 136
334 457 111 93 113 136
335 456 111 88 110 134
335 457 111 97 116 136
334 458 109 104 121 144
334 459 109 115 127 145
334 458 110 102 120 142
334 458 111 110 125 143
334 459 110 124 133 147
334 459 111 134 140 153
335 458 111 119 129 144
335 459 111 135 141 153
332 460 105 154 154 162
332 461 105 143 144 153
332 460 106 139 144 154
332 461 106 133 136 146
333 460 107 119 129 144
333 461 107 124 131 143
332 462 105 133 136 145
332 462 106 130 132 140
332 463 106 145 144 151
333 462 107 144 145 153
333 463 107 160 157 162
333 460 108 113 124 139
333 461 108 132 137 149
333 462 108 152 152 159
333 463 108 166 163 167
334 460 109 126 133 145
334 461 109 139 141 150
334 460 110 135 140 150
334 460 111 138 142 151
334 461 110 143 144 152
334 461 111 141 143 152
335 460 111 134 138 149
335 461 111 133 138 149
334 462 109 154 153 158
334 463 109 165 163 168
334 462 110 149 150 157
334 462 111 146 148 157
334 463 110 157 157 164
334 463 111 149 150 158
335 462 111 138 143 155
335 463 111 143 145 154
