ply
format ascii 1.0
comment Version 2, Copyright 2017, 8i Labs, Inc.
comment frame_to_world_scale 0.179523
comment frame_to_world_translation -45.2095 7.18301 -54.3561
comment width 1023
element vertex 380
property float x
property float y
property float z
property uchar red
property uchar green
property uchar blue
end_header
320 512 171 25 48 92
320 513 171 32 52 89
321 512 171 48 72 106
321 513 171 49 73 105
320 514 171 36 57 91
321 514 171 50 75 106
322 512 171 85 108 133
322 513 171 77 104 131
323 512 171 101 124 149
323 513 171 82 112 142
320 515 172 36 57 93
321 514 172 62 87 116
321 515 172 63 86 117
322 514 172 79 105 133
322 515 172 89 112 141
323 514 172 86 113 145
323 515 172 95 118 149
320 516 172 39 62 95
320 517 172 43 66 98
320 517 173 46 69 101
321 516 172 69 91 122
321 517 172 71 93 124
321 517 173 70 94 124
320 518 173 50 73 104
320 519 173 54 75 110
321 518 173 70 95 127
321 519 173 74 98 131
320 519 174 63 86 120
321 519 174 76 101 133
322 516 172 92 114 144
322 517 172 86 112 143
322 517 173 86 111 142
323 516 172 98 119 152
323 517 172 95 117 151
323 517 173 90 115 148
322 518 173 89 113 144
322 519 173 92 116 147
323 518 173 93 119 151
323 519 173 98 124 155
322 519 174 93 118 149
323 519 174 96 122 153
324 512 171 104 128 154
324 513 171 80 110 145
325 512 171 120 141 164
325 513 171 90 119 152
324 514 171 79 109 147
325 514 171 91 116 154
325 515 171 101 121 156
327 512 169 116 138 163
327 513 169 88 114 151
326 512 170 127 145 167
326 513 170 88 116 150
326 513 171 99 126 157
327 512 170 120 141 166
327 513 170 85 113 150
327 514 169 102 118 156
327 515 169 102 118 158
326 514 170 93 114 152
326 514 171 95 115 154
326 515 170 102 119 157
326 515 171 105 121 157
327 514 170 101 118 155
327 515 170 102 118 158
324 514 172 88 114 151
324 515 172 97 119 154
325 515 172 101 121 155
325 516 171 87 111 154
326 516 171 89 112 154
326 517 171 98 121 162
327 516 170 91 114 156
327 517 170 102 125 158
326 518 171 105 127 163
326 519 171 112 129 166
327 518 170 105 128 161
327 518 171 105 128 163
327 519 170 118 135 165
327 519 171 114 130 166
324 516 172 102 120 156
324 517 172 95 115 153
324 517 173 92 115 153
325 516 172 98 118 155
325 517 172 94 116 158
324 518 173 98 122 156
324 519 173 100 124 159
325 518 172 101 123 162
325 518 173 105 124 162
325 519 172 105 125 163
325 519 173 100 121 160
326 519 172 103 125 161
320 520 174 62 85 118
320 521 174 66 89 120
320 521 175 79 102 130
321 520 174 84 108 139
321 521 174 94 116 144
321 521 175 101 122 149
320 522 175 78 102 130
320 523 175 84 109 137
321 522 175 105 125 152
321 523 175 102 126 152
322 520 174 99 124 153
322 521 174 108 131 159
322 521 175 113 134 161
323 520 174 99 126 155
323 521 174 111 134 162
322 522 175 112 133 162
322 523 175 105 129 158
323 522 174 115 135 163
323 522 175 108 130 160
323 523 175 107 129 157
320 524 175 91 116 143
321 524 175 106 131 157
322 524 175 109 133 161
323 524 175 124 144 169
323 525 175 129 148 173
323 526 175 121 142 168
323 527 175 118 139 167
327 521 169 108 129 160
326 520 171 95 121 160
326 521 171 85 118 157
327 520 170 116 135 165
327 520 171 104 126 163
327 521 170 101 126 160
327 521 171 88 120 157
327 522 169 110 130 160
327 523 169 113 131 158
326 522 171 91 120 156
326 523 171 110 131 160
327 522 170 92 121 155
327 522 171 87 119 154
327 523 170 109 131 158
327 523 171 114 134 162
324 520 173 102 126 158
324 521 173 116 136 163
325 520 173 96 120 154
325 521 173 113 133 164
324 520 174 102 127 158
324 521 174 118 139 166
325 522 173 111 133 162
325 523 173 109 130 158
324 522 174 124 143 167
324 523 174 119 139 162
326 520 172 83 112 152
326 521 172 80 114 154
326 522 172 82 113 154
326 523 172 104 127 158
327 524 169 114 130 156
327 525 169 93 108 137
326 524 171 135 150 171
326 525 171 121 140 165
327 524 170 116 132 157
327 524 171 129 145 167
327 525 170 101 119 147
327 525 171 112 132 160
327 526 169 105 117 143
327 527 169 116 130 152
326 526 171 110 133 164
326 527 171 105 127 157
327 526 170 99 120 149
327 526 171 103 128 159
327 527 170 108 128 153
327 527 171 103 125 156
325 524 173 125 141 169
325 525 173 110 132 163
324 524 174 126 144 168
324 524 175 133 150 171
324 525 174 113 135 162
324 525 175 121 141 165
325 524 174 123 142 168
325 525 174 107 130 160
325 526 173 105 130 162
325 527 173 121 142 167
324 526 174 107 131 159
324 526 175 117 138 163
324 527 174 118 139 165
324 527 175 118 139 164
325 526 174 109 133 162
325 527 174 125 144 169
326 524 172 139 154 174
326 524 173 135 150 172
326 525 172 121 140 166
326 525 173 119 140 166
326 526 172 107 130 163
326 526 173 107 131 162
326 527 172 105 127 159
326 527 173 107 131 161
331 512 161 92 108 146
331 513 161 77 102 142
330 512 163 101 113 147
330 513 163 90 102 148
331 512 162 98 110 147
331 512 163 100 112 148
331 513 162 81 100 146
331 513 163 85 100 148
331 514 161 94 115 147
331 515 161 102 120 146
330 514 163 83 101 145
330 515 163 102 119 148
331 514 162 87 108 146
331 514 163 85 105 146
331 515 162 103 120 147
331 515 163 104 120 148
328 512 167 89 114 153
328 513 167 100 118 155
329 512 166 92 112 151
329 512 167 90 113 154
329 513 166 102 117 154
329 513 167 101 118 156
328 514 167 105 122 155
328 515 167 101 121 154
329 514 166 99 116 151
329 514 167 101 119 154
329 515 166 98 117 151
329 515 167 100 120 152
330 512 164 101 114 146
330 512 165 97 113 147
330 513 164 96 107 149
330 513 165 102 114 151
330 514 164 85 102 146
330 514 165 94 110 149
330 515 164 99 116 150
330 515 165 94 113 149
331 516 161 114 127 152
330 516 163 105 120 148
330 517 163 107 124 149
331 516 162 109 121 148
331 516 163 105 119 146
331 517 162 118 132 156
331 517 163 109 125 150
331 519 161 127 137 154
331 518 162 122 137 157
331 518 163 112 131 155
331 519 162 137 145 159
331 519 163 141 149 163
328 516 167 103 122 156
329 516 166 103 120 154
329 516 167 104 121 155
329 517 166 106 121 153
329 517 167 104 121 153
329 518 166 111 127 154
329 518 167 118 133 156
329 519 166 117 132 153
329 519 167 132 142 161
330 516 164 103 119 149
330 516 165 103 120 154
330 517 164 107 123 150
330 517 165 105 121 151
330 518 164 110 129 152
330 518 165 109 127 151
330 519 164 129 142 159
330 519 165 124 138 157
330 518 166 109 125 151
330 519 166 116 132 153
332 512 160 88 105 142
332 512 161 88 106 144
332 513 160 82 103 143
332 513 161 81 104 143
332 514 160 100 119 150
332 514 161 97 116 149
332 515 160 104 121 148
332 515 161 104 120 147
332 516 160 129 141 158
332 516 161 127 139 158
332 517 160 143 152 166
332 517 161 135 145 163
332 518 160 127 139 159
332 518 161 125 137 158
332 519 160 109 125 151
332 519 161 118 130 151
328 512 168 102 125 156
328 513 168 96 117 153
328 513 169 95 116 153
328 514 168 105 121 156
328 514 169 104 119 156
328 515 168 100 119 155
328 515 169 99 117 157
328 516 168 100 121 155
328 516 169 96 119 155
328 517 168 103 123 154
328 517 169 104 127 155
328 518 168 114 132 156
328 518 169 108 128 157
328 519 168 144 154 169
328 519 169 138 151 168
331 520 162 151 156 167
331 520 163 159 162 171
331 521 162 152 158 170
331 521 163 146 152 166
331 522 162 115 127 145
331 522 163 98 115 137
331 523 162 91 102 129
331 523 163 107 120 144
329 520 166 139 148 162
329 520 167 136 146 162
329 521 166 141 147 160
329 521 167 133 144 159
329 522 166 140 148 162
329 522 167 137 147 162
329 523 166 138 146 162
329 523 167 138 148 165
330 520 164 160 162 172
330 520 165 157 161 172
330 521 164 139 145 157
330 521 165 149 153 165
331 520 164 167 168 176
331 521 164 140 147 160
330 520 166 148 155 168
330 521 166 148 153 164
330 522 164 75 99 125
330 522 165 99 114 137
330 523 164 117 131 151
330 523 165 110 125 145
331 522 164 82 103 129
331 523 164 118 132 152
330 522 166 133 141 157
330 523 166 120 132 150
331 524 162 126 132 156
331 524 163 154 158 172
331 525 162 137 146 162
331 525 163 157 161 171
331 526 162 125 136 152
331 526 163 133 142 157
331 527 162 130 141 158
331 527 163 104 119 141
328 524 167 105 117 144
328 525 167 104 110 141
329 524 166 132 142 158
329 524 167 116 127 151
329 525 166 148 155 171
329 525 167 118 124 151
328 526 167 100 110 137
328 527 167 112 126 146
329 526 166 141 150 166
329 526 167 119 128 151
329 527 166 114 127 148
329 527 167 117 130 149
330 524 164 168 171 180
330 524 165 160 164 175
330 525 164 168 169 176
330 525 165 171 173 182
330 526 164 146 152 164
330 526 165 153 159 171
330 527 164 113 127 147
330 527 165 107 120 141
332 520 160 120 134 157
332 520 161 133 142 159
332 521 160 122 136 155
332 521 161 140 148 164
332 522 160 89 105 129
332 522 161 101 113 134
332 523 160 86 98 124
332 523 161 75 83 119
332 522 162 98 109 130
332 523 162 84 89 124
332 524 160 77 94 124
332 524 161 82 97 130
332 525 160 121 134 153
332 525 161 122 135 155
333 524 160 81 102 127
333 525 160 100 118 141
332 524 162 104 117 145
332 526 160 138 147 162
332 526 161 146 153 167
332 527 160 137 145 158
332 527 161 149 155 168
328 520 168 143 152 168
328 520 169 137 150 168
328 521 168 132 146 164
328 521 169 120 137 161
328 522 168 129 144 162
328 522 169 119 135 160
328 523 168 133 146 163
328 523 169 121 136 159
328 524 168 107 121 147
328 524 169 102 118 147
328 525 168 87 96 131
328 525 169 91 103 136
328 526 168 78 88 123
328 526 169 104 115 141
328 527 168 97 112 137
328 527 169 109 122 144
