ply
format ascii 1.0
comment Version 2, Copyright 2017, 8i Labs, Inc.
comment frame_to_world_scale 0.179523
comment frame_to_world_translation -45.2095 7.18301 -54.3561
comment width 1023
element vertex 288
property float x
property float y
property float z
property uchar red
property uchar green
property uchar blue
end_header
337 530 128 109 123 153
337 531 128 113 126 153
337 531 129 115 127 150
338 528 128 103 120 150
338 528 129 111 125 152
338 529 128 108 121 152
338 529 129 115 124 153
338 528 130 116 131 155
338 528 131 110 127 153
338 529 130 122 133 157
338 529 131 132 144 165
338 530 128 109 122 151
338 530 129 115 125 152
338 531 129 117 127 152
338 530 130 120 132 155
338 530 131 131 143 163
338 531 130 119 129 155
338 531 131 132 143 164
338 528 132 106 127 153
338 528 133 117 135 157
338 529 132 120 136 158
338 529 133 120 136 157
338 528 134 127 140 158
338 528 135 123 137 154
338 529 134 129 143 162
338 529 135 125 138 158
338 530 132 134 147 164
338 530 133 121 137 157
338 531 132 145 155 171
338 531 133 138 150 167
338 530 134 124 139 160
338 530 135 127 142 164
338 531 134 119 136 158
338 531 135 117 135 157
339 531 135 114 132 156
337 532 128 116 128 154
337 532 129 117 128 151
337 533 128 118 129 154
337 533 129 120 131 152
337 534 128 120 129 153
337 534 129 124 134 154
337 535 128 116 127 150
337 535 129 124 133 153
338 532 129 117 128 152
338 532 130 116 127 153
338 532 131 121 133 156
338 533 130 119 131 153
338 533 131 117 128 152
338 534 130 119 131 152
338 534 131 120 133 153
338 535 130 122 133 154
338 535 131 130 142 162
338 532 132 141 150 168
338 532 133 146 155 171
338 533 132 132 140 158
338 533 133 146 154 169
338 532 134 131 145 166
338 533 134 146 156 175
339 532 134 132 148 168
339 532 135 118 136 160
339 533 134 139 152 172
339 533 135 124 142 165
338 534 132 133 142 160
338 534 133 139 149 166
338 535 132 136 148 165
338 535 133 134 144 163
338 534 134 140 151 169
338 535 134 124 136 157
338 535 135 103 121 148
339 534 134 138 150 169
339 534 135 129 144 167
339 535 135 108 127 153
338 528 136 120 134 154
338 529 136 128 140 159
339 528 136 114 130 151
339 528 137 121 137 156
339 529 136 131 142 159
339 529 137 148 155 168
339 528 138 127 141 163
339 528 139 105 122 148
339 529 138 159 165 176
339 529 139 149 155 168
338 530 136 130 142 163
339 530 136 128 139 159
339 530 137 129 138 157
339 531 136 122 136 159
339 531 137 118 130 154
339 530 138 136 144 161
339 530 139 140 149 165
339 531 138 105 118 146
339 531 139 95 111 142
339 528 140 74 95 128
339 528 141 86 100 132
339 529 140 122 131 150
339 529 141 73 94 124
339 530 140 125 136 160
339 530 141 99 116 146
339 531 140 72 90 130
339 532 136 100 123 151
339 532 137 89 113 148
339 533 136 100 126 155
339 533 137 75 105 149
339 532 138 75 99 141
339 532 139 74 97 140
339 533 138 64 96 145
339 533 139 66 94 143
339 534 136 100 125 156
339 534 137 78 107 150
339 535 136 83 111 148
339 535 137 81 107 149
339 534 138 80 106 149
339 534 139 84 108 147
339 535 138 98 118 153
339 535 139 113 131 156
339 532 140 65 88 135
339 532 141 69 88 138
339 533 140 80 99 146
339 533 141 99 115 150
339 532 142 73 94 141
339 532 143 87 111 146
339 533 142 125 138 159
339 533 143 140 150 166
339 534 140 95 115 147
339 534 141 129 141 160
339 535 140 117 132 151
339 535 141 131 140 153
339 534 142 161 164 173
339 534 143 167 167 174
339 535 142 158 159 166
339 535 143 172 169 172
340 528 142 130 135 149
340 528 143 155 156 163
340 529 142 82 102 132
340 529 143 122 133 152
340 530 141 88 107 142
340 531 141 47 70 124
340 530 142 67 94 133
340 530 143 77 103 140
340 531 142 53 79 133
340 531 143 68 95 141
340 532 141 39 62 125
340 532 142 49 71 132
340 532 143 68 94 142
337 536 128 116 127 150
337 536 129 123 133 151
337 537 128 119 129 149
337 537 129 125 134 151
337 536 130 130 140 157
337 537 130 130 141 158
337 538 128 123 133 150
337 538 129 129 139 155
337 539 128 123 132 149
337 539 129 126 137 154
337 538 130 130 141 159
337 539 130 125 137 156
338 536 130 132 142 159
338 536 131 136 148 165
338 537 130 134 144 160
338 537 131 133 144 161
338 538 130 124 136 156
338 538 131 114 128 152
338 539 131 109 123 150
338 536 132 128 141 160
338 536 133 121 132 155
338 537 132 108 126 149
338 537 133 100 114 143
338 536 134 106 119 147
338 536 135 90 109 143
338 537 134 99 111 143
338 537 135 105 119 151
338 538 132 85 106 140
338 538 133 95 113 144
338 539 132 96 113 145
338 539 133 115 129 154
338 538 134 114 126 153
338 538 135 114 128 154
338 539 134 136 147 165
338 539 135 135 146 163
336 540 128 113 126 143
336 541 128 117 129 144
337 540 128 119 130 147
337 540 129 126 136 152
337 541 128 129 138 152
337 541 129 129 139 154
337 540 130 125 136 154
337 540 131 118 131 153
337 541 130 124 137 156
337 541 131 126 138 158
336 542 128 130 138 152
336 543 128 130 140 154
337 542 128 131 139 153
337 542 129 134 143 157
337 543 129 134 143 159
337 542 130 126 139 158
337 542 131 132 144 162
337 543 130 130 142 159
337 543 131 132 144 161
338 540 131 114 127 152
337 541 132 132 142 160
337 542 132 139 148 163
337 543 132 141 150 165
338 540 132 121 133 154
338 540 133 143 149 162
338 541 132 136 144 158
338 541 133 151 154 163
338 540 134 156 160 170
338 540 135 153 158 169
338 541 134 163 162 169
338 541 135 167 165 171
338 542 132 140 147 160
338 542 133 146 150 160
338 543 132 142 150 163
338 543 133 144 151 164
338 542 134 158 158 165
338 542 135 168 165 169
338 543 134 153 156 165
338 543 135 163 162 169
338 536 136 81 106 145
338 537 136 116 132 161
338 537 137 108 128 157
339 536 136 73 101 145
339 536 137 81 107 147
339 537 137 103 125 152
339 536 138 99 120 151
339 536 139 119 136 159
339 537 138 108 127 152
339 537 139 121 136 159
338 538 136 122 136 160
338 538 137 130 144 165
338 539 136 121 135 153
338 539 137 135 145 162
339 538 137 119 136 159
338 539 138 143 150 165
339 538 138 119 134 153
339 538 139 123 137 155
339 539 138 136 146 162
339 539 139 130 141 157
339 536 140 133 145 163
339 536 141 125 134 150
339 537 140 136 148 165
339 537 141 133 142 156
339 536 142 133 138 149
339 536 143 157 157 163
339 537 142 124 132 146
339 537 143 134 140 152
339 538 140 136 145 160
339 538 141 147 153 165
339 539 140 130 141 157
339 539 141 142 150 164
339 538 142 135 142 155
339 538 143 122 130 145
339 539 142 140 147 160
339 539 143 119 129 146
338 540 136 135 143 157
338 540 137 128 137 152
338 541 136 150 153 163
338 541 137 135 144 158
338 540 138 139 148 163
338 540 139 141 152 168
338 541 138 131 144 161
338 541 139 140 152 170
339 540 139 137 148 164
338 542 136 162 162 168
338 542 137 138 146 159
338 543 136 163 164 172
338 543 137 141 148 161
338 542 138 124 138 156
338 542 139 122 140 160
338 543 138 123 136 154
338 543 139 100 122 146
339 540 140 123 139 158
339 540 141 116 133 153
339 541 140 124 141 163
339 541 141 99 124 153
339 540 142 117 132 152
339 540 143 103 115 144
339 541 142 91 115 148
339 541 143 72 97 136
338 542 140 110 132 157
338 543 140 79 110 145
338 543 141 81 108 149
339 542 140 107 131 158
339 542 141 93 120 153
339 543 141 81 109 148
339 542 142 84 111 147
339 542 143 79 103 141
339 543 142 85 112 148
339 543 143 87 112 145
