ply
format ascii 1.0
comment Version 2, Copyright 2017, 8i Labs, Inc.
comment frame_to_world_scale 0.179523
comment frame_to_world_translation -45.2095 7.18301 -54.3561
comment width 1023
element vertex 21
property float x
property float y
property float z
property uchar red
property uchar green
property uchar blue
end_header
336 560 123 131 139 152
336 560 124 121 132 151
336 560 125 130 137 152
336 561 124 121 133 153
336 561 125 135 143 158
336 560 126 150 151 159
336 560 127 157 155 161
336 561 126 142 146 156
336 561 127 147 149 158
337 560 127 160 156 160
336 562 124 123 133 155
336 562 125 136 144 160
336 563 125 134 143 162
336 562 126 136 143 158
336 562 127 132 140 155
336 563 126 132 141 158
336 563 127 127 138 158
336 564 125 129 138 159
336 564 126 131 140 158
336 564 127 127 136 155
336 565 127 138 145 161
