ply
format ascii 1.0
comment Version 2, Copyright 2017, 8i Labs, Inc.
comment frame_to_world_scale 0.179523
comment frame_to_world_translation -45.2095 7.18301 -54.3561
comment width 1023
element vertex 308
property float x
property float y
property float z
property uchar red
property uchar green
property uchar blue
end_header
336 690 107 127 128 134
336 691 107 131 131 136
337 691 107 133 133 139
336 688 108 123 125 131
336 688 109 122 124 131
336 689 108 125 126 132
337 688 109 118 121 129
337 689 108 123 125 132
337 689 109 122 124 131
336 690 108 129 130 135
337 690 108 125 127 133
337 691 108 130 132 138
338 688 109 113 117 125
338 689 108 115 120 129
338 689 109 114 119 128
339 688 109 106 112 122
339 689 109 111 117 127
338 690 108 117 122 131
338 691 108 122 127 135
339 690 108 115 122 131
339 690 109 113 120 129
339 691 108 117 124 133
336 692 107 131 131 136
336 693 107 128 130 136
337 692 107 135 136 142
337 693 107 135 136 143
336 694 106 122 126 134
336 694 107 123 126 134
336 695 106 121 126 135
336 695 107 124 127 135
337 694 107 129 132 139
337 695 107 128 131 138
338 692 107 133 137 144
338 693 107 133 138 145
339 693 107 128 131 135
338 694 107 131 134 140
338 695 107 129 131 133
339 694 107 123 112 111
339 695 107 116 89 85
338 692 108 128 133 142
339 692 108 125 129 134
339 693 108 126 125 124
339 694 108 120 102 96
340 688 109 105 112 121
340 689 109 111 117 126
341 688 109 106 111 117
341 689 109 105 98 95
340 688 110 103 110 120
341 688 110 106 108 111
341 689 110 101 82 75
340 690 109 117 122 127
340 691 108 123 123 123
340 691 109 120 111 106
341 690 109 111 86 78
341 691 109 126 63 60
342 688 110 106 92 86
342 689 110 107 50 48
343 688 110 99 52 51
343 688 111 95 67 60
343 689 110 108 37 43
342 690 109 123 34 37
342 691 109 141 34 46
343 690 109 129 35 36
343 691 109 135 36 39
343 690 110 120 29 36
340 695 107 122 18 30
340 692 108 127 89 79
340 693 108 132 58 57
341 692 108 147 33 50
341 692 109 145 36 50
341 693 108 151 31 48
340 694 108 133 36 45
340 695 108 131 22 33
341 694 108 148 34 49
341 695 108 138 28 40
342 692 109 145 40 42
342 693 108 141 40 37
342 693 109 136 48 35
343 692 109 133 42 36
343 693 108 135 57 48
343 693 109 127 41 30
342 694 108 143 47 49
342 695 108 142 36 48
343 694 108 143 58 57
343 695 108 144 36 51
336 696 106 120 126 135
336 697 106 118 125 134
337 696 107 126 130 138
337 697 106 119 125 134
337 697 107 121 127 133
336 698 106 117 126 136
336 699 106 118 128 140
337 698 106 116 124 131
337 699 106 119 124 129
338 696 107 126 123 122
338 697 107 116 104 100
339 696 107 114 61 58
339 697 107 117 41 48
338 698 106 112 89 87
338 698 107 112 91 90
338 699 106 117 71 70
339 698 106 122 21 36
339 698 107 122 20 34
339 699 106 130 12 27
339 699 107 129 9 23
336 700 106 122 132 144
336 701 106 123 134 146
337 700 106 126 127 130
337 701 106 133 130 130
336 702 106 122 134 146
336 703 106 115 127 141
337 702 106 135 126 123
337 703 106 130 119 117
338 700 106 126 64 64
338 701 106 131 69 62
339 700 106 141 18 32
339 701 106 151 30 39
338 702 106 140 53 48
338 703 106 142 43 40
339 702 106 155 32 38
339 703 106 152 35 37
340 696 107 118 11 24
340 697 107 114 23 24
341 697 107 101 36 21
340 698 107 117 28 22
340 699 107 124 33 23
341 698 107 99 43 26
341 699 107 113 41 35
342 697 107 95 40 21
342 698 107 97 39 19
342 699 107 108 34 28
343 698 107 105 31 23
343 699 107 113 30 29
340 696 108 123 12 23
341 696 108 123 22 30
341 697 108 108 27 18
342 696 108 127 29 37
342 697 108 106 34 23
343 696 108 132 31 39
343 697 108 116 36 23
343 698 108 107 32 18
340 700 106 142 33 37
340 700 107 134 37 40
340 701 106 150 37 48
341 700 107 132 38 42
341 701 106 145 39 40
341 701 107 142 35 37
340 702 106 147 42 39
340 703 106 148 52 52
341 702 106 148 44 36
341 703 106 151 50 50
342 700 107 125 35 28
342 701 107 143 36 31
343 700 107 126 32 32
343 701 107 138 32 27
342 702 106 151 41 33
342 702 107 150 38 31
342 703 106 152 43 35
342 703 107 151 37 30
343 702 107 146 37 27
343 703 107 147 36 26
344 688 110 100 31 40
344 688 111 98 36 39
344 689 110 105 34 35
345 688 111 105 25 35
345 689 110 108 30 27
345 689 111 106 26 31
344 691 109 133 33 38
344 690 110 120 34 35
344 691 110 128 33 38
345 690 110 115 35 30
345 691 110 125 37 32
346 688 111 104 39 30
346 689 111 105 36 29
347 688 111 111 98 86
347 689 111 105 82 67
346 690 110 109 32 24
346 690 111 105 36 28
346 691 110 114 26 24
347 690 111 101 76 61
347 691 110 101 65 54
344 692 109 137 44 43
344 693 109 137 39 34
345 692 109 140 38 42
345 693 109 144 32 35
345 692 110 134 32 37
344 694 108 145 46 49
344 694 109 144 46 46
344 695 108 142 35 41
345 694 109 141 30 26
345 695 108 138 25 30
345 695 109 135 25 22
346 692 109 134 20 30
346 693 109 137 20 31
347 693 109 112 41 39
346 692 110 125 25 29
347 692 110 104 51 42
347 693 110 97 58 41
346 694 109 136 31 26
346 695 109 130 33 24
347 694 109 107 48 36
347 695 109 102 45 33
348 689 111 113 111 109
349 689 111 88 93 99
348 690 111 102 102 101
348 691 110 106 102 99
348 691 111 97 98 99
349 690 111 80 86 95
349 691 111 62 68 81
350 690 111 117 119 127
350 691 111 110 112 119
351 691 111 121 122 128
348 692 110 101 99 96
348 693 110 99 96 92
349 692 110 58 67 80
349 692 111 48 56 76
349 693 110 56 67 84
348 694 109 91 83 72
348 695 109 96 93 90
349 695 109 101 106 112
348 694 110 102 103 102
349 694 110 63 73 92
349 695 110 69 77 97
350 692 110 71 77 88
350 692 111 97 100 107
350 693 110 67 73 86
351 692 111 116 118 124
351 693 110 102 104 110
351 693 111 111 114 120
350 694 110 47 51 76
350 695 110 39 36 75
351 694 110 98 102 109
351 695 110 83 88 98
344 696 108 135 34 33
344 697 108 125 30 26
345 696 108 136 26 30
345 697 108 132 22 30
344 698 108 118 23 26
344 699 108 121 22 31
345 698 108 128 20 24
345 699 108 129 26 23
346 696 108 131 27 17
346 696 109 123 31 28
346 697 108 122 28 25
347 696 109 94 41 30
347 697 108 85 33 31
347 697 109 80 33 29
346 698 108 119 30 33
346 699 108 118 42 34
347 698 108 78 42 38
347 699 108 77 46 42
344 700 107 127 27 31
344 701 107 136 30 26
344 702 107 141 34 24
344 703 107 144 38 28
345 702 107 141 36 26
345 703 107 142 36 26
344 700 108 129 22 29
344 701 108 136 27 27
345 700 108 133 31 24
345 701 108 137 32 24
345 702 108 139 37 31
345 703 108 137 37 34
346 700 108 119 49 40
346 701 108 118 49 42
347 700 108 74 53 44
347 701 108 69 54 46
346 702 108 110 45 41
346 703 108 107 42 39
347 702 108 67 49 43
347 703 108 66 45 44
348 696 109 86 84 85
348 697 109 69 63 68
349 696 109 84 88 103
349 697 109 91 92 103
348 698 108 47 39 47
348 698 109 64 60 66
348 699 108 58 51 59
349 698 109 92 93 101
349 699 109 90 89 95
350 696 109 42 39 84
350 697 109 40 42 89
351 696 109 37 46 77
351 697 109 42 53 81
350 696 110 41 36 81
351 696 110 65 72 87
350 698 109 41 48 92
350 699 109 46 54 94
351 698 109 34 45 83
351 699 109 36 38 86
348 700 108 56 47 54
348 701 108 60 46 51
349 700 108 88 82 90
349 701 108 92 80 87
348 702 108 68 41 44
348 703 108 81 41 48
349 702 108 91 72 76
349 703 108 92 64 65
350 700 108 47 49 94
350 700 109 47 51 93
350 701 108 63 59 95
351 700 108 39 42 100
351 700 109 41 34 93
351 701 108 37 36 100
350 702 108 72 63 95
350 703 108 72 63 93
351 702 108 39 43 101
351 703 108 39 45 101
