ply
format ascii 1.0
comment Version 2, Copyright 2017, 8i Labs, Inc.
comment frame_to_world_scale 0.179523
comment frame_to_world_translation -45.2095 7.18301 -54.3561
comment width 1023
element vertex 398
property float x
property float y
property float z
property uchar red
property uchar green
property uchar blue
end_header
336 647 183 114 146 176
337 647 182 104 142 176
337 647 183 112 146 177
338 647 183 120 151 182
339 647 183 122 151 181
340 647 183 103 140 173
341 647 183 94 136 172
342 647 183 106 145 179
343 647 183 118 152 184
336 643 189 104 140 172
336 643 190 104 140 172
336 643 191 104 139 172
337 643 190 95 133 165
337 643 191 99 135 167
338 643 191 96 132 164
336 645 185 112 145 176
337 645 184 109 143 175
337 645 185 108 142 174
336 644 186 116 145 173
336 644 187 146 169 195
336 645 186 119 149 178
337 644 186 100 135 166
337 644 187 123 152 180
337 645 186 101 134 165
336 646 184 110 144 176
336 646 185 112 145 176
337 646 184 113 145 177
338 645 184 114 147 179
338 645 185 108 144 177
339 645 184 118 148 178
339 645 185 117 148 178
338 644 186 98 137 170
338 644 187 94 133 166
339 644 186 114 146 176
339 644 187 108 141 172
339 645 186 117 148 178
338 646 184 116 148 179
338 647 184 118 149 180
339 646 184 118 147 177
339 647 184 120 150 180
336 644 188 137 162 188
336 644 189 107 140 171
337 644 188 119 147 175
337 644 189 91 130 162
337 644 190 90 129 162
338 644 188 97 133 165
338 644 189 92 131 164
339 644 188 106 140 171
339 644 189 101 137 169
338 644 190 96 133 165
338 644 191 98 134 166
339 644 190 103 138 170
339 644 191 104 138 169
340 645 185 118 147 176
340 644 187 117 148 178
340 645 186 119 149 178
340 645 187 116 148 178
341 645 186 118 150 181
341 645 187 117 150 182
340 646 184 105 140 172
340 646 185 113 144 174
340 647 184 106 141 174
341 646 184 100 140 174
341 646 185 110 146 178
341 647 184 96 137 173
341 646 186 118 151 182
341 646 187 114 149 181
342 646 185 116 151 184
342 647 184 113 149 182
342 647 185 123 155 187
343 647 184 122 154 185
343 647 185 131 161 191
342 646 186 119 152 184
342 646 187 111 147 180
342 647 186 124 155 186
343 647 186 125 156 187
343 647 187 116 150 182
340 644 188 107 142 174
340 644 189 109 145 178
340 645 188 114 147 179
340 645 189 114 147 179
341 645 188 117 151 183
341 645 189 116 150 183
340 645 190 115 148 179
340 645 191 114 147 178
341 645 190 117 150 182
341 645 191 120 151 182
341 646 188 112 149 182
341 646 190 123 154 185
341 646 191 122 154 185
342 646 188 107 145 179
342 646 189 110 147 181
343 647 188 108 145 178
343 647 189 113 149 183
342 646 190 115 150 182
342 646 191 121 153 185
342 647 190 114 149 182
342 647 191 114 150 183
343 647 190 119 153 186
343 647 191 121 155 189
336 651 179 102 149 187
337 650 179 116 155 191
337 651 178 114 153 189
337 651 179 109 152 189
338 650 179 118 155 191
338 651 178 118 156 192
338 651 179 117 156 191
339 650 179 102 147 184
339 651 178 112 154 191
339 651 179 103 150 189
336 648 181 156 177 204
336 649 180 139 165 194
336 649 181 154 176 203
337 648 181 99 144 182
337 649 180 114 154 190
337 649 181 107 148 184
336 648 182 133 160 188
337 648 182 102 142 178
336 650 180 114 152 187
337 650 180 116 155 190
338 648 181 106 148 185
338 649 180 117 156 191
339 648 181 123 156 188
339 649 180 122 156 189
339 649 181 123 156 188
338 648 182 117 151 183
339 648 182 124 155 186
339 648 183 122 152 182
337 653 177 109 153 192
336 652 178 85 143 187
336 652 179 85 140 181
336 653 178 108 154 194
336 653 179 112 150 185
337 652 178 105 152 191
337 653 178 109 155 195
336 655 177 114 152 187
337 654 177 106 151 189
337 655 177 103 147 184
336 654 178 113 153 188
336 655 178 113 151 185
338 653 177 105 149 187
339 652 177 114 154 190
339 653 176 106 151 190
339 653 177 108 152 189
338 652 178 113 154 190
339 652 178 116 155 192
338 654 176 82 140 183
338 654 177 91 143 183
338 655 176 81 140 183
338 655 177 83 139 181
339 654 176 91 145 186
339 654 177 92 145 186
339 655 176 93 147 189
341 651 177 121 158 192
340 650 179 106 149 186
340 651 178 109 153 191
340 651 179 100 148 188
341 650 179 109 148 183
341 651 178 113 154 190
341 651 179 110 152 188
342 651 177 121 158 192
343 651 177 112 153 190
342 650 179 102 142 177
342 651 178 105 148 184
343 650 179 99 141 177
343 651 178 100 145 182
340 649 180 120 154 187
340 649 181 121 154 187
341 649 180 116 150 182
341 649 181 114 149 182
340 648 182 114 149 181
340 648 183 105 142 175
341 648 182 94 138 174
341 648 183 91 136 173
341 649 182 104 144 179
340 650 180 114 151 184
341 650 180 113 149 182
342 649 180 115 149 182
342 649 181 111 147 179
343 649 180 111 146 179
343 649 181 108 144 177
342 648 182 105 144 178
342 648 183 102 142 177
342 649 182 106 144 178
343 648 182 108 145 179
343 648 183 114 149 181
342 650 180 113 148 181
343 650 180 110 146 179
340 652 177 117 156 192
340 653 176 119 159 195
340 653 177 118 158 194
341 652 176 128 161 194
341 652 177 122 158 193
341 653 176 125 162 197
340 654 176 116 157 194
340 655 176 112 156 194
341 654 176 126 163 198
342 652 176 134 163 195
342 652 177 128 161 193
342 653 176 125 161 195
343 652 176 134 164 195
343 652 177 121 158 192
343 653 176 150 176 206
344 647 184 136 163 192
344 647 185 142 167 196
344 647 186 136 165 195
344 647 187 123 155 187
344 647 188 114 150 183
344 647 189 122 155 187
344 651 177 108 149 185
345 651 177 104 146 181
344 650 179 113 149 182
344 651 178 109 149 185
345 650 179 119 154 187
345 651 178 108 148 182
346 651 177 128 162 193
346 650 179 114 149 182
346 651 178 127 160 193
346 651 179 118 153 186
347 651 178 125 160 193
347 651 179 123 157 190
344 649 180 109 146 179
344 649 181 102 144 181
345 649 181 117 156 193
344 648 182 101 142 178
344 648 183 114 148 180
345 648 182 110 147 181
345 648 183 117 148 180
345 649 182 112 150 185
344 650 180 118 153 187
345 650 180 138 169 200
345 650 181 119 157 195
346 649 181 112 152 189
346 649 182 116 153 186
346 649 183 117 151 184
347 649 183 122 155 187
346 650 180 116 152 186
346 650 181 113 152 187
347 650 180 136 167 198
347 650 181 123 157 190
347 651 180 139 169 200
347 650 182 121 156 189
347 650 183 123 157 189
344 652 176 120 155 189
344 652 177 111 151 186
344 653 176 145 171 201
345 652 176 108 147 182
345 652 177 117 154 188
345 653 176 126 158 190
346 652 176 121 156 189
346 652 177 131 165 196
346 653 176 126 159 190
347 652 177 131 164 197
347 653 176 116 152 185
347 653 177 127 160 193
347 652 178 126 161 194
346 654 176 127 159 191
347 654 176 116 152 186
348 651 180 123 156 188
348 651 181 121 156 189
349 651 181 126 158 189
348 650 182 119 155 189
348 650 183 128 159 189
348 651 182 121 156 189
348 651 183 125 157 189
349 651 182 128 159 189
349 651 183 130 159 190
348 653 177 125 157 189
348 652 178 125 158 191
348 652 179 124 157 189
348 653 178 130 161 193
349 652 179 121 156 188
349 653 178 126 158 190
349 653 179 118 153 186
348 654 176 124 158 190
348 654 177 125 157 189
349 654 176 135 166 198
349 654 177 126 158 190
349 655 176 139 171 203
349 654 178 119 153 186
350 653 179 115 150 184
350 654 177 131 164 197
350 655 176 150 180 211
350 655 177 140 173 207
351 655 176 130 165 199
351 655 177 126 162 197
350 654 178 115 152 186
350 654 179 111 150 184
351 654 178 118 156 191
351 654 179 107 148 184
351 655 178 118 157 192
351 655 179 105 146 183
348 652 180 123 156 188
349 652 180 123 156 188
349 652 181 125 157 188
349 653 180 120 154 187
349 652 182 129 159 189
350 653 180 117 152 185
350 653 181 118 153 186
351 653 180 107 147 182
351 653 181 106 147 182
350 652 182 121 154 187
350 652 183 123 156 187
350 653 182 115 151 185
350 653 183 118 153 186
351 653 182 110 149 183
351 653 183 121 156 189
351 654 180 110 149 184
351 654 181 112 151 186
351 654 182 116 154 189
344 648 184 134 161 189
344 648 185 148 171 198
345 648 184 129 156 184
345 648 185 132 159 187
344 648 186 148 174 201
344 648 187 133 162 193
345 648 186 132 160 188
345 648 187 131 160 189
346 648 184 119 151 181
346 648 185 124 154 185
346 649 184 120 153 184
346 649 185 132 162 193
347 649 184 121 155 187
347 649 185 125 157 189
346 648 186 128 158 188
346 649 186 131 161 192
346 649 187 128 159 189
347 649 186 132 163 194
347 649 187 131 163 195
347 650 184 125 157 188
347 650 185 129 161 192
347 650 186 133 165 197
347 650 187 143 173 204
344 648 188 127 158 190
344 648 189 131 161 192
345 648 188 133 162 191
345 648 189 129 159 189
345 649 189 128 160 191
344 648 190 132 161 192
344 648 191 129 159 190
345 648 190 123 156 187
345 648 191 125 156 187
345 649 190 123 157 189
345 649 191 122 154 186
346 649 188 125 157 188
346 649 189 131 162 193
347 649 188 125 159 192
347 649 189 127 160 192
346 649 190 134 164 194
346 649 191 125 155 186
347 649 191 126 153 183
347 650 188 138 169 200
347 650 189 128 161 193
347 650 190 129 159 189
347 650 191 126 155 184
348 650 184 131 159 188
348 650 185 131 160 189
348 651 184 131 160 190
349 651 184 130 159 189
349 651 185 124 154 184
348 650 186 127 158 188
348 650 187 126 158 189
349 651 186 124 154 183
349 651 187 122 152 182
350 651 186 118 150 181
350 651 187 115 148 178
348 650 188 127 159 191
348 650 189 125 159 191
349 651 188 120 151 182
349 651 189 120 151 181
348 650 190 123 154 186
348 650 191 124 153 183
349 650 191 119 149 180
349 651 190 119 150 180
349 651 191 122 152 181
350 651 188 117 148 178
350 651 189 117 147 177
350 651 190 116 147 177
350 651 191 125 153 182
349 652 184 123 154 185
350 652 184 120 153 185
350 652 185 119 151 183
351 652 185 123 156 188
351 653 184 126 158 190
351 653 185 121 154 187
350 652 186 117 150 181
350 652 187 114 147 178
351 652 186 114 148 180
351 652 187 117 149 180
351 653 186 115 149 181
351 653 187 116 149 181
350 652 188 113 145 175
350 652 189 112 144 174
351 652 188 121 152 182
351 652 189 123 154 184
350 652 190 116 147 177
351 652 190 134 161 191
351 652 191 146 171 198
