ply
format ascii 1.0
comment Version 2, Copyright 2017, 8i Labs, Inc.
comment frame_to_world_scale 0.179523
comment frame_to_world_translation -45.2095 7.18301 -54.3561
comment width 1023
element vertex 349
property float x
property float y
property float z
property uchar red
property uchar green
property uchar blue
end_header
339 736 167 179 136 81
339 737 167 172 133 84
338 738 167 166 138 110
338 739 167 161 138 119
339 738 167 148 117 79
339 739 167 132 100 78
337 741 167 137 119 107
337 742 167 74 63 67
337 743 167 79 80 89
338 740 167 147 125 108
338 741 167 118 95 74
339 740 167 138 100 77
339 741 167 142 108 76
338 742 167 109 93 81
338 743 167 129 121 117
339 742 166 174 150 125
339 742 167 164 140 116
339 743 166 171 154 141
340 736 167 168 134 95
340 737 167 148 113 73
341 736 166 154 132 114
341 736 167 162 139 120
341 737 166 129 103 83
341 737 167 132 102 78
340 738 166 127 102 87
340 738 167 122 90 59
340 739 166 157 122 108
340 739 167 141 102 81
341 738 166 120 97 83
341 739 166 153 129 114
343 737 165 178 149 119
342 736 166 139 116 91
342 737 166 127 104 79
343 736 166 157 132 106
343 737 166 159 134 108
342 739 165 151 129 107
343 738 165 170 139 103
343 739 165 176 144 107
342 738 166 125 105 85
342 739 166 147 128 110
343 738 166 160 134 107
340 740 166 157 115 91
340 740 167 149 99 74
340 741 166 162 124 86
341 740 166 166 142 122
341 741 166 171 148 129
341 742 165 187 168 153
341 743 165 188 171 159
340 742 166 183 155 126
340 743 166 179 159 143
341 742 166 185 163 145
341 743 166 183 164 151
342 740 165 168 146 126
342 741 165 177 156 138
343 740 165 186 154 122
343 741 165 182 155 128
342 740 166 162 142 125
342 742 165 190 171 158
342 743 165 180 164 154
343 742 164 174 158 146
343 742 165 183 163 147
343 743 164 162 148 140
343 743 165 173 157 146
336 736 169 139 123 111
336 737 169 163 143 128
337 736 168 187 150 106
337 736 169 165 137 107
337 737 168 188 154 115
337 737 169 178 152 128
336 738 168 190 165 144
336 738 169 179 159 142
336 739 168 193 173 158
336 739 169 192 172 157
337 738 168 181 151 122
337 739 168 178 156 137
338 736 168 191 149 94
338 737 168 181 139 83
339 736 168 185 142 82
339 737 168 180 135 75
338 738 168 174 141 105
338 739 168 172 149 131
336 740 168 189 170 156
336 740 169 193 175 162
336 741 168 170 155 145
337 740 168 172 153 138
337 741 168 158 141 129
336 742 168 107 100 107
336 743 168 88 88 102
337 742 168 108 96 94
337 743 168 71 75 91
336 745 167 129 123 123
337 744 167 136 133 135
337 745 167 166 157 154
336 746 167 134 125 119
336 747 167 154 139 127
337 746 167 177 163 154
337 747 166 176 156 139
337 747 167 156 137 121
338 744 166 186 175 171
338 744 167 167 159 156
338 745 166 184 172 166
338 745 167 186 175 172
339 744 166 184 171 164
339 745 166 188 175 169
339 747 165 189 174 165
338 746 166 189 174 164
338 747 166 194 175 161
339 746 166 194 179 170
339 747 166 198 182 171
336 748 167 133 103 86
336 749 167 142 93 90
337 748 166 135 96 80
337 748 167 126 83 69
337 749 166 135 68 78
337 749 167 144 71 90
336 750 167 182 147 143
336 751 166 175 157 150
336 751 167 159 143 133
337 750 166 179 142 143
337 750 167 184 129 142
337 751 166 162 150 146
339 748 165 160 147 139
339 749 165 150 139 133
338 748 166 165 144 128
338 749 166 137 108 95
339 748 166 173 157 144
338 750 165 158 148 146
338 751 165 127 130 138
339 750 165 156 149 148
339 751 165 140 141 149
338 750 166 151 131 125
338 751 166 133 132 137
340 745 165 191 178 171
341 744 165 186 172 163
341 745 165 166 156 152
340 744 166 183 168 159
340 745 166 191 178 171
340 746 165 184 172 165
340 747 165 174 163 158
341 746 165 139 136 138
341 747 165 139 135 137
340 746 166 195 181 173
342 744 165 163 152 146
342 745 164 108 108 116
342 745 165 130 126 130
343 744 164 126 118 119
343 745 164 76 77 94
342 746 164 108 116 132
342 746 165 117 121 132
342 747 164 122 125 134
343 746 164 93 101 117
343 747 164 134 133 138
343 748 163 177 166 161
343 749 163 180 167 159
342 750 163 155 138 126
342 751 163 135 94 86
343 750 163 171 153 139
343 751 163 142 105 89
340 748 165 148 140 137
340 749 165 128 125 127
341 748 164 138 138 142
341 748 165 141 139 141
341 749 164 117 118 125
341 749 165 111 113 120
340 750 165 126 125 129
340 751 164 171 165 166
340 751 165 161 158 162
341 750 164 127 126 129
341 751 164 153 139 133
342 748 164 143 140 143
342 749 164 133 129 130
343 748 164 166 159 157
343 749 164 163 153 147
342 750 164 150 141 137
342 751 164 136 102 96
336 744 168 113 113 118
336 745 168 114 111 114
336 746 168 109 106 107
347 738 163 133 110 86
347 739 163 120 99 76
344 736 165 167 137 104
344 737 165 183 148 107
345 736 165 175 145 113
345 737 164 184 152 119
345 737 165 184 151 114
344 738 165 194 155 107
344 739 164 183 143 91
344 739 165 191 151 100
345 738 164 181 146 103
345 738 165 193 156 113
345 739 164 174 140 102
346 736 164 174 149 125
346 737 164 176 151 128
347 736 164 156 135 115
347 737 164 160 140 123
346 738 164 168 140 112
346 739 164 151 126 99
347 738 164 151 129 108
347 739 164 130 108 86
345 743 163 111 91 72
346 741 163 160 140 132
347 740 163 132 113 102
347 741 163 177 160 156
346 742 163 128 101 86
346 743 163 135 108 83
347 742 163 144 114 102
347 743 163 145 115 90
344 740 164 182 146 103
344 740 165 185 147 99
344 741 164 180 155 132
344 741 165 182 149 115
345 740 164 175 148 121
345 741 164 160 139 121
344 742 164 168 153 143
344 743 164 126 117 112
345 742 164 126 110 98
345 743 164 92 81 73
346 740 164 144 124 110
346 741 164 151 133 123
348 736 163 148 130 114
348 737 163 150 131 114
349 736 163 152 129 108
349 737 163 144 124 105
348 738 163 138 115 92
348 739 163 121 97 76
349 738 162 137 113 87
349 738 163 139 116 93
349 739 162 145 119 91
349 739 163 142 118 95
350 736 162 159 131 111
350 736 163 160 134 113
350 737 162 148 121 97
350 737 163 143 119 96
351 736 162 159 133 115
351 737 162 160 132 106
350 738 162 150 125 99
350 739 162 165 137 105
351 738 162 161 132 99
351 739 162 173 140 103
348 736 164 146 127 110
348 737 164 152 133 117
348 740 163 121 102 87
348 741 163 132 114 104
349 740 162 142 118 93
349 740 163 124 101 82
349 741 162 136 115 94
349 741 163 112 94 77
348 742 162 148 128 113
348 742 163 138 116 101
348 743 162 159 139 124
348 743 163 147 125 106
349 742 162 158 137 119
349 743 162 175 152 131
351 740 161 189 152 109
351 741 161 196 156 105
350 740 162 176 143 107
350 741 162 178 143 102
351 740 162 187 151 107
351 741 162 198 159 113
350 742 161 195 155 109
350 743 161 187 152 114
351 742 161 187 143 85
351 743 161 180 143 99
350 742 162 188 152 109
350 743 162 195 162 126
344 745 163 104 103 106
345 744 163 132 111 91
345 745 163 146 131 119
344 746 163 134 130 129
344 747 163 165 156 154
345 746 163 169 155 146
345 747 163 190 176 169
346 744 163 164 133 99
346 745 163 184 156 129
347 744 162 177 152 128
347 744 163 165 135 106
347 745 162 190 166 145
347 745 163 192 163 136
346 746 162 186 164 147
346 746 163 184 164 148
346 747 162 189 172 160
347 746 162 188 169 154
347 747 162 192 175 165
344 744 164 80 77 81
344 745 164 65 70 81
345 744 164 83 74 70
344 746 164 102 105 114
344 748 163 182 169 162
344 749 163 182 166 155
345 748 162 192 176 166
345 748 163 187 172 163
345 749 162 194 176 164
345 749 163 186 168 156
344 750 163 191 172 157
344 751 163 166 146 129
345 750 162 182 167 158
345 750 163 196 178 166
345 751 162 144 134 134
346 748 162 195 178 167
346 749 162 187 171 160
347 748 162 194 178 168
347 749 162 158 146 142
346 751 161 87 91 104
347 750 161 107 107 116
347 751 161 100 106 119
346 750 162 141 131 127
346 751 162 99 98 107
347 750 162 110 103 106
349 744 161 184 157 132
349 745 161 186 163 143
348 744 162 174 153 137
348 745 162 191 171 156
349 744 162 183 160 140
349 745 162 194 173 156
348 747 161 177 160 149
349 746 161 176 156 141
349 747 161 154 136 124
348 746 162 191 173 162
348 747 162 188 172 161
349 746 162 190 172 158
350 744 161 177 148 117
350 745 161 176 152 131
351 744 161 165 134 102
351 745 161 153 122 95
350 746 161 153 129 108
350 747 161 125 93 69
351 746 160 139 92 47
351 746 161 136 97 66
351 747 160 160 123 84
348 748 161 158 145 140
348 749 161 116 109 120
349 748 161 109 97 97
349 749 161 62 61 82
348 748 162 181 166 157
348 750 161 100 107 123
348 751 161 127 129 137
349 750 160 110 117 128
349 750 161 74 86 107
349 751 160 154 150 153
350 748 160 154 128 103
350 748 161 108 85 73
350 749 160 148 132 119
350 749 161 82 77 86
351 748 160 176 147 117
351 749 160 178 155 135
350 750 160 153 146 145
350 751 160 178 166 161
351 750 160 182 166 155
351 751 160 184 169 160
