ply
format ascii 1.0
comment Version 2, Copyright 2017, 8i Labs, Inc.
comment frame_to_world_scale 0.179523
comment frame_to_world_translation -45.2095 7.18301 -54.3561
comment width 1023
element vertex 311
property float x
property float y
property float z
property uchar red
property uchar green
property uchar blue
end_header
339 672 175 151 27 48
339 673 175 152 44 53
339 674 175 155 46 53
339 675 175 147 34 41
339 676 175 151 62 61
339 677 175 166 83 80
338 678 175 152 27 42
338 679 175 152 25 47
339 678 175 156 45 52
339 679 175 150 33 48
340 672 174 152 56 54
340 672 175 154 38 51
340 673 174 157 77 75
340 673 175 161 65 73
341 672 174 147 52 48
341 673 174 148 59 54
340 674 174 156 68 74
340 674 175 159 62 70
340 675 174 149 48 59
340 675 175 148 40 53
341 674 174 152 56 59
341 675 174 150 44 51
342 672 173 154 52 61
342 673 173 146 41 48
343 672 173 154 85 82
343 673 173 135 61 61
342 672 174 150 43 53
342 673 174 145 40 40
342 674 173 157 72 76
342 675 173 170 100 98
343 674 173 142 93 91
343 675 173 151 118 111
342 674 174 152 48 53
342 675 174 159 62 67
340 676 174 162 78 81
340 676 175 163 83 87
340 677 174 171 91 92
340 677 175 179 113 113
341 676 174 147 49 52
341 677 174 150 63 61
340 678 174 157 50 52
340 678 175 159 61 64
340 679 174 151 33 47
340 679 175 150 40 48
341 678 174 151 56 52
341 679 174 142 45 49
342 676 173 137 75 74
342 677 173 153 99 102
343 676 173 113 78 76
343 677 173 111 73 80
342 676 174 140 53 56
342 678 173 152 98 103
342 679 173 127 62 70
343 678 173 104 60 71
343 679 172 96 57 74
343 679 173 104 51 62
337 682 175 147 22 47
337 683 175 150 44 56
338 680 175 158 52 60
338 681 175 153 41 51
339 680 175 166 86 89
339 681 175 151 63 64
338 682 175 144 25 41
338 683 175 152 60 70
339 682 174 137 30 36
339 682 175 140 36 36
339 683 174 146 66 68
339 683 175 151 73 76
336 685 175 147 66 80
337 684 175 159 68 71
337 685 175 153 56 67
336 686 175 145 61 68
336 687 175 166 93 93
337 686 174 144 58 68
337 686 175 146 53 67
337 687 174 149 73 78
337 687 175 162 83 91
338 684 174 156 69 73
338 684 175 168 91 94
338 685 174 142 42 47
338 685 175 148 47 54
339 684 174 160 84 89
339 685 174 137 37 42
339 687 173 143 80 81
338 686 174 140 58 57
338 687 174 148 83 78
339 686 174 134 57 50
339 687 174 145 83 78
340 680 174 153 66 70
340 680 175 161 80 79
340 681 174 143 48 49
341 680 174 138 49 58
341 681 174 143 66 61
341 682 173 132 62 59
341 683 173 132 72 76
340 682 174 135 32 35
340 683 174 136 58 58
341 682 174 131 45 41
341 683 174 128 55 56
342 680 173 127 76 82
342 681 173 135 88 92
343 680 172 116 86 102
343 680 173 111 69 79
343 681 172 93 42 61
343 681 173 107 64 77
342 680 174 132 66 69
342 682 173 116 60 67
342 683 172 89 24 36
342 683 173 114 57 63
343 682 172 84 15 39
343 683 172 93 20 40
343 685 171 134 43 72
342 687 171 132 27 50
343 686 171 142 42 68
343 687 171 155 51 59
340 684 173 148 73 83
340 685 173 136 44 60
341 684 173 149 93 101
341 685 173 145 68 86
340 684 174 142 63 69
340 685 174 138 41 54
340 686 173 135 61 73
340 687 173 146 95 103
341 686 172 117 37 63
341 686 173 130 54 75
341 687 172 103 29 47
341 687 173 121 64 72
342 684 172 110 44 67
342 684 173 130 76 92
342 685 172 141 67 95
343 684 172 105 22 48
343 685 172 120 33 65
342 686 172 124 34 64
342 687 172 109 13 40
351 677 167 165 73 73
351 678 167 151 32 47
351 679 167 152 44 58
345 672 171 57 75 113
345 673 171 67 73 111
345 674 171 65 66 97
345 675 171 63 63 84
346 672 171 43 58 128
346 673 171 51 59 125
347 672 170 45 61 126
347 673 170 44 56 123
346 674 171 54 54 116
346 675 171 60 59 105
347 674 170 54 61 124
347 675 170 55 62 119
344 672 172 108 83 81
344 673 172 92 61 60
345 672 172 63 62 80
345 673 172 59 53 76
344 674 172 88 68 66
344 675 172 79 69 66
345 674 172 58 52 66
345 675 172 54 49 59
345 676 171 70 61 69
345 677 171 74 49 62
345 678 171 90 50 67
345 679 171 102 53 73
346 676 170 50 54 108
346 676 171 73 70 96
346 677 170 52 51 117
346 677 171 72 58 92
347 676 170 48 61 117
347 677 170 45 59 128
346 678 170 66 61 120
346 678 171 85 61 95
346 679 170 63 55 110
346 679 171 92 62 95
347 678 170 53 63 132
347 679 170 48 55 122
344 676 172 64 50 55
344 677 172 61 38 51
345 676 172 57 46 53
345 677 172 66 42 53
344 678 172 65 31 54
344 679 172 98 61 85
345 678 172 80 41 58
345 679 172 106 59 80
348 673 169 114 143 171
349 672 169 125 160 191
349 673 169 135 167 196
348 672 170 90 124 159
348 673 170 87 119 152
348 674 169 118 145 174
348 675 169 112 140 170
349 674 169 134 163 191
349 675 169 115 147 175
348 674 170 88 115 150
348 675 170 91 113 150
350 672 169 145 174 202
350 673 169 181 197 218
351 672 169 121 142 164
351 673 168 154 138 144
351 673 169 170 172 186
350 674 169 142 156 180
350 675 168 106 113 135
350 675 169 110 132 156
351 674 168 128 103 116
351 675 168 124 87 97
348 676 169 105 135 168
348 677 169 90 118 159
349 676 169 128 158 186
349 677 169 131 158 184
348 676 170 79 106 144
348 678 169 83 109 153
348 679 169 77 103 143
349 678 169 113 140 164
349 679 168 115 129 146
349 679 169 109 132 156
350 676 168 143 139 150
350 676 169 143 163 184
350 677 168 136 120 130
351 676 168 174 141 139
351 677 168 180 119 117
350 678 168 122 83 91
350 679 168 132 83 83
351 678 168 147 38 56
351 680 167 158 63 71
351 681 167 153 55 67
350 683 167 168 90 103
351 682 167 152 51 67
351 683 167 157 64 66
349 686 167 140 27 56
349 687 167 151 57 79
350 684 167 160 75 79
350 685 167 147 41 56
351 684 166 145 63 60
351 684 167 144 47 44
351 685 166 169 104 111
351 685 167 152 66 67
350 686 167 152 40 57
350 687 167 150 31 51
351 686 166 169 89 96
351 687 166 150 42 50
345 680 171 111 53 77
345 681 171 112 36 70
344 682 171 115 24 64
344 683 171 123 39 67
345 682 171 122 45 78
345 683 171 125 53 84
347 681 169 49 61 120
346 680 170 65 45 111
346 680 171 95 54 93
346 681 170 76 42 110
346 681 171 97 42 91
347 680 170 49 56 121
347 681 170 52 56 123
347 682 169 62 63 113
347 683 169 97 95 109
346 682 170 87 52 106
346 682 171 107 51 93
346 683 170 101 69 95
347 682 170 62 53 113
344 680 172 127 89 111
344 681 172 104 37 69
345 680 172 118 67 88
344 682 172 103 15 56
344 683 172 109 20 57
344 684 171 126 45 71
344 685 171 155 77 101
345 684 170 126 68 86
345 684 171 133 57 82
345 685 170 159 113 113
345 685 171 151 86 102
344 686 170 150 78 75
344 686 171 156 72 86
344 687 170 155 90 58
344 687 171 159 72 59
345 686 170 157 116 93
345 687 170 163 123 80
346 685 169 184 156 121
347 684 169 145 135 125
347 685 169 170 148 121
346 684 170 123 101 95
346 685 170 154 127 102
346 686 169 189 157 116
346 687 169 196 162 117
347 686 169 184 153 113
347 687 168 164 137 104
347 687 169 191 159 117
346 686 170 174 144 104
348 680 169 76 103 138
348 681 169 78 96 132
349 680 168 115 118 134
349 680 169 106 122 144
349 681 168 116 91 107
349 681 169 107 109 130
348 682 169 86 93 123
348 683 169 104 103 115
349 682 168 116 82 104
349 682 169 109 96 119
349 683 168 133 103 116
350 680 168 143 113 110
350 681 168 136 79 87
351 680 168 165 108 103
350 682 168 136 53 79
350 683 168 167 112 120
348 684 168 123 106 110
348 684 169 124 115 112
348 685 168 135 102 91
348 685 169 143 122 105
349 684 168 143 101 107
349 685 168 130 54 68
348 686 168 142 104 83
348 687 168 143 108 98
349 686 168 133 48 61
349 687 168 145 77 91
350 684 168 173 116 117
