ply
format ascii 1.0
comment Version 2, Copyright 2017, 8i Labs, Inc.
comment frame_to_world_scale 0.179523
comment frame_to_world_translation -45.2095 7.18301 -54.3561
comment width 1023
element vertex 343
property float x
property float y
property float z
property uchar red
property uchar green
property uchar blue
end_header
336 768 101 161 149 143
336 769 101 158 149 146
337 768 101 152 140 134
337 769 101 139 129 124
337 768 102 131 119 114
337 769 102 121 116 115
336 770 101 153 142 138
336 771 101 151 141 138
336 771 102 148 138 135
337 770 102 138 131 131
337 771 102 156 146 142
338 768 102 112 102 99
338 769 102 123 118 118
339 768 102 109 106 108
339 769 102 133 127 125
339 769 103 145 137 134
338 770 102 153 145 142
338 770 103 153 142 135
338 771 102 150 139 132
338 771 103 162 149 140
339 770 103 161 150 144
339 771 103 166 152 142
336 772 102 140 134 134
336 773 102 141 135 135
337 772 102 152 143 139
337 772 103 158 148 143
337 773 102 137 129 125
337 773 103 145 133 128
336 774 102 140 128 119
336 774 103 142 122 105
336 775 102 146 125 108
336 775 103 154 129 108
337 774 103 138 120 104
337 775 103 159 130 106
338 772 103 162 150 144
338 773 103 148 135 127
339 772 103 153 140 133
339 773 103 147 134 126
338 774 103 142 123 108
340 768 102 140 133 131
340 768 103 145 133 125
340 769 103 153 143 137
341 768 103 160 144 133
341 769 103 164 150 141
340 770 103 168 157 151
340 771 103 160 147 139
341 770 103 168 156 150
342 768 103 165 143 127
337 775 104 170 140 118
339 773 104 141 128 120
338 774 104 146 124 108
338 775 104 167 141 121
339 774 104 148 132 120
339 775 104 163 144 129
339 775 105 159 142 131
341 769 104 144 133 127
340 771 104 145 134 127
341 770 104 154 141 134
341 771 104 133 122 116
342 768 104 142 125 115
342 769 104 131 118 110
343 768 104 129 104 95
343 769 104 116 101 92
342 770 104 128 117 110
342 771 104 115 106 101
342 771 105 111 101 97
343 770 104 111 99 91
343 770 105 110 97 88
343 771 105 115 102 94
340 772 104 137 125 119
340 773 104 124 112 104
341 772 104 105 96 89
341 773 104 105 95 88
341 773 105 107 97 92
340 774 104 136 123 113
340 774 105 156 144 139
340 775 105 158 145 138
341 774 105 124 113 106
341 775 105 136 124 116
341 775 106 136 123 114
342 772 105 112 103 99
342 773 105 137 128 124
343 772 105 131 118 111
343 773 105 158 147 143
343 773 106 161 147 140
342 774 105 132 120 112
342 774 106 151 139 131
342 775 106 148 133 122
343 774 106 163 148 138
343 775 106 158 141 129
343 775 107 162 145 133
336 776 103 173 146 126
336 777 103 175 159 148
337 776 103 174 143 118
336 778 103 164 157 156
337 776 104 173 142 119
337 777 104 164 145 132
336 778 104 149 144 145
336 779 104 129 128 131
337 778 104 154 146 145
337 778 105 151 145 145
337 779 104 131 125 125
337 779 105 122 120 123
338 776 104 162 138 119
338 777 104 151 136 127
338 777 105 148 136 127
339 776 104 155 135 120
339 776 105 149 135 124
339 777 105 148 138 133
338 778 105 149 143 142
338 779 105 113 109 109
339 778 105 159 151 150
338 779 106 112 108 107
339 778 106 151 140 136
339 779 106 115 106 101
336 780 104 124 137 153
336 780 105 123 143 165
336 781 105 125 148 173
337 780 105 132 144 160
337 781 105 119 144 169
337 780 106 142 155 172
337 781 106 132 144 159
336 782 105 129 134 145
336 782 106 142 123 107
336 783 106 156 121 87
336 783 107 171 134 97
337 782 106 159 137 117
337 782 107 187 149 104
337 783 107 189 152 110
338 780 106 139 146 158
338 781 106 147 149 156
338 781 107 175 162 154
339 780 106 146 147 154
339 780 107 171 168 171
339 781 107 182 167 157
338 782 107 206 173 138
339 782 107 212 181 149
337 783 108 210 174 138
338 782 108 215 173 124
338 783 108 216 179 139
339 782 108 227 189 149
339 783 108 226 188 147
339 783 109 216 179 141
340 776 105 144 134 128
340 777 105 155 145 141
341 776 105 138 128 122
340 777 106 161 149 143
341 776 106 157 143 134
341 777 106 173 155 144
341 777 107 182 160 144
340 778 106 161 147 138
340 779 106 121 105 90
340 779 107 121 103 87
341 778 106 180 161 150
341 778 107 163 141 122
341 779 107 123 98 73
342 776 106 165 146 131
342 776 107 162 140 122
342 777 107 174 148 128
343 776 107 153 129 109
343 777 107 163 134 113
342 778 107 175 150 128
341 779 108 117 86 57
343 777 108 173 143 123
342 778 108 176 151 128
342 779 108 129 98 71
343 778 108 179 152 128
343 779 108 144 116 91
343 779 109 157 134 115
340 780 107 168 157 151
340 781 107 190 173 161
341 780 107 153 134 121
340 781 108 198 170 144
341 780 108 152 124 98
341 781 108 186 156 126
341 781 109 179 150 120
340 782 108 222 188 153
340 782 109 218 184 148
340 783 109 205 170 136
341 782 109 195 166 138
340 783 110 177 146 120
341 782 110 168 142 116
341 783 110 149 120 100
341 783 111 137 108 100
342 780 108 134 101 67
342 780 109 153 124 95
342 781 109 175 151 131
343 780 109 168 148 133
342 781 110 163 144 129
343 780 110 178 166 162
343 781 110 156 143 136
342 782 110 149 126 103
342 782 111 123 95 70
342 783 111 134 101 79
343 782 110 145 124 106
343 782 111 142 116 95
343 783 111 147 112 76
344 768 104 128 97 80
344 768 105 120 92 74
344 769 104 112 89 73
344 769 105 97 73 57
345 768 105 128 91 62
345 769 105 122 95 71
345 769 106 155 126 96
344 770 105 98 81 65
344 771 105 125 108 93
345 770 105 108 86 61
344 771 106 130 110 92
345 770 106 139 116 94
345 771 106 151 131 114
346 768 105 156 114 74
346 769 105 161 129 95
346 768 106 177 137 95
346 769 106 174 143 107
347 768 106 182 147 107
347 769 106 179 149 116
347 769 107 176 149 123
346 770 106 164 140 116
346 771 106 170 151 136
346 771 107 176 158 146
347 770 106 172 146 120
347 770 107 180 159 142
347 771 107 190 176 169
344 772 105 133 116 101
344 772 106 160 141 127
344 773 106 176 159 147
345 772 106 168 147 129
345 772 107 182 161 145
345 773 106 186 167 153
345 773 107 190 172 159
344 774 106 170 153 140
344 774 107 178 162 151
344 775 107 164 148 138
345 774 107 173 158 148
345 775 107 167 153 144
346 772 107 183 166 154
346 773 107 188 171 160
347 772 107 193 177 169
346 774 107 186 171 163
345 774 108 155 146 144
345 775 108 156 145 138
347 772 108 188 172 163
347 773 108 175 162 155
346 774 108 144 138 138
346 775 108 116 109 109
346 775 109 112 97 86
347 774 108 132 133 138
347 774 109 91 100 114
347 775 109 94 90 91
348 768 106 178 150 120
348 768 107 174 149 125
348 769 107 173 150 127
349 768 107 164 141 121
349 769 107 163 145 129
348 770 107 179 162 149
348 771 107 191 178 171
349 770 107 169 153 141
350 768 107 153 126 103
349 769 108 154 138 125
348 771 108 190 175 166
349 770 108 165 151 142
349 771 108 181 164 152
350 768 108 151 128 107
350 769 108 151 135 123
351 768 108 143 117 91
351 769 108 144 126 111
351 769 109 152 135 122
350 770 108 152 140 134
350 770 109 158 146 139
350 771 109 169 152 140
351 770 109 156 142 133
351 771 109 172 153 139
351 771 110 182 161 145
348 772 108 182 165 154
348 773 108 155 145 139
349 772 108 171 152 138
349 772 109 164 146 131
349 773 109 163 152 147
348 774 108 154 151 155
348 774 109 128 131 138
348 775 109 128 122 121
349 774 109 156 151 151
349 775 109 145 139 138
348 775 110 162 147 138
349 774 110 174 162 157
349 775 110 178 162 151
349 775 111 174 149 130
350 772 109 171 153 140
350 773 109 182 168 161
351 772 109 177 158 143
350 773 110 179 163 154
351 772 110 192 173 159
351 773 110 188 169 154
350 774 110 191 175 163
350 775 110 199 180 168
350 775 111 182 158 138
351 774 110 195 175 159
351 774 111 207 186 170
351 775 111 190 170 155
344 776 107 157 133 113
344 776 108 156 130 113
344 777 108 169 141 123
345 776 108 168 145 127
345 777 108 162 134 112
345 777 109 167 140 120
344 778 108 190 161 137
344 778 109 193 170 152
344 779 109 184 165 153
345 778 109 192 167 151
345 779 109 193 173 160
344 779 110 184 172 167
345 778 110 190 173 164
345 779 110 169 160 159
345 779 111 128 140 158
346 776 109 166 146 131
346 777 109 169 147 131
347 776 109 151 136 124
346 777 110 164 144 133
347 776 110 164 148 137
347 777 110 162 146 137
346 778 110 168 152 149
346 779 110 163 152 151
346 779 111 135 145 159
347 778 110 152 138 139
347 778 111 164 155 156
347 779 111 158 158 164
344 780 110 162 159 163
344 781 110 141 139 144
344 781 111 141 137 139
345 780 110 143 151 164
345 780 111 117 141 165
345 781 111 126 132 142
344 782 111 154 125 103
346 780 111 113 146 176
348 776 110 176 157 145
348 777 110 177 157 147
348 777 111 178 157 147
349 776 110 183 158 144
349 776 111 169 132 113
349 777 111 187 154 138
348 778 111 189 177 174
349 778 111 198 180 171
350 776 111 166 125 105
