ply
format ascii 1.0
comment Version 2, Copyright 2017, 8i Labs, Inc.
comment frame_to_world_scale 0.179523
comment frame_to_world_translation -45.2095 7.18301 -54.3561
comment width 1023
element vertex 373
property float x
property float y
property float z
property uchar red
property uchar green
property uchar blue
end_header
336 752 97 144 131 121
336 753 97 159 143 131
337 752 97 119 104 92
337 753 97 136 118 103
336 754 97 164 141 118
336 755 97 154 128 98
337 754 97 164 137 111
337 755 97 177 141 98
338 752 97 106 93 81
338 753 97 130 114 101
339 752 97 145 130 119
339 753 97 159 141 128
338 754 97 158 134 111
338 755 97 174 143 110
339 754 97 165 144 125
339 755 97 169 143 119
339 755 98 169 144 119
336 756 97 151 121 85
336 757 97 153 121 83
337 756 97 177 139 90
337 757 97 180 140 89
337 757 98 185 148 104
336 758 97 162 128 84
336 759 97 176 137 85
337 758 97 180 140 89
336 759 98 185 142 85
337 758 98 177 143 106
337 759 98 179 142 99
338 756 97 180 146 106
338 756 98 177 145 109
338 757 98 172 142 109
339 756 98 168 140 113
339 757 98 165 139 114
338 758 98 167 138 108
338 759 98 163 133 101
338 759 99 160 131 100
339 758 98 171 144 117
339 758 99 174 146 118
339 759 99 174 144 113
340 752 97 154 135 120
340 753 97 167 146 129
340 752 98 153 133 114
340 753 98 164 143 124
341 752 98 152 131 113
341 753 98 158 137 118
340 754 98 173 151 131
340 755 98 171 146 124
341 754 98 165 142 123
341 755 98 170 146 124
342 752 98 146 127 109
342 753 98 152 132 115
343 752 98 150 132 116
343 752 99 152 134 119
343 753 99 152 134 119
342 754 98 161 140 121
342 754 99 160 139 121
342 755 98 168 145 124
342 755 99 176 151 129
343 754 99 166 145 125
343 755 99 184 158 135
343 755 100 188 163 137
340 756 98 169 143 118
340 757 98 168 141 114
340 757 99 173 145 115
341 756 98 172 146 120
341 756 99 174 146 118
341 757 99 183 152 118
340 758 99 184 153 118
340 759 99 194 161 123
341 758 99 194 162 124
342 756 99 183 156 131
342 757 99 185 156 128
340 759 100 206 172 133
341 758 100 202 170 133
341 759 100 210 178 139
342 756 100 190 164 140
342 757 100 189 161 135
343 756 100 185 160 136
343 757 100 185 161 139
343 757 101 175 152 132
342 758 100 193 165 137
342 758 101 180 157 136
342 759 100 198 170 139
342 759 101 181 156 133
343 758 101 165 145 128
343 759 101 158 136 118
343 759 102 141 124 110
336 760 98 189 142 79
336 761 98 182 133 68
337 760 98 177 138 91
337 760 99 164 130 94
337 761 99 156 120 84
336 762 98 178 132 76
336 762 99 169 121 69
336 763 99 178 128 83
337 762 99 161 120 82
337 763 99 179 132 90
338 760 99 157 130 102
338 761 99 166 140 116
339 760 99 175 145 114
338 762 99 167 140 113
336 763 100 193 140 93
337 762 100 176 148 121
337 763 100 196 155 115
338 761 100 180 152 126
339 760 100 188 155 119
339 761 100 198 164 130
338 762 100 196 167 140
338 763 100 201 171 143
338 763 101 201 175 153
339 762 100 206 172 138
339 762 101 202 169 134
339 763 101 195 169 145
336 764 99 186 139 89
336 764 100 196 154 108
336 765 100 196 167 137
337 764 100 205 168 131
337 764 101 206 177 150
337 765 100 206 180 155
337 765 101 204 180 158
336 766 100 188 166 147
336 766 101 184 164 146
336 767 100 165 146 132
336 767 101 169 152 140
337 766 101 185 165 149
337 767 101 170 152 140
337 767 102 154 140 131
338 764 101 203 179 159
338 765 101 188 168 153
339 764 101 182 162 148
339 765 101 182 161 145
339 765 102 166 149 138
338 766 101 175 157 144
338 766 102 167 150 138
338 767 102 144 129 121
339 766 102 144 130 120
339 767 102 114 105 101
340 760 100 207 173 134
340 761 100 211 176 137
340 761 101 204 170 131
341 760 100 211 180 144
341 760 101 203 174 142
341 761 101 191 159 125
340 762 101 195 162 127
340 763 101 179 153 135
341 762 101 162 128 99
341 763 101 156 124 108
340 763 102 165 144 129
341 763 102 144 110 97
342 760 101 182 155 131
342 761 101 163 133 112
343 760 101 156 133 117
342 761 102 140 114 100
343 760 102 135 117 107
343 761 102 126 107 96
342 762 101 135 101 79
342 762 102 118 85 69
342 763 102 128 86 61
342 763 103 152 102 50
343 762 102 115 94 77
343 762 103 122 99 71
343 763 103 134 103 69
340 764 102 160 143 131
340 765 102 148 131 117
341 764 102 147 119 97
341 765 102 155 128 100
341 765 103 157 129 98
340 766 102 139 124 113
340 767 102 134 123 115
340 767 103 143 129 118
341 766 102 173 147 120
341 766 103 166 139 111
341 767 103 150 130 110
342 764 102 145 105 68
342 764 103 161 119 78
342 765 103 167 132 97
343 764 103 160 132 102
343 765 103 174 147 120
342 766 103 172 145 117
342 767 103 168 144 122
343 766 103 180 155 131
342 767 104 150 129 115
343 766 104 156 130 104
343 767 104 148 120 100
344 752 99 153 134 119
344 753 99 152 134 119
345 752 99 150 131 115
344 754 99 165 145 129
344 753 100 152 134 119
345 752 100 153 134 119
345 753 100 157 137 121
344 754 100 171 150 131
344 755 100 179 153 126
345 754 100 173 151 132
345 754 101 175 151 130
345 755 100 175 150 125
345 755 101 169 143 119
346 752 100 163 145 130
346 752 101 176 155 137
346 753 100 167 146 128
346 753 101 168 145 125
347 752 101 177 155 137
347 753 101 166 145 127
347 752 102 167 145 126
347 753 102 156 135 118
346 754 101 163 140 119
346 755 101 162 139 115
346 754 102 146 123 103
346 755 102 165 142 120
347 754 102 147 124 104
347 754 103 153 130 110
347 755 102 158 134 113
347 755 103 161 137 116
344 756 100 175 151 124
344 756 101 172 150 129
344 757 101 168 146 129
345 756 101 174 150 128
345 756 102 173 149 126
345 757 102 157 136 118
344 758 101 143 124 111
344 758 102 134 115 102
344 759 102 130 115 109
345 758 102 128 106 90
345 758 103 126 103 91
345 759 102 133 116 116
345 759 103 129 109 94
346 756 102 168 143 118
346 757 102 147 121 93
346 757 103 146 118 84
347 756 103 163 138 115
347 757 103 149 120 91
346 758 103 134 107 78
346 759 103 134 111 87
348 752 102 167 145 127
348 753 102 157 136 118
348 753 103 167 146 129
349 752 103 172 152 137
349 753 103 173 155 141
348 754 103 156 134 114
348 755 103 159 136 115
349 754 103 167 147 131
350 752 103 173 157 147
347 757 104 152 124 96
346 758 104 143 114 81
346 759 104 143 114 78
347 758 104 145 116 83
347 759 104 152 118 74
347 759 105 174 131 69
348 755 104 164 140 116
349 754 104 163 144 129
349 755 104 164 140 117
350 752 104 150 140 135
350 753 104 155 144 140
351 752 104 132 125 123
351 753 104 138 131 127
351 753 105 141 131 125
350 754 104 153 139 129
350 754 105 141 125 112
350 755 104 155 133 112
350 755 105 150 129 109
351 754 105 141 125 112
351 755 105 136 117 99
348 756 104 167 140 113
348 757 104 159 130 99
349 756 104 162 135 104
349 757 104 161 133 100
349 757 105 157 128 96
348 758 104 143 115 82
348 758 105 149 121 88
348 759 105 163 131 94
349 758 105 155 128 97
349 759 105 147 123 99
350 756 105 158 133 107
350 757 105 152 128 103
351 756 105 140 120 102
351 757 105 142 123 106
350 758 105 138 117 96
350 759 105 135 115 96
351 758 105 138 119 102
350 759 106 136 117 100
351 758 106 138 119 102
351 759 106 139 119 102
344 760 102 120 105 94
344 760 103 120 100 81
344 761 103 124 103 81
345 760 103 128 103 73
345 761 103 141 112 76
344 762 103 135 110 81
344 763 103 155 127 97
345 762 103 157 126 89
345 763 103 173 139 99
344 764 103 181 155 130
345 761 104 149 118 79
345 762 104 177 138 90
345 763 104 180 146 107
346 760 104 149 117 74
346 761 104 156 119 71
347 760 104 157 121 72
347 760 105 182 137 76
347 761 104 161 122 71
347 761 105 174 135 85
346 762 104 160 122 74
346 763 104 148 119 87
347 762 104 157 120 81
347 762 105 151 118 81
347 763 104 148 120 92
347 763 105 128 101 75
344 764 104 186 157 128
344 765 104 160 134 109
345 764 104 153 126 97
345 765 104 136 111 84
344 766 104 147 119 92
344 767 104 134 98 82
345 766 104 129 109 90
345 766 105 114 86 63
345 767 104 117 85 77
345 767 105 123 73 49
346 764 104 137 114 89
346 764 105 119 100 79
346 765 104 132 111 90
346 765 105 112 92 71
347 764 105 107 86 68
347 765 105 120 96 75
346 766 105 127 90 63
346 767 105 148 94 61
347 766 105 151 114 84
347 766 106 164 118 82
347 767 106 176 129 93
348 760 105 165 135 103
348 761 105 151 124 95
349 760 105 137 114 91
349 761 105 132 108 82
348 762 105 133 107 78
348 763 105 123 99 74
349 762 105 128 104 79
349 763 105 137 114 91
350 760 105 134 115 97
350 761 105 129 108 87
350 760 106 134 117 102
350 761 106 132 114 98
351 760 106 136 115 95
351 761 106 144 121 98
350 762 105 130 108 86
350 762 106 146 122 98
350 763 106 160 135 110
351 762 106 168 139 110
351 763 106 190 154 114
351 763 107 187 155 121
348 764 105 119 98 78
348 765 105 135 113 93
349 764 105 139 117 97
348 765 106 152 129 107
349 764 106 150 128 108
349 765 106 169 147 127
348 766 105 156 129 104
348 766 106 171 139 108
348 767 106 178 145 113
349 766 106 179 152 127
349 766 107 178 149 119
349 767 106 176 147 117
349 767 107 175 147 121
350 764 106 170 145 120
350 765 106 180 151 123
350 765 107 176 148 120
351 764 106 184 154 123
351 764 107 185 152 114
351 765 107 179 149 116
350 766 107 177 147 115
350 767 107 195 170 147
351 766 107 158 129 100
351 767 107 209 182 160
350 767 108 180 155 139
351 767 108 195 174 159
