ply
format ascii 1.0
comment Version 2, Copyright 2017, 8i Labs, Inc.
comment frame_to_world_scale 0.179523
comment frame_to_world_translation -45.2095 7.18301 -54.3561
comment width 1023
element vertex 356
property float x
property float y
property float z
property uchar red
property uchar green
property uchar blue
end_header
352 615 131 92 125 154
353 615 131 89 121 149
352 613 134 78 118 150
352 613 135 80 120 153
353 613 135 73 116 149
352 614 133 68 111 146
352 615 132 80 117 150
353 614 133 82 119 153
353 615 132 85 121 152
353 615 133 91 126 157
352 614 134 73 114 148
353 614 134 79 116 149
354 613 135 78 115 148
355 613 135 99 129 156
354 614 133 90 124 154
354 615 132 76 116 148
354 615 133 85 121 152
355 614 133 81 117 148
355 615 132 59 108 143
355 615 133 82 117 149
354 614 134 90 124 154
354 614 135 87 121 152
355 614 134 91 123 153
355 614 135 97 127 156
356 613 135 93 126 155
357 613 135 93 126 155
356 615 132 31 98 139
356 615 133 56 106 143
357 615 133 43 97 138
356 614 134 87 123 154
356 614 135 86 122 153
356 615 134 81 118 152
357 614 134 80 119 152
357 614 135 87 123 154
357 615 134 55 105 143
358 615 133 54 101 139
359 615 133 77 112 146
358 614 134 57 107 144
358 614 135 74 114 150
358 615 134 47 100 139
359 614 134 50 103 142
359 614 135 50 102 143
359 615 134 63 107 143
352 613 136 77 118 153
352 613 137 80 119 154
353 613 136 73 117 151
353 613 137 77 117 151
352 612 138 82 121 155
352 612 139 76 115 149
352 613 138 84 121 155
352 613 139 76 115 149
353 612 138 79 117 150
353 612 139 79 116 149
353 613 138 77 116 150
354 613 136 80 118 150
354 613 137 82 119 151
355 613 136 87 122 151
355 613 137 78 115 147
354 612 138 71 110 144
354 612 139 70 110 144
354 613 138 75 113 147
355 612 139 74 113 146
355 613 138 70 111 145
352 612 140 76 115 147
352 612 141 67 108 143
352 613 140 72 111 145
352 613 141 68 108 143
353 612 140 82 117 149
353 612 141 77 114 146
352 612 142 68 108 142
352 612 143 72 109 140
353 612 142 73 111 143
353 612 143 74 109 140
354 612 140 73 112 145
354 612 141 76 114 146
355 612 140 74 112 145
355 612 141 74 111 143
354 612 142 76 111 142
354 612 143 76 110 139
355 612 142 75 111 141
355 612 143 77 110 139
356 613 136 93 125 154
356 613 137 88 121 151
357 613 136 88 123 152
357 613 137 92 124 153
356 612 139 83 118 149
356 613 138 82 117 149
356 613 139 86 120 150
357 612 139 87 120 151
357 613 138 91 125 154
357 613 139 88 121 151
358 613 136 91 124 154
358 613 137 95 127 155
359 613 136 82 118 152
359 613 137 83 119 153
358 613 138 90 124 153
358 613 139 87 121 151
359 613 138 93 125 154
359 613 139 89 122 153
358 614 136 88 122 154
359 614 136 62 109 150
356 612 140 81 116 147
356 612 141 78 113 144
357 612 140 86 120 150
357 612 141 83 117 147
357 613 140 84 119 149
357 613 141 83 116 146
356 612 142 77 111 141
356 612 143 77 109 138
357 612 142 79 112 141
357 612 143 77 110 138
358 612 141 79 113 143
358 613 140 83 118 149
358 613 141 79 114 145
359 613 140 76 113 146
359 613 141 77 113 143
358 612 142 78 112 142
358 612 143 77 110 138
359 612 142 77 111 141
359 612 143 77 110 139
359 613 142 77 111 141
352 616 129 81 115 144
352 617 128 78 111 139
352 617 129 78 112 141
353 616 129 71 110 141
353 617 128 82 115 143
353 617 129 75 111 140
352 616 130 84 119 149
352 616 131 93 125 153
353 616 130 68 109 140
353 616 131 80 116 145
354 617 128 79 113 141
354 617 129 72 108 138
355 617 128 88 116 142
355 617 129 87 116 143
354 616 130 65 105 136
354 616 131 62 108 140
354 617 130 64 105 136
355 616 130 69 109 140
355 616 131 58 106 141
355 617 130 78 111 140
355 618 128 93 120 145
355 616 132 43 102 140
356 617 129 111 130 151
356 616 131 66 109 142
356 617 130 99 124 149
357 616 131 92 121 149
357 617 130 114 134 155
357 617 131 102 127 151
356 618 128 100 123 146
356 618 129 113 132 153
357 618 128 101 122 143
357 618 129 117 133 152
357 619 128 89 114 136
358 617 130 113 133 153
358 617 131 110 131 152
359 617 131 107 126 146
358 618 128 99 122 145
358 618 129 102 125 147
358 619 128 97 121 145
359 618 129 99 128 154
359 619 128 87 118 145
359 619 129 94 124 152
358 618 130 107 128 150
359 618 130 99 125 150
356 616 132 34 98 139
357 616 132 69 108 143
357 616 133 47 100 139
358 616 132 89 120 149
358 616 133 75 110 144
358 617 132 115 135 157
359 616 132 110 131 154
359 616 133 90 120 149
359 617 132 112 131 152
360 614 135 58 106 144
360 615 134 78 115 147
360 615 135 73 113 147
361 615 134 97 124 149
361 615 135 91 122 151
362 615 134 107 130 153
362 615 135 108 132 156
363 615 134 92 122 149
363 615 135 101 128 153
364 615 135 84 119 148
365 615 135 76 115 147
360 613 137 62 108 145
361 613 137 48 101 140
360 613 138 75 113 145
360 613 139 79 114 146
361 613 138 44 99 137
361 613 139 56 104 140
360 614 136 54 105 144
361 614 136 60 108 145
361 614 137 52 103 141
362 613 137 64 109 145
362 613 138 70 112 147
362 613 139 67 109 145
363 613 138 95 126 156
363 613 139 89 123 154
362 614 136 89 123 153
362 614 137 82 119 151
363 614 136 109 134 158
363 614 137 106 132 158
363 615 136 107 132 157
363 614 138 98 128 157
360 613 140 71 110 144
360 613 141 75 112 143
361 613 140 64 108 143
361 613 141 75 111 142
360 612 143 77 109 138
360 613 142 77 111 140
360 613 143 77 110 139
361 613 142 78 111 140
361 613 143 78 110 139
362 613 140 73 112 146
362 613 141 78 112 143
363 613 140 89 121 152
363 613 141 83 115 145
362 613 142 80 112 140
362 613 143 80 110 138
363 613 142 82 112 140
363 613 143 81 111 137
364 613 138 103 132 160
364 613 139 100 129 157
365 613 139 102 130 157
364 614 136 109 132 155
364 614 137 107 131 155
364 615 136 93 123 149
365 614 137 100 126 151
365 615 136 90 122 150
365 615 137 97 125 151
364 614 138 104 131 158
365 614 138 104 130 156
365 614 139 94 126 154
366 615 136 75 115 146
366 615 137 90 123 151
367 615 136 78 116 147
367 615 137 83 118 148
366 614 138 98 129 158
366 614 139 99 131 160
366 615 138 100 131 159
367 614 139 87 124 155
367 615 138 81 119 152
367 615 139 83 120 152
364 613 140 95 125 153
364 613 141 88 119 147
365 613 140 91 123 152
365 613 141 88 119 147
364 613 142 84 113 140
364 613 143 83 111 137
365 613 142 85 114 141
365 613 143 83 110 136
365 614 140 86 121 150
366 613 141 87 118 146
367 613 141 86 116 142
366 613 142 86 114 140
366 613 143 84 110 134
367 613 142 85 113 138
367 613 143 84 110 133
366 614 140 93 126 154
366 614 141 90 122 150
367 614 140 93 125 154
367 614 141 89 120 147
360 617 131 101 124 146
361 617 131 98 124 149
360 618 129 91 122 150
360 619 128 81 116 146
360 619 129 85 119 147
361 619 128 87 118 145
361 619 129 82 117 145
360 618 130 97 125 151
361 618 130 83 116 144
361 618 131 88 118 145
361 619 130 78 113 142
362 619 129 90 120 147
363 619 129 111 133 155
362 618 131 73 112 142
362 619 130 83 117 145
363 618 131 75 112 142
363 619 130 92 121 147
363 619 131 89 119 146
360 616 132 107 129 151
360 616 133 103 127 152
360 617 132 101 124 146
361 616 133 100 125 149
361 617 132 89 118 145
362 616 133 81 115 144
362 617 132 78 114 143
362 617 133 83 116 144
363 616 133 82 117 147
363 617 132 65 108 139
363 617 133 73 111 142
362 616 134 86 117 145
363 616 134 81 115 144
363 618 132 64 107 139
360 620 128 86 118 145
361 620 128 90 121 149
362 620 128 108 130 153
362 620 129 102 127 151
363 620 128 112 132 154
363 620 129 113 133 155
363 621 128 94 119 143
364 618 131 82 117 145
364 619 130 112 133 156
364 619 131 96 125 150
365 619 130 107 129 151
365 619 131 109 131 155
366 619 131 92 119 144
367 619 131 102 126 151
364 616 133 70 109 140
364 617 132 63 106 138
364 617 133 65 107 138
365 617 133 72 110 140
364 616 134 77 115 145
364 616 135 76 116 147
365 616 134 68 109 140
365 616 135 68 111 144
365 617 134 68 109 140
364 618 132 70 110 141
365 618 132 94 123 149
365 618 133 96 123 149
366 617 133 92 122 149
367 617 133 101 127 152
366 616 134 71 110 141
366 616 135 64 110 143
366 617 134 82 117 145
367 616 135 83 120 151
367 617 134 95 125 152
367 617 135 93 126 154
366 618 132 103 127 151
366 618 133 101 127 152
366 619 132 101 125 150
367 618 132 95 120 144
367 618 133 98 123 147
367 619 132 94 121 145
364 620 129 101 125 147
364 621 128 109 130 152
364 621 129 103 126 148
365 620 129 106 128 149
365 621 128 107 129 152
365 621 129 115 135 156
364 620 130 100 123 146
365 620 130 90 117 141
365 622 128 72 108 138
366 621 128 77 111 139
366 621 129 88 117 143
367 621 129 70 108 138
366 620 130 108 130 152
366 620 131 96 122 145
367 620 131 99 126 151
367 621 130 72 108 138
366 622 128 62 105 136
367 622 128 80 116 145
367 622 129 76 112 141
366 616 136 68 112 145
367 616 136 83 119 149
