ply
format ascii 1.0
comment Version 2, Copyright 2017, 8i Labs, Inc.
comment frame_to_world_scale 0.179523
comment frame_to_world_translation -45.2095 7.18301 -54.3561
comment width 1023
element vertex 38
property float x
property float y
property float z
property uchar red
property uchar green
property uchar blue
end_header
367 709 159 41 40 90
366 710 159 57 41 87
366 711 159 63 51 91
367 710 159 46 41 93
367 711 159 50 51 98
363 718 159 130 112 100
363 719 159 147 123 103
365 713 159 108 121 142
364 715 159 95 115 138
365 714 159 93 117 144
365 715 159 89 107 129
366 712 159 87 86 111
366 713 159 84 99 127
367 712 159 58 67 103
367 713 159 85 104 131
366 714 159 105 124 148
366 715 159 94 105 123
367 714 159 127 138 158
367 715 158 92 91 108
367 715 159 108 114 131
364 716 159 84 102 121
364 717 159 103 108 121
365 716 159 88 98 112
365 717 159 105 111 124
364 718 159 126 117 115
364 719 159 136 114 93
365 718 159 125 123 124
365 719 159 137 121 111
366 716 159 98 99 105
366 717 159 113 115 120
367 716 158 84 76 82
367 716 159 101 97 98
367 717 158 96 93 97
366 718 158 128 130 136
366 718 159 129 130 135
366 719 158 136 129 129
367 718 158 113 112 117
367 719 158 114 108 112
