ply
format ascii 1.0
comment Version 2, Copyright 2017, 8i Labs, Inc.
comment frame_to_world_scale 0.179523
comment frame_to_world_translation -45.2095 7.18301 -54.3561
comment width 1023
element vertex 40
property float x
property float y
property float z
property uchar red
property uchar green
property uchar blue
end_header
368 636 192 108 83 60
368 636 193 95 71 51
368 637 193 89 70 51
369 636 192 110 85 61
369 637 192 106 82 58
369 637 193 92 72 50
368 637 194 84 75 68
369 637 194 85 73 64
368 638 194 106 105 106
368 638 195 129 132 140
368 639 195 134 139 150
369 638 194 102 97 97
369 639 195 133 138 148
370 637 192 108 84 59
370 637 193 94 73 51
371 637 192 107 83 58
370 638 193 86 69 51
371 638 193 90 73 55
370 638 194 96 91 89
370 639 194 122 124 130
370 639 195 135 139 150
371 638 194 88 81 75
371 639 194 111 110 113
371 639 195 143 146 155
368 639 196 128 137 152
369 639 196 132 141 155
372 637 192 109 85 60
372 638 192 101 78 55
372 638 193 90 74 59
373 638 192 104 80 57
373 638 193 93 74 56
373 639 193 90 76 66
372 639 194 111 108 110
373 639 194 107 103 103
374 638 192 104 81 59
374 639 192 99 78 58
374 639 193 92 77 65
375 639 192 100 80 61
375 639 193 89 74 63
376 639 192 102 81 59
