ply
format ascii 1.0
comment Version 2, Copyright 2017, 8i Labs, Inc.
comment frame_to_world_scale 0.179523
comment frame_to_world_translation -45.2095 7.18301 -54.3561
comment width 1023
element vertex 370
property float x
property float y
property float z
property uchar red
property uchar green
property uchar blue
end_header
368 624 151 36 56 93
368 625 151 41 54 84
369 624 151 38 56 94
369 625 151 45 55 86
368 626 151 55 64 80
368 627 151 51 63 78
369 626 151 53 62 81
369 627 151 52 62 77
370 624 150 40 54 94
370 624 151 35 55 98
370 625 150 50 59 91
370 625 151 49 57 87
371 624 150 35 51 96
371 625 150 55 64 91
371 626 149 51 63 82
371 627 149 47 62 80
370 626 150 53 63 84
370 627 150 55 66 78
370 627 151 54 64 77
371 626 150 53 64 85
371 627 150 52 66 80
368 628 151 46 61 77
369 628 151 47 60 76
370 628 151 52 64 78
371 628 150 55 67 81
371 628 151 56 67 82
371 629 151 56 66 81
372 625 149 67 73 92
373 624 149 56 58 94
373 625 149 78 82 100
372 624 150 40 52 98
372 625 150 60 67 94
373 624 150 45 53 98
372 626 149 58 68 85
372 627 149 47 61 82
373 626 149 67 75 91
373 627 149 46 57 81
374 624 149 55 55 96
374 625 149 86 88 104
375 624 149 61 59 95
375 625 149 87 88 105
374 624 150 42 49 98
374 626 149 72 80 96
374 627 149 41 57 80
375 626 149 77 85 101
375 627 149 43 60 81
372 628 149 55 68 87
373 628 149 45 60 81
372 628 150 54 66 83
372 629 150 54 66 82
372 629 151 56 68 83
373 628 150 54 67 85
373 629 150 53 66 83
373 629 151 55 67 81
373 630 151 55 69 83
374 628 149 42 59 81
375 628 149 32 54 77
375 629 149 39 59 80
374 629 150 47 63 82
375 630 149 42 64 83
374 630 150 45 66 84
374 630 151 58 72 86
375 630 150 48 69 86
375 631 150 65 79 93
375 631 151 71 81 94
368 628 152 48 62 79
368 628 153 48 63 78
368 629 153 50 64 78
369 628 152 46 61 78
369 629 152 52 67 81
369 629 153 52 66 79
368 628 155 54 65 77
368 629 154 54 66 78
368 629 155 55 66 77
369 629 154 60 70 81
369 629 155 62 69 78
370 629 152 54 67 80
370 629 153 59 70 83
371 629 152 59 68 82
370 629 154 63 72 83
371 630 153 64 73 83
370 630 154 66 74 84
370 630 155 68 73 81
371 630 154 66 72 81
371 630 155 67 72 79
371 631 155 68 72 78
368 628 156 56 66 77
368 628 157 59 67 76
368 629 156 56 65 75
368 629 157 60 67 74
369 629 156 63 68 75
369 629 157 64 68 74
368 628 158 61 67 75
368 628 159 64 67 73
369 628 158 65 68 74
369 628 159 69 69 73
369 629 158 67 69 73
369 629 159 70 70 73
370 629 157 68 69 73
370 629 158 70 70 73
370 629 159 73 71 72
371 629 159 76 72 70
370 630 156 69 71 76
370 630 157 71 71 73
371 630 156 69 72 76
371 630 157 72 72 73
371 631 157 71 72 75
370 630 158 72 71 72
370 630 159 74 71 71
371 630 158 75 72 71
371 630 159 77 72 70
372 630 152 63 71 83
372 630 153 66 73 82
373 630 152 62 72 83
373 630 153 65 72 80
373 631 152 65 72 81
373 631 153 65 71 78
372 630 154 69 74 81
372 631 154 69 73 79
372 631 155 69 72 76
373 631 154 68 71 77
373 631 155 71 71 74
374 630 152 60 71 84
374 631 152 67 76 86
374 631 153 71 75 82
375 631 152 71 79 88
374 631 154 71 72 76
374 631 155 72 72 74
375 631 154 73 73 76
372 631 156 71 72 75
372 631 157 74 73 74
373 631 156 74 72 73
373 631 157 76 73 72
372 630 158 76 72 71
372 630 159 79 73 69
372 631 158 76 73 72
373 630 159 79 73 69
373 631 158 78 73 71
373 631 159 79 74 71
374 631 156 74 72 72
374 631 157 77 73 71
374 631 158 80 74 70
374 631 159 82 75 70
375 631 158 81 74 69
375 631 159 83 75 68
374 632 153 73 75 80
375 632 152 74 80 88
375 632 153 73 77 83
374 632 154 71 73 77
375 632 154 73 74 78
375 632 155 74 73 74
375 632 156 75 72 72
375 632 157 78 73 70
375 632 158 81 74 69
376 624 149 76 72 98
376 625 149 89 86 104
377 624 149 83 82 102
377 625 148 95 96 109
377 625 149 89 87 104
376 626 148 90 94 109
376 626 149 87 91 106
376 627 148 60 73 89
376 627 149 61 73 90
377 626 148 89 95 109
377 627 148 65 77 93
378 624 149 83 86 105
378 625 148 95 98 112
379 624 149 82 88 109
379 625 148 88 95 112
378 626 148 88 95 109
378 627 148 72 82 97
379 626 148 84 93 108
379 627 148 78 88 104
376 628 149 36 58 79
376 629 149 35 58 81
377 628 148 31 56 77
377 628 149 32 58 79
377 629 148 41 61 82
377 629 149 32 57 79
376 630 149 38 63 84
376 631 149 46 70 89
377 630 149 39 62 84
377 631 149 59 78 95
376 630 150 46 68 87
376 631 150 55 75 93
376 631 151 72 83 96
378 628 148 51 65 83
378 629 148 39 59 80
379 628 148 64 74 91
379 629 148 42 60 82
378 630 148 39 60 83
378 630 149 44 66 86
378 631 149 62 79 97
379 630 148 42 63 84
379 631 148 61 78 95
379 631 149 64 80 96
381 627 147 84 92 108
382 626 147 109 117 129
382 627 147 98 105 117
383 626 147 107 118 132
383 627 146 88 97 112
383 627 147 101 108 120
380 624 149 76 90 111
380 625 148 80 94 112
381 624 149 75 95 116
381 625 148 85 101 119
380 626 148 83 95 110
380 627 148 78 87 104
381 626 148 97 107 121
381 627 148 84 93 109
382 624 148 95 114 135
382 624 149 88 109 131
382 625 148 97 113 131
383 624 148 84 109 133
383 624 149 94 115 138
383 625 148 92 111 131
382 626 148 107 117 130
380 628 147 58 69 88
380 629 147 48 65 84
381 628 147 63 76 92
381 629 147 51 64 86
380 630 147 43 63 84
381 630 147 47 65 90
381 631 147 54 71 91
383 628 145 63 77 100
383 629 145 60 72 97
382 628 146 61 74 96
382 628 147 75 85 100
382 629 146 56 69 92
382 629 147 54 66 86
383 628 146 64 78 100
383 629 146 54 69 95
383 630 145 58 74 95
383 631 145 43 68 87
382 630 146 51 69 89
382 631 146 50 70 88
382 631 147 58 74 91
383 630 146 50 69 90
383 631 146 47 69 87
380 628 148 63 74 91
380 629 148 47 62 82
380 630 148 46 65 87
380 631 148 56 75 93
381 631 148 52 70 91
376 631 159 85 76 68
376 632 150 69 83 98
376 632 151 79 86 97
377 632 150 75 86 99
377 632 151 82 88 98
378 632 149 71 85 100
379 632 149 68 81 96
379 633 149 67 79 92
378 632 150 79 90 102
378 633 150 82 91 102
378 633 151 85 91 99
379 633 150 75 84 96
379 633 151 82 89 98
381 632 147 60 76 93
382 632 146 56 75 93
382 632 147 64 79 95
382 633 147 70 84 99
383 632 146 55 74 91
383 633 146 64 79 95
383 633 147 72 84 99
382 634 147 78 90 104
383 634 147 80 90 102
380 632 148 64 79 95
380 632 149 67 81 96
380 633 149 67 80 93
381 632 148 56 73 90
381 633 148 68 81 96
381 633 149 70 83 96
380 633 150 69 79 92
380 633 151 73 81 91
381 633 150 65 77 90
381 634 149 70 83 97
381 634 150 67 78 91
381 634 151 67 76 87
382 633 148 69 83 98
382 634 148 73 86 101
382 634 149 74 86 99
383 634 148 84 94 106
383 634 149 80 91 103
383 635 149 85 94 106
382 634 150 74 83 96
382 634 151 72 80 90
383 634 150 80 88 100
383 634 151 78 85 94
383 635 151 81 88 97
376 632 152 79 84 92
376 632 153 75 78 83
377 632 152 82 86 93
377 632 153 78 80 85
377 633 152 82 86 93
377 633 153 80 81 86
376 632 154 73 74 77
376 632 155 73 72 74
377 632 154 74 74 77
377 632 155 74 72 72
377 633 154 74 73 75
377 633 155 74 71 71
378 633 152 84 86 92
378 633 153 79 80 84
379 633 152 82 85 91
379 633 153 78 78 82
378 633 154 76 75 76
378 633 155 76 72 72
379 633 154 76 75 76
379 633 155 77 73 72
376 632 156 76 72 71
376 632 157 78 73 70
377 632 156 75 71 69
377 632 157 78 72 68
377 633 156 75 71 69
376 632 158 81 74 69
376 632 159 84 76 69
377 632 158 81 73 68
377 632 159 83 75 68
378 632 157 79 73 67
378 633 156 77 72 69
378 633 157 79 72 67
379 633 156 80 73 69
379 633 157 82 74 67
378 632 158 82 74 67
378 632 159 84 75 67
379 632 159 86 76 67
379 633 158 84 75 67
379 633 159 86 76 67
380 633 152 79 84 92
380 633 153 77 77 80
380 634 152 76 82 89
380 634 153 76 77 80
381 634 152 75 80 89
381 634 153 75 76 80
380 634 154 75 73 73
380 634 155 77 73 70
381 634 154 76 73 72
381 634 155 78 73 70
382 634 152 69 73 81
382 634 153 70 71 75
383 634 152 75 79 85
383 634 153 70 71 75
383 635 152 77 80 85
383 635 153 72 71 72
382 634 154 74 71 71
382 634 155 78 73 70
383 635 154 74 70 69
383 635 155 79 72 68
380 633 156 81 74 68
380 633 157 83 74 67
380 633 158 85 75 67
380 633 159 88 77 68
381 633 158 86 76 67
381 633 159 87 77 67
380 634 156 81 73 69
380 634 157 83 74 67
381 634 156 82 75 69
381 634 157 84 75 67
381 634 158 85 75 65
381 634 159 87 76 66
382 633 159 87 76 66
382 634 156 81 75 70
382 634 157 84 75 69
383 634 156 81 73 68
383 634 157 83 74 67
383 635 156 81 73 66
382 634 158 85 76 67
382 634 159 89 78 68
383 634 158 85 76 69
383 634 159 88 79 70
