ply
format ascii 1.0
comment Version 2, Copyright 2017, 8i Labs, Inc.
comment frame_to_world_scale 0.179523
comment frame_to_world_translation -45.2095 7.18301 -54.3561
comment width 1023
element vertex 19
property float x
property float y
property float z
property uchar red
property uchar green
property uchar blue
end_header
368 704 160 142 125 110
368 705 160 139 122 109
369 704 160 136 119 105
369 705 160 138 121 106
368 706 160 126 115 109
368 707 160 126 124 132
369 706 160 137 123 114
369 707 160 146 140 140
370 704 160 134 115 98
370 705 160 145 125 109
371 704 160 153 126 108
371 705 160 167 133 124
370 706 160 146 128 114
368 708 160 130 131 148
368 709 160 84 86 117
372 704 160 169 123 110
372 705 160 181 136 132
373 704 160 159 91 85
374 704 160 150 61 60
