ply
format ascii 1.0
comment Version 2, Copyright 2017, 8i Labs, Inc.
comment frame_to_world_scale 0.179523
comment frame_to_world_translation -45.2095 7.18301 -54.3561
comment width 1023
element vertex 173
property float x
property float y
property float z
property uchar red
property uchar green
property uchar blue
end_header
384 691 159 151 40 49
385 691 159 167 97 99
384 692 159 146 36 50
384 693 159 138 48 61
385 692 159 147 70 79
385 693 159 116 39 52
384 694 159 159 118 111
384 695 158 131 85 78
384 695 159 155 118 108
385 694 159 135 97 92
385 695 159 131 93 81
386 692 159 120 82 87
386 693 159 76 30 41
387 692 159 72 51 65
387 693 159 67 49 69
386 694 159 76 46 50
386 695 159 82 46 48
387 694 159 73 63 82
387 695 159 71 59 83
388 692 159 62 62 95
388 693 159 62 59 100
389 693 159 39 47 113
388 694 159 70 67 106
388 695 159 61 58 103
389 694 159 45 49 114
389 695 159 47 50 114
390 693 159 32 45 121
390 694 159 46 71 129
390 695 159 63 90 136
391 694 159 91 129 164
391 695 159 97 136 167
384 696 158 90 34 43
384 697 158 94 47 73
385 696 158 83 29 46
385 697 158 123 88 122
384 698 158 125 70 95
384 699 158 112 27 62
385 698 158 147 107 140
385 699 158 117 52 88
386 696 158 85 41 61
386 697 158 111 69 107
387 696 158 82 68 102
387 696 159 69 59 96
387 697 158 85 64 115
386 698 158 120 81 121
386 699 158 97 49 98
387 698 158 73 49 112
387 699 158 59 42 110
384 700 158 119 32 67
384 701 158 129 48 72
385 700 158 117 49 83
385 701 158 119 59 78
385 703 157 135 105 91
384 702 158 131 67 71
384 703 158 134 94 85
385 702 158 127 85 75
385 703 158 133 99 87
386 701 157 104 93 114
387 701 157 96 103 133
386 700 158 88 38 101
386 701 158 95 61 103
387 700 158 61 52 127
387 701 158 85 88 140
386 702 157 129 117 115
386 703 157 141 123 109
387 702 157 113 114 125
387 703 157 129 121 115
386 702 158 133 110 97
388 696 158 69 66 130
388 696 159 62 58 114
388 697 158 56 52 130
389 696 158 66 77 142
389 696 159 56 67 131
389 697 158 47 69 140
388 698 158 42 41 121
388 699 158 49 59 119
389 698 158 47 74 135
389 699 158 82 111 144
390 696 158 80 119 158
390 696 159 73 107 148
390 697 158 66 114 157
391 696 159 91 133 164
391 697 158 84 125 154
390 698 158 82 126 163
390 699 158 107 131 157
391 698 158 104 127 152
391 699 158 110 100 123
388 701 157 74 95 132
389 701 157 92 107 124
388 700 158 56 78 132
388 701 158 73 100 137
389 700 158 89 117 143
389 701 158 87 112 134
388 702 157 91 99 118
388 703 157 109 100 107
389 702 157 99 95 108
389 703 157 105 70 83
390 701 157 99 89 104
390 700 158 92 106 129
390 701 158 95 88 108
391 700 158 107 65 89
391 701 158 135 72 91
390 702 157 121 78 89
390 703 157 123 44 60
391 702 157 161 88 96
391 703 157 142 41 55
391 702 158 170 96 102
392 695 159 109 148 180
393 695 159 115 140 165
392 696 159 108 136 163
392 697 158 105 101 119
392 697 159 106 115 136
393 696 159 115 116 139
393 697 159 117 79 100
392 698 158 110 83 102
392 699 158 123 55 78
393 698 158 138 77 91
393 698 159 144 77 92
393 699 158 148 58 73
394 696 159 127 74 98
394 697 159 142 43 69
395 697 159 156 27 53
394 698 158 162 87 94
394 698 159 160 68 79
394 699 158 158 60 71
394 699 159 161 56 68
395 698 159 162 44 56
395 699 158 150 22 49
395 699 159 154 32 51
392 700 158 133 32 60
392 701 158 149 41 64
393 700 158 146 28 47
393 701 158 149 19 45
392 702 157 163 62 70
392 703 157 147 31 46
393 703 157 144 19 42
392 702 158 167 69 78
393 702 158 151 20 45
393 703 158 145 13 40
394 700 158 151 35 53
394 701 158 154 45 59
395 700 158 152 46 64
395 701 158 161 85 92
394 702 158 144 22 42
394 703 158 141 16 39
395 702 158 143 43 55
395 703 158 139 21 37
396 697 159 164 41 61
396 698 159 166 58 69
396 699 159 161 57 64
397 698 159 166 61 76
397 699 159 165 71 77
398 699 159 159 62 65
396 700 158 154 58 72
396 700 159 152 45 57
396 701 158 155 69 80
397 700 159 153 49 61
397 701 158 152 60 67
397 701 159 149 50 61
396 702 158 145 44 56
396 703 158 139 24 40
397 702 158 157 71 71
397 703 158 140 52 54
398 700 159 148 48 54
398 701 159 141 58 64
399 700 159 148 69 69
399 701 159 120 52 61
398 702 158 166 113 110
398 702 159 145 101 104
398 703 158 125 73 79
399 702 159 101 59 68
399 703 158 81 39 51
399 703 159 79 44 54
