ply
format ascii 1.0
comment Version 2, Copyright 2017, 8i Labs, Inc.
comment frame_to_world_scale 0.179523
comment frame_to_world_translation -45.2095 7.18301 -54.3561
comment width 1023
element vertex 46
property float x
property float y
property float z
property uchar red
property uchar green
property uchar blue
end_header
384 752 122 224 175 125
384 753 122 230 183 133
384 753 123 221 175 127
385 752 122 206 164 119
385 752 123 206 158 114
385 753 123 209 159 108
384 754 123 207 158 105
386 752 123 168 132 100
385 753 124 192 135 77
384 754 124 182 127 64
384 755 124 165 132 94
384 755 125 164 141 127
385 754 124 178 130 71
385 754 125 155 127 102
385 755 125 162 139 129
385 755 126 122 100 101
386 752 124 177 127 86
386 753 124 185 127 74
386 753 125 172 125 94
387 752 124 162 132 116
387 752 125 159 132 120
387 753 125 161 121 104
387 752 126 139 119 119
387 753 126 149 129 125
387 753 127 159 145 135
386 754 125 160 130 114
386 754 126 150 131 127
386 754 127 164 144 127
386 755 126 115 96 82
386 755 127 141 120 100
387 754 126 159 140 135
387 754 127 169 147 130
384 756 124 148 123 97
384 756 125 153 133 124
384 757 125 181 170 167
384 756 126 151 140 138
384 757 126 135 131 133
384 757 127 144 121 112
385 756 126 102 85 87
385 756 127 124 105 91
385 757 127 139 121 111
384 758 127 150 117 110
388 752 126 93 58 84
388 752 127 111 93 106
388 753 127 171 156 145
389 752 127 134 113 117
