ply
format ascii 1.0
comment Version 2, Copyright 2017, 8i Labs, Inc.
comment frame_to_world_scale 0.179523
comment frame_to_world_translation -45.2095 7.18301 -54.3561
comment width 1023
element vertex 31
property float x
property float y
property float z
property uchar red
property uchar green
property uchar blue
end_header
399 640 147 50 70 90
398 640 148 47 68 88
398 640 149 58 74 90
399 640 148 45 67 88
399 640 149 56 72 87
398 640 150 67 77 89
398 640 151 69 75 84
399 640 150 66 76 88
399 640 151 70 76 85
397 640 152 74 76 81
397 640 153 76 73 73
397 640 154 80 73 67
397 640 155 84 75 66
398 640 152 75 76 80
398 640 153 77 73 72
399 640 152 72 73 77
399 640 153 79 74 70
399 641 152 73 73 76
399 641 153 80 73 69
398 640 154 82 75 69
398 640 155 86 76 67
399 640 154 84 75 68
399 640 155 88 77 67
398 640 156 89 78 66
398 640 157 93 80 67
399 640 156 90 78 67
399 640 157 93 80 68
398 640 158 94 81 68
398 640 159 94 81 68
399 640 158 94 81 68
399 640 159 94 81 68
