ply
format ascii 1.0
comment Version 2, Copyright 2017, 8i Labs, Inc.
comment frame_to_world_scale 0.179523
comment frame_to_world_translation -45.2095 7.18301 -54.3561
comment width 1023
element vertex 296
property float x
property float y
property float z
property uchar red
property uchar green
property uchar blue
end_header
387 672 119 25 55 104
387 674 119 63 74 101
387 675 119 67 76 96
387 676 119 70 76 91
387 677 119 62 69 88
388 672 119 14 51 99
388 673 119 26 59 99
389 672 119 30 74 118
389 673 119 45 83 122
388 674 119 48 69 101
388 675 119 56 73 103
389 674 119 63 93 128
389 675 119 69 95 130
390 672 119 75 101 150
390 673 119 84 107 152
391 672 119 56 86 150
391 673 119 47 79 144
390 674 119 86 107 151
390 675 119 86 105 149
391 674 119 51 80 144
391 675 119 58 85 144
388 676 119 57 72 101
388 677 119 48 67 98
389 676 119 65 91 126
389 677 119 83 102 134
388 678 119 44 66 96
388 679 119 49 72 103
389 678 119 94 112 140
389 679 119 80 104 132
390 676 119 75 96 140
390 677 119 71 97 136
391 676 119 41 76 136
391 677 119 38 80 128
390 678 119 81 107 139
390 679 119 78 108 138
391 678 119 55 90 128
391 679 119 50 88 123
384 672 120 55 68 124
384 673 120 76 80 108
385 672 120 42 61 128
385 673 120 62 73 117
384 674 120 86 83 95
384 675 120 85 81 90
385 674 120 73 78 101
385 675 120 80 80 92
386 672 120 31 62 123
386 673 120 38 62 115
387 672 120 36 63 113
387 673 120 47 68 110
386 674 120 50 69 104
386 675 120 58 71 93
387 674 120 53 71 105
384 676 120 84 81 89
384 677 120 82 82 91
385 676 120 80 81 91
385 677 120 74 78 92
384 678 120 77 78 92
384 679 120 58 63 83
385 678 120 58 67 85
385 679 120 46 57 79
386 676 120 62 72 90
386 677 120 53 64 85
387 676 120 67 74 90
387 677 120 59 68 87
386 678 120 48 60 83
386 679 120 56 65 82
387 678 120 52 60 84
387 679 120 63 71 89
388 673 120 47 67 99
388 677 120 51 64 90
388 679 120 52 67 94
387 680 119 63 70 92
387 681 119 69 72 90
386 682 119 83 77 79
386 683 119 79 74 76
387 682 119 69 71 86
387 683 119 67 74 93
384 685 119 40 55 73
385 684 119 74 76 84
385 685 119 64 69 80
384 686 119 28 49 70
384 687 119 30 50 70
385 686 119 52 62 75
385 687 119 43 57 71
386 684 119 75 72 77
386 685 119 67 69 78
387 684 119 72 86 106
387 685 119 73 96 118
386 686 119 59 68 82
386 687 119 49 66 85
387 686 119 70 99 123
387 687 118 72 107 136
387 687 119 61 92 117
388 680 119 56 73 106
388 681 119 64 80 115
389 680 119 75 100 130
389 681 119 82 107 138
388 682 119 61 82 118
388 683 119 67 93 126
389 682 119 68 106 139
389 683 119 62 105 139
390 680 119 67 105 134
390 681 119 62 102 134
391 680 119 62 95 127
391 681 119 72 103 132
390 682 119 59 101 134
390 683 119 64 103 134
391 682 119 65 102 133
391 683 119 65 102 133
388 684 119 74 103 134
388 685 119 66 105 136
389 684 119 56 100 132
389 685 118 58 99 131
389 685 119 50 96 129
388 686 118 74 111 140
388 686 119 78 114 143
388 687 118 75 110 139
389 686 118 69 105 135
389 687 118 75 106 133
390 684 118 76 105 134
390 684 119 75 106 136
390 685 118 59 95 125
391 684 118 81 113 142
391 684 119 77 109 139
391 685 118 75 109 138
390 686 118 62 97 126
390 687 118 81 109 134
391 686 118 64 101 130
391 687 118 64 99 126
384 680 120 45 53 78
384 681 120 55 62 82
385 680 120 56 62 82
385 681 120 75 77 89
384 682 120 63 70 84
384 683 120 69 75 85
385 682 120 77 78 87
385 683 120 78 78 84
386 680 120 74 75 86
386 681 120 82 78 85
387 680 120 69 74 89
387 681 120 81 77 81
386 682 120 82 77 81
386 683 120 81 76 78
384 684 120 64 71 84
384 685 120 39 53 73
385 684 120 76 79 86
392 672 119 49 82 146
392 673 119 53 87 144
393 672 119 49 90 143
393 673 119 46 100 146
392 674 119 49 84 141
392 675 119 62 87 141
394 672 119 55 97 140
394 673 119 56 112 151
395 672 119 55 74 117
395 673 119 70 98 126
395 675 119 66 107 138
392 676 119 58 90 136
392 677 119 53 89 129
393 676 119 63 110 145
393 677 119 67 110 142
392 678 119 63 96 130
392 679 119 61 97 127
393 678 119 67 109 140
393 679 119 77 113 143
394 676 119 62 108 141
394 677 119 69 109 140
395 676 119 58 103 136
395 677 119 59 100 132
394 678 119 66 105 135
394 679 119 66 105 134
395 678 119 63 99 127
395 679 119 80 106 130
396 672 119 85 87 119
396 673 119 93 109 130
397 672 119 133 141 160
397 673 119 132 139 153
396 675 119 90 117 143
397 674 119 133 141 156
397 675 119 132 142 158
398 672 119 145 150 167
398 673 119 126 133 147
399 672 119 132 142 164
399 673 119 108 123 150
398 674 119 138 143 154
398 675 119 134 139 150
399 674 119 118 128 149
399 675 119 118 125 141
396 676 119 52 96 129
396 677 119 50 87 124
397 676 119 89 109 132
397 677 119 58 86 118
396 678 119 63 91 125
396 679 119 80 101 127
397 678 119 64 87 122
397 679 119 69 91 124
398 676 119 114 122 135
398 677 119 94 111 131
399 676 119 116 123 136
399 677 119 103 116 133
398 678 119 75 98 126
398 679 119 64 92 126
399 678 119 90 111 135
399 679 119 82 107 137
393 672 120 41 96 143
393 673 120 55 107 150
392 674 120 46 83 139
392 675 120 59 87 139
393 674 120 55 108 148
393 675 120 45 99 140
394 672 120 50 100 141
394 673 120 71 119 153
395 673 120 72 108 138
394 674 120 79 122 156
394 675 120 67 113 148
395 674 120 87 119 147
395 675 120 74 112 143
393 676 120 53 101 139
394 676 120 65 110 145
396 674 120 95 118 140
392 680 119 52 89 121
392 681 119 66 99 130
393 680 119 67 102 134
393 681 119 61 97 129
392 682 119 79 112 140
392 683 119 77 113 142
393 682 119 73 108 137
393 683 119 76 110 139
394 680 119 66 103 131
394 681 119 66 100 128
395 680 119 88 111 132
395 681 119 91 111 132
394 682 119 75 107 133
394 683 119 72 106 132
395 682 119 81 104 125
395 683 118 68 90 111
395 683 119 70 98 121
392 684 118 66 105 137
392 684 119 68 107 137
392 685 118 66 105 135
393 684 118 59 99 129
393 684 119 66 104 133
393 685 118 66 103 131
392 686 118 65 102 130
392 687 118 75 103 128
393 686 118 69 103 130
393 687 118 69 100 125
394 684 118 67 98 123
394 684 119 64 100 127
394 685 118 84 107 129
395 684 118 74 96 117
395 685 118 89 104 126
395 687 117 73 87 116
394 686 118 82 103 123
394 687 118 89 105 122
395 686 118 78 94 118
395 687 118 81 94 116
396 680 119 101 116 134
396 681 119 116 127 142
397 680 118 69 94 121
397 680 119 76 97 124
397 681 118 86 105 127
396 682 118 100 113 130
396 682 119 113 123 139
396 683 118 81 97 115
397 682 118 102 116 134
397 683 118 112 122 138
398 680 118 58 88 125
398 680 119 62 90 126
398 681 118 62 90 123
399 680 118 54 87 131
399 680 119 66 96 133
399 681 118 54 85 132
398 682 118 73 96 124
398 683 118 90 106 127
399 682 118 62 89 130
399 683 118 64 89 126
396 684 118 78 97 118
396 685 118 72 94 121
397 684 118 96 109 125
397 685 118 84 101 121
396 687 117 54 82 117
397 686 117 78 99 123
397 687 117 67 92 120
396 686 118 61 87 120
397 686 118 84 103 125
398 684 118 113 122 136
398 685 118 122 130 143
399 684 118 80 99 125
399 685 118 107 119 135
398 686 117 100 113 130
398 687 117 92 108 127
399 686 117 113 122 136
399 687 117 123 130 142
398 686 118 113 124 138
399 686 118 111 121 136
