ply
format ascii 1.0
comment Version 2, Copyright 2017, 8i Labs, Inc.
comment frame_to_world_scale 0.179523
comment frame_to_world_translation -45.2095 7.18301 -54.3561
comment width 1023
element vertex 339
property float x
property float y
property float z
property uchar red
property uchar green
property uchar blue
end_header
400 704 113 112 68 63
400 705 112 157 32 49
400 705 113 147 36 62
401 704 113 102 50 45
401 705 113 160 26 47
400 706 112 168 41 43
400 707 112 179 65 67
400 707 113 174 23 37
401 706 113 178 15 41
401 707 113 174 26 44
402 704 113 95 63 59
402 705 113 140 57 61
403 704 113 115 117 120
403 705 113 133 129 131
403 704 114 117 124 132
402 706 113 155 74 74
402 707 113 155 86 82
403 706 113 148 146 151
403 707 113 147 148 159
400 708 112 169 27 44
400 708 113 164 18 37
400 709 112 157 21 33
400 709 113 145 34 37
401 708 113 161 58 58
401 709 113 131 88 83
400 710 113 130 36 37
400 711 113 115 43 43
401 710 113 113 98 97
401 711 113 112 110 114
402 708 113 150 122 120
402 709 113 142 140 146
403 708 113 143 142 157
403 709 113 133 137 157
403 708 114 114 129 157
403 709 114 90 102 146
402 710 113 138 145 161
402 711 113 125 132 154
403 710 113 118 122 153
403 710 114 76 82 140
403 711 114 72 71 134
404 705 113 143 153 165
404 704 114 127 136 147
404 705 114 140 149 161
405 704 114 128 138 152
405 705 114 143 154 170
404 706 113 143 153 166
404 706 114 138 149 165
404 707 114 121 137 158
405 706 114 146 159 177
405 707 114 142 157 176
406 704 114 137 148 164
406 705 114 145 159 178
407 704 115 143 155 172
407 705 114 146 160 178
407 705 115 147 160 179
406 706 114 150 165 185
406 707 114 150 166 186
407 706 114 150 165 185
407 706 115 150 164 183
407 707 115 151 165 185
404 708 114 89 109 145
404 709 114 93 115 155
405 708 114 138 153 176
405 709 114 132 149 176
404 710 114 92 110 154
404 711 114 91 107 152
405 710 114 125 143 173
405 711 114 123 141 171
405 711 115 131 148 176
406 708 114 148 164 186
406 709 114 144 160 183
406 709 115 145 160 181
407 708 115 149 163 183
407 709 115 149 163 181
406 710 114 136 153 177
406 710 115 143 158 179
406 711 115 143 158 180
407 710 115 152 165 183
407 711 115 156 169 188
407 711 116 159 172 191
400 712 113 93 64 64
400 713 113 86 84 86
401 712 113 116 124 133
401 713 113 111 123 137
400 714 113 92 98 102
400 715 113 99 102 105
401 714 113 104 115 131
401 715 113 100 110 128
401 714 114 87 98 130
401 715 114 77 90 126
402 712 113 113 122 145
402 712 114 85 84 132
402 713 114 67 75 129
403 712 114 61 51 128
403 713 114 68 68 134
402 714 114 51 64 128
402 715 114 47 54 130
403 714 114 75 85 142
403 715 114 101 118 158
400 716 113 98 98 103
400 717 113 84 80 104
401 716 113 80 89 123
401 717 113 69 72 118
401 716 114 62 72 123
401 717 114 55 58 124
400 718 113 74 71 113
400 719 113 72 64 119
400 719 114 56 55 127
401 718 114 61 64 135
401 719 114 91 99 153
402 716 114 67 74 139
402 717 114 92 101 153
403 716 114 122 144 175
403 717 114 125 147 177
403 717 115 154 172 196
402 718 114 119 131 173
402 719 114 146 163 193
403 718 114 158 179 203
403 718 115 176 195 218
403 719 115 187 200 218
404 712 114 106 121 158
404 713 114 125 140 169
404 713 115 142 157 182
405 712 114 128 145 174
405 712 115 134 150 177
405 713 115 149 164 187
404 714 114 144 160 184
404 714 115 150 167 190
404 715 115 150 168 192
405 714 115 158 175 197
405 715 115 158 177 200
406 712 115 150 164 185
406 713 115 158 173 194
407 712 115 160 174 192
406 714 115 161 179 200
406 715 115 160 177 198
406 713 116 162 178 199
407 712 116 160 174 193
407 713 116 163 179 199
406 714 116 162 179 200
406 715 116 163 175 195
407 714 116 164 182 202
407 715 116 166 179 196
404 716 115 156 174 197
404 717 115 167 182 203
405 716 115 160 179 200
405 717 115 167 179 197
404 718 115 180 189 206
404 719 115 176 173 186
405 718 115 168 161 172
405 719 115 161 114 131
406 716 115 160 177 197
406 717 115 163 168 182
406 718 115 161 136 151
406 716 116 162 170 186
406 717 116 165 151 161
407 716 116 166 160 173
407 717 116 172 105 118
406 718 116 167 89 110
406 719 116 178 55 82
407 718 116 186 50 74
407 719 116 183 44 52
408 704 115 146 157 173
408 705 115 148 159 176
409 704 115 151 158 172
409 705 115 153 160 174
408 706 115 151 163 180
408 707 115 152 163 180
409 706 115 155 163 178
409 707 115 155 163 177
409 706 116 158 163 176
409 707 116 156 162 174
410 704 116 153 158 170
410 705 116 157 161 172
411 704 116 154 158 168
411 705 116 155 159 170
410 706 116 157 161 171
410 707 116 157 161 172
411 706 116 158 162 173
411 706 117 158 164 177
411 707 116 160 165 177
411 707 117 158 165 179
408 708 115 150 161 178
408 709 115 152 163 180
408 709 116 153 164 180
409 708 116 155 163 176
409 709 116 158 166 180
408 710 116 155 167 184
408 711 116 158 171 189
409 710 116 159 170 187
409 711 116 162 173 190
409 711 117 166 175 190
410 708 116 160 166 178
410 709 116 162 169 183
410 709 117 166 173 187
411 708 116 159 165 179
411 708 117 162 170 184
411 709 117 168 176 191
410 710 117 167 176 192
410 711 117 172 180 194
411 710 117 171 180 196
411 711 117 172 182 199
411 710 118 171 182 199
411 711 118 170 181 197
412 704 116 155 160 171
412 704 117 153 159 171
412 705 116 154 160 172
412 705 117 153 161 174
413 704 117 150 158 171
413 705 117 152 161 175
412 706 117 155 163 177
412 707 117 162 170 185
413 706 117 161 169 184
413 707 117 160 171 187
414 704 117 154 161 175
414 705 117 157 165 180
415 704 117 161 168 182
415 705 117 161 169 184
415 704 118 161 170 186
415 705 118 166 175 191
414 706 117 162 171 186
414 706 118 160 169 185
414 707 118 160 171 188
415 706 118 166 175 191
415 707 118 166 177 194
412 708 117 162 172 188
412 709 117 164 173 189
413 708 117 160 172 189
412 709 118 167 178 195
413 708 118 161 173 190
413 709 118 168 180 199
412 710 118 167 181 200
412 711 118 169 181 199
413 710 118 165 177 195
413 711 118 171 178 190
414 708 118 167 179 197
414 709 118 162 176 196
415 708 118 165 176 194
415 708 119 165 177 195
415 709 118 162 174 192
415 709 119 159 172 190
414 710 118 155 167 185
414 710 119 154 166 184
414 711 118 164 172 186
414 711 119 171 179 192
415 710 119 154 167 184
415 711 119 149 158 171
408 712 116 162 176 194
408 713 116 165 180 198
409 712 116 164 176 193
409 712 117 166 175 188
409 713 117 164 175 189
408 714 116 169 184 203
408 714 117 168 175 189
408 715 116 168 167 181
408 715 117 169 154 165
409 714 117 164 166 179
409 715 117 167 137 146
410 712 117 174 183 198
410 713 117 168 173 185
411 712 118 167 178 193
411 713 118 161 151 159
410 714 117 158 142 150
410 715 117 160 99 111
411 715 117 155 60 76
411 714 118 140 84 89
411 715 118 148 44 55
408 716 116 171 139 150
408 716 117 166 117 128
408 717 116 172 70 89
408 717 117 169 59 75
409 716 117 166 80 99
409 717 117 177 33 54
408 718 116 177 59 66
408 718 117 182 48 56
408 719 117 189 34 45
409 718 117 186 37 48
409 719 117 188 51 57
410 716 117 169 37 60
410 717 117 176 25 35
411 716 117 165 41 52
411 717 117 174 31 42
411 716 118 167 36 39
411 717 118 182 32 30
410 718 117 179 26 42
410 719 117 184 44 46
410 718 118 178 23 38
410 719 118 184 36 35
411 718 118 190 38 37
411 719 118 188 42 37
411 719 119 196 54 51
412 712 118 170 175 184
412 713 118 166 132 136
413 712 118 172 169 173
413 713 118 170 127 132
413 713 119 168 92 108
412 714 118 147 51 62
412 715 118 146 15 27
413 714 118 153 26 47
413 714 119 164 31 48
413 715 118 148 8 20
413 715 119 158 15 18
414 712 119 171 164 170
414 713 119 167 103 112
415 712 119 145 139 146
415 713 119 147 91 98
414 714 119 175 36 61
414 715 119 175 23 21
415 714 119 166 39 60
412 716 118 170 35 30
412 717 118 187 35 33
412 717 119 195 34 40
413 716 119 176 32 24
413 717 119 193 24 38
412 718 119 198 31 39
412 719 119 199 43 49
413 718 119 194 17 46
414 716 119 185 31 36
415 713 120 133 75 84
415 714 120 163 39 55
415 715 120 169 40 54
415 715 121 149 93 95
413 718 120 185 29 53
413 719 120 167 39 49
413 719 121 128 92 73
414 716 120 182 26 48
414 717 120 174 37 54
415 716 120 161 41 61
415 716 121 142 85 97
415 717 120 154 59 77
415 717 121 135 113 120
414 718 120 151 52 51
414 718 121 128 101 94
414 719 121 133 118 111
415 718 121 129 127 129
414 719 122 149 158 164
415 718 122 131 139 157
415 719 122 130 143 163
415 719 123 77 98 143
