ply
format ascii 1.0
comment Version 2, Copyright 2017, 8i Labs, Inc.
comment frame_to_world_scale 0.179523
comment frame_to_world_translation -45.2095 7.18301 -54.3561
comment width 1023
element vertex 235
property float x
property float y
property float z
property uchar red
property uchar green
property uchar blue
end_header
432 672 123 94 111 131
432 673 123 97 114 135
433 672 123 79 100 123
433 673 123 86 105 126
432 674 122 80 106 131
432 674 123 82 106 130
432 675 122 74 104 136
432 675 123 72 103 134
433 674 123 87 106 128
433 675 123 79 106 133
434 673 123 80 99 118
434 674 123 81 101 121
434 675 123 80 105 129
435 675 123 78 101 125
432 672 124 82 101 122
433 672 124 78 98 119
434 672 124 81 97 115
434 673 124 82 98 116
435 672 124 79 94 109
435 672 125 78 93 109
435 673 124 77 93 110
434 674 124 80 98 117
435 674 124 78 96 115
435 675 124 79 99 120
432 676 122 83 114 144
432 677 122 108 129 151
433 676 122 96 121 148
433 676 123 85 114 143
433 677 122 114 133 155
432 678 122 118 136 157
432 679 122 90 114 147
433 678 122 111 131 156
433 679 122 62 96 142
434 676 123 94 117 143
434 677 123 115 132 155
435 676 123 96 115 137
435 677 123 101 121 146
434 678 122 90 114 146
434 678 123 77 105 140
434 679 122 45 83 136
434 679 123 38 76 130
435 678 123 91 116 150
435 679 123 75 104 150
436 672 125 78 93 108
436 673 124 75 93 110
436 673 125 82 98 114
437 673 125 87 102 117
436 672 126 75 92 107
437 672 126 87 101 116
437 673 126 97 109 123
436 674 124 79 95 112
436 674 125 85 99 115
436 675 124 85 101 118
437 674 125 83 98 114
437 675 124 93 107 123
437 675 125 88 103 118
438 672 126 111 119 130
438 672 127 104 113 125
438 673 126 103 112 123
439 672 127 103 112 123
439 673 126 99 110 122
439 673 127 99 109 122
438 674 125 86 101 117
438 675 125 92 107 123
438 674 126 92 106 121
438 675 126 96 110 125
439 674 126 102 114 127
439 674 127 100 113 127
439 675 126 85 102 120
436 676 123 99 116 137
436 677 123 98 119 143
436 678 123 99 122 150
436 679 123 101 124 158
436 676 124 93 110 129
436 677 124 99 117 138
437 676 124 96 111 129
437 676 125 93 107 123
437 677 124 102 118 138
436 678 124 102 122 146
437 678 124 106 124 147
437 679 124 108 128 156
438 676 125 88 104 122
438 677 124 103 117 136
438 677 125 95 111 131
439 676 125 66 90 113
439 677 125 80 101 123
439 676 126 54 83 108
439 677 126 61 90 116
438 678 124 102 119 140
438 678 125 96 113 133
438 679 124 108 125 150
439 678 125 95 113 135
439 679 125 113 126 147
432 680 122 64 101 149
432 681 122 95 124 165
433 680 122 69 104 152
433 681 122 117 139 172
432 682 122 120 142 171
432 683 122 112 134 161
433 682 122 121 144 173
433 683 122 100 130 159
434 680 122 81 109 153
434 681 122 126 145 175
435 680 123 99 123 163
435 681 123 121 143 178
434 682 122 106 135 168
434 683 122 89 125 161
435 682 123 82 122 166
435 683 123 77 119 167
432 684 122 95 122 147
432 685 122 92 122 148
433 684 122 93 125 153
433 685 122 82 118 149
432 686 122 81 119 151
432 687 122 71 115 153
433 686 122 68 114 152
433 687 122 63 111 156
434 684 122 88 124 160
434 684 123 61 111 154
434 685 122 69 115 153
434 685 123 54 110 157
435 684 123 64 113 164
435 685 123 49 107 163
434 686 122 54 109 154
434 686 123 47 104 155
434 687 122 56 108 156
434 687 123 61 112 160
435 686 123 47 104 160
435 687 123 65 113 165
436 680 123 108 130 168
436 681 123 93 123 170
437 680 123 100 123 167
437 681 123 88 118 170
436 682 123 73 115 171
436 683 123 60 111 172
437 682 123 76 115 170
437 683 123 74 115 175
437 680 124 104 124 162
437 681 124 94 120 168
437 682 124 84 118 171
437 683 124 80 117 175
438 680 124 109 126 161
438 681 124 101 123 167
439 680 124 112 127 158
439 680 125 115 128 154
439 681 124 109 126 166
439 681 125 111 126 162
438 682 124 93 121 170
438 683 124 88 121 175
439 682 124 100 123 170
439 682 125 105 125 168
439 683 124 98 124 175
439 683 125 102 125 175
436 684 123 52 107 170
436 685 123 51 109 172
436 686 123 47 104 168
436 687 123 63 110 166
436 685 124 61 113 177
437 684 124 74 118 180
437 685 124 74 121 181
436 686 124 57 108 172
436 687 124 69 113 172
437 686 124 66 114 175
437 687 124 70 114 174
438 684 124 83 121 179
438 685 124 79 122 179
438 685 125 89 127 181
439 684 125 97 128 182
439 685 125 111 140 189
438 686 124 76 120 177
438 686 125 85 125 180
438 687 125 77 119 179
439 686 125 111 142 191
439 687 125 98 132 185
439 686 126 126 151 196
439 687 126 115 143 191
440 672 127 87 102 117
440 673 127 93 107 123
440 674 127 87 102 118
440 675 126 59 84 107
440 675 127 60 84 106
441 674 127 57 79 102
441 675 127 57 83 108
440 676 126 61 89 115
440 676 127 64 88 114
440 677 126 80 103 127
441 676 127 83 105 127
441 677 126 95 115 136
441 677 127 100 118 138
440 679 125 111 124 141
440 678 126 104 119 139
440 679 126 109 122 139
441 678 126 105 122 141
441 678 127 104 121 141
441 679 126 106 122 140
442 676 127 92 110 130
442 677 127 102 120 140
442 678 127 105 124 144
442 679 127 107 126 146
440 680 125 118 130 152
440 681 125 117 130 160
440 680 126 116 129 148
440 681 126 118 131 157
441 680 126 116 129 149
441 681 126 123 136 160
440 682 125 112 126 166
440 683 125 111 128 175
440 682 126 113 126 162
440 683 126 114 125 170
441 682 126 114 127 160
441 683 126 116 124 166
442 680 127 120 137 159
442 681 127 124 140 163
443 680 127 116 137 161
443 681 127 112 132 159
442 682 127 119 136 163
442 683 127 109 125 156
443 682 127 116 134 163
443 683 127 103 123 153
440 684 125 111 131 182
440 685 125 113 137 187
440 684 126 117 130 178
440 685 126 130 148 194
441 684 126 116 125 172
441 684 127 117 126 172
441 685 126 129 143 188
441 685 127 125 135 179
440 686 126 131 152 196
440 687 126 128 148 193
440 687 127 134 148 192
441 686 127 129 142 186
441 687 127 134 140 186
442 684 127 111 122 162
442 685 127 123 132 172
442 686 127 135 142 183
