ply
format ascii 1.0
comment Version 2, Copyright 2017, 8i Labs, Inc.
comment frame_to_world_scale 0.179523
comment frame_to_world_translation -45.2095 7.18301 -54.3561
comment width 1023
element vertex 387
property float x
property float y
property float z
property uchar red
property uchar green
property uchar blue
end_header
439 691 159 156 171 211
438 693 159 141 155 198
439 692 159 150 164 204
439 693 158 125 137 187
439 693 159 141 154 197
439 694 157 94 114 185
439 695 157 111 138 201
438 694 158 108 126 186
438 694 159 125 142 191
438 695 158 91 117 186
438 695 159 99 122 184
439 694 158 102 119 183
439 695 158 84 112 183
439 699 149 126 151 220
439 698 150 112 139 214
439 698 151 135 159 222
439 699 150 142 159 221
439 699 151 184 203 238
437 702 145 163 170 219
437 703 144 155 159 220
437 703 145 161 166 222
436 703 147 152 158 215
437 702 146 160 171 220
437 702 147 138 151 214
437 703 146 159 167 221
437 703 147 153 159 217
438 701 144 175 182 228
438 701 145 172 190 230
439 700 145 149 162 224
439 701 144 182 192 239
439 701 145 161 178 231
438 701 146 181 204 238
438 701 147 140 172 222
439 700 146 167 181 232
439 700 147 166 194 237
439 701 146 162 185 229
439 701 147 143 179 225
438 702 144 165 170 220
438 702 145 172 185 226
438 702 146 180 195 233
438 702 147 141 162 220
437 701 149 165 173 218
437 701 150 183 196 230
437 701 151 166 187 220
436 703 148 144 150 208
436 703 149 152 160 210
437 702 148 141 151 213
437 702 149 152 165 213
437 703 148 142 147 207
437 703 149 151 162 213
436 703 150 166 175 216
436 703 151 157 173 213
437 702 150 149 169 211
437 702 151 136 164 206
438 700 149 133 143 209
438 701 148 130 150 214
438 701 149 147 152 212
439 700 148 141 170 229
439 700 149 123 140 212
439 701 148 124 155 217
438 700 150 180 193 227
438 700 151 191 207 231
438 701 150 193 204 231
438 701 151 192 206 228
439 700 150 153 165 218
435 703 154 177 181 235
435 703 155 188 196 239
432 703 157 162 171 226
433 703 157 176 178 235
432 702 159 161 182 227
432 703 158 160 172 226
433 702 158 182 191 239
433 702 159 180 190 236
433 703 158 180 188 237
435 701 157 88 120 197
434 701 159 162 174 229
435 700 159 138 154 213
435 701 158 89 110 198
435 701 159 129 144 212
434 702 157 174 182 238
434 703 156 182 187 235
434 703 157 179 183 238
435 702 157 134 156 217
435 703 156 186 199 240
435 703 157 170 184 235
434 702 158 166 176 232
434 702 159 167 177 232
435 702 158 122 137 212
439 697 153 114 144 212
439 696 155 127 154 216
439 697 154 114 142 210
439 697 155 99 131 205
438 699 152 169 195 227
438 699 153 139 172 214
439 698 152 142 172 224
439 698 153 126 161 213
439 699 152 181 205 236
438 698 154 93 132 199
438 698 155 80 117 196
438 699 154 97 137 196
438 699 155 62 101 181
439 698 154 96 132 202
439 698 155 83 120 198
437 696 159 72 101 177
437 697 159 78 106 177
437 699 157 106 131 186
436 699 159 95 108 173
437 698 158 82 113 178
437 698 159 74 105 171
437 699 158 83 117 178
437 699 159 74 100 165
438 696 157 94 126 195
438 697 156 86 118 198
438 697 157 89 119 192
439 696 156 117 146 210
439 696 157 103 133 202
439 697 156 88 121 200
439 697 157 91 121 198
438 696 158 84 116 187
438 696 159 76 104 179
438 697 158 81 113 184
438 697 159 76 108 180
438 698 156 81 114 193
438 698 157 90 119 187
438 699 156 72 98 180
438 699 157 97 122 184
438 698 158 87 120 183
437 700 153 135 169 211
437 701 152 143 171 211
437 701 153 127 159 207
436 701 155 113 134 195
437 700 154 77 118 183
437 700 155 63 90 171
437 701 154 79 113 184
437 701 155 93 116 187
436 702 152 153 176 220
436 702 153 113 134 198
436 703 152 154 170 213
436 703 153 136 147 207
437 702 152 150 176 217
437 702 153 114 143 200
436 702 154 109 129 202
436 702 155 138 155 213
436 703 154 139 150 217
436 703 155 162 172 226
438 700 152 158 183 216
438 700 153 145 177 215
438 700 154 95 133 192
438 700 155 58 90 172
436 700 157 83 119 187
436 701 156 126 148 202
436 701 157 104 135 199
437 700 156 92 110 180
437 700 157 105 130 187
437 701 156 107 127 189
436 700 158 69 101 184
436 700 159 106 125 189
437 700 158 71 110 177
436 702 156 158 179 224
436 702 157 131 161 215
438 700 156 70 89 173
443 695 149 203 220 248
442 695 151 167 194 244
443 695 150 211 231 255
443 695 151 186 212 248
447 691 149 177 189 224
447 691 150 189 203 234
447 691 151 174 195 229
444 695 145 199 210 238
445 694 144 190 202 227
445 694 145 183 202 232
445 695 144 194 209 237
445 695 145 196 213 240
444 695 147 184 200 231
445 694 146 183 205 239
445 694 147 167 193 232
445 695 146 202 215 242
445 695 147 191 207 235
446 693 144 186 204 236
446 693 145 161 181 230
447 692 144 129 159 217
447 692 145 95 127 207
446 693 146 133 157 218
446 693 147 115 141 211
447 692 146 91 119 206
447 692 147 101 122 205
446 694 144 195 207 233
446 694 145 195 210 240
446 694 146 163 186 232
446 694 147 146 175 227
445 693 149 123 138 210
445 693 150 133 138 215
445 693 151 133 138 210
444 695 148 196 211 242
444 695 149 203 217 248
445 694 148 164 183 230
445 694 149 151 172 225
445 695 148 190 206 238
445 695 149 199 212 246
444 694 150 158 187 234
444 694 151 132 162 219
444 695 150 193 217 250
445 694 150 114 138 211
445 694 151 103 125 205
446 693 148 122 138 212
446 693 149 133 145 212
447 692 148 117 130 204
447 692 149 141 149 205
447 693 148 127 137 207
447 693 149 134 143 208
446 692 150 169 180 220
446 692 151 162 175 217
446 693 150 148 153 212
447 692 150 174 184 224
447 692 151 197 213 239
446 694 148 143 169 226
440 689 159 75 109 188
441 689 159 62 101 185
440 690 159 102 126 193
440 691 158 122 144 195
440 691 159 132 151 201
441 690 158 59 97 182
441 690 159 65 99 183
441 691 158 87 118 187
442 688 159 86 116 191
442 689 158 62 101 183
442 689 159 67 104 185
443 688 159 110 132 194
443 689 158 72 109 186
443 689 159 79 114 186
442 691 157 94 131 197
443 690 157 69 108 192
443 691 157 92 129 201
442 690 158 56 97 182
442 691 158 76 115 188
443 690 158 66 106 187
441 695 153 141 157 222
440 695 154 140 156 217
440 695 155 151 170 223
441 694 154 128 141 211
441 694 155 137 150 213
441 695 154 137 153 217
441 695 155 141 158 217
443 693 153 141 148 213
442 693 155 146 150 211
443 692 155 125 141 206
443 693 154 142 148 213
443 693 155 138 148 208
442 694 153 122 138 211
442 695 152 136 163 227
442 695 153 128 148 218
443 694 152 122 152 218
443 694 153 122 138 210
443 695 152 147 177 235
442 694 154 126 136 209
442 694 155 132 139 208
440 693 157 147 158 203
441 692 157 145 166 207
441 693 156 156 162 215
441 693 157 174 185 221
440 692 158 158 175 209
440 692 159 163 179 213
440 693 158 149 162 199
441 692 158 130 152 199
440 694 156 156 173 223
440 694 157 131 150 206
440 695 156 151 175 223
441 694 156 136 147 208
442 692 156 149 165 210
442 692 157 144 166 211
442 693 156 159 167 214
443 692 156 134 155 214
445 691 153 156 187 229
444 691 155 58 102 193
445 690 155 82 119 197
445 691 154 97 142 207
445 691 155 68 114 197
447 689 154 158 174 227
447 689 155 157 174 230
446 691 152 163 191 223
446 691 153 129 165 214
447 690 152 121 156 210
447 690 153 121 150 212
447 691 152 145 176 216
447 691 153 112 152 207
446 690 154 112 143 211
446 690 155 109 138 206
446 691 154 95 139 206
447 690 154 135 155 218
444 689 157 97 124 198
445 689 156 118 139 207
445 689 157 117 137 205
444 688 158 147 161 204
444 688 159 147 162 206
444 689 158 99 125 194
445 688 158 151 159 207
444 690 156 47 95 187
444 690 157 69 106 192
444 691 156 52 100 192
444 691 157 62 104 194
445 690 156 96 125 200
445 690 157 95 121 197
446 688 157 125 140 212
446 689 156 132 152 217
447 688 156 138 160 227
447 688 157 118 143 219
447 689 156 151 171 232
446 688 158 151 155 210
446 690 156 128 149 214
444 693 152 130 138 210
444 693 153 139 149 211
445 692 152 161 173 218
445 692 153 167 186 228
445 693 152 140 144 210
445 693 153 144 151 209
444 692 154 118 140 206
444 692 155 91 120 199
444 693 154 136 150 209
445 692 154 115 148 211
444 694 152 111 134 206
446 692 152 179 201 230
446 692 153 173 198 231
444 692 156 86 120 201
440 699 144 160 173 226
440 699 145 189 203 237
441 698 144 198 208 236
441 698 145 206 215 238
441 699 144 179 192 233
441 699 145 206 218 243
440 699 146 161 184 226
440 699 147 150 176 226
441 698 146 199 216 244
441 698 147 153 177 227
441 699 146 198 217 243
442 697 145 190 203 232
443 697 144 192 204 229
443 697 145 197 211 235
442 697 146 211 222 247
442 697 147 201 214 245
443 696 146 208 219 241
443 696 147 210 226 250
443 697 146 205 217 239
443 697 147 214 227 253
442 698 144 202 214 241
442 698 145 196 208 235
442 698 146 216 227 251
442 698 147 203 216 245
441 697 149 157 176 239
440 697 150 101 130 220
440 697 151 92 120 213
441 696 151 112 138 220
441 697 150 121 144 225
441 697 151 96 122 216
440 698 148 151 168 231
440 698 149 145 173 236
440 699 148 157 181 235
440 699 149 151 179 236
441 698 148 135 153 223
441 698 149 155 174 236
440 698 150 107 140 221
440 698 151 103 130 213
442 696 149 197 213 249
442 697 148 173 189 236
442 697 149 178 195 244
443 696 148 181 199 239
443 696 149 194 208 245
443 697 148 189 207 245
442 696 150 175 200 245
442 696 151 155 181 237
443 696 150 212 231 254
440 700 144 150 162 223
440 700 145 151 167 222
440 700 147 182 201 241
444 696 144 199 211 236
444 696 145 206 214 239
444 696 146 207 215 240
444 696 147 194 209 238
444 696 148 187 204 239
444 696 149 196 208 240
440 696 153 124 145 215
440 697 152 94 122 212
440 697 153 109 136 211
441 696 152 110 134 217
441 696 153 124 142 216
440 696 154 140 159 220
440 696 155 149 172 225
440 697 154 127 151 217
