ply
format ascii 1.0
comment Version 2, Copyright 2017, 8i Labs, Inc.
comment frame_to_world_scale 0.179523
comment frame_to_world_translation -45.2095 7.18301 -54.3561
comment width 1023
element vertex 282
property float x
property float y
property float z
property uchar red
property uchar green
property uchar blue
end_header
448 672 133 91 111 138
448 673 133 96 114 138
449 672 133 93 115 140
449 673 133 99 117 140
449 672 134 98 116 137
449 673 134 108 122 142
448 674 133 89 109 135
448 675 133 77 101 131
449 674 133 94 112 136
449 675 133 86 106 132
449 674 134 101 116 136
449 675 134 95 110 134
450 672 134 119 129 143
450 673 134 124 132 145
451 672 134 137 140 149
451 672 135 154 153 159
451 673 134 140 142 151
451 673 135 156 154 159
450 674 134 117 126 140
450 675 134 108 119 139
451 674 134 138 141 150
451 674 135 145 146 155
451 675 135 136 142 155
448 676 133 74 98 129
448 677 133 74 99 131
449 676 133 78 99 131
449 676 134 83 101 132
449 677 134 79 100 129
448 678 133 67 98 130
448 679 133 71 99 128
449 678 134 82 103 132
449 679 134 86 106 132
450 676 134 98 110 137
450 677 134 89 106 133
450 677 135 94 111 138
451 676 135 107 121 143
451 677 135 97 115 142
450 678 134 91 107 135
450 678 135 99 113 142
450 679 134 101 115 142
450 679 135 108 122 149
451 678 135 94 110 145
452 672 135 160 158 162
452 673 135 168 164 168
452 674 135 166 164 169
452 675 135 161 164 174
451 677 136 111 126 153
451 678 136 102 119 150
451 679 136 90 108 148
452 672 136 162 160 165
452 673 136 172 168 171
453 672 136 163 161 166
453 672 137 167 165 169
453 673 136 171 168 172
453 673 137 169 167 171
452 674 136 174 172 177
452 675 136 166 168 178
453 674 136 177 175 181
453 675 136 162 165 177
454 672 137 164 162 168
454 673 137 171 170 176
454 672 138 144 149 160
455 672 138 136 145 157
455 672 139 101 115 131
455 673 138 122 135 153
455 673 139 68 98 124
454 674 137 169 171 181
454 675 137 129 145 167
454 674 138 149 155 171
455 674 138 97 120 146
455 675 138 86 118 149
455 672 140 102 119 137
452 676 136 125 137 155
452 677 136 133 146 167
453 676 136 130 142 160
453 676 137 123 138 159
453 677 136 152 162 178
453 677 137 176 182 197
452 678 136 139 151 173
452 678 137 154 163 180
452 679 136 85 104 143
452 679 137 100 121 160
453 678 137 184 189 201
453 679 137 169 179 197
453 678 138 186 191 204
453 679 138 155 174 201
454 676 137 121 141 165
454 677 137 159 174 194
454 676 138 116 143 172
454 677 138 141 160 183
455 676 138 120 143 170
455 676 139 170 176 192
455 677 138 148 160 182
455 677 139 184 187 199
454 678 138 161 171 186
454 678 139 179 186 199
454 679 138 159 174 194
454 679 139 165 177 200
455 678 139 190 193 204
454 679 140 178 188 211
454 679 141 211 216 230
455 678 140 200 200 208
455 679 140 209 210 219
455 679 141 222 221 227
448 680 133 104 121 143
448 681 133 117 132 152
449 680 134 102 118 140
449 681 134 130 143 161
449 681 135 123 136 158
448 682 133 119 134 154
448 683 133 105 121 151
448 682 134 135 150 168
448 683 134 123 140 164
449 682 134 142 155 174
449 682 135 127 144 167
449 683 134 125 144 168
449 683 135 114 136 168
450 680 135 121 133 154
450 681 135 124 137 157
448 684 133 97 116 159
448 684 134 106 127 163
448 684 135 103 127 168
448 685 134 94 119 166
448 685 135 102 127 171
449 684 135 98 123 165
448 686 135 106 127 176
448 687 135 121 139 185
449 683 136 107 126 161
450 680 136 134 149 169
450 681 136 145 157 175
451 680 136 106 128 163
451 680 137 89 120 170
451 681 136 144 159 180
451 681 137 123 148 184
451 681 138 80 115 180
450 682 136 143 156 175
450 682 137 175 186 203
450 683 136 128 140 168
450 683 137 174 183 199
451 682 137 157 177 200
450 683 138 156 173 195
451 682 138 104 137 185
451 682 139 67 108 182
451 683 138 116 146 183
451 683 139 101 134 184
451 683 140 87 121 184
451 683 141 72 107 183
448 685 136 117 139 173
449 684 136 105 122 165
449 684 137 131 141 171
449 685 136 139 156 185
449 685 137 128 143 174
449 685 138 123 132 175
448 686 136 138 153 186
448 687 136 139 156 195
448 687 137 126 145 180
449 686 136 149 163 189
449 686 137 128 144 179
449 687 137 122 139 178
449 686 138 107 117 172
449 686 139 113 119 174
449 687 138 108 126 175
449 687 139 98 115 174
450 684 137 153 162 182
450 684 138 165 175 196
450 684 139 144 160 190
450 685 138 146 155 184
450 685 139 136 143 180
450 686 139 126 128 175
449 686 140 126 131 178
449 687 140 116 126 179
449 687 141 128 133 187
449 687 142 133 135 187
450 684 140 135 153 188
450 685 140 113 130 177
450 685 141 97 126 184
451 684 140 108 136 188
451 684 141 72 107 184
451 685 141 78 115 181
451 684 142 82 113 189
451 684 143 114 133 194
451 685 142 115 142 193
451 685 143 124 148 195
450 686 140 132 141 185
450 686 141 132 148 192
450 687 141 136 143 187
450 686 142 172 187 214
450 686 143 175 191 220
450 687 142 142 150 187
450 687 143 152 162 200
451 686 143 157 179 211
452 680 137 77 111 175
452 680 138 83 117 188
452 681 138 75 107 184
452 681 139 97 123 193
453 680 138 116 143 196
453 680 139 112 136 194
452 682 139 62 102 181
452 681 140 111 135 200
453 680 140 108 129 191
453 681 140 111 136 199
453 681 141 123 150 208
453 681 142 123 156 219
452 682 140 91 117 190
452 682 141 105 127 196
452 683 140 80 108 184
452 683 141 81 109 186
453 682 141 125 150 209
452 682 142 128 156 214
452 683 142 121 143 209
452 683 143 130 144 204
453 682 142 123 154 215
453 682 143 129 148 210
453 683 143 153 163 215
454 680 140 164 176 209
454 680 141 165 184 220
454 681 141 141 169 218
455 680 141 221 227 240
454 680 142 145 173 224
454 681 142 115 149 218
454 681 143 99 124 206
455 680 142 171 192 230
455 680 143 103 129 209
455 681 143 86 109 202
452 684 143 106 125 190
456 672 139 93 108 126
456 673 139 89 106 125
456 674 139 108 124 146
456 675 139 146 157 177
456 672 140 107 122 139
456 672 141 131 137 146
456 673 140 112 123 138
457 672 141 118 125 136
457 673 140 132 141 156
457 673 141 114 126 140
456 672 142 118 124 133
456 672 143 89 87 88
457 672 142 120 126 135
457 672 143 93 91 93
457 673 142 116 125 137
457 673 143 106 110 118
456 674 140 162 164 174
456 675 140 192 191 199
457 674 140 174 176 187
457 674 141 144 156 172
457 675 140 199 198 205
457 675 141 173 181 195
458 673 142 111 124 139
458 673 143 100 109 121
458 674 141 112 131 150
458 675 141 117 141 167
458 674 142 95 117 139
458 674 143 89 107 125
458 675 142 80 113 146
458 675 143 62 95 124
459 674 143 78 98 116
459 675 143 74 103 130
456 676 139 172 178 193
456 676 140 197 196 203
456 677 140 199 196 203
456 677 141 203 199 205
457 676 140 203 201 207
457 676 141 192 196 208
457 677 141 197 199 209
457 677 142 184 197 215
456 678 140 199 197 204
456 678 141 210 208 214
456 679 141 227 222 227
457 678 141 214 213 221
456 679 142 220 225 238
456 679 143 166 181 221
457 678 142 224 225 235
457 678 143 214 221 242
457 679 143 184 196 227
458 676 141 143 164 190
458 676 142 101 136 181
458 676 143 103 131 196
458 677 142 128 157 192
458 677 143 125 149 202
459 676 143 99 127 175
458 678 143 194 207 233
456 680 143 124 146 210
