ply
format ascii 1.0
comment Version 2, Copyright 2017, 8i Labs, Inc.
comment frame_to_world_scale 0.179523
comment frame_to_world_translation -45.2095 7.18301 -54.3561
comment width 1023
element vertex 26
property float x
property float y
property float z
property uchar red
property uchar green
property uchar blue
end_header
111 618 113 123 91 61
111 619 112 122 90 60
111 619 113 123 91 61
111 618 114 123 92 62
111 619 114 123 92 62
111 619 115 124 93 63
111 620 112 120 90 58
111 620 113 122 91 60
111 621 112 121 90 60
111 621 113 122 91 61
111 620 114 123 92 61
111 620 115 124 94 63
111 621 114 123 92 62
111 621 115 124 93 63
111 622 112 122 90 61
111 622 113 123 91 62
111 623 112 123 90 61
111 623 113 123 90 62
111 622 114 123 91 62
111 622 115 123 92 63
111 623 114 123 91 62
111 623 115 124 92 63
111 620 116 124 94 63
111 621 116 124 94 63
111 622 116 124 93 63
111 623 116 124 93 64
