ply
format ascii 1.0
comment Version 2, Copyright 2017, 8i Labs, Inc.
comment frame_to_world_scale 0.179523
comment frame_to_world_translation -45.2095 7.18301 -54.3561
comment width 1023
element vertex 48
property float x
property float y
property float z
property uchar red
property uchar green
property uchar blue
end_header
111 667 80 75 105 134
108 669 80 63 103 147
108 669 81 62 100 146
109 668 80 41 92 137
109 668 81 62 100 142
109 669 80 52 98 143
109 669 81 63 101 143
109 669 82 59 95 136
109 669 83 66 98 133
108 670 80 68 102 148
108 670 81 62 96 143
108 671 80 62 100 142
108 671 81 66 101 141
108 670 82 46 85 135
108 670 83 48 86 135
108 671 82 61 94 138
108 671 83 51 88 137
109 670 82 47 88 136
109 670 83 55 92 133
110 668 80 53 95 137
110 668 81 76 107 140
111 668 80 68 102 137
111 668 81 79 105 130
110 668 82 78 105 135
110 669 82 73 101 134
110 669 83 72 101 130
111 668 82 78 105 130
111 668 83 74 102 129
111 669 83 68 97 125
108 671 84 48 89 136
108 671 85 56 94 137
109 670 84 62 97 132
109 670 85 65 100 134
109 671 84 56 93 135
109 671 85 62 99 135
109 671 86 66 100 134
109 671 87 66 97 131
110 669 84 70 100 129
111 669 84 67 95 124
110 670 84 67 99 130
110 670 85 67 99 130
111 670 85 65 96 124
110 670 86 62 96 126
110 671 86 62 96 127
110 671 87 62 93 127
111 670 86 51 92 123
111 671 86 62 97 127
111 671 87 61 94 126
