ply
format ascii 1.0
comment Version 2, Copyright 2017, 8i Labs, Inc.
comment frame_to_world_scale 0.179523
comment frame_to_world_translation -45.2095 7.18301 -54.3561
comment width 1023
element vertex 50
property float x
property float y
property float z
property uchar red
property uchar green
property uchar blue
end_header
111 656 114 116 83 56
111 656 115 118 86 58
111 657 114 115 83 54
111 657 115 118 85 55
111 658 114 114 83 54
111 658 115 119 86 56
111 659 114 115 84 55
111 659 115 121 88 59
111 656 116 121 89 62
111 656 117 125 92 64
111 657 116 122 89 62
111 657 117 127 94 67
111 656 118 128 95 68
111 656 119 130 98 72
111 657 118 130 97 71
111 657 119 133 99 75
111 658 116 123 90 62
111 658 117 128 94 67
111 659 116 127 92 65
111 659 117 130 94 68
111 658 118 131 97 71
111 658 119 133 98 73
111 659 118 133 96 70
111 659 119 134 98 73
111 660 115 122 88 62
111 661 115 124 89 63
111 660 116 128 91 65
111 660 117 133 95 69
111 661 116 130 92 66
111 661 117 135 95 70
111 660 118 136 96 70
111 661 118 137 97 72
111 662 116 132 93 68
111 662 117 135 95 71
111 656 120 135 102 78
111 657 120 136 102 80
111 658 120 135 100 77
111 671 113 130 91 70
111 670 114 132 92 71
111 670 115 136 94 72
111 671 114 131 92 71
111 671 115 135 94 73
111 670 116 140 95 73
111 670 117 141 96 75
111 671 116 138 96 74
111 671 117 141 96 76
111 670 118 142 98 76
111 671 118 142 97 78
111 671 119 143 100 77
111 671 120 144 102 76
