ply
format ascii 1.0
comment Version 2, Copyright 2017, 8i Labs, Inc.
comment frame_to_world_scale 0.179523
comment frame_to_world_translation -45.2095 7.18301 -54.3561
comment width 1023
element vertex 327
property float x
property float y
property float z
property uchar red
property uchar green
property uchar blue
end_header
104 736 96 8 85 154
104 736 97 18 79 151
104 737 97 6 81 144
105 736 96 8 90 152
105 737 96 79 129 164
105 737 97 68 110 147
104 736 98 40 80 155
104 736 99 66 100 158
104 737 98 37 96 152
104 737 99 74 112 160
105 738 96 183 186 197
105 738 97 142 157 176
105 739 96 198 191 194
105 739 97 186 184 192
104 738 98 84 122 156
104 738 99 131 150 173
105 738 98 109 134 158
105 738 99 127 142 162
105 739 98 158 164 177
105 739 99 132 142 158
104 736 100 77 109 159
104 736 101 65 99 152
104 737 100 66 109 155
104 737 101 55 102 153
104 736 102 52 83 139
104 736 103 42 65 122
104 737 102 66 102 154
104 737 103 70 95 145
104 738 100 155 165 182
104 738 101 128 148 171
104 739 100 164 168 178
104 739 101 167 173 187
105 739 100 156 161 173
105 739 101 157 164 177
104 738 102 104 130 163
104 738 103 69 101 149
104 739 103 69 105 150
105 738 103 54 97 146
105 739 102 131 147 167
105 739 103 95 125 160
105 740 96 195 189 192
105 740 97 191 187 193
105 741 96 193 187 192
105 741 97 192 186 190
105 740 98 179 179 189
105 740 99 139 149 165
105 741 98 187 183 188
105 741 99 151 157 170
105 742 97 195 188 191
105 742 98 191 185 188
105 742 99 151 158 173
105 743 98 197 189 192
105 743 99 159 167 183
106 741 96 193 187 191
106 742 96 194 189 193
106 742 97 197 190 193
106 743 96 195 187 190
106 743 97 198 190 191
107 743 96 195 187 189
106 743 98 201 192 194
105 740 100 130 141 162
105 740 101 129 141 162
105 741 100 96 113 144
105 741 101 115 124 152
105 740 102 136 149 168
105 740 103 123 146 172
105 741 102 150 157 171
105 741 103 133 151 175
105 742 100 82 103 139
105 742 101 134 142 157
105 743 100 87 113 149
105 743 101 134 142 159
105 742 102 163 165 174
105 742 103 133 148 170
105 743 102 167 167 174
105 743 103 134 148 167
104 736 104 38 49 105
104 737 104 61 86 130
105 736 105 46 55 109
105 737 105 50 73 121
105 736 106 70 78 121
104 738 104 60 95 141
104 738 105 65 95 138
104 739 104 50 92 143
105 738 105 68 97 138
105 739 104 61 102 150
105 739 105 63 96 145
105 738 106 71 96 137
105 739 106 71 99 143
105 739 107 75 101 141
106 736 106 71 84 128
106 736 107 76 95 134
106 737 106 46 66 117
106 737 107 59 83 125
107 736 107 77 100 136
106 738 106 62 87 129
106 738 107 63 89 128
106 739 107 76 99 138
106 737 108 56 79 124
107 736 108 73 100 137
107 736 109 79 104 142
107 737 108 70 91 132
107 737 109 78 98 136
106 738 108 56 80 125
106 739 108 68 92 134
106 739 109 66 87 133
107 738 109 68 86 129
107 739 109 64 83 131
107 738 110 79 98 135
107 739 110 68 87 131
105 740 104 86 119 163
105 740 105 81 112 156
105 741 104 85 117 164
105 741 105 79 110 157
105 740 106 84 114 152
105 740 107 74 102 145
105 741 106 86 113 154
105 741 107 89 113 153
105 742 104 78 111 163
105 742 105 76 105 159
105 743 104 87 118 157
105 743 105 76 106 157
105 742 106 83 108 155
105 743 106 79 107 156
106 740 107 72 97 142
106 741 107 83 107 150
106 743 105 83 111 156
106 742 107 85 107 149
106 743 106 85 110 155
106 743 107 84 106 150
106 740 108 68 92 139
106 740 109 64 89 137
106 741 108 81 104 148
106 741 109 70 96 140
107 740 109 65 90 137
107 741 109 63 93 137
107 740 110 65 87 134
107 740 111 70 88 133
107 741 110 65 91 136
107 741 111 68 91 137
106 742 108 77 102 145
106 742 109 73 102 141
106 743 108 69 96 144
106 743 109 77 103 145
106 742 110 71 101 140
106 743 110 80 106 143
107 742 110 71 99 139
107 742 111 73 99 139
107 743 110 81 106 143
107 743 111 94 115 147
108 736 108 79 105 144
108 736 109 83 105 144
108 737 109 79 102 143
108 736 110 103 118 150
108 737 110 91 108 144
108 737 111 103 115 147
109 736 110 103 118 148
109 736 111 115 127 149
109 737 111 110 121 144
108 738 110 83 100 138
108 738 111 94 106 140
108 739 110 73 91 131
108 739 111 82 96 136
108 740 111 75 89 134
108 741 111 69 88 136
105 744 99 163 172 188
106 744 96 196 187 187
106 744 97 196 188 188
106 745 97 194 186 188
107 744 96 195 187 188
107 745 96 192 187 191
107 745 97 193 187 189
106 744 98 200 192 194
106 744 99 184 185 195
106 745 98 193 187 191
106 745 99 167 172 185
107 746 96 178 176 184
107 746 97 186 183 188
107 747 97 151 154 181
106 746 98 189 185 189
106 746 99 150 159 174
106 747 99 131 144 163
107 746 98 186 184 190
107 747 98 155 162 183
107 747 99 140 149 171
105 744 100 98 125 157
105 744 101 131 139 158
105 745 100 105 132 162
105 745 101 132 146 167
105 744 102 167 165 170
105 744 103 161 163 171
105 745 102 160 161 171
105 745 103 166 165 171
105 746 101 157 164 179
105 746 102 163 166 176
105 746 103 166 165 171
106 745 100 115 141 169
106 746 100 134 151 174
106 746 101 155 164 180
106 747 100 153 161 177
106 747 101 167 172 184
106 746 102 159 163 174
106 746 103 169 167 174
106 747 102 151 159 174
106 747 103 169 171 180
107 748 98 123 128 174
107 748 99 126 135 172
107 749 98 125 131 176
107 749 99 121 129 173
107 750 99 130 140 180
106 748 100 176 179 189
106 748 101 180 182 192
107 748 100 164 170 186
107 749 100 108 118 168
107 749 101 108 123 168
106 748 102 161 168 181
106 748 103 154 162 176
106 749 102 151 163 183
106 749 103 131 146 175
107 749 102 116 131 167
107 750 100 110 127 173
107 750 101 80 102 169
107 751 100 132 146 179
107 751 101 119 134 173
106 750 103 89 107 169
107 750 102 72 94 165
107 750 103 71 91 169
107 751 102 65 97 159
107 751 103 47 81 159
108 746 96 158 157 176
108 747 96 141 139 179
108 747 97 135 137 180
108 748 96 128 132 181
108 748 97 129 133 181
108 749 96 113 123 173
108 749 97 120 129 176
109 748 96 119 125 176
109 749 96 119 129 176
108 749 98 125 134 177
108 749 99 132 139 179
109 750 96 121 133 180
109 750 97 121 132 179
109 751 97 102 128 177
108 750 98 124 133 178
108 750 99 129 138 179
108 751 98 120 133 181
108 751 99 123 135 177
109 751 98 112 131 178
110 750 96 127 142 187
110 751 96 115 141 186
108 750 100 136 149 183
108 751 100 136 144 179
105 744 104 134 147 164
105 744 105 117 136 161
105 745 104 167 167 175
106 744 105 114 134 162
106 745 104 169 168 176
106 745 105 160 165 177
106 744 106 109 131 162
106 744 107 92 115 156
106 745 106 137 151 170
106 745 107 102 125 158
106 746 104 166 164 169
106 746 105 164 165 174
106 747 104 170 168 173
106 747 105 161 162 170
106 746 106 141 151 168
106 746 107 111 127 157
106 747 106 132 143 161
106 747 107 104 117 152
106 744 108 69 96 150
106 744 109 72 98 148
106 745 108 76 103 154
106 745 109 71 98 149
106 744 110 80 103 144
106 744 111 91 110 142
106 745 110 79 101 145
106 745 111 95 112 144
107 744 111 99 117 145
107 745 111 107 120 145
106 746 108 109 129 160
106 746 109 112 132 157
106 747 108 137 146 164
106 747 109 156 160 170
106 746 110 112 128 152
106 746 111 118 130 152
106 747 110 158 160 169
106 747 111 158 159 167
107 746 111 134 142 157
107 747 111 151 154 164
106 748 104 170 173 183
106 748 105 158 164 176
106 749 104 120 134 165
106 749 105 115 131 163
106 748 106 122 137 161
106 748 107 92 107 148
106 749 106 100 122 157
106 749 107 84 102 148
106 750 104 89 107 166
106 750 105 94 113 165
106 751 104 81 98 164
106 751 105 89 107 165
107 751 104 57 82 158
106 750 106 98 118 165
106 750 107 87 105 151
106 751 106 96 114 164
106 751 107 98 115 157
106 748 108 136 140 161
106 748 109 165 164 170
106 749 108 131 135 157
106 749 109 166 163 168
106 748 110 165 164 169
106 748 111 162 161 167
106 749 110 170 167 172
106 749 111 168 166 172
107 748 111 160 160 167
107 749 111 166 165 171
106 750 108 114 120 149
106 750 109 149 149 159
106 751 108 103 112 152
106 751 109 112 117 150
106 750 110 170 168 172
106 750 111 171 168 173
106 751 110 132 137 156
106 751 111 144 148 161
107 750 111 169 167 172
107 751 111 131 136 155
