ply
format ascii 1.0
comment Version 2, Copyright 2017, 8i Labs, Inc.
comment frame_to_world_scale 0.179523
comment frame_to_world_translation -45.2095 7.18301 -54.3561
comment width 1023
element vertex 233
property float x
property float y
property float z
property uchar red
property uchar green
property uchar blue
end_header
107 752 112 139 145 163
107 752 113 155 157 166
107 753 112 113 118 153
107 753 113 140 144 159
107 752 114 156 156 163
107 753 114 153 154 161
107 754 112 84 96 148
107 754 113 96 102 147
107 755 112 82 102 152
107 755 113 76 89 149
107 754 114 131 133 152
107 756 112 97 119 154
108 752 114 153 155 163
108 752 115 146 150 160
108 753 114 153 153 161
108 753 115 152 153 160
108 755 113 76 89 149
108 754 114 115 115 150
108 754 115 137 137 156
108 755 114 77 84 148
108 755 115 89 92 147
108 752 116 140 145 158
108 752 117 144 149 161
108 753 116 156 156 162
108 753 117 157 158 166
108 752 118 149 151 161
108 753 118 154 154 163
109 752 119 161 160 167
109 753 119 159 159 166
108 754 116 153 153 164
108 754 117 160 159 166
108 755 116 106 105 149
108 755 117 127 127 155
108 754 118 156 156 164
108 755 118 140 144 163
109 754 119 152 153 161
109 755 119 139 146 162
108 756 112 104 125 156
108 756 113 83 106 151
108 757 112 125 141 162
108 757 113 110 132 158
108 756 114 71 93 149
108 756 115 62 84 148
108 757 114 95 123 155
108 757 115 72 107 150
108 758 112 118 127 156
108 758 113 127 140 162
108 759 112 99 106 153
108 759 113 102 108 151
108 758 114 122 141 161
108 758 115 110 133 157
108 759 114 107 114 153
108 759 115 119 131 160
108 756 116 64 80 147
108 756 117 78 85 148
108 757 116 59 95 149
108 757 117 56 86 148
108 756 118 92 102 150
108 757 118 67 87 150
109 756 119 104 116 155
109 757 119 78 94 151
108 758 116 94 121 153
108 758 117 86 111 150
108 759 116 123 138 159
108 759 117 125 140 158
108 758 118 85 107 149
108 759 118 120 135 154
109 758 119 86 104 150
109 759 118 119 134 153
109 759 119 105 123 150
109 752 120 164 164 171
109 753 120 168 166 171
109 754 120 161 161 167
109 755 120 137 145 162
110 752 121 156 163 176
110 753 121 167 169 178
111 752 122 125 143 166
111 752 123 105 126 151
111 753 122 138 152 173
111 753 123 104 126 154
110 754 121 166 167 174
110 755 121 151 158 172
110 754 122 165 168 179
111 754 122 138 152 173
111 754 123 97 120 156
111 755 122 132 148 173
111 755 123 92 113 158
109 756 120 111 122 158
109 757 120 93 105 154
109 758 120 91 106 150
109 759 120 97 118 148
110 756 121 119 131 159
110 757 121 111 122 159
111 756 122 102 122 159
111 756 123 79 102 155
111 757 122 98 116 157
111 757 123 85 107 157
110 758 121 101 114 152
110 759 121 88 110 145
110 759 122 77 104 145
111 758 122 96 113 154
111 758 123 94 112 157
111 759 122 71 99 145
111 759 123 78 100 150
108 760 112 88 106 151
108 760 113 89 99 151
108 761 112 106 126 160
108 761 113 81 99 151
108 760 114 91 97 150
108 760 115 91 96 148
108 761 114 72 89 150
108 761 115 73 89 149
108 762 112 116 136 164
108 762 113 87 114 155
108 763 112 147 160 179
108 763 113 137 152 174
108 762 114 60 90 150
108 762 115 58 86 149
108 763 114 104 130 162
108 763 115 87 115 154
108 760 116 103 112 147
108 760 117 117 127 149
108 761 116 82 93 146
108 761 117 93 100 140
108 760 118 121 133 150
108 761 118 99 106 138
109 760 118 123 136 151
109 760 119 131 143 158
109 761 118 104 111 138
109 761 119 118 125 145
108 762 116 70 89 147
108 762 117 80 93 146
108 763 116 78 105 152
108 763 117 77 104 152
108 762 118 85 96 144
108 763 118 74 101 151
109 762 118 87 97 143
109 762 119 91 101 141
109 763 118 83 112 154
109 763 119 77 108 150
108 764 112 158 165 178
108 764 113 154 162 176
109 764 112 170 173 183
109 765 112 167 170 181
109 765 113 157 163 177
108 764 114 143 154 171
108 764 115 128 144 166
108 765 114 149 158 173
108 765 115 139 151 168
109 765 114 151 158 173
109 765 115 143 153 169
109 766 112 163 167 179
109 766 113 153 160 178
109 767 112 160 167 182
109 767 113 151 159 178
109 766 114 151 159 174
109 766 115 145 154 170
109 767 114 149 158 175
109 767 115 142 154 171
108 764 116 117 137 162
108 764 117 114 136 162
108 765 116 134 147 166
108 765 117 134 148 166
109 764 117 112 136 162
109 765 116 139 150 166
109 765 117 133 146 164
109 764 118 123 144 169
109 764 119 131 151 174
109 765 118 131 145 163
109 765 119 148 158 175
109 766 116 140 150 166
109 766 117 136 145 161
109 767 116 142 152 170
109 767 117 139 146 161
109 766 118 127 137 155
109 766 119 128 135 156
109 767 118 138 146 160
109 767 119 128 138 157
109 760 120 120 135 154
109 760 121 108 127 147
109 761 120 121 131 148
109 761 121 117 131 148
109 762 120 96 103 139
109 762 121 98 104 137
109 763 120 79 100 150
109 763 121 82 98 149
110 760 121 94 117 145
110 761 121 121 136 154
110 760 122 80 109 145
110 761 122 104 125 151
111 760 122 68 98 143
111 760 123 57 87 145
111 761 122 81 108 145
111 761 123 59 91 141
110 762 121 102 111 141
110 762 122 98 111 143
110 762 123 93 102 141
110 763 122 90 104 147
110 763 123 97 103 146
111 762 123 80 100 140
111 763 123 98 105 145
111 760 124 53 84 147
111 761 124 47 83 141
111 762 124 84 105 142
111 763 124 100 107 143
111 763 125 107 115 146
109 764 120 104 130 163
109 764 121 93 121 159
109 765 120 145 157 174
109 765 121 151 165 182
109 766 120 137 144 162
109 766 121 161 168 182
109 767 120 123 135 156
109 767 121 143 153 171
110 764 122 83 111 153
110 764 123 80 97 150
110 765 122 123 146 173
110 765 123 86 108 155
111 764 123 88 97 147
110 767 121 128 142 166
110 766 122 133 151 176
110 766 123 97 119 161
110 767 122 105 124 163
110 767 123 89 107 160
111 767 123 91 106 161
111 764 124 90 98 146
111 764 125 102 109 149
111 765 124 88 101 152
111 765 125 92 106 153
111 766 124 102 117 161
111 766 125 107 121 162
111 767 124 96 110 161
111 767 125 105 120 162
