ply
format ascii 1.0
comment Version 2, Copyright 2017, 8i Labs, Inc.
comment frame_to_world_scale 0.179523
comment frame_to_world_translation -45.2095 7.18301 -54.3561
comment width 1023
element vertex 174
property float x
property float y
property float z
property uchar red
property uchar green
property uchar blue
end_header
109 768 112 155 165 185
109 768 113 151 162 180
109 769 112 148 160 183
109 769 113 154 164 184
109 768 114 148 158 176
109 768 115 141 154 173
109 769 114 152 163 181
109 769 115 139 153 173
109 770 114 144 156 181
109 770 115 140 153 177
110 768 112 150 157 185
110 769 112 131 143 178
110 769 113 143 154 181
110 770 112 127 139 179
110 770 113 126 138 173
110 771 112 148 154 188
110 771 113 135 144 183
111 771 112 145 143 180
110 770 114 134 146 178
110 771 114 131 143 181
110 771 115 118 133 174
109 768 116 142 153 171
109 768 117 140 148 163
109 769 116 141 153 171
109 769 117 139 148 162
109 768 118 142 150 164
109 768 119 136 146 163
109 769 118 141 149 164
109 769 119 140 150 166
109 770 116 145 156 176
109 770 117 145 154 169
109 771 116 139 152 178
109 771 117 145 156 175
109 770 118 139 147 162
110 769 119 129 141 161
110 771 116 126 139 173
110 771 117 134 148 173
110 770 118 138 148 165
110 770 119 124 137 160
110 771 118 138 151 169
110 771 119 121 138 161
110 772 112 137 136 176
110 772 113 132 134 175
110 773 113 138 138 177
111 772 112 141 137 177
111 773 112 139 138 179
111 773 113 141 140 180
110 772 114 131 139 174
110 772 115 137 148 181
110 773 114 143 149 180
110 773 115 150 159 179
111 774 112 128 137 177
111 774 113 130 132 177
111 775 112 125 141 177
111 775 113 130 140 179
110 774 115 155 162 180
111 774 114 143 145 181
111 774 115 153 158 182
111 775 114 130 135 177
111 775 115 150 155 182
110 772 116 130 142 175
110 772 117 114 131 169
110 773 116 137 149 177
110 773 117 117 134 175
110 772 118 119 136 168
110 772 119 108 127 159
110 773 118 103 121 168
110 773 119 102 122 162
110 774 116 138 147 175
110 774 117 120 131 173
110 775 117 129 135 171
111 775 116 146 152 176
111 775 117 138 142 174
110 774 118 134 147 181
110 774 119 132 149 178
110 775 118 138 145 175
110 775 119 144 154 179
111 775 118 136 138 171
111 775 119 138 144 171
109 768 120 115 130 152
110 768 120 110 125 152
110 768 121 104 119 155
110 769 120 97 113 147
110 769 121 95 110 149
110 768 122 77 99 153
110 768 123 67 87 154
110 769 122 82 104 152
111 768 123 66 86 154
111 769 123 63 89 151
110 770 120 84 106 143
110 770 121 91 110 148
110 771 120 88 112 144
110 771 121 93 116 147
110 770 122 78 103 148
110 771 122 83 107 146
111 770 123 62 88 144
111 771 122 70 95 141
111 771 123 78 97 140
111 768 124 74 91 154
111 768 125 93 109 159
111 769 124 70 94 151
111 769 125 88 109 159
111 770 124 79 105 149
111 770 125 92 118 158
111 771 124 113 129 153
111 771 125 116 136 159
110 772 120 108 127 155
110 772 121 99 120 149
110 773 120 108 127 158
110 773 121 93 113 147
110 772 122 81 103 141
110 773 122 76 96 140
111 772 122 74 94 137
111 772 123 91 105 138
111 773 122 73 91 137
111 773 123 94 106 138
110 774 120 110 131 159
110 774 121 94 116 149
110 775 120 138 151 176
110 775 121 122 141 166
111 774 121 95 117 150
111 775 120 137 150 174
111 775 121 118 136 164
111 774 122 85 104 144
111 774 123 97 111 141
111 775 122 99 117 154
111 775 123 104 117 150
111 772 124 128 138 152
111 772 125 119 134 151
111 773 124 129 137 151
111 773 125 116 130 145
111 774 124 126 136 151
111 774 125 109 125 143
111 775 124 107 121 144
111 775 125 95 114 137
111 774 126 110 127 145
111 775 126 103 123 142
111 776 113 140 155 182
111 776 114 123 141 175
111 776 115 140 152 182
111 777 115 137 153 185
111 776 116 140 151 179
111 776 117 128 134 173
111 777 116 131 148 180
111 777 117 122 135 177
111 776 118 134 134 172
111 776 119 132 133 167
111 777 118 122 132 175
111 777 119 126 133 170
111 778 117 117 137 177
111 778 118 124 140 178
111 778 119 122 137 173
111 779 119 126 144 173
111 776 120 129 133 165
111 776 121 114 125 159
111 777 120 128 132 169
111 777 121 125 130 165
111 776 122 104 115 153
111 776 123 106 113 149
111 777 122 118 123 157
111 777 123 112 117 151
111 778 120 120 132 171
111 778 121 119 131 168
111 779 120 128 145 173
111 779 121 124 141 170
111 778 122 116 125 162
111 778 123 113 119 158
111 779 122 115 131 169
111 776 124 107 117 146
111 776 125 109 122 145
111 777 124 112 117 149
111 777 125 115 123 150
111 776 126 103 121 140
111 778 124 114 118 155
