ply
format ascii 1.0
comment Version 2, Copyright 2017, 8i Labs, Inc.
comment frame_to_world_scale 0.179523
comment frame_to_world_translation -45.2095 7.18301 -54.3561
comment width 1023
element vertex 346
property float x
property float y
property float z
property uchar red
property uchar green
property uchar blue
end_header
112 608 112 123 93 64
112 608 113 125 94 65
112 609 112 124 94 64
112 609 113 126 94 65
112 608 114 126 94 65
112 608 115 127 95 66
112 609 114 126 94 66
112 609 115 127 95 65
112 610 112 123 92 63
112 610 113 125 93 64
112 611 112 124 92 64
112 611 113 125 93 64
112 610 114 126 93 65
112 610 115 127 94 65
112 611 114 126 93 64
112 611 115 127 94 64
112 608 116 127 96 66
112 609 116 126 95 65
113 608 116 127 96 68
113 608 117 127 97 69
113 609 116 126 95 66
113 609 117 127 95 66
113 608 118 127 96 68
113 608 119 126 95 67
113 609 118 127 95 67
113 609 119 126 94 66
112 610 116 127 95 65
112 610 117 127 95 65
112 611 116 127 95 65
112 611 117 128 95 65
113 610 117 127 95 65
112 611 118 128 94 66
113 610 118 127 95 66
113 610 119 127 94 66
113 611 118 127 94 65
113 611 119 128 95 66
112 612 112 123 91 63
112 612 113 124 91 63
112 613 112 123 90 62
112 613 113 124 91 63
112 612 114 126 92 64
112 612 115 127 94 65
112 613 114 126 93 64
112 613 115 127 94 66
112 614 112 123 91 63
112 614 113 124 92 63
112 615 112 122 91 62
112 615 113 123 92 63
112 614 114 126 93 65
112 614 115 127 94 66
112 615 114 125 93 64
112 615 115 126 93 64
112 612 116 127 94 65
112 612 117 128 94 65
112 613 116 127 94 65
112 613 117 127 94 65
112 612 118 128 94 66
112 613 118 128 94 66
113 612 119 128 95 66
113 613 119 128 95 67
112 614 116 127 94 66
112 614 117 127 94 65
112 615 116 126 94 65
112 615 117 126 95 66
112 614 118 128 95 67
112 614 119 128 95 67
112 615 118 127 95 66
112 615 119 126 94 65
113 614 119 128 96 68
113 615 119 126 94 64
113 609 120 127 95 67
113 610 120 128 96 68
113 611 120 128 96 67
113 611 121 128 96 68
114 608 120 126 95 67
114 608 121 127 96 67
114 609 120 127 95 67
114 609 121 127 96 67
114 608 122 127 96 67
114 609 122 128 97 69
115 608 122 127 97 68
115 608 123 127 97 69
115 609 122 128 98 71
115 609 123 127 97 69
114 610 121 128 96 68
114 611 121 128 96 67
114 610 122 128 97 68
114 611 122 127 96 68
115 610 123 126 95 67
115 611 122 126 95 67
115 611 123 126 95 67
113 612 120 129 97 69
113 612 121 129 96 69
113 613 120 129 97 69
113 613 121 129 98 70
113 614 120 128 96 68
113 614 121 128 97 68
113 615 120 126 94 65
113 615 121 127 95 66
113 615 122 127 96 68
114 612 121 128 96 67
114 612 122 128 97 70
114 612 123 126 96 69
114 613 122 129 98 71
114 613 123 127 97 70
115 612 123 126 96 68
115 613 123 127 97 70
114 614 122 127 96 69
114 614 123 127 96 69
114 615 122 127 96 68
114 615 123 127 95 68
115 614 123 126 96 69
115 615 123 126 94 67
115 613 124 127 96 69
115 614 124 126 95 68
115 615 124 126 93 66
116 608 123 126 95 67
116 609 123 126 95 67
116 610 123 126 96 68
116 611 123 126 96 68
116 608 124 126 95 66
116 609 124 126 95 67
117 608 124 126 95 67
117 609 124 126 95 67
116 610 124 126 96 68
116 611 124 126 96 68
117 610 124 126 95 68
117 611 124 126 96 68
118 608 124 126 94 67
118 608 125 126 94 67
118 609 124 126 95 67
118 609 125 125 94 67
119 608 125 125 93 66
119 609 125 125 94 66
119 608 126 125 93 66
119 609 126 125 93 66
118 610 124 126 95 68
118 610 125 126 96 68
118 611 125 126 95 67
119 610 125 126 95 67
119 611 125 126 95 67
119 610 126 125 94 67
119 611 126 126 94 68
116 612 124 126 95 68
116 613 124 126 94 67
117 612 124 125 94 66
117 612 125 125 94 66
117 613 124 125 94 66
117 613 125 126 94 66
116 614 124 125 94 66
116 615 124 126 94 67
116 615 125 127 94 67
117 614 125 126 93 66
117 615 125 127 94 67
117 615 126 127 94 67
118 612 125 125 94 66
118 613 125 126 94 66
119 612 125 126 94 66
118 613 126 126 95 67
119 612 126 126 94 67
119 613 126 126 94 67
119 613 127 126 94 67
118 614 125 126 94 66
118 614 126 126 94 67
118 615 126 127 94 67
119 614 126 126 95 67
119 614 127 126 94 67
119 615 126 127 95 67
119 615 127 128 95 69
112 616 112 122 91 62
112 616 113 124 92 64
112 617 112 122 92 61
112 617 113 124 92 62
112 616 114 125 93 65
112 616 115 125 93 65
112 617 114 125 94 65
112 617 115 126 95 65
112 618 112 122 91 62
112 618 113 124 92 62
112 619 112 121 90 59
112 618 114 124 93 64
112 618 115 125 95 65
112 619 115 124 94 63
112 616 116 127 95 66
112 616 117 126 96 66
112 617 116 126 95 65
112 617 117 125 95 65
112 616 118 126 95 66
112 616 119 126 95 66
112 617 118 125 94 65
112 617 119 126 95 67
113 616 119 126 94 65
112 618 116 125 95 64
112 618 117 126 95 65
112 619 116 124 94 63
112 619 117 124 93 64
112 618 118 126 95 66
112 618 119 126 95 67
112 619 118 125 94 65
112 619 119 125 94 65
112 620 116 124 93 62
112 620 117 124 93 62
112 621 116 124 94 63
112 621 117 124 93 62
112 620 118 124 93 63
112 620 119 125 93 63
112 621 118 124 93 63
112 621 119 125 94 64
112 622 116 124 94 64
112 622 117 125 94 64
112 623 116 125 94 65
112 623 117 125 94 65
112 622 118 126 94 65
112 622 119 126 95 65
112 623 118 126 94 65
112 623 119 127 96 66
112 617 120 127 96 68
113 616 120 126 95 67
113 616 121 127 96 69
113 617 120 127 96 68
113 617 121 127 95 68
113 616 122 128 97 69
113 617 122 127 95 67
112 618 120 127 96 68
112 619 120 126 94 64
113 618 120 128 96 68
113 618 121 128 95 67
113 619 120 127 94 66
113 619 121 127 94 66
113 618 122 128 94 67
113 619 122 127 94 66
113 619 123 128 94 66
114 616 122 127 96 69
114 616 123 127 94 67
114 617 122 127 94 67
114 617 123 127 94 66
115 616 123 127 94 67
115 617 123 127 94 67
114 618 123 128 94 67
114 619 123 128 95 67
115 616 124 127 94 67
115 617 124 128 95 68
114 619 124 128 95 68
115 618 124 128 95 68
115 618 125 128 95 68
115 619 124 128 94 67
115 619 125 128 94 67
112 620 120 126 93 64
112 621 120 127 94 64
112 621 121 127 94 65
113 620 121 126 93 64
113 621 121 127 94 65
113 620 122 128 95 66
113 620 123 129 96 67
113 621 122 129 95 66
113 621 123 129 96 67
112 622 120 127 95 64
112 622 121 128 95 66
112 623 120 128 96 67
112 623 121 129 97 68
113 622 121 127 94 65
113 622 122 129 96 66
113 622 123 129 96 67
113 623 122 129 97 67
113 623 123 130 97 67
114 620 123 129 95 67
114 621 123 129 96 67
113 622 124 129 96 67
113 623 124 129 95 66
114 620 124 128 95 67
114 621 124 128 95 67
114 621 125 128 95 66
115 620 124 128 95 68
115 620 125 128 95 67
115 621 125 127 95 66
114 622 124 129 96 67
114 622 125 128 96 67
114 623 124 129 95 67
114 623 125 129 96 67
115 622 125 128 95 67
115 623 125 128 95 67
115 622 126 128 95 67
115 623 126 128 96 67
116 616 124 128 94 68
116 616 125 127 94 67
116 617 125 128 95 68
117 616 125 128 94 67
117 617 125 128 95 67
117 616 126 128 95 68
117 617 126 128 95 68
116 618 125 128 95 67
116 619 125 128 95 67
116 619 126 128 95 67
117 618 126 128 96 67
117 619 126 128 95 67
118 616 126 128 95 68
118 616 127 128 95 68
118 617 126 128 95 68
118 617 127 129 96 68
119 616 127 128 96 69
119 617 127 129 97 70
118 618 126 129 96 68
118 618 127 129 97 69
118 619 127 129 96 68
119 618 127 129 97 70
119 619 127 130 97 70
116 620 125 128 94 66
116 620 126 128 95 67
116 621 126 128 94 66
117 620 126 129 95 67
117 621 126 129 96 67
116 622 126 128 95 67
116 623 126 129 96 68
117 622 126 129 95 67
117 622 127 130 96 68
117 623 126 130 96 68
117 623 127 130 97 69
118 620 127 129 96 68
118 621 127 130 97 68
119 620 127 130 97 70
119 621 127 130 97 69
118 622 127 131 97 69
118 623 127 131 97 69
119 622 127 131 98 70
119 623 127 131 97 69
120 608 126 124 93 66
120 609 126 124 93 66
121 608 127 124 92 67
121 609 127 123 92 67
120 610 126 125 94 68
120 611 126 126 94 68
120 611 127 126 95 69
121 610 127 124 93 68
121 611 127 125 94 69
122 608 127 123 92 68
122 609 127 123 92 68
122 610 127 124 93 68
122 611 127 124 93 69
120 612 126 126 95 68
120 612 127 126 94 68
120 613 127 126 95 68
121 612 127 125 94 69
121 613 127 126 95 69
120 614 127 126 95 68
120 615 127 127 95 69
121 614 127 126 95 69
