ply
format ascii 1.0
comment Version 2, Copyright 2017, 8i Labs, Inc.
comment frame_to_world_scale 0.179523
comment frame_to_world_translation -45.2095 7.18301 -54.3561
comment width 1023
element vertex 206
property float x
property float y
property float z
property uchar red
property uchar green
property uchar blue
end_header
120 704 128 101 110 147
120 705 128 109 115 149
121 704 129 103 109 147
121 705 129 119 122 153
120 706 128 116 121 152
120 707 128 112 119 151
121 706 129 128 132 155
121 707 129 130 135 155
122 704 130 114 120 150
122 705 130 131 134 155
123 704 131 111 121 146
123 705 130 142 146 159
123 705 131 147 150 161
122 706 130 151 152 162
122 707 130 161 159 164
123 706 130 164 162 166
123 706 131 165 161 164
123 707 130 167 162 164
123 707 131 167 160 160
120 708 128 103 113 148
120 709 128 112 123 152
121 708 128 109 119 150
121 708 129 131 137 155
121 709 128 116 126 153
121 709 129 133 138 153
120 710 128 133 142 162
120 711 128 144 153 170
121 710 128 139 147 162
121 710 129 135 141 153
121 711 128 143 152 168
121 711 129 135 143 157
122 708 130 161 158 163
122 709 130 158 154 158
123 708 130 167 161 162
123 708 131 166 159 159
123 709 130 166 159 160
123 709 131 167 159 159
122 710 130 152 149 154
122 711 130 143 143 151
123 710 130 164 157 159
123 710 131 167 159 159
123 711 130 157 153 156
123 711 131 165 158 159
124 704 131 116 126 145
124 705 131 143 146 156
124 706 131 163 159 162
124 707 131 165 159 160
124 704 132 121 131 146
124 705 132 142 145 154
125 704 132 126 133 146
125 705 132 135 140 151
124 706 132 155 153 158
124 707 132 162 158 160
125 706 132 146 147 154
125 707 132 153 151 157
126 704 132 131 137 149
126 704 133 124 132 146
126 705 133 114 126 142
127 704 133 128 135 147
127 705 133 112 122 140
127 704 134 139 140 147
127 705 134 135 136 145
126 706 132 132 138 149
126 706 133 121 131 146
126 707 132 136 140 151
126 707 133 123 131 146
127 706 133 104 116 136
127 707 133 108 121 140
127 706 134 124 126 139
127 707 134 106 114 133
124 708 131 165 158 158
124 709 131 166 158 158
124 710 131 166 158 158
124 711 131 166 158 159
124 708 132 164 158 159
124 709 132 165 157 158
125 708 132 163 157 160
125 709 132 164 157 159
124 710 132 165 157 158
124 711 132 165 158 159
125 710 132 165 158 158
125 711 132 165 159 160
126 708 132 148 149 156
126 708 133 137 141 152
126 709 132 158 155 159
126 709 133 149 149 156
127 708 133 121 129 145
127 709 133 133 137 147
127 708 134 103 113 131
127 709 134 114 122 137
126 710 132 161 157 160
126 710 133 157 154 158
126 711 133 159 156 160
127 710 133 142 143 151
127 711 133 143 146 155
127 710 134 123 129 141
127 711 134 126 134 146
120 712 128 132 143 161
120 713 128 125 137 155
121 712 128 124 139 159
121 712 129 121 133 152
121 713 128 119 134 155
121 713 129 107 122 145
120 714 128 155 157 166
120 715 128 168 164 166
121 714 128 152 155 166
121 714 129 136 144 159
121 715 128 165 162 165
121 715 129 156 157 165
122 712 130 131 135 148
122 713 130 99 112 137
123 712 130 148 147 154
123 712 131 162 156 158
123 713 130 123 126 142
123 713 131 146 144 151
122 715 129 148 151 160
122 714 130 100 114 140
122 715 130 126 136 152
123 714 130 92 104 130
123 714 131 116 120 136
123 715 130 100 114 139
123 715 131 109 121 140
120 716 128 169 163 164
120 717 128 168 162 162
121 716 128 168 162 162
121 716 129 164 161 164
121 717 128 167 161 162
121 717 129 165 161 164
120 718 128 164 160 163
120 719 128 146 147 158
121 718 128 153 152 159
121 718 129 142 143 153
121 719 128 119 127 146
121 719 129 105 114 139
122 716 129 157 157 163
122 717 129 162 159 163
122 716 130 147 150 161
122 717 130 156 156 163
123 716 130 126 135 151
123 716 131 121 133 149
123 717 130 140 145 156
123 717 131 135 142 155
122 718 129 140 141 152
122 719 129 116 121 144
122 718 130 141 143 153
122 719 130 129 133 151
123 718 130 144 147 158
123 718 131 145 149 159
123 719 130 136 143 156
123 719 131 139 147 161
124 712 131 166 159 160
124 713 131 164 158 160
124 712 132 165 159 160
124 713 132 162 158 162
125 712 132 165 160 162
125 713 132 160 158 163
124 714 132 141 144 153
124 715 132 116 127 144
125 714 132 141 145 157
125 714 133 123 134 149
125 715 132 102 120 141
125 715 133 85 111 138
126 712 133 155 155 160
126 713 133 128 136 149
127 712 133 128 136 149
127 712 134 118 130 146
127 713 134 91 110 137
127 713 135 82 102 138
126 714 133 74 102 131
126 715 133 53 92 133
126 715 134 41 81 132
127 714 134 65 92 133
127 714 135 69 93 136
127 715 134 48 83 133
127 715 135 51 80 131
124 716 131 123 135 152
124 717 131 139 147 160
124 718 131 148 154 164
124 716 132 125 137 155
124 717 132 141 150 165
125 716 132 115 132 155
125 716 133 101 124 152
125 717 132 120 136 159
125 717 133 84 111 145
124 718 132 136 147 163
124 719 132 116 132 155
125 718 132 91 116 146
125 718 133 58 93 136
125 719 132 69 100 139
125 719 133 51 84 134
126 716 133 59 96 138
126 717 133 59 94 138
126 716 134 44 80 134
126 717 134 43 77 132
127 716 134 44 75 131
127 716 135 41 69 127
127 717 134 39 66 128
127 717 135 27 48 117
126 718 133 43 77 132
126 719 133 42 71 129
126 718 134 31 61 125
126 719 134 26 49 117
127 718 134 20 49 118
127 718 135 16 41 112
127 719 135 17 41 108
127 719 136 17 40 107
