ply
format ascii 1.0
comment Version 2, Copyright 2017, 8i Labs, Inc.
comment frame_to_world_scale 0.179523
comment frame_to_world_translation -45.2095 7.18301 -54.3561
comment width 1023
element vertex 84
property float x
property float y
property float z
property uchar red
property uchar green
property uchar blue
end_header
112 752 123 117 131 150
112 753 123 111 126 151
112 754 123 95 112 152
112 755 123 73 93 151
112 752 124 137 142 152
112 753 124 146 148 157
113 752 124 143 143 150
113 752 125 145 145 151
113 753 124 156 154 158
113 753 125 153 153 158
112 754 124 126 133 156
112 755 124 104 115 157
112 755 125 134 143 163
113 754 125 151 154 164
113 755 125 125 138 158
113 755 126 101 121 146
114 752 125 145 146 153
114 753 125 151 152 158
114 752 126 141 146 156
114 753 126 141 146 156
114 753 127 117 129 146
115 752 127 107 123 147
115 753 127 112 127 147
114 754 126 120 132 150
114 754 127 94 112 140
114 755 126 83 106 140
114 755 127 76 97 139
115 754 127 85 105 138
112 756 123 74 96 154
112 756 124 97 113 160
112 756 125 105 123 158
112 757 124 100 119 161
112 757 125 112 131 162
113 756 125 104 126 152
113 757 125 117 136 161
113 756 126 100 123 151
113 757 126 95 118 149
112 758 124 94 115 157
112 758 125 90 112 151
112 759 124 74 99 150
112 759 125 73 98 151
113 758 125 92 113 150
113 759 125 68 92 146
113 758 126 71 97 141
113 759 126 64 89 139
113 759 127 71 95 133
114 756 126 88 112 146
114 756 127 67 94 138
114 757 127 55 86 134
114 758 127 51 82 132
114 759 127 88 108 135
112 760 124 57 87 148
112 760 125 66 91 149
112 761 124 57 89 145
112 761 125 71 93 144
113 760 125 67 90 146
113 760 126 88 106 144
113 760 127 113 127 147
113 761 126 104 118 148
113 761 127 130 139 155
112 762 125 99 117 149
112 763 125 114 128 153
112 762 126 88 111 144
112 763 126 114 131 154
113 762 126 89 110 143
113 762 127 98 115 145
113 763 126 111 131 154
113 763 127 111 130 156
114 760 127 131 140 153
112 764 125 114 123 154
112 765 125 95 108 149
112 764 126 127 139 159
112 765 126 104 120 150
112 765 127 111 128 153
113 764 127 126 140 159
113 765 127 110 127 150
112 766 125 111 126 163
112 767 125 112 128 164
112 766 126 122 137 166
112 766 127 126 141 166
112 767 126 118 135 166
112 767 127 113 132 163
113 766 127 121 137 162
113 767 127 103 122 157
