ply
format ascii 1.0
comment Version 2, Copyright 2017, 8i Labs, Inc.
comment frame_to_world_scale 0.179523
comment frame_to_world_translation -45.2095 7.18301 -54.3561
comment width 1023
element vertex 268
property float x
property float y
property float z
property uchar red
property uchar green
property uchar blue
end_header
130 583 95 119 94 70
131 583 95 119 93 70
132 582 95 119 94 71
132 583 95 118 93 70
133 582 95 118 93 70
133 583 95 118 93 71
134 581 95 119 94 72
135 580 95 118 94 73
135 581 95 117 92 72
134 582 95 119 94 71
134 583 95 119 94 72
135 582 95 116 92 72
135 583 95 117 93 73
128 587 95 120 94 68
129 586 95 120 93 68
129 587 95 120 94 68
130 584 95 120 94 70
130 585 95 120 94 69
131 584 95 119 94 71
131 585 95 119 93 70
130 586 95 120 94 69
130 587 95 121 94 69
131 586 95 120 94 71
131 587 95 121 94 71
128 588 95 121 94 69
128 589 95 121 95 68
129 588 95 121 95 69
129 589 95 122 96 69
128 590 95 122 96 70
128 591 95 122 96 70
129 590 94 123 96 69
129 590 95 123 96 70
129 591 94 123 96 69
129 591 95 121 95 69
130 588 95 122 95 69
130 589 94 122 95 69
130 589 95 122 96 69
131 588 94 121 94 70
131 588 95 121 94 70
131 589 94 121 95 70
130 590 94 123 96 70
130 590 95 123 96 68
130 591 94 122 96 69
131 590 94 122 95 70
131 591 94 122 95 69
132 584 95 119 93 71
132 585 95 119 93 70
133 584 95 119 93 71
133 585 95 119 94 71
132 586 95 120 94 71
132 587 94 120 94 71
132 587 95 121 94 72
133 586 94 118 94 69
133 586 95 119 93 70
133 587 94 119 94 70
134 584 95 119 94 72
134 585 94 119 94 73
134 585 95 119 94 71
135 584 94 117 94 74
135 584 95 117 94 74
135 585 94 117 94 74
134 586 94 119 94 71
134 586 95 119 94 71
134 587 94 117 93 71
135 586 94 117 94 74
135 587 94 117 93 74
132 588 94 121 94 72
132 589 94 121 94 72
133 588 94 120 94 72
133 589 94 120 94 73
133 591 93 120 95 73
132 590 94 122 96 74
132 591 94 121 95 72
133 590 94 120 95 74
133 591 94 120 95 74
134 588 94 117 93 72
134 589 94 119 95 74
135 588 94 117 93 74
135 589 94 117 94 75
134 591 93 119 95 74
135 590 93 118 95 75
135 591 93 118 95 74
134 590 94 119 96 75
134 591 94 119 95 74
135 590 94 118 95 75
137 576 95 113 92 74
137 577 95 115 92 74
136 578 95 117 94 74
136 579 95 117 94 74
137 578 95 115 93 74
137 579 95 115 94 75
138 576 95 112 91 73
138 577 95 112 90 74
139 576 95 109 89 74
139 577 94 108 88 73
139 577 95 108 88 73
138 578 95 111 90 73
138 579 94 111 90 73
138 579 95 112 91 73
139 578 94 107 88 74
139 578 95 108 88 73
139 579 94 107 88 73
136 580 95 117 93 74
136 581 95 116 92 74
137 580 95 115 93 75
137 581 94 112 90 74
137 581 95 113 91 74
136 582 95 114 91 73
136 583 94 114 91 75
136 583 95 114 92 74
137 582 94 111 89 74
137 582 95 113 90 74
137 583 94 112 90 75
138 580 94 111 91 74
138 580 95 112 91 74
138 581 94 111 90 74
139 580 94 108 89 73
139 581 94 108 89 74
139 582 93 106 87 74
139 583 93 107 87 74
138 582 94 110 89 74
138 583 94 110 88 73
139 582 94 108 88 73
139 583 94 108 87 73
143 578 91 79 87 99
143 579 91 82 86 95
141 577 93 97 83 73
140 576 94 101 83 69
140 576 95 104 86 73
140 577 94 103 86 73
141 576 94 97 84 75
141 577 94 99 83 71
140 579 93 102 87 73
141 578 93 97 83 73
141 579 93 96 84 74
140 578 94 102 85 71
140 579 94 104 86 72
141 578 94 99 84 72
142 576 93 92 84 81
142 577 93 90 82 79
143 576 92 76 80 89
143 576 93 84 80 83
143 577 92 80 84 92
143 577 93 85 81 82
142 578 92 91 85 84
142 578 93 92 83 79
142 579 92 92 85 84
143 578 92 85 84 89
143 579 92 87 86 90
142 580 91 89 86 88
142 581 91 93 89 90
143 580 91 88 88 91
143 581 91 92 93 98
142 583 91 100 89 85
143 582 91 94 92 95
143 583 90 85 87 94
143 583 91 93 90 92
140 580 93 104 88 74
140 581 93 103 87 73
141 580 92 96 87 82
141 580 93 96 83 73
141 581 92 99 88 82
141 581 93 99 87 77
140 582 93 103 86 74
140 583 93 103 87 76
141 582 92 99 86 78
141 583 92 102 88 79
142 580 92 94 87 86
142 581 92 95 87 85
143 580 92 89 86 88
142 582 92 99 90 86
142 583 92 101 90 84
143 591 87 70 95 117
136 584 94 114 92 75
136 585 94 115 93 75
137 584 94 112 89 75
137 585 94 112 90 75
137 586 93 109 89 74
137 587 93 110 89 74
136 586 94 115 93 75
136 587 94 113 92 73
137 586 94 111 90 74
137 587 94 111 90 74
138 585 93 109 88 74
139 584 93 106 87 73
139 585 93 106 87 73
138 584 94 110 88 73
138 585 94 110 88 74
138 586 93 109 88 74
138 587 93 108 88 73
139 586 93 105 86 73
139 587 93 104 86 73
136 589 93 115 93 76
137 588 93 111 91 75
137 589 93 113 91 75
136 588 94 114 92 74
136 589 94 115 93 75
136 590 93 115 93 75
136 591 93 115 93 74
137 590 93 112 91 74
137 591 93 113 91 74
138 588 93 109 88 72
138 589 93 109 88 73
139 588 93 104 85 73
139 589 92 104 86 73
139 589 93 108 88 73
138 590 93 110 89 73
138 591 93 110 89 74
139 590 92 106 86 73
139 590 93 108 88 73
139 591 92 107 87 73
139 591 93 110 89 75
141 587 91 97 85 77
142 584 91 94 87 83
142 585 91 93 87 85
143 584 90 81 85 92
143 584 91 90 87 90
143 585 90 82 88 96
143 585 91 86 87 92
143 586 89 60 78 95
143 587 89 68 83 98
142 586 90 95 93 94
142 586 91 95 88 86
142 587 90 93 89 90
142 587 91 97 89 85
143 586 90 84 89 97
143 587 90 83 88 95
140 584 92 102 86 74
140 584 93 104 87 75
140 585 92 102 85 73
140 585 93 103 85 73
141 584 92 101 87 77
141 585 92 100 85 75
140 586 92 102 85 73
140 587 92 101 84 73
141 586 92 99 85 76
141 587 92 99 86 76
142 584 92 98 85 78
142 585 92 97 86 79
140 589 91 99 85 75
141 588 91 97 86 77
141 589 91 97 85 76
140 590 91 100 85 74
140 591 91 101 86 74
141 590 90 94 84 77
141 590 91 96 84 76
141 591 90 92 84 79
141 591 91 98 85 75
143 588 89 78 89 102
143 589 88 65 88 108
143 589 89 76 88 101
142 588 90 92 87 86
142 588 91 95 87 82
142 589 90 93 89 88
143 588 90 87 89 95
142 590 89 85 87 93
142 591 89 85 87 94
143 590 88 65 90 110
143 590 89 77 90 104
143 591 88 68 90 109
143 591 89 76 89 103
142 590 90 92 87 86
142 591 90 90 85 84
140 588 92 101 86 74
140 589 92 100 84 73
141 588 92 98 84 73
140 590 92 102 86 74
140 591 92 103 85 73
