ply
format ascii 1.0
comment Version 2, Copyright 2017, 8i Labs, Inc.
comment frame_to_world_scale 0.179523
comment frame_to_world_translation -45.2095 7.18301 -54.3561
comment width 1023
element vertex 19
property float x
property float y
property float z
property uchar red
property uchar green
property uchar blue
end_header
130 591 128 113 85 64
139 576 128 89 71 61
139 577 128 88 71 61
140 576 128 82 66 60
140 576 129 83 66 60
140 577 128 78 64 59
141 576 129 80 64 59
141 577 128 77 62 56
140 578 128 77 63 58
141 578 128 75 62 58
141 579 128 77 64 58
142 576 128 78 63 56
142 576 129 78 63 57
142 577 128 76 61 55
143 576 128 73 60 53
143 577 128 73 60 53
142 578 128 76 62 55
142 579 128 76 63 57
143 578 128 74 60 54
