ply
format ascii 1.0
comment Version 2, Copyright 2017, 8i Labs, Inc.
comment frame_to_world_scale 0.179523
comment frame_to_world_translation -45.2095 7.18301 -54.3561
comment width 1023
element vertex 43
property float x
property float y
property float z
property uchar red
property uchar green
property uchar blue
end_header
139 672 126 78 86 96
139 672 127 70 81 92
139 673 127 82 90 101
139 674 127 87 95 106
139 675 127 91 98 109
139 676 127 91 98 110
141 672 125 77 91 108
141 673 125 65 84 104
140 672 126 87 97 109
140 673 126 84 94 108
141 672 126 83 95 110
141 673 126 60 80 101
140 674 126 69 85 101
140 674 127 82 93 106
140 675 127 80 92 106
141 674 126 45 72 96
141 675 126 49 74 97
141 675 127 61 81 99
142 672 124 36 61 91
142 672 125 50 72 97
142 673 125 40 66 95
143 672 124 23 54 86
143 673 124 28 57 88
143 673 125 35 61 90
142 674 125 36 65 94
143 674 125 34 61 90
143 675 125 37 62 90
142 674 126 35 66 94
142 675 126 41 69 95
143 675 126 39 66 92
140 676 127 87 96 109
140 677 127 93 100 112
141 676 127 75 90 106
141 677 127 92 102 115
142 676 126 53 76 98
142 676 127 70 87 105
142 677 127 82 94 110
143 676 126 50 71 94
143 677 126 53 72 93
143 677 127 60 78 97
142 678 127 77 91 107
143 678 127 52 73 93
143 679 127 43 67 90
