ply
format ascii 1.0
comment Version 2, Copyright 2017, 8i Labs, Inc.
comment frame_to_world_scale 0.179523
comment frame_to_world_translation -45.2095 7.18301 -54.3561
comment width 1023
element vertex 322
property float x
property float y
property float z
property uchar red
property uchar green
property uchar blue
end_header
128 688 72 121 127 181
128 689 72 93 102 166
129 688 72 97 104 163
129 689 72 68 74 150
128 690 72 54 62 152
128 691 72 64 58 152
129 690 72 97 95 166
129 691 72 128 127 183
130 688 72 102 106 162
130 689 72 134 133 179
131 688 72 141 141 184
131 689 72 150 152 184
130 690 72 131 136 180
130 691 72 131 143 181
131 690 72 160 165 190
131 691 72 177 177 196
128 692 72 115 110 174
128 693 72 151 156 188
129 692 72 135 139 188
129 693 72 126 138 184
128 694 72 152 162 187
128 695 72 140 154 185
129 694 72 124 139 184
129 695 72 120 135 189
130 692 72 133 146 184
130 693 72 146 155 190
131 692 72 171 171 189
131 693 72 183 178 193
130 694 72 154 160 194
130 695 72 133 145 189
131 694 72 174 171 190
131 695 72 137 142 180
132 688 72 150 151 191
132 689 72 175 177 201
133 688 72 155 153 184
133 689 72 164 163 190
132 690 72 184 184 202
132 691 72 186 182 198
133 690 72 169 167 190
133 691 72 172 168 190
134 688 73 186 180 192
134 689 73 191 182 193
135 688 73 196 189 199
135 689 73 195 187 197
134 690 73 185 177 187
134 691 73 181 175 186
135 690 73 196 187 196
135 691 73 191 185 194
135 690 74 192 186 194
135 691 74 190 186 198
132 692 72 175 173 188
132 693 72 180 180 192
133 692 72 160 160 187
133 693 72 159 165 187
133 693 73 138 147 185
132 694 72 191 187 200
132 695 72 182 177 195
132 695 73 196 188 201
133 694 72 182 183 198
133 694 73 149 158 192
133 695 73 191 187 200
134 692 73 162 160 182
134 693 73 137 140 181
135 692 73 184 180 196
135 693 73 176 171 193
135 692 74 190 184 198
135 693 74 190 182 197
134 694 73 133 137 185
134 695 73 150 157 191
135 694 73 160 161 188
135 695 73 155 161 188
135 694 74 183 176 195
135 695 74 168 171 194
128 696 72 131 147 187
128 697 72 119 141 189
128 697 73 111 135 185
129 696 72 117 132 190
129 697 72 115 135 187
129 697 73 113 135 185
128 698 73 113 134 189
128 699 73 111 130 191
129 698 73 119 139 189
129 699 73 117 136 193
130 696 72 118 134 187
130 697 73 110 129 183
131 696 72 117 130 190
131 696 73 112 120 184
131 697 73 109 124 187
130 698 73 109 131 185
130 699 73 115 134 191
131 698 73 113 133 187
131 699 73 129 145 191
128 700 73 104 120 188
128 701 73 97 112 188
129 700 73 105 118 191
129 701 73 121 131 197
128 702 73 93 108 187
128 703 73 96 108 184
129 702 73 149 156 198
129 703 73 157 161 189
130 700 73 119 131 194
130 701 73 107 126 193
131 700 73 150 159 194
131 701 73 129 145 187
130 702 73 136 155 200
130 703 73 183 190 213
131 702 73 109 129 185
131 703 73 110 127 187
132 696 73 168 162 189
132 697 73 163 158 190
133 696 73 196 190 199
133 697 73 202 192 203
132 698 73 171 169 194
132 699 73 186 184 200
133 698 73 202 191 200
133 698 74 203 193 200
133 699 74 199 190 195
134 696 73 178 181 198
134 697 73 200 197 205
135 696 73 159 167 190
134 696 74 180 184 195
134 697 74 191 190 199
135 696 74 172 176 197
135 697 74 177 177 189
134 698 74 192 190 200
134 699 74 191 186 201
135 698 74 174 170 186
135 698 75 183 179 195
135 699 75 172 167 191
132 700 73 194 193 204
132 701 73 177 179 196
132 700 74 201 196 202
132 701 74 191 190 202
133 700 74 199 193 199
133 701 74 197 194 203
132 702 74 151 154 189
132 703 74 125 128 188
133 702 74 185 186 202
133 703 74 161 163 196
134 700 74 190 184 201
134 701 74 182 180 197
135 700 75 166 163 192
135 701 75 156 156 189
134 702 74 173 171 194
134 703 74 165 160 191
135 702 75 158 156 193
135 703 74 164 155 194
135 703 75 171 165 200
136 688 73 194 190 200
136 688 74 192 187 196
136 689 74 192 185 194
137 688 74 196 186 200
137 688 75 199 188 199
137 689 75 200 190 199
136 690 74 192 185 195
136 690 75 193 186 197
136 691 74 191 186 198
136 691 75 194 188 198
137 690 75 200 192 199
137 691 75 197 190 197
138 688 75 198 189 200
138 689 75 198 189 199
139 688 75 198 193 200
138 690 75 198 192 200
138 691 75 196 191 199
139 688 76 194 192 200
139 689 76 193 189 199
138 690 76 193 189 198
138 691 76 194 189 198
139 690 76 194 189 199
139 691 76 189 185 196
136 692 74 193 187 200
136 693 74 191 185 199
137 692 75 190 185 195
137 693 75 185 181 195
136 694 74 183 178 195
136 695 74 174 173 191
137 694 75 179 176 192
137 695 75 174 172 190
138 692 75 191 187 199
138 693 75 181 178 195
139 693 75 176 174 193
138 694 75 166 165 188
138 695 75 157 159 187
139 694 75 165 165 190
139 695 75 145 148 183
139 692 76 178 175 192
139 693 76 170 168 191
139 694 76 173 171 197
139 695 76 155 157 194
140 688 76 181 176 195
140 689 76 176 172 195
141 688 76 180 180 204
141 689 76 146 153 197
140 690 76 165 164 191
140 691 76 155 157 189
141 690 76 133 139 193
141 690 77 104 122 192
141 691 76 110 122 187
141 691 77 78 104 194
142 688 76 139 154 202
142 688 77 101 125 198
142 689 77 82 112 194
143 688 77 88 107 192
143 689 77 98 112 191
143 689 78 124 137 191
142 690 77 73 104 194
142 691 77 75 104 197
143 690 77 103 120 195
143 691 77 116 135 197
143 690 78 127 138 196
143 691 78 154 164 207
140 692 76 165 164 197
140 693 76 155 160 194
141 692 76 121 135 193
141 692 77 64 104 194
141 693 76 119 138 197
141 693 77 76 118 189
140 694 76 141 153 191
140 695 76 130 147 193
141 694 76 96 121 190
141 694 77 92 120 189
141 695 76 81 111 182
141 695 77 108 129 191
142 692 77 93 122 196
142 693 77 115 142 197
143 692 77 122 143 197
143 692 78 141 157 203
143 693 78 136 152 204
142 694 77 110 137 193
142 695 77 153 167 212
142 695 78 134 156 209
143 694 78 115 135 199
143 695 78 86 111 195
136 696 74 182 181 199
136 696 75 192 189 201
136 697 75 195 192 201
137 696 75 185 183 197
137 697 75 178 176 191
136 698 75 192 189 201
136 699 75 176 174 195
137 698 75 160 158 184
137 699 75 141 140 184
138 696 75 157 159 190
138 697 75 146 145 185
139 696 75 131 137 185
139 697 75 126 134 188
138 698 75 139 135 184
138 699 75 126 123 184
139 696 76 114 123 182
139 697 76 111 121 189
138 699 76 116 124 187
139 698 76 111 127 190
139 699 76 115 133 191
136 700 75 158 157 188
136 701 75 143 143 188
137 700 75 130 131 186
137 701 75 127 130 189
136 702 75 138 139 187
136 703 75 149 149 189
137 702 75 126 130 191
137 703 75 128 136 189
138 700 75 116 122 187
138 701 75 115 125 184
137 703 76 134 147 193
138 700 76 110 125 187
138 701 76 119 133 186
139 700 76 119 143 195
139 701 76 149 168 210
139 701 77 108 146 199
138 702 76 118 134 186
138 703 76 134 153 197
139 702 76 141 164 207
139 702 77 103 138 199
139 703 76 102 137 194
139 703 77 80 116 195
140 696 76 103 125 187
140 697 76 99 119 188
140 697 77 127 148 201
141 696 77 104 132 191
141 697 77 134 156 207
140 698 76 91 123 190
140 698 77 115 141 201
140 699 76 117 143 200
140 699 77 122 149 204
141 698 77 133 154 205
141 699 77 97 125 192
141 699 78 87 110 187
142 696 77 134 153 207
142 696 78 111 137 202
142 697 78 83 116 190
143 696 78 76 107 194
143 696 79 66 91 190
143 697 78 62 97 193
143 697 79 64 88 191
142 698 78 68 101 187
142 698 79 48 83 189
142 699 78 63 94 189
142 699 79 58 89 189
143 698 79 66 92 190
143 699 79 108 125 195
140 700 77 125 152 201
140 701 77 83 118 189
141 700 77 86 118 184
141 700 78 76 105 185
141 701 78 72 100 185
140 702 77 71 99 188
140 703 77 68 94 192
140 703 78 63 79 186
141 702 78 95 112 190
141 703 78 120 129 200
142 700 78 80 109 193
142 700 79 88 118 193
142 701 78 91 121 194
142 701 79 118 143 200
143 700 79 141 153 199
143 701 79 130 147 190
142 702 78 107 134 192
142 702 79 123 146 194
142 703 79 132 153 197
143 702 79 151 164 198
143 703 79 144 161 197
