ply
format ascii 1.0
comment Version 2, Copyright 2017, 8i Labs, Inc.
comment frame_to_world_scale 0.179523
comment frame_to_world_translation -45.2095 7.18301 -54.3561
comment width 1023
element vertex 72
property float x
property float y
property float z
property uchar red
property uchar green
property uchar blue
end_header
143 704 80 165 170 203
143 705 80 151 155 191
143 706 80 146 157 194
143 707 80 140 151 197
143 707 81 162 171 205
142 708 80 96 114 186
142 709 80 110 135 194
143 708 80 111 125 189
143 708 81 150 160 206
143 709 80 93 118 187
143 709 81 96 119 190
142 710 80 132 158 197
142 711 80 162 176 200
142 711 81 135 160 189
143 710 81 106 143 193
143 711 81 125 154 193
143 710 82 71 106 187
143 711 82 87 124 189
139 719 80 48 97 190
141 712 80 176 179 210
141 713 80 153 158 203
140 715 80 165 175 212
141 714 80 174 179 214
141 714 81 163 173 202
141 715 80 191 194 214
141 715 81 173 185 208
142 712 80 182 187 210
142 712 81 158 170 201
142 713 80 170 173 203
142 713 81 171 179 209
142 713 82 132 156 200
143 712 82 110 133 189
143 713 82 110 136 192
142 714 81 142 158 198
142 715 81 140 163 197
142 714 82 119 148 197
142 715 82 89 132 187
143 714 82 113 138 198
143 714 83 104 121 197
143 715 82 102 134 198
143 715 83 101 121 199
140 716 80 134 149 202
140 717 80 112 126 199
141 716 80 164 173 206
141 716 81 165 181 206
141 717 81 133 150 201
141 717 82 137 161 205
140 718 80 74 100 196
140 718 81 93 111 196
140 719 80 66 99 196
140 719 81 87 111 198
141 718 81 95 113 193
141 718 82 118 133 200
141 719 82 117 130 202
141 719 83 124 138 205
142 716 82 111 146 198
142 717 82 135 157 209
142 717 83 102 123 199
143 716 83 83 116 196
143 717 83 78 107 196
142 718 82 136 154 208
142 718 83 118 137 204
142 719 83 121 138 206
143 716 84 85 111 204
143 717 84 72 99 199
143 717 85 71 98 202
142 718 84 93 118 200
142 719 84 106 132 205
142 719 85 88 123 200
143 718 84 76 103 196
143 718 85 94 120 203
143 719 85 122 144 211
