ply
format ascii 1.0
comment Version 2, Copyright 2017, 8i Labs, Inc.
comment frame_to_world_scale 0.179523
comment frame_to_world_translation -45.2095 7.18301 -54.3561
comment width 1023
element vertex 297
property float x
property float y
property float z
property uchar red
property uchar green
property uchar blue
end_header
135 768 160 123 98 114
135 769 160 131 75 84
135 770 160 145 54 66
135 771 160 143 28 46
135 772 160 141 40 45
135 773 160 147 68 67
135 774 160 149 69 76
135 775 160 139 44 52
135 776 160 132 44 54
135 777 160 128 64 70
134 779 160 79 67 78
135 778 160 127 90 88
135 779 160 101 62 66
133 783 160 63 75 133
134 780 160 75 74 94
134 781 160 72 73 100
135 780 160 79 45 58
135 781 160 70 59 73
135 781 161 80 50 60
134 782 160 64 65 108
134 783 160 62 65 112
135 782 160 71 69 85
135 782 161 77 59 67
135 783 160 79 74 98
135 783 161 81 66 83
136 768 160 122 114 126
136 768 161 119 125 141
136 769 160 125 90 91
136 769 161 119 100 104
137 768 161 109 126 148
137 769 161 110 109 120
136 770 160 137 56 66
136 770 161 126 57 68
136 771 160 139 20 47
136 771 161 133 17 49
137 770 161 115 72 87
137 771 161 118 35 63
138 768 161 102 128 154
138 769 161 109 124 143
138 768 162 97 127 154
138 769 162 106 129 153
139 768 162 100 131 158
139 769 162 107 134 160
138 770 161 108 104 119
138 771 161 103 68 91
139 770 162 106 129 153
139 771 162 110 124 144
136 772 160 137 28 38
136 772 161 133 28 43
136 773 160 138 46 48
136 773 161 137 48 56
137 772 161 126 37 56
137 773 161 136 55 64
136 774 160 146 60 67
136 774 161 141 49 59
136 775 160 138 32 39
136 775 161 138 32 40
137 774 161 138 41 57
137 775 161 138 29 43
138 772 161 110 56 73
138 773 161 127 55 66
138 773 162 123 49 62
139 772 162 106 96 115
139 773 162 109 60 77
138 774 161 136 44 53
138 775 161 136 34 45
138 774 162 131 40 48
138 775 162 139 47 51
139 774 162 123 40 53
139 775 162 137 58 63
140 768 162 110 138 165
140 768 163 108 138 166
140 769 162 112 139 165
140 769 163 107 136 163
141 768 163 84 119 149
141 769 163 99 129 156
140 770 162 105 134 160
140 770 163 103 131 157
140 771 162 104 132 157
140 771 163 97 128 154
141 770 163 101 130 155
141 771 163 89 123 151
141 768 164 58 96 130
141 769 164 81 114 141
141 770 164 94 121 146
141 771 164 88 118 144
142 768 164 43 73 115
142 768 165 61 69 106
142 769 164 61 90 124
142 769 165 58 65 107
142 769 166 66 76 101
143 768 166 74 77 89
143 768 167 78 51 57
143 769 166 70 77 92
143 769 167 69 58 66
142 770 164 78 104 131
142 770 165 56 65 107
142 771 165 58 74 112
142 770 166 62 68 101
142 771 166 57 58 97
143 770 166 69 75 95
143 770 167 63 61 73
143 771 167 68 65 84
140 772 162 103 120 142
140 772 163 95 122 145
140 773 162 106 91 106
140 773 163 99 105 122
141 772 163 88 121 148
141 773 163 94 114 134
140 774 162 112 60 71
140 774 163 100 77 86
140 775 162 123 56 66
140 775 163 114 65 78
141 774 163 91 94 104
141 775 163 98 81 93
141 772 164 86 122 150
141 773 164 90 121 148
141 774 164 83 106 127
141 774 165 80 114 141
141 775 164 95 99 116
141 775 165 84 109 132
142 772 165 72 95 125
142 773 165 83 105 131
142 772 166 56 53 98
142 772 167 76 67 100
142 773 166 54 49 105
142 773 167 66 52 98
143 772 167 83 73 95
143 773 167 74 64 93
142 774 165 80 106 132
142 775 165 76 106 131
142 774 166 56 69 116
142 774 167 53 49 100
142 775 166 56 85 119
142 775 167 44 50 102
143 768 168 100 53 51
143 769 168 94 71 73
143 769 169 127 97 94
143 770 168 76 57 62
143 770 169 99 68 69
143 771 168 64 48 58
143 771 169 85 47 57
143 772 168 74 57 72
143 772 169 81 47 60
143 773 168 75 65 75
143 773 169 78 41 51
143 772 170 111 75 79
143 773 170 87 30 38
142 774 168 73 61 90
142 775 168 62 45 91
143 774 168 77 66 81
143 774 169 89 57 59
143 775 168 81 62 88
143 775 169 93 61 81
143 774 170 87 36 34
143 774 171 102 56 51
143 775 170 102 54 67
143 775 171 121 74 79
143 775 172 116 62 71
136 776 160 133 37 38
136 776 161 134 37 45
136 777 160 128 50 51
136 777 161 134 56 59
137 776 161 137 43 59
137 777 161 141 62 73
136 778 160 128 65 63
136 778 161 134 64 62
136 779 160 122 63 60
136 779 161 122 46 48
137 778 161 146 73 82
137 779 161 134 43 50
138 776 161 136 43 55
138 777 161 133 44 55
138 776 162 141 49 58
138 777 162 132 26 45
139 776 162 145 61 63
139 777 162 134 14 41
138 778 161 138 51 62
138 778 162 134 31 49
138 779 162 135 29 42
139 778 162 135 11 44
139 778 163 135 18 43
139 779 162 134 22 34
139 779 163 133 26 35
136 780 161 113 42 54
136 781 161 113 64 72
137 780 161 128 27 39
137 781 161 122 43 49
137 781 162 131 41 47
136 782 161 110 78 76
136 783 161 85 44 52
137 782 161 123 64 59
137 783 161 105 42 51
137 782 162 122 42 44
137 783 162 111 32 44
138 780 162 135 30 39
138 781 162 139 48 54
139 780 162 137 41 44
139 780 163 132 33 37
139 781 163 135 42 52
138 782 162 133 48 53
138 783 162 121 31 38
139 782 163 139 51 56
139 783 163 129 38 41
139 781 164 130 26 40
139 782 164 131 35 43
139 783 164 133 44 48
140 776 163 131 58 68
140 777 163 133 30 47
140 778 163 133 23 43
140 779 163 136 41 45
140 777 164 120 36 54
141 776 164 104 82 93
141 776 165 94 100 114
141 777 164 108 46 62
141 777 165 95 82 92
141 776 166 93 112 132
141 777 166 105 118 134
140 778 164 125 33 52
140 779 164 140 57 63
140 779 165 142 62 79
141 778 165 94 62 83
141 779 165 125 63 85
141 778 166 90 104 123
141 779 166 112 93 116
141 779 167 100 109 128
142 776 166 75 97 124
142 776 167 52 61 106
142 777 166 100 116 135
142 777 167 74 86 119
142 778 167 92 108 132
142 779 167 92 106 129
140 780 164 135 30 44
140 780 165 136 33 55
140 781 164 133 25 38
140 781 165 132 28 40
141 780 165 125 30 59
141 780 166 115 47 72
141 780 167 104 80 89
141 781 166 126 40 54
141 781 167 114 52 61
140 782 164 130 34 40
140 782 165 129 45 43
140 783 164 134 47 54
140 783 165 134 47 52
140 782 166 127 56 51
140 783 166 135 61 55
140 783 167 136 58 64
141 782 166 123 48 50
141 782 167 123 57 62
141 783 167 133 59 67
142 776 168 50 43 99
142 776 169 65 41 96
142 777 168 59 66 113
142 777 169 73 52 105
143 776 169 82 45 88
143 776 170 96 37 68
143 776 171 100 37 50
143 777 170 96 41 80
143 777 171 111 44 60
142 778 168 70 79 122
142 778 169 69 54 111
142 779 168 75 83 114
142 779 169 76 53 100
142 778 170 90 46 101
142 779 170 94 52 85
143 778 170 104 46 83
143 778 171 122 56 76
143 779 170 107 55 77
143 779 171 116 53 75
143 776 172 104 41 49
143 777 172 133 82 91
143 778 172 146 91 101
143 779 172 129 53 71
141 780 168 104 96 107
141 781 168 113 75 81
141 782 168 118 64 66
141 782 169 116 78 79
141 783 168 124 52 61
141 783 169 118 63 68
142 780 168 106 96 108
142 780 169 109 87 106
142 781 169 124 96 107
142 780 170 122 91 102
142 781 170 144 117 114
143 780 171 121 79 82
143 781 171 134 103 92
142 782 169 125 92 94
142 783 169 130 85 76
142 782 170 141 108 96
142 783 170 147 106 82
143 782 171 149 117 94
143 783 171 166 131 96
143 780 172 127 54 74
143 781 172 140 89 93
143 782 172 149 110 85
143 783 172 172 138 96
