ply
format ascii 1.0
comment Version 2, Copyright 2017, 8i Labs, Inc.
comment frame_to_world_scale 0.179523
comment frame_to_world_translation -45.2095 7.18301 -54.3561
comment width 1023
element vertex 262
property float x
property float y
property float z
property uchar red
property uchar green
property uchar blue
end_header
128 821 128 161 37 51
128 822 128 164 64 67
128 822 129 170 59 68
128 823 128 175 55 64
128 823 129 175 26 47
129 823 128 180 23 56
129 823 129 177 23 43
128 822 130 167 22 53
128 822 131 167 23 57
128 823 130 178 22 51
128 823 131 174 26 50
128 822 132 154 22 45
128 823 132 165 26 49
128 823 133 149 15 45
128 823 134 161 23 61
128 823 135 170 42 76
128 823 136 173 100 83
128 823 137 202 163 106
128 822 139 190 144 94
128 823 138 225 182 121
128 823 139 213 170 111
128 821 141 159 2 44
128 820 143 161 34 59
128 821 142 157 25 42
128 821 143 159 41 53
128 822 140 158 62 60
128 822 141 154 5 51
128 823 140 167 108 83
128 823 141 149 21 68
129 823 141 146 36 72
128 822 142 154 14 55
128 822 143 158 40 61
129 822 143 156 46 71
129 823 142 147 28 68
129 823 143 151 50 71
129 824 128 190 11 52
129 824 129 186 12 47
128 824 131 179 20 40
129 824 130 184 14 51
129 824 131 180 18 48
129 825 130 179 16 53
129 825 131 180 24 62
130 824 128 191 8 57
130 825 128 190 10 68
130 825 129 184 20 55
130 825 130 175 51 55
130 825 131 179 59 73
130 826 128 188 14 72
130 826 129 193 82 84
131 826 128 189 26 75
131 827 128 198 71 75
131 827 129 202 61 81
130 826 130 197 118 109
130 826 131 188 75 87
130 827 131 195 55 81
131 827 130 204 72 91
131 827 131 199 19 63
128 824 132 169 23 47
128 824 133 155 16 43
129 824 132 173 23 51
129 824 133 159 7 45
129 825 132 175 22 58
129 825 133 164 18 53
128 824 134 173 18 65
128 824 135 187 39 65
129 824 134 177 15 59
129 824 135 196 36 54
129 825 134 180 30 58
129 825 135 202 56 52
129 826 133 168 22 58
129 826 134 178 36 54
129 826 135 201 70 50
130 826 132 181 29 57
130 826 133 167 10 48
130 827 132 187 18 59
130 827 133 166 2 51
131 827 132 191 18 57
131 827 133 174 5 50
130 826 134 174 33 47
130 826 135 197 71 41
130 827 134 169 24 55
130 827 135 194 88 57
131 828 128 210 85 66
131 828 129 208 32 67
131 828 130 210 13 74
131 828 131 207 14 55
131 828 132 196 15 53
131 828 133 172 9 63
131 828 134 169 32 75
131 828 135 188 96 80
132 828 128 228 144 98
132 828 129 209 61 80
132 829 129 215 109 113
133 829 128 235 169 124
133 829 129 221 138 136
132 828 130 207 27 86
132 828 131 209 23 66
132 829 130 207 81 113
132 829 131 205 38 81
133 829 130 211 116 135
133 829 131 202 79 105
133 830 129 221 149 159
133 830 130 216 144 157
133 830 131 201 110 128
134 829 128 237 186 131
134 830 128 235 172 143
134 830 129 218 150 157
135 830 128 230 169 149
135 831 128 225 166 154
135 831 129 216 160 169
134 830 130 211 159 170
134 830 131 198 130 145
134 831 131 192 142 156
135 831 130 188 149 164
135 831 131 180 145 164
132 828 132 199 12 58
132 828 133 172 20 68
132 829 132 198 26 70
132 829 133 170 38 73
133 829 132 190 39 86
132 828 134 165 37 85
132 828 135 186 101 98
132 829 134 160 48 89
132 829 135 172 89 98
133 829 135 186 122 108
133 830 132 185 58 92
133 830 133 169 65 91
133 830 134 165 75 101
133 830 135 183 112 108
134 830 132 191 97 120
134 830 133 196 104 130
134 831 132 186 99 123
134 831 133 176 43 97
135 831 132 174 107 128
135 831 133 164 43 88
134 830 134 176 63 101
134 830 135 193 115 109
134 831 134 170 41 86
134 831 135 186 96 98
135 831 134 161 32 77
135 831 135 174 79 95
128 824 136 188 99 61
128 824 137 211 164 93
129 824 136 196 89 47
129 824 137 210 156 78
129 825 136 204 90 47
129 825 137 210 145 68
128 824 138 234 189 125
128 824 139 225 181 124
129 824 138 238 193 130
129 824 139 237 194 141
129 825 138 234 186 117
129 825 139 244 200 146
129 826 136 210 97 54
129 826 137 209 125 51
130 825 139 246 203 153
130 826 136 213 105 54
130 826 137 210 137 39
130 827 136 216 126 61
130 827 137 212 139 40
131 827 136 218 145 42
131 827 137 217 153 33
130 826 138 223 171 93
130 826 139 248 203 148
130 827 138 213 156 66
131 827 138 210 153 54
131 827 139 240 193 133
128 824 140 195 155 111
129 824 140 190 151 119
129 824 141 158 97 88
129 825 140 217 180 138
129 824 142 152 75 72
129 824 143 153 74 73
130 824 141 178 137 104
130 825 140 214 178 136
130 825 141 203 167 124
130 824 142 178 128 101
130 824 143 172 100 92
130 825 142 200 155 114
130 825 143 185 121 97
131 825 142 196 143 105
131 825 143 178 103 89
130 826 140 229 188 141
130 826 141 209 172 126
131 826 140 229 191 147
131 826 141 218 181 140
131 827 140 242 203 161
131 827 141 222 186 149
131 826 142 205 157 122
131 826 143 179 102 100
131 828 136 216 150 72
131 828 137 224 166 54
131 828 138 223 164 63
131 828 139 237 188 122
132 827 141 214 177 139
132 826 143 176 97 106
132 827 142 204 159 134
132 827 143 176 104 115
133 827 143 180 118 133
132 828 136 210 151 95
132 828 137 217 164 79
132 829 136 196 141 94
132 829 137 203 156 86
133 829 136 193 144 101
133 829 137 183 139 81
132 828 138 220 167 81
132 828 139 225 180 123
132 829 138 189 142 67
132 829 139 204 158 94
133 829 138 179 133 62
133 829 139 197 159 113
133 830 136 198 149 110
133 830 137 171 126 66
133 830 138 178 137 80
134 830 136 191 138 98
134 830 137 172 129 81
134 831 136 175 110 72
135 831 136 160 118 102
135 831 137 169 155 145
134 830 138 195 160 123
134 830 139 205 174 143
135 830 139 189 168 150
135 831 138 168 157 150
135 831 139 154 142 141
132 828 140 222 183 141
132 828 141 206 171 141
133 828 140 194 160 126
133 828 141 196 164 141
133 829 140 196 166 137
132 828 142 207 165 147
133 828 142 201 166 154
133 828 143 186 137 143
134 829 140 200 170 141
134 829 141 195 167 141
134 828 143 191 149 154
134 829 142 194 167 147
134 829 143 193 158 156
135 829 142 191 166 141
135 829 143 183 155 139
134 830 140 203 173 144
134 830 141 198 170 141
135 830 140 191 167 145
135 830 141 184 161 141
135 831 140 144 130 128
135 830 142 182 160 136
135 830 143 172 151 129
136 831 128 217 169 149
136 831 129 219 174 164
136 831 138 108 116 141
136 831 139 78 76 111
136 831 140 65 51 94
136 831 141 113 102 115
137 831 140 53 20 98
137 831 141 62 39 100
136 830 142 160 147 138
136 830 143 160 147 138
136 831 142 144 136 141
137 830 143 145 146 151
137 831 142 96 90 125
137 831 143 129 140 153
138 831 142 81 81 127
138 831 143 110 131 155
