ply
format ascii 1.0
comment Version 2, Copyright 2017, 8i Labs, Inc.
comment frame_to_world_scale 0.179523
comment frame_to_world_translation -45.2095 7.18301 -54.3561
comment width 1023
element vertex 142
property float x
property float y
property float z
property uchar red
property uchar green
property uchar blue
end_header
159 482 175 67 100 127
159 483 174 50 90 118
159 483 175 58 93 120
159 487 171 74 98 120
159 484 173 26 79 111
159 485 173 59 91 118
158 485 175 57 91 118
159 484 174 44 86 115
159 484 175 59 92 118
159 485 174 48 86 114
159 485 175 59 92 118
158 487 173 55 87 113
159 486 172 78 98 119
159 486 173 85 106 128
159 487 172 72 96 118
159 487 173 71 97 119
158 486 175 62 95 121
158 487 174 51 86 113
158 487 175 54 91 119
159 486 174 75 102 126
159 486 175 62 93 120
159 487 174 68 97 121
159 491 165 80 96 113
159 490 167 76 94 112
159 491 166 72 90 108
159 491 167 72 90 107
159 493 163 82 90 101
159 494 161 75 89 104
159 495 160 49 79 105
159 495 161 58 81 102
158 495 162 47 73 94
158 495 163 60 82 101
159 494 162 74 86 98
159 494 163 74 86 98
159 495 162 71 87 104
159 495 163 78 91 105
157 495 165 68 87 109
157 494 167 76 89 104
157 495 166 89 102 117
157 495 167 95 106 119
158 493 165 79 87 97
159 492 164 74 87 104
159 492 165 75 88 105
159 493 164 78 90 102
159 493 165 80 91 104
158 492 166 77 93 109
158 492 167 75 93 111
158 493 166 81 92 106
158 493 167 79 97 115
159 492 166 78 93 109
159 492 167 79 95 111
158 494 164 87 96 106
158 494 165 86 94 104
158 495 164 69 87 105
158 495 165 91 103 117
159 494 164 79 88 98
158 494 166 83 91 103
158 494 167 76 90 104
155 495 171 39 76 112
155 495 172 39 75 113
155 495 173 45 78 113
155 495 174 63 89 114
155 495 175 93 107 125
157 491 171 52 81 105
159 489 169 70 91 111
158 489 171 62 90 113
159 488 170 71 95 116
159 488 171 67 94 117
159 489 170 66 90 112
159 489 171 66 93 116
158 490 169 62 87 109
158 491 168 72 91 110
158 491 169 72 94 113
159 490 168 71 92 112
159 490 169 68 90 111
159 491 168 71 90 109
158 490 170 56 84 107
158 490 171 49 82 106
158 491 170 65 90 112
158 491 171 46 79 104
159 490 170 62 88 111
157 488 175 48 87 115
157 489 174 35 78 107
157 489 175 40 82 112
157 490 173 34 72 99
157 491 172 33 71 98
157 491 173 24 68 95
156 491 175 32 78 110
157 490 174 33 74 102
157 490 175 33 78 109
157 491 174 33 72 101
157 491 175 40 80 110
158 488 172 65 91 114
158 488 173 57 88 112
158 489 172 58 87 111
158 489 173 47 81 106
159 488 172 70 95 118
159 488 173 65 91 114
158 488 174 38 80 107
158 488 175 47 87 115
158 489 174 43 81 108
158 490 172 49 81 105
158 490 173 43 77 102
158 491 172 35 73 100
157 493 168 75 98 120
157 493 169 72 96 118
156 493 171 52 86 113
157 492 170 70 94 115
157 492 171 62 89 113
157 493 170 62 91 115
157 493 171 52 86 112
156 495 168 93 108 125
156 495 169 79 98 119
157 494 168 69 89 108
157 494 169 64 90 112
157 495 168 86 101 118
156 494 170 48 84 111
156 494 171 42 81 111
156 495 170 54 85 113
156 495 171 28 72 109
157 494 170 66 94 117
158 492 168 76 95 115
158 492 169 77 97 117
158 493 168 76 98 118
158 493 169 74 97 118
158 492 170 75 97 118
156 492 173 40 77 106
156 493 172 49 84 112
156 493 173 47 83 113
157 492 172 42 78 106
157 492 173 34 73 102
157 493 172 48 83 111
156 492 174 42 78 108
156 492 175 38 79 110
156 493 174 48 83 112
156 493 175 56 87 115
157 492 174 33 72 102
156 494 172 45 81 113
156 494 173 41 80 113
156 495 172 33 72 111
156 494 174 52 84 114
156 494 175 69 93 118
