ply
format ascii 1.0
comment Version 2, Copyright 2017, 8i Labs, Inc.
comment frame_to_world_scale 0.179523
comment frame_to_world_translation -45.2095 7.18301 -54.3561
comment width 1023
element vertex 156
property float x
property float y
property float z
property uchar red
property uchar green
property uchar blue
end_header
158 496 192 97 93 93
158 497 192 95 92 93
158 497 193 99 98 102
159 496 192 101 98 99
159 496 193 102 105 111
159 497 193 99 100 107
159 496 194 75 87 105
159 496 195 61 75 101
159 497 194 80 90 105
159 497 195 67 81 108
158 498 192 89 86 87
158 498 193 93 92 96
158 499 192 77 76 78
158 499 193 80 81 85
159 498 193 96 97 103
158 499 194 85 87 94
159 498 194 95 99 110
159 498 195 97 105 125
159 499 194 90 94 105
159 499 195 94 101 119
159 496 196 89 98 113
159 497 196 61 80 104
159 498 196 93 104 127
159 498 197 98 111 132
159 499 196 93 103 129
159 499 197 99 111 134
157 501 192 56 59 66
157 502 192 64 66 71
157 503 192 70 70 74
157 503 193 69 70 76
158 500 192 58 60 67
158 500 193 57 59 72
158 501 192 52 56 65
158 501 193 47 51 67
158 500 194 70 74 90
158 501 194 51 57 77
158 501 195 62 70 91
159 500 194 85 89 103
159 500 195 81 88 109
159 501 195 72 81 102
158 502 192 60 63 71
158 502 193 64 68 77
158 503 193 71 73 79
158 502 194 66 72 86
158 502 195 68 77 96
158 503 194 75 79 88
158 503 195 67 77 94
159 500 196 87 98 121
159 500 197 95 109 131
159 501 196 87 97 116
159 501 197 92 107 125
159 500 198 116 127 143
159 501 198 108 120 137
158 503 196 69 82 101
159 502 196 87 97 113
159 502 197 90 104 120
159 503 196 80 92 110
159 503 197 91 103 119
159 502 198 88 105 124
159 503 198 91 108 128
155 510 192 48 51 58
155 511 192 57 58 63
157 504 192 64 64 70
157 504 193 62 64 70
157 505 192 56 58 64
157 505 193 60 62 68
157 504 194 63 65 71
157 505 194 71 73 77
156 506 192 57 60 67
156 507 192 64 67 74
156 507 193 68 69 74
157 506 192 58 60 66
157 506 193 66 68 73
157 507 192 65 67 73
157 507 193 70 71 76
157 506 194 78 79 84
157 506 195 92 93 97
157 507 194 75 77 81
157 507 195 84 86 90
158 504 194 67 72 79
158 504 195 66 75 88
158 505 194 74 76 82
158 505 195 80 85 93
158 506 195 92 94 100
157 507 196 80 85 93
158 504 196 65 78 98
158 504 197 79 91 110
158 505 196 77 85 100
158 505 197 79 91 109
159 504 197 89 101 118
159 504 198 91 107 128
159 504 199 86 105 129
159 505 198 89 104 125
159 505 199 84 104 127
158 506 196 90 95 106
158 506 197 77 89 108
158 507 196 84 91 101
158 507 197 78 89 107
158 506 198 82 96 116
158 507 198 78 94 118
159 506 198 90 106 128
159 506 199 85 104 128
159 507 198 89 106 129
159 507 199 93 110 130
156 508 192 57 61 70
156 508 193 59 62 69
156 509 192 49 53 64
156 509 193 52 56 64
156 509 194 55 59 67
157 508 194 61 65 72
157 508 195 67 70 76
157 509 194 58 61 70
157 509 195 66 69 74
156 510 192 50 53 62
156 510 193 56 59 66
156 511 192 55 57 64
156 511 193 65 65 70
156 510 194 67 68 73
156 511 194 73 71 74
156 511 195 76 74 75
157 510 194 69 70 75
157 510 195 78 78 83
157 511 195 81 79 81
157 508 196 64 71 81
157 509 196 74 77 84
157 509 197 77 83 93
157 510 196 91 90 93
157 510 197 100 101 107
157 511 196 94 91 91
157 511 197 107 104 106
157 511 198 113 113 117
158 508 197 68 79 97
158 509 197 79 88 102
158 508 198 71 89 114
158 508 199 91 108 129
158 509 198 72 88 110
158 509 199 84 103 125
159 508 199 98 113 132
159 509 199 99 114 133
158 510 198 90 99 113
158 510 199 76 97 120
158 511 198 105 110 118
158 511 199 76 96 118
159 506 200 86 102 124
159 507 200 104 115 132
159 508 200 107 118 132
159 508 201 127 131 140
159 509 200 102 116 132
159 509 201 117 125 137
158 511 200 86 107 134
159 510 200 93 112 133
159 510 201 98 113 132
159 511 200 91 111 138
159 511 201 87 107 134
159 510 202 116 125 138
159 511 202 97 112 133
