ply
format ascii 1.0
comment Version 2, Copyright 2017, 8i Labs, Inc.
comment frame_to_world_scale 0.179523
comment frame_to_world_translation -45.2095 7.18301 -54.3561
comment width 1023
element vertex 300
property float x
property float y
property float z
property uchar red
property uchar green
property uchar blue
end_header
153 544 128 83 107 135
153 544 129 67 100 132
153 545 128 79 105 133
153 544 130 53 93 128
154 544 129 72 104 135
154 545 128 72 101 132
154 545 129 74 104 134
154 544 130 52 93 128
154 544 131 54 93 125
154 545 130 72 104 133
154 545 131 76 105 132
154 546 128 61 91 127
154 546 129 57 92 127
154 547 128 64 97 127
154 547 129 59 94 127
154 546 130 72 102 131
154 546 131 80 107 134
154 547 130 71 99 130
154 547 131 73 100 129
154 544 132 70 98 127
154 544 133 63 87 121
154 545 132 73 99 128
154 545 133 56 83 120
154 544 134 46 70 112
154 544 135 39 63 110
154 545 134 50 75 118
154 545 135 47 74 116
154 546 132 75 100 129
154 546 133 57 86 123
154 547 132 64 91 127
154 547 133 55 82 125
154 546 134 52 81 119
154 546 135 57 82 119
154 547 134 63 85 123
154 547 135 70 87 123
154 548 128 79 108 137
154 548 129 72 103 133
154 549 128 55 93 126
154 549 129 61 95 128
155 549 129 68 98 131
154 548 130 80 105 134
154 548 131 74 100 130
155 548 130 76 102 133
155 548 131 71 96 128
155 549 130 71 97 131
155 549 131 61 89 124
154 550 128 66 95 130
154 550 129 66 95 130
154 551 128 46 79 125
155 550 129 67 92 129
155 551 129 58 83 126
155 550 130 63 87 127
155 550 131 48 76 120
155 551 130 58 81 125
155 551 131 54 78 122
154 548 133 54 82 120
155 548 132 58 88 123
155 548 133 59 87 123
155 549 132 55 84 122
155 549 133 61 86 124
154 548 134 67 89 122
154 548 135 74 92 124
154 549 134 67 90 125
154 549 135 69 91 123
155 548 134 70 92 126
155 549 134 66 90 125
155 550 132 51 76 120
155 550 133 60 83 121
155 551 132 63 82 124
155 551 133 72 91 124
154 550 135 71 94 119
154 551 135 95 109 125
155 550 134 61 87 119
155 551 134 85 102 125
153 544 138 43 67 114
153 544 139 45 68 115
153 545 138 55 80 117
153 545 139 46 74 116
153 546 138 106 118 135
153 546 139 100 113 130
153 547 138 115 124 138
153 547 139 121 127 139
154 544 136 31 58 109
154 544 137 31 61 111
154 545 136 48 76 116
154 545 137 62 84 119
154 544 138 40 66 113
154 545 138 60 83 118
154 546 136 82 100 127
154 546 137 104 118 137
154 547 136 79 95 125
154 547 137 94 107 130
154 546 138 107 120 136
154 547 138 108 118 134
153 544 140 54 74 115
153 544 141 65 81 117
153 545 140 42 70 114
153 545 141 42 68 114
153 544 142 69 85 119
153 544 143 76 91 121
153 545 142 45 68 115
153 545 143 58 76 118
153 546 140 92 105 124
153 546 141 78 94 119
153 547 140 128 132 141
153 547 141 126 130 139
153 546 142 69 86 116
153 546 143 67 84 115
153 547 142 121 126 136
153 547 143 118 124 134
153 548 138 87 98 118
153 548 139 94 104 121
153 549 139 104 112 127
153 550 139 88 101 120
153 551 139 93 106 124
154 548 136 88 102 127
154 548 137 92 104 126
154 549 136 76 94 120
154 549 137 85 98 118
154 548 138 93 105 124
154 549 138 96 107 123
154 550 136 75 96 121
154 550 137 80 97 119
154 551 136 96 109 123
154 551 137 97 108 123
154 550 138 84 98 120
154 551 138 98 109 124
154 551 139 98 108 123
153 548 140 99 106 121
153 548 141 105 111 123
153 549 140 109 116 129
153 549 141 109 116 128
153 548 142 115 120 129
153 548 143 120 124 133
153 549 142 107 114 125
153 549 143 102 110 122
153 550 140 93 103 121
153 550 141 102 109 123
153 551 140 92 105 124
153 551 141 91 104 123
153 550 142 110 116 128
153 550 143 113 119 131
153 551 142 96 107 125
153 551 143 97 108 125
154 552 128 34 70 121
155 552 128 36 70 120
155 552 129 42 72 121
155 553 128 27 66 117
155 553 129 34 68 118
155 552 130 47 74 122
155 552 131 49 75 120
155 553 130 49 74 122
155 553 131 58 77 121
155 554 128 24 64 115
155 554 129 36 67 117
155 555 128 27 63 112
155 555 129 36 66 114
155 554 130 49 72 119
155 554 131 61 79 122
155 555 130 48 70 117
155 555 131 55 74 119
155 552 132 61 82 121
155 552 133 74 91 122
155 553 132 73 89 123
155 553 133 90 102 127
154 552 135 121 127 137
154 553 135 100 110 122
155 552 134 93 106 126
155 552 135 112 120 131
155 553 134 103 113 129
155 553 135 103 112 125
155 554 132 72 87 123
155 554 133 87 99 126
155 555 132 63 82 122
155 555 133 70 88 121
154 554 135 121 127 138
154 555 135 91 103 121
155 554 134 108 117 134
155 554 135 121 127 139
155 555 134 79 96 120
155 556 128 21 57 105
155 556 129 33 61 110
155 557 128 22 56 105
155 556 130 52 70 117
155 556 131 62 79 120
155 557 131 64 80 122
155 558 128 25 58 105
155 558 129 28 52 110
155 559 128 22 50 100
155 558 131 70 84 121
155 559 131 74 84 124
155 556 132 75 92 125
155 556 133 83 100 127
155 557 132 88 101 128
155 557 133 102 113 133
154 556 134 82 101 123
154 556 135 81 99 120
154 557 134 102 115 130
154 557 135 102 114 129
155 556 134 86 103 126
155 557 134 103 115 131
155 558 132 79 93 118
155 558 133 86 100 120
155 559 132 106 114 133
155 559 133 107 116 131
154 558 134 103 114 128
154 558 135 110 119 131
154 559 134 91 102 116
154 559 135 97 105 116
155 558 134 95 109 126
155 559 134 101 111 125
156 555 129 38 65 113
156 555 130 46 69 116
156 556 129 37 62 112
156 557 128 16 52 105
156 557 129 28 55 111
156 556 130 49 69 117
156 557 130 44 64 118
156 557 131 52 69 119
156 558 128 18 53 104
156 558 129 27 53 110
156 559 128 23 50 102
156 559 129 38 53 110
156 558 130 47 64 118
156 558 131 61 75 121
156 559 130 52 63 116
156 559 131 86 94 126
156 559 132 105 111 133
153 552 139 117 118 125
153 553 139 134 131 134
153 554 139 111 111 117
153 555 139 130 128 133
154 552 136 126 129 137
154 552 137 128 128 132
154 553 136 108 115 125
154 553 137 118 120 126
154 552 138 122 123 128
154 552 139 118 119 126
154 553 138 127 126 131
154 553 139 131 129 133
154 554 136 121 125 135
154 554 137 120 121 129
154 555 136 99 108 122
154 555 137 115 119 127
154 554 138 113 115 122
154 554 139 111 112 119
154 555 138 131 130 135
154 555 139 135 133 138
153 552 140 111 116 125
153 552 141 103 113 126
153 553 140 138 133 135
153 553 141 135 132 134
153 552 142 96 108 124
153 552 143 93 105 122
153 553 142 128 126 130
153 553 143 119 119 124
153 554 140 115 114 119
153 554 141 125 122 126
153 555 140 126 125 131
153 555 141 114 115 121
152 554 143 122 121 126
152 555 143 107 111 120
153 554 142 129 126 130
153 554 143 123 122 126
153 555 142 107 110 118
153 555 143 102 106 114
154 556 136 78 95 116
154 556 137 81 96 114
154 557 136 101 114 129
154 557 137 99 113 129
154 556 138 93 102 117
154 556 139 104 111 124
154 557 138 95 109 127
154 557 139 89 102 121
154 558 136 114 121 132
154 558 137 112 119 130
154 559 136 98 107 118
154 559 137 109 115 126
154 558 138 110 116 127
154 558 139 109 116 127
154 559 138 114 120 131
154 559 139 111 118 129
153 556 140 122 125 134
153 556 141 127 129 138
153 557 140 86 98 117
153 557 141 89 99 114
152 556 142 120 122 131
152 556 143 115 118 126
152 557 143 100 103 114
153 556 142 124 126 135
153 557 142 96 102 115
153 558 140 101 111 126
153 558 141 81 95 113
153 559 140 98 105 117
153 559 141 86 97 113
152 558 143 85 93 108
152 559 143 90 98 113
153 558 142 78 89 109
153 558 143 82 89 107
153 559 142 85 94 112
