ply
format ascii 1.0
comment Version 2, Copyright 2017, 8i Labs, Inc.
comment frame_to_world_scale 0.179523
comment frame_to_world_translation -45.2095 7.18301 -54.3561
comment width 1023
element vertex 322
property float x
property float y
property float z
property uchar red
property uchar green
property uchar blue
end_header
146 560 176 85 104 139
146 560 177 82 99 139
146 561 176 87 103 139
147 560 177 89 103 144
147 561 176 91 106 145
147 561 177 95 108 152
147 560 178 97 109 151
147 560 179 100 115 152
147 561 178 95 107 152
147 562 176 114 122 163
147 562 177 109 119 161
147 563 176 128 134 169
148 560 178 102 115 159
148 560 179 112 129 166
148 561 178 115 127 163
148 561 179 126 140 176
149 561 179 121 139 175
148 562 177 143 149 174
148 563 176 173 172 186
148 563 177 181 181 193
149 563 177 198 193 197
148 562 178 161 166 185
149 562 178 195 194 203
149 562 179 158 165 184
149 563 178 195 192 199
150 563 177 195 188 189
150 562 178 205 200 206
150 562 179 188 186 197
150 563 178 200 195 199
151 562 179 214 204 208
151 563 178 189 183 187
151 563 179 209 199 202
148 560 180 115 137 171
148 560 181 94 123 164
149 560 181 95 120 169
149 561 180 117 137 180
149 561 181 109 130 182
149 560 182 88 110 166
150 561 180 130 140 177
150 561 181 118 130 177
151 561 181 174 173 187
150 560 182 96 109 163
150 560 183 114 122 164
150 561 182 110 122 170
151 560 182 158 165 188
151 560 183 174 179 195
151 561 182 185 184 197
151 561 183 216 213 218
150 562 180 157 160 182
151 562 180 204 195 201
151 562 181 204 196 200
148 564 176 198 192 195
149 564 176 210 200 198
149 564 177 204 196 196
150 564 176 211 198 195
150 564 177 205 195 194
151 564 176 207 195 192
151 564 177 194 186 187
151 565 176 211 197 192
151 560 184 156 164 183
152 562 179 217 205 205
152 563 178 175 169 177
152 563 179 198 188 191
153 563 178 175 170 177
153 563 179 184 177 181
154 563 179 187 180 185
152 561 182 232 220 215
152 561 183 229 221 222
153 561 182 233 218 211
153 561 183 228 218 216
152 562 180 224 211 207
152 562 181 230 216 210
152 563 180 216 203 200
153 562 180 219 206 201
153 562 181 226 211 205
153 563 180 203 193 192
152 562 182 235 220 213
153 562 182 229 214 208
154 561 183 214 207 209
155 561 183 191 191 202
154 562 181 210 199 197
154 563 180 195 187 189
154 563 181 197 189 191
155 563 180 193 188 192
155 563 181 188 186 193
154 562 182 215 205 203
155 562 182 184 185 195
155 562 183 167 171 190
155 563 182 175 179 193
152 564 176 208 195 191
152 564 177 200 190 189
152 565 176 208 194 187
153 564 177 205 193 191
153 565 176 200 184 178
153 565 177 202 189 183
152 564 178 184 178 183
153 564 178 190 183 187
153 566 176 193 178 172
154 565 177 193 181 177
154 564 178 185 180 184
154 564 179 181 176 182
154 565 178 193 184 185
155 564 178 179 173 179
155 564 179 180 175 180
155 565 178 177 169 174
155 565 179 169 164 172
154 566 176 185 172 168
154 566 177 183 171 167
154 567 176 181 169 166
155 566 177 181 170 167
155 567 176 179 169 166
155 567 177 175 166 164
155 566 178 174 165 168
155 567 178 165 159 163
155 564 180 188 183 187
156 563 181 178 179 192
156 562 183 136 145 183
156 563 182 145 152 184
156 563 183 126 135 178
157 563 182 112 121 169
157 563 183 114 122 170
156 565 179 159 156 168
156 566 178 161 155 165
156 566 179 151 147 162
156 567 178 156 152 160
156 567 179 142 140 156
156 564 180 174 173 182
156 564 181 160 163 182
156 565 180 147 147 167
157 564 181 124 132 169
157 565 181 110 116 159
156 564 182 134 142 176
157 564 182 106 115 164
157 564 183 105 113 164
157 565 182 93 103 157
156 566 180 128 129 156
157 566 180 112 116 153
157 566 181 93 104 149
157 567 180 106 113 147
157 567 181 88 103 144
157 566 182 89 99 152
158 564 183 108 114 160
158 565 182 96 105 152
158 565 183 112 119 154
158 566 182 95 107 147
158 566 183 108 120 149
158 567 182 104 121 151
158 567 183 108 123 152
159 567 183 98 115 149
152 560 184 182 187 201
152 560 185 132 147 175
153 560 184 184 191 206
153 560 185 131 145 178
153 561 184 215 213 219
153 560 186 107 120 162
154 560 185 155 165 194
154 561 184 205 205 214
154 561 185 184 189 207
155 561 184 174 180 197
155 561 185 149 160 188
154 560 186 105 119 169
155 560 186 113 130 173
155 560 187 116 133 173
155 561 186 127 141 179
155 562 184 146 158 186
156 561 185 140 153 185
156 560 187 116 135 174
156 561 186 124 140 179
157 560 187 95 118 164
157 561 186 113 130 173
157 561 187 96 118 165
156 562 184 139 149 185
156 562 185 141 152 187
157 562 184 122 132 176
157 562 185 124 136 177
157 563 184 112 122 169
157 562 186 117 132 174
158 560 187 80 104 159
158 561 187 99 119 167
158 562 185 117 130 172
158 563 184 121 126 168
158 563 185 125 133 170
158 562 186 120 134 175
158 562 187 121 138 178
158 563 186 131 141 176
159 562 187 144 156 187
159 563 186 136 143 172
159 563 187 134 141 173
157 560 188 74 102 154
158 560 188 74 98 153
158 561 188 96 115 165
159 560 188 88 107 156
159 560 189 105 118 158
159 561 188 114 126 167
159 562 188 126 135 171
158 564 184 121 126 162
158 565 184 123 129 156
159 564 185 139 144 170
159 565 184 123 130 156
159 565 185 118 125 153
159 564 186 132 138 166
159 565 186 115 122 156
159 566 184 113 124 152
159 566 185 105 112 147
159 567 184 93 108 144
159 567 185 84 94 141
154 568 176 176 165 163
155 568 176 175 166 165
155 568 177 170 162 163
155 569 176 169 161 162
155 569 177 157 152 156
155 569 178 141 141 152
154 571 176 150 147 150
155 570 176 155 150 154
155 570 177 137 137 148
155 571 176 143 142 149
155 571 177 118 122 139
155 570 178 119 124 142
155 571 178 102 110 138
155 571 179 96 108 137
154 572 176 143 142 149
154 573 176 142 142 150
154 573 177 121 126 142
155 572 176 136 137 147
155 572 177 117 122 140
155 573 177 112 119 139
155 572 178 100 110 138
155 572 179 101 115 142
155 573 178 100 111 137
155 573 179 106 120 144
154 574 176 136 138 146
154 574 177 109 117 138
154 575 176 128 131 145
154 575 177 109 116 142
155 574 177 105 115 139
154 575 178 110 120 147
155 574 178 102 114 139
155 574 179 103 119 143
155 575 178 114 125 151
155 575 179 120 133 160
155 572 180 111 126 147
155 573 180 117 130 153
155 574 180 101 119 147
155 575 180 107 126 159
156 568 178 155 152 157
156 568 179 138 139 152
156 569 178 144 144 153
156 569 179 123 128 145
157 568 179 121 126 147
156 570 178 125 129 146
156 570 179 107 116 140
156 571 179 94 108 136
156 569 180 104 114 139
157 568 180 104 115 145
157 568 181 94 112 144
157 569 180 100 114 139
157 569 181 101 120 144
157 569 182 105 122 150
156 570 180 105 116 142
156 571 180 101 115 140
156 571 181 114 126 148
157 570 181 101 119 142
157 571 181 108 121 146
157 570 182 92 111 141
157 570 183 88 103 142
157 571 182 95 110 144
157 571 183 82 94 140
158 568 182 98 118 147
158 568 183 96 114 148
158 569 182 95 115 145
158 569 183 87 107 142
158 570 183 87 102 141
156 572 180 103 119 142
156 572 181 98 114 141
156 573 180 115 128 151
156 573 181 100 115 146
156 573 182 88 102 143
157 572 182 92 105 144
157 572 183 90 99 143
157 573 182 90 101 145
157 573 183 105 113 151
156 574 181 83 101 146
156 575 181 83 102 154
156 574 182 86 100 149
156 575 182 93 107 158
157 574 182 106 117 160
157 574 183 128 138 170
157 575 182 114 127 167
157 575 183 148 159 182
158 574 183 143 152 176
158 575 183 153 163 184
158 569 184 72 91 136
158 569 185 74 90 135
159 568 184 80 97 142
159 568 185 75 87 138
159 569 185 78 92 136
159 568 186 86 96 137
159 568 187 104 114 143
159 569 186 102 112 143
159 569 187 122 131 151
158 570 184 77 94 137
158 570 185 85 100 139
158 571 184 87 100 140
158 571 185 107 121 148
159 570 185 96 110 140
159 571 185 120 132 152
159 570 186 109 121 143
159 570 187 124 133 150
159 571 186 132 141 156
159 571 187 128 138 153
158 572 184 107 116 148
158 573 184 128 137 160
159 572 185 128 138 156
159 573 185 149 154 170
159 572 186 145 151 163
159 573 186 149 153 166
158 574 184 142 152 171
158 575 184 150 159 182
159 574 184 147 155 174
159 574 185 158 162 180
159 575 184 144 152 183
159 575 185 149 157 182
