ply
format ascii 1.0
comment Version 2, Copyright 2017, 8i Labs, Inc.
comment frame_to_world_scale 0.179523
comment frame_to_world_translation -45.2095 7.18301 -54.3561
comment width 1023
element vertex 114
property float x
property float y
property float z
property uchar red
property uchar green
property uchar blue
end_header
154 576 176 123 124 144
154 576 177 116 121 149
154 577 176 131 131 152
154 577 177 129 136 161
154 576 178 114 124 153
155 576 178 112 125 156
155 576 179 110 128 160
155 577 178 127 143 172
155 577 179 120 140 175
154 578 176 149 151 166
154 578 177 144 153 174
154 579 176 156 160 177
155 578 177 140 154 178
155 579 177 149 159 183
155 578 178 137 155 183
155 578 179 123 145 182
155 579 178 153 168 194
155 576 180 97 120 161
155 577 180 96 119 168
154 580 176 154 158 177
155 580 176 148 153 176
155 580 177 148 157 184
155 581 176 147 152 178
155 581 177 139 148 179
155 582 176 145 148 176
156 578 179 100 126 178
156 579 178 130 150 188
156 579 179 84 113 176
157 579 179 72 100 175
156 576 180 90 114 160
156 576 181 83 101 161
156 577 180 89 112 170
156 577 181 88 104 169
157 576 181 103 113 168
157 577 181 118 127 179
157 576 182 140 149 183
157 577 182 158 166 196
156 578 180 82 107 174
157 578 180 82 104 176
157 578 181 115 128 182
157 579 180 73 97 175
157 579 181 109 124 182
158 576 183 168 177 198
158 577 182 173 181 203
158 577 183 172 181 202
159 577 183 160 171 197
158 578 181 146 156 191
158 579 180 85 102 174
158 579 181 121 133 181
158 578 182 161 170 196
158 579 182 134 145 183
159 578 182 158 168 194
159 578 183 157 168 194
159 579 182 140 151 184
156 581 177 133 145 179
156 580 178 129 147 187
156 581 178 115 130 174
157 580 179 78 104 172
157 581 178 92 111 168
157 581 179 80 104 168
156 582 176 128 133 170
156 582 177 120 130 171
156 583 176 118 122 166
157 582 177 107 118 165
157 583 176 108 114 163
157 583 177 103 113 161
157 582 178 92 108 164
158 581 179 76 101 164
158 583 177 93 108 157
158 582 178 82 100 158
158 582 179 74 98 158
158 583 178 80 101 153
159 582 179 74 96 153
159 583 178 76 101 150
159 583 179 67 95 147
157 580 180 73 94 171
158 580 180 89 106 169
158 580 181 99 114 168
158 581 180 87 107 164
159 580 181 102 118 166
159 581 180 90 109 162
159 581 181 91 108 161
159 580 182 111 124 168
159 582 180 81 101 155
158 576 184 159 168 192
159 576 184 152 161 191
159 576 185 144 155 190
159 577 184 149 160 192
157 584 176 97 107 157
158 584 176 87 103 154
158 584 177 81 102 153
158 585 176 79 99 150
159 584 177 71 98 149
159 585 176 76 98 149
159 585 177 74 99 150
159 584 178 74 101 150
159 584 179 66 97 146
159 585 178 74 101 150
159 586 176 74 99 148
159 586 177 76 102 149
159 587 176 67 96 145
159 587 177 66 98 144
159 586 178 73 101 147
159 588 176 74 100 145
159 588 177 83 105 145
159 589 176 86 106 145
159 589 177 96 113 147
159 590 176 73 99 136
159 590 177 99 116 142
159 591 176 72 98 134
159 591 177 96 112 137
159 590 178 109 123 142
159 591 178 110 123 140
159 591 179 108 122 139
