ply
format ascii 1.0
comment Version 2, Copyright 2017, 8i Labs, Inc.
comment frame_to_world_scale 0.179523
comment frame_to_world_translation -45.2095 7.18301 -54.3561
comment width 1023
element vertex 30
property float x
property float y
property float z
property uchar red
property uchar green
property uchar blue
end_header
158 608 47 101 126 153
158 609 47 103 127 154
159 608 46 94 122 152
159 608 47 95 123 152
159 609 46 83 114 145
159 609 47 93 121 150
158 610 47 93 119 145
158 611 47 89 113 139
159 610 46 91 118 147
159 610 47 96 121 149
159 611 46 106 128 153
159 611 47 104 125 150
158 612 47 108 129 154
158 613 47 94 120 147
159 612 46 103 126 154
159 612 47 106 129 155
159 613 46 96 121 148
159 613 47 95 121 149
158 614 47 79 108 137
158 615 47 106 123 144
159 614 46 100 121 145
159 614 47 89 114 140
159 615 46 133 141 156
159 615 47 122 134 151
159 616 47 145 150 161
159 617 47 143 147 159
159 618 47 147 150 160
159 619 47 157 158 167
159 620 47 155 155 163
159 621 47 159 159 167
