ply
format ascii 1.0
comment Version 2, Copyright 2017, 8i Labs, Inc.
comment frame_to_world_scale 0.179523
comment frame_to_world_translation -45.2095 7.18301 -54.3561
comment width 1023
element vertex 301
property float x
property float y
property float z
property uchar red
property uchar green
property uchar blue
end_header
151 640 61 156 156 163
151 641 61 160 159 165
150 640 63 140 142 151
150 641 63 131 135 144
151 640 62 148 149 156
151 640 63 143 144 152
151 641 62 151 151 159
151 641 63 137 139 149
151 642 61 154 154 161
150 642 63 141 143 152
151 642 62 151 151 159
151 642 63 148 150 158
151 643 62 140 141 150
151 643 63 147 147 154
151 644 62 137 139 148
151 644 63 144 144 151
151 645 62 145 145 151
151 645 63 145 145 151
151 646 62 155 153 159
151 646 63 151 150 155
151 647 62 157 155 160
151 647 63 149 149 156
151 648 62 162 159 164
151 648 63 149 149 155
151 649 62 159 154 158
151 649 63 146 147 153
151 650 62 149 137 137
151 650 63 129 128 136
151 651 63 112 98 111
151 652 63 109 70 85
151 653 63 106 56 74
151 654 63 99 78 102
151 655 63 95 116 141
154 640 55 147 149 159
155 640 54 160 161 170
155 640 55 150 151 161
155 641 54 169 168 173
155 641 55 163 162 168
155 642 54 170 166 168
155 642 55 173 168 169
155 643 55 166 152 148
155 644 55 151 118 114
155 645 55 133 67 73
155 646 55 123 48 75
155 647 55 96 91 107
158 640 50 124 51 56
158 640 51 129 90 82
158 641 50 122 38 59
158 641 51 119 44 56
159 640 50 121 40 63
159 641 50 112 62 81
158 642 51 115 36 64
158 643 51 109 85 97
159 642 50 105 89 106
159 643 50 100 113 129
156 640 53 166 163 167
156 641 53 153 147 149
157 640 52 153 142 139
157 641 52 122 91 90
157 641 53 135 123 124
156 640 54 168 168 174
156 641 54 164 161 164
156 642 53 138 120 120
156 643 53 120 54 77
157 642 52 122 63 77
157 642 53 123 87 96
157 643 52 125 64 84
157 643 53 124 51 80
156 642 54 157 148 147
156 643 54 127 83 91
158 643 52 113 78 89
158 644 51 107 123 139
158 645 51 92 123 149
159 644 50 90 125 154
159 644 51 102 129 153
159 645 50 68 114 152
159 645 51 77 120 152
158 646 51 73 118 154
158 647 51 76 125 165
159 646 50 72 119 158
159 646 51 69 115 154
159 647 50 91 137 174
159 647 51 86 134 172
157 644 52 108 82 91
157 644 53 116 38 71
157 645 52 103 111 123
157 645 53 106 82 97
156 644 54 129 40 73
156 644 55 132 59 71
156 645 54 123 38 80
156 645 55 134 46 72
157 646 53 97 120 139
157 647 53 93 136 170
156 646 54 106 83 101
156 646 55 109 61 85
156 647 54 101 130 153
156 647 55 100 116 133
157 646 54 101 115 128
157 647 54 100 136 165
158 644 52 107 107 117
158 645 52 99 122 142
158 646 52 88 124 153
158 647 52 82 131 169
153 640 57 168 165 170
153 641 57 169 166 172
152 640 59 163 162 169
152 641 59 163 162 169
153 640 58 166 164 169
153 641 58 168 166 171
153 642 57 171 169 175
152 642 59 161 160 166
152 643 59 160 159 165
153 642 58 169 167 173
153 642 59 165 163 169
153 643 58 172 170 175
153 643 59 167 165 170
154 640 56 159 158 166
154 640 57 166 163 170
154 641 56 160 159 166
154 641 57 167 165 171
154 642 56 170 167 172
154 642 57 171 169 175
154 643 56 175 170 171
154 643 57 176 172 176
152 640 60 161 160 167
152 640 61 160 159 165
152 641 60 163 162 169
152 641 61 160 158 165
152 642 60 156 156 163
152 642 61 152 152 160
152 643 60 147 148 156
152 643 61 134 137 148
152 644 59 157 157 165
153 644 58 157 156 162
153 644 59 157 156 163
153 645 58 141 141 149
153 645 59 141 143 153
153 646 58 161 158 162
153 646 59 148 149 156
153 647 58 166 158 160
153 647 59 161 153 153
154 644 56 174 164 161
154 644 57 161 156 157
154 645 56 158 137 133
154 645 57 165 156 157
155 644 56 171 157 150
155 645 56 140 105 98
154 645 58 153 151 156
154 646 56 130 85 90
154 646 57 150 132 133
154 647 57 125 75 100
155 646 56 121 52 72
155 647 56 108 61 89
154 646 58 166 159 162
154 647 58 145 120 126
152 644 60 155 156 165
152 644 61 146 149 158
152 645 60 153 154 163
152 645 61 155 155 163
152 646 60 150 151 160
152 646 61 156 155 163
152 647 60 152 148 152
152 647 61 158 155 159
153 647 60 160 153 153
155 648 55 109 136 159
155 649 55 101 140 171
159 648 51 90 137 174
159 649 51 90 136 172
159 650 51 81 126 164
159 651 51 71 119 159
157 648 53 83 135 175
157 649 53 77 127 166
156 648 54 94 139 175
156 648 55 103 140 171
156 649 54 86 137 175
156 649 55 95 140 176
157 648 54 87 138 177
157 649 54 81 131 170
157 650 53 83 125 160
157 651 53 95 131 163
156 650 55 90 138 176
156 651 55 81 131 170
157 650 54 84 129 166
157 651 54 87 129 164
157 651 55 86 132 168
158 648 52 84 133 172
158 648 53 81 134 173
158 649 52 85 131 168
158 649 53 78 126 164
158 650 52 81 126 161
158 650 53 81 124 159
158 651 52 79 120 156
158 651 53 90 127 160
159 650 52 83 128 164
159 651 52 73 117 155
159 652 51 93 139 177
156 652 55 78 131 171
156 653 55 86 135 174
157 652 54 79 125 162
157 652 55 81 130 168
157 653 54 73 121 162
157 653 55 80 131 170
156 654 55 88 135 174
156 655 55 83 133 172
157 654 54 90 137 175
157 654 55 83 131 170
157 655 55 86 134 172
158 652 52 81 123 158
158 652 53 81 123 159
158 653 53 90 135 172
159 652 52 91 134 171
159 653 52 95 140 177
158 653 54 77 123 164
158 654 53 96 141 178
158 655 53 91 140 177
159 654 52 96 141 178
159 654 53 95 141 178
159 655 53 91 140 177
158 654 54 95 141 178
158 655 54 92 140 178
153 648 58 120 49 75
153 648 59 140 111 113
153 649 58 125 39 81
153 649 59 124 47 77
153 650 59 123 46 80
153 651 59 111 101 114
154 648 57 115 81 108
154 649 57 96 99 116
155 648 56 108 116 133
155 649 56 109 140 165
155 649 57 103 123 141
154 648 58 118 43 84
154 649 58 111 70 97
154 649 59 121 51 88
154 650 57 107 134 156
155 650 56 99 142 176
155 650 57 104 139 167
155 651 56 89 139 178
155 651 57 97 141 176
154 650 58 102 106 122
154 650 59 102 70 90
154 651 58 108 138 163
154 651 59 107 127 146
152 648 60 164 154 150
152 648 61 166 159 158
152 649 60 146 119 113
152 649 61 161 143 140
153 648 60 158 144 139
153 649 60 134 93 93
152 648 62 165 161 164
152 649 62 163 153 153
152 650 61 132 80 78
152 651 61 116 46 60
153 650 60 130 52 67
153 651 60 109 55 75
152 650 62 133 110 107
152 651 62 114 71 81
153 652 59 94 123 146
153 653 59 89 125 155
153 654 59 92 129 162
155 652 56 79 134 175
155 652 57 85 136 175
155 653 56 90 140 178
155 653 57 86 135 175
154 652 58 90 135 171
154 652 59 96 133 164
154 653 58 76 121 161
154 653 59 74 118 156
155 653 58 79 124 165
155 654 57 92 139 176
155 655 57 87 138 177
154 654 58 85 131 169
154 654 59 80 124 161
154 655 58 94 139 175
154 655 59 93 138 175
155 654 58 91 137 173
155 655 58 91 139 177
152 652 61 107 85 93
152 653 61 106 112 123
153 652 60 99 108 120
153 653 60 109 132 153
153 653 61 113 126 139
152 652 62 118 83 91
152 653 62 100 90 98
152 653 63 102 65 81
152 654 61 95 124 149
152 655 61 78 127 163
153 654 60 104 137 167
153 654 61 101 132 160
153 655 60 68 119 159
153 655 61 65 118 159
152 654 62 95 115 136
152 654 63 98 101 121
152 655 62 86 130 164
152 655 63 92 126 155
156 651 56 75 131 173
156 652 56 78 133 174
156 653 56 85 136 175
156 654 56 90 138 176
156 655 56 81 132 172
156 655 57 83 136 175
