ply
format ascii 1.0
comment Version 2, Copyright 2017, 8i Labs, Inc.
comment frame_to_world_scale 0.179523
comment frame_to_world_translation -45.2095 7.18301 -54.3561
comment width 1023
element vertex 438
property float x
property float y
property float z
property uchar red
property uchar green
property uchar blue
end_header
148 704 135 71 80 93
148 705 135 75 84 95
149 704 135 76 85 97
149 705 135 82 89 99
149 706 135 80 89 100
149 707 135 75 84 96
151 704 133 81 89 103
151 705 133 87 94 105
150 704 134 81 89 101
150 705 134 86 92 101
150 705 135 86 91 100
151 704 134 82 90 102
151 705 134 89 95 105
151 706 133 93 97 106
150 706 134 85 91 101
150 706 135 86 93 103
150 707 135 82 89 100
151 706 134 89 94 104
151 707 134 88 94 105
151 707 135 88 95 106
149 708 135 75 84 95
149 709 135 79 87 98
149 710 135 75 84 97
150 708 135 81 89 100
150 709 135 77 84 96
151 708 135 90 95 106
151 709 135 86 92 104
150 710 135 72 81 95
150 711 135 66 76 93
151 710 134 73 80 96
151 710 135 78 85 99
151 711 134 72 79 96
151 711 135 69 78 95
144 704 137 66 78 96
144 705 137 69 81 98
145 704 136 62 76 93
145 704 137 62 76 93
145 705 137 65 79 94
144 706 137 74 85 100
145 706 137 78 88 101
144 706 138 85 94 106
144 707 138 92 99 110
145 706 138 83 92 104
145 707 138 88 96 106
146 704 136 59 75 92
146 705 136 69 83 98
146 705 137 70 83 99
147 704 136 61 76 91
147 705 136 72 84 98
146 706 137 79 90 104
146 707 137 84 93 105
147 706 136 75 86 100
147 706 137 77 88 101
147 707 136 78 88 99
147 707 137 78 88 100
146 707 138 88 96 107
144 708 138 93 99 110
144 709 138 90 97 106
145 708 138 92 99 109
145 709 138 96 101 111
144 710 138 92 98 107
144 710 139 90 96 106
144 711 139 90 97 107
145 710 138 98 103 112
145 711 138 96 102 112
145 711 139 95 101 111
146 708 137 87 95 106
146 709 137 92 99 109
147 708 136 75 85 97
147 708 137 81 90 101
147 709 136 78 88 99
147 709 137 84 93 104
146 708 138 93 99 110
146 709 138 96 102 112
146 710 137 94 101 111
146 711 137 92 100 111
147 710 137 85 94 105
147 711 137 84 94 107
146 710 138 97 103 113
146 711 138 93 101 112
148 704 136 66 77 91
148 705 136 73 84 96
148 706 136 75 85 98
148 707 136 73 83 95
148 708 136 72 82 94
148 709 136 78 86 97
148 710 136 78 88 100
148 711 136 74 86 99
148 711 137 76 87 101
149 710 136 71 82 95
149 711 136 65 79 94
150 712 135 60 73 92
150 713 135 62 75 94
151 712 135 64 75 94
151 713 135 66 77 95
151 714 135 71 82 100
144 712 139 90 97 108
144 713 139 91 100 111
145 712 138 95 102 113
145 712 139 95 101 112
145 713 138 94 101 113
145 713 139 94 102 114
144 714 139 95 103 115
145 714 139 92 102 115
145 715 139 91 102 115
147 712 137 82 93 107
147 713 137 75 88 104
146 712 138 92 100 113
146 713 138 86 97 111
146 713 139 86 98 113
147 713 138 74 89 105
147 714 137 63 81 98
146 714 138 78 92 108
146 714 139 81 95 110
146 715 139 77 92 107
147 714 138 65 82 99
147 715 138 63 80 97
147 715 139 67 84 100
144 714 140 99 106 117
144 715 140 101 108 119
145 716 139 88 100 114
146 716 139 76 91 107
146 717 139 58 79 99
147 716 139 55 75 93
147 717 139 38 66 90
147 718 139 24 60 88
147 719 139 33 62 91
144 716 140 101 108 120
144 717 140 93 104 117
145 716 140 91 102 116
145 717 140 81 96 112
144 718 140 71 91 110
144 718 141 80 96 113
144 719 140 49 79 102
144 719 141 60 85 107
145 718 140 53 79 101
145 719 140 38 71 97
146 717 140 61 82 102
146 718 140 35 69 94
146 719 140 31 65 93
147 719 140 31 62 92
148 712 136 69 84 99
148 712 137 75 88 102
148 713 137 65 81 98
149 712 136 61 76 93
149 713 136 57 74 92
149 713 137 55 74 91
148 714 137 54 74 91
149 714 136 55 70 89
149 714 137 54 71 89
149 715 137 59 74 92
148 714 138 56 74 91
148 715 138 55 72 90
149 715 138 56 72 90
150 712 136 58 72 91
150 713 136 61 74 94
150 714 136 65 78 96
150 714 137 63 77 94
150 715 136 66 76 99
150 715 137 64 77 97
151 714 136 71 83 102
151 715 136 70 83 104
149 716 137 55 72 93
148 716 138 42 65 86
148 716 139 37 62 85
148 717 138 33 59 85
148 717 139 28 58 84
149 716 138 48 67 89
149 717 138 45 66 90
148 718 138 35 59 87
148 718 139 31 59 87
148 719 139 37 61 90
149 718 138 47 66 92
149 719 138 41 62 90
150 716 137 60 74 98
150 717 137 52 70 95
151 716 136 64 81 104
151 717 136 55 72 100
151 717 137 49 67 96
150 718 137 46 65 93
150 719 137 49 66 94
151 718 136 52 67 98
151 718 137 48 65 95
151 719 136 55 69 98
151 719 137 56 69 97
150 718 138 50 67 94
150 719 138 44 63 91
152 704 131 86 94 107
153 704 130 86 95 109
153 704 131 87 96 109
153 705 131 94 100 112
153 706 131 95 101 112
155 704 129 74 89 107
154 704 130 84 95 110
154 705 130 90 99 112
154 705 131 96 103 114
155 704 130 76 90 109
155 705 130 79 92 111
154 706 131 98 106 117
154 707 131 97 104 115
155 706 130 88 98 113
155 707 130 89 97 110
155 707 131 95 103 114
152 704 132 85 93 106
152 705 132 91 97 108
152 705 133 90 96 106
153 705 132 96 101 111
152 706 133 94 99 108
153 706 132 95 101 111
153 707 132 91 98 108
153 707 133 90 95 106
152 707 134 87 95 105
152 707 135 81 91 106
153 707 134 82 92 106
153 707 135 69 84 104
154 705 135 63 79 107
155 704 134 61 79 105
155 704 135 56 76 104
155 705 134 66 81 106
155 705 135 58 77 107
154 706 132 96 102 112
154 707 132 95 101 112
154 706 135 68 84 106
154 707 134 77 90 106
154 707 135 71 87 106
155 706 134 72 86 106
155 707 134 75 88 106
155 708 131 89 96 107
153 708 133 87 94 105
152 708 135 87 95 108
152 709 135 86 94 106
153 708 135 79 90 106
152 710 135 80 89 103
152 711 134 77 86 101
152 711 135 79 85 100
153 711 135 77 88 105
154 708 132 90 97 107
154 708 133 80 91 105
155 708 132 85 94 106
155 708 133 77 89 104
155 709 132 82 92 105
155 709 133 83 93 106
154 708 134 78 90 105
155 708 134 77 89 105
156 704 129 74 89 107
157 704 129 94 102 114
156 704 130 72 87 106
156 705 130 70 85 106
157 704 130 93 100 113
157 704 131 86 96 110
157 705 130 69 83 103
157 705 131 70 84 104
156 706 130 74 87 106
156 707 130 82 92 106
156 707 131 80 91 103
157 706 130 69 82 101
157 706 131 71 84 103
157 707 130 74 86 101
157 707 131 76 88 103
156 704 133 75 89 107
156 705 133 74 86 107
157 704 132 80 91 107
157 704 133 77 89 106
157 705 132 74 86 106
157 705 133 73 85 106
156 704 134 66 83 106
156 705 134 69 83 108
156 706 133 73 86 106
156 707 132 76 89 105
156 707 133 73 87 104
157 706 132 74 86 106
157 706 133 74 86 105
157 707 132 74 87 104
157 707 133 72 86 104
156 706 134 73 87 106
156 707 134 75 88 106
156 708 131 84 93 105
156 708 132 81 91 105
156 708 133 76 89 104
153 707 136 64 80 104
153 707 137 59 78 105
154 704 136 49 74 104
154 704 137 47 73 107
154 705 136 59 77 106
154 705 137 54 74 107
154 704 138 56 77 112
154 704 139 75 91 120
154 705 138 53 73 112
154 705 139 56 73 116
154 706 136 61 78 106
154 706 137 56 76 106
154 707 137 58 78 106
154 706 138 55 76 112
154 706 139 56 76 117
154 707 138 60 81 112
154 707 139 60 80 118
153 704 142 123 129 140
153 704 143 121 128 140
153 705 142 111 119 136
153 705 143 112 121 135
153 706 142 82 97 123
153 706 143 104 115 133
153 707 142 72 90 120
153 707 143 90 104 125
154 704 140 100 110 129
154 704 141 117 123 135
154 705 140 58 72 115
154 705 141 82 93 121
154 704 142 122 128 139
154 705 142 113 121 135
154 706 140 53 72 120
154 706 141 57 75 118
154 707 140 50 74 119
154 707 141 49 73 117
152 708 136 81 91 106
152 709 136 79 90 105
153 708 136 65 81 104
153 708 137 60 79 105
153 709 136 64 80 102
153 709 137 56 75 102
153 708 138 59 80 111
153 708 139 64 84 118
153 709 138 46 71 103
153 709 139 49 72 110
153 710 136 65 81 103
153 710 137 52 73 100
153 711 136 66 81 105
153 711 137 54 73 102
153 710 138 42 66 101
153 710 139 41 65 106
153 711 138 42 66 100
153 711 139 38 63 104
154 708 139 63 83 120
153 708 140 57 79 119
153 708 141 42 70 114
153 709 140 52 73 115
153 709 141 54 75 117
153 708 142 66 87 119
153 708 143 99 112 132
153 709 142 73 92 120
153 709 143 95 109 129
153 710 140 45 67 109
153 710 141 59 77 115
153 711 140 39 63 106
153 711 141 48 68 111
153 710 142 75 92 121
153 710 143 88 103 126
153 711 142 60 78 116
153 711 143 74 91 122
154 708 140 50 75 117
154 708 141 41 69 115
152 712 135 74 83 100
152 713 135 75 85 102
153 712 135 75 87 105
153 713 135 75 87 105
152 714 135 71 83 103
153 714 135 74 88 108
153 712 136 63 79 105
153 712 137 51 71 102
153 713 136 56 74 103
153 713 137 47 67 100
153 712 138 47 68 102
153 712 139 45 68 105
153 713 138 45 66 101
153 713 139 50 71 105
152 714 136 67 80 104
152 715 136 63 79 106
153 714 136 54 72 104
153 714 137 42 63 100
153 715 136 53 71 105
153 715 137 51 69 103
153 714 138 43 64 100
153 714 139 47 68 102
153 715 138 53 71 103
153 715 139 50 71 102
154 714 137 40 62 99
154 715 137 47 66 101
153 712 140 44 67 108
153 712 141 41 63 109
153 713 140 50 72 108
153 713 141 51 71 111
153 712 142 48 69 113
153 712 143 52 73 115
153 713 142 47 67 112
153 713 143 51 73 115
153 714 140 49 72 105
153 714 141 54 73 110
153 715 140 48 71 104
153 715 141 55 74 108
153 714 142 63 80 117
153 714 143 70 89 122
153 715 142 75 90 118
153 715 143 85 101 124
152 716 136 58 77 105
152 717 136 51 69 101
153 716 136 50 71 103
153 717 136 44 65 99
153 716 138 70 82 107
153 716 139 67 83 106
153 717 138 78 88 107
153 717 139 86 95 108
152 718 136 50 66 99
152 719 136 63 76 103
153 718 136 55 70 100
153 718 137 73 83 104
153 719 136 70 81 105
153 719 137 75 87 106
153 718 138 76 86 103
153 718 139 85 93 105
153 719 138 74 86 103
153 719 139 76 87 101
154 716 136 49 69 101
154 716 137 61 76 104
154 717 136 55 70 101
154 717 137 66 77 103
154 716 138 68 81 106
154 717 138 76 85 105
154 718 136 68 78 103
154 718 137 72 82 104
153 716 140 58 78 103
153 716 141 63 80 107
153 717 140 88 96 109
153 717 141 85 95 109
153 716 142 89 100 119
153 716 143 105 115 131
153 717 142 97 105 117
153 717 143 114 121 132
152 719 141 92 99 110
153 718 140 95 101 110
153 718 141 102 107 115
153 719 140 82 91 102
153 719 141 89 96 106
152 718 142 105 111 121
152 718 143 101 109 121
152 719 142 101 107 119
152 719 143 106 114 127
153 718 142 102 108 118
153 718 143 111 117 127
