ply
format ascii 1.0
comment Version 2, Copyright 2017, 8i Labs, Inc.
comment frame_to_world_scale 0.179523
comment frame_to_world_translation -45.2095 7.18301 -54.3561
comment width 1023
element vertex 294
property float x
property float y
property float z
property uchar red
property uchar green
property uchar blue
end_header
151 720 176 108 123 141
151 720 177 115 128 144
151 721 176 112 127 146
151 721 177 121 134 151
151 720 178 126 136 151
151 720 179 125 137 153
151 721 178 129 139 154
151 721 179 131 140 155
150 722 176 121 136 154
150 722 177 124 139 157
150 723 176 122 136 153
150 723 177 125 139 156
151 722 176 122 137 154
151 722 177 125 139 157
150 722 178 126 139 156
150 722 179 110 126 145
150 723 178 125 138 154
150 723 179 119 132 150
151 722 178 128 141 158
151 722 179 117 132 149
151 720 180 122 135 153
151 720 181 122 136 153
151 721 180 124 135 151
151 721 181 121 134 149
151 720 182 118 135 154
151 720 183 121 136 155
151 721 182 123 134 150
151 721 183 124 136 152
150 722 180 108 125 144
150 723 180 131 144 161
150 723 181 133 147 166
151 722 180 112 127 145
151 722 181 123 136 154
151 723 181 134 147 165
151 722 182 136 150 168
151 722 183 121 137 157
151 723 182 148 164 186
151 723 183 140 158 179
150 724 176 121 135 152
150 724 177 123 136 152
150 725 176 124 139 157
150 725 177 117 133 152
150 724 178 122 134 151
150 724 179 127 138 153
150 725 178 121 136 154
150 725 179 126 139 155
150 726 176 126 142 161
150 726 177 132 146 165
150 727 176 124 138 156
150 727 177 126 141 159
150 726 178 143 156 175
150 726 179 131 145 163
150 727 178 129 143 162
150 727 179 127 143 161
150 724 180 133 144 160
150 724 181 132 145 162
150 725 180 133 144 160
150 725 181 134 145 160
150 724 182 132 147 166
150 725 182 127 140 158
151 724 182 139 156 176
151 724 183 137 153 173
151 725 182 124 140 160
151 725 183 125 140 158
150 726 180 129 143 161
150 726 181 125 140 158
150 727 180 130 146 164
150 727 181 135 150 169
150 726 182 126 141 160
150 726 183 132 145 161
150 727 182 144 157 174
150 727 183 134 146 162
151 726 183 132 143 160
151 727 183 134 145 161
151 720 184 125 139 157
151 720 185 120 136 154
151 721 184 124 137 154
151 721 185 123 137 155
151 721 186 120 137 156
151 722 184 109 129 150
151 722 185 117 134 154
151 723 184 120 140 162
151 723 185 125 142 162
151 722 186 125 140 159
151 723 186 128 143 161
151 723 187 129 145 164
151 724 184 133 149 168
151 724 185 129 145 165
151 725 184 133 145 163
151 725 185 133 147 164
151 724 186 127 143 163
151 724 187 119 140 163
151 725 186 125 142 163
151 725 187 113 137 161
151 726 184 136 147 162
151 726 185 134 147 164
151 727 184 130 143 161
151 727 185 119 138 159
151 726 186 126 142 162
151 726 187 123 142 164
151 727 186 114 136 160
151 727 187 123 143 165
151 726 188 125 144 166
151 727 188 126 144 165
149 728 176 124 138 155
149 728 177 125 139 156
149 729 176 127 141 158
149 729 177 125 139 157
149 729 178 120 137 158
149 730 176 129 143 161
149 730 177 126 142 161
149 731 176 128 143 161
149 731 177 128 143 163
149 730 178 125 141 161
149 731 178 135 151 170
149 731 179 143 156 175
150 728 176 120 135 154
150 728 177 126 140 157
150 728 178 131 143 160
150 728 179 138 150 167
150 729 178 125 140 158
150 729 179 129 143 162
150 730 179 138 153 171
150 731 179 145 158 177
150 728 180 141 154 172
150 728 181 146 158 176
150 729 180 136 148 165
150 729 181 135 148 166
150 728 182 150 161 176
150 728 183 135 146 163
150 729 182 132 146 165
150 729 183 130 144 164
151 728 183 128 142 161
151 729 183 128 145 165
150 730 180 142 154 172
150 730 181 135 148 166
150 731 180 142 156 174
150 731 181 131 147 167
150 730 182 115 135 157
150 730 183 113 134 157
150 731 182 127 145 167
150 731 183 131 150 172
151 730 183 118 138 160
151 731 183 130 149 171
149 732 176 114 132 153
149 732 177 121 139 159
149 733 176 131 148 167
149 733 177 126 143 164
149 732 178 129 145 165
149 732 179 132 147 166
149 733 178 120 138 159
149 733 179 122 138 158
149 734 176 130 144 162
149 734 177 122 139 160
149 735 176 126 139 156
149 735 177 125 140 158
149 734 178 113 133 155
149 734 179 114 134 155
149 735 178 120 138 159
149 735 179 121 139 160
150 732 179 134 148 167
150 733 179 125 141 160
150 732 180 135 148 166
150 732 181 133 147 166
150 733 180 130 143 161
150 733 181 134 146 162
150 732 182 137 152 171
150 732 183 134 151 171
150 733 182 133 146 163
150 733 183 121 138 158
151 732 183 135 153 175
150 734 180 119 135 154
150 734 181 129 141 158
150 735 180 120 137 156
150 735 181 127 141 158
150 734 182 124 139 157
150 734 183 107 128 150
150 735 182 119 137 157
150 735 183 128 147 168
151 728 184 122 140 161
151 728 185 115 138 162
151 729 184 124 143 164
151 729 185 124 144 166
151 728 186 119 143 168
151 728 187 128 146 167
151 729 186 130 148 170
151 729 187 129 147 167
151 730 184 129 146 166
151 730 185 128 146 166
151 731 184 129 147 168
151 731 185 124 144 166
151 730 186 127 144 165
151 730 187 125 144 165
151 731 186 117 139 161
151 731 187 117 138 162
151 728 188 127 145 166
151 729 188 122 143 166
151 730 188 122 143 166
151 731 188 124 144 167
150 733 184 113 133 154
151 732 184 127 146 168
151 732 185 112 136 160
151 733 184 109 131 154
151 733 185 108 132 156
151 732 186 105 131 157
151 732 187 114 138 162
151 733 186 115 137 162
151 733 187 124 144 166
150 734 184 108 129 151
150 735 184 136 153 173
150 735 185 128 145 166
151 734 185 114 134 155
151 735 185 121 141 162
151 734 186 118 137 158
151 734 187 125 141 160
151 735 186 109 133 157
151 735 187 112 133 155
151 732 188 124 144 166
151 733 188 128 145 165
151 734 188 127 142 161
151 734 189 125 142 162
151 735 188 123 139 158
152 720 184 124 140 160
152 720 185 119 135 153
152 720 186 107 127 149
152 720 187 104 127 150
152 721 186 115 135 158
152 721 187 120 139 160
152 722 186 126 141 160
152 722 187 132 145 162
152 723 187 132 146 164
152 720 188 118 136 156
152 720 189 130 141 157
152 721 188 127 142 161
152 721 189 132 144 160
152 720 190 135 144 158
152 721 190 133 144 160
152 721 191 125 140 157
153 720 190 136 144 158
153 720 191 134 145 160
153 721 191 116 134 154
152 722 188 136 147 163
152 722 189 135 147 163
152 723 188 130 145 164
152 723 189 134 147 165
152 722 190 127 142 161
152 722 191 116 136 159
152 723 190 133 147 165
152 723 191 133 148 167
153 722 191 114 137 160
152 724 187 119 140 163
152 724 188 114 138 163
152 724 189 123 143 166
152 725 188 116 140 166
152 725 189 130 149 171
152 724 190 135 149 167
152 724 191 139 152 168
152 725 190 141 153 171
152 725 191 141 154 172
152 726 188 128 146 168
152 726 189 133 149 169
152 727 188 127 144 165
152 727 189 131 147 167
152 726 190 141 154 172
152 726 191 135 151 171
152 727 190 139 153 172
152 727 191 136 153 173
152 728 188 126 144 165
152 728 189 126 144 165
152 729 188 118 141 166
152 729 189 109 136 162
152 728 190 128 146 167
152 728 191 136 151 171
152 729 190 114 139 164
152 729 191 133 150 170
152 730 188 119 141 165
152 730 189 114 139 164
152 731 189 124 144 166
152 730 190 122 144 168
152 730 191 134 150 171
152 731 190 127 145 166
152 731 191 137 152 170
152 732 189 125 143 163
152 733 189 126 143 163
152 732 190 128 144 164
152 732 191 135 150 170
152 733 190 119 140 162
152 733 191 121 144 168
152 734 189 121 140 162
152 735 189 126 142 161
152 734 190 116 140 165
152 734 191 121 146 172
152 735 190 128 146 167
152 735 191 125 145 167
