ply
format ascii 1.0
comment Version 2, Copyright 2017, 8i Labs, Inc.
comment frame_to_world_scale 0.179523
comment frame_to_world_translation -45.2095 7.18301 -54.3561
comment width 1023
element vertex 52
property float x
property float y
property float z
property uchar red
property uchar green
property uchar blue
end_header
154 752 192 88 50 54
154 752 193 132 78 78
154 753 192 80 38 51
155 752 193 160 112 108
155 753 192 105 56 60
155 753 193 140 89 87
154 754 192 88 49 76
155 754 192 103 45 67
155 755 192 122 75 103
155 756 192 110 47 86
156 752 193 192 135 131
156 753 193 168 104 99
156 752 194 178 81 86
156 753 194 177 85 81
157 752 194 173 53 60
157 752 195 182 74 80
157 753 194 169 38 52
156 754 193 134 47 57
156 755 192 107 44 73
156 755 193 117 44 62
157 754 193 146 46 63
157 755 193 144 74 83
157 754 194 160 37 56
158 752 195 200 122 116
158 753 195 174 56 65
159 752 195 200 126 119
159 753 195 176 73 71
158 755 193 166 88 90
159 755 193 177 89 90
158 754 194 163 36 54
158 755 194 161 56 67
159 754 194 166 50 50
159 754 195 169 54 54
159 755 194 165 51 57
159 752 196 189 104 101
156 756 192 104 31 62
156 757 192 112 31 62
157 756 192 120 65 77
157 756 193 152 104 108
157 757 192 116 50 60
156 758 192 120 36 64
157 758 192 113 26 54
158 756 193 187 136 135
158 757 192 143 79 83
158 757 193 171 118 117
159 756 193 174 91 93
159 757 193 146 69 68
158 758 192 112 23 51
158 759 192 116 16 59
159 758 192 124 47 66
159 758 193 148 85 83
159 759 192 124 30 64
