ply
format ascii 1.0
comment Version 2, Copyright 2017, 8i Labs, Inc.
comment frame_to_world_scale 0.179523
comment frame_to_world_translation -45.2095 7.18301 -54.3561
comment width 1023
element vertex 36
property float x
property float y
property float z
property uchar red
property uchar green
property uchar blue
end_header
144 814 159 97 104 128
144 815 159 95 103 127
145 815 159 125 136 154
146 815 159 105 116 134
147 815 159 119 121 135
148 815 159 116 109 112
149 815 159 84 70 73
150 815 159 83 56 61
151 815 159 112 70 58
152 815 159 158 123 91
153 814 159 163 133 101
153 815 159 169 138 109
155 813 159 119 110 112
154 814 159 152 131 118
154 815 159 169 146 134
155 814 159 130 121 120
155 815 158 124 113 109
155 815 159 132 122 119
156 813 159 117 123 138
157 812 159 107 117 132
157 813 159 103 114 133
156 814 159 132 132 144
156 815 158 94 93 104
156 815 159 102 100 106
157 814 159 107 108 124
157 815 158 59 53 72
158 812 159 104 110 121
158 813 159 119 120 125
159 812 159 115 115 119
159 813 159 161 152 148
158 814 158 128 116 111
158 814 159 133 127 126
158 815 158 89 70 67
159 814 158 174 154 138
159 814 159 179 163 152
159 815 158 151 128 112
