ply
format ascii 1.0
comment Version 2, Copyright 2017, 8i Labs, Inc.
comment frame_to_world_scale 0.179523
comment frame_to_world_translation -45.2095 7.18301 -54.3561
comment width 1023
element vertex 332
property float x
property float y
property float z
property uchar red
property uchar green
property uchar blue
end_header
144 835 128 81 77 108
144 835 129 59 72 87
145 835 128 60 75 92
145 835 129 78 87 97
144 835 130 61 72 84
146 835 128 66 81 92
147 835 128 79 92 103
145 836 129 96 99 102
144 836 130 84 87 90
144 836 131 107 105 105
145 836 130 126 119 116
145 836 131 165 153 148
146 836 128 97 105 114
146 836 129 142 137 136
147 836 128 134 133 135
147 836 129 176 162 154
147 837 129 165 144 126
146 836 130 156 141 134
146 836 131 165 149 143
146 837 131 163 145 136
147 836 130 155 138 126
147 837 130 151 125 110
147 837 131 141 111 103
144 836 132 144 135 130
144 836 133 158 150 146
144 837 133 170 156 148
145 836 132 169 156 150
145 837 132 160 143 135
145 837 133 177 158 145
144 836 134 181 170 165
144 836 135 163 152 146
144 837 134 198 179 167
144 837 135 174 153 136
145 837 134 201 176 156
145 837 135 193 159 129
146 837 132 151 131 120
146 837 133 189 166 148
147 837 132 153 129 116
147 837 133 196 172 155
146 837 134 204 173 145
146 837 135 209 169 130
147 838 132 192 169 152
147 838 133 205 175 149
146 838 134 207 172 138
146 838 135 220 177 131
147 838 134 216 174 129
147 838 135 236 189 140
148 836 128 175 161 152
148 836 129 187 166 151
148 837 129 178 150 130
149 836 128 191 165 142
149 837 128 199 167 140
149 837 129 181 141 119
148 837 130 153 114 105
148 837 131 139 110 102
149 837 130 160 120 114
149 837 131 155 128 123
149 838 131 165 142 131
150 836 128 203 169 135
150 837 128 211 171 131
150 837 129 193 148 124
151 837 128 231 181 135
151 837 129 201 153 123
150 837 130 177 134 126
151 838 129 194 150 119
150 838 130 184 152 142
150 838 131 184 163 149
151 838 130 190 163 148
151 838 131 181 159 142
148 837 132 156 134 122
148 838 132 189 167 151
148 838 133 213 179 148
149 838 132 197 174 155
149 838 133 216 179 143
148 838 134 229 185 134
148 838 135 240 194 143
148 839 135 228 181 130
149 838 134 227 182 131
149 839 134 236 192 144
149 839 135 222 175 125
150 838 132 192 166 145
150 838 133 213 176 144
150 839 133 215 177 141
151 838 132 174 148 127
151 839 132 166 138 114
151 839 133 204 170 139
150 839 134 231 191 148
150 839 135 202 157 113
151 839 134 225 189 154
151 839 135 176 132 94
144 835 143 181 144 115
144 836 136 180 167 162
144 837 136 187 166 150
144 837 137 171 150 136
145 837 136 194 156 120
145 837 137 190 152 121
144 836 139 158 143 136
144 837 138 173 158 147
144 837 139 159 143 136
145 837 138 174 149 128
145 837 139 142 120 114
146 837 139 152 130 126
146 838 136 220 173 122
146 838 137 200 149 102
147 838 136 234 185 135
147 838 137 216 160 116
146 838 138 185 148 119
146 838 139 169 145 132
147 838 138 193 148 114
147 838 139 178 149 130
144 836 140 148 125 123
144 836 141 164 142 132
144 837 140 134 98 101
145 837 140 129 86 92
145 837 141 174 147 130
144 836 142 176 150 130
144 836 143 184 149 117
145 836 142 186 153 123
145 836 143 198 160 121
145 837 142 189 157 129
146 837 140 151 124 114
146 837 141 184 153 131
147 837 141 183 152 127
146 836 143 203 164 122
146 837 142 191 153 117
147 836 143 194 157 122
147 837 142 187 148 113
147 837 143 189 148 111
146 838 140 153 130 120
147 838 140 168 148 133
147 838 141 179 152 130
148 838 136 226 172 123
148 838 137 216 159 118
148 839 136 205 149 99
148 839 137 204 146 107
149 839 136 176 112 63
149 839 137 182 126 86
148 838 138 189 147 115
148 838 139 178 152 134
148 839 138 191 147 114
149 838 139 161 141 130
149 839 138 178 138 111
149 839 139 169 143 128
150 839 136 154 91 49
150 839 137 181 136 108
151 839 136 161 115 91
151 839 137 201 170 152
150 838 139 161 146 140
150 839 138 175 139 116
150 839 139 169 149 138
151 839 138 188 160 141
151 839 139 168 150 137
148 837 141 174 144 121
148 836 143 162 130 104
148 837 142 171 134 107
148 837 143 166 130 100
149 836 143 145 120 106
149 837 142 159 128 112
149 837 143 168 140 124
148 838 140 170 152 139
148 838 141 173 149 131
149 838 140 144 135 133
149 838 141 154 131 123
150 836 143 153 136 129
150 837 142 165 145 134
150 837 143 179 159 149
151 836 143 196 180 171
151 837 142 178 156 141
151 837 143 204 184 171
150 838 140 147 142 143
150 838 141 143 130 127
151 838 140 162 151 144
151 838 141 131 115 103
152 837 128 238 185 131
152 838 128 221 170 124
152 838 129 195 157 125
153 838 128 217 171 127
153 838 129 203 170 143
153 839 129 208 181 164
152 838 130 190 168 151
152 838 131 186 165 149
152 839 130 197 177 164
152 839 131 176 155 139
153 839 130 201 181 170
153 839 131 172 151 136
154 838 128 215 176 143
154 839 129 218 192 177
155 838 128 218 187 162
155 839 128 222 195 177
155 839 129 226 204 192
154 839 130 208 187 177
154 839 131 174 154 140
155 839 130 216 197 187
155 839 131 187 168 154
152 839 132 141 116 92
152 839 133 187 161 141
153 839 132 128 107 86
153 839 133 175 154 139
152 839 134 216 188 166
152 839 135 167 134 108
153 839 134 217 194 178
153 839 135 174 147 128
154 839 132 148 131 118
155 839 132 170 153 142
156 839 128 218 195 179
156 839 129 219 199 188
157 839 128 215 192 174
157 839 129 201 180 167
156 839 130 207 187 175
156 839 131 200 181 168
158 839 128 217 191 169
158 839 129 194 172 156
159 839 128 229 201 175
152 839 136 174 147 133
152 839 137 203 179 167
153 839 136 177 156 145
153 839 137 174 158 153
152 839 138 175 155 146
152 839 139 134 115 100
153 839 138 120 109 115
153 839 139 68 60 77
154 839 136 196 173 158
154 839 137 193 180 175
155 839 136 217 194 179
155 839 137 227 212 205
154 839 138 142 140 147
154 839 139 71 72 98
155 839 138 186 180 181
155 839 139 91 95 109
152 836 143 223 206 197
152 837 142 203 178 160
152 837 143 235 213 199
153 836 143 218 201 191
153 837 142 227 201 183
153 837 143 238 217 203
152 838 140 108 92 83
152 838 141 107 77 62
153 838 140 58 38 44
153 838 141 129 97 78
154 836 143 211 196 189
154 837 142 239 215 198
154 837 143 235 215 203
155 836 143 197 184 177
155 837 142 231 209 195
155 837 143 224 207 197
154 838 140 61 35 42
154 838 141 168 136 111
155 838 140 56 41 50
155 838 141 144 110 89
156 839 137 223 203 190
157 839 137 207 183 165
156 839 138 201 189 183
156 839 139 124 122 124
157 839 138 198 183 175
157 839 139 145 140 141
158 839 137 195 172 155
159 839 137 189 164 143
158 839 138 194 179 170
158 839 139 163 155 154
159 839 138 188 171 159
159 839 139 164 152 146
157 837 141 192 166 143
156 836 143 181 166 158
156 837 142 213 191 177
156 837 143 200 183 172
157 836 143 188 170 157
157 837 142 198 174 155
157 837 143 190 169 154
156 838 140 69 52 51
156 838 141 145 109 87
157 838 140 86 70 68
157 838 141 149 118 91
158 837 141 197 172 152
159 837 141 196 171 150
158 836 143 185 163 147
158 837 142 197 172 152
158 837 143 186 162 144
159 836 143 201 173 151
159 837 142 197 170 147
159 837 143 195 167 143
158 838 140 99 92 89
158 838 141 152 130 112
159 838 140 117 102 91
159 838 141 162 139 120
153 840 133 197 176 161
153 840 134 209 184 166
153 840 135 188 161 141
154 840 132 145 128 116
154 840 133 184 162 147
155 840 132 172 156 144
155 840 133 200 178 162
154 840 134 208 181 162
154 840 135 189 164 145
155 840 134 221 195 174
155 840 135 205 182 164
156 840 131 198 179 165
157 840 130 197 175 162
157 840 131 203 183 168
158 840 128 208 183 162
158 840 129 190 166 151
159 840 128 220 192 167
159 840 129 193 169 150
158 840 130 189 167 150
158 840 131 201 180 163
159 840 130 191 167 148
159 840 131 215 191 172
156 840 132 195 176 162
156 840 133 213 191 172
157 840 132 210 189 173
157 840 133 211 189 170
156 840 134 219 197 180
156 840 135 223 201 185
157 840 134 219 198 182
157 840 135 223 204 191
158 840 132 218 193 174
158 840 133 220 195 173
159 840 132 224 196 172
159 840 133 211 189 170
158 840 134 205 184 169
158 840 135 209 190 176
159 840 134 181 164 152
159 840 135 184 166 152
154 840 136 185 161 144
155 840 136 202 183 172
156 840 136 219 197 181
156 840 137 220 198 182
157 840 136 221 197 178
157 840 137 221 194 173
158 840 136 202 179 162
158 840 137 201 176 157
159 840 136 181 157 138
159 840 137 180 152 128
