ply
format ascii 1.0
comment Version 2, Copyright 2017, 8i Labs, Inc.
comment frame_to_world_scale 0.179523
comment frame_to_world_translation -45.2095 7.18301 -54.3561
comment width 1023
element vertex 29
property float x
property float y
property float z
property uchar red
property uchar green
property uchar blue
end_header
320 347 101 121 108 116
320 347 102 121 104 112
320 347 103 119 97 106
320 350 99 115 127 141
320 351 99 125 130 140
320 348 100 112 109 125
320 348 101 116 111 124
320 349 100 108 119 135
320 349 101 110 118 134
320 348 102 114 108 122
320 348 103 110 102 116
320 349 102 110 118 133
320 349 103 108 117 134
320 350 100 114 127 142
320 350 101 117 128 143
320 351 100 128 135 146
320 351 101 133 140 151
320 350 102 118 129 143
320 350 103 115 129 145
320 351 102 133 140 152
320 351 103 132 141 154
320 348 104 109 103 113
320 349 104 105 117 133
320 349 105 101 120 138
320 350 104 108 126 144
320 350 105 107 126 145
320 351 104 128 139 154
320 351 105 123 136 152
320 351 106 126 137 151
