ply
format ascii 1.0
comment Version 2, Copyright 2017, 8i Labs, Inc.
comment frame_to_world_scale 0.179523
comment frame_to_world_translation -45.2095 7.18301 -54.3561
comment width 1023
element vertex 651
property float x
property float y
property float z
property uchar red
property uchar green
property uchar blue
end_header
321 647 194 130 169 206
321 647 195 126 169 208
322 647 192 125 167 205
322 647 193 127 166 203
323 646 193 119 164 204
323 647 192 117 163 203
323 647 193 123 165 203
322 646 195 144 178 213
322 647 194 139 173 208
322 647 195 139 175 211
323 646 194 135 172 207
323 646 195 144 178 212
323 647 194 131 168 204
320 647 196 127 167 204
320 647 197 125 163 199
321 646 197 123 167 207
321 647 196 122 167 208
321 647 197 119 164 204
320 646 198 130 165 200
320 646 199 130 167 201
320 647 198 123 160 196
320 647 199 124 162 197
321 646 198 131 171 209
321 646 199 139 176 213
321 647 198 124 166 204
323 645 196 147 179 213
323 645 197 148 180 213
322 645 198 148 180 213
322 645 199 143 178 212
323 644 199 145 178 212
323 645 198 149 180 212
323 645 199 148 179 212
322 646 196 140 175 211
322 646 197 137 174 210
322 647 196 131 171 208
323 646 196 146 178 212
323 646 197 148 179 213
322 646 198 140 177 213
326 643 195 136 174 210
327 643 194 140 177 213
327 643 195 138 175 211
325 643 197 125 169 209
324 643 199 151 179 211
325 643 198 133 171 208
325 643 199 148 179 213
326 643 196 134 175 213
326 643 197 132 173 212
327 642 197 144 179 213
327 643 196 139 176 212
327 643 197 139 176 212
326 642 199 143 178 213
326 643 198 134 173 210
326 643 199 139 175 211
327 642 198 143 178 213
327 642 199 145 179 215
327 643 198 141 177 213
325 645 192 136 173 209
325 645 193 136 174 211
324 645 194 136 174 211
324 645 195 139 175 211
325 644 194 138 175 212
325 644 195 136 175 212
325 645 194 137 175 211
324 646 192 123 166 206
324 646 193 122 166 205
325 646 192 136 173 208
324 646 194 132 171 207
326 644 192 128 171 210
326 644 193 136 175 212
326 645 192 132 173 211
327 644 192 137 175 211
327 644 193 141 177 212
326 644 194 140 176 212
326 644 195 137 175 212
327 644 194 140 176 212
324 644 196 131 171 209
324 644 197 130 168 205
324 645 196 140 176 211
324 645 197 142 175 210
325 644 196 129 172 211
325 644 197 124 168 207
324 644 198 146 177 210
324 644 199 148 177 209
326 644 196 134 175 213
320 643 203 148 177 208
321 642 203 141 176 211
321 643 202 125 163 199
321 643 203 145 175 207
323 641 203 153 187 221
322 643 201 115 163 205
323 642 201 145 179 215
323 643 200 140 175 210
323 643 201 126 170 209
322 642 203 144 180 216
322 643 202 130 170 208
322 643 203 138 175 212
323 642 202 146 181 216
323 642 203 150 184 219
323 643 202 136 176 213
321 641 205 151 185 219
320 640 206 154 190 226
320 640 207 142 181 219
320 641 206 153 187 222
321 640 206 137 177 215
321 641 206 153 186 220
320 642 204 152 185 219
320 642 205 154 187 221
320 643 204 146 178 212
321 642 204 149 183 218
321 642 205 154 186 220
321 643 204 144 177 211
322 640 205 134 175 214
322 641 204 149 183 219
322 641 205 142 180 216
323 640 205 128 173 214
323 641 204 146 183 220
322 640 206 137 177 215
322 642 204 150 185 220
320 645 201 143 179 215
321 644 201 133 171 207
321 645 200 138 177 214
321 645 201 138 176 212
320 644 202 162 186 215
320 644 203 152 179 208
320 645 202 156 186 218
321 644 202 149 176 207
321 644 203 159 183 212
320 646 200 133 169 205
320 646 201 135 173 209
321 646 200 140 177 213
322 644 200 125 169 209
322 644 201 121 165 205
322 645 200 136 174 211
323 644 200 132 171 208
322 644 202 130 165 203
324 641 202 156 187 220
324 641 203 155 187 222
325 640 203 156 187 221
325 641 202 156 188 221
325 641 203 157 188 221
324 642 201 153 184 217
324 643 200 149 179 212
324 643 201 146 179 213
325 642 200 150 182 216
325 642 201 152 184 217
325 643 200 151 182 215
324 642 202 155 186 219
325 642 202 155 186 219
326 641 201 145 181 217
327 641 201 134 174 212
326 640 203 154 185 218
326 641 202 153 186 220
326 641 203 156 187 220
327 640 203 147 180 213
327 641 202 144 179 214
327 641 203 150 182 216
326 642 200 147 181 216
326 642 201 142 179 215
327 642 200 145 181 217
327 642 201 135 175 214
324 640 204 143 182 220
324 640 205 130 174 215
324 641 204 148 185 222
325 640 204 149 184 219
325 640 205 134 174 212
326 640 204 144 178 213
327 640 204 131 169 205
320 649 192 113 160 201
320 649 193 106 158 200
321 648 192 121 164 203
321 648 193 123 165 204
321 649 192 118 163 202
321 649 193 114 161 201
320 648 194 112 164 206
320 648 195 117 165 207
320 649 194 111 164 207
321 648 194 123 166 205
321 648 195 118 166 207
322 648 192 125 167 205
322 648 193 126 166 204
320 648 196 123 164 201
328 643 192 160 184 213
328 643 193 154 181 211
329 643 192 147 175 205
329 643 193 149 177 207
328 643 194 140 175 210
328 643 195 133 171 208
329 642 195 134 171 206
329 643 194 144 176 209
329 643 195 135 171 206
330 643 192 141 171 203
330 643 193 142 172 204
331 643 192 140 170 201
331 643 193 139 170 201
330 642 195 135 170 203
330 643 194 141 173 205
330 643 195 140 172 204
331 643 194 136 169 201
331 643 195 135 169 202
328 642 196 140 175 211
328 642 197 145 178 213
328 643 196 140 176 212
328 643 197 146 180 215
329 642 196 136 171 205
329 642 197 137 171 203
328 642 198 146 179 213
328 642 199 145 179 214
329 642 198 141 172 204
329 642 199 140 173 205
330 642 196 136 169 202
330 642 197 135 167 198
331 642 196 132 166 199
331 642 197 130 163 196
331 643 196 133 168 202
330 642 198 132 163 195
330 642 199 135 166 198
331 642 198 129 160 192
331 642 199 130 160 190
328 644 192 151 179 210
328 644 193 144 175 208
332 643 192 132 164 197
332 643 193 128 163 196
333 643 192 128 160 192
333 643 193 126 158 190
332 643 194 134 167 200
332 643 195 130 165 198
333 643 194 152 179 208
333 643 195 138 169 201
334 643 192 126 158 189
334 643 193 126 156 188
335 643 192 118 150 181
335 643 193 116 148 178
334 643 194 142 168 197
334 643 195 136 165 196
335 643 194 113 145 176
335 643 195 122 151 181
332 642 197 126 160 194
332 643 196 129 164 198
333 642 197 116 153 186
333 643 196 128 162 195
333 643 197 126 162 195
332 642 198 122 157 190
332 642 199 119 154 186
333 642 198 123 157 191
333 642 199 119 152 185
333 643 198 125 160 193
334 643 196 127 159 190
334 643 197 121 154 187
335 643 196 120 152 182
335 643 197 115 148 179
334 642 199 122 155 187
334 643 198 123 156 189
334 643 199 118 152 184
335 643 198 116 149 181
335 643 199 116 149 181
328 641 200 138 174 209
328 641 201 131 171 208
329 641 200 135 171 205
329 641 201 126 164 199
328 640 203 134 170 206
328 641 202 129 168 204
328 641 203 134 171 207
329 640 203 119 156 197
329 641 202 120 159 196
329 641 203 120 158 197
328 642 200 141 178 214
329 642 200 137 171 205
330 641 201 128 164 198
331 641 201 129 162 195
330 641 202 123 160 196
330 641 203 118 154 195
331 641 202 125 159 194
331 641 203 124 158 199
330 642 200 133 166 198
331 642 200 132 163 193
331 642 201 128 161 193
328 640 204 117 156 199
328 640 205 106 145 198
329 640 204 115 151 197
329 640 205 107 142 198
330 640 204 115 149 197
330 640 205 112 143 199
331 640 204 120 152 200
331 640 205 120 150 203
331 641 204 124 155 201
332 641 202 127 157 191
332 641 203 134 160 199
333 641 203 147 167 206
332 642 200 125 156 188
332 642 201 125 155 188
333 642 200 124 154 187
333 642 201 125 151 184
332 642 202 126 154 188
333 642 202 133 155 189
333 642 203 146 164 203
334 641 203 141 161 206
334 642 200 124 153 185
334 642 201 125 151 183
334 643 200 120 152 183
335 643 200 117 148 179
335 643 201 122 147 179
334 642 202 133 154 191
334 642 203 139 158 203
335 642 202 134 154 193
335 642 203 138 157 205
335 643 202 129 150 184
332 640 204 120 151 200
332 640 205 119 151 202
332 641 204 132 159 205
333 640 205 125 157 204
333 641 204 136 161 206
333 641 205 124 155 203
334 640 205 124 157 202
334 641 204 129 154 205
334 641 205 121 152 202
335 640 205 127 156 200
335 641 204 130 156 207
335 641 205 128 159 206
336 643 192 105 139 171
336 643 193 104 137 167
337 643 192 102 136 169
337 643 193 108 139 171
336 643 194 108 140 169
336 643 195 120 150 179
337 643 194 116 146 176
337 643 195 124 152 181
338 643 192 97 133 165
338 643 193 99 134 166
336 643 196 119 149 179
336 643 197 117 148 178
337 643 196 121 151 180
336 643 198 116 148 178
336 643 199 120 149 180
337 644 195 107 141 172
338 644 192 99 135 167
338 644 193 101 135 167
339 644 192 104 137 169
339 644 193 103 137 168
338 644 194 102 136 167
338 644 195 106 139 170
339 644 194 106 140 170
339 644 195 106 138 168
339 645 195 104 139 170
337 644 196 110 142 172
337 644 197 114 146 176
337 644 198 118 148 177
337 644 199 125 147 176
338 644 196 108 140 170
338 644 197 109 141 171
339 644 196 109 140 170
339 645 196 102 136 166
339 645 197 106 139 169
338 644 198 111 143 172
338 644 199 119 143 172
339 644 199 118 144 173
339 645 198 112 142 172
339 645 199 115 143 172
340 644 192 104 138 170
340 644 193 101 137 169
340 645 192 117 149 181
340 645 193 107 141 173
341 645 192 117 150 182
341 645 193 116 149 180
340 645 194 104 139 170
340 645 195 103 137 168
341 646 192 121 153 184
341 646 193 119 151 183
341 646 194 117 149 181
341 646 195 115 147 178
342 646 192 116 150 182
342 647 192 117 151 183
342 647 193 118 152 184
343 647 192 117 153 186
343 647 193 119 154 187
342 647 194 123 155 186
342 647 195 125 155 185
343 647 194 120 154 186
343 647 195 117 151 182
340 645 196 104 138 169
340 645 197 103 136 167
340 645 198 108 139 169
340 645 199 113 142 171
341 645 199 110 139 169
340 646 196 100 134 165
340 646 197 101 135 167
341 646 196 112 144 174
341 646 197 105 138 169
341 646 198 100 134 165
341 646 199 102 134 165
342 646 197 114 145 175
342 647 196 122 152 183
342 647 197 118 148 178
343 647 196 113 146 178
343 647 197 111 143 175
342 646 198 111 142 173
342 646 199 114 143 174
343 646 198 117 145 177
343 646 199 133 154 187
343 647 198 114 143 176
336 643 200 121 147 177
336 643 201 127 149 180
337 643 201 133 150 181
336 642 202 143 160 203
336 642 203 135 155 204
336 643 202 141 157 194
337 642 203 132 154 203
337 643 202 144 158 197
337 643 203 138 156 202
338 642 203 128 150 201
338 643 202 147 160 202
338 643 203 133 151 201
339 642 203 122 148 197
339 643 202 147 160 202
339 643 203 132 152 200
336 640 205 112 140 185
336 641 204 127 157 203
336 641 205 124 155 197
337 640 205 89 117 168
337 641 204 124 153 199
337 641 205 124 153 193
336 642 204 125 152 203
337 642 204 129 154 202
338 640 205 73 101 158
338 641 204 107 136 180
338 641 205 104 133 178
339 640 205 56 82 150
339 641 204 94 121 171
339 641 205 77 108 162
338 642 204 125 152 197
339 642 204 119 147 191
337 644 200 133 153 181
337 644 201 136 153 184
338 644 200 124 145 174
338 644 201 129 148 180
339 644 200 124 148 177
339 644 201 129 149 182
339 645 200 117 142 173
338 644 202 142 156 191
339 644 202 147 160 197
340 643 203 132 153 196
341 642 203 115 141 181
341 643 203 132 154 191
342 642 203 73 99 157
342 643 203 118 140 180
343 642 203 57 81 149
343 643 202 103 123 172
343 643 203 90 113 165
340 640 205 57 79 149
340 641 204 84 111 164
340 641 205 58 86 150
341 640 205 70 90 153
341 641 204 58 83 149
340 642 204 109 137 181
341 642 204 84 114 165
342 640 204 73 90 152
342 640 205 87 106 159
342 641 204 57 75 145
343 640 204 73 93 150
343 640 205 80 100 154
343 641 204 54 75 143
342 642 204 68 92 154
343 642 204 46 71 143
340 644 201 130 149 183
340 645 200 113 140 170
340 645 201 118 141 174
341 645 200 116 142 171
341 645 201 145 162 189
340 644 202 147 161 197
341 644 202 159 174 203
341 646 200 112 140 169
342 645 201 165 179 204
343 645 201 165 179 208
342 644 202 162 177 206
343 644 202 138 154 192
343 645 202 153 169 203
342 646 200 143 162 190
343 646 200 158 171 202
343 648 192 124 158 190
343 648 193 121 155 188
343 648 194 118 152 185
343 648 195 116 150 182
344 647 196 106 141 174
344 647 197 114 145 176
345 647 197 147 167 192
344 646 199 147 163 198
344 647 198 131 155 186
344 647 199 143 159 195
345 646 199 160 172 207
345 647 198 156 172 202
345 647 199 155 169 204
346 647 197 169 182 207
346 646 199 159 171 208
346 647 198 163 176 207
346 647 199 156 169 205
347 646 199 137 156 198
347 647 198 155 173 207
347 647 199 147 164 203
348 646 199 129 153 196
348 647 198 153 174 210
348 647 199 141 164 204
349 646 199 107 138 185
349 647 198 149 176 211
349 647 199 137 166 205
351 645 199 69 97 158
350 646 199 63 100 162
350 647 198 118 158 197
350 647 199 82 129 178
351 646 199 51 80 155
351 647 198 75 120 175
345 641 203 54 88 154
344 642 203 55 77 146
344 643 202 92 112 168
344 643 203 60 85 151
345 642 203 57 83 151
345 643 202 61 85 155
345 643 203 52 78 149
346 641 203 53 98 160
347 641 203 66 122 175
346 642 203 63 93 156
346 643 202 54 81 151
346 643 203 55 82 150
347 642 203 71 110 165
347 643 202 62 92 156
344 640 204 79 99 154
344 641 204 62 84 148
345 640 204 64 101 157
345 640 205 70 102 152
345 641 204 59 88 153
346 640 204 63 119 173
346 641 204 52 104 166
347 640 204 67 132 185
347 641 204 60 119 176
344 645 201 165 181 211
345 645 201 153 171 206
344 644 202 119 136 184
344 645 202 146 163 203
345 644 202 97 117 173
344 646 200 165 178 209
345 646 200 167 181 212
346 644 201 75 99 164
346 645 201 114 136 184
347 644 201 56 83 156
347 645 200 70 103 166
347 645 201 70 100 165
346 644 202 64 86 157
346 646 200 148 163 202
347 646 200 118 139 188
348 641 203 85 141 190
349 640 203 83 149 198
349 641 203 94 154 201
348 643 201 73 108 162
349 643 201 90 122 170
348 642 203 81 123 175
348 643 202 76 109 163
349 642 203 80 130 183
349 643 202 88 120 173
350 640 203 69 141 190
350 641 203 83 150 199
351 640 203 59 136 185
351 641 203 85 153 202
350 643 201 96 125 176
351 643 201 95 125 176
350 642 202 81 133 187
350 642 203 86 145 197
350 643 202 86 122 178
351 642 202 94 145 196
351 642 203 98 155 205
351 643 202 85 126 183
348 640 204 71 140 191
349 640 204 78 146 195
350 640 204 73 142 190
348 644 201 67 96 161
348 645 200 72 100 165
348 645 201 64 91 162
349 644 200 86 115 165
349 644 201 84 114 166
349 645 200 75 106 163
348 646 200 94 121 175
349 646 200 88 115 172
350 644 200 89 116 166
350 644 201 97 125 174
350 645 200 70 99 159
351 644 200 104 127 175
351 644 201 102 131 178
351 645 200 83 106 164
344 648 192 127 158 189
344 648 193 120 153 185
345 648 192 124 155 185
345 648 193 124 153 183
345 649 192 122 152 183
345 649 193 123 151 181
344 648 194 114 148 180
344 648 195 111 145 177
345 648 194 124 152 180
345 648 195 123 150 178
346 649 192 127 156 185
346 649 193 124 151 180
347 649 192 129 155 184
347 649 193 136 159 186
346 648 195 142 164 189
346 649 194 128 154 181
346 649 195 138 159 184
347 649 194 144 165 190
347 649 195 156 173 195
347 650 192 126 152 180
347 650 193 133 156 183
344 648 196 109 143 175
345 648 196 126 152 179
345 648 197 137 160 185
346 648 196 154 170 192
346 648 197 169 182 204
346 649 196 153 171 193
347 648 196 175 187 207
347 648 197 182 194 215
347 649 196 175 187 206
347 648 198 165 181 210
348 649 194 155 173 196
348 649 195 172 185 206
349 649 195 177 191 212
348 650 192 128 154 182
348 650 193 136 159 186
349 650 192 129 156 184
349 650 193 139 164 191
349 651 192 126 155 184
348 650 194 150 169 193
349 650 194 151 172 197
349 650 195 166 182 205
350 650 193 152 176 203
350 651 192 136 161 189
350 651 193 151 175 202
351 651 192 150 176 205
351 651 193 155 182 211
350 650 194 163 184 210
350 650 195 178 196 220
351 650 194 164 190 219
351 650 195 180 202 229
348 648 197 184 197 219
348 649 196 188 198 216
348 649 197 192 203 223
349 648 197 179 197 223
349 649 196 190 202 223
349 649 197 193 206 228
348 648 198 164 182 213
349 648 198 161 184 216
350 648 197 167 193 223
350 649 196 189 206 231
350 649 197 185 205 231
351 648 197 149 182 215
351 649 196 180 203 232
351 649 197 173 199 228
350 648 198 157 186 218
