ply
format ascii 1.0
comment Version 2, Copyright 2017, 8i Labs, Inc.
comment frame_to_world_scale 0.179523
comment frame_to_world_translation -45.2095 7.18301 -54.3561
comment width 1023
element vertex 1332
property float x
property float y
property float z
property uchar red
property uchar green
property uchar blue
end_header
320 672 109 131 129 134
320 673 109 120 120 124
321 673 109 136 133 136
320 672 110 131 130 134
321 672 110 136 133 136
320 674 109 113 114 120
320 675 108 114 118 127
320 675 109 112 115 123
321 674 109 127 126 130
321 675 109 119 120 126
322 673 109 142 138 140
322 672 110 135 131 134
322 673 110 142 138 140
323 672 110 136 133 136
323 672 111 130 129 132
323 673 110 141 137 140
322 674 109 141 136 138
322 675 109 137 135 138
323 674 109 144 139 140
323 675 109 143 139 140
323 674 110 143 139 140
320 677 107 119 125 136
320 678 107 114 123 136
320 679 107 119 127 138
321 678 107 96 111 128
321 679 107 107 118 132
322 679 107 93 106 120
320 676 108 108 115 126
320 677 108 108 118 131
321 676 108 105 112 123
321 676 109 119 122 130
321 677 108 89 104 119
321 678 108 89 106 123
322 676 108 121 124 132
322 676 109 133 132 138
322 677 108 103 112 123
323 676 108 132 132 138
323 676 109 140 137 140
323 677 108 121 122 129
322 678 108 93 105 120
322 679 108 89 102 116
323 678 108 108 114 123
323 679 108 98 108 119
324 672 110 133 131 135
324 672 111 130 128 132
324 673 110 135 131 134
324 673 111 129 127 130
325 672 111 128 127 131
325 673 110 126 123 125
325 673 111 126 124 129
324 675 109 144 139 139
324 674 110 138 133 134
324 675 110 140 135 136
325 674 110 121 118 120
325 675 110 129 125 127
326 672 111 126 125 131
326 673 111 124 123 129
327 673 111 123 122 129
326 674 111 109 110 115
326 675 110 119 118 122
326 675 111 109 110 116
327 674 111 109 110 117
327 675 111 105 106 112
324 676 109 138 135 137
324 677 108 123 123 128
324 677 109 124 123 127
325 676 109 131 128 131
325 677 109 119 118 121
325 676 110 133 129 132
324 678 108 121 122 127
324 678 109 121 120 123
324 679 108 121 122 129
325 678 109 118 117 120
325 679 108 128 126 129
325 679 109 130 127 129
326 677 109 112 112 115
326 676 110 131 129 133
326 677 110 120 118 122
327 676 110 133 130 133
327 676 111 120 118 122
327 677 110 127 124 126
326 678 109 107 107 111
326 679 109 122 121 125
327 678 109 102 103 107
327 679 109 113 113 117
327 678 110 114 113 117
327 679 110 110 110 115
320 680 106 125 129 137
320 680 107 124 129 139
320 681 106 124 126 132
321 680 107 117 125 136
321 681 106 123 127 135
321 681 107 120 126 136
320 682 106 123 124 129
320 683 106 123 123 128
321 682 106 124 127 136
321 683 106 122 125 132
322 680 107 102 113 126
322 681 107 113 122 134
323 680 107 90 103 117
323 681 107 91 106 121
322 682 106 121 129 139
322 682 107 116 125 137
322 683 106 120 126 137
323 682 107 97 111 126
323 683 106 111 121 134
323 683 107 106 117 131
320 684 105 121 122 127
320 685 105 121 122 129
321 685 105 118 121 127
320 684 106 122 122 127
321 684 106 121 123 130
321 685 106 118 122 129
320 686 104 124 127 134
320 686 105 123 125 132
320 687 104 127 131 139
320 687 105 128 130 138
321 686 105 118 122 129
321 687 104 125 129 137
321 687 105 121 125 134
322 685 105 116 121 130
322 684 106 118 124 134
322 685 106 117 123 132
323 684 106 114 123 134
323 685 106 119 125 135
322 686 105 118 123 132
322 687 105 120 125 134
323 686 105 122 127 134
323 687 105 126 127 131
323 686 106 122 125 132
324 680 107 97 107 119
324 681 107 104 112 123
324 682 107 103 110 120
324 683 107 97 105 116
325 682 107 112 114 119
325 683 107 100 103 108
326 683 107 110 111 114
327 683 107 110 109 111
324 680 108 113 117 125
324 681 108 118 120 127
325 680 108 124 124 128
325 681 108 120 120 126
325 682 108 116 118 123
326 680 108 125 125 129
326 680 109 127 126 129
326 681 108 122 123 129
327 680 109 127 126 130
327 681 108 123 125 130
327 681 109 126 127 132
326 682 108 116 118 123
327 682 108 117 119 124
327 683 108 112 113 116
324 684 106 115 119 127
324 684 107 104 110 118
324 685 106 119 118 123
325 684 107 84 81 84
325 685 106 100 79 79
325 685 107 82 56 55
324 687 105 118 94 87
324 686 106 116 107 104
324 687 106 112 86 77
325 686 106 105 55 59
325 687 106 116 32 47
326 684 107 95 82 82
326 685 106 91 29 42
326 685 107 90 45 48
327 684 107 98 87 83
327 685 107 90 57 47
326 686 106 102 37 41
326 687 106 111 35 34
327 686 106 103 65 50
327 686 107 97 65 46
327 687 106 107 64 45
328 674 111 106 107 113
328 675 111 99 100 105
329 675 111 99 98 104
328 676 110 138 134 135
328 676 111 122 119 122
328 677 110 137 133 135
329 676 111 115 114 119
329 677 110 135 132 136
329 677 111 129 128 132
328 678 110 127 125 128
328 679 110 126 124 128
329 678 110 134 133 137
329 678 111 133 133 139
329 679 110 137 136 141
330 676 111 109 111 118
330 677 111 122 125 133
331 676 111 130 133 142
331 677 111 130 134 144
330 678 111 134 137 145
330 679 110 136 139 147
330 679 111 135 139 148
331 678 111 133 138 148
331 679 110 135 140 149
331 679 111 136 140 149
332 677 111 134 139 148
333 677 111 135 140 150
332 678 111 134 138 147
332 679 111 136 140 149
333 678 111 133 138 148
333 679 111 134 139 148
334 678 111 116 127 141
334 679 111 117 128 142
335 679 111 104 119 135
328 680 109 130 128 131
328 681 109 126 126 131
329 680 109 131 130 134
329 681 109 126 127 133
328 680 110 133 130 133
329 680 110 134 134 139
329 681 110 126 129 136
328 682 108 121 122 127
328 682 109 123 124 128
328 683 108 121 120 123
329 682 109 121 124 131
329 683 108 121 123 128
329 683 109 118 122 129
330 681 109 122 127 136
330 680 110 132 136 145
330 681 110 126 131 141
331 680 110 134 138 148
331 681 110 130 135 145
330 682 109 121 125 135
330 683 109 119 123 131
331 682 109 125 129 138
331 683 109 120 125 133
331 682 110 127 132 141
328 684 107 113 107 102
328 685 107 100 83 70
329 684 107 123 119 118
329 685 107 122 118 116
328 686 107 100 75 56
328 687 106 101 58 37
329 686 107 119 114 110
329 687 107 114 105 97
330 686 107 123 124 127
330 687 107 116 117 121
331 686 107 120 121 126
331 687 107 117 119 124
328 684 108 119 116 116
329 684 108 124 124 128
329 685 108 126 126 129
330 684 108 118 121 127
330 684 109 118 121 129
330 685 108 122 123 128
331 684 108 118 120 127
331 684 109 118 121 128
331 685 108 119 120 126
330 686 108 122 123 127
331 686 108 119 120 126
332 680 110 139 141 150
332 680 111 137 140 149
332 681 110 139 142 151
333 680 110 138 141 150
333 680 111 133 137 147
333 681 110 137 140 149
332 683 109 125 127 134
333 683 109 133 132 137
332 682 110 134 136 144
333 682 110 140 141 148
333 683 110 137 136 141
334 680 111 124 132 144
334 681 110 134 138 148
334 681 111 131 136 147
335 680 111 111 123 139
335 681 111 119 129 142
334 682 110 137 139 146
334 683 110 133 134 139
335 682 110 127 133 143
335 682 111 123 131 143
335 683 110 127 131 140
332 687 107 118 120 125
332 684 108 115 116 122
332 684 109 118 120 125
332 685 108 117 118 123
333 684 109 128 127 131
333 685 108 121 121 125
333 685 109 126 124 127
332 686 108 116 117 122
332 687 108 117 118 123
333 686 108 121 121 125
333 687 108 119 120 124
334 684 109 125 125 129
334 685 109 124 124 128
335 685 109 116 120 128
334 684 110 129 129 135
335 684 110 121 125 133
335 685 110 114 120 130
334 686 108 123 123 129
334 686 109 123 124 130
334 687 108 121 123 130
335 686 109 117 121 129
335 687 108 121 124 133
335 687 109 119 123 131
325 672 112 122 121 125
326 672 112 115 116 121
327 672 112 107 108 114
327 673 112 123 122 128
328 672 112 92 93 99
328 672 113 77 79 87
328 673 112 112 110 116
329 672 112 89 88 94
329 672 113 79 79 87
329 673 112 101 99 104
328 674 112 110 109 114
329 674 112 107 105 110
329 675 112 102 101 106
330 672 113 81 80 87
330 673 112 95 93 100
330 673 113 91 88 96
331 672 113 79 77 83
331 673 112 92 89 96
331 673 113 85 82 89
330 674 112 100 97 104
330 675 112 97 97 103
331 674 112 91 90 96
331 675 112 108 108 115
330 676 112 105 108 115
331 676 112 126 129 136
332 672 113 76 70 77
332 673 113 80 76 83
333 672 113 69 61 69
333 673 113 67 65 73
332 674 112 92 90 98
332 674 113 81 79 88
332 675 112 119 120 127
333 674 112 70 72 83
333 674 113 65 65 77
333 675 112 89 95 104
334 672 113 64 58 67
334 673 113 63 55 69
335 672 113 57 51 69
335 673 113 61 50 68
335 672 114 48 53 72
334 674 113 58 57 68
334 675 112 73 80 90
335 674 113 60 48 66
335 675 112 59 64 77
335 675 113 53 50 65
332 676 112 136 139 147
332 677 112 137 141 150
333 676 112 125 131 140
333 677 112 131 137 148
334 676 112 107 115 127
334 677 112 116 127 140
335 676 112 87 96 109
335 677 112 104 115 129
334 678 112 117 127 141
335 678 112 103 117 133
320 689 103 125 130 140
320 690 103 124 129 139
320 691 103 123 128 137
321 691 103 124 132 142
320 692 103 121 127 135
320 693 103 121 127 136
321 692 103 119 127 135
321 693 103 114 121 130
320 694 103 121 127 137
320 695 102 121 127 136
320 695 103 119 125 134
321 694 103 114 120 125
321 695 103 116 120 124
322 692 103 126 122 121
322 693 103 114 100 96
323 693 103 121 38 33
322 694 103 112 76 72
322 695 103 110 72 64
323 694 103 125 26 27
323 695 103 127 22 29
324 694 103 128 22 28
324 695 103 124 31 30
320 688 104 127 132 141
320 689 104 128 133 143
321 688 104 126 132 141
321 689 104 130 136 146
320 690 104 127 132 142
321 690 104 130 137 148
321 691 104 130 137 147
322 688 104 120 127 136
322 688 105 122 127 134
322 689 104 125 132 140
323 688 105 128 120 118
323 689 104 124 107 98
323 689 105 126 112 104
322 690 104 134 138 143
322 691 104 135 137 140
323 690 104 124 97 89
323 691 104 122 83 78
322 692 104 129 121 118
323 692 104 122 57 55
323 693 104 125 26 27
324 688 105 123 58 56
324 689 105 134 32 46
325 688 105 130 25 35
325 689 105 140 35 40
324 690 104 137 20 40
324 690 105 142 10 41
324 691 104 135 20 34
325 690 105 140 35 40
325 691 104 138 47 43
325 691 105 136 51 46
326 688 105 129 46 34
326 689 105 138 50 46
327 688 105 124 35 31
327 689 105 131 41 44
326 688 106 116 34 27
327 688 106 114 43 30
326 690 105 133 45 42
326 691 105 131 53 44
327 690 105 133 38 48
327 691 105 135 44 46
324 692 104 133 22 28
324 693 104 131 21 23
325 692 104 137 54 46
325 693 104 138 43 40
324 694 104 129 23 25
324 695 104 122 30 25
325 694 104 133 31 32
325 695 104 125 32 28
326 692 104 136 64 52
326 692 105 134 58 45
326 693 104 140 43 42
327 692 105 136 40 36
327 693 104 140 33 33
327 693 105 140 36 35
326 694 104 137 30 33
326 695 104 133 33 36
327 694 104 139 30 28
327 695 104 135 30 30
320 696 102 120 126 136
320 697 102 119 126 135
321 696 102 121 126 132
321 696 103 116 118 117
321 697 102 121 122 122
320 698 101 118 125 134
320 699 101 119 126 136
320 698 102 118 126 136
320 699 102 120 128 136
321 698 102 121 120 119
321 699 102 119 114 112
322 696 103 113 58 56
322 697 102 114 80 70
322 697 103 116 44 40
323 696 103 126 18 23
323 697 103 126 21 23
322 698 102 119 54 46
322 698 103 122 21 21
322 699 102 122 48 38
323 698 102 126 15 15
323 698 103 126 18 19
323 699 102 128 20 22
323 699 103 128 13 21
320 700 101 118 127 137
320 701 101 118 127 137
321 700 101 120 124 127
321 701 101 121 115 114
321 700 102 118 110 106
321 701 102 117 100 92
320 702 101 115 123 131
320 703 101 107 113 122
321 702 101 124 115 113
321 703 101 124 115 113
322 700 102 124 45 38
322 701 102 125 42 38
323 700 102 130 17 22
323 701 102 132 24 26
322 703 101 120 61 58
322 702 102 125 40 39
322 703 102 128 23 26
323 702 102 134 25 28
323 703 102 133 26 34
324 696 103 123 41 35
324 697 103 126 45 43
325 697 103 124 57 54
324 698 103 130 41 46
324 699 103 131 37 40
325 698 103 130 58 54
325 699 103 130 48 40
324 700 103 130 34 30
324 701 102 129 34 26
324 701 103 128 39 32
325 700 103 130 42 29
325 701 103 128 38 31
324 702 102 127 47 41
324 702 103 126 56 50
324 703 102 128 53 43
324 703 103 127 62 56
325 702 103 124 39 35
325 703 103 125 50 42
326 701 103 130 36 31
326 702 103 131 39 35
326 703 103 131 40 31
327 703 103 132 35 26
324 696 104 121 39 33
325 696 104 123 38 31
325 697 104 123 47 39
325 698 104 127 50 46
326 696 104 128 37 33
326 697 104 127 32 29
327 696 104 133 34 29
327 697 104 134 30 29
326 698 104 128 34 25
326 699 104 129 33 23
327 698 104 135 34 34
327 699 104 134 32 29
326 700 104 130 35 20
326 701 104 132 32 28
327 700 104 133 33 25
327 701 104 133 30 26
327 702 104 133 31 26
327 703 104 133 29 26
328 689 105 125 22 34
328 688 106 113 38 33
328 689 106 118 24 31
329 688 106 109 94 83
329 689 106 110 82 71
328 690 105 128 26 36
328 691 105 134 27 30
329 691 105 114 45 44
329 690 106 111 66 58
329 691 106 106 68 60
330 688 106 83 86 86
330 688 107 86 91 95
330 689 106 91 93 94
331 688 107 106 109 115
331 689 106 66 73 83
331 689 107 89 93 101
330 690 106 106 105 106
330 691 106 109 104 104
331 690 106 65 73 85
331 691 106 74 80 93
328 692 105 137 28 33
328 693 105 140 28 36
329 692 105 115 38 41
329 693 105 118 34 34
328 694 104 140 30 36
328 694 105 140 31 35
328 695 104 137 26 30
328 695 105 139 28 34
329 694 105 122 37 34
329 695 105 127 39 37
330 692 105 92 73 62
330 693 105 89 69 61
331 693 105 88 90 91
330 692 106 101 97 94
331 692 106 96 99 108
331 693 106 97 102 107
330 694 105 88 51 41
330 695 105 89 47 35
331 694 105 85 89 89
331 695 105 84 84 83
332 688 107 117 118 124
332 689 107 111 112 118
333 688 107 115 116 120
333 689 107 114 116 121
332 690 106 74 80 90
332 690 107 99 102 110
332 691 106 63 69 84
333 690 107 115 117 122
333 691 106 107 110 116
333 691 107 114 115 121
334 689 107 117 119 126
334 690 107 118 120 125
334 691 107 118 120 126
335 690 107 119 121 127
335 691 107 122 124 130
333 688 108 118 119 123
333 689 108 118 119 125
334 688 108 121 123 130
334 689 108 119 121 127
335 688 108 120 123 130
335 689 108 118 120 127
335 690 108 120 122 128
332 692 106 50 55 79
332 693 106 53 57 82
333 692 106 100 102 109
333 693 106 63 69 87
332 695 105 97 101 109
332 694 106 65 70 91
332 695 106 65 73 97
333 694 106 42 46 83
333 695 106 38 39 88
334 692 106 113 116 122
334 692 107 118 120 125
334 693 106 105 110 119
335 692 107 123 124 130
335 693 106 117 120 127
335 693 107 121 123 130
334 694 106 93 100 112
334 695 106 64 76 97
335 694 106 119 123 131
335 694 107 121 124 131
335 695 106 113 119 129
328 696 104 136 28 27
328 696 105 139 31 31
328 697 104 136 33 29
328 697 105 139 34 27
329 696 105 127 37 37
329 697 105 128 39 37
328 698 104 137 33 32
328 698 105 139 32 28
328 699 104 138 31 34
328 699 105 140 35 30
329 698 105 127 46 38
329 699 105 127 45 35
330 696 105 91 46 38
330 697 105 88 44 39
331 696 105 78 75 75
331 697 105 72 68 70
330 698 105 82 44 42
330 699 105 83 46 46
331 698 105 67 58 67
331 699 105 64 49 62
328 700 104 139 33 33
328 700 105 139 37 26
328 701 104 138 32 27
328 701 105 138 37 22
329 700 105 126 42 31
329 701 104 133 46 32
329 701 105 125 43 34
328 702 104 137 33 27
328 703 104 136 35 24
329 702 104 128 44 35
329 702 105 119 46 40
329 703 104 125 42 33
330 700 105 82 44 46
330 701 105 80 45 43
331 700 105 62 40 50
331 701 105 71 41 53
330 702 105 81 42 38
330 703 104 89 44 38
330 703 105 74 40 38
331 702 105 82 39 53
331 703 105 86 38 50
332 696 105 91 96 107
332 697 105 87 91 103
333 697 105 51 59 102
332 696 106 70 76 101
333 696 106 43 44 93
333 697 106 44 47 98
332 698 105 85 83 94
332 699 105 83 76 88
333 698 105 51 53 98
333 699 105 55 53 98
333 698 106 48 46 99
334 696 106 54 64 93
334 697 106 53 56 92
335 696 106 103 111 121
335 697 106 99 106 117
334 698 106 54 51 96
334 699 106 52 50 100
335 698 106 97 104 116
335 699 106 92 101 116
332 700 105 83 69 83
332 701 105 84 64 75
333 700 105 59 54 100
333 701 105 59 58 98
332 702 105 96 62 69
332 703 105 105 63 68
333 702 105 69 61 92
333 703 105 82 65 90
334 700 105 50 43 107
334 701 105 49 47 104
334 700 106 53 53 101
334 701 106 51 48 101
335 700 106 85 95 114
335 701 106 75 84 109
334 702 105 53 46 103
334 703 105 53 43 99
335 702 106 75 82 110
335 703 106 67 67 105
336 679 111 104 119 135
336 680 111 105 122 140
336 681 111 101 119 137
337 680 111 113 125 139
337 681 111 116 126 139
336 682 110 111 123 138
336 682 111 98 114 132
336 683 110 106 118 132
337 682 111 107 118 132
337 683 110 96 110 125
337 683 111 105 115 128
338 681 111 134 136 143
338 682 111 132 134 140
338 683 111 128 130 137
339 682 111 134 134 140
339 683 111 130 132 138
336 685 109 110 117 128
336 684 110 106 116 128
336 685 110 105 114 126
337 684 110 103 113 125
337 684 111 112 118 127
337 685 110 104 112 123
336 686 109 112 118 129
336 687 109 118 121 129
337 686 109 108 114 125
337 687 109 113 117 126
337 686 110 109 114 123
338 684 110 117 120 127
338 684 111 124 126 132
338 685 110 112 116 124
339 684 111 124 127 134
339 685 110 114 119 127
339 685 111 117 122 130
338 687 109 109 114 123
339 687 109 105 111 120
338 686 110 108 113 121
338 687 110 106 111 120
339 686 110 110 115 125
339 687 110 105 111 120
340 683 111 126 129 136
340 684 111 120 124 133
340 685 111 118 123 131
341 684 111 118 122 131
341 685 111 117 120 128
340 686 110 115 119 128
340 687 110 107 113 123
341 686 110 116 119 127
341 686 111 117 120 127
341 687 110 112 117 124
342 684 111 118 122 129
342 685 111 118 119 124
342 686 111 116 116 120
342 687 110 114 113 115
342 687 111 114 112 113
343 686 111 108 105 105
343 687 111 103 93 87
344 686 111 88 74 67
344 687 111 95 57 52
345 687 111 104 34 39
336 672 113 49 52 77
336 673 113 50 51 74
337 673 113 54 62 83
336 672 114 59 71 96
337 672 114 96 103 125
337 673 114 84 90 109
336 674 113 53 47 69
336 675 112 54 55 72
336 675 113 52 47 66
337 674 113 64 70 89
337 675 113 54 58 78
338 672 114 107 116 132
338 672 115 101 112 129
338 673 114 100 110 125
339 672 115 84 100 118
339 673 114 101 112 127
339 673 115 85 100 118
338 674 113 91 99 114
338 675 113 87 95 109
339 675 113 97 105 119
338 674 114 104 112 125
339 674 114 102 112 126
339 675 114 98 106 120
336 676 112 61 67 83
336 677 112 93 102 114
337 676 112 53 53 72
337 676 113 50 53 74
337 677 112 66 69 83
336 678 112 110 120 133
336 679 112 109 122 137
337 678 112 81 90 102
337 679 112 99 107 118
338 676 113 73 79 97
338 677 112 49 47 73
338 677 113 57 62 83
339 676 113 95 101 116
339 677 113 80 84 101
338 678 112 48 50 72
338 679 112 65 71 83
339 678 112 62 67 84
339 678 113 81 86 100
339 679 112 58 64 78
340 672 115 71 92 116
340 673 114 90 104 122
340 673 115 76 95 116
341 672 115 66 90 116
341 673 115 90 105 125
340 674 114 87 102 120
340 675 114 100 111 127
341 674 114 86 101 120
341 674 115 94 109 127
341 675 114 98 112 129
342 673 115 109 116 127
343 673 115 114 116 124
342 674 115 118 124 134
342 675 114 117 125 139
342 675 115 125 130 141
343 674 115 130 130 136
343 675 115 128 129 136
341 672 116 80 98 119
342 672 116 98 110 125
342 673 116 113 121 133
343 672 116 112 118 131
343 673 116 113 117 126
340 676 113 116 122 134
340 677 113 113 118 129
341 677 113 108 117 131
340 676 114 113 121 135
341 676 114 93 107 124
341 677 114 89 106 124
340 678 113 111 114 124
340 679 112 94 97 105
340 679 113 111 112 120
341 678 113 113 121 134
341 679 113 110 116 127
342 676 114 103 114 130
342 677 114 100 114 132
343 676 114 124 127 136
343 676 115 120 123 131
343 677 114 124 129 141
342 678 113 86 103 122
342 679 113 93 106 123
343 679 113 102 111 125
342 678 114 102 113 131
343 678 114 108 114 127
343 679 114 106 113 126
337 680 112 118 124 135
338 680 112 106 109 116
338 681 112 130 131 138
339 680 112 83 87 97
339 681 112 122 123 129
339 682 112 127 128 134
340 680 112 85 88 97
340 681 112 105 107 114
341 680 112 110 112 121
341 680 113 115 120 132
341 681 112 109 113 122
340 682 112 121 123 130
340 683 112 124 126 134
341 682 112 112 116 124
341 683 112 116 120 129
342 680 113 103 112 127
342 681 113 107 113 126
343 680 113 102 111 125
343 681 113 112 119 131
342 682 112 108 114 125
342 682 113 108 115 126
342 683 112 111 117 126
343 682 113 121 125 135
343 683 112 120 123 130
343 683 113 124 126 134
341 684 112 116 121 131
342 684 112 118 121 128
342 685 112 118 118 122
343 684 112 113 114 119
343 685 112 104 104 106
343 686 112 97 95 94
344 674 115 128 128 134
344 675 115 124 123 129
345 674 115 124 123 128
345 675 115 122 122 127
346 675 115 124 124 129
347 675 115 128 127 132
344 672 116 117 121 134
344 673 116 118 120 128
345 672 116 119 122 134
345 672 117 112 115 128
345 673 116 128 128 135
345 674 116 125 124 128
346 672 116 121 123 133
346 672 117 116 119 130
346 673 116 134 132 137
347 672 117 118 120 128
347 673 116 127 127 133
347 673 117 126 126 133
346 674 116 121 120 124
347 674 116 118 118 124
347 675 116 123 123 129
344 676 114 135 135 143
344 676 115 127 127 135
344 677 114 129 130 139
345 676 115 129 129 137
345 677 114 118 122 132
345 677 115 116 120 130
344 678 114 122 124 133
344 679 114 132 134 142
345 678 114 125 129 138
345 679 114 133 135 143
346 676 115 130 130 136
346 677 115 126 127 136
347 676 115 125 123 127
347 677 115 133 133 138
346 678 114 129 131 139
346 678 115 130 132 140
346 679 114 128 130 138
347 678 114 130 131 137
347 678 115 134 135 140
347 679 114 128 129 136
348 672 117 110 112 122
348 673 116 118 119 126
348 673 117 114 116 125
349 672 117 94 101 119
349 673 117 92 101 119
349 672 118 79 91 114
348 674 116 120 122 130
348 675 116 120 121 128
349 674 116 121 123 134
349 674 117 101 108 127
349 675 116 114 118 128
350 673 117 73 88 115
350 672 118 63 83 110
350 672 119 73 88 113
350 673 118 61 81 110
351 672 119 84 97 118
351 673 118 68 84 112
351 673 119 76 90 115
350 674 117 77 90 118
350 675 116 94 103 121
350 675 117 88 98 120
351 674 117 69 83 110
351 675 117 67 81 111
351 674 118 65 81 110
348 676 115 121 120 123
348 677 115 135 134 139
349 676 115 127 126 130
349 677 115 123 124 130
348 678 115 131 131 137
348 679 114 124 127 135
348 679 115 120 124 132
349 678 115 117 120 128
349 679 114 110 117 128
349 679 115 110 117 128
350 677 115 111 114 122
351 677 115 97 105 119
350 678 115 116 120 128
350 679 115 116 121 131
351 678 115 98 107 119
351 679 115 104 111 121
348 676 116 116 116 120
349 676 116 116 118 124
350 676 116 111 114 126
350 677 116 108 112 122
351 676 116 82 92 115
351 676 117 65 79 111
351 677 116 82 94 114
344 680 113 127 130 138
344 681 113 130 132 140
345 681 113 130 132 139
344 680 114 131 133 141
345 680 114 132 133 141
345 681 114 132 134 141
344 682 113 127 129 136
344 683 113 121 123 129
345 682 113 127 129 136
345 683 113 122 125 132
346 680 114 128 130 137
346 681 114 132 133 140
347 680 114 128 130 137
347 681 114 131 132 139
346 682 113 133 134 141
346 683 113 131 132 138
347 682 113 133 133 139
347 683 113 132 132 138
347 682 114 133 134 140
344 684 112 105 107 112
344 684 113 115 117 122
344 685 112 90 89 90
345 684 112 108 109 113
345 684 113 115 117 123
345 685 112 101 96 96
344 686 112 83 64 59
345 686 112 95 64 59
345 687 112 99 37 36
346 684 113 125 124 128
346 685 112 111 103 101
346 685 113 117 113 112
347 684 113 133 131 135
347 685 113 130 126 126
346 686 112 104 84 77
346 687 112 99 57 46
347 686 112 124 114 110
347 687 112 114 100 91
348 680 114 119 124 134
348 681 114 118 123 132
349 680 114 102 113 126
349 681 114 103 113 127
348 682 113 123 126 134
348 683 113 127 129 136
349 683 113 120 126 137
348 682 114 121 125 133
349 682 114 112 120 132
350 680 114 103 113 127
350 681 114 98 111 127
351 680 114 108 115 126
351 680 115 105 111 122
351 681 114 107 116 130
350 683 113 105 120 136
351 683 113 106 120 137
350 682 114 101 115 132
351 682 114 105 116 131
351 683 114 106 120 136
348 684 113 131 131 136
348 685 113 132 130 134
349 684 113 123 128 137
349 685 113 125 128 135
348 686 112 129 125 126
348 686 113 129 128 130
348 687 112 125 122 123
349 686 113 125 127 133
349 687 112 122 124 130
349 687 113 122 125 132
350 684 113 105 119 136
350 685 113 104 116 131
351 684 113 106 120 137
351 685 113 109 121 136
350 686 113 109 118 130
350 687 112 113 119 129
350 687 113 111 118 130
351 686 113 112 122 134
351 687 113 114 122 134
336 690 107 127 128 134
336 691 107 131 131 136
337 691 107 133 133 139
336 688 108 123 125 131
336 688 109 122 124 131
336 689 108 125 126 132
337 688 109 118 121 129
337 689 108 123 125 132
337 689 109 122 124 131
336 690 108 129 130 135
337 690 108 125 127 133
337 691 108 130 132 138
338 688 109 113 117 125
338 689 108 115 120 129
338 689 109 114 119 128
339 688 109 106 112 122
339 689 109 111 117 127
338 690 108 117 122 131
338 691 108 122 127 135
339 690 108 115 122 131
339 690 109 113 120 129
339 691 108 117 124 133
336 692 107 131 131 136
336 693 107 128 130 136
337 692 107 135 136 142
337 693 107 135 136 143
336 694 106 122 126 134
336 694 107 123 126 134
336 695 106 121 126 135
336 695 107 124 127 135
337 694 107 129 132 139
337 695 107 128 131 138
338 692 107 133 137 144
338 693 107 133 138 145
339 693 107 128 131 135
338 694 107 131 134 140
338 695 107 129 131 133
339 694 107 123 112 111
339 695 107 116 89 85
338 692 108 128 133 142
339 692 108 125 129 134
339 693 108 126 125 124
339 694 108 120 102 96
340 688 109 105 112 121
340 689 109 111 117 126
341 688 109 106 111 117
341 689 109 105 98 95
340 688 110 103 110 120
341 688 110 106 108 111
341 689 110 101 82 75
340 690 109 117 122 127
340 691 108 123 123 123
340 691 109 120 111 106
341 690 109 111 86 78
341 691 109 126 63 60
342 688 110 106 92 86
342 689 110 107 50 48
343 688 110 99 52 51
343 688 111 95 67 60
343 689 110 108 37 43
342 690 109 123 34 37
342 691 109 141 34 46
343 690 109 129 35 36
343 691 109 135 36 39
343 690 110 120 29 36
340 695 107 122 18 30
340 692 108 127 89 79
340 693 108 132 58 57
341 692 108 147 33 50
341 692 109 145 36 50
341 693 108 151 31 48
340 694 108 133 36 45
340 695 108 131 22 33
341 694 108 148 34 49
341 695 108 138 28 40
342 692 109 145 40 42
342 693 108 141 40 37
342 693 109 136 48 35
343 692 109 133 42 36
343 693 108 135 57 48
343 693 109 127 41 30
342 694 108 143 47 49
342 695 108 142 36 48
343 694 108 143 58 57
343 695 108 144 36 51
336 696 106 120 126 135
336 697 106 118 125 134
337 696 107 126 130 138
337 697 106 119 125 134
337 697 107 121 127 133
336 698 106 117 126 136
336 699 106 118 128 140
337 698 106 116 124 131
337 699 106 119 124 129
338 696 107 126 123 122
338 697 107 116 104 100
339 696 107 114 61 58
339 697 107 117 41 48
338 698 106 112 89 87
338 698 107 112 91 90
338 699 106 117 71 70
339 698 106 122 21 36
339 698 107 122 20 34
339 699 106 130 12 27
339 699 107 129 9 23
336 700 106 122 132 144
336 701 106 123 134 146
337 700 106 126 127 130
337 701 106 133 130 130
336 702 106 122 134 146
336 703 106 115 127 141
337 702 106 135 126 123
337 703 106 130 119 117
338 700 106 126 64 64
338 701 106 131 69 62
339 700 106 141 18 32
339 701 106 151 30 39
338 702 106 140 53 48
338 703 106 142 43 40
339 702 106 155 32 38
339 703 106 152 35 37
340 696 107 118 11 24
340 697 107 114 23 24
341 697 107 101 36 21
340 698 107 117 28 22
340 699 107 124 33 23
341 698 107 99 43 26
341 699 107 113 41 35
342 697 107 95 40 21
342 698 107 97 39 19
342 699 107 108 34 28
343 698 107 105 31 23
343 699 107 113 30 29
340 696 108 123 12 23
341 696 108 123 22 30
341 697 108 108 27 18
342 696 108 127 29 37
342 697 108 106 34 23
343 696 108 132 31 39
343 697 108 116 36 23
343 698 108 107 32 18
340 700 106 142 33 37
340 700 107 134 37 40
340 701 106 150 37 48
341 700 107 132 38 42
341 701 106 145 39 40
341 701 107 142 35 37
340 702 106 147 42 39
340 703 106 148 52 52
341 702 106 148 44 36
341 703 106 151 50 50
342 700 107 125 35 28
342 701 107 143 36 31
343 700 107 126 32 32
343 701 107 138 32 27
342 702 106 151 41 33
342 702 107 150 38 31
342 703 106 152 43 35
342 703 107 151 37 30
343 702 107 146 37 27
343 703 107 147 36 26
344 688 110 100 31 40
344 688 111 98 36 39
344 689 110 105 34 35
345 688 111 105 25 35
345 689 110 108 30 27
345 689 111 106 26 31
344 691 109 133 33 38
344 690 110 120 34 35
344 691 110 128 33 38
345 690 110 115 35 30
345 691 110 125 37 32
346 688 111 104 39 30
346 689 111 105 36 29
347 688 111 111 98 86
347 689 111 105 82 67
346 690 110 109 32 24
346 690 111 105 36 28
346 691 110 114 26 24
347 690 111 101 76 61
347 691 110 101 65 54
344 692 109 137 44 43
344 693 109 137 39 34
345 692 109 140 38 42
345 693 109 144 32 35
345 692 110 134 32 37
344 694 108 145 46 49
344 694 109 144 46 46
344 695 108 142 35 41
345 694 109 141 30 26
345 695 108 138 25 30
345 695 109 135 25 22
346 692 109 134 20 30
346 693 109 137 20 31
347 693 109 112 41 39
346 692 110 125 25 29
347 692 110 104 51 42
347 693 110 97 58 41
346 694 109 136 31 26
346 695 109 130 33 24
347 694 109 107 48 36
347 695 109 102 45 33
348 689 111 113 111 109
349 689 111 88 93 99
348 690 111 102 102 101
348 691 110 106 102 99
348 691 111 97 98 99
349 690 111 80 86 95
349 691 111 62 68 81
350 690 111 117 119 127
350 691 111 110 112 119
351 691 111 121 122 128
348 692 110 101 99 96
348 693 110 99 96 92
349 692 110 58 67 80
349 692 111 48 56 76
349 693 110 56 67 84
348 694 109 91 83 72
348 695 109 96 93 90
349 695 109 101 106 112
348 694 110 102 103 102
349 694 110 63 73 92
349 695 110 69 77 97
350 692 110 71 77 88
350 692 111 97 100 107
350 693 110 67 73 86
351 692 111 116 118 124
351 693 110 102 104 110
351 693 111 111 114 120
350 694 110 47 51 76
350 695 110 39 36 75
351 694 110 98 102 109
351 695 110 83 88 98
344 696 108 135 34 33
344 697 108 125 30 26
345 696 108 136 26 30
345 697 108 132 22 30
344 698 108 118 23 26
344 699 108 121 22 31
345 698 108 128 20 24
345 699 108 129 26 23
346 696 108 131 27 17
346 696 109 123 31 28
346 697 108 122 28 25
347 696 109 94 41 30
347 697 108 85 33 31
347 697 109 80 33 29
346 698 108 119 30 33
346 699 108 118 42 34
347 698 108 78 42 38
347 699 108 77 46 42
344 700 107 127 27 31
344 701 107 136 30 26
344 702 107 141 34 24
344 703 107 144 38 28
345 702 107 141 36 26
345 703 107 142 36 26
344 700 108 129 22 29
344 701 108 136 27 27
345 700 108 133 31 24
345 701 108 137 32 24
345 702 108 139 37 31
345 703 108 137 37 34
346 700 108 119 49 40
346 701 108 118 49 42
347 700 108 74 53 44
347 701 108 69 54 46
346 702 108 110 45 41
346 703 108 107 42 39
347 702 108 67 49 43
347 703 108 66 45 44
348 696 109 86 84 85
348 697 109 69 63 68
349 696 109 84 88 103
349 697 109 91 92 103
348 698 108 47 39 47
348 698 109 64 60 66
348 699 108 58 51 59
349 698 109 92 93 101
349 699 109 90 89 95
350 696 109 42 39 84
350 697 109 40 42 89
351 696 109 37 46 77
351 697 109 42 53 81
350 696 110 41 36 81
351 696 110 65 72 87
350 698 109 41 48 92
350 699 109 46 54 94
351 698 109 34 45 83
351 699 109 36 38 86
348 700 108 56 47 54
348 701 108 60 46 51
349 700 108 88 82 90
349 701 108 92 80 87
348 702 108 68 41 44
348 703 108 81 41 48
349 702 108 91 72 76
349 703 108 92 64 65
350 700 108 47 49 94
350 700 109 47 51 93
350 701 108 63 59 95
351 700 108 39 42 100
351 700 109 41 34 93
351 701 108 37 36 100
350 702 108 72 63 95
350 703 108 72 63 93
351 702 108 39 43 101
351 703 108 39 45 101
346 688 112 100 50 33
347 688 112 112 94 82
348 688 112 122 119 118
348 689 112 112 112 114
349 688 112 118 121 127
349 689 112 108 112 119
350 688 112 116 122 132
350 689 112 120 124 133
351 688 112 121 126 135
351 689 112 124 127 134
350 690 112 119 122 129
351 690 112 123 125 132
