ply
format ascii 1.0
comment Version 2, Copyright 2017, 8i Labs, Inc.
comment frame_to_world_scale 0.179523
comment frame_to_world_translation -45.2095 7.18301 -54.3561
comment width 1023
element vertex 1401
property float x
property float y
property float z
property uchar red
property uchar green
property uchar blue
end_header
352 655 177 115 154 189
352 655 178 109 149 185
352 655 179 111 151 186
353 655 178 113 151 186
353 655 179 119 154 188
352 654 180 114 152 187
352 654 181 117 155 190
352 655 180 117 155 189
352 655 181 119 157 192
353 655 180 121 157 191
353 655 181 114 153 188
352 654 182 121 157 191
352 654 183 129 161 193
353 654 182 110 149 184
353 654 183 112 149 183
353 655 182 103 144 180
354 655 180 123 157 189
354 655 181 115 152 186
354 655 182 112 149 184
354 655 183 118 152 185
355 655 182 126 159 191
355 655 183 138 167 198
356 655 183 146 174 205
352 653 184 118 154 187
352 653 185 115 150 184
352 653 186 118 152 184
352 653 187 123 154 186
353 653 186 127 159 190
353 653 187 137 167 197
352 654 184 123 157 190
352 654 185 114 150 184
353 654 184 112 149 183
353 654 185 114 150 182
353 654 186 126 157 188
354 653 187 148 177 208
354 654 184 118 152 184
354 654 185 137 166 195
354 655 184 131 161 191
354 655 185 145 171 200
355 654 185 146 175 206
355 655 184 146 174 203
355 655 185 148 176 205
354 654 186 147 174 204
354 654 187 153 181 213
355 654 186 148 178 210
355 654 187 154 184 217
352 652 188 124 155 186
352 652 189 131 162 193
352 653 188 128 158 188
352 653 189 128 159 190
353 652 189 145 174 205
353 653 188 140 170 201
353 653 189 142 173 205
352 652 190 147 174 204
352 652 191 164 187 215
353 652 190 159 186 216
353 652 191 166 194 225
354 653 188 148 180 212
354 653 189 150 183 216
355 653 188 159 189 221
355 653 189 160 192 225
354 652 190 154 188 224
354 652 191 148 187 225
354 653 190 154 188 223
355 652 190 144 184 223
355 652 191 143 185 225
355 653 190 151 188 225
355 654 188 160 190 222
357 651 191 164 193 225
358 651 191 161 189 221
359 651 190 166 192 223
359 651 191 156 186 218
356 655 184 152 179 209
356 655 185 150 180 211
357 655 184 160 187 217
357 655 185 159 187 218
356 654 186 144 177 211
356 654 187 151 184 218
357 654 186 155 185 218
357 654 187 162 191 223
357 655 186 152 183 217
358 655 185 166 192 223
359 655 185 165 192 223
358 654 186 168 194 224
358 654 187 174 199 228
358 655 186 166 192 224
359 654 186 161 189 222
359 654 187 168 194 224
359 655 186 164 191 223
356 653 188 166 194 226
356 653 189 162 193 226
357 653 188 167 195 226
357 653 189 166 194 226
356 652 190 147 184 221
356 652 191 143 182 221
356 653 190 154 189 225
357 652 190 159 190 223
357 652 191 155 188 222
356 654 188 162 191 224
357 654 188 166 194 226
358 652 189 174 197 226
358 653 188 174 198 227
358 653 189 175 199 227
359 652 189 176 198 225
359 653 188 177 199 227
358 652 190 168 194 224
359 652 190 172 196 225
358 654 188 178 201 229
363 655 183 158 186 217
364 655 183 161 188 218
365 655 183 166 191 220
366 655 183 157 183 213
367 655 183 144 173 204
360 651 190 162 190 220
360 651 191 151 182 214
361 650 191 152 181 211
361 651 190 158 186 216
361 651 191 154 182 213
362 650 191 148 176 205
362 651 190 156 183 213
362 651 191 151 178 207
363 651 190 147 177 208
363 651 191 143 173 202
360 653 187 154 183 216
361 653 187 158 186 218
360 655 184 167 193 224
360 655 185 158 187 220
361 655 184 165 191 221
361 655 185 161 189 221
360 654 186 146 180 215
360 654 187 148 180 214
361 654 186 148 181 215
361 654 187 150 181 214
362 653 187 162 189 220
363 653 186 168 194 224
363 653 187 167 194 224
362 654 185 159 187 218
362 655 184 159 186 217
362 655 185 158 186 217
363 654 185 166 192 223
363 655 184 172 197 226
362 654 186 160 188 219
363 654 186 168 194 224
360 652 188 170 194 222
360 652 189 170 194 222
360 653 188 169 193 222
361 652 188 163 189 219
361 652 189 160 187 218
361 653 188 165 191 220
360 652 190 167 193 222
362 652 188 156 185 218
362 652 189 154 183 215
362 653 188 159 187 218
363 652 188 157 185 217
363 652 189 151 181 213
363 653 188 161 189 220
364 651 190 139 171 202
364 651 191 130 163 194
365 651 190 127 161 192
365 651 191 127 159 190
364 653 186 162 190 222
364 653 187 160 188 219
365 653 186 151 182 214
365 653 187 149 179 210
364 654 184 170 196 226
364 654 185 166 193 224
364 655 184 172 197 227
365 654 184 165 192 223
365 654 185 162 190 221
365 655 184 164 190 221
364 654 186 164 192 223
365 654 186 156 186 218
366 653 186 152 180 211
366 653 187 143 171 201
367 653 187 136 164 192
366 654 184 157 184 214
366 654 185 155 182 212
366 655 184 156 183 213
367 654 185 144 172 201
367 655 184 142 171 202
366 654 186 149 176 207
367 654 186 143 170 199
367 654 187 137 164 192
364 652 188 151 180 211
364 652 189 142 174 205
364 653 188 156 184 215
365 652 188 130 162 194
365 652 189 125 158 190
365 653 188 134 167 198
364 652 190 133 166 199
365 652 190 127 159 190
365 652 191 137 164 192
366 652 188 133 162 192
366 652 189 140 166 193
366 653 188 134 163 192
367 653 188 139 164 192
367 653 189 144 166 191
366 652 190 148 170 196
366 652 191 137 161 187
367 652 190 142 161 185
367 652 191 129 148 172
367 653 190 137 157 181
352 658 171 136 174 209
352 659 170 136 171 205
352 659 171 141 176 210
353 658 171 128 166 202
353 659 170 125 163 199
353 659 171 124 163 200
354 659 170 120 161 198
354 659 171 120 161 199
355 659 171 117 161 200
352 657 172 139 175 210
352 657 173 129 167 202
353 657 172 130 167 202
353 657 173 127 163 198
352 656 174 126 163 197
352 656 175 119 157 191
352 657 174 126 163 197
353 656 175 121 156 189
353 657 174 127 162 195
353 657 175 125 158 190
352 658 172 135 173 209
353 658 172 131 167 202
354 657 173 138 171 204
354 656 175 120 156 189
354 657 174 131 165 199
354 657 175 126 161 193
355 657 174 120 159 195
355 657 175 116 156 192
354 658 172 130 165 200
354 658 173 133 167 200
354 659 172 127 165 201
355 658 173 123 160 195
355 659 172 119 161 198
355 658 174 122 160 195
352 660 169 128 165 200
352 661 169 165 191 221
353 660 169 121 157 191
353 661 169 159 184 215
352 660 170 120 158 194
353 660 170 114 154 190
352 662 169 144 172 204
352 663 168 112 149 182
352 663 169 123 157 189
353 662 168 133 164 196
353 662 169 156 181 211
353 663 168 104 145 180
354 660 169 125 161 194
354 661 169 125 162 196
355 661 169 104 153 193
354 660 170 120 161 197
355 660 170 126 166 203
354 662 168 116 156 193
354 663 168 111 152 188
355 662 168 100 151 193
355 663 168 118 158 193
356 659 171 118 162 200
357 659 171 130 167 203
356 657 175 112 154 191
356 658 173 125 161 196
356 659 172 121 161 198
356 659 173 126 163 198
357 658 173 123 159 194
357 659 172 125 164 199
357 659 173 122 160 195
356 658 174 123 160 195
356 658 175 115 156 192
357 658 174 117 156 191
357 658 175 118 156 192
358 659 172 124 163 199
358 659 173 113 154 190
359 659 172 117 158 196
359 659 173 116 156 193
358 658 174 117 156 192
358 658 175 119 158 194
358 659 174 114 154 190
359 658 175 124 162 198
359 659 174 119 158 193
359 659 175 127 164 199
356 661 169 118 160 198
357 661 169 125 161 195
356 660 170 131 168 204
356 660 171 125 165 202
357 660 170 132 168 204
357 660 171 130 168 203
356 662 168 109 151 187
356 663 168 120 150 179
357 662 168 100 139 172
357 663 168 105 126 152
358 661 169 125 159 191
359 661 169 129 164 196
358 660 170 124 165 203
358 660 171 125 165 202
358 661 170 127 166 203
359 660 170 120 163 201
359 660 171 116 161 200
359 661 170 125 165 201
358 662 168 101 134 164
358 663 168 103 109 132
359 662 168 117 144 169
359 662 169 130 160 189
359 663 168 122 130 150
359 660 172 119 161 199
357 666 167 181 125 145
357 667 167 176 106 117
358 664 167 142 60 80
358 665 167 144 55 75
359 664 167 144 90 102
359 665 167 154 87 97
358 666 167 153 72 96
358 667 167 159 74 92
359 666 167 174 117 139
359 667 167 161 105 133
357 668 167 198 132 137
357 669 167 177 86 93
357 670 167 202 125 132
357 671 167 204 130 132
358 668 167 186 116 119
358 669 167 167 74 86
359 668 167 159 87 102
359 669 167 180 139 148
358 670 167 158 64 77
358 671 167 159 67 72
359 670 167 167 124 128
359 671 166 131 93 104
359 671 167 146 81 87
352 664 168 114 149 182
352 664 169 122 153 183
352 665 169 152 178 207
353 664 168 97 141 177
353 665 168 105 150 187
352 666 169 158 186 218
352 667 169 110 150 186
353 666 168 109 152 189
353 666 169 131 168 204
353 667 168 123 157 187
353 667 169 114 149 179
354 664 168 115 153 186
354 665 168 104 146 181
355 664 168 125 155 184
355 665 168 118 139 166
354 666 168 112 146 176
354 667 168 128 138 159
355 666 168 110 114 141
355 667 168 150 124 138
352 668 169 106 146 179
352 669 169 108 144 173
353 668 169 117 137 160
353 669 168 145 133 142
353 669 169 122 138 156
352 670 169 110 136 159
352 671 168 108 103 119
352 671 169 107 123 144
353 670 168 149 121 127
353 671 168 137 64 80
354 668 168 128 98 115
354 669 168 164 112 123
355 668 168 160 89 103
355 669 168 157 49 72
354 670 168 176 95 105
354 671 168 160 30 53
355 670 168 167 54 69
355 671 168 170 56 60
356 664 168 122 137 160
356 665 168 125 117 140
357 664 168 117 105 127
357 665 168 160 125 148
356 666 168 132 92 116
356 667 168 151 79 95
357 667 168 168 90 108
358 664 168 130 81 102
358 665 168 152 78 102
359 664 168 146 115 129
356 668 168 158 51 63
356 669 168 160 49 57
357 668 168 180 94 101
357 669 168 171 75 73
356 670 168 185 101 105
356 671 168 206 135 136
357 670 168 193 116 117
357 671 168 227 173 174
360 659 172 129 166 201
360 659 173 128 164 199
361 659 173 132 169 204
360 659 174 129 165 201
360 659 175 136 172 206
361 659 174 129 167 203
361 659 175 137 174 210
362 659 173 137 173 209
362 659 174 133 172 209
362 659 175 135 174 211
363 659 175 146 181 216
360 661 169 139 171 202
361 661 169 140 174 207
360 660 170 124 164 202
360 660 171 126 166 203
360 661 170 128 166 202
361 660 171 122 162 199
361 661 170 130 168 204
361 661 171 122 163 200
360 662 168 125 153 181
360 662 169 137 165 193
360 663 168 125 146 171
361 662 168 129 159 189
361 662 169 140 170 201
361 663 168 115 149 181
362 661 169 138 172 206
362 660 171 116 159 198
362 661 170 133 169 205
362 661 171 121 163 201
363 661 170 130 166 201
363 661 171 124 164 201
362 662 168 125 161 195
362 662 169 138 170 203
362 663 168 114 156 193
363 662 169 130 166 201
363 663 168 118 161 199
360 660 172 128 166 201
361 660 172 126 164 200
361 660 173 134 170 205
362 660 172 122 162 199
362 660 173 135 171 207
363 660 172 122 163 201
363 660 173 130 168 204
363 661 172 120 162 199
362 660 174 138 175 210
363 660 174 137 175 211
364 659 175 153 185 218
365 659 175 152 183 216
364 661 170 130 167 201
364 661 171 136 172 207
365 661 171 146 179 213
364 662 169 125 163 199
364 663 168 127 167 204
364 663 169 125 165 202
365 662 169 126 164 200
365 663 168 130 169 206
365 663 169 129 167 203
364 662 170 123 162 197
365 662 170 134 170 205
366 661 171 153 183 216
366 663 168 136 173 208
366 663 169 142 176 210
367 663 169 147 178 210
366 662 170 149 180 213
366 662 171 155 184 216
366 663 170 154 184 216
367 662 170 159 187 217
367 662 171 155 183 213
367 663 170 156 184 215
364 660 172 136 173 209
364 660 173 135 173 209
364 661 172 136 173 208
365 660 173 151 185 219
365 661 172 150 183 217
365 661 173 147 182 217
364 660 174 145 181 216
364 660 175 147 181 217
365 660 174 150 183 217
365 660 175 153 184 217
366 660 173 149 180 213
366 661 172 153 183 216
366 661 173 149 180 212
367 661 172 147 176 207
367 661 173 139 169 200
366 660 174 149 178 209
366 660 175 151 179 209
367 660 174 146 173 203
367 660 175 151 178 207
367 662 172 148 176 206
360 664 167 137 129 147
360 665 167 140 128 145
361 664 167 123 150 178
361 665 167 134 160 187
360 666 167 161 148 168
360 667 166 113 117 155
360 667 167 145 124 158
361 666 166 115 143 177
361 666 167 122 143 176
361 667 166 77 102 150
362 664 167 121 160 195
362 665 167 127 161 193
363 664 167 121 160 196
363 665 167 116 157 193
362 666 166 112 153 187
362 667 166 90 136 175
363 666 166 119 162 199
363 667 166 109 155 192
360 668 166 110 89 128
360 668 167 141 95 118
360 669 166 145 140 156
361 668 166 69 89 139
361 669 166 131 139 164
360 670 166 138 126 139
360 671 166 109 100 132
361 670 166 129 132 165
361 671 166 68 72 129
363 669 165 123 157 189
362 668 166 89 130 168
362 669 166 142 160 190
363 668 166 114 154 188
363 669 166 126 159 190
362 671 165 89 116 156
363 670 165 111 148 180
363 671 165 127 158 188
362 670 166 126 141 178
362 671 166 68 76 135
363 670 166 113 145 178
364 664 167 127 165 200
364 665 167 114 157 195
365 664 167 127 165 201
365 665 167 131 169 206
364 666 166 144 181 217
364 667 166 130 170 207
365 666 166 141 177 213
365 667 166 126 167 204
366 665 167 136 171 205
367 665 167 144 175 208
366 666 166 134 171 207
366 666 167 138 172 207
366 667 166 130 170 206
367 666 166 137 172 207
367 666 167 141 174 208
367 667 166 130 167 203
364 669 165 131 166 199
365 669 165 125 164 200
364 668 166 127 165 200
364 669 166 133 168 202
365 668 166 128 168 204
365 669 166 131 169 204
364 670 165 124 160 193
364 671 165 133 166 198
365 670 165 119 158 193
365 671 165 114 154 189
366 668 165 122 162 198
366 669 165 118 159 196
367 668 165 134 170 205
367 669 165 126 165 200
366 668 166 125 165 201
367 668 166 134 171 205
366 670 165 111 153 189
366 671 165 101 145 182
367 670 165 123 162 198
367 671 165 113 155 192
363 664 168 120 162 200
364 664 168 127 166 203
365 664 168 130 168 204
366 664 168 140 174 208
367 664 168 144 176 208
352 656 176 125 161 195
352 656 177 112 151 186
353 656 176 115 152 186
353 656 177 114 151 185
353 656 178 121 156 189
354 656 176 116 152 186
354 656 177 120 155 187
354 657 176 117 154 189
355 657 176 112 154 190
355 657 177 110 151 187
354 656 178 133 164 195
354 656 179 129 161 194
355 656 178 120 156 190
355 656 179 118 155 189
355 657 178 109 150 186
354 656 180 115 151 185
354 656 181 114 151 185
355 656 180 114 152 186
355 656 181 119 155 188
355 656 182 136 167 199
356 657 176 114 155 191
356 657 177 112 153 189
357 657 176 121 159 194
357 657 177 117 155 190
356 656 179 115 153 189
356 657 178 113 153 189
356 657 179 116 154 190
357 657 178 121 158 193
357 657 179 126 162 196
357 658 176 120 158 194
358 657 177 122 158 193
358 657 178 136 168 201
358 657 179 144 175 207
359 657 179 148 180 213
358 658 176 121 159 194
358 658 177 126 161 195
359 658 176 129 166 201
359 658 177 142 175 207
358 658 178 142 172 204
359 658 178 150 180 213
359 658 179 149 181 215
356 656 180 121 158 193
356 656 181 129 164 198
357 656 180 125 161 196
357 656 181 133 168 203
357 657 180 127 163 198
357 657 181 128 165 200
356 656 182 144 175 206
356 656 183 149 178 209
357 656 182 148 179 212
357 656 183 155 183 214
358 656 181 141 175 209
358 657 180 142 175 208
358 657 181 140 174 208
359 657 180 148 181 216
359 657 181 154 185 218
358 656 182 155 185 217
358 656 183 162 188 219
359 656 182 162 190 221
359 656 183 165 191 222
357 656 184 161 188 218
358 656 184 166 192 221
359 656 184 167 193 223
360 657 179 145 180 216
360 658 176 143 177 211
360 658 177 151 183 216
360 659 176 144 177 211
361 658 177 155 187 220
361 659 176 149 183 217
361 659 177 156 187 221
360 658 178 153 185 218
360 658 179 145 181 216
361 658 178 155 187 220
361 658 179 147 182 217
362 658 177 158 188 220
362 659 176 148 183 218
362 659 177 156 187 220
363 659 176 154 186 219
363 659 177 156 185 217
362 658 178 156 186 218
362 658 179 151 182 215
363 658 178 157 185 216
363 658 179 154 182 213
360 657 180 141 179 215
360 657 181 155 187 222
361 657 180 134 175 213
361 657 181 150 185 222
360 656 182 163 191 223
360 656 183 166 192 223
361 656 182 161 190 223
361 656 183 165 191 222
362 657 180 146 180 214
362 657 181 149 184 219
363 656 181 161 188 219
363 657 180 155 183 214
363 657 181 159 187 219
362 656 182 155 186 219
362 656 183 158 185 216
363 656 182 158 187 219
363 656 183 157 185 217
364 659 176 157 187 219
364 659 177 157 185 216
365 659 176 155 184 215
365 659 177 159 184 214
364 658 178 156 184 215
364 658 179 162 188 218
365 658 178 159 185 215
365 658 179 164 190 221
366 659 176 155 181 211
366 659 177 156 182 212
367 659 176 155 180 209
367 659 177 150 177 207
366 658 178 157 182 210
366 658 179 158 185 214
367 658 178 151 178 209
367 658 179 159 185 215
367 659 178 146 175 206
364 656 181 166 192 221
364 657 180 161 187 216
364 657 181 163 190 219
365 656 181 167 191 221
365 657 180 170 195 224
365 657 181 168 192 221
364 656 182 165 191 221
364 656 183 163 190 220
365 656 182 166 191 220
365 658 180 172 197 227
366 656 181 162 188 218
366 657 180 165 192 222
366 657 181 164 190 220
367 656 181 153 182 212
367 657 180 155 184 215
367 657 181 153 181 212
366 656 182 159 186 216
366 656 183 151 179 212
367 656 182 149 176 208
367 656 183 149 176 208
366 658 180 157 186 217
367 658 180 157 184 215
367 660 176 154 180 209
360 656 184 167 193 223
361 656 184 166 192 222
368 654 185 144 171 199
368 655 184 144 171 199
368 655 185 148 173 200
369 655 184 152 173 198
369 655 185 148 170 195
368 654 186 141 167 195
368 654 187 136 163 191
369 654 187 136 161 188
369 655 186 143 166 191
369 655 187 144 166 192
370 655 185 143 165 190
370 655 186 145 164 188
370 655 187 147 168 193
371 655 187 144 165 190
368 653 188 140 163 189
368 653 189 128 151 177
369 653 189 106 130 162
368 652 191 111 129 154
368 653 190 113 135 160
368 653 191 100 119 147
369 653 190 103 129 160
369 653 191 93 117 149
368 654 188 133 158 186
369 654 188 138 162 189
369 654 189 117 143 174
369 654 190 103 130 161
370 653 191 112 131 164
370 654 188 144 166 193
370 654 189 138 162 190
370 655 188 149 170 195
370 655 189 145 168 195
371 655 188 146 168 194
371 655 189 138 164 192
370 654 190 134 156 184
370 654 191 151 167 195
371 654 190 154 174 201
371 654 191 173 189 213
371 655 190 145 168 196
372 655 189 142 168 197
372 654 191 169 187 211
372 655 190 149 174 201
372 655 191 166 187 212
373 655 190 159 183 210
373 655 191 162 185 211
374 655 191 134 166 199
377 640 191 106 84 59
379 640 189 114 91 66
378 640 190 111 87 63
378 640 191 107 84 61
379 640 190 110 87 63
379 640 191 103 82 62
379 641 191 102 80 61
383 640 185 117 93 67
382 640 186 117 93 66
382 640 187 117 92 66
383 640 186 117 93 66
383 640 187 117 93 66
383 641 187 117 93 67
380 640 189 116 92 67
381 640 188 116 91 66
381 640 189 114 91 65
380 640 190 112 88 64
380 641 190 108 85 63
380 641 191 102 81 60
381 640 190 112 89 64
381 641 190 107 86 64
381 641 191 102 82 61
381 642 191 98 79 60
382 640 188 115 91 66
382 640 189 114 91 67
382 641 189 112 90 68
383 640 188 115 92 66
383 641 188 114 92 67
383 641 189 112 90 68
382 641 190 108 87 67
383 642 189 110 89 66
382 642 190 104 84 64
382 642 191 98 80 61
383 642 190 105 84 62
383 642 191 99 80 60
383 643 191 96 77 59
368 663 169 143 176 209
369 663 169 149 182 216
368 662 170 150 178 209
368 662 171 150 178 208
368 663 170 151 180 211
369 662 171 139 169 200
369 663 170 142 175 208
369 663 171 138 170 201
370 663 170 131 167 201
370 663 171 128 162 196
371 663 171 127 161 195
368 661 172 139 168 199
368 661 173 149 177 207
369 661 173 145 174 205
368 660 174 147 175 205
368 660 175 153 180 209
368 661 174 151 178 209
369 660 175 153 180 210
369 661 174 148 176 207
369 661 175 149 177 208
368 662 172 145 172 202
369 662 172 138 168 199
369 662 173 143 172 203
370 661 174 142 172 203
370 661 175 130 162 194
371 661 175 122 155 187
370 662 172 138 169 201
370 662 173 143 173 204
370 663 172 138 169 201
371 662 173 143 172 202
371 663 172 140 169 199
371 663 173 141 169 199
370 662 174 141 171 202
371 662 174 136 165 195
371 662 175 125 157 189
372 663 172 137 164 194
372 663 173 145 171 198
373 663 173 160 182 208
372 662 174 135 163 192
372 662 175 129 159 190
372 663 174 143 169 197
373 662 174 131 160 189
373 662 175 122 154 185
373 663 174 140 167 195
373 663 175 113 147 180
374 663 174 111 146 178
374 663 175 110 144 176
375 663 175 114 147 178
368 665 167 147 178 210
369 665 167 136 171 205
368 666 166 138 173 207
368 666 167 144 176 209
368 667 166 130 167 203
369 666 167 136 171 205
369 667 166 130 167 202
370 666 167 135 169 203
370 667 166 134 169 203
370 667 167 136 168 202
371 666 167 137 168 200
371 667 167 133 164 195
368 668 165 142 176 209
368 669 165 135 170 205
369 669 165 140 174 207
368 668 166 139 174 208
369 668 166 136 171 205
369 669 166 141 174 207
368 670 165 133 170 205
368 671 165 131 168 201
369 670 165 142 175 207
369 671 165 145 174 202
370 669 165 147 178 209
370 668 166 141 174 206
370 669 166 149 179 209
371 668 166 129 161 192
371 668 167 128 160 192
371 669 166 146 172 199
370 670 165 151 177 204
370 671 165 147 163 183
371 670 165 159 171 189
371 671 165 142 130 145
371 670 166 161 175 193
372 667 167 138 165 195
373 667 167 134 153 181
372 668 167 140 164 191
372 669 166 141 159 182
373 668 167 122 137 164
373 669 166 125 125 144
373 669 167 134 148 173
372 670 165 143 131 142
372 671 165 139 83 100
373 671 165 158 85 100
372 670 166 143 147 162
373 670 166 137 107 120
374 668 167 105 110 135
374 669 166 104 74 91
374 669 167 104 86 109
375 669 167 118 114 134
374 671 165 155 61 78
374 670 166 134 71 90
374 671 166 149 57 76
375 670 166 138 94 113
375 670 167 125 106 123
375 671 166 147 85 100
368 664 168 140 175 209
368 664 169 147 181 216
368 665 168 147 178 211
369 664 168 138 174 210
369 664 169 140 176 212
369 665 168 134 170 205
370 664 169 131 167 201
370 665 168 131 166 200
370 665 169 133 167 201
371 665 168 133 167 200
371 665 169 134 167 199
370 664 170 126 162 197
371 664 170 125 161 194
371 664 171 123 159 193
371 665 170 134 167 199
370 666 168 135 169 202
371 666 168 135 166 198
372 665 169 139 170 202
372 664 171 129 160 191
372 665 170 135 166 198
372 665 171 130 161 193
373 664 171 141 165 192
373 665 170 130 160 191
373 665 171 130 158 187
372 666 168 140 169 199
372 666 169 138 169 200
372 667 168 144 169 198
373 666 169 145 171 202
373 667 168 157 175 200
373 667 169 165 183 207
373 666 170 128 160 193
374 665 171 126 156 186
375 665 171 129 159 189
374 667 168 153 166 191
374 667 169 141 165 195
375 667 169 119 149 181
374 666 170 117 152 185
374 666 171 124 155 185
375 666 170 109 147 181
375 666 171 124 155 187
375 667 170 108 146 179
372 664 172 137 165 195
373 664 172 162 181 204
373 664 173 180 196 218
373 665 172 133 158 185
374 664 172 161 178 202
374 664 173 161 182 207
374 665 172 136 160 188
375 664 173 140 165 194
375 665 172 133 160 189
375 665 173 136 162 191
374 664 174 126 156 187
375 664 174 121 152 182
375 664 175 118 150 181
374 668 168 134 144 169
375 668 168 136 152 176
375 668 169 124 151 180
375 669 168 133 144 164
376 669 167 133 146 165
376 670 166 144 134 146
376 670 167 138 144 158
376 671 166 146 136 146
377 670 167 145 162 183
377 671 166 145 158 177
377 671 167 147 162 182
378 671 167 136 163 193
379 671 167 125 160 192
376 667 169 122 152 182
376 666 171 130 160 189
376 667 170 120 153 183
376 667 171 127 157 187
377 666 171 127 156 186
377 667 170 136 162 189
377 667 171 132 159 188
378 667 171 130 158 187
376 665 172 131 159 189
376 665 173 131 159 189
376 664 174 131 159 188
376 664 175 128 157 186
376 665 174 132 160 189
376 665 175 132 159 189
377 665 174 131 159 189
377 665 175 130 158 188
376 666 172 128 157 187
376 666 173 126 156 187
377 666 172 113 147 179
377 666 173 113 148 180
377 667 172 110 145 178
377 666 174 125 155 186
378 665 175 135 161 190
378 666 173 113 147 179
378 667 172 124 154 184
378 667 173 117 150 182
379 667 173 124 155 186
378 666 174 126 155 186
378 666 175 134 161 190
379 666 175 127 157 188
379 667 174 122 154 186
379 667 175 116 151 184
376 668 168 136 157 181
376 668 169 134 159 185
376 669 168 135 153 174
377 668 169 141 164 190
377 669 168 139 161 186
377 669 169 135 160 187
377 668 170 138 163 190
377 668 171 137 162 190
377 670 168 138 161 186
378 669 168 117 149 180
378 669 169 114 148 180
378 668 170 133 159 188
378 668 171 131 158 187
378 669 170 118 151 183
379 668 171 121 153 184
379 669 170 107 146 181
379 669 171 112 149 182
378 670 168 118 151 183
378 670 169 96 139 175
378 671 168 114 151 186
379 670 168 108 148 184
379 670 169 101 143 179
379 671 168 114 151 185
379 670 170 98 142 179
379 668 172 124 154 185
379 668 173 123 154 185
380 667 174 116 151 185
380 667 175 110 149 184
380 669 170 96 140 177
380 669 171 102 143 178
381 669 171 108 146 180
380 670 169 113 148 182
380 671 168 114 149 182
380 671 169 119 150 181
381 671 169 121 149 178
380 670 170 104 143 179
381 670 170 115 147 180
381 670 171 116 150 183
381 671 170 122 149 179
381 671 171 126 155 185
382 671 170 123 150 179
382 671 171 127 155 184
383 671 171 124 154 184
380 668 172 116 150 183
380 668 173 123 155 186
380 669 172 114 150 183
381 669 172 121 154 186
381 669 173 134 161 191
380 668 174 123 156 188
380 668 175 117 153 187
381 668 174 137 164 195
381 668 175 143 170 200
381 669 174 144 168 197
381 670 172 129 158 188
382 668 175 136 162 190
382 669 174 139 163 189
382 669 175 124 152 180
383 669 175 131 155 181
382 670 172 151 173 199
382 670 173 157 176 201
382 671 172 142 167 195
383 670 173 162 179 201
383 671 172 146 170 197
383 671 173 161 179 202
382 670 174 156 175 196
383 670 174 151 170 193
383 670 175 137 157 181
368 659 176 155 181 210
368 659 177 147 175 206
369 659 177 144 173 204
368 658 178 159 185 215
368 658 179 152 180 210
368 659 178 148 176 207
369 658 179 145 174 204
369 659 178 145 174 204
369 659 179 146 174 203
370 659 177 144 171 201
370 658 179 146 172 202
370 659 178 144 172 202
370 659 179 141 169 199
371 659 178 145 173 202
371 659 179 140 169 199
368 657 180 152 181 211
368 657 181 145 173 203
369 657 180 139 167 197
369 657 181 132 159 188
368 656 182 145 169 199
368 656 183 145 170 200
369 656 182 137 162 189
369 656 183 143 166 192
369 657 182 138 160 186
368 658 180 150 179 209
369 658 180 137 165 194
370 657 181 132 156 182
370 656 183 150 169 193
370 657 182 142 162 185
370 657 183 149 168 191
371 657 182 147 166 190
371 657 183 143 165 191
370 658 180 125 155 185
370 658 181 129 154 181
370 659 180 130 160 191
371 658 180 123 152 182
371 658 181 132 156 183
371 659 180 127 157 188
371 659 181 124 151 180
371 658 182 145 165 189
368 660 176 158 183 212
369 660 176 149 176 207
369 660 177 144 173 204
370 660 176 134 163 194
370 660 177 139 167 196
370 661 176 127 158 190
371 660 177 139 165 193
371 661 176 123 155 187
371 661 177 130 158 187
371 660 178 146 171 199
371 660 179 149 175 204
372 658 181 129 154 181
372 659 180 121 153 185
372 659 181 125 153 183
373 659 181 126 155 186
372 658 182 138 161 188
372 658 183 133 161 191
372 659 182 133 159 187
373 658 183 132 161 192
373 659 182 139 165 195
373 659 183 142 170 201
374 659 182 146 173 203
374 659 183 143 172 202
375 659 183 144 173 204
372 661 176 127 157 187
372 661 177 128 156 184
373 661 177 134 159 188
372 660 178 156 178 203
372 660 179 151 176 204
372 661 178 137 160 186
373 660 178 166 185 210
373 660 179 143 170 198
373 661 178 152 173 199
373 661 179 135 163 193
372 662 176 132 160 190
373 662 176 125 155 185
373 662 177 127 155 184
374 661 178 135 161 188
374 661 179 125 154 185
375 661 179 132 159 187
374 662 176 127 155 184
374 662 177 130 156 185
374 663 176 123 152 182
375 662 177 135 160 187
375 663 176 129 156 185
375 663 177 134 159 187
374 662 178 140 163 189
375 662 178 134 159 187
375 662 179 133 159 188
372 660 180 126 157 189
373 660 180 120 153 185
373 660 181 125 156 187
373 660 182 136 164 194
374 660 180 121 153 185
374 660 181 127 158 189
374 661 180 122 153 185
375 661 180 128 157 188
375 661 181 125 157 189
374 660 182 139 167 198
374 660 183 144 172 203
375 660 182 133 164 196
375 660 183 145 175 205
375 661 182 125 158 191
369 656 184 153 173 197
370 656 184 150 170 194
370 656 185 141 163 188
371 656 184 142 164 191
371 656 185 137 160 186
371 657 184 140 163 190
371 657 185 131 157 185
371 656 186 146 165 190
371 656 187 145 166 191
371 656 188 143 166 192
372 657 184 124 154 185
372 657 185 137 162 191
373 657 185 148 172 201
372 656 186 147 169 195
372 656 187 152 173 198
372 657 186 149 172 198
373 657 186 155 178 205
373 657 187 156 179 206
372 658 184 119 151 184
373 658 184 128 160 192
373 658 185 149 174 204
374 657 187 135 168 202
374 658 184 140 170 201
374 658 185 148 176 206
374 659 184 144 173 204
375 658 185 135 171 206
375 659 184 148 178 209
375 659 185 139 173 208
374 658 186 139 172 205
374 658 187 120 161 198
375 658 186 119 162 200
375 658 187 114 160 199
375 659 186 126 167 204
372 656 188 150 173 200
372 656 189 149 174 202
373 656 188 156 179 206
373 656 189 155 179 207
373 657 188 157 180 207
373 656 190 157 182 210
374 656 189 147 178 209
374 657 188 144 175 207
374 657 189 132 170 205
375 657 188 119 163 201
375 657 189 128 168 204
374 656 190 131 168 202
374 656 191 104 144 185
375 656 190 103 146 186
375 656 191 88 114 170
375 657 190 109 149 188
375 658 188 124 167 204
375 660 184 153 182 213
376 663 176 125 154 184
376 663 177 124 153 183
377 663 177 116 149 180
376 662 178 132 159 188
376 662 179 131 159 188
376 663 178 129 157 185
377 662 179 133 162 192
377 663 178 127 156 186
377 663 179 140 168 197
378 663 179 154 178 207
376 661 180 126 156 187
376 661 181 118 154 188
376 660 183 156 185 215
376 661 182 130 164 198
376 661 183 150 181 212
377 661 182 148 179 213
377 661 183 161 189 220
376 662 180 128 159 190
376 662 181 119 155 189
377 662 180 134 165 197
377 662 181 145 175 208
377 663 180 147 175 206
377 662 182 158 186 217
378 661 183 157 184 214
378 663 180 159 183 211
378 663 181 165 188 215
379 663 181 165 185 211
378 662 182 161 186 215
378 662 183 154 180 210
378 663 182 161 185 213
379 662 183 143 170 200
379 663 182 148 173 201
379 663 183 136 165 196
380 663 182 152 176 204
380 663 183 155 181 210
381 663 183 170 193 220
376 659 185 147 180 213
376 658 187 145 180 214
376 659 186 150 182 215
376 659 187 163 190 220
377 659 186 157 184 214
377 659 187 167 190 216
378 659 187 158 182 210
376 657 189 128 159 192
376 656 191 83 103 156
376 657 190 107 130 171
376 657 191 94 109 158
377 657 190 114 126 168
377 657 191 89 100 152
376 658 188 160 187 216
376 658 189 140 166 197
377 658 188 154 177 204
377 658 189 133 151 185
377 659 188 158 180 207
377 658 190 118 132 173
378 658 189 127 144 183
378 659 188 149 172 203
378 659 189 128 151 188
379 659 188 141 164 199
379 659 189 112 140 182
378 658 190 104 126 171
378 658 191 80 98 156
379 658 190 88 116 165
379 658 191 86 110 164
379 659 190 92 123 172
376 660 184 160 188 219
376 660 185 158 186 218
377 660 184 161 188 219
377 660 185 150 180 212
377 661 184 154 183 216
377 660 186 151 179 209
378 660 185 142 174 207
378 661 184 150 178 210
378 661 185 150 179 211
379 661 185 165 188 217
378 660 186 149 177 208
378 660 187 152 178 208
379 660 186 153 178 209
379 660 187 143 168 202
379 661 186 163 184 213
378 662 184 150 176 206
379 662 184 152 177 206
379 662 185 160 184 212
379 660 188 132 159 195
380 659 189 91 125 171
380 659 190 91 121 168
380 659 191 87 115 167
381 659 190 98 124 170
381 659 191 96 122 171
380 661 185 172 193 219
380 661 186 168 189 215
380 661 187 148 173 204
381 661 186 164 186 212
381 661 187 141 168 197
380 662 184 160 184 213
380 662 185 170 191 218
380 663 184 163 188 217
381 662 185 177 195 220
381 663 184 176 196 222
381 663 185 174 194 220
381 662 186 167 187 214
382 661 187 132 162 192
382 662 185 173 193 220
382 663 184 174 194 219
382 663 185 170 192 219
383 663 184 161 187 217
383 663 185 155 184 215
382 662 186 159 183 211
382 662 187 139 166 196
383 662 186 141 171 201
383 662 187 130 159 189
383 663 186 131 163 195
380 660 188 126 156 190
380 660 189 104 136 177
380 661 188 139 166 197
381 660 188 129 156 189
381 660 189 111 141 176
381 661 188 126 154 186
380 660 190 101 132 173
381 660 190 102 130 170
381 660 191 102 126 172
382 660 189 97 130 168
382 661 188 116 149 182
382 661 189 100 134 170
383 661 188 116 147 180
383 661 189 110 141 177
382 660 190 92 125 166
382 660 191 98 124 171
383 660 190 99 130 174
383 660 191 105 127 177
383 661 190 99 132 172
383 661 191 107 132 179
383 662 188 124 152 183
376 664 176 118 149 180
376 664 177 106 142 175
377 664 176 123 154 185
377 664 177 121 152 184
377 665 176 130 158 188
377 664 178 131 159 189
378 665 176 141 166 194
378 665 177 145 169 198
379 665 177 146 172 201
378 664 178 147 172 200
378 664 179 150 176 204
378 665 178 149 174 202
379 664 179 141 169 200
379 665 178 139 167 197
379 665 179 130 162 194
379 666 176 136 164 194
379 666 177 140 168 198
378 664 180 163 185 211
379 664 180 151 176 205
379 664 181 163 183 210
380 665 178 135 166 197
380 665 179 127 160 193
381 665 179 138 165 196
380 666 176 130 161 193
380 666 177 142 170 200
380 667 176 125 158 191
380 667 177 144 170 199
381 667 176 143 170 199
381 667 177 146 169 196
380 666 178 143 170 200
381 666 178 143 166 194
381 666 179 141 164 193
381 667 178 145 166 193
382 666 179 138 161 190
382 667 178 155 173 200
382 667 179 142 165 193
383 667 178 164 184 211
383 667 179 147 173 204
380 664 180 146 172 201
380 664 181 158 180 206
380 665 180 138 167 198
380 665 181 158 180 206
381 665 180 151 174 201
381 665 181 167 184 208
380 664 182 163 184 210
381 664 182 169 187 210
381 664 183 174 194 218
381 665 182 170 185 206
381 666 180 152 174 200
382 665 181 171 188 211
383 665 181 170 190 217
382 664 182 173 189 211
382 664 183 182 198 221
382 665 182 177 191 213
383 664 183 186 204 228
383 665 182 169 190 216
383 665 183 176 196 223
382 666 180 142 165 193
382 666 181 155 176 202
383 666 180 149 174 203
383 666 181 157 181 210
383 667 180 150 177 207
381 668 176 143 170 199
382 668 176 140 165 192
382 668 177 146 168 195
382 669 176 129 155 182
383 668 177 151 172 199
383 669 176 149 169 195
383 669 177 158 177 204
382 668 178 156 176 204
383 668 178 163 184 212
382 664 184 177 195 218
383 664 184 171 194 222
