ply
format ascii 1.0
comment Version 2, Copyright 2017, 8i Labs, Inc.
comment frame_to_world_scale 0.179523
comment frame_to_world_translation -45.2095 7.18301 -54.3561
comment width 1023
element vertex 1244
property float x
property float y
property float z
property uchar red
property uchar green
property uchar blue
end_header
384 640 115 13 66 118
384 641 114 13 68 120
384 641 115 11 64 119
385 640 115 8 58 113
385 641 115 11 63 117
384 642 114 44 85 122
384 643 114 105 122 141
385 642 114 49 84 120
385 642 115 40 74 118
385 643 114 66 90 117
385 643 115 46 73 109
386 641 115 23 62 115
386 642 115 30 65 112
386 643 115 41 70 110
387 643 115 25 61 109
384 640 116 9 64 113
385 640 116 9 61 110
386 640 116 10 60 106
386 640 117 14 63 103
386 641 116 12 57 109
387 640 117 18 64 103
387 641 116 9 58 104
387 641 117 10 61 104
387 640 118 18 63 100
386 642 116 13 58 108
387 642 116 12 59 109
387 643 116 18 58 111
384 644 114 119 134 152
384 645 114 91 113 136
385 644 114 61 87 114
385 645 114 82 100 126
384 646 114 128 136 152
384 647 114 117 125 150
385 646 114 106 118 142
385 647 114 77 92 132
386 644 114 34 69 109
386 644 115 32 66 108
386 645 114 53 80 121
387 644 115 32 68 113
387 645 115 27 68 118
386 646 114 57 81 127
386 647 114 46 72 130
387 646 114 30 69 125
387 646 115 21 64 123
387 647 114 31 68 132
387 647 115 22 66 128
388 641 117 11 59 103
388 640 118 23 64 101
388 640 119 18 63 97
388 641 118 16 62 100
389 640 119 23 65 96
389 641 118 21 63 95
389 641 119 26 66 91
388 642 116 14 56 107
388 642 117 12 58 103
388 643 116 15 55 108
389 642 117 22 61 96
389 643 116 22 57 105
389 643 117 22 59 100
389 642 118 24 63 91
390 641 119 29 66 88
391 641 119 30 65 89
390 643 117 21 62 95
390 642 118 28 65 89
390 642 119 31 65 89
390 643 118 25 63 92
391 642 118 34 66 91
391 642 119 33 66 90
391 643 118 21 59 91
388 644 115 28 64 111
388 645 115 21 63 113
389 644 115 25 63 107
389 645 115 31 67 105
388 646 115 28 67 118
388 647 115 34 68 122
389 646 115 42 74 107
389 647 115 45 75 111
390 647 115 39 70 108
388 644 116 22 59 108
389 644 116 26 62 102
389 644 117 21 61 99
389 645 116 35 68 102
389 646 116 46 72 105
390 644 117 26 63 98
390 645 116 33 64 103
390 645 117 28 63 100
391 644 117 23 59 97
391 645 116 28 60 107
391 645 117 25 59 103
391 644 118 22 58 94
390 646 116 37 66 107
390 647 116 39 69 112
391 646 116 27 59 112
391 647 116 30 62 118
389 640 120 28 68 96
390 640 120 33 68 92
390 640 121 34 70 94
390 641 120 32 66 89
391 640 121 30 70 96
391 641 120 30 67 91
391 641 121 28 68 93
391 640 122 32 72 100
384 648 114 81 96 148
384 649 114 48 77 151
385 648 114 63 79 139
385 649 114 42 66 137
384 650 114 52 72 149
384 651 115 62 75 145
385 650 114 56 73 139
385 651 114 78 89 140
385 651 115 87 96 138
386 648 114 37 66 132
386 649 114 42 68 132
387 648 114 26 63 128
387 648 115 27 66 125
387 649 114 44 72 130
387 649 115 43 71 126
386 650 114 61 81 135
386 651 114 73 86 134
386 651 115 68 84 130
387 650 114 61 82 133
387 650 115 62 83 129
387 651 115 68 86 126
384 652 115 65 78 138
384 653 115 87 97 141
385 652 115 81 89 125
385 653 115 97 101 127
385 654 115 94 100 126
386 652 115 80 91 128
386 653 115 79 90 123
387 652 115 70 87 124
387 653 115 67 83 122
386 654 115 69 83 118
387 654 115 66 83 122
384 654 116 78 96 140
384 655 116 48 79 139
385 654 116 83 93 121
385 655 116 76 90 124
386 654 116 75 87 116
386 655 116 71 87 121
387 655 116 67 84 122
388 648 115 31 65 118
388 649 115 45 71 118
389 648 115 36 69 111
389 649 115 35 69 114
388 650 115 53 76 117
388 651 115 67 85 118
389 650 115 49 76 115
389 651 115 65 84 115
390 648 115 34 70 113
390 649 115 36 73 121
390 650 115 38 73 119
390 651 115 45 72 113
390 648 116 37 71 118
391 648 116 30 64 120
391 649 116 45 69 123
391 650 116 48 72 120
391 651 116 48 68 111
388 652 115 66 84 113
388 653 115 67 83 115
389 652 115 62 80 108
389 653 115 68 84 109
388 654 115 66 82 118
389 654 115 64 81 109
390 652 115 58 77 110
390 653 115 66 82 108
388 655 116 60 79 117
389 654 116 58 78 106
389 655 116 64 82 112
390 652 116 61 77 108
390 653 116 63 78 102
391 652 116 55 71 105
391 653 116 69 67 101
390 654 116 62 78 101
390 655 116 69 82 106
391 654 116 83 65 106
391 655 116 86 65 102
392 642 119 32 67 92
392 643 118 27 58 90
392 643 119 30 63 90
393 643 119 44 72 96
392 644 117 26 58 94
392 645 117 21 56 99
393 645 117 31 66 97
392 644 118 28 59 90
392 644 119 37 63 88
392 645 118 23 60 92
393 644 118 42 68 90
393 644 119 48 71 93
393 645 118 40 68 94
393 645 119 52 73 96
392 646 116 20 55 113
392 646 117 20 54 109
392 647 116 25 55 116
392 647 117 26 52 112
393 646 117 33 61 102
393 647 117 47 60 105
393 646 118 46 70 99
394 644 119 48 72 94
394 645 119 45 68 92
395 645 119 40 59 84
394 647 117 56 65 98
394 646 118 46 66 94
394 647 118 55 63 93
395 646 118 44 59 84
395 646 119 44 58 80
395 647 118 50 58 86
396 646 119 42 53 80
396 647 118 43 53 79
396 647 119 42 51 79
397 646 119 45 55 82
397 647 119 43 55 85
392 640 121 31 70 96
392 641 120 29 68 93
392 641 121 32 70 96
393 641 121 39 72 101
392 640 122 35 75 104
393 640 122 35 76 108
393 640 123 29 74 107
393 641 122 38 75 108
392 642 120 32 68 91
393 642 120 38 70 96
393 642 121 33 75 107
393 643 120 40 73 100
394 640 123 29 73 109
394 641 122 31 74 108
394 641 123 27 75 112
395 641 123 24 71 109
394 642 121 30 76 111
394 643 120 39 73 102
394 643 121 31 73 103
395 643 121 30 66 96
394 642 122 29 74 109
395 642 122 26 70 105
395 642 123 29 68 105
395 643 122 27 66 99
394 640 124 22 75 113
394 640 125 29 76 111
395 640 125 32 75 110
395 641 124 24 71 109
395 640 126 27 73 107
394 644 120 37 69 94
395 644 120 29 61 88
395 644 121 26 62 91
395 645 120 33 58 84
396 642 123 31 62 95
396 643 122 34 61 92
396 643 123 39 60 88
397 643 123 41 52 83
396 640 125 25 68 103
396 641 124 28 62 96
396 641 125 31 65 97
397 641 125 30 57 83
396 640 126 31 68 99
397 640 126 44 67 93
397 640 127 55 75 98
397 641 126 47 68 89
397 641 127 62 79 100
396 642 124 29 60 93
397 642 124 36 55 83
397 642 125 44 59 82
397 643 124 44 52 83
398 641 126 79 87 100
398 641 127 80 94 109
399 641 127 106 121 137
398 642 125 77 89 106
398 643 124 57 67 88
398 643 125 76 90 106
399 643 124 79 94 112
399 643 125 87 105 122
398 642 126 88 98 113
399 642 126 96 113 131
399 642 127 108 122 139
399 643 126 90 112 132
396 644 121 35 59 86
396 645 120 43 57 85
396 645 121 40 60 88
397 645 121 45 61 80
396 644 122 37 61 89
397 644 122 44 58 84
397 644 123 42 54 82
397 645 122 45 60 78
396 646 120 44 55 82
397 646 120 46 61 82
397 646 121 47 61 79
397 647 120 34 52 81
398 644 122 49 54 74
398 644 123 56 63 83
398 645 122 49 58 76
399 644 123 82 94 110
399 645 122 57 73 92
399 645 123 68 87 106
398 646 121 43 54 76
398 647 120 35 44 74
399 646 121 43 61 86
399 647 120 42 44 76
399 647 121 42 57 84
399 646 122 49 73 96
399 644 124 98 112 129
392 648 116 43 61 116
392 649 116 68 51 110
393 648 116 70 48 105
393 648 117 65 51 96
393 649 116 89 28 91
392 650 116 84 52 105
392 651 116 89 53 99
393 650 116 97 36 87
393 651 116 99 44 88
394 648 117 68 52 86
394 649 117 82 49 91
395 648 117 57 54 86
395 649 117 65 58 97
395 648 118 49 55 80
394 650 117 88 55 97
394 651 117 83 57 103
395 650 117 64 56 99
395 651 117 67 43 98
392 652 116 84 63 107
392 653 116 73 68 125
393 652 116 87 63 114
393 653 116 60 75 142
392 654 116 71 70 138
392 655 116 71 70 138
393 654 116 42 74 152
393 655 116 41 75 156
394 652 117 73 64 123
394 653 116 58 75 144
394 653 117 65 70 135
395 652 117 70 43 105
395 653 117 74 46 106
394 654 116 50 61 136
394 654 117 57 58 127
394 655 116 57 61 132
395 654 117 80 37 102
395 655 116 84 34 101
395 655 117 91 36 95
396 649 117 57 50 89
396 648 118 44 51 78
396 649 118 51 47 86
397 648 118 47 60 88
397 648 119 39 57 87
397 649 118 46 62 93
396 650 117 62 50 96
396 651 117 65 56 106
397 650 117 50 67 103
397 651 117 48 68 110
397 650 118 44 67 101
398 648 118 38 57 86
398 648 119 41 46 73
398 649 118 48 48 76
398 649 119 47 45 68
399 648 119 48 48 67
399 649 118 54 44 65
399 649 119 59 57 76
398 651 117 58 54 94
398 650 118 56 47 80
398 651 118 62 45 83
399 650 118 60 44 70
399 651 118 72 51 78
396 652 117 59 59 115
396 653 117 67 69 124
397 652 117 52 69 121
397 653 117 57 67 126
396 654 117 64 64 127
396 655 117 72 60 125
397 654 117 50 50 123
397 655 117 63 59 128
398 652 117 75 48 89
398 653 117 76 38 86
399 652 117 81 65 91
399 653 117 86 74 98
398 652 118 77 42 77
399 652 118 81 54 83
398 654 117 76 31 86
398 655 117 81 38 86
399 654 117 82 67 97
399 655 117 66 69 103
399 648 120 56 57 77
384 656 116 38 72 144
384 657 116 33 70 140
384 657 117 18 63 142
385 656 116 77 95 134
385 657 116 57 81 133
385 657 117 41 71 136
384 658 117 16 61 141
384 659 117 17 59 138
385 658 117 32 65 136
385 659 117 22 60 136
386 656 116 67 85 120
386 657 116 61 81 124
387 656 116 60 78 118
387 657 116 65 81 121
386 658 117 51 74 130
386 659 117 38 67 132
387 658 117 54 74 123
387 659 117 46 70 126
384 660 117 21 56 137
384 661 117 21 54 136
385 660 117 18 58 137
385 661 117 16 56 138
384 661 118 41 64 138
385 661 118 21 55 137
384 662 118 61 80 139
384 663 118 59 80 135
384 663 119 64 85 135
385 662 118 26 58 136
385 663 118 47 71 135
386 660 117 27 63 133
386 661 117 23 60 133
387 660 117 39 66 127
387 661 117 37 69 126
387 662 117 41 73 125
386 662 118 22 58 134
386 663 118 26 57 136
387 662 118 32 66 128
387 663 118 28 63 131
388 656 116 65 80 121
388 657 116 62 76 118
389 656 116 64 83 113
389 657 116 62 81 113
388 658 116 60 74 119
388 658 117 56 71 119
388 659 117 56 71 122
389 658 116 64 81 115
389 658 117 60 77 115
389 659 117 54 72 114
390 656 116 64 78 106
390 657 116 70 75 108
391 656 116 83 59 97
391 657 116 92 67 115
390 658 116 72 72 108
390 659 117 67 70 108
391 658 116 80 65 121
391 659 116 85 77 134
391 659 117 80 72 124
388 660 117 48 68 122
388 661 117 48 73 122
389 660 117 52 72 120
389 661 117 46 68 124
388 662 117 52 77 125
389 662 117 41 65 122
388 662 118 51 77 125
388 663 118 36 70 123
389 663 118 41 67 117
390 660 117 57 67 116
390 661 117 44 69 127
391 660 117 69 75 132
391 661 117 55 83 146
390 662 117 48 82 138
390 663 117 75 106 152
391 662 117 61 96 156
391 663 117 78 106 162
390 663 118 65 96 140
391 663 118 80 107 163
384 664 119 60 83 133
384 665 119 37 70 129
385 664 118 54 75 132
385 664 119 60 81 129
385 665 119 43 69 124
385 666 119 44 70 124
385 667 119 37 65 119
386 664 118 32 58 134
386 664 119 43 65 133
386 665 119 44 65 132
387 664 118 28 59 134
387 665 118 32 59 136
387 665 119 37 64 136
386 666 119 48 70 128
386 667 119 34 65 118
387 666 119 34 63 133
387 667 119 30 63 124
386 668 119 19 57 108
386 669 119 23 57 99
387 668 119 20 57 110
387 669 119 32 60 103
387 670 119 34 63 102
387 671 119 23 58 103
388 664 118 29 65 126
388 665 118 27 59 132
389 664 118 41 69 117
389 665 118 27 59 126
388 666 118 23 57 134
388 666 119 24 57 134
388 667 119 27 59 131
389 666 118 16 51 133
389 667 119 14 58 133
390 664 118 61 95 140
390 665 118 41 83 140
391 664 118 77 105 161
391 665 118 63 95 155
390 666 118 46 83 147
390 667 118 40 79 146
390 667 119 42 81 146
391 666 118 66 93 155
391 667 118 63 91 155
391 667 119 58 87 153
388 668 119 27 59 122
388 669 119 38 63 116
389 668 119 23 63 131
389 669 119 30 68 126
388 670 119 29 59 109
388 671 119 13 51 102
389 670 119 21 66 122
389 671 119 24 68 120
390 668 119 45 80 144
390 669 119 55 86 145
391 668 119 44 79 147
391 669 119 44 79 147
390 670 119 58 88 144
390 671 119 66 95 148
391 670 119 41 78 147
391 671 119 46 80 148
384 665 120 35 65 132
384 666 120 29 64 132
384 667 120 26 64 133
385 666 120 39 68 127
385 667 120 31 65 123
384 668 120 24 61 135
384 669 120 26 61 138
385 668 120 22 55 124
385 669 120 28 58 128
384 670 120 26 58 137
384 671 120 30 56 134
385 670 120 34 58 131
385 671 120 35 58 133
386 668 120 23 57 113
386 669 120 21 57 109
386 670 120 33 64 113
386 671 120 33 64 120
392 656 116 79 66 131
392 657 116 73 78 142
393 656 116 44 81 155
393 657 116 38 77 154
392 658 116 60 81 151
392 659 116 61 83 154
392 659 117 48 80 157
393 658 116 39 73 155
393 658 117 36 73 153
393 659 117 30 74 154
394 656 116 54 61 126
394 657 116 45 58 131
395 656 116 76 35 91
395 656 117 84 40 91
395 657 116 69 38 102
395 657 117 61 47 116
394 658 116 46 72 148
394 658 117 43 69 144
394 659 117 41 75 151
395 658 117 39 53 134
395 659 117 40 68 146
392 660 117 51 83 157
392 661 117 55 89 159
393 660 117 26 74 155
393 661 117 38 79 155
392 662 117 50 85 156
392 663 117 46 83 154
393 662 117 38 75 153
392 663 118 34 72 150
393 662 118 22 67 148
393 663 118 24 66 148
394 660 117 31 76 154
394 661 117 33 76 154
395 660 117 35 71 149
395 661 117 31 71 150
395 661 118 31 68 147
394 662 117 35 74 152
394 662 118 35 76 152
394 663 118 33 74 149
395 662 118 34 70 146
395 663 118 50 79 149
396 656 117 65 65 127
396 657 117 54 68 133
397 656 117 63 56 119
397 657 117 73 55 114
396 658 117 48 67 134
396 659 117 36 59 132
397 658 117 73 43 104
397 659 117 73 27 90
398 656 117 81 32 83
398 657 117 88 30 84
399 656 117 68 60 106
399 657 117 81 81 128
398 658 117 93 36 84
398 659 117 96 36 89
399 658 117 86 91 142
399 659 117 75 92 149
396 660 117 48 62 134
397 660 117 82 31 88
396 660 118 46 59 134
396 661 118 37 53 131
397 661 118 72 25 93
396 662 118 46 60 134
396 663 118 54 68 138
397 662 118 77 39 106
397 663 118 77 46 120
398 660 117 95 69 110
398 661 117 101 89 122
399 660 117 85 117 163
399 661 117 101 134 172
398 661 118 109 102 132
398 662 118 110 107 139
398 663 118 92 95 143
399 662 118 98 132 170
399 663 118 67 109 160
392 664 118 41 75 152
392 665 118 37 74 150
393 664 118 32 70 149
393 665 118 25 70 149
392 666 118 39 76 150
392 667 118 45 77 150
392 667 119 44 79 150
393 666 118 47 83 152
393 667 119 68 100 157
394 664 118 35 75 148
394 665 118 39 78 150
395 664 118 49 80 148
395 665 118 57 85 150
394 666 118 50 83 151
394 666 119 58 88 153
394 667 118 65 93 153
394 667 119 64 95 151
395 666 118 73 99 157
395 666 119 78 100 157
395 667 119 67 93 149
392 668 119 33 76 147
392 669 119 37 81 148
393 668 119 62 98 152
393 669 119 59 98 149
392 670 119 46 87 149
392 671 119 57 89 150
393 670 119 66 101 152
393 671 119 66 97 149
394 668 119 63 99 147
394 669 119 74 105 151
395 668 119 63 84 138
395 669 119 70 77 135
394 670 119 57 91 144
394 671 119 56 88 141
395 670 119 65 63 129
395 671 119 75 69 129
396 664 118 48 64 137
396 665 118 58 69 140
397 664 118 62 30 121
397 665 118 62 45 121
396 666 119 73 80 143
396 667 119 74 69 130
397 666 119 73 66 127
397 667 119 73 78 131
398 664 118 77 85 147
398 665 118 78 99 148
399 664 118 65 100 164
399 665 118 80 115 167
398 666 118 83 111 154
398 666 119 79 107 146
398 667 119 84 116 158
399 666 118 101 132 173
399 667 119 127 149 180
396 668 119 63 57 125
396 669 119 63 45 122
397 668 119 70 82 141
397 669 119 69 83 144
396 670 119 67 49 120
396 671 119 80 69 121
397 670 119 77 93 143
397 671 119 95 111 144
398 668 119 77 109 161
398 669 119 62 99 159
399 668 119 136 150 179
399 669 119 106 128 166
398 670 119 73 106 156
398 671 119 113 131 161
399 670 119 111 133 168
399 671 119 147 157 180
400 643 125 100 117 136
400 642 126 91 114 135
400 642 127 94 116 136
400 643 126 91 113 133
401 642 127 87 109 129
401 643 126 98 118 137
401 643 127 99 116 135
402 643 127 90 112 134
400 645 123 55 88 114
401 645 123 30 81 115
400 646 121 43 70 96
400 647 121 52 78 100
401 647 121 78 100 119
400 646 122 41 75 102
400 646 123 37 78 108
401 646 122 41 78 109
401 646 123 37 77 111
401 647 122 68 96 119
402 646 123 49 83 114
402 647 122 94 112 130
402 647 123 85 107 126
403 647 123 93 110 128
400 644 124 89 109 128
400 644 125 95 114 133
400 645 124 62 96 122
401 644 124 77 104 126
401 644 125 77 106 131
401 645 124 42 87 119
401 645 125 45 89 119
401 644 126 80 107 130
402 645 124 33 77 113
402 645 125 34 83 117
403 645 125 34 78 112
402 644 126 62 96 123
402 644 127 71 100 124
402 645 126 38 85 117
403 644 126 47 91 121
403 644 127 50 92 121
403 645 126 33 82 115
402 646 124 43 82 116
403 646 124 56 87 115
403 646 125 48 84 113
403 647 124 76 103 125
403 647 125 87 109 129
404 644 127 37 84 117
404 645 126 30 76 109
404 645 127 31 76 111
405 645 127 37 78 110
404 646 125 79 104 126
404 647 124 96 111 126
404 647 125 94 109 126
405 647 125 92 109 126
404 646 126 68 98 122
405 646 126 75 101 124
405 646 127 85 107 127
405 647 126 92 108 126
406 645 127 61 89 116
406 646 127 91 109 127
406 647 126 81 97 116
406 647 127 83 100 118
407 646 127 92 106 122
407 647 127 77 96 116
400 649 119 62 77 94
400 650 118 66 73 94
400 650 119 67 84 101
400 651 118 83 94 113
401 650 119 88 105 121
401 651 118 79 105 125
401 651 119 84 107 127
402 651 119 87 108 129
400 653 117 95 113 139
400 652 118 78 98 121
400 653 118 101 125 150
401 652 118 87 115 139
401 652 119 94 116 139
401 653 118 83 116 146
400 654 117 68 103 133
400 655 117 43 94 131
401 654 117 57 104 140
401 655 117 57 105 144
401 654 118 56 104 140
402 652 119 80 106 130
402 653 118 65 105 138
402 653 119 62 100 128
403 652 119 69 98 123
403 653 118 72 109 140
403 653 119 74 107 135
402 655 117 60 107 145
402 654 118 75 113 146
402 655 118 67 109 145
403 654 118 74 109 140
403 655 118 73 110 143
404 653 119 70 105 132
405 653 119 75 107 134
404 654 118 78 109 137
404 654 119 77 108 135
404 655 118 85 114 142
405 654 119 79 105 130
405 655 118 97 121 147
405 655 119 93 118 142
406 655 119 94 116 138
407 655 119 84 109 133
400 648 120 69 85 101
400 649 120 77 89 103
401 648 121 95 109 124
401 649 120 85 98 113
401 650 120 88 104 121
402 648 121 90 101 114
402 649 120 90 104 119
402 649 121 94 107 121
403 649 121 83 100 117
402 648 122 95 107 120
403 648 122 90 102 117
403 648 123 91 104 119
403 649 122 94 108 124
402 650 120 86 104 123
402 650 121 83 102 120
402 651 120 84 105 125
403 650 120 80 101 121
403 650 121 79 97 117
403 651 120 85 102 121
403 652 120 75 100 122
404 648 123 91 105 121
404 649 122 83 100 119
404 649 123 87 105 123
405 649 123 83 103 122
404 650 121 83 100 118
404 651 120 79 98 116
404 651 121 81 98 115
405 651 121 87 102 119
404 650 122 89 106 124
405 650 122 86 101 117
405 650 123 87 102 117
405 651 122 87 100 116
406 651 121 86 104 121
406 650 122 84 99 115
406 650 123 86 102 118
406 651 122 87 104 122
407 651 122 70 94 116
407 651 123 76 99 121
404 648 124 89 102 119
405 648 124 95 111 128
405 648 125 90 108 126
405 649 124 83 104 124
406 648 125 90 109 127
406 649 124 89 107 125
406 649 125 85 106 125
407 649 125 89 106 123
406 648 126 88 106 125
407 648 126 87 106 126
407 648 127 85 106 126
407 649 126 87 106 125
406 650 124 82 101 119
407 650 124 79 98 116
407 650 125 84 102 121
407 651 124 77 99 120
404 652 120 79 103 125
405 652 120 70 98 123
405 652 121 80 101 121
405 653 120 68 102 129
405 654 120 79 103 128
406 652 120 58 88 116
406 652 121 63 91 115
406 653 120 73 101 126
407 652 121 62 91 117
407 653 121 82 103 124
407 652 122 66 93 118
407 652 123 69 95 118
407 653 122 85 103 122
406 654 120 81 105 128
406 655 120 95 115 137
407 654 120 81 103 124
407 654 121 76 97 118
407 655 120 89 111 133
408 648 127 78 101 122
408 649 126 92 108 126
408 649 127 85 106 125
409 648 127 74 99 121
409 649 127 79 101 121
408 650 125 78 97 117
408 651 124 71 96 119
408 651 125 76 100 122
409 651 125 79 102 124
408 650 126 81 99 119
409 650 126 78 98 118
409 650 127 73 96 117
409 651 126 79 102 123
410 648 127 68 95 118
410 649 127 70 95 118
411 649 127 62 90 113
410 650 126 79 101 121
410 650 127 74 98 118
410 651 126 77 99 119
411 650 127 69 94 116
411 651 126 75 97 118
408 653 121 82 98 115
408 652 122 86 105 125
408 652 123 76 98 120
408 653 122 87 103 120
409 652 123 83 103 122
409 653 122 80 98 116
409 653 123 83 100 118
408 654 120 83 104 125
408 654 121 82 100 118
408 655 120 83 105 127
409 654 121 84 101 120
409 655 120 92 110 128
409 655 121 73 95 115
409 654 122 87 102 120
410 653 123 85 101 118
410 655 120 90 106 124
410 655 121 88 105 123
411 655 121 84 100 117
410 654 122 82 99 117
410 654 123 82 99 116
411 654 122 86 102 119
411 654 123 84 101 118
411 655 122 88 103 119
408 652 124 76 99 122
409 652 124 80 100 120
409 652 125 82 102 123
409 653 124 77 96 116
410 652 124 82 103 122
410 652 125 77 99 121
410 653 124 81 100 120
411 652 125 80 101 121
411 653 124 83 102 119
411 653 125 81 104 125
411 652 126 83 102 122
412 649 127 53 83 107
413 649 127 43 72 99
412 650 127 64 89 111
412 651 126 83 104 123
412 651 127 75 97 118
413 650 127 63 88 109
413 651 127 72 95 115
414 649 127 46 78 103
414 650 127 51 81 105
414 651 127 56 86 109
415 650 127 38 77 104
415 651 127 42 77 103
412 654 123 87 101 117
412 655 122 83 98 115
412 655 123 83 99 115
413 655 123 82 98 116
414 655 123 62 86 107
412 652 125 80 100 119
412 653 124 83 101 118
412 653 125 84 102 119
413 653 125 85 99 116
412 652 126 79 100 120
413 652 126 77 98 117
412 654 124 89 102 118
412 654 125 90 103 120
413 654 124 85 99 115
413 654 125 85 96 112
413 655 124 86 101 118
414 653 125 80 95 112
414 652 126 68 91 111
414 652 127 57 84 108
414 653 126 77 94 113
415 652 126 58 82 104
415 652 127 47 76 101
415 653 126 77 96 115
414 654 125 83 99 116
414 655 124 76 96 115
415 654 125 71 93 113
415 655 124 51 79 105
415 655 125 57 84 107
400 656 117 32 93 136
400 657 117 45 102 147
401 656 117 46 101 144
401 657 117 60 112 151
400 658 117 61 107 155
400 659 117 58 100 158
401 658 117 59 111 154
401 659 117 56 101 159
402 656 117 84 122 160
402 657 117 69 117 159
403 657 117 73 118 159
402 656 118 87 122 159
403 656 118 92 126 162
403 657 118 74 117 158
402 658 117 52 108 155
402 659 117 37 94 149
403 658 117 65 114 158
403 659 117 66 114 157
403 658 118 72 118 159
403 659 118 93 131 169
400 660 117 66 104 162
400 661 117 76 113 167
401 660 117 61 96 162
400 661 118 88 123 172
401 661 118 77 108 168
400 662 118 93 126 173
400 663 118 65 107 165
401 662 118 91 120 175
401 663 118 81 116 172
402 660 117 57 96 157
403 660 117 58 101 155
402 660 118 57 96 157
402 661 118 63 95 161
403 660 118 75 113 163
403 661 118 43 88 155
402 662 118 76 105 168
402 663 118 93 121 174
403 662 118 54 92 159
403 663 118 72 106 163
404 656 118 84 120 154
404 657 118 91 126 161
405 656 118 89 121 151
405 657 118 94 122 153
404 658 118 74 116 154
404 659 118 101 133 169
405 658 118 97 124 154
405 659 118 111 136 169
406 656 118 99 124 152
406 656 119 95 119 145
406 657 118 85 111 139
406 657 119 85 107 136
407 656 119 100 120 141
407 657 119 83 107 132
406 658 118 113 132 156
406 659 118 95 122 158
407 658 118 111 132 156
407 658 119 114 134 157
407 659 118 59 101 144
404 660 118 65 108 157
404 661 118 40 86 152
405 660 118 47 96 150
405 661 118 44 86 153
404 662 118 58 95 158
404 663 118 84 114 165
405 662 118 54 94 156
405 663 118 87 117 164
406 660 118 44 87 151
406 661 118 54 95 156
407 660 118 41 83 151
407 661 118 63 102 156
406 662 118 57 101 156
406 663 118 70 109 158
407 662 118 77 114 159
407 663 118 94 125 164
400 664 118 75 110 174
400 665 118 83 118 174
401 664 118 88 120 180
401 665 118 87 117 175
400 666 118 118 140 176
400 667 118 149 160 181
400 667 119 169 172 186
401 666 118 118 136 177
401 667 118 156 163 184
401 667 119 166 172 187
402 664 118 110 134 184
402 665 118 100 127 175
403 664 118 106 132 178
403 665 118 119 142 182
402 666 118 114 134 176
402 667 118 119 137 174
402 667 119 121 139 171
403 666 118 128 146 184
403 667 118 118 140 182
400 668 119 167 170 183
400 669 119 144 151 169
401 668 119 158 165 181
401 669 119 148 155 171
400 670 119 149 156 173
400 671 119 156 161 177
401 670 119 157 161 175
401 671 119 145 152 169
402 668 118 102 126 163
402 668 119 123 140 170
402 669 119 136 147 173
403 668 119 95 124 167
403 669 119 115 135 169
402 670 119 152 159 180
402 671 119 122 138 163
403 670 119 112 131 169
403 671 119 97 119 165
404 664 118 106 133 174
404 665 118 112 137 178
405 664 118 104 131 170
405 665 118 105 132 174
404 666 118 108 133 179
404 667 118 96 122 176
405 666 118 94 119 175
405 667 118 83 107 170
405 667 119 85 104 170
406 664 118 90 122 165
406 665 118 89 119 170
407 664 118 102 127 167
407 665 118 73 107 161
406 666 118 78 106 170
406 667 118 85 108 170
407 666 118 71 102 166
407 667 118 79 105 169
404 668 119 102 128 174
404 669 119 102 129 174
405 668 119 95 115 172
405 669 119 105 128 174
404 670 119 73 109 163
404 671 119 71 103 163
405 670 119 104 131 174
405 671 119 113 135 176
406 668 119 103 120 172
406 669 119 114 130 170
407 668 119 96 115 171
407 669 119 110 123 169
406 670 119 130 145 177
406 671 119 127 144 174
407 670 119 120 130 170
407 671 119 123 135 172
408 656 119 95 114 134
408 657 119 95 118 138
409 657 119 106 122 140
408 658 119 95 121 148
408 659 118 36 91 140
408 659 119 33 87 138
409 658 119 73 104 134
409 659 119 32 83 135
410 657 119 97 116 137
410 658 119 39 85 126
410 659 119 26 80 132
408 660 118 42 84 149
408 661 118 70 105 155
409 660 119 49 89 146
409 661 118 71 106 151
409 661 119 74 107 150
408 662 118 88 119 159
408 663 118 118 140 170
409 662 118 98 125 161
409 662 119 105 129 161
409 663 118 116 138 168
409 663 119 119 139 169
410 660 119 53 94 143
410 661 119 81 112 149
411 660 119 70 105 142
411 661 119 102 126 154
410 662 119 112 133 164
410 663 119 109 132 163
411 662 119 111 132 159
411 663 119 105 128 157
412 660 119 92 119 146
412 661 119 110 130 153
413 661 119 107 127 149
412 662 119 100 124 151
412 663 119 105 129 157
413 662 119 96 122 148
413 663 119 110 131 158
414 662 119 105 127 153
414 663 119 113 131 156
408 656 120 101 118 137
409 656 120 84 103 123
410 656 120 88 105 122
410 657 120 94 113 133
411 656 120 91 109 127
411 656 121 82 101 119
411 657 120 66 98 126
411 657 121 65 95 121
410 658 120 49 88 125
411 658 120 20 76 120
411 659 120 33 83 127
411 660 120 59 98 136
412 656 121 75 96 117
412 657 121 35 79 111
413 657 121 25 72 105
412 656 122 86 102 119
413 656 122 54 81 104
413 656 123 71 91 109
412 658 120 25 76 118
412 658 121 22 75 114
412 659 120 54 92 126
413 658 121 38 80 117
413 659 120 67 99 128
413 659 121 61 95 125
414 657 121 34 75 110
414 656 122 43 76 101
414 656 123 52 81 103
414 657 122 38 77 106
415 656 123 41 77 105
415 657 122 46 82 111
415 657 123 45 80 108
414 658 121 53 88 119
414 659 121 79 106 130
415 658 121 63 93 120
415 659 121 90 113 135
415 658 122 59 92 117
415 659 122 85 109 131
412 660 120 81 110 139
413 660 120 94 117 141
413 661 120 106 125 147
414 660 120 103 123 144
414 660 121 99 120 141
414 661 120 95 117 140
415 660 121 95 117 139
415 661 120 88 114 137
415 661 121 87 113 137
414 662 120 98 122 147
414 663 120 112 130 154
415 662 120 106 126 148
415 663 120 109 125 147
408 664 118 100 128 161
408 665 118 95 126 166
409 664 118 108 133 166
409 665 118 115 138 173
408 666 118 93 124 170
408 667 118 78 108 170
409 666 118 119 142 176
409 667 118 84 121 165
409 667 119 75 110 166
410 664 118 115 137 169
410 664 119 118 140 169
410 665 118 124 143 173
410 665 119 129 146 174
411 664 119 119 139 166
411 665 119 126 142 169
410 666 118 114 137 169
410 667 118 90 124 161
410 667 119 111 136 173
411 666 119 102 126 157
411 667 119 125 144 173
408 668 119 83 106 171
408 669 119 99 115 170
409 668 119 92 119 173
409 669 119 98 117 172
408 670 119 112 121 171
408 671 119 118 127 172
409 670 119 103 115 172
409 671 119 111 122 172
410 668 119 125 144 182
410 669 119 107 127 173
411 668 119 131 149 177
411 669 119 108 133 169
410 670 119 97 116 170
410 671 119 101 120 171
411 670 119 115 136 178
411 671 119 102 128 173
412 664 119 123 139 166
412 665 119 110 130 159
413 664 119 120 135 161
413 665 119 109 128 156
412 666 119 110 130 162
412 667 119 137 149 178
413 666 119 131 144 171
413 667 119 132 146 173
414 664 119 109 126 150
414 665 119 113 131 157
415 664 119 106 125 147
415 665 119 124 137 159
414 666 119 138 150 173
414 667 119 122 140 165
415 666 119 128 141 163
415 667 119 118 138 163
412 668 119 118 139 169
412 669 119 122 144 175
413 668 119 113 136 167
413 669 119 128 147 179
412 670 119 124 146 180
412 671 119 105 133 174
413 670 119 118 143 177
413 671 119 103 133 175
414 668 119 121 143 171
414 669 119 122 144 175
415 668 119 129 147 174
415 669 119 117 139 172
414 670 119 112 138 176
414 671 119 99 129 172
415 670 119 100 130 172
415 671 119 109 135 171
415 664 120 105 123 144
415 665 120 124 137 157
