ply
format ascii 1.0
comment Version 2, Copyright 2017, 8i Labs, Inc.
comment frame_to_world_scale 0.179523
comment frame_to_world_translation -45.2095 7.18301 -54.3561
comment width 1023
element vertex 1354
property float x
property float y
property float z
property uchar red
property uchar green
property uchar blue
end_header
384 708 111 95 98 106
384 709 111 87 88 105
385 709 111 46 54 104
384 710 111 66 66 91
384 711 111 63 62 90
385 710 111 32 43 98
385 711 111 35 42 96
386 710 111 37 41 94
386 711 111 46 51 91
387 711 111 98 110 125
384 712 111 59 55 89
384 713 111 47 48 92
385 712 111 36 42 96
385 713 111 32 40 97
384 714 111 39 44 98
384 715 111 36 40 103
385 714 111 40 39 96
385 715 111 51 47 98
386 712 111 63 67 97
386 713 111 77 82 107
387 712 111 109 122 137
387 713 111 113 127 141
386 714 111 91 98 117
386 715 111 104 116 132
387 714 111 117 130 144
387 715 111 111 123 135
384 716 111 38 36 102
384 717 110 70 60 93
384 717 111 56 48 98
385 716 111 70 73 106
385 717 111 104 112 127
384 718 110 92 88 95
384 719 110 115 111 108
385 718 110 135 137 142
385 718 111 133 139 147
385 719 110 142 139 139
386 716 111 115 128 142
386 717 111 128 134 140
387 716 111 111 115 122
387 717 111 119 87 91
386 718 111 133 117 112
386 719 110 134 103 100
386 719 111 137 65 68
387 718 111 138 35 54
387 719 111 149 18 44
388 712 111 119 133 148
388 713 111 122 132 143
389 712 111 126 135 144
389 713 111 117 114 115
388 714 111 114 119 123
388 715 111 101 95 95
389 714 111 98 71 69
389 715 111 97 39 46
390 713 111 113 50 62
391 713 111 120 17 34
390 714 111 106 14 36
390 715 111 105 28 38
391 714 111 106 32 23
391 715 111 100 54 44
388 716 111 101 60 63
388 717 111 126 28 47
389 716 111 107 8 32
389 717 111 129 17 29
388 718 111 149 17 40
388 719 111 156 48 47
389 718 111 152 30 44
389 719 111 161 66 68
390 716 111 108 32 33
390 717 111 126 29 24
391 716 111 120 75 68
391 717 111 128 36 45
390 718 111 153 27 42
390 719 111 154 26 37
391 718 111 151 20 45
391 719 111 156 27 32
392 714 111 110 47 28
392 715 111 102 53 35
393 715 111 110 32 31
392 716 111 109 44 40
392 717 111 128 19 32
393 716 111 117 25 31
393 717 111 133 22 28
392 718 111 145 22 33
392 719 111 147 22 29
393 718 111 143 23 24
393 719 111 144 27 24
394 717 111 141 25 33
394 718 111 145 29 29
394 719 111 147 30 22
384 704 112 89 91 91
384 705 112 92 93 92
385 704 112 73 66 79
385 705 112 72 66 85
384 706 112 99 100 102
384 707 112 105 107 111
385 706 112 70 70 95
385 707 112 66 72 103
386 704 112 35 31 76
386 704 113 40 45 75
386 705 112 29 32 81
387 704 112 98 108 119
387 704 113 99 107 117
387 705 112 97 107 119
386 706 112 30 37 87
386 707 112 35 41 94
387 706 112 96 107 118
387 707 112 96 106 116
384 708 112 101 104 113
385 708 112 53 63 106
385 709 112 52 61 107
386 708 112 34 40 94
386 709 112 38 42 95
387 708 112 94 104 116
387 709 112 94 106 119
386 710 112 54 61 96
387 710 112 103 115 129
387 711 112 104 117 132
388 704 112 117 123 132
388 704 113 116 122 131
388 705 112 118 124 134
389 704 113 117 121 130
389 705 112 121 126 135
389 705 113 121 126 134
388 706 112 119 126 135
388 707 112 122 130 140
389 706 112 124 129 139
389 707 112 127 133 145
390 704 113 121 124 132
390 705 112 126 131 139
390 705 113 124 128 135
391 704 113 118 125 136
391 705 112 124 132 144
391 705 113 123 129 141
390 706 112 126 131 141
390 707 112 127 133 144
391 706 112 123 131 143
391 707 112 122 132 146
388 708 112 125 133 145
388 709 112 121 130 142
389 708 112 127 135 148
389 709 112 122 132 145
388 710 112 124 133 146
388 711 112 122 134 149
389 710 112 127 136 150
389 711 112 130 139 152
390 708 112 127 136 149
390 709 112 127 138 151
391 708 112 128 137 149
391 709 112 138 142 147
390 710 112 133 141 152
390 711 112 135 138 142
391 710 112 137 127 125
391 711 112 132 94 91
388 712 112 121 134 150
389 712 112 129 136 145
390 712 112 129 119 118
390 713 112 119 86 87
391 712 112 131 52 60
391 713 112 126 20 33
392 704 113 112 122 135
392 705 112 120 131 145
392 705 113 116 126 139
393 704 113 116 125 137
393 705 112 124 135 149
393 705 113 120 129 142
392 706 112 123 135 150
392 707 112 125 137 151
393 706 112 127 138 152
393 707 112 128 135 143
394 704 113 118 126 138
394 705 112 127 136 148
394 705 113 122 130 143
395 704 113 122 130 142
395 705 112 129 136 146
394 706 112 131 136 143
394 707 112 119 111 109
395 706 112 124 120 117
395 707 112 113 63 59
392 708 112 132 136 141
392 709 112 136 119 115
393 708 112 125 120 116
393 709 112 134 79 78
392 710 112 142 70 77
392 711 112 148 25 53
393 710 112 150 26 53
393 711 112 155 27 42
394 708 112 114 74 67
394 709 112 136 29 50
395 708 112 125 15 29
395 709 112 143 18 35
394 710 112 152 21 45
394 711 112 148 47 39
395 710 112 157 36 48
395 711 112 154 50 46
396 704 112 122 131 143
396 704 113 119 127 138
396 705 112 127 130 134
397 704 112 122 126 129
397 704 113 118 125 131
397 705 112 129 112 109
396 706 112 122 81 79
396 707 112 129 19 39
397 706 112 136 43 57
397 707 112 153 11 47
398 704 112 123 110 102
398 704 113 118 117 117
398 705 112 137 67 64
399 704 112 122 91 78
399 704 113 115 92 80
399 705 112 146 39 50
398 706 112 156 42 50
398 707 112 168 62 64
399 706 112 169 71 69
399 707 112 194 120 114
396 708 112 141 9 26
396 709 112 156 29 34
397 708 112 161 19 39
397 709 112 161 25 28
396 710 112 165 43 43
396 711 112 163 44 43
397 710 112 159 31 28
397 711 112 157 24 32
398 708 112 168 28 43
398 709 112 158 9 26
399 708 112 173 39 59
399 709 112 154 12 22
398 710 112 151 10 20
398 711 112 150 14 27
399 710 112 145 15 18
399 711 112 147 21 32
399 711 113 138 27 42
392 712 112 148 20 45
392 713 112 130 26 25
393 712 112 151 44 44
393 713 112 132 33 33
392 714 112 112 43 25
393 714 112 114 18 22
393 715 112 110 21 26
394 712 112 149 72 61
394 713 112 134 40 42
395 712 112 152 64 57
395 713 112 137 25 37
394 714 112 113 9 18
394 715 112 112 11 25
395 714 112 123 2 19
395 715 112 126 13 21
394 716 112 125 19 37
394 717 112 140 26 37
395 716 112 137 25 35
395 717 112 147 34 32
394 718 112 148 27 27
394 719 112 148 29 23
395 718 112 146 37 34
395 719 112 139 34 37
396 712 112 157 34 44
396 713 112 148 15 36
397 712 112 157 21 36
397 713 112 155 33 40
396 714 112 141 13 26
396 715 112 139 18 23
397 714 112 150 36 40
397 715 112 142 43 40
398 712 112 154 32 35
398 713 112 156 42 42
399 712 112 147 39 40
399 712 113 121 37 39
399 713 112 140 41 39
399 713 113 100 32 41
398 714 112 145 46 45
398 715 112 124 45 40
399 714 112 124 30 36
399 714 113 83 33 40
399 715 113 72 42 47
396 716 112 140 31 30
396 717 112 138 41 38
397 716 112 132 43 46
397 717 112 108 30 42
396 718 112 120 39 30
396 719 112 101 29 33
397 718 112 91 27 35
397 719 112 91 36 45
398 716 112 98 34 41
398 717 112 79 33 49
398 717 113 62 34 49
399 716 113 70 55 54
399 717 113 83 73 72
398 718 112 73 33 50
398 718 113 59 40 56
398 719 112 79 44 56
398 719 113 84 67 73
399 718 113 97 92 97
399 719 113 97 94 113
384 720 110 126 121 117
384 721 110 120 114 108
385 720 110 129 117 111
385 721 110 117 64 68
384 722 110 109 84 80
384 723 110 112 49 55
385 722 110 120 23 54
385 723 110 122 24 40
386 720 110 130 42 57
386 720 111 141 17 44
386 721 110 129 8 34
387 720 111 147 16 39
387 721 111 137 6 33
386 722 110 127 26 42
386 723 110 116 43 34
387 722 110 123 25 38
387 722 111 120 20 29
387 723 110 110 39 29
387 723 111 108 34 29
384 724 110 121 29 47
384 725 110 129 13 35
385 724 110 122 34 38
385 725 110 127 25 33
384 726 109 147 16 30
384 727 109 154 30 36
384 726 110 140 13 28
384 727 110 156 35 35
385 726 110 143 23 31
385 727 110 158 25 30
386 724 110 120 68 46
386 725 110 141 72 64
387 724 110 116 58 36
387 724 111 114 42 26
387 725 110 134 43 42
386 726 110 147 18 32
386 727 110 160 23 37
387 726 110 150 19 37
387 726 111 155 12 37
387 727 110 158 24 43
387 727 111 156 20 39
388 720 111 165 89 81
388 721 111 139 29 48
389 720 111 179 121 113
389 721 111 147 51 59
388 722 111 116 12 24
388 723 111 107 23 26
389 722 111 118 8 20
389 723 111 110 13 25
390 720 111 153 53 44
390 721 111 147 32 36
391 720 111 152 34 26
391 721 111 150 23 31
390 722 111 131 24 22
390 723 111 126 22 24
391 722 111 142 32 22
391 723 111 138 25 27
388 724 111 117 29 29
388 725 111 138 31 36
389 724 111 123 27 23
389 725 111 146 37 34
388 726 111 153 15 34
388 727 111 153 20 36
389 726 111 154 28 34
389 727 111 150 24 31
390 724 111 135 26 24
390 725 111 148 30 39
391 724 111 139 25 39
391 725 111 142 27 46
390 726 111 153 26 40
390 727 111 148 17 31
384 728 110 159 44 41
384 729 110 185 82 84
385 728 110 163 22 28
385 729 110 166 27 37
384 730 110 164 26 44
384 731 110 133 21 35
385 730 110 153 14 37
385 731 110 130 27 47
386 728 110 163 27 36
386 729 110 159 23 30
387 728 110 158 21 35
387 728 111 152 25 33
387 729 110 155 23 29
387 729 111 145 24 40
386 730 110 146 21 46
386 730 111 136 31 58
386 731 111 130 62 70
387 730 111 131 45 61
387 731 111 130 87 76
384 732 110 116 20 45
384 733 110 114 48 45
385 732 110 123 43 59
385 732 111 132 71 72
385 733 110 131 74 65
385 733 111 141 96 76
384 734 110 113 73 53
384 735 110 113 117 122
384 735 111 122 126 132
385 734 111 126 91 66
385 735 111 125 126 130
386 732 111 149 112 98
386 733 111 150 120 89
387 732 111 148 120 92
387 733 111 149 119 81
386 734 111 137 109 76
386 735 111 135 128 124
387 734 111 139 107 66
388 728 111 145 23 31
388 729 111 134 28 39
389 728 111 137 24 20
389 729 111 134 48 25
388 730 111 137 72 55
388 731 111 149 111 72
389 730 111 143 81 31
390 728 111 143 24 27
392 720 111 148 25 29
392 721 111 150 26 32
393 720 111 147 24 20
393 721 111 148 31 28
392 722 111 146 26 32
392 723 111 140 28 35
393 722 111 144 34 44
394 720 111 148 30 21
392 724 111 136 29 44
391 725 112 142 28 42
390 727 112 147 12 33
391 726 112 145 14 29
391 727 112 153 25 33
387 733 112 142 107 55
386 735 112 143 131 122
387 734 112 156 127 93
387 735 112 163 142 121
389 729 112 146 77 30
388 731 112 165 126 77
389 730 112 166 112 42
389 731 112 185 134 55
390 728 112 149 38 29
390 729 112 161 78 29
391 728 112 170 53 29
391 729 112 189 87 20
391 729 113 194 114 39
390 730 112 187 119 32
390 731 112 194 138 48
391 730 112 194 123 38
391 730 113 198 131 48
391 731 112 195 138 57
391 731 113 200 144 69
388 732 112 166 129 78
388 733 112 159 121 62
389 732 112 184 138 69
389 733 112 179 136 73
388 734 112 161 127 82
388 735 112 173 145 116
388 735 113 177 148 117
389 734 112 172 136 86
389 734 113 175 142 100
389 735 113 177 147 114
390 732 112 196 146 75
390 733 112 196 150 85
390 733 113 199 155 95
391 732 113 204 156 94
391 733 113 207 166 112
390 734 113 183 149 103
390 735 113 182 150 112
391 734 113 199 164 114
390 735 114 195 161 124
391 734 114 204 165 107
391 735 114 211 168 122
392 723 112 137 28 44
393 722 112 139 31 43
393 723 112 129 24 42
394 720 112 144 34 35
394 721 112 134 34 42
395 720 112 120 31 43
395 721 112 102 18 34
394 722 112 118 24 36
394 723 112 113 18 31
395 722 112 103 14 39
395 723 112 118 30 53
392 724 112 134 29 46
392 725 112 137 15 32
393 724 112 126 16 35
393 725 112 143 26 43
392 726 112 153 20 38
392 727 112 172 39 48
393 726 112 166 31 61
393 727 112 175 42 60
393 727 113 178 59 57
394 724 112 126 24 47
394 725 112 151 37 68
394 725 113 151 38 78
395 724 112 134 38 71
395 724 113 140 40 81
395 725 113 143 50 87
394 726 112 167 41 73
394 726 113 163 46 70
394 727 113 174 93 66
395 726 113 153 84 81
395 727 113 186 143 94
396 720 112 96 19 42
396 721 112 110 23 44
397 720 112 108 44 55
397 721 112 128 41 51
397 721 113 133 58 70
396 722 112 125 30 56
396 723 112 133 45 74
396 723 113 135 53 82
397 722 113 135 62 83
397 723 113 123 60 99
398 720 113 102 79 92
398 721 113 113 84 111
399 720 113 85 76 117
399 721 113 77 69 127
399 721 114 66 58 140
398 722 113 97 66 119
398 723 113 82 56 126
398 723 114 85 72 139
399 722 114 81 75 146
399 723 114 101 98 151
396 724 113 137 61 95
396 725 113 127 61 96
397 724 113 108 53 107
397 725 113 113 65 114
397 725 114 136 102 121
396 726 113 157 123 96
396 727 113 195 158 110
397 726 113 156 126 119
396 727 114 197 162 120
397 726 114 169 138 127
397 727 114 189 154 128
398 724 113 73 49 129
398 724 114 82 71 138
398 725 114 118 91 132
399 724 114 121 113 150
399 725 114 150 129 148
399 725 115 164 129 142
398 726 114 157 117 124
398 727 114 168 114 106
399 726 114 163 116 127
399 726 115 166 93 106
399 727 114 171 98 108
399 727 115 174 61 77
392 728 112 185 58 36
392 728 113 189 87 46
392 729 113 195 117 47
393 728 113 186 98 53
393 729 113 201 144 70
392 730 113 206 144 64
392 731 113 210 160 91
393 730 113 212 162 88
393 731 113 211 166 96
393 731 114 208 166 98
394 728 113 199 147 84
394 729 113 221 174 107
395 728 113 214 172 115
395 729 113 222 178 114
395 728 114 219 177 119
395 729 114 212 168 105
394 730 113 215 169 99
394 730 114 206 161 92
394 731 114 200 153 89
395 730 114 199 153 88
395 731 114 180 111 68
392 732 113 211 170 112
392 733 113 210 173 119
392 733 114 207 169 115
393 732 114 203 164 105
393 733 114 198 142 90
392 734 114 213 165 103
392 735 114 222 163 118
392 735 115 222 152 122
393 734 114 213 152 99
393 734 115 211 127 85
393 735 115 208 114 87
394 732 114 185 122 79
394 733 114 190 120 79
394 733 115 198 94 71
395 732 114 172 88 51
395 732 115 178 63 57
395 733 115 192 29 57
394 734 115 199 63 56
394 735 115 194 65 62
395 734 115 191 21 51
394 735 116 188 41 60
395 734 116 183 22 48
395 735 116 188 48 69
396 728 114 210 170 121
396 729 114 203 156 103
397 728 114 196 152 118
397 729 114 183 119 79
397 729 115 178 73 57
396 730 114 179 111 65
396 730 115 174 85 59
396 731 114 172 79 47
396 731 115 175 50 42
397 730 115 179 65 58
397 731 115 187 37 49
398 728 114 182 126 106
398 728 115 177 87 83
398 729 115 182 70 68
399 728 115 182 44 60
399 729 115 187 44 53
398 730 115 183 44 49
398 731 115 190 39 52
399 730 115 182 27 42
399 729 116 188 37 52
398 730 116 183 29 45
398 731 116 192 36 54
399 730 116 177 18 42
399 731 116 186 43 53
396 732 115 182 21 50
396 733 115 195 17 57
397 732 115 193 12 50
397 733 115 197 14 57
398 732 115 197 13 47
396 733 116 192 25 45
397 733 116 194 22 44
396 734 116 179 22 43
396 735 116 178 48 61
396 735 117 187 64 80
397 734 116 180 22 44
397 734 117 175 20 42
397 735 117 180 47 58
398 732 116 194 20 49
398 733 116 193 25 47
398 733 117 193 43 54
399 732 116 189 27 50
399 732 117 187 24 49
399 733 117 189 32 55
399 733 118 182 38 50
398 734 117 185 34 50
398 735 117 180 36 55
399 734 117 184 33 42
398 735 118 172 25 47
399 734 118 179 42 52
399 735 118 172 40 48
399 735 119 163 36 52
400 704 113 112 68 63
400 705 112 157 32 49
400 705 113 147 36 62
401 704 113 102 50 45
401 705 113 160 26 47
400 706 112 168 41 43
400 707 112 179 65 67
400 707 113 174 23 37
401 706 113 178 15 41
401 707 113 174 26 44
402 704 113 95 63 59
402 705 113 140 57 61
403 704 113 115 117 120
403 705 113 133 129 131
403 704 114 117 124 132
402 706 113 155 74 74
402 707 113 155 86 82
403 706 113 148 146 151
403 707 113 147 148 159
400 708 112 169 27 44
400 708 113 164 18 37
400 709 112 157 21 33
400 709 113 145 34 37
401 708 113 161 58 58
401 709 113 131 88 83
400 710 113 130 36 37
400 711 113 115 43 43
401 710 113 113 98 97
401 711 113 112 110 114
402 708 113 150 122 120
402 709 113 142 140 146
403 708 113 143 142 157
403 709 113 133 137 157
403 708 114 114 129 157
403 709 114 90 102 146
402 710 113 138 145 161
402 711 113 125 132 154
403 710 113 118 122 153
403 710 114 76 82 140
403 711 114 72 71 134
404 705 113 143 153 165
404 704 114 127 136 147
404 705 114 140 149 161
405 704 114 128 138 152
405 705 114 143 154 170
404 706 113 143 153 166
404 706 114 138 149 165
404 707 114 121 137 158
405 706 114 146 159 177
405 707 114 142 157 176
406 704 114 137 148 164
406 705 114 145 159 178
407 704 115 143 155 172
407 705 114 146 160 178
407 705 115 147 160 179
406 706 114 150 165 185
406 707 114 150 166 186
407 706 114 150 165 185
407 706 115 150 164 183
407 707 115 151 165 185
404 708 114 89 109 145
404 709 114 93 115 155
405 708 114 138 153 176
405 709 114 132 149 176
404 710 114 92 110 154
404 711 114 91 107 152
405 710 114 125 143 173
405 711 114 123 141 171
405 711 115 131 148 176
406 708 114 148 164 186
406 709 114 144 160 183
406 709 115 145 160 181
407 708 115 149 163 183
407 709 115 149 163 181
406 710 114 136 153 177
406 710 115 143 158 179
406 711 115 143 158 180
407 710 115 152 165 183
407 711 115 156 169 188
407 711 116 159 172 191
400 712 113 93 64 64
400 713 113 86 84 86
401 712 113 116 124 133
401 713 113 111 123 137
400 714 113 92 98 102
400 715 113 99 102 105
401 714 113 104 115 131
401 715 113 100 110 128
401 714 114 87 98 130
401 715 114 77 90 126
402 712 113 113 122 145
402 712 114 85 84 132
402 713 114 67 75 129
403 712 114 61 51 128
403 713 114 68 68 134
402 714 114 51 64 128
402 715 114 47 54 130
403 714 114 75 85 142
403 715 114 101 118 158
400 716 113 98 98 103
400 717 113 84 80 104
401 716 113 80 89 123
401 717 113 69 72 118
401 716 114 62 72 123
401 717 114 55 58 124
400 718 113 74 71 113
400 719 113 72 64 119
400 719 114 56 55 127
401 718 114 61 64 135
401 719 114 91 99 153
402 716 114 67 74 139
402 717 114 92 101 153
403 716 114 122 144 175
403 717 114 125 147 177
403 717 115 154 172 196
402 718 114 119 131 173
402 719 114 146 163 193
403 718 114 158 179 203
403 718 115 176 195 218
403 719 115 187 200 218
404 712 114 106 121 158
404 713 114 125 140 169
404 713 115 142 157 182
405 712 114 128 145 174
405 712 115 134 150 177
405 713 115 149 164 187
404 714 114 144 160 184
404 714 115 150 167 190
404 715 115 150 168 192
405 714 115 158 175 197
405 715 115 158 177 200
406 712 115 150 164 185
406 713 115 158 173 194
407 712 115 160 174 192
406 714 115 161 179 200
406 715 115 160 177 198
406 713 116 162 178 199
407 712 116 160 174 193
407 713 116 163 179 199
406 714 116 162 179 200
406 715 116 163 175 195
407 714 116 164 182 202
407 715 116 166 179 196
404 716 115 156 174 197
404 717 115 167 182 203
405 716 115 160 179 200
405 717 115 167 179 197
404 718 115 180 189 206
404 719 115 176 173 186
405 718 115 168 161 172
405 719 115 161 114 131
406 716 115 160 177 197
406 717 115 163 168 182
406 718 115 161 136 151
406 716 116 162 170 186
406 717 116 165 151 161
407 716 116 166 160 173
407 717 116 172 105 118
406 718 116 167 89 110
406 719 116 178 55 82
407 718 116 186 50 74
407 719 116 183 44 52
408 704 115 146 157 173
408 705 115 148 159 176
409 704 115 151 158 172
409 705 115 153 160 174
408 706 115 151 163 180
408 707 115 152 163 180
409 706 115 155 163 178
409 707 115 155 163 177
409 706 116 158 163 176
409 707 116 156 162 174
410 704 116 153 158 170
410 705 116 157 161 172
411 704 116 154 158 168
411 705 116 155 159 170
410 706 116 157 161 171
410 707 116 157 161 172
411 706 116 158 162 173
411 706 117 158 164 177
411 707 116 160 165 177
411 707 117 158 165 179
408 708 115 150 161 178
408 709 115 152 163 180
408 709 116 153 164 180
409 708 116 155 163 176
409 709 116 158 166 180
408 710 116 155 167 184
408 711 116 158 171 189
409 710 116 159 170 187
409 711 116 162 173 190
409 711 117 166 175 190
410 708 116 160 166 178
410 709 116 162 169 183
410 709 117 166 173 187
411 708 116 159 165 179
411 708 117 162 170 184
411 709 117 168 176 191
410 710 117 167 176 192
410 711 117 172 180 194
411 710 117 171 180 196
411 711 117 172 182 199
411 710 118 171 182 199
411 711 118 170 181 197
412 704 116 155 160 171
412 704 117 153 159 171
412 705 116 154 160 172
412 705 117 153 161 174
413 704 117 150 158 171
413 705 117 152 161 175
412 706 117 155 163 177
412 707 117 162 170 185
413 706 117 161 169 184
413 707 117 160 171 187
414 704 117 154 161 175
414 705 117 157 165 180
415 704 117 161 168 182
415 705 117 161 169 184
415 704 118 161 170 186
415 705 118 166 175 191
414 706 117 162 171 186
414 706 118 160 169 185
414 707 118 160 171 188
415 706 118 166 175 191
415 707 118 166 177 194
412 708 117 162 172 188
412 709 117 164 173 189
413 708 117 160 172 189
412 709 118 167 178 195
413 708 118 161 173 190
413 709 118 168 180 199
412 710 118 167 181 200
412 711 118 169 181 199
413 710 118 165 177 195
413 711 118 171 178 190
414 708 118 167 179 197
414 709 118 162 176 196
415 708 118 165 176 194
415 708 119 165 177 195
415 709 118 162 174 192
415 709 119 159 172 190
414 710 118 155 167 185
414 710 119 154 166 184
414 711 118 164 172 186
414 711 119 171 179 192
415 710 119 154 167 184
415 711 119 149 158 171
408 712 116 162 176 194
408 713 116 165 180 198
409 712 116 164 176 193
409 712 117 166 175 188
409 713 117 164 175 189
408 714 116 169 184 203
408 714 117 168 175 189
408 715 116 168 167 181
408 715 117 169 154 165
409 714 117 164 166 179
409 715 117 167 137 146
410 712 117 174 183 198
410 713 117 168 173 185
411 712 118 167 178 193
411 713 118 161 151 159
410 714 117 158 142 150
410 715 117 160 99 111
411 715 117 155 60 76
411 714 118 140 84 89
411 715 118 148 44 55
408 716 116 171 139 150
408 716 117 166 117 128
408 717 116 172 70 89
408 717 117 169 59 75
409 716 117 166 80 99
409 717 117 177 33 54
408 718 116 177 59 66
408 718 117 182 48 56
408 719 117 189 34 45
409 718 117 186 37 48
409 719 117 188 51 57
410 716 117 169 37 60
410 717 117 176 25 35
411 716 117 165 41 52
411 717 117 174 31 42
411 716 118 167 36 39
411 717 118 182 32 30
410 718 117 179 26 42
410 719 117 184 44 46
410 718 118 178 23 38
410 719 118 184 36 35
411 718 118 190 38 37
411 719 118 188 42 37
411 719 119 196 54 51
412 712 118 170 175 184
412 713 118 166 132 136
413 712 118 172 169 173
413 713 118 170 127 132
413 713 119 168 92 108
412 714 118 147 51 62
412 715 118 146 15 27
413 714 118 153 26 47
413 714 119 164 31 48
413 715 118 148 8 20
413 715 119 158 15 18
414 712 119 171 164 170
414 713 119 167 103 112
415 712 119 145 139 146
415 713 119 147 91 98
414 714 119 175 36 61
414 715 119 175 23 21
415 714 119 166 39 60
412 716 118 170 35 30
412 717 118 187 35 33
412 717 119 195 34 40
413 716 119 176 32 24
413 717 119 193 24 38
412 718 119 198 31 39
412 719 119 199 43 49
413 718 119 194 17 46
414 716 119 185 31 36
415 713 120 133 75 84
415 714 120 163 39 55
415 715 120 169 40 54
415 715 121 149 93 95
413 718 120 185 29 53
413 719 120 167 39 49
413 719 121 128 92 73
414 716 120 182 26 48
414 717 120 174 37 54
415 716 120 161 41 61
415 716 121 142 85 97
415 717 120 154 59 77
415 717 121 135 113 120
414 718 120 151 52 51
414 718 121 128 101 94
414 719 121 133 118 111
415 718 121 129 127 129
414 719 122 149 158 164
415 718 122 131 139 157
415 719 122 130 143 163
415 719 123 77 98 143
400 720 113 77 62 133
400 720 114 75 65 143
400 721 114 93 86 154
401 720 114 112 121 167
401 721 114 139 155 187
400 722 114 119 133 170
400 723 114 137 145 170
401 722 114 165 175 194
401 722 115 180 173 184
401 723 114 176 169 181
401 723 115 180 160 169
402 720 114 158 176 200
402 720 115 192 206 220
402 721 114 184 196 212
402 721 115 189 186 192
403 720 115 189 193 202
403 721 115 179 141 149
402 722 115 180 148 157
402 723 115 179 93 115
403 722 115 178 68 91
403 723 115 185 44 64
403 723 116 195 31 49
400 724 114 163 147 162
400 724 115 169 139 149
400 725 114 166 136 150
400 725 115 170 123 134
401 724 115 180 121 131
401 725 115 184 63 80
400 726 115 176 67 88
400 727 115 184 15 47
401 726 115 188 35 53
401 727 115 190 12 40
402 724 115 188 51 78
402 725 115 194 45 65
401 726 116 190 27 44
401 727 116 189 10 38
402 725 116 193 35 52
403 724 116 198 31 54
403 725 116 187 34 46
402 726 116 187 31 39
402 727 116 186 24 41
403 726 116 175 35 39
403 726 117 162 41 42
403 727 117 181 37 54
404 720 115 169 137 151
404 721 115 170 75 97
405 720 115 165 78 100
405 721 115 174 49 68
404 722 115 177 54 72
404 721 116 171 56 63
405 720 116 169 50 71
405 721 116 173 47 54
404 722 116 185 37 51
404 723 116 194 21 42
405 722 116 185 22 40
405 723 116 189 19 44
406 720 116 172 48 58
406 721 116 173 29 42
407 720 116 176 31 43
407 720 117 180 12 37
407 721 116 177 18 34
407 721 117 182 14 37
406 722 116 175 22 36
406 722 117 176 31 35
406 723 117 184 37 46
407 722 117 175 16 38
407 723 117 176 28 42
407 723 118 172 30 41
404 724 116 196 29 48
404 725 116 187 35 44
404 725 117 169 26 30
405 724 116 193 25 47
405 724 117 190 29 46
405 725 117 175 28 26
404 726 117 158 36 38
404 727 117 179 39 55
405 726 117 162 23 25
404 727 118 180 41 47
405 726 118 173 32 40
405 727 118 179 41 45
406 724 117 184 23 45
406 725 117 181 39 40
407 724 117 179 16 39
406 725 118 179 25 29
407 724 118 184 34 45
407 725 118 181 27 38
407 725 119 178 44 50
406 726 118 178 26 32
406 726 119 177 41 44
406 727 118 178 39 40
406 727 119 170 50 50
407 726 119 173 62 54
406 727 120 149 47 51
407 726 120 158 67 60
407 727 120 137 47 56
400 728 115 187 17 36
400 728 116 191 21 41
400 729 116 184 31 47
401 728 116 191 13 41
401 729 116 188 36 52
401 729 117 187 47 57
400 730 116 165 27 41
400 730 117 172 58 56
400 731 116 182 56 53
400 731 117 180 48 48
401 730 116 163 13 36
401 730 117 169 37 42
401 731 117 178 59 56
401 731 118 175 51 47
402 728 116 190 13 42
402 728 117 192 27 47
402 729 117 191 37 51
403 728 117 191 30 53
403 729 117 192 34 45
403 728 118 190 33 45
403 729 118 188 36 38
402 730 117 181 40 44
402 730 118 179 48 44
402 731 118 171 50 47
403 730 118 179 43 44
403 730 119 161 45 53
403 731 118 163 45 48
403 731 119 147 39 45
400 732 117 180 24 42
400 733 117 183 29 55
401 732 117 173 31 39
400 733 118 176 41 44
401 732 118 169 27 37
401 733 118 165 33 33
401 733 119 156 15 36
400 734 118 174 41 49
400 734 119 166 42 50
400 735 119 159 27 40
401 734 119 149 19 41
402 732 118 166 33 39
402 732 119 155 24 35
402 733 119 138 7 41
403 732 119 131 31 40
404 728 118 184 35 46
404 729 118 182 39 43
404 729 119 175 41 45
405 728 118 179 35 43
405 728 119 172 45 44
405 729 119 151 44 41
404 730 119 147 36 42
406 728 119 156 48 46
403 731 120 122 34 38
400 735 120 183 27 53
401 734 120 180 28 56
401 735 120 199 24 59
401 735 121 208 40 60
402 733 120 133 22 37
403 732 120 115 34 43
403 733 120 138 26 50
403 733 121 175 42 77
403 733 122 179 37 82
402 734 120 164 32 55
402 734 121 197 37 75
402 735 121 199 38 69
403 734 121 188 48 80
402 734 122 178 31 71
402 735 122 175 71 68
402 735 123 193 156 108
403 734 122 171 43 78
403 734 123 149 82 81
403 735 123 172 134 94
403 734 124 167 138 100
403 735 124 225 188 138
403 735 125 206 182 155
405 729 120 108 35 44
404 730 120 121 28 38
404 731 120 112 34 42
405 730 120 102 29 38
405 730 121 118 39 49
405 731 120 104 31 42
405 731 121 133 37 59
405 731 122 158 53 71
406 728 120 133 44 48
406 729 120 101 35 47
406 729 121 112 36 58
407 728 120 109 39 53
407 728 121 82 36 57
407 729 121 102 34 60
407 729 122 123 49 67
407 729 123 139 105 129
406 730 121 130 48 65
406 730 122 150 60 77
406 731 122 155 64 78
406 731 123 122 72 112
407 730 122 155 89 105
407 730 123 120 81 121
406 731 124 67 51 132
407 730 124 61 44 138
407 731 124 68 46 139
407 731 125 109 105 151
407 731 126 171 192 210
404 732 120 115 38 51
404 732 121 146 36 69
404 733 121 171 52 81
405 732 121 152 45 76
404 732 122 171 58 87
404 733 122 170 48 93
404 733 123 134 54 104
405 732 122 161 61 88
405 732 123 129 62 111
405 733 123 131 57 116
404 734 123 133 86 80
406 732 123 99 50 113
404 733 124 120 89 114
405 732 124 79 50 132
405 733 124 90 52 128
405 733 125 99 84 122
405 733 126 139 152 169
404 734 124 168 147 133
404 734 125 152 142 135
404 735 125 187 170 150
405 734 125 116 121 126
404 734 126 149 153 168
404 735 126 152 159 167
404 735 127 160 107 123
405 734 126 148 153 169
405 734 127 159 111 120
405 735 127 169 70 75
406 732 124 75 51 140
406 732 125 110 111 155
406 733 125 105 103 142
407 732 125 111 114 157
406 733 126 161 171 189
406 733 127 169 109 127
407 732 126 170 190 207
407 732 127 182 161 170
407 733 127 176 139 151
406 734 127 169 77 92
408 720 117 186 18 38
408 721 117 185 20 36
409 720 117 191 45 51
408 721 118 184 29 34
409 720 118 189 37 43
409 721 118 190 37 38
408 722 118 181 29 43
408 723 118 181 37 48
409 722 118 187 36 44
409 722 119 191 29 42
409 723 119 186 38 48
410 720 118 191 41 46
410 721 118 193 39 36
410 721 119 195 36 44
411 720 118 192 51 48
411 720 119 199 50 52
411 721 119 195 42 51
410 722 119 190 43 52
408 724 118 188 51 58
408 724 119 185 47 51
408 725 119 177 58 48
409 724 119 181 56 51
412 720 119 197 42 55
411 721 120 182 48 52
410 722 120 184 53 56
410 723 120 165 68 71
411 722 120 153 71 61
411 722 121 108 64 70
411 723 120 143 78 84
411 723 121 104 68 80
408 725 120 160 64 51
409 724 120 166 58 56
409 725 120 144 70 70
409 725 121 107 86 89
408 726 120 131 71 76
408 726 121 93 66 74
408 727 120 115 56 69
408 727 121 78 49 55
409 726 121 74 70 75
408 727 122 89 68 80
409 726 122 65 51 58
409 727 122 94 79 94
409 727 123 93 97 131
410 724 120 145 71 81
410 724 121 126 94 101
410 725 121 88 79 81
411 724 121 97 75 83
410 725 122 83 70 85
411 724 122 90 85 91
411 725 122 88 82 94
411 725 123 105 107 144
410 726 122 89 81 90
410 726 123 88 86 130
410 727 123 68 66 127
411 726 123 63 56 131
411 725 124 61 54 128
410 727 124 75 65 132
410 727 125 139 144 175
411 726 124 64 69 125
411 726 125 153 170 193
411 727 124 78 83 132
411 727 125 158 172 195
411 727 126 183 206 229
411 727 127 181 206 229
412 720 120 172 45 54
412 721 120 155 58 47
412 721 121 101 64 49
413 720 120 146 53 40
413 720 121 109 78 61
413 721 121 104 82 74
413 721 122 128 131 144
412 722 121 101 69 68
412 722 122 118 109 116
412 723 122 113 105 113
412 723 123 120 125 148
413 722 122 139 136 148
413 722 123 99 107 140
413 723 123 89 95 140
414 720 121 114 109 101
414 720 122 125 136 156
414 721 122 140 147 172
414 721 123 82 95 140
415 720 123 66 84 145
415 721 123 52 67 132
414 722 123 59 78 124
413 723 124 71 49 131
414 721 124 57 75 126
415 720 124 130 134 162
415 721 124 127 137 165
415 721 125 181 191 205
414 722 124 69 72 134
414 723 124 128 121 156
414 723 125 174 185 200
415 722 124 142 150 172
415 722 125 180 190 206
415 723 125 177 190 208
415 722 126 179 192 210
415 723 126 179 194 213
415 723 127 183 199 220
412 724 122 116 114 122
412 724 123 103 110 148
412 725 123 79 86 142
412 724 124 61 47 128
412 725 124 82 82 133
412 725 125 154 171 191
413 724 124 100 89 140
413 724 125 166 178 195
413 725 124 124 131 155
413 725 125 173 189 209
413 725 126 184 203 225
413 725 127 186 208 232
412 726 125 155 174 195
412 726 126 184 205 228
412 726 127 186 208 229
412 727 126 183 206 230
412 727 127 184 206 227
413 726 127 186 209 232
414 724 125 172 186 204
414 724 126 180 197 217
414 724 127 185 202 224
414 725 127 187 208 231
415 724 126 181 197 218
415 724 127 185 203 225
408 728 121 78 41 57
408 728 122 100 69 78
408 728 123 114 102 127
408 729 122 111 69 83
408 729 123 93 78 120
409 728 123 73 72 129
409 729 123 60 55 133
408 729 124 74 57 141
409 728 124 89 69 138
409 729 124 94 75 143
409 729 125 145 155 183
409 729 126 179 203 223
409 729 127 185 201 216
408 730 124 74 39 142
408 730 125 126 130 168
408 731 125 136 149 175
408 730 126 175 199 218
408 731 126 178 199 216
408 731 127 187 174 181
409 730 126 176 200 219
409 730 127 189 185 196
410 728 124 84 72 137
410 728 125 164 176 200
410 729 125 178 197 217
410 728 126 186 210 232
410 729 126 183 207 228
410 729 127 190 196 209
411 728 126 186 209 232
411 728 127 189 205 224
408 732 127 182 134 141
