ply
format ascii 1.0
comment Version 2, Copyright 2017, 8i Labs, Inc.
comment frame_to_world_scale 0.179523
comment frame_to_world_translation -45.2095 7.18301 -54.3561
comment width 1023
element vertex 1488
property float x
property float y
property float z
property uchar red
property uchar green
property uchar blue
end_header
385 704 157 155 129 108
385 705 157 166 141 117
384 704 158 152 123 100
384 705 158 174 145 109
385 704 158 148 121 103
385 705 158 173 146 114
384 706 158 186 155 116
384 707 158 179 149 116
385 706 158 176 148 113
385 707 158 161 133 104
386 704 157 144 126 111
386 705 157 147 130 112
387 704 157 125 113 106
387 705 157 125 106 97
386 705 158 164 141 115
386 706 157 127 104 86
387 706 157 123 79 76
387 707 157 121 39 58
386 706 158 152 130 102
386 707 158 129 95 80
387 707 158 121 42 60
384 708 158 156 129 104
384 709 158 154 126 103
385 708 158 150 122 98
385 709 158 163 128 105
384 710 158 162 132 106
384 711 158 160 125 99
385 710 158 164 117 93
385 711 158 157 96 78
386 708 158 138 95 86
386 709 158 151 86 77
387 708 158 134 50 68
387 709 158 143 44 59
386 710 158 149 57 52
386 711 158 154 54 58
387 710 158 154 51 64
387 711 158 162 62 75
388 704 157 106 84 90
388 705 157 130 96 99
389 704 157 114 54 69
389 705 157 138 71 81
388 706 157 138 70 81
389 706 157 146 55 70
389 707 157 141 30 55
388 707 158 136 30 57
389 707 158 143 31 50
390 704 157 136 29 49
390 705 157 140 33 49
391 704 157 143 27 47
391 705 157 141 25 43
390 706 157 140 37 51
390 707 157 148 59 65
391 706 157 137 30 38
391 707 157 147 69 66
390 707 158 151 58 62
388 708 158 141 35 52
388 709 158 143 37 51
389 708 158 144 34 45
389 709 158 141 29 43
388 710 158 154 62 72
388 711 158 163 76 81
389 710 158 150 63 66
389 711 158 154 75 72
391 708 157 151 79 77
390 708 158 150 57 64
390 709 158 141 24 48
391 708 158 144 56 62
391 709 158 137 26 50
390 710 158 137 34 53
390 711 158 140 59 63
391 710 158 132 21 48
391 711 158 130 37 51
384 712 158 159 110 100
384 713 158 158 98 104
385 712 158 157 86 81
385 713 158 152 69 83
384 715 157 133 66 82
385 715 157 133 39 62
384 714 158 144 75 91
384 715 158 141 83 94
385 714 158 137 37 64
386 712 158 158 53 68
386 713 158 151 37 63
387 712 158 153 35 53
387 713 158 147 25 50
386 715 157 138 38 64
387 715 157 145 74 91
386 714 158 143 31 56
387 714 158 155 70 81
387 715 158 156 92 103
384 716 157 128 73 87
384 717 157 130 95 101
385 716 157 130 54 69
385 717 157 118 55 67
384 718 157 105 78 74
384 719 157 88 68 60
385 718 157 89 36 48
385 719 157 81 58 67
386 716 157 123 34 63
386 717 157 104 30 55
387 716 157 125 55 79
387 717 157 123 64 87
386 718 157 94 49 62
386 719 156 102 105 118
386 719 157 88 77 89
387 718 157 113 83 87
387 719 156 113 116 127
387 719 157 107 96 99
388 712 158 151 46 55
388 713 158 144 30 54
389 712 158 149 61 61
389 713 158 140 36 56
388 715 157 135 84 96
388 714 158 151 80 91
388 715 158 150 96 106
389 714 158 129 48 69
389 715 158 125 73 81
390 712 158 151 80 80
390 713 158 136 47 63
391 712 158 134 55 65
391 713 158 125 36 54
390 714 158 121 45 55
390 715 158 130 85 68
391 714 158 131 66 61
391 715 158 145 99 59
388 716 157 126 74 87
388 717 157 143 103 108
389 716 157 132 94 87
389 717 157 143 111 95
388 718 157 123 94 93
388 719 157 119 112 111
389 718 157 122 93 76
389 719 157 127 111 97
390 716 157 142 110 87
390 717 157 149 116 74
391 717 157 164 125 65
390 716 158 146 110 76
391 716 158 160 120 63
391 717 158 169 128 62
390 718 157 134 102 62
390 719 157 140 115 88
391 718 157 152 117 67
391 719 157 149 121 86
392 704 157 148 49 57
392 705 157 150 56 64
393 704 157 157 71 78
393 705 157 166 88 90
392 706 157 141 31 42
392 707 157 134 35 41
393 706 157 146 43 54
393 707 157 133 27 39
394 704 157 162 78 86
394 705 157 161 76 82
395 705 157 142 58 66
394 704 158 145 43 60
394 705 158 146 51 66
395 704 158 137 30 41
395 705 158 137 58 63
394 706 157 143 42 55
394 707 157 132 33 42
395 706 157 139 70 76
395 707 157 121 39 49
392 708 157 130 37 42
392 709 157 132 38 45
393 708 157 131 46 55
393 709 157 153 89 92
392 709 158 134 39 51
393 710 157 159 92 98
392 710 158 131 31 45
392 711 158 126 20 38
393 710 158 141 57 66
393 711 158 126 12 34
394 708 157 136 60 71
394 709 157 164 104 110
395 708 157 116 25 46
395 709 157 125 31 53
394 710 157 147 65 77
394 711 157 133 20 43
395 710 157 135 31 58
395 711 157 143 40 69
394 711 158 131 12 37
396 704 158 133 34 43
396 705 158 131 67 67
397 704 158 124 35 45
397 705 158 111 41 50
396 706 157 129 76 80
396 707 157 102 33 46
397 707 157 99 25 53
396 706 158 126 79 82
397 706 158 99 39 49
397 707 158 97 30 45
398 704 158 94 25 38
398 705 158 88 17 36
399 704 158 69 34 44
399 705 158 75 43 52
398 706 158 96 30 49
398 707 158 106 48 74
399 706 158 94 61 77
399 707 158 96 59 91
396 708 157 105 15 47
396 709 157 125 32 68
397 708 157 113 37 74
397 709 157 136 65 104
396 710 157 135 43 80
396 711 157 136 57 80
397 710 157 127 50 93
397 711 157 121 65 84
398 708 157 124 67 105
398 709 157 133 76 123
399 708 157 109 58 113
399 709 157 84 44 115
399 708 158 87 48 106
399 709 158 70 41 114
398 710 157 106 47 102
398 711 157 108 78 101
399 710 157 73 51 115
399 711 157 88 84 116
392 712 158 123 18 41
392 713 158 129 41 66
393 712 158 130 19 47
393 713 158 155 85 101
392 714 158 142 83 74
392 715 158 148 100 49
393 714 158 154 106 91
393 715 158 148 103 48
394 712 157 140 35 56
395 712 157 142 64 69
395 713 157 146 104 68
394 712 158 141 47 66
394 713 158 157 98 101
395 713 158 142 97 69
395 714 157 159 128 81
395 715 157 175 143 99
394 714 158 147 107 80
394 715 158 154 118 64
395 714 158 146 112 69
395 715 158 159 126 75
392 717 157 174 133 75
393 717 157 188 149 99
392 716 158 162 118 48
392 717 158 171 127 59
393 716 158 164 122 58
393 717 158 176 133 73
392 718 157 163 127 79
392 719 157 151 118 85
393 718 157 171 134 93
393 719 157 153 113 90
394 716 157 186 149 101
394 717 157 199 164 122
395 716 157 191 158 118
395 717 157 183 154 117
394 716 158 172 135 83
394 718 157 172 134 95
394 719 157 168 127 97
395 718 157 161 128 94
395 719 157 172 132 104
396 712 157 139 95 78
396 713 157 158 131 94
397 712 157 131 103 87
397 713 157 161 139 112
396 714 157 165 137 98
396 715 157 176 148 114
397 714 157 161 136 107
397 715 157 168 144 123
398 712 157 134 118 111
398 713 157 160 142 122
399 712 157 123 117 120
399 713 157 142 124 110
398 714 157 150 127 107
398 715 157 148 121 112
399 714 157 140 112 100
399 715 157 141 99 99
396 716 157 179 152 120
396 717 157 160 133 104
397 716 157 161 135 119
397 717 157 141 105 92
396 718 157 153 114 96
396 719 156 182 120 118
396 719 157 170 119 109
397 718 157 162 111 102
397 719 156 173 86 95
397 719 157 169 102 102
398 716 157 139 99 100
398 717 157 144 85 91
399 716 157 144 79 86
399 717 157 149 58 75
398 718 157 190 130 130
398 719 156 177 82 95
399 718 156 172 81 94
399 718 157 182 106 113
399 719 156 172 78 95
384 720 157 77 71 70
384 721 157 81 86 95
385 720 157 84 90 101
385 721 156 95 107 122
385 721 157 99 109 122
384 722 156 82 95 112
384 722 157 82 92 105
384 723 156 108 117 133
384 723 157 97 106 120
385 722 156 72 86 106
385 723 156 59 71 95
386 720 156 124 136 153
386 720 157 100 112 129
386 721 156 95 106 128
387 720 156 131 140 155
387 721 156 78 78 111
386 722 156 45 46 79
386 723 156 38 31 65
387 722 156 44 24 67
387 723 156 44 27 61
384 724 156 123 131 148
384 725 156 108 114 135
385 724 156 59 69 96
385 725 156 57 63 89
384 726 156 124 129 142
384 727 156 140 142 154
385 726 156 94 101 117
385 727 156 124 130 143
386 724 156 47 44 71
386 725 156 65 68 86
387 724 156 55 48 70
387 725 156 84 80 90
386 726 156 85 91 112
386 727 156 105 117 139
387 726 156 97 96 111
387 727 156 82 87 117
388 720 156 117 121 130
388 720 157 123 122 124
388 721 156 65 60 86
389 720 156 112 109 109
389 720 157 125 116 109
389 721 156 89 81 90
388 722 156 49 28 64
388 723 156 44 29 63
389 722 156 80 70 90
389 723 156 59 46 74
390 720 157 140 123 109
390 721 156 128 119 118
390 721 157 135 121 113
391 720 157 149 126 106
391 721 156 148 130 120
391 721 157 145 124 109
390 722 156 130 123 130
390 723 156 91 82 96
391 722 156 146 131 124
391 723 156 128 113 107
388 727 155 47 55 87
389 726 155 56 57 92
389 727 155 54 63 94
390 725 155 79 84 105
391 725 155 123 116 123
390 726 155 90 102 122
390 727 155 88 99 119
391 726 155 138 135 147
391 727 155 105 98 110
388 724 156 51 42 68
388 725 156 71 63 81
389 724 156 49 35 68
389 725 156 54 46 80
388 726 156 71 66 88
388 727 156 67 65 92
389 726 156 59 57 89
390 724 156 74 61 80
390 725 156 67 60 83
391 724 156 118 104 100
391 725 156 108 99 103
384 731 155 148 140 147
385 731 155 119 117 126
387 728 155 79 95 123
387 729 155 92 111 132
386 730 155 93 105 125
386 731 155 108 111 124
387 730 155 76 93 109
387 731 155 87 90 99
384 728 156 128 136 150
384 729 156 118 127 144
385 728 156 129 139 157
385 729 156 108 122 144
384 730 156 120 122 137
384 731 156 132 129 140
385 730 156 87 94 122
385 731 156 110 112 126
386 728 156 128 140 160
386 729 156 108 121 147
387 728 156 88 100 131
387 729 156 101 118 144
386 730 156 87 102 127
384 732 155 161 141 140
384 733 155 167 130 126
385 732 155 143 127 122
385 733 155 163 127 118
384 734 155 159 117 115
384 735 154 138 95 82
385 734 154 165 119 105
385 734 155 166 126 112
385 735 154 161 112 95
386 732 155 127 116 114
386 733 155 152 123 109
387 732 155 109 102 105
387 733 154 144 122 119
387 733 155 125 105 95
386 734 154 163 117 99
386 734 155 175 130 111
386 735 154 158 105 84
387 734 154 162 128 119
387 735 154 148 113 96
388 728 155 69 88 113
388 729 155 81 101 120
389 728 155 86 104 125
389 729 155 83 99 118
388 730 155 63 75 90
388 731 154 91 90 97
388 731 155 85 87 98
389 730 154 61 62 67
389 730 155 55 63 77
389 731 154 80 77 79
390 728 155 89 97 117
390 729 154 54 52 72
390 729 155 79 86 106
391 728 154 80 65 70
391 728 155 74 68 83
391 729 154 78 64 67
391 729 155 73 68 82
391 731 153 157 141 128
390 730 154 70 63 66
390 731 154 111 100 92
391 730 154 105 91 84
391 731 154 146 132 121
388 732 154 116 111 121
388 732 155 107 104 115
388 733 154 137 129 138
389 732 154 107 101 106
389 733 154 130 121 125
388 735 153 129 103 95
389 734 153 131 122 129
389 735 153 140 126 129
388 734 154 145 127 125
388 735 154 138 109 102
389 734 154 132 121 124
390 733 153 143 128 127
391 732 153 173 156 141
391 733 153 156 141 128
390 732 154 143 130 120
390 733 154 134 123 118
391 732 154 168 152 141
390 734 153 145 139 148
390 735 153 167 157 161
391 734 152 115 108 115
391 734 153 130 118 120
391 735 152 137 125 135
391 735 153 148 137 143
395 723 155 161 69 93
392 720 157 149 118 101
392 721 156 154 127 110
392 721 157 150 123 108
393 720 157 156 119 105
393 721 156 168 131 113
393 721 157 162 127 111
392 722 156 156 130 115
392 723 156 149 121 109
393 722 156 168 124 113
393 723 156 157 108 107
394 720 157 183 140 118
394 721 156 183 123 107
394 721 157 178 137 115
395 720 156 200 149 131
395 720 157 193 150 123
395 721 156 182 84 89
394 722 156 171 89 98
394 723 156 159 81 104
395 722 156 164 37 64
395 723 156 157 46 77
392 725 155 145 123 129
393 724 155 161 121 130
393 725 155 147 110 123
392 726 155 128 106 125
392 727 155 98 75 89
393 726 155 126 90 106
393 727 154 137 110 114
393 727 155 132 103 112
394 724 155 173 116 135
394 725 155 155 88 112
395 724 155 171 90 111
395 725 155 157 70 90
394 726 154 160 96 112
394 726 155 154 90 110
394 727 154 152 104 111
395 726 154 143 64 79
395 727 154 124 50 51
392 724 156 145 118 111
393 724 156 157 117 119
394 724 156 161 106 122
396 723 155 160 61 73
397 722 155 180 93 99
397 723 155 185 115 121
398 722 155 180 92 103
398 723 155 194 130 139
399 722 155 163 42 66
399 723 155 173 90 107
396 720 156 206 138 137
396 721 156 185 60 87
397 720 156 182 75 94
397 721 156 177 35 66
396 722 156 167 32 64
397 722 156 171 57 71
398 720 156 170 49 74
398 721 156 171 36 60
399 720 156 189 102 121
399 721 156 181 68 87
398 722 156 171 56 68
396 724 155 155 58 76
396 725 154 167 96 104
396 725 155 154 63 77
397 724 155 159 83 99
397 725 154 174 119 127
397 725 155 157 78 89
396 727 153 122 65 52
397 727 153 138 88 73
396 726 154 157 91 96
396 727 154 128 61 60
397 726 154 173 127 123
399 725 153 149 87 86
398 724 154 162 98 111
398 724 155 169 104 117
398 725 154 149 83 98
399 724 154 172 113 120
399 724 155 183 119 129
399 725 154 148 82 93
398 726 153 148 97 95
398 727 153 141 96 77
399 726 153 153 104 94
399 727 152 156 115 77
399 727 153 155 111 85
398 726 154 157 109 108
393 735 151 103 119 134
395 733 151 74 72 89
394 734 151 58 62 101
394 735 151 84 98 125
395 734 151 77 79 103
395 735 151 100 102 122
398 731 151 120 115 118
399 730 151 151 127 115
399 731 151 153 135 124
396 733 151 86 83 97
397 732 151 76 81 101
397 733 151 95 97 107
396 734 151 120 118 123
396 735 150 119 116 129
396 735 151 129 128 138
397 734 150 113 109 110
397 734 151 107 104 106
397 735 150 121 120 131
398 732 151 143 143 155
398 733 150 105 102 104
398 733 151 128 128 135
399 732 151 164 152 147
399 733 150 135 120 115
399 733 151 152 145 145
398 735 149 114 113 125
399 734 149 133 102 110
399 735 149 122 95 108
398 734 150 102 97 100
398 735 150 105 103 114
399 734 150 115 95 98
392 728 154 112 93 95
392 729 154 107 90 87
393 728 154 131 104 102
393 729 154 97 75 72
392 730 153 97 86 79
392 731 153 122 111 102
393 730 153 77 76 83
393 731 153 100 103 111
392 730 154 102 88 80
393 730 154 81 72 70
394 729 153 75 73 83
395 728 153 96 64 55
395 729 153 98 98 103
394 728 154 113 63 62
394 729 154 86 60 60
395 728 154 101 48 40
394 730 153 79 93 111
394 731 153 105 118 139
395 730 153 102 121 141
395 731 152 71 82 114
395 731 153 86 106 133
392 732 153 138 126 117
392 733 153 135 127 123
393 732 153 123 124 133
393 733 152 98 103 119
393 733 153 117 116 124
392 734 152 111 113 119
392 735 152 115 116 128
393 734 152 87 99 116
393 735 152 102 114 128
394 732 152 103 110 137
394 732 153 132 139 158
394 733 152 65 69 100
395 732 152 55 51 93
395 733 152 50 45 80
394 734 152 60 64 100
395 734 152 51 49 91
396 728 153 104 70 57
396 729 153 119 121 124
397 728 153 117 85 65
397 729 152 135 132 132
397 729 153 120 111 105
396 730 152 140 147 160
396 730 153 136 148 162
396 731 152 74 74 101
397 730 152 133 129 133
397 731 152 73 68 84
398 728 152 130 102 80
398 728 153 127 92 68
398 729 152 138 124 113
399 728 152 138 102 70
399 729 152 146 120 106
398 730 152 132 120 112
398 731 152 110 102 100
399 730 152 150 132 120
396 732 152 47 42 73
396 733 152 67 62 85
397 732 152 52 51 80
400 704 158 72 61 65
400 704 159 73 65 74
400 705 158 72 67 86
401 704 159 69 68 92
401 705 158 60 60 109
401 705 159 61 59 103
400 706 158 71 64 104
400 707 158 62 51 108
401 706 158 66 65 130
401 707 158 58 59 129
402 704 159 53 51 104
402 705 159 61 59 115
403 705 159 89 100 137
402 706 158 54 59 133
402 706 159 66 69 130
402 707 158 80 91 141
402 707 159 83 96 139
403 706 159 101 115 145
403 707 159 117 130 149
400 709 157 59 58 123
400 708 158 52 40 113
400 709 158 55 51 121
401 708 158 54 65 125
401 709 158 98 113 144
400 710 157 75 94 132
400 711 157 110 124 141
401 710 157 130 143 158
401 711 157 138 141 150
401 710 158 142 152 165
402 708 158 111 124 151
402 709 158 140 147 162
403 708 158 142 149 162
403 708 159 134 137 148
403 709 158 143 129 136
403 709 159 137 121 126
402 711 157 134 110 120
402 710 158 147 141 151
402 711 158 134 106 117
403 710 158 136 86 99
403 711 158 137 64 81
404 707 159 123 128 140
404 708 159 125 112 117
404 709 159 140 97 99
405 709 159 154 87 86
404 710 158 141 61 75
404 710 159 148 62 78
404 711 158 143 28 50
405 710 159 157 55 71
405 711 159 153 33 51
406 710 159 164 56 64
406 711 159 169 64 74
400 712 157 134 129 135
400 713 157 138 103 105
401 712 157 132 110 118
401 713 157 136 63 79
400 714 157 145 92 100
400 715 157 168 111 118
401 714 157 159 66 88
401 715 157 178 95 105
402 712 157 133 79 91
402 713 157 146 52 64
403 712 157 150 78 91
403 713 157 166 73 76
403 712 158 159 72 81
403 713 158 171 80 82
402 714 157 158 37 61
402 715 157 165 55 71
403 714 157 156 41 54
403 715 157 153 39 63
400 716 157 169 100 104
400 717 156 145 35 60
400 717 157 149 47 67
401 716 157 168 82 82
401 717 156 150 60 64
401 717 157 151 52 62
400 718 156 148 42 62
400 719 156 157 66 82
401 718 156 146 51 53
401 719 156 148 50 57
402 716 157 162 65 71
402 717 156 159 85 78
402 717 157 158 73 73
403 716 157 149 48 66
403 717 156 145 59 60
403 717 157 149 61 66
402 718 156 147 62 58
402 719 156 143 36 42
403 718 156 135 39 47
403 719 156 135 32 52
404 712 158 156 50 53
404 713 158 160 59 65
405 712 158 154 43 50
405 712 159 156 44 50
405 713 158 161 63 67
404 714 157 152 39 52
404 715 157 145 43 63
405 715 157 140 39 58
404 714 158 153 41 54
405 714 158 148 39 57
405 715 158 142 33 56
406 712 159 173 74 81
406 713 158 167 68 75
406 713 159 173 69 77
407 712 159 190 100 110
407 713 159 169 60 74
406 714 158 155 52 67
406 715 158 154 64 78
407 714 158 159 63 78
407 714 159 159 53 70
407 715 158 166 100 109
404 716 157 148 60 69
404 717 156 130 29 42
404 717 157 141 48 56
405 716 157 141 55 65
405 717 156 128 42 53
405 717 157 138 60 68
404 718 156 120 27 41
404 719 156 123 44 63
405 718 156 113 36 47
405 719 156 106 38 52
406 716 157 153 77 87
406 717 157 132 67 75
407 716 157 153 93 97
407 717 157 99 49 57
407 716 158 150 98 102
406 718 156 105 36 50
406 718 157 103 40 51
406 719 156 99 30 49
407 718 156 86 28 53
407 718 157 77 40 65
407 719 156 85 47 85
415 711 159 117 151 194
408 713 159 174 86 89
409 713 159 181 126 122
408 714 159 152 68 74
408 715 158 126 66 77
409 714 159 139 91 91
409 715 158 93 50 65
409 715 159 95 54 67
410 713 159 142 103 112
411 713 159 94 74 123
410 714 159 101 72 101
410 715 158 83 75 107
410 715 159 74 58 97
411 714 159 83 84 151
411 715 158 68 86 153
411 715 159 73 86 149
408 717 157 72 54 77
409 717 157 75 74 120
408 716 158 93 53 62
408 717 158 73 43 58
409 716 158 72 52 82
409 717 158 64 60 101
408 718 157 79 70 105
408 719 156 72 63 120
408 719 157 76 72 125
409 718 157 85 88 140
409 719 156 47 52 133
409 719 157 71 71 140
410 717 157 62 68 143
411 717 157 44 59 141
410 716 158 80 80 120
410 717 158 67 69 134
411 716 158 52 66 140
411 717 158 40 47 137
410 718 157 69 76 153
410 719 156 53 67 143
410 719 157 53 65 145
411 718 157 74 99 161
411 719 156 130 158 193
411 719 157 108 139 182
412 713 159 89 92 154
413 713 159 63 74 144
412 714 159 64 80 161
412 715 158 44 75 155
413 714 158 82 115 167
413 714 159 63 80 152
413 715 158 89 123 173
414 713 159 95 122 172
415 712 159 119 154 197
415 713 158 156 181 211
415 713 159 146 174 208
415 715 157 158 177 200
414 714 158 145 174 206
414 714 159 109 141 180
414 715 158 157 186 216
415 714 158 156 182 209
415 715 158 162 188 215
415 718 155 147 72 72
415 719 155 161 86 91
412 717 157 114 144 179
413 716 157 156 184 213
413 717 157 160 185 212
412 716 158 53 81 149
412 717 158 75 104 154
413 716 158 120 153 188
412 718 157 151 175 204
412 719 156 179 197 221
412 719 157 173 194 221
413 718 156 156 176 200
413 718 157 159 183 209
413 719 156 157 171 193
414 716 157 170 196 223
414 717 157 173 197 221
415 716 157 169 179 198
415 717 156 154 130 140
415 717 157 174 185 203
414 716 158 161 190 219
414 718 156 167 181 199
414 718 157 170 192 214
414 719 156 162 156 167
415 718 156 161 141 151
415 719 156 157 130 133
404 735 128 200 36 69
405 734 128 192 32 42
405 735 128 198 41 55
405 735 129 201 67 64
405 735 130 201 49 44
406 733 128 186 31 53
407 732 128 188 44 69
407 733 128 187 32 56
407 733 129 182 34 52
407 733 130 193 42 54
406 734 128 186 38 50
406 734 129 189 72 70
406 735 129 202 78 74
407 734 129 194 81 83
406 734 130 206 66 76
406 735 130 204 51 60
406 735 131 202 31 48
407 734 130 202 73 79
407 734 131 204 34 56
406 735 132 197 23 40
407 734 132 204 33 54
407 735 132 199 30 48
407 735 133 190 26 47
407 735 134 184 28 50
407 735 135 179 32 50
407 735 141 224 187 143
406 735 143 177 72 61
407 734 143 182 29 68
407 735 142 189 131 110
407 735 143 178 64 72
413 725 128 189 209 227
412 727 128 199 146 166
412 727 129 206 35 42
413 726 128 200 170 184
413 726 129 206 44 49
413 727 128 201 78 107
413 727 129 207 34 41
413 727 130 208 26 46
413 727 131 203 24 48
414 725 128 185 193 206
414 725 129 182 114 123
415 724 128 183 200 216
415 724 129 191 190 197
415 725 128 184 195 206
415 725 129 188 110 124
414 725 130 210 31 62
415 725 130 211 34 60
415 725 131 203 28 37
414 726 129 198 49 62
414 726 130 209 35 49
414 726 131 208 57 71
414 727 131 206 33 65
415 726 131 205 80 79
413 727 132 200 16 41
415 725 132 201 65 73
414 726 132 230 132 142
414 727 132 204 46 72
414 727 133 206 20 53
415 726 132 218 111 118
415 726 133 210 47 70
414 727 134 209 36 59
414 727 135 206 38 56
415 726 134 211 28 60
415 726 135 207 30 52
415 727 134 209 25 55
415 727 135 206 32 52
414 727 136 197 38 56
415 726 136 190 35 56
415 726 137 131 39 65
415 727 136 189 35 61
415 727 137 124 34 56
415 726 138 129 111 117
415 726 139 146 126 148
415 727 138 115 85 97
415 727 139 135 101 125
415 726 140 111 68 127
415 726 141 125 44 120
415 727 140 113 69 123
415 727 141 122 56 126
414 727 143 184 39 73
415 726 142 175 57 106
415 726 143 189 45 67
415 727 142 158 53 102
415 727 143 181 45 77
408 731 128 194 57 61
409 730 128 191 62 76
409 731 128 196 48 50
409 731 129 186 37 43
409 731 130 190 90 91
410 729 128 193 72 91
410 729 129 200 29 30
411 728 128 199 121 138
411 729 128 200 72 85
411 729 129 200 31 34
411 729 130 195 49 65
411 729 131 210 75 101
410 730 128 198 38 53
410 730 129 194 33 44
410 730 130 188 37 53
410 730 131 191 49 53
410 731 130 169 46 54
410 731 131 193 69 74
411 730 131 197 26 53
411 729 132 214 68 93
410 731 132 200 35 52
410 731 133 203 24 42
411 730 132 202 28 50
411 730 133 204 27 57
411 731 132 202 25 43
411 731 133 202 23 47
411 730 134 201 28 51
411 731 134 200 32 51
411 731 135 197 41 56
408 732 128 196 38 46
408 732 129 196 28 60
408 733 129 195 22 60
409 732 129 194 48 70
408 732 130 197 28 52
408 732 131 199 22 45
408 733 130 195 32 45
408 733 131 201 30 51
409 732 130 198 69 83
409 732 131 198 40 62
408 733 132 203 30 53
408 733 133 202 33 47
409 732 132 202 27 48
409 732 133 203 38 52
409 733 132 203 33 52
409 733 133 201 36 51
409 732 134 201 43 57
409 733 134 196 42 48
409 733 135 185 42 54
408 734 132 205 33 51
408 734 133 197 31 51
408 734 134 188 32 49
408 734 135 173 38 47
408 735 134 182 28 43
408 735 135 171 40 49
409 734 135 176 38 45
410 732 132 203 22 43
410 732 133 203 27 48
410 732 134 200 33 58
410 732 135 191 40 55
410 733 134 199 47 57
410 733 135 190 48 58
411 732 135 194 38 60
412 728 128 202 72 98
412 728 129 205 33 32
412 728 130 192 32 50
412 728 131 183 70 81
412 729 130 185 49 59
412 729 131 223 127 145
413 728 130 190 16 45
413 728 131 190 33 46
412 728 132 222 105 122
412 729 132 215 66 91
412 729 133 205 25 52
413 728 132 200 48 66
413 728 133 206 32 52
412 729 134 205 32 61
412 729 135 202 38 61
413 728 134 206 31 51
413 728 135 201 36 54
413 729 134 205 27 53
413 729 135 200 37 56
412 730 133 205 28 59
412 730 134 201 31 55
412 730 135 196 40 50
414 728 133 206 29 51
414 728 134 206 34 57
414 728 135 203 35 52
411 731 136 172 53 60
411 731 137 100 55 58
411 731 138 91 38 68
411 731 139 103 65 82
411 731 140 121 100 117
411 731 141 100 64 124
411 731 142 151 58 112
411 731 143 192 53 87
409 733 136 141 39 49
409 733 137 103 36 42
409 733 138 135 42 71
409 733 139 140 53 85
408 734 136 137 33 51
408 735 136 139 26 46
408 735 137 136 26 56
409 734 136 134 30 46
409 734 137 117 27 52
408 735 138 155 46 88
408 735 139 153 65 101
409 734 138 146 38 80
409 734 139 141 52 99
410 732 136 156 45 50
410 733 136 147 44 52
410 733 137 97 45 47
411 732 136 165 49 55
411 732 137 96 43 52
410 733 138 126 54 77
410 733 139 127 62 82
411 732 138 110 47 78
411 732 139 110 56 77
409 733 142 156 49 122
409 733 143 179 44 80
408 734 141 136 90 114
408 735 140 156 110 116
408 735 141 182 152 130
409 734 140 119 63 107
409 734 141 117 60 128
408 734 142 160 88 104
408 734 143 176 41 81
408 735 142 186 146 119
409 734 142 145 52 122
409 734 143 168 38 97
410 733 140 121 81 109
410 733 141 103 68 131
411 732 140 117 84 109
411 732 141 95 63 125
410 732 142 145 69 130
410 732 143 185 47 86
410 733 142 137 58 128
410 733 143 183 46 85
411 732 142 144 60 122
411 732 143 189 47 85
413 728 136 196 50 52
413 729 136 179 63 68
413 729 137 106 80 79
413 729 138 74 54 61
413 729 139 111 100 105
412 730 136 172 69 62
412 730 137 98 77 77
412 731 136 178 58 58
412 731 137 105 64 64
413 730 137 102 84 82
412 730 138 74 52 65
412 730 139 102 85 96
412 731 138 79 46 63
412 731 139 107 78 93
413 730 138 73 56 67
413 730 139 102 94 99
414 728 136 184 41 55
414 728 137 115 47 57
414 729 137 112 67 72
414 728 138 99 58 76
414 728 139 131 107 113
414 729 138 79 51 59
414 729 139 113 95 99
413 729 140 103 92 117
413 729 141 102 74 137
413 729 142 143 67 120
413 729 143 178 45 79
412 730 140 115 104 119
412 730 141 100 76 133
412 731 140 123 108 122
412 731 141 104 73 129
413 730 140 106 98 117
413 730 141 94 70 130
412 730 142 155 71 125
412 730 143 190 53 82
412 731 143 192 49 80
413 730 142 136 73 133
413 730 143 193 46 65
414 728 140 109 84 115
414 728 141 100 49 121
414 729 140 100 80 107
414 729 141 102 60 131
414 728 142 143 60 113
414 728 143 177 39 78
414 729 142 142 64 120
401 721 155 160 50 62
400 722 155 159 33 61
400 723 155 165 68 85
401 722 155 170 80 89
401 723 155 166 62 78
402 721 155 163 86 90
403 721 155 149 73 78
402 722 155 189 130 131
402 723 154 176 73 77
402 723 155 186 106 111
403 722 155 165 92 90
403 723 154 171 65 65
403 723 155 172 84 79
400 720 156 193 121 129
400 721 156 180 75 90
401 720 156 163 68 76
401 721 156 162 52 66
402 720 156 151 41 56
402 721 156 150 50 60
403 720 156 145 52 67
403 721 156 149 63 71
400 725 153 164 103 71
401 725 153 179 115 64
400 724 154 168 86 95
400 724 155 185 115 121
400 725 154 159 85 74
401 724 154 155 45 52
401 725 154 164 83 53
400 726 153 172 122 69
400 727 152 174 132 68
400 727 153 170 128 66
401 726 153 187 135 68
401 727 152 183 137 66
402 725 153 180 104 62
403 725 153 179 105 79
402 724 154 167 53 54
402 725 154 174 81 62
403 724 154 173 68 67
403 725 154 178 84 74
402 726 152 187 132 64
402 726 153 185 122 61
402 727 152 185 138 68
403 726 152 192 144 88
403 726 153 186 127 78
403 727 152 193 149 90
404 720 155 133 64 73
404 721 155 132 52 61
405 720 155 107 38 55
405 721 155 109 39 53
404 722 155 137 49 51
404 723 154 161 70 76
404 723 155 156 64 70
405 722 155 122 51 64
405 723 154 133 60 69
406 720 155 95 31 64
406 721 155 98 40 74
407 720 155 90 45 97
407 721 155 80 44 115
406 722 155 104 51 78
406 723 154 99 46 66
407 722 155 76 41 105
407 723 154 80 56 96
407 723 155 70 52 108
404 720 156 137 67 77
404 721 156 153 81 85
405 720 156 107 42 60
406 720 156 97 34 60
407 720 156 92 64 117
404 725 153 167 112 87
405 725 153 150 112 82
404 724 154 159 75 72
405 724 154 134 75 64
404 726 152 197 156 115
404 727 152 197 154 111
405 726 152 177 139 100
405 727 152 168 114 79
406 725 153 131 101 76
407 725 153 135 106 93
406 724 154 104 69 64
407 724 154 102 92 103
407 725 154 147 135 131
406 726 152 145 97 62
406 726 153 139 95 65
406 727 152 144 70 52
407 726 152 157 85 76
407 726 153 146 91 78
407 727 152 161 64 67
400 729 151 161 125 121
401 729 151 177 144 130
400 730 151 154 120 114
400 731 151 154 125 105
401 730 151 167 135 127
401 731 150 172 138 112
401 731 151 161 130 110
402 728 151 185 143 104
402 729 151 190 150 126
403 728 151 175 122 80
403 729 151 185 133 113
402 730 151 183 147 123
402 731 150 190 148 123
403 730 150 212 168 144
403 730 151 201 156 132
403 731 150 206 138 121
402 735 147 181 65 86
403 734 147 184 89 96
403 735 146 178 104 106
403 735 147 192 104 112
401 733 149 187 124 130
400 732 150 165 140 116
400 732 151 163 137 112
400 733 150 167 135 122
401 732 150 176 138 117
401 733 150 186 138 132
400 734 149 163 117 124
400 735 148 143 67 85
400 735 149 154 94 108
401 734 148 180 88 108
401 734 149 177 105 119
401 735 148 173 63 89
402 733 149 186 98 106
403 732 149 185 64 69
403 733 149 186 65 77
402 732 150 195 129 119
402 733 150 192 118 122
403 732 150 194 98 90
402 734 148 191 88 106
402 734 149 188 103 113
402 735 148 189 68 97
403 734 148 183 70 84
404 728 151 176 117 94
404 729 151 178 106 100
405 728 151 159 82 73
405 729 151 154 60 57
404 731 149 185 62 70
405 731 149 173 48 59
404 730 150 196 123 116
404 731 150 190 81 85
405 730 150 161 57 57
405 731 150 175 55 69
406 728 151 140 41 46
406 729 151 147 37 46
407 728 151 163 38 59
407 729 150 202 107 125
407 729 151 175 64 82
406 731 149 175 66 71
407 730 149 185 57 76
407 731 148 168 50 58
407 731 149 177 52 66
406 730 150 162 54 56
407 730 150 183 69 88
405 733 147 156 35 50
404 735 145 160 88 77
405 734 145 159 64 64
405 735 144 176 97 56
405 735 145 166 85 66
404 734 146 157 67 67
404 734 147 166 66 71
404 735 146 161 84 79
405 734 146 154 49 57
405 734 147 155 38 50
407 733 145 162 44 53
406 733 146 149 47 53
406 733 147 152 52 61
407 732 147 155 76 79
407 733 146 151 53 61
407 733 147 152 66 73
406 734 145 162 57 55
406 735 144 181 75 65
406 735 145 173 71 61
407 734 144 190 51 67
407 734 145 175 55 58
407 735 144 186 50 65
406 734 146 151 46 52
404 732 149 185 54 66
404 733 148 170 35 57
404 733 149 182 38 62
405 732 148 162 25 40
405 732 149 173 44 57
405 733 148 162 24 49
406 732 148 154 36 44
406 732 149 165 45 52
406 733 148 152 42 45
407 732 148 160 56 60
400 728 152 151 110 68
400 729 152 152 114 100
401 728 152 167 126 79
402 728 152 181 138 81
403 728 152 184 139 84
409 727 151 183 34 57
410 727 151 184 57 69
411 726 151 174 69 73
411 727 150 170 53 60
411 727 151 174 69 75
415 723 150 106 61 74
415 723 151 134 61 76
413 727 147 117 26 41
415 725 145 189 41 59
415 725 146 176 44 59
415 725 147 151 43 55
414 727 144 184 39 53
414 727 145 171 29 41
415 726 144 192 35 46
415 726 145 182 38 50
415 727 144 186 42 51
415 727 145 179 37 42
414 726 146 147 35 41
414 726 147 116 35 40
414 727 146 143 25 36
414 727 147 117 26 40
415 726 146 165 39 49
415 726 147 131 35 47
413 725 151 189 62 76
412 727 149 184 115 117
413 726 149 164 98 95
413 727 148 113 73 78
413 727 149 152 99 103
412 726 150 183 79 82
412 726 151 170 46 54
412 727 150 180 83 84
413 726 150 182 76 85
413 726 151 179 44 58
414 725 149 120 65 78
415 724 149 82 46 62
415 725 148 95 27 43
415 725 149 94 48 64
414 724 151 181 93 103
414 725 150 169 87 104
414 725 151 199 101 113
415 724 150 121 60 80
415 724 151 160 79 93
414 726 148 99 53 59
414 726 149 120 67 76
415 726 148 93 36 39
408 721 155 54 55 133
409 721 155 93 119 156
408 722 155 72 88 135
408 723 154 134 142 155
408 723 155 112 128 149
409 722 155 132 150 170
409 723 155 160 161 169
410 721 155 146 167 186
411 721 155 148 130 141
410 722 155 157 158 169
410 723 155 147 115 127
411 722 155 150 89 106
411 723 154 169 42 70
411 723 155 160 46 75
408 720 156 74 64 142
408 721 156 53 60 138
409 720 156 52 61 140
409 721 156 72 97 149
410 720 156 81 107 156
410 721 156 140 163 185
411 720 156 146 171 196
411 721 156 155 166 181
408 725 153 158 88 91
409 725 153 180 89 97
408 724 154 153 147 151
408 725 154 158 134 131
409 724 154 160 137 139
409 725 154 183 129 126
408 726 152 175 56 70
408 726 153 167 65 76
408 727 152 179 47 60
409 726 152 185 31 60
409 726 153 183 46 73
409 727 152 184 35 57
410 725 153 201 101 106
411 724 153 180 20 44
411 725 153 186 45 60
410 724 154 175 119 121
410 725 154 204 129 128
411 724 154 178 53 70
410 726 152 186 36 65
410 726 153 191 55 73
410 727 152 187 65 77
411 726 152 183 57 72
411 726 153 183 33 58
412 721 155 147 89 101
413 721 155 176 105 120
413 723 153 185 52 78
412 722 155 162 47 66
412 723 154 177 16 44
413 722 154 186 57 68
413 722 155 191 85 94
413 723 154 181 31 52
415 721 153 157 65 66
414 720 155 168 100 115
414 721 154 197 80 94
414 721 155 195 102 115
415 720 154 161 51 68
415 720 155 176 83 94
415 721 154 181 54 77
414 723 152 180 74 80
414 723 153 191 77 93
415 722 152 133 51 65
415 722 153 171 50 62
415 723 152 155 49 63
415 723 153 175 51 68
414 722 154 198 71 83
414 723 154 190 58 78
412 720 156 161 172 189
412 721 156 146 133 144
413 720 156 155 142 155
414 720 156 162 133 144
412 724 153 179 27 48
412 725 152 176 33 47
412 725 153 177 17 39
413 724 152 201 95 107
413 724 153 189 73 89
413 725 152 183 49 66
412 724 154 182 21 47
412 726 152 173 35 55
414 724 152 198 98 106
414 724 153 213 120 121
409 731 146 119 14 46
409 731 147 121 33 51
410 731 145 163 38 49
411 730 145 188 54 59
411 731 144 202 45 60
411 731 145 182 47 58
410 730 147 100 25 46
410 731 146 126 22 41
410 731 147 105 17 40
411 730 146 138 41 48
411 730 147 99 24 40
411 731 146 145 38 47
409 729 149 191 47 62
408 728 151 180 51 70
408 729 150 221 124 136
408 729 151 204 102 114
409 728 151 183 36 62
409 729 150 203 81 93
408 730 149 193 67 81
408 731 148 165 56 61
408 731 149 180 45 53
409 730 148 160 41 48
409 730 149 185 45 59
409 731 148 150 46 51
408 730 150 207 101 114
410 729 149 171 21 49
411 728 149 166 40 56
411 729 148 113 15 47
411 729 149 155 26 56
410 728 150 176 29 46
410 728 151 179 34 56
410 729 150 180 30 52
411 728 150 172 45 56
410 730 148 130 28 48
410 730 149 173 26 48
411 730 148 102 13 44
408 733 144 179 43 54
408 733 145 160 33 45
409 732 145 149 16 40
409 733 144 176 31 46
409 733 145 150 6 39
408 732 146 141 45 56
408 732 147 146 63 72
408 733 146 149 44 54
409 732 146 127 20 44
408 734 144 184 32 55
410 732 144 189 42 60
410 732 145 164 31 44
411 732 144 199 41 64
412 729 145 179 53 63
413 728 145 173 40 50
413 729 144 192 43 56
413 729 145 185 51 62
412 728 147 111 33 46
412 729 146 150 40 47
412 729 147 109 36 47
413 728 146 143 16 49
413 728 147 117 27 49
413 729 146 150 26 56
412 730 144 203 46 64
412 730 145 194 55 60
413 730 144 197 40 58
412 730 146 149 46 50
414 728 144 183 34 50
414 728 145 172 36 46
412 728 148 104 54 56
412 728 149 153 70 80
412 729 148 102 34 48
413 728 148 104 54 56
