ply
format ascii 1.0
comment Version 2, Copyright 2017, 8i Labs, Inc.
comment frame_to_world_scale 0.179523
comment frame_to_world_translation -45.2095 7.18301 -54.3561
comment width 1023
element vertex 232
property float x
property float y
property float z
property uchar red
property uchar green
property uchar blue
end_header
384 644 192 91 83 79
384 645 192 106 106 112
384 645 193 125 129 139
385 644 192 85 70 66
385 645 192 95 89 93
385 645 193 114 116 124
384 646 193 152 159 172
384 647 193 176 181 194
385 646 193 148 153 164
385 647 193 179 184 195
384 647 194 171 178 193
385 647 194 183 189 201
386 645 192 86 78 80
386 646 192 107 108 116
386 646 193 134 139 150
386 647 193 171 176 188
387 646 192 93 92 99
387 647 192 118 121 134
387 647 193 150 156 168
388 646 192 87 85 92
388 647 192 115 118 128
388 647 193 150 156 168
389 647 192 111 113 120
384 648 194 149 160 185
384 649 194 112 127 171
384 649 195 96 115 167
385 648 194 169 178 196
385 649 194 127 144 179
384 650 194 88 112 166
384 650 195 72 102 162
384 651 195 56 94 154
385 650 194 90 115 169
385 651 194 65 98 159
385 651 195 53 91 154
386 648 193 179 186 201
387 648 193 169 178 193
387 649 193 150 160 189
386 648 194 168 178 196
386 649 194 143 156 186
387 649 194 136 149 184
387 650 193 127 139 187
386 650 194 105 126 176
386 651 194 73 104 163
387 650 194 117 132 183
387 651 194 91 114 174
384 652 195 72 110 159
384 653 195 58 103 159
385 652 195 54 95 154
385 653 195 52 98 157
384 654 195 56 101 163
384 655 195 58 105 174
385 654 195 52 100 162
385 655 195 48 100 167
386 652 194 51 95 154
386 652 195 52 94 155
386 653 195 55 100 157
387 652 194 58 99 160
387 653 194 59 102 159
386 654 195 59 103 160
386 655 195 53 103 165
387 654 194 75 111 163
387 654 195 75 113 165
387 655 194 68 108 165
387 655 195 54 101 168
384 653 196 82 119 166
384 654 196 75 112 169
384 655 196 71 111 174
388 648 193 154 164 180
388 649 193 149 158 187
389 648 192 125 131 142
389 648 193 141 151 167
389 649 193 146 156 182
388 650 193 134 143 187
388 651 193 111 127 181
389 650 193 145 154 190
389 651 193 122 136 186
388 651 194 90 115 174
390 648 192 118 125 138
390 649 192 140 153 173
390 649 193 145 157 180
391 648 192 112 118 134
391 649 192 138 149 166
390 650 193 156 166 194
390 651 193 142 154 193
391 650 192 163 174 193
391 650 193 165 177 198
391 651 192 163 175 200
391 651 193 155 167 199
388 652 193 82 112 170
389 652 193 93 119 176
389 653 193 78 110 170
388 652 194 73 108 167
388 653 194 58 99 160
389 654 193 58 92 159
389 655 193 48 87 155
388 654 194 61 97 158
388 655 194 64 101 160
389 655 194 51 90 156
390 652 193 111 131 184
390 653 193 94 120 178
391 652 193 125 141 190
391 653 193 107 129 185
390 654 193 69 99 165
390 655 193 50 87 158
391 654 193 87 114 175
391 655 193 56 92 164
392 649 192 128 137 152
393 649 192 121 130 146
392 650 192 159 169 186
392 651 192 160 171 197
393 650 192 148 157 172
393 651 192 159 169 188
394 650 192 137 145 157
394 651 192 153 164 180
392 652 192 144 156 197
392 653 192 132 149 196
393 652 192 152 163 196
393 653 192 156 172 208
392 654 192 102 124 183
392 655 192 65 96 170
393 654 192 137 158 201
393 655 192 85 114 178
394 652 192 159 172 197
394 653 192 161 179 208
395 652 192 164 176 198
395 653 192 156 174 201
394 654 192 158 179 211
394 655 192 114 137 190
395 654 192 157 178 207
384 656 195 80 121 185
384 657 195 122 160 204
385 656 195 50 103 174
385 657 195 95 137 191
384 659 193 150 173 217
385 659 193 121 148 210
384 658 194 154 185 220
384 659 194 157 184 221
385 658 194 127 163 209
385 659 194 132 163 214
386 656 195 49 101 170
386 657 194 83 123 186
386 657 195 69 113 179
387 656 194 56 101 168
387 657 194 59 101 173
386 659 193 96 130 203
387 659 193 78 117 195
386 658 194 97 135 197
386 659 194 100 133 203
387 658 194 69 109 182
387 659 194 76 114 191
384 656 196 77 116 181
384 660 192 121 139 202
384 660 193 139 161 215
384 661 192 107 129 197
385 660 192 109 133 205
385 660 193 111 137 208
385 661 192 101 126 202
386 660 193 94 125 205
386 661 192 104 131 208
387 660 193 90 126 203
387 661 192 119 148 213
387 661 193 105 138 210
389 656 193 49 93 160
389 657 193 63 106 170
388 656 194 54 99 164
388 657 194 52 97 168
389 656 194 49 94 160
389 657 194 58 103 170
388 659 193 65 109 186
389 658 193 68 110 177
389 659 193 69 110 184
388 658 194 57 102 174
388 659 194 56 102 180
389 658 194 62 106 174
390 656 193 60 99 165
390 657 193 66 108 170
391 656 193 60 98 167
391 657 193 68 109 170
390 658 193 71 112 175
390 659 193 70 109 183
391 658 193 75 114 175
391 659 193 72 111 179
388 660 193 95 135 201
388 661 192 149 176 222
388 661 193 133 167 218
389 660 193 91 132 197
389 661 192 173 196 229
389 661 193 146 176 220
388 662 192 154 177 220
389 662 192 173 194 229
390 660 193 79 119 191
390 661 192 165 188 223
390 661 193 129 160 209
391 660 193 73 113 183
391 661 192 144 168 209
391 661 193 99 134 191
390 662 192 175 195 227
391 662 192 174 192 224
391 663 192 183 200 231
392 656 192 50 88 166
392 656 193 52 93 166
392 657 192 57 100 168
392 657 193 67 108 169
393 656 192 49 87 168
393 657 192 50 92 166
392 658 192 96 130 178
392 658 193 80 118 174
392 659 192 113 143 185
392 659 193 92 127 179
393 658 192 87 123 174
393 659 192 119 149 186
394 656 192 68 99 175
394 657 192 51 92 170
394 658 192 78 116 173
394 659 192 108 140 179
395 658 192 90 123 175
395 659 192 112 142 181
392 660 192 124 153 191
392 660 193 103 135 186
392 661 192 141 165 201
393 660 192 125 153 188
393 661 192 137 159 192
392 662 192 158 176 211
392 663 192 166 184 221
393 662 192 148 169 202
393 663 192 151 171 210
394 660 192 121 148 182
394 661 192 129 153 187
395 660 192 127 153 186
395 661 192 122 148 185
394 662 192 131 154 193
395 662 192 113 139 183
