ply
format ascii 1.0
comment Version 2, Copyright 2017, 8i Labs, Inc.
comment frame_to_world_scale 0.179523
comment frame_to_world_translation -45.2095 7.18301 -54.3561
comment width 1023
element vertex 1428
property float x
property float y
property float z
property uchar red
property uchar green
property uchar blue
end_header
111 640 111 123 88 60
111 641 111 122 87 58
111 642 111 122 87 58
111 643 111 122 86 60
111 644 111 121 85 60
111 645 111 120 85 60
111 646 111 121 85 61
111 647 111 120 86 62
111 640 112 123 88 60
111 640 113 124 89 60
111 641 112 123 88 59
111 641 113 124 88 60
111 640 114 125 90 62
111 640 115 126 90 63
111 641 114 125 89 62
111 641 115 126 90 63
111 642 112 122 87 59
111 642 113 124 88 61
111 643 112 122 86 59
111 643 113 124 88 61
111 642 114 125 89 62
111 642 115 126 90 63
111 643 114 125 90 62
111 643 115 126 91 63
111 640 116 126 90 63
111 640 117 127 91 63
111 641 116 127 91 64
111 641 117 128 92 64
111 640 118 129 93 64
111 640 119 130 94 66
111 641 118 129 93 65
111 641 119 130 93 66
111 642 116 127 91 64
111 642 117 128 92 65
111 643 116 126 90 64
111 643 117 127 91 64
111 642 118 129 93 65
111 642 119 130 93 66
111 643 118 128 91 64
111 643 119 130 92 66
111 644 112 122 86 60
111 644 113 124 88 62
111 645 112 121 87 60
111 645 113 123 88 62
111 644 114 125 90 62
111 644 115 126 91 64
111 645 114 124 88 62
111 645 115 125 90 63
111 646 112 121 87 60
111 646 113 123 87 61
111 647 112 121 86 60
111 647 113 122 88 61
111 646 114 124 89 62
111 646 115 125 90 63
111 647 114 124 89 62
111 647 115 124 89 63
111 644 116 126 91 64
111 644 117 127 90 64
111 645 116 125 90 63
111 645 117 126 90 63
111 644 118 128 91 64
111 644 119 130 92 66
111 645 118 127 90 63
111 645 119 130 92 66
111 646 116 124 90 63
111 646 117 125 90 63
111 647 116 124 90 64
111 647 117 126 90 63
111 646 118 127 90 63
111 646 119 130 91 65
111 647 118 127 91 63
111 647 119 129 91 64
111 641 120 130 94 66
111 642 120 130 93 66
111 643 120 130 92 65
111 645 120 131 93 66
111 646 120 131 92 65
111 647 120 130 92 64
111 648 112 120 86 60
111 648 113 122 87 61
111 649 112 120 86 60
111 649 113 121 86 60
111 648 114 123 88 62
111 648 115 123 89 63
111 649 114 123 88 62
111 649 115 123 88 63
111 650 113 119 86 59
111 651 113 119 86 59
111 650 114 121 87 60
111 650 115 122 89 62
111 651 114 120 87 60
111 651 115 122 89 61
111 648 116 123 89 63
111 648 117 126 91 64
111 649 116 123 89 64
111 649 117 126 91 65
111 648 118 128 92 64
111 648 119 129 92 63
111 649 118 128 92 65
111 649 119 130 92 64
111 650 116 123 89 64
111 650 117 125 91 65
111 651 116 123 90 63
111 651 117 125 91 64
111 650 118 127 92 65
111 650 119 129 93 66
111 651 118 127 92 66
111 651 119 129 93 66
111 652 113 119 86 60
111 652 114 119 87 60
111 652 115 121 88 59
111 653 114 119 87 59
111 653 115 121 89 59
111 654 114 118 86 57
111 654 115 120 88 58
111 655 114 116 84 56
111 655 115 118 86 57
111 652 116 123 90 61
111 652 117 125 90 62
111 653 116 123 90 61
111 653 117 125 90 62
111 652 118 127 92 64
111 652 119 129 93 66
111 653 118 127 92 63
111 653 119 130 94 66
111 654 116 122 89 60
111 654 117 124 90 62
111 655 116 121 88 60
111 655 117 124 91 63
111 654 118 127 92 64
111 654 119 130 93 67
111 655 118 127 93 66
111 655 119 130 95 69
111 648 120 131 93 64
111 649 120 132 94 66
111 650 120 132 94 67
111 650 121 135 97 69
111 651 120 132 95 67
111 651 121 135 97 69
111 652 120 132 95 67
111 652 121 136 98 70
111 653 120 133 96 69
111 653 121 136 99 71
111 654 120 133 96 70
111 654 121 137 99 73
111 655 120 133 97 72
111 656 114 116 83 56
111 656 115 118 86 58
111 657 114 115 83 54
111 657 115 118 85 55
111 658 114 114 83 54
111 658 115 119 86 56
111 659 114 115 84 55
111 659 115 121 88 59
111 656 116 121 89 62
111 656 117 125 92 64
111 657 116 122 89 62
111 657 117 127 94 67
111 656 118 128 95 68
111 656 119 130 98 72
111 657 118 130 97 71
111 657 119 133 99 75
111 658 116 123 90 62
111 658 117 128 94 67
111 659 116 127 92 65
111 659 117 130 94 68
111 658 118 131 97 71
111 658 119 133 98 73
111 659 118 133 96 70
111 659 119 134 98 73
111 660 115 122 88 62
111 661 115 124 89 63
111 660 116 128 91 65
111 660 117 133 95 69
111 661 116 130 92 66
111 661 117 135 95 70
111 660 118 136 96 70
111 661 118 137 97 72
111 662 116 132 93 68
111 662 117 135 95 71
111 656 120 135 102 78
111 657 120 136 102 80
111 658 120 135 100 77
111 671 113 130 91 70
111 670 114 132 92 71
111 670 115 136 94 72
111 671 114 131 92 71
111 671 115 135 94 73
111 670 116 140 95 73
111 670 117 141 96 75
111 671 116 138 96 74
111 671 117 141 96 76
111 670 118 142 98 76
111 671 118 142 97 78
111 671 119 143 100 77
111 671 120 144 102 76
115 640 101 119 86 63
115 641 101 119 86 64
114 640 103 123 87 64
114 641 103 125 87 67
115 640 102 122 87 65
115 641 102 121 86 65
115 641 103 124 86 66
115 642 101 122 88 67
115 643 101 123 89 67
114 642 103 127 89 71
114 643 103 127 90 72
115 642 102 124 88 68
115 642 103 124 86 66
115 643 102 126 90 69
115 644 101 124 90 66
114 644 103 128 90 71
115 644 102 127 90 69
115 644 103 128 91 71
115 645 102 128 91 69
115 645 103 129 90 70
115 646 102 129 90 69
115 646 103 130 90 70
115 647 102 130 91 71
115 647 103 132 92 72
116 640 99 114 85 58
116 641 99 115 85 58
117 640 98 109 84 56
117 640 99 112 85 57
117 641 98 111 85 56
117 641 99 114 86 59
117 642 98 112 86 61
117 642 99 115 86 62
117 643 98 113 86 62
117 643 99 116 86 63
118 640 97 106 83 55
118 641 97 107 83 55
119 640 96 105 83 59
119 640 97 107 84 59
119 641 96 107 84 60
119 641 97 108 84 59
118 640 98 107 83 55
118 641 98 108 83 53
118 642 97 109 84 56
118 643 97 110 85 60
119 642 96 109 86 62
119 642 97 109 85 57
119 643 96 108 86 64
119 643 97 109 86 63
118 642 98 110 84 57
118 643 98 111 84 61
116 640 100 115 85 60
116 640 101 117 85 61
116 641 100 116 85 61
116 641 101 117 84 62
116 642 100 117 86 63
116 642 101 120 87 65
116 643 100 119 87 63
116 643 101 121 88 64
117 644 99 115 85 62
117 645 99 115 84 61
117 646 99 115 83 61
117 647 99 117 84 60
118 644 97 110 84 61
118 645 97 109 83 59
119 644 96 108 84 64
119 644 97 108 83 62
119 645 96 109 83 64
119 645 97 108 83 59
118 644 98 113 85 61
118 645 98 112 84 59
118 646 97 107 83 59
118 647 97 107 81 57
119 646 96 104 82 59
119 646 97 105 82 58
119 647 96 103 81 61
119 647 97 103 81 58
118 646 98 111 84 60
118 647 98 112 83 57
116 644 100 119 86 62
116 644 101 123 89 64
116 645 100 120 86 64
116 645 101 123 89 66
117 644 100 117 85 64
117 645 100 116 84 65
116 646 100 120 85 65
116 646 101 124 88 67
116 647 100 119 84 63
116 647 101 125 88 68
117 646 100 118 84 64
117 647 100 121 85 64
116 646 102 127 89 68
116 647 102 128 89 69
116 647 103 129 90 68
113 640 105 122 89 62
113 641 105 124 90 65
112 640 107 122 87 60
112 641 107 122 88 60
113 640 106 121 86 59
113 640 107 121 87 59
113 641 106 122 88 61
113 641 107 122 88 61
113 642 105 125 89 66
113 643 105 126 88 66
113 642 106 124 89 64
113 642 107 124 90 64
113 643 106 125 89 65
113 643 107 124 88 62
114 640 104 123 87 63
114 640 105 123 88 64
114 641 104 125 89 68
114 642 104 125 88 69
114 643 104 127 89 70
114 643 105 127 89 69
112 640 108 122 86 58
112 640 109 123 87 58
112 641 108 122 87 58
112 641 109 122 86 58
112 640 110 123 88 58
112 641 110 122 87 58
112 641 111 121 86 57
112 642 108 123 88 61
112 642 109 122 86 58
112 643 108 122 86 58
112 643 109 121 84 56
112 642 110 122 86 57
112 642 111 121 86 56
112 643 110 121 85 58
113 644 105 127 87 67
113 644 106 125 86 64
113 644 107 123 85 60
113 645 106 126 86 63
113 645 107 124 85 62
113 646 107 126 88 65
113 647 107 126 87 63
114 644 104 129 90 72
114 644 105 128 88 69
114 645 104 129 89 71
114 645 105 130 89 69
115 645 104 130 90 71
114 645 106 128 87 65
114 646 105 130 91 68
115 646 104 131 91 70
115 646 105 131 92 70
115 647 104 131 91 69
115 647 105 131 92 70
114 646 106 128 89 65
114 647 106 128 89 65
114 647 107 126 88 64
112 644 108 122 84 57
112 644 109 122 84 58
112 645 108 123 84 59
112 645 109 123 84 59
113 644 108 122 84 58
113 645 108 123 84 60
112 644 110 121 84 59
112 645 110 121 83 59
112 645 111 121 84 60
112 646 108 123 85 61
112 646 109 123 85 59
112 647 109 122 84 59
113 646 108 124 86 62
113 647 108 123 85 60
112 646 110 120 83 61
112 646 111 120 84 61
112 647 110 120 85 61
112 647 111 120 85 61
115 648 103 131 91 69
117 648 99 117 84 59
117 649 99 122 86 62
118 648 97 107 80 57
118 649 97 107 79 56
119 648 96 101 79 60
119 648 97 103 79 57
119 649 96 101 78 56
119 649 97 105 78 56
118 648 98 112 82 57
118 648 99 116 84 59
118 649 98 113 82 58
118 649 99 119 85 62
119 650 97 109 80 58
119 651 97 114 82 60
118 650 98 117 84 61
118 650 99 121 85 62
118 651 99 123 85 63
119 650 98 112 81 59
119 651 98 118 84 63
116 648 101 126 88 68
117 648 100 122 86 64
117 648 101 124 87 66
117 649 100 123 86 64
117 649 101 127 87 67
116 648 102 129 89 68
116 648 103 130 90 67
116 649 102 128 88 67
116 649 103 131 91 68
117 650 100 126 87 66
117 650 101 127 87 66
117 651 100 126 85 63
117 651 101 129 87 66
116 650 102 130 88 67
116 650 103 131 90 67
116 651 102 132 90 69
116 651 103 133 92 69
117 650 102 128 88 67
117 651 102 131 89 69
117 651 103 132 90 68
118 650 100 124 86 64
118 651 100 126 85 65
118 651 101 129 87 66
118 652 99 125 86 64
119 652 98 121 85 62
119 652 99 125 86 64
119 653 98 125 87 66
119 653 99 127 87 68
119 654 98 127 87 68
119 654 99 127 87 69
119 655 98 127 89 70
119 655 99 127 89 70
117 652 101 129 88 68
116 652 103 135 91 69
116 653 103 133 91 70
117 652 102 132 89 68
117 652 103 134 91 69
117 653 102 134 91 70
117 653 103 134 91 71
117 654 103 137 91 73
117 655 103 137 91 73
118 652 100 129 87 67
118 652 101 130 88 67
118 653 100 131 89 71
118 653 101 131 90 68
119 653 100 130 88 72
118 652 102 132 90 69
118 653 102 134 90 70
118 654 101 133 90 72
118 655 101 132 89 72
119 654 100 131 88 73
119 654 101 133 90 73
119 655 100 132 88 73
119 655 101 132 89 72
118 654 102 133 89 72
118 655 102 134 89 72
118 655 103 137 91 73
115 648 104 131 92 68
115 648 105 130 90 66
115 649 104 132 91 69
115 649 105 131 91 68
114 648 106 129 89 65
114 648 107 126 86 62
114 649 106 129 88 64
114 649 107 127 86 62
115 648 106 129 90 65
115 649 106 130 89 65
115 650 104 131 91 69
115 650 105 132 91 68
115 651 105 134 92 70
114 650 107 129 88 66
114 651 107 128 88 65
115 650 106 131 89 66
115 651 106 133 91 70
115 651 107 131 89 68
112 648 109 122 84 58
112 649 109 121 83 57
113 648 108 123 84 60
113 648 109 122 84 58
113 649 108 123 84 59
113 649 109 121 83 57
112 648 110 119 84 58
112 648 111 119 85 60
112 649 110 119 84 58
112 649 111 119 84 59
113 650 108 122 84 58
113 650 109 121 84 58
113 651 108 122 84 59
113 651 109 119 84 58
112 650 110 120 85 60
112 650 111 119 85 59
112 651 110 119 84 59
112 651 111 117 83 58
113 650 110 120 85 60
113 651 110 118 83 58
114 650 108 124 85 60
114 651 108 123 85 61
114 652 107 127 88 66
115 652 106 133 91 71
115 652 107 129 88 68
115 653 106 133 91 71
115 653 107 129 88 69
115 654 106 132 91 71
115 654 107 128 88 68
115 655 107 125 88 68
113 652 109 117 83 59
113 653 109 116 82 60
112 652 111 115 82 57
112 653 111 113 80 56
113 652 110 115 82 57
113 653 110 114 81 58
113 653 111 113 80 57
112 654 111 112 80 56
112 655 111 111 81 56
113 654 110 111 78 56
113 654 111 112 79 56
113 655 110 109 78 53
113 655 111 110 79 54
114 652 108 123 86 63
114 652 109 118 83 60
114 653 108 122 85 64
114 653 109 117 82 60
115 653 108 124 86 66
114 654 108 120 83 61
114 654 109 115 80 57
114 655 109 111 79 56
115 654 108 123 85 64
115 655 108 117 82 63
114 655 110 108 76 53
116 649 104 131 93 69
116 650 104 132 92 68
116 651 104 134 92 69
116 651 105 134 92 71
116 652 104 134 92 70
116 652 105 135 92 72
116 653 104 136 94 73
116 653 105 136 94 75
116 653 106 135 92 72
116 654 104 139 94 76
116 654 105 138 94 74
116 655 105 137 94 73
117 654 104 139 94 75
117 655 104 138 93 73
117 655 105 138 94 74
116 654 106 135 92 72
116 655 106 134 92 72
116 655 107 126 88 69
120 640 96 105 83 59
120 641 96 107 84 62
120 642 96 109 86 64
120 643 96 108 86 65
120 644 96 108 85 65
120 645 96 108 83 66
120 646 96 103 82 61
120 648 96 100 78 60
120 649 96 101 79 60
120 650 96 101 78 55
120 650 97 106 78 57
120 651 96 106 79 55
120 651 97 110 80 59
120 652 96 108 79 54
120 652 97 114 81 58
120 653 96 112 81 57
120 653 97 118 83 61
121 652 96 106 78 51
121 653 96 108 79 53
120 653 98 122 85 64
120 654 97 121 85 63
120 655 97 123 86 65
121 654 96 116 85 59
121 655 96 116 85 61
121 655 97 120 87 64
120 654 98 125 87 67
120 655 98 126 87 68
112 640 120 131 94 67
112 640 121 131 96 67
112 641 120 131 94 66
112 641 121 131 95 67
112 640 122 132 97 68
112 640 123 132 98 68
112 641 122 132 96 67
112 641 123 132 97 67
112 642 120 131 94 66
112 642 121 132 95 68
112 643 120 130 92 65
112 643 121 132 94 66
112 642 122 132 96 68
112 642 123 133 97 69
112 643 122 132 95 68
112 643 123 133 96 69
112 640 124 132 98 68
112 641 124 132 97 67
113 640 124 132 97 69
113 640 125 133 97 71
113 641 124 133 97 69
113 641 125 134 98 72
113 640 126 135 99 72
113 641 126 136 99 74
112 642 124 133 97 69
112 643 124 134 97 70
113 642 124 134 98 70
113 642 125 135 98 72
113 643 124 135 98 71
113 643 125 135 99 73
113 642 126 136 99 73
114 640 126 136 98 72
114 640 127 137 99 74
114 641 126 137 99 74
115 640 127 138 100 74
115 641 127 139 99 74
114 643 125 137 99 74
114 642 126 137 99 74
114 643 126 137 100 75
115 642 127 139 100 75
115 643 126 139 101 77
115 643 127 140 101 77
112 644 120 131 93 66
112 644 121 132 94 66
112 645 120 131 93 66
112 645 121 133 95 68
112 644 122 133 95 68
112 644 123 133 96 70
112 645 122 134 97 69
112 645 123 135 98 71
112 646 120 131 93 65
112 646 121 133 95 66
112 647 120 131 93 65
112 647 121 133 95 66
112 646 122 135 98 69
112 646 123 136 99 71
112 647 122 135 98 69
112 647 123 137 99 71
112 644 124 134 97 70
113 644 124 135 98 72
113 644 125 137 100 74
113 645 124 136 100 73
113 645 125 138 101 75
113 646 124 137 100 73
113 646 125 139 101 74
113 647 124 138 100 73
113 647 125 140 102 76
114 644 125 137 100 75
114 645 125 139 101 76
114 644 126 139 101 76
114 645 126 140 102 77
115 644 126 140 102 78
115 644 127 141 103 79
115 645 126 141 103 78
115 645 127 141 103 79
114 646 125 140 102 75
114 647 125 141 103 77
114 646 126 141 103 77
115 646 126 141 103 78
115 646 127 141 103 79
115 647 126 142 104 79
115 647 127 143 104 80
116 640 127 139 100 75
116 641 127 140 101 77
116 642 127 140 102 78
116 643 127 141 102 78
117 642 127 141 102 79
117 643 127 141 102 79
116 644 127 141 103 79
116 645 127 142 103 79
117 644 127 142 103 79
117 645 127 142 103 80
116 646 127 142 103 80
116 647 127 143 104 81
117 646 127 142 104 80
117 647 127 143 104 81
112 648 112 120 86 61
112 649 112 120 85 59
112 650 112 119 85 58
112 651 112 117 83 57
112 651 113 118 85 58
112 652 112 116 84 58
112 652 113 117 85 59
112 653 112 116 84 58
112 653 113 118 86 60
112 654 112 114 82 57
112 654 113 116 84 58
112 655 112 111 81 56
112 655 113 114 82 57
112 648 120 133 95 66
112 648 121 134 96 67
112 649 120 133 95 66
112 649 121 135 98 68
112 648 122 136 98 69
112 648 123 138 100 72
112 649 122 137 100 70
112 649 123 139 100 72
112 650 121 136 98 69
112 651 121 136 98 70
112 650 122 138 99 70
112 650 123 140 101 74
112 651 122 138 99 72
112 651 123 141 101 76
112 649 124 140 102 75
113 648 124 139 101 74
113 648 125 141 103 77
113 649 124 141 102 76
113 649 125 143 104 79
112 650 124 141 102 76
112 651 124 142 101 77
113 650 124 142 102 78
113 650 125 144 105 80
113 651 124 143 103 79
113 651 125 144 105 81
114 648 125 143 104 79
114 649 125 143 104 79
115 648 126 143 105 80
115 648 127 143 104 80
115 649 126 144 105 81
115 649 127 144 105 81
114 650 125 144 105 81
114 651 125 144 105 81
115 650 126 144 106 82
115 651 126 145 106 82
112 652 121 136 98 70
112 653 121 138 100 73
112 652 122 139 101 73
112 652 123 141 103 76
112 653 122 140 102 74
112 653 123 143 105 78
112 654 121 139 101 75
112 655 121 138 101 77
112 654 122 141 103 76
112 654 123 144 106 79
112 655 122 141 103 78
112 655 123 145 105 81
112 652 124 144 104 78
112 653 124 145 106 80
113 652 124 145 105 79
113 652 125 145 106 80
113 653 124 146 106 80
113 653 125 146 107 80
112 654 124 146 106 80
112 655 124 147 106 82
113 654 124 147 107 81
113 654 125 148 108 82
113 655 124 148 106 82
113 655 125 148 107 82
114 652 125 146 107 82
114 653 125 147 108 82
115 652 126 146 108 83
115 653 126 147 108 83
114 654 125 148 108 83
114 655 125 149 108 84
114 654 126 149 109 83
114 655 126 149 108 83
115 654 126 148 108 83
115 655 126 149 108 84
116 648 127 144 105 81
116 649 127 144 105 82
117 649 127 145 106 82
116 650 127 145 107 82
116 651 126 146 108 83
116 651 127 146 108 83
117 650 127 146 107 82
117 651 127 147 108 83
116 652 126 146 108 83
116 652 127 147 108 83
116 653 126 147 108 83
116 653 127 148 109 84
117 652 127 147 108 84
117 653 127 147 108 84
116 654 126 148 108 84
116 654 127 148 109 85
116 655 126 149 108 85
116 655 127 149 108 85
117 654 127 148 109 85
117 655 127 148 108 86
118 652 127 147 108 84
118 653 127 148 109 85
118 654 127 148 109 85
118 655 127 148 108 86
119 656 99 131 90 70
117 656 103 137 91 72
119 656 100 132 89 71
119 656 101 132 89 70
119 657 100 131 89 69
119 657 101 133 90 70
118 656 102 135 90 72
118 656 103 136 91 72
118 657 102 135 90 70
118 657 103 133 89 69
119 656 102 136 90 70
119 657 102 135 91 70
119 658 100 130 89 70
119 658 101 132 90 70
119 659 101 129 88 67
118 658 103 127 87 66
118 659 103 123 85 64
119 658 102 132 90 69
119 658 103 128 86 65
119 659 102 128 88 67
119 660 101 124 86 66
119 661 101 117 82 62
118 660 103 118 83 62
118 661 103 111 78 57
119 660 102 122 85 65
119 661 102 116 81 60
119 661 103 112 79 57
119 662 101 112 78 57
119 663 101 108 78 56
118 662 103 106 74 53
118 663 103 102 74 54
119 662 102 111 77 56
119 662 103 108 76 54
119 663 102 106 76 55
119 663 103 104 75 55
115 656 107 119 82 64
112 656 111 108 79 51
112 657 111 107 78 50
113 656 110 106 75 49
113 656 111 107 77 49
113 657 110 103 74 47
113 657 111 105 77 49
112 658 111 105 77 49
112 659 111 103 76 50
113 658 110 102 75 50
113 658 111 103 76 49
113 659 110 100 74 49
113 659 111 102 75 51
114 656 109 107 74 52
114 657 109 102 71 49
115 656 108 112 78 59
115 657 108 103 70 53
115 657 109 101 69 50
114 656 110 105 73 49
114 657 110 103 72 48
114 658 109 99 70 48
114 659 109 96 69 49
115 658 108 99 68 51
115 658 109 98 68 49
115 659 108 93 64 46
115 659 109 95 67 48
114 658 110 101 72 49
114 659 110 99 72 50
115 660 107 92 67 48
115 661 107 92 68 49
115 662 107 92 70 51
115 663 107 91 69 49
112 660 111 101 74 50
112 661 111 103 76 50
113 660 110 98 73 47
113 660 111 100 73 49
113 661 110 98 73 45
113 661 111 101 75 48
112 662 111 106 79 51
112 663 111 108 81 53
113 662 110 99 74 47
113 662 111 103 77 48
113 663 110 100 75 48
113 663 111 104 78 50
114 660 109 94 70 50
114 661 109 94 71 49
115 660 108 91 66 47
115 661 108 91 69 49
114 660 110 97 72 50
114 661 110 97 73 48
114 662 109 94 72 47
114 663 109 94 71 45
115 662 108 91 70 49
115 663 108 91 70 48
114 662 110 97 74 48
114 663 110 97 73 46
117 656 104 135 91 72
117 656 105 133 91 71
117 657 104 130 88 67
117 657 105 128 86 66
116 656 106 128 88 67
116 656 107 123 85 66
116 657 106 122 85 63
116 657 107 112 77 57
117 658 104 125 85 64
117 658 105 123 83 63
117 659 104 119 82 61
117 659 105 115 77 57
116 658 106 111 77 53
116 658 107 106 73 52
116 659 106 105 72 48
116 659 107 100 69 48
117 658 106 118 82 59
117 659 106 110 75 51
118 657 104 131 88 68
118 659 104 120 83 63
117 660 104 112 78 57
117 660 105 106 74 52
117 661 105 99 71 49
116 660 106 98 69 47
116 660 107 95 67 47
116 661 106 94 67 49
116 661 107 92 67 50
117 660 106 102 71 50
117 661 106 96 68 49
117 662 105 97 71 50
117 663 105 95 71 49
116 662 106 94 69 54
116 662 107 92 69 52
116 663 106 92 69 53
116 663 107 91 69 51
117 662 106 95 69 51
117 663 106 93 69 49
118 660 104 112 78 57
118 661 104 106 75 54
118 662 104 102 72 51
118 663 104 99 72 53
119 664 101 105 76 53
119 665 101 104 77 56
118 664 103 100 76 55
118 665 103 98 75 54
119 664 102 105 77 55
119 664 103 102 76 56
119 665 102 102 77 55
119 665 103 100 76 54
119 666 101 103 78 58
119 667 101 100 76 55
118 666 103 97 75 52
118 667 102 97 74 51
118 667 103 95 74 51
119 666 102 100 77 54
119 667 102 98 77 53
119 671 96 88 77 75
117 670 103 99 74 49
117 671 103 101 76 51
119 668 101 97 74 51
119 669 100 101 77 52
119 669 101 98 76 50
118 668 102 96 74 49
118 668 103 94 72 48
118 669 102 97 74 49
118 669 103 95 73 46
119 668 102 95 73 48
119 669 102 98 76 50
119 670 100 101 77 52
119 670 101 99 76 50
119 671 100 100 76 53
119 671 101 101 77 52
118 670 102 98 74 49
118 670 103 98 74 48
118 671 102 101 76 52
118 671 103 101 76 51
119 670 102 99 75 49
115 664 107 91 71 49
115 665 107 92 70 47
115 666 107 94 71 47
115 667 107 96 73 48
112 664 111 112 83 55
112 665 111 115 85 57
113 664 110 102 77 48
113 664 111 107 80 51
113 665 110 106 78 51
113 665 111 111 82 53
112 666 111 119 86 61
112 667 111 122 86 63
113 666 110 111 80 56
113 666 111 115 83 57
113 667 110 116 82 59
113 667 111 119 84 60
114 664 109 96 72 50
114 665 109 99 73 50
115 664 108 93 71 49
115 665 108 94 71 47
114 664 110 100 75 48
114 665 110 103 76 51
114 666 109 103 75 54
114 667 108 104 77 55
114 667 109 108 79 58
115 666 108 97 72 49
115 667 108 100 75 51
114 666 110 108 78 56
114 667 110 113 80 60
115 668 107 100 75 50
115 669 107 103 76 52
115 670 107 107 77 54
115 671 106 108 78 55
115 671 107 111 79 57
112 668 111 124 86 64
112 669 111 126 87 66
113 668 110 119 83 61
113 668 111 123 85 63
113 669 110 121 84 61
113 669 111 124 87 64
112 670 111 127 88 65
112 671 111 129 88 62
113 670 110 122 85 62
113 670 111 126 87 62
113 671 110 125 87 64
113 671 111 128 88 61
114 668 108 107 79 57
114 668 109 112 80 59
114 669 108 111 81 58
114 669 109 114 82 60
115 668 108 105 79 55
115 669 108 108 80 55
114 668 110 117 82 62
114 669 110 118 83 62
114 670 108 111 80 55
114 670 109 114 81 59
114 671 108 114 81 58
114 671 109 117 83 62
115 670 108 110 79 55
115 671 108 114 80 57
114 670 110 120 84 62
114 671 110 121 85 64
117 664 105 94 72 50
117 665 104 93 72 52
117 665 105 92 72 49
116 664 106 91 71 51
116 664 107 90 70 50
116 665 106 91 71 49
116 665 107 90 70 48
117 664 106 92 72 50
117 665 106 91 72 50
117 666 104 93 73 52
117 666 105 91 72 49
117 667 104 91 71 47
117 667 105 90 70 46
116 666 106 90 70 46
116 666 107 91 69 46
116 667 106 91 71 46
116 667 107 93 71 46
117 666 106 90 71 47
118 664 104 97 73 54
118 665 104 95 73 53
118 666 104 94 73 52
118 667 104 92 72 48
116 668 105 93 72 46
116 669 105 97 73 48
117 668 104 93 72 47
117 668 105 92 71 46
117 669 104 95 72 46
117 669 105 95 72 46
116 668 106 95 73 49
116 668 107 98 75 50
116 669 106 99 75 51
116 670 105 100 74 50
116 671 105 103 75 51
117 670 104 99 74 50
117 671 104 102 75 51
116 670 106 102 75 51
116 671 106 106 77 53
118 668 104 94 73 49
120 656 97 124 86 67
121 656 96 119 86 63
121 656 97 123 87 67
121 657 96 119 84 63
121 657 97 123 84 66
120 656 98 126 87 68
120 656 99 129 89 70
120 657 98 128 88 70
120 657 99 130 89 69
121 657 98 126 87 68
121 658 96 115 84 65
121 658 97 120 84 66
121 659 96 113 83 64
121 659 97 117 83 65
120 658 98 126 86 67
120 658 99 128 88 67
120 659 98 124 85 66
120 659 99 124 87 65
121 658 98 125 85 67
121 659 98 122 83 65
122 656 96 116 85 64
122 657 96 117 84 62
122 658 96 114 83 62
122 659 96 112 82 62
120 657 100 132 89 69
120 658 100 130 89 69
120 659 100 127 87 68
121 660 97 115 81 64
121 661 97 111 77 61
120 660 99 120 85 64
120 661 99 115 82 60
121 660 98 118 81 63
121 661 98 114 78 61
121 662 97 110 77 61
121 663 97 108 77 61
120 662 99 112 80 58
120 663 99 110 79 57
121 662 98 110 77 60
121 662 99 110 80 59
121 663 98 110 79 62
121 663 99 110 79 59
122 660 96 110 81 63
122 661 96 106 77 61
122 661 97 109 78 62
122 662 96 105 77 60
122 662 97 108 77 61
122 663 96 104 77 61
122 663 97 107 77 61
120 660 100 122 84 65
120 661 100 118 83 62
120 661 101 119 82 63
120 662 100 112 81 58
120 662 101 113 79 58
120 663 100 110 79 56
120 663 101 110 80 57
121 664 97 105 75 58
121 665 97 101 72 55
120 664 99 106 75 54
120 665 99 102 73 54
121 664 98 105 75 56
121 664 99 105 75 53
121 665 98 101 72 53
121 665 99 102 72 51
121 666 97 99 72 55
121 667 97 96 73 53
120 666 99 102 76 57
120 667 99 100 76 56
121 666 98 100 74 55
121 666 99 102 75 56
121 667 98 98 74 54
121 667 99 101 76 57
122 664 96 103 77 61
122 664 97 104 75 59
122 665 96 99 73 58
122 665 97 100 72 56
122 666 96 96 70 55
122 666 97 98 71 55
122 667 96 94 71 57
122 667 97 96 71 53
120 664 100 107 76 54
120 664 101 106 76 53
120 665 100 104 75 56
120 665 101 105 76 57
120 666 100 103 77 58
120 667 100 100 76 55
121 668 96 92 71 59
121 668 97 95 73 55
121 669 96 90 71 60
121 669 97 93 72 52
120 668 99 99 74 52
120 669 98 95 74 50
120 669 99 98 75 52
121 668 98 97 75 53
121 669 98 95 72 50
120 670 96 88 73 66
120 670 97 91 71 57
120 671 96 87 74 70
120 671 97 91 71 60
121 670 96 90 71 61
121 670 97 92 70 55
120 670 98 94 72 53
120 670 99 98 74 51
120 671 98 94 71 57
120 671 99 97 73 54
120 668 100 98 75 51
120 669 100 100 76 52
120 670 100 99 75 51
120 671 100 98 74 51
112 656 112 109 80 53
112 656 113 112 82 56
112 657 112 108 80 52
112 657 113 111 81 54
112 656 114 114 82 56
112 657 114 114 82 54
112 658 112 106 78 50
112 658 113 110 81 53
112 659 112 105 77 51
112 659 113 110 80 53
112 658 114 113 82 53
112 659 114 113 82 54
112 659 119 137 98 74
112 660 112 106 77 53
112 660 113 111 81 55
112 661 112 107 78 53
112 661 113 113 82 56
112 660 114 117 84 58
112 661 114 119 85 60
112 661 115 124 89 63
112 662 112 109 80 53
112 662 113 116 84 57
112 663 112 112 83 55
112 663 113 118 86 58
112 662 114 122 87 61
112 662 115 127 90 65
112 663 114 124 88 61
112 663 115 129 91 65
112 660 119 139 98 73
112 661 118 138 98 73
112 661 119 141 100 75
112 662 116 132 93 68
112 662 117 137 96 72
112 663 116 133 94 70
112 663 117 138 97 75
112 662 118 140 99 75
112 662 119 142 101 77
112 663 118 141 98 75
112 663 119 143 100 77
112 656 121 140 106 84
112 657 120 137 104 82
112 657 121 139 104 83
112 656 122 142 106 85
112 656 123 144 107 84
112 657 122 142 107 86
112 657 123 145 108 87
112 658 120 137 101 79
112 658 121 141 104 83
112 659 120 140 101 77
112 659 121 144 104 81
112 658 122 143 106 85
112 658 123 145 107 86
112 659 122 146 106 83
112 659 123 147 106 83
112 656 124 146 106 84
112 657 124 147 108 87
113 656 124 147 106 84
113 656 125 147 107 84
113 657 124 148 108 88
113 657 125 147 108 87
112 658 124 147 107 87
112 659 124 148 107 86
113 658 124 147 108 88
113 658 125 147 109 88
113 659 124 149 109 87
113 659 125 147 110 89
114 656 125 148 108 85
114 657 125 147 107 85
114 656 126 148 108 85
114 657 126 147 107 86
115 656 126 149 108 86
115 657 126 149 108 87
114 658 125 148 109 90
114 659 125 148 109 89
114 658 126 148 108 89
114 659 126 148 108 90
115 658 126 148 107 88
115 659 126 148 107 90
112 660 120 143 102 76
112 660 121 146 105 79
112 661 120 144 103 77
112 661 121 147 106 81
112 660 122 148 107 80
112 660 123 149 107 82
112 661 122 148 107 82
112 661 123 149 108 83
113 660 123 150 108 84
113 661 123 150 109 85
112 662 120 145 103 78
112 662 121 147 106 82
112 663 120 145 103 79
112 663 121 148 104 83
112 662 122 149 107 84
112 663 122 149 106 84
113 662 123 150 108 86
113 663 122 149 106 84
113 663 123 150 107 86
113 660 124 150 108 86
113 661 124 151 109 86
113 662 124 151 107 87
113 663 124 151 107 87
114 660 124 151 106 87
114 660 125 150 107 88
114 661 124 152 107 87
114 661 125 152 107 88
115 661 125 152 110 90
115 660 126 150 110 91
115 661 126 151 111 91
114 662 124 152 108 87
114 662 125 153 108 87
114 663 124 151 109 87
115 662 125 152 109 88
115 663 125 150 110 88
115 662 126 151 110 90
116 656 126 150 109 87
116 656 127 149 108 87
116 657 127 149 108 88
117 656 127 149 108 87
117 657 127 149 108 87
116 658 127 148 107 88
116 659 126 148 108 91
116 659 127 148 107 89
117 658 127 148 108 87
117 659 127 147 107 88
118 656 127 148 108 87
118 657 127 148 109 87
118 658 127 149 109 87
116 660 126 148 110 91
116 660 127 148 110 89
116 661 126 149 111 91
116 661 127 148 112 91
117 660 127 145 109 88
117 661 127 145 111 92
116 662 126 148 110 89
116 663 126 145 109 89
117 662 127 144 110 91
117 663 127 135 107 92
118 662 127 135 108 94
118 663 127 123 104 98
112 664 112 115 84 56
112 664 113 121 88 59
112 665 112 118 86 59
112 665 113 124 88 62
112 664 114 127 91 62
112 664 115 131 92 66
112 665 114 129 91 64
112 665 115 134 93 69
112 666 112 121 87 62
112 666 113 126 90 64
112 667 112 124 88 64
112 667 113 129 90 66
112 666 114 132 92 67
112 666 115 135 93 69
112 667 114 132 91 67
112 667 115 135 92 69
112 664 116 135 94 71
112 664 117 139 97 74
112 665 116 137 95 72
112 665 117 140 98 75
112 664 118 142 98 75
112 664 119 143 100 77
112 665 118 142 99 76
112 665 119 144 101 78
112 666 116 137 95 73
112 666 117 141 98 76
112 667 116 139 95 74
112 667 117 142 99 77
112 666 118 143 100 78
112 666 119 145 102 80
112 667 118 144 101 79
112 667 119 145 102 81
112 668 112 126 88 66
112 668 113 130 91 68
112 669 112 127 89 67
112 669 113 129 91 68
112 668 114 133 92 69
112 668 115 136 93 71
112 669 114 132 92 70
112 669 115 136 93 71
112 670 112 127 88 66
112 670 113 128 90 67
112 671 112 129 88 65
112 671 113 129 90 68
112 670 114 131 91 70
112 670 115 134 92 71
112 668 116 139 95 74
112 668 117 142 99 77
112 669 116 139 95 73
112 669 117 142 98 76
112 668 118 143 101 79
112 668 119 144 101 80
112 669 118 142 99 77
112 669 119 144 100 79
112 670 117 141 96 74
112 670 118 142 99 76
112 670 119 143 100 79
112 664 120 145 103 80
112 664 121 148 104 83
112 665 120 145 102 80
112 665 121 146 104 82
113 665 121 147 105 84
113 664 122 148 106 84
113 664 123 149 107 85
113 665 122 147 105 85
113 665 123 147 106 84
112 666 120 145 103 81
112 666 121 145 103 82
112 667 120 145 103 81
112 667 121 145 104 83
113 666 121 146 104 84
113 667 121 145 104 85
113 666 122 146 105 84
113 666 123 145 105 82
113 667 122 145 105 85
113 667 123 143 104 81
114 664 124 149 108 85
114 665 124 146 104 81
115 664 124 147 107 84
115 664 125 143 107 83
115 665 124 143 104 81
115 665 125 138 105 82
114 666 124 143 104 81
114 667 124 138 104 84
115 666 124 139 104 85
115 666 125 132 103 89
115 667 124 129 102 92
115 667 125 115 96 100
112 668 120 144 102 81
112 668 121 145 104 84
112 669 120 145 102 81
112 669 121 145 104 84
113 668 121 145 104 85
112 669 122 142 105 85
113 668 122 144 105 85
113 668 123 140 106 84
113 669 122 142 105 85
113 669 123 131 102 88
112 670 120 145 102 80
112 670 121 144 103 84
112 671 120 144 102 79
112 671 121 140 102 83
112 670 122 140 104 87
112 671 122 122 95 88
113 670 122 134 102 87
113 670 123 120 94 88
113 671 123 98 82 93
114 670 123 94 79 94
114 671 123 77 74 107
114 668 124 125 101 90
114 669 124 102 87 93
115 668 124 103 90 100
115 668 125 85 86 117
115 669 124 85 82 106
115 669 125 72 89 127
114 670 124 80 76 103
114 671 124 67 80 120
115 670 124 66 82 122
115 670 125 68 94 137
115 671 124 70 96 137
115 671 125 89 114 150
116 665 125 130 103 88
116 664 126 135 105 90
116 665 126 121 101 96
117 664 127 119 100 99
117 665 127 98 95 111
116 666 125 121 100 96
116 667 125 97 88 106
116 666 126 97 92 107
116 667 126 76 89 122
117 666 126 77 91 121
117 666 127 81 96 125
117 667 126 70 99 138
117 667 127 76 108 145
118 664 127 98 96 112
118 665 127 81 99 129
118 666 127 78 108 142
118 667 127 93 120 152
116 668 125 73 99 143
116 669 125 69 98 144
116 668 126 70 96 139
116 669 126 73 103 151
117 668 126 79 109 153
117 668 127 79 109 153
117 669 126 74 102 152
117 669 127 73 103 152
116 670 125 82 108 149
116 671 125 101 121 156
116 670 126 89 111 154
117 670 126 79 103 151
117 671 126 80 105 148
118 668 127 79 107 148
118 669 127 55 86 142
118 670 127 53 86 141
118 671 127 50 88 137
