ply
format ascii 1.0
comment Version 2, Copyright 2017, 8i Labs, Inc.
comment frame_to_world_scale 0.179523
comment frame_to_world_translation -45.2095 7.18301 -54.3561
comment width 1023
element vertex 1492
property float x
property float y
property float z
property uchar red
property uchar green
property uchar blue
end_header
105 707 96 87 109 147
106 704 96 96 119 152
106 705 96 91 116 150
106 705 97 104 126 154
107 704 97 97 116 149
107 705 96 96 116 148
107 705 97 95 121 151
107 704 98 90 115 148
106 706 96 94 116 153
106 706 97 110 132 158
106 707 96 95 115 152
106 707 97 101 125 154
107 706 97 102 129 154
107 706 98 96 125 153
107 707 98 97 126 153
105 708 96 93 116 151
105 709 96 100 125 153
105 709 97 98 125 154
104 711 96 90 108 146
105 710 96 97 122 152
105 710 97 94 124 154
105 711 96 85 109 148
105 711 97 66 103 146
106 708 97 98 123 153
106 709 97 101 130 156
106 708 98 101 128 155
106 709 98 96 126 156
107 708 98 101 129 156
107 708 99 98 127 154
107 709 98 99 128 157
107 709 99 93 123 155
106 710 97 93 124 155
106 710 98 78 115 151
106 711 98 71 106 149
106 711 99 83 113 152
107 710 98 85 118 152
107 710 99 86 117 153
107 711 99 90 118 156
108 704 97 89 112 146
108 704 98 93 114 148
108 705 98 95 121 151
108 705 99 95 119 147
109 704 98 102 117 151
109 704 99 108 119 152
109 705 99 103 124 149
108 706 98 96 124 152
108 706 99 98 123 149
108 707 99 95 125 152
109 706 99 101 126 150
109 707 99 100 126 151
110 704 99 110 122 152
110 705 99 107 125 150
109 707 100 97 123 149
110 704 100 110 121 151
110 704 101 110 121 151
110 705 100 107 125 152
110 705 101 110 126 153
111 704 101 107 116 147
111 705 101 110 123 150
111 704 102 101 111 140
111 704 103 98 107 138
111 705 102 104 118 145
111 705 103 105 117 142
110 706 100 101 125 150
110 706 101 104 123 150
110 707 100 100 125 150
110 707 101 102 124 151
111 706 101 107 123 149
110 706 102 103 120 148
110 707 102 96 117 150
111 706 102 103 119 147
111 706 103 105 120 144
111 707 102 96 115 149
111 707 103 95 113 148
108 708 99 101 128 155
108 709 99 99 127 157
109 708 99 102 129 155
108 710 99 91 119 155
108 711 99 87 116 155
108 709 100 102 129 158
109 708 100 95 123 149
109 709 100 89 118 150
108 710 100 82 109 152
108 711 100 77 104 150
109 710 100 81 108 151
109 710 101 85 108 151
109 711 100 74 97 150
109 711 101 75 97 149
110 708 100 95 122 148
110 708 101 98 123 152
110 709 101 94 118 151
110 708 102 93 114 153
110 709 102 87 109 152
111 708 102 89 110 151
111 708 103 90 109 149
111 709 103 85 107 149
110 710 101 91 112 153
110 711 101 84 104 153
110 710 102 86 107 153
110 711 102 83 106 151
110 711 103 81 103 149
111 710 103 83 106 149
107 704 109 89 109 140
107 705 109 81 103 138
107 704 110 85 110 142
107 704 111 92 116 148
107 705 110 84 105 140
107 705 111 92 114 147
107 706 110 91 110 144
107 706 111 99 116 148
107 707 111 103 118 147
107 708 111 103 117 144
108 704 107 89 107 135
109 704 106 86 100 134
109 704 107 86 101 134
109 705 106 88 98 131
109 705 107 87 99 135
109 706 106 82 94 129
109 706 107 87 97 135
109 707 106 84 99 132
109 707 107 82 94 132
110 704 104 87 97 128
110 704 105 89 99 132
110 705 104 95 107 133
110 705 105 93 100 129
111 704 104 92 102 134
111 705 104 95 106 133
110 704 106 86 97 133
110 705 106 88 96 130
110 706 104 94 110 137
110 706 105 93 103 130
110 707 104 94 113 141
110 707 105 89 105 134
111 706 104 103 116 140
111 707 104 98 117 148
110 706 106 88 99 128
110 707 106 82 96 129
108 704 108 92 110 138
108 704 109 91 110 139
108 705 108 84 100 134
108 705 109 82 102 137
108 706 108 86 98 137
108 706 109 88 104 140
108 707 108 84 98 136
108 707 109 94 108 141
109 706 108 88 99 138
109 707 108 88 100 139
108 706 110 92 109 143
108 707 110 97 111 143
108 707 111 99 114 145
109 708 106 79 99 132
109 708 107 86 101 135
109 709 106 92 110 138
109 709 107 86 104 137
109 710 106 100 115 148
109 710 107 85 103 139
109 711 106 93 109 147
109 711 107 76 96 137
110 708 104 95 117 147
110 708 105 82 103 137
110 709 104 87 109 147
110 709 105 86 107 139
111 708 104 95 115 150
111 709 104 91 113 151
110 708 106 74 97 131
110 709 106 96 114 141
110 710 104 84 104 145
110 710 105 94 108 142
110 711 104 83 104 145
110 711 105 90 103 146
110 710 106 105 119 145
110 711 106 97 108 147
108 708 108 85 98 133
108 708 109 89 104 138
108 709 108 87 102 137
108 709 109 89 105 138
109 708 108 84 100 135
109 709 108 86 102 136
108 708 110 90 106 138
108 708 111 97 111 141
108 709 110 91 107 140
108 709 111 96 109 141
108 710 109 85 105 141
109 710 108 78 96 135
109 710 109 82 102 140
109 711 108 78 96 135
109 711 109 86 107 139
108 710 110 87 108 141
108 710 111 92 110 141
108 711 110 87 109 139
108 711 111 86 107 139
109 711 110 92 111 138
104 712 96 87 105 148
104 713 96 97 112 152
104 713 97 91 108 148
105 712 96 82 103 148
105 712 97 77 102 148
105 713 97 85 102 147
105 712 98 78 104 151
105 713 98 80 101 147
105 713 99 81 104 150
104 714 96 93 115 151
104 714 97 95 114 150
104 715 96 89 118 151
104 715 97 94 118 151
105 714 97 92 109 149
104 715 98 94 112 151
105 714 98 86 102 147
105 714 99 80 99 146
105 715 98 95 109 151
105 715 99 94 105 149
106 712 98 84 107 154
106 712 99 87 111 152
106 713 99 84 107 150
107 712 99 100 123 159
105 714 100 87 103 149
105 715 100 92 104 148
106 713 100 89 111 150
107 712 100 95 117 154
107 713 100 100 120 153
107 713 101 106 124 154
106 714 100 95 112 151
106 715 100 96 110 150
106 715 101 98 112 149
107 714 100 100 119 151
107 714 101 105 122 153
107 715 101 101 117 151
107 715 102 104 120 154
104 716 96 121 140 164
104 716 97 118 137 161
104 717 96 152 157 170
104 717 97 148 156 169
104 716 98 116 133 158
104 717 98 140 150 166
105 716 98 98 117 151
105 716 99 102 118 152
105 717 99 126 141 163
104 718 96 160 160 168
104 718 97 154 158 169
104 719 96 159 159 166
104 719 97 155 158 168
104 718 98 152 157 169
104 718 99 150 156 168
104 719 98 155 159 169
105 718 98 147 154 169
105 718 99 137 148 166
105 719 99 148 155 168
105 716 100 99 114 153
105 716 101 102 116 155
105 717 100 97 123 154
105 717 101 97 118 155
105 718 100 95 122 154
105 718 101 82 109 150
105 719 100 117 137 161
105 719 101 77 105 149
105 718 102 91 113 152
105 719 102 91 114 154
106 716 101 98 112 151
106 717 101 101 115 154
106 716 102 97 112 149
106 717 102 99 116 152
107 716 102 97 112 149
107 717 102 106 119 151
107 717 103 110 122 152
106 719 100 96 124 153
106 719 101 85 116 152
106 718 102 95 116 154
106 719 102 80 108 153
106 719 103 82 103 151
107 718 102 103 116 154
107 718 103 106 117 155
107 719 103 81 100 149
108 712 100 84 106 150
108 712 101 86 108 149
108 713 101 96 117 152
109 712 100 76 98 149
109 712 101 76 99 147
109 713 101 83 106 148
109 712 102 76 101 148
109 713 102 80 105 148
109 713 103 78 101 148
108 714 101 105 124 156
108 714 102 101 120 157
108 714 103 88 110 154
108 715 102 98 117 157
108 715 103 84 108 152
109 714 102 88 110 153
109 714 103 81 104 150
109 715 103 79 104 150
110 712 102 79 103 148
110 712 103 77 101 147
108 716 103 88 110 149
108 717 103 106 122 152
108 718 103 111 124 154
109 712 105 84 103 150
109 713 104 78 101 148
109 713 105 81 102 150
109 712 106 83 100 146
109 712 107 74 96 137
109 713 106 80 102 148
109 713 107 75 99 141
109 714 104 78 101 147
109 714 105 77 99 148
109 715 104 77 102 148
109 715 105 80 102 148
109 714 106 74 98 147
109 714 107 74 98 143
109 715 106 78 100 146
109 715 107 76 98 143
110 712 104 75 99 146
110 712 105 80 99 148
110 713 104 77 101 146
110 712 106 89 106 146
109 712 108 81 102 135
109 712 109 90 109 136
109 713 108 79 100 136
109 713 109 83 102 131
108 712 110 95 112 137
108 712 111 95 111 141
108 713 111 103 116 139
109 712 110 93 111 138
109 713 110 91 105 132
109 713 111 98 110 134
109 714 108 74 96 135
109 714 109 74 94 128
109 715 108 78 98 135
109 715 109 81 100 130
109 714 110 80 96 128
109 714 111 96 109 134
109 715 110 86 101 130
109 715 111 97 110 133
108 716 104 80 105 149
108 717 104 96 116 150
108 717 105 92 112 149
109 716 105 78 102 145
109 717 105 91 111 148
109 716 106 80 102 143
109 716 107 80 103 140
109 717 106 93 112 146
109 717 107 91 113 142
108 718 104 111 125 154
108 718 105 105 120 151
108 719 104 96 109 147
108 719 105 101 115 147
109 718 105 97 114 147
109 719 105 99 114 147
109 718 106 93 110 142
109 718 107 94 112 141
109 719 106 96 111 143
109 719 107 94 111 139
109 716 108 83 103 136
109 716 109 90 106 130
109 717 109 91 106 130
109 716 110 96 108 128
109 716 111 102 112 130
109 717 110 91 105 125
109 717 111 98 110 127
109 718 108 95 114 139
109 718 109 94 111 135
109 719 108 96 113 139
109 719 109 97 114 138
109 718 110 96 111 131
109 718 111 103 116 133
109 719 110 97 113 135
109 719 111 104 117 137
110 716 108 84 102 133
110 716 109 93 108 130
110 717 108 88 108 135
110 717 109 92 108 133
110 718 108 96 114 139
107 704 112 99 123 154
107 704 113 100 124 155
107 705 112 103 122 154
107 705 113 106 125 157
107 704 114 106 127 156
107 704 115 113 132 159
107 705 114 108 126 157
107 705 115 120 134 159
107 706 112 106 122 152
107 706 113 108 124 155
107 707 112 108 123 149
107 707 113 109 124 151
107 706 114 109 124 155
107 706 115 124 135 158
107 707 114 110 123 153
107 707 115 123 133 158
107 704 116 112 131 160
107 705 116 124 138 161
107 708 112 106 119 145
107 708 113 109 124 150
107 709 112 107 121 146
107 709 113 109 124 150
107 708 114 106 121 151
107 709 114 107 123 152
108 707 115 122 133 158
108 704 117 111 127 159
108 705 116 122 138 161
108 705 117 114 129 157
109 704 117 109 122 155
109 705 117 108 123 154
108 706 116 124 137 159
108 706 117 110 126 154
108 707 116 121 133 157
109 706 117 100 118 149
109 707 117 108 126 153
110 705 117 107 123 154
110 704 118 108 122 153
110 705 118 103 122 152
111 704 118 104 122 150
111 705 118 97 118 146
110 706 117 94 115 147
110 707 117 100 122 149
110 706 118 96 117 148
111 706 118 94 116 145
111 707 118 104 125 150
108 709 112 105 117 145
108 709 113 110 123 150
108 708 114 106 121 152
108 708 115 115 127 155
108 709 114 105 122 153
108 709 115 107 123 154
108 710 112 101 116 146
108 710 113 107 121 151
108 711 112 98 115 145
108 711 113 104 121 151
108 710 114 103 121 154
108 710 115 102 121 152
108 711 114 107 124 154
108 711 115 111 128 155
108 708 116 115 127 154
108 709 116 107 122 152
109 708 117 110 128 153
109 709 116 102 119 149
109 709 117 109 127 152
108 710 116 105 122 152
109 710 116 113 130 156
109 710 117 114 133 155
109 711 116 119 135 158
109 711 117 117 135 157
110 708 117 107 127 151
110 709 117 119 134 155
111 709 117 118 133 152
111 708 118 119 135 156
111 709 118 125 137 155
110 710 117 121 136 156
110 711 117 117 133 152
111 710 117 123 135 153
111 711 117 125 137 153
111 710 118 125 136 152
111 711 118 127 137 152
108 712 112 101 117 144
108 712 113 106 122 148
108 713 112 108 121 145
108 713 113 119 132 152
108 712 114 112 128 153
108 712 115 121 137 158
108 713 114 130 141 160
108 713 115 132 144 161
108 714 112 115 126 146
108 714 113 128 139 155
108 715 112 117 127 145
108 715 113 128 138 154
109 714 112 109 121 141
109 715 112 109 121 139
108 714 114 138 148 162
108 714 115 140 150 165
108 715 114 139 147 161
108 715 115 144 151 166
108 712 116 125 140 159
108 713 116 128 141 159
109 712 116 123 139 159
109 712 117 120 136 158
109 713 116 128 141 158
109 713 117 121 137 157
109 714 116 134 144 160
109 714 117 131 141 157
109 715 116 137 145 160
110 712 117 117 133 154
110 713 117 119 133 151
111 712 117 120 132 150
111 713 117 121 132 149
111 712 118 127 136 151
111 713 118 124 133 149
110 714 117 121 133 150
110 715 117 124 136 152
111 714 118 118 130 146
111 715 118 112 125 145
108 716 113 130 139 154
108 717 112 119 128 141
108 717 113 128 137 151
109 716 112 115 124 140
109 716 113 127 136 152
109 717 112 113 122 137
109 717 113 127 136 151
108 716 114 139 147 161
108 716 115 141 149 164
108 717 114 135 145 160
108 717 115 136 146 163
108 718 112 117 127 140
108 718 113 126 135 149
108 719 112 115 126 144
108 719 113 124 135 152
109 718 112 110 121 136
109 719 112 108 121 139
108 718 114 130 141 157
108 718 115 126 141 160
108 719 114 126 139 158
108 719 115 122 138 159
109 716 116 136 145 160
109 716 117 129 140 156
109 717 116 127 139 156
109 717 117 114 130 149
108 718 116 117 134 156
108 719 116 113 133 156
109 718 116 114 130 152
109 718 117 109 128 149
109 719 116 118 136 158
109 719 117 116 135 158
110 716 117 124 136 153
110 717 117 120 134 153
110 716 118 111 127 147
110 717 118 98 120 145
111 716 118 104 119 143
111 717 118 89 109 141
111 717 119 72 92 136
110 718 117 100 122 147
110 719 117 105 128 154
110 718 118 95 119 145
110 719 118 87 113 145
111 718 118 67 93 136
111 718 119 65 87 135
111 719 118 74 101 139
111 719 119 71 93 136
103 723 96 154 158 169
103 724 96 153 157 169
103 725 96 130 142 158
103 725 97 141 148 162
103 726 96 77 108 151
103 727 96 40 88 150
103 728 96 65 93 155
103 729 96 45 62 139
103 729 97 48 70 140
103 729 98 59 81 145
103 730 96 26 45 126
103 730 97 30 52 129
103 731 96 19 38 121
103 731 97 31 47 123
103 730 98 38 59 135
103 730 99 58 71 140
103 731 98 32 50 126
103 731 99 43 55 130
103 732 97 31 46 118
103 732 98 34 50 120
104 720 96 158 157 165
104 720 97 156 158 168
104 721 96 158 158 167
104 721 97 157 158 167
104 720 98 158 159 168
104 720 99 156 158 167
104 721 98 156 157 166
104 721 99 156 157 164
105 720 99 153 157 168
105 721 99 155 157 166
104 722 96 158 160 169
104 722 97 160 159 167
104 723 96 153 157 168
104 723 97 160 160 167
104 722 98 156 157 165
104 722 99 154 156 164
104 723 98 158 158 166
104 723 99 153 155 164
105 720 100 135 149 167
105 720 101 112 135 159
105 721 100 144 153 169
105 721 101 123 140 161
104 723 100 152 156 169
105 722 100 146 154 168
105 722 101 123 138 159
105 723 100 144 153 168
105 723 101 106 127 152
106 720 101 101 127 155
106 721 101 112 131 157
106 720 102 91 119 158
106 721 102 120 140 165
106 721 103 103 125 160
107 720 103 69 97 145
107 721 103 95 115 154
106 722 101 128 141 162
106 723 101 110 124 151
106 722 102 123 142 165
106 722 103 107 129 160
106 723 102 102 125 153
106 723 103 100 126 155
107 722 103 104 125 161
107 723 103 86 117 154
104 724 97 159 161 169
104 725 97 149 154 165
104 724 98 158 159 167
104 724 99 153 155 165
104 725 98 155 158 168
104 725 99 146 152 165
104 726 97 77 106 145
104 727 96 26 84 148
104 727 97 37 81 147
104 726 98 103 124 151
104 726 99 107 126 149
104 727 98 47 87 144
104 727 99 69 102 140
104 724 100 141 149 164
104 725 100 127 140 158
104 725 101 90 110 141
105 724 100 136 147 164
105 724 101 95 118 145
105 725 101 89 109 142
105 725 102 104 117 146
104 726 100 87 114 140
104 726 101 83 109 139
104 727 100 96 121 146
104 727 101 112 132 153
104 727 102 110 128 148
105 726 102 114 127 149
105 727 102 126 138 154
106 724 102 113 131 156
106 724 103 119 138 161
106 725 102 135 147 163
106 725 103 147 154 167
107 724 103 115 135 162
107 725 103 142 151 166
106 726 102 141 148 160
106 726 103 151 154 164
106 727 103 155 157 165
107 720 104 69 89 144
107 721 104 74 103 149
107 722 104 74 106 153
107 723 104 75 111 153
107 724 104 101 127 159
107 725 104 132 144 163
106 727 104 153 155 164
107 726 104 148 154 166
107 727 104 149 153 163
108 720 104 76 94 144
108 720 105 85 102 144
108 721 104 64 92 146
108 721 105 68 91 145
108 721 106 75 89 142
109 720 106 89 104 142
109 720 107 88 103 139
109 721 106 76 91 140
109 721 107 76 92 138
108 722 104 59 98 150
108 722 105 51 89 144
108 723 104 59 102 150
108 723 105 45 90 145
108 722 106 58 82 140
108 723 106 55 86 142
108 723 107 58 84 141
109 722 106 61 80 139
109 722 107 65 87 137
109 723 107 66 91 141
109 720 108 84 100 134
109 720 109 85 103 134
109 721 108 76 93 135
109 721 109 77 94 134
108 721 111 78 96 139
109 720 110 89 107 135
109 720 111 96 112 139
109 721 110 79 95 137
109 721 111 82 99 139
109 722 108 74 96 136
109 722 109 78 97 139
109 723 108 80 102 140
109 723 109 88 108 142
108 722 111 74 93 137
108 723 111 74 98 136
109 722 110 79 97 138
109 723 110 78 102 138
109 723 111 80 103 139
108 724 105 68 102 149
108 725 105 110 130 158
108 724 106 57 92 144
108 725 106 97 120 154
109 724 107 66 93 144
109 725 106 84 112 150
109 725 107 72 102 145
108 726 105 135 145 162
108 727 105 138 146 161
108 726 106 115 132 158
108 727 106 120 133 156
109 726 106 104 126 157
109 726 107 87 110 150
109 727 106 92 114 153
109 727 107 83 101 146
109 724 108 80 102 142
109 724 109 93 111 143
109 725 108 77 99 142
109 725 109 91 108 142
109 724 110 97 115 144
109 724 111 95 115 145
109 725 110 97 114 146
109 725 111 100 117 148
109 726 108 87 105 143
109 726 109 91 107 143
109 727 108 88 102 143
109 727 109 89 107 144
109 726 110 91 106 146
109 726 111 94 110 148
109 727 110 85 103 147
109 727 111 88 106 150
110 727 108 94 109 144
110 727 109 92 109 146
104 728 96 46 87 151
104 728 97 48 82 151
104 729 97 67 86 149
104 728 98 65 91 154
104 728 99 105 125 159
104 729 98 76 97 150
104 729 99 88 106 150
104 731 96 7 38 122
104 730 99 75 84 143
104 731 99 58 65 135
104 728 100 130 143 165
104 728 101 134 146 162
104 729 100 116 128 156
104 729 101 129 140 159
104 729 102 130 141 158
105 728 102 134 144 158
105 728 103 144 151 163
105 729 102 134 145 159
105 729 103 132 143 158
104 730 100 85 95 143
104 730 101 109 119 150
104 731 100 74 83 142
104 731 101 85 94 146
104 730 102 114 126 152
104 731 102 93 104 149
104 731 103 100 114 153
105 730 102 125 136 154
105 730 103 113 127 153
105 731 103 97 115 153
106 728 103 150 154 164
106 729 103 135 144 158
106 730 103 109 129 152
104 732 96 21 45 123
104 732 97 31 49 117
104 733 96 27 59 128
104 733 97 29 53 121
104 732 98 32 48 117
104 732 99 41 49 122
104 733 98 32 51 119
104 733 99 27 38 117
104 734 96 40 81 149
104 734 97 30 61 136
104 735 96 36 90 159
104 735 97 52 84 155
104 734 98 32 58 133
104 734 99 24 52 127
104 735 98 64 88 155
104 735 99 63 90 148
104 732 100 54 65 132
104 732 101 69 77 139
104 733 100 39 41 117
104 733 101 52 57 119
104 732 102 73 87 143
104 732 103 64 89 142
104 733 102 61 74 127
104 733 103 55 86 135
105 732 103 75 98 147
104 734 100 32 38 114
104 734 101 31 35 109
104 735 100 54 82 138
104 735 101 36 63 128
104 734 102 38 47 107
104 734 103 51 66 118
104 735 102 28 42 111
104 735 103 33 42 108
105 730 104 91 118 151
105 731 104 86 114 151
106 728 104 146 151 162
106 729 104 114 127 148
107 728 104 144 150 162
107 728 105 143 149 161
107 729 105 119 129 152
106 730 104 83 108 147
106 730 105 83 102 148
106 731 105 78 105 147
107 730 105 92 104 147
107 731 105 82 102 145
107 730 106 100 109 148
107 731 106 95 105 145
105 732 104 75 103 148
105 732 105 72 101 147
105 733 104 55 85 137
105 733 105 64 90 141
104 734 104 65 80 129
104 735 104 52 61 113
105 734 104 63 86 134
105 734 105 71 93 137
105 735 105 67 82 123
105 734 106 72 98 143
106 732 105 71 102 146
106 733 105 70 98 144
107 732 105 76 104 144
106 733 106 79 105 145
107 732 106 87 107 145
107 733 106 91 110 146
106 734 106 85 106 146
106 735 106 75 93 135
106 735 107 66 87 132
107 734 106 92 109 148
107 734 107 83 101 144
107 735 107 75 97 139
107 735 108 76 103 142
108 728 105 137 144 159
108 729 105 129 138 158
108 728 106 117 130 155
108 729 106 121 132 157
109 728 106 92 112 151
109 728 107 88 104 145
109 729 107 105 117 150
108 730 106 114 123 152
108 730 107 115 125 151
108 731 106 103 114 147
108 731 107 111 120 149
109 729 108 122 129 149
109 728 110 101 119 150
109 728 111 92 113 149
109 729 110 136 142 153
109 729 111 129 138 154
108 730 108 118 126 150
109 730 108 133 137 154
109 730 109 149 150 158
109 731 108 124 131 153
109 731 109 141 144 155
109 730 110 149 150 157
109 730 111 144 146 155
109 731 110 148 149 157
109 731 111 147 148 157
110 728 108 106 118 148
110 728 109 102 117 145
110 729 108 133 138 155
110 729 109 140 144 156
110 728 110 115 129 150
110 729 110 136 142 155
108 732 106 99 112 147
108 732 107 99 114 147
108 733 107 87 105 144
108 734 107 78 98 143
108 732 108 98 111 147
108 733 108 84 98 142
108 733 109 92 103 143
109 732 108 102 112 145
109 732 109 121 127 149
109 733 109 100 106 143
109 732 110 137 139 152
109 732 111 139 141 152
109 733 110 115 117 146
109 733 111 129 129 147
108 734 108 70 92 141
108 734 109 83 100 142
108 735 108 76 102 144
108 735 109 82 104 142
109 734 109 90 101 142
109 735 109 95 108 142
109 734 110 105 111 143
109 734 111 117 120 143
109 735 110 103 115 143
109 735 111 117 125 146
108 720 112 105 118 144
108 720 113 116 128 153
108 721 112 81 100 140
108 721 113 86 104 145
108 720 114 120 133 158
108 720 115 119 134 158
108 721 114 90 108 147
108 721 115 101 120 150
109 720 115 115 131 157
109 721 115 94 113 150
108 722 112 70 90 137
108 722 113 70 89 140
108 723 112 71 94 138
108 723 113 72 94 142
109 722 113 72 89 142
109 723 113 74 95 144
108 722 114 76 93 143
109 722 114 77 94 145
109 722 115 82 98 148
109 723 114 78 97 146
109 723 115 82 100 148
109 720 116 116 135 159
109 720 117 109 129 156
109 721 116 99 118 153
109 721 117 91 110 148
109 722 116 86 99 149
109 722 117 88 102 146
109 723 116 87 102 147
109 723 117 97 112 146
110 720 117 91 115 148
110 721 117 85 104 143
110 720 118 78 102 139
110 721 118 90 107 139
111 720 119 81 101 135
111 721 119 105 120 142
110 722 117 93 107 143
110 722 118 105 119 143
110 723 118 114 128 148
110 723 119 110 126 144
111 722 119 111 125 143
111 723 119 103 120 141
108 724 112 86 108 145
109 724 112 94 115 148
109 724 113 97 117 150
109 725 112 105 124 151
109 725 113 117 134 158
109 724 114 98 118 150
109 724 115 95 117 148
109 725 114 119 136 157
109 725 115 120 137 157
109 726 112 101 117 151
109 726 113 105 122 153
109 727 112 88 106 150
109 727 113 87 106 149
109 726 114 108 124 152
109 726 115 111 126 152
109 727 114 87 104 148
109 727 115 91 106 150
109 724 116 97 116 147
109 724 117 108 124 149
109 725 116 123 138 158
109 725 117 123 138 159
109 725 118 110 129 152
109 726 116 115 129 155
109 726 117 105 123 152
109 727 116 96 111 151
109 727 117 89 107 148
109 726 118 92 112 146
109 727 118 84 103 146
110 724 118 114 130 149
110 724 119 108 124 145
110 725 118 95 116 143
110 725 119 82 102 138
111 724 119 88 106 137
111 725 119 82 99 136
110 726 118 84 104 141
110 726 119 78 97 139
110 727 118 86 105 145
110 727 119 90 108 145
111 722 120 105 121 142
111 723 120 91 108 138
111 724 120 80 95 135
111 725 120 82 95 136
111 726 120 94 108 141
111 727 120 108 122 147
109 728 112 88 111 149
109 728 113 83 107 148
109 729 112 121 135 156
109 729 113 111 129 154
109 728 114 77 99 147
109 728 115 71 94 147
109 729 114 99 120 152
109 729 115 88 113 149
109 730 112 140 146 158
109 730 113 139 146 161
109 731 112 147 148 157
109 731 113 144 147 157
109 730 114 135 145 162
109 730 115 134 145 164
109 731 114 145 149 160
109 731 115 144 151 162
109 728 116 78 98 150
109 728 117 81 101 150
109 729 116 82 108 149
109 729 117 85 108 150
109 728 118 82 102 148
109 729 118 93 115 151
109 730 116 126 140 163
109 730 117 108 128 157
109 731 116 139 148 163
109 731 117 118 135 156
109 730 118 99 121 152
110 728 118 88 108 149
110 728 119 102 120 151
110 729 118 94 115 152
110 729 119 103 121 150
110 730 118 96 118 150
110 730 119 107 122 150
110 731 118 105 126 153
110 731 119 110 124 154
109 732 112 144 145 153
109 732 113 144 145 154
109 733 112 139 141 150
109 733 113 138 140 149
109 732 114 144 147 157
109 732 115 140 146 158
109 733 114 139 142 152
109 733 115 134 139 152
109 734 112 127 132 144
109 734 113 128 131 143
109 735 112 120 129 145
109 735 113 122 129 143
109 734 114 132 135 147
109 734 115 132 136 150
110 734 114 128 132 144
110 734 115 127 132 145
110 735 114 129 133 144
110 735 115 123 130 142
109 732 116 135 144 158
109 732 117 138 147 163
109 733 116 137 142 156
109 733 117 147 153 165
109 734 117 143 147 158
110 733 117 152 157 168
110 732 118 129 143 163
110 732 119 116 132 155
110 733 118 142 151 167
110 733 119 122 136 157
110 734 116 132 137 150
110 734 117 146 149 160
110 735 116 127 131 145
110 735 117 142 145 155
110 734 118 144 150 164
110 734 119 124 137 156
110 735 118 141 147 162
110 735 119 121 134 156
111 735 119 113 127 154
111 728 120 106 122 145
111 729 120 124 134 149
110 730 120 132 138 153
110 731 120 135 140 157
111 730 120 147 149 158
111 730 121 155 155 161
111 731 120 154 153 161
111 731 121 159 158 164
110 732 120 127 134 155
110 733 120 119 130 153
111 732 120 150 151 162
111 732 121 153 154 163
111 733 120 139 145 161
111 733 121 135 142 156
111 734 120 115 129 153
111 735 120 95 114 147
112 704 118 98 117 148
112 705 118 103 122 149
113 704 118 86 104 142
113 705 118 99 116 149
113 705 119 98 114 148
112 706 118 101 120 147
112 707 118 97 118 144
113 706 118 107 124 151
113 706 119 107 123 153
113 707 118 94 114 144
113 707 119 97 116 147
114 704 119 100 113 144
114 705 119 90 106 142
115 704 119 126 136 157
115 705 119 97 113 145
114 706 119 94 111 148
114 707 119 95 113 150
115 706 119 80 100 142
112 708 118 112 129 151
112 709 118 132 143 160
113 708 118 86 108 139
113 708 119 91 113 142
113 709 118 111 128 149
113 709 119 113 129 149
112 710 118 134 144 159
112 711 118 128 138 152
112 711 119 134 143 157
113 710 119 125 136 153
113 711 119 127 137 152
114 708 119 93 113 148
114 709 119 108 126 148
114 710 119 121 133 150
114 711 119 120 132 148
115 704 120 123 135 156
115 705 120 96 112 145
115 706 120 77 95 141
115 707 120 74 94 143
115 707 121 73 92 141
114 708 120 90 114 145
114 709 120 105 125 150
115 708 120 76 100 142
115 708 121 76 98 141
115 709 120 91 115 146
115 709 121 86 110 143
114 710 120 125 138 156
114 711 120 124 136 152
115 710 120 119 134 155
115 710 121 101 120 148
115 711 120 129 141 159
115 711 121 112 127 153
116 704 121 100 119 148
116 705 121 95 112 146
116 704 122 85 110 145
116 705 122 95 113 146
117 704 122 79 101 144
117 704 123 79 97 143
117 705 122 89 108 145
117 705 123 92 109 146
116 706 121 85 102 142
116 707 121 81 97 141
116 706 122 98 114 146
116 707 122 98 112 145
117 706 123 105 119 149
117 707 123 110 122 148
117 704 124 84 99 142
117 705 124 93 107 146
117 706 124 100 114 146
117 707 124 113 123 149
118 704 124 91 105 144
118 704 125 100 111 145
118 705 124 93 107 145
118 705 125 101 112 147
118 704 126 107 116 148
118 705 126 108 116 149
119 704 126 110 120 151
119 704 127 107 118 150
119 705 126 111 119 150
119 705 127 109 117 148
118 706 124 95 109 144
118 706 125 96 108 143
118 707 124 109 119 147
118 707 125 105 115 145
118 706 126 102 111 145
118 707 126 109 119 146
119 706 126 106 115 146
119 706 127 112 119 148
119 707 126 113 122 148
119 707 127 113 122 150
116 708 121 85 101 143
116 709 121 88 107 143
116 708 122 98 110 145
116 709 122 94 106 144
117 708 123 109 118 147
117 709 123 103 111 144
116 711 121 102 116 147
116 710 122 93 105 144
116 711 122 97 109 146
117 710 123 104 113 145
117 711 123 106 115 146
117 708 124 114 122 147
117 709 124 112 121 145
117 710 124 111 120 146
118 708 124 112 121 146
118 708 125 113 123 148
118 709 124 119 128 151
118 709 125 115 127 152
118 708 126 118 128 152
118 709 126 115 126 154
119 708 126 117 127 153
119 708 127 106 117 150
119 709 126 95 109 147
119 709 127 88 103 144
118 710 124 110 121 146
118 710 125 98 114 145
118 711 124 100 112 145
118 711 125 81 101 142
119 710 126 80 98 144
119 710 127 95 109 148
119 711 126 82 101 146
119 711 127 110 123 155
112 712 118 126 135 150
112 712 119 127 136 151
112 713 118 127 137 152
112 713 119 122 134 151
113 712 119 125 136 152
113 713 119 116 130 149
112 714 118 122 133 151
112 714 119 114 127 149
112 715 118 109 122 143
112 715 119 98 113 142
113 714 119 105 120 146
113 715 119 93 108 142
112 716 119 87 102 138
112 717 119 75 90 135
113 716 119 87 102 140
112 718 119 72 89 134
112 719 119 80 98 137
113 714 120 100 115 144
113 715 120 91 106 141
114 712 120 120 132 150
114 713 120 108 122 146
115 712 120 116 128 148
115 712 121 104 117 145
115 713 120 99 112 141
115 713 121 97 109 140
114 714 120 97 110 142
114 714 121 97 107 141
114 715 120 94 106 140
114 715 121 100 111 142
115 714 121 101 111 142
115 715 121 110 122 147
113 716 120 89 101 139
113 717 120 91 104 139
112 718 120 89 105 138
112 719 120 97 113 142
113 718 120 104 117 143
113 719 120 104 120 145
113 719 121 109 124 149
114 716 120 98 110 140
114 716 121 109 120 146
114 717 120 106 117 143
114 717 121 114 127 148
115 716 121 115 129 151
115 717 121 112 128 149
115 717 122 108 126 148
114 718 121 111 126 148
114 719 121 100 114 147
115 718 121 103 120 146
115 718 122 100 117 146
115 719 122 89 105 145
116 712 121 100 112 144
116 713 121 100 113 143
116 712 122 100 112 145
116 713 122 99 113 144
117 712 123 101 113 146
117 713 122 91 106 143
117 713 123 78 97 141
116 714 122 107 121 149
116 715 122 100 118 148
117 714 122 89 108 145
117 714 123 72 95 143
117 715 123 77 101 143
118 712 124 88 104 145
118 712 125 71 92 141
118 713 124 68 89 141
118 713 125 70 91 142
119 712 125 71 93 142
119 713 125 83 98 145
119 712 126 93 110 148
119 712 127 114 127 156
119 713 126 100 112 149
118 714 124 63 88 141
118 714 125 77 97 143
118 715 124 77 99 144
118 715 125 90 108 146
119 714 125 90 103 144
119 715 125 106 118 146
119 714 126 112 119 150
119 715 126 133 138 154
116 716 122 99 118 146
116 717 122 95 115 144
117 716 123 82 103 142
117 717 123 93 111 146
116 718 122 97 112 145
116 719 122 89 102 142
116 719 123 96 109 143
117 718 123 101 115 148
117 719 123 107 118 146
117 716 124 86 106 146
117 717 124 93 110 148
117 718 124 96 111 147
117 719 124 115 127 151
118 716 124 87 107 147
118 716 125 99 115 150
118 717 124 90 107 147
118 717 125 93 108 148
119 716 125 120 130 153
119 717 125 113 122 151
119 716 126 149 151 160
119 717 126 142 144 158
118 718 124 92 109 146
118 718 125 84 101 143
118 719 124 120 132 155
118 719 125 112 125 152
119 718 125 91 101 141
119 719 125 102 114 145
119 718 126 117 118 145
119 719 126 109 112 142
120 709 127 94 106 147
120 710 127 112 123 155
120 711 127 129 139 163
120 712 127 123 135 158
120 713 127 119 129 153
120 714 127 139 143 159
120 715 127 161 160 165
120 716 127 167 163 165
120 717 127 166 162 164
120 718 127 156 153 159
120 719 127 142 140 155
112 720 119 95 112 140
112 720 120 104 121 145
112 721 120 98 115 143
113 720 120 101 117 146
113 720 121 93 107 145
113 721 120 90 108 143
113 721 121 83 100 142
112 722 120 90 108 140
112 723 120 81 97 138
112 723 121 80 94 138
113 722 121 84 101 141
113 723 121 104 116 146
114 720 121 85 100 144
114 721 121 83 100 143
114 721 122 85 103 142
115 720 122 85 100 144
115 721 122 95 110 144
114 722 121 94 110 143
114 722 122 111 123 147
114 723 122 133 140 155
115 722 122 124 134 152
115 723 122 144 148 159
112 724 120 81 95 137
112 724 121 93 104 139
112 725 120 92 104 139
112 725 121 113 123 146
113 724 121 119 128 149
113 725 121 137 142 156
113 725 122 139 144 156
112 726 121 131 139 154
112 727 121 130 138 153
113 726 121 141 146 158
113 727 121 143 147 159
113 726 122 142 146 158
113 727 122 144 148 160
114 724 121 133 140 156
114 724 122 142 147 160
114 725 122 140 145 156
115 724 122 146 149 160
115 724 123 145 148 157
115 725 122 140 143 154
115 725 123 139 142 153
114 726 122 140 145 156
114 727 122 145 148 159
115 726 122 136 140 152
115 726 123 134 138 151
115 727 122 141 145 156
115 727 123 138 142 155
116 720 122 95 108 143
116 720 123 104 116 144
116 721 122 113 125 148
116 721 123 121 131 149
117 720 123 123 131 148
117 721 123 140 143 153
116 722 122 130 138 153
116 722 123 140 144 155
116 723 123 149 150 158
117 722 123 149 149 156
117 723 123 155 153 157
117 720 124 141 146 158
117 721 124 158 156 161
117 722 124 158 155 159
117 723 124 160 155 159
118 720 124 145 150 163
118 720 125 140 148 162
118 721 124 158 158 165
118 721 125 157 158 166
119 720 125 124 134 154
119 721 125 143 149 161
119 720 126 109 117 143
119 721 126 119 130 149
118 722 124 162 158 161
118 722 125 163 161 166
118 723 124 161 157 161
118 723 125 149 151 160
119 722 125 153 156 166
119 723 125 128 138 155
119 722 126 122 134 154
119 723 126 93 113 143
116 724 123 150 150 157
116 725 123 146 146 154
117 724 123 158 154 158
117 725 123 158 154 158
116 726 123 137 139 150
116 727 123 129 134 146
117 724 124 161 157 160
117 725 124 159 155 159
117 726 124 150 148 154
117 727 124 136 136 146
118 724 124 158 156 161
118 724 125 133 140 154
118 725 124 155 154 161
118 725 125 130 138 154
119 724 125 98 118 142
119 725 125 94 114 143
119 724 126 71 98 137
119 725 126 77 103 142
118 726 124 154 153 160
118 726 125 138 144 156
118 727 124 147 148 156
118 727 125 139 145 157
119 726 125 102 120 143
119 727 125 120 132 150
119 726 126 85 108 142
119 727 126 97 117 145
112 728 121 131 138 151
112 729 121 147 149 159
113 728 121 138 144 156
113 729 121 138 143 155
113 728 122 139 144 156
113 729 122 139 144 156
112 730 121 157 156 162
112 731 121 158 157 163
113 730 122 148 150 160
113 731 122 153 153 160
114 728 122 143 146 157
114 729 122 133 139 152
115 728 122 141 145 156
115 728 123 143 147 157
115 729 122 135 139 151
115 729 123 140 143 153
114 730 122 131 137 150
114 731 122 139 142 152
115 730 122 128 134 147
115 730 123 131 134 146
115 731 123 129 133 144
112 732 121 153 153 161
112 733 121 127 133 149
113 732 122 148 148 156
113 733 122 118 125 141
112 734 121 92 109 140
112 735 121 73 96 137
113 734 122 92 106 135
113 735 122 91 108 141
114 732 122 143 145 153
114 733 122 129 135 147
114 733 123 134 139 150
115 732 123 139 141 150
115 733 123 138 141 151
114 734 122 105 117 139
114 734 123 118 128 144
114 735 122 101 117 142
114 735 123 104 119 143
115 734 123 131 137 149
115 735 123 113 123 143
116 728 123 136 139 150
116 729 123 144 145 152
116 730 123 143 143 150
116 731 123 136 137 145
117 728 124 133 134 145
117 729 124 144 144 152
116 730 124 149 147 153
116 731 124 145 144 150
117 730 124 152 151 158
117 731 124 151 150 156
118 728 124 144 145 154
118 728 125 145 150 161
118 729 124 145 146 155
118 729 125 140 145 156
119 728 126 118 132 152
119 729 126 115 128 147
119 729 127 91 110 140
118 730 124 152 153 161
118 730 125 142 147 158
118 731 125 135 142 155
119 730 126 114 127 148
119 730 127 94 111 140
119 731 126 101 116 142
119 731 127 95 109 141
116 732 123 142 143 151
116 733 123 145 147 155
116 732 124 149 149 156
116 733 124 143 145 154
117 732 124 148 149 157
117 733 124 137 140 151
116 734 124 125 132 146
116 735 124 103 112 139
117 734 124 120 127 142
117 734 125 121 128 142
117 735 124 103 111 137
117 735 125 108 113 138
118 732 125 129 136 151
118 733 125 120 129 147
119 732 126 95 109 140
119 732 127 86 101 137
119 733 126 90 104 138
119 733 127 82 97 135
118 734 125 120 126 144
118 735 125 114 119 140
118 734 126 114 121 145
118 735 126 122 127 145
119 734 126 98 110 139
119 734 127 92 106 136
119 735 126 115 122 143
119 735 127 114 123 141
120 720 127 125 128 149
120 721 126 116 128 148
120 721 127 111 119 145
120 722 126 116 129 151
120 722 127 100 112 144
120 723 127 81 98 139
120 724 127 69 92 137
120 725 127 78 102 142
120 726 127 87 109 146
120 727 127 87 110 145
120 728 127 88 110 144
120 729 127 80 102 139
120 730 127 86 104 138
120 731 127 85 101 136
120 732 127 83 99 135
120 733 127 87 102 138
120 734 127 94 107 137
120 735 127 119 128 145
