ply
format ascii 1.0
comment Version 2, Copyright 2017, 8i Labs, Inc.
comment frame_to_world_scale 0.179523
comment frame_to_world_translation -45.2095 7.18301 -54.3561
comment width 1023
element vertex 1421
property float x
property float y
property float z
property uchar red
property uchar green
property uchar blue
end_header
104 736 96 8 85 154
104 736 97 18 79 151
104 737 97 6 81 144
105 736 96 8 90 152
105 737 96 79 129 164
105 737 97 68 110 147
104 736 98 40 80 155
104 736 99 66 100 158
104 737 98 37 96 152
104 737 99 74 112 160
105 738 96 183 186 197
105 738 97 142 157 176
105 739 96 198 191 194
105 739 97 186 184 192
104 738 98 84 122 156
104 738 99 131 150 173
105 738 98 109 134 158
105 738 99 127 142 162
105 739 98 158 164 177
105 739 99 132 142 158
104 736 100 77 109 159
104 736 101 65 99 152
104 737 100 66 109 155
104 737 101 55 102 153
104 736 102 52 83 139
104 736 103 42 65 122
104 737 102 66 102 154
104 737 103 70 95 145
104 738 100 155 165 182
104 738 101 128 148 171
104 739 100 164 168 178
104 739 101 167 173 187
105 739 100 156 161 173
105 739 101 157 164 177
104 738 102 104 130 163
104 738 103 69 101 149
104 739 103 69 105 150
105 738 103 54 97 146
105 739 102 131 147 167
105 739 103 95 125 160
105 740 96 195 189 192
105 740 97 191 187 193
105 741 96 193 187 192
105 741 97 192 186 190
105 740 98 179 179 189
105 740 99 139 149 165
105 741 98 187 183 188
105 741 99 151 157 170
105 742 97 195 188 191
105 742 98 191 185 188
105 742 99 151 158 173
105 743 98 197 189 192
105 743 99 159 167 183
106 741 96 193 187 191
106 742 96 194 189 193
106 742 97 197 190 193
106 743 96 195 187 190
106 743 97 198 190 191
107 743 96 195 187 189
106 743 98 201 192 194
105 740 100 130 141 162
105 740 101 129 141 162
105 741 100 96 113 144
105 741 101 115 124 152
105 740 102 136 149 168
105 740 103 123 146 172
105 741 102 150 157 171
105 741 103 133 151 175
105 742 100 82 103 139
105 742 101 134 142 157
105 743 100 87 113 149
105 743 101 134 142 159
105 742 102 163 165 174
105 742 103 133 148 170
105 743 102 167 167 174
105 743 103 134 148 167
104 736 104 38 49 105
104 737 104 61 86 130
105 736 105 46 55 109
105 737 105 50 73 121
105 736 106 70 78 121
104 738 104 60 95 141
104 738 105 65 95 138
104 739 104 50 92 143
105 738 105 68 97 138
105 739 104 61 102 150
105 739 105 63 96 145
105 738 106 71 96 137
105 739 106 71 99 143
105 739 107 75 101 141
106 736 106 71 84 128
106 736 107 76 95 134
106 737 106 46 66 117
106 737 107 59 83 125
107 736 107 77 100 136
106 738 106 62 87 129
106 738 107 63 89 128
106 739 107 76 99 138
106 737 108 56 79 124
107 736 108 73 100 137
107 736 109 79 104 142
107 737 108 70 91 132
107 737 109 78 98 136
106 738 108 56 80 125
106 739 108 68 92 134
106 739 109 66 87 133
107 738 109 68 86 129
107 739 109 64 83 131
107 738 110 79 98 135
107 739 110 68 87 131
105 740 104 86 119 163
105 740 105 81 112 156
105 741 104 85 117 164
105 741 105 79 110 157
105 740 106 84 114 152
105 740 107 74 102 145
105 741 106 86 113 154
105 741 107 89 113 153
105 742 104 78 111 163
105 742 105 76 105 159
105 743 104 87 118 157
105 743 105 76 106 157
105 742 106 83 108 155
105 743 106 79 107 156
106 740 107 72 97 142
106 741 107 83 107 150
106 743 105 83 111 156
106 742 107 85 107 149
106 743 106 85 110 155
106 743 107 84 106 150
106 740 108 68 92 139
106 740 109 64 89 137
106 741 108 81 104 148
106 741 109 70 96 140
107 740 109 65 90 137
107 741 109 63 93 137
107 740 110 65 87 134
107 740 111 70 88 133
107 741 110 65 91 136
107 741 111 68 91 137
106 742 108 77 102 145
106 742 109 73 102 141
106 743 108 69 96 144
106 743 109 77 103 145
106 742 110 71 101 140
106 743 110 80 106 143
107 742 110 71 99 139
107 742 111 73 99 139
107 743 110 81 106 143
107 743 111 94 115 147
108 736 108 79 105 144
108 736 109 83 105 144
108 737 109 79 102 143
108 736 110 103 118 150
108 737 110 91 108 144
108 737 111 103 115 147
109 736 110 103 118 148
109 736 111 115 127 149
109 737 111 110 121 144
108 738 110 83 100 138
108 738 111 94 106 140
108 739 110 73 91 131
108 739 111 82 96 136
108 740 111 75 89 134
108 741 111 69 88 136
105 744 99 163 172 188
106 744 96 196 187 187
106 744 97 196 188 188
106 745 97 194 186 188
107 744 96 195 187 188
107 745 96 192 187 191
107 745 97 193 187 189
106 744 98 200 192 194
106 744 99 184 185 195
106 745 98 193 187 191
106 745 99 167 172 185
107 746 96 178 176 184
107 746 97 186 183 188
107 747 97 151 154 181
106 746 98 189 185 189
106 746 99 150 159 174
106 747 99 131 144 163
107 746 98 186 184 190
107 747 98 155 162 183
107 747 99 140 149 171
105 744 100 98 125 157
105 744 101 131 139 158
105 745 100 105 132 162
105 745 101 132 146 167
105 744 102 167 165 170
105 744 103 161 163 171
105 745 102 160 161 171
105 745 103 166 165 171
105 746 101 157 164 179
105 746 102 163 166 176
105 746 103 166 165 171
106 745 100 115 141 169
106 746 100 134 151 174
106 746 101 155 164 180
106 747 100 153 161 177
106 747 101 167 172 184
106 746 102 159 163 174
106 746 103 169 167 174
106 747 102 151 159 174
106 747 103 169 171 180
107 748 98 123 128 174
107 748 99 126 135 172
107 749 98 125 131 176
107 749 99 121 129 173
107 750 99 130 140 180
106 748 100 176 179 189
106 748 101 180 182 192
107 748 100 164 170 186
107 749 100 108 118 168
107 749 101 108 123 168
106 748 102 161 168 181
106 748 103 154 162 176
106 749 102 151 163 183
106 749 103 131 146 175
107 749 102 116 131 167
107 750 100 110 127 173
107 750 101 80 102 169
107 751 100 132 146 179
107 751 101 119 134 173
106 750 103 89 107 169
107 750 102 72 94 165
107 750 103 71 91 169
107 751 102 65 97 159
107 751 103 47 81 159
108 746 96 158 157 176
108 747 96 141 139 179
108 747 97 135 137 180
108 748 96 128 132 181
108 748 97 129 133 181
108 749 96 113 123 173
108 749 97 120 129 176
109 748 96 119 125 176
109 749 96 119 129 176
108 749 98 125 134 177
108 749 99 132 139 179
109 750 96 121 133 180
109 750 97 121 132 179
109 751 97 102 128 177
108 750 98 124 133 178
108 750 99 129 138 179
108 751 98 120 133 181
108 751 99 123 135 177
109 751 98 112 131 178
110 750 96 127 142 187
110 751 96 115 141 186
108 750 100 136 149 183
108 751 100 136 144 179
105 744 104 134 147 164
105 744 105 117 136 161
105 745 104 167 167 175
106 744 105 114 134 162
106 745 104 169 168 176
106 745 105 160 165 177
106 744 106 109 131 162
106 744 107 92 115 156
106 745 106 137 151 170
106 745 107 102 125 158
106 746 104 166 164 169
106 746 105 164 165 174
106 747 104 170 168 173
106 747 105 161 162 170
106 746 106 141 151 168
106 746 107 111 127 157
106 747 106 132 143 161
106 747 107 104 117 152
106 744 108 69 96 150
106 744 109 72 98 148
106 745 108 76 103 154
106 745 109 71 98 149
106 744 110 80 103 144
106 744 111 91 110 142
106 745 110 79 101 145
106 745 111 95 112 144
107 744 111 99 117 145
107 745 111 107 120 145
106 746 108 109 129 160
106 746 109 112 132 157
106 747 108 137 146 164
106 747 109 156 160 170
106 746 110 112 128 152
106 746 111 118 130 152
106 747 110 158 160 169
106 747 111 158 159 167
107 746 111 134 142 157
107 747 111 151 154 164
106 748 104 170 173 183
106 748 105 158 164 176
106 749 104 120 134 165
106 749 105 115 131 163
106 748 106 122 137 161
106 748 107 92 107 148
106 749 106 100 122 157
106 749 107 84 102 148
106 750 104 89 107 166
106 750 105 94 113 165
106 751 104 81 98 164
106 751 105 89 107 165
107 751 104 57 82 158
106 750 106 98 118 165
106 750 107 87 105 151
106 751 106 96 114 164
106 751 107 98 115 157
106 748 108 136 140 161
106 748 109 165 164 170
106 749 108 131 135 157
106 749 109 166 163 168
106 748 110 165 164 169
106 748 111 162 161 167
106 749 110 170 167 172
106 749 111 168 166 172
107 748 111 160 160 167
107 749 111 166 165 171
106 750 108 114 120 149
106 750 109 149 149 159
106 751 108 103 112 152
106 751 109 112 117 150
106 750 110 170 168 172
106 750 111 171 168 173
106 751 110 132 137 156
106 751 111 144 148 161
107 750 111 169 167 172
107 751 111 131 136 155
107 742 112 75 101 138
107 743 112 96 116 143
109 736 112 118 128 144
109 736 113 127 133 145
109 737 112 123 132 147
109 737 113 134 139 149
109 737 114 133 137 147
108 738 112 103 113 141
109 738 112 117 125 145
109 738 113 133 139 150
109 739 112 103 109 140
109 739 113 116 121 144
109 738 114 134 139 150
109 738 115 135 140 152
109 739 114 125 132 148
109 739 115 128 136 151
110 736 114 131 135 145
110 736 115 123 129 141
110 737 114 131 135 145
110 737 115 128 133 144
110 738 115 135 140 151
110 739 115 133 140 153
110 736 116 123 129 143
110 736 117 136 140 153
110 737 116 125 131 145
110 737 117 124 133 149
110 736 118 131 139 156
110 736 119 115 128 155
110 737 118 110 124 149
110 737 119 101 117 152
111 736 119 108 122 154
111 737 119 98 114 153
110 738 116 130 137 150
110 738 117 115 128 146
110 739 116 129 138 153
110 739 117 115 130 150
110 738 118 93 114 147
110 738 119 84 106 148
110 739 118 98 120 151
110 739 119 88 111 151
111 738 119 84 104 147
111 739 119 85 107 149
108 740 112 80 90 134
108 741 112 75 90 136
108 741 113 86 96 137
109 740 112 89 97 136
109 740 113 99 106 139
109 741 113 89 98 136
109 740 114 112 119 145
109 740 115 117 126 147
109 741 114 99 108 139
109 741 115 108 119 144
108 742 112 74 97 137
108 742 113 87 103 138
108 743 112 93 115 141
108 743 113 102 119 143
108 743 114 105 118 143
109 742 114 101 112 141
109 742 115 106 117 144
109 743 114 106 118 142
109 743 115 106 120 144
109 740 116 114 126 147
109 741 116 108 120 147
109 742 116 100 113 144
109 743 116 98 112 142
110 740 116 119 131 149
110 740 117 112 129 152
110 741 116 103 117 146
110 741 117 95 112 146
110 740 118 101 122 153
110 740 119 93 115 154
110 741 118 85 105 149
110 741 119 82 104 152
110 742 116 94 108 144
110 742 117 86 101 145
110 743 116 90 107 142
110 743 117 83 101 140
110 742 118 79 97 146
110 742 119 80 99 147
110 743 118 75 95 138
110 743 119 72 93 137
111 736 120 94 111 149
111 737 120 95 111 149
111 738 120 86 105 143
111 739 120 93 111 148
110 741 120 83 106 151
111 740 120 94 114 151
111 740 121 90 111 145
111 741 120 80 103 148
111 741 121 80 101 143
111 742 120 81 99 145
111 742 121 74 91 133
111 743 120 69 87 132
111 743 121 53 71 119
107 744 112 115 127 148
107 744 113 126 134 149
107 745 112 119 129 148
107 745 113 130 137 151
107 746 112 135 142 155
107 746 113 132 140 153
107 747 112 146 150 161
107 747 113 129 139 154
107 746 114 120 131 147
107 747 114 116 128 147
107 748 112 151 154 163
107 748 113 134 142 157
107 749 112 157 158 166
107 749 113 139 145 158
107 748 114 123 133 151
107 749 114 134 140 156
107 750 112 160 160 168
107 750 113 145 149 161
107 751 112 136 141 155
107 751 113 141 145 156
107 750 114 144 149 161
107 751 114 152 154 164
108 744 113 119 131 148
108 745 113 132 139 151
108 744 114 119 130 146
108 745 114 131 138 150
108 745 115 130 137 148
109 744 115 114 126 145
109 745 115 125 133 146
108 746 114 127 135 148
108 746 115 127 132 144
108 747 114 118 129 145
108 747 115 129 136 149
109 744 116 104 118 143
109 745 116 119 128 146
108 746 116 133 137 147
108 747 116 133 138 149
109 746 116 134 138 148
109 746 117 131 137 149
109 747 116 136 139 149
109 747 117 123 130 142
109 747 118 123 131 144
110 744 116 94 110 142
110 744 117 87 108 142
110 745 117 101 119 145
110 744 118 81 103 141
110 744 119 78 101 140
110 745 118 85 107 143
110 745 119 76 101 141
111 744 119 77 100 139
111 745 119 75 100 141
110 746 117 120 133 150
110 746 118 104 121 144
110 746 119 91 113 143
110 747 118 120 131 145
110 747 119 109 125 146
108 748 114 127 135 151
108 748 115 135 141 154
108 749 115 142 147 159
108 750 115 146 152 165
108 751 115 147 152 165
108 748 116 132 138 150
108 748 117 119 128 143
108 749 116 134 140 152
108 749 117 116 126 144
109 748 117 115 125 140
109 749 117 118 128 142
109 748 118 122 131 144
109 749 118 130 136 148
109 749 119 124 134 149
108 750 116 137 144 159
108 750 117 122 132 150
108 751 116 140 148 163
108 751 117 135 143 159
108 750 118 132 139 152
108 751 118 143 147 159
109 750 118 142 145 154
109 750 119 145 149 159
109 751 118 153 154 161
109 751 119 159 158 164
110 748 119 103 120 140
110 749 119 105 122 142
111 744 120 71 92 135
111 744 121 56 76 127
111 745 120 73 99 142
111 745 121 70 94 142
110 747 120 93 115 143
111 746 120 83 108 145
111 746 121 80 106 148
111 747 120 82 108 144
111 747 121 77 106 147
109 750 120 119 134 154
109 751 120 147 152 164
110 748 120 76 103 136
110 749 120 77 106 142
110 749 121 63 99 143
111 748 120 77 104 143
111 748 121 77 105 146
111 749 121 71 100 146
111 749 122 83 108 150
110 750 120 92 119 148
110 750 121 65 103 144
110 751 120 137 148 164
110 751 121 116 136 159
111 750 121 56 94 142
111 751 121 107 130 158
111 750 122 70 101 142
111 751 122 101 125 154
107 752 101 137 150 178
107 752 102 131 149 176
107 752 103 84 116 159
107 753 102 161 171 189
107 753 103 146 160 179
107 754 103 157 163 182
109 752 97 85 123 170
108 752 99 127 140 176
109 752 98 114 140 176
109 752 99 134 148 179
109 753 98 136 155 183
109 753 99 144 154 181
109 754 99 137 146 179
110 752 96 114 144 183
110 752 97 110 144 181
110 753 97 137 162 190
111 752 96 128 156 187
111 753 96 140 165 192
110 753 98 132 155 184
111 754 96 140 164 191
111 754 97 141 164 192
111 755 97 139 162 191
110 754 98 137 158 187
110 754 99 134 148 183
110 755 98 134 157 188
110 755 99 132 152 185
111 755 98 139 162 192
108 752 100 135 140 177
108 752 101 146 154 182
108 753 100 144 154 181
108 753 101 140 149 178
109 753 100 149 160 182
108 753 102 146 151 178
108 754 100 148 161 187
108 754 101 136 146 180
108 755 101 118 129 174
109 754 100 145 155 185
109 755 100 130 144 183
109 755 101 125 138 181
108 754 102 122 123 170
108 754 103 131 131 173
108 755 102 104 112 167
108 755 103 106 112 164
110 755 100 128 145 184
110 756 99 131 150 187
110 757 99 127 146 186
111 756 98 142 163 190
111 756 99 141 161 191
111 757 98 139 161 187
111 757 99 135 156 187
111 758 99 134 157 185
111 759 99 145 165 189
109 756 100 120 136 183
109 756 101 119 133 183
109 757 101 113 129 181
108 756 102 102 115 170
108 756 103 113 126 174
108 757 103 120 135 181
109 756 102 112 126 177
109 757 102 115 131 182
109 757 103 111 126 180
109 758 102 112 129 180
109 758 103 107 120 179
109 759 103 99 113 176
110 756 100 119 136 183
110 757 100 112 133 181
110 757 101 110 128 180
110 758 100 127 152 186
110 758 101 130 150 186
110 759 101 147 167 191
111 758 100 134 159 187
111 759 100 150 168 190
111 759 101 152 170 193
110 758 102 127 146 183
110 759 102 127 148 184
106 752 105 60 84 158
107 752 104 58 89 160
107 752 105 62 87 162
107 753 104 86 117 162
107 753 105 71 99 162
106 752 106 70 91 157
106 752 107 89 109 157
106 753 106 53 83 155
106 753 107 69 93 154
107 753 106 61 90 159
107 753 107 62 90 154
107 754 104 152 161 176
107 754 105 132 147 172
107 755 104 140 146 170
107 755 105 139 146 170
107 754 106 109 129 169
107 754 107 71 97 156
107 755 106 122 132 165
107 755 107 100 113 160
106 752 108 102 116 158
106 752 109 113 123 159
106 753 108 82 101 152
106 753 109 101 115 156
107 753 108 68 92 151
107 753 109 92 109 154
106 752 110 116 124 157
107 752 110 113 123 158
107 752 111 121 128 158
107 753 110 102 113 156
107 753 111 98 107 153
107 754 108 80 100 157
107 754 109 94 115 158
107 755 108 112 127 163
107 755 109 121 140 167
107 754 110 88 106 153
107 754 111 80 96 148
107 755 110 95 120 156
107 755 111 87 109 152
107 756 105 126 130 166
107 756 106 121 124 165
107 756 107 119 123 162
107 757 107 118 117 160
107 756 108 130 135 163
107 756 109 139 148 170
107 757 108 120 119 157
107 757 109 120 124 156
107 756 110 131 145 167
107 756 111 120 139 162
107 757 110 131 140 162
107 757 111 137 150 167
108 755 104 129 135 168
108 756 104 135 142 175
108 756 105 119 123 163
108 757 104 134 146 178
108 757 105 118 125 168
108 756 106 118 118 165
108 757 106 107 108 164
108 757 107 109 109 161
108 758 104 137 150 184
108 758 105 129 144 176
108 759 105 125 142 180
109 758 104 129 140 183
109 759 104 118 127 179
109 759 105 122 136 182
108 758 106 115 127 172
108 758 107 99 109 166
108 759 106 122 139 179
108 759 107 113 131 174
108 757 108 118 116 160
108 757 109 120 121 158
108 757 110 124 128 158
108 757 111 134 146 165
108 758 108 98 106 160
108 758 109 103 110 157
108 759 108 121 139 172
108 759 109 113 131 162
108 758 110 106 110 155
108 758 111 112 116 155
108 759 110 89 107 153
108 759 111 90 101 154
109 760 103 90 105 171
109 761 103 81 99 165
110 760 101 143 164 189
111 760 100 150 166 186
111 760 101 148 166 191
111 761 101 151 168 192
110 760 102 121 148 185
110 760 103 75 104 170
110 761 102 120 147 186
110 761 103 71 102 169
111 761 102 139 162 191
111 762 101 149 167 190
110 762 103 81 115 175
111 762 102 132 156 189
111 762 103 105 135 183
111 763 102 132 152 190
111 763 103 107 131 182
111 764 103 109 127 177
111 765 103 121 134 174
109 760 104 107 118 176
109 760 105 111 126 182
109 761 104 104 121 174
109 761 105 108 127 180
108 760 106 100 116 179
108 760 107 101 117 175
108 761 106 87 104 179
108 761 107 84 99 175
109 761 106 92 112 180
109 762 104 127 148 185
109 762 105 124 148 183
108 762 107 77 94 173
109 762 106 112 137 181
109 762 107 87 114 174
109 763 106 153 171 192
109 763 107 125 151 186
110 762 104 122 143 184
110 762 105 142 160 189
110 763 104 133 154 188
110 763 105 146 163 186
110 763 106 162 175 193
108 760 108 140 152 180
108 760 109 156 167 183
108 761 108 127 135 175
108 761 109 168 174 187
108 760 110 124 142 167
108 760 111 101 124 158
108 761 110 156 165 179
108 761 111 143 157 177
108 762 108 107 111 174
108 762 109 149 153 179
108 763 109 138 145 177
109 762 108 89 106 176
109 763 108 101 117 175
109 763 109 133 141 182
108 762 110 151 159 176
108 762 111 136 149 171
108 763 110 139 149 177
108 763 111 142 153 178
109 764 107 133 154 186
109 765 107 122 143 178
110 764 104 146 164 189
110 764 105 155 168 187
110 765 105 155 168 187
111 764 104 129 147 184
111 765 104 136 150 181
111 765 105 151 165 187
110 764 106 167 177 193
110 764 107 170 182 201
110 765 106 168 177 192
110 765 107 153 168 191
111 766 104 153 160 187
111 766 105 144 153 181
111 767 105 158 160 192
110 766 106 157 169 188
110 766 107 137 154 189
110 767 107 127 137 183
111 766 106 132 146 174
111 767 106 148 156 187
111 767 107 137 146 183
109 764 108 111 127 178
109 764 109 135 143 184
109 765 108 114 130 180
109 765 109 133 143 184
108 764 111 153 162 181
109 764 110 125 134 173
109 764 111 158 164 181
109 765 110 118 123 169
109 765 111 157 159 178
109 766 108 117 131 183
109 766 109 129 141 184
109 766 110 122 130 172
109 766 111 156 158 178
109 767 110 145 154 182
109 767 111 159 165 181
110 766 108 105 124 179
110 766 109 125 137 183
110 767 108 118 128 179
110 767 109 133 143 181
110 767 110 156 164 190
107 752 112 139 145 163
107 752 113 155 157 166
107 753 112 113 118 153
107 753 113 140 144 159
107 752 114 156 156 163
107 753 114 153 154 161
107 754 112 84 96 148
107 754 113 96 102 147
107 755 112 82 102 152
107 755 113 76 89 149
107 754 114 131 133 152
107 756 112 97 119 154
108 752 114 153 155 163
108 752 115 146 150 160
108 753 114 153 153 161
108 753 115 152 153 160
108 755 113 76 89 149
108 754 114 115 115 150
108 754 115 137 137 156
108 755 114 77 84 148
108 755 115 89 92 147
108 752 116 140 145 158
108 752 117 144 149 161
108 753 116 156 156 162
108 753 117 157 158 166
108 752 118 149 151 161
108 753 118 154 154 163
109 752 119 161 160 167
109 753 119 159 159 166
108 754 116 153 153 164
108 754 117 160 159 166
108 755 116 106 105 149
108 755 117 127 127 155
108 754 118 156 156 164
108 755 118 140 144 163
109 754 119 152 153 161
109 755 119 139 146 162
108 756 112 104 125 156
108 756 113 83 106 151
108 757 112 125 141 162
108 757 113 110 132 158
108 756 114 71 93 149
108 756 115 62 84 148
108 757 114 95 123 155
108 757 115 72 107 150
108 758 112 118 127 156
108 758 113 127 140 162
108 759 112 99 106 153
108 759 113 102 108 151
108 758 114 122 141 161
108 758 115 110 133 157
108 759 114 107 114 153
108 759 115 119 131 160
108 756 116 64 80 147
108 756 117 78 85 148
108 757 116 59 95 149
108 757 117 56 86 148
108 756 118 92 102 150
108 757 118 67 87 150
109 756 119 104 116 155
109 757 119 78 94 151
108 758 116 94 121 153
108 758 117 86 111 150
108 759 116 123 138 159
108 759 117 125 140 158
108 758 118 85 107 149
108 759 118 120 135 154
109 758 119 86 104 150
109 759 118 119 134 153
109 759 119 105 123 150
109 752 120 164 164 171
109 753 120 168 166 171
109 754 120 161 161 167
109 755 120 137 145 162
110 752 121 156 163 176
110 753 121 167 169 178
111 752 122 125 143 166
111 752 123 105 126 151
111 753 122 138 152 173
111 753 123 104 126 154
110 754 121 166 167 174
110 755 121 151 158 172
110 754 122 165 168 179
111 754 122 138 152 173
111 754 123 97 120 156
111 755 122 132 148 173
111 755 123 92 113 158
109 756 120 111 122 158
109 757 120 93 105 154
109 758 120 91 106 150
109 759 120 97 118 148
110 756 121 119 131 159
110 757 121 111 122 159
111 756 122 102 122 159
111 756 123 79 102 155
111 757 122 98 116 157
111 757 123 85 107 157
110 758 121 101 114 152
110 759 121 88 110 145
110 759 122 77 104 145
111 758 122 96 113 154
111 758 123 94 112 157
111 759 122 71 99 145
111 759 123 78 100 150
108 760 112 88 106 151
108 760 113 89 99 151
108 761 112 106 126 160
108 761 113 81 99 151
108 760 114 91 97 150
108 760 115 91 96 148
108 761 114 72 89 150
108 761 115 73 89 149
108 762 112 116 136 164
108 762 113 87 114 155
108 763 112 147 160 179
108 763 113 137 152 174
108 762 114 60 90 150
108 762 115 58 86 149
108 763 114 104 130 162
108 763 115 87 115 154
108 760 116 103 112 147
108 760 117 117 127 149
108 761 116 82 93 146
108 761 117 93 100 140
108 760 118 121 133 150
108 761 118 99 106 138
109 760 118 123 136 151
109 760 119 131 143 158
109 761 118 104 111 138
109 761 119 118 125 145
108 762 116 70 89 147
108 762 117 80 93 146
108 763 116 78 105 152
108 763 117 77 104 152
108 762 118 85 96 144
108 763 118 74 101 151
109 762 118 87 97 143
109 762 119 91 101 141
109 763 118 83 112 154
109 763 119 77 108 150
108 764 112 158 165 178
108 764 113 154 162 176
109 764 112 170 173 183
109 765 112 167 170 181
109 765 113 157 163 177
108 764 114 143 154 171
108 764 115 128 144 166
108 765 114 149 158 173
108 765 115 139 151 168
109 765 114 151 158 173
109 765 115 143 153 169
109 766 112 163 167 179
109 766 113 153 160 178
109 767 112 160 167 182
109 767 113 151 159 178
109 766 114 151 159 174
109 766 115 145 154 170
109 767 114 149 158 175
109 767 115 142 154 171
108 764 116 117 137 162
108 764 117 114 136 162
108 765 116 134 147 166
108 765 117 134 148 166
109 764 117 112 136 162
109 765 116 139 150 166
109 765 117 133 146 164
109 764 118 123 144 169
109 764 119 131 151 174
109 765 118 131 145 163
109 765 119 148 158 175
109 766 116 140 150 166
109 766 117 136 145 161
109 767 116 142 152 170
109 767 117 139 146 161
109 766 118 127 137 155
109 766 119 128 135 156
109 767 118 138 146 160
109 767 119 128 138 157
109 760 120 120 135 154
109 760 121 108 127 147
109 761 120 121 131 148
109 761 121 117 131 148
109 762 120 96 103 139
109 762 121 98 104 137
109 763 120 79 100 150
109 763 121 82 98 149
110 760 121 94 117 145
110 761 121 121 136 154
110 760 122 80 109 145
110 761 122 104 125 151
111 760 122 68 98 143
111 760 123 57 87 145
111 761 122 81 108 145
111 761 123 59 91 141
110 762 121 102 111 141
110 762 122 98 111 143
110 762 123 93 102 141
110 763 122 90 104 147
110 763 123 97 103 146
111 762 123 80 100 140
111 763 123 98 105 145
111 760 124 53 84 147
111 761 124 47 83 141
111 762 124 84 105 142
111 763 124 100 107 143
111 763 125 107 115 146
109 764 120 104 130 163
109 764 121 93 121 159
109 765 120 145 157 174
109 765 121 151 165 182
109 766 120 137 144 162
109 766 121 161 168 182
109 767 120 123 135 156
109 767 121 143 153 171
110 764 122 83 111 153
110 764 123 80 97 150
110 765 122 123 146 173
110 765 123 86 108 155
111 764 123 88 97 147
110 767 121 128 142 166
110 766 122 133 151 176
110 766 123 97 119 161
110 767 122 105 124 163
110 767 123 89 107 160
111 767 123 91 106 161
111 764 124 90 98 146
111 764 125 102 109 149
111 765 124 88 101 152
111 765 125 92 106 153
111 766 124 102 117 161
111 766 125 107 121 162
111 767 124 96 110 161
111 767 125 105 120 162
112 736 121 77 99 140
112 737 121 77 100 139
112 736 122 83 105 142
112 737 122 74 100 137
113 736 122 90 109 143
113 737 122 77 101 138
112 738 121 82 105 139
112 739 121 94 114 144
112 738 122 82 106 139
112 739 122 87 108 140
113 738 122 87 109 142
113 738 123 89 108 142
113 739 122 87 107 140
113 739 123 85 104 139
114 736 123 89 108 138
114 737 123 79 100 135
115 736 123 91 105 136
115 737 123 82 99 135
114 738 123 83 102 137
114 739 123 81 99 136
115 738 123 77 96 134
115 736 124 90 101 136
115 737 124 82 96 136
115 738 124 75 93 134
115 739 124 72 91 132
112 740 121 88 108 141
112 741 121 84 102 138
112 740 122 87 106 140
112 741 122 88 103 137
113 740 122 86 105 139
113 740 123 86 103 140
113 741 123 75 91 131
112 742 121 74 90 128
112 743 121 42 57 112
112 742 122 65 81 119
112 743 122 54 66 112
113 742 123 64 83 121
113 743 123 86 101 132
114 740 123 76 92 134
114 741 123 66 85 129
114 742 123 78 97 133
114 743 123 90 109 138
114 741 124 69 88 129
115 740 124 74 91 133
115 741 124 78 96 135
114 742 124 81 101 135
114 743 124 87 108 139
115 742 124 84 105 138
115 743 124 87 109 140
115 743 125 87 109 140
116 736 124 88 98 137
116 737 124 79 90 136
117 736 124 92 99 135
117 736 125 94 99 135
117 737 125 90 95 136
116 738 124 78 91 135
116 739 124 75 92 134
116 739 125 86 100 138
117 738 125 93 102 136
117 739 125 110 119 143
118 736 125 110 112 140
118 737 125 107 110 140
118 736 126 120 125 143
118 737 126 116 121 140
119 736 126 121 127 141
119 736 127 133 137 148
119 737 126 127 132 143
119 737 127 147 147 154
118 738 126 126 130 145
118 738 127 152 151 157
118 739 126 146 147 155
119 738 126 145 146 153
119 738 127 150 148 154
119 739 127 150 148 153
116 740 124 80 97 136
116 740 125 88 104 137
116 741 124 89 105 139
116 741 125 103 116 143
117 740 125 109 120 142
117 741 125 116 126 145
117 741 126 131 136 148
116 742 125 95 111 140
116 743 125 86 104 136
117 742 125 107 118 142
117 742 126 125 131 145
117 743 126 120 125 139
118 740 126 135 138 147
118 740 127 140 139 146
118 741 126 133 136 146
118 741 127 133 134 143
119 740 127 146 144 149
119 741 127 132 133 141
118 742 126 139 141 150
118 742 127 139 140 148
118 743 127 150 148 153
112 744 121 51 69 124
112 745 121 72 95 144
112 744 122 68 83 129
112 745 122 75 95 143
113 744 123 87 103 138
113 745 123 89 107 145
112 746 122 72 98 146
112 746 123 69 94 141
112 747 122 68 100 146
112 747 123 74 101 145
113 746 123 84 103 143
113 747 123 74 98 141
114 744 123 85 105 137
114 745 123 89 108 140
113 747 124 76 95 134
114 744 124 79 103 135
114 745 124 87 107 139
115 744 124 75 100 137
115 744 125 77 101 138
115 745 124 68 95 134
115 745 125 64 92 131
114 746 124 90 108 137
114 747 124 95 109 137
114 747 125 98 113 138
115 746 125 75 99 132
115 747 125 98 115 138
112 748 122 84 111 151
112 748 123 86 113 151
112 749 122 91 114 152
112 749 123 82 110 147
113 748 123 73 101 143
112 750 122 82 106 146
112 750 123 101 123 151
112 751 123 118 133 155
113 748 124 70 93 135
113 749 124 62 92 133
112 751 124 134 143 157
113 750 124 90 113 139
113 751 124 130 137 148
113 751 125 134 137 146
114 748 124 90 105 136
114 748 125 102 116 139
114 749 124 80 100 133
114 749 125 101 114 139
115 748 125 103 118 138
115 749 125 107 120 140
115 748 126 106 119 137
115 749 126 102 115 134
114 750 124 84 104 133
114 750 125 112 123 142
114 751 125 132 137 147
114 751 126 130 137 149
115 750 126 101 114 137
115 750 127 87 104 131
115 751 126 122 132 148
115 751 127 98 114 141
116 744 125 83 102 137
116 745 125 73 96 132
116 744 126 84 101 135
116 745 126 87 104 132
117 744 126 112 119 137
117 745 126 115 123 138
117 745 127 139 139 145
116 746 126 98 114 135
116 747 126 123 131 144
116 747 127 141 141 147
117 746 126 116 125 138
117 746 127 138 138 144
117 747 127 146 144 149
118 744 127 151 148 152
118 745 127 149 146 150
118 746 127 146 143 147
116 748 126 122 128 140
116 748 127 137 138 145
116 749 127 124 129 142
117 748 127 148 146 150
116 750 127 101 113 136
116 751 127 79 99 134
112 754 96 139 161 187
112 755 96 141 161 188
112 755 97 142 163 189
113 755 96 145 163 187
114 755 96 148 165 188
112 756 97 134 157 184
112 757 97 134 155 183
113 756 96 133 154 181
113 756 97 131 153 180
113 757 97 137 154 183
112 756 98 134 157 185
112 757 98 136 157 183
113 758 97 135 148 180
112 758 98 131 149 178
112 758 99 133 154 181
112 759 99 140 157 182
113 758 98 130 144 176
113 759 98 134 143 177
113 759 99 140 150 182
114 756 96 134 151 178
114 757 96 137 150 181
114 757 97 144 156 187
115 757 96 142 150 181
114 758 97 136 142 179
114 759 97 134 135 177
115 758 96 141 143 180
115 758 97 135 137 177
115 759 97 133 134 176
114 759 98 134 138 177
116 757 96 146 150 181
116 758 96 141 141 178
116 759 96 133 133 177
116 759 97 131 132 176
117 758 96 139 138 176
117 759 96 133 135 176
118 759 96 128 135 175
112 760 99 138 152 177
113 760 98 133 141 178
113 760 99 132 142 177
113 761 99 129 136 173
113 762 99 128 138 175
113 763 99 129 139 176
114 760 97 128 131 175
115 760 97 119 126 172
114 760 98 124 131 173
114 761 98 115 125 172
115 760 98 109 122 170
115 761 98 105 124 172
114 762 98 116 131 176
114 762 99 120 134 177
114 763 99 118 132 176
115 762 98 106 128 176
115 763 98 99 124 174
115 763 99 103 126 176
112 760 100 145 161 182
112 761 100 146 157 183
112 762 100 138 150 178
112 762 101 142 156 181
112 763 101 148 158 184
113 762 100 133 143 175
113 763 100 137 144 178
113 763 101 151 156 184
112 763 102 141 155 188
114 763 100 131 139 178
114 764 99 119 133 179
115 764 99 105 126 178
113 764 101 153 155 184
113 765 101 146 148 180
112 764 102 151 159 189
112 764 103 130 142 182
112 765 102 146 153 184
112 765 103 134 142 180
113 765 102 150 154 185
112 766 103 153 159 187
112 767 103 153 157 188
113 766 102 141 145 186
113 766 103 151 154 187
113 767 103 140 145 187
114 764 100 128 136 178
114 765 100 118 128 173
114 765 101 133 138 178
115 764 100 107 123 175
115 765 100 100 120 174
114 766 101 121 132 180
114 767 101 98 120 180
115 766 100 101 122 176
115 766 101 106 126 179
115 767 101 91 121 179
114 766 102 122 132 183
114 767 102 104 120 181
114 767 103 116 127 183
116 760 97 113 126 171
116 761 97 101 125 171
117 760 96 118 133 172
117 760 97 105 130 169
117 761 97 100 128 173
116 761 98 102 127 174
117 762 97 85 122 168
117 763 97 79 119 167
116 762 98 99 125 175
116 763 98 94 123 176
116 763 99 100 126 180
117 762 98 90 122 171
117 763 98 84 120 172
118 760 96 122 141 173
118 761 96 106 135 169
118 761 97 93 129 170
118 762 96 91 126 165
118 762 97 79 121 163
118 763 96 84 121 159
118 763 97 84 122 164
119 762 96 105 133 165
119 763 96 95 126 162
117 764 97 82 121 171
116 764 98 92 122 179
116 764 99 92 120 178
116 765 99 86 114 174
117 764 98 81 119 174
117 764 99 81 116 176
117 765 98 74 112 171
117 765 99 80 113 173
117 766 99 84 114 173
117 767 99 86 116 174
118 764 97 83 121 168
118 765 97 80 119 167
119 764 96 101 130 164
119 764 97 90 126 167
119 765 96 98 126 161
119 765 97 89 125 165
118 765 98 73 114 169
118 766 97 84 120 166
119 766 96 92 123 158
119 766 97 90 123 162
119 767 97 88 120 155
118 766 98 79 113 168
118 767 98 77 107 163
118 767 99 82 111 170
119 767 98 78 110 157
116 765 100 89 116 174
116 766 100 90 119 177
116 767 100 89 121 179
116 767 101 85 121 178
117 767 100 87 119 178
112 766 104 161 165 190
112 767 104 157 158 189
112 767 105 161 160 192
120 766 96 94 121 156
120 767 96 92 121 156
112 752 123 117 131 150
112 753 123 111 126 151
112 754 123 95 112 152
112 755 123 73 93 151
112 752 124 137 142 152
112 753 124 146 148 157
113 752 124 143 143 150
113 752 125 145 145 151
113 753 124 156 154 158
113 753 125 153 153 158
112 754 124 126 133 156
112 755 124 104 115 157
112 755 125 134 143 163
113 754 125 151 154 164
113 755 125 125 138 158
113 755 126 101 121 146
114 752 125 145 146 153
114 753 125 151 152 158
114 752 126 141 146 156
114 753 126 141 146 156
114 753 127 117 129 146
115 752 127 107 123 147
115 753 127 112 127 147
114 754 126 120 132 150
114 754 127 94 112 140
114 755 126 83 106 140
114 755 127 76 97 139
115 754 127 85 105 138
112 756 123 74 96 154
112 756 124 97 113 160
112 756 125 105 123 158
112 757 124 100 119 161
112 757 125 112 131 162
113 756 125 104 126 152
113 757 125 117 136 161
113 756 126 100 123 151
113 757 126 95 118 149
112 758 124 94 115 157
112 758 125 90 112 151
112 759 124 74 99 150
112 759 125 73 98 151
113 758 125 92 113 150
113 759 125 68 92 146
113 758 126 71 97 141
113 759 126 64 89 139
113 759 127 71 95 133
114 756 126 88 112 146
114 756 127 67 94 138
114 757 127 55 86 134
114 758 127 51 82 132
114 759 127 88 108 135
112 760 124 57 87 148
112 760 125 66 91 149
112 761 124 57 89 145
112 761 125 71 93 144
113 760 125 67 90 146
113 760 126 88 106 144
113 760 127 113 127 147
113 761 126 104 118 148
113 761 127 130 139 155
112 762 125 99 117 149
112 763 125 114 128 153
112 762 126 88 111 144
112 763 126 114 131 154
113 762 126 89 110 143
113 762 127 98 115 145
113 763 126 111 131 154
113 763 127 111 130 156
114 760 127 131 140 153
112 764 125 114 123 154
112 765 125 95 108 149
112 764 126 127 139 159
112 765 126 104 120 150
112 765 127 111 128 153
113 764 127 126 140 159
113 765 127 110 127 150
112 766 125 111 126 163
112 767 125 112 128 164
112 766 126 122 137 166
112 766 127 126 141 166
112 767 126 118 135 166
112 767 127 113 132 163
113 766 127 121 137 162
113 767 127 103 122 157
