ply
format ascii 1.0
comment Version 2, Copyright 2017, 8i Labs, Inc.
comment frame_to_world_scale 0.179523
comment frame_to_world_translation -45.2095 7.18301 -54.3561
comment width 1023
element vertex 906
property float x
property float y
property float z
property uchar red
property uchar green
property uchar blue
end_header
113 768 128 83 104 153
113 768 129 88 111 148
113 769 128 81 104 155
113 769 129 101 124 153
113 770 128 70 98 151
113 770 129 99 122 151
113 771 128 59 90 144
113 771 129 98 119 150
114 768 129 94 118 145
114 769 129 106 128 152
114 768 130 109 128 150
114 768 131 101 122 147
114 769 130 105 125 146
114 769 131 105 125 148
115 768 131 84 109 140
114 770 129 112 133 155
114 771 129 110 130 153
114 770 130 110 129 150
114 770 131 107 125 148
114 771 130 112 132 152
114 771 131 117 134 154
115 771 131 119 134 153
115 768 132 71 96 138
115 769 132 76 103 141
115 769 133 68 96 140
115 770 132 103 124 152
115 770 133 91 112 146
115 771 132 118 133 154
115 771 133 113 128 152
112 772 128 61 92 144
112 773 128 62 94 144
113 772 128 63 91 143
113 772 129 109 126 154
113 773 128 72 94 144
113 773 129 105 119 149
112 774 128 57 85 142
112 775 128 56 81 135
113 774 128 72 91 143
113 774 129 110 120 151
113 775 128 82 97 139
113 775 129 110 118 151
113 775 130 121 127 153
114 772 130 115 133 154
114 772 131 119 135 155
114 773 130 120 134 154
114 773 131 126 135 154
115 772 131 121 134 153
114 774 130 121 130 152
114 774 131 126 131 153
114 775 130 120 125 152
114 775 131 119 124 151
115 772 132 125 136 153
115 772 133 126 136 154
115 773 132 127 133 152
114 775 132 118 122 149
115 774 132 123 125 149
115 775 132 120 123 149
115 775 133 105 115 146
116 768 133 104 118 149
116 769 133 87 104 143
116 768 134 108 123 147
116 769 134 103 117 145
117 768 134 106 122 145
117 768 135 107 123 145
117 769 134 112 124 149
117 769 135 113 125 149
116 770 133 95 111 144
116 771 133 113 125 149
117 770 134 116 127 149
117 771 134 112 124 146
118 768 135 107 123 147
118 769 135 110 123 147
118 770 135 120 131 147
118 771 135 118 132 150
119 771 135 131 142 158
116 772 133 118 128 149
116 773 133 113 120 144
117 772 134 109 124 148
117 773 134 105 123 149
116 774 133 109 115 143
116 775 133 105 114 144
116 774 134 105 118 144
116 775 134 107 121 148
117 774 134 106 126 151
117 774 135 107 131 156
117 775 134 118 136 157
117 775 135 114 137 161
118 772 135 102 125 148
118 773 135 102 130 158
119 772 135 110 130 153
119 773 135 109 134 160
118 774 135 101 131 159
118 775 135 105 133 159
119 768 136 100 116 143
119 769 136 114 128 149
119 770 136 132 142 158
119 771 136 132 143 159
119 772 136 118 136 156
119 773 136 118 140 163
118 775 136 109 135 161
119 774 136 123 143 165
119 775 136 121 140 161
112 776 128 94 109 137
112 777 128 115 123 142
113 776 129 114 121 145
113 777 128 113 119 139
113 777 129 116 120 141
113 776 130 122 126 152
113 777 130 120 124 147
112 778 128 112 119 145
113 778 128 112 118 144
113 778 129 110 114 140
113 779 128 104 114 149
113 779 129 103 111 145
113 778 130 108 114 141
113 779 130 100 110 143
114 776 130 113 118 148
114 776 131 108 117 146
114 777 131 113 124 152
114 778 131 101 116 147
114 779 131 95 112 149
114 776 132 108 119 148
114 777 132 99 119 149
115 776 132 107 120 149
115 776 133 87 109 146
115 777 132 82 111 147
115 777 133 75 109 150
114 778 132 89 115 150
114 779 132 90 114 154
115 778 133 69 108 150
115 779 133 73 109 153
113 780 128 92 111 151
113 780 129 96 119 154
113 781 128 104 131 160
113 781 129 114 142 170
113 780 130 85 108 147
113 781 130 78 117 153
113 782 128 135 154 176
113 782 129 127 151 177
113 783 128 142 159 180
114 780 130 61 99 144
114 780 131 67 98 148
114 781 130 64 114 151
114 781 131 44 99 146
114 782 129 121 147 174
114 783 128 138 157 180
114 783 129 122 148 174
114 782 130 104 138 169
114 782 131 81 123 156
114 783 130 107 139 169
114 783 131 110 140 168
115 783 131 108 136 164
114 780 132 77 105 155
114 781 132 58 102 149
115 780 132 73 104 156
115 780 133 72 105 152
115 781 132 65 103 151
115 781 133 69 105 147
115 782 132 89 123 154
115 782 133 96 123 152
115 783 132 116 140 164
115 783 133 129 146 167
116 776 133 74 99 142
116 777 133 69 105 148
116 776 134 93 116 148
116 777 134 73 108 143
117 776 134 116 138 161
117 776 135 117 140 164
117 777 135 111 135 159
116 778 134 82 116 148
116 779 134 95 124 154
117 778 135 116 139 163
117 779 135 102 131 158
118 776 135 109 136 162
118 777 135 109 136 161
118 778 135 110 136 161
116 780 134 104 129 158
116 780 135 133 151 172
116 781 134 112 134 160
116 781 135 142 157 177
117 780 135 118 142 168
117 781 135 128 150 173
116 783 133 128 145 166
116 782 134 124 142 164
116 782 135 139 154 174
116 783 134 128 146 167
116 783 135 128 146 168
117 782 135 123 145 170
117 783 135 122 143 167
118 776 136 110 136 162
118 777 136 111 136 161
119 776 136 121 141 163
119 777 136 117 139 163
119 777 137 117 138 162
118 778 136 110 135 160
118 779 136 93 125 153
119 778 136 119 140 165
119 778 137 116 139 164
119 779 136 119 140 164
119 779 137 124 143 165
117 781 136 119 143 169
117 782 136 107 135 163
117 783 136 119 142 167
118 780 136 98 128 155
118 781 136 104 131 157
119 780 137 119 138 158
119 781 137 114 134 155
118 782 136 94 126 154
118 783 136 116 141 167
118 783 137 118 141 165
119 782 137 113 134 157
119 783 137 123 142 163
120 768 136 101 115 142
120 768 137 104 116 143
120 769 136 118 131 152
120 769 137 109 124 146
121 768 137 106 118 144
121 769 137 110 124 146
121 768 138 116 125 146
121 769 138 125 135 153
120 770 136 133 145 162
120 770 137 124 137 156
120 771 136 137 147 162
120 771 137 136 146 161
121 770 137 109 124 144
121 771 137 118 132 150
121 770 138 113 126 145
121 771 138 118 131 148
122 768 138 117 128 146
122 768 139 120 132 148
122 769 138 140 147 162
122 769 139 139 146 160
123 768 139 123 135 152
123 769 139 129 138 153
122 770 138 138 144 159
122 770 139 148 153 164
122 771 139 135 142 155
123 770 139 141 147 159
123 771 139 147 150 161
123 769 140 126 136 151
123 770 140 125 133 147
123 771 140 146 149 159
120 772 136 132 143 159
120 772 137 141 148 161
120 773 136 135 147 164
120 773 137 139 146 159
121 772 138 138 146 160
121 773 138 141 148 160
120 774 136 140 151 168
120 774 137 140 148 162
120 775 137 135 146 161
121 774 138 137 144 157
121 775 138 134 142 155
122 772 139 130 139 153
122 773 139 134 142 156
122 774 139 138 145 157
122 775 139 138 145 157
123 772 140 140 145 156
123 773 140 134 139 151
123 774 140 140 145 157
123 775 140 145 151 162
124 768 140 118 132 150
124 768 141 119 132 150
124 769 140 128 138 153
124 769 141 128 139 155
125 768 141 115 132 153
125 769 141 126 139 157
125 769 142 118 137 157
124 770 140 130 138 151
124 770 141 137 145 159
124 771 140 140 145 156
124 771 141 142 148 161
125 770 141 138 148 164
125 771 141 143 151 165
125 770 142 130 145 164
125 771 142 138 150 166
126 768 142 112 132 154
126 769 142 112 133 156
126 769 143 121 139 161
127 768 143 130 144 162
127 769 143 129 144 163
126 770 142 118 138 160
126 770 143 110 132 155
126 771 142 126 141 160
126 771 143 114 133 153
127 770 143 114 134 156
124 772 140 147 151 162
124 772 141 139 148 162
124 773 140 141 147 160
124 773 141 138 147 163
125 773 141 142 154 170
125 772 142 123 139 158
125 773 142 123 141 161
124 774 140 141 148 160
124 774 141 138 148 163
124 775 141 138 147 161
125 774 142 128 143 162
125 775 142 129 141 157
126 772 142 120 136 156
126 772 143 115 132 151
126 773 143 115 133 153
126 774 143 125 139 157
126 775 143 130 142 158
120 776 137 128 141 157
120 777 137 113 133 155
120 776 138 132 140 153
120 777 138 127 140 158
121 776 138 135 141 152
121 777 138 132 142 157
121 777 139 132 141 155
120 778 137 113 136 161
120 779 137 132 148 168
120 778 138 134 150 171
120 779 138 140 153 170
121 778 138 140 152 171
121 778 139 134 147 164
121 779 138 149 160 177
121 779 139 140 149 165
122 776 139 139 145 157
122 777 139 133 142 157
122 778 139 132 146 163
122 779 139 138 148 163
123 776 140 144 150 161
123 776 141 147 153 165
123 777 140 120 133 149
122 778 140 138 151 169
122 779 140 140 150 165
123 778 140 131 146 166
123 778 141 130 143 161
123 779 140 146 156 172
123 779 141 149 158 173
120 780 137 136 147 163
120 780 138 142 148 160
120 781 138 133 142 156
121 780 139 147 148 158
121 781 139 150 151 163
120 782 138 122 137 155
120 783 138 119 140 162
120 783 139 113 138 164
121 782 139 124 137 155
121 783 139 106 132 159
122 780 139 142 146 156
122 781 139 155 160 172
122 782 139 141 150 166
122 780 140 138 145 158
122 781 140 149 157 172
123 780 140 141 149 163
123 780 141 145 153 166
123 781 140 138 149 166
123 781 141 131 143 160
122 782 140 131 143 163
122 783 140 119 135 159
123 782 140 134 147 165
123 782 141 127 142 161
123 783 140 124 138 157
123 783 141 124 141 160
124 776 141 142 149 161
124 777 141 131 141 155
124 776 142 134 143 157
124 777 142 131 141 157
125 776 142 127 138 153
125 777 142 121 135 152
125 777 143 106 125 145
124 778 141 132 144 160
124 779 141 152 160 174
124 779 142 150 159 174
125 778 142 136 149 167
125 778 143 130 146 166
125 779 142 145 157 173
125 779 143 136 150 168
126 776 143 126 138 154
126 777 143 113 129 148
126 778 143 114 132 152
126 779 143 126 142 162
124 780 141 147 154 167
124 781 141 126 139 156
124 780 142 142 151 166
124 781 142 129 141 158
125 780 142 137 148 164
125 780 143 131 144 160
125 781 142 130 142 159
125 781 143 128 141 158
124 783 141 105 127 150
124 782 142 127 141 159
124 783 142 123 140 159
125 782 142 127 140 158
125 782 143 127 140 158
125 783 143 133 146 162
127 768 144 141 150 165
127 769 144 133 145 161
127 770 144 110 128 149
127 770 145 123 136 153
127 771 144 119 134 152
127 771 145 128 140 155
126 773 144 127 140 157
127 772 144 123 136 152
127 772 145 135 144 158
127 773 144 126 139 155
127 773 145 123 137 155
126 774 144 130 143 160
126 775 144 129 141 157
127 774 144 127 141 159
127 774 145 125 141 161
127 775 144 129 142 159
127 775 145 131 145 162
127 775 146 131 144 161
126 776 144 127 139 155
126 777 144 120 134 152
127 776 145 131 143 159
127 777 145 127 138 155
127 776 146 132 143 160
127 777 146 123 134 149
126 778 144 114 131 150
126 779 144 122 137 156
126 779 145 123 138 155
127 778 145 125 137 153
127 779 145 127 139 156
127 778 146 129 138 151
127 779 146 134 144 159
125 782 144 126 140 158
125 783 144 132 146 163
126 780 144 123 137 155
126 780 145 114 131 150
126 781 144 119 134 153
126 781 145 117 133 152
127 780 145 119 135 153
127 780 146 126 140 157
127 781 146 127 140 157
127 781 147 131 141 156
126 782 144 126 141 159
126 782 145 129 143 161
126 783 144 130 144 162
126 783 145 131 145 163
126 783 146 137 152 171
127 782 146 128 141 159
127 782 147 125 137 155
127 783 146 132 147 167
127 783 147 144 158 178
114 784 128 147 164 186
114 784 129 132 154 179
114 785 128 152 167 187
114 785 129 145 162 184
114 784 130 106 138 168
114 784 131 98 133 164
114 785 130 128 152 178
115 784 131 100 134 164
115 785 130 127 152 179
115 785 131 117 146 175
114 786 128 152 165 184
114 786 129 152 165 185
114 787 128 153 166 186
115 786 129 154 167 186
115 787 128 153 166 185
115 787 129 155 168 186
114 786 130 145 162 184
115 786 130 144 162 185
115 786 131 137 158 183
115 787 130 152 166 186
115 787 131 147 164 185
115 784 132 112 140 167
115 784 133 135 155 177
115 785 132 109 140 168
115 785 133 117 144 170
115 786 132 124 148 174
115 787 132 140 158 180
115 788 128 154 167 187
115 788 129 153 166 185
115 789 128 155 168 188
115 789 129 151 165 184
115 788 130 154 167 185
115 788 131 154 166 184
115 789 130 150 162 181
115 789 131 153 164 181
115 790 128 159 171 190
115 790 129 155 168 187
115 788 132 151 164 183
116 784 133 137 155 178
116 785 133 125 148 174
116 784 134 119 144 169
116 784 135 102 133 162
116 785 134 135 155 178
116 785 135 125 148 173
117 784 135 101 132 161
117 785 135 121 146 172
116 786 133 127 148 172
116 787 132 141 157 179
116 787 133 138 155 176
116 786 134 140 157 177
116 786 135 137 154 175
116 787 134 141 156 176
116 787 135 132 150 172
117 786 135 133 151 173
117 787 135 118 141 166
116 789 131 152 163 180
116 790 128 166 176 194
116 790 129 154 166 185
116 791 128 169 179 196
116 791 129 158 169 187
116 790 130 148 161 180
116 790 131 147 160 178
116 791 130 152 164 183
116 791 131 149 162 180
116 788 132 151 164 182
116 788 133 144 159 179
116 789 132 153 164 181
116 789 133 147 161 180
116 788 134 137 154 174
116 788 135 128 149 172
116 789 134 142 156 176
117 788 135 128 149 173
117 789 134 142 157 176
117 789 135 140 156 176
116 790 132 151 162 180
116 790 133 148 161 179
116 791 132 149 161 179
116 791 133 152 163 181
117 791 133 151 163 181
116 790 134 145 159 178
117 790 134 146 159 178
117 790 135 142 156 175
117 791 134 146 160 178
117 791 135 140 156 176
117 784 136 122 144 169
117 785 136 126 146 169
117 786 136 130 147 168
117 787 136 107 133 160
118 784 136 127 146 167
118 784 137 129 145 165
118 785 136 127 144 165
118 785 137 127 142 162
119 784 137 130 144 163
119 785 137 127 141 160
119 784 138 133 145 162
119 785 138 130 142 160
118 786 136 129 145 165
118 786 137 126 143 163
118 787 136 120 140 161
118 787 137 122 142 165
119 786 137 116 136 158
119 787 137 108 134 160
119 786 138 111 132 154
119 787 138 114 140 167
117 788 136 115 141 168
117 789 136 133 152 175
117 790 136 134 151 172
117 791 136 133 151 172
118 788 137 120 143 167
118 789 137 120 143 167
119 788 138 119 142 167
119 789 138 92 126 155
119 789 139 112 134 159
118 790 137 123 145 169
118 791 136 127 147 169
118 791 137 122 143 165
118 790 138 112 140 167
118 791 138 123 143 166
119 790 138 112 139 166
119 790 139 117 139 162
119 791 138 121 143 165
119 791 139 116 137 161
116 792 128 169 180 197
116 792 129 165 175 192
116 793 128 167 178 197
116 793 129 167 177 194
117 793 128 165 176 195
117 793 129 165 175 192
116 792 130 157 168 186
116 792 131 151 163 181
117 792 131 153 164 182
117 793 130 160 169 186
117 793 131 155 165 182
117 794 128 156 169 189
117 794 129 162 173 190
117 795 128 150 165 185
117 795 129 155 167 186
117 794 130 161 171 187
117 794 131 157 167 183
117 795 130 157 168 186
117 795 131 157 167 184
116 792 132 149 161 179
117 792 132 149 161 180
117 792 133 148 162 180
117 793 132 153 164 181
117 793 133 149 162 180
117 792 134 147 162 181
117 792 135 140 158 179
117 793 134 142 159 180
117 794 132 155 166 183
117 794 133 152 164 182
117 795 132 155 165 183
117 795 133 153 165 183
117 794 134 143 159 180
118 792 135 136 156 179
118 793 135 135 156 180
118 794 133 148 162 181
118 795 133 151 165 184
118 794 134 141 159 181
118 794 135 136 156 180
118 795 134 148 164 184
118 795 135 142 161 184
117 796 128 150 166 188
117 796 129 152 166 186
117 796 130 154 167 185
117 796 131 154 166 184
118 796 128 151 168 190
118 796 129 152 166 186
118 797 128 153 170 191
118 797 129 143 159 179
118 796 130 153 165 183
118 796 131 154 165 183
118 797 130 141 153 171
118 797 131 151 160 175
118 798 128 151 167 188
118 798 129 123 141 161
118 799 128 155 170 189
118 799 129 137 144 163
118 798 130 113 123 140
118 798 131 135 137 150
118 799 130 124 109 131
118 799 131 127 99 118
119 799 130 142 111 130
119 799 131 138 75 101
118 796 132 153 165 183
118 796 133 152 165 184
118 797 132 156 166 181
118 797 133 155 166 184
118 796 134 151 166 186
118 796 135 149 166 187
118 797 134 156 169 187
119 797 135 155 170 191
118 798 132 154 161 173
118 798 133 158 168 182
118 799 132 146 137 146
119 799 132 148 117 128
119 799 133 151 159 169
118 798 134 158 169 186
119 798 134 155 168 186
119 798 135 155 170 189
119 799 134 139 150 168
119 799 135 126 141 165
117 792 136 132 152 175
118 792 136 121 146 172
118 792 137 97 131 161
118 793 136 124 149 176
118 793 137 109 143 175
118 792 138 98 132 162
118 793 138 97 137 171
119 792 138 104 136 165
119 792 139 98 132 162
119 793 138 107 143 175
119 793 139 114 145 175
118 794 136 132 155 181
118 794 137 127 152 179
118 795 136 136 157 181
118 795 137 134 154 178
119 794 137 128 151 176
119 795 137 131 151 174
119 794 138 123 147 173
119 794 139 125 147 171
119 795 138 126 145 166
119 795 139 124 142 162
118 796 136 141 160 183
119 796 136 147 165 187
119 796 137 135 156 180
119 797 136 152 169 192
119 797 137 132 158 185
119 796 138 103 133 162
119 797 138 101 137 169
119 798 136 153 170 192
119 798 137 138 162 188
119 799 136 140 155 179
119 799 137 146 165 187
119 798 138 119 150 180
120 784 138 133 148 167
120 784 139 129 148 171
120 785 138 136 148 165
120 785 139 136 150 168
121 784 139 132 151 174
121 785 139 142 154 171
120 786 138 118 136 156
120 786 139 133 146 164
120 787 139 133 149 170
121 786 139 137 149 166
121 787 139 132 148 167
121 786 140 132 146 165
121 787 140 118 139 162
122 784 140 138 151 171
122 785 140 152 160 175
123 784 140 114 131 150
123 784 141 128 144 163
123 785 141 139 151 169
122 786 140 127 140 158
122 787 140 106 129 152
122 787 141 117 131 149
123 786 141 128 141 159
123 787 141 121 132 148
123 786 142 134 146 163
123 787 142 125 134 148
120 788 138 132 151 173
120 788 139 137 150 169
120 789 139 131 145 163
121 788 139 132 147 167
120 790 139 130 144 162
120 791 139 122 141 161
121 788 140 124 142 164
121 789 140 125 140 158
120 791 140 130 145 163
121 790 140 119 132 148
121 791 140 115 128 143
122 788 140 126 140 158
122 788 141 139 147 160
122 789 140 122 131 144
122 789 141 135 139 148
123 788 141 151 154 165
123 789 141 151 152 159
123 788 142 136 142 153
123 789 142 141 146 156
122 790 140 105 114 126
122 790 141 115 122 132
122 791 141 108 112 121
123 790 142 130 138 150
123 790 143 119 133 149
123 791 142 125 127 135
123 791 143 115 123 134
124 784 142 139 156 176
124 784 143 138 152 171
124 785 142 152 166 185
124 785 143 138 152 171
125 784 143 136 150 168
125 785 143 133 147 165
124 786 142 136 149 167
124 786 143 135 148 165
124 787 142 130 139 153
124 787 143 133 144 160
125 786 143 132 145 163
124 788 143 133 143 158
124 789 143 129 139 154
124 790 143 120 134 150
124 791 143 121 132 145
120 792 139 99 131 159
120 794 139 127 146 168
120 795 139 121 140 161
120 792 140 117 138 160
120 793 140 120 144 167
121 792 140 115 131 148
121 792 141 103 107 119
121 793 140 117 131 147
121 793 141 106 99 116
120 794 140 128 147 167
120 795 140 112 134 155
121 794 140 125 137 152
121 794 141 133 134 149
121 795 141 132 135 151
122 792 141 104 79 88
122 793 141 113 61 79
122 792 142 118 51 63
122 793 142 126 38 56
123 792 142 118 70 75
123 792 143 121 80 81
123 793 142 135 36 52
123 793 143 152 68 77
122 794 141 132 98 115
122 795 141 143 120 132
122 794 142 133 53 74
122 795 142 141 60 70
123 794 142 142 27 52
123 794 143 150 22 42
123 795 142 141 33 48
123 795 143 152 21 36
120 796 139 93 126 155
120 797 138 102 138 171
120 797 139 102 137 168
120 799 137 146 164 186
120 798 138 124 152 181
120 798 139 119 148 177
120 799 138 136 159 184
120 799 139 127 153 179
120 796 140 96 125 151
120 797 140 95 128 157
121 796 141 104 113 133
121 797 140 95 118 142
121 797 141 105 116 135
120 798 140 97 131 160
120 799 140 106 136 163
121 798 140 61 96 130
121 798 141 76 90 124
121 799 140 74 108 141
121 799 141 41 58 112
122 796 141 113 89 105
122 797 141 105 99 115
122 796 142 124 56 74
122 797 142 109 63 84
123 796 142 137 42 58
123 796 143 151 32 55
123 797 142 125 44 63
123 797 143 142 41 60
122 798 141 89 94 121
122 799 141 61 68 113
122 798 142 91 76 98
122 799 142 80 83 108
123 798 142 109 61 67
123 798 143 127 61 56
123 799 142 102 91 96
123 799 143 137 98 87
124 792 143 124 100 102
124 798 143 140 61 60
124 799 143 142 88 78
125 784 144 135 148 164
125 785 144 131 144 161
125 786 144 127 141 158
125 786 145 125 139 156
125 787 144 126 140 158
125 787 145 124 138 156
126 784 144 134 147 164
126 784 145 135 148 165
126 785 145 133 146 162
126 784 146 138 151 169
127 784 146 135 150 169
127 784 147 132 148 167
127 785 146 132 145 162
127 785 147 131 145 164
126 786 145 125 139 156
126 787 145 127 142 160
126 787 146 136 151 169
127 786 146 124 138 157
127 786 147 131 145 163
127 787 146 137 151 170
127 787 147 138 152 171
124 788 144 131 144 161
124 789 144 127 141 158
125 788 144 129 144 162
125 788 145 133 147 166
125 789 144 126 141 160
125 789 145 127 143 162
124 790 144 118 133 150
124 791 144 131 143 157
125 790 144 122 137 155
125 790 145 125 141 160
125 791 144 128 142 158
125 791 145 125 141 158
126 788 145 141 154 171
126 789 145 131 145 163
126 788 146 143 155 172
126 789 146 134 148 165
127 788 146 142 154 171
127 788 147 143 155 173
127 789 146 138 151 168
127 789 147 143 155 172
126 790 145 128 143 162
126 791 145 124 141 160
126 790 146 130 145 164
126 791 146 123 140 159
127 790 146 135 149 167
127 790 147 139 151 168
127 791 146 129 144 162
127 791 147 134 148 166
124 792 144 125 117 122
124 793 144 145 78 90
125 792 144 134 136 145
125 792 145 142 149 160
125 793 144 145 95 103
125 793 145 162 140 146
124 794 144 149 33 48
124 795 144 154 31 47
125 794 144 144 43 53
125 794 145 145 72 81
125 795 144 148 32 45
125 795 145 146 52 59
126 792 145 140 153 166
126 792 146 126 143 160
126 793 146 158 155 162
127 792 146 118 136 155
127 792 147 126 141 158
127 793 146 122 132 143
127 793 147 120 132 146
126 794 146 130 89 95
126 795 146 139 67 70
127 794 146 114 100 104
127 794 147 120 121 128
127 795 147 122 78 80
127 795 148 124 78 80
124 796 144 150 37 53
124 796 145 143 39 47
124 797 144 151 62 66
124 797 145 149 61 60
125 796 145 162 85 84
125 797 145 158 64 65
124 798 144 158 81 81
124 799 144 149 58 67
125 798 145 162 63 70
125 799 145 151 30 46
126 796 146 172 99 97
126 797 146 155 37 51
126 797 147 151 20 42
127 796 147 141 46 54
127 797 147 146 17 38
126 798 146 154 20 44
126 798 147 152 11 47
126 799 146 145 37 45
126 799 147 144 36 48
127 798 147 149 12 42
127 799 147 144 28 45
127 796 148 128 54 63
127 797 148 137 25 44
127 798 148 145 42 55
127 799 148 144 27 47
