ply
format ascii 1.0
comment Version 2, Copyright 2017, 8i Labs, Inc.
comment frame_to_world_scale 0.179523
comment frame_to_world_translation -45.2095 7.18301 -54.3561
comment width 1023
element vertex 2210
property float x
property float y
property float z
property uchar red
property uchar green
property uchar blue
end_header
130 547 103 115 94 70
131 546 103 117 94 71
131 547 103 117 94 72
128 549 103 115 93 70
129 548 103 114 93 70
129 549 103 115 93 70
128 550 103 116 94 71
128 551 103 117 95 72
129 550 103 116 93 71
129 551 102 116 93 70
129 551 103 116 93 71
130 548 103 115 93 69
130 549 103 114 92 69
131 548 103 115 93 71
131 549 102 115 92 69
130 550 102 115 92 69
130 550 103 116 93 70
130 551 102 115 93 70
131 550 102 115 92 70
131 551 102 116 93 70
132 545 103 119 95 72
133 544 103 122 98 77
133 545 103 121 97 75
132 546 103 119 95 74
132 547 103 119 95 74
133 546 103 120 96 75
133 547 103 121 96 76
134 544 103 123 99 78
134 545 103 122 98 78
135 544 103 121 97 77
135 545 103 122 97 77
134 546 103 121 98 76
134 547 102 122 98 77
134 547 103 122 98 77
135 546 103 123 98 76
135 547 102 123 99 77
132 548 102 117 94 72
132 548 103 117 94 72
132 549 102 117 93 70
133 548 102 120 95 74
133 549 102 120 95 72
132 550 102 118 94 72
132 551 102 117 93 71
133 550 102 121 96 74
133 551 102 119 95 73
134 548 102 121 97 76
134 549 102 121 97 75
135 548 102 123 99 78
135 549 102 123 98 78
134 551 101 120 96 75
135 550 101 123 97 78
135 551 101 122 96 75
134 550 102 121 97 75
134 551 102 121 96 75
135 550 102 122 97 77
128 544 105 118 96 73
128 545 105 118 96 72
129 544 105 118 96 72
129 545 104 117 95 72
129 545 105 117 95 72
128 544 106 119 96 73
128 546 105 116 95 74
128 547 104 115 94 72
128 547 105 116 94 72
129 546 104 116 95 73
129 547 104 116 94 71
130 544 104 117 95 71
130 544 105 117 95 72
130 545 104 116 95 71
131 544 104 118 95 72
131 545 104 117 94 69
130 546 104 116 94 70
130 547 104 115 94 71
131 546 104 117 94 70
128 548 104 115 93 71
128 549 104 115 94 71
129 548 104 115 93 70
128 550 104 116 94 72
128 551 104 116 94 71
132 544 104 120 96 74
132 545 104 118 95 71
133 544 104 121 97 76
134 544 104 122 98 78
128 552 103 116 94 71
128 553 103 117 94 70
129 552 102 116 94 71
129 552 103 116 94 70
129 553 102 117 94 71
129 553 103 116 94 71
128 554 103 117 95 71
128 555 103 118 95 71
129 554 102 117 95 72
129 555 102 118 95 71
130 552 102 116 94 71
130 553 102 117 95 73
131 552 102 117 94 71
131 553 102 117 95 73
131 554 101 119 96 74
131 555 101 118 95 73
130 554 102 118 95 74
130 555 102 119 95 72
131 554 102 119 95 73
131 555 102 119 96 73
129 557 101 120 96 73
128 556 102 120 96 71
128 556 103 119 96 71
128 557 102 121 97 72
129 556 102 119 95 70
129 557 102 119 95 72
128 559 101 123 98 72
129 558 101 121 97 72
129 559 101 122 98 73
128 558 102 122 98 73
128 559 102 122 98 72
130 556 101 118 95 70
130 557 101 120 96 71
131 556 101 118 95 72
131 557 101 118 94 71
130 556 102 118 95 70
130 558 101 120 96 71
130 559 100 120 97 72
130 559 101 121 97 72
131 558 100 118 94 70
131 558 101 118 94 71
131 559 100 119 95 71
132 552 101 118 94 73
132 553 101 119 95 74
133 552 101 119 95 73
133 553 101 119 96 74
132 552 102 118 94 72
132 553 102 118 95 73
132 554 101 119 96 74
132 555 101 120 95 73
133 554 101 121 96 75
133 555 100 120 95 74
133 555 101 121 96 74
134 552 101 120 96 74
134 553 101 120 96 74
135 552 101 122 95 75
135 553 100 122 96 74
135 553 101 121 96 75
134 554 100 121 96 75
134 554 101 121 96 75
134 555 100 121 96 76
135 554 100 122 96 75
135 555 100 121 96 75
135 557 99 121 95 74
134 559 99 120 95 73
135 558 99 120 94 74
135 559 99 120 95 74
132 556 101 119 94 72
132 557 100 118 93 70
132 557 101 118 93 70
133 556 100 121 95 73
133 557 100 120 94 72
132 558 100 118 93 70
132 559 100 119 94 71
133 558 100 119 94 71
133 559 100 119 94 71
134 556 100 121 96 75
134 557 100 121 95 74
135 556 100 122 96 76
135 557 100 121 95 75
134 558 100 120 94 72
134 559 100 120 94 72
135 558 100 120 95 74
136 544 103 117 93 75
136 545 103 119 95 76
137 544 103 113 90 74
137 545 103 116 94 77
136 546 102 122 98 77
136 546 103 121 97 76
136 547 102 123 98 77
137 546 102 120 96 79
137 546 103 118 96 79
137 547 102 121 96 77
138 544 103 110 89 72
138 545 103 114 93 76
139 544 103 108 88 72
139 545 103 110 89 74
139 547 101 115 94 78
138 546 102 118 96 80
138 546 103 116 95 80
138 547 102 119 95 79
139 546 102 115 91 79
139 546 103 113 91 77
139 547 102 117 93 79
136 548 101 122 97 77
136 549 101 123 97 77
137 548 101 121 96 77
137 549 101 122 97 78
136 548 102 123 98 78
137 548 102 120 96 76
136 550 101 122 96 77
136 551 101 122 96 77
137 550 101 122 96 77
137 551 101 122 96 76
138 548 101 118 94 76
138 549 101 119 96 77
139 548 101 116 93 77
139 549 100 115 93 77
139 549 101 116 94 77
138 548 102 119 95 76
139 548 102 116 94 78
138 550 101 120 95 76
138 551 100 120 96 75
138 551 101 120 96 76
139 550 100 117 94 76
139 551 100 117 95 76
140 544 103 109 88 74
140 545 102 113 90 76
140 545 103 110 88 74
141 544 102 109 87 74
141 544 103 112 89 74
141 545 102 111 88 74
140 547 101 114 90 77
141 546 101 110 87 75
141 547 101 112 89 76
140 546 102 113 89 76
140 547 102 114 90 77
141 546 102 111 88 74
143 544 101 110 87 73
143 545 101 110 86 73
142 544 102 109 87 74
142 545 102 109 86 74
143 544 102 116 89 73
142 546 101 109 85 75
142 547 101 109 86 75
143 546 100 107 87 76
143 546 101 111 84 72
143 547 100 108 87 76
143 547 101 112 85 74
141 551 99 111 90 76
143 549 99 108 86 77
142 550 99 109 88 76
142 551 99 110 88 76
143 550 99 108 86 77
143 551 99 107 86 77
140 548 101 114 90 76
140 549 100 114 91 77
140 549 101 114 90 76
141 548 100 110 88 75
141 548 101 111 89 75
141 549 100 111 89 75
140 550 100 115 92 78
140 551 100 116 93 78
141 550 100 111 89 75
141 551 100 113 90 76
142 548 100 109 87 75
142 549 100 109 88 76
143 548 100 107 88 77
143 549 100 107 88 77
142 550 100 109 89 76
139 555 99 119 94 76
136 552 101 122 96 76
136 553 100 122 96 77
136 553 101 122 95 75
137 552 100 120 95 76
137 552 101 121 95 76
137 553 100 122 95 76
136 554 100 122 96 77
136 555 100 123 97 77
137 554 100 121 95 76
137 555 100 122 96 76
138 552 100 119 95 75
138 553 100 119 94 75
139 552 100 118 95 76
139 553 100 118 94 75
138 554 100 120 94 74
138 555 100 120 94 75
139 554 100 119 95 76
139 555 100 118 94 77
136 557 99 121 95 73
137 557 99 121 95 74
136 558 99 120 94 73
136 559 99 120 95 74
137 558 99 120 94 73
137 559 99 120 94 74
138 556 99 121 95 76
138 557 99 120 95 74
139 556 99 119 94 76
139 557 99 119 94 77
138 558 99 120 94 74
138 559 99 119 93 74
139 558 98 118 92 77
139 558 99 119 92 75
139 559 98 118 92 75
136 556 100 122 96 75
136 557 100 122 96 75
137 556 100 122 96 76
138 556 100 121 95 77
139 556 100 119 94 76
140 552 99 119 94 80
140 553 99 116 93 77
141 552 99 113 91 77
141 553 99 115 92 78
140 554 99 118 94 77
140 555 99 118 94 77
141 554 98 110 90 73
141 554 99 119 94 77
141 555 98 115 92 75
141 555 99 124 96 78
142 552 99 110 89 76
142 553 98 109 90 76
142 553 99 110 90 76
143 552 98 107 89 77
143 552 99 108 88 77
143 553 98 107 89 77
142 555 97 109 93 80
143 554 97 107 93 82
143 555 97 104 90 79
142 554 98 110 91 76
142 555 98 110 93 79
143 554 98 108 92 80
140 552 100 116 93 78
140 553 100 116 93 77
141 557 97 106 87 71
140 556 99 119 94 79
140 557 98 122 94 80
140 557 99 119 94 79
141 556 98 115 93 77
141 556 99 122 96 80
141 557 98 115 92 77
140 559 97 115 90 75
141 558 97 106 82 67
141 559 96 95 73 59
141 559 97 106 82 67
140 558 98 118 93 78
140 559 98 116 91 77
141 558 98 114 90 74
142 556 97 105 89 76
142 557 96 90 67 52
142 557 97 100 82 67
143 556 96 94 77 64
143 556 97 100 84 71
143 557 96 83 59 47
143 557 97 97 78 64
142 556 98 110 92 79
142 558 96 87 63 51
142 558 97 93 68 54
142 559 96 84 66 55
143 558 96 80 58 48
128 544 126 131 96 76
128 545 126 131 97 77
129 544 126 130 96 76
129 545 126 130 95 76
128 546 125 132 98 77
128 547 125 131 96 75
128 546 126 131 97 78
128 547 126 130 96 76
129 546 126 130 96 77
129 547 126 130 95 76
130 544 127 130 95 76
130 545 126 130 95 76
130 545 127 129 95 76
131 544 127 129 94 76
131 545 127 128 93 74
130 546 126 129 95 76
130 546 127 128 94 74
130 547 126 128 94 75
131 546 127 127 93 73
131 547 127 126 91 71
128 548 125 130 95 74
128 549 125 130 95 75
128 548 126 129 94 74
128 549 126 130 95 75
129 548 126 129 94 75
129 549 126 129 94 74
128 550 125 131 96 76
128 551 125 130 96 75
128 550 126 130 95 75
129 550 126 128 94 74
129 551 126 128 94 74
130 548 126 128 94 74
130 549 126 127 93 73
131 548 126 126 93 72
131 548 127 126 92 72
131 549 126 127 94 73
131 549 127 127 94 74
130 550 126 127 93 73
130 551 126 127 93 73
131 550 126 127 93 73
131 550 127 127 94 73
131 551 126 126 93 73
131 551 127 126 92 72
132 544 127 128 94 77
132 545 127 127 93 75
133 544 127 127 93 76
133 545 127 127 93 75
132 546 127 126 93 74
132 547 127 126 92 73
133 546 127 126 92 74
133 547 127 126 92 73
132 548 127 126 92 72
132 549 127 127 94 74
133 548 127 126 93 73
133 549 127 126 93 73
132 550 127 126 93 73
132 551 127 126 93 73
133 550 127 126 93 72
133 551 127 126 93 72
128 552 125 129 96 75
128 553 125 129 96 74
129 552 126 128 94 74
129 553 126 128 95 73
128 554 125 128 96 73
128 555 125 127 96 72
129 554 126 128 96 73
129 555 126 128 96 73
130 552 126 127 94 74
130 553 126 128 95 75
131 552 126 127 93 74
131 552 127 126 92 73
131 553 126 128 95 75
131 553 127 127 93 74
130 554 126 127 95 74
130 555 126 127 95 73
131 554 126 127 95 75
131 554 127 127 93 74
131 555 126 127 94 73
131 555 127 126 92 73
128 556 125 126 95 71
128 557 125 126 94 71
128 556 126 126 95 72
128 557 126 126 94 72
129 556 126 128 97 74
129 557 126 127 95 73
128 558 125 125 92 70
128 558 126 125 92 70
128 559 126 124 92 70
129 558 126 125 93 71
129 559 126 124 92 70
130 556 126 128 96 74
130 557 126 127 96 74
131 556 127 126 93 73
131 557 127 126 94 73
130 558 126 126 93 72
130 559 126 124 92 70
131 558 127 125 93 72
131 559 127 124 92 70
132 552 127 126 92 72
132 553 127 125 91 72
133 552 127 124 91 70
133 553 127 124 91 71
132 554 127 125 91 73
132 555 127 125 91 73
133 554 127 125 91 73
133 555 127 124 91 73
134 552 127 123 90 69
132 556 127 124 90 72
132 557 127 124 91 73
133 556 127 123 89 72
133 557 127 123 89 72
132 558 127 123 91 72
132 559 127 123 91 72
133 558 127 122 89 72
133 559 127 122 90 72
134 558 127 121 88 70
134 559 127 120 87 71
139 551 127 111 81 68
140 544 127 111 81 69
140 545 127 111 81 70
141 544 127 109 81 68
141 545 127 109 81 68
140 546 127 111 81 70
140 547 127 110 81 68
141 546 127 108 79 69
141 547 127 107 79 67
143 544 125 105 80 67
143 545 125 103 78 66
142 544 126 107 80 66
142 544 127 108 80 67
142 545 126 107 80 67
142 545 127 107 80 67
143 544 126 104 79 66
143 545 126 104 77 66
143 546 125 105 78 66
143 547 125 106 79 65
142 546 126 107 80 67
142 547 126 106 80 67
143 546 126 108 79 67
143 547 126 107 81 65
140 548 127 110 81 67
140 549 127 110 80 68
141 548 127 109 80 66
141 549 127 109 79 67
140 550 127 110 79 68
140 551 127 110 80 68
141 550 127 108 78 67
141 551 126 108 78 65
141 551 127 109 79 66
143 548 125 103 79 64
143 549 125 102 77 65
142 548 126 106 79 67
142 549 126 107 78 66
143 548 126 105 80 66
143 549 126 104 78 66
142 551 125 105 78 65
143 550 125 102 77 66
143 551 125 103 78 66
142 550 126 107 78 66
142 551 126 107 78 65
143 550 126 104 78 66
137 555 127 113 83 68
139 552 127 111 81 68
139 553 127 110 81 67
138 554 127 112 82 68
138 555 127 112 83 68
139 554 127 110 80 67
139 555 127 110 80 67
136 557 127 114 83 68
137 556 127 113 83 68
137 557 127 112 82 67
136 558 127 115 83 68
136 559 127 114 83 68
137 558 127 112 82 66
137 559 127 111 82 66
138 556 127 111 82 67
138 557 127 110 81 66
139 556 126 108 80 65
139 556 127 109 80 66
139 557 126 106 78 63
139 557 127 108 78 65
138 558 127 109 80 64
138 559 127 109 80 64
139 558 126 106 79 63
139 558 127 107 79 64
139 559 126 105 78 62
139 559 127 106 78 64
140 552 127 110 80 67
140 553 126 109 79 66
140 553 127 109 79 66
141 552 126 108 79 65
141 552 127 109 79 64
141 553 126 107 79 65
141 555 125 104 77 66
140 554 126 109 79 66
140 554 127 109 80 67
140 555 126 108 78 65
141 554 126 107 79 65
141 555 126 106 78 64
142 552 125 104 78 64
142 553 125 105 77 64
143 552 125 102 77 65
143 553 125 101 76 64
142 552 126 106 78 65
142 553 126 106 78 64
142 554 125 103 76 64
142 555 125 102 76 64
143 554 124 98 76 64
143 554 125 100 76 64
143 555 124 98 76 66
143 555 125 100 76 65
142 554 126 105 78 64
141 556 125 103 77 63
141 557 125 102 77 62
140 556 126 106 78 64
140 557 126 104 78 63
141 556 126 104 77 62
141 557 126 103 77 62
141 558 125 101 77 62
140 558 126 104 78 62
140 559 126 103 77 61
141 558 126 101 77 62
141 559 126 100 77 61
142 556 125 100 76 62
142 557 125 99 76 61
143 556 124 95 75 63
143 556 125 98 76 64
143 557 124 94 74 60
143 557 125 94 75 61
142 558 125 98 76 61
142 559 125 96 75 60
143 558 124 90 73 60
143 558 125 93 75 60
143 559 124 86 72 61
143 559 125 90 72 60
129 563 99 123 98 73
131 561 99 121 96 72
130 562 99 123 97 73
130 563 99 122 97 73
131 562 99 122 96 72
131 563 99 122 97 72
128 560 101 122 98 72
128 561 100 122 98 74
128 561 101 123 98 74
129 560 100 121 97 72
129 560 101 121 97 71
129 561 100 123 98 74
128 562 100 123 98 75
128 563 100 123 98 74
129 562 100 122 98 75
129 563 100 123 98 74
130 560 100 121 97 72
130 561 100 122 97 73
131 560 100 120 96 72
131 561 100 122 96 73
130 562 100 122 97 74
128 565 99 123 97 72
129 564 99 121 97 73
129 565 99 122 96 73
128 566 99 122 97 72
128 567 99 120 96 71
129 566 99 120 95 71
129 567 99 119 94 70
130 564 99 122 96 73
130 565 99 121 95 72
131 564 99 123 97 71
131 565 99 122 96 72
130 566 99 120 94 71
130 567 98 119 94 70
130 567 99 119 94 70
131 566 98 122 95 72
131 566 99 121 95 71
131 567 98 121 95 71
128 564 100 123 98 72
128 565 100 122 97 73
129 564 100 123 97 71
132 560 99 121 96 73
132 561 99 121 95 72
133 560 99 121 95 73
133 561 99 121 95 73
132 562 99 121 96 73
132 563 99 123 97 72
133 562 99 121 95 73
133 563 99 122 97 73
134 560 99 121 96 74
134 561 99 120 95 73
135 560 99 120 95 74
135 561 99 120 95 74
134 562 99 121 95 73
134 563 99 121 96 73
135 562 99 121 96 74
135 563 98 121 96 75
135 563 99 121 96 73
132 560 100 120 95 73
133 560 100 120 95 73
132 564 99 122 97 73
132 565 98 122 96 73
132 565 99 122 96 73
133 564 99 122 97 73
133 565 98 122 96 74
133 565 99 123 97 75
132 566 98 122 96 73
132 567 98 122 95 72
133 566 98 122 96 74
133 567 98 122 96 73
134 564 98 122 97 74
134 564 99 122 97 74
134 565 98 122 97 74
135 564 98 121 96 74
135 565 98 121 96 75
134 566 98 121 96 74
134 567 98 121 96 74
135 566 98 120 96 74
135 567 98 119 96 74
128 568 99 119 96 70
128 569 98 119 94 68
128 569 99 119 95 69
129 568 98 119 94 69
129 568 99 118 94 69
129 569 98 119 94 69
128 570 98 119 95 69
128 571 98 120 96 71
129 570 98 118 93 69
129 571 98 120 95 70
130 568 98 118 94 70
130 569 98 119 94 70
131 568 98 120 94 71
131 569 98 119 94 70
131 570 97 120 96 71
131 571 97 120 95 71
130 570 98 120 94 71
130 571 98 119 94 70
131 570 98 120 95 71
128 573 97 121 96 72
129 573 97 121 97 73
128 572 98 121 96 72
128 573 98 121 97 73
129 572 98 120 96 73
129 573 98 122 97 74
128 574 97 120 96 71
128 575 97 120 96 71
129 574 97 120 96 72
129 575 97 120 96 70
128 574 98 122 97 71
130 572 97 119 95 72
130 573 97 120 96 73
131 572 97 120 95 70
131 573 97 119 95 71
130 572 98 119 95 72
130 574 97 120 97 72
130 575 97 119 96 71
131 574 97 119 95 71
131 575 96 119 94 69
131 575 97 119 95 70
132 569 97 120 96 71
133 569 97 120 95 70
132 568 98 121 95 71
132 569 98 120 95 71
133 568 98 121 95 71
133 569 98 120 95 70
132 570 97 120 96 71
132 571 97 121 96 72
133 570 97 121 96 70
133 571 97 121 97 72
134 568 97 119 94 73
134 569 97 120 95 72
135 568 97 118 95 74
135 569 97 119 95 74
134 568 98 120 95 72
135 568 98 119 95 74
134 570 97 121 96 72
134 571 97 121 96 73
135 570 97 120 95 73
135 571 97 119 95 74
132 572 97 120 96 72
132 573 97 119 95 72
133 572 97 120 95 73
133 573 96 120 95 72
133 573 97 120 95 72
132 574 96 118 94 70
132 574 97 119 95 71
132 575 96 119 95 71
133 574 96 119 94 71
133 575 96 119 94 71
134 572 97 120 95 74
134 573 96 120 95 73
134 573 97 119 95 73
135 572 96 118 93 72
135 572 97 118 93 73
135 573 96 119 94 74
134 574 96 120 95 72
134 575 96 119 94 71
135 574 96 119 94 74
135 575 96 118 94 73
136 560 99 121 95 74
136 561 99 121 96 75
137 560 99 120 95 75
137 561 98 119 94 75
137 561 99 120 95 75
136 562 98 120 95 74
136 562 99 121 96 74
136 563 98 121 95 75
137 562 98 119 95 74
137 563 98 119 94 74
139 560 97 114 91 74
139 561 97 114 91 75
138 560 98 118 93 75
138 560 99 119 94 75
138 561 98 118 94 75
139 560 98 117 92 74
139 561 98 116 92 74
139 562 97 115 91 75
139 563 97 115 92 74
138 562 98 118 94 75
138 563 98 118 93 75
139 562 98 116 92 75
136 564 98 119 94 74
136 565 98 119 95 74
137 564 98 118 93 73
137 565 98 117 92 72
136 567 97 117 94 74
137 567 97 117 94 75
136 566 98 118 95 75
136 567 98 118 95 74
137 566 98 116 93 74
139 564 97 113 91 74
139 565 97 112 90 73
138 564 98 117 93 74
138 565 98 115 91 72
138 566 97 114 91 74
138 567 97 112 91 73
139 566 97 113 90 73
139 567 96 110 90 75
139 567 97 111 91 74
138 566 98 115 92 74
140 560 96 103 84 68
140 560 97 111 88 73
140 561 96 104 87 75
140 561 97 111 90 77
141 560 96 89 75 65
141 561 96 94 82 75
140 562 96 105 89 78
140 562 97 112 91 77
140 563 96 105 89 79
141 562 96 92 84 81
141 563 96 91 83 81
142 560 96 81 70 61
140 564 96 102 87 79
140 565 96 102 87 78
140 565 97 109 90 76
140 566 96 105 88 77
140 567 96 105 89 78
136 568 97 117 94 74
136 569 97 118 94 75
137 568 97 115 92 73
137 569 97 116 92 74
136 570 97 118 94 74
136 571 97 117 93 73
137 570 97 115 91 74
137 571 97 115 91 72
138 568 97 112 91 72
138 569 97 112 90 72
139 568 96 107 89 76
139 568 97 111 90 73
139 569 96 109 89 73
138 570 96 111 89 71
138 570 97 113 90 73
138 571 96 112 89 71
138 571 97 113 89 72
139 570 96 109 88 70
139 571 96 109 88 70
136 572 96 117 92 72
136 572 97 117 93 72
136 573 96 117 94 74
137 572 96 114 90 71
137 572 97 115 91 71
137 573 96 115 92 73
136 574 96 118 95 76
136 575 96 117 93 74
137 574 96 116 93 75
137 575 96 114 91 73
138 572 96 111 89 70
138 573 96 111 90 71
139 572 96 108 87 69
139 573 96 108 87 70
138 574 96 111 90 72
138 575 96 111 89 71
139 574 96 108 88 71
140 568 96 103 88 78
140 569 96 106 88 74
140 570 96 106 88 75
140 571 96 106 88 74
140 572 96 106 87 73
128 560 126 125 93 71
128 561 126 125 93 71
129 560 126 125 93 71
129 561 126 125 94 71
128 562 126 126 95 73
128 563 126 125 94 71
129 562 126 126 95 73
129 563 126 125 95 72
130 560 126 124 92 70
130 560 127 124 93 70
130 561 126 124 93 71
130 561 127 124 93 70
131 560 127 123 92 69
131 561 127 123 91 69
130 562 126 125 95 72
130 562 127 124 94 71
130 563 126 125 95 72
130 563 127 124 94 71
131 562 127 123 92 68
131 563 127 123 92 69
128 564 125 124 91 70
128 565 125 124 92 70
128 564 126 123 92 69
128 565 126 123 92 70
129 564 126 123 92 69
129 565 126 123 92 70
128 566 125 125 93 72
128 567 125 125 93 72
128 566 126 125 93 72
129 566 126 124 93 71
129 567 126 124 92 71
130 564 126 124 93 70
130 564 127 123 93 69
130 565 126 123 92 69
131 564 127 123 92 69
131 565 127 122 91 68
130 566 126 123 92 70
130 567 126 123 92 71
131 566 126 122 90 69
131 566 127 121 90 68
131 567 126 122 90 70
131 567 127 121 89 69
132 560 127 123 92 71
132 561 127 122 91 69
133 560 127 122 90 71
133 561 127 121 90 70
132 562 127 122 91 69
132 563 127 122 91 68
133 562 127 121 90 70
133 563 127 120 89 69
134 560 127 120 88 70
134 561 127 120 88 70
134 562 127 119 88 69
134 563 127 119 88 68
132 564 127 122 91 69
132 565 127 121 90 69
133 564 127 120 90 68
133 565 127 120 90 70
132 566 127 120 89 69
132 567 127 119 88 68
133 566 127 118 89 69
133 567 127 118 88 69
134 567 127 116 88 69
128 568 125 126 94 73
128 569 125 125 93 72
129 568 126 124 92 70
129 569 126 124 91 71
128 570 125 126 94 73
128 571 125 126 94 73
129 570 126 124 92 72
129 571 126 124 92 71
130 568 126 123 91 71
130 569 126 123 91 71
131 568 126 122 90 70
131 568 127 120 88 68
131 569 126 121 89 70
131 569 127 120 88 69
130 570 126 122 90 70
130 571 126 122 90 70
131 570 126 120 88 69
131 571 126 120 88 69
128 572 125 126 94 73
128 573 125 126 95 73
129 572 126 124 93 72
129 573 126 125 93 72
128 574 125 126 94 72
128 575 125 126 93 71
129 574 126 124 93 70
129 575 126 124 92 69
130 572 126 122 90 70
130 573 126 122 91 70
131 572 126 119 88 68
131 573 126 120 88 69
130 574 126 122 91 70
130 575 126 122 91 69
131 574 126 120 89 69
131 575 126 119 88 68
132 568 127 118 87 68
132 569 127 118 88 69
133 568 127 117 87 70
133 569 127 117 86 69
132 570 127 119 88 70
132 571 126 117 86 67
132 571 127 118 87 68
133 570 127 116 86 69
133 571 127 116 85 67
134 568 127 115 86 69
134 569 127 115 85 69
135 569 127 113 84 68
134 570 127 114 84 67
134 571 127 114 83 67
135 570 127 111 83 66
135 571 127 111 82 65
132 572 126 117 86 67
132 573 126 117 86 67
133 572 126 116 85 67
133 572 127 115 84 66
133 573 126 116 85 66
132 574 126 117 86 67
132 575 126 117 86 67
133 574 126 115 84 66
133 575 126 115 84 66
134 572 127 114 83 66
134 573 126 113 83 65
134 573 127 113 83 66
135 572 127 111 81 66
135 573 127 111 82 66
134 574 126 114 82 64
134 575 126 113 82 64
135 574 126 111 81 64
135 574 127 109 80 65
135 575 126 111 81 65
136 560 127 113 82 67
136 561 127 112 82 66
137 560 127 110 81 65
137 561 127 110 81 65
138 560 127 107 80 63
138 561 127 107 79 63
139 560 126 104 78 61
139 560 127 104 78 63
139 561 127 103 77 62
138 562 127 106 79 62
138 563 127 104 77 61
139 562 127 101 76 58
139 563 127 101 76 58
139 564 127 99 75 57
139 565 127 98 75 57
140 560 126 102 77 61
140 561 126 100 76 60
140 561 127 101 75 58
141 560 126 98 76 60
141 561 126 96 75 60
140 562 126 96 74 58
140 562 127 97 74 57
140 563 127 96 74 57
141 562 126 93 73 59
141 563 126 90 71 58
141 563 127 90 72 58
142 560 125 93 73 58
142 561 125 90 71 60
143 560 124 84 69 62
143 560 125 89 70 60
143 561 125 83 68 61
142 560 126 94 73 59
142 561 126 93 73 59
143 562 125 76 66 63
143 563 125 69 62 65
142 562 126 87 70 60
142 563 126 82 68 60
143 563 126 71 63 64
140 564 127 94 75 58
140 565 127 92 72 56
141 564 126 86 70 59
141 564 127 88 72 60
141 565 127 84 69 58
140 566 127 90 70 56
140 567 127 88 70 58
141 566 127 82 67 56
141 567 127 83 67 56
143 564 125 61 59 68
143 565 125 52 57 71
142 564 126 77 65 61
142 565 126 71 62 62
143 564 126 73 62 62
143 565 126 59 58 67
142 566 126 67 60 62
142 566 127 74 63 60
142 567 126 67 61 63
142 567 127 74 63 60
143 566 126 53 58 72
143 567 126 57 61 75
136 571 127 110 81 65
136 572 127 110 81 66
136 573 127 108 80 65
136 574 127 107 79 64
136 575 126 108 80 65
136 575 127 107 80 65
137 574 127 105 78 63
137 575 127 105 79 64
138 575 127 102 77 62
140 568 127 87 69 58
141 568 127 83 67 56
141 569 127 81 67 58
142 568 127 72 63 61
142 569 127 71 61 59
143 568 126 57 61 76
143 569 126 52 54 73
143 569 127 58 54 67
142 570 127 68 58 61
142 571 127 74 59 58
143 570 127 56 52 69
143 571 127 62 55 66
142 572 127 76 61 56
143 572 127 70 59 60
143 573 127 70 59 57
143 574 127 68 57 56
145 544 99 101 90 83
145 545 99 100 90 83
144 546 99 102 90 83
144 547 99 103 90 82
145 546 98 100 90 85
145 546 99 101 90 84
145 547 98 99 90 84
145 547 99 102 90 83
146 545 97 93 88 87
147 544 96 86 85 88
147 544 97 91 88 89
147 545 96 84 83 85
147 545 97 91 87 87
146 544 98 96 90 86
146 544 99 98 90 84
146 545 98 98 90 86
146 545 99 99 90 85
147 544 98 94 89 87
146 546 97 93 88 85
146 547 97 95 87 84
147 546 96 87 83 84
147 546 97 91 85 83
147 547 96 90 87 87
147 547 97 92 87 85
146 546 98 97 90 87
146 547 98 97 89 84
144 544 100 103 88 78
144 544 101 105 87 76
144 545 100 104 88 79
145 544 100 101 89 81
145 545 100 102 90 82
144 546 100 104 89 79
144 547 100 105 90 82
145 549 97 103 93 87
144 548 99 104 89 80
144 549 98 105 89 81
144 549 99 105 88 80
145 548 98 100 90 82
145 549 98 102 91 84
145 550 97 102 92 86
145 551 97 102 90 80
144 550 98 105 91 82
144 550 99 106 87 79
144 551 98 106 90 80
144 551 99 106 87 78
145 550 98 104 93 84
145 551 98 105 92 81
146 548 97 98 91 87
146 549 97 100 93 89
147 548 96 95 90 90
147 549 96 94 90 88
146 550 96 97 90 86
146 550 97 100 92 86
146 551 96 99 91 88
146 551 97 100 90 82
147 550 96 90 87 86
148 544 96 86 85 88
148 545 96 84 83 85
144 552 97 105 91 81
144 553 97 106 93 84
145 552 97 103 92 84
145 553 96 92 84 80
145 553 97 102 93 86
144 552 98 105 90 80
144 553 98 106 91 81
144 554 97 103 90 81
144 555 96 93 78 69
144 555 97 100 87 76
145 554 96 85 74 68
145 554 97 96 84 76
145 555 96 81 63 57
146 552 96 97 91 88
146 553 96 91 85 82
144 556 96 80 57 46
144 557 96 77 51 42
151 551 119 79 82 96
145 544 123 101 79 67
146 544 123 99 77 65
146 545 123 97 78 65
147 544 122 94 77 65
147 545 122 92 75 64
147 545 123 92 76 65
146 546 123 97 76 65
146 547 123 95 76 66
147 546 122 89 75 68
147 546 123 91 76 69
147 547 122 87 74 69
147 547 123 90 76 73
144 544 124 102 79 66
144 544 125 104 80 66
144 545 124 102 78 66
144 545 125 104 79 67
145 544 124 101 79 66
145 545 124 100 79 66
144 546 124 104 78 66
144 546 125 106 79 66
144 547 124 104 78 67
144 547 125 106 79 65
145 546 124 101 77 66
145 547 124 100 77 66
146 548 123 95 75 66
146 549 123 95 75 66
147 548 122 89 75 69
147 548 123 91 77 71
147 549 122 88 76 72
147 549 123 91 76 70
146 550 123 94 74 68
146 551 123 93 73 67
147 550 122 86 74 73
147 550 123 89 74 72
147 551 122 86 73 74
147 551 123 88 72 71
144 548 124 100 78 65
144 548 125 102 77 64
144 549 124 100 76 65
144 549 125 102 76 63
145 548 124 97 77 66
145 549 124 97 76 67
144 550 124 100 75 66
144 550 125 102 77 65
144 551 124 100 76 66
144 551 125 102 77 65
145 550 124 97 75 68
145 551 124 96 75 67
148 544 121 88 74 66
148 545 121 87 73 66
149 544 121 79 69 72
149 545 121 79 71 74
148 545 122 88 74 66
148 546 121 83 73 71
149 546 121 79 77 87
149 547 121 81 75 81
148 546 122 84 72 67
148 547 122 85 74 72
150 544 121 73 74 94
150 545 121 74 78 101
151 544 121 78 86 111
151 545 121 74 86 111
150 546 121 75 79 104
150 547 121 74 80 106
151 546 121 68 82 110
151 547 121 70 82 110
149 548 121 78 73 84
149 549 121 82 77 83
148 548 122 86 76 76
148 549 122 84 76 75
149 548 122 82 74 78
149 549 122 80 74 78
149 550 121 81 77 81
149 551 121 81 73 78
148 550 122 83 75 76
148 551 122 83 73 76
150 548 121 75 78 96
150 549 121 80 79 90
151 548 121 78 87 109
151 549 120 82 91 110
150 550 120 78 78 87
150 550 121 81 79 86
150 551 120 78 75 81
150 551 121 79 75 83
151 550 120 78 83 96
151 551 120 77 76 83
150 553 119 68 68 80
151 552 119 75 76 90
151 553 118 61 62 83
151 553 119 65 66 83
150 554 119 68 71 85
150 555 119 63 67 83
151 554 118 64 66 85
151 554 119 63 64 79
151 555 118 65 72 91
149 558 119 58 69 92
151 556 117 64 77 100
151 557 117 55 68 91
150 556 118 56 67 87
150 556 119 57 64 80
150 557 118 52 67 90
150 557 119 53 65 86
151 556 118 65 75 97
151 557 118 55 68 91
151 558 117 54 72 99
151 559 117 55 73 99
150 558 118 44 69 98
150 558 119 47 67 96
150 559 118 41 67 99
150 559 119 41 65 98
151 558 118 57 74 99
151 559 118 55 76 103
145 553 123 93 73 65
144 555 123 89 72 62
145 554 123 89 72 64
145 555 123 87 72 63
146 552 123 91 72 68
146 553 122 84 71 67
146 553 123 89 72 67
147 552 122 86 71 71
147 552 123 89 71 69
147 553 122 83 71 69
147 553 123 86 69 68
147 554 121 74 69 72
147 555 121 71 68 72
146 554 122 85 73 66
146 554 123 86 72 66
146 555 122 83 71 66
146 555 123 83 71 66
147 554 122 77 69 69
147 555 122 78 69 69
144 552 124 100 76 64
144 553 124 97 76 63
145 552 124 96 75 66
145 553 124 94 75 64
144 554 124 95 75 64
144 555 124 94 75 66
145 554 124 93 74 63
145 556 123 86 71 62
145 557 123 82 68 63
145 558 123 78 68 64
145 559 123 75 68 66
147 556 121 70 65 70
147 557 121 64 62 72
146 556 122 77 67 68
146 556 123 82 69 65
146 557 122 72 63 69
146 557 123 77 66 66
147 556 122 74 66 67
147 557 122 68 63 69
147 558 121 57 61 76
147 559 121 55 63 81
146 558 122 68 64 71
146 558 123 71 64 67
146 559 122 67 65 72
146 559 123 71 68 71
147 558 122 61 61 73
147 559 122 58 64 78
144 556 124 90 72 64
144 557 124 89 72 63
144 558 124 84 70 64
144 559 124 81 70 63
148 552 121 81 71 76
148 553 121 79 71 74
149 552 120 80 74 80
149 552 121 80 72 78
149 553 120 73 68 75
149 553 121 76 69 77
148 552 122 81 69 75
148 554 121 72 66 69
148 555 120 70 68 74
148 555 121 71 66 69
149 554 120 69 67 77
149 555 120 68 65 71
150 552 120 74 72 80
150 553 120 73 70 78
151 552 120 78 77 85
150 554 120 67 68 80
148 556 120 63 65 75
148 556 121 66 65 74
148 557 120 64 69 82
148 557 121 61 63 77
149 556 120 62 62 72
149 557 120 62 69 85
148 558 120 57 65 85
148 558 121 57 61 80
148 559 120 59 66 85
148 559 121 57 64 81
149 558 120 54 66 89
149 559 120 58 68 89
152 550 119 70 82 102
152 551 118 74 87 107
152 551 119 78 89 107
153 551 119 85 97 116
152 544 121 81 96 122
152 545 121 79 96 122
152 544 122 81 96 121
152 544 123 81 94 118
152 545 122 80 98 124
152 545 123 82 99 123
153 545 123 77 94 121
152 546 121 67 87 118
152 547 121 62 83 114
152 546 122 61 83 117
152 547 122 60 83 114
153 546 123 60 81 116
153 547 122 63 83 114
153 547 123 66 84 114
152 544 124 81 92 117
153 544 124 83 95 118
153 544 125 87 97 117
153 545 124 76 92 117
153 545 125 81 95 117
153 544 126 87 102 123
153 544 127 88 107 129
153 545 126 79 99 122
153 545 127 79 103 128
153 546 124 66 84 115
153 546 125 69 87 115
153 547 124 70 85 113
153 547 125 78 93 119
153 546 126 67 91 119
153 546 127 66 94 124
153 547 126 78 98 124
154 546 127 69 96 127
154 547 126 85 105 127
154 547 127 78 104 129
152 548 120 80 91 112
152 548 121 78 94 116
152 549 120 80 91 112
153 548 121 93 103 121
153 549 120 69 83 103
153 549 121 78 89 110
152 548 122 73 91 113
153 548 122 87 100 118
153 548 123 87 99 118
153 549 122 78 89 110
153 549 123 78 90 111
152 550 120 71 85 105
153 550 120 81 93 112
153 550 121 81 92 110
153 551 120 94 103 121
154 550 120 90 100 118
154 550 121 94 102 121
154 551 120 78 90 115
154 551 121 76 89 114
154 550 122 92 100 118
154 550 123 95 103 122
154 551 122 75 89 113
154 551 123 76 91 116
153 548 124 94 104 120
153 548 125 101 110 127
153 549 124 84 95 115
153 548 126 97 112 131
154 548 125 105 115 132
154 549 124 83 94 115
154 549 125 89 101 122
154 548 126 109 121 140
154 548 127 105 123 145
154 549 126 87 106 130
154 549 127 78 104 133
154 550 124 99 108 128
154 550 125 99 111 135
154 551 124 78 94 119
154 551 125 78 96 124
154 550 126 98 115 142
154 550 127 89 110 141
154 551 126 72 97 130
154 551 127 59 88 129
152 553 117 68 76 99
153 553 117 61 75 100
152 552 118 67 76 99
152 552 119 80 84 99
152 553 118 69 75 96
153 552 118 58 76 102
152 554 117 63 70 96
152 555 117 61 72 98
153 554 117 69 79 106
153 555 116 60 72 105
154 553 117 71 85 107
155 553 117 80 92 113
154 552 118 66 83 106
154 552 119 58 76 103
154 553 118 72 86 108
155 552 119 72 85 109
155 553 118 79 92 112
155 553 119 76 89 110
154 554 117 77 89 111
154 555 116 67 79 110
155 554 117 85 95 115
155 555 116 66 79 110
155 555 117 71 83 110
155 554 118 88 98 117
153 559 115 56 75 107
154 558 115 67 84 113
154 559 115 65 82 113
155 558 115 73 89 115
155 559 115 71 87 114
152 556 116 59 72 101
152 556 117 68 78 103
152 557 116 60 75 102
152 557 117 54 70 95
153 556 116 71 81 112
153 557 116 66 79 108
152 558 116 53 71 100
152 559 116 49 71 100
153 558 116 59 76 106
153 559 116 54 74 104
154 556 116 79 89 118
154 557 116 72 85 113
155 556 116 87 98 123
155 557 116 69 86 110
154 558 116 63 79 109
155 558 116 74 91 113
155 559 116 73 91 112
156 553 119 83 96 116
156 554 117 68 82 106
156 555 117 73 86 110
156 554 118 70 83 106
156 554 119 72 85 107
156 555 118 76 86 108
157 555 118 85 92 115
157 555 119 82 91 111
156 559 115 71 88 112
156 556 117 89 98 122
156 557 117 60 79 104
156 557 118 60 78 103
156 557 119 74 91 111
157 556 118 85 92 117
157 556 119 81 91 114
157 557 118 58 73 104
157 557 119 62 80 107
156 558 116 80 96 114
156 558 117 79 94 111
156 559 116 68 87 109
156 559 117 62 83 105
156 558 118 79 94 110
156 558 119 74 92 109
156 559 118 57 81 104
156 559 119 56 81 104
154 552 120 50 69 102
154 552 121 46 68 103
155 552 120 69 84 111
155 552 121 67 83 113
155 553 120 77 91 114
155 553 121 79 96 120
154 552 122 48 70 105
154 552 123 62 84 115
155 552 122 68 87 117
155 552 123 75 95 123
155 553 122 81 99 123
155 553 123 81 100 127
155 554 122 79 98 122
155 554 123 81 101 126
155 555 123 82 100 124
154 552 124 68 90 117
154 552 125 70 92 120
154 553 124 82 103 129
154 553 125 84 105 132
155 553 124 82 103 130
154 552 126 61 90 125
154 552 127 44 79 123
154 553 126 60 91 129
154 553 127 42 79 123
155 553 127 35 72 118
154 554 124 81 101 128
154 554 125 73 98 129
154 555 125 47 79 118
155 554 124 78 99 126
155 555 124 78 98 125
155 555 125 59 89 120
154 554 126 50 84 123
155 554 127 29 70 116
155 555 126 37 74 115
155 555 127 37 71 114
155 556 123 81 99 121
155 557 123 69 91 117
155 558 123 63 87 115
155 559 123 43 76 106
155 556 124 76 96 121
155 556 125 47 77 112
155 557 124 53 81 109
155 557 125 37 72 107
155 556 126 28 66 105
155 556 127 22 60 102
155 557 126 28 66 105
155 557 127 22 58 103
155 558 124 53 80 110
155 558 125 37 67 104
155 559 124 35 67 104
155 559 125 22 55 96
155 558 126 29 62 103
155 558 127 26 59 102
155 559 126 18 51 94
155 559 127 14 50 94
156 553 120 83 97 118
156 553 121 83 99 120
156 554 120 70 85 108
156 554 121 70 89 111
156 555 120 90 100 113
156 555 121 88 101 117
157 555 120 88 97 113
156 554 122 70 91 115
156 555 122 81 98 119
156 556 120 82 96 114
156 556 121 85 99 116
156 557 120 74 93 114
156 557 121 74 94 114
157 556 120 79 91 109
157 557 120 63 83 108
156 556 122 75 93 115
156 557 122 78 97 118
156 557 123 74 95 118
156 558 120 74 94 113
156 558 121 79 99 119
156 559 120 60 85 109
156 559 121 61 88 111
156 558 122 72 92 115
156 558 123 70 90 116
156 559 122 56 84 109
156 559 123 45 78 106
156 559 127 13 47 93
155 572 111 28 53 89
155 573 111 29 52 88
154 575 111 32 51 87
155 574 111 31 51 87
155 575 111 32 51 87
156 571 111 27 54 89
156 572 111 26 53 88
156 573 111 30 52 87
157 573 111 34 54 89
156 574 111 31 51 87
156 575 111 33 51 87
157 574 111 34 53 88
157 575 111 34 51 88
158 574 111 38 54 89
158 575 111 35 51 88
151 560 117 60 78 104
151 561 116 55 73 101
151 561 117 57 74 101
150 560 118 55 74 103
150 560 119 47 68 100
150 561 118 56 70 95
150 561 119 51 70 101
151 560 118 61 78 101
151 561 118 51 70 98
151 562 116 44 66 101
151 562 117 44 65 98
151 563 116 38 59 101
151 563 117 41 59 98
150 562 118 49 64 93
150 562 119 40 61 97
150 563 118 41 59 96
150 563 119 39 59 94
151 562 118 48 65 95
151 563 118 39 58 97
151 564 116 39 59 100
151 564 117 42 60 97
151 565 116 47 63 100
151 565 117 45 62 98
150 564 118 40 59 95
150 564 119 43 60 93
150 565 118 42 60 95
150 565 119 43 61 94
151 564 118 40 59 96
151 565 118 42 60 95
151 566 117 48 60 96
151 567 116 48 59 96
151 567 117 47 60 96
150 566 119 44 61 95
150 567 119 40 60 94
151 566 118 45 60 96
151 566 119 43 60 95
151 567 118 42 59 95
151 567 119 42 60 95
145 560 123 72 66 69
145 561 123 68 62 70
145 562 123 59 57 70
147 560 121 55 65 85
147 561 121 51 59 82
146 560 123 67 65 73
146 561 123 61 59 76
147 560 122 61 66 82
147 561 122 51 62 88
147 562 121 47 56 81
146 562 123 56 56 76
146 563 123 51 58 78
147 562 122 48 54 82
147 563 122 49 57 79
147 563 123 51 59 79
144 560 124 78 68 65
144 561 124 74 64 66
145 560 124 76 68 67
145 561 124 69 63 69
144 562 124 70 62 67
144 562 125 69 62 66
144 563 124 63 61 71
144 563 125 58 59 71
145 562 124 66 61 71
145 563 124 60 59 72
146 564 123 51 59 81
146 565 123 55 62 87
147 564 122 34 56 84
147 564 123 51 60 81
147 565 122 39 62 94
147 565 123 44 64 94
146 566 123 46 65 94
147 566 122 48 62 92
147 566 123 43 63 94
147 567 122 37 61 94
147 567 123 36 61 95
144 564 124 62 59 69
144 564 125 57 59 72
144 565 125 53 58 74
145 564 124 53 58 77
145 565 124 50 58 80
144 566 125 51 60 79
144 567 125 49 63 85
145 566 124 47 61 86
145 566 125 52 62 83
145 567 125 43 61 88
144 567 126 54 61 78
146 565 124 43 60 86
146 566 124 44 62 90
146 567 124 40 61 91
148 560 120 55 62 81
148 560 121 54 61 81
148 561 121 46 58 82
149 560 120 59 67 89
149 561 120 48 66 97
148 562 121 36 56 85
148 563 121 31 56 90
149 562 120 32 58 98
149 563 120 29 56 95
148 564 121 42 66 101
148 565 121 50 64 95
149 564 120 44 62 95
149 565 120 46 62 94
149 565 121 48 63 94
148 564 122 40 62 93
148 565 122 51 63 93
148 566 121 45 62 94
149 566 120 43 62 95
149 566 121 44 62 94
149 567 120 36 65 99
149 567 121 35 63 97
148 566 122 46 62 93
148 567 122 39 63 95
148 567 123 35 61 94
150 565 120 45 61 94
150 566 120 43 61 95
150 567 120 39 59 94
151 568 117 41 59 95
151 569 117 39 59 94
150 568 119 38 59 94
151 568 118 40 59 95
151 568 119 38 59 94
151 569 118 38 58 94
151 569 119 36 58 94
151 570 117 38 58 94
151 570 118 36 57 93
151 570 119 34 57 94
147 568 123 28 56 91
147 569 123 28 56 91
145 568 125 41 59 87
145 569 125 31 52 85
144 568 126 47 58 82
144 569 126 39 52 80
145 569 126 32 50 85
145 570 125 36 55 85
145 571 125 42 58 87
144 570 126 45 48 76
144 571 126 53 55 75
144 571 127 57 55 71
145 570 126 40 51 80
145 571 126 56 62 81
146 568 124 31 58 92
146 568 125 35 56 88
146 569 124 26 53 89
146 569 125 29 54 89
147 568 124 27 53 90
147 569 124 32 57 89
146 570 124 42 62 91
146 570 125 44 64 92
146 571 125 39 62 89
147 570 124 41 63 94
147 571 124 41 67 93
147 571 125 37 60 89
146 571 126 49 64 89
144 572 127 62 55 65
144 573 127 64 56 59
145 572 126 51 58 75
145 572 127 51 55 73
145 573 126 53 58 72
145 573 127 60 56 64
144 574 127 65 57 58
144 575 127 65 57 55
145 574 126 57 58 67
145 574 127 61 56 61
145 575 126 57 57 64
145 575 127 60 54 55
146 573 125 40 60 83
147 572 125 36 62 89
147 573 125 36 63 90
146 572 126 43 57 79
146 573 126 44 58 77
146 574 125 47 61 82
147 574 125 42 59 85
147 575 125 32 52 86
146 574 126 52 61 76
146 575 126 47 54 68
149 568 121 26 57 93
149 569 121 27 59 92
148 568 122 24 56 92
148 568 123 20 55 89
148 569 122 33 59 95
148 569 123 28 55 92
149 568 122 25 57 93
149 569 122 28 57 92
148 570 123 39 64 94
149 570 122 29 58 88
149 570 123 28 57 88
149 571 123 28 57 87
150 568 120 34 58 94
150 568 121 30 57 92
150 569 120 31 58 93
150 569 121 27 56 92
151 569 120 34 58 94
150 570 121 27 55 91
151 570 120 32 56 92
151 570 121 27 54 90
151 571 121 28 47 82
150 570 122 27 55 88
150 571 122 26 52 85
150 571 123 25 51 85
151 571 122 25 47 84
151 571 123 36 52 87
148 570 124 43 66 95
148 571 124 33 61 89
148 571 125 31 56 87
149 571 124 25 53 85
148 572 125 30 58 88
148 573 125 36 61 91
149 572 124 34 57 92
149 572 125 35 58 92
149 573 124 38 58 93
149 573 125 40 61 94
148 574 125 36 59 94
148 575 125 33 55 91
149 574 125 36 54 95
149 575 125 34 53 92
150 572 124 37 55 90
150 572 125 40 59 92
150 573 125 36 53 91
151 572 124 38 54 88
151 572 125 38 51 85
151 573 125 30 48 83
150 574 125 39 55 96
150 575 125 34 52 89
151 574 125 23 48 83
151 575 125 24 46 77
151 575 126 15 38 67
152 561 115 62 80 107
153 560 115 50 73 104
153 561 114 55 77 112
153 561 115 53 76 109
152 562 115 51 71 108
152 563 115 41 63 106
153 562 114 48 70 111
153 563 114 37 62 107
154 560 114 56 78 109
154 560 115 55 76 107
154 561 114 59 79 113
155 560 114 62 82 112
155 560 115 64 83 111
155 561 114 63 81 114
154 562 113 43 66 110
154 563 113 39 63 107
155 563 113 41 64 108
154 562 114 48 69 111
154 563 114 40 63 108
155 562 114 52 73 111
155 563 114 37 60 106
152 560 116 55 76 104
152 561 116 58 76 104
152 562 116 51 69 104
152 563 116 44 63 104
153 565 113 56 72 103
152 564 115 44 63 104
152 565 115 57 72 102
153 564 114 47 67 106
153 565 114 55 72 104
153 566 113 52 70 101
153 567 113 54 71 102
152 566 115 52 67 99
152 567 114 54 66 102
152 567 115 56 67 102
153 566 114 52 68 100
153 567 114 55 68 103
154 564 113 50 70 106
154 565 113 50 69 101
155 564 113 33 60 105
155 565 113 49 69 102
154 566 113 54 73 103
154 567 113 53 73 103
155 566 113 52 73 103
155 567 113 48 73 102
152 564 116 36 57 102
152 565 116 48 65 102
152 566 116 51 64 98
152 567 116 51 63 99
156 560 115 67 84 108
156 561 114 66 82 115
156 561 115 66 83 112
156 562 114 48 69 109
156 562 115 45 68 106
156 563 114 31 57 103
156 563 115 27 55 100
156 560 116 65 84 108
156 560 117 67 83 109
156 561 116 64 80 109
156 561 117 58 75 107
156 560 118 67 84 112
156 560 119 68 85 112
156 561 118 56 71 108
156 561 119 52 69 108
156 562 116 43 65 103
156 562 117 30 56 100
156 563 116 24 53 99
156 563 117 20 49 96
157 563 116 21 50 97
157 563 117 11 42 95
156 562 118 28 50 100
156 562 119 27 50 100
156 563 118 14 44 96
156 563 119 11 44 96
156 565 113 46 68 103
156 564 114 22 52 101
156 564 115 26 52 100
156 565 114 42 66 98
156 565 115 50 69 99
156 566 113 51 74 103
156 567 113 47 73 102
156 566 114 46 70 98
156 566 115 46 68 94
156 567 114 49 73 100
157 567 114 48 69 97
157 567 115 52 70 97
156 564 116 28 51 99
156 565 116 55 71 100
157 564 116 24 50 98
157 564 117 31 56 99
157 565 116 56 73 98
157 565 117 57 72 98
156 564 118 35 62 100
156 564 119 29 61 98
156 565 118 60 76 98
156 565 119 61 79 100
157 564 118 23 54 97
157 566 116 47 68 91
157 566 117 52 70 89
157 567 116 52 69 94
157 567 117 49 65 89
156 566 118 53 69 87
156 566 119 53 69 85
156 567 118 44 61 84
156 567 119 47 64 85
157 567 118 45 62 86
155 560 123 41 70 103
155 561 123 33 59 97
155 562 123 20 53 97
155 560 124 23 58 98
155 560 125 26 59 95
155 561 124 17 49 90
155 561 125 17 46 88
155 560 126 24 53 94
155 560 127 19 48 91
155 562 124 15 46 87
155 562 125 14 41 83
155 563 124 15 42 87
155 563 125 20 43 85
155 564 124 15 35 84
156 560 120 73 91 119
156 560 121 76 95 121
156 561 120 52 73 113
156 561 121 55 77 115
156 560 122 69 90 118
156 560 123 55 79 108
156 561 122 48 72 112
156 561 123 41 65 105
156 562 120 20 53 102
156 562 121 17 53 103
156 563 120 11 47 97
156 563 121 15 50 99
156 562 122 24 56 103
156 562 123 19 51 98
156 563 122 16 49 99
156 563 123 17 49 94
156 560 126 23 49 93
156 560 127 19 43 92
156 561 126 17 45 89
156 561 127 20 44 91
156 562 125 16 42 83
156 563 124 13 40 88
156 563 125 19 40 85
156 562 126 15 41 85
156 562 127 16 41 88
156 563 126 20 40 85
156 563 127 16 39 86
156 564 120 40 67 101
156 564 121 39 66 102
156 565 120 60 80 100
156 565 121 61 81 100
156 564 122 24 56 98
156 564 123 16 51 93
156 565 122 56 79 98
156 565 123 48 74 96
156 566 120 50 69 86
156 566 121 46 69 88
156 567 120 41 63 84
156 567 121 44 67 89
156 566 122 52 76 94
156 566 123 60 84 103
156 567 122 44 71 93
156 567 123 54 82 104
156 564 124 19 42 88
156 564 125 20 37 85
156 565 124 33 60 89
156 565 125 18 41 81
156 564 126 21 37 84
156 564 127 18 40 85
156 565 126 24 41 81
156 565 127 23 44 83
157 565 127 21 42 85
156 566 124 54 79 99
156 566 125 34 60 87
156 567 124 57 84 106
156 567 125 45 74 99
156 566 126 25 48 81
156 566 127 22 38 79
156 567 126 31 53 87
156 567 127 32 40 78
157 566 127 21 35 78
157 567 127 26 35 72
153 568 113 52 71 101
153 569 113 42 65 97
152 568 114 51 68 101
152 568 115 48 66 100
152 569 114 43 64 97
152 569 115 43 64 97
153 568 114 51 69 101
153 569 114 48 68 100
153 570 113 36 59 94
153 571 113 31 55 90
152 570 114 39 61 95
152 570 115 39 60 94
152 571 114 35 56 92
152 571 115 36 58 93
153 571 114 33 56 91
154 568 112 50 72 101
154 568 113 50 72 102
154 569 112 32 59 95
154 569 113 45 68 99
155 568 112 47 71 100
155 569 112 35 62 97
154 570 112 34 59 93
154 571 112 30 55 91
155 570 112 35 59 95
155 571 112 29 55 90
152 568 116 43 62 97
152 569 116 41 61 95
152 569 117 40 60 94
152 570 116 39 58 93
152 570 117 37 58 93
152 571 116 36 56 92
152 571 117 36 56 92
152 571 118 35 56 93
152 571 119 34 54 92
153 572 113 32 54 90
153 573 113 32 53 89
152 572 114 33 54 90
152 572 115 35 54 90
152 573 115 34 53 90
153 572 114 32 54 90
153 573 114 32 53 89
153 573 115 34 52 89
153 574 113 32 52 88
153 575 113 32 51 88
153 574 114 33 52 89
153 574 115 34 52 89
153 575 114 33 51 88
153 575 115 34 50 88
154 572 112 30 53 89
154 572 113 30 54 90
154 573 112 31 52 89
155 572 112 29 53 89
155 573 112 29 53 88
154 574 112 32 52 88
154 575 112 32 51 88
154 575 113 32 51 88
154 575 115 34 50 88
152 572 116 35 54 91
152 572 117 35 54 91
152 573 116 35 53 90
152 573 117 35 53 90
153 573 116 34 52 90
153 573 117 35 52 89
152 572 118 35 53 90
152 572 119 36 52 90
152 573 118 35 52 90
153 572 119 36 49 89
153 573 118 35 51 89
153 573 119 36 50 89
153 574 116 34 51 89
153 574 117 35 51 89
153 575 116 34 50 88
155 573 117 35 47 86
154 572 119 34 46 87
154 573 118 35 49 87
154 573 119 35 49 88
155 572 119 33 43 85
155 573 118 35 45 85
154 574 117 35 50 88
154 575 116 34 50 88
154 575 117 35 49 87
155 574 117 35 48 86
155 575 116 35 48 87
154 574 118 35 48 87
156 568 112 44 69 101
156 568 113 40 69 101
156 569 112 33 61 97
156 569 113 34 65 102
157 568 113 37 63 98
157 569 112 18 53 96
157 569 113 30 58 98
157 568 114 42 64 98
157 568 115 44 63 94
157 569 114 35 58 93
157 569 115 35 55 89
156 570 112 33 58 94
156 571 112 25 52 90
157 570 112 24 53 94
157 570 113 23 54 92
157 571 112 30 53 91
157 571 113 27 54 93
157 570 114 27 55 85
158 569 115 40 60 86
158 571 113 34 52 86
158 570 114 28 55 84
158 570 115 31 54 81
158 571 114 34 52 82
158 571 115 38 52 80
157 568 116 45 62 91
157 568 117 47 60 87
157 569 116 37 53 84
157 569 117 38 53 80
156 568 119 34 53 82
156 569 119 32 48 75
157 568 118 41 56 85
157 569 118 40 53 79
157 569 119 33 49 76
157 570 116 20 45 72
157 570 117 26 45 73
157 571 117 37 46 78
156 570 119 31 43 72
156 571 118 32 37 80
156 571 119 33 38 79
157 570 118 36 48 78
157 570 119 29 44 71
157 571 118 38 45 81
158 569 116 40 58 87
158 570 116 21 48 74
158 571 116 35 49 76
157 572 112 33 52 89
157 573 112 37 54 89
157 575 115 36 47 86
158 572 112 34 50 89
158 572 113 35 49 86
158 573 112 39 52 90
158 573 113 36 47 88
158 572 114 32 46 78
158 572 115 34 44 81
158 573 114 37 47 87
158 573 115 36 45 86
158 574 112 36 50 88
158 574 113 39 48 87
158 575 112 36 50 87
158 575 113 37 48 87
159 574 112 37 46 86
159 575 112 37 48 86
158 574 114 38 47 87
158 574 115 36 46 86
158 575 114 37 47 87
158 575 115 36 47 86
156 573 117 36 46 85
157 572 117 37 45 82
157 573 116 37 46 85
157 573 117 37 46 85
156 572 118 35 42 83
156 572 119 34 42 83
156 573 118 36 45 84
157 572 118 36 43 82
156 574 116 36 47 86
156 574 117 36 47 86
156 575 116 35 47 86
157 574 116 36 46 85
157 575 116 35 47 86
158 572 116 34 44 79
158 573 116 36 45 85
158 574 116 36 46 86
152 571 120 33 49 89
152 571 121 32 46 84
153 571 120 35 46 89
153 571 121 36 46 88
152 571 122 31 48 87
152 571 123 40 56 89
153 571 122 42 50 87
153 571 123 46 58 90
155 569 123 35 51 77
154 571 121 37 43 84
155 570 121 39 44 78
155 571 120 34 39 82
155 571 121 37 43 82
154 571 122 40 46 84
154 571 123 47 53 88
155 570 122 40 43 83
155 570 123 42 46 83
155 571 122 38 39 82
155 571 123 41 47 86
152 571 124 38 51 86
153 571 124 48 55 89
153 571 125 39 49 86
153 571 126 33 41 79
155 569 124 37 61 88
155 569 125 35 60 94
155 569 126 37 55 89
155 569 127 33 49 81
154 570 124 41 43 86
154 570 125 40 46 84
154 571 124 49 55 92
154 571 125 35 44 82
155 570 124 43 46 87
155 570 125 46 55 90
154 570 126 40 49 85
154 571 126 39 41 79
154 571 127 39 41 76
155 570 126 40 48 85
155 570 127 29 43 80
153 572 120 34 46 88
154 572 120 35 44 87
155 572 120 37 42 84
152 572 124 37 50 85
152 572 125 35 45 82
152 573 125 16 35 73
153 572 125 36 44 82
152 573 126 28 34 72
152 573 127 28 29 65
153 572 126 31 35 76
153 572 127 33 37 70
153 573 127 29 30 68
152 574 126 20 35 66
152 574 127 24 27 60
152 575 126 18 38 66
152 575 127 20 32 60
156 568 120 35 55 83
156 568 121 28 54 84
156 569 120 37 49 78
156 569 121 34 48 76
156 568 122 37 63 90
156 568 123 45 74 99
156 569 122 31 49 77
156 569 123 32 56 82
156 570 120 28 41 70
156 570 121 34 43 73
156 571 120 35 39 80
156 571 121 34 39 78
156 570 122 36 45 74
156 568 124 52 83 108
156 568 125 47 77 104
156 568 126 40 62 94
156 568 127 33 42 77
156 569 126 42 67 96
156 569 127 32 47 80
