ply
format ascii 1.0
comment Version 2, Copyright 2017, 8i Labs, Inc.
comment frame_to_world_scale 0.179523
comment frame_to_world_translation -45.2095 7.18301 -54.3561
comment width 1023
element vertex 1315
property float x
property float y
property float z
property uchar red
property uchar green
property uchar blue
end_header
133 608 127 104 78 60
134 608 127 103 77 59
134 609 127 102 76 59
135 608 127 101 76 59
135 609 127 100 75 59
134 610 127 102 76 59
134 611 127 101 77 59
135 610 127 100 76 59
135 611 127 100 76 59
134 612 127 101 77 59
134 613 127 101 77 60
135 612 127 100 77 60
135 613 127 100 77 60
135 614 127 98 76 58
135 615 127 98 77 58
135 616 127 98 77 58
136 608 126 98 74 59
136 608 127 99 74 59
136 609 126 98 74 59
136 609 127 99 75 59
137 608 126 98 75 59
137 609 126 97 75 59
136 610 126 98 75 59
136 610 127 99 75 59
136 611 126 98 75 59
136 611 127 99 76 59
137 610 126 97 75 59
137 611 126 96 75 59
138 609 125 93 73 59
139 608 125 91 73 59
139 609 125 91 73 58
138 608 126 94 74 59
138 609 126 95 74 59
138 610 125 93 73 58
138 611 125 92 73 58
139 610 125 90 72 57
139 611 125 91 72 57
138 610 126 95 74 59
138 611 126 94 74 59
136 612 127 99 77 60
136 613 127 98 76 60
137 612 126 96 75 59
137 613 126 96 75 59
137 613 127 96 75 59
136 614 127 97 76 59
136 615 127 97 76 58
137 614 126 95 75 59
137 614 127 96 75 59
137 615 126 94 74 58
137 615 127 95 74 57
138 612 125 92 73 58
139 612 125 91 73 58
139 613 125 90 72 58
138 612 126 93 73 58
138 613 126 94 74 58
139 613 126 90 72 58
138 614 126 94 74 59
138 615 126 93 73 58
139 614 126 90 72 58
139 615 126 90 72 58
143 608 121 72 60 52
142 608 123 81 67 56
143 608 122 75 62 54
143 608 123 76 64 55
143 609 123 78 66 57
140 608 124 87 70 59
140 608 125 89 71 60
140 609 124 88 71 59
140 609 125 89 72 59
141 608 124 84 69 57
141 609 124 84 69 58
141 609 125 85 69 58
140 610 125 88 71 59
140 611 124 87 70 57
140 611 125 88 71 58
141 610 124 83 68 57
141 610 125 85 70 58
141 611 125 85 69 57
142 608 124 82 67 55
142 609 124 80 66 56
143 609 124 77 64 57
142 610 125 81 67 57
142 611 125 82 67 57
143 610 124 78 65 57
143 610 125 79 66 57
143 611 124 76 64 56
143 611 125 80 66 57
140 612 124 88 71 58
140 612 125 88 71 58
140 613 125 87 71 58
141 612 124 86 70 58
141 612 125 84 69 57
141 613 125 84 69 58
141 613 126 84 69 58
141 613 127 84 68 57
141 614 125 83 68 57
140 614 126 87 70 58
140 615 126 86 70 59
141 614 126 84 68 58
141 615 126 83 68 58
142 612 125 81 67 57
142 613 125 81 67 57
143 612 125 78 65 57
143 613 125 77 64 56
142 614 125 80 66 57
143 614 125 77 64 56
142 614 126 79 66 56
142 615 126 80 66 56
143 614 126 78 64 56
143 615 126 77 64 55
136 616 127 96 76 57
136 617 127 96 75 58
137 616 127 94 74 57
137 617 127 94 74 58
136 618 127 95 75 59
136 619 127 95 75 59
137 618 127 94 74 59
137 619 127 93 74 59
138 616 126 92 73 57
138 617 126 91 72 58
138 617 127 92 73 59
139 616 126 89 71 58
139 617 126 89 71 59
138 618 126 91 72 58
138 618 127 91 73 59
138 619 127 91 73 59
139 618 126 88 71 59
139 618 127 87 70 58
139 619 127 87 70 58
137 620 127 93 73 59
137 621 127 93 74 60
137 622 127 92 73 60
137 623 127 92 73 59
138 620 127 90 72 59
138 621 127 90 72 60
139 620 127 87 70 59
139 621 127 87 70 60
138 622 127 90 73 60
138 623 127 90 73 60
139 622 127 87 71 60
139 623 127 87 71 60
140 616 126 86 69 58
140 617 126 86 69 58
140 617 127 84 69 58
141 616 126 84 67 57
141 616 127 83 67 57
141 617 127 82 67 57
140 618 127 84 68 58
140 619 127 83 67 56
141 618 127 82 67 56
141 619 127 82 66 55
142 616 127 80 65 55
142 617 127 79 64 55
143 616 127 76 62 54
143 617 127 76 62 54
142 618 127 80 65 55
140 620 127 84 68 57
140 621 127 84 68 58
140 622 127 84 69 59
140 623 127 83 68 58
135 629 127 95 74 60
135 630 127 95 74 60
135 631 127 95 74 60
135 632 127 95 74 60
135 633 127 95 75 61
135 635 127 94 74 62
135 636 127 94 75 62
135 637 127 96 75 64
135 638 127 96 74 64
135 639 127 93 73 62
136 624 127 94 74 59
136 625 127 94 74 59
137 624 127 93 73 59
137 625 127 93 73 59
136 626 127 93 73 60
136 627 127 94 73 59
137 626 127 92 73 59
137 627 127 91 72 60
138 624 127 91 73 60
138 625 127 90 72 60
139 624 127 87 71 59
139 625 127 87 71 59
138 626 127 91 73 60
138 627 127 90 72 60
139 626 127 86 70 59
139 627 127 87 71 60
136 628 127 94 74 60
136 629 127 93 73 59
137 628 127 91 73 60
137 629 126 90 71 59
137 629 127 91 72 59
136 630 127 93 73 59
136 631 126 91 73 60
136 631 127 94 74 60
137 630 126 90 72 59
137 631 126 90 72 60
138 628 126 90 73 60
138 628 127 90 72 60
138 629 126 89 72 60
139 628 126 86 70 59
139 628 127 88 72 59
139 629 126 86 71 60
139 631 125 84 69 59
138 630 126 88 71 60
138 631 126 87 71 60
139 630 126 85 69 59
139 631 126 83 68 58
140 624 127 83 68 57
140 625 127 82 68 57
141 624 127 80 65 55
141 625 127 80 65 54
140 626 127 83 68 57
140 627 127 83 69 59
141 626 127 79 65 55
141 627 127 79 65 56
142 626 127 76 63 54
142 627 127 76 62 54
143 627 127 72 61 55
140 628 126 82 68 58
140 629 126 83 68 59
141 628 126 80 66 58
141 628 127 78 64 56
141 629 126 79 65 57
140 631 125 82 67 58
141 631 125 78 65 57
140 630 126 82 67 57
140 631 126 81 67 57
141 630 126 79 65 57
142 628 127 76 62 54
142 629 126 75 61 54
143 628 127 73 60 54
143 629 126 73 61 54
143 629 127 72 61 53
142 630 125 75 62 56
142 631 125 74 61 57
143 630 125 73 62 56
143 631 125 66 59 62
142 630 126 75 62 56
143 630 126 74 61 55
136 632 126 91 72 60
136 632 127 93 73 60
136 633 126 92 73 60
136 633 127 93 74 61
137 632 126 90 72 60
137 633 126 90 72 60
136 634 127 93 74 61
136 635 127 93 73 61
137 634 126 89 71 59
137 634 127 91 72 60
137 635 126 89 71 59
137 635 127 91 72 60
139 632 125 85 70 59
139 633 125 85 70 60
138 632 126 87 71 60
138 633 126 87 71 60
139 634 125 85 70 60
139 635 125 85 70 59
138 634 126 87 70 59
138 635 126 88 70 59
139 639 123 83 69 60
136 636 127 93 73 61
136 637 126 91 72 62
136 637 127 94 74 63
137 636 126 90 71 59
137 637 126 89 70 59
137 638 125 88 70 60
137 639 125 88 71 58
136 638 126 91 73 61
136 638 127 94 73 63
136 639 126 90 72 59
136 639 127 92 73 61
137 638 126 90 72 60
137 639 126 89 72 58
138 636 125 87 70 58
138 637 125 87 70 59
139 636 125 86 70 58
139 637 124 85 69 59
139 637 125 86 70 59
138 636 126 88 71 59
138 638 124 86 70 59
138 638 125 87 70 60
138 639 124 85 70 60
138 639 125 87 71 60
139 638 124 85 70 59
139 639 124 83 70 59
141 635 123 79 65 57
142 634 123 75 63 56
142 635 123 76 63 56
143 634 123 71 61 56
143 635 123 73 62 55
140 632 125 82 68 58
140 633 125 83 68 59
141 632 125 80 66 58
141 633 124 80 66 58
141 633 125 81 67 59
140 634 125 83 68 59
140 635 124 82 67 58
140 635 125 83 68 58
141 634 124 80 66 57
141 635 124 80 66 57
142 632 124 75 63 57
142 632 125 75 63 57
142 633 124 76 64 58
143 632 124 70 60 56
143 633 124 71 61 56
142 634 124 76 64 57
140 636 123 81 66 57
141 636 123 79 65 56
141 637 122 79 65 57
141 637 123 80 66 56
140 638 123 81 67 58
140 639 123 81 68 59
141 638 122 78 65 58
141 638 123 80 66 58
141 639 122 78 65 57
141 639 123 79 67 59
143 637 121 72 62 56
142 636 122 77 63 56
142 636 123 77 64 56
142 637 122 77 63 57
143 636 122 72 61 55
143 636 123 74 62 54
143 637 122 74 62 56
142 639 121 74 63 54
143 638 121 73 62 56
143 639 121 72 61 53
142 638 122 76 64 57
142 639 122 76 63 55
140 636 124 82 67 57
140 636 125 83 68 57
140 637 124 83 68 58
140 638 124 82 68 58
159 608 107 65 80 104
159 609 107 67 82 105
159 610 107 68 83 106
159 611 107 68 83 107
156 608 111 55 69 90
157 608 110 58 72 94
157 608 111 56 70 92
157 609 110 59 74 96
157 609 111 57 71 92
157 610 110 61 75 97
157 610 111 59 73 94
157 611 111 60 75 97
158 608 109 62 76 99
158 609 108 64 79 102
158 609 109 63 78 100
159 608 108 64 78 101
159 609 108 65 80 103
158 608 110 59 73 96
158 609 110 62 76 99
158 610 108 65 80 103
158 610 109 64 79 102
158 611 109 65 81 103
159 610 108 67 82 105
159 611 108 66 82 105
158 610 110 62 77 99
158 611 110 63 78 100
159 612 107 67 83 107
159 613 107 67 83 106
159 614 107 66 82 106
159 615 107 66 82 105
157 612 110 63 78 100
157 612 111 61 76 97
157 613 111 61 76 97
157 614 111 61 76 97
157 615 111 61 75 96
158 612 109 65 80 103
158 613 109 65 81 104
159 612 108 66 82 105
159 613 108 66 82 105
158 612 110 64 80 102
158 613 110 63 79 101
158 614 109 65 80 103
158 615 109 64 80 102
159 614 108 66 81 104
159 615 108 65 81 104
158 614 110 63 78 100
158 615 110 62 77 99
159 616 107 65 81 104
159 617 107 65 80 103
159 618 107 64 79 102
159 619 107 64 77 100
157 616 110 62 75 97
157 616 111 61 75 96
157 617 110 61 75 96
157 617 111 61 74 95
157 618 110 62 75 96
157 618 111 61 74 95
157 619 110 62 74 96
157 619 111 61 74 95
158 616 109 64 79 101
158 617 109 63 77 100
159 616 108 64 80 103
159 617 108 64 79 102
158 616 110 62 77 98
158 617 110 62 76 98
158 618 109 63 76 99
158 619 109 63 76 98
159 618 108 63 77 100
159 619 108 63 76 99
158 618 110 62 75 97
158 619 110 62 75 96
159 620 107 64 77 100
159 621 107 64 76 100
159 622 106 64 77 101
159 622 107 63 75 99
159 623 106 64 76 101
159 623 107 63 75 99
157 620 110 62 74 95
157 620 111 61 73 94
157 621 110 62 73 95
157 621 111 61 72 93
157 622 110 61 72 94
157 622 111 60 71 92
157 623 110 61 71 93
157 623 111 60 70 91
158 620 109 62 74 97
158 621 108 63 75 98
158 621 109 62 74 97
159 620 108 63 76 99
159 621 108 63 75 99
158 620 110 62 74 96
158 621 110 62 73 95
158 622 108 62 74 97
158 622 109 62 73 96
158 623 108 62 74 97
158 623 109 61 73 96
159 622 108 63 74 98
158 622 110 62 73 95
150 608 119 52 52 61
151 608 118 47 49 62
151 608 119 50 51 62
151 609 119 50 51 62
151 610 119 50 51 62
151 611 119 51 52 62
144 608 121 70 58 51
145 608 121 68 58 54
144 608 122 70 59 52
144 608 123 72 60 54
144 609 122 72 60 53
144 609 123 73 61 54
145 608 122 67 57 52
145 609 122 67 57 51
144 610 122 70 59 53
144 610 123 71 60 52
145 610 122 68 57 51
145 610 123 67 57 52
145 611 123 68 58 51
146 608 121 65 56 53
146 609 121 64 55 51
147 608 121 61 54 53
147 609 121 59 53 53
146 609 122 64 56 52
147 608 122 62 54 53
147 609 122 60 54 52
146 610 122 65 56 51
146 610 123 65 56 51
146 611 123 66 56 51
147 610 122 62 55 52
147 610 123 63 55 51
147 611 123 63 55 51
144 609 124 74 62 55
144 610 124 72 61 53
144 611 124 73 61 54
145 611 124 68 58 51
146 611 124 66 57 52
146 611 125 65 56 52
147 612 123 63 56 52
144 612 124 73 61 55
144 612 125 74 62 54
145 612 124 70 58 52
145 612 125 71 60 53
145 613 125 71 60 54
144 613 126 73 61 54
145 613 126 71 60 54
144 614 125 75 62 55
144 615 126 75 62 56
145 614 126 72 59 55
145 615 126 72 60 55
146 612 124 66 57 52
146 613 124 66 56 51
146 613 125 67 58 52
147 612 124 63 56 52
147 613 124 63 55 52
147 613 125 64 56 52
146 614 125 68 58 53
147 614 124 63 55 53
147 614 125 63 56 52
147 615 125 63 56 53
146 614 126 68 57 53
146 615 126 66 56 52
147 614 126 66 56 52
148 608 121 58 53 53
149 608 120 57 52 58
149 608 121 58 54 56
149 609 121 58 54 55
148 608 122 58 53 53
148 609 122 58 53 53
149 609 122 57 54 53
149 610 121 58 54 57
148 610 122 60 54 53
148 611 122 61 54 53
148 611 123 61 54 53
149 610 122 59 54 56
149 611 122 61 54 57
150 608 120 55 53 60
150 609 120 55 53 60
150 609 121 57 53 59
150 610 120 56 53 61
150 610 121 57 53 59
150 611 121 59 53 60
151 610 120 54 53 62
151 611 120 53 54 62
151 611 121 56 54 62
150 611 122 59 54 59
148 612 123 60 54 53
149 612 123 59 54 55
149 614 123 60 54 55
149 615 122 62 55 58
149 615 123 60 55 54
150 612 121 59 54 61
151 612 120 54 54 64
151 612 121 56 54 62
151 613 120 57 55 64
151 613 121 58 56 63
150 612 122 59 54 59
150 612 123 59 54 57
150 613 122 58 54 59
150 613 123 59 54 57
150 615 121 60 55 60
151 614 120 57 55 64
151 614 121 59 55 61
151 615 120 57 55 62
151 615 121 59 55 61
150 614 122 60 54 58
150 614 123 60 54 56
150 615 122 61 56 59
148 612 124 60 54 53
148 613 124 60 54 53
149 612 124 60 54 55
149 613 124 60 54 55
148 614 124 60 54 52
148 614 125 61 54 52
148 615 124 60 54 53
148 615 125 61 55 53
149 614 124 60 54 54
149 615 124 61 55 53
144 616 127 74 61 55
144 617 127 73 60 54
145 616 126 71 59 53
145 617 127 71 60 54
144 618 127 73 61 55
145 618 127 71 61 55
146 616 125 65 56 53
147 616 125 64 56 53
147 617 125 63 56 53
146 616 126 67 57 53
146 617 126 68 58 54
147 618 125 64 56 54
146 618 126 67 58 54
146 618 127 67 58 53
146 619 127 66 57 53
147 618 126 65 57 54
147 619 126 64 57 55
147 619 127 65 57 55
146 620 127 65 58 55
147 620 127 63 56 54
149 617 121 62 55 60
148 616 123 61 55 52
148 617 123 60 54 54
149 616 122 62 55 58
149 616 123 60 54 54
149 617 122 62 54 57
149 617 123 61 54 54
149 618 121 63 55 61
148 618 123 61 54 54
149 618 122 63 55 59
149 618 123 62 54 56
149 619 122 63 55 59
149 619 123 63 55 57
150 616 121 60 55 60
150 617 121 61 55 62
151 616 120 56 55 62
151 616 121 59 55 62
151 617 120 58 55 62
150 616 122 62 55 60
150 618 121 62 55 61
150 619 121 61 54 60
151 618 120 58 55 62
151 619 120 58 54 61
150 619 122 62 54 59
148 616 124 60 55 53
148 617 124 60 54 53
148 617 125 61 55 53
148 618 124 62 55 54
148 618 125 64 56 54
148 619 124 62 55 56
148 619 125 63 56 54
149 619 124 62 55 56
148 619 126 63 57 55
149 620 123 63 54 57
149 621 123 63 54 57
149 622 123 64 54 56
149 623 123 65 54 56
150 620 121 61 54 59
150 621 121 62 54 59
151 620 120 58 55 61
151 620 121 61 54 60
151 621 120 57 54 59
151 621 121 60 54 59
150 620 122 63 54 59
150 621 122 63 54 59
150 621 123 64 54 58
151 622 120 57 53 59
151 622 121 62 54 59
151 623 120 58 53 58
151 623 121 61 53 57
150 622 122 64 54 59
150 622 123 64 54 57
150 623 122 64 53 57
150 623 123 64 54 56
148 620 124 62 55 55
148 620 125 62 55 55
148 621 125 62 54 55
149 620 124 63 55 57
149 621 124 63 54 56
149 621 125 62 54 54
148 620 126 63 56 54
148 620 127 62 56 53
148 621 126 63 56 55
148 621 127 62 56 54
148 622 125 63 54 55
149 622 124 63 54 55
149 622 125 63 54 54
149 623 124 64 54 55
149 623 125 64 54 54
148 622 126 63 55 55
148 622 127 63 55 54
148 623 126 63 54 55
148 623 127 63 55 55
155 608 113 51 63 84
154 608 114 46 58 77
154 608 115 42 54 73
154 609 114 48 60 79
154 609 115 45 58 76
155 608 114 48 61 81
155 609 114 50 62 82
154 610 115 48 60 78
154 611 115 49 61 79
155 610 114 51 64 83
155 611 114 52 66 85
155 611 115 51 64 83
152 608 117 38 46 65
153 608 116 40 50 70
153 608 117 39 49 69
153 609 116 40 51 69
153 609 117 39 49 68
152 608 118 40 46 63
152 609 118 41 47 62
153 610 116 43 54 71
153 610 117 41 50 66
153 611 116 45 56 72
153 611 117 43 52 67
152 610 118 43 49 63
152 610 119 46 50 62
152 611 118 45 51 64
152 611 119 48 51 63
153 611 118 43 50 63
154 608 116 40 52 71
154 609 116 41 53 71
154 610 116 43 55 72
154 611 116 47 58 75
154 612 115 49 61 79
154 613 115 50 61 79
155 612 114 54 67 86
155 612 115 51 64 82
155 613 114 54 67 85
155 613 115 52 64 82
154 614 115 51 62 80
154 615 115 52 63 80
155 614 114 55 67 85
155 614 115 53 65 83
155 615 114 55 67 85
155 615 115 53 65 82
153 612 117 44 54 69
153 613 117 44 55 70
152 612 118 43 50 62
152 612 119 51 54 64
152 613 119 50 53 65
153 612 118 42 51 64
153 613 118 45 52 66
153 614 117 48 57 72
153 615 117 49 56 71
152 614 119 51 54 65
152 615 119 51 54 65
153 614 118 48 54 68
153 614 119 49 54 66
153 615 118 49 55 69
153 615 119 49 54 66
154 612 116 47 58 75
154 613 116 48 59 76
154 613 117 46 56 72
154 614 116 50 60 76
154 614 117 48 58 74
154 615 116 51 60 76
154 615 117 49 58 73
156 608 112 53 66 88
156 608 113 52 64 85
156 609 112 55 69 90
156 609 113 52 65 86
156 610 112 56 70 90
156 610 113 54 67 88
156 611 112 57 71 92
156 611 113 55 69 89
157 610 112 57 71 92
157 611 112 59 73 94
156 612 112 58 72 93
156 612 113 56 69 89
156 613 112 59 73 93
156 613 113 57 70 90
157 612 112 59 74 94
157 613 112 60 74 95
156 612 114 54 68 87
156 613 114 56 68 88
156 614 112 59 73 93
156 614 113 58 71 90
156 615 112 60 73 93
156 615 113 58 71 90
157 614 112 60 74 95
157 615 112 60 74 94
156 614 114 56 69 87
156 615 114 56 68 87
152 613 120 55 56 65
152 614 120 56 55 65
152 615 120 54 55 64
155 616 114 56 67 85
155 616 115 54 65 81
155 617 114 58 69 86
155 617 115 57 67 83
155 619 113 60 71 90
154 619 115 51 62 78
155 618 114 62 73 90
155 618 115 62 72 87
155 619 114 59 70 88
155 619 115 48 60 78
153 616 117 47 55 69
153 617 117 47 56 70
152 616 119 48 53 65
152 617 119 47 52 64
153 616 118 46 54 68
153 617 118 44 53 67
153 618 117 48 57 71
153 619 117 48 57 70
152 618 119 48 53 64
152 619 119 51 54 65
153 618 118 46 54 68
153 619 118 47 55 68
154 616 116 52 62 78
154 616 117 49 59 73
154 617 116 53 63 79
154 617 117 49 60 75
154 618 116 53 63 77
154 618 117 50 59 72
154 619 116 52 62 76
154 619 117 49 58 72
155 620 113 58 69 88
155 621 113 58 68 87
154 620 115 47 58 75
154 621 115 47 56 73
155 620 114 56 66 85
155 620 115 49 59 79
155 621 114 55 65 83
155 621 115 52 61 78
154 622 115 49 56 72
154 623 115 47 54 70
155 622 114 56 62 81
155 622 115 52 58 76
155 623 114 55 62 81
155 623 115 50 57 74
153 620 117 48 57 70
153 621 117 49 56 69
152 620 119 50 53 63
152 621 119 50 52 62
153 620 118 48 55 68
153 621 118 49 54 68
153 622 117 46 52 65
153 623 117 45 50 63
152 622 119 51 52 61
152 623 119 52 52 60
153 622 118 47 51 64
153 623 118 47 50 62
154 620 116 49 59 73
154 620 117 48 58 71
154 621 116 47 56 71
154 621 117 48 57 70
154 622 116 47 54 68
154 622 117 46 53 66
154 623 116 45 52 67
156 616 112 60 73 92
156 616 113 59 71 90
156 617 112 60 73 92
156 617 113 60 72 91
157 616 112 60 74 94
157 617 112 60 73 93
156 616 114 58 70 88
156 618 112 61 73 92
156 618 113 60 72 91
156 619 112 61 73 92
156 619 113 60 72 91
157 618 112 61 73 93
157 619 112 61 73 93
156 620 112 61 72 92
156 620 113 60 71 90
156 621 112 60 71 91
156 621 113 59 69 89
156 622 112 59 70 90
156 622 113 58 68 87
156 623 112 59 69 89
156 623 113 57 66 85
152 616 120 54 55 65
152 617 120 54 54 63
152 618 120 53 54 63
152 619 120 55 55 63
152 620 120 55 55 62
152 621 120 53 53 60
152 622 120 54 52 59
152 623 120 56 52 59
159 624 106 64 76 101
159 624 107 63 74 99
159 625 106 63 75 100
159 625 107 63 75 99
159 626 106 63 75 100
159 626 107 63 74 99
159 627 107 62 74 99
156 624 111 59 68 89
157 624 110 60 70 92
157 624 111 60 69 90
157 625 110 60 70 93
157 625 111 59 68 90
156 626 111 57 66 87
157 626 110 59 70 92
157 626 111 58 67 89
157 627 110 59 68 91
157 627 111 58 67 88
158 624 108 62 73 97
158 624 109 61 72 95
158 625 108 62 73 96
158 625 109 61 72 95
159 624 108 62 74 98
159 625 108 62 73 97
158 626 108 61 72 96
158 626 109 61 71 94
158 627 108 60 71 94
158 627 109 60 70 93
159 626 108 62 73 97
159 627 108 61 72 96
158 627 110 59 69 91
159 628 107 62 74 98
159 629 107 62 73 97
159 630 107 62 73 98
159 631 107 62 74 99
157 628 110 58 68 89
157 628 111 56 66 87
157 629 110 57 66 88
157 629 111 55 64 85
157 630 110 56 66 88
157 630 111 54 64 85
157 631 110 55 66 88
157 631 111 54 64 86
158 628 108 60 71 94
158 628 109 59 70 93
158 629 108 60 70 94
158 629 109 59 69 92
159 628 108 61 72 96
159 629 108 60 71 95
158 628 110 59 69 91
158 629 110 58 67 90
158 630 108 59 70 93
158 630 109 58 69 92
158 631 108 59 70 94
158 631 109 58 69 92
159 630 108 60 71 95
159 631 108 60 71 96
158 630 110 57 67 90
158 631 110 56 66 89
159 632 107 61 73 99
159 633 107 59 73 101
159 634 107 58 73 104
157 632 110 55 66 89
157 632 111 54 65 87
157 633 110 54 67 92
157 633 111 53 65 89
157 634 110 53 67 94
157 634 111 52 66 93
157 635 110 52 69 100
157 635 111 49 67 97
158 632 108 58 70 95
158 632 109 57 69 94
158 633 109 56 69 96
159 632 108 59 70 96
159 633 108 57 71 99
158 632 110 56 67 91
158 633 110 55 68 94
158 634 109 55 70 99
158 635 109 55 71 102
159 634 108 57 72 102
159 635 108 57 73 105
158 634 110 54 68 97
158 635 110 53 69 101
157 636 110 53 70 103
157 636 111 50 67 101
157 637 111 55 70 104
157 638 111 57 74 106
157 639 111 59 75 108
158 636 109 56 72 104
158 637 109 59 74 107
159 636 108 58 74 106
159 636 109 57 73 106
159 637 108 59 75 108
159 637 109 58 74 107
158 636 110 54 71 104
158 637 110 57 73 106
158 638 109 57 74 107
158 639 109 61 75 108
159 638 108 60 75 109
159 638 109 58 74 108
159 639 108 65 79 112
159 639 109 62 76 109
158 638 110 57 74 107
158 639 110 60 75 108
158 639 111 61 76 109
151 627 119 59 54 57
151 628 119 60 55 58
151 629 118 57 54 56
151 629 119 59 54 57
150 630 119 61 54 56
150 631 119 62 55 56
151 630 118 57 54 56
151 630 119 60 54 56
151 631 118 60 54 56
151 631 119 59 54 56
147 624 127 64 56 55
147 625 127 66 56 56
147 626 127 64 55 55
147 627 127 67 57 53
146 631 123 65 56 51
147 630 123 65 57 51
147 631 123 65 57 52
144 628 127 70 59 54
144 629 126 71 61 54
144 629 127 71 60 53
145 628 127 69 59 54
145 629 126 70 59 53
145 629 127 69 59 54
144 630 125 71 61 54
144 631 124 69 60 54
144 631 125 69 60 56
145 630 124 69 59 53
145 630 125 69 59 53
145 631 124 68 58 53
146 629 125 68 58 51
147 629 124 66 57 52
147 629 125 66 57 53
146 628 127 68 58 52
146 629 126 68 58 52
146 629 127 68 58 52
147 628 126 65 56 52
147 628 127 67 57 52
147 629 126 67 58 52
146 630 124 68 58 52
146 630 125 68 58 52
146 631 124 66 57 51
147 630 124 66 57 52
147 630 125 67 58 52
149 627 123 64 54 56
151 624 120 59 53 58
151 624 121 62 53 57
151 625 120 59 53 57
151 625 121 62 53 55
150 624 122 64 53 57
150 624 123 65 53 56
150 625 122 64 52 56
150 625 123 65 53 56
151 624 122 64 53 56
151 625 122 63 52 56
151 626 120 60 52 56
151 626 121 61 53 55
151 627 120 60 53 55
151 627 121 61 52 54
150 626 122 62 53 55
150 626 123 64 53 56
150 627 122 62 53 54
150 627 123 63 53 56
151 626 122 62 53 54
151 627 122 62 52 54
149 624 124 65 54 55
149 624 125 65 54 55
149 625 124 65 53 55
149 625 125 65 54 55
148 624 126 64 54 55
148 624 127 64 55 55
148 625 126 64 54 55
148 625 127 65 55 56
149 624 126 64 54 55
149 625 126 65 54 56
148 627 125 65 56 56
149 626 124 65 53 56
149 626 125 64 53 56
149 627 124 65 54 56
149 627 125 65 55 56
148 626 126 64 54 56
148 626 127 64 55 55
148 627 126 64 56 56
148 627 127 64 55 55
149 626 126 64 53 55
150 624 124 65 53 56
148 629 123 63 56 55
149 628 123 63 55 56
149 629 122 63 55 56
149 629 123 63 56 55
149 630 121 62 55 55
149 631 121 63 56 55
148 630 123 63 57 54
148 631 122 64 56 54
148 631 123 64 57 53
149 630 122 63 56 55
149 630 123 63 56 55
149 631 122 63 56 55
150 628 121 63 54 56
150 629 120 62 54 56
150 629 121 63 54 56
151 628 120 62 55 57
151 628 121 62 54 56
151 629 120 61 54 56
150 628 122 63 54 56
150 628 123 63 54 56
150 629 122 63 54 56
150 630 120 62 54 57
150 630 121 62 54 56
150 631 120 62 54 56
148 628 124 63 56 55
148 628 125 64 56 54
148 629 124 63 56 53
148 629 125 64 56 53
149 628 124 64 56 55
148 628 126 64 56 54
148 630 124 65 57 53
147 639 119 56 53 58
150 632 119 63 55 55
150 633 119 63 54 55
151 632 118 61 55 55
151 632 119 62 55 55
151 633 118 61 55 55
151 633 119 63 55 57
151 634 119 63 55 55
151 635 119 63 54 55
148 639 119 54 56 67
149 638 119 61 53 53
149 639 118 53 52 60
149 639 119 55 54 63
150 637 119 60 54 54
151 636 118 63 55 57
151 636 119 63 55 54
151 637 118 61 54 56
151 637 119 62 54 53
150 639 117 52 54 62
151 638 117 59 54 60
151 639 116 56 54 65
151 639 117 56 53 61
150 638 118 59 55 57
150 638 119 60 54 54
150 639 118 55 54 59
151 638 118 60 55 59
144 633 123 66 58 55
145 632 123 66 58 53
145 633 123 67 58 53
144 634 123 68 59 56
144 635 122 67 59 55
144 635 123 68 59 55
145 634 123 64 57 57
145 635 122 66 58 55
145 635 123 66 59 56
146 632 123 66 57 53
146 633 123 63 56 55
147 632 122 65 57 54
147 632 123 65 58 54
147 633 122 63 56 53
147 633 123 64 56 54
146 634 122 62 56 56
146 634 123 62 56 58
146 635 122 64 59 59
147 634 122 63 56 53
147 635 122 64 56 52
144 632 124 67 59 54
144 633 124 66 59 55
145 632 124 68 58 53
144 637 121 69 60 56
145 637 121 65 59 57
144 636 122 68 60 55
145 636 122 66 58 56
144 638 121 70 61 56
144 639 121 70 60 53
145 638 121 67 59 55
145 639 120 67 57 53
146 636 121 63 56 56
146 637 121 62 55 56
147 636 121 64 56 53
147 637 121 62 55 55
146 636 122 64 56 54
147 636 122 64 56 54
146 638 120 63 56 55
146 638 121 63 56 56
146 639 120 63 56 54
147 638 120 62 54 53
147 638 121 64 55 53
147 639 120 60 55 55
149 632 120 63 56 56
149 632 121 63 56 55
149 633 121 62 55 53
148 632 122 64 56 53
148 633 122 63 56 53
149 634 121 61 55 53
149 635 121 62 56 54
148 634 122 63 56 53
148 635 122 63 56 54
149 634 122 62 56 54
149 635 122 63 56 54
150 632 120 63 55 55
150 633 120 62 54 54
150 634 120 63 54 55
150 634 121 61 55 54
150 635 120 62 56 55
150 635 121 62 56 55
151 634 120 63 55 55
151 635 120 63 55 54
148 636 121 62 56 54
148 637 120 63 55 54
148 637 121 62 55 55
149 636 121 62 56 54
149 637 120 64 55 54
149 637 121 64 55 54
148 636 122 63 56 54
149 636 122 63 56 54
148 638 120 56 53 61
149 638 120 63 54 53
150 636 120 61 55 55
150 636 121 61 56 55
150 637 120 62 55 54
150 637 121 62 56 55
154 625 115 48 54 69
155 624 114 52 60 78
155 624 115 48 55 72
155 625 114 52 59 78
155 625 115 50 56 73
155 626 113 52 60 80
155 627 113 51 59 78
154 626 115 47 52 67
154 627 115 44 50 65
155 626 114 51 58 76
155 626 115 49 55 71
155 627 114 49 56 74
155 627 115 46 53 68
153 624 117 45 50 64
153 625 116 47 51 65
153 625 117 46 50 63
152 624 118 49 51 61
152 624 119 53 51 59
152 625 118 50 50 60
152 625 119 53 52 59
153 624 118 47 50 62
153 625 118 48 50 61
152 627 117 46 50 59
153 626 117 48 51 63
153 627 116 44 48 63
153 627 117 47 51 62
152 626 118 51 51 60
152 626 119 55 52 58
152 627 118 52 52 59
152 627 119 57 52 58
154 624 116 47 52 67
154 625 116 48 52 67
154 626 116 47 50 66
154 627 116 43 47 63
155 628 113 51 59 78
155 629 113 50 58 77
154 628 115 43 50 66
154 629 115 42 51 66
155 628 114 48 56 74
155 629 114 47 55 73
155 630 113 49 57 76
155 631 113 47 56 75
154 630 115 42 50 65
154 631 115 41 49 65
155 630 114 45 54 72
155 631 114 44 53 70
152 628 117 49 50 59
152 629 117 49 50 58
153 628 116 41 47 61
153 628 117 45 49 60
153 629 116 42 47 60
153 629 117 44 48 60
152 628 118 54 52 58
152 628 119 58 54 58
152 629 118 54 52 57
152 630 117 50 51 59
152 631 117 52 51 59
153 630 116 43 48 61
153 631 116 44 48 62
152 630 118 55 53 58
154 628 116 42 47 63
154 629 116 41 47 62
154 630 116 42 49 63
154 631 116 41 49 63
156 624 112 58 67 87
156 624 113 55 64 84
156 625 112 57 66 86
156 625 113 54 62 82
156 626 112 55 64 85
156 626 113 54 62 82
156 627 112 55 64 84
156 627 113 53 61 81
157 627 112 57 66 87
156 628 112 54 62 83
156 628 113 52 60 79
156 629 112 53 62 82
156 629 113 51 60 79
156 630 112 52 61 81
156 630 113 50 59 79
156 631 112 52 61 82
156 631 113 49 59 78
152 624 120 57 53 59
152 625 120 58 53 58
152 626 120 59 52 57
152 627 120 59 54 57
155 632 113 46 55 74
155 633 113 48 58 77
154 632 115 39 47 61
154 633 115 39 48 62
155 632 114 41 51 68
155 633 114 42 51 68
155 634 113 54 63 84
155 635 113 48 62 86
154 634 115 39 48 63
154 635 115 41 50 67
155 634 114 46 55 74
155 635 114 48 60 82
152 632 117 52 51 59
152 633 117 54 51 58
153 632 116 42 47 60
153 632 117 43 47 59
153 633 116 42 47 59
153 633 117 47 47 58
152 632 118 59 55 57
152 633 118 59 55 58
152 634 117 54 48 58
152 635 117 55 52 58
153 634 116 42 46 58
153 634 117 49 46 58
153 635 116 41 45 57
153 635 117 51 50 60
152 634 118 60 54 56
152 635 118 61 54 58
154 632 116 40 48 61
154 633 116 41 48 60
154 634 116 40 47 59
153 637 115 36 46 60
152 639 115 55 60 74
153 638 115 44 52 64
153 639 115 49 55 65
155 636 113 44 63 90
155 637 113 47 66 95
154 636 115 41 53 72
154 637 114 46 62 88
154 637 115 41 56 76
155 636 114 46 61 85
155 637 114 48 64 89
155 638 113 56 73 103
155 639 113 53 72 105
154 638 114 48 63 90
154 638 115 41 55 75
154 639 114 46 61 88
154 639 115 45 58 78
155 638 114 51 67 98
155 639 114 51 69 101
152 636 117 55 51 57
152 637 116 55 54 60
152 637 117 57 52 58
153 636 116 43 47 58
153 636 117 53 51 58
153 637 116 45 49 59
152 636 118 61 55 59
152 637 118 60 52 56
152 638 116 55 53 59
152 638 117 58 53 62
152 639 116 56 56 68
156 632 112 52 62 84
156 632 113 50 59 80
156 633 112 52 63 85
156 633 113 50 61 82
156 634 112 51 64 89
156 634 113 58 68 90
156 635 112 47 65 92
156 635 113 48 64 89
156 636 112 47 66 97
156 636 113 46 65 94
156 637 112 50 68 102
156 637 113 47 67 97
157 637 112 53 70 103
156 638 112 57 73 105
156 638 113 56 73 103
156 639 112 60 76 107
156 639 113 56 73 107
157 638 112 56 73 106
157 639 112 63 78 109
