ply
format ascii 1.0
comment Version 2, Copyright 2017, 8i Labs, Inc.
comment frame_to_world_scale 0.179523
comment frame_to_world_translation -45.2095 7.18301 -54.3561
comment width 1023
element vertex 931
property float x
property float y
property float z
property uchar red
property uchar green
property uchar blue
end_header
155 672 160 39 58 113
155 672 161 68 86 125
155 673 160 34 52 110
155 673 161 37 54 115
155 672 162 91 107 137
155 672 163 92 109 136
155 673 162 54 68 123
155 673 163 86 99 136
155 674 160 28 48 104
155 674 161 33 50 114
155 675 160 25 47 94
155 675 161 27 50 109
155 674 162 43 53 123
155 674 163 59 71 127
155 675 162 30 47 121
155 675 163 41 55 125
155 672 164 90 108 133
155 672 165 98 115 136
155 673 164 103 118 143
155 673 165 95 113 137
155 673 166 93 111 136
155 674 164 85 101 135
155 674 165 103 119 143
155 675 164 63 78 129
155 675 165 91 108 139
155 674 166 99 117 141
155 675 166 108 125 147
155 676 160 44 61 88
155 676 161 37 60 99
155 677 160 48 62 79
155 677 161 69 82 100
155 676 162 26 56 113
155 676 163 27 54 120
155 677 162 65 88 113
155 677 163 49 81 118
155 678 160 40 55 72
155 678 161 51 67 83
155 679 160 50 62 81
155 679 161 54 68 84
155 678 162 82 97 112
155 678 163 91 109 129
155 679 162 57 74 90
155 679 163 76 93 109
155 676 164 41 59 126
155 676 165 67 82 133
155 677 164 24 61 124
155 677 165 40 61 130
155 676 166 91 108 139
155 677 166 67 80 133
155 677 167 78 92 134
155 678 164 63 92 127
155 678 165 35 70 126
155 679 164 94 112 131
155 679 165 77 103 131
155 678 166 51 68 132
155 678 167 63 74 136
155 679 166 40 75 129
155 679 167 44 70 133
156 672 165 119 130 147
156 672 166 117 129 145
156 672 167 111 123 140
156 673 166 100 117 138
156 673 167 117 130 147
156 674 166 96 116 139
156 674 167 97 116 138
156 675 167 104 122 143
156 676 167 107 123 144
156 677 167 88 101 137
156 678 167 71 80 137
156 679 167 59 72 137
156 672 168 101 114 132
156 672 169 121 130 144
156 673 168 120 131 148
156 673 169 99 114 134
156 672 170 129 137 151
156 673 170 116 127 143
157 672 170 102 116 133
157 672 171 103 118 136
157 673 171 131 141 156
156 674 168 116 129 147
156 674 169 119 131 149
156 675 168 103 119 140
156 675 169 121 132 148
156 674 170 97 113 132
156 675 170 121 133 150
156 675 171 104 122 141
157 674 171 110 125 143
157 675 171 86 107 130
157 672 172 100 120 141
157 672 173 101 120 146
157 673 172 104 121 141
157 673 173 83 104 134
157 674 172 116 129 150
157 674 173 94 110 141
157 675 172 83 101 134
157 675 173 86 101 138
158 672 173 94 110 142
158 673 173 87 101 137
158 672 174 98 105 139
158 672 175 102 106 139
158 673 174 99 105 139
158 673 175 102 109 138
159 672 175 100 104 137
159 673 175 103 111 138
158 674 173 91 103 137
158 675 173 91 101 136
158 674 174 100 109 138
158 674 175 106 116 139
158 675 174 99 108 137
158 675 175 110 120 141
159 674 175 102 113 137
156 676 168 111 126 145
156 676 169 110 124 141
156 677 168 102 116 142
156 677 169 114 128 149
156 676 170 117 131 148
156 676 171 118 133 151
156 677 170 104 122 142
156 677 171 100 119 142
157 676 171 110 126 148
157 677 171 93 113 141
156 678 168 82 93 138
156 678 169 108 124 148
156 679 168 63 79 137
156 679 169 84 102 139
156 678 170 111 128 149
156 678 171 92 113 139
156 679 170 105 123 148
156 679 171 104 122 147
157 678 171 81 104 135
157 679 171 96 115 143
157 676 172 86 103 137
157 676 173 80 94 135
157 677 172 80 100 138
157 677 173 80 95 137
157 678 172 69 94 135
157 678 173 73 92 136
157 679 172 82 103 139
157 679 173 74 94 135
158 676 173 91 101 138
158 676 174 99 109 138
158 676 175 111 123 143
158 677 174 93 106 136
158 677 175 113 124 146
158 678 174 86 101 135
158 678 175 88 105 135
158 679 174 82 100 135
158 679 175 96 115 142
154 680 160 45 58 84
154 680 161 45 58 83
154 681 160 28 46 77
154 681 161 49 61 85
155 680 161 52 65 86
155 681 161 59 68 91
155 680 162 64 75 92
155 680 163 71 85 98
155 681 162 57 67 90
155 681 163 61 73 92
154 682 160 41 57 81
154 682 161 39 55 81
154 683 160 32 52 77
154 683 161 46 61 83
154 683 162 54 67 90
155 682 162 51 62 89
155 682 163 63 74 95
155 683 162 52 64 90
155 683 163 58 70 93
155 680 164 80 96 111
155 680 165 98 116 133
155 681 164 80 92 107
155 681 165 79 98 115
155 680 166 72 102 132
155 680 167 41 82 129
155 681 166 102 120 139
155 681 167 90 114 139
155 682 164 64 80 98
155 682 165 80 97 115
155 683 164 67 81 102
155 683 165 72 90 110
155 682 166 78 100 120
155 682 167 100 119 138
155 683 166 79 100 121
155 683 167 69 96 118
153 687 160 40 57 86
154 684 160 28 49 74
154 684 161 24 46 72
154 685 160 31 49 75
154 685 161 37 53 74
154 684 162 39 58 81
154 684 163 53 68 90
154 685 162 18 46 72
154 685 163 33 55 80
155 684 163 58 70 94
154 686 160 34 50 77
154 686 161 41 53 74
154 687 160 39 54 80
154 687 161 40 50 73
154 686 162 38 55 75
154 686 163 22 49 75
154 687 162 41 53 74
154 687 163 46 61 81
154 685 164 56 72 96
155 684 164 63 77 101
155 684 165 69 87 111
155 685 164 61 76 102
155 685 165 62 80 110
155 684 166 73 96 121
155 684 167 81 105 128
155 685 166 69 93 121
155 685 167 70 99 126
154 686 164 30 57 87
154 686 165 51 72 102
154 687 164 37 62 89
154 687 165 35 65 100
155 686 165 56 77 110
154 687 166 44 72 110
155 686 166 60 86 118
155 686 167 69 100 128
155 687 166 50 79 116
155 687 167 61 93 125
155 681 168 65 97 131
155 682 168 97 119 140
155 683 168 97 116 136
155 684 168 74 102 127
155 685 168 76 105 133
155 685 169 70 102 133
155 686 168 59 96 127
155 686 169 54 93 129
155 687 168 73 103 133
155 687 169 62 98 131
155 687 170 50 89 129
156 680 168 42 75 133
156 680 169 63 84 137
156 681 168 47 85 128
156 681 169 45 78 133
156 680 170 79 98 139
156 680 171 85 105 139
156 681 170 60 80 138
156 681 171 76 94 140
157 680 171 91 111 142
157 681 171 86 104 142
156 682 168 76 105 133
156 682 169 40 82 128
156 683 168 107 125 146
156 683 169 81 109 137
156 682 170 42 74 134
156 682 171 64 85 137
156 683 170 35 78 129
156 683 171 45 73 134
157 680 172 95 114 143
157 680 173 92 111 139
157 681 172 96 114 143
157 681 173 105 122 143
157 681 174 114 128 147
156 683 172 56 78 134
157 682 172 82 101 139
157 682 173 96 114 139
157 683 172 68 87 134
157 683 173 86 102 137
157 682 174 108 123 143
157 683 174 90 108 135
158 680 174 92 111 137
158 680 175 93 113 138
158 681 174 112 127 145
158 681 175 94 113 133
158 682 174 115 129 147
158 682 175 115 127 143
158 683 175 113 126 143
156 684 169 90 115 139
156 685 169 64 98 129
156 684 170 75 104 139
156 684 171 48 78 133
156 685 170 58 95 131
156 685 171 55 85 133
156 686 169 55 93 129
156 686 170 30 77 123
156 686 171 41 79 128
156 687 170 44 83 128
156 687 171 43 79 130
156 684 172 63 83 137
156 685 172 66 88 137
157 684 172 72 88 138
157 684 173 87 101 140
157 685 173 74 92 138
157 684 174 89 104 139
157 684 175 90 105 136
157 685 174 74 92 137
157 685 175 81 94 138
156 686 172 68 91 137
156 686 173 82 100 143
156 687 172 59 84 134
156 687 173 79 99 141
157 686 173 81 99 142
157 687 173 85 104 145
157 686 174 62 88 137
157 686 175 64 85 137
157 687 174 68 97 139
157 687 175 44 83 132
158 684 175 105 118 139
159 672 176 102 109 137
159 672 177 113 121 142
159 673 176 112 121 145
159 673 177 121 131 151
159 674 176 107 120 142
159 674 177 101 117 141
159 675 176 120 132 150
159 675 177 99 116 142
159 676 176 111 125 145
159 676 177 91 109 139
159 677 176 112 126 149
159 677 177 81 99 137
159 676 178 93 109 141
159 677 178 81 97 137
158 678 176 77 100 130
158 679 176 91 112 137
159 678 176 82 105 134
159 678 177 75 98 134
159 679 176 85 108 134
159 679 177 96 116 140
159 678 178 74 94 135
159 679 178 106 122 146
158 680 176 107 122 142
158 681 176 103 115 131
158 681 177 126 130 140
159 680 176 114 128 147
159 680 177 127 137 152
159 681 177 141 143 153
159 680 178 125 135 149
159 680 179 117 129 145
159 681 178 145 147 156
159 681 179 138 142 151
158 682 176 130 135 146
158 682 177 134 137 144
158 683 176 146 149 159
158 683 177 150 151 159
159 682 177 134 136 143
159 683 177 140 143 151
159 682 178 144 145 152
159 682 179 147 149 158
159 683 178 124 131 142
159 683 179 125 131 144
159 683 180 112 122 138
157 685 176 82 95 137
157 686 176 66 85 136
157 687 176 45 78 132
157 687 177 48 77 131
158 684 176 122 131 146
158 684 177 133 141 153
158 685 176 92 107 137
158 685 177 95 113 139
158 684 178 95 113 139
158 685 178 73 95 134
159 684 178 97 113 136
159 684 179 79 95 128
159 685 179 63 85 132
158 686 176 76 93 137
158 686 177 73 93 136
158 687 177 50 77 129
158 686 178 68 91 135
158 686 179 66 90 135
158 687 178 57 84 128
158 687 179 68 93 132
159 686 179 67 91 135
159 684 180 83 98 128
159 685 180 75 93 131
159 685 181 85 104 135
159 686 180 72 96 134
159 686 181 79 101 135
159 687 180 71 97 133
159 687 181 74 100 134
151 698 160 42 66 121
151 699 160 34 62 119
151 699 161 34 66 122
151 700 160 38 60 118
151 700 161 32 64 120
151 701 160 35 52 109
151 701 161 37 59 116
151 700 162 39 63 120
151 701 162 46 63 121
151 701 163 52 65 118
150 702 160 42 47 97
150 703 160 53 51 92
150 703 161 46 43 93
151 702 160 35 46 101
151 702 161 40 49 106
151 703 161 40 38 96
151 702 162 47 58 117
151 702 163 53 64 115
151 703 162 48 51 107
151 703 163 54 63 115
151 702 164 53 61 107
151 703 164 50 55 105
151 703 165 42 45 95
153 688 160 40 56 84
153 688 161 39 52 74
153 689 160 30 53 86
153 689 161 43 55 73
153 690 160 37 61 95
153 690 161 40 54 72
153 691 160 39 64 103
153 691 161 38 57 78
153 690 162 47 56 71
153 690 163 51 61 74
153 691 162 35 50 64
153 691 163 42 54 68
154 688 161 44 52 72
154 689 161 44 52 69
154 688 162 41 51 71
154 688 163 39 53 76
154 689 162 44 53 71
154 689 163 48 58 78
154 690 162 49 59 72
154 690 163 48 59 75
153 691 164 52 61 79
153 691 165 58 66 90
154 688 164 40 59 88
154 688 165 47 70 103
154 689 164 48 60 86
154 689 165 31 55 94
154 688 166 53 78 115
154 689 166 32 62 104
154 689 167 48 75 115
155 688 166 48 77 117
155 688 167 50 81 120
154 690 164 49 59 83
154 690 165 53 66 96
154 691 164 51 60 82
154 691 165 49 61 92
154 690 166 47 70 105
154 690 167 35 69 108
154 691 166 45 68 102
154 691 167 56 82 114
153 692 160 44 67 113
153 692 161 31 56 87
153 693 160 45 68 118
153 693 161 28 55 96
153 692 162 41 56 72
153 692 163 42 55 67
153 693 162 21 46 75
153 693 163 37 52 72
152 694 160 42 67 119
152 694 161 44 68 116
152 695 160 50 73 123
152 695 161 50 73 116
153 694 160 38 64 119
153 694 161 28 58 102
152 695 162 36 63 105
153 694 162 20 48 86
153 694 163 19 42 78
153 695 162 24 52 96
153 695 163 24 47 92
153 692 164 41 52 72
153 692 165 40 52 79
153 693 164 47 57 77
153 693 165 45 55 80
153 694 164 28 44 77
153 694 165 48 58 84
153 695 164 23 43 87
153 695 165 23 40 81
153 694 166 54 64 90
153 695 166 35 52 86
154 692 165 50 62 91
154 693 165 31 47 79
154 692 166 51 69 101
154 692 167 44 73 108
154 693 166 31 51 86
154 693 167 34 63 100
154 694 166 48 62 91
154 694 167 33 60 95
154 695 166 51 64 93
154 695 167 52 68 99
154 689 168 52 81 118
155 688 168 55 88 125
155 688 169 64 97 129
155 689 168 48 79 118
155 689 169 31 73 114
155 688 170 63 96 129
155 689 170 38 77 116
155 689 171 49 82 126
154 691 168 58 85 119
155 690 168 30 70 111
155 690 169 29 67 111
155 691 168 54 83 119
155 691 169 26 66 111
155 690 170 25 66 110
155 690 171 48 80 123
155 691 170 16 57 109
155 691 171 42 75 122
155 691 172 56 82 131
154 692 168 44 77 115
154 693 168 40 73 111
154 693 169 42 75 117
155 692 169 41 77 117
155 693 169 45 77 120
155 692 170 41 75 119
155 692 171 51 78 127
155 693 170 47 78 124
155 693 171 47 74 128
154 694 168 18 57 101
154 694 169 18 58 109
154 695 168 43 67 106
154 695 169 25 59 113
155 694 169 29 66 118
154 695 170 27 58 120
155 694 170 32 67 122
155 694 171 45 72 128
155 695 170 26 59 122
155 695 171 42 68 127
155 692 172 55 80 132
155 692 173 67 88 136
155 693 172 56 79 134
155 693 173 69 90 136
155 693 174 84 104 134
155 694 172 63 85 135
155 694 173 79 99 137
155 695 172 64 87 132
155 695 173 87 107 136
155 694 174 92 110 136
155 694 175 100 115 135
155 695 174 113 127 147
155 695 175 123 134 150
156 688 170 63 94 133
156 688 171 51 82 132
156 689 170 52 87 126
156 689 171 47 80 129
156 690 171 53 82 128
156 688 172 52 78 133
156 688 173 77 96 137
156 689 172 51 78 134
156 689 173 74 94 137
156 688 174 97 117 144
156 689 174 105 122 144
157 688 174 93 118 144
157 688 175 76 107 138
157 689 174 119 135 152
157 689 175 115 132 150
156 690 172 58 83 134
156 690 173 76 96 139
156 691 172 61 85 134
156 691 173 79 98 137
156 690 174 111 125 146
156 690 175 121 132 147
156 691 174 109 123 142
156 691 175 127 136 150
157 690 175 121 133 149
156 692 173 80 99 137
156 692 174 98 115 140
156 692 175 115 127 144
156 693 174 93 110 139
156 693 175 113 126 144
152 696 160 37 65 121
152 696 161 56 77 122
152 697 160 35 64 120
152 697 161 45 71 121
152 696 162 43 66 110
152 696 163 32 54 105
152 697 162 44 67 114
152 697 163 35 58 106
153 696 163 25 48 100
152 698 160 44 70 123
152 698 161 48 71 123
152 699 161 43 68 122
152 698 162 42 66 115
152 698 163 34 58 105
152 699 162 41 64 116
152 699 163 27 54 101
152 697 164 27 53 100
153 696 164 24 47 98
153 696 165 27 47 94
153 697 164 22 49 100
153 697 165 27 50 99
153 696 166 29 50 92
153 696 167 20 48 91
153 697 166 26 49 97
153 697 167 18 47 94
152 698 164 34 56 99
152 699 164 32 53 93
152 699 165 41 59 91
153 698 165 31 53 97
153 699 165 40 60 93
153 698 166 24 49 97
153 698 167 13 46 96
153 699 166 32 55 95
153 699 167 25 53 99
154 696 167 22 50 92
154 697 167 15 47 94
152 700 162 41 65 118
152 700 163 42 62 108
152 701 163 51 63 111
152 700 164 40 57 93
152 700 165 35 54 85
152 701 164 50 60 99
152 701 165 43 56 88
153 700 165 38 59 87
152 700 166 31 54 87
152 701 166 30 52 90
152 701 167 25 50 96
153 700 166 34 56 92
153 700 167 33 55 102
153 701 167 26 49 100
152 702 164 53 60 102
152 702 165 48 57 93
152 703 165 41 48 91
152 702 166 35 53 93
152 702 167 27 49 97
152 703 166 32 49 93
152 703 167 28 48 97
153 702 167 22 46 100
153 698 168 15 49 99
153 699 168 19 50 103
154 696 168 24 56 101
154 696 169 29 57 113
154 697 168 20 52 101
154 697 169 32 56 113
154 696 170 33 58 122
154 696 171 47 68 128
154 697 170 40 61 124
154 697 171 62 80 132
155 696 170 31 59 124
155 696 171 48 71 127
154 698 168 23 53 104
154 698 169 29 55 111
154 699 169 23 51 109
154 698 170 35 59 121
154 698 171 50 71 127
154 699 170 27 55 117
154 699 171 30 57 122
154 697 172 87 103 139
155 696 172 78 97 135
155 696 173 110 125 145
155 697 172 90 107 139
155 697 173 107 121 140
155 696 174 118 130 146
155 696 175 116 128 143
155 697 174 120 132 147
155 697 175 126 138 154
154 698 172 76 95 134
154 698 173 92 108 136
154 699 172 44 69 124
154 699 173 69 92 126
155 698 173 118 130 148
155 699 173 96 114 135
154 699 174 85 107 131
155 698 174 120 133 149
155 698 175 110 127 147
155 699 174 108 124 145
155 699 175 111 129 150
153 700 168 30 53 108
153 700 169 26 50 110
153 701 168 28 49 106
153 701 169 26 47 110
153 701 170 34 53 112
152 703 168 25 47 102
153 702 168 23 45 104
153 702 169 30 49 108
153 703 168 25 45 104
153 703 169 35 52 106
153 702 170 45 60 113
153 702 171 49 65 114
153 703 170 51 64 110
153 703 171 66 80 114
154 700 169 24 50 111
154 700 170 27 52 115
154 700 171 31 55 122
154 701 170 29 51 114
154 701 171 36 54 120
154 702 171 43 61 116
154 703 171 62 79 116
154 700 172 33 60 125
154 700 173 40 68 126
154 701 172 39 60 126
154 701 173 36 64 128
154 700 174 61 87 129
154 700 175 76 102 135
154 701 174 44 72 129
154 701 175 50 81 128
155 700 175 83 107 134
154 702 172 42 66 120
154 702 173 44 72 126
154 703 172 72 92 121
154 703 173 62 89 123
154 702 174 44 72 127
154 702 175 45 72 126
154 703 174 52 81 125
154 703 175 39 72 123
155 694 176 112 125 140
155 695 176 121 130 144
155 695 177 122 131 145
157 688 176 57 93 133
157 688 177 53 85 130
157 689 176 96 120 143
157 689 177 76 106 136
157 688 178 53 87 127
157 689 178 64 96 130
156 691 176 123 134 150
156 691 177 107 125 145
157 690 176 120 135 152
157 690 177 99 123 146
157 691 176 117 132 150
157 691 177 104 125 146
157 690 178 78 106 137
157 690 179 59 90 130
157 691 178 73 104 134
157 691 179 54 87 127
158 688 177 48 76 129
158 688 178 44 77 122
158 688 179 54 83 125
158 689 178 48 85 124
158 689 179 49 83 126
158 690 179 53 84 128
157 691 180 55 86 129
158 688 180 66 91 130
158 689 180 56 85 128
158 689 181 59 89 129
159 688 180 71 97 133
159 688 181 75 100 135
159 689 181 69 95 133
159 688 182 85 105 141
159 689 182 65 91 133
158 690 180 55 85 130
158 690 181 58 89 130
158 691 180 57 88 130
158 691 181 60 92 131
158 690 182 58 90 131
158 691 182 57 90 130
159 690 182 48 81 127
159 690 183 52 82 127
159 691 182 48 83 126
159 691 183 63 90 128
156 692 176 118 130 146
156 692 177 103 124 146
156 693 176 121 132 149
156 693 177 93 116 139
156 692 178 54 96 131
156 693 178 55 97 131
156 693 179 42 86 129
157 692 178 52 92 128
157 692 179 41 80 125
157 693 179 43 82 129
156 694 176 125 136 151
156 694 177 114 129 148
156 695 177 127 137 152
156 694 178 75 107 135
156 694 179 48 90 131
156 695 178 116 131 150
156 695 179 80 109 136
157 692 180 66 95 133
157 692 181 90 114 142
157 693 180 58 90 133
157 693 181 76 104 136
157 693 182 76 105 137
156 694 180 48 87 134
156 695 180 53 92 130
156 695 181 55 92 131
157 694 180 54 88 134
157 694 181 64 95 135
157 695 181 62 94 134
157 694 182 70 99 136
157 695 182 70 97 137
157 695 183 64 91 133
158 692 181 75 105 136
158 692 182 64 96 131
158 692 183 70 97 129
158 693 182 76 103 136
158 693 183 71 95 130
159 692 183 82 104 134
159 693 183 82 102 133
158 694 182 64 93 133
158 694 183 67 92 130
158 695 183 69 92 133
159 692 184 84 103 131
159 693 184 85 103 130
159 693 185 98 111 131
158 694 184 78 98 129
158 695 184 79 97 130
158 695 185 87 102 128
159 694 184 86 104 130
159 694 185 107 118 134
159 695 185 96 109 129
159 695 186 118 123 135
155 696 176 119 129 145
155 696 177 128 136 150
155 697 176 112 129 148
155 697 177 92 112 134
155 696 178 136 141 152
155 696 179 141 145 154
155 697 178 103 117 136
155 697 179 122 130 144
155 698 176 92 117 141
155 698 177 67 99 132
155 699 176 94 118 144
155 699 177 54 93 131
155 698 178 59 90 124
155 698 179 69 95 126
155 699 178 41 83 127
155 699 179 58 88 131
155 697 180 128 136 150
155 698 180 92 111 136
155 699 180 60 91 131
155 699 181 59 95 129
154 701 176 61 91 132
154 701 177 57 87 132
155 700 176 73 104 134
155 700 177 52 92 130
155 701 177 75 101 138
155 700 178 44 85 128
155 700 179 55 90 131
155 701 178 69 96 136
155 701 179 77 103 139
154 702 176 45 73 126
154 702 177 49 79 129
154 703 176 33 67 123
154 703 177 46 75 127
154 702 178 61 88 131
154 703 178 62 88 132
154 703 179 65 91 134
155 702 178 68 94 134
155 702 179 88 109 143
155 703 179 74 97 136
155 700 180 63 94 134
155 700 181 64 96 133
155 701 180 77 103 138
155 701 181 71 102 135
155 700 182 72 104 133
155 701 182 81 108 134
155 701 183 101 121 142
154 703 180 61 88 133
155 702 180 90 111 145
155 702 181 73 102 135
155 703 180 76 100 139
155 703 181 71 97 134
155 702 182 91 114 139
155 702 183 104 124 144
155 703 182 91 115 141
155 703 183 102 125 148
156 696 178 129 137 150
156 696 179 128 137 149
156 696 180 112 127 145
156 696 181 87 112 137
156 697 180 137 144 156
156 697 181 117 131 148
156 696 182 71 102 132
156 697 182 72 104 132
157 696 182 59 93 132
157 696 183 63 91 131
157 697 182 53 92 128
157 697 183 70 100 132
156 698 181 92 115 138
156 698 182 67 103 133
156 698 183 83 112 139
156 699 182 70 104 134
156 699 183 92 117 143
157 698 183 98 120 142
156 700 182 82 111 138
156 700 183 99 122 146
156 701 183 105 124 145
155 702 184 109 126 145
155 703 184 104 126 148
155 703 185 105 127 149
157 696 184 75 98 132
157 697 184 88 109 134
157 697 185 94 111 131
156 699 184 103 123 144
157 698 184 113 128 147
157 698 185 114 125 140
157 699 184 115 130 148
157 699 185 123 133 147
157 699 186 128 135 146
158 696 184 76 96 130
158 696 185 87 102 128
158 697 185 90 106 127
158 696 186 101 110 130
158 697 186 101 110 127
158 697 187 105 112 125
159 696 186 109 116 131
159 696 187 114 120 132
159 697 186 105 112 127
159 697 187 112 117 129
158 698 185 105 117 132
158 698 186 109 118 131
158 698 187 117 122 132
158 699 186 125 131 142
158 699 187 132 134 142
159 698 187 123 126 135
159 697 188 126 131 141
159 698 188 143 143 149
159 698 189 152 150 155
159 699 188 147 145 149
159 699 189 153 150 154
156 700 184 114 133 153
156 700 185 127 139 156
156 701 184 116 131 149
156 701 185 129 139 153
157 700 185 127 138 153
156 701 186 131 137 148
157 700 186 131 138 151
157 700 187 133 137 146
157 701 186 131 137 148
157 701 187 133 136 145
156 702 184 117 132 149
156 702 185 128 138 152
156 703 185 114 131 150
156 702 186 129 136 147
156 703 186 116 130 147
156 703 187 121 132 147
157 702 186 123 130 140
157 702 187 126 132 143
157 703 187 122 132 146
158 700 187 135 136 144
157 702 188 138 141 150
157 703 188 130 136 148
157 703 189 136 141 151
158 700 188 145 143 147
158 700 189 150 147 151
158 701 188 144 145 150
158 701 189 151 149 155
159 700 188 150 146 150
159 700 189 153 149 153
159 701 189 152 150 154
159 700 190 151 150 155
159 701 190 148 148 154
159 701 191 139 145 156
158 702 188 144 145 153
158 702 189 148 149 157
158 703 189 139 143 153
158 702 190 148 150 157
158 703 190 141 144 154
158 703 191 136 141 151
159 702 190 147 148 155
159 702 191 136 141 151
159 703 191 132 139 150
