ply
format ascii 1.0
comment Version 2, Copyright 2017, 8i Labs, Inc.
comment frame_to_world_scale 0.179523
comment frame_to_world_translation -45.2095 7.18301 -54.3561
comment width 1023
element vertex 1442
property float x
property float y
property float z
property uchar red
property uchar green
property uchar blue
end_header
141 736 160 127 142 162
141 737 160 116 134 154
141 738 160 120 137 157
141 739 160 133 147 164
142 736 160 125 142 162
142 736 161 121 139 159
142 737 160 108 128 150
142 737 161 110 130 151
143 736 161 119 136 157
143 737 161 113 131 152
143 736 162 121 138 158
143 737 162 121 136 155
142 738 160 110 131 153
142 738 161 111 131 153
142 739 161 123 140 160
143 738 162 121 138 158
143 739 162 122 139 159
140 741 160 134 148 165
141 740 160 127 142 160
141 741 160 124 140 159
140 742 160 132 145 162
140 743 160 129 142 160
141 742 160 129 143 161
141 742 161 120 138 157
141 743 160 130 145 163
141 743 161 126 142 162
142 740 161 123 140 160
142 741 161 115 135 156
142 740 162 121 138 158
142 741 162 114 132 153
143 740 162 120 137 157
143 741 162 117 133 153
142 742 161 104 126 149
142 742 162 108 128 150
142 743 162 115 135 157
143 742 162 111 129 149
143 742 163 113 130 149
143 743 162 114 134 155
143 743 163 117 134 154
139 745 160 129 148 171
139 746 160 133 146 163
139 747 160 134 146 163
138 748 160 118 138 161
138 749 160 121 140 163
139 748 160 124 141 161
139 748 161 116 135 155
139 749 160 126 143 166
139 749 161 131 148 169
138 750 160 125 141 162
138 751 160 125 141 160
139 750 160 127 141 164
139 750 161 133 146 167
139 751 161 129 144 163
139 751 162 140 155 174
140 744 160 116 137 159
140 745 160 131 150 171
140 745 161 129 147 169
141 744 161 120 139 161
141 745 161 128 147 167
141 744 162 122 142 164
141 745 162 124 142 164
140 746 160 133 147 166
140 746 161 133 147 165
140 747 161 128 143 161
141 746 161 131 146 166
141 746 162 122 140 161
141 747 162 124 142 163
142 744 162 117 138 160
142 745 162 118 137 159
142 745 163 113 133 155
143 744 163 117 136 157
143 745 163 116 134 154
142 746 162 114 134 156
142 746 163 108 130 153
142 747 163 113 134 157
143 746 163 108 128 150
143 747 163 111 130 151
143 745 164 116 132 151
143 746 164 114 130 150
143 747 164 115 132 152
140 748 161 110 132 155
140 749 161 120 141 164
140 748 162 113 134 156
140 749 162 121 142 164
141 748 162 119 139 161
141 748 163 116 139 163
141 749 162 122 142 164
141 749 163 119 141 164
140 750 162 129 146 167
140 751 162 113 135 158
141 750 162 124 143 164
141 750 163 120 139 161
141 751 162 99 123 148
141 751 163 99 123 146
142 748 163 117 137 160
142 749 163 116 138 161
142 750 163 115 134 156
142 751 163 104 126 148
143 748 164 116 134 154
143 749 164 118 136 157
143 750 164 120 136 156
143 751 164 112 131 152
135 767 160 114 125 144
137 754 160 126 144 165
137 755 160 124 142 162
138 752 160 117 136 158
138 753 160 116 138 161
138 753 161 127 146 167
139 752 161 141 155 173
139 753 161 134 151 172
139 752 162 151 165 185
139 753 162 135 153 174
138 754 160 127 145 167
138 754 161 128 146 168
138 755 160 127 144 164
138 755 161 122 140 161
139 754 161 128 146 167
139 755 161 122 139 159
139 754 162 125 144 165
139 755 162 118 135 154
137 756 160 119 139 161
137 756 161 108 132 155
137 757 160 120 141 163
137 757 161 112 136 161
136 759 160 113 137 162
137 758 160 126 145 167
137 758 161 123 144 167
137 759 160 120 141 164
137 759 161 121 143 166
138 756 161 102 126 149
138 757 161 110 133 158
139 756 162 115 131 150
139 757 162 143 153 172
138 758 161 124 146 169
138 759 161 125 147 171
139 758 162 131 147 168
139 759 162 118 143 167
140 752 162 126 147 170
140 753 162 129 149 171
141 752 162 99 126 151
141 752 163 98 124 148
141 753 162 117 139 162
141 753 163 114 134 157
140 754 162 120 139 160
140 755 162 113 130 149
141 754 162 113 133 155
141 754 163 105 126 147
141 755 163 106 124 142
142 752 163 107 130 153
142 753 163 112 133 156
142 754 163 104 123 144
142 755 163 103 117 134
142 753 164 121 139 161
143 752 164 112 133 155
143 753 164 108 129 152
142 754 164 99 117 136
142 755 164 91 103 118
143 754 164 87 106 124
143 755 164 95 96 108
143 755 165 91 84 95
140 756 162 126 138 154
140 756 163 133 142 157
140 757 162 163 166 181
140 757 163 145 150 165
141 756 163 116 128 144
141 757 163 127 135 150
140 758 162 129 140 159
140 758 163 112 123 140
140 759 162 94 119 145
140 759 163 66 88 119
141 758 163 111 111 129
141 759 163 87 87 115
142 756 163 125 125 141
142 757 163 131 121 135
141 759 164 100 90 115
142 757 164 141 111 126
143 756 164 128 108 121
143 756 165 114 74 87
143 757 164 141 90 101
143 757 165 135 63 74
142 758 164 126 80 95
142 758 165 130 56 75
142 759 164 117 92 106
142 759 165 123 74 87
143 758 165 135 42 55
143 759 165 130 56 65
143 758 166 139 40 46
143 759 166 143 76 77
136 760 160 115 140 166
136 761 160 123 145 170
137 760 160 122 145 170
137 760 161 131 151 174
137 761 160 126 147 171
137 761 161 132 151 173
136 762 160 124 145 169
136 763 160 114 139 164
137 762 160 126 146 169
137 762 161 129 147 168
137 763 160 113 137 161
137 763 161 114 136 159
138 760 161 131 152 175
138 761 161 135 153 175
139 760 162 117 143 170
139 761 162 127 150 176
138 762 161 135 152 173
138 763 161 121 139 161
138 763 162 125 143 163
139 762 162 133 152 175
139 763 162 127 147 169
136 764 160 115 139 164
136 764 161 109 135 161
136 765 160 125 145 167
136 765 161 116 139 163
137 764 161 93 123 150
137 765 161 100 128 154
136 766 160 124 144 164
136 766 161 118 140 163
136 767 160 116 134 155
136 767 161 114 135 157
137 766 161 112 135 159
137 767 161 109 133 158
138 764 161 97 124 150
138 765 161 97 126 153
138 764 162 108 131 156
138 765 162 107 133 158
139 764 162 113 137 163
139 765 162 115 140 166
138 766 161 112 135 159
138 767 161 107 133 158
138 766 162 116 138 162
138 767 162 110 135 159
139 766 162 124 147 171
139 767 162 118 142 166
140 760 162 84 121 151
140 760 163 44 88 124
140 761 162 105 136 165
140 761 163 82 116 146
141 760 163 57 74 110
141 761 163 68 95 125
140 762 162 120 146 173
140 762 163 104 130 155
140 763 163 107 131 156
141 762 163 84 109 135
141 763 163 83 107 131
141 760 164 90 89 113
141 761 164 83 89 114
141 762 164 81 91 113
141 763 164 72 85 112
142 760 164 103 96 111
142 760 165 114 86 91
142 761 164 94 97 116
142 761 165 110 92 101
143 760 165 128 78 79
143 761 165 122 83 86
143 760 166 140 86 84
143 760 167 144 79 83
143 761 166 135 67 79
143 761 167 139 48 62
142 762 164 95 93 108
142 762 165 105 74 87
142 763 165 99 86 95
143 762 166 122 51 64
143 762 167 130 44 53
143 763 166 119 67 70
143 763 167 126 67 60
140 764 163 99 127 154
140 765 163 99 129 157
141 764 163 81 107 133
141 765 163 84 109 138
140 766 162 122 147 172
140 766 163 105 134 160
140 767 162 122 146 171
140 767 163 109 137 165
141 766 163 81 107 137
141 767 163 81 111 142
141 764 164 64 81 112
141 765 164 65 86 118
141 766 164 67 88 120
141 767 164 59 79 119
142 764 164 68 77 107
142 764 165 100 93 102
142 765 164 63 71 104
142 765 165 83 81 98
143 765 165 103 89 93
143 764 166 128 84 87
143 764 167 130 70 76
143 765 166 108 74 76
143 765 167 120 60 65
142 766 164 60 70 106
142 766 165 71 73 99
142 767 164 53 65 107
142 767 165 66 73 103
143 766 165 82 83 92
143 767 165 77 84 99
143 766 166 90 81 84
143 766 167 117 82 81
143 767 166 77 77 83
143 767 167 95 63 67
143 762 168 133 48 50
143 763 168 138 78 70
143 764 168 133 75 73
143 765 168 127 49 52
143 766 168 130 70 68
143 767 168 113 56 57
144 736 163 128 142 161
144 737 163 127 139 155
144 738 163 122 137 156
144 739 163 123 140 160
145 738 163 116 133 153
145 739 163 116 134 155
145 736 164 127 139 155
145 736 165 124 138 156
145 737 164 133 141 154
145 738 164 123 135 151
145 739 164 117 135 156
146 736 165 125 140 158
146 737 165 135 143 155
146 737 166 130 140 155
147 736 166 125 140 159
147 736 167 125 139 158
147 737 166 127 139 156
147 737 167 125 138 156
146 738 165 126 139 156
146 739 165 117 135 156
146 738 166 118 135 156
146 739 166 115 136 159
147 738 166 112 132 153
147 738 167 110 131 154
147 739 166 110 135 160
147 739 167 106 133 159
144 740 163 124 140 159
144 741 163 124 138 156
145 740 163 129 144 163
144 742 163 123 136 154
144 743 163 120 135 155
145 740 164 127 141 160
145 741 164 132 143 159
144 742 164 128 141 157
144 743 164 119 136 156
145 742 164 130 141 156
145 742 165 128 138 153
145 743 164 113 131 151
145 743 165 112 129 148
146 740 165 125 139 157
146 741 165 140 149 163
146 740 166 126 140 158
146 741 166 142 150 164
147 740 166 121 138 159
147 740 167 116 135 157
147 741 166 131 143 159
147 741 167 120 135 154
146 742 165 132 141 154
146 743 165 117 132 150
146 742 166 125 137 153
146 743 166 118 133 152
146 743 167 116 133 153
147 742 167 109 128 150
147 743 167 114 133 154
148 736 167 121 138 157
148 737 167 125 138 156
147 738 168 110 131 154
147 739 168 105 130 155
147 740 168 113 133 154
147 740 169 117 135 155
147 741 168 114 131 151
147 741 169 117 134 153
147 741 170 119 134 153
147 742 168 101 126 150
147 742 169 111 131 153
147 743 168 112 132 155
147 743 169 114 133 154
147 742 170 112 131 152
147 742 171 110 128 148
147 743 170 105 127 150
147 743 171 100 123 147
147 742 172 115 131 150
147 742 173 125 138 155
147 743 172 112 131 151
147 743 173 124 138 156
148 736 168 120 136 156
148 736 169 123 137 155
148 737 168 123 137 154
148 737 169 123 137 154
149 736 168 116 136 157
149 736 169 120 136 156
148 737 170 119 134 153
148 737 171 117 132 150
149 736 170 121 136 154
149 736 171 118 134 153
148 738 168 118 134 154
148 738 169 108 130 153
148 739 169 106 130 154
148 738 170 107 129 151
148 738 171 107 127 149
148 739 170 109 133 157
148 739 171 107 131 155
148 736 173 117 135 155
148 737 172 120 134 151
148 737 173 123 136 152
149 736 172 118 136 157
149 736 173 115 135 157
148 736 174 116 134 154
148 737 174 119 133 150
148 737 175 112 127 144
149 736 174 112 132 153
149 736 175 118 134 152
149 737 175 118 131 148
148 738 172 111 129 149
148 738 173 116 134 154
148 739 172 107 130 154
148 739 173 100 129 157
148 738 174 137 150 167
148 738 175 128 143 162
148 739 174 119 142 168
148 739 175 119 140 166
148 740 169 117 136 158
148 740 170 118 138 159
148 740 171 114 134 156
148 741 170 119 135 155
148 741 171 120 135 153
148 742 171 120 133 151
148 740 172 114 134 156
148 740 173 113 137 161
148 741 172 120 135 154
148 741 173 123 139 157
148 740 174 110 136 162
148 740 175 110 134 158
148 741 174 123 138 156
148 741 175 119 134 152
148 742 172 122 135 151
148 742 173 127 139 155
148 743 173 124 139 157
148 742 174 122 137 156
148 742 175 116 133 152
148 743 174 113 135 158
148 743 175 119 140 163
144 744 164 123 141 161
144 745 164 125 141 160
144 745 165 119 136 155
145 744 165 108 129 151
145 745 165 116 134 154
145 745 166 114 131 151
144 746 164 118 133 152
144 746 165 121 135 153
144 747 164 117 132 150
144 747 165 122 135 152
145 746 165 122 136 154
145 747 165 124 137 154
145 746 166 125 138 156
145 747 166 122 136 154
146 744 166 113 130 149
146 744 167 118 133 151
146 745 166 117 132 150
146 745 167 119 132 149
146 746 166 126 140 157
146 746 167 127 140 157
146 747 167 117 133 152
144 748 164 119 134 153
144 748 165 122 136 153
144 749 164 120 136 155
144 749 165 123 137 155
145 748 165 123 136 153
145 748 166 120 134 152
145 749 166 121 135 153
145 749 167 117 133 152
144 750 165 125 139 157
144 751 165 122 136 153
144 750 166 121 135 153
144 751 166 121 135 153
145 750 166 114 130 148
145 750 167 112 126 143
145 751 166 111 128 147
145 751 167 111 127 146
146 748 167 112 130 151
146 749 167 117 133 152
146 744 168 120 134 151
146 745 168 121 134 150
147 744 168 120 135 153
147 744 169 120 135 153
147 745 168 123 136 152
147 745 169 123 137 155
147 744 170 114 131 150
147 744 171 107 127 149
147 745 170 119 134 152
147 745 171 112 129 149
146 746 168 116 132 151
146 746 169 108 129 151
146 747 168 103 126 149
146 747 169 97 124 150
147 746 169 118 134 153
146 747 170 103 128 152
147 746 170 111 130 150
147 746 171 110 129 149
147 747 170 101 125 149
147 747 171 102 125 148
147 744 172 116 133 154
147 744 173 125 139 156
147 745 172 116 133 151
147 745 173 125 138 155
147 744 174 121 136 155
147 745 174 123 135 150
147 745 175 116 124 136
147 746 172 110 130 150
147 746 173 116 132 151
147 747 172 100 126 150
147 747 173 105 129 153
147 746 174 122 134 149
147 746 175 126 125 135
147 747 174 115 130 148
147 747 175 123 125 134
145 750 168 117 130 145
145 751 168 124 137 155
146 748 168 104 128 151
146 748 169 102 127 152
146 749 168 113 130 150
146 749 169 111 128 148
146 748 170 105 128 151
146 749 170 109 126 146
147 748 170 104 127 150
147 748 171 106 127 150
147 749 170 110 128 149
147 749 171 112 129 149
146 750 168 128 138 152
146 750 169 125 138 154
146 751 168 131 143 161
146 751 169 125 141 160
146 750 170 105 122 141
146 750 171 111 125 143
146 751 170 116 133 153
146 751 171 117 131 149
147 750 171 115 129 146
147 748 172 107 131 155
147 748 173 109 132 156
147 749 172 116 134 154
147 749 173 113 134 155
147 748 174 114 132 151
147 748 175 122 129 141
147 749 174 116 133 150
147 749 175 125 135 147
146 751 172 123 137 154
146 751 173 114 133 154
147 750 172 121 135 152
147 750 173 119 135 153
147 751 172 124 137 153
147 751 173 114 133 153
147 750 174 111 128 145
147 750 175 102 116 131
147 751 174 103 124 144
147 751 175 86 102 123
148 744 174 116 134 154
148 744 175 115 131 150
148 745 175 112 119 132
148 737 176 103 121 141
149 736 176 123 137 153
149 736 177 125 139 156
149 737 176 112 127 146
149 737 177 110 127 146
149 736 178 123 138 157
149 736 179 120 136 156
149 737 178 120 134 152
149 737 179 117 133 152
148 738 176 127 143 163
148 739 176 125 144 166
149 738 176 112 131 151
149 738 177 132 148 169
149 739 177 130 148 170
149 738 178 117 136 158
149 738 179 110 131 153
149 739 178 119 138 161
149 739 179 118 137 159
149 736 180 119 135 155
149 737 180 111 129 149
149 738 180 114 132 153
149 738 181 124 138 157
149 739 180 121 138 158
149 739 181 123 138 156
150 736 180 119 136 155
150 736 181 123 138 156
150 737 181 121 136 154
150 736 182 126 142 161
150 736 183 136 150 168
150 737 182 127 139 156
150 737 183 130 143 160
150 738 181 124 137 154
150 739 181 124 138 155
150 738 182 126 138 155
150 738 183 122 137 155
150 739 182 123 137 155
150 739 183 117 133 152
148 740 176 110 132 154
148 740 177 114 133 154
148 741 176 113 129 148
148 741 177 112 129 148
149 740 177 117 136 158
149 741 177 114 131 150
149 740 178 120 136 156
149 740 179 119 136 155
149 741 178 108 126 145
149 741 179 110 127 146
148 742 176 117 132 150
148 742 177 107 124 143
148 743 176 129 144 163
148 743 177 97 116 135
148 742 178 118 132 150
148 743 178 115 128 143
149 742 178 120 135 153
149 742 179 132 145 162
149 743 179 126 139 155
149 740 180 120 136 155
149 740 181 122 138 156
149 741 180 119 136 155
149 741 181 121 137 157
149 742 180 128 142 161
149 742 181 114 131 152
149 743 180 123 139 157
149 743 181 124 142 163
149 742 182 112 130 151
149 743 182 115 135 158
150 740 181 122 138 157
150 740 182 122 138 157
150 740 183 123 140 160
150 741 182 123 139 158
150 741 183 124 140 160
150 742 182 116 132 152
150 742 183 113 131 151
150 743 182 113 134 157
150 743 183 110 133 157
150 736 184 131 148 170
150 736 185 131 150 172
150 737 184 131 146 164
150 737 185 123 143 164
151 736 185 141 160 183
151 737 185 123 144 166
151 736 186 125 151 177
151 736 187 111 136 163
151 737 186 119 142 167
151 737 187 117 140 164
150 738 184 112 129 149
150 738 185 106 126 147
150 739 184 108 127 148
150 739 185 112 132 154
151 738 185 108 127 148
151 739 185 114 133 155
151 738 186 115 133 152
151 738 187 123 139 158
151 739 186 114 132 154
151 739 187 113 133 154
151 736 188 125 142 162
151 737 188 126 142 162
151 738 188 125 141 159
151 739 188 114 136 159
151 739 189 122 140 161
150 740 184 123 141 162
150 740 185 115 135 157
150 741 184 121 137 157
150 741 185 114 133 154
151 740 185 112 132 154
151 741 185 112 131 152
151 740 186 109 130 152
151 740 187 109 132 155
151 741 186 116 135 155
151 741 187 122 141 162
150 742 184 113 131 151
150 742 185 119 137 158
150 743 184 118 140 162
150 743 185 131 150 173
150 742 186 126 145 166
150 743 186 124 145 169
151 742 186 118 136 157
151 742 187 118 135 156
151 743 186 118 140 164
151 743 187 115 136 156
151 740 188 117 139 162
151 740 189 129 144 163
151 741 188 125 143 163
151 741 189 127 139 154
151 742 188 110 129 149
151 742 189 106 118 138
151 743 188 105 123 146
151 743 189 90 95 126
151 742 190 113 113 135
151 743 190 99 86 115
147 746 176 133 105 112
147 747 176 122 95 99
147 748 176 118 107 112
147 748 177 131 96 102
147 749 176 133 131 135
147 749 177 139 114 116
147 750 176 120 113 120
147 750 177 125 83 87
147 751 176 96 93 109
147 751 177 115 74 79
148 744 176 103 116 130
148 744 177 90 100 112
148 745 176 115 109 115
148 745 177 131 125 129
148 744 178 114 121 131
148 744 179 125 133 143
148 745 178 112 107 111
148 745 179 118 118 127
149 744 179 124 134 146
148 746 176 133 99 106
148 746 177 144 93 105
148 747 176 124 75 80
148 747 177 128 38 56
148 746 178 125 66 82
148 746 179 133 95 108
148 747 178 131 25 42
148 747 179 130 47 55
149 744 180 122 136 153
149 744 181 120 141 162
149 745 180 132 143 156
149 745 181 126 144 163
149 744 182 113 135 158
149 745 182 116 137 158
149 745 183 113 135 158
148 746 180 144 133 142
148 747 180 114 70 79
148 747 181 107 84 95
149 746 180 169 172 181
149 746 181 134 145 160
149 747 181 111 111 125
149 746 182 106 131 154
149 746 183 99 127 152
149 747 182 130 145 164
149 747 183 130 151 174
150 744 183 111 135 159
150 745 183 112 134 157
150 746 183 105 128 152
148 748 177 133 63 76
148 749 177 142 79 85
148 748 178 136 33 46
148 748 179 137 42 46
148 749 178 142 45 51
148 749 179 151 56 64
148 750 177 132 48 59
148 751 177 126 50 64
148 750 178 134 36 44
148 750 179 134 40 45
148 751 178 132 49 60
148 751 179 139 59 57
148 748 180 136 77 75
148 748 181 136 106 105
148 749 180 154 77 79
148 749 181 141 82 82
149 748 181 131 113 118
149 749 181 132 83 83
149 748 182 125 123 134
149 748 183 116 134 151
149 749 182 125 92 99
149 749 183 112 112 126
148 750 180 137 34 44
148 750 181 137 35 45
148 751 180 155 74 75
148 751 181 147 45 55
149 750 181 130 50 55
148 751 182 133 36 43
149 750 182 131 61 72
149 750 183 130 94 102
149 751 182 131 50 57
149 751 183 120 69 66
149 747 184 109 138 165
150 744 184 118 140 164
150 744 185 117 140 164
150 745 184 110 130 152
150 745 185 117 136 158
150 744 186 123 144 166
150 745 186 136 150 168
150 745 187 146 158 172
151 744 187 128 145 163
151 745 187 143 155 172
150 746 184 103 126 149
150 746 185 107 128 150
150 747 184 97 128 156
150 747 185 103 132 160
150 746 186 113 132 153
150 746 187 121 138 157
150 747 186 121 142 164
150 747 187 113 135 158
151 744 188 117 135 157
151 744 189 91 99 139
151 745 188 139 155 181
151 745 189 117 134 177
151 744 190 88 71 124
151 745 190 98 97 161
150 747 188 101 127 152
151 746 188 104 127 159
151 746 189 70 90 153
151 747 188 82 112 143
151 747 189 55 80 139
151 746 190 64 70 152
151 747 190 68 74 144
149 748 184 105 132 158
149 748 185 94 127 156
149 749 184 122 141 159
149 749 185 103 132 158
149 750 184 131 131 144
149 750 185 112 134 155
149 751 184 105 86 92
149 751 185 94 115 136
149 750 186 93 125 152
150 748 185 99 130 159
150 749 185 91 124 152
150 748 186 110 136 161
150 748 187 115 138 162
150 749 186 94 126 155
150 749 187 110 136 161
150 750 186 87 122 152
150 750 187 95 128 157
150 751 186 78 121 153
150 751 187 83 129 163
150 748 188 113 137 159
150 749 188 119 139 160
151 748 188 103 126 149
151 748 189 68 92 132
151 749 188 113 134 153
151 749 189 71 93 123
151 748 190 65 71 128
151 749 190 47 56 104
150 750 188 101 131 157
150 751 188 100 138 170
151 750 188 96 126 151
151 750 189 65 89 130
151 751 188 90 130 163
151 751 189 60 95 141
151 750 190 41 54 119
152 736 189 128 143 160
152 737 189 130 143 160
152 736 190 130 144 160
152 736 191 122 136 154
152 737 190 129 136 148
152 737 191 109 112 125
152 738 189 125 138 155
152 739 189 122 135 154
152 738 190 122 117 125
152 738 191 121 74 91
152 739 190 133 118 126
152 739 191 148 84 93
152 740 189 133 143 158
152 741 189 131 141 154
152 740 190 143 126 130
152 740 191 149 74 71
152 741 190 131 115 120
152 741 191 138 64 72
152 742 190 141 128 137
152 742 191 173 135 137
152 743 190 144 123 137
152 743 191 171 130 137
152 744 190 117 83 124
152 744 191 138 78 96
152 745 190 124 111 157
152 745 191 146 109 122
152 746 190 106 93 154
152 746 191 134 102 126
152 747 190 104 101 153
152 747 191 124 109 136
152 748 190 101 105 142
152 748 191 153 149 163
152 749 190 71 70 111
152 749 191 112 106 127
153 749 191 95 77 103
152 750 190 59 73 127
152 750 191 77 82 116
152 751 190 46 67 125
153 750 191 86 71 99
153 751 191 74 78 101
144 752 165 118 134 151
144 753 165 110 127 146
144 753 166 122 134 150
145 752 166 120 135 152
145 752 167 122 137 156
145 753 166 125 137 152
145 753 167 123 137 154
144 754 165 104 119 134
144 755 165 108 111 120
144 754 166 120 132 146
144 755 166 123 129 137
144 755 167 123 131 141
145 754 166 123 134 149
145 754 167 122 134 150
145 755 167 121 131 142
144 756 165 107 78 87
144 757 165 129 68 77
144 756 166 117 102 103
144 756 167 117 112 114
144 757 166 130 69 73
144 757 167 122 81 81
144 758 166 135 44 52
144 758 167 120 50 51
144 759 167 149 81 85
145 752 168 125 140 158
145 752 169 113 130 150
145 753 168 120 135 153
145 753 169 112 128 147
145 754 168 121 135 152
145 754 169 124 138 155
145 755 168 115 130 147
145 755 169 132 147 165
145 754 170 127 141 159
145 755 170 122 140 160
146 752 169 107 127 148
146 753 169 105 123 142
146 752 170 110 127 147
146 752 171 120 134 152
146 753 170 110 125 143
146 753 171 118 131 148
146 754 170 116 129 146
146 754 171 118 131 147
146 755 171 102 122 144
146 752 172 124 138 156
146 752 173 107 129 151
146 753 172 122 137 154
146 753 173 110 131 153
147 752 173 94 122 148
147 753 173 89 120 147
147 752 174 75 110 138
147 752 175 57 81 115
147 753 174 67 103 132
147 753 175 39 67 106
146 754 172 113 130 149
146 754 173 114 132 152
146 755 172 103 125 148
146 755 173 114 132 152
146 754 174 109 128 148
146 755 174 108 126 145
146 755 175 99 116 136
147 754 174 95 117 140
147 754 175 72 93 119
147 755 175 85 105 126
144 757 168 114 86 84
145 756 168 118 122 132
145 756 169 123 138 155
145 757 168 119 110 112
145 757 169 113 123 135
145 756 170 110 131 153
145 756 171 103 124 147
145 757 170 106 126 146
145 757 171 108 128 149
144 758 168 118 72 69
144 759 168 149 86 89
144 759 169 131 61 71
145 758 168 105 89 91
145 758 169 123 114 119
145 759 169 122 82 92
145 758 170 120 127 142
145 758 171 108 127 148
145 759 170 113 98 110
145 759 171 103 111 128
146 756 171 106 124 144
145 757 172 108 128 149
145 758 172 98 122 145
145 758 173 96 122 145
145 759 172 99 117 136
145 759 173 107 126 147
146 756 172 112 129 149
146 756 173 117 133 153
146 757 172 109 127 145
146 757 173 109 127 146
146 756 174 112 128 147
146 756 175 90 111 132
146 757 174 109 128 148
146 757 175 91 112 134
146 758 173 102 124 147
146 759 173 114 133 153
146 758 174 110 129 150
146 758 175 94 115 137
146 759 174 121 138 158
146 759 175 111 127 148
144 760 167 139 69 74
144 760 168 137 52 56
144 760 169 128 37 41
144 761 168 137 41 49
144 761 169 136 45 46
144 760 170 127 68 69
144 761 170 140 75 84
145 760 170 126 82 83
145 760 171 128 110 119
145 761 170 145 102 110
145 761 171 139 105 117
144 762 168 135 49 52
144 762 169 137 45 52
144 763 168 139 83 76
144 763 169 135 68 67
144 762 170 133 42 59
144 763 170 125 37 53
144 763 171 124 39 51
145 762 171 132 63 76
145 763 171 125 58 65
145 760 172 119 122 133
145 760 173 109 125 145
145 761 172 143 127 141
145 761 173 135 142 163
145 760 174 114 135 159
145 761 174 105 128 156
145 761 175 89 120 149
145 762 172 119 82 90
145 762 173 115 112 136
145 763 172 132 84 87
145 763 173 117 90 101
145 762 174 97 119 147
145 762 175 103 130 157
145 763 174 106 115 127
145 763 175 116 133 149
146 760 174 118 139 160
146 760 175 105 130 153
146 761 175 92 124 152
146 762 175 91 121 150
144 764 168 131 77 72
144 764 169 132 81 73
144 765 168 126 49 49
144 765 169 142 86 84
144 764 170 136 79 73
144 764 171 138 62 66
144 765 170 157 108 99
144 765 171 147 69 67
144 766 168 130 57 56
144 766 169 132 53 52
144 767 168 120 51 48
144 767 169 128 50 51
144 766 170 142 84 73
144 766 171 143 72 66
144 767 170 153 101 99
144 767 171 156 93 95
145 764 172 137 68 69
145 764 173 123 63 68
145 765 172 131 37 41
145 765 173 122 57 67
145 764 174 98 84 93
145 764 175 103 117 132
145 765 174 110 97 112
145 765 175 97 114 134
144 766 172 139 50 45
144 767 172 145 56 61
145 766 172 137 43 45
145 766 173 149 73 84
145 767 172 145 55 58
145 767 173 148 51 64
145 766 174 151 122 138
145 766 175 118 123 144
145 767 174 139 62 85
145 767 175 123 76 98
147 752 176 75 74 100
147 752 177 111 83 82
147 753 176 65 68 100
147 753 177 118 103 104
147 753 178 146 99 94
147 754 176 68 73 104
147 754 177 98 83 93
147 755 176 63 72 103
147 755 177 80 72 91
147 754 178 121 66 69
147 755 178 104 77 72
147 755 179 134 84 75
146 756 176 60 86 109
146 757 176 53 78 107
147 756 176 53 70 99
147 756 177 66 71 91
147 757 176 40 65 98
147 757 177 53 62 92
147 756 178 103 91 88
147 756 179 130 88 78
147 757 178 89 80 83
147 757 179 103 54 51
146 758 176 55 79 109
146 758 177 45 55 96
146 759 176 78 93 118
146 759 177 48 57 97
147 758 177 52 62 94
146 759 178 62 66 93
147 758 178 77 73 87
147 758 179 91 55 59
147 759 178 69 69 87
147 759 179 80 57 66
147 756 180 140 68 65
147 757 180 126 38 39
147 758 180 118 31 44
147 758 181 135 19 49
147 759 180 102 33 48
147 759 181 127 33 53
148 752 178 140 73 70
148 752 179 147 67 63
148 753 178 152 94 88
148 753 179 149 68 72
148 754 178 135 72 73
148 754 179 131 44 51
148 755 179 137 66 64
148 752 180 144 48 59
148 752 181 142 39 47
148 753 180 138 27 51
148 753 181 136 39 44
148 752 182 138 52 48
148 753 182 140 53 52
149 752 182 138 77 63
149 752 183 139 91 80
149 753 182 148 85 72
149 753 183 151 82 80
148 754 180 144 58 68
148 754 181 149 78 81
148 755 180 148 63 66
148 755 181 149 57 65
148 754 182 142 57 67
148 755 182 144 47 50
148 755 183 158 65 69
149 754 183 140 47 62
149 755 183 155 72 77
148 756 180 146 56 63
148 756 181 145 20 41
148 757 180 136 35 44
148 757 181 143 15 42
148 756 182 147 27 37
148 756 183 152 35 48
148 757 182 146 26 41
148 757 183 146 25 46
149 756 183 156 52 61
149 757 183 149 33 53
148 758 181 143 19 44
148 759 181 139 23 45
148 758 182 144 32 42
148 758 183 144 39 46
148 759 182 144 20 44
148 759 183 145 23 42
149 758 183 147 41 52
149 759 183 147 22 47
149 752 184 117 86 86
149 752 185 87 104 125
149 753 184 145 100 110
149 753 185 141 143 157
149 752 186 80 119 151
149 753 186 121 150 174
149 754 184 142 77 84
149 754 185 137 113 121
149 755 184 166 108 103
149 755 185 146 87 87
149 754 186 130 134 151
150 752 186 69 121 157
150 752 187 107 145 177
150 753 186 83 129 162
150 753 187 91 129 159
150 754 186 94 99 121
150 754 187 79 108 131
150 755 186 118 57 77
150 755 187 126 117 128
151 754 187 83 110 131
151 755 187 145 148 161
150 752 188 148 174 199
151 752 188 143 167 191
151 752 189 74 100 143
151 753 188 122 145 168
151 753 189 99 122 148
151 754 188 103 125 148
151 754 189 101 124 148
151 755 188 149 164 184
149 756 184 154 53 63
149 756 185 149 41 51
149 757 184 148 27 46
149 757 185 147 20 35
149 758 184 152 38 50
149 758 185 163 53 64
149 759 184 154 26 43
149 759 185 170 59 70
150 756 185 144 52 62
150 757 185 146 22 32
150 756 186 137 36 61
150 757 186 140 31 45
151 756 187 140 116 129
151 757 186 133 48 62
151 757 187 109 63 82
150 758 185 171 90 94
150 759 185 165 56 60
150 758 186 176 113 116
150 759 186 171 82 88
151 758 186 163 104 108
151 758 187 119 74 91
151 759 186 157 72 84
151 759 187 139 62 91
151 756 188 156 158 176
151 757 188 105 110 132
145 763 176 116 134 152
146 760 176 81 104 131
146 760 177 50 64 107
146 761 176 80 108 139
146 761 177 51 65 117
146 760 178 61 67 95
146 761 178 61 62 97
147 760 179 81 66 74
147 761 179 85 76 84
146 762 176 89 116 145
146 762 177 52 63 115
146 763 176 105 126 147
146 763 177 69 84 117
146 762 178 59 48 97
146 762 179 78 70 90
146 763 178 53 46 98
146 763 179 72 61 92
147 762 179 91 81 92
147 763 179 76 61 90
147 760 180 93 55 61
147 760 181 122 55 59
147 761 180 113 102 102
147 761 181 138 106 103
147 762 180 102 92 92
147 762 181 101 75 82
147 763 180 73 51 72
147 763 181 73 24 50
145 764 176 110 132 152
145 764 177 104 126 148
145 765 176 102 127 150
145 765 177 101 127 151
145 766 176 108 130 151
145 766 177 107 131 155
145 767 176 115 106 121
145 767 177 117 127 141
146 764 177 80 99 127
146 765 177 79 106 135
146 764 178 48 53 107
146 764 179 55 51 97
146 765 178 47 62 114
146 765 179 44 47 102
147 764 179 67 56 90
147 765 179 60 54 94
146 766 177 86 113 140
146 767 177 112 128 146
146 766 178 49 67 116
146 767 178 71 90 124
147 766 179 55 48 107
147 767 179 62 50 115
147 764 180 74 54 73
147 764 181 74 31 50
147 765 180 83 69 90
147 765 181 76 48 66
147 766 180 118 97 122
147 767 180 105 67 122
148 760 181 136 36 53
148 761 181 135 64 70
148 760 182 144 22 45
148 760 183 145 21 41
148 761 182 142 35 50
148 761 183 141 35 42
149 760 183 144 23 39
149 761 183 140 48 44
148 762 181 111 52 63
148 763 181 88 27 43
148 762 182 132 47 53
148 763 182 114 37 44
149 762 183 152 72 72
149 763 182 120 29 42
149 763 183 139 40 50
148 764 181 75 19 36
148 765 181 88 58 77
148 764 182 87 12 36
148 765 182 78 25 48
149 764 182 110 17 44
149 764 183 131 28 53
149 765 182 90 19 42
149 765 183 113 28 46
148 766 181 135 113 128
148 767 180 124 77 119
148 767 181 129 78 107
149 767 181 113 36 68
148 766 182 109 72 93
149 766 182 101 45 55
149 766 183 110 41 41
149 767 182 105 34 52
150 765 183 129 31 49
150 766 183 130 72 64
150 767 182 117 61 61
150 767 183 131 78 76
151 767 183 138 75 74
149 760 184 145 20 33
149 761 184 140 50 49
149 762 184 171 105 106
149 763 184 155 61 69
150 760 185 147 16 31
150 761 185 148 34 56
150 760 186 151 13 37
151 760 186 148 24 50
151 761 186 151 15 44
150 762 184 171 101 104
150 762 185 160 61 70
150 763 184 148 41 50
150 763 185 149 39 46
151 762 185 151 34 45
151 763 185 150 50 45
151 762 186 151 19 40
151 763 186 150 46 46
150 764 184 144 35 48
150 765 184 137 35 47
151 764 185 159 79 71
151 765 184 139 38 47
151 765 185 156 70 70
151 766 184 142 50 55
151 767 184 140 46 60
152 753 189 64 86 125
152 752 190 44 53 111
152 753 190 47 46 115
153 752 190 54 59 104
153 752 191 78 74 93
153 753 190 57 52 104
153 753 191 69 62 92
152 754 189 88 107 144
152 755 189 89 115 151
152 754 190 78 85 140
152 755 190 55 70 127
153 754 190 71 68 125
153 754 191 84 73 107
153 755 190 53 53 115
154 753 191 74 58 76
154 754 191 92 69 100
154 755 191 93 66 106
152 758 187 117 83 108
152 759 187 146 114 136
152 756 188 132 152 177
152 756 189 80 107 144
152 757 188 94 117 141
152 757 189 74 113 147
153 757 189 54 93 141
153 756 190 42 52 116
153 757 190 47 72 135
152 758 188 95 114 139
152 759 188 159 157 174
153 758 189 65 106 151
153 759 188 122 149 172
153 759 189 83 118 152
154 756 190 69 48 111
154 756 191 88 59 103
154 757 190 73 63 136
155 756 191 103 61 96
155 757 191 108 65 107
154 758 189 33 64 137
154 759 189 44 78 138
154 758 190 61 67 144
154 759 190 30 52 135
155 758 190 74 52 122
155 758 191 104 68 112
155 759 190 62 55 139
156 757 191 124 57 88
156 758 191 121 50 89
156 759 190 105 66 135
156 759 191 116 50 113
157 758 191 124 35 76
157 759 191 131 43 88
158 759 191 126 29 74
152 760 187 135 63 87
152 761 186 148 25 41
152 761 187 137 59 69
152 762 186 158 44 53
152 762 187 175 96 103
152 763 186 154 34 53
152 763 187 158 38 60
153 762 187 178 109 119
153 763 187 160 56 70
152 760 188 118 96 114
153 760 188 100 113 132
153 760 189 91 120 144
153 761 188 117 101 111
153 762 188 158 109 118
154 760 189 67 96 141
154 761 189 100 107 134
155 760 189 79 88 154
155 761 189 89 89 140
155 760 190 87 87 160
154 762 188 134 86 101
154 762 189 123 112 130
154 763 188 142 53 69
155 762 188 131 90 90
155 762 189 124 105 111
155 763 188 138 82 78
152 764 185 174 104 99
152 765 185 158 69 71
152 764 186 162 67 76
152 765 186 160 59 67
153 764 187 159 53 62
153 765 186 155 30 42
153 765 187 159 47 50
152 766 184 143 18 41
152 766 185 149 16 41
152 767 184 145 12 53
152 767 185 149 15 50
153 766 185 154 0 40
153 767 185 155 37 53
152 766 186 153 23 36
153 766 186 158 18 37
154 764 187 165 87 89
154 765 187 172 82 79
155 765 187 176 96 96
154 767 185 161 74 75
154 766 186 164 33 45
154 767 186 163 70 73
155 766 186 166 28 51
155 766 187 168 35 52
155 767 186 172 85 89
154 764 188 157 83 87
155 764 188 161 97 96
156 761 189 101 90 124
156 760 190 108 73 140
156 760 191 119 49 121
156 761 190 106 80 129
157 760 190 121 50 114
157 760 191 139 55 103
157 761 190 126 79 103
156 762 189 147 131 120
156 763 188 157 123 109
156 763 189 167 141 122
157 762 189 163 141 118
157 763 188 169 137 119
157 763 189 173 142 119
157 762 190 147 120 100
158 760 191 148 58 101
158 761 190 149 80 101
158 761 191 163 78 115
159 760 191 159 73 115
159 761 190 166 81 114
159 761 191 171 80 123
158 762 189 161 133 101
158 763 189 179 148 114
159 763 189 192 157 112
158 762 190 156 119 97
159 762 190 162 104 93
156 765 187 162 58 75
157 765 187 164 75 84
156 766 186 172 43 68
156 766 187 169 32 61
156 767 186 172 66 76
157 766 186 172 47 73
157 766 187 166 43 66
157 767 186 177 79 86
158 766 187 174 103 88
158 767 186 172 68 72
158 767 187 167 66 61
159 766 187 180 131 96
159 767 186 176 81 77
159 767 187 174 99 82
156 764 188 160 104 103
156 765 188 156 64 81
157 764 188 173 127 122
157 765 188 162 86 94
158 764 188 199 165 143
158 765 188 189 146 125
159 764 188 217 182 145
159 764 189 218 182 138
159 765 188 211 174 133
159 766 188 193 156 114
