ply
format ascii 1.0
comment Version 2, Copyright 2017, 8i Labs, Inc.
comment frame_to_world_scale 0.179523
comment frame_to_world_translation -45.2095 7.18301 -54.3561
comment width 1023
element vertex 1923
property float x
property float y
property float z
property uchar red
property uchar green
property uchar blue
end_header
175 416 76 46 90 125
175 416 77 54 95 127
175 417 76 40 84 123
175 417 77 54 93 126
174 417 78 72 108 137
174 417 79 77 111 139
175 416 78 84 114 141
175 416 79 81 113 141
175 417 78 74 109 138
175 417 79 81 113 141
174 418 77 54 88 124
174 419 77 50 83 123
175 418 76 42 81 125
175 418 77 48 86 124
175 419 76 53 85 129
175 419 77 48 80 123
174 418 78 66 106 135
174 418 79 72 107 135
174 419 78 44 91 125
174 419 79 54 95 126
173 421 79 74 104 130
173 422 79 85 112 137
173 423 79 95 119 142
174 420 77 66 91 130
174 421 77 59 87 130
175 420 76 49 82 130
175 420 77 57 85 130
175 421 76 60 95 136
175 421 77 46 81 131
174 420 78 67 98 132
174 420 79 56 95 124
174 421 78 68 97 133
174 421 79 72 103 131
174 422 77 52 83 132
174 423 77 42 82 134
175 422 76 66 103 139
175 422 77 39 82 133
175 423 76 83 113 143
175 423 77 39 90 137
174 422 78 69 96 136
174 422 79 81 110 137
174 423 78 63 91 137
174 423 79 83 112 140
173 424 79 95 118 144
173 425 79 87 111 145
173 426 79 87 112 145
173 427 79 93 118 150
175 424 76 78 113 145
175 424 77 40 85 139
175 425 76 79 112 148
175 425 77 50 87 144
174 424 78 61 86 140
174 424 79 78 105 142
174 425 78 60 82 142
174 425 79 74 100 143
175 426 76 83 111 146
175 426 77 57 91 147
175 427 77 61 99 144
174 426 78 57 80 143
174 426 79 72 98 144
174 427 78 50 85 145
174 427 79 71 99 147
175 427 78 46 83 143
173 428 79 91 116 151
173 429 79 88 113 151
175 428 77 64 101 146
175 429 77 64 101 148
174 428 78 51 83 148
174 428 79 70 97 148
174 429 78 56 86 149
174 429 79 66 92 149
175 428 78 52 89 147
175 429 78 53 88 148
174 430 79 58 86 147
174 431 78 61 86 151
174 431 79 70 97 152
175 430 78 56 85 149
175 431 78 57 84 151
173 419 81 60 99 129
173 419 82 67 103 132
173 419 83 72 107 135
174 417 80 62 103 134
174 417 81 74 109 138
175 416 80 61 102 133
175 416 81 70 106 136
175 417 80 63 104 135
175 417 81 71 107 137
174 417 82 83 113 140
174 417 83 75 108 135
175 416 82 70 105 134
175 416 83 53 95 125
175 417 82 77 109 137
175 417 83 70 104 132
174 418 80 59 101 132
174 418 81 74 108 137
174 419 80 55 97 128
174 419 81 65 102 132
174 418 82 83 113 140
174 418 83 79 111 138
174 419 82 75 108 136
174 419 83 76 109 137
174 417 84 86 115 141
175 416 84 40 88 121
175 416 85 43 90 123
175 417 84 74 107 134
175 417 85 72 107 135
175 417 86 50 94 125
174 418 84 92 120 145
174 418 85 92 120 145
174 419 84 91 118 144
174 419 85 91 119 144
175 418 85 90 118 145
174 419 86 77 108 135
175 418 86 64 101 130
175 418 87 47 91 122
175 419 86 67 102 130
175 419 87 64 100 128
173 420 80 52 92 123
173 420 81 56 94 124
173 421 80 59 95 124
173 421 81 51 91 122
173 420 82 53 93 125
173 420 83 60 100 130
173 421 82 44 85 120
173 421 83 40 86 123
173 422 80 70 103 130
173 422 81 58 96 125
173 423 80 86 113 139
173 423 81 73 105 132
172 423 82 91 115 138
172 423 83 70 101 128
173 422 82 64 97 127
173 422 83 50 89 123
173 423 82 83 109 135
174 420 80 48 90 122
173 420 84 79 109 136
173 420 85 81 111 136
173 421 84 58 94 126
173 421 85 68 100 128
173 421 86 69 101 128
173 421 87 67 100 127
172 423 84 57 93 122
172 423 85 40 86 118
173 422 84 43 85 120
173 422 85 30 79 113
172 423 86 33 85 118
172 423 87 35 85 117
173 422 86 45 87 119
173 422 87 56 94 123
173 423 86 25 80 114
173 423 87 41 87 119
174 420 85 83 112 138
174 420 86 73 105 132
174 420 87 78 107 132
174 421 86 68 101 128
174 421 87 72 103 130
175 420 87 77 108 134
173 422 88 54 92 122
173 423 88 37 84 117
173 423 89 35 81 114
174 420 88 76 107 134
174 421 88 68 101 128
174 421 89 60 97 125
175 420 88 65 101 130
175 421 88 57 97 126
175 421 89 55 94 124
174 422 88 59 95 124
174 422 89 58 93 122
174 423 89 47 86 117
175 422 89 58 95 123
174 423 90 50 88 118
175 422 90 60 95 123
175 423 90 48 88 117
175 423 91 50 89 117
171 426 83 87 110 133
171 427 83 91 113 135
171 425 85 106 123 143
171 425 86 90 113 136
171 426 84 96 116 135
171 426 85 115 128 145
171 427 84 90 112 134
171 427 85 118 129 143
171 426 86 93 114 135
171 426 87 99 117 137
171 427 86 94 114 136
171 427 87 98 116 135
171 428 83 99 119 140
171 429 83 102 121 141
171 430 83 91 115 142
171 431 83 65 100 139
171 428 84 88 112 135
171 428 85 120 129 143
171 429 84 83 110 135
171 429 85 117 128 143
170 429 86 93 110 129
170 429 87 99 115 133
171 428 86 95 115 135
171 428 87 96 114 133
171 429 86 100 115 133
171 429 87 96 113 131
170 430 85 117 130 146
170 431 85 99 119 140
171 430 84 75 106 131
171 430 85 111 125 142
171 431 84 60 94 131
171 431 85 88 111 135
170 430 86 100 116 134
170 430 87 98 115 134
170 431 86 95 115 136
170 431 87 87 109 131
172 424 81 94 116 139
172 425 81 95 116 138
173 424 80 92 117 141
173 424 81 84 111 137
173 425 80 96 118 141
173 425 81 85 113 138
172 424 82 108 125 146
172 424 83 91 114 136
172 425 82 111 127 146
172 425 83 98 118 139
172 426 81 92 116 137
172 427 81 95 118 141
173 426 80 97 119 143
173 427 80 101 123 147
172 426 82 112 127 145
172 426 83 101 120 141
172 427 82 111 126 144
172 427 83 109 125 144
172 424 84 87 111 134
172 424 85 78 107 133
172 425 84 101 120 140
172 425 85 110 127 147
172 424 86 51 93 123
172 424 87 46 90 120
172 425 86 75 105 132
172 425 87 77 105 130
172 428 81 99 122 145
172 429 81 103 128 152
173 428 80 102 126 151
173 429 80 99 124 153
172 428 82 113 127 144
172 429 82 108 125 143
172 430 81 88 121 150
172 431 81 81 118 151
173 430 80 88 116 149
173 430 81 92 123 152
173 431 80 90 118 153
173 431 81 89 121 154
172 430 82 95 121 148
172 431 82 65 105 147
172 431 83 52 94 142
171 426 88 97 117 138
171 427 88 101 119 138
171 427 89 83 109 133
171 427 90 67 99 125
170 429 88 102 119 138
171 428 88 99 118 138
171 428 89 84 109 133
171 429 88 102 119 138
171 429 89 89 113 136
171 428 90 70 99 124
171 428 91 79 101 123
171 429 90 73 101 125
171 429 91 89 107 126
170 430 88 103 120 139
170 430 89 90 113 136
170 431 88 98 117 138
170 431 89 90 113 136
170 430 90 73 102 127
170 431 90 73 102 127
170 431 91 80 102 123
171 430 90 68 98 122
171 430 91 88 106 125
171 431 91 90 107 125
171 430 92 102 115 131
171 431 92 103 116 132
171 431 93 106 118 134
172 424 88 45 88 119
172 425 88 70 101 128
172 425 89 50 90 120
173 424 88 38 86 119
173 424 89 28 80 113
173 425 89 35 82 114
172 425 90 55 92 120
173 424 90 26 80 113
173 425 90 37 84 115
173 425 91 52 89 117
172 426 88 93 115 137
172 426 89 76 105 130
172 427 89 71 102 127
172 426 90 71 99 124
172 426 91 81 104 127
172 427 90 72 99 124
172 427 91 94 112 131
173 426 90 57 90 117
173 426 91 80 104 127
174 424 90 34 81 113
174 424 91 32 81 112
174 425 91 39 84 114
175 424 91 32 81 113
173 426 92 83 106 128
173 427 92 103 118 136
174 425 92 47 86 117
175 424 92 29 79 112
175 425 92 42 83 115
174 426 92 73 100 125
174 426 93 83 106 129
174 427 92 99 116 135
174 427 93 98 116 135
175 426 93 61 93 121
175 427 93 82 107 130
172 428 91 95 112 131
172 429 91 97 114 132
172 428 92 103 117 133
172 429 92 102 116 132
172 429 93 108 120 135
173 428 92 105 118 134
173 428 93 108 120 135
173 429 93 106 118 133
172 430 92 104 117 133
172 430 93 104 118 134
172 431 93 105 119 135
173 430 93 101 115 132
172 431 94 101 116 135
173 430 94 98 114 132
173 431 94 92 111 132
174 428 93 100 117 135
174 429 93 100 116 134
175 428 93 93 113 134
174 429 94 93 112 131
175 428 94 79 105 129
175 429 94 79 104 128
174 430 94 84 107 128
174 431 94 78 104 128
175 430 94 76 102 126
175 431 94 70 100 125
175 431 95 72 101 126
174 432 79 72 99 155
174 433 79 76 104 158
175 432 78 66 92 151
175 432 79 61 87 151
175 433 78 70 106 151
175 433 79 74 102 155
174 434 79 70 103 152
174 435 79 60 98 148
175 434 78 68 107 150
175 434 79 63 99 150
175 435 79 56 98 149
174 436 79 52 95 146
175 436 79 50 96 149
175 437 79 49 93 145
175 438 79 50 91 142
175 439 79 41 88 136
167 442 92 118 126 139
167 442 93 119 128 141
167 443 92 111 123 138
167 443 93 116 126 140
167 442 94 119 128 142
167 442 95 118 127 140
167 443 94 119 129 144
167 443 95 119 128 141
167 444 91 87 110 131
167 445 91 51 91 126
167 446 91 54 86 119
167 447 91 91 107 126
167 444 92 90 111 131
167 444 93 92 111 131
167 445 92 47 89 124
167 445 93 44 86 122
166 445 94 45 86 120
166 445 95 67 97 124
167 444 94 107 121 138
167 444 95 112 124 139
167 445 94 75 101 125
166 447 93 82 103 125
167 446 92 47 83 119
167 446 93 44 80 120
167 447 92 84 103 124
167 447 93 73 96 121
166 446 94 31 75 119
166 446 95 22 73 116
166 447 94 69 96 124
166 447 95 55 87 118
171 432 83 47 86 136
171 433 83 71 99 139
171 434 83 75 99 129
171 435 83 87 107 133
170 432 85 63 93 127
170 433 85 64 93 128
171 432 84 47 83 131
171 432 85 58 89 130
171 433 84 66 95 130
170 432 86 65 95 126
170 432 87 66 96 124
170 433 86 67 95 127
170 433 87 69 97 126
170 434 85 80 105 131
170 435 85 97 117 139
171 434 84 75 99 126
171 435 84 92 109 132
171 435 85 95 114 136
170 434 86 83 105 132
170 434 87 90 110 133
170 435 86 97 117 139
170 435 87 93 112 132
171 436 83 95 112 132
169 437 87 71 99 126
169 438 87 78 101 124
169 439 87 82 103 125
170 436 85 89 109 131
170 437 85 99 114 132
171 436 84 92 108 129
171 436 85 90 107 129
171 437 84 106 119 136
171 437 85 106 119 136
170 436 86 85 108 131
170 436 87 81 106 131
170 437 86 84 105 125
170 437 87 68 98 126
170 438 85 110 121 136
171 438 84 104 118 136
171 438 85 110 122 138
171 439 84 69 95 122
171 439 85 104 118 136
170 438 86 98 113 130
170 438 87 80 102 124
170 439 86 98 113 131
170 439 87 81 104 125
172 432 81 96 125 157
172 433 81 99 124 156
173 432 80 95 123 157
173 432 81 99 127 159
173 433 80 97 124 159
173 433 81 97 125 157
172 432 82 79 109 151
172 432 83 55 93 142
172 433 82 96 119 152
172 433 83 82 107 146
172 435 81 112 131 153
173 434 80 95 121 157
173 434 81 102 127 159
173 435 80 78 109 151
173 435 81 99 123 153
172 434 82 104 125 153
172 434 83 83 106 137
172 435 82 102 125 149
172 435 83 96 117 141
174 432 80 90 118 159
174 433 80 89 117 159
174 434 80 79 110 154
174 435 80 68 103 149
172 436 81 112 130 152
173 436 80 83 111 150
173 436 81 101 122 150
173 437 81 82 109 140
172 436 82 115 130 147
172 436 83 104 121 139
172 437 82 98 118 140
172 437 83 110 123 139
173 438 81 49 90 126
173 439 81 45 83 124
172 438 83 74 97 128
172 439 83 35 72 119
173 438 82 53 86 123
173 439 82 42 78 121
174 436 80 64 101 145
174 437 80 43 90 136
174 438 80 38 83 130
174 438 81 41 83 126
174 439 80 41 82 128
174 439 81 47 81 126
175 439 80 40 85 129
172 438 84 87 104 130
172 439 84 46 81 117
169 433 91 66 94 120
169 434 89 74 102 127
169 435 88 98 117 138
169 435 89 88 110 133
169 434 90 66 96 122
169 434 91 71 97 122
169 435 90 75 101 126
169 435 91 74 99 122
170 432 88 88 111 134
170 432 89 86 110 134
170 433 88 69 97 125
170 433 89 70 100 126
170 432 90 76 104 128
170 432 91 78 101 123
170 433 90 66 96 122
170 433 91 68 95 120
170 434 88 81 105 130
170 434 89 68 98 125
170 435 88 97 115 136
170 434 90 61 94 121
169 434 92 83 103 124
169 435 92 84 103 123
169 435 93 91 107 126
169 435 94 91 107 125
170 432 92 99 115 133
170 433 92 92 110 130
170 433 93 90 109 128
171 432 92 103 117 134
171 432 93 101 116 132
171 433 93 94 111 129
171 432 94 102 117 135
171 433 94 96 112 131
170 434 92 87 107 127
170 434 93 87 106 125
170 434 94 90 108 127
170 435 94 93 108 127
170 435 95 96 110 127
171 434 94 90 108 127
171 434 95 88 108 128
171 435 95 91 109 129
168 437 89 80 105 129
169 436 88 92 113 135
169 436 89 88 110 133
169 437 88 67 97 124
169 437 89 77 104 128
168 437 90 94 115 136
168 437 91 94 114 135
169 436 90 84 107 130
169 436 91 79 102 125
169 437 90 90 112 135
169 437 91 92 111 132
168 438 89 98 116 136
168 439 89 111 123 138
169 438 88 83 105 128
169 439 88 103 116 133
168 438 90 107 121 139
168 438 91 101 118 136
168 439 90 121 130 144
168 439 91 124 132 146
168 437 92 96 113 132
168 437 93 100 115 133
169 436 92 89 107 126
169 436 93 95 110 127
169 437 92 97 113 132
169 437 93 100 114 131
168 437 94 98 114 132
169 436 94 96 110 126
169 436 95 101 114 129
169 437 94 100 114 131
169 437 95 100 115 131
168 438 92 88 107 127
168 438 93 89 108 127
168 439 92 107 120 136
168 439 93 101 116 133
168 438 94 84 105 126
168 439 94 93 111 130
168 439 95 95 113 133
169 438 95 87 107 127
169 439 95 89 109 129
170 436 95 100 113 129
171 436 95 95 111 130
172 432 94 99 116 134
172 433 94 97 115 134
172 433 95 85 107 129
173 432 94 82 106 129
173 432 95 82 106 128
173 433 95 75 101 124
172 434 95 79 103 125
172 435 95 84 106 127
173 434 95 77 102 124
174 432 95 76 103 127
174 433 95 72 99 123
175 432 95 75 102 127
175 433 95 75 101 125
174 434 95 74 99 122
175 434 95 78 100 121
169 440 87 80 101 123
169 441 87 90 106 125
171 440 84 57 88 117
171 440 85 92 109 128
171 441 85 82 103 125
170 440 86 97 111 128
170 440 87 76 98 120
170 441 86 102 112 127
170 441 87 90 104 122
171 440 86 105 117 132
171 441 86 103 116 132
171 442 84 67 95 123
171 442 85 82 104 126
171 443 84 51 87 118
171 443 85 50 85 117
170 442 86 94 108 125
170 442 87 100 112 127
170 443 86 68 93 117
170 443 87 83 101 122
171 442 86 101 113 128
171 443 86 56 87 116
169 446 87 82 97 114
169 447 87 91 104 119
171 444 85 28 69 115
171 445 85 55 84 116
170 444 86 34 71 113
170 444 87 52 82 117
170 445 86 39 72 110
170 445 87 33 69 109
171 444 86 27 68 113
171 445 86 41 73 111
171 446 85 88 105 124
171 447 84 105 116 132
171 447 85 100 112 129
170 446 86 81 98 118
170 446 87 78 95 115
170 447 86 95 107 124
170 447 87 88 103 120
171 446 86 83 100 119
172 440 83 51 80 124
172 441 82 57 89 125
172 441 83 58 88 124
173 440 82 45 81 125
173 441 82 52 87 128
172 442 82 59 92 125
172 442 83 58 91 123
172 443 83 53 85 122
173 442 82 50 89 127
173 443 82 51 88 127
173 443 83 47 83 124
174 440 80 45 84 127
174 440 81 45 83 128
174 441 80 48 87 124
174 441 81 45 84 125
175 440 80 43 84 125
175 441 80 42 82 123
174 442 81 48 87 126
174 443 81 60 90 125
175 442 80 45 83 123
175 443 80 39 80 122
175 443 81 51 84 122
174 443 82 56 89 127
172 440 84 49 82 118
172 441 84 67 93 122
172 442 84 64 94 123
172 443 84 47 81 119
172 444 83 41 79 118
172 445 83 86 106 130
173 444 82 52 91 127
173 444 83 57 90 127
173 445 82 66 97 129
173 445 83 81 104 133
172 446 83 101 116 137
173 446 83 93 111 134
173 447 83 92 111 131
174 444 81 73 97 126
175 444 81 68 94 127
175 445 81 71 98 127
174 444 82 62 91 126
174 445 82 73 98 126
175 445 82 74 101 127
174 446 82 89 107 127
174 446 83 97 111 128
174 447 82 95 110 127
174 447 83 97 112 129
175 446 82 86 106 127
175 447 82 96 110 126
175 447 83 103 115 130
172 444 84 40 75 117
172 445 84 73 98 125
172 446 84 101 115 133
172 447 84 103 116 133
168 440 89 108 121 137
168 441 89 103 118 136
169 440 88 100 115 133
169 441 88 94 111 130
169 441 89 98 114 133
168 440 90 116 126 141
168 440 91 128 135 147
168 441 90 106 120 137
168 441 91 124 133 147
169 442 88 105 116 132
169 442 89 102 115 132
169 443 88 102 114 128
169 443 89 109 119 133
168 442 90 104 117 135
168 442 91 117 128 143
168 443 90 110 122 137
168 443 91 109 123 139
170 443 88 95 110 126
168 440 92 119 128 141
168 440 93 116 126 140
168 441 92 124 132 145
168 441 93 120 128 140
168 440 94 112 123 138
168 440 95 109 122 138
168 441 94 119 127 140
168 441 95 116 126 139
169 440 95 107 120 137
168 442 92 122 131 144
168 442 93 121 130 142
168 442 95 117 126 139
169 444 88 72 95 119
169 444 89 80 101 122
169 445 88 27 65 109
169 445 89 23 66 110
168 444 90 93 112 133
168 444 91 87 110 132
168 445 90 38 78 118
168 445 91 47 87 123
169 445 90 33 74 115
168 447 89 89 104 121
169 446 88 58 82 110
169 446 89 53 78 109
169 447 88 81 97 115
169 447 89 86 101 119
168 446 90 66 88 116
168 446 91 62 88 118
168 447 90 93 107 124
168 447 91 96 110 127
169 446 90 64 85 114
170 444 88 65 91 120
170 445 88 29 67 111
170 446 88 56 81 109
178 416 71 54 97 138
178 417 71 55 92 138
179 416 70 42 87 138
179 416 71 48 93 137
179 417 70 45 86 139
179 417 71 57 93 140
179 418 71 68 104 146
179 419 71 80 116 154
179 420 71 94 127 161
179 421 71 107 136 169
179 422 71 109 136 169
179 423 71 108 136 172
182 416 67 62 110 181
183 416 67 71 117 189
183 417 67 57 108 191
180 416 69 44 92 149
180 417 69 60 105 163
181 416 68 49 102 170
181 416 69 42 96 153
181 417 68 54 103 175
181 417 69 56 104 169
180 416 70 42 87 141
180 417 70 56 96 148
180 418 69 73 114 169
181 418 69 61 108 174
181 419 69 62 109 176
180 418 70 72 112 159
180 419 70 73 117 166
182 416 68 57 107 177
182 417 68 55 105 181
183 417 68 55 105 186
182 418 68 53 103 182
182 419 68 53 102 186
182 419 69 56 104 184
183 418 68 54 105 190
183 419 68 53 101 191
181 420 69 66 112 180
181 421 69 69 113 185
180 420 70 84 124 172
180 420 71 96 130 170
180 421 70 87 124 180
180 421 71 110 139 176
181 421 70 75 117 184
180 422 70 89 126 184
180 422 71 109 140 180
180 423 70 89 129 186
180 423 71 100 134 183
181 422 70 71 114 187
181 423 70 72 115 186
182 420 69 59 104 187
182 421 69 57 104 190
183 420 68 53 101 193
183 420 69 57 102 193
183 421 68 55 102 195
183 421 69 55 100 191
182 422 69 58 105 189
182 423 69 55 104 188
183 422 69 52 100 188
183 423 69 53 101 186
182 423 70 53 103 185
183 423 70 52 100 186
177 416 72 55 100 136
177 416 73 49 95 130
177 417 73 20 76 121
176 416 74 67 101 130
176 416 75 79 110 137
176 417 74 43 88 122
176 417 75 53 95 127
177 416 74 53 94 126
177 417 74 16 73 115
177 418 73 48 86 129
177 419 73 70 103 136
176 418 74 50 89 126
176 418 75 49 91 126
176 419 74 65 98 129
176 419 75 59 95 128
177 418 74 50 87 128
177 419 74 68 100 134
178 416 72 47 96 134
178 417 72 43 88 133
178 418 72 53 93 136
178 419 72 84 115 148
178 419 73 85 114 145
177 420 73 100 124 149
177 421 73 110 129 152
176 420 74 66 99 128
176 420 75 64 98 127
176 421 75 100 120 141
177 420 74 98 121 144
177 421 74 112 130 149
177 422 73 110 128 151
176 422 75 106 123 141
176 423 75 110 127 145
177 422 74 113 128 147
177 423 74 113 128 149
177 423 75 111 126 144
178 420 72 101 128 156
178 420 73 99 124 151
178 421 72 114 136 164
178 421 73 103 125 151
179 421 72 121 143 171
178 422 72 108 131 158
178 422 73 106 126 152
178 423 72 105 129 157
178 423 73 103 125 152
179 422 72 121 143 173
179 423 72 114 139 172
176 420 76 54 91 127
176 421 76 88 115 140
176 422 76 94 119 143
176 423 76 101 123 145
180 424 71 95 132 183
180 425 71 81 124 183
181 424 70 76 119 188
181 424 71 92 133 192
181 425 71 74 120 189
180 426 71 67 113 181
181 426 71 56 109 185
182 424 70 54 104 185
182 425 70 71 113 189
182 425 71 57 102 185
183 424 70 50 98 186
183 425 70 54 100 186
183 425 71 44 94 182
182 426 71 53 102 184
182 427 71 41 97 180
183 426 71 44 98 180
183 427 71 40 100 176
176 424 75 112 128 146
176 425 75 110 128 149
177 424 74 108 126 151
177 424 75 108 125 146
177 425 74 98 122 149
177 425 75 103 123 146
176 426 75 104 125 149
176 427 75 103 128 155
177 426 74 91 121 155
177 426 75 102 123 150
177 427 74 86 120 159
177 427 75 93 123 155
178 424 73 98 123 154
178 425 73 92 124 159
179 424 72 101 130 166
179 425 72 97 130 172
179 425 73 101 135 177
178 425 74 97 124 154
178 426 73 85 124 166
178 427 73 76 122 172
179 426 72 85 125 174
179 426 73 84 124 170
179 427 73 78 122 172
178 426 74 89 124 164
178 427 74 81 121 164
176 424 76 105 127 149
176 425 76 96 123 150
176 426 76 94 122 150
176 427 76 93 122 150
177 428 75 81 120 157
177 429 75 68 112 158
177 430 75 49 98 160
179 428 73 72 117 170
179 429 73 64 111 170
178 428 74 72 117 166
178 429 74 65 112 168
178 429 75 60 109 161
179 429 74 64 110 169
178 430 74 63 109 169
178 430 75 46 98 164
178 431 75 50 97 167
179 430 74 56 103 170
179 431 74 58 101 172
179 431 75 57 102 172
176 428 76 92 122 153
176 428 77 94 121 156
176 429 76 83 117 157
176 429 77 88 118 157
177 429 76 77 115 159
176 430 76 60 100 154
176 430 77 60 95 152
176 431 77 47 86 152
177 430 76 48 92 154
177 431 76 48 89 160
180 425 72 86 125 177
180 426 72 77 121 178
180 427 72 74 120 178
181 427 72 57 106 180
182 427 72 44 97 176
180 428 72 65 115 178
180 428 73 77 122 178
180 429 72 64 111 178
180 429 73 56 103 171
181 428 72 50 103 179
181 429 72 55 102 178
181 429 73 56 103 175
180 430 73 53 98 171
180 431 73 54 97 172
181 430 73 44 96 175
181 431 73 56 97 176
180 430 74 56 103 171
180 431 74 57 102 174
182 428 72 30 89 168
182 429 72 34 90 165
183 428 72 62 110 180
183 429 72 53 105 172
182 430 73 51 103 172
182 431 73 51 96 175
183 430 73 29 87 162
183 431 73 42 85 167
184 416 66 75 120 198
184 416 67 72 119 195
184 417 67 62 111 198
185 416 66 100 136 199
185 417 66 118 149 201
185 417 67 79 126 196
184 418 67 63 112 200
185 418 67 73 119 196
185 419 67 65 111 191
186 416 66 132 152 199
186 417 66 156 173 207
186 417 67 169 183 211
187 416 66 127 150 200
187 417 66 148 166 201
187 417 67 169 180 206
186 418 67 174 188 213
186 419 67 149 171 205
187 418 67 186 195 214
187 419 67 180 195 217
184 418 68 55 108 198
184 419 68 63 110 200
185 419 68 54 102 194
184 420 68 62 106 199
184 421 68 58 100 197
184 421 69 52 98 195
185 420 68 51 96 195
185 421 68 51 96 196
184 422 69 45 97 190
184 423 69 49 97 185
185 422 69 53 100 194
185 423 69 48 97 187
186 420 68 112 142 199
186 421 68 56 104 191
187 420 68 155 175 211
187 421 68 115 145 202
186 422 69 54 102 193
186 423 69 59 105 191
187 422 69 80 120 199
187 423 69 57 102 190
188 416 66 104 131 196
188 417 66 108 134 194
188 417 67 122 147 198
189 416 66 92 124 200
189 417 66 86 120 198
189 417 67 80 117 196
188 418 67 130 159 201
188 419 67 125 160 200
189 418 67 69 110 194
189 419 67 66 107 194
190 416 66 79 120 202
190 417 66 80 119 201
190 417 67 89 123 201
191 416 66 56 97 187
191 417 66 71 114 193
191 417 67 77 119 193
190 418 67 94 123 200
190 419 67 96 122 198
191 418 67 88 125 196
191 419 67 97 129 197
188 420 68 104 141 191
188 421 68 94 124 190
189 420 68 65 104 192
189 421 68 68 107 190
189 421 69 60 100 186
188 422 69 63 109 191
188 423 69 60 111 191
189 422 69 58 100 187
189 423 69 63 105 191
188 423 70 70 118 193
189 423 70 65 107 192
190 420 68 92 122 193
190 421 68 95 126 194
190 421 69 90 122 194
191 420 68 105 137 199
191 421 68 114 144 204
191 421 69 113 143 203
190 422 69 72 107 191
191 422 69 92 125 196
190 423 70 61 98 190
191 422 70 86 123 192
191 423 70 69 105 184
184 424 70 48 96 183
184 425 70 47 93 183
184 425 71 43 92 182
185 424 70 44 94 182
185 425 70 42 92 180
185 425 71 37 89 179
184 426 71 45 96 180
184 427 71 49 102 179
185 426 71 38 91 177
185 427 71 49 96 176
186 424 70 57 105 186
186 425 70 49 99 183
186 425 71 42 93 180
187 424 70 55 101 184
187 425 70 49 99 181
187 425 71 45 98 179
186 426 71 32 89 176
186 427 71 29 86 170
187 426 71 42 95 176
187 427 71 38 91 171
188 424 70 60 109 184
188 425 70 43 98 177
188 425 71 38 96 175
189 424 70 53 103 184
189 425 70 48 101 177
189 425 71 52 102 177
188 426 71 39 95 173
188 427 71 40 95 171
189 426 71 56 105 175
190 424 70 45 89 179
190 424 71 55 90 178
190 425 71 53 94 174
191 424 70 65 98 179
191 424 71 66 101 178
191 425 71 46 91 171
184 428 72 63 111 181
184 429 72 68 115 178
185 428 72 56 105 176
185 429 72 49 103 171
184 430 73 55 102 170
184 431 73 43 87 166
185 430 73 48 98 165
185 431 73 62 101 167
186 428 72 27 86 167
186 429 72 29 86 165
186 429 73 26 81 163
187 428 72 32 85 166
187 429 72 28 80 164
187 429 73 23 77 162
186 430 73 46 89 163
186 431 73 53 95 163
187 430 73 35 81 159
186 431 74 49 93 161
187 431 74 45 89 159
188 427 72 40 94 170
189 426 72 58 104 172
189 427 72 46 99 169
191 425 72 47 93 166
190 426 72 55 97 169
190 427 72 48 96 165
190 427 73 53 100 164
191 426 72 68 105 170
191 426 73 60 103 167
191 427 73 61 103 164
191 426 74 60 104 168
191 427 74 60 104 164
191 427 75 58 102 164
188 428 72 37 90 166
188 429 72 33 85 164
188 429 73 21 81 160
189 428 72 36 92 164
189 428 73 41 94 162
189 429 73 46 95 164
189 429 74 47 95 161
189 429 75 49 96 159
188 430 73 17 75 157
188 430 74 25 77 155
188 430 75 13 73 151
188 431 74 23 77 153
188 431 75 19 76 149
189 430 74 37 84 158
189 430 75 39 89 155
189 431 75 32 83 149
190 428 73 46 97 161
190 428 74 68 109 164
190 428 75 72 110 165
190 429 74 69 109 164
190 429 75 67 106 164
191 428 74 64 106 162
191 428 75 61 104 161
189 430 76 48 93 151
189 431 76 41 87 149
189 431 77 37 85 143
189 431 78 45 87 140
189 431 79 56 93 144
190 429 76 59 103 160
190 429 77 52 99 154
191 428 76 61 102 160
191 428 77 61 103 160
191 429 76 56 101 158
191 429 77 56 102 156
191 429 78 59 101 151
191 429 79 58 97 147
190 430 76 52 98 155
190 430 77 47 93 147
190 430 78 57 98 145
190 430 79 67 102 147
190 431 78 49 90 141
190 431 79 56 93 141
191 430 79 66 99 147
176 416 85 31 86 120
176 416 86 36 86 120
176 417 86 33 85 119
176 417 87 23 80 115
177 416 86 45 89 121
177 416 87 34 84 116
177 417 87 25 78 113
176 418 87 36 87 119
176 419 87 53 94 125
178 416 87 51 93 123
177 417 88 25 79 113
176 419 88 55 95 125
177 418 88 40 87 118
177 418 89 48 90 119
177 419 88 60 97 125
177 419 89 60 96 124
178 416 88 54 95 124
178 417 88 35 84 115
178 417 89 36 83 115
179 416 88 60 98 127
179 416 89 53 92 122
179 417 89 47 89 118
179 417 90 45 86 116
178 418 89 43 87 117
178 419 89 60 96 123
179 418 89 46 87 117
178 419 90 62 97 124
179 418 90 45 87 116
179 419 90 54 92 121
176 420 88 58 97 127
176 420 89 56 95 125
176 421 89 50 92 122
177 420 89 58 96 124
176 421 90 54 93 122
177 420 90 61 97 124
177 421 90 64 98 125
177 421 91 61 96 123
176 422 90 62 96 123
176 422 91 63 96 122
176 423 91 57 92 120
177 422 91 63 96 123
177 423 91 61 95 122
178 420 90 69 101 128
178 420 91 67 101 128
178 421 90 66 100 127
178 421 91 63 98 126
179 420 90 67 100 127
179 420 91 68 101 128
179 421 91 63 99 127
178 422 91 58 95 123
176 423 92 48 88 116
177 423 92 56 92 120
179 421 92 59 97 126
178 422 92 56 94 122
178 423 92 56 93 121
179 422 92 58 95 124
179 423 92 54 92 120
180 416 89 56 95 125
180 416 90 58 96 125
180 417 90 56 93 121
181 416 90 62 100 129
181 417 90 65 100 127
181 417 91 66 100 127
180 418 90 48 88 118
180 418 91 44 86 117
180 419 91 49 88 119
181 418 91 50 89 119
181 419 91 43 84 118
182 416 90 59 100 130
182 416 91 61 100 129
182 417 91 67 101 128
183 416 91 64 102 131
183 417 91 65 101 129
182 418 91 54 93 122
183 417 92 59 97 126
182 418 92 54 93 122
182 419 92 42 87 119
183 418 92 57 96 125
183 419 92 49 92 123
180 420 91 58 95 125
181 420 91 44 85 119
180 420 92 58 96 127
180 421 92 58 97 127
181 420 92 47 90 123
181 421 92 52 94 126
180 422 92 51 94 124
180 423 92 49 91 121
180 423 93 54 93 122
181 422 92 56 97 126
181 422 93 61 99 129
181 423 93 60 98 126
182 420 92 38 85 119
182 421 92 47 90 123
183 420 92 37 86 120
183 421 92 32 83 119
183 421 93 34 84 120
182 422 92 60 99 129
182 422 93 55 96 126
182 423 93 49 93 124
183 422 93 42 88 122
183 423 93 42 90 123
176 424 92 33 80 112
176 425 92 24 75 110
176 425 93 39 79 115
177 424 92 38 82 114
177 424 93 37 80 112
177 425 93 32 74 111
176 426 93 50 85 119
176 427 93 58 92 121
177 426 93 38 73 114
176 427 94 60 93 122
177 426 94 44 77 117
177 427 94 48 84 117
178 424 92 52 89 117
178 424 93 46 85 115
178 425 93 37 76 111
179 424 92 55 90 118
179 424 93 55 89 118
179 425 93 49 85 116
178 426 93 39 74 113
179 426 93 43 78 113
178 427 94 41 76 114
179 426 94 38 74 112
179 427 94 34 70 111
176 428 94 71 100 125
176 429 94 72 100 124
177 428 94 54 91 119
177 429 94 63 94 119
176 430 94 72 99 123
176 431 94 74 99 122
177 430 94 72 97 120
177 431 94 83 102 122
178 428 94 39 79 111
178 429 94 60 92 117
179 428 94 38 74 110
179 429 94 49 83 113
178 430 94 81 104 125
178 431 94 88 107 127
179 430 94 68 96 120
179 431 94 76 100 123
180 424 93 59 93 121
180 425 93 56 90 119
181 424 93 53 92 120
181 425 93 56 91 119
180 426 93 47 83 115
180 426 94 42 78 113
180 427 94 37 73 112
181 426 94 57 89 118
181 427 94 50 84 116
182 424 93 44 90 120
182 425 93 50 91 120
183 424 93 51 93 125
183 425 93 52 93 123
182 425 94 59 96 124
183 425 94 52 94 124
182 426 94 61 96 124
182 427 94 58 93 121
183 426 94 48 91 122
183 427 94 56 93 122
180 428 94 37 73 110
180 429 94 38 75 111
181 428 94 40 76 111
181 429 94 37 73 111
180 430 94 52 84 115
180 431 94 66 92 119
181 430 94 38 72 111
181 431 94 45 77 115
182 428 94 49 83 115
182 428 95 60 89 117
182 429 94 35 69 107
182 429 95 42 73 107
183 428 94 68 97 123
183 428 95 69 96 122
183 429 95 52 81 110
182 430 94 31 66 107
182 430 95 35 65 104
182 431 94 39 68 110
182 431 95 44 70 109
183 430 95 36 69 104
183 431 95 36 71 107
184 416 91 55 97 128
185 416 91 45 92 125
184 416 92 56 97 128
184 417 92 61 99 128
185 416 92 57 97 129
185 417 92 61 100 129
184 418 92 62 99 128
184 419 92 56 97 127
185 418 92 61 100 129
185 419 92 56 97 127
185 419 93 57 98 128
186 416 92 54 95 129
186 417 92 58 98 129
186 417 93 62 99 130
187 416 92 45 90 125
187 416 93 44 88 123
187 417 93 54 93 128
186 418 92 61 100 129
186 418 93 67 103 132
186 419 93 62 101 130
187 418 93 64 101 132
187 419 93 63 102 133
187 419 94 59 102 133
184 420 92 41 89 123
184 420 93 41 89 123
184 421 93 34 84 120
185 420 93 54 95 127
185 421 93 44 89 123
184 422 93 34 84 121
184 423 93 41 88 123
185 422 93 32 84 120
185 423 93 36 86 122
185 423 94 35 85 121
186 420 93 62 100 130
186 421 93 51 94 125
187 420 93 58 99 130
187 421 93 56 98 128
187 420 94 63 103 133
187 421 94 66 104 133
186 422 93 43 89 122
186 422 94 49 91 124
186 423 94 45 88 123
187 422 94 58 97 129
187 422 95 48 94 127
187 423 94 43 88 123
187 423 95 35 87 122
188 416 93 38 85 121
188 417 93 49 91 126
188 417 94 46 92 126
189 416 94 49 91 123
189 417 94 46 91 125
189 417 95 44 89 122
188 418 93 58 97 131
188 418 94 54 96 130
188 419 94 61 102 133
189 418 94 47 92 125
189 418 95 46 92 124
189 419 94 58 99 130
189 419 95 63 103 132
190 416 94 54 92 125
190 416 95 62 95 126
190 417 95 52 89 122
191 416 95 66 97 127
190 418 95 55 95 125
190 419 95 58 99 129
188 420 94 74 110 139
188 421 94 68 106 135
188 421 95 68 106 136
189 420 95 70 107 137
189 421 95 69 108 137
188 422 95 56 99 131
188 423 95 48 92 127
189 422 95 61 102 133
190 420 95 59 101 131
191 429 80 55 92 142
190 431 80 51 89 134
191 430 80 54 90 141
191 430 81 40 81 131
191 431 80 43 84 131
191 431 81 31 76 124
184 424 93 49 92 126
184 424 94 50 92 126
184 425 94 46 90 123
185 424 94 38 87 122
185 425 94 42 89 122
184 426 94 41 89 122
184 427 94 45 89 121
184 427 95 53 92 122
185 426 94 42 89 123
185 426 95 43 89 123
185 427 95 46 90 121
186 424 94 44 88 123
186 424 95 39 87 121
186 425 94 46 90 123
186 425 95 47 90 123
187 424 95 38 87 122
187 425 95 46 92 124
186 426 95 49 91 125
186 427 95 43 89 122
184 428 95 68 97 123
184 429 95 60 89 116
185 428 95 61 96 122
184 430 95 45 79 109
184 431 95 43 77 109
178 432 75 57 97 170
178 433 75 72 106 174
179 432 74 64 105 177
179 432 75 63 102 174
179 433 75 76 110 179
179 434 75 95 125 183
179 435 75 112 139 185
176 432 77 64 99 157
176 433 77 77 114 158
177 432 76 55 94 165
177 433 76 90 121 174
177 433 77 88 122 170
176 432 78 65 98 155
176 433 78 74 110 156
176 434 77 103 133 170
177 434 76 111 139 184
177 434 77 117 144 181
177 435 77 115 143 181
176 434 78 83 117 156
176 435 78 93 124 165
178 432 76 65 100 170
178 433 76 84 116 176
178 434 76 107 134 183
178 435 76 123 148 189
178 435 77 119 147 187
179 435 76 118 144 186
177 436 77 113 144 185
176 436 78 78 118 164
176 437 79 64 106 157
177 436 78 110 143 181
177 437 78 95 133 178
176 438 78 73 114 163
176 438 79 60 102 154
176 439 79 52 94 143
177 438 78 83 121 168
177 439 78 68 109 157
177 439 79 65 104 151
178 436 76 121 147 186
178 436 77 104 138 182
178 437 77 99 133 179
179 436 76 127 150 187
179 437 76 118 144 185
179 437 77 102 134 179
178 438 77 80 122 172
179 438 77 58 109 164
178 438 78 71 111 163
178 439 78 45 93 147
179 439 78 43 93 148
181 432 73 64 103 181
180 432 74 64 105 180
180 433 74 78 112 184
180 433 75 84 116 184
181 432 74 73 110 185
181 433 74 84 120 185
180 434 74 102 130 190
180 434 75 94 125 186
180 435 75 119 144 189
181 434 74 90 125 185
181 434 75 95 129 187
181 435 75 109 139 191
182 432 73 58 97 179
183 432 73 58 99 176
182 432 74 69 108 183
182 433 74 84 122 188
183 433 74 70 111 181
182 434 74 77 117 187
182 434 75 97 133 193
182 435 75 100 136 194
183 434 74 65 106 179
183 434 75 60 104 177
183 435 75 72 115 181
180 435 76 124 148 187
183 435 76 66 112 173
181 436 75 115 143 187
180 436 76 131 154 185
180 437 76 130 152 184
180 437 77 111 139 182
181 436 76 127 151 188
181 437 76 122 150 184
181 437 77 108 140 176
180 438 77 90 125 170
180 439 77 50 100 149
181 438 77 91 122 159
181 439 77 87 116 150
180 439 78 30 90 141
181 439 78 80 107 140
182 436 76 112 145 186
182 437 76 101 137 175
182 437 77 98 133 171
183 436 76 91 126 176
183 437 76 102 133 174
183 437 77 96 129 169
182 438 77 86 120 158
183 438 77 92 120 151
182 439 78 76 104 136
183 439 78 74 102 132
176 440 79 49 86 127
176 441 79 44 83 119
177 440 79 58 95 138
177 441 79 61 91 126
177 442 79 64 90 122
178 440 78 47 84 136
178 441 79 48 84 124
179 440 78 36 79 133
179 441 78 37 75 126
179 441 79 33 75 121
178 442 79 59 90 119
179 442 79 38 77 112
179 443 79 46 79 109
180 440 78 28 81 127
180 441 78 32 76 121
180 441 79 30 75 112
181 440 78 51 87 120
181 441 79 27 72 107
180 442 79 37 72 107
181 442 79 36 72 104
182 440 78 49 81 113
182 440 79 32 73 107
182 441 79 32 66 104
183 440 78 51 85 116
183 440 79 49 82 111
183 441 79 52 82 110
182 442 79 47 72 105
184 432 73 54 94 168
185 432 73 67 104 169
184 433 74 82 118 180
185 432 74 73 110 172
185 433 74 77 117 174
184 434 74 97 132 185
184 434 75 81 123 176
184 435 75 73 117 170
185 434 74 80 124 176
185 434 75 80 123 172
185 435 75 68 117 165
186 432 74 59 101 164
186 433 74 65 106 164
186 433 75 70 109 161
187 432 74 47 92 159
187 432 75 43 90 155
187 433 75 57 98 157
186 434 75 73 115 161
187 434 75 64 106 158
184 435 76 66 110 166
185 435 76 71 115 162
187 433 76 66 107 158
186 434 76 71 110 155
186 435 76 82 117 158
186 435 77 72 111 149
187 434 76 52 99 150
187 434 77 54 99 147
187 435 77 63 105 144
187 434 78 65 101 144
187 435 78 62 101 139
187 435 79 63 97 133
184 436 76 61 104 160
184 437 76 71 109 159
184 437 77 74 109 152
185 436 76 60 107 153
185 436 77 60 103 148
185 437 77 65 100 141
185 437 78 67 100 133
184 438 77 75 108 141
184 438 78 69 100 133
184 439 78 59 90 122
184 439 79 47 80 110
185 438 78 53 90 124
185 438 79 50 84 116
185 439 79 31 68 101
186 436 77 65 105 144
186 436 78 51 93 132
186 437 78 48 87 127
186 437 79 44 83 120
187 436 78 60 100 138
187 436 79 63 96 130
187 437 79 53 86 121
186 438 79 35 76 112
188 432 75 36 85 151
188 433 75 53 94 154
188 432 76 44 87 148
188 432 77 35 81 143
188 433 76 50 91 149
188 433 77 44 88 144
189 432 77 33 80 142
188 433 78 42 85 140
189 432 78 43 84 140
189 432 79 46 88 136
189 433 78 35 81 137
189 433 79 43 86 135
188 434 76 48 93 148
188 434 77 48 91 144
188 434 78 55 94 142
188 434 79 54 92 136
188 435 78 62 97 139
188 435 79 59 92 130
189 434 79 51 91 131
190 432 79 52 91 134
184 440 79 42 77 104
176 432 94 76 99 120
176 432 95 74 99 122
176 433 95 83 103 123
177 432 94 92 108 126
177 433 94 93 109 126
177 433 95 94 110 127
176 434 95 90 107 126
177 434 95 82 102 121
177 435 95 69 94 118
178 432 94 87 106 124
178 433 94 78 100 121
179 432 94 75 99 122
179 433 94 69 93 120
178 434 95 68 93 118
178 435 95 50 83 115
179 434 95 51 83 116
179 435 95 32 72 111
180 432 94 65 91 119
180 433 94 54 84 116
180 433 95 44 77 115
181 432 94 39 74 112
181 433 94 36 71 111
181 433 95 47 76 113
180 434 95 34 71 112
180 435 95 36 73 114
181 434 95 53 79 115
181 435 95 59 85 115
182 432 94 51 75 113
182 432 95 61 84 117
182 433 95 60 83 114
183 432 95 57 84 114
183 433 95 68 91 116
182 434 95 67 89 114
182 435 95 79 98 119
183 434 95 86 104 123
183 435 95 93 109 127
176 441 80 41 83 121
176 442 80 38 78 117
176 443 80 38 77 118
177 443 80 38 77 113
178 443 80 50 84 112
179 443 80 53 81 109
176 444 80 48 80 118
176 444 81 59 88 121
176 445 81 58 89 118
177 444 80 51 81 112
177 445 81 57 87 114
176 446 81 70 96 120
177 446 81 70 95 118
176 446 82 81 102 124
176 447 82 89 105 124
177 446 82 75 98 119
177 447 82 82 100 118
178 444 80 59 85 109
178 445 81 65 89 112
179 444 80 61 82 108
179 444 81 54 79 105
179 445 81 63 87 109
178 446 81 72 93 113
179 446 81 70 91 112
178 446 82 73 93 112
178 447 82 78 97 114
179 446 82 68 91 111
179 447 82 79 97 114
179 447 83 73 93 111
180 443 80 59 81 109
181 442 80 50 77 104
181 443 80 56 80 105
181 443 81 56 82 106
183 441 80 58 80 104
182 442 80 60 78 106
182 443 80 64 82 104
182 443 81 67 85 105
183 442 80 60 77 104
183 442 81 64 84 104
183 443 81 67 86 106
183 443 82 69 89 110
183 443 83 71 92 113
180 444 80 60 80 107
180 444 81 51 79 104
180 445 81 47 78 104
181 444 81 64 87 107
180 445 82 51 81 105
181 444 82 66 87 106
181 445 82 67 89 107
181 445 83 67 88 106
180 446 82 58 85 107
180 446 83 59 85 107
180 447 83 60 86 108
181 446 83 59 85 106
182 444 82 69 88 107
182 444 83 68 89 109
182 445 83 70 91 110
183 444 83 73 92 111
181 445 84 67 88 107
181 445 85 60 84 106
180 447 84 66 91 112
181 446 84 59 85 107
181 446 85 45 79 104
181 447 84 55 84 108
181 447 85 45 80 106
181 446 86 33 75 102
181 447 86 37 76 104
182 444 84 71 91 111
182 445 84 68 91 111
182 445 85 61 86 108
183 444 84 70 90 111
183 444 85 64 86 106
182 445 86 50 80 106
183 444 86 47 77 103
183 445 86 48 79 105
183 445 87 40 75 104
182 446 85 42 77 103
182 446 86 36 76 103
182 446 87 34 75 103
182 447 87 35 75 104
183 446 87 35 75 103
183 445 88 37 75 105
182 447 88 43 78 106
183 446 88 34 75 105
183 447 88 43 78 105
183 447 89 49 80 106
185 439 80 19 60 95
186 437 80 41 74 111
187 436 80 53 85 119
187 437 80 46 78 113
187 437 81 21 60 98
186 438 80 14 59 97
186 439 80 7 58 95
186 439 81 10 57 90
187 438 80 14 55 96
187 438 81 17 57 94
186 439 82 28 65 92
187 438 82 16 59 93
187 439 82 22 64 95
187 439 83 38 72 101
187 439 84 33 72 102
189 433 80 50 89 131
188 435 80 57 87 119
189 434 80 47 85 122
189 434 81 44 83 119
189 435 80 51 85 116
189 435 81 42 78 108
190 432 80 46 87 130
190 432 81 28 76 120
190 433 80 46 86 127
190 433 81 30 76 116
191 432 81 22 71 116
191 433 81 33 73 113
191 432 82 29 71 112
191 433 82 30 67 105
190 434 81 34 75 112
190 435 81 36 72 106
190 434 82 32 69 103
190 435 82 33 68 99
191 434 82 21 64 98
191 434 83 22 67 99
191 435 82 27 66 97
191 435 83 25 69 101
191 435 84 24 67 101
188 436 80 53 83 115
188 436 81 36 70 104
188 437 81 28 65 98
189 436 81 37 74 106
188 437 82 25 64 96
189 436 82 44 75 102
189 437 82 40 73 100
189 437 83 30 71 100
188 438 82 21 64 95
188 438 83 20 66 97
188 439 83 24 68 99
189 438 82 25 69 100
189 438 83 20 67 99
190 436 82 38 72 100
190 436 83 31 70 102
190 437 83 30 71 103
191 436 83 28 69 102
190 438 83 26 72 104
188 439 84 29 70 102
189 439 84 19 68 102
189 439 85 23 68 103
190 437 84 26 70 104
191 436 84 29 66 99
191 436 85 28 66 100
191 437 84 28 67 101
191 437 85 24 67 101
190 438 84 24 70 102
190 438 85 18 67 101
190 439 84 21 71 103
190 439 85 13 66 101
191 438 84 21 69 102
191 438 85 22 66 101
191 439 85 13 64 99
190 439 86 15 66 100
191 438 86 21 65 100
191 439 86 17 64 99
191 439 87 19 66 98
184 432 95 64 91 116
184 433 95 86 106 125
184 434 95 88 107 126
184 440 80 45 74 103
184 441 80 56 80 103
184 441 81 60 81 103
185 440 80 39 67 96
185 440 81 49 74 98
184 441 82 68 87 107
184 441 83 69 90 112
185 440 82 50 75 97
185 440 83 56 80 101
185 441 82 60 81 103
185 441 83 62 86 107
184 442 81 66 85 106
184 442 82 67 88 109
184 442 83 70 90 110
184 443 83 70 93 114
186 440 81 24 63 90
186 440 82 40 69 93
186 440 83 41 72 97
187 440 83 37 72 101
185 441 84 62 88 110
185 441 85 56 86 110
184 443 84 69 90 112
184 443 85 60 85 108
185 442 84 64 90 113
185 442 85 57 86 111
184 443 86 45 74 103
185 442 86 51 80 107
185 442 87 36 68 105
185 443 86 47 74 106
185 443 87 35 69 106
186 440 84 49 79 103
186 440 85 51 84 109
186 441 84 60 86 108
186 441 85 50 84 109
187 440 84 38 74 102
187 440 85 37 78 106
186 441 86 41 75 105
186 441 87 34 69 101
187 440 86 34 77 106
187 441 86 33 73 104
187 441 87 31 69 102
186 442 86 49 80 105
186 442 87 34 64 102
187 442 87 33 65 103
184 444 86 48 77 104
184 444 87 40 74 104
188 440 85 35 76 107
189 440 85 29 70 104
188 440 86 35 74 106
188 441 86 34 71 104
188 441 87 36 72 104
189 440 86 31 71 104
189 440 87 30 69 102
189 441 87 35 71 103
190 440 86 23 68 100
190 440 87 28 69 100
191 440 87 24 68 99
185 443 88 31 71 106
186 442 88 33 66 104
186 443 88 29 69 103
187 442 88 30 69 102
187 443 89 40 73 102
184 444 88 38 73 102
184 445 88 28 70 101
184 445 89 22 66 99
185 444 88 30 67 103
185 444 89 7 59 96
185 445 88 15 63 97
185 445 89 19 63 98
184 446 89 31 72 104
184 447 89 46 79 106
185 446 89 32 69 102
184 447 90 58 86 112
185 446 90 33 70 102
185 447 90 40 77 105
186 444 88 23 65 99
186 444 89 23 65 98
186 445 89 26 61 97
187 444 89 35 71 100
186 445 90 30 63 98
187 444 90 39 72 101
187 445 90 36 69 100
186 446 90 28 68 100
186 447 90 37 75 104
186 447 91 42 75 104
187 446 90 34 71 100
187 446 91 40 75 104
187 447 91 44 75 105
188 441 88 31 71 104
189 441 88 31 72 104
188 442 88 31 73 105
188 442 89 37 74 104
188 443 89 40 72 102
189 442 88 30 73 104
189 442 89 34 73 103
189 443 89 42 74 103
189 443 90 42 74 103
190 441 88 31 72 102
191 440 88 21 67 97
191 441 88 23 67 98
190 442 88 32 74 104
190 442 89 32 72 101
190 443 89 35 74 102
191 442 89 27 69 98
191 443 89 26 69 96
190 443 90 36 74 103
188 444 90 34 68 99
188 445 90 32 68 99
189 444 90 35 72 102
189 445 90 40 73 103
188 446 90 33 70 101
188 446 91 30 70 101
188 447 91 36 69 101
189 446 90 38 72 103
189 446 91 37 71 103
189 447 90 29 65 100
189 447 91 32 66 100
191 444 89 22 67 97
191 445 89 24 65 94
190 444 90 39 75 103
190 445 90 36 74 102
191 444 90 29 71 98
191 445 90 22 68 97
191 446 89 21 62 97
191 447 89 29 62 97
190 446 90 28 69 101
190 447 90 29 67 99
191 446 90 21 65 98
191 447 90 31 66 99
