ply
format ascii 1.0
comment Version 2, Copyright 2017, 8i Labs, Inc.
comment frame_to_world_scale 0.179523
comment frame_to_world_translation -45.2095 7.18301 -54.3561
comment width 1023
element vertex 1908
property float x
property float y
property float z
property uchar red
property uchar green
property uchar blue
end_header
169 449 130 65 82 98
169 449 131 77 90 105
169 450 128 62 80 97
169 450 129 60 78 96
169 451 128 62 80 96
169 451 129 64 81 97
169 450 130 68 84 101
169 450 131 80 93 109
169 451 130 72 87 103
169 451 131 87 100 115
170 449 128 61 79 96
170 449 129 61 79 96
171 448 128 74 88 102
171 448 129 68 84 100
171 449 128 67 83 98
171 449 129 69 84 99
170 448 130 69 85 101
170 448 131 76 91 107
170 449 130 68 84 99
170 449 131 77 89 104
171 448 130 69 85 101
170 450 128 59 78 95
170 450 129 63 81 98
168 449 133 93 105 121
169 448 132 84 95 108
169 448 133 84 96 110
169 449 132 90 100 114
169 449 133 92 103 117
169 448 134 87 100 116
169 448 135 88 104 122
169 449 134 91 104 121
169 449 135 87 103 125
168 450 132 96 108 123
168 450 133 91 105 122
168 451 132 92 105 122
169 450 132 94 105 119
169 451 133 88 102 124
168 450 134 91 105 124
169 450 134 86 102 124
169 450 135 88 103 128
169 451 134 88 103 127
170 448 132 82 94 108
170 450 135 91 106 133
170 451 134 91 106 133
170 451 135 91 106 134
171 451 135 96 111 137
168 452 128 83 94 107
168 452 129 91 100 112
168 453 128 92 101 113
169 452 128 70 85 100
169 452 129 85 96 110
169 453 128 78 89 101
169 453 129 104 112 124
168 452 130 82 94 108
169 452 130 95 105 118
169 452 131 95 107 123
169 453 130 103 113 127
169 453 131 96 108 126
168 454 128 100 108 119
168 454 129 102 112 125
168 455 128 99 111 126
168 455 129 103 114 129
169 454 129 103 114 128
169 455 129 99 112 130
169 454 130 100 111 127
169 454 131 97 108 128
170 453 131 102 113 133
170 455 129 99 110 128
171 455 129 82 95 118
170 454 130 101 112 131
170 454 131 98 109 130
170 455 130 101 111 129
171 454 131 87 100 126
171 455 130 85 98 121
168 452 132 90 103 122
169 452 132 90 104 124
169 452 133 87 102 125
169 453 132 90 103 126
170 452 133 93 108 132
170 453 132 94 108 130
170 453 133 94 108 132
171 452 133 97 112 136
171 453 132 95 109 131
171 453 133 94 108 132
170 452 134 94 108 133
171 452 134 98 112 137
170 454 132 96 110 134
171 454 132 88 102 128
172 448 128 81 93 106
172 451 135 103 116 136
173 451 135 102 115 133
174 451 135 99 112 129
175 451 135 94 108 127
172 455 129 76 90 115
173 455 129 77 90 113
172 454 131 85 97 121
172 455 130 83 95 119
173 454 131 87 97 119
173 455 130 85 96 117
174 455 129 75 87 111
175 455 129 74 87 112
174 454 131 82 93 117
174 455 130 82 93 114
175 454 131 80 93 117
175 455 130 78 90 115
172 453 132 96 107 127
172 453 133 97 109 130
173 453 132 87 100 123
173 453 133 81 97 119
172 452 134 95 110 132
173 452 134 87 102 123
172 454 132 88 100 124
173 454 132 87 99 120
174 452 133 79 93 115
174 453 132 77 92 116
174 453 133 77 93 116
175 452 133 80 95 116
175 453 132 77 92 116
175 453 133 79 95 117
174 452 134 87 102 122
175 452 134 86 100 120
174 454 132 82 94 116
175 454 132 83 95 117
169 448 136 87 104 125
169 448 137 86 102 128
169 449 136 87 104 129
169 449 137 86 103 130
169 448 138 86 103 130
170 449 136 89 106 130
170 449 137 96 112 135
171 449 137 107 122 141
170 448 138 99 113 137
170 448 139 97 113 138
170 449 138 102 117 140
171 448 138 114 126 145
171 448 139 112 124 144
171 449 138 111 124 143
170 450 136 91 107 135
170 450 137 97 114 138
171 450 136 100 115 139
171 448 140 117 128 146
172 449 137 116 126 143
173 449 137 115 124 141
172 448 138 115 126 143
172 448 139 115 126 143
172 449 138 116 126 143
173 448 138 113 122 139
173 448 139 111 121 138
173 449 138 114 123 139
172 450 136 111 123 142
172 450 137 114 125 143
172 451 136 109 122 140
173 450 136 116 126 143
173 450 137 116 124 142
173 451 136 110 122 138
174 449 137 104 114 133
175 449 137 101 111 130
174 448 138 106 116 132
174 448 139 105 116 134
174 449 138 104 114 131
175 448 138 105 115 131
175 448 139 104 115 133
175 449 138 101 112 130
174 450 136 107 118 136
174 450 137 106 115 135
174 451 136 108 119 137
175 450 136 98 110 130
175 450 137 103 114 133
172 448 140 115 125 142
173 448 140 111 121 137
174 448 140 103 115 134
175 448 140 105 117 136
168 456 128 99 112 130
169 456 128 100 112 130
169 456 129 99 110 131
169 457 128 100 111 130
170 456 129 98 109 129
170 457 128 98 109 129
171 456 129 79 93 118
171 457 128 85 97 120
170 458 128 93 104 125
172 456 128 64 81 106
172 456 129 71 87 113
172 457 128 66 82 109
173 456 128 69 86 108
173 456 129 73 88 112
173 457 128 65 80 105
174 456 128 71 85 108
174 456 129 74 88 109
175 456 128 69 83 108
175 456 129 68 83 105
165 463 159 63 81 119
167 463 157 46 73 98
166 462 159 42 66 97
166 463 158 50 74 108
166 463 159 49 73 108
167 462 158 51 69 91
167 462 159 48 68 94
167 463 158 45 71 98
167 463 159 43 68 98
175 455 159 77 78 82
174 463 151 59 63 68
175 463 150 48 55 64
175 463 151 56 60 66
170 459 159 59 73 86
171 458 159 67 75 83
171 459 158 57 68 79
171 459 159 59 70 82
169 463 155 58 69 85
170 463 155 56 68 82
171 462 155 62 68 80
171 463 154 52 64 77
171 463 155 58 67 80
168 461 159 48 66 87
169 460 159 53 71 88
169 461 158 58 71 85
169 461 159 54 69 87
168 462 157 57 76 92
168 463 156 62 75 91
168 463 157 55 75 94
169 462 157 62 77 91
169 463 156 64 74 89
169 463 157 61 75 90
168 462 158 54 70 89
168 462 159 53 69 91
168 463 158 48 70 93
169 462 158 56 70 85
170 461 156 64 75 86
170 461 157 63 74 85
171 460 157 60 69 79
171 461 156 65 74 84
171 461 157 63 72 81
170 460 158 57 69 81
170 460 159 52 68 83
170 461 158 59 70 83
171 460 158 54 66 78
170 462 156 64 75 88
170 462 157 62 77 91
170 463 156 64 73 86
171 462 156 63 73 83
174 459 155 61 67 74
175 459 155 64 69 75
172 457 159 73 77 83
173 457 158 69 73 79
173 457 159 72 77 83
172 459 157 60 69 77
173 459 157 59 68 77
172 458 158 62 71 81
172 458 159 66 73 81
172 459 158 57 68 79
172 459 159 62 72 82
173 458 158 61 69 78
173 459 158 59 69 79
175 457 157 61 69 78
174 456 159 72 76 80
174 457 158 68 72 79
174 457 159 76 79 84
175 456 158 74 78 83
175 456 159 73 76 81
175 457 158 67 71 77
174 458 157 59 68 78
174 459 156 61 68 76
174 459 157 58 68 77
175 458 156 59 67 76
175 458 157 58 67 77
175 459 156 61 68 75
174 458 158 63 70 80
172 461 155 59 67 75
173 461 154 58 62 69
173 461 155 59 65 72
172 463 153 57 65 73
173 462 153 54 63 72
173 463 152 63 67 72
173 463 153 61 66 73
172 462 154 51 61 72
172 462 155 57 64 75
172 463 154 45 59 71
173 462 154 56 62 71
175 461 153 52 59 68
174 460 155 59 66 73
174 461 154 56 62 68
174 461 155 56 64 72
175 460 154 59 64 70
175 460 155 61 66 73
175 461 154 55 61 68
174 462 153 54 63 71
174 463 152 64 67 72
174 463 153 61 67 74
175 462 152 63 67 72
175 462 153 52 61 70
175 463 152 64 67 72
172 460 156 64 72 80
172 460 157 60 69 77
172 461 156 63 71 80
173 460 156 64 71 77
173 460 157 63 71 78
173 461 156 60 68 76
174 460 156 61 68 75
160 479 128 81 68 57
161 479 128 80 68 58
167 479 133 67 84 101
167 479 134 64 79 98
167 479 135 46 64 85
163 479 143 59 75 93
167 475 141 58 65 74
166 475 143 52 59 67
167 474 143 57 62 70
167 475 142 51 62 73
167 475 143 50 59 68
165 478 139 51 64 79
165 479 139 59 68 80
167 477 137 59 64 69
166 477 139 47 61 75
167 476 139 48 58 69
167 477 138 59 69 80
167 477 139 50 63 77
166 479 136 42 63 87
166 479 137 60 69 87
167 478 137 60 68 81
167 479 136 52 69 88
167 479 137 60 72 89
166 478 138 69 73 79
166 478 139 53 64 75
166 479 138 74 74 78
166 479 139 60 66 73
167 478 138 66 73 83
167 479 138 73 73 77
165 477 141 40 49 60
164 477 143 59 71 84
165 476 143 59 66 75
165 477 142 44 52 63
165 477 143 55 64 73
164 479 140 51 63 76
164 479 141 47 60 73
165 478 140 45 60 75
165 478 141 39 50 61
165 479 140 52 63 76
165 479 141 42 57 72
164 478 142 44 57 70
164 478 143 52 64 75
164 479 142 52 62 74
164 479 143 53 69 87
165 478 142 42 52 63
166 476 141 48 59 71
166 477 140 42 57 71
166 477 141 43 54 66
167 476 140 54 63 74
167 476 141 56 65 76
166 476 142 45 55 66
166 476 143 52 60 70
166 477 142 45 51 61
167 476 142 47 56 65
166 478 140 47 61 74
174 467 129 61 74 91
175 466 128 46 62 78
175 466 129 60 70 84
175 467 128 54 71 88
175 467 129 60 72 88
174 467 130 63 76 92
174 467 131 71 84 101
175 466 130 65 77 90
175 466 131 67 80 93
175 467 130 63 76 91
175 467 131 74 86 101
175 465 133 101 108 119
174 467 132 86 97 113
174 467 133 72 89 108
175 466 132 92 100 112
175 466 133 93 103 116
175 467 132 88 98 113
175 467 133 83 96 113
175 466 134 81 94 109
175 467 134 78 93 110
175 467 135 92 101 114
173 469 130 57 83 106
173 469 131 65 84 105
173 470 129 57 82 105
173 471 128 56 81 106
173 471 129 50 78 103
172 471 131 68 87 107
173 470 130 57 82 105
173 470 131 60 83 104
173 471 130 56 81 104
173 471 131 70 88 108
174 468 128 65 80 98
174 468 129 60 77 98
174 469 128 67 85 105
174 469 129 62 85 107
174 468 130 63 81 101
174 468 131 73 87 106
174 469 130 62 84 107
174 469 131 68 86 107
174 470 128 63 84 106
174 470 129 60 84 107
173 469 132 59 81 104
173 469 133 64 84 103
173 469 134 69 86 104
172 470 133 80 90 103
172 471 132 79 91 105
172 471 133 80 88 99
173 470 132 67 85 103
173 470 133 74 89 105
172 470 134 74 88 103
172 471 134 72 83 97
172 471 135 64 78 94
173 470 134 70 86 102
173 470 135 67 83 98
174 468 132 72 89 110
174 468 133 62 83 105
174 469 133 60 82 104
174 468 134 71 88 107
174 469 134 71 87 105
174 469 135 75 88 105
175 468 134 79 94 111
175 468 135 77 89 106
175 469 135 72 86 104
174 470 135 73 86 102
170 471 143 58 64 73
171 471 142 56 64 76
171 471 143 58 66 75
172 471 136 63 76 91
172 471 137 83 90 102
173 470 136 65 79 93
173 470 137 73 83 94
173 471 136 63 77 91
173 471 137 84 91 103
173 471 138 84 91 101
173 471 139 78 83 91
174 469 136 65 78 94
175 469 136 54 70 93
175 469 137 50 65 90
174 470 136 66 79 92
174 470 137 67 78 92
175 470 137 65 77 101
174 470 138 70 80 91
174 470 139 69 77 92
174 471 138 80 88 97
174 471 139 77 83 92
175 470 138 67 80 98
175 470 139 61 74 95
175 471 138 69 80 97
173 471 140 70 76 84
173 471 141 60 68 77
172 470 143 58 65 74
172 471 142 56 64 75
172 471 143 59 66 74
173 470 142 55 64 74
173 470 143 58 65 74
173 471 142 56 64 75
173 471 143 57 65 75
175 469 143 59 67 78
174 470 140 62 71 86
174 470 141 56 66 80
174 471 140 69 76 86
174 471 141 59 68 80
175 470 140 58 69 86
175 470 141 55 66 81
174 470 142 56 64 76
174 470 143 57 65 75
175 470 142 57 66 78
175 470 143 58 66 78
171 473 131 75 89 111
171 475 129 70 85 106
170 475 131 82 92 112
171 474 130 83 96 113
171 474 131 82 93 114
171 475 130 77 91 110
171 475 131 79 91 112
169 475 135 70 70 84
171 472 132 83 89 100
171 472 133 83 87 95
171 473 132 78 90 110
171 473 133 79 86 103
171 472 134 75 77 84
171 472 135 78 85 94
171 473 134 74 78 87
171 473 135 71 78 87
170 474 133 100 100 112
170 475 132 81 91 110
170 475 133 90 92 105
171 474 132 87 94 113
171 474 133 89 94 109
171 475 132 75 90 114
170 474 134 86 86 96
170 474 135 70 76 87
170 475 134 92 88 95
170 475 135 78 75 86
171 474 134 84 84 95
169 479 129 92 104 119
168 479 131 77 91 109
169 479 130 89 101 119
169 479 131 90 102 120
170 477 129 89 101 115
171 476 128 65 83 101
171 476 129 69 85 104
171 477 128 75 90 107
171 477 129 77 92 109
170 476 131 70 87 105
170 477 130 78 94 112
170 477 131 72 92 111
171 476 130 66 84 105
171 476 131 70 85 104
171 477 130 79 94 111
170 478 128 101 108 119
170 478 129 95 103 115
170 479 128 92 101 113
170 479 129 98 107 119
171 478 128 93 103 115
170 478 130 94 104 117
170 478 131 84 99 115
169 477 132 72 92 110
169 477 133 62 78 97
168 477 135 76 84 100
169 476 134 72 74 87
169 476 135 73 72 86
169 477 134 66 75 92
169 477 135 62 71 89
168 478 133 69 85 102
168 479 132 81 95 112
168 479 133 72 89 107
169 478 132 82 96 112
169 478 133 72 89 106
169 479 132 87 100 118
168 478 134 70 76 89
168 478 135 62 72 89
168 479 134 63 76 93
168 479 135 63 75 91
169 478 134 72 77 90
170 476 132 68 82 100
170 476 133 77 82 93
170 477 132 66 85 104
170 476 134 85 81 89
172 472 129 64 85 108
172 473 128 80 97 115
172 473 129 74 93 112
173 472 128 74 93 114
173 472 129 63 85 108
173 473 128 80 96 114
172 472 130 56 80 104
172 472 131 60 81 103
172 473 130 70 89 109
172 473 131 62 80 104
173 472 130 56 80 104
172 474 128 87 100 114
172 474 129 87 100 115
172 475 128 73 87 105
172 475 129 80 92 110
172 474 130 85 98 113
172 472 132 75 87 102
172 472 133 77 83 94
172 472 134 65 74 85
172 472 135 73 82 95
172 476 128 63 82 102
169 475 136 67 80 95
169 475 137 74 77 86
168 475 138 58 69 80
168 475 139 53 66 78
169 474 139 60 69 80
169 475 138 61 70 82
169 475 139 55 67 78
170 473 136 74 79 93
170 473 137 82 86 99
171 472 136 79 87 97
171 472 137 86 92 101
171 473 136 77 84 95
171 473 137 87 92 101
170 473 138 79 82 90
170 473 139 71 76 86
171 472 139 75 79 89
171 473 138 79 83 93
171 473 139 72 76 90
170 474 136 67 75 91
170 474 137 75 77 92
170 475 136 61 75 90
170 474 138 73 77 88
170 474 139 65 73 83
168 473 143 55 61 69
169 472 143 55 62 70
169 473 142 55 63 73
169 473 143 54 62 70
168 474 141 58 66 75
168 475 140 61 68 77
168 475 141 59 67 76
169 474 140 61 69 79
169 474 141 61 68 77
169 475 140 58 67 78
168 474 142 54 62 72
168 474 143 54 61 69
169 474 142 55 63 73
170 473 140 71 78 88
170 473 141 61 68 78
171 472 140 70 75 85
171 472 141 61 69 80
171 473 140 68 74 84
171 473 141 62 70 79
170 472 142 53 62 71
170 472 143 56 63 73
170 473 142 55 64 73
171 472 142 55 63 75
171 472 143 56 64 74
170 474 140 62 70 80
170 474 141 65 71 82
168 476 137 66 73 84
168 477 136 72 83 99
168 477 137 66 71 78
169 476 136 70 81 95
169 476 137 58 62 71
169 477 136 63 76 95
169 477 137 67 76 89
168 476 138 56 68 81
168 476 139 52 65 78
168 477 138 60 67 76
168 478 136 68 79 94
168 478 137 63 73 88
168 476 140 56 64 73
172 472 136 76 84 95
172 472 137 86 93 103
172 472 138 80 85 96
172 472 139 74 78 89
172 472 140 66 73 84
172 472 141 61 69 80
172 472 142 57 66 78
163 471 151 76 85 98
167 471 147 51 61 71
165 469 151 67 75 86
165 471 149 62 73 84
164 470 151 73 82 93
164 471 150 68 77 88
164 471 151 69 80 92
165 470 150 61 71 82
165 470 151 62 73 86
165 471 150 61 72 83
167 469 149 49 61 73
166 469 150 61 70 80
166 469 151 64 72 83
167 468 150 57 64 73
167 468 151 61 68 79
167 469 150 56 66 77
167 469 151 66 73 82
166 470 148 53 65 76
166 470 149 52 63 75
166 471 148 57 68 79
166 471 149 55 67 79
167 470 148 51 63 74
167 470 149 52 63 73
167 471 148 49 61 72
166 470 150 58 68 79
163 467 157 48 72 111
162 467 159 56 78 126
163 466 158 63 88 126
163 466 159 59 83 126
163 467 158 53 77 119
163 467 159 55 77 124
161 471 153 88 107 129
161 470 155 104 113 133
161 471 154 97 113 134
161 471 155 107 121 142
163 469 153 66 73 92
162 469 155 59 66 97
163 468 155 52 59 98
163 469 154 65 74 101
163 469 155 51 62 95
162 470 153 82 94 113
162 471 152 83 94 109
162 471 153 86 100 120
163 470 152 72 85 101
163 470 153 73 81 103
163 471 152 79 90 104
162 470 154 87 95 115
162 470 155 88 94 116
162 471 154 92 107 127
163 470 154 72 82 97
161 470 156 102 110 133
161 470 157 101 112 138
161 471 156 108 123 148
161 471 157 103 124 153
161 470 158 86 108 139
161 470 159 76 106 139
161 471 158 88 117 150
161 471 159 62 100 140
162 468 157 67 71 116
162 469 156 73 76 110
162 469 157 82 85 122
163 468 156 69 70 113
163 468 157 64 73 114
163 469 156 59 63 101
162 468 158 67 82 124
162 468 159 64 84 128
162 469 158 89 101 135
162 469 159 81 101 137
163 468 158 57 74 116
162 470 157 93 101 130
164 467 155 66 75 107
165 466 155 62 75 98
165 467 154 56 68 95
165 467 155 61 74 98
167 465 155 52 72 86
166 467 153 52 69 93
167 466 153 53 66 86
167 467 152 55 65 81
167 467 153 52 64 85
166 466 154 55 69 91
166 466 155 56 72 90
166 467 154 58 69 93
167 466 154 54 69 88
167 466 155 48 67 86
165 465 157 63 86 116
164 465 158 67 89 125
164 465 159 62 83 124
165 464 158 51 79 114
165 464 159 62 82 120
165 465 158 54 83 117
164 466 157 59 83 113
164 467 156 75 85 113
164 467 157 54 76 109
165 466 156 64 82 102
165 466 157 65 86 111
165 467 156 74 85 105
164 466 158 65 89 125
166 464 157 47 76 106
166 465 156 73 86 108
166 465 157 63 80 108
167 464 156 64 75 99
167 464 157 53 75 100
167 465 156 66 79 101
166 464 158 46 75 108
166 466 156 68 84 100
164 469 152 70 77 91
164 469 153 64 72 90
165 468 152 62 73 89
165 468 153 59 68 88
165 469 152 66 75 91
164 468 154 52 64 95
164 468 155 56 66 100
164 469 154 56 67 94
165 468 154 55 68 94
164 470 152 68 78 97
166 468 152 64 73 89
166 468 153 56 73 97
166 469 152 65 75 87
167 468 152 57 68 83
164 468 156 75 78 114
163 474 147 50 73 92
163 475 146 60 78 94
163 475 147 58 81 103
161 473 151 96 117 138
161 474 150 84 113 139
161 474 151 86 114 141
161 475 150 67 101 135
161 475 151 71 103 140
163 473 149 80 97 114
162 472 151 86 96 108
162 473 150 87 106 124
162 473 151 96 109 125
163 472 150 78 90 103
163 472 151 79 89 101
163 473 150 78 95 111
162 474 148 65 93 115
162 474 149 76 102 123
162 475 148 61 90 118
162 475 149 61 96 126
163 474 148 64 87 107
163 474 149 77 98 117
163 475 148 63 89 112
162 474 150 81 108 132
161 478 147 95 111 132
161 479 146 79 100 120
161 479 147 83 102 123
163 476 145 50 73 92
163 477 145 50 73 93
162 476 147 49 79 112
162 477 146 52 79 103
162 477 147 40 76 110
163 476 146 56 77 96
163 476 147 55 81 107
163 477 146 49 75 98
162 479 145 70 91 112
163 478 144 60 76 92
163 478 145 57 78 100
163 479 144 61 81 102
163 479 145 66 87 110
162 478 146 66 88 114
162 478 147 81 99 126
162 479 146 80 99 120
161 476 149 44 83 130
161 477 148 49 83 122
161 477 149 31 76 126
161 476 150 49 87 134
161 476 151 46 85 137
161 477 150 25 74 132
161 477 151 34 77 139
161 478 148 91 109 137
161 478 149 87 109 140
161 479 148 88 106 125
161 479 149 87 107 127
161 478 150 82 107 145
161 478 151 91 117 149
161 479 150 90 111 131
161 479 151 88 110 130
162 476 148 49 81 118
162 476 149 42 81 125
162 477 148 37 76 117
162 478 148 52 82 118
165 473 146 47 63 77
165 473 147 49 65 80
164 475 145 59 71 83
165 474 145 50 58 67
165 475 144 54 60 67
165 475 145 55 65 75
164 474 146 50 66 80
164 474 147 50 70 87
164 475 146 59 73 86
165 474 146 51 64 77
165 474 147 44 64 80
166 473 145 44 56 68
167 472 145 51 60 70
167 473 144 46 55 63
167 473 145 48 55 63
166 472 147 51 66 80
166 473 146 48 62 75
166 473 147 47 63 77
167 472 146 51 62 72
167 472 147 52 63 75
167 473 146 46 58 69
166 474 144 52 58 64
166 474 145 49 56 64
166 475 144 53 59 66
166 475 145 54 60 67
167 474 144 54 59 67
164 472 148 62 79 94
164 472 149 69 82 96
164 473 148 67 86 103
165 472 148 56 72 86
165 472 149 60 74 87
165 473 148 49 68 85
164 472 150 70 82 94
164 474 148 55 77 95
166 472 148 51 67 81
164 476 144 59 67 77
164 476 145 53 70 85
164 477 144 57 70 84
164 477 145 52 71 89
165 476 144 62 68 74
164 478 144 59 73 87
160 473 153 111 131 152
161 472 153 92 111 133
161 473 152 106 122 140
161 473 153 101 120 141
160 472 155 96 122 148
160 473 154 103 125 148
160 473 155 94 121 147
161 472 154 93 116 140
161 472 155 101 124 147
161 473 154 89 113 138
160 474 152 86 116 149
160 474 153 100 125 153
160 475 152 73 104 148
160 475 153 79 107 150
161 474 152 87 116 144
161 474 153 102 125 149
161 475 152 75 106 145
160 474 154 107 130 156
160 474 155 103 128 158
160 475 154 84 110 151
160 475 155 87 114 154
161 475 155 79 108 152
162 472 152 92 104 118
160 472 156 94 122 152
160 473 156 84 118 149
161 472 156 100 124 151
161 472 157 87 117 152
161 473 157 66 107 146
161 472 158 69 108 147
161 472 159 53 97 140
161 473 158 55 98 143
161 473 159 50 93 139
160 474 156 94 124 158
161 474 156 81 114 154
161 474 157 63 101 145
161 475 156 81 112 154
161 475 157 71 105 147
161 474 158 36 87 139
162 472 159 52 95 139
162 473 159 49 92 138
162 475 157 57 96 139
162 474 158 54 93 141
162 474 159 61 98 140
162 475 158 54 92 137
162 475 159 57 97 136
160 476 152 55 88 145
160 476 153 54 85 147
161 476 152 43 80 141
161 477 152 32 76 142
161 477 153 25 70 143
160 476 154 65 94 149
161 476 154 56 87 150
161 476 155 60 92 150
161 477 154 25 70 144
161 477 155 29 72 143
161 478 152 92 119 151
161 478 153 82 113 150
161 479 152 90 111 130
161 479 153 91 113 134
161 478 154 69 102 147
161 478 155 47 84 141
162 479 153 83 107 129
162 478 154 100 123 147
162 478 155 71 103 143
162 479 154 71 100 126
162 479 155 58 93 125
161 476 156 61 98 147
161 477 156 37 79 142
162 476 156 56 96 143
162 476 157 51 93 136
162 477 156 46 85 142
162 477 157 56 93 140
162 476 158 48 89 131
162 476 159 48 93 131
162 477 158 66 100 139
162 477 159 71 106 140
163 476 159 58 99 134
163 477 159 79 112 144
162 478 156 46 86 138
162 478 157 41 81 135
162 479 156 63 99 131
163 478 157 38 82 133
163 479 156 67 101 134
163 479 157 69 103 138
162 478 158 59 93 138
163 478 158 46 88 135
163 478 159 55 95 138
163 479 158 56 95 135
163 479 159 43 88 131
168 467 151 52 57 69
169 467 150 59 62 68
169 467 151 53 58 67
171 465 151 50 59 69
170 467 149 56 61 67
171 467 149 56 62 70
170 466 151 52 58 68
170 467 150 60 62 68
170 467 151 55 59 66
171 466 150 55 58 66
171 466 151 53 59 68
171 467 150 57 60 67
169 471 145 55 62 70
168 470 147 55 62 69
168 471 146 55 63 71
168 471 147 55 63 72
169 470 146 56 62 69
169 470 147 56 62 69
169 471 146 58 64 73
170 469 147 56 63 70
171 468 147 53 61 69
171 469 146 58 63 69
171 469 147 55 61 69
170 470 145 57 64 72
170 471 144 55 62 70
170 471 145 56 63 71
171 470 144 58 64 71
171 470 145 59 64 72
171 471 144 58 65 76
170 470 146 58 64 71
170 470 147 58 63 70
171 470 146 60 65 72
168 469 148 55 64 73
168 469 149 51 62 72
169 468 149 52 59 68
169 469 148 54 62 71
169 469 149 50 60 70
168 468 150 57 63 72
168 468 151 56 62 71
169 468 150 54 59 67
168 470 148 55 63 72
170 468 148 54 62 71
170 468 149 52 60 69
170 469 148 54 62 71
171 468 148 52 61 70
171 468 149 50 59 67
173 467 147 55 61 68
175 467 145 63 66 71
174 466 147 53 60 69
174 467 146 57 62 68
174 467 147 53 60 67
175 466 147 52 59 67
175 467 146 59 63 69
173 465 149 55 60 67
172 464 151 48 55 64
172 465 150 52 57 65
172 465 151 48 56 65
173 464 151 55 60 67
173 465 150 55 59 66
173 465 151 50 56 64
172 466 149 58 62 68
172 467 148 49 58 68
172 467 149 54 61 68
173 466 148 56 63 70
173 466 149 53 60 67
173 467 148 52 60 69
172 466 150 54 58 66
174 465 149 56 61 68
175 464 149 56 61 67
175 465 148 57 63 70
175 465 149 58 63 69
174 464 150 53 59 66
174 464 151 55 61 67
174 465 150 55 60 67
175 464 150 52 58 65
174 466 148 54 61 70
174 466 149 55 61 68
175 466 148 55 61 69
172 469 145 60 65 72
173 469 144 58 65 73
173 469 145 60 65 73
172 468 146 60 63 69
172 468 147 55 61 68
172 469 146 60 64 70
173 468 146 59 63 69
173 468 147 56 61 68
173 469 146 60 64 71
172 470 144 59 65 73
172 470 145 60 65 73
173 470 144 58 65 74
174 468 145 60 65 73
174 469 144 57 65 74
174 469 145 61 66 73
175 468 144 59 66 75
175 468 145 61 66 73
175 469 144 58 66 77
174 468 146 60 64 70
174 470 144 54 63 73
172 468 148 50 60 69
168 465 153 57 68 82
169 465 153 58 69 81
168 464 155 53 70 88
168 465 154 46 65 78
168 465 155 51 70 90
169 464 154 45 63 79
169 464 155 52 67 84
169 465 154 49 65 77
168 466 152 53 59 77
168 466 153 53 63 80
168 467 152 53 59 74
168 467 153 50 59 79
169 466 152 50 58 73
169 466 153 52 63 78
169 467 152 50 56 72
168 466 154 50 65 82
170 464 153 55 65 74
170 465 152 48 58 71
170 465 153 56 65 76
171 464 153 57 66 74
171 465 152 54 62 72
171 465 153 60 68 77
170 464 154 48 63 76
171 464 154 48 61 73
170 466 152 49 58 72
168 464 156 65 75 95
168 464 157 62 76 98
172 464 152 58 64 71
172 464 153 62 69 77
172 465 152 55 62 71
173 464 152 59 64 71
168 472 145 52 60 69
168 473 144 51 58 66
168 473 145 49 57 66
169 472 144 54 61 71
169 472 145 54 61 70
169 473 144 55 61 69
168 472 146 53 62 71
170 472 144 55 62 70
176 451 134 85 100 123
176 451 135 89 103 126
177 451 134 90 103 128
177 451 135 90 104 128
178 451 134 94 107 133
178 451 135 93 107 133
179 451 134 95 109 137
179 451 135 96 110 139
176 455 129 67 82 113
177 455 129 72 86 118
176 454 130 79 91 120
176 454 131 82 94 120
176 455 130 74 87 115
177 454 130 80 91 122
177 454 131 83 94 122
177 455 130 75 88 120
179 453 131 92 104 131
178 455 129 69 86 119
179 455 129 71 86 121
178 454 130 76 89 121
178 454 131 84 97 126
178 455 130 76 90 123
179 454 130 81 95 126
179 454 131 87 101 129
179 455 130 71 88 121
176 452 133 87 99 121
176 453 132 85 98 122
176 453 133 81 96 117
177 452 133 92 103 127
177 453 132 90 101 126
176 452 134 83 97 121
177 452 134 89 102 127
176 454 132 85 98 120
178 452 133 96 106 132
178 453 132 93 104 129
179 452 133 98 108 138
179 453 132 95 106 134
178 452 134 95 107 134
179 452 134 99 110 140
180 451 135 97 110 143
180 454 130 80 96 127
180 454 131 77 94 127
180 455 130 74 90 124
181 454 131 70 87 124
181 455 130 75 91 124
181 455 131 71 87 123
180 452 133 91 103 139
180 453 132 85 98 133
180 453 133 84 97 136
181 453 132 65 84 129
181 453 133 69 86 131
180 452 134 91 103 139
180 452 135 86 99 139
181 452 134 78 91 133
181 452 135 68 83 133
181 453 134 67 84 131
180 454 132 68 88 126
181 454 132 68 88 128
181 454 133 67 85 131
182 453 134 68 85 132
182 453 135 65 81 131
182 454 132 69 87 127
182 454 133 66 85 128
182 455 132 69 85 123
182 455 133 69 87 126
182 454 134 70 87 130
182 454 135 74 89 131
182 455 134 73 89 128
182 455 135 77 91 129
176 449 137 95 107 128
177 449 137 91 106 129
176 448 138 104 115 131
176 448 139 109 119 135
176 449 138 97 110 130
177 448 138 106 118 138
177 448 139 112 123 142
177 449 138 98 112 134
176 450 136 93 106 127
176 450 137 99 111 131
177 450 136 93 107 129
177 450 137 94 109 130
178 449 137 91 106 131
178 448 139 116 127 146
178 449 138 98 113 137
178 449 139 115 128 146
179 448 139 110 122 146
179 449 138 93 109 139
179 449 139 102 118 145
178 450 136 93 107 133
178 450 137 93 108 133
179 450 136 98 112 139
179 450 137 96 111 139
179 451 136 96 111 139
176 448 140 110 120 137
177 448 140 113 123 142
178 448 140 119 129 148
179 448 140 109 122 147
179 448 141 112 125 151
180 449 138 96 112 145
180 449 139 94 111 146
180 450 137 99 112 146
180 451 136 94 109 143
180 451 137 92 106 144
181 451 136 78 93 138
181 451 137 76 92 138
180 450 138 96 110 148
181 450 138 92 105 147
181 450 139 81 98 142
181 451 138 79 94 140
182 451 137 66 82 135
182 451 138 68 86 135
182 451 139 65 84 133
180 448 140 94 111 144
180 448 141 92 110 145
180 449 140 89 107 142
181 449 140 81 98 142
181 449 141 72 91 140
180 448 142 93 111 146
181 448 142 74 95 141
181 448 143 63 86 138
181 449 142 64 86 137
181 450 140 72 89 137
182 449 141 62 83 136
182 449 142 58 81 134
182 449 143 60 82 133
182 450 140 66 82 134
182 450 141 64 83 134
182 451 140 66 82 133
182 451 141 73 90 135
182 450 142 69 88 134
182 450 143 75 92 134
182 451 142 79 94 135
182 451 143 76 92 132
181 452 136 69 85 135
182 452 136 66 82 133
182 452 137 65 82 133
182 453 136 68 83 132
182 453 137 71 87 134
182 452 138 64 84 132
182 452 139 71 89 134
182 453 138 75 92 135
182 453 139 78 96 132
182 454 136 77 91 133
182 454 137 78 93 132
182 455 136 76 90 129
182 455 137 71 90 126
182 454 138 75 93 129
182 454 139 73 91 124
182 455 138 70 89 123
182 455 139 72 90 120
181 455 140 78 93 119
181 455 141 72 90 113
181 454 142 75 92 115
181 454 143 69 87 110
181 455 142 66 86 110
181 455 143 63 83 105
182 452 140 78 93 136
182 452 141 76 93 133
182 453 140 77 95 129
182 453 141 76 94 125
182 452 142 72 89 130
182 452 143 70 87 127
182 453 142 73 92 125
182 453 143 70 89 122
182 454 140 81 96 125
182 454 141 84 100 124
182 455 140 79 93 122
182 454 142 78 95 121
182 454 143 73 90 117
176 456 128 66 81 109
176 456 129 64 81 109
177 456 128 70 87 113
177 456 129 68 84 114
177 457 128 69 84 111
178 456 128 75 91 117
178 456 129 70 87 119
178 457 128 79 94 116
179 456 129 69 85 118
179 457 128 67 87 114
179 457 129 67 86 115
179 458 128 69 87 114
179 459 128 59 76 110
177 463 129 50 67 89
177 463 130 48 65 87
177 463 131 44 63 86
179 460 128 61 75 108
179 461 128 63 75 105
179 461 129 60 73 104
178 461 130 55 69 98
179 460 131 60 74 103
179 461 130 59 72 102
179 461 131 56 71 100
178 462 128 62 75 100
178 462 129 53 69 96
178 463 128 56 71 93
178 463 129 51 67 91
179 462 128 63 75 102
179 462 129 61 75 103
178 462 130 52 68 95
178 462 131 49 66 93
177 462 132 42 59 86
177 462 133 42 57 81
177 463 132 45 61 84
177 463 133 53 67 85
177 462 134 49 67 85
177 462 135 62 78 94
177 463 134 71 83 97
177 463 135 81 92 105
178 461 132 47 63 91
178 461 133 49 65 89
179 460 132 57 72 99
179 460 133 56 71 95
179 461 132 54 68 96
179 461 133 52 68 92
178 461 134 50 68 88
178 461 135 57 75 93
179 460 134 52 69 93
179 460 135 56 74 94
179 461 134 51 68 90
178 462 132 40 58 86
178 462 133 42 61 83
178 462 134 49 68 87
178 462 135 63 79 95
180 456 129 72 89 121
180 457 129 67 85 115
180 456 130 76 92 125
180 457 130 66 83 116
181 456 130 73 89 123
181 456 131 70 86 121
181 457 130 66 82 116
181 457 131 67 83 117
180 458 128 60 79 110
180 458 129 63 80 111
180 459 128 59 75 109
180 459 129 66 78 110
180 458 130 64 79 110
180 459 130 67 80 111
180 459 131 66 81 109
181 458 130 65 80 112
181 458 131 69 84 113
181 459 131 67 82 110
182 456 131 67 84 120
181 457 135 66 82 117
180 459 132 66 80 106
180 459 133 67 80 106
181 458 132 69 83 114
181 458 133 70 83 113
181 459 132 66 80 108
180 458 135 58 77 104
180 459 134 61 76 101
180 459 135 57 75 99
181 458 134 70 84 113
181 458 135 63 80 111
182 456 132 69 84 122
182 456 133 71 86 124
182 457 132 70 85 120
182 457 133 72 86 121
182 456 134 72 88 125
182 456 135 68 85 123
182 457 134 71 84 120
182 457 135 67 84 119
180 460 128 61 76 109
180 460 129 65 77 108
180 460 130 64 76 106
180 460 131 63 77 106
180 460 132 61 76 102
180 460 133 59 73 99
180 460 134 55 71 97
179 459 136 55 74 95
179 459 137 60 78 96
179 458 139 75 89 105
179 459 138 69 85 101
179 459 139 78 92 107
179 458 140 84 95 109
179 458 141 78 91 108
179 459 140 90 100 113
179 459 141 83 95 108
179 458 142 70 84 101
179 458 143 66 80 95
179 459 142 68 83 99
179 459 143 76 87 100
177 462 136 72 87 102
177 462 137 86 99 115
177 463 136 80 93 106
177 463 137 85 99 115
177 463 138 72 89 107
178 460 137 64 82 99
178 461 136 61 79 97
178 461 137 71 87 103
179 460 136 60 78 96
179 460 137 63 80 97
178 460 138 76 90 106
178 460 139 89 101 115
178 461 138 82 95 110
178 461 139 88 101 116
179 460 138 72 87 103
179 460 139 86 98 113
178 462 136 72 86 102
178 462 137 78 93 108
178 462 138 87 101 117
178 462 139 76 92 110
178 463 139 53 71 94
178 460 140 91 102 116
178 461 140 75 90 106
178 461 141 52 72 89
179 460 140 90 100 114
179 460 141 72 86 100
179 461 141 60 77 93
179 460 142 71 84 99
179 460 143 84 93 103
179 461 142 78 88 101
179 461 143 86 93 103
178 462 140 70 86 105
178 462 141 67 82 97
178 463 140 60 77 95
178 463 141 78 88 101
179 463 141 79 87 98
179 462 142 77 86 97
179 462 143 79 86 96
179 463 142 73 82 93
179 463 143 70 77 87
181 457 136 61 79 113
181 457 137 59 80 110
180 457 139 55 77 98
181 456 138 64 85 117
181 456 139 64 85 113
181 457 138 60 80 108
181 457 139 55 78 103
180 458 136 54 75 100
180 458 137 52 73 95
180 459 136 53 73 96
180 459 137 56 75 94
181 458 136 59 78 107
181 458 137 53 75 102
180 458 138 55 77 98
180 458 139 63 82 100
182 456 136 68 84 123
182 456 137 67 86 121
182 457 136 63 81 117
182 456 138 68 87 121
180 456 141 56 78 102
180 457 140 62 80 100
180 457 141 62 81 101
181 456 140 63 82 108
181 456 141 61 82 106
181 457 140 53 75 99
180 456 142 53 76 99
180 456 143 55 76 100
180 457 142 62 81 99
180 457 143 62 80 97
181 456 142 56 78 103
180 458 140 74 87 104
181 448 144 57 82 136
182 448 144 55 80 133
182 448 145 55 78 131
182 449 144 64 83 132
182 449 145 68 87 130
182 448 146 59 80 130
182 448 147 65 83 129
182 449 146 68 87 129
182 449 147 68 87 125
182 450 144 75 91 131
182 450 145 71 89 126
182 451 144 72 88 127
182 451 145 69 86 122
182 450 146 66 85 122
182 450 147 64 84 116
182 451 146 66 85 117
182 451 147 59 80 108
182 448 148 66 83 126
182 448 149 64 81 121
182 449 148 61 80 117
182 449 149 65 83 114
183 448 149 64 81 121
182 449 150 80 94 115
183 448 150 83 96 121
183 448 151 97 106 121
183 449 150 90 102 120
183 449 151 93 104 117
182 450 148 62 83 111
182 450 149 67 86 109
182 451 148 69 89 109
182 451 149 73 90 109
182 450 150 74 90 108
182 450 151 79 92 107
182 451 150 76 91 107
182 451 151 70 84 100
183 450 151 88 97 111
181 453 145 66 83 108
181 452 147 84 97 111
181 453 146 70 87 108
181 453 147 78 93 108
180 455 144 64 80 97
180 455 145 78 89 102
181 454 144 64 83 105
181 454 145 69 83 102
181 455 144 62 81 101
181 455 145 74 86 101
180 455 146 92 98 107
181 454 146 81 93 107
181 454 147 83 94 107
181 455 146 90 97 107
181 455 147 81 91 103
182 452 144 68 85 124
182 452 145 66 84 117
182 453 144 68 86 116
182 453 145 62 81 110
182 452 146 61 81 110
182 452 147 70 88 109
182 453 146 62 82 107
181 452 148 82 95 110
181 452 149 74 90 105
181 453 148 79 92 107
181 453 149 70 86 101
181 453 150 62 80 98
181 454 148 77 90 103
181 454 149 73 85 99
181 455 148 84 92 103
181 455 149 76 84 95
181 454 150 63 76 93
181 455 150 54 69 84
181 455 151 44 63 79
182 452 148 80 95 111
182 452 149 77 92 108
182 453 149 68 85 101
182 452 150 69 86 103
182 452 151 63 81 97
182 453 150 59 78 96
182 453 151 55 75 92
182 454 150 58 74 92
182 454 151 53 70 86
179 450 159 83 88 96
179 451 158 74 79 89
179 451 159 78 83 91
179 455 155 45 56 72
177 453 159 80 82 86
177 455 157 70 74 80
176 455 158 74 76 79
176 455 159 77 78 82
177 454 158 77 79 84
177 454 159 79 80 84
177 455 158 73 76 81
177 455 159 77 78 81
179 452 157 70 74 85
179 453 156 58 66 78
179 453 157 70 74 83
178 452 158 72 75 84
178 452 159 79 82 87
178 453 158 73 77 84
178 453 159 77 79 85
179 452 158 72 76 86
179 452 159 77 81 87
178 454 157 71 75 81
178 455 156 55 62 70
178 455 157 67 71 78
179 454 156 56 63 72
179 454 157 66 71 80
179 455 156 47 56 69
178 454 158 74 77 82
181 451 155 44 61 78
183 448 152 102 109 118
183 448 153 99 105 115
183 449 152 95 103 112
183 449 153 91 98 107
182 449 155 72 82 93
183 448 154 93 100 110
183 448 155 79 88 100
183 449 154 84 92 102
183 449 155 73 83 94
182 450 152 82 92 105
182 451 152 72 85 99
182 451 153 67 82 97
183 450 152 87 96 107
183 450 153 78 88 101
182 450 154 53 71 86
182 450 155 56 71 85
182 451 154 45 64 85
182 451 155 42 61 80
183 450 154 65 78 92
181 449 157 71 80 92
180 449 159 80 87 97
181 448 159 82 89 100
181 449 158 76 84 94
181 449 159 83 89 99
180 451 157 68 73 86
181 450 156 60 73 86
181 450 157 66 76 88
181 451 156 54 67 82
181 451 157 66 76 88
180 450 158 70 76 89
180 450 159 80 86 94
180 451 158 71 77 89
180 451 159 71 77 88
181 450 158 70 78 90
182 448 156 69 81 93
182 448 157 71 81 93
182 449 156 66 78 91
182 449 157 70 80 92
183 448 156 71 82 95
183 448 157 68 80 92
182 448 158 78 86 96
182 448 159 82 90 100
182 449 158 76 85 95
182 450 156 56 71 85
180 453 155 35 52 66
181 452 154 36 55 73
181 452 155 34 54 74
181 453 154 36 55 71
181 453 155 35 53 70
181 454 153 35 53 71
181 455 152 43 61 76
181 455 153 39 54 69
180 454 155 36 52 69
180 455 154 43 55 69
180 455 155 41 54 70
181 454 154 37 52 70
181 454 155 35 54 69
181 455 154 38 52 67
182 452 152 60 76 92
182 452 153 50 69 86
182 453 152 48 69 86
182 453 153 38 61 78
182 452 154 41 59 80
182 452 155 43 60 83
182 453 154 37 56 73
182 454 152 46 65 82
182 454 153 39 57 75
180 452 156 54 63 78
180 452 157 67 72 84
180 453 156 55 64 75
180 453 157 67 72 82
181 452 156 53 62 78
180 454 156 43 55 68
179 458 144 75 86 98
179 459 144 89 96 105
179 459 151 51 57 63
179 460 144 78 86 97
179 461 144 72 81 93
179 461 145 65 74 85
179 461 146 53 63 74
179 462 144 67 77 89
179 462 145 57 68 79
179 463 144 64 73 84
179 463 145 59 69 79
178 463 146 55 64 73
178 463 147 58 64 71
179 462 146 53 62 72
179 462 147 55 62 71
179 463 146 55 63 72
177 461 151 56 62 70
176 463 149 51 57 65
177 462 149 47 54 63
177 463 148 56 61 68
177 463 149 52 57 65
176 462 150 48 53 63
176 462 151 54 57 65
176 463 150 49 55 65
176 463 151 48 54 64
177 462 150 49 55 65
177 462 151 54 58 66
177 463 150 49 55 63
179 461 148 53 62 72
179 461 149 49 60 71
178 460 151 54 61 70
178 461 150 50 57 67
178 461 151 52 59 69
179 460 150 42 53 65
179 460 151 46 55 65
179 461 150 46 56 68
178 462 148 52 59 68
178 462 149 49 58 69
178 463 148 55 60 68
178 463 149 52 57 67
179 462 148 55 62 70
179 462 149 51 60 71
178 462 150 47 56 67
180 456 144 60 79 98
180 456 145 84 94 106
180 457 144 66 81 96
180 457 145 82 91 102
180 456 146 92 97 107
180 456 147 86 92 101
180 457 146 90 95 105
180 457 147 78 86 95
181 456 147 80 88 98
180 458 144 86 94 104
180 458 145 88 94 102
180 459 144 86 93 102
180 459 145 79 85 94
180 458 146 81 86 95
180 458 147 75 81 90
180 459 146 66 75 86
180 459 147 68 76 86
180 456 148 84 91 101
180 457 148 69 79 89
181 456 148 81 88 99
181 456 149 62 74 86
181 457 148 61 72 83
181 457 149 48 63 76
180 457 150 39 55 69
180 457 151 34 52 67
181 456 150 43 60 73
181 456 151 39 58 74
181 457 150 42 58 72
181 457 151 33 53 69
180 458 148 65 73 83
180 458 149 40 55 68
180 459 148 63 70 80
180 459 149 42 54 66
181 458 149 42 58 71
180 458 150 34 50 64
180 458 151 40 52 63
180 459 150 33 48 61
180 459 151 45 53 62
180 460 144 77 85 95
180 460 145 68 76 87
180 461 145 64 72 82
180 460 146 58 69 80
180 460 147 58 68 79
180 461 146 53 64 75
180 461 147 54 64 74
180 460 148 60 68 78
180 460 149 46 57 69
180 461 148 56 65 75
180 461 149 49 61 72
180 460 150 38 51 64
177 457 155 54 63 72
177 459 153 57 63 70
176 458 155 62 68 75
176 459 154 57 63 70
176 459 155 62 68 74
177 458 154 54 63 71
177 458 155 58 65 73
177 459 154 55 62 70
179 457 152 47 60 73
179 457 153 48 60 73
178 456 155 46 58 71
178 457 154 52 62 71
178 457 155 52 62 71
179 456 154 49 59 70
179 456 155 48 59 71
179 457 154 50 61 71
178 458 153 51 61 71
178 459 152 55 62 70
178 459 153 54 62 71
179 458 152 48 59 70
179 458 153 49 61 72
179 459 152 53 59 67
178 458 154 53 62 72
178 458 155 51 61 70
176 456 157 64 69 76
176 457 156 56 67 78
176 457 157 59 67 76
177 456 156 52 62 72
177 456 157 65 70 76
177 457 156 53 63 74
176 456 158 74 77 82
176 458 156 59 68 77
178 456 156 50 60 72
176 460 153 55 60 69
176 461 152 55 62 71
176 461 153 54 62 72
177 460 152 55 61 70
177 460 153 55 61 69
177 461 152 52 61 71
176 460 154 58 63 68
176 462 152 59 64 71
178 460 152 53 60 67
180 456 152 42 60 75
180 456 153 43 57 70
180 457 152 40 56 70
180 457 153 48 61 74
181 456 152 40 59 75
181 456 153 38 54 68
180 456 154 45 56 68
180 456 155 43 56 70
180 458 152 40 53 66
176 465 128 43 56 83
176 465 129 52 64 84
177 464 128 43 60 84
177 464 129 46 63 84
177 465 128 43 58 84
177 465 129 43 57 83
176 464 130 54 69 84
176 464 131 60 74 87
176 465 130 61 73 88
176 465 131 70 80 92
177 464 130 44 63 82
177 464 131 48 67 84
176 466 128 45 60 78
176 466 129 57 68 82
176 464 132 72 84 97
176 464 133 89 98 110
176 465 132 82 92 104
176 465 133 98 106 117
177 464 132 59 75 90
177 464 133 80 91 104
176 465 134 95 104 116
176 465 135 89 99 111
177 464 134 89 98 110
177 464 135 88 97 109
177 465 135 95 103 115
176 466 132 94 102 113
176 466 134 84 96 110
176 466 135 96 104 115
176 467 135 91 100 113
176 468 135 72 84 101
177 464 136 99 107 119
177 464 137 84 97 112
177 465 136 103 111 122
177 465 137 72 87 103
177 464 138 49 69 91
176 466 136 97 105 116
176 467 136 82 92 105
177 466 136 84 94 108
177 466 137 57 75 92
177 467 136 53 73 93
177 467 137 53 70 89
178 465 137 62 79 95
178 464 138 44 68 88
178 464 139 53 72 90
178 465 138 64 78 94
178 465 139 70 82 97
179 465 139 74 84 96
178 466 137 61 74 91
178 467 137 67 76 92
178 466 138 68 78 92
179 466 138 76 83 95
179 466 139 82 88 99
179 467 138 80 86 98
178 464 140 74 84 97
178 464 141 81 89 100
178 465 140 74 85 98
179 464 141 80 87 98
179 465 140 77 85 96
179 465 141 75 82 92
179 464 142 75 82 92
179 464 143 65 73 83
179 465 142 67 75 86
179 465 143 57 67 78
179 466 141 68 76 87
178 467 143 60 68 78
179 466 142 59 69 80
179 466 143 54 64 75
179 467 142 60 70 80
179 467 143 59 68 78
176 468 136 57 71 92
176 469 136 44 61 86
176 469 137 57 71 97
177 468 137 60 76 97
177 469 137 66 78 96
177 469 138 70 81 99
177 469 139 71 82 100
176 470 137 73 83 102
176 470 138 66 79 101
176 470 139 62 75 96
177 470 138 66 79 100
177 470 139 62 74 92
178 468 137 76 84 97
178 468 138 78 85 98
178 469 138 73 82 97
178 469 139 65 76 92
179 468 138 77 85 97
179 468 139 69 79 91
179 469 138 68 79 92
179 469 139 63 75 89
177 469 141 59 69 83
176 469 142 62 70 82
176 469 143 61 68 80
177 468 143 60 68 79
177 469 142 63 71 82
177 469 143 62 70 80
176 470 140 57 68 87
176 470 141 56 66 82
177 470 140 57 69 86
177 470 141 56 67 83
176 470 142 58 67 80
178 469 140 56 68 83
178 469 141 61 70 82
179 468 140 53 65 79
179 468 141 60 69 81
179 469 140 57 68 81
179 469 141 62 71 82
178 468 142 62 70 81
178 468 143 60 68 78
178 469 142 66 73 83
179 468 142 61 70 81
180 466 139 80 86 96
180 467 138 80 87 97
180 467 139 77 84 95
180 465 141 70 79 90
180 466 140 70 79 90
180 466 141 62 73 85
180 467 140 64 75 87
180 467 141 53 67 80
181 467 140 59 71 84
180 466 142 60 70 81
180 467 142 56 67 79
180 468 139 69 78 90
180 469 139 59 72 86
180 468 140 56 68 81
180 468 141 52 65 78
180 469 140 58 69 82
181 468 140 53 67 81
177 465 145 51 61 71
176 465 147 54 61 69
177 464 147 55 61 69
177 465 146 49 59 68
177 465 147 53 60 68
176 466 145 57 61 67
176 467 145 63 66 72
177 466 145 57 63 71
177 467 144 61 67 76
177 467 145 65 68 74
176 466 146 53 60 67
176 466 147 52 59 67
177 466 146 51 59 67
178 464 145 52 62 75
178 465 144 56 65 75
178 465 145 53 63 74
179 464 144 61 70 80
179 464 145 61 70 80
179 465 144 56 66 77
178 464 146 50 59 70
178 464 147 55 63 70
178 466 144 58 66 75
178 466 145 59 66 74
178 467 144 59 67 76
176 464 148 56 62 69
176 464 149 56 61 68
176 465 148 57 64 71
177 464 148 57 63 70
177 464 149 55 60 67
176 468 144 60 67 77
176 468 145 62 67 74
176 469 144 60 67 78
177 468 144 60 67 77
