ply
format ascii 1.0
comment Version 2, Copyright 2017, 8i Labs, Inc.
comment frame_to_world_scale 0.179523
comment frame_to_world_translation -45.2095 7.18301 -54.3561
comment width 1023
element vertex 1938
property float x
property float y
property float z
property uchar red
property uchar green
property uchar blue
end_header
175 463 78 81 96 111
175 463 79 73 90 106
167 448 91 84 102 120
167 449 91 57 83 105
167 450 91 71 85 102
167 451 91 90 97 108
165 450 95 81 99 118
165 451 95 101 110 122
166 448 93 98 115 133
166 449 92 56 80 103
166 449 93 70 94 116
167 448 92 85 105 124
167 449 92 54 83 107
166 448 94 96 114 133
166 448 95 94 113 133
166 449 94 78 100 121
166 449 95 77 101 123
166 450 92 70 83 98
166 450 93 86 97 111
166 451 93 91 98 109
167 450 92 67 81 97
167 451 92 83 91 102
166 450 94 91 104 119
166 450 95 85 101 118
166 451 94 106 112 122
166 451 95 108 114 124
167 452 91 98 103 111
167 453 91 93 97 105
167 454 91 86 92 100
167 455 91 81 86 93
165 452 95 107 112 120
165 453 94 109 110 115
165 453 95 110 112 118
165 454 94 97 99 103
165 454 95 102 104 108
165 455 94 84 88 94
165 455 95 89 92 97
166 452 92 94 99 108
166 452 93 94 100 108
166 453 92 96 100 108
166 453 93 101 103 110
167 452 92 93 98 107
167 453 92 95 99 106
166 452 94 104 108 116
166 452 95 106 110 120
166 453 94 107 108 113
166 454 92 90 94 101
166 454 93 92 96 102
166 455 92 82 87 94
166 455 93 81 87 94
167 454 92 90 94 101
167 455 92 81 86 93
166 454 94 95 97 102
166 455 94 83 88 94
163 459 95 89 87 86
163 463 91 114 108 104
161 461 95 84 77 72
160 463 93 97 88 80
161 462 93 109 99 90
161 463 92 109 98 88
161 463 93 105 95 86
160 462 94 87 81 76
160 462 95 89 82 77
160 463 94 91 83 77
160 463 95 92 85 79
161 462 94 91 84 78
161 462 95 88 80 73
163 461 93 97 88 82
162 460 95 95 88 83
162 461 94 90 82 76
162 461 95 91 84 78
163 460 94 88 83 78
163 460 95 87 82 80
163 461 94 93 85 79
162 462 93 112 102 95
162 463 92 120 109 100
162 463 93 112 102 95
163 462 92 113 106 101
163 462 93 101 93 87
163 463 92 121 114 110
162 462 94 95 87 79
167 456 91 83 88 94
167 457 91 88 92 97
167 458 91 88 93 101
164 456 95 83 87 92
164 457 95 83 85 89
165 456 94 82 86 92
165 456 95 83 87 93
165 457 94 83 85 89
165 457 95 84 84 88
165 458 93 85 87 91
165 459 93 85 86 90
164 458 94 85 84 85
164 458 95 86 85 86
164 459 94 84 83 84
164 459 95 79 79 81
165 458 94 86 86 89
165 459 94 85 85 89
166 456 93 81 85 91
166 457 93 83 86 90
167 456 92 80 84 89
167 457 92 84 86 90
166 456 94 81 86 93
166 458 93 86 87 91
166 459 92 88 89 92
166 459 93 82 84 89
167 458 92 87 91 96
167 459 92 80 86 94
164 463 91 114 107 103
165 463 91 107 100 95
166 463 90 101 95 90
166 463 91 100 94 89
167 462 91 91 89 89
167 463 90 97 91 86
167 463 91 92 88 86
164 461 93 85 79 76
165 460 93 59 66 74
165 461 93 70 69 69
164 460 94 77 75 75
164 461 94 84 79 77
165 460 94 65 70 76
164 462 92 101 94 90
164 462 93 94 87 82
164 463 92 109 102 98
165 462 92 88 82 79
165 463 92 103 96 92
166 460 92 59 70 81
166 460 93 55 65 76
166 461 92 58 61 67
166 461 93 55 59 65
167 460 92 64 74 85
167 461 92 66 71 78
166 462 92 82 77 76
167 462 92 86 84 85
169 448 87 74 94 114
171 448 84 111 119 134
171 448 85 100 111 128
171 449 85 105 115 130
170 448 86 87 101 119
170 448 87 74 92 113
170 449 86 97 106 120
170 449 87 87 98 113
171 449 86 102 110 124
171 450 85 110 117 128
171 451 85 112 119 130
170 450 86 106 114 127
170 450 87 100 109 121
170 451 86 114 120 130
170 451 87 107 113 123
171 450 86 110 118 130
171 451 86 114 120 130
170 452 87 116 121 130
170 453 87 105 114 126
171 452 86 111 118 128
171 453 86 102 113 127
171 453 87 101 111 125
170 454 87 100 111 125
171 454 86 100 110 124
171 454 87 97 108 122
171 455 87 91 104 120
173 448 83 85 105 125
174 448 83 99 113 129
174 449 83 87 105 122
175 448 83 91 107 125
175 449 83 74 96 117
172 448 84 112 120 135
172 449 84 109 118 132
173 448 84 94 111 129
173 449 84 90 105 124
172 450 84 100 112 126
172 451 85 107 116 129
173 450 84 94 108 125
173 451 84 98 111 127
173 451 85 99 111 126
174 449 84 81 100 119
175 449 84 74 96 116
174 450 84 72 94 115
174 451 84 74 96 118
175 450 84 66 92 114
175 451 84 60 89 113
172 452 85 106 116 130
173 452 85 96 108 123
173 453 85 88 103 119
172 452 86 105 115 128
172 453 86 101 112 125
173 453 86 88 102 119
172 454 86 83 97 113
172 455 87 67 89 108
173 454 86 70 90 109
173 455 87 57 84 106
174 452 85 73 95 116
174 453 85 70 91 111
175 452 85 58 87 111
175 453 85 65 88 108
174 453 86 74 93 113
175 453 86 63 87 108
175 453 87 50 81 105
174 454 86 62 85 105
174 455 87 52 80 103
175 454 87 48 80 104
175 455 87 49 81 106
168 448 89 67 92 113
168 449 89 59 82 104
169 448 88 62 87 111
169 448 89 62 88 111
169 449 88 69 87 105
169 449 89 60 82 104
168 448 90 75 96 115
168 449 90 59 84 106
168 450 89 70 85 101
169 450 88 88 98 111
169 450 89 79 90 104
169 451 88 103 108 117
169 451 89 98 104 113
168 450 90 73 86 102
168 451 90 95 100 110
170 451 88 103 109 119
169 452 88 106 110 119
169 452 89 101 105 113
169 453 88 109 113 121
169 453 89 98 103 112
168 452 90 101 106 113
168 452 91 99 103 112
168 453 90 94 99 108
168 453 91 92 97 106
169 454 88 106 112 120
169 454 89 96 102 111
169 455 88 103 110 120
169 455 89 100 106 114
168 454 90 86 93 101
168 455 90 87 93 100
170 452 88 110 115 124
170 453 88 111 116 124
170 454 88 105 113 123
170 455 88 94 107 121
174 455 88 53 82 106
175 454 88 46 81 107
175 455 88 49 83 108
175 455 89 46 81 109
172 456 87 58 85 107
175 463 81 63 82 99
174 463 82 64 81 96
174 463 83 69 82 96
175 463 82 60 79 95
175 463 83 63 80 96
175 462 85 67 83 98
175 463 84 68 83 98
175 463 85 67 83 99
174 463 86 62 81 98
174 463 87 61 81 99
175 462 86 60 80 97
175 462 87 55 79 101
175 463 86 63 82 98
175 463 87 56 79 99
169 456 89 100 107 117
169 457 89 93 101 111
168 456 90 91 97 104
168 457 90 100 104 110
168 457 91 91 96 102
169 456 90 101 107 115
169 457 90 101 108 116
168 458 91 92 97 104
168 459 91 81 89 98
169 458 90 91 98 108
169 459 90 81 90 99
169 459 91 78 86 94
170 456 88 91 103 117
170 456 89 96 106 118
170 457 89 92 100 112
171 456 88 84 99 115
171 457 88 83 96 111
171 457 89 84 96 109
170 458 89 82 94 106
171 458 89 74 88 102
171 459 89 72 86 100
170 458 90 84 95 107
170 459 90 77 88 101
171 459 90 65 83 99
168 460 91 77 84 92
168 461 91 85 91 98
169 460 90 77 85 96
169 460 91 77 85 95
169 461 91 84 93 104
168 462 91 94 95 98
168 463 90 92 91 91
168 463 91 96 94 95
169 462 91 97 102 109
169 463 90 93 95 100
169 463 91 96 100 105
170 460 90 69 83 99
170 461 90 67 82 100
170 461 91 73 89 104
171 460 90 62 81 99
171 461 90 59 79 99
170 462 90 73 91 108
170 462 91 84 97 110
170 463 90 81 91 103
170 463 91 85 96 107
171 462 90 65 85 105
171 463 90 68 85 101
168 461 92 83 87 94
172 456 88 65 88 109
172 457 88 65 86 105
172 457 89 65 85 103
173 456 88 54 83 107
173 457 88 55 83 106
173 457 89 52 82 104
172 458 89 66 84 103
172 459 89 65 81 97
173 458 89 58 85 107
172 459 90 62 81 99
173 458 90 53 82 106
173 459 90 56 82 103
174 456 88 50 81 106
174 456 89 45 82 108
174 457 89 49 81 105
175 456 89 46 81 107
174 457 90 47 80 104
175 456 90 43 80 107
175 457 90 43 78 104
175 457 91 46 77 101
174 458 90 50 81 104
174 458 91 46 77 100
174 459 90 53 79 101
174 459 91 48 75 98
175 458 91 41 73 97
175 459 91 37 67 91
172 460 90 58 82 103
172 461 90 49 75 98
173 460 90 45 76 101
173 461 90 44 76 101
172 463 89 64 81 98
173 462 89 59 79 99
173 463 88 64 80 99
173 463 89 62 80 97
172 462 90 54 79 99
172 463 90 64 81 99
173 462 90 51 77 98
174 460 91 40 71 96
174 461 90 46 75 97
174 461 91 40 70 94
175 460 91 41 65 91
175 461 90 50 74 96
175 461 91 49 71 93
174 462 88 59 80 100
174 462 89 55 78 98
174 463 88 62 81 99
174 463 89 58 79 100
175 462 88 54 78 100
175 462 89 54 77 98
174 462 90 52 77 99
175 462 90 53 76 98
167 471 65 59 98 129
167 471 66 65 103 134
167 471 67 85 114 141
165 471 71 120 136 153
166 471 68 99 121 143
166 471 69 105 125 145
167 470 69 124 139 156
167 471 68 103 124 147
167 471 69 116 134 153
166 471 70 116 132 151
166 471 71 123 138 155
167 470 70 127 140 155
167 470 71 126 139 153
167 471 70 124 138 154
163 471 76 122 136 152
163 471 77 119 130 143
162 470 79 125 132 143
162 471 78 116 125 137
162 471 79 137 142 151
163 470 78 125 134 146
163 470 79 114 124 135
163 471 78 124 132 144
163 471 79 132 139 150
165 471 72 125 137 153
165 471 73 128 140 155
164 471 74 120 136 154
164 471 75 114 129 145
165 470 75 123 137 153
165 471 74 132 144 159
165 471 75 120 135 153
167 469 73 124 134 147
166 469 75 119 134 151
167 469 74 117 128 141
167 469 75 109 123 139
166 470 72 126 139 154
166 470 73 128 140 154
166 471 72 126 139 156
167 470 72 125 136 150
167 470 73 122 134 149
166 470 74 127 139 154
166 470 75 126 139 154
164 469 79 103 111 124
165 469 78 102 116 131
165 469 79 97 110 124
164 470 76 123 136 152
164 470 77 125 136 150
164 471 76 120 136 153
164 471 77 125 137 152
165 470 76 119 132 149
165 470 77 105 121 137
165 471 76 131 142 156
164 470 78 114 125 139
164 470 79 105 113 125
165 470 78 101 115 130
166 469 76 114 129 146
166 469 77 109 124 139
167 468 77 130 136 147
167 469 76 113 126 140
167 469 77 109 120 134
166 469 78 105 116 130
166 469 79 106 112 123
167 468 78 126 130 139
167 468 79 117 121 130
166 470 76 113 129 146
163 475 69 59 89 117
162 475 71 71 90 117
163 474 71 87 105 126
163 475 70 64 90 118
163 475 71 71 93 118
161 479 66 129 134 144
161 479 67 117 125 138
163 477 66 97 114 133
163 477 67 85 106 128
162 479 64 133 138 148
162 479 65 133 137 147
163 478 64 137 142 151
163 478 65 133 139 149
163 479 64 134 140 150
162 478 66 120 129 142
162 478 67 95 111 130
162 479 66 128 134 144
162 479 67 108 120 135
163 478 66 117 127 141
163 478 67 92 110 130
161 477 70 61 83 112
161 477 71 62 82 106
160 479 69 74 94 114
161 479 68 90 106 124
161 479 69 68 91 114
160 478 71 67 84 104
160 479 70 68 88 108
160 479 71 75 89 104
161 478 70 70 90 116
161 478 71 76 93 114
161 479 70 58 83 108
162 477 68 74 98 124
162 477 69 67 89 120
163 476 68 69 95 123
163 476 69 65 90 120
163 477 68 72 98 123
163 477 69 70 94 123
162 476 70 62 85 115
162 476 71 64 84 113
162 477 70 61 83 115
162 477 71 58 80 111
163 476 70 61 86 116
162 478 68 84 104 125
162 478 69 67 92 119
162 479 68 88 106 125
162 478 70 57 82 114
165 473 67 61 94 128
165 475 65 105 121 138
165 474 66 75 102 129
165 474 67 65 96 128
165 475 66 85 108 130
165 475 67 71 98 125
166 473 65 84 108 132
167 472 64 80 107 132
167 472 65 67 101 130
167 473 64 97 117 137
167 473 65 86 110 133
166 472 66 61 97 130
166 472 67 67 101 132
166 473 66 72 101 129
166 473 67 64 96 128
167 472 66 62 99 131
167 472 67 60 99 133
166 474 64 103 119 138
166 474 65 95 115 135
166 475 64 111 124 140
166 475 65 99 117 137
167 474 64 104 121 139
166 474 66 79 104 130
165 472 69 82 110 135
165 473 68 62 98 129
165 473 69 69 102 129
164 472 71 102 119 138
164 473 70 87 109 130
164 473 71 98 115 133
165 472 70 95 116 138
165 472 71 109 126 144
165 473 70 81 108 133
165 473 71 97 117 137
164 474 69 59 93 121
164 475 68 78 105 130
164 475 69 56 89 118
165 474 68 59 92 124
165 474 69 63 98 125
165 475 68 64 93 123
164 474 70 73 100 124
164 474 71 89 107 126
164 475 70 61 92 119
166 472 68 77 106 134
166 472 69 95 117 140
166 472 70 99 119 140
164 477 64 130 137 148
164 477 65 126 134 145
165 476 64 119 130 144
165 476 65 114 126 141
165 477 64 124 133 146
164 476 66 91 110 130
164 476 67 75 101 125
164 477 66 104 119 137
164 477 67 80 104 127
165 476 66 96 114 132
165 476 67 75 103 128
164 478 64 134 140 149
164 478 65 128 136 148
166 476 64 118 129 143
164 476 68 76 100 127
164 476 69 65 92 122
161 475 74 97 105 117
161 475 75 106 111 121
163 473 72 105 119 135
163 473 73 110 122 138
162 473 75 115 125 139
163 472 74 111 124 140
163 472 75 111 123 139
163 473 74 114 125 141
163 473 75 114 125 140
162 474 72 91 107 125
162 474 73 98 111 127
162 475 72 78 96 119
162 475 73 88 102 118
163 474 72 92 108 127
163 474 73 103 116 132
163 475 72 74 94 121
162 474 74 107 116 129
162 474 75 111 119 131
162 475 74 102 111 123
163 474 74 107 120 136
161 473 77 110 118 130
161 472 78 111 122 136
161 472 79 119 126 137
161 473 78 108 118 132
161 473 79 106 115 128
160 475 77 103 106 114
161 474 76 110 117 127
161 474 77 109 116 127
161 475 76 106 110 119
161 475 77 105 109 118
160 474 78 101 110 123
160 474 79 100 110 125
160 475 78 100 106 117
160 475 79 92 102 116
161 474 78 105 114 126
162 472 77 110 121 135
162 473 76 115 124 136
162 473 77 113 120 133
163 472 76 110 120 135
163 472 77 114 126 140
162 472 78 112 122 136
162 472 79 124 130 140
162 474 76 112 121 133
160 477 73 79 91 105
161 476 72 70 88 105
161 476 73 73 90 109
161 477 72 69 86 102
161 477 73 75 90 106
160 476 75 96 100 108
160 477 74 83 94 107
160 477 75 90 100 112
161 476 74 79 92 108
161 476 75 96 102 111
161 477 74 70 85 101
160 478 72 77 89 102
160 478 73 87 95 106
160 479 72 80 91 103
161 478 72 72 86 100
162 476 72 73 90 111
160 476 76 98 102 111
160 476 77 100 102 110
160 477 76 91 98 109
160 477 77 92 98 108
160 476 78 98 101 110
160 476 79 91 99 112
164 472 72 111 126 144
164 472 73 116 129 145
164 473 72 109 122 138
165 472 72 121 135 152
164 472 74 111 125 142
164 472 75 107 123 142
171 467 71 126 136 149
168 471 64 52 94 126
168 471 65 57 95 127
169 470 65 83 112 140
169 471 64 57 97 129
169 471 65 73 107 135
168 470 67 105 129 153
168 471 66 71 109 140
168 471 67 95 121 146
169 470 66 92 119 144
169 470 67 117 136 155
170 469 67 124 140 157
171 469 66 117 134 152
171 469 67 130 143 158
170 470 64 75 103 131
170 470 65 86 111 137
170 471 64 73 101 128
171 470 64 73 104 132
171 470 65 90 116 140
170 470 66 104 125 148
170 470 67 119 137 156
171 470 66 106 127 148
169 469 68 127 142 159
169 469 69 132 144 158
168 469 71 128 139 153
169 468 71 120 131 146
169 469 70 130 143 157
169 469 71 122 133 147
168 470 68 119 137 157
168 470 69 125 140 157
168 471 68 110 130 152
169 470 68 123 140 159
169 470 69 130 142 156
168 470 70 128 139 154
168 470 71 128 139 153
170 468 69 135 147 162
170 469 68 130 143 158
170 469 69 134 146 160
171 468 68 134 145 158
171 468 69 137 148 162
171 469 68 133 145 160
170 468 70 131 142 156
170 468 71 124 135 149
170 469 70 133 145 159
171 468 70 133 145 158
171 468 71 127 138 151
174 467 67 129 140 154
175 466 67 134 146 160
175 467 66 119 133 148
175 467 67 128 140 155
172 467 69 131 141 154
173 467 68 134 144 157
173 467 69 135 144 156
172 467 70 131 140 153
172 467 71 130 138 149
173 466 70 140 146 156
173 466 71 137 143 152
173 467 70 135 143 154
173 467 71 134 141 151
174 465 71 138 145 155
175 465 70 138 145 155
175 465 71 136 143 153
174 466 68 139 149 162
174 466 69 140 149 161
174 467 68 136 146 159
174 467 69 139 148 159
175 466 68 139 149 163
175 466 69 143 150 161
174 466 70 139 147 157
174 466 71 137 144 154
175 466 70 140 147 157
172 469 65 107 127 147
173 469 64 77 109 134
173 469 65 104 125 146
172 468 66 125 140 157
172 468 67 127 141 158
172 469 66 123 138 154
173 468 66 120 137 154
173 468 67 127 141 157
173 469 66 117 135 154
172 470 64 76 105 130
172 470 65 89 115 139
173 470 64 73 106 133
174 468 65 109 127 145
174 469 64 80 109 134
174 469 65 102 122 143
175 468 64 92 116 139
175 468 65 103 123 142
175 469 64 76 108 134
174 468 66 119 134 151
174 468 67 125 138 153
175 468 66 115 131 147
172 468 68 131 144 158
172 468 69 135 146 160
173 468 68 129 142 157
170 467 72 124 131 141
170 467 73 116 123 133
171 467 72 125 132 143
171 467 73 119 124 133
170 467 74 114 119 129
170 467 75 110 117 128
171 466 75 106 112 121
171 467 74 113 117 125
171 467 75 105 111 120
169 467 77 109 115 125
169 467 78 117 119 127
169 467 79 110 114 123
170 467 76 100 108 119
170 467 77 104 110 118
171 466 76 110 115 123
171 466 77 108 113 120
171 467 76 105 110 119
171 467 77 99 105 112
170 467 78 101 105 113
170 467 79 90 95 106
171 466 78 96 101 111
171 466 79 86 96 107
171 467 78 98 103 111
168 469 72 118 129 144
168 469 73 109 122 137
169 468 72 115 127 141
169 468 73 111 121 134
169 469 72 107 122 138
168 468 74 104 115 127
168 468 75 111 121 134
168 469 74 103 118 134
168 469 75 108 122 137
169 468 74 113 123 134
169 468 75 120 128 139
168 470 72 126 137 152
170 468 72 124 132 144
170 468 73 117 125 137
170 468 74 114 121 132
170 468 75 114 121 132
168 468 76 129 136 146
168 468 77 128 134 145
168 469 76 120 131 144
169 468 76 116 124 135
169 468 77 111 117 127
168 468 78 122 126 136
168 468 79 117 120 130
169 468 78 120 123 131
172 466 72 128 134 143
172 466 73 121 126 135
172 467 72 129 135 144
172 467 73 120 125 133
173 466 72 134 139 148
173 466 73 126 132 141
172 466 74 112 118 127
172 466 75 107 114 124
173 466 74 116 122 132
173 466 75 118 125 136
174 465 72 135 142 152
174 465 73 131 138 148
175 464 73 125 135 147
175 465 72 132 140 151
175 465 73 133 141 153
174 464 75 96 106 117
174 465 74 126 133 143
174 465 75 119 127 138
175 464 74 120 129 142
175 464 75 101 112 124
175 465 74 130 137 148
175 465 75 103 113 125
174 466 72 133 140 150
174 466 73 130 136 146
173 465 76 99 108 119
173 465 77 99 108 119
172 465 78 87 97 110
172 465 79 83 93 105
173 465 78 90 99 110
173 465 79 86 96 107
172 466 76 111 118 128
172 466 77 95 103 114
173 466 76 106 115 127
172 466 78 90 100 111
172 466 79 89 100 112
174 464 76 104 117 130
174 464 77 89 98 107
174 465 76 103 112 123
174 465 77 98 107 118
175 464 76 98 108 119
175 464 77 94 106 118
174 464 78 85 96 107
174 464 79 87 99 112
174 465 78 87 96 107
174 465 79 87 100 114
175 464 78 83 98 113
175 464 79 78 92 106
168 472 64 70 101 128
163 467 87 75 70 72
161 471 81 112 115 122
160 471 82 99 102 109
160 471 83 90 96 103
161 470 82 102 105 112
161 470 83 89 96 104
161 471 82 104 107 114
163 469 80 99 110 123
163 469 81 103 109 118
162 469 82 100 104 114
162 469 83 86 93 105
163 469 82 95 100 108
163 469 83 84 89 98
162 470 80 113 120 129
162 470 81 110 114 122
162 471 80 121 125 133
163 470 80 103 113 124
163 470 81 103 111 121
162 470 82 102 107 115
162 470 83 87 94 104
161 469 85 48 66 82
160 469 87 61 52 60
161 469 86 45 51 69
161 469 87 54 53 69
160 470 84 78 87 96
160 470 85 69 73 79
160 471 84 81 88 96
161 470 84 76 85 96
161 470 85 61 71 81
160 470 86 63 66 75
160 470 87 68 58 61
162 469 84 67 77 93
162 469 85 48 61 81
163 468 85 40 55 69
163 469 84 68 77 87
163 469 85 48 61 74
162 468 86 44 59 72
162 468 87 53 62 71
162 469 86 38 51 71
162 469 87 54 60 73
163 468 86 43 56 70
163 468 87 58 61 70
162 470 84 76 82 91
166 467 83 54 56 72
167 467 82 53 71 88
167 467 83 51 62 78
164 467 87 67 63 69
165 466 87 71 69 69
165 467 86 62 63 68
165 467 87 71 68 71
166 465 87 76 71 68
166 467 84 57 64 74
166 467 85 55 60 69
167 467 84 48 59 75
167 467 85 53 58 72
166 466 87 71 68 69
166 467 86 61 62 70
167 466 86 59 64 75
167 466 87 71 69 71
167 467 86 57 63 77
164 469 80 96 106 119
164 469 81 99 105 115
165 468 81 99 95 102
165 469 80 95 103 116
165 469 81 102 104 114
164 468 83 77 82 91
164 469 82 93 96 104
164 469 83 86 89 97
165 468 82 95 92 99
165 468 83 78 79 87
165 469 82 98 93 100
166 468 80 105 108 115
166 468 81 92 95 102
166 469 80 99 103 112
167 468 80 98 104 114
167 468 81 77 86 98
166 468 82 90 94 100
166 468 83 63 71 83
167 468 82 63 75 87
167 468 83 54 69 84
164 468 84 66 73 83
164 468 85 45 58 72
164 469 84 69 79 90
165 468 84 57 63 73
165 468 85 52 62 74
164 468 86 48 59 74
164 468 87 55 60 73
165 468 86 53 62 73
166 468 84 51 57 72
166 468 85 57 65 75
160 465 91 101 87 75
161 464 91 105 93 81
161 465 90 105 91 76
161 465 91 104 89 76
161 466 89 93 81 70
161 467 89 86 72 58
160 466 90 92 77 61
160 466 91 93 78 63
160 467 90 77 63 47
160 467 91 72 59 45
161 466 90 99 84 70
163 465 89 100 86 74
162 464 90 113 100 87
162 464 91 115 103 92
162 465 90 109 93 78
163 464 90 119 109 101
163 464 91 116 109 105
163 465 90 108 96 85
162 466 89 100 85 71
162 467 88 84 71 61
162 467 89 90 76 65
163 466 88 95 79 65
163 466 89 96 81 68
163 467 88 87 74 64
163 467 89 88 76 65
162 466 90 106 89 72
160 464 92 99 88 78
160 464 93 97 87 78
160 465 92 99 86 73
161 464 92 102 91 81
160 468 89 72 66 64
160 469 88 69 60 61
160 469 89 70 64 61
161 468 88 72 66 62
161 468 89 76 67 59
161 469 88 66 62 69
160 468 90 72 66 58
162 468 88 72 67 61
163 468 88 72 67 65
164 465 89 92 80 72
165 464 89 99 89 82
165 465 88 82 71 62
165 465 89 93 83 75
164 464 90 107 99 93
164 464 91 116 109 103
164 465 90 101 91 84
165 464 90 105 97 91
165 464 91 111 104 100
164 466 88 85 71 59
164 466 89 87 75 66
164 467 88 83 73 69
165 466 88 79 71 65
166 464 89 99 91 85
166 465 88 79 70 62
166 465 89 86 77 70
167 464 89 87 80 75
167 465 88 76 69 64
167 465 89 83 75 70
166 464 90 103 95 90
167 464 90 93 87 82
166 466 88 73 66 61
160 472 80 122 126 134
160 472 81 113 117 123
160 473 80 113 119 130
160 473 81 117 121 129
161 472 80 123 126 135
161 472 81 114 118 125
161 473 80 115 121 132
160 472 82 103 107 113
160 472 83 90 95 103
160 473 82 110 113 120
160 474 80 98 109 123
160 474 81 106 113 123
160 475 80 87 100 115
160 475 81 89 101 116
160 476 80 85 95 110
168 467 80 98 103 114
168 467 81 73 83 98
169 466 81 71 79 92
169 467 80 89 93 105
169 467 81 77 82 95
168 467 82 59 72 88
168 467 83 53 66 82
169 466 82 65 77 90
169 466 83 62 71 85
169 467 82 66 73 86
171 465 82 69 84 98
171 465 83 70 84 98
170 466 80 73 84 96
170 466 81 74 85 98
170 467 80 76 84 97
170 467 81 74 81 94
171 466 80 79 89 101
171 466 81 77 88 100
170 466 82 66 79 93
170 466 83 63 76 89
171 466 82 66 80 94
171 466 83 65 81 96
169 465 87 62 67 76
168 466 84 56 64 77
168 466 85 52 60 75
168 467 84 54 62 77
168 467 85 50 58 73
169 466 84 64 69 81
169 466 85 60 71 84
168 466 86 55 60 72
168 466 87 63 65 73
169 466 86 57 63 72
169 466 87 59 62 69
170 465 85 58 74 89
171 465 84 64 79 93
171 465 85 62 79 95
170 465 86 63 76 89
170 465 87 66 78 91
171 465 86 64 81 97
171 465 87 65 82 98
170 466 84 66 79 93
170 466 85 61 74 88
170 466 86 62 74 87
168 468 80 94 99 111
172 465 80 82 92 103
172 465 81 78 90 103
173 464 81 73 87 101
173 465 80 82 94 107
173 465 81 75 89 102
172 465 82 70 85 99
172 465 83 71 86 100
173 464 82 68 85 102
173 464 83 66 83 98
173 465 82 70 85 101
173 465 83 65 83 99
174 464 80 78 91 103
174 464 81 75 90 104
175 464 80 74 90 105
175 464 81 71 87 103
174 464 82 69 87 103
174 464 83 68 83 97
172 464 85 64 83 101
172 465 84 70 86 101
172 465 85 64 82 98
173 464 84 70 85 99
173 464 85 64 82 98
172 464 86 66 85 102
172 464 87 63 83 100
172 465 86 65 84 101
173 464 86 61 79 96
173 464 87 62 79 96
174 464 84 70 83 98
174 464 85 65 81 97
174 464 86 62 79 96
174 464 87 63 81 97
168 464 89 81 78 78
168 465 88 71 68 67
168 465 89 78 75 77
169 464 89 73 77 84
169 465 88 64 68 75
169 465 89 74 76 82
168 464 90 88 86 87
169 464 90 87 89 95
168 466 88 66 63 62
170 464 88 65 78 92
170 464 89 69 79 91
170 465 88 66 76 88
170 465 89 67 74 84
171 464 88 63 81 98
171 464 89 63 81 97
170 464 90 74 82 92
171 464 90 71 84 97
172 464 88 64 82 98
172 464 89 63 80 98
173 464 88 64 81 98
179 463 70 112 128 146
179 463 71 115 129 147
181 463 67 99 119 139
182 463 66 97 120 142
182 463 67 98 119 140
183 463 66 93 117 140
183 463 67 93 116 137
180 463 69 110 128 146
181 463 68 101 119 139
181 463 69 101 119 139
180 462 71 105 124 143
180 463 70 113 129 146
180 463 71 112 128 145
181 462 70 96 118 140
181 462 71 95 118 140
181 463 70 101 121 142
182 461 71 53 98 129
183 461 70 65 101 128
183 461 71 61 100 129
182 462 69 95 117 139
182 463 68 96 116 137
182 463 69 98 117 138
183 462 68 91 113 134
183 462 69 83 111 135
183 463 68 93 115 135
182 462 70 90 114 137
182 462 71 86 112 136
183 462 70 63 102 130
176 463 75 100 114 129
177 463 74 105 119 134
177 463 75 97 112 129
179 461 75 90 107 125
178 462 73 103 119 138
178 463 72 117 130 147
178 463 73 114 128 145
179 462 73 103 120 138
179 463 72 115 129 146
179 463 73 105 122 141
178 462 74 103 119 135
178 462 75 104 120 137
178 463 74 105 118 134
178 463 75 102 117 133
179 462 74 103 118 134
179 462 75 101 115 131
176 463 76 94 112 129
176 463 77 88 104 120
177 463 76 91 106 123
177 463 77 81 97 113
176 463 78 78 97 115
176 463 79 66 87 105
177 462 78 61 81 98
177 462 79 59 79 97
177 463 78 68 88 106
177 463 79 58 78 96
179 461 76 78 97 114
179 461 77 71 93 112
178 461 79 55 76 95
179 460 79 58 84 108
179 461 78 57 84 105
179 461 79 51 77 97
178 462 76 92 106 121
178 462 77 75 92 109
178 463 76 98 115 133
179 462 76 90 105 121
179 462 77 76 94 111
178 462 78 62 81 98
178 462 79 65 86 105
179 462 78 62 83 102
183 459 74 76 102 124
183 459 75 74 100 122
181 459 79 54 81 104
182 459 76 77 103 125
182 459 77 58 87 111
183 458 77 49 81 105
183 459 76 67 95 118
183 459 77 54 86 112
182 458 79 44 74 98
182 459 78 49 82 106
182 459 79 49 80 105
183 458 78 52 82 106
183 458 79 58 84 107
183 459 78 46 78 104
180 461 73 96 116 136
181 461 73 88 111 134
180 461 74 94 112 131
180 461 75 85 106 126
181 460 74 83 107 130
181 460 75 81 104 127
181 461 74 86 109 131
181 461 75 81 105 128
180 462 72 102 120 139
180 462 73 101 119 137
181 462 72 90 115 138
181 462 73 90 114 136
180 462 74 100 116 134
182 460 73 85 109 133
182 461 72 77 108 133
182 461 73 85 110 133
183 460 72 76 107 133
183 460 73 81 107 132
183 461 72 69 104 132
182 460 74 83 107 131
182 460 75 80 103 124
183 460 74 82 107 131
180 460 77 67 89 109
180 461 76 78 99 119
180 461 77 67 89 109
181 460 76 78 100 121
181 460 77 69 93 115
180 460 78 52 79 102
180 460 79 50 77 100
180 461 78 51 79 102
180 461 79 63 91 114
181 460 78 57 84 106
181 460 79 53 80 101
182 460 76 82 108 130
182 460 77 71 97 119
190 455 71 79 107 134
191 455 70 74 105 131
191 455 71 74 99 128
187 455 76 44 83 111
187 455 77 45 83 111
186 455 79 46 80 108
187 454 79 42 77 106
187 455 78 45 81 110
187 455 79 44 79 107
191 451 79 35 78 106
189 455 72 89 116 140
189 455 73 86 113 137
188 455 75 73 102 127
189 455 74 79 109 133
189 455 75 79 108 133
191 453 74 73 104 129
191 453 75 61 96 122
190 454 73 65 94 123
190 455 72 80 106 132
190 455 73 69 99 127
191 454 72 68 98 127
191 454 73 70 103 130
191 455 72 69 93 123
190 454 74 62 96 124
190 454 75 67 100 126
190 455 74 65 99 127
190 455 75 68 102 128
191 454 74 74 105 130
189 453 79 45 83 109
188 455 76 58 92 119
188 455 77 54 89 116
189 454 76 62 97 123
189 454 77 57 92 119
189 455 76 75 105 130
189 455 77 66 99 125
188 454 78 49 88 116
188 454 79 39 79 108
188 455 78 45 83 112
189 454 78 56 89 115
189 454 79 45 83 111
190 453 76 47 86 115
190 453 77 55 89 115
191 452 76 40 83 111
191 452 77 38 80 108
191 453 76 50 88 115
191 453 77 40 82 109
190 452 79 36 73 100
190 453 78 46 83 110
190 453 79 33 76 103
191 452 78 36 76 105
191 452 79 37 74 103
190 454 76 68 99 124
190 454 77 69 97 121
190 454 78 70 98 121
185 459 71 71 98 121
187 458 69 82 107 130
187 459 69 87 113 136
186 459 70 84 112 136
186 459 71 88 113 137
187 458 70 79 107 131
187 458 71 80 108 131
187 459 70 85 113 137
187 459 71 86 114 138
185 461 67 56 89 119
184 463 65 77 105 130
185 463 65 53 88 115
184 462 67 60 97 124
184 463 66 74 103 127
184 463 67 90 112 133
185 462 66 60 97 125
185 462 67 53 90 119
185 463 66 54 92 120
186 461 67 86 110 133
187 461 67 83 109 131
186 463 65 62 91 115
187 463 65 75 97 116
186 462 66 75 101 123
186 462 67 73 104 130
186 463 66 66 98 122
187 462 66 80 102 123
187 463 66 71 95 116
184 461 68 65 97 124
184 461 69 68 95 123
185 460 69 46 83 112
185 461 68 40 82 113
185 461 69 34 72 105
184 460 70 62 80 110
184 460 71 62 84 113
184 461 70 73 96 124
184 461 71 69 102 129
185 460 70 40 75 106
185 460 71 45 81 107
185 461 70 41 71 104
184 462 68 66 99 126
184 462 69 70 103 130
186 460 68 74 106 132
186 460 69 70 102 128
186 461 68 72 101 125
187 460 68 85 112 136
187 460 69 80 109 133
186 460 70 72 104 129
190 459 67 81 105 126
191 459 67 76 102 124
189 457 69 77 102 125
188 457 70 90 110 129
188 457 71 92 112 132
189 456 71 95 117 139
189 457 70 86 110 131
189 457 71 94 115 135
188 458 69 85 106 126
188 459 68 88 110 131
188 459 69 88 112 134
189 458 68 83 109 132
189 458 69 81 107 130
189 459 68 86 109 131
188 458 70 83 107 128
188 458 71 76 101 124
190 457 69 79 106 129
191 456 69 70 102 127
191 457 68 82 107 129
191 457 69 73 104 128
190 456 70 91 116 139
190 456 71 93 118 141
190 457 70 87 112 135
191 456 70 78 108 134
190 458 68 82 107 130
190 458 69 83 108 131
190 459 68 83 107 129
191 458 68 73 102 126
188 460 67 81 107 130
188 461 66 74 101 124
188 461 67 77 105 128
189 460 67 82 105 125
189 461 66 77 99 119
189 461 67 77 99 120
188 463 65 67 93 116
189 463 65 68 96 119
188 462 66 67 96 119
189 462 66 72 97 119
190 460 67 76 98 119
190 461 66 74 96 115
191 460 66 84 104 124
191 460 67 82 104 124
191 461 66 82 101 120
190 462 65 68 94 116
190 463 65 68 94 116
191 462 65 68 93 116
191 463 65 75 99 120
190 462 66 71 94 114
191 462 66 76 98 117
188 460 68 87 113 135
189 460 68 84 107 129
185 457 75 65 94 119
184 459 72 56 87 113
184 459 73 73 99 123
185 458 73 81 107 131
185 459 72 79 104 127
185 459 73 83 107 129
184 458 75 69 95 119
184 459 74 74 101 125
184 459 75 69 96 120
185 458 74 76 103 128
185 458 75 73 99 123
186 457 73 87 116 141
187 457 72 91 116 139
187 457 73 92 117 140
186 456 75 55 89 115
186 457 74 76 106 132
186 457 75 62 93 118
187 456 74 91 114 136
187 456 75 65 96 122
187 457 74 70 99 124
186 458 72 86 113 137
186 458 73 85 114 139
187 458 72 87 115 139
186 458 74 80 110 136
184 457 77 52 83 108
185 457 76 53 86 111
185 457 77 50 82 109
184 457 78 55 84 108
184 457 79 63 89 112
185 456 79 56 87 112
185 457 78 57 87 112
185 457 79 59 88 113
184 458 76 61 90 113
184 458 77 55 85 109
184 458 78 55 83 106
186 456 76 48 83 112
186 456 77 46 81 110
186 457 76 52 86 112
187 456 76 55 87 115
187 456 77 44 80 108
186 456 78 53 85 112
186 456 79 50 84 110
184 460 72 64 92 119
184 460 73 61 93 121
188 456 73 96 115 135
188 457 72 96 115 135
188 457 73 98 118 137
189 456 72 94 117 139
189 456 73 93 116 138
188 456 74 91 113 134
188 456 75 81 106 129
176 448 82 89 104 121
176 448 83 84 101 120
176 449 83 73 95 116
177 448 82 87 102 119
177 448 83 84 101 118
177 449 83 71 92 114
178 448 82 85 100 116
178 448 83 83 99 116
178 449 83 73 93 113
179 448 83 81 97 115
176 450 84 61 89 114
176 451 84 46 80 112
176 451 85 49 81 110
177 450 84 61 87 115
177 451 84 54 84 115
177 451 85 43 76 110
178 449 84 79 98 116
179 448 84 73 93 113
179 449 84 70 92 111
178 450 84 65 90 112
178 450 85 50 82 107
178 451 85 43 77 107
179 450 84 58 83 105
179 450 85 46 78 104
179 451 85 40 75 104
178 451 86 41 74 106
179 451 86 41 75 106
179 451 87 39 75 107
176 452 85 49 81 108
177 452 85 43 76 111
176 452 86 43 79 105
176 453 86 46 79 104
176 453 87 38 75 101
177 452 86 37 73 105
177 452 87 35 72 105
177 453 87 36 73 101
178 452 86 35 72 106
178 452 87 38 75 107
179 452 87 37 74 108
180 448 84 64 89 111
180 448 85 53 82 106
180 449 85 52 81 104
181 448 85 47 81 106
180 449 86 49 81 105
181 448 86 45 80 106
181 448 87 43 79 105
181 449 86 45 79 105
181 449 87 41 77 104
180 450 85 47 76 102
180 450 86 48 79 105
180 450 87 41 75 101
180 451 87 35 75 105
181 450 87 40 75 102
182 448 87 44 79 105
179 451 88 40 75 109
176 453 88 44 79 104
177 453 88 43 79 105
177 453 89 44 82 109
176 454 88 45 80 106
176 454 89 46 81 107
176 455 89 44 78 106
177 454 89 48 83 108
176 455 90 46 80 105
177 454 90 49 83 107
177 455 90 46 79 104
178 452 88 41 79 110
178 453 88 42 79 107
178 453 89 39 80 110
179 452 88 33 74 110
179 452 89 27 73 111
178 453 90 38 80 109
179 452 90 31 74 108
179 453 90 33 76 109
179 453 91 40 79 108
178 454 90 44 83 110
178 455 91 54 83 106
179 454 91 50 85 111
179 455 91 61 88 111
181 448 88 44 78 104
181 449 88 46 79 105
180 451 88 39 77 109
180 451 89 39 76 111
181 450 88 41 77 106
181 450 89 41 77 107
181 451 89 35 75 108
180 451 90 31 75 111
181 450 90 37 79 109
181 451 90 35 76 110
181 451 91 24 76 108
182 448 88 48 80 106
182 448 89 55 83 107
182 449 88 51 82 107
182 449 89 57 84 108
183 448 89 58 85 108
182 449 90 62 87 111
183 449 90 64 88 110
182 450 89 50 84 112
182 450 90 52 85 112
182 450 91 49 85 113
182 451 91 33 77 108
183 450 91 53 86 112
183 451 91 39 78 107
180 452 89 28 73 111
180 452 90 25 72 109
180 452 91 28 73 108
180 453 91 31 75 107
181 452 91 25 73 107
180 454 91 51 84 109
181 455 91 62 85 105
182 452 91 38 78 105
183 453 91 48 78 103
182 455 91 56 79 102
183 454 91 44 75 101
183 455 90 62 84 106
183 455 91 60 82 104
180 453 92 35 76 107
181 453 92 29 73 105
180 454 92 53 84 108
180 455 92 65 88 109
181 454 92 46 77 103
181 455 92 66 87 107
182 452 92 38 77 105
182 453 92 31 72 104
183 452 92 45 77 104
183 453 92 41 75 103
182 454 92 34 71 99
182 455 92 54 78 101
183 454 92 40 72 101
176 462 81 63 87 108
176 463 80 59 80 98
176 463 81 62 85 104
177 462 80 57 79 98
177 462 81 63 82 99
176 462 82 59 80 98
176 462 83 61 79 96
176 463 82 62 85 104
176 463 83 65 82 98
177 462 82 58 78 96
177 462 83 63 80 95
178 461 80 59 80 98
178 461 81 56 77 95
179 460 80 46 72 94
179 460 81 47 73 93
179 461 80 54 78 99
179 461 81 47 72 93
178 461 82 57 76 93
178 461 83 58 77 94
179 460 82 41 68 90
179 460 83 47 70 88
179 461 82 50 73 92
179 461 83 51 73 92
178 462 80 55 76 95
178 462 81 56 76 94
177 461 84 67 83 99
177 461 86 67 82 96
177 461 87 57 74 90
176 462 84 69 84 100
176 462 85 73 86 101
177 462 84 66 83 100
177 462 85 70 85 100
176 462 86 67 82 96
176 462 87 58 76 94
177 462 86 69 83 98
177 462 87 61 77 94
178 460 85 57 77 95
178 461 84 61 80 97
178 461 85 66 82 97
179 460 84 48 68 87
179 460 85 57 75 93
179 461 84 55 74 92
178 460 86 59 76 92
178 461 86 62 79 95
178 461 87 55 73 89
179 460 86 59 75 92
179 460 87 58 73 90
181 459 80 56 83 105
181 459 81 51 76 98
180 459 82 54 76 95
180 459 83 64 81 97
181 459 82 42 70 92
181 459 83 46 69 90
183 457 81 51 79 101
183 457 82 49 76 99
183 457 83 57 79 98
182 458 80 50 77 99
182 458 81 53 79 100
182 459 80 49 75 98
182 459 81 48 76 98
183 458 80 61 85 107
183 458 81 58 82 104
182 458 82 46 74 96
182 458 83 48 71 92
183 458 82 54 79 101
183 458 83 50 74 96
180 459 84 62 79 95
180 459 85 69 82 95
181 458 84 55 77 96
181 458 85 62 80 97
181 459 84 52 74 94
181 459 85 65 80 95
180 459 86 71 83 97
180 459 87 71 83 96
181 458 86 65 81 96
181 458 87 68 82 97
181 459 86 71 84 97
181 459 87 71 84 97
183 457 84 59 80 98
183 457 85 64 83 102
183 456 87 57 81 103
183 457 86 64 83 101
183 457 87 65 85 103
182 458 84 55 75 93
182 458 85 65 80 94
182 458 86 64 80 96
182 458 87 65 82 97
180 460 80 51 76 96
180 460 81 49 74 94
180 461 80 50 78 101
180 460 82 43 70 91
180 460 83 47 69 88
180 460 84 49 70 89
180 460 86 62 77 93
180 460 87 67 81 95
176 456 90 43 77 104
176 457 91 41 75 103
177 456 90 44 78 104
177 456 91 44 78 102
177 457 91 41 76 100
176 458 91 41 73 98
176 459 91 38 68 91
177 458 91 47 77 99
177 459 91 43 72 94
178 456 91 61 84 104
178 457 91 64 83 100
179 456 91 66 86 104
179 457 91 72 88 103
179 459 89 70 86 102
178 458 91 62 83 101
178 459 90 56 78 99
178 459 91 56 79 98
179 458 90 79 91 104
179 458 91 74 89 103
179 459 90 70 87 102
176 461 89 47 73 97
177 461 88 50 70 88
177 461 89 39 68 92
176 460 91 41 68 91
176 461 90 50 73 96
176 461 91 47 69 92
177 460 90 40 70 95
177 460 91 42 69 96
177 461 90 43 70 93
176 462 88 54 75 97
176 462 89 53 75 100
176 462 90 53 74 98
178 460 88 53 71 88
178 460 89 47 71 92
178 461 88 52 71 88
179 460 88 62 78 94
179 460 89 63 77 92
178 460 90 48 75 98
176 460 92 39 68 90
181 457 89 73 86 101
180 456 91 71 90 107
180 457 90 79 92 107
180 457 91 77 92 107
181 456 91 71 89 108
181 457 90 76 91 106
181 457 91 79 94 110
180 458 89 74 85 97
180 459 88 70 82 96
180 459 89 73 84 95
181 458 88 72 84 97
181 458 89 73 85 97
181 459 88 72 83 95
180 458 90 77 90 105
182 457 88 71 85 100
182 457 89 71 87 102
183 456 88 62 84 103
183 456 89 70 87 105
183 457 88 66 84 103
182 456 90 71 87 106
182 456 91 71 87 106
182 457 90 75 92 108
183 456 90 68 87 107
182 458 88 71 84 98
180 456 92 71 90 110
185 455 82 47 78 101
185 455 83 47 75 97
187 453 83 30 68 94
186 455 80 49 83 110
186 455 81 48 79 103
187 454 80 38 77 105
187 454 81 44 79 105
187 455 80 46 81 108
187 455 81 46 79 104
186 454 82 43 76 100
186 454 83 35 68 91
186 455 82 40 73 97
186 455 83 43 73 96
187 454 82 33 71 96
187 454 83 29 67 92
185 455 84 53 76 96
185 455 85 54 77 96
185 455 86 49 75 95
185 455 87 47 73 94
187 453 84 36 68 92
187 453 85 39 69 92
187 453 86 36 67 90
187 453 87 34 64 88
186 454 84 44 71 93
186 454 85 43 71 93
186 455 84 47 73 94
186 455 85 44 70 91
187 454 84 34 66 90
186 454 86 39 69 92
186 454 87 40 70 92
191 451 80 36 76 103
191 451 81 33 74 103
190 451 82 38 73 101
190 451 83 44 78 104
191 450 83 35 74 100
191 451 82 36 76 103
191 451 83 42 78 104
189 451 84 43 78 104
189 451 85 34 72 98
189 451 86 38 70 98
189 451 87 45 76 101
191 449 86 40 76 103
191 449 87 43 76 102
190 450 85 38 71 97
190 451 84 39 75 101
190 451 85 36 71 97
191 450 84 36 75 101
191 450 85 37 75 101
190 450 86 40 77 103
190 450 87 41 76 104
190 451 86 45 74 100
190 451 87 46 77 102
191 450 86 36 75 103
191 450 87 43 77 103
188 453 81 45 80 106
189 453 80 41 79 106
189 453 81 41 78 105
188 452 83 36 73 100
188 453 82 35 73 100
188 453 83 32 73 102
189 452 82 36 76 103
189 452 83 42 77 104
189 453 82 33 76 103
188 454 80 40 79 108
188 454 81 41 78 106
188 454 82 37 74 100
190 452 80 36 71 98
190 452 81 34 75 103
190 453 81 38 77 103
191 452 80 40 71 99
190 452 82 40 77 103
188 452 84 40 74 101
188 452 85 44 74 101
188 453 84 35 68 96
188 453 85 43 69 95
189 452 84 46 78 104
189 452 85 37 73 100
188 452 86 40 69 93
188 452 87 39 72 97
188 453 86 42 69 93
188 453 87 37 67 93
189 452 86 30 69 97
184 448 89 62 86 109
184 448 90 66 89 112
184 449 90 69 91 112
184 449 91 67 91 114
185 448 90 54 84 110
185 448 91 56 85 111
185 449 91 59 87 111
184 450 91 56 87 112
184 451 91 41 78 106
185 450 91 53 84 108
185 451 91 51 83 107
186 448 91 47 79 108
186 449 91 51 82 108
187 448 91 49 77 106
187 449 91 51 77 106
187 451 89 42 75 102
186 450 91 47 80 106
186 451 90 51 80 103
186 451 91 49 80 104
187 450 90 45 74 103
187 450 91 48 76 104
187 451 90 46 77 103
187 451 91 49 79 105
184 451 92 41 75 104
184 452 91 45 76 102
184 453 91 46 75 99
185 452 91 49 79 102
185 453 90 46 74 97
185 453 91 44 74 97
184 455 88 57 80 100
184 455 89 63 84 104
185 454 88 49 74 94
185 454 89 46 74 96
185 455 88 46 74 96
185 455 89 49 75 97
184 454 90 48 76 99
184 454 91 46 75 99
184 455 90 56 82 104
185 454 90 45 73 95
186 453 88 45 73 96
186 453 89 42 71 94
187 452 89 40 72 99
187 453 88 43 73 97
187 453 89 43 75 99
186 452 90 47 77 101
186 452 91 52 81 103
186 453 90 45 75 98
187 452 90 43 75 100
186 454 88 47 72 94
186 454 89 45 72 94
184 452 92 43 75 102
188 448 91 46 73 103
188 449 90 44 72 104
188 449 91 50 75 105
189 448 90 42 72 101
189 448 91 44 73 101
189 449 90 41 73 103
188 450 89 44 77 103
188 451 88 45 79 104
188 451 89 44 76 103
189 450 89 50 78 103
189 451 88 46 78 104
189 451 89 46 79 104
188 450 90 48 76 104
189 450 90 46 76 103
190 448 89 38 72 100
190 449 88 44 77 103
190 449 89 42 75 102
191 448 88 35 69 99
191 448 89 34 69 99
191 449 88 42 74 101
190 448 90 40 73 101
190 449 90 44 75 101
190 450 88 46 78 104
190 450 89 48 77 103
188 452 88 43 73 101
188 452 89 41 73 101
184 457 80 61 87 109
184 457 81 54 81 104
185 456 80 53 85 111
185 456 81 49 80 104
184 456 82 42 73 98
184 456 83 46 74 95
184 457 82 46 76 99
185 456 82 42 74 98
185 456 83 53 81 104
186 456 80 51 82 109
186 456 81 51 82 106
184 456 84 53 78 98
184 456 85 59 81 101
184 457 85 65 84 102
184 456 86 60 84 104
184 456 87 58 81 101
184 457 86 63 85 105
184 456 88 57 80 102
184 456 89 63 85 105
177 465 67 121 133 147
176 467 65 106 124 141
177 466 65 98 121 143
177 467 64 97 117 136
177 467 65 104 124 143
176 466 67 126 139 155
176 467 66 120 135 151
176 467 67 126 139 155
177 466 66 116 131 148
177 466 67 119 134 151
179 465 65 100 121 142
178 465 66 105 121 137
178 465 67 111 127 144
179 465 66 99 121 141
179 465 67 110 129 149
178 466 65 102 121 141
178 467 64 102 120 139
179 466 64 110 124 140
179 466 65 108 123 139
179 467 64 107 122 139
178 466 66 104 120 137
176 465 69 145 151 160
177 465 68 136 145 157
177 465 69 140 148 159
176 465 70 141 148 158
176 465 71 134 142 153
177 464 70 134 144 156
177 464 71 131 141 153
177 465 70 137 146 157
176 466 68 139 148 159
177 466 68 138 146 158
178 464 69 129 141 156
178 465 68 124 137 153
178 465 69 134 145 158
179 464 68 117 133 150
179 464 69 123 137 154
179 465 68 110 126 143
178 464 70 129 141 155
178 464 71 123 136 151
179 464 70 119 132 149
179 464 71 112 127 145
176 468 64 96 115 134
176 468 65 99 117 134
177 468 64 106 121 137
180 465 65 101 121 142
181 464 65 100 119 140
181 465 65 108 126 144
180 464 67 104 125 145
180 465 66 100 122 143
181 464 66 102 120 139
181 464 67 105 122 141
181 465 66 106 125 143
180 466 64 117 130 145
180 466 65 105 123 142
180 467 64 120 131 144
181 466 64 116 129 144
182 464 65 96 120 144
182 465 64 92 115 137
182 465 65 93 118 141
183 464 65 75 106 134
183 465 64 74 105 134
183 465 65 77 109 138
182 464 66 99 121 143
183 464 66 88 114 138
182 466 64 95 116 136
183 466 64 65 98 126
180 464 68 107 126 144
180 464 69 110 128 146
181 464 68 103 121 140
176 464 72 126 136 149
176 464 73 126 136 149
176 465 72 135 142 153
177 464 72 123 135 149
177 464 73 121 133 147
176 464 74 114 125 138
176 464 75 105 116 130
177 464 74 113 126 142
178 464 72 118 132 148
176 464 76 97 108 120
176 464 78 87 99 113
184 464 65 71 101 127
184 465 64 54 92 124
185 464 64 59 90 116
185 464 65 63 92 117
185 465 64 52 84 112
184 466 64 42 84 117
185 466 64 41 79 110
186 464 64 76 94 112
186 464 65 57 83 105
186 465 64 53 80 102
187 464 65 87 104 121
187 465 64 73 95 114
186 466 64 50 85 110
188 464 64 69 95 117
188 464 65 72 96 118
188 465 64 70 95 117
189 464 64 65 94 118
189 464 65 68 95 118
189 465 64 64 92 115
189 466 64 61 90 114
190 464 64 67 93 116
190 464 65 67 94 116
190 465 64 68 94 115
191 464 64 71 97 119
191 464 65 77 101 122
191 465 64 70 95 118
190 466 64 64 92 115
191 466 64 64 95 120
