ply
format ascii 1.0
comment Version 2, Copyright 2017, 8i Labs, Inc.
comment frame_to_world_scale 0.179523
comment frame_to_world_translation -45.2095 7.18301 -54.3561
comment width 1023
element vertex 1145
property float x
property float y
property float z
property uchar red
property uchar green
property uchar blue
end_header
160 481 64 134 142 155
160 481 65 131 136 147
161 480 64 127 133 144
161 480 65 126 131 141
161 481 64 127 133 144
160 480 66 120 127 138
160 480 67 115 123 136
160 481 66 120 126 136
160 481 67 115 123 136
161 480 66 126 131 141
161 480 67 120 127 140
160 482 64 130 139 153
160 482 65 135 140 151
160 482 66 132 135 143
160 482 67 124 128 137
162 480 64 126 133 144
160 480 68 101 113 128
160 480 69 85 101 118
160 481 68 97 109 124
160 481 69 81 97 114
160 480 70 76 92 109
160 487 75 75 83 121
160 485 77 90 95 130
161 485 77 89 95 130
160 484 79 110 120 142
160 485 78 94 102 133
161 484 79 102 111 137
161 485 78 94 100 133
161 485 79 95 102 133
160 486 76 73 82 122
160 486 77 85 91 129
160 487 76 77 85 122
161 486 76 71 81 121
161 486 77 78 86 125
161 487 76 84 93 125
162 484 79 98 105 134
162 485 78 89 95 132
162 485 79 94 100 133
163 485 78 83 90 130
163 485 79 87 94 131
162 486 77 79 85 126
162 487 77 84 93 124
163 486 77 82 87 128
163 487 77 87 93 125
163 486 78 79 85 128
164 485 79 80 88 128
165 485 79 82 91 129
164 487 77 85 94 121
164 486 78 83 90 128
164 487 78 86 94 122
165 486 78 88 96 126
165 486 79 88 95 127
165 487 78 85 95 121
166 486 79 86 96 125
166 487 79 83 94 119
167 487 79 79 93 118
160 488 75 84 92 122
160 489 75 80 92 115
160 490 75 86 98 114
160 491 75 104 112 124
161 490 75 100 109 121
161 491 75 106 113 123
160 488 76 87 95 126
161 488 76 86 96 122
161 489 76 83 94 114
161 490 76 97 105 118
161 491 76 103 110 121
162 488 76 85 96 120
162 488 77 85 96 120
162 489 76 87 97 117
163 488 77 84 95 117
163 489 76 93 102 121
163 489 77 86 97 118
162 490 76 100 107 121
162 491 76 103 110 121
163 490 76 103 110 126
163 490 77 101 109 125
163 491 76 104 111 123
163 491 77 102 109 122
160 492 75 101 108 120
160 493 75 85 96 110
161 492 75 99 107 117
161 493 75 87 97 112
160 494 75 78 90 110
160 495 75 72 87 109
161 494 75 85 94 114
161 495 75 67 84 108
162 493 75 81 91 110
162 494 75 87 94 115
161 493 76 89 97 115
162 492 76 96 102 116
162 493 76 87 94 114
163 492 76 86 96 113
163 493 76 71 83 108
162 494 76 81 90 112
162 495 76 62 83 106
163 494 76 74 89 110
163 495 76 64 84 106
163 495 77 72 88 108
164 488 77 80 93 117
164 489 77 81 95 118
165 489 77 71 88 115
165 488 78 77 93 118
165 489 78 61 85 112
164 490 77 94 105 125
164 491 77 91 102 120
165 490 77 82 96 119
165 491 77 74 90 111
165 490 78 76 91 115
165 491 78 66 84 106
166 488 78 76 94 119
166 488 79 74 93 119
166 489 78 59 85 112
166 489 79 65 87 115
167 488 79 74 92 119
167 489 79 69 89 117
166 490 78 70 90 113
166 490 79 72 92 115
166 491 78 72 89 110
166 491 79 75 93 113
167 490 79 74 93 116
167 491 79 75 93 112
164 492 77 64 81 105
164 493 77 79 90 113
165 492 77 60 80 103
165 493 77 86 98 116
165 492 78 70 88 108
165 493 78 92 100 116
164 494 77 86 97 113
164 495 77 88 98 112
165 494 77 95 102 113
165 494 78 109 113 121
165 495 78 116 118 125
166 492 78 77 93 110
166 492 79 90 103 118
166 493 78 103 109 120
166 493 79 113 116 124
167 492 79 90 103 118
166 494 79 119 120 126
166 495 79 113 115 121
160 484 80 128 138 154
160 484 81 135 145 160
161 484 80 118 128 147
161 484 81 130 139 155
160 484 82 133 142 155
160 484 83 100 116 140
161 484 82 131 139 154
161 484 83 108 120 144
162 484 80 104 111 137
162 484 81 121 127 145
163 484 80 91 99 131
163 484 81 108 115 136
162 484 82 127 133 150
162 484 83 113 122 145
163 484 82 120 125 145
163 484 83 112 118 142
160 484 84 73 93 130
160 484 85 81 95 131
161 484 84 78 95 128
161 484 85 86 99 128
160 484 86 102 110 140
160 484 87 113 121 139
161 484 86 108 116 139
161 484 87 119 126 141
162 484 84 83 96 127
162 484 85 88 100 127
163 484 84 93 103 130
163 484 85 97 105 129
162 484 86 106 113 135
162 484 87 117 124 138
163 484 86 103 110 131
163 484 87 107 115 132
166 483 86 93 101 125
166 483 87 93 102 124
167 483 86 95 102 126
167 483 87 94 101 125
164 484 80 84 92 128
164 484 81 94 103 130
164 485 80 80 88 128
165 484 81 87 96 129
165 485 80 80 90 128
165 485 81 82 92 127
164 484 82 104 113 136
164 484 83 104 112 137
165 484 82 95 105 133
165 484 83 101 110 134
166 484 81 85 96 128
166 485 80 81 92 127
166 485 81 81 92 126
167 485 80 80 92 125
167 485 81 81 92 124
166 484 82 88 100 129
166 484 83 94 105 130
167 484 82 81 95 125
167 484 83 87 100 126
167 485 82 77 91 122
167 486 80 83 94 121
167 487 80 76 91 118
164 484 84 93 102 129
164 484 85 86 96 123
165 484 84 102 110 132
165 484 85 97 104 127
164 484 86 97 106 127
164 484 87 99 109 128
165 484 86 93 102 124
165 484 87 95 105 125
166 484 84 95 105 128
166 484 85 92 100 125
167 484 84 91 103 125
167 484 85 94 102 126
166 484 86 89 97 123
167 484 86 96 102 128
160 484 88 113 123 138
160 484 89 117 126 141
161 484 88 120 127 139
161 484 89 116 123 137
160 484 90 114 124 141
160 484 91 102 112 137
161 484 90 111 120 134
161 484 91 111 119 134
162 484 88 116 122 133
162 484 89 112 118 131
163 484 88 105 112 128
163 484 89 105 112 128
162 484 90 108 116 130
162 484 91 108 116 129
163 484 90 102 111 126
163 484 91 100 109 125
160 484 92 90 98 130
160 484 93 90 100 122
161 484 92 104 111 128
161 484 93 94 103 121
160 484 94 83 94 117
160 484 95 85 93 117
160 485 95 80 91 115
161 484 94 85 95 117
161 485 94 78 89 115
161 485 95 67 80 109
161 486 95 66 79 103
162 484 92 105 113 128
162 484 93 101 108 124
162 485 92 104 112 127
162 485 93 97 106 123
163 485 92 97 107 123
163 485 93 92 101 119
162 485 94 77 88 113
162 485 95 61 75 105
163 485 94 82 93 114
162 486 94 62 76 102
162 486 95 61 75 99
163 486 94 73 86 108
163 486 95 61 76 101
163 487 94 66 81 102
163 487 95 58 73 93
166 483 88 91 99 121
166 483 89 81 91 117
167 483 88 86 95 120
167 483 89 78 88 115
167 483 90 80 91 115
164 484 88 96 105 125
164 484 89 93 102 120
165 484 88 96 104 123
165 484 89 91 100 120
164 484 90 82 95 115
164 484 91 87 99 117
165 484 90 89 100 120
165 484 91 80 93 114
166 484 88 91 99 121
166 484 89 83 93 118
166 484 90 86 97 118
166 484 91 79 92 113
167 484 90 80 90 114
167 484 91 73 85 109
164 485 92 83 94 113
164 485 93 80 92 111
165 485 92 70 84 105
165 485 93 68 83 104
164 486 93 81 94 111
165 486 93 74 88 105
164 486 94 76 89 107
164 487 94 73 87 104
164 487 95 67 81 100
165 486 94 78 91 108
165 487 94 72 86 103
166 484 92 67 81 105
166 485 92 69 83 103
166 485 93 70 84 103
167 484 92 64 78 102
167 485 92 69 84 102
167 485 93 72 85 102
166 486 93 76 89 104
166 487 93 70 84 99
167 486 93 74 88 102
167 487 93 69 82 96
166 487 94 69 84 99
167 488 80 71 90 119
167 489 80 70 88 119
167 490 80 71 90 114
167 491 80 76 94 112
167 492 80 84 98 113
167 493 80 95 105 118
166 495 80 103 108 117
167 494 80 101 109 120
167 494 81 80 95 112
167 495 80 98 105 116
167 495 81 85 97 111
163 488 95 47 63 86
164 488 95 53 71 91
164 489 95 53 70 90
165 488 94 61 78 95
165 489 94 50 70 90
165 489 95 50 69 90
164 490 95 55 70 89
165 490 95 58 73 91
165 491 95 68 78 91
167 488 93 74 85 98
166 488 94 62 78 95
166 489 94 53 71 91
167 488 94 66 80 96
167 489 94 58 74 92
166 490 94 59 74 91
166 490 95 64 76 91
166 491 94 62 73 90
166 491 95 60 72 87
167 490 94 55 70 89
167 491 94 60 71 90
165 492 95 61 72 84
165 493 95 58 67 84
165 494 95 48 64 80
165 495 95 60 74 87
166 492 94 66 76 90
166 492 95 63 75 89
166 493 95 57 72 88
167 492 94 64 75 94
167 493 94 66 78 97
167 495 93 80 86 99
166 494 95 57 74 89
166 495 94 68 79 93
166 495 95 62 76 90
167 494 94 69 78 97
167 495 94 75 82 98
168 483 86 95 101 126
168 483 87 97 103 126
169 483 87 98 103 125
170 483 87 96 101 122
168 485 81 85 95 121
168 484 83 77 93 119
168 485 82 79 92 120
168 485 83 75 91 117
169 485 83 80 94 118
168 486 81 81 94 118
168 487 80 75 91 119
168 487 81 71 86 119
169 486 81 79 93 120
169 487 81 67 82 119
169 486 82 75 90 117
169 486 83 87 100 121
169 487 82 68 83 118
170 485 83 82 96 119
170 486 82 79 93 120
170 486 83 79 93 119
170 487 82 72 87 118
170 487 83 73 88 117
171 487 83 72 87 116
168 484 84 78 92 115
168 484 85 88 97 122
169 484 84 71 87 111
169 484 85 82 93 117
169 485 84 71 87 112
168 484 86 96 101 126
169 484 86 94 100 124
170 484 85 93 103 122
170 485 84 78 93 115
170 485 85 88 99 119
171 485 85 101 111 125
170 484 86 95 103 121
170 484 87 94 101 121
171 484 86 104 111 124
171 484 87 101 107 119
171 485 86 107 114 125
170 486 84 76 91 118
171 486 84 77 93 118
171 486 85 85 100 119
171 487 84 68 85 114
171 487 85 56 78 108
172 484 87 104 110 120
172 485 86 98 106 119
172 485 87 102 108 117
173 484 87 107 111 121
173 485 87 103 108 118
172 486 85 86 98 113
172 487 85 62 82 106
172 486 86 93 102 116
172 486 87 99 105 115
172 487 86 71 86 104
172 487 87 80 91 106
173 486 87 103 108 118
173 487 87 89 98 110
168 483 88 95 101 124
168 483 89 90 99 121
169 483 88 91 98 121
169 483 89 80 91 116
168 483 90 77 88 112
169 483 90 72 84 109
169 483 91 71 84 109
170 483 88 90 97 120
170 483 89 85 96 117
171 483 88 94 102 120
171 483 89 83 94 114
170 483 90 76 90 110
170 483 91 69 81 105
171 483 90 75 89 107
168 484 91 72 84 108
169 484 91 74 85 108
171 484 88 100 107 120
170 484 91 72 84 105
171 484 90 81 93 108
171 484 91 77 88 106
171 485 91 77 88 102
168 484 92 70 83 103
168 485 92 71 84 101
168 485 93 70 84 100
169 484 92 73 85 104
169 485 92 70 84 103
168 486 93 72 85 100
168 487 93 74 85 99
169 486 92 75 87 101
169 486 93 75 87 100
169 487 93 74 86 100
170 484 92 73 84 103
170 485 92 73 86 103
171 485 92 73 86 102
170 486 92 76 88 102
170 486 93 75 87 100
170 487 92 78 88 101
170 487 93 76 86 99
171 486 92 76 88 102
171 487 92 81 90 102
172 483 88 85 97 112
172 483 89 82 95 111
172 483 90 82 95 109
172 484 88 101 108 119
172 484 89 86 98 112
173 484 88 96 105 118
173 484 89 91 101 113
173 485 88 96 104 116
173 485 89 94 101 114
172 484 90 83 95 108
172 484 91 80 92 106
172 485 90 82 92 104
172 485 91 78 89 103
173 484 90 86 96 109
173 485 90 90 99 112
173 486 88 100 107 118
173 486 89 100 106 118
173 487 88 92 100 115
173 487 89 94 101 117
172 486 91 80 90 104
172 487 91 83 91 105
173 486 90 91 99 113
173 486 91 79 89 104
173 487 90 89 97 113
173 487 91 82 92 106
172 486 92 82 92 105
172 487 92 83 91 104
168 488 80 66 83 119
168 489 80 69 87 118
169 488 81 62 79 119
169 489 81 74 91 120
169 488 82 63 81 117
169 489 82 72 91 116
168 490 80 73 91 115
168 490 81 76 94 115
168 491 80 75 93 113
168 491 81 73 91 113
169 490 81 77 95 118
169 491 81 72 91 115
169 490 82 79 96 116
169 491 82 76 92 112
169 491 83 81 93 108
170 488 82 67 85 117
170 488 83 70 87 115
170 489 82 74 92 115
170 489 83 78 93 115
171 488 83 70 86 115
171 489 83 79 93 113
170 490 82 84 98 118
170 490 83 86 97 113
170 491 83 89 98 110
171 488 84 72 89 116
171 488 85 67 85 115
171 489 84 78 93 114
171 489 85 69 86 105
170 491 84 101 106 116
171 490 84 89 99 113
171 490 85 73 87 104
171 491 84 94 103 115
171 491 85 86 96 109
171 490 86 74 83 104
171 491 86 79 89 105
168 492 80 74 92 111
168 492 81 69 90 111
168 493 81 68 89 109
168 492 82 62 86 108
168 493 82 57 82 105
169 492 82 71 89 108
169 492 83 84 94 108
169 493 82 56 80 102
169 493 83 81 94 110
168 494 81 77 93 111
168 494 82 68 88 110
168 494 83 63 83 105
168 495 82 73 89 108
168 495 83 70 88 106
169 494 83 66 84 104
169 495 83 56 79 100
170 492 83 98 104 114
169 494 84 75 89 106
169 495 84 57 79 100
169 495 85 56 79 102
169 495 86 59 79 102
170 492 84 100 105 115
170 492 85 97 102 112
170 493 84 91 99 111
170 493 85 94 99 109
171 492 85 93 99 109
171 493 85 96 100 109
171 492 86 82 92 106
171 493 86 87 96 108
171 493 87 76 87 103
170 494 84 84 95 110
170 494 85 88 97 110
170 495 85 73 89 107
170 494 86 84 94 107
170 495 86 74 89 105
170 495 87 84 94 108
171 494 86 83 94 107
171 494 87 82 92 105
172 488 85 68 88 113
172 489 85 61 81 104
172 488 86 71 87 109
172 488 87 76 88 108
172 489 86 53 74 100
172 489 87 68 83 108
173 488 87 77 89 108
173 489 87 74 86 109
172 490 86 60 75 99
172 490 87 59 75 102
172 491 86 70 85 103
172 491 87 63 80 102
172 492 87 65 80 100
172 493 87 73 85 103
171 490 91 52 68 93
171 491 91 54 68 95
168 488 93 69 81 97
168 489 93 58 73 93
169 488 93 68 81 97
169 489 93 57 72 91
168 489 94 58 73 92
168 490 93 52 66 89
168 491 93 55 67 91
169 490 93 46 64 85
169 491 93 52 66 90
168 490 94 52 67 88
168 491 94 56 67 91
170 488 92 71 82 98
170 488 93 71 83 97
170 489 93 52 70 87
171 488 92 74 84 99
171 489 92 55 72 90
170 490 92 41 61 85
170 490 93 43 62 83
170 491 92 52 68 91
170 491 93 52 66 92
171 490 92 44 65 86
171 491 92 51 67 91
171 493 88 79 88 105
171 493 89 80 90 104
171 492 91 55 70 93
171 493 90 74 85 99
171 493 91 67 79 95
170 495 88 83 92 105
170 495 89 88 95 105
171 494 88 81 90 104
171 494 89 81 90 102
171 495 88 82 91 104
171 495 89 83 91 102
170 494 90 84 92 102
170 494 91 77 86 98
170 495 90 92 97 106
170 495 91 84 91 101
171 494 90 84 92 102
171 494 91 82 90 100
171 495 90 90 95 104
168 492 93 62 73 96
168 493 93 59 73 95
169 492 93 59 72 95
169 493 93 59 75 94
168 492 94 63 74 96
168 493 94 65 76 97
168 494 93 68 78 96
168 495 92 76 84 97
168 495 93 79 86 98
169 494 92 62 75 91
169 494 93 59 73 91
169 495 92 75 83 97
170 492 92 59 75 95
170 492 93 59 73 95
170 493 92 52 70 91
170 493 93 54 73 92
171 492 92 58 74 95
171 493 92 52 67 89
170 494 92 64 76 93
170 495 92 76 84 97
173 488 88 76 87 107
173 488 89 76 87 106
173 489 88 74 85 109
173 489 89 72 83 105
172 488 90 74 88 104
172 488 91 77 89 103
172 489 90 64 79 99
172 489 91 64 80 96
173 488 90 80 92 108
173 488 91 80 92 106
173 489 90 67 80 101
172 490 88 62 76 103
172 490 89 65 78 101
172 491 88 61 76 102
172 491 89 61 75 98
173 490 88 70 83 106
173 490 89 71 83 105
172 490 90 58 72 98
172 490 91 55 70 94
172 491 90 53 68 96
172 491 91 53 67 96
172 488 92 78 88 102
172 489 92 69 82 97
172 492 88 66 78 101
172 492 89 64 78 99
172 493 88 77 86 105
172 493 89 78 88 105
172 492 90 58 75 97
172 493 90 70 83 100
160 496 75 49 75 106
160 497 75 50 79 106
161 496 75 47 72 103
161 497 75 55 79 109
160 498 75 58 85 111
160 499 75 68 89 113
161 498 75 64 86 115
161 499 75 77 94 116
161 496 76 49 75 104
161 497 76 61 82 111
161 498 76 65 87 114
161 499 76 82 98 116
162 496 76 57 80 107
162 497 76 64 86 111
163 496 76 65 83 108
163 496 77 75 90 111
163 497 76 66 84 109
163 497 77 70 88 111
162 498 76 69 90 113
162 499 76 77 94 113
163 498 77 75 93 114
163 499 77 72 91 113
160 500 75 103 111 123
160 501 75 123 125 131
161 500 75 111 116 126
161 501 75 125 125 131
160 502 75 128 127 132
160 503 75 128 128 134
161 502 75 124 125 131
161 503 75 119 122 130
161 500 76 107 113 123
161 501 76 122 124 131
161 502 76 117 121 130
161 503 76 97 107 121
162 500 76 93 103 117
162 500 77 78 94 113
162 501 76 105 113 125
162 501 77 87 101 118
163 500 77 68 88 111
163 501 77 74 93 113
163 500 78 65 87 109
163 501 78 61 82 105
162 502 76 97 107 121
162 502 77 79 94 112
162 503 76 79 94 111
162 503 77 77 90 105
163 502 77 63 82 102
163 503 77 80 92 106
163 502 78 61 80 98
163 502 79 82 93 108
163 503 78 98 104 114
163 503 79 96 104 115
164 496 77 89 100 116
164 497 77 84 97 113
164 496 78 107 113 122
164 497 78 93 103 117
165 496 78 111 115 124
165 496 79 106 111 121
165 497 78 99 107 119
165 497 79 87 99 113
164 498 77 81 96 114
164 498 78 82 95 113
164 499 78 73 90 111
164 499 79 69 89 109
165 498 79 74 91 109
165 499 79 67 87 107
166 496 79 103 108 118
164 500 78 64 86 108
164 500 79 56 81 103
164 501 78 56 79 102
164 501 79 53 77 99
164 502 79 73 88 105
160 504 75 104 114 126
160 505 75 70 88 106
160 506 75 61 78 95
160 507 75 75 85 100
160 504 76 83 97 112
160 505 76 84 96 110
161 504 76 89 100 115
161 504 77 102 108 118
161 505 76 94 102 113
161 505 77 115 116 123
161 505 78 112 112 117
160 506 76 101 106 115
160 507 76 102 107 116
160 507 77 104 108 116
161 506 77 111 112 118
161 507 77 104 107 114
161 506 78 102 104 110
161 507 78 100 105 113
161 507 79 80 92 107
162 504 77 106 110 119
162 504 78 110 110 116
162 505 78 104 106 112
162 505 79 101 106 114
163 504 78 111 112 117
163 504 79 96 102 110
162 506 78 103 106 113
162 506 79 101 106 116
162 507 79 90 99 112
160 508 76 86 96 109
160 508 77 85 94 106
160 509 77 66 83 101
160 508 78 95 102 112
160 509 78 92 100 112
160 509 79 102 108 119
161 508 78 100 105 115
161 508 79 80 92 107
161 509 79 97 104 116
160 510 78 97 104 114
160 510 79 106 110 119
160 511 79 102 105 112
163 503 80 84 95 108
165 498 80 75 91 109
165 499 80 63 83 104
166 496 80 98 104 114
166 497 80 85 96 109
166 497 81 96 103 114
167 496 80 93 100 111
167 496 81 90 98 110
167 497 81 94 102 112
167 496 82 96 102 112
167 497 82 94 100 110
167 497 83 90 96 108
166 498 80 80 94 111
166 498 81 90 99 112
166 499 80 77 91 108
166 499 81 61 78 99
166 498 82 85 94 107
166 499 82 56 73 97
166 499 83 45 66 95
167 498 82 86 93 106
167 498 83 77 88 103
167 499 83 53 71 96
167 498 84 55 75 92
167 499 84 56 76 98
167 499 85 75 88 106
167 499 86 86 93 106
164 500 80 48 74 95
164 501 80 52 76 96
165 500 80 44 72 95
165 500 81 37 67 95
165 501 80 49 74 96
165 501 81 45 73 98
165 500 82 36 69 96
165 501 82 50 76 99
164 502 80 71 87 103
164 502 81 61 82 101
164 503 80 80 93 108
164 503 81 74 89 106
165 502 81 55 78 99
164 503 82 72 87 104
165 502 82 63 82 100
165 502 83 71 85 100
165 503 82 71 86 102
165 503 83 69 84 102
166 500 81 40 65 93
166 500 82 38 66 96
166 500 83 48 72 99
166 501 83 67 85 103
167 500 83 43 68 97
166 502 83 78 90 105
165 503 84 68 83 102
166 500 84 63 81 102
166 501 84 78 90 105
166 501 85 85 93 104
167 500 84 59 78 101
167 500 85 74 87 104
167 501 85 82 91 103
167 500 86 96 100 110
167 500 87 107 109 115
167 501 86 91 96 104
167 501 87 103 105 111
166 502 84 89 97 108
166 502 85 97 101 109
166 503 84 82 91 105
166 503 85 91 98 109
166 502 86 101 104 112
166 503 86 104 108 116
166 503 87 105 108 116
167 502 86 91 96 105
167 502 87 91 96 104
167 503 87 93 99 109
161 503 95 73 83 95
163 500 95 88 92 98
163 501 95 91 94 100
162 502 95 87 92 99
162 503 94 64 76 88
162 503 95 69 79 90
163 502 94 81 87 95
163 502 95 90 93 98
163 503 94 64 76 89
165 496 95 62 77 89
165 497 94 69 77 87
165 497 95 63 76 86
164 498 95 78 87 97
164 499 95 85 91 100
165 498 94 78 85 96
165 498 95 83 89 98
165 499 94 79 86 97
165 499 95 85 91 101
166 497 93 77 86 98
167 496 93 86 92 102
167 497 93 82 90 103
166 496 94 72 80 90
166 496 95 70 80 91
166 497 94 73 81 91
167 496 94 83 89 99
166 498 93 62 77 91
166 499 93 57 72 87
167 498 92 68 80 94
167 498 93 60 75 90
167 499 92 55 69 84
166 498 94 75 85 98
166 499 94 66 79 92
165 503 91 48 70 92
167 501 88 106 108 114
167 501 89 99 103 112
166 501 91 44 64 83
167 500 90 64 78 93
167 500 91 59 74 90
167 501 90 80 89 101
167 501 91 60 75 92
166 503 89 69 83 98
167 502 88 91 96 104
167 502 89 89 95 105
167 503 88 79 89 102
167 503 89 75 87 101
166 502 91 61 78 96
166 503 90 66 81 98
166 503 91 57 77 96
167 502 90 82 91 103
167 502 91 69 82 98
167 503 90 74 87 102
165 500 93 71 80 91
165 501 93 73 81 92
164 500 94 85 89 96
164 500 95 85 89 96
164 501 94 86 89 96
164 501 95 84 87 93
165 500 94 79 86 95
165 501 94 81 87 96
164 502 93 68 79 92
164 503 93 60 74 90
165 502 92 60 76 95
165 502 93 70 80 93
165 503 92 51 71 92
164 502 94 81 87 96
166 500 92 51 66 81
166 500 93 58 71 85
166 501 92 51 67 85
166 501 93 64 75 88
167 500 92 51 68 84
167 501 92 49 67 86
166 502 92 59 75 93
162 505 80 97 104 114
163 504 80 91 100 113
163 504 81 82 94 108
163 505 80 83 93 107
163 505 81 77 89 101
163 505 82 87 95 105
162 506 80 84 93 105
162 506 81 85 93 104
162 507 80 76 88 102
162 507 81 92 97 107
163 506 81 94 100 109
162 507 82 107 109 116
163 506 82 111 113 119
163 506 83 121 120 125
163 507 82 116 116 122
163 507 83 116 117 122
163 507 84 101 106 115
161 508 80 65 82 99
161 508 81 75 85 98
161 509 80 91 100 112
161 509 81 87 96 107
161 509 82 83 93 106
160 510 80 108 111 120
160 511 80 100 105 114
160 511 81 96 102 113
161 510 80 110 114 122
161 510 81 105 110 120
161 511 81 105 110 119
161 510 82 84 97 112
161 511 82 83 96 111
161 511 83 63 85 107
162 508 80 78 87 99
162 508 81 77 86 97
162 508 82 84 92 102
162 508 83 69 84 99
162 509 82 68 83 99
162 509 83 63 85 104
163 508 83 89 97 108
162 510 83 64 86 107
162 511 83 61 84 106
162 509 84 67 89 109
163 508 84 73 88 105
163 508 85 91 98 107
163 509 84 78 94 110
163 509 85 96 102 111
163 509 86 108 110 116
162 510 84 65 86 106
162 511 84 58 82 103
162 511 85 64 83 102
163 510 84 80 94 109
163 510 85 89 97 108
163 511 85 83 94 107
162 511 86 67 85 102
162 511 87 77 92 108
163 510 86 105 108 115
163 510 87 99 104 113
163 511 86 90 98 110
163 511 87 93 102 114
164 504 81 81 94 109
164 504 82 69 85 102
164 504 83 75 86 102
164 505 83 100 105 114
165 504 83 64 79 101
164 506 83 120 120 124
164 505 84 93 100 110
164 505 85 84 94 106
165 504 84 65 81 98
165 504 85 63 79 95
165 505 85 67 82 98
165 504 86 73 85 99
165 505 86 66 80 96
165 505 87 85 93 105
164 506 84 104 108 117
164 506 85 85 95 108
164 507 84 94 100 111
164 507 85 83 94 107
165 506 85 79 91 107
164 507 86 87 96 108
165 506 86 69 82 98
165 506 87 85 92 104
165 507 86 80 91 104
165 507 87 93 98 108
166 504 85 68 82 97
166 504 86 88 96 107
166 504 87 101 105 114
166 505 87 89 95 106
166 506 87 89 95 105
164 508 85 87 95 107
164 508 86 99 103 112
164 508 87 106 109 116
164 509 86 104 106 113
164 509 87 103 106 113
164 510 87 98 103 111
163 506 91 86 90 97
163 507 91 91 94 101
161 504 95 56 73 89
161 505 95 55 72 89
160 506 95 64 77 90
160 507 95 77 85 96
161 506 94 63 78 93
161 506 95 56 73 88
161 507 94 66 78 91
163 504 93 56 73 90
163 505 93 71 85 100
162 504 94 54 71 87
162 504 95 58 72 88
162 505 94 67 80 95
163 504 94 56 71 89
163 505 94 64 79 95
162 506 93 84 93 105
162 507 92 92 96 104
162 507 93 89 94 104
163 506 92 89 93 101
163 506 93 89 96 107
163 507 92 94 97 103
162 506 94 72 84 98
161 510 91 93 98 107
161 511 90 89 96 107
161 511 91 85 94 105
163 509 89 98 101 107
162 508 91 94 97 104
162 509 91 97 100 108
163 508 90 90 94 101
163 508 91 94 97 103
163 509 90 97 100 106
162 511 88 84 96 110
162 511 89 81 92 105
163 510 88 99 104 113
163 510 89 97 102 109
163 511 88 93 101 113
163 511 89 90 98 109
162 510 90 98 101 108
162 510 91 95 99 108
162 511 90 88 95 106
162 511 91 94 99 108
163 510 90 97 100 107
163 511 90 89 96 106
161 508 93 72 81 92
161 509 92 84 90 99
161 509 93 73 81 92
160 508 94 76 84 95
160 508 95 88 92 100
160 509 94 84 88 95
160 509 95 93 95 100
161 508 94 64 76 88
161 509 94 68 77 88
160 510 93 73 78 87
160 511 92 68 79 92
160 511 93 68 76 86
161 510 92 82 89 99
161 510 93 72 79 89
161 511 92 78 87 99
160 510 94 88 88 92
162 508 92 92 96 104
162 508 93 84 90 100
162 509 92 89 94 102
164 505 91 59 73 87
165 504 91 33 61 84
165 505 90 48 66 84
165 505 91 37 62 80
164 507 89 93 96 103
165 506 88 98 101 109
165 506 89 86 92 102
165 507 88 101 104 110
165 507 89 96 100 106
164 506 90 70 79 90
164 506 91 68 78 89
164 507 90 84 89 97
165 506 90 67 78 91
166 504 88 92 98 108
166 504 89 68 78 95
166 505 88 93 98 108
166 505 89 80 87 101
167 504 88 84 92 105
167 504 89 70 81 97
166 504 90 48 68 89
166 505 90 51 66 86
166 506 88 98 102 110
166 506 89 91 97 106
164 504 92 48 68 87
164 504 93 53 72 89
164 505 92 70 81 94
164 506 92 81 86 95
164 508 88 101 103 108
164 508 89 97 99 104
164 509 88 102 103 110
164 509 89 99 101 107
164 508 90 91 94 101
164 510 88 102 105 113
168 496 82 89 99 111
168 496 83 87 97 110
168 497 83 91 99 109
169 496 83 74 88 107
168 496 84 84 95 110
168 497 84 77 89 103
168 497 85 60 78 99
169 496 84 71 88 106
169 496 85 51 74 100
169 497 85 54 74 99
168 497 86 60 77 98
169 496 86 56 77 102
169 496 87 67 82 101
169 497 86 57 76 99
169 497 87 60 77 96
168 498 84 60 78 95
168 498 85 68 83 100
168 499 85 77 89 106
168 498 86 72 84 101
168 498 87 77 86 100
168 499 86 87 93 105
168 499 87 92 96 106
169 498 87 64 79 95
170 496 86 74 88 106
170 496 87 78 89 105
168 500 87 107 109 115
169 497 88 72 84 99
169 497 89 86 94 105
169 496 90 96 100 108
169 496 91 89 95 103
169 497 90 89 95 104
169 497 91 88 94 103
168 499 88 64 77 91
168 499 89 59 73 88
169 498 88 60 75 91
169 498 89 70 82 95
168 498 91 78 87 98
168 499 90 64 77 91
168 499 91 66 78 93
169 498 90 77 86 98
169 498 91 81 88 99
170 496 88 79 89 103
170 496 89 94 100 110
170 497 89 92 99 109
170 496 90 98 102 110
170 496 91 93 97 105
170 497 90 96 101 110
168 496 92 84 92 104
168 496 93 86 93 104
168 497 92 83 91 103
168 497 93 89 96 107
169 496 92 79 88 100
169 497 92 84 91 102
168 498 92 76 85 98
168 500 88 99 103 111
168 500 89 83 91 102
168 500 90 63 77 91
168 500 91 61 75 91
