ply
format ascii 1.0
comment Version 2, Copyright 2017, 8i Labs, Inc.
comment frame_to_world_scale 0.179523
comment frame_to_world_translation -45.2095 7.18301 -54.3561
comment width 1023
element vertex 1071
property float x
property float y
property float z
property uchar red
property uchar green
property uchar blue
end_header
167 576 192 110 107 166
165 591 192 72 99 123
167 589 192 50 84 127
166 590 192 73 102 134
166 591 192 95 117 140
167 590 192 55 91 130
167 590 193 53 91 130
167 591 192 88 114 140
167 591 193 91 115 141
168 576 192 91 85 154
168 576 193 81 85 155
168 577 192 91 87 149
169 576 192 61 67 139
169 576 193 73 84 155
169 577 192 67 69 137
169 576 194 77 95 165
169 578 192 89 88 142
170 576 193 78 97 162
170 577 192 80 85 144
170 577 193 80 95 155
171 577 193 69 96 157
170 576 194 74 99 166
171 576 194 61 94 162
171 577 194 52 87 156
170 578 192 74 78 139
170 578 193 70 80 143
170 579 192 75 79 135
171 578 193 64 81 146
171 579 192 63 70 134
171 579 193 61 74 139
170 580 192 90 99 141
171 580 192 69 81 132
171 581 192 74 82 126
170 582 192 112 127 149
170 583 192 95 115 138
171 582 192 94 96 133
171 583 192 95 102 133
171 583 193 88 91 125
172 576 194 51 84 158
172 576 195 58 82 152
172 577 194 45 81 153
172 577 195 43 79 155
173 576 195 57 79 147
173 577 195 48 77 145
172 578 193 71 90 152
172 579 193 64 82 146
172 578 194 63 89 155
172 579 194 63 85 151
173 578 194 60 86 153
173 578 195 58 84 150
173 579 194 53 79 147
173 579 195 56 81 148
174 577 195 45 72 127
174 578 195 62 84 139
174 579 195 59 82 146
175 579 195 63 82 133
173 576 196 55 74 125
174 576 196 48 66 101
174 577 196 43 69 118
175 576 196 45 62 91
175 576 197 49 61 78
175 577 196 44 63 93
175 577 197 49 61 79
174 578 196 50 74 122
175 578 196 46 68 103
175 579 196 52 73 116
172 580 193 63 79 141
172 581 193 52 65 129
172 580 194 59 79 146
173 580 194 43 70 141
173 581 194 41 66 134
172 582 193 48 53 117
172 583 193 57 58 110
172 583 194 46 51 110
173 582 194 41 61 126
173 583 194 43 58 120
174 580 194 37 67 139
174 580 195 43 70 141
174 581 194 33 64 134
174 581 195 38 65 135
175 580 195 50 74 134
175 581 195 52 77 135
174 582 194 31 62 130
174 582 195 29 60 130
174 583 194 32 62 125
174 583 195 24 61 126
175 582 195 40 69 132
175 583 195 32 66 127
175 580 196 54 76 127
169 585 192 112 128 148
169 586 192 100 118 142
169 587 192 87 110 137
170 584 192 112 128 148
170 585 192 118 132 149
171 584 192 97 110 132
171 584 193 85 92 121
171 585 193 102 109 130
170 586 192 105 120 140
170 586 193 106 119 137
170 587 192 98 116 142
170 587 193 101 117 139
171 586 193 100 108 127
171 587 193 97 110 129
171 587 194 91 100 118
168 588 192 64 91 127
168 589 192 58 85 127
168 589 193 57 82 129
169 588 192 74 96 129
169 588 193 75 96 130
169 589 193 64 87 129
168 590 193 44 82 128
168 591 193 71 104 136
169 590 193 42 77 127
169 590 194 36 73 127
169 591 194 53 90 133
169 591 195 48 90 131
170 588 193 90 108 135
170 589 193 67 91 129
170 588 194 97 114 136
170 589 194 72 95 129
171 588 194 99 110 129
171 589 194 86 102 128
171 589 195 86 96 120
170 590 194 51 82 126
170 591 194 35 74 124
170 591 195 38 81 126
171 590 194 66 92 127
171 590 195 70 88 122
171 591 195 45 80 124
171 591 196 55 77 121
172 584 193 60 58 106
172 585 193 73 76 110
172 584 194 44 45 103
172 585 194 58 52 97
173 584 194 41 49 108
173 585 194 43 43 99
173 585 195 37 52 105
172 586 193 79 85 111
172 586 194 70 66 99
172 587 194 75 72 101
173 586 194 54 37 91
173 586 195 43 37 94
173 587 195 48 36 90
174 584 194 37 62 119
174 584 195 33 65 122
174 585 195 33 62 114
175 584 195 36 69 125
175 585 195 33 65 117
174 586 195 35 52 104
174 587 195 39 44 95
175 584 196 40 70 127
175 585 196 36 68 122
174 587 196 39 48 98
175 586 196 34 62 116
175 587 196 35 57 109
175 587 197 35 56 110
172 588 194 84 86 107
172 588 195 71 67 98
172 589 195 73 71 100
173 588 195 52 41 88
173 589 195 55 39 86
172 590 195 74 76 108
173 588 196 51 40 89
173 589 196 54 42 88
172 590 196 62 59 100
172 591 196 59 56 106
172 591 197 56 46 103
173 590 196 55 41 90
173 590 197 58 43 93
173 591 197 56 37 91
174 588 196 43 45 94
174 588 197 39 44 93
174 589 196 54 50 93
174 589 197 53 49 94
175 588 196 35 47 101
175 588 197 39 50 104
175 589 197 40 38 93
175 589 198 46 42 97
174 590 197 62 52 97
174 591 197 64 49 96
174 590 198 60 47 97
174 591 198 68 49 98
175 590 198 54 40 96
175 591 198 60 40 96
165 592 192 80 106 129
165 593 192 97 120 146
165 594 192 104 124 150
165 595 192 94 119 151
166 592 192 85 109 131
166 592 193 90 111 132
166 593 192 108 128 150
166 593 193 111 129 151
167 592 193 90 111 131
167 593 193 109 126 146
167 593 194 119 136 158
166 594 192 108 127 153
166 594 193 108 128 154
166 595 193 101 123 152
167 594 193 103 124 151
167 595 193 113 131 156
167 594 194 102 123 149
167 595 194 115 132 156
165 596 192 106 134 168
165 597 192 93 127 164
165 598 192 107 133 165
166 596 192 109 136 168
166 596 193 110 133 163
166 597 192 84 120 161
166 597 193 89 121 162
167 596 193 101 124 151
167 597 193 104 130 165
167 596 194 104 126 153
167 597 194 107 132 165
166 598 192 106 131 164
166 598 193 85 115 158
166 599 192 110 131 161
167 598 193 81 116 158
167 599 192 108 131 160
167 599 193 115 139 169
166 600 192 120 138 167
166 601 192 115 135 163
167 600 192 115 135 163
167 600 193 112 133 160
167 601 192 121 137 165
167 601 193 124 139 165
166 602 192 123 138 164
167 602 192 127 140 165
167 603 192 120 135 156
168 592 193 106 124 144
168 592 194 102 121 141
168 593 194 101 120 140
169 592 194 104 126 149
169 592 195 110 131 152
169 593 195 89 111 132
168 594 194 106 124 148
168 594 195 108 123 148
168 595 194 116 131 155
168 595 195 113 128 153
169 594 195 115 128 150
169 595 195 105 121 147
170 592 195 91 118 146
170 593 195 103 123 142
169 595 196 113 130 154
170 592 196 112 133 154
170 593 196 115 133 151
171 592 196 64 94 131
171 592 197 57 76 120
171 593 196 106 127 148
171 593 197 99 117 141
170 594 196 103 122 140
170 595 196 116 134 154
171 594 197 127 141 157
171 595 197 104 125 146
168 596 194 102 122 149
168 596 195 111 129 155
168 597 194 113 134 164
168 597 195 110 132 159
169 596 195 117 133 160
169 597 195 111 133 160
168 599 193 112 139 170
168 598 194 81 116 159
168 598 195 105 133 167
168 599 194 96 129 166
169 598 195 106 134 167
169 599 194 94 128 166
169 599 195 86 123 166
170 599 195 99 130 170
169 596 196 112 132 158
169 597 196 118 139 165
170 596 196 109 131 158
170 596 197 112 136 163
170 597 196 121 142 170
170 597 197 111 134 164
171 596 197 118 141 166
171 597 197 112 135 167
170 598 196 110 136 166
170 599 196 105 134 172
171 598 196 106 131 163
171 598 197 119 138 170
171 599 196 99 127 165
172 592 197 55 51 106
172 593 197 70 74 114
173 592 197 55 33 91
173 593 197 59 35 97
173 592 198 56 33 91
173 593 198 64 37 99
172 594 197 109 116 137
172 595 197 104 118 138
173 594 198 85 62 109
173 595 198 98 86 119
174 592 198 67 49 100
174 593 198 72 51 108
174 593 199 73 54 110
175 592 199 61 41 100
175 593 199 64 44 105
174 594 198 74 44 107
174 595 198 78 40 102
175 594 199 72 51 112
175 595 199 76 56 116
172 596 197 98 120 146
172 597 197 115 138 167
173 597 197 108 123 154
173 596 198 83 79 119
173 597 198 100 103 140
172 598 197 113 134 166
172 599 197 112 135 169
173 598 197 108 128 158
173 599 197 115 136 168
173 598 198 105 115 150
173 599 198 104 120 156
174 596 198 72 35 99
174 597 198 73 44 107
175 596 199 76 55 116
175 597 198 71 41 108
175 597 199 77 54 116
174 598 198 88 67 122
174 599 198 89 78 131
175 598 198 78 39 111
175 598 199 72 42 112
175 599 198 79 37 112
168 600 193 113 137 163
168 601 193 122 139 163
168 600 194 116 140 166
169 600 194 118 142 171
169 600 195 103 134 170
169 601 194 110 132 159
168 602 192 132 144 166
168 602 193 123 138 164
168 603 192 111 130 151
168 603 193 128 145 167
169 602 193 120 138 165
169 603 193 121 140 165
169 602 194 119 138 168
170 600 195 100 131 170
170 601 194 95 123 155
170 601 195 102 130 164
171 601 195 101 130 166
170 602 194 116 137 168
170 602 195 110 134 164
170 603 194 116 135 165
171 602 195 107 131 164
171 603 194 109 129 162
171 603 195 106 130 166
171 600 196 102 131 170
171 601 196 102 131 169
168 604 192 125 142 165
168 605 192 125 144 172
169 604 192 118 137 157
169 604 193 98 122 145
169 605 192 127 146 169
169 605 193 126 143 163
168 606 192 83 108 154
169 606 192 69 94 150
169 606 193 99 121 158
169 607 192 58 83 152
170 605 193 107 128 150
170 604 194 108 129 154
170 605 194 90 116 142
171 604 194 111 135 164
171 604 195 103 130 164
171 605 194 77 110 141
171 605 195 96 126 157
170 606 192 71 97 149
170 606 193 111 131 163
170 607 192 54 81 148
170 607 193 51 82 148
171 606 193 96 119 156
171 607 193 59 92 147
170 606 194 125 144 166
171 606 194 117 139 164
171 607 194 87 116 155
172 602 195 115 138 172
172 603 195 104 133 167
172 600 196 99 130 168
172 600 197 93 125 163
172 601 196 99 130 169
172 601 197 89 124 164
173 600 197 106 131 165
173 601 197 80 114 155
173 600 198 110 129 162
172 602 196 88 122 161
172 603 196 104 133 169
173 602 196 72 109 154
173 602 197 78 110 155
173 603 196 91 124 161
173 603 197 74 109 151
174 601 197 85 105 146
174 600 198 100 103 143
174 601 198 87 94 133
175 600 198 78 47 107
175 601 198 75 55 106
174 602 197 68 89 136
174 603 197 59 91 139
175 603 197 54 68 122
175 602 198 62 52 108
175 603 198 56 49 111
172 604 195 85 120 158
172 605 195 88 123 157
172 606 194 125 148 173
172 606 195 93 125 157
172 607 194 106 133 166
172 607 195 118 142 174
173 606 195 77 115 154
173 607 195 94 123 165
172 604 196 91 125 162
173 604 196 92 126 162
173 605 196 76 116 156
173 606 196 55 101 147
174 604 196 80 119 156
174 604 197 66 104 146
174 605 196 73 114 154
174 605 197 65 108 148
175 604 197 59 79 129
175 605 197 69 99 143
174 606 196 50 96 147
174 607 196 53 93 150
175 606 197 68 98 149
175 607 196 53 89 151
175 607 197 58 90 150
176 576 197 53 63 78
176 577 196 49 63 82
176 577 197 54 64 78
177 576 197 55 64 79
177 577 197 63 69 81
177 576 198 56 65 80
176 578 196 48 64 84
176 578 197 56 66 81
176 579 196 42 64 92
177 578 197 64 71 81
177 579 196 45 60 77
177 579 197 53 63 76
178 577 197 77 80 88
178 576 198 65 72 86
178 577 198 76 80 88
179 576 198 86 91 101
179 576 199 87 93 106
179 577 198 94 96 102
178 578 197 75 78 86
178 579 197 62 66 76
178 578 198 84 85 92
179 578 198 85 86 93
179 579 198 67 71 81
176 580 196 40 65 102
176 581 196 53 77 118
177 580 196 38 56 78
177 580 197 44 57 72
177 581 196 41 63 89
177 581 197 44 58 76
176 582 196 64 86 130
176 583 196 55 78 127
177 582 196 51 71 102
177 582 197 42 59 81
177 583 196 50 70 106
177 583 197 41 59 83
178 580 197 51 57 69
178 581 197 49 58 70
179 580 197 52 59 72
179 581 197 51 59 71
179 580 198 54 61 74
179 581 198 52 60 73
178 582 197 49 60 71
178 583 197 48 59 71
179 582 197 53 61 71
179 583 197 54 62 69
179 582 198 53 61 72
179 583 198 56 63 72
180 576 199 96 104 120
180 577 198 100 102 110
180 577 199 101 105 115
181 576 199 98 111 130
181 577 199 93 105 124
180 578 198 82 86 98
180 579 198 63 70 84
181 578 199 78 91 110
181 579 198 59 69 86
181 579 199 65 80 99
182 578 199 82 103 126
182 579 199 79 97 119
180 580 198 54 63 78
180 581 198 54 63 77
181 580 198 54 66 83
181 580 199 60 74 93
181 581 198 57 68 81
181 581 199 60 73 87
180 582 198 55 64 75
180 583 198 59 66 76
181 582 198 60 69 80
181 582 199 64 74 86
181 583 198 60 68 79
181 583 199 59 69 80
182 580 199 75 91 113
182 581 199 66 81 100
182 582 199 63 74 92
182 583 199 58 68 87
181 576 200 101 116 141
181 577 200 92 108 132
182 576 200 102 120 152
182 577 200 93 114 142
183 576 200 109 131 163
183 577 200 107 130 157
182 578 200 88 108 133
182 579 200 87 106 129
183 578 200 104 125 149
183 579 200 98 116 140
183 580 200 91 107 131
183 581 200 85 98 124
183 582 200 78 88 117
183 583 200 72 81 108
176 584 196 46 71 123
176 585 196 43 70 122
176 585 197 45 70 117
177 584 196 46 67 110
177 584 197 42 61 91
177 585 197 43 63 98
176 586 196 36 64 120
176 586 197 41 66 118
176 587 197 40 62 116
177 586 197 46 64 101
177 587 197 46 65 109
177 587 198 47 61 99
178 584 197 50 60 71
178 585 197 49 59 73
179 584 197 57 63 69
178 585 198 56 62 73
179 584 198 62 66 72
179 585 198 64 68 73
178 586 198 52 59 76
178 587 198 50 57 80
179 586 198 62 66 73
179 587 198 57 61 70
179 587 199 56 60 70
176 588 197 40 58 112
176 588 198 46 63 115
176 589 198 49 60 111
177 588 198 49 61 107
177 589 198 51 65 111
177 589 199 54 65 109
176 590 198 54 58 110
176 590 199 56 63 115
176 591 199 55 54 111
177 590 199 56 68 114
177 591 199 57 66 115
178 588 198 48 54 91
178 588 199 48 52 76
178 589 198 51 57 94
178 589 199 49 53 84
179 588 199 51 56 70
179 589 199 49 55 70
178 590 199 50 57 91
178 591 199 55 62 99
179 590 199 49 56 74
179 591 199 52 57 83
180 584 198 62 68 76
180 585 198 64 69 76
181 584 198 57 65 75
181 584 199 55 64 76
181 585 199 56 64 74
180 586 198 63 67 73
180 586 199 60 65 72
180 587 199 57 61 70
181 586 199 54 62 73
181 587 199 53 60 73
182 584 199 61 69 86
182 585 199 59 67 81
182 586 199 52 60 76
182 587 199 51 58 74
180 588 199 52 59 71
180 589 199 50 58 72
181 588 199 53 60 73
179 590 200 53 59 73
179 591 200 56 60 78
182 585 200 72 80 95
183 584 200 73 83 105
183 585 200 83 91 108
182 586 200 57 65 82
182 587 200 53 60 77
183 586 200 72 81 98
183 587 200 66 74 91
180 589 200 51 59 73
181 588 200 52 59 75
181 589 200 52 59 74
180 590 200 54 62 72
180 591 200 63 69 77
181 590 200 56 63 75
181 591 200 67 72 80
182 588 200 54 61 80
182 589 200 54 62 81
183 588 200 62 69 87
183 588 201 72 79 98
183 589 201 65 74 92
182 590 200 51 61 77
182 590 201 55 65 82
182 591 200 59 67 80
182 591 201 57 66 80
183 590 201 73 80 94
183 591 201 71 77 87
184 576 201 123 144 173
184 577 200 124 144 167
184 577 201 128 148 172
185 576 201 137 157 182
185 577 201 152 165 184
184 578 200 124 141 163
184 578 201 135 150 171
184 579 200 119 134 156
185 578 201 165 172 186
185 579 201 165 171 184
186 576 201 143 161 184
186 577 201 168 175 190
186 576 202 140 158 182
186 577 202 150 164 183
187 576 202 135 155 180
187 577 202 168 176 191
186 578 201 188 188 196
186 579 201 185 185 194
187 579 201 179 180 188
187 578 202 193 191 197
187 579 202 185 184 191
184 580 200 106 122 147
184 581 200 97 112 141
185 580 200 112 129 153
185 580 201 140 151 170
185 581 200 98 116 147
185 581 201 104 123 153
184 582 200 98 109 139
184 583 200 99 108 136
185 582 201 112 127 154
185 583 201 120 132 155
186 580 201 161 167 182
186 581 201 124 140 163
187 580 201 156 162 177
187 581 201 135 148 169
187 580 202 151 158 174
187 581 202 139 151 171
186 582 201 138 150 169
186 583 201 144 154 171
186 583 202 152 160 175
187 582 202 163 170 185
187 583 202 172 177 189
188 576 202 129 152 178
188 577 202 166 176 194
189 576 202 135 157 183
189 576 203 138 159 184
189 577 202 153 169 190
189 577 203 146 163 187
188 578 202 183 185 196
188 579 202 171 175 186
189 578 202 163 173 191
189 578 203 151 165 187
189 579 202 152 165 184
189 579 203 149 163 184
190 576 203 136 156 181
190 577 203 135 156 181
191 576 203 135 154 178
191 577 203 130 150 176
190 578 203 134 155 180
190 579 203 134 154 179
191 578 203 123 146 172
191 579 203 121 145 173
188 580 202 145 156 173
188 581 202 143 156 176
189 580 202 143 159 180
189 581 202 139 157 180
188 582 202 170 176 191
188 583 202 175 180 192
189 582 202 149 164 184
189 583 202 159 169 186
189 583 203 143 160 181
190 580 203 132 153 179
190 581 203 128 151 178
191 580 203 119 144 174
191 581 203 118 144 175
190 582 203 129 152 179
190 583 203 132 153 179
191 582 203 121 146 177
191 583 203 123 147 177
184 584 200 92 102 128
184 585 200 83 94 116
184 585 201 88 100 126
185 584 201 117 128 153
185 585 201 104 117 146
184 586 200 79 90 113
184 586 201 82 94 122
184 587 201 78 88 114
185 586 201 96 108 139
185 587 201 92 104 132
186 584 201 110 125 151
186 585 201 101 116 149
186 584 202 113 126 151
186 585 202 104 118 152
187 584 202 129 140 160
187 585 202 86 106 142
186 586 201 108 120 149
186 587 201 112 122 148
186 586 202 119 130 159
186 587 202 122 131 155
187 586 202 117 131 158
187 587 202 140 147 165
184 588 201 72 82 106
184 589 201 74 84 104
185 588 201 85 97 125
185 589 201 61 77 107
184 590 201 95 100 112
184 591 201 101 103 110
185 590 201 97 105 119
185 591 201 113 117 125
185 590 202 85 96 118
185 591 202 109 115 130
186 588 201 108 117 142
186 588 202 122 129 150
186 589 202 90 99 129
187 588 202 147 150 163
187 589 202 144 146 159
186 590 202 74 86 118
186 591 202 105 113 133
187 590 202 138 139 154
187 591 202 139 141 154
188 584 202 144 154 172
188 585 202 99 121 148
189 584 202 148 161 179
189 584 203 141 159 181
189 585 202 120 139 163
189 585 203 133 151 174
188 586 202 118 134 158
188 587 202 152 159 174
189 586 202 133 148 170
189 586 203 136 153 175
189 587 203 151 164 181
190 584 203 131 153 179
190 585 203 133 154 180
191 584 203 126 149 177
191 585 203 130 152 179
190 586 203 134 154 179
190 587 203 136 155 178
191 586 203 133 154 180
191 587 203 130 151 177
188 588 202 170 172 181
188 589 202 176 175 181
189 588 203 164 172 186
189 589 203 171 175 187
188 590 202 174 172 177
188 591 202 172 169 174
188 591 203 182 177 181
189 590 203 173 175 185
189 591 203 174 175 185
190 588 203 137 156 178
190 589 203 138 156 178
191 588 203 128 149 175
191 589 203 123 146 173
190 590 203 139 156 177
190 591 203 140 155 176
191 590 203 123 146 173
191 591 203 126 147 172
176 592 199 62 52 110
176 593 199 65 42 104
177 592 199 66 65 115
177 593 199 71 53 104
176 594 199 69 41 102
176 595 199 70 43 107
177 594 199 79 45 98
177 595 199 81 46 102
178 592 199 63 63 104
178 593 199 71 62 104
178 595 199 87 49 95
176 596 199 77 54 116
176 597 199 79 53 115
177 596 199 76 39 106
177 597 199 75 38 101
176 598 199 74 46 114
176 599 198 77 46 115
176 599 199 74 52 118
177 598 199 69 36 102
177 599 199 70 46 115
178 596 199 85 48 99
178 597 199 86 54 99
178 598 199 78 51 105
178 599 199 71 52 119
179 598 199 84 65 116
179 599 199 77 68 127
178 592 200 63 61 97
178 593 200 72 56 92
179 592 200 59 61 81
179 593 200 64 58 78
178 594 200 76 43 81
178 595 200 82 43 84
179 594 200 71 48 74
179 595 200 76 48 75
178 596 200 85 44 90
178 597 200 87 53 95
179 596 200 80 47 79
179 597 200 80 47 82
179 598 200 82 57 101
179 599 200 78 71 128
180 592 200 69 74 80
180 593 200 69 72 79
181 592 200 73 77 84
181 593 200 75 79 84
180 594 200 68 67 77
180 595 200 66 59 75
181 594 200 74 78 83
181 594 201 75 79 85
181 595 200 68 72 81
181 595 201 72 78 86
182 592 200 65 72 82
182 592 201 59 68 80
182 593 201 65 72 82
183 592 201 65 71 83
183 593 201 60 67 82
182 594 201 66 73 84
182 595 201 66 74 85
183 594 201 56 65 81
183 595 201 54 66 83
180 596 200 67 54 75
180 597 200 66 50 78
181 596 200 62 63 78
181 596 201 63 69 82
181 597 200 59 61 79
180 598 200 70 57 94
180 599 200 73 70 118
181 598 200 60 60 83
181 599 200 60 63 90
182 596 201 61 69 83
182 597 201 55 63 80
183 596 201 52 65 84
183 597 201 50 63 83
182 598 201 56 64 80
182 599 200 62 67 81
182 599 201 64 70 82
183 598 201 56 65 83
183 599 201 64 72 84
176 600 198 62 36 103
176 600 199 74 58 117
176 601 198 60 39 104
176 601 199 66 53 113
177 600 199 70 53 117
177 601 199 72 57 117
176 602 198 64 41 106
176 603 198 59 29 102
177 602 198 69 55 115
177 602 199 77 62 119
177 603 198 72 51 113
177 603 199 79 61 121
178 600 199 59 45 117
178 601 199 57 42 113
179 600 199 63 64 131
179 601 199 53 55 127
178 602 199 64 45 113
178 603 199 67 47 116
179 602 199 55 53 123
179 603 199 50 45 119
176 605 197 83 79 132
176 604 198 67 42 110
176 605 198 74 56 117
177 604 198 70 47 110
177 604 199 75 55 118
177 605 198 67 43 109
176 606 197 78 85 140
176 607 197 76 82 142
176 606 198 76 63 125
177 606 198 64 35 105
177 607 198 76 45 108
178 604 199 68 50 121
178 605 199 67 58 125
179 604 199 51 46 121
179 605 199 50 53 129
178 606 198 58 50 119
178 606 199 56 61 129
178 607 198 60 49 117
178 607 199 53 58 127
179 606 199 46 62 136
179 607 199 44 64 137
180 602 199 57 68 134
180 603 199 48 62 130
180 604 199 44 59 131
180 605 199 44 63 138
180 606 199 42 68 143
180 607 199 39 70 145
180 600 200 64 70 128
180 601 200 56 66 129
181 600 200 54 59 95
181 601 200 51 54 97
180 602 200 60 71 135
180 603 200 59 71 136
181 602 200 55 61 111
181 603 200 61 68 121
182 600 200 63 66 81
182 600 201 69 72 81
182 601 200 59 60 80
182 601 201 66 68 78
183 600 201 73 78 85
183 601 201 75 78 84
182 602 200 57 57 83
182 602 201 63 63 78
182 603 200 56 59 91
183 602 201 73 74 83
183 603 200 59 61 80
183 603 201 69 71 83
180 604 200 55 71 138
180 605 200 48 69 139
181 604 200 60 70 129
181 605 200 57 73 136
181 606 200 51 76 143
181 607 200 43 76 146
182 604 200 53 59 98
182 605 200 48 59 106
183 604 200 55 58 81
183 604 201 61 63 79
183 605 200 46 52 82
183 605 201 51 55 76
182 606 200 49 66 119
182 607 200 53 74 132
183 606 200 47 55 88
183 606 201 49 53 78
183 607 200 46 60 97
184 592 201 94 96 102
184 593 201 81 84 93
185 592 201 113 114 121
185 592 202 119 122 130
185 593 202 116 117 122
184 594 201 70 76 88
184 595 201 53 62 84
185 594 202 105 107 115
185 595 202 81 86 104
186 592 202 120 126 140
186 593 202 122 126 138
187 592 202 135 138 151
187 593 202 130 135 148
186 594 202 114 120 134
186 595 202 99 106 128
187 594 202 118 125 144
187 595 202 105 115 141
184 596 201 48 59 86
184 597 201 49 61 87
184 596 202 52 60 90
184 597 202 52 61 91
185 596 202 63 71 98
185 597 202 59 69 98
184 598 201 53 64 87
184 599 201 60 69 86
184 598 202 57 66 92
185 598 202 70 79 100
185 599 202 77 84 98
186 596 202 83 93 121
186 597 202 75 86 117
187 596 202 101 112 142
187 597 202 94 107 138
186 598 202 82 93 116
186 599 202 108 114 126
187 598 202 75 91 123
187 599 202 106 114 132
187 599 203 94 106 131
188 592 202 164 162 169
188 592 203 177 174 178
188 593 202 154 155 163
188 593 203 169 168 175
189 592 203 175 176 185
189 593 203 175 176 186
188 594 202 133 139 155
188 594 203 145 150 163
188 595 202 122 130 153
188 595 203 127 137 159
189 594 203 157 163 177
189 595 203 133 146 167
190 592 203 142 157 176
190 593 203 147 159 177
191 592 203 128 148 173
191 593 203 131 149 172
190 594 203 143 156 175
190 595 203 133 149 170
191 594 203 133 151 173
191 595 203 131 150 173
191 593 204 127 147 171
191 594 204 128 148 172
191 595 204 128 149 174
188 596 203 121 132 159
188 597 203 117 128 158
189 596 203 122 138 163
189 597 203 122 138 163
188 598 203 101 115 148
188 599 203 107 119 145
189 598 203 146 155 175
189 599 203 165 170 183
190 596 203 125 143 167
190 597 203 132 147 170
190 598 203 158 167 183
190 599 203 182 183 193
191 596 204 130 149 173
191 597 204 135 152 175
190 598 204 165 173 189
190 599 204 178 182 193
191 598 204 146 160 180
191 599 204 157 167 184
184 600 201 68 74 86
184 601 201 76 80 88
185 601 201 67 72 85
185 600 202 76 81 92
185 601 202 74 77 88
184 602 201 77 80 88
184 603 201 76 80 89
185 602 201 70 72 85
185 603 201 69 73 87
185 602 202 73 74 86
185 603 202 69 71 85
186 600 202 113 115 122
186 601 202 107 107 111
187 600 202 125 129 140
187 600 203 117 124 141
187 601 202 126 128 136
186 602 202 99 98 103
186 603 202 92 91 98
187 602 202 121 122 129
187 603 202 118 119 126
184 604 201 72 75 85
184 605 201 63 67 81
185 604 201 69 73 87
185 605 201 64 70 86
184 606 201 56 61 78
184 607 201 57 63 80
185 606 201 57 64 83
185 607 201 59 65 83
186 605 201 63 66 84
186 604 202 82 82 94
186 605 202 70 73 89
187 604 202 109 112 120
187 605 202 82 86 103
186 606 201 55 62 85
186 607 201 54 62 85
186 606 202 57 62 87
186 607 202 54 61 87
187 606 202 61 68 95
187 607 202 57 65 94
188 600 203 127 135 153
188 601 203 128 135 150
189 600 203 174 175 185
189 601 203 160 163 175
188 602 202 120 127 140
188 602 203 115 123 143
188 603 202 112 120 139
189 602 203 138 144 160
189 603 203 113 120 146
190 600 203 187 187 194
190 601 203 187 187 194
190 602 203 181 182 192
190 603 203 162 166 181
191 603 203 169 177 194
190 600 204 184 186 195
190 601 204 187 188 197
191 600 204 165 173 188
191 601 204 171 178 192
191 602 204 174 181 195
191 603 204 167 177 194
188 604 202 108 116 136
188 605 202 90 100 126
189 604 202 89 103 137
189 604 203 92 102 140
189 605 202 88 101 137
189 605 203 96 108 149
188 606 202 68 81 112
188 607 202 71 81 114
189 606 202 77 93 133
189 606 203 87 104 144
189 607 202 80 93 132
189 607 203 80 96 137
190 604 203 124 134 163
190 605 203 98 112 152
191 604 203 141 154 178
191 605 203 113 130 163
190 606 203 111 124 160
190 607 203 104 118 152
191 606 203 126 139 170
191 607 203 124 138 168
191 604 204 153 165 187
