ply
format ascii 1.0
comment Version 2, Copyright 2017, 8i Labs, Inc.
comment frame_to_world_scale 0.179523
comment frame_to_world_translation -45.2095 7.18301 -54.3561
comment width 1023
element vertex 1056
property float x
property float y
property float z
property uchar red
property uchar green
property uchar blue
end_header
160 611 175 138 146 163
160 612 175 135 141 157
160 613 174 135 139 154
160 613 175 133 137 150
160 615 173 117 121 147
160 614 174 135 137 153
160 614 175 134 135 150
160 615 174 126 129 149
160 615 175 130 135 153
160 619 171 130 134 155
160 616 173 109 113 145
160 617 172 128 134 157
160 617 173 123 128 152
160 616 174 117 119 145
160 616 175 120 125 150
160 617 174 115 117 145
160 617 175 109 115 146
160 618 172 121 126 149
160 618 173 120 123 148
160 619 172 122 125 148
160 619 173 117 116 145
160 618 174 113 115 146
160 618 175 106 113 149
160 619 174 111 112 145
160 619 175 109 116 146
160 620 170 103 110 139
160 620 171 115 119 145
160 621 170 102 109 139
160 621 171 106 110 141
160 622 169 114 119 146
160 623 169 119 125 145
160 622 170 108 112 142
160 622 171 110 112 144
160 623 170 111 115 143
160 623 171 107 111 145
160 620 172 118 119 145
160 620 173 116 117 146
160 621 172 113 116 146
160 621 173 114 117 148
160 620 174 113 118 144
160 620 175 117 127 145
160 621 174 120 126 149
160 621 175 141 148 161
160 622 172 111 115 147
160 622 173 109 115 149
160 623 172 105 112 148
160 623 173 101 112 149
160 622 174 110 117 149
160 622 175 135 142 160
160 623 174 95 109 147
160 623 175 95 107 143
161 623 175 96 110 145
160 609 177 119 127 156
160 608 178 122 131 161
160 608 179 115 123 158
160 609 178 119 124 156
160 609 179 111 118 155
160 610 176 114 126 149
160 610 177 111 118 151
160 611 176 127 136 155
160 611 177 108 117 147
160 610 178 112 115 153
160 610 179 104 111 150
160 611 178 102 113 148
160 611 179 98 110 147
160 608 180 106 115 155
160 608 181 103 114 153
160 609 180 101 111 151
160 609 181 101 111 150
161 608 181 115 126 159
161 609 181 107 117 153
161 608 182 114 127 159
161 608 183 105 123 151
161 609 182 127 137 162
160 610 180 101 110 149
160 611 180 101 113 148
161 610 180 104 115 150
161 610 181 107 121 152
161 611 180 107 121 151
161 611 181 116 131 154
161 610 182 113 127 151
161 611 182 121 137 157
162 608 183 105 123 149
162 609 183 128 140 161
162 610 183 131 140 160
162 611 182 119 134 155
162 611 183 122 135 156
160 612 176 135 141 158
160 612 177 124 133 155
160 613 176 133 135 152
160 613 177 131 138 155
160 612 178 110 124 151
160 612 179 95 110 145
160 613 178 125 138 156
160 613 179 118 133 155
161 613 179 110 127 151
160 614 176 131 132 150
160 614 177 124 129 150
160 615 176 130 134 153
160 615 177 120 128 151
160 614 178 115 128 147
160 614 179 126 139 156
160 615 178 115 127 147
161 614 179 120 134 152
161 615 178 121 132 149
161 615 179 112 125 143
161 612 180 90 108 142
161 612 181 112 128 151
161 613 180 94 114 143
161 613 181 98 116 145
161 612 182 121 136 155
161 613 182 123 137 159
161 614 180 128 141 160
161 614 181 110 126 151
161 615 180 121 133 149
161 615 181 138 147 163
162 612 182 125 139 158
162 612 183 129 142 162
162 613 182 123 137 160
162 613 183 130 143 163
162 614 181 107 125 149
162 615 181 135 146 165
162 614 182 99 120 149
162 614 183 115 133 158
162 615 182 113 131 155
162 615 183 91 117 147
163 614 183 118 135 160
163 615 183 96 121 150
162 608 184 119 133 158
162 609 184 115 130 152
163 608 185 134 147 168
163 609 184 114 128 151
163 609 185 121 135 158
162 610 184 138 147 165
162 611 184 136 144 163
163 610 184 134 144 163
163 610 185 117 132 155
163 611 184 137 146 166
163 612 184 123 135 156
163 613 184 132 143 163
163 614 184 129 142 164
163 615 184 106 128 156
164 608 186 125 141 165
164 608 187 116 135 161
164 609 186 134 147 169
165 608 187 118 136 163
165 609 187 117 133 160
164 610 185 120 135 157
164 611 185 137 147 166
164 610 186 122 137 160
164 611 186 118 133 155
165 610 186 124 137 160
165 610 187 137 148 170
165 611 186 111 127 151
165 611 187 119 132 156
166 610 187 132 143 166
166 611 187 131 141 163
165 608 188 122 139 167
166 608 188 128 145 172
166 609 188 116 133 161
167 608 189 122 141 171
167 609 189 127 144 173
167 608 190 107 130 167
166 610 188 119 133 158
166 611 188 137 146 167
167 610 188 118 132 155
167 610 189 113 131 156
167 611 188 140 150 170
167 611 189 135 147 167
164 612 185 139 147 166
164 613 185 124 134 153
164 612 186 147 156 174
165 612 186 148 156 174
165 612 187 132 143 162
165 613 186 138 146 163
165 613 187 146 152 168
164 614 184 132 143 164
164 614 185 134 144 162
164 615 184 114 132 159
164 615 185 122 137 162
165 615 185 124 139 163
165 614 186 123 133 152
165 614 187 132 139 157
165 615 186 132 144 163
166 612 187 115 127 149
166 613 187 143 151 168
166 614 187 130 138 157
166 615 187 128 138 158
166 612 188 109 124 147
166 613 188 132 142 163
167 612 188 115 130 154
167 612 189 129 141 164
167 613 188 124 135 159
167 613 189 115 129 155
166 614 188 145 153 171
167 614 188 153 160 177
167 614 189 145 153 173
167 615 188 130 139 161
160 616 176 120 128 153
160 616 177 123 132 156
160 617 176 106 116 148
160 617 177 107 118 150
160 616 178 127 136 155
160 617 178 111 124 150
161 616 178 135 144 159
161 616 179 135 144 158
161 617 178 120 132 150
161 617 179 135 143 157
160 618 176 102 113 149
160 618 177 98 112 148
160 619 176 117 130 154
160 619 177 116 130 155
161 619 177 125 139 158
160 618 178 98 113 145
161 618 178 102 118 145
161 618 179 118 129 149
161 619 178 105 122 149
161 619 179 105 122 149
161 616 180 123 134 150
161 616 181 123 132 148
161 617 180 142 149 162
161 617 181 138 145 159
161 618 180 129 138 155
161 618 181 148 153 166
161 619 180 113 129 155
162 616 181 132 141 156
162 617 181 132 140 155
162 616 182 141 151 168
162 617 182 128 138 154
163 616 183 119 137 160
163 617 182 139 150 166
163 617 183 140 152 170
162 618 181 142 148 163
162 619 181 123 135 157
162 618 182 141 148 162
162 619 182 138 146 164
163 618 182 140 148 162
163 618 183 133 144 159
163 619 182 149 155 169
163 619 183 145 152 166
160 620 176 113 127 144
160 620 177 127 139 156
160 621 176 143 150 162
161 620 177 125 137 153
161 621 176 134 143 155
161 621 177 125 135 149
161 620 178 125 138 157
161 620 179 113 130 154
161 621 178 125 136 152
161 621 179 130 143 162
161 622 176 159 162 172
161 622 177 152 156 165
161 623 176 112 122 147
161 623 177 135 141 157
161 622 178 134 140 152
161 622 179 122 133 151
161 623 178 148 152 162
161 623 179 139 145 158
162 623 179 144 151 163
161 620 180 108 127 154
161 621 180 120 136 159
161 622 180 127 141 162
162 620 180 104 124 153
162 620 181 107 125 153
162 621 180 110 130 157
162 621 181 100 123 155
162 620 182 113 128 155
162 621 182 104 123 155
163 620 182 126 138 160
163 620 183 138 147 164
163 621 182 104 121 155
163 621 183 114 127 155
162 622 180 124 140 162
162 622 181 112 133 163
162 623 180 128 140 157
162 623 181 117 135 158
163 623 181 111 132 158
163 622 182 97 118 154
163 623 182 109 132 161
164 618 183 125 136 153
164 619 183 136 145 160
164 620 183 151 157 170
164 621 183 125 135 157
164 622 183 109 124 155
164 623 182 105 128 161
164 623 183 103 124 160
165 623 183 110 130 164
163 616 184 102 125 152
164 616 184 95 119 149
164 616 185 103 124 154
164 617 184 120 137 160
164 617 185 102 123 151
165 616 185 105 126 156
165 617 185 96 120 150
165 616 186 119 137 161
165 617 186 108 129 158
164 618 184 135 146 163
164 619 184 135 144 158
165 618 185 130 144 164
165 619 185 145 153 168
166 616 186 128 143 165
166 616 187 138 150 170
166 617 186 109 131 159
166 617 187 125 143 168
167 617 187 133 149 173
166 618 185 138 152 171
166 619 185 153 163 180
166 618 186 102 127 157
166 618 187 108 133 163
166 619 186 135 150 174
167 618 187 104 129 161
167 619 186 144 158 179
167 619 187 109 130 161
167 616 188 132 144 167
167 617 188 137 153 175
167 618 188 128 147 171
164 620 184 149 155 167
164 621 184 144 150 167
165 620 184 150 156 168
165 620 185 137 147 163
165 621 184 155 161 175
165 621 185 154 161 175
164 622 184 132 141 164
165 622 184 131 141 165
165 622 185 149 157 176
165 623 184 111 129 162
165 623 185 124 137 165
166 620 185 140 151 168
166 621 185 151 160 175
166 620 186 152 162 179
166 621 186 142 152 168
167 620 186 159 169 186
167 620 187 143 156 177
167 621 186 144 154 171
167 621 187 153 163 179
166 622 185 154 162 179
166 623 185 123 137 166
166 622 186 154 162 177
166 623 186 136 147 168
167 622 186 145 155 171
167 622 187 132 144 161
167 623 186 149 158 175
168 608 190 100 123 165
168 608 191 83 111 161
168 609 190 121 141 173
168 609 191 97 122 162
169 608 191 75 104 159
169 609 191 97 123 162
168 610 189 122 139 168
168 611 189 139 151 171
168 610 190 124 141 167
168 611 190 128 142 164
169 610 190 133 150 174
169 610 191 127 146 172
169 611 190 124 138 160
169 611 191 127 143 166
170 611 191 129 146 170
168 612 189 143 154 175
168 613 189 117 132 156
168 612 190 147 157 177
168 613 190 133 146 168
169 612 190 140 151 171
169 612 191 128 142 164
169 613 190 144 155 175
169 613 191 140 153 172
168 614 189 130 142 163
168 615 189 149 157 176
169 614 190 117 135 158
169 614 191 128 145 167
169 615 190 133 148 169
170 612 191 123 140 165
170 613 191 135 151 172
170 614 191 130 148 173
170 615 191 105 127 159
168 616 189 125 137 161
168 617 188 136 150 173
168 617 189 130 144 169
169 616 189 135 146 170
169 617 189 123 138 165
169 616 190 148 160 181
169 617 190 118 136 163
168 618 188 129 147 172
168 618 189 137 152 176
168 619 188 109 130 161
169 618 189 133 150 174
169 619 188 116 136 165
169 619 189 126 143 171
169 618 190 127 143 171
170 616 191 130 146 176
170 617 190 125 141 173
170 617 191 117 133 171
171 616 191 97 116 161
171 617 191 107 122 166
170 618 190 114 130 164
170 618 191 102 118 160
170 619 190 117 131 166
170 619 191 110 122 161
171 618 191 102 114 159
171 619 191 109 117 158
168 620 187 119 137 165
168 621 187 158 169 186
168 622 187 134 146 164
168 623 187 152 161 177
168 620 188 103 127 157
168 621 188 148 162 182
169 620 188 100 124 156
169 620 189 105 126 160
169 621 188 116 137 164
169 621 189 98 121 155
168 622 188 143 154 172
168 623 188 127 140 160
169 622 188 148 160 179
169 622 189 138 152 174
169 623 188 121 135 157
169 623 189 128 141 162
170 620 190 105 122 160
170 621 190 98 115 155
171 620 191 110 118 158
171 621 191 113 119 157
170 622 189 130 142 168
170 623 189 133 144 166
170 622 190 113 126 160
170 623 190 130 139 163
171 622 190 110 118 156
171 622 191 114 119 154
171 623 190 122 131 159
171 623 191 114 123 150
172 623 191 124 133 156
160 624 160 94 105 137
160 625 160 92 103 135
160 626 160 86 99 130
160 626 161 92 107 132
160 627 160 94 107 129
160 627 161 97 110 130
160 627 167 116 122 140
160 628 160 106 116 131
160 628 161 98 112 129
160 629 160 99 113 131
160 629 161 110 123 140
160 628 162 99 115 132
160 628 163 103 119 138
160 629 162 106 121 138
160 629 163 101 115 133
160 630 160 99 114 134
160 630 161 91 108 128
160 631 160 104 117 135
160 631 161 100 112 132
160 630 162 106 118 135
160 630 163 111 120 137
160 631 162 103 111 132
160 631 163 105 109 132
160 629 164 109 118 134
160 629 165 116 120 136
160 628 166 121 125 140
160 628 167 123 124 142
160 629 166 121 121 139
160 629 167 122 119 141
160 630 164 112 115 136
160 630 165 113 113 136
160 631 164 105 105 132
160 631 165 106 105 133
160 630 166 118 115 138
160 630 167 118 117 142
160 631 166 106 108 135
160 631 167 101 109 137
160 624 169 121 127 147
160 625 168 115 119 146
160 625 169 116 121 145
160 624 170 116 123 146
160 624 171 108 115 146
160 625 170 114 119 146
160 625 171 113 120 148
160 626 168 112 118 144
160 626 169 116 119 145
160 627 168 114 119 141
160 627 169 114 118 143
160 626 170 111 115 144
160 626 171 112 118 146
160 627 170 107 112 144
160 627 171 92 99 140
160 624 172 103 114 148
160 624 173 95 112 148
160 625 172 109 122 148
160 625 173 105 124 150
160 624 174 91 111 149
160 625 174 97 120 151
161 624 175 92 110 151
161 625 174 85 111 148
161 625 175 92 115 149
160 626 172 116 127 149
160 626 173 120 134 153
160 627 172 87 96 137
160 627 173 111 120 147
161 627 173 97 109 140
160 626 174 114 133 153
161 626 174 112 133 155
161 626 175 110 131 156
161 627 174 125 138 157
161 627 175 117 134 154
160 628 168 116 118 140
160 628 169 108 115 141
160 629 168 116 116 141
160 629 169 104 112 141
160 628 170 102 112 143
160 628 171 91 104 143
160 629 170 107 121 147
160 629 171 118 133 155
160 630 168 107 113 140
160 630 169 90 103 138
160 631 168 87 104 136
160 631 169 74 99 138
160 630 170 91 110 141
160 630 171 119 134 154
160 631 170 64 95 136
160 631 171 76 104 138
161 631 171 72 101 136
160 628 172 79 92 140
160 629 172 117 133 157
161 628 173 71 87 136
161 629 172 110 127 154
161 629 173 96 113 150
161 628 174 87 101 144
161 628 175 117 129 157
161 629 174 71 89 144
161 629 175 68 87 139
161 630 172 127 142 159
161 630 173 122 137 159
161 631 172 97 118 143
161 631 173 113 130 151
161 630 174 94 114 150
161 630 175 63 87 141
161 631 174 116 133 156
161 631 175 93 115 150
160 632 160 94 109 128
160 632 161 96 109 130
160 633 160 105 118 134
160 633 161 103 116 134
160 632 162 98 107 131
160 632 163 100 104 131
160 633 162 101 111 132
160 633 163 99 104 132
160 634 160 106 119 135
160 634 161 110 122 139
160 635 160 103 116 133
160 635 161 101 114 130
160 634 162 108 116 136
160 634 163 102 106 133
160 635 162 104 112 130
160 635 163 104 106 130
160 632 164 97 98 130
160 632 165 97 100 131
160 633 164 96 99 131
160 633 165 97 103 133
160 632 166 100 107 135
160 632 167 88 105 135
160 633 166 98 110 137
160 633 167 89 109 140
160 634 164 97 102 131
160 634 165 99 108 135
160 635 164 99 104 129
160 635 165 97 108 133
160 634 166 99 114 141
160 634 167 89 111 143
160 635 166 97 114 141
160 635 167 87 112 145
160 636 160 107 118 134
160 636 161 106 117 132
160 637 161 103 111 127
161 637 160 109 118 135
161 637 161 99 108 126
160 636 162 109 114 132
160 636 163 112 111 132
160 637 162 111 116 131
160 637 163 117 117 133
160 638 161 111 117 131
161 638 160 105 113 136
161 638 161 112 118 135
161 639 160 72 83 124
161 639 161 89 97 127
160 638 162 121 123 135
160 638 163 118 119 132
160 639 162 112 115 132
160 639 163 116 118 133
161 639 162 118 122 136
160 636 164 104 108 131
160 636 165 96 107 134
160 637 164 108 114 132
160 637 165 87 102 131
160 636 166 83 104 137
160 636 167 70 100 139
160 637 166 72 98 134
160 637 167 70 99 139
160 638 164 111 117 134
160 638 165 87 104 133
160 639 164 108 115 136
160 639 165 86 105 133
160 638 166 75 102 136
160 638 167 71 101 139
160 639 166 72 101 134
160 639 167 59 96 133
160 632 168 79 102 136
160 632 169 70 100 140
160 633 168 82 105 140
160 633 169 72 102 142
160 632 170 57 94 139
160 632 171 70 101 142
160 633 170 60 96 140
161 632 171 70 100 141
161 633 170 62 98 141
161 633 171 59 97 139
160 634 168 80 107 142
160 634 169 73 101 143
160 635 168 80 106 142
160 635 169 73 98 142
160 634 170 68 99 143
161 634 170 65 96 143
161 634 171 59 95 141
161 635 170 69 94 143
161 635 171 63 90 141
161 632 172 82 108 141
161 632 173 92 115 141
161 633 172 79 109 144
161 633 173 94 119 147
161 632 174 106 125 146
161 632 175 118 135 156
161 633 174 100 119 142
161 633 175 103 120 141
161 634 172 65 101 140
161 634 173 78 110 141
161 635 172 61 94 140
161 635 173 70 104 140
161 634 174 104 123 147
161 635 174 83 111 141
162 632 175 119 135 155
162 633 175 107 123 144
162 634 175 114 128 150
162 635 174 91 116 144
162 635 175 100 121 146
160 636 168 75 102 141
160 636 169 81 104 144
160 637 168 70 97 140
160 637 169 73 99 141
161 636 169 82 103 145
161 637 169 74 100 141
161 636 170 79 100 144
161 636 171 74 98 143
161 637 170 75 101 142
161 637 171 73 101 141
160 638 168 68 97 139
160 638 169 67 96 139
160 639 168 58 92 135
161 638 169 64 94 138
161 639 168 50 89 133
161 639 169 54 89 135
161 638 170 67 96 139
161 638 171 67 96 139
161 639 170 61 92 138
161 639 171 67 95 140
161 636 172 68 96 142
161 636 173 61 94 137
161 637 172 73 99 142
161 637 173 70 98 140
161 636 174 59 94 134
161 638 172 66 95 139
161 638 173 67 95 140
161 639 172 67 96 139
161 639 173 66 95 138
162 636 174 69 102 136
162 636 175 93 118 144
162 637 174 82 110 140
162 637 175 94 118 143
162 638 173 70 98 140
162 639 173 71 97 139
162 638 174 88 113 143
162 638 175 104 125 150
162 639 174 83 107 142
162 639 175 96 120 149
163 639 175 89 116 148
161 624 176 90 106 148
161 624 177 90 105 142
161 625 176 84 107 148
161 625 177 77 98 145
161 624 178 113 123 147
161 624 179 142 148 163
161 625 178 81 95 143
161 625 179 109 119 149
161 626 176 96 119 150
161 626 177 72 98 142
161 627 176 114 132 153
161 627 177 113 131 156
161 626 178 66 86 144
161 627 178 91 112 152
162 624 179 153 158 170
162 625 179 106 116 150
162 626 179 77 91 148
162 627 178 98 120 154
162 627 179 78 101 150
162 624 180 154 161 173
162 624 181 134 147 164
162 625 180 139 147 165
163 624 181 130 144 162
163 625 181 153 160 175
163 624 182 117 135 158
163 625 182 144 153 169
162 626 180 94 106 151
162 627 180 72 93 150
163 626 181 130 141 163
163 627 181 93 105 154
163 626 182 152 159 173
161 628 176 122 137 157
161 628 177 118 134 153
161 629 176 95 113 146
161 629 177 116 130 152
161 630 176 62 85 138
161 631 176 71 97 145
162 628 177 115 130 149
162 629 177 120 133 154
162 628 178 124 140 161
162 628 179 124 142 166
162 629 178 116 132 151
162 629 179 115 133 152
162 630 177 84 102 144
162 631 176 74 101 146
162 631 177 64 91 142
162 630 178 111 126 153
162 630 179 114 131 151
162 631 178 74 95 143
162 631 179 98 116 151
162 628 180 108 131 161
162 629 180 128 146 165
163 628 180 93 119 155
163 628 181 74 97 153
163 629 180 119 140 166
163 629 181 87 115 157
162 630 180 112 131 150
163 630 180 114 134 154
163 630 181 126 146 169
163 631 180 118 136 159
163 631 181 119 138 160
164 624 182 118 137 162
164 624 183 122 140 168
164 625 182 132 145 163
164 625 183 133 146 167
165 624 183 122 140 169
165 625 183 135 148 170
164 626 182 155 162 176
164 626 183 140 150 167
164 627 182 137 145 169
164 627 183 157 163 177
165 626 183 135 147 165
165 627 183 159 166 180
164 629 181 71 102 153
164 628 182 86 101 154
164 629 182 66 91 151
165 628 183 134 144 170
165 629 183 96 107 156
164 630 181 101 127 162
164 631 181 123 143 166
164 630 182 74 102 153
164 631 182 112 134 166
165 630 183 93 104 159
165 631 183 93 113 158
165 624 184 118 137 167
165 625 184 139 151 174
165 626 184 142 151 170
165 627 184 150 158 172
166 624 185 117 135 165
166 625 184 133 148 172
166 625 185 119 137 166
167 624 186 129 143 165
167 625 186 113 132 160
166 626 184 143 153 173
166 626 185 136 147 170
166 627 184 141 150 167
166 627 185 135 146 163
167 626 185 133 147 169
167 627 185 137 149 168
167 626 186 117 136 163
167 627 186 134 150 173
165 628 184 166 172 186
165 629 184 137 145 169
166 628 184 166 172 184
166 628 185 154 161 174
166 629 184 157 164 179
166 629 185 165 171 183
167 628 185 137 149 165
167 629 185 159 166 179
167 628 186 131 146 165
167 629 186 139 151 169
166 630 184 110 121 156
166 630 185 143 152 171
166 631 184 95 111 155
166 631 185 105 120 152
167 630 185 157 165 180
167 631 185 114 128 158
167 630 186 153 162 179
167 631 186 118 129 158
162 632 176 110 130 154
162 632 177 96 121 150
162 633 176 118 133 153
162 633 177 123 140 159
162 632 178 81 105 149
162 632 179 67 90 144
162 633 178 99 124 153
162 633 179 75 104 147
163 632 179 66 89 145
163 633 179 75 103 147
162 634 176 117 131 152
162 634 177 123 137 156
162 635 176 110 127 150
162 635 177 120 135 155
162 634 178 124 141 160
162 635 178 120 136 154
163 634 178 131 147 165
163 634 179 107 131 158
163 635 178 119 135 155
163 635 179 129 146 165
163 632 180 84 105 146
163 632 181 125 141 165
163 633 180 61 87 143
163 633 181 77 98 146
163 634 180 79 107 152
163 634 181 63 88 147
163 635 180 120 142 166
162 636 176 103 124 149
162 636 177 102 122 148
162 637 176 97 121 147
163 636 177 105 125 149
163 637 177 103 126 152
163 636 178 115 132 155
163 636 179 110 130 152
163 637 178 112 131 155
163 637 179 114 133 156
162 638 176 101 126 151
163 638 176 93 120 148
163 638 177 89 117 147
163 639 176 91 118 149
163 639 177 75 108 145
163 638 178 96 122 151
163 638 179 106 129 155
163 639 178 74 109 145
163 636 180 127 144 164
164 632 181 126 144 165
164 633 181 115 133 161
164 632 182 119 139 162
164 633 182 135 151 171
165 632 182 120 141 165
165 632 183 109 134 163
165 633 182 126 145 165
165 633 183 114 138 162
164 634 181 72 94 147
164 635 181 85 109 153
164 634 182 104 123 156
164 635 182 71 89 146
165 634 182 127 143 166
165 634 183 126 143 164
165 635 182 76 93 144
165 635 183 97 113 149
166 634 183 134 148 168
166 635 183 117 129 156
164 637 179 113 132 156
164 638 179 102 126 153
164 639 178 76 109 147
164 639 179 84 114 149
164 636 180 135 151 171
164 636 181 115 135 162
164 637 180 106 127 149
164 637 181 128 144 165
165 637 181 133 149 169
165 636 182 85 103 150
165 636 183 63 82 136
165 637 182 109 130 157
165 637 183 87 107 145
164 638 180 103 124 151
164 638 181 98 120 146
164 639 180 84 112 147
164 639 181 94 119 149
165 638 181 107 128 152
165 639 181 78 107 141
165 638 182 128 144 165
165 639 182 92 117 144
166 636 183 65 83 131
166 637 183 75 92 138
166 638 183 108 126 152
166 639 183 117 132 156
166 632 184 90 115 155
166 633 184 98 125 158
167 632 185 100 117 156
167 633 185 99 118 155
167 632 186 112 122 156
166 634 184 115 135 159
166 635 184 126 138 161
167 634 184 108 124 152
167 634 185 103 121 155
167 635 184 118 129 156
167 635 185 109 119 151
166 636 184 99 110 145
166 637 184 84 97 139
167 636 184 114 123 153
167 636 185 116 125 153
167 637 184 101 112 146
167 637 185 106 116 146
166 638 184 95 113 145
166 639 184 108 122 149
167 638 184 100 115 147
167 638 185 105 118 146
167 639 184 106 119 146
167 639 185 112 123 147
168 624 187 156 165 181
168 625 186 121 137 162
168 625 187 134 146 167
168 626 186 110 130 159
168 626 187 111 130 159
168 627 186 125 143 170
168 627 187 109 128 161
169 626 187 123 138 164
169 627 187 111 125 158
169 624 188 137 148 168
169 624 189 126 136 158
169 625 188 134 144 165
169 626 188 131 140 163
169 627 188 118 128 157
170 624 189 131 140 160
170 625 189 131 137 158
170 624 190 135 142 162
171 624 190 136 143 162
171 624 191 135 142 162
171 625 190 136 141 159
171 625 191 141 148 165
170 626 189 136 141 160
170 627 188 127 134 158
170 627 189 135 140 160
171 627 189 137 142 160
171 626 190 136 142 158
171 627 190 142 149 165
168 628 186 128 144 169
168 628 187 115 130 160
168 629 186 117 132 158
168 629 187 112 126 156
169 628 187 109 119 153
169 629 187 111 121 153
168 630 186 126 137 162
168 631 186 120 128 158
169 630 187 114 120 152
169 631 187 117 120 151
169 628 188 113 120 152
169 629 188 116 121 153
169 630 188 118 121 152
169 631 188 118 121 149
170 628 188 121 125 154
170 628 189 123 128 154
170 629 188 116 121 152
170 629 189 114 119 149
171 628 189 127 133 154
171 629 189 113 121 149
171 628 190 128 138 158
171 629 190 120 131 155
170 630 188 118 122 151
170 630 189 118 124 153
170 631 188 124 130 155
170 631 189 129 138 162
171 630 189 113 123 153
171 631 189 117 131 160
171 630 190 113 126 154
171 631 190 104 121 154
172 624 191 131 140 161
172 625 191 138 148 169
172 626 190 136 144 162
172 626 191 122 136 161
172 627 191 115 131 158
172 628 191 115 131 155
172 629 191 117 132 155
173 628 191 144 155 172
173 629 191 150 159 176
172 630 190 116 130 155
172 630 191 133 144 163
172 631 190 120 133 157
172 631 191 146 153 169
173 630 191 140 149 166
173 631 191 159 164 178
168 633 185 108 120 155
168 632 186 118 123 154
168 633 186 115 122 154
169 632 187 121 124 151
169 633 187 120 125 151
168 634 185 106 118 154
168 635 185 107 116 149
168 634 186 111 118 152
168 635 186 108 115 148
169 634 187 112 117 149
169 635 187 102 111 146
170 632 188 122 129 150
170 632 189 122 134 156
170 633 188 134 142 161
170 633 189 128 139 161
171 632 189 109 125 154
171 633 189 107 124 150
171 632 190 105 122 153
171 633 190 102 121 148
170 634 188 122 131 158
170 634 189 122 134 159
170 635 188 100 112 146
170 635 189 104 118 149
171 634 189 119 133 157
171 635 189 112 125 154
171 634 190 120 133 156
171 635 190 122 132 158
168 636 185 113 122 149
168 637 185 115 123 148
168 636 186 109 119 145
168 637 186 121 131 151
169 636 187 116 126 152
169 637 187 120 131 151
168 638 185 111 122 144
168 639 185 121 129 149
168 638 186 119 129 148
168 639 186 123 132 150
169 638 187 112 124 142
169 639 187 119 130 146
169 639 188 127 137 151
170 636 188 106 119 149
170 636 189 91 107 144
170 637 188 113 127 150
170 637 189 102 118 146
171 636 189 93 110 146
171 637 189 89 108 142
171 636 190 107 120 154
171 637 190 93 112 145
170 638 188 132 141 156
170 638 189 139 149 164
170 639 188 124 134 147
170 639 189 137 144 156
171 638 189 117 132 152
171 639 189 146 154 167
172 632 190 131 143 164
172 632 191 143 150 164
172 633 190 138 149 166
172 633 191 160 163 175
173 632 191 147 152 165
173 633 191 150 153 165
172 634 190 127 137 156
172 634 191 155 158 171
172 635 190 118 126 153
173 634 191 166 167 177
173 635 191 124 131 153
172 636 190 112 123 155
172 637 190 111 125 155
172 637 191 111 125 155
173 636 191 98 110 142
173 637 191 106 121 150
172 638 190 92 112 144
172 638 191 104 122 153
172 639 190 100 121 148
172 639 191 77 101 141
173 638 191 110 127 154
173 639 191 81 102 144
