ply
format ascii 1.0
comment Version 2, Copyright 2017, 8i Labs, Inc.
comment frame_to_world_scale 0.179523
comment frame_to_world_translation -45.2095 7.18301 -54.3561
comment width 1023
element vertex 1272
property float x
property float y
property float z
property uchar red
property uchar green
property uchar blue
end_header
167 608 138 29 44 84
167 608 139 27 43 86
167 609 138 36 50 86
167 609 139 43 53 89
167 610 139 39 47 83
167 611 139 39 45 81
165 608 141 46 57 94
164 608 143 58 65 100
164 609 143 60 66 100
165 608 142 48 58 94
165 608 143 54 60 97
165 609 142 48 56 91
165 609 143 60 65 99
165 610 142 59 62 91
165 610 143 66 70 101
165 611 143 67 68 99
166 608 140 33 44 90
166 608 141 46 53 94
166 609 140 41 47 89
166 609 141 47 54 91
167 608 140 28 38 87
167 609 140 38 47 87
166 610 140 43 48 84
166 610 141 40 47 82
166 611 141 37 43 77
167 610 140 41 45 82
167 611 140 37 43 77
166 610 142 46 53 84
166 611 142 53 55 87
165 612 143 72 74 104
165 613 143 56 68 105
166 612 141 38 46 81
166 613 141 35 44 81
167 612 140 37 43 71
167 612 141 31 41 73
167 613 140 31 39 66
167 613 141 28 39 75
166 612 142 47 52 90
166 612 143 57 63 99
166 613 142 43 53 96
166 613 143 49 60 101
167 614 140 27 33 61
167 614 141 35 43 81
167 615 140 33 37 68
167 615 141 40 45 83
166 614 142 40 50 95
166 614 143 54 65 104
166 615 142 52 61 93
166 615 143 71 79 102
167 615 142 48 53 93
167 616 141 42 46 82
167 617 141 42 48 84
166 616 143 77 85 97
166 617 143 90 93 102
167 616 142 63 70 97
167 617 142 69 77 100
167 617 143 94 98 109
167 618 141 45 55 87
166 618 143 104 106 114
167 618 142 78 84 100
167 618 143 107 109 118
167 619 142 86 90 101
167 619 143 99 105 114
167 620 143 73 82 94
167 621 143 83 87 95
170 608 129 72 107 135
170 609 129 65 104 134
171 608 128 68 102 130
171 608 129 67 104 132
171 609 128 66 101 129
171 609 129 68 105 134
170 608 130 64 104 134
170 608 131 66 104 132
170 609 130 61 102 133
170 609 131 63 103 133
171 610 128 61 99 128
171 610 129 69 106 135
171 611 128 62 100 129
171 611 129 65 103 132
170 610 131 63 104 135
171 610 130 69 107 136
171 610 131 66 106 136
171 611 130 65 104 133
171 611 131 61 103 133
169 608 134 56 66 76
169 608 135 47 56 69
169 609 134 54 66 78
169 609 135 47 54 74
169 610 135 50 56 80
170 608 132 63 93 117
170 608 133 58 75 90
170 609 132 64 97 123
170 609 133 60 80 97
170 609 134 57 69 82
170 610 132 64 100 128
170 610 133 62 86 105
170 611 132 64 102 131
170 611 133 58 92 118
171 610 132 62 103 134
171 611 132 62 103 133
170 610 134 58 73 90
170 610 135 54 64 86
170 611 134 56 76 98
170 611 135 49 60 82
171 612 128 59 99 129
171 612 129 65 103 132
171 613 128 59 99 129
171 613 129 63 102 131
171 612 130 68 105 134
171 612 131 62 103 134
171 613 130 66 103 133
171 613 131 64 104 136
171 614 128 62 99 128
171 614 129 62 101 131
171 615 128 74 103 129
171 615 129 59 99 129
171 614 130 65 104 135
171 614 131 60 104 136
171 615 130 57 101 132
171 615 131 60 104 136
170 612 133 51 90 119
170 613 133 51 91 121
171 612 132 60 102 133
171 612 133 54 96 127
171 613 132 62 105 136
171 613 133 57 99 129
170 612 134 46 74 100
170 612 135 46 58 78
170 613 134 46 80 106
170 613 135 50 57 73
171 614 132 58 101 134
171 614 133 55 97 128
171 615 132 57 102 134
171 615 133 57 98 127
170 614 134 45 77 102
170 614 135 52 63 79
170 615 135 48 68 88
171 614 134 44 84 112
171 615 134 47 84 110
171 615 135 44 72 95
168 608 136 30 42 73
168 608 137 29 41 78
168 609 136 33 41 73
168 609 137 35 44 75
169 608 136 34 46 73
169 609 136 36 45 73
168 608 138 30 44 82
168 609 138 32 46 82
168 610 137 30 45 77
169 610 136 36 49 73
169 610 137 33 48 74
169 611 136 30 48 73
169 611 137 30 48 75
168 610 138 33 47 80
168 610 139 34 44 80
168 611 138 31 47 80
168 611 139 33 44 81
169 611 138 26 46 75
170 611 136 42 46 70
169 612 137 34 52 79
168 612 139 35 41 76
168 613 139 38 41 71
169 612 138 30 48 79
169 613 138 32 46 76
169 613 139 37 41 75
168 614 139 31 35 60
168 615 139 23 35 51
169 614 138 31 42 69
169 614 139 41 45 73
169 615 138 34 42 65
169 615 139 24 36 56
170 612 136 40 52 76
170 612 137 39 52 77
170 613 136 40 52 77
170 613 137 34 51 77
170 614 136 45 60 84
170 614 137 32 48 75
170 615 136 36 57 79
170 615 137 32 48 70
168 613 140 32 37 64
168 614 140 22 31 55
168 615 140 23 33 51
171 616 128 86 108 131
171 616 129 66 101 129
171 617 128 100 116 135
171 617 129 76 105 130
171 616 130 56 99 130
171 616 131 55 100 132
171 617 130 64 101 130
171 617 131 58 100 130
171 618 128 109 120 137
171 618 129 92 114 135
171 619 128 112 122 137
171 619 129 102 120 139
171 618 130 76 106 132
171 618 131 63 101 130
171 619 130 79 108 133
171 619 131 70 104 132
171 616 132 54 99 131
171 616 133 56 97 126
171 617 132 55 98 129
171 617 133 56 97 126
170 616 135 40 57 77
170 617 135 34 57 80
171 616 134 46 85 111
171 616 135 40 68 91
171 617 134 47 86 113
171 617 135 31 59 86
171 618 132 56 98 128
171 618 133 59 100 129
171 619 132 56 98 129
171 619 133 52 97 128
170 618 135 39 64 90
171 618 134 55 92 119
171 618 135 39 70 98
171 619 134 51 94 124
171 619 135 40 76 105
171 620 134 54 97 127
171 620 135 41 82 111
171 621 134 45 93 125
171 621 135 43 88 118
171 622 135 50 92 122
171 623 135 57 95 124
172 619 128 115 124 138
172 619 129 102 120 138
172 619 130 85 111 135
172 619 131 74 107 134
172 619 132 59 100 129
172 619 133 52 97 128
172 620 128 120 127 138
172 620 129 107 121 138
172 621 128 123 128 139
172 621 129 109 121 136
172 620 130 80 107 130
172 620 131 64 100 127
172 621 130 84 108 130
172 621 131 63 99 126
172 622 129 114 124 138
173 622 128 124 129 139
173 622 129 118 127 139
173 623 128 119 125 137
173 623 129 112 123 138
172 622 130 89 110 131
172 622 131 81 106 130
172 623 131 76 104 128
173 622 130 96 114 133
173 623 130 97 114 133
173 623 131 80 105 129
172 620 132 54 97 128
172 620 133 52 97 128
172 621 132 52 94 125
172 621 133 45 93 125
172 621 134 44 93 125
172 622 132 64 99 127
172 622 133 57 95 125
172 623 132 60 95 122
172 623 133 57 94 123
172 622 134 47 93 125
172 623 134 53 95 125
172 623 135 50 93 124
168 616 139 27 38 46
168 617 139 29 38 46
169 616 138 31 38 61
169 616 139 26 37 50
169 617 138 27 33 56
169 617 139 26 32 46
169 618 138 29 33 53
169 618 139 30 30 48
169 619 138 32 37 53
169 619 139 33 37 54
170 616 136 29 53 75
170 616 137 34 47 68
170 617 136 32 57 79
170 617 137 32 46 66
170 617 138 27 37 61
170 618 136 40 64 86
170 618 137 32 53 76
170 619 136 41 62 85
170 619 137 37 55 77
171 619 136 43 69 95
170 618 138 29 43 67
170 619 138 34 44 62
168 616 140 30 35 61
168 617 140 37 40 72
168 617 141 45 45 83
168 618 140 32 37 66
168 618 141 44 52 83
168 619 140 38 45 73
168 619 141 47 55 82
169 618 140 35 32 50
169 619 140 33 36 58
168 619 142 74 79 96
169 620 139 32 38 57
169 621 139 31 37 59
169 622 139 28 35 58
170 620 136 37 60 84
170 620 137 41 59 78
170 621 137 43 57 74
171 620 136 35 63 91
171 621 136 33 68 96
170 620 138 34 50 67
170 621 138 43 52 62
170 621 139 38 46 60
170 622 137 42 50 67
171 622 136 33 72 99
171 622 137 33 51 71
171 623 136 47 79 104
171 623 137 36 53 69
170 622 138 45 49 57
170 622 139 38 45 57
170 623 138 47 48 61
170 623 139 40 45 62
168 620 141 37 48 80
168 621 141 31 41 78
169 620 140 27 33 60
169 621 140 28 35 64
169 621 141 33 44 75
168 620 142 56 66 89
168 620 143 64 74 88
168 621 142 40 51 79
168 621 143 76 80 91
169 622 140 32 42 66
169 622 141 27 41 71
169 623 140 32 45 66
169 623 141 37 46 67
168 622 142 56 59 77
168 622 143 92 90 94
168 623 143 95 90 92
169 622 142 37 43 67
169 623 142 59 60 72
170 622 140 32 37 59
170 623 140 33 43 66
163 608 145 74 80 111
163 609 145 79 85 114
162 608 147 80 83 113
162 609 147 77 81 117
163 608 146 81 85 115
163 609 146 76 83 115
163 609 147 76 84 119
163 610 145 66 78 110
162 610 147 74 82 117
163 610 146 58 72 108
163 610 147 64 75 111
163 611 146 68 76 108
163 611 147 65 74 107
161 608 149 114 111 119
161 609 149 98 98 115
160 608 150 138 132 131
160 608 151 138 131 129
160 609 150 134 127 128
160 609 151 137 130 128
161 608 150 135 128 130
161 609 150 129 124 126
161 610 149 112 112 120
161 611 149 123 122 128
160 610 151 136 130 129
161 610 150 127 123 124
161 610 151 136 130 128
161 611 150 134 129 131
161 611 151 137 131 130
162 608 148 84 84 108
162 609 148 79 81 116
162 610 148 74 82 115
162 610 149 87 92 115
162 611 148 74 81 112
162 611 149 108 111 125
163 611 148 68 75 108
163 612 146 89 91 115
163 612 147 89 91 112
163 613 147 94 97 111
163 614 147 104 107 117
161 612 150 121 121 129
161 612 151 128 128 135
161 613 151 89 96 124
161 614 151 55 66 115
162 612 148 83 86 113
162 612 149 95 96 117
162 613 149 83 86 113
163 612 148 86 87 111
163 613 148 95 97 111
163 613 149 91 96 111
162 612 150 115 115 126
162 613 150 75 81 116
162 613 151 66 75 114
162 614 149 92 97 116
163 614 148 115 115 122
163 614 149 118 119 126
163 615 148 128 124 124
163 615 149 135 130 131
162 614 150 89 96 119
162 614 151 73 83 118
162 615 150 129 128 133
162 615 151 114 119 130
163 615 150 135 131 133
164 608 144 67 73 105
164 609 144 66 72 104
164 609 145 78 85 113
164 610 144 70 74 106
164 610 145 69 78 109
164 611 144 77 80 106
164 611 145 80 84 112
165 610 144 68 72 103
165 611 144 80 82 107
164 611 146 79 83 112
164 612 145 89 91 115
164 613 145 66 78 106
165 612 144 88 91 115
165 613 144 61 76 109
165 613 145 63 79 109
164 612 146 90 92 114
164 613 146 77 85 107
164 614 145 61 69 110
165 614 144 60 74 110
165 614 145 58 71 110
165 615 144 83 90 109
165 615 145 67 72 102
164 614 146 65 72 107
164 614 147 86 90 110
164 615 146 69 68 102
164 615 147 97 96 114
166 615 144 89 95 113
164 615 148 120 117 121
160 608 152 131 126 126
160 608 153 132 126 127
160 609 152 138 131 129
160 609 153 135 130 131
160 609 154 126 125 129
160 610 152 139 133 133
160 610 153 128 127 132
160 611 152 135 131 133
160 611 153 121 123 131
161 611 152 135 132 133
160 610 154 110 115 130
160 611 154 103 110 131
160 611 155 97 105 129
160 612 153 110 117 132
161 612 152 128 130 137
161 612 153 119 123 133
161 613 152 95 102 129
161 613 153 96 104 129
160 612 154 108 115 136
160 612 155 105 111 136
160 613 154 102 109 134
160 613 155 103 109 135
161 614 152 68 77 122
161 614 153 75 86 123
161 615 153 82 93 122
160 614 154 82 97 125
160 614 155 76 91 120
160 615 155 63 76 116
161 614 154 82 95 124
161 615 154 68 83 116
162 614 152 78 87 127
162 615 152 90 100 128
160 613 156 99 105 132
160 614 156 75 86 119
160 614 157 72 80 119
160 615 156 59 71 118
160 615 157 68 75 119
163 616 148 132 126 125
163 616 149 135 129 129
163 617 149 129 125 127
162 616 150 133 130 131
162 616 151 116 119 128
162 617 151 103 108 120
163 616 150 132 127 129
163 617 150 127 123 126
163 617 151 107 110 120
163 618 149 119 117 121
163 619 149 88 93 103
162 618 151 90 99 114
163 618 150 109 110 117
163 618 151 95 102 114
163 619 150 96 100 108
163 619 151 96 103 117
163 620 150 114 115 121
163 620 151 98 106 120
163 621 150 114 118 125
163 621 151 98 105 121
163 622 150 106 112 122
163 622 151 91 99 119
163 623 151 84 89 116
165 616 145 105 105 113
165 617 145 118 114 114
164 616 146 106 105 112
164 616 147 116 113 119
164 617 147 133 126 123
165 616 146 100 100 109
165 617 146 126 120 118
165 618 145 106 105 110
164 618 147 129 125 126
165 618 146 119 117 122
165 618 147 128 125 126
165 619 146 68 79 106
165 619 147 89 98 119
166 616 144 102 104 110
166 617 144 96 97 102
166 617 145 106 105 109
166 618 144 92 94 105
166 618 145 86 88 98
166 619 144 90 95 109
166 619 145 66 76 95
167 618 144 108 110 118
167 619 144 89 95 108
164 616 148 129 124 125
164 617 148 134 127 124
164 617 149 133 127 127
164 618 148 127 123 124
164 618 149 120 118 122
164 619 148 91 99 119
164 619 149 90 96 111
165 620 146 42 61 92
165 620 147 39 59 94
165 621 147 93 96 104
165 622 147 117 112 113
166 620 145 59 73 93
166 621 145 114 113 118
167 620 144 65 75 88
167 620 145 72 81 97
167 621 144 113 111 114
167 621 145 122 118 121
166 620 146 46 60 91
166 621 146 108 108 113
166 622 145 122 116 115
167 622 144 120 115 116
167 622 145 122 115 113
167 623 145 116 110 110
166 622 146 119 112 112
166 622 147 120 113 112
166 623 146 118 112 112
166 623 147 119 112 113
167 623 146 119 113 113
164 620 148 61 75 105
164 620 149 98 103 114
164 621 148 66 78 95
164 621 149 90 95 103
165 620 148 51 69 101
165 621 148 80 87 98
164 621 150 114 116 122
164 622 149 91 95 104
164 623 149 107 109 119
165 622 148 113 110 113
165 622 149 111 110 115
165 623 148 121 115 115
165 623 149 121 117 120
164 622 150 94 99 113
164 623 150 94 98 114
164 623 151 85 91 112
161 616 153 75 88 118
161 617 153 68 81 118
160 616 155 54 69 113
161 616 154 64 75 113
161 616 155 53 66 110
161 617 154 63 72 116
161 617 155 75 86 116
161 618 154 55 65 114
161 618 155 77 85 112
161 619 154 77 84 116
161 619 155 97 102 121
162 616 152 90 99 122
162 616 153 82 93 120
162 617 152 80 91 114
162 617 153 73 87 118
162 618 152 73 87 113
162 618 153 63 77 115
162 619 152 78 90 120
162 619 153 65 77 117
163 619 152 83 95 120
162 619 154 63 74 114
160 616 156 60 72 115
160 616 157 74 82 117
160 617 156 91 101 121
160 617 157 93 100 119
160 618 156 103 110 122
160 618 157 109 113 122
160 619 156 120 123 130
160 619 157 116 118 127
161 618 156 98 105 119
161 619 156 113 117 127
160 618 158 101 105 126
160 619 158 105 109 125
161 620 154 94 100 119
161 620 155 110 114 128
161 621 155 114 117 129
161 622 155 101 103 123
161 623 155 104 104 126
162 620 152 69 82 120
162 620 153 63 74 118
162 621 152 66 78 119
162 621 153 71 80 119
163 620 152 79 92 119
163 621 152 70 84 117
162 620 154 78 86 116
162 621 154 102 108 125
162 622 153 89 95 121
162 623 153 103 104 125
163 622 152 75 85 118
163 622 153 92 97 123
163 623 152 91 95 121
163 623 153 102 103 125
162 622 154 105 108 126
162 622 155 100 99 123
162 623 154 102 100 123
162 623 155 101 97 123
160 620 156 115 117 127
160 620 157 110 113 126
160 621 157 89 94 121
161 620 156 116 119 129
161 621 156 103 106 122
160 620 158 115 119 133
160 621 158 102 107 131
160 622 157 81 87 124
160 623 157 101 109 136
161 622 156 91 95 122
161 623 156 106 110 132
161 623 157 107 115 139
160 622 158 85 93 132
160 623 158 95 107 137
160 623 159 92 105 138
168 622 144 114 109 111
168 623 144 111 105 105
171 624 135 47 90 120
171 625 134 52 92 121
171 625 135 48 91 120
171 626 134 63 98 126
171 626 135 56 94 123
171 627 135 43 89 120
173 624 128 115 122 136
173 624 129 106 118 135
173 625 128 112 119 134
173 625 129 98 111 129
173 624 130 95 113 133
173 624 131 80 106 130
173 625 130 90 108 128
173 625 131 74 102 126
173 626 128 127 131 141
173 626 129 118 124 136
173 627 128 137 138 144
173 627 129 134 136 144
173 626 130 103 115 130
173 626 131 81 103 124
173 627 130 128 132 143
173 627 131 111 122 137
172 624 132 64 98 126
172 624 133 55 92 121
172 625 132 67 100 127
172 625 133 68 99 125
173 625 132 65 97 124
172 624 134 42 88 119
172 625 134 61 96 123
172 626 132 60 96 124
172 626 133 62 96 123
172 627 132 72 102 128
172 627 133 66 100 127
173 626 132 68 98 123
173 627 132 87 110 131
172 626 134 59 95 123
172 627 134 51 93 122
172 627 135 41 88 120
173 628 128 133 135 143
173 628 129 124 130 140
173 629 128 120 127 139
173 629 129 99 112 131
173 628 130 122 129 141
173 628 131 117 127 141
173 629 130 91 106 129
173 629 131 92 110 131
173 630 128 104 117 137
173 630 129 78 97 127
173 631 128 85 103 132
173 631 129 68 88 128
173 630 130 71 90 125
173 630 131 70 93 124
173 631 130 70 87 129
173 631 131 75 94 130
172 628 133 63 101 130
172 629 133 56 95 125
173 628 132 92 113 134
173 628 133 66 102 130
173 629 132 82 107 130
173 629 133 51 93 123
172 628 134 57 96 125
172 628 135 47 88 120
172 629 134 48 89 120
172 629 135 50 87 117
173 630 132 69 99 125
173 630 133 57 95 123
173 631 132 67 96 125
173 631 133 55 94 122
172 630 134 52 92 120
172 630 135 45 85 113
172 631 134 54 94 122
172 631 135 56 93 120
173 630 134 61 98 124
173 631 134 53 94 123
171 624 136 54 85 110
171 624 137 34 58 77
171 625 136 53 88 115
171 625 137 29 62 85
170 624 138 42 44 66
170 624 139 39 44 68
170 625 138 33 41 69
170 625 139 36 46 76
171 624 138 43 48 64
171 625 138 23 42 69
171 626 136 55 91 118
171 626 137 44 70 99
171 627 136 46 87 117
171 627 137 49 78 109
170 626 139 36 48 83
170 627 139 37 51 86
171 626 138 31 50 82
171 627 138 33 57 93
171 627 139 32 48 87
169 624 141 54 58 74
169 625 141 58 63 77
168 624 143 95 91 91
168 625 143 90 87 88
169 624 142 58 57 68
169 624 143 86 82 83
169 625 142 55 56 68
169 625 143 78 75 79
169 626 141 48 57 74
169 627 141 42 54 74
169 626 142 49 54 70
169 626 143 58 54 70
169 627 142 42 47 71
169 627 143 43 36 66
170 624 140 38 49 71
170 625 140 43 52 74
170 625 141 54 62 77
170 626 140 45 54 77
170 626 141 46 57 74
170 627 140 45 56 79
170 627 141 40 53 73
171 628 136 46 87 117
171 628 137 55 86 116
171 629 136 53 89 117
171 629 137 53 88 117
170 628 139 27 46 82
170 629 139 29 48 80
171 628 138 34 59 99
171 628 139 21 42 84
171 629 138 39 64 102
171 629 139 27 46 85
171 630 137 59 90 118
171 631 137 56 83 114
170 630 139 34 54 85
170 631 139 35 55 89
171 630 138 61 84 111
171 630 139 38 55 89
171 631 138 70 89 115
171 631 139 55 73 103
169 628 141 48 57 77
169 629 141 46 51 74
169 628 142 50 54 76
169 628 143 54 50 73
169 629 142 53 55 75
169 629 143 61 61 73
169 630 141 49 49 75
169 631 141 36 43 74
169 630 142 54 54 72
169 630 143 60 59 69
169 631 142 46 47 71
169 631 143 57 56 67
170 628 140 41 52 80
170 628 141 46 53 76
170 629 140 41 54 79
170 629 141 45 53 78
170 630 140 39 52 79
170 630 141 44 49 77
170 631 140 29 45 80
170 631 141 35 45 77
172 628 136 35 82 113
172 629 136 50 88 116
172 630 136 43 80 108
172 630 137 54 85 113
172 631 136 54 83 114
172 631 137 51 76 110
173 632 128 73 92 126
173 632 129 59 80 122
173 633 128 88 103 131
173 633 129 75 91 125
173 632 130 58 76 123
173 632 131 64 83 126
173 633 130 66 82 122
173 633 131 64 80 122
173 634 128 92 108 133
173 634 129 87 102 130
173 635 128 70 91 125
173 635 129 68 88 122
173 634 130 87 99 128
173 634 131 80 93 126
173 635 130 82 98 126
173 635 131 88 101 130
173 632 132 66 93 126
173 632 133 52 92 122
173 633 132 75 95 129
173 633 133 58 92 124
172 632 134 45 91 121
172 632 135 37 87 117
172 633 134 52 93 122
172 633 135 48 91 120
173 632 134 45 90 121
173 633 134 52 92 122
173 634 132 73 90 126
173 634 133 64 90 124
173 635 132 76 93 125
173 635 133 72 94 125
172 634 134 56 91 119
172 634 135 47 89 117
172 635 134 51 84 112
172 635 135 42 83 110
173 634 134 58 93 121
173 636 128 63 88 123
173 636 129 59 84 123
173 637 128 76 98 125
173 637 129 63 90 125
173 636 130 66 88 125
173 636 131 78 97 130
173 637 130 61 87 126
173 637 131 59 84 125
173 638 128 108 121 139
173 638 129 89 109 135
173 639 128 110 122 138
173 639 129 90 109 133
173 638 130 72 96 131
173 638 131 56 83 126
173 639 130 67 93 127
173 639 131 56 84 125
172 636 133 63 85 117
172 637 133 57 74 112
173 636 132 78 96 127
173 636 133 74 91 123
173 637 132 64 86 124
173 637 133 65 84 120
172 636 134 46 73 107
172 636 135 46 77 105
172 637 134 51 70 106
172 637 135 53 72 104
172 638 133 47 64 108
172 639 133 39 56 107
173 638 132 58 81 124
173 638 133 57 76 117
173 639 132 56 80 123
173 639 133 50 70 117
172 638 134 52 64 104
172 638 135 62 73 105
172 639 134 50 61 105
172 639 135 62 72 109
171 632 137 43 67 110
171 633 137 41 64 110
170 632 139 42 62 100
170 633 139 52 70 109
171 632 138 49 73 110
171 632 139 52 72 107
171 633 138 41 66 109
171 633 139 45 67 107
171 634 137 54 78 115
171 635 137 33 74 107
170 634 139 61 77 115
170 635 139 50 68 111
171 634 138 48 69 111
171 634 139 53 72 112
171 635 138 39 65 106
171 635 139 43 60 106
169 632 141 35 48 76
169 633 141 34 51 82
169 632 142 43 49 71
169 632 143 60 59 68
169 633 142 44 52 75
169 633 143 58 58 69
169 634 141 34 50 88
169 635 141 27 50 93
169 634 142 40 50 83
169 634 143 51 51 75
169 635 142 35 48 88
169 635 143 45 47 82
170 632 140 23 43 86
170 632 141 32 45 82
170 633 140 29 49 95
170 633 141 29 46 87
170 634 140 52 68 108
170 634 141 30 49 93
170 635 140 60 76 114
170 635 141 38 58 101
171 636 137 59 91 116
171 637 137 54 85 111
170 636 139 41 56 105
170 637 139 48 62 106
171 636 138 43 68 107
171 636 139 36 53 102
171 637 138 47 71 107
171 637 139 48 62 105
171 638 136 39 61 96
171 638 137 36 65 99
171 639 136 53 59 101
171 639 137 51 62 102
170 638 139 44 59 103
170 639 138 56 67 105
170 639 139 55 70 109
171 638 138 40 64 101
171 639 138 53 66 103
169 636 141 30 56 94
169 637 141 47 68 99
168 637 143 43 50 82
169 636 142 32 49 89
169 636 143 40 46 86
169 637 142 42 57 88
169 637 143 39 48 83
169 638 141 54 71 105
169 639 141 45 62 101
168 638 143 42 53 74
168 639 143 44 57 76
169 638 142 50 63 87
169 638 143 40 54 75
169 639 142 51 63 90
169 639 143 45 58 75
170 636 140 54 72 111
170 636 141 43 64 102
170 637 140 50 68 109
170 637 141 52 72 106
170 638 140 47 65 107
170 639 140 42 62 105
172 632 136 46 77 114
172 632 137 43 66 111
172 633 136 43 80 115
172 633 137 42 69 113
172 634 136 44 86 114
172 634 137 45 82 114
172 635 136 41 83 109
172 635 137 38 81 108
172 636 136 57 89 112
172 637 136 54 80 106
172 638 136 51 67 98
172 639 136 59 68 105
167 624 145 117 110 110
167 625 145 119 112 110
166 624 146 119 113 113
166 624 147 120 114 114
166 625 147 123 115 113
167 624 146 120 113 113
167 625 146 122 114 112
167 626 145 120 114 113
166 626 147 125 117 115
167 626 146 122 115 115
167 626 147 124 117 115
167 627 146 115 113 116
167 627 147 120 116 117
165 624 148 124 117 116
165 624 149 124 119 119
165 625 149 123 117 117
164 624 150 107 108 120
164 624 151 93 96 119
164 625 150 107 109 120
164 625 151 102 103 124
165 625 150 113 112 119
165 626 149 119 115 119
165 627 149 105 106 117
164 626 150 102 104 116
164 626 151 96 98 118
164 627 151 93 96 118
165 626 150 104 104 115
165 627 150 99 100 116
165 627 151 95 97 118
166 624 148 122 116 116
166 625 148 124 117 115
166 626 148 124 118 117
166 626 149 123 118 118
166 627 148 120 117 119
166 627 149 114 113 119
167 628 146 67 76 89
167 628 147 86 90 99
167 629 146 64 75 90
167 629 147 69 79 89
167 630 146 80 85 96
167 630 147 101 104 113
167 631 146 70 74 87
167 631 147 84 90 101
165 628 149 93 94 108
164 628 151 91 94 119
165 628 150 92 91 113
165 628 151 93 94 119
165 629 150 89 86 113
165 629 151 93 93 119
165 630 150 85 81 111
165 630 151 93 91 117
165 631 150 81 78 109
165 631 151 95 94 116
166 628 148 99 101 107
166 628 149 90 94 105
166 629 148 74 82 91
166 629 149 76 82 99
167 628 148 77 83 92
167 629 148 72 80 88
166 630 148 100 106 116
166 630 149 81 85 108
166 631 148 88 97 112
166 631 149 65 71 103
167 630 148 107 110 119
167 631 148 97 103 114
162 624 153 98 96 121
163 624 152 99 100 125
163 624 153 102 101 123
163 625 152 101 100 126
163 625 153 93 92 120
162 624 154 92 87 117
162 624 155 97 95 122
162 625 154 90 88 119
162 625 155 100 99 126
163 626 152 95 94 121
163 626 153 83 86 117
163 627 153 76 83 117
162 626 154 84 88 117
162 626 155 88 93 117
162 627 155 80 94 117
163 626 154 81 87 116
163 627 154 72 84 113
163 627 155 63 82 108
160 624 157 106 113 136
161 624 156 107 110 132
161 624 157 107 113 134
161 625 156 107 111 132
161 625 157 106 111 133
160 624 158 99 106 136
160 624 159 93 103 136
160 625 158 96 100 136
160 625 159 88 95 134
161 625 158 99 104 135
161 626 156 98 104 124
161 626 157 95 103 125
161 627 157 92 104 128
160 626 158 87 92 131
160 626 159 84 93 131
160 627 159 91 103 130
161 626 158 88 95 127
161 627 158 92 102 128
161 627 159 99 109 132
162 625 156 103 104 128
162 626 156 95 101 121
162 626 157 91 101 122
162 627 156 86 102 125
162 627 157 94 108 131
163 628 153 74 85 117
163 629 153 74 85 115
162 628 155 61 85 113
162 629 155 75 94 118
163 628 154 60 77 109
163 628 155 57 80 109
163 629 154 67 82 113
163 629 155 65 86 114
163 630 153 84 93 114
163 631 153 99 103 117
162 630 155 91 105 124
162 631 155 83 93 115
163 630 154 89 99 119
163 630 155 92 105 124
163 631 154 98 103 117
163 631 155 88 95 115
161 628 157 84 102 125
161 629 157 92 108 126
160 628 159 113 122 136
160 629 159 89 105 123
161 628 158 94 108 129
161 628 159 107 117 133
161 629 158 82 100 119
161 629 159 85 101 120
161 630 157 92 105 123
161 631 157 90 102 120
160 630 159 102 116 134
160 631 159 102 114 132
161 630 158 100 112 129
161 630 159 102 114 131
161 631 158 90 102 121
161 631 159 104 115 133
162 628 156 73 95 119
162 628 157 82 102 124
162 629 156 90 106 124
162 629 157 99 112 129
162 630 156 82 97 116
162 630 157 88 102 120
162 631 156 87 98 119
162 631 157 92 104 121
164 625 152 101 101 126
164 626 152 92 92 118
164 627 152 84 86 114
164 627 153 73 81 115
164 628 152 83 88 115
164 628 153 77 86 117
164 629 152 84 90 117
164 629 153 75 85 114
164 630 152 82 88 113
164 630 153 82 91 112
164 631 152 85 89 110
164 631 153 90 96 114
167 632 146 65 73 87
167 632 147 67 77 95
167 633 146 61 68 88
167 633 147 58 68 93
167 634 146 51 58 84
167 634 147 45 57 91
167 635 146 38 45 85
167 635 147 33 46 92
165 632 150 82 81 107
165 632 151 93 96 112
165 633 150 87 88 109
165 633 151 95 100 113
165 634 150 90 93 110
165 634 151 98 103 114
165 635 150 85 91 110
165 635 151 90 97 111
166 632 148 65 77 102
166 632 149 55 61 100
166 633 148 38 55 95
166 633 149 52 60 100
167 632 148 71 82 102
167 633 148 54 66 97
166 634 148 33 52 96
166 634 149 48 59 99
166 635 148 31 51 97
166 635 149 47 61 100
167 634 148 44 57 97
167 635 148 36 50 97
167 637 145 29 43 87
167 636 146 35 44 89
167 636 147 35 47 94
167 637 146 31 43 88
167 637 147 30 47 89
167 638 145 25 43 87
167 639 145 25 45 83
166 638 147 28 45 81
166 639 147 24 41 81
167 638 146 32 46 87
167 638 147 26 44 83
167 639 146 24 44 85
167 639 147 26 42 81
165 636 150 76 84 110
165 636 151 85 94 112
165 637 150 62 72 106
165 637 151 75 84 110
165 638 149 45 58 100
165 639 149 34 45 95
164 639 151 53 60 106
165 638 150 40 54 99
165 638 151 58 69 106
165 639 150 35 42 98
165 639 151 48 56 103
166 636 148 35 54 95
166 636 149 45 60 100
166 637 148 41 58 93
166 637 149 54 67 102
167 636 148 35 49 96
166 638 148 28 50 86
166 638 149 44 61 97
166 639 148 30 47 83
166 639 149 31 48 92
163 632 153 102 105 116
162 632 155 91 96 119
162 633 155 88 94 119
163 632 154 103 106 118
163 633 154 101 106 117
162 634 155 76 86 116
162 635 155 79 90 122
163 634 154 87 96 115
163 635 154 73 86 115
163 635 155 78 88 119
161 632 157 97 105 124
161 633 157 81 93 117
160 632 159 93 106 125
160 633 159 103 115 132
161 632 158 101 111 127
161 633 158 88 102 121
161 634 157 73 89 115
161 635 157 92 106 125
160 634 158 81 99 120
160 634 159 93 109 128
160 635 159 102 116 134
161 634 158 86 103 124
161 635 158 89 105 125
162 632 156 84 91 118
162 633 156 80 88 119
162 634 156 74 86 117
162 635 156 87 98 125
162 636 155 74 85 119
162 637 155 67 80 117
163 636 154 69 83 115
163 636 155 71 84 118
163 637 154 72 87 116
163 637 155 66 79 115
163 638 153 84 99 122
163 639 153 72 89 116
162 638 155 66 82 117
162 639 155 69 87 117
163 638 154 79 94 120
163 638 155 69 85 117
163 639 154 76 92 119
163 639 155 72 89 117
161 636 157 101 111 131
161 637 157 74 84 120
160 636 159 101 113 130
161 636 158 105 115 133
161 636 159 101 113 131
161 637 158 90 100 127
161 637 159 114 122 140
161 638 157 51 65 115
161 639 157 55 79 117
161 638 158 62 74 118
161 638 159 84 95 128
161 639 158 51 73 118
161 639 159 57 74 122
162 636 156 81 92 123
162 636 157 97 107 129
162 637 156 64 77 117
162 637 157 69 80 118
162 638 156 58 75 116
162 638 157 51 65 115
162 639 156 67 87 118
162 639 157 61 82 119
164 632 152 88 94 112
164 632 153 95 101 116
164 633 152 87 94 112
164 633 153 100 106 121
164 634 152 78 88 107
164 634 153 82 92 113
164 635 152 69 81 104
164 635 153 63 78 108
164 636 152 84 94 114
164 636 153 77 91 117
164 637 152 85 95 117
164 637 153 88 101 123
164 638 152 71 83 110
164 638 153 84 97 120
164 639 152 65 76 110
164 639 153 72 86 114
168 624 144 107 101 101
168 624 145 115 108 107
168 625 144 103 97 97
168 625 145 114 106 106
168 626 144 87 82 88
168 626 145 111 106 107
168 627 144 47 40 66
168 627 145 90 88 96
168 628 144 38 35 67
168 628 145 37 42 70
168 629 144 62 62 77
168 629 145 51 58 79
168 630 144 71 70 76
168 630 145 69 73 83
168 631 144 68 66 69
168 631 145 77 76 84
168 630 146 68 74 87
168 631 146 75 77 88
168 632 144 65 63 64
168 632 145 75 74 82
168 633 144 63 60 61
168 633 145 68 67 74
168 632 146 75 78 90
168 633 146 71 74 86
168 634 144 59 57 67
168 634 145 61 61 71
168 635 144 49 50 81
168 635 145 49 51 77
168 634 146 63 65 81
168 635 146 46 50 80
168 636 144 38 44 86
168 636 145 36 41 86
168 637 144 34 46 82
168 637 145 34 45 87
168 638 144 40 53 74
168 638 145 26 45 81
168 639 144 42 56 76
168 639 145 33 51 78
