ply
format ascii 1.0
comment Version 2, Copyright 2017, 8i Labs, Inc.
comment frame_to_world_scale 0.179523
comment frame_to_world_translation -45.2095 7.18301 -54.3561
comment width 1023
element vertex 2234
property float x
property float y
property float z
property uchar red
property uchar green
property uchar blue
end_header
205 322 39 111 28 46
205 323 38 110 42 46
205 323 39 111 45 45
207 320 37 123 63 58
207 321 36 138 97 75
207 321 37 123 63 58
206 320 38 115 42 60
206 320 39 116 61 76
206 321 38 111 27 50
206 321 39 112 37 57
207 320 38 117 51 62
206 322 37 113 41 53
206 323 37 124 66 61
207 322 36 138 95 76
207 322 37 125 72 57
207 323 36 140 93 77
207 323 37 130 77 65
206 322 38 111 38 52
206 322 39 110 38 46
206 323 38 115 47 51
204 325 39 116 36 46
205 324 38 113 43 50
205 324 39 111 42 42
205 325 38 114 46 52
205 325 39 115 35 46
205 326 37 118 54 63
204 326 39 115 41 48
204 327 38 113 46 59
204 327 39 112 35 45
205 326 38 115 43 49
205 326 39 115 44 48
205 327 38 117 55 66
206 324 37 125 68 63
206 325 37 123 61 67
207 324 36 139 90 79
207 324 37 133 81 69
207 325 36 144 88 95
207 325 37 131 74 77
206 324 38 117 53 57
206 326 36 132 93 99
206 326 37 125 69 79
206 327 36 135 105 112
206 327 37 126 86 93
207 326 36 151 88 103
207 326 37 132 86 92
207 327 36 147 122 125
203 326 41 116 32 47
203 327 40 113 30 45
203 327 41 116 37 50
203 326 42 120 51 56
203 327 42 121 46 54
203 327 43 124 61 69
203 327 44 120 65 69
205 321 40 112 48 63
205 321 41 110 87 80
205 321 42 116 111 116
205 322 40 113 36 56
205 322 41 104 67 59
205 323 40 117 39 56
205 323 41 113 65 62
205 322 42 108 97 100
205 323 42 100 80 84
205 323 43 104 91 97
206 320 40 105 68 78
206 320 41 116 111 116
206 321 40 110 58 71
206 321 41 115 99 97
206 320 42 110 111 121
206 321 42 111 111 119
206 321 43 113 114 122
207 320 42 110 115 125
207 320 43 113 119 129
207 321 43 109 113 122
206 322 42 114 109 115
206 322 43 109 105 112
206 323 43 103 95 100
207 322 43 106 106 115
206 323 44 105 99 107
207 322 44 99 103 114
207 323 44 100 104 115
204 324 40 117 35 51
204 324 41 119 65 65
204 325 40 117 21 49
204 325 41 120 35 54
205 324 40 114 40 48
204 324 42 104 67 67
204 325 42 116 58 59
204 325 43 97 60 54
205 324 42 88 66 77
205 324 43 100 75 78
205 325 43 98 62 60
204 326 40 117 39 53
204 326 41 116 30 48
204 327 40 113 31 46
204 326 42 120 57 59
204 326 43 110 63 61
205 324 44 103 87 88
205 325 44 106 81 80
204 326 44 105 66 58
204 327 44 115 70 68
204 327 45 116 74 66
205 326 44 110 73 68
205 326 45 112 82 78
205 327 45 116 76 70
205 327 46 117 76 75
206 324 44 105 98 103
206 325 44 106 96 99
206 325 45 111 101 103
207 324 44 105 104 114
207 324 45 98 100 111
207 325 45 104 102 110
207 325 46 104 103 109
206 326 45 112 98 97
207 326 45 109 102 104
206 326 46 112 95 96
206 327 46 115 86 90
206 327 47 119 87 94
207 326 46 108 98 101
207 327 47 120 96 99
203 329 39 116 35 52
203 330 39 117 39 58
203 331 39 120 62 72
203 332 39 126 84 91
203 333 39 126 89 97
203 334 39 129 99 107
203 335 39 131 100 108
205 328 37 123 83 88
205 329 37 130 98 103
204 328 38 115 50 64
204 328 39 114 34 50
204 329 38 118 63 75
204 329 39 117 43 61
205 328 38 119 67 77
205 329 38 124 82 89
205 330 37 143 109 112
204 330 38 124 81 87
204 330 39 116 50 63
204 331 38 129 96 102
204 331 39 123 82 87
205 330 38 131 97 104
205 331 38 142 114 123
206 328 37 132 103 108
206 329 37 139 118 123
207 328 36 158 137 136
207 328 37 144 124 129
207 329 36 161 155 160
207 329 37 155 142 147
206 330 37 142 120 128
206 331 37 148 123 135
207 330 37 154 141 149
207 331 37 160 132 148
204 332 38 130 98 106
204 332 39 129 96 103
204 333 39 130 101 108
205 332 38 148 114 127
205 333 38 155 110 127
204 334 39 140 108 118
204 335 39 144 103 117
205 334 38 160 108 128
205 334 39 155 134 147
205 335 38 170 108 133
205 335 39 164 106 131
206 332 37 154 126 141
207 332 37 172 121 143
207 333 37 184 97 122
206 332 38 159 129 147
206 333 38 162 120 139
207 333 38 179 107 130
206 334 38 164 115 139
206 335 38 173 103 131
207 334 38 182 108 127
207 335 38 173 114 137
201 331 43 123 44 57
203 328 40 112 28 42
203 328 41 114 32 47
203 329 40 114 35 49
203 329 41 114 33 47
202 329 42 117 20 43
202 329 43 123 38 51
203 328 42 119 36 49
203 328 43 128 53 65
203 329 42 116 21 44
203 329 43 125 42 56
202 330 41 117 47 57
202 331 40 121 30 57
202 331 41 121 49 62
203 330 40 117 35 53
203 330 41 116 40 53
203 331 40 120 29 55
202 330 42 116 22 46
202 330 43 124 43 55
202 331 42 121 47 60
202 331 43 123 39 56
201 331 44 121 31 54
202 329 44 129 57 70
203 328 44 126 71 77
203 328 45 122 76 78
203 329 44 130 65 77
203 329 45 126 70 80
203 329 46 119 66 69
202 330 44 127 51 68
202 330 45 124 51 71
202 331 44 123 38 56
202 331 45 118 31 54
203 330 45 119 51 67
202 331 46 113 32 52
203 330 46 113 47 57
203 330 47 110 40 46
203 331 46 110 38 50
203 331 47 110 32 46
201 332 43 125 43 64
201 333 42 127 54 70
201 333 43 127 44 68
201 335 41 127 35 58
200 335 43 129 54 75
201 334 42 127 49 69
201 334 43 127 44 71
201 335 42 127 45 65
201 335 43 128 50 71
202 332 40 122 15 52
202 332 41 121 35 58
202 333 40 136 16 48
202 333 41 125 39 61
203 332 40 116 51 64
203 333 40 122 69 80
202 332 42 124 51 66
202 332 43 125 46 64
202 333 42 127 54 70
202 334 40 126 71 80
202 334 41 124 44 64
202 335 40 125 81 90
202 335 41 124 61 72
203 334 40 125 84 93
203 335 40 127 90 99
201 332 44 121 30 57
201 332 45 117 24 48
201 333 44 125 38 67
201 333 45 120 36 57
201 332 46 115 23 48
201 333 46 116 27 50
201 333 47 115 19 49
200 334 44 126 43 73
200 334 45 127 45 73
200 335 44 128 50 77
200 335 45 128 46 74
201 334 44 126 40 74
201 334 45 125 46 69
200 335 46 126 43 68
200 335 47 117 39 55
201 334 46 122 43 62
201 334 47 116 34 52
201 335 47 114 38 50
202 332 45 115 23 45
202 332 46 114 25 49
202 332 47 114 27 52
202 333 47 114 15 51
204 328 45 121 77 72
204 328 46 121 78 75
204 329 46 121 74 73
204 329 47 120 64 70
205 328 46 122 77 78
205 328 47 124 75 83
205 329 47 120 56 69
204 330 47 114 49 55
206 328 46 123 79 87
206 328 47 120 69 80
206 329 47 120 59 71
207 328 47 121 82 87
203 331 48 113 30 47
201 334 48 111 29 44
201 335 48 109 36 41
202 332 48 114 31 55
202 333 48 113 22 52
203 332 48 113 32 52
203 333 48 113 29 55
203 333 49 110 24 49
202 334 48 108 25 46
202 334 49 107 20 44
202 335 49 108 27 38
203 334 48 110 23 53
203 334 49 107 25 41
203 335 49 106 30 35
202 335 50 106 29 35
203 335 50 105 29 38
205 329 48 117 34 57
204 330 48 115 40 53
204 331 48 114 30 46
205 330 48 116 39 52
205 331 48 117 33 49
205 331 49 115 30 49
206 329 48 116 46 57
207 328 48 122 74 81
207 329 48 117 53 61
207 329 49 115 44 48
206 330 48 115 36 45
206 330 49 116 34 45
206 331 49 116 30 47
207 330 49 116 30 40
207 331 49 119 32 44
206 331 50 118 28 43
207 330 50 120 37 38
207 331 50 120 27 36
204 332 48 113 28 49
204 332 49 113 28 48
204 333 49 110 22 46
205 332 49 113 30 47
205 333 49 111 27 44
204 333 50 106 19 38
205 333 50 108 22 38
205 333 51 109 24 37
204 334 49 106 19 39
204 334 50 104 22 37
204 335 50 104 25 39
205 334 50 104 20 38
205 334 51 106 19 36
205 335 51 106 14 36
206 332 49 114 31 45
206 332 50 114 26 39
206 333 50 112 24 37
206 333 51 112 24 34
207 332 50 119 25 32
207 332 51 122 38 33
207 333 51 118 32 32
206 334 51 112 24 34
205 335 52 110 25 35
207 333 52 124 47 36
206 334 52 120 32 37
206 335 52 120 35 41
206 335 53 126 46 47
207 334 52 127 50 41
207 334 53 134 74 43
207 335 53 133 74 47
207 335 54 136 89 38
199 338 45 126 33 60
199 339 44 125 42 65
199 339 45 123 32 59
199 338 46 126 21 58
199 338 47 121 31 54
199 339 46 122 13 53
199 339 47 121 27 53
199 340 44 126 38 70
199 340 45 123 33 61
199 341 44 128 42 65
199 341 45 125 36 65
198 341 47 124 33 53
199 340 46 121 29 53
199 340 47 122 28 52
199 341 46 121 35 53
199 341 47 122 31 51
198 342 45 126 34 63
198 343 45 128 26 59
199 342 44 128 39 57
199 342 45 128 35 66
199 343 44 128 35 51
199 343 45 129 32 56
198 342 46 124 34 56
198 342 47 125 29 54
198 343 46 127 31 59
198 343 47 126 23 58
199 344 43 122 88 97
199 345 43 125 91 99
199 346 43 127 90 101
199 347 43 129 91 106
197 345 47 110 44 57
197 346 46 115 51 53
197 346 47 107 73 70
197 347 46 114 71 70
197 347 47 110 95 91
198 344 45 125 21 49
198 345 45 120 18 42
199 344 44 126 57 73
199 344 45 126 26 48
199 345 44 120 89 99
198 344 46 125 26 55
198 344 47 119 25 57
198 345 46 117 25 46
198 345 47 113 42 55
198 346 44 115 29 58
198 346 45 117 39 46
198 347 44 113 90 98
198 347 45 114 62 64
199 346 44 116 82 94
199 347 44 118 83 95
198 346 46 116 37 44
199 348 43 134 102 119
199 349 43 137 117 135
197 348 45 117 106 113
197 349 45 115 107 115
196 348 47 109 111 112
196 349 47 110 113 116
197 348 46 113 89 90
197 348 47 107 104 105
197 349 46 111 93 97
197 349 47 109 105 107
197 350 45 115 108 119
197 351 45 117 115 128
196 350 47 109 110 115
196 351 47 104 110 119
197 350 46 111 97 105
197 351 46 112 111 123
198 348 44 119 97 106
198 348 45 120 98 104
198 349 44 121 101 113
198 349 45 116 105 115
199 348 44 126 90 104
199 349 44 132 104 120
198 350 44 122 107 119
198 350 45 117 109 121
198 351 44 122 114 130
198 351 45 117 111 126
199 350 44 134 120 134
199 351 44 135 127 144
203 336 39 137 96 108
203 337 39 149 84 104
204 336 39 154 97 119
204 337 39 156 92 116
205 336 39 175 75 111
205 337 39 171 74 108
204 338 39 158 92 116
205 338 39 165 105 131
205 339 39 171 120 141
206 336 38 189 91 118
206 336 39 184 81 110
206 337 39 185 89 115
207 336 38 176 115 132
207 337 39 165 138 155
206 338 39 172 122 140
206 339 39 155 140 162
207 338 39 147 148 165
207 339 39 141 145 171
207 340 39 148 137 168
201 336 41 126 42 58
201 337 41 129 51 61
200 336 43 130 54 74
200 337 43 127 47 68
201 336 42 124 32 54
201 336 43 126 48 66
201 337 42 123 49 64
201 337 43 126 46 64
201 338 41 124 84 93
201 339 41 129 84 96
200 338 43 130 31 63
200 339 42 127 28 45
200 339 43 131 19 61
201 338 42 125 52 63
201 339 42 124 76 83
202 336 40 128 91 99
202 336 41 124 76 84
202 337 40 130 95 104
202 337 41 125 85 94
203 336 40 137 90 104
203 337 40 138 86 102
202 338 40 134 81 98
202 338 41 127 86 97
202 339 40 138 77 97
202 339 41 134 78 97
203 338 40 150 81 109
203 339 40 153 85 110
200 336 44 130 57 75
200 336 45 131 53 76
200 337 44 130 56 72
200 337 45 130 52 72
200 336 46 129 46 72
200 336 47 118 37 56
200 337 46 127 40 68
200 337 47 122 31 59
200 338 44 130 54 74
200 338 45 128 47 66
200 339 44 126 39 72
200 338 46 126 29 61
200 338 47 122 28 58
201 341 41 132 83 99
200 340 42 131 48 63
200 340 43 130 42 69
200 341 42 125 58 77
200 341 43 126 62 79
201 340 42 125 85 94
201 341 42 125 83 94
201 342 41 135 81 100
200 342 42 122 78 93
200 342 43 130 58 78
200 343 42 126 77 92
200 343 43 124 70 86
201 342 42 130 83 98
201 343 42 136 87 100
202 340 41 135 82 96
202 341 41 141 89 105
203 340 40 153 94 113
203 340 41 143 90 104
203 341 40 156 98 118
203 341 41 151 98 116
202 342 41 148 82 106
202 343 41 146 104 121
203 342 41 164 91 114
203 343 41 163 114 127
202 343 42 145 102 118
200 340 44 127 36 67
204 338 40 168 63 108
204 339 40 177 59 89
205 339 40 182 84 103
206 339 40 162 149 165
204 340 40 173 80 101
204 341 40 169 103 122
205 340 40 175 118 130
205 341 40 161 128 148
204 342 40 167 110 138
204 342 41 163 129 144
204 343 41 153 145 159
205 342 40 159 122 149
205 342 41 144 146 166
205 343 41 144 140 167
206 340 40 151 148 168
206 341 40 160 129 154
207 340 40 154 126 160
207 341 40 165 109 147
206 342 40 165 115 147
206 342 41 159 120 160
206 343 41 169 103 149
207 342 40 180 77 125
207 343 41 193 53 110
200 344 42 134 81 95
200 344 43 126 89 98
200 345 43 132 93 103
201 344 42 141 91 104
201 345 42 146 103 114
200 346 43 136 101 110
200 347 43 145 97 116
201 346 42 151 113 127
201 346 43 146 111 124
201 347 43 153 122 137
203 344 41 163 124 140
203 345 41 148 154 168
202 344 42 148 105 119
202 345 42 164 108 122
203 344 42 165 113 138
203 345 42 153 141 155
202 346 42 161 125 142
202 347 42 154 132 156
202 347 43 155 133 150
203 346 42 141 149 167
203 347 42 140 141 172
200 348 43 146 113 133
200 349 43 148 125 143
201 348 43 159 128 147
201 349 43 159 142 159
200 350 43 149 136 149
200 351 43 160 150 162
201 350 43 155 160 172
201 351 43 147 161 180
202 348 43 151 142 162
202 349 43 140 151 174
203 348 42 142 132 170
203 348 43 145 123 165
203 349 43 154 108 153
202 350 43 138 142 171
202 351 43 144 123 161
203 350 43 169 78 126
203 351 43 182 51 95
200 351 44 151 133 152
204 344 41 148 146 164
204 345 41 146 141 164
205 344 41 152 127 156
205 345 41 162 111 144
204 345 42 140 140 165
204 346 42 147 128 159
204 347 42 161 105 147
205 346 42 172 82 123
205 347 42 181 47 102
206 344 41 177 84 126
206 345 41 184 65 112
207 344 41 191 52 99
207 345 41 190 56 99
206 346 41 190 53 102
207 346 41 191 54 99
206 346 42 189 45 98
206 347 42 190 42 92
207 346 42 191 50 99
207 347 42 194 55 103
204 348 42 170 76 127
204 349 42 174 61 117
204 349 43 182 51 109
205 348 42 185 41 92
205 349 42 187 52 96
204 350 43 191 60 103
204 351 43 198 76 103
205 350 43 189 71 101
205 351 43 189 84 111
206 348 42 191 51 96
206 349 42 191 63 103
207 348 42 195 63 107
207 349 42 195 71 112
206 350 42 187 65 99
206 350 43 188 67 106
206 351 43 186 59 103
207 350 43 194 69 114
207 351 43 193 56 107
199 338 48 119 36 54
199 339 48 121 32 56
199 339 49 118 22 51
198 341 48 126 28 56
198 341 49 125 25 56
199 340 48 124 25 55
199 340 49 123 22 56
199 341 49 124 21 55
199 340 50 120 19 48
199 340 51 119 14 45
199 341 50 122 13 52
199 341 51 117 19 44
198 342 48 127 24 55
198 342 49 121 34 52
198 343 48 122 31 58
198 343 49 115 59 60
198 342 50 117 36 53
198 342 51 115 59 63
198 343 50 112 78 74
198 343 51 110 95 94
199 342 51 115 45 55
198 343 52 109 104 107
199 342 52 112 72 71
199 343 52 110 99 102
199 343 53 111 112 116
195 349 50 105 107 110
195 349 51 112 69 95
195 350 49 107 108 114
195 351 48 103 105 114
195 351 49 106 98 105
195 350 50 104 96 101
195 350 51 109 63 86
195 351 50 104 83 91
195 351 51 102 66 76
195 349 52 117 49 81
195 350 52 115 65 84
195 350 53 120 88 94
195 351 52 115 89 92
195 351 53 119 113 113
195 350 54 119 98 103
195 351 54 113 118 123
195 351 55 103 114 123
197 344 48 107 61 67
197 344 49 111 96 90
197 345 48 107 79 80
197 345 49 113 109 107
197 344 50 117 112 109
197 344 51 113 110 112
197 345 50 116 119 121
197 345 51 111 119 126
196 347 48 112 119 126
196 347 49 111 121 131
197 346 48 114 111 109
197 346 49 119 123 127
197 347 48 114 115 117
197 347 49 118 125 132
196 347 50 108 116 124
196 347 51 106 105 113
197 346 50 115 123 130
197 346 51 109 117 125
197 347 50 111 121 130
197 347 51 105 108 116
198 344 48 112 43 61
198 344 49 110 82 78
198 344 50 113 94 92
198 344 51 110 110 113
197 345 52 105 114 123
196 347 52 114 74 96
197 346 52 110 106 114
197 347 52 114 93 106
197 347 53 119 83 97
198 344 52 108 114 120
198 345 52 108 117 124
198 345 53 110 115 122
199 344 52 110 118 125
199 344 53 109 116 123
199 345 53 112 111 118
199 345 54 117 107 115
198 346 52 116 108 116
198 346 53 120 103 110
198 346 54 130 84 98
198 347 54 131 77 91
199 346 54 128 90 101
199 347 54 131 79 91
199 347 55 127 77 89
196 348 48 111 118 125
196 348 49 109 117 127
196 349 48 110 116 124
196 349 49 108 113 119
196 348 50 109 112 119
196 348 51 112 91 106
196 349 50 106 105 110
196 349 51 113 76 99
196 350 48 106 112 120
196 351 48 104 111 119
196 348 52 122 55 88
196 348 53 125 50 81
196 349 52 122 53 85
196 349 53 120 54 79
197 348 53 122 59 85
196 349 54 118 81 91
197 348 54 123 59 80
197 349 54 117 79 91
197 349 55 111 93 102
196 350 53 119 86 93
196 350 54 115 102 106
196 350 55 109 111 116
196 351 55 106 114 121
197 350 55 109 102 112
198 348 54 123 66 83
198 348 55 121 78 91
198 349 55 111 92 102
199 348 55 116 83 91
198 350 55 108 98 109
196 350 56 107 110 119
196 351 56 104 112 121
197 350 56 106 113 122
197 351 56 102 111 122
197 351 57 105 107 118
198 349 56 104 100 110
199 348 56 113 96 101
199 349 56 107 102 109
199 349 57 96 108 118
198 350 56 105 105 114
198 350 57 103 111 121
198 351 57 109 106 117
199 350 57 102 107 117
199 351 57 111 106 118
198 351 58 113 99 114
199 350 58 108 107 117
199 351 58 116 98 112
200 336 48 110 31 42
200 337 48 115 24 48
200 337 49 113 23 46
201 336 48 110 34 40
201 336 49 110 21 40
201 337 49 110 23 45
201 337 50 110 30 47
200 338 48 117 28 51
200 338 49 115 26 50
200 339 49 117 25 50
200 338 50 114 24 50
200 339 50 114 24 45
200 339 51 115 27 40
201 338 50 111 28 44
201 338 51 110 21 39
201 339 51 113 19 38
202 336 49 110 29 41
202 336 50 108 28 41
202 337 50 108 31 44
202 337 51 107 31 44
203 336 50 106 29 41
203 336 51 106 30 44
203 337 51 106 32 41
202 338 51 107 21 37
203 338 51 106 25 36
201 339 52 111 17 33
202 339 52 110 15 33
203 338 52 106 22 30
203 339 52 109 15 32
203 339 53 110 18 32
200 340 51 116 26 42
200 341 51 110 29 32
201 340 51 115 26 41
200 341 52 110 41 39
201 340 52 111 24 33
201 341 52 109 49 38
201 341 53 108 65 57
200 342 52 112 75 72
200 342 53 111 91 92
200 343 53 110 112 118
201 342 53 112 91 89
201 343 54 110 114 120
202 340 52 110 21 32
202 340 53 110 25 25
202 341 53 109 61 53
203 340 53 112 24 34
203 341 53 112 51 48
203 341 54 112 63 63
202 342 53 111 86 85
202 342 54 111 95 94
202 343 54 110 115 118
203 342 54 112 100 99
203 342 55 113 110 108
203 343 55 113 116 119
204 336 50 105 30 42
204 336 51 107 22 46
204 337 51 108 29 44
205 336 51 109 12 41
204 337 52 107 31 34
205 336 52 112 27 36
205 337 52 111 30 36
205 337 53 118 41 40
204 338 52 107 24 27
204 338 53 111 25 30
204 339 53 114 21 36
205 338 53 120 39 43
204 339 54 117 22 35
205 338 54 125 51 46
205 339 54 119 34 38
205 339 55 121 49 43
206 336 52 119 35 42
206 336 53 122 44 40
206 337 53 124 51 42
206 336 54 131 69 39
206 337 54 131 70 41
207 336 54 137 86 40
207 336 55 143 99 47
207 337 54 138 88 33
207 337 55 132 77 39
206 338 54 127 59 42
206 338 55 125 57 41
206 339 55 125 59 45
207 338 55 130 69 41
207 339 55 129 69 50
204 340 53 114 26 40
204 340 54 116 39 45
204 341 54 114 65 66
204 341 55 113 82 80
205 340 54 116 39 41
205 340 55 118 60 55
205 341 55 115 84 81
204 342 55 113 108 108
204 343 55 113 118 122
206 340 55 121 70 53
207 338 56 137 83 55
207 339 56 133 85 66
207 339 57 131 99 78
205 341 56 118 100 96
204 342 56 115 119 123
204 343 56 114 118 123
205 342 56 114 118 123
205 343 56 113 119 127
205 343 57 120 116 117
206 340 56 122 86 76
206 341 56 119 108 107
207 340 56 124 96 86
207 340 57 123 103 94
207 341 57 118 113 115
207 340 58 118 112 114
207 341 58 117 115 120
207 341 59 116 116 123
206 342 56 114 117 121
206 342 57 115 120 126
206 343 57 124 116 114
206 342 58 118 121 128
206 343 58 127 121 119
206 343 59 136 120 106
207 342 58 116 121 129
207 342 59 119 122 128
207 343 59 131 123 118
207 341 60 112 118 128
207 342 60 124 121 123
207 342 61 126 119 116
207 343 60 136 121 108
207 343 61 132 116 101
200 344 53 109 114 119
200 344 54 111 113 121
200 345 54 120 96 107
201 344 54 114 110 119
201 345 54 120 94 107
201 345 55 123 82 96
200 346 54 129 79 97
200 346 55 129 75 93
200 347 55 126 77 88
201 346 55 126 69 89
202 344 54 113 112 119
202 344 55 113 105 112
202 345 55 120 79 93
203 344 55 112 111 116
200 347 56 123 87 96
201 346 56 122 60 81
201 347 56 119 77 90
201 347 57 117 83 95
202 345 56 119 76 90
203 344 56 116 104 109
203 345 56 119 86 95
203 345 57 122 76 89
202 346 56 118 63 80
202 346 57 116 65 82
202 347 57 114 80 94
203 346 56 120 70 86
203 346 57 121 72 87
203 347 57 116 77 90
203 346 58 120 72 87
203 347 58 113 83 97
203 347 59 106 92 109
200 348 56 114 95 102
200 348 57 109 98 107
200 349 56 110 100 109
200 349 57 101 105 113
201 348 57 110 98 107
201 349 57 100 105 114
200 349 58 101 108 118
201 349 58 101 107 118
200 350 57 100 108 117
200 350 58 104 104 115
200 351 58 113 95 110
200 351 59 118 86 101
201 350 58 105 102 111
201 350 59 108 101 104
201 351 59 115 91 96
202 348 57 105 99 112
202 348 58 103 99 112
202 349 58 98 106 119
202 349 59 103 107 116
203 348 58 108 90 106
203 348 59 101 95 111
203 349 59 101 106 117
202 350 59 109 108 112
201 351 60 121 86 93
203 348 60 97 103 118
203 349 60 101 108 117
202 350 60 114 102 102
202 351 60 122 93 89
203 350 60 112 106 104
203 350 61 115 110 106
203 351 60 123 102 90
203 351 61 131 103 82
204 344 56 116 112 115
204 344 57 121 105 106
204 345 57 121 83 91
205 344 57 124 108 106
204 344 58 124 87 88
204 345 58 121 81 87
205 344 58 130 101 98
205 345 58 124 90 89
205 345 59 122 93 94
204 346 58 118 77 88
204 346 59 112 87 98
204 347 58 112 82 96
204 347 59 107 93 108
205 346 59 114 91 99
206 344 58 136 119 105
206 344 59 138 111 92
206 345 59 131 106 94
204 347 60 101 101 115
205 346 60 107 102 108
205 346 61 104 108 117
205 347 60 101 107 119
205 347 61 99 109 122
205 347 62 96 109 125
206 344 60 139 114 85
206 345 60 124 108 97
206 345 61 119 110 105
207 344 60 137 115 92
207 344 61 133 111 85
207 345 61 119 108 100
207 344 62 124 107 89
207 345 62 115 107 102
207 345 63 108 106 109
206 346 60 113 107 107
206 346 61 108 111 117
206 347 61 99 110 124
206 346 62 96 107 120
206 347 62 93 108 126
206 347 63 82 104 125
207 346 62 98 105 115
207 346 63 93 104 118
207 347 63 79 102 124
204 348 60 97 102 117
204 348 61 90 107 124
204 349 60 95 107 121
204 349 61 97 109 122
205 348 61 91 108 126
204 349 62 99 109 123
205 348 62 89 109 128
205 349 62 95 109 125
205 349 63 100 109 121
204 350 61 119 112 106
204 351 61 130 109 93
204 350 62 117 112 110
204 351 62 136 106 75
204 351 63 144 108 64
205 350 63 120 110 104
205 351 63 138 105 69
206 348 62 89 109 129
206 348 63 86 106 126
206 349 63 88 105 123
208 321 35 154 121 92
209 320 35 159 131 108
209 321 35 159 130 105
208 322 35 150 115 88
209 322 35 160 131 109
209 323 35 155 131 122
210 320 34 159 145 140
210 320 35 180 149 119
210 321 34 159 144 138
210 321 35 195 155 107
211 320 34 168 157 156
211 321 34 158 150 154
210 322 35 170 149 131
210 323 35 161 151 144
211 322 34 152 151 163
211 322 35 152 155 171
211 323 35 139 153 180
208 320 36 141 105 81
208 321 36 143 105 79
208 322 36 146 107 84
208 323 36 146 109 96
209 324 35 154 135 137
209 325 35 155 149 159
210 324 35 146 150 162
210 325 35 143 148 171
211 324 35 135 152 181
211 325 35 147 152 177
210 326 35 148 150 169
211 326 35 171 156 157
208 324 36 163 112 101
208 325 36 158 112 116
209 324 36 153 132 135
209 325 36 156 139 142
208 326 36 153 122 128
208 327 36 159 136 136
209 326 36 148 145 160
209 327 36 147 149 165
210 326 36 152 152 165
210 327 36 159 145 143
211 326 36 176 154 142
211 327 36 187 149 109
212 320 34 163 162 172
212 321 34 152 158 172
213 320 34 136 153 181
213 321 34 124 152 184
212 322 34 139 154 178
212 323 35 134 154 185
213 322 34 123 150 181
213 322 35 130 151 182
213 323 35 144 153 180
214 320 34 122 148 186
214 321 34 124 150 186
215 320 34 120 149 190
215 321 34 129 150 189
214 322 34 131 152 183
214 322 35 136 151 178
214 323 35 158 152 166
215 322 34 138 152 184
215 322 35 151 154 174
215 323 35 174 157 151
212 324 35 143 154 178
212 325 35 166 159 167
213 324 35 159 153 166
213 325 35 186 160 147
212 326 35 190 162 141
213 326 35 201 165 128
214 324 35 185 156 141
214 325 35 203 160 108
215 324 35 203 162 111
215 325 35 198 158 105
214 326 35 195 162 122
215 326 35 154 151 154
212 327 36 200 160 112
213 326 36 198 166 132
213 327 36 192 164 139
214 326 36 164 155 149
214 327 36 146 152 163
215 326 36 123 144 172
215 327 36 103 139 186
208 320 43 116 120 129
208 320 44 117 120 127
208 321 44 103 110 121
209 320 44 128 129 135
209 321 44 117 121 129
209 321 45 113 119 128
208 322 44 97 105 117
208 322 45 102 110 121
208 323 44 96 106 117
208 323 45 97 105 117
209 322 45 106 113 123
209 323 45 98 106 117
209 322 46 104 111 121
209 323 46 100 107 117
210 320 44 134 135 140
210 320 45 134 134 140
210 321 45 126 128 135
211 320 45 132 133 138
210 321 46 124 126 133
211 320 46 130 130 136
211 321 46 129 129 135
211 321 47 135 133 137
210 322 45 118 121 129
210 322 46 121 123 131
210 323 46 105 111 121
210 323 47 109 115 125
211 322 46 130 130 136
211 322 47 128 130 136
211 323 47 112 117 126
208 324 45 92 101 113
208 324 46 99 107 117
208 325 46 106 109 117
208 325 47 110 111 119
209 324 46 90 100 112
209 324 47 97 105 116
209 325 46 101 108 118
209 325 47 106 112 122
208 326 46 105 100 105
208 326 47 117 113 117
208 327 47 122 106 108
209 326 47 117 118 126
210 324 47 105 112 121
212 320 46 132 131 136
212 321 47 131 132 139
213 320 46 130 130 136
213 320 47 129 129 135
213 321 47 127 129 137
212 322 47 129 132 140
214 320 47 129 130 135
208 328 36 160 149 149
208 329 36 156 146 158
209 328 36 155 141 152
209 329 36 158 118 142
208 330 37 164 127 145
208 331 37 177 106 133
209 330 36 165 101 132
209 330 37 169 85 116
209 331 37 174 85 117
210 328 36 166 126 113
210 329 36 166 97 94
211 328 36 187 134 75
211 329 36 180 130 96
210 330 36 168 94 104
210 330 37 163 117 135
210 331 37 149 128 155
211 330 36 164 137 135
211 330 37 144 139 158
211 331 37 134 144 170
208 332 37 185 89 122
208 333 37 187 86 115
209 332 37 176 101 127
209 333 37 169 119 139
208 333 38 186 87 110
208 334 38 182 105 122
208 335 38 168 123 138
209 334 38 156 135 156
209 335 38 145 142 167
210 332 37 144 139 166
210 333 37 134 147 173
211 332 37 121 146 179
211 333 37 117 144 180
210 333 38 130 146 174
211 333 38 127 139 178
210 334 38 133 141 171
210 335 38 144 131 165
211 334 38 150 133 171
211 335 38 172 114 153
212 328 36 185 147 97
212 329 36 162 145 126
213 328 36 158 149 145
213 329 36 128 144 167
212 330 36 137 145 160
212 330 37 126 146 177
212 331 37 123 146 182
213 330 36 111 144 184
213 330 37 111 147 187
213 331 37 120 148 185
214 328 36 115 143 178
214 329 36 105 140 189
215 328 36 95 143 193
215 329 36 97 141 193
214 330 36 106 140 191
214 330 37 130 143 174
214 331 37 158 148 153
215 330 36 102 138 191
215 330 37 159 147 150
215 331 37 187 151 126
212 332 37 119 145 183
212 333 37 125 145 179
213 332 37 138 149 180
213 333 37 167 150 150
212 333 38 144 138 172
213 333 38 168 147 160
212 334 38 170 121 158
212 335 38 186 84 132
213 334 38 193 142 121
213 335 38 198 104 94
214 332 37 175 158 152
214 333 37 205 154 102
215 332 37 201 153 103
214 333 38 212 156 89
215 332 38 206 146 86
215 333 38 213 150 66
214 334 38 211 146 69
214 335 38 210 138 69
214 335 39 219 164 61
215 334 38 222 158 67
215 334 39 226 166 78
215 335 39 223 163 74
216 320 34 120 150 194
216 321 34 132 154 192
217 320 34 121 151 196
217 321 34 135 157 194
216 322 34 147 156 185
216 322 35 159 155 172
216 323 34 174 152 145
216 323 35 168 140 126
217 322 34 141 157 188
217 322 35 148 154 177
217 323 34 145 149 170
217 323 35 133 135 153
218 320 34 117 151 197
218 321 34 129 153 197
219 320 34 120 151 198
219 321 34 128 154 200
218 322 34 119 148 189
218 322 35 115 146 190
218 323 35 115 149 189
219 322 34 112 149 192
219 322 35 110 143 188
219 323 35 134 161 199
216 324 35 180 145 107
216 325 35 159 144 131
217 324 35 128 132 153
217 325 35 115 135 174
216 326 35 131 142 162
217 326 35 95 132 181
218 324 35 125 155 195
218 325 35 121 152 197
219 324 35 134 160 199
219 325 35 116 148 192
216 326 36 109 141 182
216 327 36 91 135 191
217 326 36 104 137 187
217 327 36 78 129 191
218 325 36 122 155 201
219 325 36 118 152 198
218 326 36 107 136 186
218 327 36 139 136 157
219 326 36 131 143 177
219 327 36 159 146 156
219 327 37 171 146 137
220 320 34 114 149 197
220 321 34 126 150 190
220 321 35 132 156 194
221 320 34 109 138 185
221 321 34 82 122 168
221 321 35 109 138 180
220 322 34 124 153 189
220 322 35 118 146 186
220 323 35 134 158 197
221 322 35 120 149 187
221 323 35 124 152 194
222 320 34 79 117 170
222 321 35 90 127 175
223 320 35 98 131 179
223 321 35 114 144 184
222 322 35 119 148 188
223 322 35 117 148 188
221 323 36 128 157 198
222 322 36 115 149 191
222 323 36 128 155 195
223 322 36 124 154 196
223 323 36 132 158 197
223 323 37 127 153 192
220 324 35 132 158 199
221 324 35 130 158 198
220 325 36 125 152 192
221 324 36 133 158 194
221 325 36 131 149 179
221 325 37 142 148 165
220 326 36 138 147 175
220 327 37 178 149 130
221 326 36 138 148 174
221 326 37 151 149 163
221 327 37 186 159 141
221 327 38 202 158 112
222 324 36 137 157 189
222 324 37 137 148 177
222 325 37 156 157 171
223 324 37 137 148 183
223 325 37 161 156 168
223 325 38 166 156 165
222 326 37 166 152 150
222 326 38 196 161 127
222 327 38 203 159 107
223 326 38 207 162 107
223 327 38 208 157 89
223 327 39 212 155 64
216 328 36 109 137 177
216 329 36 135 142 168
216 329 37 168 147 145
217 328 36 130 136 162
217 329 36 167 148 148
217 329 37 166 147 145
216 330 37 180 146 127
216 331 37 201 151 100
217 330 37 188 144 113
217 331 37 203 149 96
217 330 38 204 153 101
217 331 38 211 156 93
218 328 36 159 139 143
218 328 37 174 146 134
218 329 37 192 155 126
219 328 37 188 148 115
219 329 37 202 159 116
219 329 38 208 157 102
218 330 37 203 158 113
218 330 38 209 157 100
218 331 38 214 154 87
218 331 39 218 155 81
219 330 38 214 157 86
219 330 39 226 163 72
219 331 39 220 155 75
216 332 37 207 152 91
216 332 38 212 152 86
216 333 38 221 155 71
217 332 38 219 157 72
217 333 38 220 155 73
216 334 38 223 159 76
216 335 39 221 159 84
217 334 38 223 161 80
217 334 39 223 161 80
217 335 39 219 154 81
218 332 38 218 150 77
218 332 39 217 150 79
218 333 39 218 151 75
219 332 39 220 157 82
219 333 39 219 154 78
218 334 39 223 161 82
220 328 37 190 144 104
220 328 38 202 149 91
220 329 38 214 158 87
220 329 39 217 156 78
221 328 38 217 162 88
221 328 39 217 155 78
221 329 39 219 155 78
220 330 39 219 159 78
220 331 39 220 157 79
221 330 39 218 158 74
221 331 39 219 157 81
222 328 38 222 166 84
222 328 39 224 165 87
222 329 39 218 158 79
223 328 39 222 164 79
223 329 39 220 159 82
217 335 40 219 155 82
219 332 40 224 165 90
219 333 40 220 159 85
218 334 40 224 161 84
218 335 40 221 158 82
219 334 40 220 159 85
219 335 40 219 158 85
219 335 41 218 155 82
221 330 40 218 156 76
221 331 40 221 160 82
223 328 40 219 160 74
223 329 40 217 158 85
222 330 40 213 152 73
222 331 40 220 159 78
223 330 40 214 155 82
223 330 41 214 152 83
223 331 40 219 160 81
223 331 41 216 159 81
220 332 40 222 165 93
220 333 40 222 162 92
220 333 41 216 158 92
221 332 40 215 155 85
221 333 40 214 153 85
221 333 41 217 158 86
220 334 40 216 159 89
220 334 41 216 158 91
220 335 41 214 154 82
221 334 41 215 159 90
220 335 42 211 151 82
221 334 42 215 156 92
221 335 42 213 151 89
221 335 43 214 155 89
222 332 40 219 160 83
222 332 41 217 159 84
222 333 41 217 160 86
223 332 41 212 155 83
223 333 41 216 160 85
223 332 42 209 152 82
223 333 42 218 162 85
222 334 42 219 163 92
222 334 43 228 172 99
222 335 42 217 158 95
222 335 43 217 157 92
223 334 42 221 165 91
223 334 43 218 161 98
223 335 43 219 160 97
223 335 44 216 161 94
211 323 48 111 117 127
209 325 48 111 118 128
208 327 48 123 108 110
209 326 48 119 119 127
209 326 49 116 115 123
209 327 48 124 114 118
209 327 49 120 107 108
209 327 50 122 105 102
210 324 48 114 119 128
210 324 49 110 116 124
210 325 48 108 116 126
210 325 49 108 116 126
211 324 48 113 118 126
211 324 49 113 118 126
211 325 49 109 116 125
210 325 50 109 116 127
211 324 50 117 122 131
211 325 50 114 120 131
211 325 51 116 124 135
210 326 49 111 115 124
210 326 50 110 112 119
210 327 50 119 104 101
210 327 51 126 107 98
211 326 50 112 117 126
211 326 51 115 116 122
211 327 51 124 113 110
211 326 52 116 117 123
211 327 52 123 111 108
211 327 53 124 113 111
213 321 48 126 129 136
212 322 48 114 120 131
212 323 48 98 108 120
212 323 49 108 114 124
213 322 48 118 123 132
213 322 49 104 111 122
213 323 49 107 114 125
212 323 50 116 121 131
213 323 50 102 111 124
213 323 51 108 118 131
214 320 48 128 130 135
214 321 48 119 122 130
214 321 49 114 119 128
215 320 48 135 134 139
215 320 49 133 134 140
215 321 49 119 122 131
214 321 50 107 114 125
215 320 50 129 131 138
215 321 50 112 118 129
215 321 51 105 113 124
214 322 49 106 114 125
214 322 50 101 111 123
214 322 51 105 114 126
214 323 51 102 114 129
215 322 51 107 115 127
214 323 52 109 120 133
214 323 53 112 122 136
215 322 52 111 118 130
215 322 53 112 122 135
215 323 52 110 119 132
215 323 53 110 120 133
215 323 54 105 118 133
215 323 55 101 115 132
212 324 50 121 125 134
212 324 51 119 126 138
212 325 51 115 125 137
213 324 51 118 127 139
212 325 52 112 122 135
212 325 53 107 119 133
213 324 52 117 127 140
213 324 53 110 123 137
213 325 52 116 126 139
213 325 53 102 115 131
213 325 54 95 110 125
212 326 52 111 116 123
212 326 53 113 117 126
212 327 53 122 115 114
212 327 54 121 117 118
213 326 54 102 114 127
213 326 55 100 111 125
213 327 54 110 118 129
213 327 55 110 116 126
214 324 52 116 125 138
214 324 53 108 121 136
214 324 54 100 114 131
214 325 54 94 110 128
214 325 55 96 110 127
215 324 54 96 112 130
215 324 55 98 114 131
215 325 55 98 113 131
214 326 55 101 113 127
213 327 56 106 114 126
214 325 56 110 120 135
215 324 56 100 115 132
215 325 56 107 119 134
215 325 57 118 126 138
214 326 56 111 120 133
214 326 57 119 127 138
214 327 56 112 120 131
214 327 57 119 125 135
215 326 57 121 128 140
214 327 58 125 129 138
215 326 58 127 132 141
215 326 59 122 128 139
215 327 58 126 129 137
215 327 59 124 127 136
215 327 60 118 124 134
215 327 61 114 121 131
215 327 62 107 118 133
215 327 63 98 114 132
208 328 48 122 84 89
208 328 49 123 70 77
208 329 48 121 65 73
208 329 49 118 53 54
209 328 49 121 79 80
208 329 50 121 60 47
209 328 50 125 86 65
209 328 51 132 90 56
209 329 50 123 68 44
209 329 51 134 89 44
208 330 49 119 49 40
208 330 50 122 56 38
208 330 51 126 68 31
208 331 50 125 40 35
208 331 51 129 62 38
209 330 51 138 92 41
210 328 50 126 97 79
210 328 51 136 101 72
210 329 51 143 99 54
208 331 52 142 93 46
209 330 52 151 107 57
209 331 52 145 98 51
209 331 53 150 106 62
210 328 52 140 110 87
210 329 52 151 113 79
211 328 52 137 111 96
211 328 53 133 114 105
211 329 53 145 119 103
211 329 54 136 115 101
210 330 52 155 114 71
210 330 53 152 115 81
210 331 52 154 112 66
210 331 53 154 116 79
211 330 53 147 118 98
210 331 54 153 120 92
211 330 54 138 114 101
211 330 55 135 111 92
211 331 54 144 117 99
211 331 55 131 108 94
208 332 51 127 54 41
208 332 52 135 78 43
208 332 53 144 98 50
208 333 52 131 73 39
208 333 53 142 95 53
209 332 53 151 106 61
209 333 53 152 108 63
209 332 54 155 117 77
209 333 54 152 113 72
209 333 55 144 110 76
208 334 53 139 91 47
208 334 54 143 100 60
208 335 54 143 101 60
208 335 55 150 114 78
209 334 54 149 111 72
209 334 55 145 111 80
209 335 55 148 116 87
210 332 54 150 117 88
210 332 55 140 113 94
210 333 55 144 115 89
211 332 55 132 111 99
212 328 54 129 117 109
212 328 55 119 119 124
212 329 54 136 118 104
212 329 55 127 116 110
213 328 55 114 118 126
212 330 55 128 110 97
211 331 56 133 111 98
209 335 56 145 109 78
209 335 57 146 114 84
210 333 56 143 118 99
211 332 56 138 114 92
211 332 57 124 112 104
211 333 56 138 115 96
211 333 57 128 113 101
210 334 56 147 118 92
210 334 57 138 113 88
210 335 57 141 113 87
211 334 57 132 111 92
210 335 58 132 111 90
211 334 58 114 108 105
211 334 59 107 107 112
211 335 58 122 107 93
211 335 59 109 108 110
211 335 60 115 117 124
211 335 61 112 117 126
211 335 62 108 115 125
212 329 56 113 114 119
213 328 56 112 117 126
213 328 57 116 121 130
213 329 56 119 122 130
213 329 57 117 122 130
212 330 56 113 109 110
212 331 56 117 109 107
212 331 57 110 112 118
213 330 56 119 121 128
213 330 57 115 119 127
213 331 57 107 113 122
213 330 58 116 121 129
213 331 58 112 117 125
213 331 59 117 120 127
214 328 57 118 123 133
214 328 58 125 128 135
214 328 59 127 128 133
214 329 58 121 123 130
214 329 59 127 128 134
215 328 58 124 125 132
215 328 59 126 127 133
214 330 58 122 125 131
214 330 59 119 122 129
214 331 59 118 120 127
213 331 60 113 117 124
214 328 60 132 131 134
214 329 60 131 130 136
214 329 61 133 132 137
215 328 60 126 127 134
215 328 61 121 124 132
215 329 61 129 129 135
215 328 62 114 121 132
215 328 63 105 116 130
215 329 62 123 125 132
215 329 63 115 120 129
214 330 60 124 125 131
214 330 61 131 130 135
214 331 60 117 119 124
214 331 61 123 124 129
215 330 61 135 133 137
214 330 62 133 132 136
214 331 62 129 128 132
214 331 63 128 128 133
215 330 62 132 131 136
215 330 63 125 127 133
215 331 63 126 126 132
212 332 56 120 108 104
212 332 57 111 112 117
212 333 57 115 112 113
212 332 58 111 114 121
212 333 58 112 114 118
212 333 59 116 119 126
213 332 58 113 116 124
213 332 59 116 119 127
213 333 59 114 118 126
212 334 58 116 117 122
212 334 59 116 118 123
212 335 59 117 119 126
212 333 60 111 116 124
212 333 61 110 115 124
213 332 60 111 116 125
213 332 61 114 117 125
213 333 60 111 116 125
213 333 61 113 117 126
213 333 62 122 123 129
213 333 63 126 125 129
212 334 60 115 119 127
212 334 61 113 118 126
212 334 62 115 118 126
212 334 63 121 122 126
212 335 62 116 118 126
212 335 63 116 118 124
214 332 61 118 119 125
214 332 62 125 124 128
214 332 63 129 127 130
214 333 63 128 126 129
216 320 49 138 138 144
216 320 50 128 130 137
216 320 51 118 123 132
216 321 51 107 115 125
217 320 51 113 121 132
216 321 52 105 115 128
216 321 53 112 122 135
217 320 52 108 118 131
217 320 53 109 120 134
217 321 53 112 122 136
216 321 54 113 123 137
217 320 54 111 121 135
217 321 54 111 122 136
217 321 55 109 120 135
216 322 53 114 123 137
216 322 54 109 121 135
216 322 55 105 118 134
216 323 54 103 117 133
216 323 55 102 116 133
217 322 55 109 120 135
218 320 53 109 118 131
218 320 54 109 119 132
218 320 55 106 117 131
218 321 55 107 119 134
219 320 54 108 117 130
219 320 55 105 116 130
217 321 56 114 123 137
217 321 57 104 117 133
216 323 56 99 114 132
216 323 57 98 113 129
217 322 56 112 122 137
217 322 57 104 117 132
217 323 56 108 119 135
217 323 57 99 114 132
217 322 58 98 114 132
217 322 59 87 107 128
217 323 58 93 111 131
217 323 59 89 108 128
218 320 56 103 116 132
218 320 57 100 114 132
218 321 56 110 121 135
218 321 57 102 115 132
219 320 56 99 114 130
219 320 57 95 112 130
218 320 58 96 112 130
218 320 59 85 105 126
218 321 58 97 113 131
218 321 59 89 109 129
219 320 58 89 106 125
218 322 58 95 111 129
217 321 60 80 104 127
217 320 63 97 111 128
217 321 63 99 114 131
217 322 60 81 104 127
217 322 61 81 104 126
217 323 60 83 105 127
217 323 61 83 106 127
217 322 62 89 108 128
217 322 63 96 113 132
217 323 62 86 107 129
217 323 63 92 111 132
218 320 60 83 104 125
218 320 61 83 103 123
218 321 60 84 106 128
218 321 61 82 104 125
218 320 62 90 107 126
218 321 62 90 108 127
218 322 62 84 105 127
216 324 56 99 114 131
216 324 57 98 112 128
216 325 57 111 121 135
216 324 58 94 109 125
216 324 59 92 109 127
216 325 58 116 124 136
216 325 59 104 116 131
217 324 58 91 109 129
217 324 59 89 108 128
216 326 58 126 132 142
216 326 59 111 120 134
216 325 60 101 115 132
216 325 61 98 113 131
217 324 60 88 108 128
217 324 61 87 107 127
217 325 60 98 113 130
217 325 61 93 110 129
216 324 63 90 110 131
216 325 62 90 110 130
216 325 63 89 109 130
217 324 62 86 108 129
217 324 63 90 110 131
216 326 60 109 119 132
216 326 61 103 116 132
216 327 60 111 118 129
216 327 61 110 119 132
216 326 62 99 114 131
216 326 63 91 109 128
216 327 62 106 117 132
216 327 63 98 112 129
208 336 38 158 139 153
208 337 38 150 148 162
208 337 39 141 148 165
209 336 38 143 142 169
209 337 38 146 134 164
209 337 39 156 119 156
208 338 39 140 139 160
208 339 39 158 120 150
209 338 39 175 91 139
209 339 39 185 58 116
210 336 38 162 115 154
210 337 38 176 98 146
210 337 39 188 77 134
211 336 38 188 86 136
211 337 38 195 76 129
211 337 39 200 76 123
210 338 39 194 60 121
210 339 39 197 55 108
211 338 39 203 87 120
211 339 39 202 102 108
208 340 39 174 92 135
209 340 39 190 51 105
210 340 39 198 58 108
211 340 39 201 91 113
212 336 38 197 72 126
212 337 39 198 72 126
213 336 38 191 64 83
213 336 39 188 69 66
213 337 39 199 106 90
212 338 39 203 109 119
212 339 39 202 113 108
213 338 39 205 131 101
213 339 39 202 120 98
214 336 38 199 113 47
214 336 39 210 140 69
214 337 39 208 133 82
215 336 39 220 160 82
215 337 39 213 146 78
214 338 39 208 132 87
208 341 40 185 53 112
209 340 40 193 45 99
209 341 40 195 45 95
208 342 40 191 28 94
208 343 41 198 41 94
209 342 40 198 49 94
209 343 40 198 50 92
209 343 41 200 52 103
210 340 40 200 62 111
210 341 40 200 67 115
211 340 40 201 86 126
211 341 40 198 80 111
210 342 40 201 68 114
210 343 41 198 72 114
211 342 40 195 70 109
211 342 41 194 64 107
211 343 41 195 65 109
212 339 40 200 108 106
213 339 40 203 122 101
215 337 40 209 142 72
214 338 40 210 133 90
214 339 40 208 131 96
214 339 41 206 123 90
215 338 40 210 137 76
215 339 40 209 134 84
215 339 41 210 136 84
212 340 40 203 108 129
212 341 40 202 105 109
213 340 40 206 124 105
213 341 40 205 117 110
213 341 41 203 116 104
212 342 40 196 77 102
212 342 41 199 85 107
212 343 41 200 69 110
213 342 41 203 114 108
213 343 41 204 102 110
213 343 42 203 93 109
214 340 40 210 138 105
214 340 41 210 133 94
214 341 41 208 124 91
215 340 41 211 136 82
214 341 42 211 134 94
215 340 42 197 117 63
215 341 42 206 124 85
214 342 41 203 101 93
214 342 42 205 108 99
214 343 42 206 107 101
214 343 43 200 94 96
215 342 42 189 74 92
215 342 43 192 84 82
215 343 43 187 64 89
215 343 44 185 69 84
208 344 41 194 43 91
208 345 41 191 47 93
209 344 41 199 46 102
209 345 41 193 38 97
208 346 41 192 45 95
208 346 42 194 43 97
208 347 42 198 50 103
209 346 42 196 41 97
209 347 42 199 50 101
210 344 41 203 68 118
210 345 41 200 64 115
211 344 41 199 68 115
210 345 42 203 77 123
211 345 42 199 70 118
210 346 42 200 64 112
210 347 42 202 77 118
211 346 42 199 73 119
211 347 42 203 78 124
211 347 43 202 76 123
208 348 42 197 53 102
208 349 42 195 55 100
208 349 43 196 61 104
209 348 42 201 59 106
209 349 43 199 50 100
208 350 43 200 66 112
208 351 43 201 58 110
209 350 43 200 63 110
209 351 43 201 64 113
210 348 42 201 63 110
210 348 43 205 66 120
210 349 43 200 61 113
211 348 43 201 72 120
211 349 43 203 73 121
210 350 43 202 70 118
210 351 43 203 62 112
211 350 43 206 75 124
210 350 44 203 73 122
210 351 44 203 77 122
211 350 44 206 81 126
211 351 44 201 73 118
212 344 41 201 68 118
212 344 42 203 73 120
212 345 42 200 73 120
213 344 42 201 78 109
213 345 42 198 66 108
213 345 43 197 67 104
212 346 42 198 67 117
212 346 43 201 74 120
212 347 43 200 74 118
213 346 43 199 72 114
213 347 43 200 77 120
214 344 43 194 77 107
214 345 43 197 79 108
214 346 43 196 69 106
213 347 44 199 75 119
214 345 44 189 69 117
215 344 44 183 58 105
215 345 44 188 75 115
215 345 45 187 80 116
214 346 44 193 76 114
214 347 44 195 76 118
214 347 45 183 76 117
215 346 44 190 77 123
215 346 45 187 80 122
215 347 45 184 75 122
215 347 46 186 81 123
212 348 43 198 70 117
212 349 43 200 72 118
212 348 44 196 66 113
212 349 44 199 73 118
213 348 44 198 71 117
213 349 44 199 75 119
213 349 45 197 74 120
212 350 44 201 75 121
212 350 45 200 74 119
212 351 44 200 76 120
212 351 45 199 76 120
213 350 44 201 79 122
213 350 45 195 77 120
213 351 45 197 81 123
214 348 44 186 76 112
214 348 45 185 78 115
214 349 45 183 75 114
214 349 46 183 81 118
215 348 46 182 81 120
215 348 47 180 87 120
215 349 46 180 87 122
215 349 47 183 94 124
214 350 46 182 76 115
214 351 46 182 84 120
215 350 46 178 82 118
215 350 47 182 89 122
215 351 47 177 78 117
216 336 39 218 157 83
216 336 40 219 159 82
216 337 40 215 154 76
217 336 40 220 160 81
217 336 41 218 157 78
217 337 40 219 161 80
217 337 41 218 157 76
216 338 41 216 151 76
216 339 41 215 151 80
217 338 41 215 159 77
217 339 41 217 159 78
216 339 42 211 140 76
217 338 42 214 155 77
217 339 42 218 158 79
218 336 40 220 159 82
218 336 41 216 157 77
218 337 41 215 156 80
219 336 41 214 152 70
219 337 41 212 153 79
219 337 42 211 151 77
218 338 42 210 151 75
218 339 42 215 153 78
218 339 43 211 152 78
219 338 42 210 153 74
219 339 43 207 149 76
216 340 42 212 151 79
216 341 42 208 145 89
216 341 43 207 146 93
217 340 42 214 154 79
217 340 43 212 151 77
217 341 43 209 151 84
216 342 43 205 132 83
217 342 43 208 152 93
218 340 43 213 152 82
218 341 43 209 148 81
219 340 43 211 152 84
216 342 44 198 137 90
216 343 44 191 112 80
217 342 44 205 153 91
217 343 44 196 137 84
217 343 45 198 146 80
218 341 44 208 147 79
219 340 44 213 155 87
219 341 44 206 148 85
218 342 44 208 154 85
218 343 45 203 155 82
219 342 44 208 155 76
219 342 45 206 152 77
219 343 45 204 153 77
219 343 46 201 151 77
220 336 41 215 157 74
220 336 42 213 154 80
220 337 42 212 153 79
220 337 43 210 153 80
221 336 43 203 143 85
221 337 43 202 143 80
220 338 43 209 152 75
220 339 43 204 145 72
221 338 43 206 150 76
222 336 43 215 158 89
221 337 44 199 145 81
220 339 44 206 147 72
221 338 44 204 151 76
221 338 45 202 153 83
221 339 44 206 151 71
221 339 45 199 144 70
222 336 44 207 152 86
222 337 44 204 151 88
222 337 45 209 161 99
223 336 44 216 162 91
223 336 45 211 160 90
223 337 45 211 163 99
223 337 46 212 164 102
222 338 45 204 157 94
222 339 45 199 146 75
222 338 46 207 160 99
222 339 46 206 157 95
222 339 47 213 164 96
223 338 46 203 155 98
223 338 47 209 158 100
223 339 47 209 159 90
220 340 44 210 153 81
220 341 44 208 152 84
220 341 45 205 150 82
221 340 44 208 152 73
221 340 45 208 156 79
221 341 45 203 150 77
220 341 46 200 145 78
221 341 46 200 148 76
220 342 45 204 148 80
220 342 46 205 152 82
220 343 46 203 150 79
220 343 47 202 149 83
221 342 46 202 150 80
221 342 47 200 153 85
221 343 47 197 145 77
222 340 46 208 159 88
222 340 47 206 159 89
222 341 46 201 151 82
222 341 47 199 152 84
222 342 47 196 151 86
216 344 44 185 90 86
216 344 45 182 80 97
216 345 45 186 84 102
217 344 45 191 132 89
217 345 46 192 127 93
216 346 45 187 82 113
216 346 46 186 94 101
216 347 46 187 87 116
217 346 46 187 108 89
217 346 47 188 114 81
217 347 47 184 94 87
218 344 45 197 152 85
218 344 46 202 157 91
218 345 46 200 153 96
218 345 47 199 151 79
219 344 46 199 149 73
219 344 47 202 153 78
219 345 47 196 149 75
218 346 46 194 137 82
218 346 47 197 144 85
218 347 47 193 129 81
219 346 47 197 153 92
216 348 46 184 86 121
216 348 47 181 82 107
216 349 47 185 90 121
217 348 47 182 93 79
216 350 47 188 95 129
216 351 47 183 82 124
220 344 46 197 143 70
220 344 47 202 148 78
208 336 55 140 93 52
208 337 55 137 86 46
208 336 56 144 105 66
208 337 56 142 99 59
209 336 56 143 105 70
209 336 57 148 114 84
209 337 57 146 115 87
209 337 58 136 109 85
208 338 56 143 99 69
208 338 57 140 109 83
208 339 57 130 105 88
209 338 57 136 111 92
208 339 58 124 110 103
208 339 59 119 113 112
209 338 58 128 107 89
209 338 59 120 106 97
209 339 58 124 108 100
209 339 59 119 110 107
210 336 57 145 114 87
210 336 58 135 113 91
210 336 59 116 105 96
210 337 58 132 109 87
210 337 59 117 103 93
211 336 59 109 102 98
210 338 59 117 103 93
209 338 60 110 105 103
209 339 60 112 111 113
209 339 61 108 111 117
210 336 60 100 103 109
210 337 60 105 103 105
210 337 61 96 102 111
211 336 60 102 103 108
211 336 61 102 109 119
211 337 61 93 101 112
210 337 62 96 105 118
211 336 62 105 111 121
211 336 63 99 108 119
211 337 62 98 107 119
211 337 63 95 107 121
210 338 60 109 105 105
210 338 61 101 106 114
210 339 61 107 109 116
210 338 62 96 105 117
210 338 63 92 105 121
210 339 62 99 108 120
210 339 63 94 106 120
211 338 63 100 109 121
208 340 58 120 110 109
208 340 59 117 111 113
208 341 59 115 115 121
208 340 60 110 111 118
208 341 60 109 115 126
208 341 61 107 114 125
209 340 60 109 111 119
209 340 61 103 111 123
209 341 61 105 112 124
209 340 62 101 111 124
209 341 62 103 111 123
209 341 63 101 111 125
208 342 60 114 116 123
208 342 61 114 114 119
208 343 61 123 107 92
208 342 62 114 113 116
208 343 62 119 109 102
208 343 63 113 108 108
209 342 62 109 111 118
209 342 63 108 113 122
209 343 63 110 110 114
210 340 62 99 110 124
210 340 63 96 109 124
210 341 63 96 109 124
212 336 63 108 113 122
208 344 62 122 107 94
208 344 63 112 105 101
208 345 63 106 104 106
223 338 48 214 164 98
223 339 48 211 160 91
220 343 48 196 151 96
221 343 48 191 144 82
221 343 49 193 151 95
222 340 48 205 158 92
222 341 48 212 170 119
223 340 48 205 155 89
223 341 48 209 163 103
223 341 49 216 171 115
222 342 48 203 161 108
222 342 49 206 163 110
222 343 48 187 141 73
222 343 49 199 157 101
223 342 49 211 168 113
222 343 50 211 169 116
223 342 50 213 162 94
223 343 50 209 163 102
223 343 51 214 169 109
219 345 48 191 144 70
218 346 48 202 153 86
218 347 48 195 138 71
219 346 48 195 151 90
219 346 49 194 151 91
219 347 48 191 145 69
219 347 49 196 151 80
216 349 48 184 85 115
217 348 48 179 85 80
217 349 48 177 74 84
216 350 48 191 92 130
216 351 48 188 87 127
217 350 48 184 79 108
217 350 49 181 74 100
217 351 48 187 85 123
217 351 49 186 86 121
218 348 48 192 129 60
218 349 48 182 104 56
218 349 49 180 110 47
219 348 49 204 159 88
219 349 49 192 144 57
218 350 49 177 104 42
218 351 49 183 74 91
219 350 49 188 139 34
218 351 50 179 96 46
219 350 50 188 136 31
219 351 50 186 124 34
220 344 48 196 149 82
220 345 48 187 141 66
220 345 49 186 144 86
221 344 48 195 152 94
221 344 49 197 157 107
221 345 49 188 149 98
221 345 50 197 159 115
220 346 49 189 150 101
220 347 49 188 143 74
221 346 49 188 149 102
220 347 50 190 145 76
221 346 50 192 155 114
221 347 50 184 145 93
221 347 51 187 149 105
222 344 50 212 174 128
222 345 50 202 165 121
222 345 51 207 170 128
223 344 51 215 173 123
223 345 51 211 171 126
222 346 50 196 161 121
222 346 51 206 170 133
222 347 51 191 157 120
223 346 51 210 175 138
222 347 52 189 154 116
223 346 52 208 174 140
223 347 52 199 167 136
220 348 49 206 159 88
220 349 49 207 159 84
220 348 50 205 159 89
220 349 50 212 162 84
221 348 50 201 155 89
221 348 51 194 151 94
221 349 50 207 156 81
221 349 51 204 154 82
220 350 50 205 153 65
220 351 50 191 133 37
220 351 51 199 145 52
221 350 51 205 153 77
221 351 51 205 155 77
222 348 51 194 155 107
222 349 51 199 154 93
221 351 52 205 157 84
222 348 52 195 160 120
222 349 52 196 158 112
223 348 52 200 167 134
223 349 52 194 159 119
223 349 53 209 172 132
222 350 52 200 157 102
222 351 52 201 157 98
222 351 53 189 149 97
223 350 53 202 163 121
223 351 53 185 149 106
