ply
format ascii 1.0
comment Version 2, Copyright 2017, 8i Labs, Inc.
comment frame_to_world_scale 0.179523
comment frame_to_world_translation -45.2095 7.18301 -54.3561
comment width 1023
element vertex 112
property float x
property float y
property float z
property uchar red
property uchar green
property uchar blue
end_header
220 375 288 70 89 109
221 374 288 67 89 109
221 375 288 65 88 109
221 375 289 68 90 110
221 375 290 69 91 110
222 373 288 71 94 117
223 372 288 37 75 107
223 373 288 61 88 114
223 373 289 50 81 109
222 374 288 66 90 112
222 374 289 63 88 111
222 375 289 67 88 108
223 374 289 58 85 111
222 374 290 60 86 110
222 375 290 67 89 110
222 375 291 65 88 110
223 374 290 59 84 109
223 374 291 59 85 111
223 375 291 62 87 111
222 375 292 65 90 112
223 374 292 61 86 112
223 375 292 65 89 112
223 375 293 65 91 113
223 375 294 69 92 114
219 377 288 62 85 105
219 377 289 68 92 111
218 378 288 59 85 111
218 379 288 67 95 125
219 378 288 59 86 110
219 378 289 59 91 115
219 379 289 67 96 132
218 380 288 92 116 155
218 380 289 90 114 153
218 381 288 113 133 183
219 380 289 102 123 166
219 381 288 113 135 188
219 381 289 116 138 188
219 380 290 102 122 166
218 382 288 113 129 186
219 382 288 109 124 183
219 383 288 107 118 176
220 376 288 68 89 107
220 376 289 68 91 110
220 377 288 67 89 108
220 377 289 67 92 111
221 376 289 68 90 110
220 377 290 59 88 110
221 376 290 65 89 109
221 376 291 61 88 109
221 377 290 61 89 110
221 377 291 59 89 112
220 378 289 56 89 111
220 378 290 55 91 118
220 378 291 60 93 125
220 379 290 70 101 143
220 379 291 68 100 147
221 378 291 61 94 127
221 379 291 72 103 158
222 376 291 64 88 109
221 377 292 58 87 114
221 378 292 62 94 128
221 378 293 64 96 132
221 379 292 71 102 154
221 379 293 76 106 158
222 376 292 60 88 111
222 376 293 60 89 113
222 377 293 62 93 120
223 376 293 64 91 114
222 377 294 67 97 128
223 376 294 67 93 115
223 376 295 65 90 117
223 377 294 65 94 124
223 377 295 51 77 114
222 378 293 64 99 137
222 379 293 76 107 158
222 378 294 64 96 138
222 379 294 64 94 149
223 378 294 56 88 131
223 378 295 37 62 116
223 379 294 64 90 153
223 379 295 58 75 139
220 381 289 107 127 185
220 380 290 95 119 173
220 380 291 88 113 173
220 381 290 100 122 183
221 380 291 90 114 181
221 381 290 96 119 182
221 381 291 97 121 185
220 382 289 111 127 183
220 383 288 112 122 171
221 382 289 116 131 183
221 383 288 117 129 168
221 383 289 119 132 176
221 382 290 104 124 182
222 381 291 98 121 184
222 383 289 105 120 165
222 382 290 96 117 172
222 382 291 91 113 173
222 383 290 83 103 157
223 382 291 80 104 160
223 383 290 77 97 150
223 383 291 69 94 150
221 380 292 92 114 181
222 380 292 101 122 188
222 380 293 100 122 182
222 381 292 98 120 182
222 381 293 106 128 184
223 380 293 115 135 190
223 381 292 97 120 175
223 381 293 110 132 185
223 380 294 106 127 184
223 382 292 87 111 165
