ply
format ascii 1.0
comment Version 2, Copyright 2017, 8i Labs, Inc.
comment frame_to_world_scale 0.179523
comment frame_to_world_translation -45.2095 7.18301 -54.3561
comment width 1023
element vertex 1472
property float x
property float y
property float z
property uchar red
property uchar green
property uchar blue
end_header
192 640 35 99 154 202
192 641 35 92 153 204
193 640 35 89 147 192
193 641 35 93 154 203
192 642 35 89 154 206
192 643 35 88 152 203
193 642 35 91 154 206
193 643 35 85 149 200
194 640 35 77 129 177
194 641 35 92 152 200
195 640 35 79 136 185
195 641 35 91 149 197
194 642 35 90 153 204
194 643 35 85 149 199
195 642 35 83 147 199
195 643 35 76 140 190
193 642 36 94 154 205
193 643 36 91 153 204
194 643 36 80 145 196
192 644 35 86 150 202
192 645 35 87 153 205
193 644 35 78 138 191
195 644 35 71 134 182
192 645 36 89 154 207
193 644 36 75 134 187
193 645 36 82 142 193
192 646 36 90 155 208
192 647 36 88 155 207
193 646 36 92 155 205
193 647 36 95 158 210
194 644 36 63 126 178
194 645 36 78 132 182
195 644 36 80 137 181
195 645 36 88 143 188
194 646 36 93 154 203
194 647 36 97 160 212
195 646 36 88 148 198
195 647 36 94 159 211
196 640 35 86 146 194
196 641 35 86 145 195
197 640 35 84 148 197
197 641 35 89 149 199
196 642 35 76 137 188
196 643 35 85 140 185
197 642 35 86 142 190
197 643 35 92 146 192
198 640 35 89 149 195
198 641 35 90 151 200
198 642 35 88 150 198
198 643 35 80 140 190
198 640 36 92 132 166
199 640 36 98 132 165
199 641 36 95 148 193
198 642 36 85 149 198
198 643 36 78 143 193
199 642 36 91 148 195
199 643 36 87 147 196
196 644 35 100 151 191
197 644 35 82 144 190
196 644 36 93 146 187
196 645 36 77 137 184
197 644 36 80 142 190
197 645 36 77 144 193
196 646 36 72 130 186
196 647 36 89 154 204
197 646 36 79 144 198
197 647 36 85 147 200
198 644 36 77 141 192
198 645 36 83 149 201
199 644 36 83 145 195
199 645 36 85 147 197
199 645 37 84 145 194
198 646 36 83 149 201
198 647 36 81 146 197
199 646 37 86 145 193
199 647 37 83 143 193
192 648 36 83 151 203
192 649 36 76 144 198
193 648 36 88 156 209
193 649 36 83 151 206
192 650 36 81 150 203
192 651 36 86 154 208
193 650 36 85 154 208
193 651 36 87 155 210
194 648 36 94 159 211
194 649 36 87 155 207
195 648 36 95 156 208
195 649 36 86 149 199
194 650 36 82 148 200
194 651 36 87 153 204
195 650 36 77 127 181
195 651 36 86 145 194
192 652 37 83 153 207
192 653 37 82 148 202
193 652 36 90 159 213
193 652 37 91 160 214
193 653 37 92 158 211
192 654 37 86 152 206
192 655 37 88 156 209
193 654 37 94 160 214
193 655 37 92 158 212
194 652 36 90 157 211
194 652 37 92 160 214
194 653 36 95 160 212
194 653 37 95 160 213
195 652 36 96 159 209
195 653 36 99 161 211
195 653 37 97 158 206
194 654 37 95 160 212
194 655 37 86 154 206
195 654 37 94 156 204
195 655 37 72 132 187
196 648 36 94 153 203
196 649 36 80 143 194
197 648 36 82 145 194
197 649 36 81 141 190
196 650 36 69 124 178
196 651 36 92 142 188
197 650 36 89 142 188
197 651 36 87 139 184
198 648 36 80 139 189
198 648 37 83 142 188
198 649 36 88 141 188
198 649 37 88 143 187
199 648 37 82 142 189
199 649 37 82 139 187
198 650 36 96 147 191
198 650 37 97 147 189
198 651 36 87 139 183
198 651 37 77 131 180
199 650 36 91 143 187
199 650 37 79 137 186
199 651 37 79 139 188
199 650 38 78 137 186
199 651 38 77 140 189
196 652 36 99 160 206
196 653 36 95 156 205
196 653 37 94 156 205
197 652 36 79 140 187
197 653 36 85 145 196
197 653 37 76 129 181
196 654 37 79 139 188
196 655 37 68 127 182
197 654 37 91 146 190
197 655 37 85 140 187
198 652 37 74 133 182
198 653 37 77 136 185
199 652 37 82 142 192
199 653 37 81 142 192
199 652 38 80 142 192
199 653 38 81 141 191
198 654 37 88 144 191
198 655 37 94 148 194
199 654 37 82 143 193
199 655 37 82 145 196
199 654 38 81 141 191
199 655 38 84 146 194
200 640 36 113 127 154
200 640 37 116 93 120
200 641 36 99 142 180
200 641 37 102 132 166
200 640 38 126 87 114
200 641 38 103 126 158
201 640 38 128 94 118
201 640 39 117 89 99
201 641 38 110 111 132
201 641 39 109 92 106
200 642 36 93 148 194
200 642 37 97 145 187
200 643 37 89 142 187
200 642 38 99 139 178
200 643 38 91 139 182
200 643 39 90 130 168
201 642 38 104 128 163
201 642 39 110 108 133
201 643 39 92 122 153
200 644 37 81 135 183
200 645 37 78 137 186
200 644 38 83 137 183
200 644 39 77 125 164
200 645 38 80 137 186
200 645 39 73 128 173
201 645 39 78 129 172
200 646 37 83 142 190
200 647 37 81 142 192
200 646 38 82 143 192
200 646 39 77 133 178
200 647 38 84 143 191
200 647 39 81 141 188
201 646 39 79 135 179
201 647 39 81 139 185
201 640 40 108 90 98
201 640 41 109 87 92
201 641 40 113 88 99
201 641 41 118 86 100
201 642 40 111 96 119
201 642 41 110 77 100
201 643 40 86 108 135
201 643 41 95 94 117
202 640 41 111 89 93
202 641 41 123 71 82
202 640 42 113 98 105
202 640 43 137 136 141
202 641 42 112 55 79
202 641 43 109 81 92
202 642 42 115 47 66
202 642 43 114 60 67
202 643 42 100 73 85
202 643 43 103 62 58
202 640 44 149 150 158
202 641 44 127 115 118
202 641 45 148 145 151
203 640 44 149 153 162
203 640 45 147 151 162
203 641 45 148 146 154
203 640 46 133 140 153
203 640 47 122 131 146
203 641 46 148 150 161
203 641 47 147 150 161
202 642 44 94 45 47
202 642 45 100 82 77
202 643 44 106 60 52
202 643 45 98 59 60
202 642 46 111 97 99
202 643 46 100 67 70
203 642 46 131 125 130
203 642 47 136 131 138
203 643 46 107 78 81
203 643 47 98 70 75
201 644 40 84 126 162
201 644 41 87 124 157
201 645 40 79 129 172
201 645 41 77 131 173
201 644 42 85 120 146
201 646 40 78 132 176
201 646 41 76 132 175
201 647 40 75 130 174
201 647 41 72 130 173
201 646 42 81 130 171
201 647 42 79 129 166
202 644 42 87 113 134
202 644 43 82 88 107
202 645 42 78 129 167
202 645 43 80 121 152
202 646 42 81 130 169
202 646 43 78 127 163
202 647 42 85 130 166
202 647 43 84 128 163
202 644 44 91 70 95
202 644 45 105 79 96
202 645 44 79 115 144
202 645 45 81 101 123
202 644 46 106 64 84
202 645 46 75 65 91
203 644 46 102 38 73
203 644 47 101 46 71
203 645 46 78 18 57
203 645 47 99 47 79
202 646 44 77 124 159
202 646 45 80 116 143
202 647 44 77 123 157
202 647 45 79 115 144
202 646 46 93 109 131
202 647 46 87 107 131
203 646 46 96 97 114
203 646 47 91 78 92
203 647 46 96 102 122
203 647 47 87 77 91
200 648 37 82 142 190
200 649 37 78 136 185
200 648 38 83 143 191
200 648 39 83 143 191
200 649 38 82 141 189
200 649 39 84 143 191
201 648 39 80 141 189
201 649 39 80 141 189
200 650 38 80 139 187
200 650 39 81 139 186
200 651 38 78 140 189
200 651 39 78 140 188
200 652 38 80 143 192
200 652 39 80 144 193
200 653 38 81 142 191
200 653 39 84 144 193
200 654 38 82 142 191
200 654 39 85 144 193
200 655 38 87 147 196
200 655 39 83 144 191
201 648 40 76 130 175
201 648 41 73 126 169
201 649 40 94 141 181
201 649 41 93 137 175
201 648 42 80 129 167
201 649 42 82 127 164
201 650 40 98 142 181
201 650 41 100 140 176
201 651 40 73 129 172
201 651 41 73 123 165
201 650 42 91 133 170
201 651 42 87 131 167
202 648 42 75 124 161
202 648 43 75 123 158
202 649 42 77 124 161
202 649 43 76 124 160
202 650 42 82 128 165
202 650 43 80 123 156
202 651 43 78 118 152
202 648 44 76 119 153
202 648 45 80 110 140
202 649 44 81 117 147
202 649 45 79 111 139
203 649 45 82 105 131
203 648 46 84 96 121
203 648 47 94 71 94
203 649 46 80 80 103
203 649 47 112 31 56
202 650 44 81 117 146
202 650 45 79 106 131
202 651 44 76 105 134
203 650 45 83 97 120
203 651 45 76 91 112
203 650 46 77 75 95
203 651 46 78 85 99
200 653 40 86 143 189
201 652 40 79 136 180
201 652 41 79 129 170
201 653 40 84 138 182
201 653 41 86 132 170
201 652 42 84 127 162
201 653 42 86 122 154
200 654 40 80 135 179
200 655 40 74 127 170
201 654 40 81 133 176
201 654 41 84 123 158
201 655 40 78 124 163
201 655 41 86 117 148
201 654 42 81 113 143
202 652 43 82 110 143
202 653 42 83 116 144
202 653 43 77 88 114
202 654 42 78 102 126
202 654 43 80 80 96
202 655 42 81 94 115
202 655 43 78 61 68
203 654 43 77 61 71
203 655 43 71 45 49
202 652 44 69 95 126
202 653 44 70 81 108
203 652 44 66 78 106
203 652 45 55 55 86
203 653 44 67 49 72
203 653 45 60 41 60
203 652 46 53 66 92
203 654 44 63 24 38
203 654 45 80 31 43
203 655 44 75 39 35
204 648 47 116 40 49
204 649 47 85 46 79
204 650 46 59 59 75
204 650 47 54 48 68
204 651 46 65 85 103
205 650 47 61 58 68
205 651 47 80 89 99
204 652 46 78 93 110
204 653 46 77 70 85
205 652 47 102 111 122
205 653 46 79 83 99
205 653 47 107 111 122
204 654 45 83 64 58
204 655 44 70 25 28
204 655 45 100 84 77
205 655 45 122 115 113
204 654 46 91 86 82
205 654 46 105 102 103
205 654 47 121 120 124
205 655 46 129 127 129
206 653 47 119 122 129
206 654 47 127 126 130
206 655 47 134 135 141
203 640 48 124 131 144
203 640 49 130 135 147
203 641 48 141 145 157
203 641 49 135 140 152
203 642 48 142 144 151
203 642 49 137 140 150
203 643 48 102 90 90
203 643 49 102 95 98
203 644 48 94 44 52
203 645 48 95 36 59
203 646 48 92 51 70
203 647 48 84 49 66
204 640 49 131 135 144
204 641 49 136 140 152
204 640 50 129 131 140
204 640 51 126 129 138
204 641 50 130 134 143
204 641 51 128 132 141
205 641 51 130 134 142
204 642 49 132 137 147
204 643 49 103 100 108
204 642 50 126 130 140
204 642 51 126 130 140
204 643 50 107 109 116
205 642 51 124 129 139
205 643 51 117 121 130
205 640 52 121 126 135
205 641 52 129 133 142
205 642 52 127 132 141
205 643 52 122 127 136
206 640 53 121 126 136
206 641 52 125 130 140
206 641 53 126 129 138
207 641 53 126 128 136
207 640 54 125 130 139
207 641 54 125 127 135
206 642 52 127 131 141
206 642 53 127 131 140
206 643 52 124 128 137
207 642 53 128 131 139
207 643 53 129 133 142
204 644 49 93 61 75
204 645 48 100 47 70
204 645 49 96 52 73
204 644 50 92 80 90
204 645 50 100 78 93
205 644 50 91 90 98
205 644 51 99 99 106
205 645 50 92 70 84
205 645 51 101 92 101
204 646 48 89 52 70
204 646 49 86 59 75
204 647 48 76 36 55
204 647 49 75 61 72
205 647 49 69 75 83
205 646 50 92 84 93
205 647 50 84 91 99
206 644 51 103 105 111
206 645 51 102 97 103
206 646 50 95 94 102
206 646 51 107 105 112
206 647 50 94 102 111
206 647 51 110 115 124
207 646 51 118 121 127
207 647 51 118 124 132
206 644 52 119 122 130
206 645 52 109 110 115
207 644 52 127 129 138
207 644 53 128 132 140
207 645 52 126 128 135
207 645 53 126 128 135
207 646 52 123 125 132
207 647 52 128 133 143
204 648 48 82 39 51
204 649 48 70 21 25
205 648 49 77 73 74
205 649 48 84 63 60
205 649 49 97 90 86
205 650 48 92 82 90
205 651 48 106 108 113
206 648 49 103 102 104
206 649 49 117 111 109
206 648 50 104 109 116
206 649 50 143 145 154
207 648 50 118 123 130
207 648 51 120 125 134
207 649 50 130 129 133
206 650 48 108 105 106
206 650 49 119 116 117
206 651 48 118 121 127
206 651 49 124 125 130
207 650 49 131 128 129
207 651 49 127 129 135
207 650 50 135 133 135
207 651 50 130 130 134
206 652 48 124 127 135
206 652 49 128 132 140
206 653 48 124 126 133
207 652 48 123 128 137
207 652 49 125 130 139
207 653 48 122 124 131
207 653 49 116 121 129
206 654 48 128 127 131
207 654 48 124 124 129
207 655 48 133 133 139
207 655 49 130 131 136
192 656 37 87 155 208
192 657 37 82 149 204
193 656 37 90 158 212
193 657 37 87 155 210
192 658 37 84 150 204
192 659 37 91 158 209
193 658 37 93 160 213
193 659 37 95 161 213
192 659 38 92 159 211
193 659 38 95 160 213
194 656 37 81 147 203
194 657 37 90 157 212
195 656 37 77 143 199
195 657 37 91 158 211
194 658 37 96 161 213
194 659 37 98 162 213
195 658 37 95 159 210
195 659 37 82 146 198
194 659 38 98 161 212
195 659 38 96 157 205
192 660 38 92 159 212
192 661 38 91 159 212
193 660 38 97 160 212
193 661 38 82 147 202
192 662 38 87 157 212
192 663 38 83 153 210
193 662 38 78 143 201
193 663 38 89 158 213
194 660 38 93 156 206
194 661 38 72 128 184
195 660 38 91 143 192
195 661 38 87 143 189
194 662 38 83 150 202
194 663 38 93 159 213
195 662 38 86 150 199
195 663 38 90 157 211
196 656 37 87 154 206
196 657 37 97 161 213
197 656 37 81 144 195
197 657 37 86 155 209
196 658 37 81 151 205
196 659 37 65 131 191
197 658 37 87 153 209
197 659 37 82 152 209
197 659 38 79 153 210
198 656 37 81 141 192
198 657 37 83 147 199
198 657 38 82 145 196
199 656 38 86 148 198
199 657 38 84 146 197
199 657 39 86 144 193
198 658 37 88 153 206
198 658 38 85 148 199
198 659 38 85 149 201
199 658 38 87 146 197
199 659 38 87 145 195
196 660 37 75 144 199
196 660 38 92 149 196
196 661 38 95 150 193
197 660 38 83 148 200
197 661 38 93 150 198
196 662 38 69 135 189
196 663 38 76 145 202
197 662 38 85 152 203
197 663 38 86 156 211
198 660 38 82 145 198
198 661 38 83 146 201
199 660 38 85 143 192
199 661 38 86 150 203
199 661 39 88 148 198
198 662 38 85 155 209
198 662 39 89 160 212
198 663 38 92 159 212
198 663 39 96 158 207
199 662 39 93 149 195
199 663 39 99 144 185
192 664 38 90 158 214
192 665 39 92 160 214
193 664 38 94 161 215
193 665 39 92 159 211
192 666 39 90 159 212
192 667 39 89 157 209
193 666 39 85 150 202
193 667 39 81 142 193
194 664 38 93 160 215
194 664 39 92 158 214
194 665 39 82 148 203
195 664 38 88 157 213
195 664 39 85 154 210
195 665 39 78 146 201
194 666 39 61 127 184
194 667 39 72 131 180
195 666 39 75 145 196
195 667 39 81 142 184
192 668 39 68 131 188
192 669 39 62 134 190
193 668 39 89 144 189
193 669 39 68 133 178
192 670 39 84 154 205
192 671 39 92 155 201
193 670 39 92 142 180
193 671 39 118 124 153
194 668 39 127 155 187
194 669 39 101 111 139
195 668 39 118 132 158
195 669 39 142 90 120
194 670 39 122 85 115
194 671 39 152 51 76
195 670 39 144 39 75
195 671 39 153 29 58
196 664 38 79 152 209
196 664 39 85 156 212
196 665 39 86 155 207
197 664 39 92 159 212
197 665 39 89 152 198
196 666 39 84 142 186
196 667 39 93 125 160
197 666 39 99 128 163
197 667 39 127 83 118
198 664 39 98 153 196
198 665 39 104 117 157
199 664 39 106 124 158
199 665 39 139 75 113
198 666 39 140 73 100
198 667 39 151 54 79
199 666 39 173 49 80
199 667 39 164 56 76
196 668 39 129 87 117
196 669 39 150 71 105
197 668 39 142 49 81
197 669 39 150 58 90
196 670 39 149 67 97
196 671 39 146 56 81
197 670 39 148 76 101
198 668 39 156 52 83
198 669 39 148 64 89
199 668 39 164 64 80
192 671 40 97 154 194
194 671 40 166 30 47
195 671 40 163 43 73
199 667 40 165 80 94
196 671 40 148 82 89
197 670 40 150 100 115
197 671 40 160 133 140
198 669 40 153 102 116
199 668 40 160 103 114
199 669 40 174 145 154
198 670 40 165 137 148
198 671 40 175 166 177
199 670 40 183 167 176
199 671 40 187 180 189
199 671 41 187 181 191
200 656 39 87 146 193
200 657 38 87 144 192
200 657 39 84 138 184
200 658 39 79 129 178
200 659 39 80 127 175
200 660 39 86 136 183
200 661 39 91 138 181
200 662 39 98 127 161
200 663 39 106 114 145
201 663 39 126 109 138
200 656 40 82 133 174
200 657 40 87 125 164
201 656 40 84 124 159
201 656 41 74 105 135
201 657 40 86 113 145
201 657 41 84 94 128
200 658 40 84 111 156
201 658 40 102 101 142
201 658 41 85 76 113
201 659 40 103 103 141
201 659 41 90 78 96
202 656 41 71 80 108
202 656 42 77 66 86
202 657 42 72 57 88
203 656 42 56 29 53
203 656 43 66 34 40
203 657 42 51 31 61
203 657 43 40 33 42
202 658 41 71 53 80
202 659 41 92 86 96
202 658 42 82 71 89
202 659 42 108 98 105
203 658 42 89 87 93
203 658 43 82 87 100
203 659 42 112 104 105
203 659 43 116 115 122
203 656 44 79 55 49
200 660 40 85 125 166
200 661 40 95 129 166
201 660 40 104 99 124
201 661 40 111 111 134
200 662 40 104 120 152
201 662 40 125 109 132
201 663 40 136 109 129
202 660 41 112 92 101
202 661 41 132 104 110
202 660 42 130 110 114
202 661 42 143 112 116
203 660 42 136 104 103
203 660 43 139 137 142
203 661 42 144 133 136
203 661 43 146 144 149
202 662 40 138 112 127
202 662 41 146 115 120
202 663 40 142 116 130
202 663 41 151 132 135
203 663 41 146 146 152
203 662 42 142 138 143
203 663 42 136 142 156
204 657 43 67 75 85
204 658 43 95 107 121
204 659 43 121 128 139
204 656 44 89 74 65
204 656 45 109 99 93
204 657 44 96 97 101
205 656 45 121 115 113
205 657 44 120 124 132
205 657 45 129 128 133
205 656 46 136 133 135
205 657 46 136 135 140
204 658 44 110 120 132
204 659 44 124 132 145
205 658 44 122 130 143
205 658 45 130 136 146
205 659 44 124 134 147
205 659 45 125 134 147
206 656 46 138 137 142
206 656 47 137 138 145
206 657 46 135 135 141
207 656 47 136 138 145
207 657 47 130 132 140
206 659 45 126 134 146
206 658 46 129 133 142
206 658 47 128 130 138
206 659 46 125 131 141
207 658 46 127 130 139
207 658 47 128 130 137
207 659 47 125 128 136
204 660 43 140 143 151
204 661 42 144 146 153
204 661 43 145 145 152
205 661 43 144 145 151
204 662 42 135 139 149
204 662 43 136 141 151
204 663 42 129 137 150
204 663 43 133 141 153
205 662 43 139 141 148
205 663 43 135 140 150
204 660 44 135 140 151
205 660 44 133 138 147
205 661 44 139 140 146
205 662 44 138 138 144
205 663 44 136 138 146
206 660 45 124 130 140
206 661 44 135 136 141
206 661 45 132 134 140
206 660 46 120 126 136
206 661 46 129 131 138
207 660 46 122 126 134
207 660 47 124 127 135
207 661 46 133 133 139
207 661 47 132 132 138
206 662 44 135 135 142
206 662 45 135 135 141
206 663 44 132 135 142
206 663 45 133 135 143
207 663 45 132 135 143
207 662 46 137 136 142
207 662 47 139 137 141
207 663 46 137 137 143
207 663 47 140 139 144
200 664 39 121 99 128
200 665 39 153 68 97
200 666 39 164 95 99
200 665 40 153 117 130
201 664 40 139 112 132
201 665 40 156 127 139
200 666 40 169 138 146
200 667 40 172 131 138
201 666 40 169 144 152
201 667 40 173 153 162
202 664 40 143 117 131
202 664 41 156 137 146
202 665 40 184 177 186
202 665 41 162 152 163
203 664 41 145 146 156
203 665 41 160 158 169
203 664 42 128 137 152
203 665 42 132 142 159
202 666 40 169 155 164
202 666 41 163 158 170
202 667 40 171 159 168
202 667 41 172 162 172
203 666 41 157 158 171
203 667 41 170 168 178
203 667 42 167 167 178
200 668 40 181 156 163
200 669 40 193 179 186
201 668 40 183 164 172
201 669 40 191 177 183
201 669 41 190 180 187
200 670 40 194 185 193
200 670 41 195 188 195
200 671 41 187 184 194
201 670 41 190 184 192
201 671 41 188 184 193
201 671 42 184 181 192
202 668 41 179 169 178
202 669 41 188 181 189
203 668 41 178 175 184
203 668 42 180 178 187
203 669 42 186 183 192
202 670 41 189 183 191
202 670 42 188 183 191
202 671 42 185 181 191
203 670 42 187 184 193
203 671 42 188 183 193
203 671 43 184 182 191
204 665 41 140 150 166
204 664 42 136 142 155
204 665 42 144 150 163
205 664 43 137 141 151
205 665 43 135 137 146
204 666 41 156 160 172
204 666 42 155 158 167
204 667 42 164 165 174
204 667 43 161 161 170
205 666 43 135 136 142
205 667 43 151 152 159
205 664 44 128 130 138
205 665 44 123 127 135
205 666 44 128 131 140
205 667 44 146 149 159
206 664 44 126 130 139
206 664 45 132 134 141
206 665 44 129 132 139
206 665 45 137 138 145
207 664 45 136 138 145
207 665 45 138 139 146
207 664 46 137 139 146
207 664 47 143 143 148
207 665 46 135 137 145
206 666 44 133 136 145
206 666 45 137 138 147
206 667 44 145 148 157
206 667 45 140 143 153
207 666 46 131 134 143
207 666 47 130 134 143
207 667 46 135 139 149
207 667 47 135 139 149
204 668 42 169 171 180
204 668 43 163 164 173
204 669 42 178 177 186
204 669 43 169 169 178
205 668 43 159 160 169
204 670 43 176 175 183
204 671 43 172 172 180
205 668 44 151 153 163
205 669 44 154 155 165
204 670 44 162 163 171
204 671 44 164 164 172
205 670 44 158 159 167
205 670 45 157 158 166
205 671 44 163 163 170
205 671 45 161 161 169
206 668 44 147 151 160
206 668 45 145 148 158
206 669 45 148 150 160
206 669 46 144 147 157
207 668 46 144 147 157
207 668 47 146 149 158
207 669 46 148 150 159
207 669 47 150 152 161
206 670 45 154 155 164
206 671 45 159 159 168
206 670 46 153 154 163
206 671 46 156 157 166
207 670 46 153 154 163
207 670 47 152 153 162
207 671 46 154 155 164
207 671 47 154 155 163
207 656 48 136 138 146
207 657 48 132 134 142
207 671 48 157 158 166
208 640 54 125 129 138
208 640 55 130 133 142
208 641 54 125 127 136
208 641 55 124 127 136
209 640 55 126 130 138
209 641 55 122 126 134
208 642 54 123 126 134
208 643 54 123 126 133
209 642 55 118 121 129
209 643 54 120 122 130
209 643 55 121 124 132
210 642 55 117 121 129
210 643 55 123 126 134
208 644 53 125 127 135
208 645 53 131 132 140
209 645 53 132 132 138
208 644 54 125 126 133
209 644 54 125 127 135
209 644 55 125 127 135
209 645 54 129 131 138
208 646 52 129 131 138
208 646 53 130 131 137
208 647 52 122 126 135
209 646 53 132 132 137
209 647 53 128 130 138
209 646 54 130 132 139
210 644 55 129 132 139
210 645 54 132 134 141
210 645 55 134 135 142
211 645 55 137 138 145
210 646 54 131 133 140
210 646 55 138 139 146
210 647 54 129 132 139
211 646 55 138 139 147
211 647 54 131 133 141
211 647 55 139 141 150
209 640 56 125 129 137
209 641 56 120 123 131
210 640 56 124 126 134
210 640 57 123 126 134
210 641 56 121 124 132
211 640 57 127 130 138
211 641 56 122 124 132
211 641 57 132 133 140
211 640 58 127 131 139
211 641 58 132 134 143
210 642 56 122 124 132
211 642 56 131 132 138
211 642 57 131 133 142
211 643 56 131 133 140
211 643 57 132 135 145
211 644 56 139 140 147
211 644 57 139 140 148
211 645 56 140 142 150
211 646 56 141 144 153
211 647 56 137 140 150
212 640 58 134 136 144
212 640 59 134 136 144
212 641 58 136 139 147
212 641 59 136 138 147
213 640 59 149 150 157
213 641 59 145 148 157
212 643 57 135 138 146
212 642 58 136 140 150
212 642 59 142 146 155
212 643 58 142 144 152
213 642 59 144 147 157
213 643 59 144 147 156
213 640 60 151 152 160
213 640 61 153 154 162
213 641 60 148 150 159
213 641 61 146 149 158
213 642 60 142 146 156
213 642 61 134 140 152
213 643 60 140 144 156
213 643 61 135 141 153
214 640 61 153 154 162
214 641 61 147 150 159
214 640 62 154 155 163
214 640 63 155 155 164
214 641 62 151 153 162
214 641 63 153 155 165
215 640 63 154 155 164
215 641 63 154 156 165
214 642 61 139 144 156
214 643 61 134 141 153
214 642 62 147 150 162
214 642 63 150 153 164
214 643 62 144 149 162
214 643 63 144 150 163
212 644 57 143 144 151
212 645 57 143 144 152
212 644 58 146 147 155
212 645 58 146 147 155
213 644 58 145 146 154
213 644 59 147 149 158
213 645 58 149 150 158
213 645 59 152 153 162
212 646 56 141 144 154
212 646 57 144 146 156
212 647 56 138 141 150
212 647 57 145 147 156
212 646 58 150 152 162
212 647 58 149 151 161
213 646 58 150 152 161
213 646 59 153 155 163
213 647 58 147 150 161
213 647 59 146 150 161
213 644 60 148 152 162
213 644 61 144 148 160
213 645 60 152 155 165
213 645 61 148 152 164
213 646 60 151 154 164
213 646 61 148 151 162
213 647 60 145 148 159
213 647 61 146 149 160
213 647 62 142 148 161
214 644 61 142 147 160
214 645 61 146 150 162
214 644 62 144 150 162
214 644 63 145 151 164
214 645 62 146 151 163
214 645 63 145 151 164
214 646 61 149 152 163
214 647 61 147 151 162
214 646 62 148 152 163
214 646 63 142 149 162
214 647 62 142 148 161
214 647 63 135 144 159
208 648 51 121 126 136
208 649 51 128 130 137
208 650 50 135 133 137
208 650 51 134 133 138
208 651 50 127 128 134
208 651 51 130 130 136
209 650 51 133 133 138
209 651 51 130 131 138
208 648 52 118 124 135
208 649 52 126 130 138
209 648 52 119 125 135
209 648 53 123 127 136
209 649 52 129 132 140
209 649 53 126 129 137
209 650 52 134 135 140
209 651 52 135 136 142
210 648 53 123 128 137
210 649 53 129 131 139
210 648 54 132 135 144
210 649 54 126 130 139
211 648 54 137 138 146
211 648 55 138 140 149
211 649 54 135 136 141
211 649 55 144 144 151
210 650 53 138 137 142
210 651 52 135 137 144
210 651 53 139 140 146
211 650 54 140 139 144
211 650 55 143 143 149
211 651 54 142 143 149
211 651 55 142 145 153
208 652 49 121 126 136
208 653 49 115 120 129
208 652 50 121 125 134
208 653 50 119 124 134
209 652 51 127 130 139
209 653 50 123 128 138
209 653 51 127 131 141
208 654 49 122 125 133
208 655 49 133 135 141
208 654 50 125 128 136
208 655 50 135 136 143
209 654 50 128 131 139
209 654 51 126 131 140
209 655 50 136 137 144
209 655 51 137 138 145
210 654 51 128 133 143
210 655 51 140 140 147
209 652 52 130 133 142
209 653 52 130 135 145
209 654 52 129 134 144
210 652 52 133 136 145
210 652 53 137 140 148
210 653 52 133 138 148
210 653 53 134 138 148
211 653 53 133 138 148
211 652 54 138 141 150
211 652 55 136 142 154
211 653 54 135 139 150
211 653 55 137 144 156
210 654 52 132 137 148
210 654 53 135 140 151
210 655 52 143 143 150
210 655 53 144 146 155
211 654 53 132 137 148
211 655 53 143 147 157
211 654 54 134 139 151
211 654 55 141 146 157
211 655 54 142 148 160
211 655 55 145 150 162
211 648 56 134 137 146
211 649 56 148 148 155
211 650 56 146 146 151
211 651 56 147 148 156
211 655 56 144 149 161
212 648 56 139 141 150
212 648 57 146 148 156
212 649 57 150 151 159
212 648 58 149 151 160
212 649 58 151 152 161
213 648 58 144 147 158
213 648 59 134 139 151
213 649 58 147 148 157
213 649 59 145 147 157
212 650 56 148 147 153
212 650 57 152 153 160
212 651 56 148 150 158
212 651 57 149 152 161
212 650 58 152 154 164
212 651 58 144 150 163
213 650 59 151 153 162
213 651 59 136 144 159
213 648 60 139 144 155
213 648 61 145 150 162
213 649 60 146 149 161
213 649 61 146 152 165
213 648 62 141 147 161
213 650 60 147 150 162
213 650 61 139 147 162
213 651 60 128 139 155
213 651 61 124 139 158
213 650 62 126 139 156
213 651 62 116 134 155
213 651 63 107 129 153
214 648 62 133 142 157
214 648 63 121 135 154
214 649 62 131 142 159
214 649 63 114 132 154
214 650 62 128 140 158
214 650 63 111 130 153
214 651 63 103 126 151
212 652 56 143 148 160
212 652 57 144 151 164
212 653 56 141 148 160
212 653 57 136 145 160
212 652 58 130 143 161
212 653 58 112 130 151
212 653 59 103 126 152
213 652 59 114 132 154
213 653 59 106 129 156
212 654 56 145 150 162
212 654 57 128 138 154
212 655 56 144 148 160
212 655 57 119 130 145
212 654 58 100 122 144
212 654 59 92 118 149
212 655 58 95 118 141
212 655 59 81 113 147
213 654 59 101 123 157
213 655 59 82 109 149
213 652 60 106 127 151
213 652 61 107 130 155
213 653 60 104 126 153
213 653 61 101 127 154
213 652 62 108 131 157
213 652 63 105 129 154
213 653 62 103 130 157
213 653 63 102 128 156
212 655 60 55 105 140
213 654 60 95 119 150
213 654 61 94 122 151
213 655 60 53 95 134
213 655 61 71 110 144
213 654 62 102 131 159
213 654 63 97 127 156
213 655 62 96 127 158
213 655 63 93 125 155
214 652 63 105 128 154
208 659 47 126 128 136
208 660 47 127 129 136
208 661 47 136 135 141
208 662 47 138 137 142
208 663 47 141 140 144
208 664 47 143 143 149
208 665 47 137 140 150
208 666 47 135 138 148
208 667 47 136 140 150
208 668 47 147 150 159
208 669 47 150 152 161
208 656 48 137 140 148
208 656 49 139 139 145
208 657 48 133 135 142
208 657 49 140 139 144
208 656 50 139 139 146
209 656 50 140 141 147
209 656 51 142 142 149
209 657 50 141 141 146
209 657 51 142 143 150
208 658 48 131 132 140
208 658 49 136 136 142
208 659 48 133 133 140
208 659 49 138 137 142
209 658 49 139 138 142
209 659 49 140 139 143
209 658 50 142 141 146
209 659 50 142 141 147
210 657 51 144 144 151
210 658 51 144 145 152
210 659 50 141 142 149
210 659 51 145 147 155
210 656 52 147 146 152
210 656 53 150 150 158
210 657 52 148 148 154
210 657 53 152 152 159
211 657 53 153 154 162
211 656 54 150 154 164
211 656 55 148 153 165
211 657 54 154 157 167
211 657 55 149 153 164
210 658 52 147 148 155
210 658 53 151 151 158
210 659 52 149 151 159
210 659 53 151 152 160
211 658 53 152 153 161
211 659 53 153 154 163
211 658 54 155 158 167
211 658 55 152 155 165
211 659 54 157 159 168
211 659 55 151 154 164
208 660 48 133 134 141
208 661 48 135 136 142
209 660 49 136 137 143
209 661 48 137 139 145
209 661 49 137 139 146
209 660 50 136 137 145
209 661 50 137 139 147
208 662 48 139 139 145
208 663 48 141 141 147
208 663 49 143 144 152
209 662 48 138 139 146
209 662 49 142 143 150
209 663 49 147 148 155
209 662 50 146 148 155
209 663 50 150 151 158
210 660 50 137 140 148
210 660 51 141 145 155
210 661 50 137 141 149
210 661 51 139 144 154
210 662 50 144 147 155
210 662 51 143 147 156
210 663 50 151 152 160
210 663 51 152 154 163
210 660 52 147 150 159
210 661 52 141 145 156
211 660 52 143 146 157
211 660 53 150 152 162
211 661 52 138 142 153
211 661 53 144 147 158
211 660 54 155 158 168
211 660 55 147 152 164
211 661 54 155 159 170
211 661 55 133 144 160
210 663 52 152 155 164
211 662 52 141 144 155
211 662 53 147 151 162
211 663 52 152 155 164
211 663 53 154 158 169
211 662 54 150 156 168
211 662 55 122 137 157
211 663 54 148 155 169
211 663 55 117 135 158
211 656 56 141 146 159
211 657 56 134 141 154
211 658 56 135 143 156
211 659 56 126 137 153
211 660 56 126 137 154
211 661 56 104 122 142
211 662 56 94 116 139
211 663 56 105 127 150
211 663 57 108 129 153
212 656 56 133 140 153
212 656 57 111 124 141
212 657 56 122 133 149
212 657 57 107 123 144
212 656 58 97 121 145
212 656 59 95 125 153
212 657 58 95 121 148
212 657 59 102 128 155
212 658 56 124 136 153
212 658 57 105 125 148
212 659 56 121 134 152
212 659 57 99 123 147
212 658 58 99 125 153
212 658 59 102 127 154
212 659 58 89 120 150
212 659 59 76 112 142
212 656 60 93 124 154
212 657 60 100 127 154
213 656 60 81 118 150
213 656 61 90 123 156
213 657 61 101 129 156
213 656 62 88 124 157
213 656 63 95 125 154
213 657 62 100 129 157
213 657 63 107 131 157
212 658 60 88 116 146
212 659 60 50 94 133
213 658 61 82 114 146
213 659 61 50 97 135
213 658 62 94 123 150
213 658 63 102 127 153
213 659 62 84 117 146
213 659 63 110 134 159
212 660 57 97 121 146
212 661 57 112 131 153
212 660 58 81 116 146
212 660 59 93 124 153
212 661 58 112 135 161
212 661 59 98 128 157
212 662 57 110 130 152
212 663 57 111 131 153
212 662 58 106 130 156
212 662 59 92 124 155
212 663 58 97 124 151
212 663 59 101 128 157
212 660 60 96 125 154
212 660 61 88 119 149
212 661 60 99 129 159
212 661 61 96 126 155
213 660 61 84 117 147
213 661 61 104 130 157
213 660 62 104 129 155
213 660 63 113 136 161
213 661 62 110 133 158
213 661 63 115 138 163
212 662 60 90 125 157
212 662 61 96 127 158
212 663 60 88 123 154
212 663 61 97 128 158
213 662 61 103 131 160
213 662 62 110 134 161
213 662 63 112 137 165
213 663 62 110 135 162
213 663 63 104 133 163
208 664 48 144 145 152
208 664 49 141 143 151
208 665 48 144 146 155
209 664 49 149 150 157
209 665 49 151 151 158
209 664 50 155 154 160
209 665 50 156 156 163
208 666 48 139 142 152
208 667 48 140 143 153
209 666 48 142 144 153
209 666 49 147 148 156
209 667 48 144 146 155
209 667 49 147 150 159
209 666 50 148 151 160
209 667 50 140 147 159
209 667 51 129 139 155
210 664 50 157 156 164
210 664 51 158 159 166
210 665 50 157 157 166
210 665 51 153 155 166
210 666 50 148 151 162
210 666 51 138 145 159
210 667 51 123 136 154
210 664 52 162 162 170
210 665 52 154 157 168
210 665 53 146 152 165
211 664 52 155 157 166
211 664 53 158 161 172
211 665 53 152 156 168
211 664 54 146 154 169
211 664 55 114 135 158
211 665 54 143 152 166
211 665 55 125 143 164
210 666 52 135 144 159
210 666 53 129 139 155
210 667 52 123 137 156
210 667 53 115 132 152
211 666 53 126 137 154
211 666 54 122 135 152
211 666 55 125 140 160
211 667 54 120 136 156
211 667 55 122 138 159
208 668 48 149 152 161
208 669 48 148 151 161
208 669 49 146 149 159
209 668 49 148 151 162
209 669 49 146 150 160
209 668 50 141 148 160
209 668 51 130 141 158
209 669 50 142 148 160
209 669 51 128 139 156
208 670 48 149 152 161
208 670 49 151 154 164
208 671 48 155 157 165
208 671 49 153 156 166
209 670 49 148 152 163
208 671 50 140 146 159
209 670 50 141 147 159
209 670 51 125 136 153
209 671 50 131 139 154
209 671 51 123 137 156
210 670 50 136 143 156
209 669 52 125 139 157
209 670 52 122 137 156
209 671 52 120 137 157
209 671 53 119 137 158
210 668 52 126 140 159
210 668 53 125 139 158
210 669 52 122 137 157
210 669 53 123 138 157
210 668 54 125 140 160
210 669 54 119 134 154
210 669 55 111 129 151
211 668 54 128 143 163
211 668 55 116 133 154
211 669 55 106 124 146
210 670 53 121 137 157
210 671 53 115 134 156
210 670 54 111 130 151
210 670 55 111 131 153
210 671 54 111 131 154
210 671 55 106 128 152
211 670 55 106 126 148
211 671 55 97 122 148
211 664 56 104 128 154
211 664 57 105 129 154
211 665 56 112 136 161
211 665 57 116 139 164
211 664 58 115 138 163
211 665 58 121 142 167
211 666 56 117 140 165
211 666 57 113 136 161
211 667 56 102 129 156
211 667 57 100 128 156
211 666 58 112 131 154
211 667 58 103 124 148
211 668 56 106 131 156
211 668 57 99 127 154
211 669 56 110 131 155
211 669 57 105 128 153
211 668 58 110 130 152
211 669 58 116 133 153
211 670 56 100 123 146
211 670 57 105 126 150
211 671 56 86 114 139
211 671 57 108 127 148
211 670 58 112 128 147
211 670 59 124 136 154
211 671 58 126 138 155
212 664 58 110 134 160
212 664 59 96 124 151
212 665 58 112 135 161
212 665 59 82 112 140
212 666 59 107 125 146
212 667 59 122 135 153
212 664 60 90 118 145
212 664 61 114 133 157
212 665 60 103 122 144
212 665 61 144 151 165
212 664 62 129 143 164
212 665 62 155 160 173
213 664 62 124 141 164
213 664 63 112 135 162
213 665 62 156 161 175
213 665 63 145 155 173
212 666 60 133 142 158
212 666 61 155 156 165
212 667 60 132 141 156
212 667 61 150 152 161
212 666 62 161 162 171
212 667 62 157 159 170
213 666 62 161 163 172
213 666 63 158 162 173
213 667 62 155 158 170
213 667 63 157 161 172
212 668 59 133 143 160
212 669 59 132 141 156
212 670 59 138 144 157
212 671 59 135 142 155
212 668 60 140 147 161
212 668 61 146 150 161
212 669 60 138 144 157
212 669 61 137 143 155
212 668 62 137 143 156
212 669 62 137 141 153
213 668 62 135 143 157
213 668 63 139 146 158
213 669 63 142 145 156
212 670 60 144 148 159
212 670 61 145 149 160
212 671 60 138 142 153
212 671 61 143 147 157
212 670 62 146 148 157
212 671 62 149 150 159
213 670 62 146 147 157
213 670 63 144 146 155
213 671 62 148 148 156
213 671 63 146 146 154
