ply
format ascii 1.0
comment Version 2, Copyright 2017, 8i Labs, Inc.
comment frame_to_world_scale 0.179523
comment frame_to_world_translation -45.2095 7.18301 -54.3561
comment width 1023
element vertex 1286
property float x
property float y
property float z
property uchar red
property uchar green
property uchar blue
end_header
193 672 39 157 65 84
192 672 40 99 130 162
192 673 40 105 66 106
193 672 40 142 73 100
193 673 40 156 33 78
192 674 40 145 61 98
192 675 41 159 93 108
193 674 40 145 51 74
193 675 40 157 124 124
193 675 41 178 163 160
194 672 40 170 35 54
194 673 40 160 65 74
195 672 40 167 65 69
195 673 40 192 160 150
194 674 40 185 161 153
194 675 41 203 199 201
195 674 40 205 191 188
195 674 41 200 191 194
195 675 41 180 179 191
192 676 41 166 133 128
192 677 41 201 190 190
193 676 41 201 197 201
193 677 41 176 173 190
193 678 41 174 171 187
192 678 42 203 197 201
192 679 42 202 197 205
193 678 42 187 183 196
193 679 42 202 195 206
194 676 41 181 184 199
194 677 41 152 156 177
195 676 41 152 159 185
195 677 41 170 174 193
194 678 41 183 181 195
194 678 42 197 193 202
194 679 42 205 198 206
195 678 42 197 193 204
195 679 42 206 197 206
196 672 40 169 129 126
196 673 40 203 187 186
197 672 40 190 178 186
197 673 40 202 193 197
197 673 41 201 193 200
196 674 41 197 187 192
196 675 41 186 183 195
197 674 41 198 191 199
197 675 41 201 194 202
198 672 40 188 180 191
198 672 41 195 188 198
198 673 41 194 188 197
199 672 41 193 190 200
199 673 41 187 181 191
198 674 41 196 189 198
198 675 41 202 195 202
199 674 41 189 184 193
198 675 42 200 194 203
199 674 42 196 190 199
199 675 42 196 191 200
196 676 41 186 184 200
196 677 41 195 193 207
197 676 41 200 195 204
196 677 42 201 197 207
197 676 42 196 191 202
197 677 42 191 187 201
196 678 42 200 194 205
196 679 42 184 177 185
197 678 42 180 180 194
197 679 42 177 175 190
198 676 42 194 189 200
198 677 42 183 183 198
199 676 42 194 189 201
199 677 42 189 186 200
199 677 43 190 187 200
198 678 42 179 180 196
198 679 42 179 179 196
198 679 43 186 184 199
199 678 42 187 185 198
199 678 43 190 187 199
199 679 43 190 187 201
192 680 42 203 193 202
192 681 42 177 174 184
193 680 42 202 195 204
193 681 42 196 190 196
193 681 43 196 189 195
192 682 43 156 161 178
192 683 43 169 172 193
193 682 43 199 193 200
193 683 43 205 197 205
194 680 42 207 198 207
194 681 42 206 197 208
194 681 43 207 198 207
195 680 42 201 192 200
195 681 43 206 198 207
194 682 43 209 199 208
194 683 43 202 195 206
195 682 43 202 194 204
195 683 43 185 180 194
192 684 43 195 192 207
193 684 43 204 197 209
194 684 43 175 176 192
195 684 43 172 171 190
192 685 44 204 198 207
193 684 44 187 185 202
193 685 44 182 180 197
192 686 44 199 193 200
192 687 44 203 195 203
193 686 44 192 187 200
193 687 44 203 196 205
194 684 44 162 168 190
194 685 44 163 169 191
195 684 44 164 168 189
195 685 44 177 179 198
194 686 44 188 186 201
194 687 44 204 198 208
195 686 44 193 191 205
195 687 44 201 195 206
196 680 42 191 185 192
196 680 43 202 195 202
196 681 43 206 199 203
197 680 42 193 188 199
197 680 43 198 192 202
197 681 43 205 197 204
196 682 43 201 194 201
196 683 43 199 191 202
197 682 43 204 197 204
197 683 43 205 197 205
198 680 43 196 192 203
198 681 43 201 195 204
199 680 43 194 191 203
199 681 43 197 193 202
198 682 43 203 196 204
198 683 43 206 199 206
197 683 44 206 198 205
199 680 44 189 187 200
199 681 44 195 191 202
198 682 44 201 196 205
198 683 44 204 197 205
199 682 44 198 194 204
199 683 44 201 195 205
199 683 45 202 197 207
196 684 43 192 186 200
196 684 44 199 193 205
196 685 44 198 193 206
197 684 44 200 193 204
197 685 44 184 182 199
196 686 44 190 188 203
196 687 44 188 185 201
196 687 45 195 190 204
197 686 44 172 173 195
197 687 44 170 173 193
197 687 45 183 182 199
198 684 44 197 192 204
198 685 44 187 184 201
199 684 44 198 193 204
199 684 45 199 194 205
199 685 45 197 192 205
198 686 44 175 175 197
198 686 45 183 183 202
198 687 45 193 192 207
199 686 45 195 193 207
199 687 45 193 192 206
200 672 41 184 181 192
200 673 41 186 182 192
200 672 42 182 181 193
200 673 42 187 184 195
201 672 42 181 180 192
201 673 42 182 181 193
200 674 42 192 187 197
200 675 42 194 189 199
200 675 43 194 190 200
201 674 42 188 185 195
201 674 43 185 184 195
201 675 43 191 188 199
202 672 42 184 182 194
202 672 43 184 183 194
202 673 43 181 181 194
203 672 43 177 177 188
203 673 43 174 176 188
202 674 43 183 182 194
202 675 43 189 187 199
203 674 43 176 177 190
203 672 44 166 168 181
203 673 44 166 168 180
202 675 44 185 183 194
203 674 44 172 173 186
203 675 44 174 174 186
203 675 45 174 175 185
200 676 42 196 191 201
200 676 43 195 191 201
200 677 43 194 190 201
201 676 43 194 190 201
201 677 43 194 190 201
200 678 43 192 189 201
200 679 43 189 186 200
201 678 43 194 190 201
201 677 44 193 189 200
200 679 44 185 184 198
201 678 44 191 189 200
201 679 44 185 184 198
202 676 44 191 187 198
202 677 44 192 189 200
202 677 45 194 190 201
203 676 44 190 186 196
203 676 45 183 181 191
203 677 44 192 189 199
203 677 45 188 186 195
202 678 44 194 191 201
202 679 44 190 187 200
202 679 45 192 189 201
203 678 45 190 188 198
203 679 45 186 187 199
204 672 44 162 163 173
204 673 44 162 164 176
204 673 45 162 165 176
205 672 45 160 162 171
205 673 45 160 162 172
204 674 44 165 167 179
204 674 45 164 166 178
204 675 45 169 170 181
205 674 45 161 163 175
205 675 45 161 163 174
205 674 46 157 159 171
205 675 46 163 164 175
206 672 45 158 159 168
206 672 46 155 157 166
206 673 46 151 154 165
207 672 47 154 155 164
207 673 47 150 153 163
206 674 46 152 156 167
206 674 47 154 157 168
206 675 46 157 160 172
206 675 47 154 159 172
207 674 47 152 155 166
207 675 47 150 157 171
204 676 45 174 174 183
204 677 45 177 177 187
204 676 46 173 173 183
204 677 46 175 175 186
205 676 46 165 167 179
205 677 46 169 171 183
204 678 45 180 181 191
204 678 46 174 176 188
204 679 46 171 174 189
205 678 46 166 170 184
205 679 46 159 167 183
206 676 46 158 163 175
206 676 47 152 158 172
206 677 46 164 168 180
206 677 47 150 158 173
206 678 47 150 159 175
206 679 47 147 160 178
207 678 47 142 154 172
200 680 43 189 187 200
200 680 44 183 183 200
200 681 44 191 189 202
200 681 45 193 191 203
201 680 44 185 185 199
201 680 45 193 191 204
201 681 45 193 191 207
200 682 45 201 196 208
200 683 45 202 197 207
201 682 45 200 196 207
201 683 45 201 196 206
201 683 46 204 198 207
202 680 45 188 187 201
202 681 45 195 192 205
203 680 45 180 181 197
202 681 46 188 187 201
203 680 46 171 175 192
203 681 46 177 179 195
202 682 45 194 191 203
202 683 45 196 192 203
202 682 46 191 189 203
202 683 46 200 195 207
203 682 46 184 185 201
203 683 46 197 194 208
203 683 47 194 191 204
200 684 45 201 196 206
200 685 45 198 194 206
201 684 45 202 197 207
200 685 46 197 194 206
201 684 46 201 195 205
201 685 46 194 191 203
200 686 45 196 194 208
200 687 45 185 186 203
200 686 46 191 191 205
200 687 46 174 177 198
201 686 46 187 187 203
201 687 46 178 180 198
202 684 46 200 194 206
202 685 46 197 192 206
202 685 47 198 193 206
203 684 47 200 196 207
203 685 47 197 195 207
202 686 46 195 192 207
202 686 47 197 194 208
202 687 46 187 189 205
203 686 47 189 190 207
203 687 47 174 182 205
204 680 46 169 173 189
204 681 46 166 172 190
205 680 46 157 165 183
205 680 47 160 168 186
205 681 46 159 168 188
205 681 47 161 169 189
204 682 46 173 180 197
204 683 47 178 183 199
205 682 46 168 176 194
205 682 47 167 176 195
205 683 47 160 173 195
206 680 47 147 161 181
206 681 47 150 163 185
206 682 47 149 164 186
206 683 47 143 162 188
204 684 47 202 198 211
204 685 47 180 184 202
205 684 47 171 180 200
205 685 47 161 173 195
204 686 47 167 177 200
204 687 47 159 173 201
205 686 47 152 168 195
207 672 48 158 159 167
207 673 48 155 158 168
207 674 48 149 154 166
207 675 48 142 151 168
207 676 48 134 148 166
207 676 49 132 146 165
207 677 48 131 147 168
207 677 49 127 145 166
207 678 48 131 149 172
207 678 49 129 148 171
207 679 48 135 154 177
207 679 49 130 151 175
205 683 48 154 170 195
206 681 48 134 154 179
207 680 48 140 159 182
207 680 49 133 153 178
207 681 48 132 153 179
207 681 49 130 151 177
206 682 48 134 154 181
206 683 48 131 156 186
207 682 48 126 150 178
207 682 49 123 147 175
207 683 48 125 153 185
207 683 49 121 149 180
205 684 48 151 168 195
205 685 48 154 170 196
204 687 48 153 172 203
205 686 48 141 163 193
205 687 48 147 167 197
206 684 48 129 156 190
206 685 48 129 157 190
207 684 48 119 150 184
207 684 49 115 146 180
207 685 49 124 153 186
207 685 50 122 153 185
206 686 48 139 164 196
206 686 49 132 160 192
206 687 48 141 165 196
206 687 49 133 161 194
207 686 49 130 159 192
207 687 49 123 156 191
207 686 50 123 155 188
207 687 50 111 148 184
192 688 44 205 197 206
192 688 45 202 194 204
192 689 45 189 183 197
193 688 44 204 196 205
193 688 45 202 194 205
193 689 45 197 190 204
192 690 45 178 176 193
192 691 45 179 179 195
193 690 45 199 192 204
193 691 45 202 196 208
194 688 44 205 198 208
194 688 45 204 197 208
194 689 45 204 196 207
195 688 44 202 196 205
195 688 45 204 196 206
195 689 45 206 198 207
194 690 45 205 197 208
194 691 45 188 184 199
195 690 45 200 193 204
195 691 45 181 179 194
192 692 45 196 193 205
193 692 45 202 197 209
192 692 46 201 196 207
192 693 46 204 197 208
193 692 46 189 187 201
193 693 46 177 176 191
192 694 46 198 193 205
192 695 46 198 192 205
193 694 46 183 181 195
193 695 46 197 192 204
194 692 45 166 169 188
195 692 45 170 171 189
194 692 46 152 159 182
194 693 46 163 168 185
195 692 46 182 182 198
195 693 46 197 193 205
194 694 46 194 191 203
194 695 46 201 196 207
195 694 46 201 196 204
195 695 46 192 189 199
196 688 45 201 194 204
196 689 45 203 196 205
197 688 45 200 194 205
197 689 45 202 195 205
196 690 45 197 192 204
196 691 45 190 186 199
197 690 45 201 195 205
197 691 45 203 198 207
196 691 46 199 193 204
197 691 46 203 197 207
198 688 45 199 194 206
198 689 45 200 194 205
199 688 45 193 190 203
199 689 45 196 193 204
198 690 45 202 197 206
199 690 45 200 196 205
198 691 46 201 196 205
199 690 46 201 196 205
199 691 46 200 195 207
196 692 46 198 194 207
196 693 46 197 194 206
197 692 46 196 193 207
197 693 46 169 175 198
196 694 46 184 184 195
196 695 46 185 186 201
197 694 46 158 168 193
197 695 46 169 177 200
198 692 46 188 187 204
198 693 46 158 168 201
199 692 46 192 190 210
199 693 46 157 167 201
198 694 46 133 154 191
198 695 46 130 153 189
199 694 46 125 150 193
199 695 46 124 154 199
192 696 46 199 194 207
192 696 47 201 196 209
192 697 47 199 194 208
193 696 46 200 194 207
193 697 46 197 193 206
193 697 47 198 193 207
192 698 47 196 191 204
192 699 47 183 183 203
193 698 47 190 187 207
193 699 47 135 146 184
194 696 46 197 193 205
194 696 47 194 191 206
194 697 47 190 189 207
195 696 46 188 188 205
195 696 47 191 190 207
195 697 47 174 178 204
194 698 47 155 163 196
194 699 47 119 140 190
195 698 47 142 155 200
195 699 47 129 152 206
192 700 47 132 147 184
192 701 47 106 134 188
193 700 47 112 136 189
193 701 47 122 148 203
194 700 47 123 148 202
194 701 47 128 155 209
195 700 47 128 157 211
195 701 47 131 159 213
196 696 46 175 177 202
196 697 47 142 152 193
197 696 46 161 170 202
197 697 46 126 141 187
197 697 47 93 118 177
196 698 47 119 141 195
196 699 47 130 157 208
197 698 47 92 123 182
197 699 47 133 161 206
198 696 46 144 163 201
198 696 47 139 162 203
198 697 47 132 156 202
199 696 47 129 159 203
199 697 47 140 168 211
198 698 47 145 168 213
198 699 47 137 162 208
199 698 47 135 166 211
199 699 47 124 157 205
196 700 47 128 160 212
196 701 47 126 159 212
197 700 47 134 163 210
197 701 47 123 152 203
198 700 47 89 121 181
200 688 45 185 185 201
200 689 45 190 190 204
200 688 46 177 180 199
200 689 46 194 193 207
201 688 46 185 186 203
201 689 46 194 194 210
200 690 46 200 197 209
200 691 46 197 195 211
201 690 46 191 193 213
201 691 46 177 183 210
201 691 47 152 167 202
202 688 46 185 189 208
202 689 46 186 191 212
202 689 47 160 176 205
203 688 46 170 181 208
203 688 47 157 174 204
203 689 47 148 169 204
202 690 46 171 181 209
202 690 47 146 167 204
202 691 47 142 163 201
203 690 47 139 164 203
203 691 47 145 170 208
200 692 46 182 186 210
200 693 46 161 173 205
201 692 46 155 169 203
201 692 47 141 162 199
201 693 46 159 179 213
201 693 47 146 169 205
200 694 46 151 171 208
200 694 47 150 176 212
200 695 46 141 168 209
200 695 47 141 170 207
201 694 46 156 178 212
201 694 47 148 174 208
201 695 47 150 175 210
202 692 47 132 160 200
202 693 47 147 173 210
203 692 47 160 180 212
203 693 47 161 182 213
202 694 47 160 183 216
202 695 47 152 176 211
203 694 47 158 180 213
203 695 47 144 168 207
204 688 47 151 171 203
204 689 47 146 168 203
204 690 47 142 165 203
204 691 47 145 169 206
204 692 47 145 168 205
204 693 47 145 170 205
200 696 47 139 168 209
200 697 47 136 167 212
201 696 47 140 166 205
201 697 47 118 148 197
200 698 47 131 162 213
202 696 47 131 158 198
202 697 47 108 139 186
203 696 47 131 157 199
192 701 48 113 140 192
193 701 48 127 155 208
192 702 48 126 154 207
192 703 48 121 154 208
193 702 48 118 148 207
193 703 48 94 131 199
194 701 48 124 152 209
195 701 48 126 153 210
194 702 48 99 127 198
194 703 48 42 87 176
195 702 48 106 134 201
195 703 48 89 121 190
199 699 48 122 154 204
196 701 48 121 154 210
197 701 48 114 146 201
196 702 48 108 145 205
196 703 48 113 148 207
197 702 48 113 149 207
197 703 48 103 143 207
198 700 48 79 110 174
198 701 48 87 119 180
199 700 48 112 143 195
199 701 48 132 157 204
198 702 48 127 157 207
198 703 48 128 158 211
199 702 48 146 170 211
199 703 48 151 175 215
203 694 48 146 171 208
203 695 48 136 162 203
204 688 48 150 172 206
204 689 48 143 167 201
205 688 48 145 170 202
205 689 48 141 165 199
204 690 48 137 160 199
204 691 48 137 160 199
205 690 48 137 160 198
205 691 48 132 158 196
206 688 48 138 165 197
206 688 49 127 157 191
206 689 49 136 163 195
207 688 49 117 151 185
207 689 49 126 156 188
207 688 50 103 143 179
207 689 50 118 152 185
206 690 48 136 160 194
206 690 49 133 158 191
206 691 48 134 160 194
206 691 49 134 159 193
207 690 49 131 157 189
207 691 49 133 161 194
207 690 50 117 150 184
207 691 50 111 150 186
204 692 48 145 169 205
204 693 48 141 167 204
205 692 48 129 158 196
205 693 48 132 161 199
205 693 49 124 156 195
204 694 48 139 167 206
204 695 48 134 161 201
205 694 48 128 160 200
205 695 48 126 158 197
205 695 49 123 155 195
206 692 49 122 156 194
206 693 49 113 153 194
207 692 49 121 155 193
207 692 50 86 136 178
207 692 51 87 139 179
207 693 50 77 137 181
207 693 51 76 132 174
206 694 49 110 154 196
206 695 49 111 153 194
206 694 50 94 146 188
206 695 50 100 148 189
207 694 50 79 137 181
207 694 51 77 134 179
207 695 50 94 147 189
207 695 51 91 145 187
201 697 48 88 127 183
200 698 48 119 154 209
200 699 48 120 154 208
201 698 48 109 144 201
201 699 48 122 156 207
202 696 48 120 148 193
202 697 48 104 135 188
203 696 48 137 161 202
203 697 48 137 158 199
202 698 48 119 149 199
202 699 48 132 160 202
203 698 48 139 149 186
203 699 48 156 161 190
203 699 49 174 170 187
200 700 48 131 163 210
200 701 48 145 170 212
201 700 48 138 167 211
201 701 48 148 173 213
200 702 48 150 173 212
200 703 48 149 174 212
200 703 49 146 171 211
201 702 48 150 173 212
201 702 49 146 170 212
201 703 48 145 170 211
201 703 49 140 167 211
202 700 48 145 169 206
202 701 48 149 173 211
202 701 49 150 171 207
203 700 48 158 170 200
203 700 49 173 179 200
203 701 49 170 178 205
202 702 49 141 167 208
202 703 49 123 154 206
203 702 49 151 165 202
203 703 49 124 149 202
204 696 48 138 157 193
204 697 48 146 150 181
204 697 49 137 121 153
205 696 48 129 155 194
205 696 49 123 138 174
205 697 49 133 110 142
204 698 48 152 142 170
204 698 49 150 127 155
204 699 49 164 151 166
205 698 49 148 108 134
205 699 49 158 137 149
205 699 50 154 124 138
206 696 49 119 135 172
206 697 49 122 99 130
206 696 50 112 143 181
206 697 50 130 93 116
207 696 50 109 137 169
207 696 51 108 139 168
207 697 50 119 102 120
207 697 51 120 96 111
206 698 50 146 81 99
206 699 50 150 104 118
206 699 51 148 85 98
207 698 51 146 65 82
207 699 51 142 72 84
207 698 52 140 59 82
207 699 52 132 51 57
204 700 49 182 178 188
204 701 49 185 185 199
205 700 49 175 168 179
205 701 49 178 175 190
205 700 50 167 157 169
205 701 50 172 168 182
204 702 49 172 176 201
204 703 49 153 165 201
204 702 50 172 176 201
204 703 50 145 160 201
205 702 50 176 176 194
205 703 50 162 169 198
205 703 51 164 170 196
206 700 50 158 143 154
206 700 51 157 140 149
206 701 50 170 164 176
206 701 51 174 168 179
207 700 51 151 130 133
207 701 51 184 177 184
206 702 51 177 174 188
206 703 51 170 173 191
207 702 51 180 178 187
207 700 52 153 135 131
207 701 52 186 179 182
207 702 52 175 173 181
207 702 53 166 165 173
207 703 52 162 165 179
207 703 53 153 155 166
208 672 48 157 159 168
208 672 49 149 153 164
208 673 48 152 156 168
208 673 49 143 150 163
208 672 50 134 144 160
208 673 50 132 144 160
209 672 50 129 141 159
209 672 51 123 138 158
209 673 50 126 140 159
209 673 51 119 136 157
208 674 49 137 146 162
208 675 49 136 147 163
208 674 50 129 143 161
208 675 50 130 143 161
209 674 51 119 135 155
209 675 51 112 130 151
209 672 52 118 137 159
209 672 53 116 136 160
209 673 52 115 135 157
209 674 52 114 133 154
209 675 52 115 133 154
209 675 53 118 135 156
210 672 53 114 136 160
210 673 53 116 136 160
210 672 54 109 132 157
210 672 55 96 122 149
210 673 54 100 125 152
210 673 55 89 118 145
211 672 55 81 111 139
211 673 55 94 119 144
210 674 53 110 131 154
210 675 53 114 133 155
210 674 54 106 128 153
210 674 55 108 130 154
210 675 54 113 133 156
210 675 55 117 136 159
211 674 55 116 134 156
211 675 55 123 138 158
208 676 49 132 145 164
208 677 49 127 143 165
208 676 50 123 140 161
208 677 50 125 143 164
209 676 51 112 132 154
209 677 51 106 130 155
208 678 49 129 148 171
208 679 49 128 149 173
208 678 50 127 145 168
208 679 50 125 145 169
209 678 51 106 131 156
209 679 50 118 140 165
209 679 51 100 128 155
209 676 52 105 126 149
209 677 52 94 120 145
209 678 52 91 119 146
209 679 52 91 121 150
210 676 53 107 126 148
210 677 53 106 122 141
210 676 54 115 132 151
210 676 55 122 136 155
210 677 54 110 116 129
210 677 55 117 114 128
211 676 55 126 135 149
211 677 55 113 110 122
210 678 53 100 119 139
210 679 52 96 125 152
210 679 53 97 122 148
210 678 54 104 104 115
210 678 55 116 96 107
210 679 54 79 97 120
210 679 55 94 86 107
211 678 55 119 87 102
211 679 55 107 82 98
211 672 56 92 116 140
211 672 57 124 137 154
211 673 56 103 122 143
211 673 57 125 136 152
211 672 58 137 145 159
211 672 59 138 144 157
211 673 58 139 145 157
211 673 59 142 147 158
211 674 56 118 133 152
211 674 57 124 134 149
211 675 56 127 139 157
211 675 57 128 136 150
211 674 58 134 140 153
211 674 59 137 142 154
211 675 58 126 133 146
211 675 59 132 137 148
211 676 56 122 127 138
211 676 57 121 118 130
211 677 56 113 105 114
211 677 57 115 100 106
211 676 58 122 115 126
211 676 59 128 124 131
211 677 58 112 94 100
211 677 59 115 99 107
211 678 56 120 83 96
211 678 57 118 79 86
211 679 56 114 79 92
211 679 57 115 71 82
211 678 58 113 65 64
211 679 58 115 65 70
212 672 59 135 141 154
212 673 59 141 145 157
212 674 59 141 146 156
212 675 59 139 143 153
212 672 60 132 136 148
212 672 61 139 143 153
212 673 60 142 146 156
212 673 61 142 145 155
212 672 62 145 147 156
212 673 62 137 141 152
212 673 63 132 137 148
213 672 62 149 150 158
213 672 63 146 148 156
213 673 63 129 134 145
212 674 60 144 147 157
212 674 61 145 147 157
212 675 60 146 147 155
212 675 61 148 150 159
212 674 62 139 142 153
212 674 63 136 140 151
212 675 62 146 148 157
212 675 63 144 147 156
213 674 63 134 138 149
213 675 63 146 148 157
212 676 59 133 130 136
212 677 58 113 81 85
212 677 59 114 89 97
212 678 58 112 61 57
212 678 59 113 62 62
212 679 58 112 60 60
212 679 59 111 59 50
212 676 60 135 133 139
212 676 61 132 133 143
212 677 60 117 95 105
212 677 61 118 99 112
212 676 62 135 137 145
212 676 63 137 138 146
212 677 62 119 108 117
212 677 63 123 118 126
213 676 63 141 143 151
213 677 63 130 127 135
212 678 60 120 67 73
212 678 61 121 75 81
212 679 60 118 63 60
212 679 61 118 68 60
212 678 62 117 78 85
212 678 63 117 85 92
212 679 62 113 60 57
212 679 63 115 64 67
213 678 63 116 88 95
213 679 63 115 64 70
208 680 49 124 145 170
208 681 49 121 143 169
208 680 50 112 135 161
208 681 50 103 130 157
209 680 50 102 128 155
209 680 51 95 124 151
209 681 50 95 124 152
209 681 51 104 129 156
208 682 49 118 142 169
208 683 49 111 139 170
208 682 50 106 132 160
208 683 50 98 127 156
209 682 50 99 126 154
209 682 51 94 122 151
209 683 50 93 121 149
209 683 51 87 116 145
209 680 52 108 133 159
209 681 52 106 131 157
209 682 52 86 117 147
209 683 52 75 110 140
210 680 52 110 135 160
210 680 53 99 127 154
210 681 52 96 123 150
210 681 53 82 114 143
210 680 54 76 112 141
210 680 55 79 105 131
210 681 54 87 122 152
210 681 55 86 125 156
211 680 55 83 115 141
211 681 55 82 125 157
210 682 52 75 111 142
210 682 53 78 114 145
210 683 52 72 109 141
210 683 53 72 108 141
210 682 54 89 124 154
210 682 55 89 126 156
210 683 54 79 116 148
210 683 55 80 119 150
211 682 55 84 124 157
211 683 55 75 115 149
208 684 49 108 140 172
208 684 50 106 139 171
208 684 51 107 139 171
208 685 50 110 146 180
208 685 51 101 141 176
209 684 51 104 133 163
209 685 51 100 139 174
208 686 50 111 148 182
208 686 51 101 141 176
208 687 50 103 145 182
208 687 51 104 144 179
209 686 51 99 140 175
209 687 51 102 144 180
209 684 52 86 120 150
209 685 52 100 137 171
209 686 52 95 137 172
209 687 52 95 140 177
210 684 52 80 116 146
210 684 53 82 116 146
210 685 52 96 133 166
210 685 53 89 129 162
210 684 54 72 112 145
210 685 54 79 124 158
210 685 55 76 123 158
211 684 55 67 111 146
211 685 55 81 126 162
210 686 52 97 137 171
210 686 53 84 127 163
210 687 53 82 130 168
210 686 54 79 124 160
210 686 55 81 125 161
210 687 54 75 123 162
210 687 55 72 117 156
211 686 55 83 127 162
211 687 55 68 116 154
211 680 56 86 103 123
211 680 57 86 92 110
211 681 56 80 122 154
211 681 57 82 119 149
211 680 58 97 89 106
211 681 58 81 113 140
211 682 56 82 125 160
211 682 57 84 127 161
211 683 56 77 120 155
211 683 57 83 125 160
211 683 58 82 124 158
211 684 56 76 117 153
211 684 57 82 125 160
211 685 56 82 127 163
211 685 57 82 127 163
211 684 58 83 126 160
211 685 58 81 126 162
211 686 56 85 128 163
211 686 57 83 128 164
211 687 56 70 116 154
211 687 57 75 121 159
211 686 58 83 129 164
211 687 58 80 126 162
212 680 58 98 87 101
212 680 59 99 85 98
212 681 58 85 116 144
212 681 59 90 116 142
212 682 58 87 127 159
212 682 59 90 127 158
212 683 58 84 126 159
212 683 59 83 123 155
212 680 60 99 84 94
212 680 61 102 75 80
212 681 60 83 109 133
212 681 61 83 106 129
212 680 62 103 72 76
212 681 62 87 101 120
213 680 62 97 78 87
213 680 63 98 67 76
213 681 62 86 110 132
213 681 63 87 110 131
212 682 60 80 118 149
212 682 61 82 121 152
212 683 60 79 118 149
212 683 61 88 124 155
212 682 62 81 119 148
212 683 62 89 126 158
213 682 62 82 123 155
213 682 63 82 123 155
213 683 62 87 126 158
213 683 63 84 126 159
212 684 59 81 123 157
212 685 58 81 127 162
212 685 59 82 126 160
212 686 58 83 127 163
212 686 59 82 126 161
212 687 58 82 127 163
212 687 59 83 127 162
212 684 60 80 120 152
212 684 61 86 121 151
212 685 60 82 124 157
212 685 61 82 120 152
213 684 62 88 122 152
213 684 63 86 122 153
213 685 62 78 117 149
213 685 63 70 112 146
212 686 60 82 124 158
212 686 61 83 122 155
212 687 60 78 122 156
212 687 61 79 120 154
213 687 61 75 118 152
213 686 62 76 118 150
213 686 63 74 116 149
213 687 62 75 117 150
213 687 63 82 121 153
208 688 50 106 145 180
208 688 51 104 145 180
208 689 50 113 150 185
208 689 51 103 145 181
209 688 51 102 144 181
208 690 50 109 144 181
208 690 51 87 134 174
208 691 51 88 138 179
209 688 52 92 140 178
209 688 53 85 135 173
209 689 52 92 141 179
209 689 53 83 135 174
208 691 52 85 139 180
209 690 52 83 135 176
209 690 53 80 135 175
209 691 52 85 139 180
209 691 53 82 137 179
209 691 54 80 136 177
210 688 53 84 134 172
210 688 54 84 133 170
210 688 55 79 126 164
210 689 54 83 132 170
210 689 55 86 131 167
211 689 55 84 128 164
210 690 54 82 133 172
210 690 55 84 132 169
210 691 54 81 135 175
210 691 55 80 133 172
211 690 55 78 127 165
211 691 55 78 131 169
208 692 51 93 142 182
208 693 51 84 135 176
208 694 51 67 121 166
208 695 51 89 141 181
208 692 52 95 144 183
208 693 52 88 136 174
209 692 53 91 141 181
209 693 53 91 138 176
209 692 54 88 139 179
209 693 54 92 139 177
208 694 52 66 117 162
208 694 53 68 117 159
208 695 52 78 133 173
208 695 53 71 127 167
209 694 53 74 119 160
209 695 53 72 124 164
209 694 54 74 121 161
209 695 54 71 122 163
210 692 54 83 136 177
210 692 55 81 134 174
210 693 54 89 137 175
210 693 55 86 135 173
211 692 55 81 134 174
210 694 54 80 126 166
210 694 55 85 134 172
210 695 54 76 126 167
210 695 55 83 135 174
211 688 56 74 121 158
211 688 57 70 117 155
211 689 56 79 124 160
211 689 57 78 124 160
211 690 56 74 121 157
211 690 57 79 123 158
211 691 56 74 124 162
211 691 57 71 118 155
211 692 56 82 131 169
211 692 57 79 126 162
211 693 56 84 131 169
211 693 57 85 128 163
211 692 58 81 125 160
211 693 58 87 127 160
210 694 56 83 133 172
210 695 56 83 136 175
211 694 56 81 130 168
211 694 57 82 127 164
211 695 56 79 132 172
211 695 57 76 127 165
211 694 58 76 122 157
211 695 58 70 119 158
212 689 57 83 127 162
212 688 58 79 125 162
212 688 59 82 127 163
212 689 58 85 129 165
212 689 59 86 129 164
212 690 57 87 129 162
212 690 58 86 128 162
212 690 59 87 129 163
212 691 58 73 118 155
212 691 59 75 120 157
212 688 60 80 126 161
212 688 61 76 121 157
212 689 60 81 127 163
212 689 61 79 125 161
213 688 61 73 118 154
213 689 61 79 125 160
213 688 62 73 118 152
213 688 63 81 119 151
213 689 62 79 123 158
213 689 63 76 116 150
212 690 60 83 128 164
212 690 61 79 126 163
212 691 60 77 125 162
212 691 61 78 126 163
213 690 61 76 125 162
213 691 61 76 124 162
213 690 62 76 123 160
213 690 63 84 124 158
213 691 62 73 122 160
213 691 63 80 123 157
212 692 58 82 124 159
212 692 59 71 117 155
212 693 58 79 123 157
212 693 59 76 123 159
212 694 59 80 125 161
212 695 59 71 118 155
212 692 60 73 120 159
212 692 61 77 125 163
212 693 60 81 127 163
212 693 61 83 129 165
213 692 61 79 127 164
213 693 61 84 129 165
213 692 62 80 127 163
213 692 63 80 123 158
213 693 62 81 128 164
213 693 63 81 126 162
212 694 60 85 128 163
212 694 61 87 129 163
212 695 60 81 124 159
212 695 61 86 127 160
213 694 61 84 128 164
213 695 61 87 127 161
213 694 62 81 127 163
213 694 63 78 125 161
213 695 62 85 127 161
213 695 63 80 125 160
208 696 52 101 138 169
208 696 53 93 136 170
208 697 52 106 104 121
208 697 53 98 103 120
209 696 53 86 134 171
209 697 53 96 122 147
209 696 54 84 135 174
209 697 54 98 129 156
208 698 52 136 58 78
208 698 53 123 60 72
208 699 52 136 45 56
208 699 53 139 48 58
209 698 53 114 63 73
209 699 53 138 53 61
209 698 54 110 79 86
209 699 54 134 52 58
209 699 55 129 50 55
210 696 54 85 138 177
210 696 55 85 138 177
210 697 54 94 134 166
210 697 55 91 134 166
210 698 54 107 93 104
210 698 55 99 102 120
210 699 55 119 52 61
208 700 52 123 78 73
208 700 53 130 97 95
208 701 53 174 169 171
208 701 54 169 166 168
209 700 54 123 87 89
209 700 55 120 74 80
209 701 54 154 149 149
209 701 55 140 131 132
208 702 53 177 174 181
208 703 53 156 156 166
208 702 54 171 169 176
208 703 54 159 159 167
209 702 54 169 167 171
209 702 55 163 161 165
209 703 54 165 164 170
209 703 55 166 165 170
210 700 55 119 59 69
210 701 55 127 108 113
210 702 55 155 152 157
210 703 55 162 161 167
210 696 56 85 137 176
210 697 56 88 135 170
211 696 56 86 137 175
211 696 57 81 132 171
211 697 56 89 134 169
211 697 57 89 134 169
211 696 58 78 125 163
211 697 58 89 132 166
210 698 56 91 101 122
210 699 56 112 49 62
211 698 56 93 108 132
211 698 57 96 115 138
211 699 56 115 60 75
211 699 57 115 76 95
211 698 58 93 116 140
211 699 58 114 82 100
210 700 56 122 47 59
210 701 56 120 79 88
211 700 56 117 35 38
211 700 57 117 44 40
211 701 57 118 60 69
211 700 58 120 53 55
211 701 58 117 55 60
210 702 56 144 139 145
210 703 56 153 155 162
210 703 57 148 150 158
211 702 57 130 115 126
211 703 57 146 147 154
211 702 58 128 105 116
211 703 58 154 153 159
212 696 59 73 120 157
212 697 59 86 127 160
212 698 58 90 116 141
212 698 59 86 117 144
212 699 58 114 88 104
212 699 59 98 89 108
212 696 60 66 110 147
212 696 61 73 111 146
212 697 60 84 122 154
212 697 61 74 114 147
213 696 61 74 111 145
213 697 61 75 116 148
213 696 62 78 115 149
213 696 63 76 118 152
213 697 62 74 113 146
213 697 63 77 119 153
212 698 60 86 119 149
212 699 60 84 104 127
213 698 60 83 119 149
213 698 61 78 117 149
213 699 60 88 97 119
213 699 61 83 107 131
213 698 62 85 123 155
213 698 63 83 123 157
213 699 62 88 121 150
213 699 63 89 128 159
214 696 63 76 119 153
214 697 63 77 120 155
214 698 63 82 124 158
214 699 63 85 127 161
212 700 58 121 59 60
212 700 59 114 62 59
212 701 58 119 53 58
212 701 59 115 51 40
212 702 58 129 103 114
212 702 59 120 94 101
212 703 58 155 154 158
212 703 59 156 154 158
212 701 60 113 51 45
213 700 60 106 70 72
213 700 61 84 69 80
213 701 60 113 56 56
213 701 61 110 56 61
213 700 62 81 98 118
213 700 63 88 112 135
213 701 62 107 67 77
213 701 63 99 77 86
212 702 60 108 77 80
213 702 60 107 75 77
213 702 61 112 82 83
213 703 60 156 152 155
213 703 61 151 146 146
213 702 62 103 64 66
213 703 62 136 128 127
214 700 63 87 118 145
214 701 62 110 59 64
214 701 63 99 77 82
214 702 62 108 69 69
214 702 63 113 66 64
214 703 62 126 114 113
214 703 63 109 75 75
