ply
format ascii 1.0
comment Version 2, Copyright 2017, 8i Labs, Inc.
comment frame_to_world_scale 0.179523
comment frame_to_world_translation -45.2095 7.18301 -54.3561
comment width 1023
element vertex 384
property float x
property float y
property float z
property uchar red
property uchar green
property uchar blue
end_header
192 736 59 150 171 206
192 737 59 138 160 197
193 736 59 171 184 215
193 737 59 152 171 209
194 736 59 154 172 206
194 737 59 150 173 212
195 736 59 111 141 188
195 737 59 127 157 204
194 738 59 146 172 214
195 738 59 120 153 205
192 737 60 145 166 202
192 738 60 144 166 198
192 739 60 175 188 211
193 738 60 126 154 196
193 739 60 125 153 189
194 738 60 133 163 209
194 739 60 127 158 203
195 738 60 117 150 206
195 739 60 119 151 204
192 740 60 180 193 216
192 740 61 185 197 218
192 741 61 184 196 216
193 740 60 172 188 213
193 741 60 185 197 218
193 741 61 182 194 214
192 742 61 188 198 216
193 742 61 183 193 212
193 743 61 186 195 214
192 742 62 188 198 217
192 743 62 183 194 214
193 743 62 187 195 214
194 740 60 168 186 216
194 741 60 184 198 219
194 741 61 186 197 216
195 740 60 149 172 208
195 741 60 176 190 216
195 741 61 183 196 217
194 742 61 180 193 213
194 743 61 178 191 213
195 742 61 181 194 214
195 743 61 178 192 214
196 736 59 112 144 201
196 737 59 117 152 208
197 736 59 98 140 202
197 737 59 106 144 204
196 738 59 112 146 208
197 738 59 104 137 202
197 739 59 69 107 184
198 736 59 92 133 193
198 737 59 131 156 200
199 736 58 127 154 198
199 736 59 124 149 195
199 737 59 167 180 208
198 738 59 133 154 193
198 739 59 122 143 184
199 738 59 186 194 214
199 739 59 186 195 213
196 739 60 110 141 207
197 739 60 91 122 196
198 739 60 136 153 191
199 739 60 185 195 213
196 740 60 126 152 204
196 741 60 156 174 207
197 740 60 119 141 197
197 741 60 152 167 204
196 742 61 178 191 212
196 743 61 179 191 211
197 742 60 172 183 207
197 742 61 178 188 208
197 743 61 183 192 209
198 740 60 167 177 206
198 741 60 185 193 215
199 740 60 184 195 214
199 741 60 179 191 213
198 742 60 185 193 213
198 742 61 182 190 207
198 743 61 186 193 209
199 742 60 174 188 210
199 742 61 175 188 209
199 743 61 183 193 212
192 744 62 175 189 211
192 745 62 175 189 212
192 745 63 174 189 213
193 744 62 184 193 213
193 745 62 187 195 214
193 745 63 183 193 212
192 746 63 170 188 213
192 747 63 164 186 215
193 746 63 183 193 211
193 747 63 178 190 210
194 744 62 179 191 214
194 745 62 180 192 212
195 744 62 179 194 216
195 745 62 176 191 213
194 746 62 184 195 212
194 746 63 188 197 214
194 747 63 187 186 199
195 746 62 178 192 212
195 746 63 190 195 211
195 747 63 193 182 193
193 748 63 175 184 201
193 749 63 175 168 181
194 748 63 175 143 154
194 749 63 179 92 110
195 748 63 185 115 132
195 749 63 196 46 70
195 750 63 206 15 48
196 744 61 183 193 214
197 744 61 184 192 210
196 744 62 183 194 215
196 745 62 182 193 214
197 744 62 184 192 210
197 745 62 183 192 209
196 746 62 177 188 207
196 747 63 165 159 168
197 746 62 181 191 208
197 747 62 186 193 206
197 747 63 184 182 190
198 744 61 187 194 210
199 744 61 188 196 213
198 745 62 185 192 209
199 745 62 189 194 211
198 746 62 184 192 208
198 747 62 185 195 210
199 746 62 184 190 206
199 747 62 180 191 208
196 748 63 162 92 105
196 749 63 173 44 53
197 748 63 183 160 166
197 749 63 168 70 78
196 750 63 198 79 74
197 750 63 197 50 54
197 751 63 214 24 39
198 748 62 186 192 205
198 748 63 187 178 191
198 749 63 183 116 133
199 748 62 182 190 207
199 749 63 185 151 169
198 750 63 202 29 56
198 751 63 213 6 32
199 750 63 196 43 70
199 751 63 210 5 29
200 736 58 146 174 208
200 736 59 159 182 211
200 737 59 176 192 215
201 736 58 123 170 209
201 736 59 121 169 209
201 737 59 124 170 209
200 738 59 184 197 216
200 739 59 185 197 216
201 738 59 132 172 209
201 739 59 148 180 214
202 736 58 134 173 210
202 736 59 133 173 210
202 737 59 123 169 208
203 736 58 154 181 211
203 736 59 159 182 210
203 737 59 157 183 214
202 738 59 104 158 202
202 739 59 125 168 207
203 738 59 148 180 214
203 739 59 142 176 211
200 739 60 183 196 216
201 739 60 157 184 215
202 739 60 131 170 208
203 739 60 139 173 207
200 740 60 179 193 214
200 741 60 171 187 211
201 740 60 164 187 215
201 741 60 165 185 211
201 741 61 161 183 210
200 742 60 166 185 210
200 742 61 166 185 210
200 743 61 174 191 214
201 742 61 162 183 209
201 743 61 165 186 212
202 740 60 142 176 210
202 741 60 155 182 212
202 741 61 159 183 211
203 740 60 139 172 205
203 741 60 151 178 207
203 741 61 158 181 209
202 742 61 160 183 211
202 743 61 161 183 211
203 742 61 163 184 210
203 743 61 161 183 209
204 736 59 170 186 209
204 737 59 170 187 210
205 736 59 179 190 209
205 737 59 177 189 209
204 738 59 165 187 213
206 736 59 174 186 205
205 737 60 177 189 209
204 738 60 170 187 211
204 739 60 162 183 210
205 738 60 176 188 208
205 739 60 170 184 206
206 736 60 172 185 205
206 737 60 178 189 207
207 736 60 170 185 206
207 737 60 170 178 196
206 738 60 178 187 204
206 739 60 173 184 201
207 738 60 170 170 186
207 739 60 173 172 186
204 740 60 156 179 206
204 741 60 154 177 205
204 741 61 161 180 205
205 740 60 162 179 203
205 741 60 159 177 202
205 741 61 163 180 203
204 742 61 166 183 207
204 743 61 167 184 208
205 742 61 171 184 205
205 743 61 173 184 203
206 740 60 169 181 199
206 741 61 166 179 197
207 740 60 175 175 185
207 740 61 175 178 188
207 741 61 173 177 188
206 742 61 169 179 197
206 743 61 173 180 197
207 742 61 172 173 184
207 743 61 171 174 190
207 743 62 171 173 187
200 744 61 177 192 214
200 745 61 180 193 214
201 744 61 164 185 212
201 745 61 163 185 211
200 745 62 182 194 214
201 745 62 163 185 212
200 746 62 181 193 213
200 747 62 176 190 211
201 746 62 166 187 213
201 747 62 169 188 214
202 744 61 161 183 211
202 745 61 161 183 211
203 744 61 155 179 207
202 745 62 162 184 212
203 745 62 156 180 208
202 746 62 163 185 212
202 747 62 166 186 212
203 746 62 159 182 209
203 747 62 162 184 211
200 748 62 173 190 211
200 749 63 178 183 204
201 748 62 167 188 215
201 748 63 167 189 216
201 749 63 168 189 212
200 750 63 187 95 118
200 751 63 204 3 39
201 750 63 180 161 175
201 751 63 183 79 100
202 748 62 168 188 213
202 748 63 169 189 215
202 749 63 169 191 216
203 748 62 163 184 210
203 748 63 161 182 209
203 749 63 166 188 215
202 750 63 170 183 204
202 751 63 176 143 159
203 750 63 168 188 211
204 744 61 166 184 208
205 744 61 173 183 202
204 744 62 171 185 207
204 745 62 163 182 207
205 744 62 173 184 203
205 745 62 173 185 205
204 746 62 158 180 206
204 747 62 157 179 207
204 747 63 158 180 207
205 746 62 167 182 205
205 746 63 168 183 205
205 747 63 162 180 204
206 744 62 177 183 199
206 745 62 178 185 202
207 744 62 173 179 194
207 745 62 176 182 198
206 746 62 176 186 205
206 746 63 176 185 204
206 747 63 171 182 204
207 746 63 180 187 202
207 747 63 174 184 203
204 748 63 159 181 209
204 749 63 161 183 210
205 748 63 164 183 209
205 749 63 167 187 212
206 748 63 166 182 205
206 749 63 166 184 208
207 748 63 169 183 203
207 749 63 168 184 206
208 736 60 172 184 202
208 736 61 172 183 200
208 737 60 161 158 172
208 737 61 156 145 158
209 736 60 171 182 199
209 736 61 169 178 194
209 737 61 154 135 142
208 738 60 166 144 160
208 738 61 162 101 117
208 739 60 169 139 153
208 739 61 178 84 103
209 738 61 183 102 109
209 739 61 193 65 78
210 736 61 169 176 192
210 737 61 156 140 148
211 736 61 161 172 190
211 737 61 165 137 147
211 736 62 156 166 185
211 737 62 162 142 154
210 738 61 173 81 86
210 739 61 197 66 75
210 739 62 189 59 74
211 738 62 172 96 109
211 739 62 183 61 75
208 740 60 175 144 152
208 740 61 181 103 114
208 741 61 179 128 133
209 740 61 193 69 81
209 741 61 191 82 89
209 741 62 191 77 84
208 742 61 176 154 160
208 743 61 177 173 181
208 742 62 172 131 133
208 743 62 174 154 161
209 742 62 186 87 92
209 743 62 179 97 102
210 740 61 195 61 72
210 740 62 195 55 65
210 741 62 196 51 57
211 740 62 194 45 59
211 741 62 198 32 38
211 741 63 192 31 38
210 742 62 195 59 64
210 742 63 196 30 36
210 743 62 196 54 61
210 743 63 198 21 31
211 742 63 196 37 45
211 743 63 197 23 36
212 736 62 149 160 178
212 737 62 156 146 159
213 736 62 133 145 163
213 736 63 127 142 162
213 737 62 133 135 151
213 737 63 143 144 158
212 738 62 167 113 121
212 739 62 181 69 80
212 739 63 174 77 85
213 738 63 159 136 143
213 739 63 168 100 103
214 736 63 150 163 181
214 737 63 159 169 184
214 738 63 164 163 175
212 740 63 190 41 53
212 741 63 185 26 37
213 740 63 180 54 67
213 741 63 178 28 39
212 742 63 194 46 61
212 743 63 195 26 39
208 744 62 174 169 177
208 745 62 172 177 190
208 745 63 168 178 193
209 744 62 170 125 128
209 744 63 175 86 92
209 745 63 160 123 134
208 746 63 170 182 199
208 747 63 169 180 200
209 746 63 140 112 141
209 747 63 113 96 140
210 744 63 187 64 72
210 745 63 175 71 85
211 744 63 194 28 38
211 745 63 188 35 46
210 746 63 158 48 85
210 747 63 128 36 98
211 746 63 178 38 59
211 747 63 156 31 82
208 748 63 166 180 201
208 749 63 165 182 204
209 748 63 116 112 155
210 748 63 103 42 113
212 744 63 195 20 25
212 745 63 192 19 28
212 746 63 189 29 35
