ply
format ascii 1.0
comment Version 2, Copyright 2017, 8i Labs, Inc.
comment frame_to_world_scale 0.179523
comment frame_to_world_translation -45.2095 7.18301 -54.3561
comment width 1023
element vertex 1131
property float x
property float y
property float z
property uchar red
property uchar green
property uchar blue
end_header
192 803 171 142 99 68
193 803 171 157 125 98
192 801 173 214 182 152
193 801 173 216 186 160
192 800 174 198 166 134
193 800 174 200 165 134
192 802 172 204 175 151
192 802 173 214 184 158
192 803 172 169 134 107
193 802 172 211 185 163
193 802 173 218 191 169
193 803 172 190 163 141
194 801 173 213 185 159
195 801 173 195 170 148
194 800 174 189 155 122
194 801 174 212 181 153
195 800 174 162 137 113
195 801 174 190 164 142
194 802 173 215 188 166
194 803 172 204 181 162
195 802 173 206 182 163
195 803 172 213 190 175
192 804 171 159 120 84
192 805 170 191 162 135
193 804 171 132 108 90
193 805 170 146 130 120
193 805 171 106 90 88
192 806 169 207 185 168
192 807 168 211 191 178
192 807 169 213 193 178
193 806 169 201 183 173
193 807 168 210 190 178
193 807 169 202 183 172
192 806 170 203 178 158
193 806 170 180 168 164
194 804 171 141 125 121
194 805 170 80 85 100
194 805 171 89 86 96
195 804 171 151 141 138
195 805 171 109 111 120
194 807 169 199 184 176
195 807 169 186 172 165
194 806 170 124 126 133
195 806 170 109 117 130
195 807 170 167 163 166
195 804 172 194 176 165
196 801 173 183 166 154
196 800 174 129 118 110
196 800 175 102 91 83
196 801 174 160 148 140
197 800 174 97 96 100
197 800 175 97 93 93
197 801 174 131 128 131
196 802 173 204 186 175
196 803 172 216 196 183
196 803 173 213 193 181
197 802 173 184 175 172
197 803 172 209 193 184
197 803 173 198 185 180
197 802 174 151 150 155
198 800 175 106 99 99
198 801 174 116 120 128
199 800 175 119 108 102
199 801 174 117 121 128
199 801 175 121 120 124
198 802 173 127 133 142
198 803 172 187 176 171
198 803 173 154 151 154
199 803 173 161 159 162
198 802 174 124 130 141
199 802 174 115 125 139
196 804 171 170 157 150
196 805 171 130 125 127
197 805 171 143 130 123
196 807 169 168 161 160
197 807 169 134 133 137
196 806 170 113 118 130
196 806 171 112 114 124
196 807 170 139 140 149
197 806 171 120 116 118
197 807 170 114 116 124
198 805 171 177 162 152
199 805 171 184 166 155
198 806 171 132 120 113
198 807 170 124 118 120
199 806 171 163 146 136
199 807 170 159 146 139
199 807 171 156 141 134
196 804 172 203 185 174
197 804 172 205 187 177
197 805 172 179 164 153
198 804 172 204 189 180
198 805 172 198 181 170
199 804 172 204 187 177
199 805 172 195 175 162
192 808 167 137 125 117
192 809 167 135 121 112
193 809 167 158 138 122
192 811 165 191 177 169
193 811 165 177 165 160
192 810 166 159 150 147
192 810 167 148 136 130
192 811 166 169 159 156
193 810 167 133 120 111
193 811 166 132 132 135
194 809 167 167 144 124
194 810 167 130 119 115
194 811 166 118 124 133
195 810 167 156 143 133
195 811 166 120 127 137
195 811 167 117 115 121
192 814 163 112 110 114
192 815 163 109 112 119
193 815 163 115 113 116
194 815 163 154 138 135
192 812 165 206 187 175
192 813 164 181 165 155
193 812 165 195 180 172
193 813 164 179 163 153
193 813 165 188 169 156
192 814 164 138 127 124
193 814 164 131 117 115
193 815 164 119 107 111
194 812 165 165 152 144
194 813 165 157 134 117
195 813 165 154 127 110
194 812 166 156 152 152
195 812 166 155 148 145
194 814 164 140 111 102
194 815 164 152 124 123
195 814 164 162 114 113
195 814 165 155 114 101
195 815 164 170 110 122
196 810 167 160 142 129
196 811 166 152 146 145
196 811 167 144 133 131
197 810 167 167 145 128
197 811 167 166 133 125
198 811 167 173 102 107
199 811 167 178 110 116
196 813 165 159 133 113
197 813 165 163 139 116
196 812 166 174 164 158
196 813 166 178 160 146
197 812 166 189 166 159
197 812 167 186 143 143
197 813 166 181 157 147
196 814 165 166 120 110
196 815 164 179 108 123
196 815 165 168 121 115
197 814 165 159 133 117
197 815 164 168 128 124
197 815 165 161 142 133
198 812 166 189 130 146
198 812 167 190 120 136
198 813 166 153 110 120
199 812 167 180 119 135
199 813 166 121 76 102
198 814 165 126 113 114
198 815 165 141 135 135
199 814 165 79 80 100
199 815 165 135 140 150
198 814 166 123 100 104
199 814 166 75 68 99
192 808 168 170 153 141
193 808 168 202 182 168
193 809 168 182 160 144
194 808 168 212 191 178
194 809 168 193 171 154
195 808 168 204 184 171
195 808 169 195 177 165
195 809 168 199 178 163
196 808 168 203 185 174
196 808 169 195 181 173
196 809 168 199 179 164
197 808 169 167 157 152
197 809 168 170 147 126
197 809 169 161 140 122
196 810 168 187 166 149
197 810 168 163 134 110
198 808 169 163 151 147
198 809 168 150 112 89
198 809 169 160 136 120
199 808 169 181 164 155
199 809 169 160 128 110
199 808 170 175 161 154
198 810 168 162 117 98
198 811 168 173 107 106
199 810 168 166 121 107
199 811 168 175 119 115
200 800 175 162 146 138
200 801 174 127 129 137
200 801 175 137 132 134
201 800 175 192 174 164
201 801 174 124 124 130
201 801 175 146 138 139
200 803 173 157 153 155
201 803 173 155 148 144
200 802 174 121 129 141
201 802 174 123 128 136
201 803 174 138 139 142
202 800 175 201 182 172
202 801 175 167 153 148
203 800 175 200 177 162
203 801 175 179 158 145
202 803 173 181 167 160
203 803 173 183 171 167
202 802 174 152 145 143
202 803 174 164 156 154
203 802 174 179 163 155
203 802 175 182 161 151
203 803 174 181 168 164
200 806 171 166 138 127
200 807 170 184 167 158
200 807 171 173 150 141
201 806 171 166 97 113
201 807 170 185 161 166
201 807 171 186 138 150
202 806 171 166 106 129
202 807 170 167 147 158
202 807 171 172 140 153
203 806 171 166 138 146
203 807 171 162 154 161
200 804 172 186 164 146
200 804 173 185 166 152
200 805 172 173 143 124
201 804 172 165 132 109
201 804 173 174 153 135
201 805 172 156 95 89
201 806 172 158 71 97
202 804 172 160 126 108
202 804 173 174 150 137
202 805 172 156 101 103
203 804 173 177 161 156
203 805 172 166 145 142
202 806 172 158 91 111
203 806 172 164 144 150
204 800 175 176 145 127
204 801 175 169 124 115
205 801 175 169 105 115
204 803 173 169 166 172
205 803 173 117 133 153
204 802 174 187 156 156
204 802 175 178 139 139
204 803 174 184 168 171
205 802 174 181 136 151
205 802 175 182 128 141
205 803 174 160 148 161
206 801 175 177 144 140
207 801 175 180 166 158
206 803 173 107 130 155
206 802 174 179 152 158
206 802 175 188 169 166
206 803 174 154 154 166
207 802 175 181 170 165
207 803 174 170 168 171
204 807 171 159 160 166
205 807 171 179 176 180
206 807 171 158 157 163
207 807 171 121 133 149
204 804 173 157 158 166
204 805 172 153 155 163
205 804 173 98 128 155
205 805 172 134 149 166
205 805 173 102 131 157
204 806 172 157 156 162
205 806 172 176 177 184
206 804 173 114 140 164
206 805 172 148 160 177
206 805 173 119 142 165
207 804 173 153 158 170
207 805 172 140 149 163
207 805 173 140 149 164
206 806 172 173 174 182
207 806 172 138 145 157
200 811 167 192 165 158
201 811 167 192 177 169
200 812 167 186 164 164
200 813 166 124 118 131
200 813 167 152 137 143
201 812 167 168 158 153
201 813 166 161 159 164
201 813 167 174 168 169
200 815 165 152 159 170
201 815 165 150 154 166
200 814 166 105 116 134
200 815 166 121 135 151
201 814 166 158 158 166
201 815 166 143 148 158
202 812 167 126 114 111
202 813 167 161 153 152
203 812 167 99 81 77
203 813 167 133 125 127
202 815 165 120 137 157
203 815 165 109 135 161
202 814 166 159 156 160
202 814 167 163 158 159
202 815 166 137 145 158
203 814 166 147 148 158
203 814 167 150 150 156
203 815 166 119 137 158
204 813 167 124 113 115
205 813 167 137 122 116
204 814 167 157 158 167
204 815 166 119 139 160
205 814 167 155 152 155
205 815 166 146 151 161
206 813 167 174 155 139
207 813 167 194 168 143
207 815 165 160 133 109
206 814 167 183 170 162
206 815 166 187 174 167
207 814 166 191 167 147
207 814 167 196 175 156
207 815 166 183 161 143
200 808 169 194 177 166
200 809 169 175 153 137
201 809 169 151 145 145
200 808 170 194 178 169
201 808 170 163 155 157
200 810 168 165 135 118
200 810 169 165 141 123
200 811 168 176 149 135
201 810 168 172 157 147
201 810 169 154 144 138
201 811 168 169 154 144
202 809 169 106 120 135
203 809 169 126 140 155
202 808 170 120 130 148
202 809 170 90 116 138
203 808 170 112 132 153
203 809 170 106 130 153
202 810 169 131 129 130
202 811 168 127 110 97
203 810 169 138 135 138
203 811 168 112 87 72
203 811 169 126 108 97
202 812 168 117 101 94
203 812 168 92 67 61
204 809 169 134 143 156
204 808 170 107 127 148
204 809 170 118 135 155
205 808 170 109 122 138
205 809 170 101 113 130
204 810 169 133 127 128
204 811 168 107 78 61
204 811 169 121 102 90
205 810 169 115 110 112
205 811 168 127 103 82
205 811 169 139 123 113
206 808 170 92 111 132
206 808 171 113 126 141
206 809 170 97 115 135
207 808 170 109 137 163
207 808 171 112 135 159
207 809 170 120 143 167
206 810 169 141 144 152
206 811 168 153 134 119
206 811 169 166 156 152
207 810 169 148 157 170
207 811 169 151 144 141
204 812 168 95 69 62
205 812 168 125 101 81
206 812 168 155 131 109
207 812 168 158 133 107
202 800 176 212 192 178
203 800 176 208 186 170
204 800 176 174 138 118
205 800 176 162 115 100
206 800 176 166 134 122
207 800 176 177 162 154
207 801 176 180 165 157
192 817 161 153 117 98
193 817 161 153 107 87
192 816 162 158 148 143
193 816 162 180 166 157
193 816 163 162 155 152
193 817 162 161 133 114
192 818 160 160 100 100
192 818 161 155 100 89
192 819 160 180 132 138
193 818 161 160 99 99
193 819 160 186 127 138
193 819 161 168 118 120
194 816 162 190 174 165
194 816 163 185 167 161
194 817 162 167 149 139
195 816 163 184 148 153
195 817 162 143 128 132
194 818 161 154 129 124
194 819 160 183 155 149
194 819 161 176 153 148
195 818 161 146 137 137
195 819 161 169 158 153
195 818 162 133 124 127
195 816 164 188 125 141
193 820 160 188 154 159
194 820 160 192 176 170
194 821 160 181 173 171
195 820 160 179 167 159
195 820 161 170 158 151
195 821 160 173 163 158
196 816 163 178 123 145
196 817 162 102 97 118
196 817 163 133 104 129
197 816 163 140 116 128
197 817 163 86 93 116
196 819 161 137 130 128
197 819 161 141 130 122
196 818 162 99 103 116
197 818 162 99 115 131
197 818 163 87 110 129
197 819 162 144 141 142
198 817 163 104 118 132
199 817 163 142 143 151
198 818 162 134 138 148
198 818 163 117 126 138
198 819 162 142 130 127
199 818 163 126 126 134
199 819 162 114 98 93
199 819 163 114 108 111
196 816 164 189 113 137
197 816 164 162 139 142
198 816 164 149 149 152
198 817 164 133 138 147
199 816 164 183 181 185
199 817 164 164 164 170
196 820 160 139 124 113
196 820 161 136 121 111
196 821 160 147 134 128
197 820 160 115 96 88
197 820 161 121 102 90
197 821 160 109 94 91
197 822 160 132 124 123
198 820 161 105 75 62
198 821 160 97 75 73
198 821 161 82 52 46
199 820 161 105 79 64
199 821 161 97 70 62
199 820 162 107 80 65
198 822 160 133 117 116
199 822 160 113 93 83
199 823 160 126 112 107
200 818 163 112 109 117
200 819 162 93 84 84
200 819 163 93 89 96
201 818 163 108 122 139
201 819 162 119 126 135
201 819 163 111 127 145
202 818 163 109 138 165
202 819 163 127 145 164
203 819 163 150 150 155
200 816 164 192 188 192
200 816 165 189 187 192
200 817 164 165 160 164
201 816 164 147 147 154
201 816 165 145 150 161
201 817 164 129 135 147
201 818 164 117 133 152
202 816 165 112 134 156
202 817 164 105 132 159
203 816 165 101 133 162
203 817 164 101 132 160
203 817 165 103 135 164
202 818 164 107 137 165
203 818 164 111 132 154
200 820 161 136 120 112
200 821 161 137 118 106
201 821 161 160 145 135
200 820 162 133 121 115
201 820 162 157 155 158
201 821 162 166 156 150
200 822 160 130 112 98
200 822 161 129 109 93
200 823 160 141 127 119
201 822 160 151 133 118
201 822 161 157 139 125
201 823 160 142 126 114
202 821 161 176 161 150
202 820 162 163 160 163
202 821 162 177 164 156
203 820 162 187 173 165
203 820 163 181 169 162
203 821 162 188 170 157
202 822 161 168 150 137
202 823 160 130 115 102
202 823 161 146 130 115
203 822 161 161 139 119
203 823 160 121 100 81
203 823 161 140 118 99
204 819 163 182 160 143
205 819 163 173 141 113
206 819 163 155 111 86
207 819 163 161 118 97
204 816 165 102 130 156
204 817 164 100 119 138
204 817 165 102 127 150
205 816 165 140 143 150
205 817 164 101 95 93
205 817 165 115 114 117
204 818 164 116 116 121
204 819 164 150 133 120
205 818 164 119 98 80
205 819 164 156 127 100
206 816 165 156 139 127
206 817 164 115 83 66
206 817 165 126 101 85
207 816 165 148 116 93
207 817 164 139 97 81
207 817 165 141 102 84
206 818 164 128 92 70
206 819 164 146 106 82
207 818 164 144 100 84
207 819 164 151 108 89
204 820 162 192 171 153
204 820 163 192 171 154
204 821 162 183 160 140
205 820 162 168 132 104
205 820 163 174 140 112
205 821 162 163 126 101
204 822 161 157 127 105
204 823 160 150 119 100
204 823 161 149 118 98
205 822 161 164 126 104
205 823 160 178 135 115
205 823 161 173 132 113
205 822 162 167 128 105
206 820 162 163 120 95
206 820 163 158 114 89
206 821 162 171 130 106
207 820 162 178 136 113
207 820 163 171 130 107
207 821 162 182 137 115
206 822 161 180 137 113
206 823 160 190 140 116
206 823 161 186 138 114
207 822 161 187 137 115
207 823 160 193 140 118
207 823 161 191 138 117
206 822 162 177 136 112
207 822 162 184 137 114
203 824 160 131 105 83
204 824 160 163 128 108
205 824 160 183 138 117
206 824 160 193 142 119
207 824 160 194 142 119
208 801 175 138 123 116
209 801 175 94 66 62
208 802 175 143 133 129
208 803 174 166 160 160
209 802 175 93 77 78
209 803 174 148 141 142
210 801 175 90 58 55
211 801 175 114 95 87
210 802 175 88 68 71
210 803 174 132 125 128
211 802 175 110 93 88
211 803 174 129 123 124
208 807 171 103 134 163
209 807 171 107 138 166
210 807 171 166 162 164
211 807 171 190 167 148
208 804 173 161 159 164
208 805 172 126 138 156
208 805 173 138 144 157
209 804 173 152 152 159
209 805 172 99 123 149
209 805 173 116 129 148
208 806 172 111 132 156
209 806 172 83 120 151
209 807 172 99 131 159
210 804 173 137 136 144
210 805 172 91 103 122
210 805 173 94 103 120
211 804 173 120 116 120
211 805 173 116 105 103
210 806 172 109 118 134
210 807 172 146 148 155
211 806 172 159 141 128
211 807 172 186 166 149
212 801 175 144 130 122
213 801 175 167 154 144
212 802 175 144 128 119
212 803 174 150 138 132
213 802 175 176 159 145
213 803 174 171 154 142
214 801 175 197 179 166
215 801 175 206 182 162
214 802 175 202 182 166
214 803 174 172 150 133
215 802 175 202 178 157
215 803 174 170 138 115
212 807 171 173 133 102
213 807 171 168 116 95
214 807 170 174 119 102
214 807 171 170 117 99
215 806 171 179 127 109
215 807 170 188 134 116
215 807 171 178 125 107
212 804 173 119 107 103
212 805 173 133 107 83
213 804 173 117 96 78
213 805 172 145 108 77
213 805 173 126 92 62
212 806 172 177 146 114
212 807 172 190 155 122
213 806 172 165 123 91
213 807 172 171 126 90
214 804 173 136 102 81
214 805 172 157 113 93
214 805 173 147 104 83
215 804 173 163 118 101
215 805 172 172 122 105
215 805 173 168 120 104
214 806 172 166 117 97
215 806 172 174 123 105
208 813 167 189 156 123
209 813 167 161 119 87
208 815 165 151 113 90
209 815 165 153 107 89
208 814 166 169 135 110
208 814 167 180 147 117
208 815 166 159 123 100
209 814 166 156 111 91
209 814 167 160 116 89
209 815 166 152 107 90
210 812 167 157 111 91
210 813 167 159 112 91
211 812 167 160 111 94
211 813 167 160 112 94
210 815 165 155 109 91
211 815 165 167 121 104
210 814 166 157 110 90
210 815 166 154 108 89
211 814 166 158 111 93
211 815 166 162 116 99
212 812 167 161 112 94
212 813 166 165 116 101
212 813 167 163 113 98
213 812 167 177 127 110
213 813 166 187 136 119
213 813 167 178 129 113
212 815 165 184 136 118
213 815 165 195 142 122
212 814 166 171 123 108
212 815 166 175 128 112
213 814 166 191 139 120
214 812 167 197 146 128
214 813 166 200 147 129
215 812 167 206 153 134
215 813 166 203 149 131
214 815 165 198 143 123
215 815 165 198 144 124
214 814 166 200 145 128
215 814 166 201 146 127
208 808 170 118 148 177
208 808 171 110 143 174
208 809 170 129 152 174
209 808 170 155 165 178
209 808 171 136 155 175
209 809 170 160 162 168
208 810 169 130 139 151
208 811 169 115 104 99
209 810 169 128 117 114
209 811 168 109 61 44
209 811 169 91 57 47
210 808 170 192 178 169
210 808 171 185 175 171
210 809 170 177 158 144
211 808 170 175 146 121
211 808 171 187 162 140
211 809 170 164 128 104
210 810 169 142 105 84
210 811 168 135 90 73
210 811 169 132 86 68
211 810 169 154 109 89
211 811 168 155 110 94
211 811 169 154 108 92
208 812 168 153 122 92
209 812 168 140 101 71
210 812 168 149 104 86
211 812 168 159 112 95
212 809 169 160 113 92
213 809 169 166 113 97
212 808 170 162 118 95
212 808 171 166 128 101
212 809 170 161 117 93
213 808 170 166 112 98
213 808 171 167 113 98
213 809 170 166 112 97
212 810 169 160 111 95
212 811 168 161 111 95
213 810 169 167 113 99
213 811 168 168 116 102
214 809 169 176 123 108
215 809 169 192 141 127
214 808 170 174 119 103
214 808 171 170 115 100
215 808 170 186 133 116
214 810 168 183 132 120
214 810 169 179 129 116
214 811 168 188 137 122
215 810 168 200 148 132
215 810 169 197 146 132
215 811 168 202 150 133
212 812 168 162 112 96
213 812 168 168 117 102
216 801 175 195 164 134
217 801 175 181 140 105
216 803 173 176 129 110
217 803 173 192 141 126
216 802 175 183 149 120
216 803 174 172 130 107
217 802 174 183 137 117
217 802 175 178 135 109
217 803 174 184 136 119
218 801 175 189 141 119
219 801 175 198 146 124
218 803 173 203 149 129
219 803 173 205 146 125
218 802 174 193 144 125
218 802 175 191 143 123
218 803 174 198 147 127
219 802 174 202 148 126
219 802 175 200 147 125
219 803 174 203 147 125
216 806 171 194 142 124
216 807 170 199 146 128
216 807 171 197 144 125
217 806 171 206 152 130
217 807 170 207 152 133
217 807 171 206 150 131
218 806 171 208 150 130
218 807 170 209 152 132
218 807 171 208 151 132
219 806 171 206 148 127
219 807 170 206 150 126
219 807 171 207 151 128
216 804 173 180 130 114
216 805 172 186 133 118
217 804 173 196 145 127
217 805 172 201 150 128
216 806 172 191 139 121
217 806 172 204 153 130
218 804 172 207 150 129
218 804 173 205 150 129
218 805 172 206 151 128
219 804 172 205 145 125
219 804 173 205 146 125
219 805 172 205 146 126
218 806 172 207 152 130
220 801 175 202 147 124
221 801 175 203 145 122
220 803 173 205 145 123
221 803 173 204 146 123
220 802 174 204 146 123
220 802 175 203 147 123
220 803 174 204 145 123
221 802 174 205 146 125
221 803 174 204 146 124
222 800 175 202 144 122
222 801 175 203 146 124
223 800 175 203 146 122
223 801 175 203 146 122
222 803 173 204 147 126
223 803 173 204 147 128
222 802 174 205 149 125
222 803 174 204 147 124
223 802 174 204 147 125
223 803 174 206 150 129
220 806 171 203 148 124
220 807 170 204 147 124
220 807 171 205 149 125
221 806 171 202 145 124
221 807 170 204 148 126
221 807 171 205 149 127
222 805 171 202 145 124
223 805 171 200 143 123
222 806 171 202 145 124
222 807 170 202 144 124
222 807 171 203 146 125
223 806 171 200 143 123
223 807 170 198 141 121
223 807 171 200 142 121
220 804 172 203 145 124
220 804 173 204 144 123
220 805 172 203 146 124
221 804 172 202 145 124
221 804 173 202 145 124
221 805 172 202 146 124
222 804 172 202 144 125
222 804 173 203 146 126
222 805 172 201 144 124
223 804 172 201 143 123
223 804 173 203 145 125
223 805 172 201 143 123
216 812 167 207 154 134
216 813 166 203 150 129
217 812 167 206 153 134
217 813 166 201 148 130
217 813 167 204 151 132
216 815 165 198 144 125
217 815 165 197 142 124
216 814 166 199 144 124
217 814 166 200 146 128
217 815 166 198 143 125
218 812 167 204 151 134
218 813 166 202 148 131
218 813 167 203 149 132
219 812 167 202 149 131
219 813 166 204 150 133
219 813 167 202 149 132
218 815 165 197 140 121
219 815 165 198 142 123
218 814 166 201 147 130
218 815 166 199 143 125
219 814 166 203 148 131
219 815 166 199 143 124
220 812 167 201 148 130
220 813 167 203 150 132
221 812 167 201 147 129
221 813 167 201 147 129
220 815 165 199 144 124
221 815 165 197 141 121
220 814 166 202 147 129
220 815 166 200 145 126
221 814 166 201 146 126
221 815 166 199 144 124
222 812 167 200 147 128
222 813 167 200 146 126
223 812 167 199 145 125
223 813 167 198 143 123
222 815 165 194 137 116
223 815 165 191 133 112
222 814 166 198 143 123
222 815 166 196 140 119
223 814 166 195 139 118
223 815 166 193 136 114
216 809 169 204 150 134
217 809 169 207 150 131
216 808 170 201 148 131
217 808 170 207 150 132
216 810 168 206 152 134
216 810 169 205 151 135
216 811 168 206 152 134
217 810 168 205 149 130
217 810 169 206 150 130
217 811 168 206 151 133
218 809 169 206 150 130
219 809 169 203 146 126
218 808 170 207 151 130
219 808 170 206 149 127
218 810 168 205 149 132
218 810 169 204 147 128
218 811 168 205 151 134
219 810 168 204 149 132
219 810 169 203 147 128
219 811 168 203 149 131
219 812 168 202 148 131
220 808 169 203 146 125
220 809 169 202 146 126
221 808 169 203 147 126
221 809 169 202 146 126
220 808 170 204 147 125
221 808 170 203 146 125
220 810 168 203 149 130
220 810 169 202 147 128
220 811 168 202 148 130
221 810 168 202 148 129
221 810 169 202 147 127
221 811 168 202 149 130
222 808 169 200 143 122
222 809 169 200 144 124
223 808 169 198 141 121
223 809 169 198 142 121
222 808 170 201 144 123
223 808 170 198 141 120
222 810 168 201 147 128
222 810 169 200 146 126
222 811 168 201 148 129
223 810 169 197 143 122
223 811 168 199 147 126
220 812 168 202 149 131
221 812 168 202 148 130
222 812 168 200 147 128
223 812 168 199 145 125
208 800 176 152 145 142
208 801 176 148 136 130
209 800 176 133 123 119
209 801 176 110 87 79
210 800 176 123 110 104
210 801 176 98 71 62
211 800 176 112 102 97
211 801 176 119 102 93
212 800 176 138 134 136
212 801 176 154 142 137
213 800 176 150 151 158
213 801 176 161 153 151
214 800 176 156 151 152
214 801 176 180 167 159
215 800 176 188 167 150
215 800 177 163 147 135
215 801 176 203 180 160
216 800 176 199 169 138
216 800 177 177 148 118
216 801 176 203 173 143
217 800 176 190 154 113
217 800 177 173 137 98
217 801 176 187 148 109
218 800 176 184 139 106
218 800 177 171 132 98
218 801 176 185 138 108
219 800 176 191 145 122
220 800 176 199 148 124
221 800 176 202 146 122
222 800 176 202 144 121
223 800 176 203 145 122
208 819 163 173 131 110
209 818 163 183 141 120
209 819 163 185 141 118
210 818 163 187 143 120
210 819 163 188 139 117
211 818 163 190 140 119
211 819 163 189 138 117
208 816 165 150 107 88
208 817 164 151 106 90
209 816 165 155 110 92
209 817 164 162 118 101
208 818 164 157 113 97
209 818 164 173 131 113
210 816 164 169 124 110
210 816 165 160 115 100
210 817 164 178 134 116
211 816 164 184 137 119
211 816 165 176 130 113
211 817 164 187 139 119
210 818 164 185 141 120
211 818 164 190 140 119
208 820 162 186 139 117
208 820 163 184 140 116
208 821 162 187 136 115
209 820 162 188 137 114
209 820 163 188 139 115
209 821 162 188 134 112
208 822 161 190 136 118
208 823 160 191 138 116
208 823 161 191 138 118
209 822 161 190 138 114
209 823 160 192 140 119
209 823 161 191 139 117
208 822 162 189 135 116
209 822 162 189 134 113
210 820 162 190 137 116
210 820 163 189 137 116
210 821 162 190 137 115
211 820 162 190 138 116
211 820 163 189 137 116
211 821 162 189 137 115
210 822 161 189 138 113
210 823 160 193 141 120
210 823 161 191 138 117
211 822 161 188 136 112
211 823 161 190 137 116
210 822 162 189 137 114
211 822 162 188 135 113
212 818 163 191 139 119
212 819 163 190 139 118
213 818 163 189 137 115
213 819 163 189 137 115
214 818 163 189 135 113
214 819 163 187 133 112
215 818 163 189 135 113
215 819 163 185 131 110
212 816 164 191 141 121
212 816 165 188 139 120
212 817 164 191 138 118
213 816 164 192 138 117
213 816 165 195 141 121
213 817 164 190 136 114
212 818 164 191 139 118
213 818 164 189 136 114
214 816 164 192 139 117
214 816 165 195 141 120
214 817 164 190 136 115
215 816 164 194 140 118
215 816 165 195 142 121
215 817 164 192 138 116
214 818 164 189 135 113
215 818 164 190 136 114
212 820 162 188 136 113
212 820 163 189 137 114
212 821 162 187 134 111
213 820 162 186 132 110
213 820 163 187 134 112
213 821 162 187 133 112
212 823 161 188 136 115
213 823 161 187 135 114
212 822 162 187 134 112
213 822 162 186 132 112
214 820 162 186 132 112
214 820 163 186 132 111
214 821 162 186 132 112
215 820 162 185 131 111
215 820 163 185 131 112
215 821 162 185 131 111
214 823 161 186 134 113
215 823 161 186 133 112
214 822 162 186 132 112
215 822 162 186 132 112
208 824 160 194 141 120
209 824 160 194 141 120
210 824 160 194 140 120
211 824 160 192 138 119
212 824 160 191 136 116
212 825 160 192 135 116
213 824 160 190 135 115
213 824 161 188 135 115
213 825 160 194 137 117
214 824 160 191 136 115
214 824 161 188 135 114
214 825 160 193 136 115
215 824 160 191 134 112
215 824 161 189 134 113
215 825 160 192 136 113
216 818 163 187 133 112
216 819 163 184 130 111
217 818 163 185 131 111
217 819 163 184 131 111
218 819 163 182 129 108
219 818 163 183 129 108
219 819 163 182 128 108
216 816 164 193 139 118
216 816 165 196 142 121
216 817 164 190 136 115
217 816 164 192 136 116
217 816 165 195 140 121
217 817 164 189 134 113
216 818 164 189 135 114
217 818 164 186 131 111
218 816 164 192 137 116
218 816 165 194 138 119
218 817 164 190 136 115
219 816 164 192 137 116
219 816 165 195 139 119
219 817 164 188 135 113
218 818 164 185 131 110
219 818 164 185 131 109
216 820 162 183 129 109
216 820 163 184 131 111
216 821 162 183 130 109
217 820 162 181 128 107
217 820 163 182 130 109
217 821 162 182 128 107
216 823 161 186 130 109
217 823 161 184 127 103
216 822 162 185 131 111
217 822 162 184 129 108
218 820 162 181 127 106
218 820 163 182 129 108
218 821 162 181 126 105
219 820 162 180 125 106
219 820 163 181 127 108
219 821 162 180 125 105
218 823 161 183 126 103
219 823 161 181 126 104
218 822 162 182 127 105
219 822 162 179 123 103
220 818 163 184 128 109
220 819 163 182 127 109
221 818 163 183 126 107
221 819 163 180 123 105
222 818 163 181 123 104
222 819 163 178 120 102
223 819 163 176 118 99
220 816 164 191 136 114
220 816 165 194 138 117
220 817 164 188 133 112
221 816 164 191 135 114
221 816 165 192 136 115
221 817 164 188 131 111
220 818 164 185 130 109
221 818 164 185 128 108
222 816 165 191 134 113
222 817 164 186 128 108
223 816 165 190 133 113
223 817 164 184 126 107
222 818 164 182 124 105
223 818 164 179 120 102
220 820 162 178 123 104
220 820 163 179 123 105
220 821 162 179 124 105
221 820 162 177 121 104
221 820 163 177 121 103
221 821 162 177 122 104
220 823 161 180 125 104
221 823 161 177 122 102
220 822 162 178 122 103
221 822 162 176 120 101
222 820 162 176 120 103
222 820 163 176 118 101
222 821 162 175 119 101
223 820 163 175 118 99
223 821 162 175 119 100
222 823 161 177 123 101
223 823 161 178 124 102
222 822 162 175 120 100
223 822 162 174 118 96
216 824 160 190 134 110
216 824 161 187 131 108
216 825 160 192 136 113
217 824 160 191 135 112
217 824 161 186 130 105
217 825 160 192 136 113
218 824 160 189 134 111
218 824 161 186 130 105
218 825 160 190 135 112
219 824 160 188 133 109
219 824 161 186 131 107
219 825 160 189 134 111
220 824 160 187 133 108
220 824 161 185 130 105
220 825 160 189 134 110
221 824 160 186 132 108
221 824 161 183 129 103
221 825 160 188 133 110
222 824 160 185 131 108
222 824 161 183 129 104
222 825 160 187 132 111
223 824 160 183 130 107
223 824 161 182 129 106
223 825 160 186 133 112
