ply
format ascii 1.0
comment Version 2, Copyright 2017, 8i Labs, Inc.
comment frame_to_world_scale 0.179523
comment frame_to_world_translation -45.2095 7.18301 -54.3561
comment width 1023
element vertex 1162
property float x
property float y
property float z
property uchar red
property uchar green
property uchar blue
end_header
192 800 83 137 117 99
193 800 83 86 81 81
194 800 83 96 96 98
195 800 83 136 133 137
192 800 84 113 97 82
192 801 84 71 67 63
193 800 84 72 65 59
193 801 84 88 75 67
192 802 84 74 66 69
192 803 85 117 107 106
193 802 84 143 123 112
193 802 85 179 153 139
193 803 85 159 133 115
194 800 84 84 84 85
194 801 84 103 93 86
195 800 84 164 157 163
195 801 84 151 145 150
194 802 84 157 140 128
194 803 85 180 153 139
195 802 84 93 85 87
195 802 85 102 98 99
195 803 85 150 135 128
192 804 85 167 148 140
193 804 85 159 126 101
192 805 86 187 150 119
193 804 86 187 147 114
193 805 86 191 151 108
192 806 86 196 141 89
192 806 87 194 136 87
192 807 87 211 148 86
193 806 86 210 161 106
193 806 87 220 176 121
193 807 87 222 174 115
194 804 85 184 145 115
195 804 85 183 148 126
194 804 86 189 147 114
194 805 86 192 147 94
195 804 86 186 144 111
195 805 86 195 146 90
194 806 86 212 161 97
194 806 87 220 171 104
194 807 87 220 173 106
195 806 86 219 168 103
195 807 87 224 173 104
196 800 83 135 135 141
197 800 83 129 112 98
198 800 83 168 138 114
199 800 83 175 127 82
196 800 84 156 155 164
196 801 84 161 156 160
197 800 84 143 131 122
197 801 84 141 126 115
196 802 84 123 111 110
196 802 85 112 103 104
196 803 85 142 126 121
197 802 84 140 125 114
197 802 85 147 129 113
197 803 85 149 130 120
198 800 84 160 130 109
198 801 84 177 146 122
199 800 84 171 123 70
199 801 84 173 122 69
198 802 84 168 139 118
198 802 85 167 141 119
198 803 85 167 144 123
199 802 84 175 113 55
199 802 85 174 115 69
199 803 85 173 132 98
196 804 85 172 144 129
197 804 85 177 151 138
196 804 86 180 143 117
196 805 86 188 144 96
197 805 86 175 143 114
196 806 86 202 147 74
196 807 87 206 142 61
197 806 86 174 136 99
197 807 87 174 134 88
198 804 85 179 155 134
199 804 85 165 140 124
199 805 85 130 105 94
198 805 86 171 149 131
199 805 86 138 114 105
198 806 86 163 139 130
198 807 87 146 120 101
199 806 86 125 97 89
199 807 86 136 116 113
199 807 87 127 104 103
192 808 87 214 143 73
193 808 87 222 164 95
193 809 87 217 144 65
194 808 87 218 161 88
194 809 87 210 137 60
195 808 87 215 150 77
195 809 87 202 128 61
196 808 87 201 135 69
196 809 87 189 125 64
197 808 87 177 138 98
197 809 87 176 142 107
198 808 87 165 144 129
198 809 87 184 167 156
199 808 87 143 125 111
199 809 87 166 147 132
192 808 88 206 125 62
192 809 88 203 119 60
193 809 88 208 127 49
192 810 88 182 129 93
192 811 89 161 118 103
193 810 88 185 126 86
193 810 89 171 134 118
193 811 88 179 147 128
193 811 89 164 124 119
194 809 88 200 117 47
195 809 88 191 119 57
194 810 88 179 120 86
194 811 89 151 107 112
195 810 88 183 143 101
195 811 89 141 116 103
192 812 89 109 35 33
193 812 89 169 141 142
192 813 90 121 71 71
193 813 90 168 150 141
192 814 90 179 155 134
192 815 90 188 164 142
192 815 91 198 173 152
193 814 90 182 157 133
193 815 91 216 195 173
194 812 89 155 144 149
194 813 89 160 157 159
195 812 89 78 67 71
195 813 89 128 126 130
194 813 90 190 181 178
195 813 90 199 185 178
194 814 90 212 190 176
194 815 90 198 170 147
194 815 91 196 165 138
195 814 90 229 208 193
195 815 90 216 183 158
196 809 88 176 117 66
197 809 88 161 129 101
196 810 88 173 146 125
196 811 88 173 160 159
196 811 89 116 110 114
197 810 88 127 108 104
197 811 88 84 76 83
197 811 89 76 72 77
198 809 88 177 160 149
198 810 88 104 85 79
198 811 88 67 64 71
199 810 88 158 136 118
199 811 88 154 135 121
196 812 89 47 36 43
196 813 89 99 89 88
197 812 89 38 32 49
197 813 89 76 68 63
196 813 90 173 160 151
196 814 90 220 201 184
196 815 90 231 203 177
197 814 90 178 160 145
197 815 90 220 196 174
198 812 89 55 55 74
198 813 89 59 51 72
199 812 89 122 103 108
199 813 89 86 57 79
198 814 89 67 55 74
199 814 89 80 49 79
198 814 90 95 82 70
198 815 90 158 137 118
199 814 90 83 68 78
199 815 90 109 98 90
200 800 83 199 143 97
201 800 83 165 109 55
202 800 83 144 66 17
200 800 84 204 152 103
200 801 84 218 157 95
201 800 84 141 83 52
201 801 84 205 159 118
200 802 84 209 133 53
200 802 85 196 108 56
200 803 84 195 112 44
200 803 85 186 118 78
201 802 84 211 147 82
201 803 84 197 129 58
201 803 85 188 128 70
202 800 84 121 60 30
202 801 84 166 113 83
203 800 84 203 147 80
203 801 84 202 143 84
202 802 84 199 141 82
202 802 85 198 135 78
202 803 85 189 124 58
203 802 84 200 135 73
203 802 85 192 132 70
203 803 85 170 125 88
200 804 85 172 138 121
200 805 85 130 92 75
201 804 85 167 138 120
200 805 86 127 80 66
201 805 86 141 116 103
200 806 86 152 104 76
200 807 86 181 150 135
200 807 87 193 163 146
201 806 86 146 113 97
201 806 87 115 85 87
201 807 87 171 145 123
202 804 85 167 138 122
203 804 85 155 127 110
202 805 86 180 163 162
203 804 86 162 141 132
203 805 86 164 150 145
202 806 86 130 115 127
202 806 87 82 60 69
202 807 87 124 111 100
203 806 86 128 122 127
203 806 87 69 74 79
203 807 87 93 91 89
204 800 84 184 132 75
204 801 84 185 131 81
205 800 84 159 129 101
205 801 84 153 122 98
205 801 85 140 115 94
204 802 85 177 128 89
204 803 85 165 133 107
205 802 85 146 121 104
205 803 85 173 159 148
206 800 84 164 135 115
206 801 84 164 139 118
206 801 85 160 136 119
207 800 84 127 99 96
207 801 84 159 138 124
207 801 85 185 163 147
206 802 85 131 107 100
206 803 85 108 83 88
207 802 85 166 141 126
207 803 85 105 71 60
206 803 86 52 25 42
207 803 86 101 73 66
204 804 85 146 125 110
205 804 85 178 166 157
204 804 86 122 105 96
204 805 86 102 91 93
205 804 86 148 136 131
205 805 86 101 92 91
204 806 86 77 72 78
204 806 87 66 63 63
204 807 87 71 64 64
205 806 86 97 93 98
205 806 87 122 116 119
205 807 87 116 112 122
206 804 86 65 58 63
206 805 86 44 43 59
207 804 86 101 83 72
207 805 86 97 77 76
206 806 86 60 69 84
206 806 87 41 47 70
206 807 87 42 50 73
207 806 87 72 54 60
207 807 87 46 31 47
200 808 87 165 128 89
200 809 87 191 159 129
201 808 87 187 154 123
201 809 87 191 159 130
202 808 87 212 189 171
202 809 87 223 199 179
203 808 87 194 177 164
204 808 87 148 132 117
205 808 87 146 138 145
206 808 87 60 54 73
200 810 88 220 197 181
200 811 88 218 195 177
201 810 88 197 169 149
201 811 88 212 186 164
202 809 88 220 192 172
203 809 88 228 207 189
202 810 88 203 167 145
202 811 88 193 155 123
203 810 88 217 182 153
203 811 88 175 142 105
200 812 89 196 175 162
200 813 89 144 118 113
201 812 88 220 193 170
201 812 89 216 191 172
201 813 89 193 168 150
200 814 89 129 97 95
201 814 89 185 159 144
200 814 90 125 99 103
200 815 90 103 89 81
201 815 90 172 146 130
202 812 89 193 152 110
202 813 89 177 145 109
203 812 89 168 120 71
203 813 89 162 126 88
202 814 89 183 157 133
203 814 89 171 145 122
203 815 89 174 148 123
202 815 90 183 154 124
203 815 90 181 153 126
204 808 88 173 155 140
204 809 88 220 196 176
205 808 88 172 159 160
205 809 88 184 165 157
204 810 88 221 191 166
204 811 88 178 137 89
205 810 88 184 159 140
205 811 88 182 152 120
205 811 89 185 154 122
206 808 88 40 34 55
206 809 88 70 45 60
207 808 88 43 30 47
207 809 88 36 23 47
206 810 88 133 116 107
206 811 88 179 158 142
206 811 89 187 163 142
207 810 88 66 57 67
207 811 89 158 141 131
204 812 89 177 138 94
204 813 89 182 146 122
205 812 89 197 165 132
205 813 89 191 159 132
204 814 89 156 124 106
204 815 89 150 124 106
205 814 89 180 145 127
205 815 89 169 133 123
204 815 90 159 138 121
205 815 90 162 127 102
206 812 89 182 154 125
206 813 89 186 158 132
207 812 89 180 156 135
207 813 89 197 173 153
206 814 89 190 158 126
207 814 89 197 170 147
206 815 90 183 151 123
207 814 90 193 164 136
207 815 90 179 148 119
192 816 91 183 158 142
192 817 91 174 143 131
193 816 91 232 212 187
193 817 91 230 203 177
194 816 91 200 171 142
194 817 91 216 190 167
195 816 91 195 156 133
195 817 91 178 146 129
194 818 91 188 165 146
195 818 91 155 128 102
192 817 92 148 114 110
193 817 92 217 188 163
192 818 92 101 70 71
192 819 92 51 32 44
192 819 93 42 31 45
193 818 92 185 155 139
193 819 92 156 128 121
193 819 93 123 100 100
194 818 92 205 180 159
194 819 92 190 166 144
194 819 93 186 161 147
195 818 92 167 143 121
195 819 92 184 160 139
192 820 93 71 52 63
192 821 93 109 99 96
193 820 93 85 69 66
193 821 93 86 74 68
192 821 94 163 147 135
193 821 94 91 79 75
192 822 94 187 165 144
192 823 94 185 157 129
192 823 95 180 151 121
193 822 94 140 127 118
193 823 94 169 149 133
193 823 95 177 154 132
194 820 93 176 151 133
194 821 93 148 126 117
195 820 92 178 152 127
195 820 93 181 152 124
195 821 93 185 157 131
194 821 94 94 79 87
194 822 94 66 48 55
194 823 94 123 99 84
195 822 94 160 129 96
195 823 94 182 148 109
196 816 90 223 188 169
196 816 91 203 163 150
196 817 91 183 144 136
197 816 90 211 180 157
197 816 91 190 155 134
197 817 91 187 147 127
196 818 91 174 146 132
197 818 91 188 153 136
198 816 90 178 152 127
198 816 91 183 155 130
198 817 91 194 163 140
199 816 90 174 153 135
199 816 91 183 159 139
199 817 91 181 154 127
198 818 91 190 159 135
199 818 91 183 152 121
196 818 92 167 143 122
196 819 92 167 142 117
197 818 92 185 153 138
197 819 92 169 142 123
198 819 92 176 146 125
199 819 92 191 161 134
196 820 92 176 150 126
196 820 93 178 151 124
196 821 93 193 164 136
197 820 92 154 129 110
197 820 93 152 126 104
197 821 93 160 130 98
196 822 93 201 169 135
197 822 93 184 155 125
196 822 94 199 162 120
196 823 94 214 170 118
197 823 94 191 156 118
198 820 92 174 143 129
198 820 93 163 130 115
198 821 93 150 122 93
199 820 92 188 155 133
199 821 93 174 134 115
198 822 93 178 153 129
199 822 93 154 123 94
199 823 93 167 140 111
198 823 94 182 148 110
199 823 94 185 154 119
192 824 95 176 146 118
192 825 95 181 149 127
193 824 95 192 167 145
193 825 95 196 168 144
192 826 95 190 158 126
193 826 95 197 159 124
194 824 94 162 140 119
194 824 95 166 141 120
194 825 95 170 141 115
195 824 94 185 154 120
195 825 95 175 141 103
194 826 95 178 143 107
195 826 95 181 146 109
195 827 95 166 132 105
196 824 94 224 179 129
196 825 94 223 179 133
196 825 95 199 160 116
197 824 94 199 155 110
197 825 94 206 166 130
197 825 95 207 173 138
196 826 95 183 151 116
196 827 95 157 128 99
197 826 95 191 158 121
197 827 95 174 139 107
198 824 94 191 145 84
198 825 94 200 147 75
199 824 94 217 175 122
199 825 94 227 173 93
199 825 95 226 170 73
198 826 95 223 176 123
198 827 95 215 161 125
199 826 95 233 183 96
199 827 95 229 172 91
199 828 95 209 149 72
200 816 90 122 103 85
200 816 91 171 150 132
200 817 91 173 150 130
201 816 90 126 101 79
201 817 91 114 90 73
200 818 91 191 164 140
201 818 91 171 141 108
202 816 90 176 149 125
202 817 91 159 130 103
203 816 90 196 168 143
203 817 91 198 166 134
202 818 91 197 159 107
203 818 91 209 171 116
200 819 92 203 173 144
201 819 92 201 162 115
202 819 92 226 170 88
203 819 92 228 176 99
200 820 92 195 161 130
200 821 93 178 139 115
201 820 92 187 148 102
201 821 93 174 142 115
200 822 93 162 130 112
200 823 93 144 115 102
201 822 93 161 133 106
201 823 93 153 125 105
200 823 94 147 116 95
201 823 94 150 119 105
202 820 92 206 155 95
202 821 93 177 143 106
203 820 92 209 151 80
203 821 93 205 160 99
202 822 93 147 117 79
202 823 93 131 105 78
203 822 93 174 135 89
203 823 93 151 119 96
202 823 94 130 105 82
203 823 94 139 111 96
204 816 90 159 135 111
204 817 90 180 151 122
204 817 91 179 151 122
205 816 90 151 125 102
205 817 91 170 146 125
204 818 91 190 150 99
204 819 91 203 158 95
205 818 91 178 142 101
205 819 91 178 133 72
206 816 90 154 117 79
206 817 91 151 121 86
207 816 90 170 136 99
207 817 91 172 143 113
206 818 91 178 144 106
207 818 91 150 121 89
204 819 92 207 160 96
205 819 92 191 139 70
206 819 92 214 168 109
207 819 92 175 139 99
204 820 92 213 162 89
204 821 93 222 164 67
205 820 92 217 170 101
205 821 92 231 178 89
205 821 93 230 166 45
204 822 93 215 148 79
204 823 93 162 107 73
205 822 93 227 140 22
205 823 93 204 135 62
206 820 92 216 164 90
206 821 92 224 176 94
206 821 93 229 176 87
207 820 92 189 145 86
207 821 93 214 166 89
206 822 93 229 151 29
206 823 93 221 154 66
207 822 93 230 178 93
207 823 93 213 156 77
200 824 94 175 139 95
200 825 94 205 159 100
200 825 95 206 154 82
201 824 94 131 100 75
201 825 94 137 113 92
201 825 95 170 138 108
200 826 95 217 169 90
200 827 95 233 181 95
201 826 95 194 157 114
201 827 95 215 173 116
202 824 94 141 122 111
202 825 94 128 111 108
203 824 94 123 98 77
203 825 94 151 109 81
202 826 95 183 155 129
202 827 95 206 169 131
203 826 94 181 94 31
203 826 95 181 119 63
203 827 95 214 169 117
200 828 95 221 164 65
201 828 95 225 181 124
202 828 95 222 192 155
203 828 95 217 184 147
204 824 94 115 83 56
204 825 94 159 96 46
205 824 94 137 116 91
205 825 94 144 114 90
204 826 94 204 98 25
204 826 95 217 121 16
204 827 95 226 162 70
205 826 94 196 149 101
205 826 95 221 144 59
205 827 95 217 167 97
207 824 93 204 160 114
206 824 94 167 143 119
206 825 94 72 70 81
207 824 94 187 159 139
207 825 94 108 106 117
206 826 94 92 92 103
206 827 95 152 148 146
207 826 94 39 79 109
207 827 95 83 106 126
204 828 95 218 179 131
205 828 95 203 164 116
205 829 95 202 176 153
206 828 95 191 177 170
206 829 95 212 194 185
207 828 95 147 142 142
207 829 95 208 191 180
208 800 84 122 96 87
208 801 85 154 130 112
209 800 84 152 136 128
209 800 85 126 114 104
209 801 85 164 142 126
208 802 85 179 152 130
208 803 85 196 170 150
209 802 85 203 180 164
209 803 85 199 173 151
208 803 86 219 195 175
209 803 86 203 174 146
210 800 84 120 100 118
210 800 85 80 70 70
210 801 85 169 154 142
211 800 85 47 32 45
211 801 85 149 137 131
210 802 85 219 197 179
210 803 85 206 178 152
211 802 85 216 197 182
210 803 86 206 174 144
211 803 86 221 195 169
208 804 86 219 196 177
208 805 86 210 185 169
209 804 86 212 184 156
209 805 86 222 196 171
209 805 87 227 200 179
208 806 87 179 153 144
208 807 87 128 93 84
209 806 87 211 185 166
209 807 87 188 161 138
210 804 86 199 166 133
210 805 86 194 164 135
210 805 87 197 168 142
211 804 86 209 181 155
211 805 87 188 159 134
210 806 87 174 147 123
210 807 87 175 152 135
211 806 87 172 140 118
211 807 87 161 134 113
212 800 85 40 34 43
212 801 85 81 71 83
213 800 85 51 52 60
213 801 85 45 41 57
213 801 86 49 43 60
212 802 85 162 150 144
212 802 86 198 181 169
212 803 86 215 193 175
213 802 86 72 64 68
213 803 86 128 112 102
214 800 85 64 55 69
215 800 85 128 115 110
214 801 86 68 71 79
215 800 86 122 114 109
215 801 86 97 93 91
214 802 86 72 76 81
214 803 86 77 70 70
215 802 86 104 98 96
215 803 86 78 69 72
215 803 87 60 44 53
212 804 86 215 190 169
212 804 87 185 158 133
212 805 87 177 149 124
213 804 86 170 149 131
213 804 87 176 151 126
213 805 87 186 160 137
212 806 87 183 152 136
212 807 87 180 148 136
213 806 87 192 164 142
214 804 87 152 133 117
214 805 87 181 157 134
215 804 87 60 48 59
215 805 87 115 95 98
214 806 87 181 152 124
208 807 88 173 143 125
211 807 88 153 127 105
212 807 88 175 144 130
213 807 88 184 152 132
214 806 88 183 155 128
214 807 88 189 160 135
215 806 88 163 131 97
215 807 88 198 161 120
208 808 88 123 96 82
208 809 88 76 54 54
209 808 88 187 160 135
209 809 88 172 148 128
208 810 88 42 23 44
208 810 89 32 20 43
208 811 89 77 60 58
209 810 88 124 96 77
209 810 89 119 90 71
209 811 89 109 76 53
210 808 88 174 151 130
210 809 88 180 154 130
211 808 88 164 139 116
211 809 88 168 141 114
210 810 89 189 163 141
210 811 89 189 158 128
211 810 89 174 147 122
211 811 89 187 156 124
208 812 89 150 130 110
208 813 89 176 151 127
209 812 89 191 158 123
209 813 89 191 157 119
209 813 90 195 156 111
208 814 90 172 144 117
208 815 90 174 144 113
209 814 90 171 137 95
209 815 90 174 145 116
210 812 89 217 177 123
210 813 89 232 187 123
211 812 89 197 158 109
210 813 90 229 183 121
211 813 90 202 157 97
210 814 90 208 162 104
210 815 90 194 155 117
211 814 90 213 169 113
211 815 90 208 164 111
212 808 88 159 130 107
212 809 88 150 124 96
213 808 88 172 144 125
213 809 88 169 144 122
213 809 89 173 148 129
212 810 89 167 139 112
212 811 89 186 157 128
213 810 89 156 128 102
213 811 89 164 136 108
214 808 88 192 164 140
214 809 88 188 160 136
214 809 89 181 154 130
215 808 88 185 149 108
215 809 88 174 146 117
215 809 89 173 144 114
214 810 89 169 143 120
214 811 89 163 135 105
215 810 89 167 142 119
215 811 89 155 130 106
212 812 89 178 138 88
213 812 89 181 144 98
212 812 90 185 135 67
212 813 90 185 131 57
213 812 90 198 157 105
213 813 90 219 170 101
212 814 90 209 161 87
212 815 90 226 173 97
212 815 91 227 167 72
213 814 90 216 160 78
213 815 90 214 157 69
213 815 91 217 162 78
214 812 89 142 114 84
215 812 89 156 130 110
214 813 90 147 119 88
215 812 90 153 126 109
215 813 90 129 103 85
214 814 90 168 137 102
214 815 90 177 138 94
214 815 91 182 148 109
215 814 90 139 111 79
215 814 91 151 120 92
215 815 91 181 151 123
216 800 85 202 183 173
217 800 85 207 180 158
216 800 86 188 168 155
216 801 86 179 158 142
217 800 86 176 149 123
217 801 86 185 158 134
216 802 86 182 157 138
216 803 86 166 141 126
216 803 87 173 143 125
217 802 86 182 154 127
217 803 87 181 152 126
218 800 86 166 135 109
218 801 86 167 140 116
219 800 86 180 142 119
219 801 86 187 159 141
219 801 87 179 154 139
218 802 86 174 150 127
218 802 87 165 135 110
218 803 87 169 143 119
219 802 87 157 126 111
219 803 87 154 118 85
216 804 87 114 85 73
216 805 87 85 55 48
217 804 87 184 156 131
217 805 87 184 153 120
218 804 87 167 143 121
219 804 87 153 127 100
219 805 87 149 124 100
220 800 86 192 152 134
220 801 86 189 159 145
220 801 87 183 154 138
221 800 86 178 141 119
221 800 87 171 143 116
221 801 87 178 147 123
220 802 87 173 147 125
220 803 87 184 152 114
221 802 87 195 165 142
221 803 87 197 166 133
222 800 87 174 149 126
222 801 87 175 150 132
223 800 87 185 161 141
223 801 87 178 153 132
222 802 87 177 151 129
222 803 87 184 156 129
223 802 87 165 139 114
220 804 87 184 152 117
216 805 88 114 82 64
217 805 88 192 160 124
216 806 88 192 151 101
216 807 88 222 171 102
217 806 88 212 171 121
217 807 88 228 179 113
218 805 88 185 156 126
219 805 88 174 147 122
218 806 88 185 149 109
218 807 88 188 145 98
219 806 88 181 147 108
219 807 88 200 159 111
222 802 88 156 128 99
222 803 88 175 143 108
223 802 88 168 140 114
223 803 88 170 142 114
220 805 88 145 116 87
221 804 88 187 153 116
221 805 88 150 97 67
220 806 88 151 120 88
220 807 88 180 146 107
221 806 88 132 95 74
221 807 88 138 113 88
222 804 88 179 147 107
222 805 88 162 117 83
223 804 88 174 146 120
223 805 88 156 125 95
222 806 88 137 104 76
222 807 88 146 125 105
222 807 89 138 114 92
223 806 88 146 115 87
223 807 89 146 121 94
216 808 88 199 149 76
216 808 89 204 153 81
216 809 89 187 150 106
217 808 88 217 164 93
217 808 89 212 161 90
217 809 89 209 160 97
216 810 89 163 136 107
216 811 89 140 113 85
217 810 89 204 150 65
217 811 89 195 140 73
216 811 90 142 111 71
217 811 90 195 135 64
218 808 88 191 146 81
218 808 89 201 154 88
218 809 89 221 168 90
219 808 88 197 148 77
219 808 89 209 160 93
219 809 89 218 164 79
218 810 89 223 152 46
219 810 89 229 168 79
218 811 90 213 133 24
219 810 90 229 163 69
219 811 90 221 148 45
216 812 90 129 105 87
216 813 90 137 112 94
217 812 90 156 109 62
217 813 90 121 81 51
216 814 90 151 121 92
216 814 91 143 107 65
216 815 91 152 102 54
217 814 90 134 90 48
217 814 91 159 103 71
217 815 91 182 104 51
218 812 90 195 138 76
218 813 90 152 120 86
219 812 90 209 149 59
219 813 90 191 154 110
219 813 91 171 144 118
218 814 91 134 98 61
218 815 91 152 108 49
219 814 91 126 104 84
219 815 91 74 55 41
220 808 89 194 157 112
220 809 89 196 152 97
221 808 89 132 106 76
221 809 89 156 130 103
220 810 89 199 154 86
220 810 90 212 165 95
220 811 90 219 168 100
221 810 90 183 152 120
221 811 90 192 156 116
222 808 89 140 115 95
222 809 89 139 108 85
223 808 89 147 110 69
223 809 89 153 98 62
222 809 90 142 105 77
223 809 90 164 95 57
222 810 90 177 144 114
222 811 90 190 154 112
223 810 90 172 95 36
223 811 90 197 130 53
220 812 90 208 158 84
220 813 90 196 153 98
220 813 91 193 160 128
221 812 90 203 168 132
221 813 90 207 173 141
221 813 91 206 177 151
220 814 91 167 142 120
220 815 91 126 104 87
221 814 91 192 163 137
221 815 91 183 160 141
222 812 90 192 161 129
222 813 91 198 168 140
223 812 90 209 163 104
223 812 91 208 159 94
223 813 91 194 156 113
222 814 91 209 181 157
222 815 91 208 182 164
223 814 91 202 175 151
223 815 91 210 183 161
223 815 92 213 187 168
208 816 90 173 145 116
208 816 91 170 147 124
208 817 91 153 128 102
209 816 90 169 144 118
209 816 91 152 130 108
209 817 91 133 115 97
208 818 91 148 121 97
209 818 91 136 120 108
210 816 90 179 142 107
210 816 91 162 133 108
210 817 91 139 120 104
211 816 90 181 138 84
211 816 91 186 146 100
211 817 91 160 133 105
210 818 91 125 109 96
211 818 91 123 100 76
208 819 92 132 105 80
209 818 92 133 113 101
209 819 92 127 109 97
210 818 92 117 98 81
210 819 92 127 96 75
211 818 92 108 83 64
211 819 92 120 85 63
208 820 92 160 135 110
208 821 92 188 152 110
208 821 93 197 162 122
209 820 92 147 118 84
209 821 93 192 157 121
208 822 93 209 169 120
208 823 93 217 178 133
209 822 93 195 160 120
209 823 93 212 178 145
210 820 92 174 104 56
210 821 93 200 126 69
211 820 92 181 104 53
211 821 93 212 125 33
210 822 93 209 166 115
210 823 93 208 174 140
211 822 93 217 159 79
211 823 93 204 166 124
212 816 91 218 158 72
212 817 91 196 145 76
213 816 91 222 164 86
213 817 91 208 149 64
212 818 91 175 141 100
213 818 91 202 155 99
214 816 91 197 158 113
214 817 91 214 171 127
215 816 91 189 157 124
215 817 91 211 181 153
214 818 91 214 174 136
212 818 92 157 131 105
212 819 92 124 104 93
213 818 92 196 159 123
213 819 92 160 136 124
214 818 92 211 174 142
214 819 92 185 155 134
215 818 92 219 189 160
215 819 92 206 176 146
212 820 92 122 89 60
212 821 93 193 152 103
213 820 92 68 57 73
213 821 93 86 81 77
212 822 93 202 162 110
212 823 93 201 169 136
213 822 93 161 141 124
213 823 93 199 176 159
214 820 92 122 105 102
214 821 92 62 60 60
214 821 93 103 94 88
215 820 92 179 151 134
215 821 92 167 142 133
215 821 93 147 129 118
214 822 93 144 128 113
214 823 93 164 143 125
215 822 93 139 118 97
215 823 93 166 145 129
208 824 93 211 174 137
209 824 93 219 187 156
208 824 94 197 166 140
208 825 94 155 140 134
209 824 94 210 178 148
209 825 94 193 166 143
208 826 94 118 121 128
208 827 95 131 135 143
209 826 94 166 147 133
209 827 95 131 121 119
210 824 93 209 177 148
211 824 93 203 172 144
210 824 94 216 184 155
210 825 94 207 178 154
211 824 94 210 179 154
211 825 94 212 182 162
210 826 94 150 126 105
210 827 95 112 98 102
211 826 94 161 139 119
211 827 95 92 81 73
208 828 95 169 159 156
208 829 95 203 185 174
209 828 95 146 139 140
209 829 95 153 142 138
210 828 95 109 105 114
210 829 95 126 118 118
211 828 95 113 111 114
211 829 95 153 147 147
212 824 93 202 173 147
213 824 93 209 186 167
212 824 94 204 173 147
212 825 94 219 190 166
213 824 94 196 168 143
213 825 94 201 169 140
212 826 94 199 172 148
212 827 95 155 133 111
213 826 94 203 172 146
213 827 95 190 164 142
214 824 94 176 152 140
214 825 94 200 169 147
215 824 94 179 157 149
215 825 94 203 175 159
214 826 94 193 161 133
214 826 95 183 150 117
214 827 95 190 155 131
215 826 94 175 142 104
215 827 95 157 110 61
212 828 95 135 123 116
212 829 95 131 130 132
213 828 95 154 133 119
213 829 95 146 137 137
214 828 95 171 137 116
214 829 95 167 142 122
215 828 95 171 109 86
215 829 95 167 120 84
216 816 91 195 152 111
216 817 91 208 174 139
217 816 91 211 143 67
217 817 91 216 174 126
218 816 91 200 157 101
219 816 91 93 74 57
217 816 92 218 168 97
217 817 92 204 163 114
216 818 92 210 178 148
216 819 92 216 185 155
217 818 92 198 167 136
217 819 92 199 172 149
218 816 92 207 167 120
218 817 92 187 152 112
219 816 92 130 109 87
219 817 92 154 133 113
218 818 92 185 164 146
218 819 92 164 144 127
219 818 92 185 165 151
219 819 92 194 172 155
216 820 92 201 170 146
216 821 92 168 140 126
216 821 93 153 130 113
217 820 92 207 180 160
217 821 93 184 160 145
216 822 93 173 156 144
216 823 93 158 144 136
217 822 93 147 132 122
217 823 93 137 130 131
217 823 94 144 139 147
218 820 92 185 163 145
218 820 93 207 183 165
218 821 93 211 186 168
219 820 92 175 149 123
219 820 93 181 153 124
219 821 93 206 179 157
218 822 93 170 155 145
218 823 93 112 102 100
219 822 93 197 174 158
219 823 93 172 146 131
218 823 94 87 72 85
219 823 94 168 141 125
220 816 91 83 68 61
221 816 91 158 138 126
220 816 92 64 42 49
220 817 92 81 65 64
221 816 92 123 102 88
221 817 92 122 102 93
220 818 92 155 141 131
220 819 92 183 164 150
221 818 92 137 124 117
221 819 92 164 152 146
221 819 93 151 142 138
222 816 92 145 124 106
222 817 92 127 107 86
223 816 92 185 163 148
223 817 92 128 111 95
222 818 92 114 99 86
222 819 92 125 120 119
222 819 93 122 118 118
223 818 92 107 92 79
223 819 92 114 107 104
223 819 93 118 108 101
220 820 93 177 152 130
220 821 93 205 176 149
221 820 93 177 158 140
221 821 93 192 162 133
220 822 93 194 162 132
220 823 93 191 162 145
221 822 93 160 109 68
220 823 94 164 121 93
221 823 94 178 113 85
222 820 93 142 128 118
222 821 93 188 165 147
223 820 93 161 151 146
223 821 93 190 171 157
222 822 93 178 146 120
223 822 93 203 177 152
222 822 94 163 120 81
222 823 94 163 107 63
223 822 94 202 175 150
223 823 94 184 153 128
216 824 94 161 147 138
216 825 94 181 159 141
217 824 94 124 115 114
217 825 94 162 143 128
216 826 94 178 147 119
216 827 95 164 106 68
217 826 94 187 166 148
217 826 95 180 156 136
217 827 95 157 110 83
218 824 94 97 86 90
218 825 94 153 140 130
219 824 94 174 151 133
219 825 94 173 160 153
218 826 94 177 166 162
218 826 95 181 174 174
218 827 95 169 163 163
219 826 94 153 152 157
219 826 95 123 133 146
219 827 95 90 116 139
216 828 95 195 136 106
216 829 95 193 153 115
217 828 95 182 134 100
217 829 95 205 174 147
218 828 95 176 163 157
218 829 95 180 169 164
219 828 95 106 123 141
219 829 95 113 125 138
220 824 94 155 107 83
220 825 94 168 146 135
221 824 94 184 124 101
221 825 94 189 160 141
220 826 95 160 151 149
220 827 95 131 131 140
221 826 94 196 173 156
221 826 95 193 169 148
221 827 95 180 155 135
222 824 94 182 143 112
222 825 94 181 161 147
223 824 94 172 148 132
223 825 94 123 98 87
222 826 94 160 138 121
222 826 95 160 138 119
222 827 95 164 141 122
223 826 95 104 74 60
223 827 95 104 80 63
220 828 95 137 138 153
220 829 95 122 135 157
221 828 95 164 144 141
221 829 95 128 131 149
222 828 95 170 151 136
222 829 95 158 152 155
223 828 95 122 101 79
