ply
format ascii 1.0
comment Version 2, Copyright 2017, 8i Labs, Inc.
comment frame_to_world_scale 0.179523
comment frame_to_world_translation -45.2095 7.18301 -54.3561
comment width 1023
element vertex 1238
property float x
property float y
property float z
property uchar red
property uchar green
property uchar blue
end_header
205 896 192 155 115 89
205 897 192 159 119 93
205 898 192 163 123 97
205 898 193 164 125 99
205 899 192 166 125 99
205 899 193 168 128 102
206 896 192 154 114 88
206 896 193 157 117 92
206 897 193 160 122 96
206 896 194 159 119 93
206 897 194 162 123 97
207 896 194 159 120 94
207 896 195 161 123 97
207 897 194 163 124 98
207 897 195 164 126 100
206 898 193 165 126 101
206 899 193 169 129 103
206 898 194 166 128 102
206 899 194 169 130 105
207 898 194 167 129 103
207 898 195 167 129 103
207 899 194 170 132 106
207 899 195 170 131 106
205 900 192 168 127 102
205 900 193 170 130 105
205 901 192 171 130 104
205 902 192 175 134 108
205 903 192 176 136 110
206 900 193 172 132 107
206 901 193 173 133 107
206 900 194 173 134 108
206 901 194 174 134 108
207 900 194 172 133 108
207 900 195 171 132 107
207 901 194 173 132 107
207 901 195 172 131 106
206 902 193 175 135 109
206 903 193 175 134 108
206 902 194 174 133 108
206 903 194 174 133 107
207 902 194 173 132 107
207 902 195 174 132 108
207 903 194 174 133 108
205 904 192 174 134 108
205 905 192 173 133 106
205 905 193 171 132 105
205 906 192 171 133 106
205 906 193 170 132 106
205 907 192 169 132 104
205 907 193 166 129 101
206 904 193 173 133 107
206 905 193 171 131 105
206 904 194 173 132 107
206 905 194 171 131 105
207 904 194 173 132 107
207 904 195 172 132 107
207 905 194 170 131 104
207 905 195 171 132 106
206 906 193 170 131 104
206 907 193 167 129 102
206 906 194 167 129 102
206 907 194 164 128 100
206 907 195 161 127 100
207 906 194 167 130 103
207 906 195 166 129 103
207 907 195 162 127 101
207 907 196 159 125 101
204 909 192 164 128 100
205 908 192 166 130 101
205 908 193 163 128 99
205 909 192 163 128 99
205 909 193 161 127 99
205 908 194 161 127 98
205 909 194 157 125 97
204 910 192 162 127 99
204 911 192 158 124 95
204 911 193 152 121 93
205 910 193 158 126 98
205 911 193 153 123 95
204 911 194 148 120 92
205 910 194 151 121 94
205 911 194 148 120 94
205 911 195 143 116 91
206 908 194 160 126 99
206 908 195 158 124 99
206 909 195 152 120 95
207 908 195 158 124 100
206 910 195 146 116 90
206 911 195 142 115 89
207 908 196 155 122 98
207 909 196 149 116 93
207 909 197 147 113 91
206 910 196 142 112 88
206 911 196 137 110 85
206 911 197 135 108 83
207 910 197 140 109 85
207 911 197 135 107 82
207 910 198 139 106 84
207 911 198 132 105 81
203 912 192 153 119 90
203 913 192 151 119 90
202 915 192 152 121 93
203 914 192 150 118 90
203 914 193 146 116 86
203 915 192 150 119 91
203 915 193 147 117 88
203 915 194 147 117 88
203 915 195 148 119 90
201 919 192 154 121 94
202 916 192 154 123 95
202 916 193 152 121 93
202 917 192 154 123 95
202 917 193 154 122 94
203 916 192 152 121 94
203 916 193 151 120 92
203 917 193 153 122 94
203 916 194 151 120 92
203 916 195 151 120 92
203 917 194 153 122 94
203 917 195 153 121 94
202 918 192 154 122 94
202 918 193 154 122 94
202 919 192 155 122 95
202 919 193 155 122 95
202 918 194 155 122 94
202 919 194 156 122 94
202 919 195 156 122 94
203 918 195 155 122 95
203 919 195 156 122 94
203 916 196 151 120 93
203 917 196 153 121 95
203 917 197 153 121 95
203 918 196 154 120 94
203 918 197 153 119 94
203 919 196 155 121 94
203 919 197 153 118 91
203 919 198 149 114 88
204 912 192 152 119 90
204 912 193 148 118 88
204 913 192 150 118 89
204 913 193 147 117 88
204 912 194 145 117 90
204 913 194 144 116 88
204 913 195 143 116 88
205 912 194 145 118 91
205 912 195 141 115 90
205 913 195 141 115 87
204 914 193 145 115 85
204 914 194 144 115 86
204 914 195 143 116 87
204 915 194 145 116 86
204 915 195 146 118 89
205 912 196 138 113 88
205 913 196 137 112 85
204 914 196 141 115 87
204 915 196 146 118 89
204 915 197 143 116 87
205 914 196 139 113 86
205 914 197 138 111 84
205 915 196 142 115 86
205 915 197 141 114 85
205 915 198 141 115 87
206 912 196 137 111 86
206 912 197 133 107 82
206 913 197 133 108 82
207 912 197 130 105 81
206 913 198 129 104 79
207 912 198 128 104 80
207 912 199 125 102 79
207 913 198 127 102 78
207 913 199 124 100 76
206 914 197 135 109 83
206 914 198 132 106 80
206 914 199 129 104 78
206 915 198 137 111 84
206 915 199 136 111 86
207 914 199 125 101 76
204 916 196 149 120 92
204 916 197 148 119 91
204 917 197 152 121 94
204 916 198 149 121 92
204 917 198 152 122 95
204 917 199 152 123 98
205 916 198 146 120 92
205 916 199 145 119 93
205 917 199 151 123 97
204 918 198 150 116 91
204 918 199 148 114 91
204 919 198 144 107 84
204 919 199 140 104 81
206 915 200 135 111 86
207 914 200 122 99 74
207 915 200 130 106 82
207 915 201 128 104 81
205 916 200 145 119 92
205 917 200 150 123 97
204 918 200 139 104 82
204 919 200 133 99 77
205 918 200 145 114 91
205 918 201 143 112 89
205 919 200 128 92 73
205 919 201 127 92 75
205 918 202 140 107 87
205 919 202 127 92 76
206 916 200 141 115 90
206 916 201 143 118 91
206 917 200 147 121 94
206 917 201 147 122 95
207 916 201 136 112 88
206 917 202 147 122 97
207 916 202 137 114 91
207 917 202 143 119 94
207 917 203 145 121 97
206 918 201 151 123 98
206 918 202 148 120 96
206 918 203 148 119 96
206 919 202 134 100 82
206 919 203 135 102 83
207 918 203 149 123 99
207 919 203 144 113 92
207 918 204 151 124 101
207 919 204 143 114 93
207 919 205 143 114 94
201 920 192 154 120 93
201 921 192 155 121 93
201 921 193 156 121 93
201 921 194 158 122 93
201 922 192 156 122 93
201 922 193 157 122 93
201 923 192 155 121 91
201 923 193 157 123 93
201 922 194 159 123 93
201 923 194 159 123 93
201 923 195 160 124 94
202 920 193 156 121 94
202 920 194 157 122 94
202 920 195 158 123 95
202 921 194 158 122 93
202 921 195 160 123 94
202 922 194 160 124 94
202 922 195 161 125 95
202 923 195 161 125 96
202 920 196 160 124 97
202 920 197 162 126 99
202 921 196 161 125 96
202 921 197 162 126 98
203 920 196 157 122 96
203 920 197 160 125 98
203 921 197 163 128 100
203 920 198 157 124 98
203 920 199 158 128 102
203 921 198 165 129 101
203 921 199 165 131 104
202 922 196 163 126 96
202 922 197 163 126 97
202 923 196 162 126 97
202 923 197 163 126 98
202 922 198 164 127 98
202 923 198 164 126 98
203 922 198 165 128 99
203 922 199 166 129 101
203 923 198 164 127 99
203 923 199 165 127 100
201 924 192 153 120 90
201 924 193 155 122 93
201 925 192 154 122 92
201 925 193 154 121 91
201 924 194 158 123 94
201 924 195 159 124 96
201 925 194 154 121 91
201 925 195 155 121 92
201 926 192 154 122 92
201 926 193 154 121 91
201 927 192 155 122 92
201 927 193 155 122 92
201 926 194 153 120 90
201 927 194 155 122 92
202 925 195 155 121 93
202 926 195 154 120 91
202 927 194 156 122 93
202 927 195 157 123 94
202 924 196 159 125 97
202 924 197 160 125 98
202 925 196 156 123 94
202 925 197 157 123 95
203 924 197 159 124 97
203 925 197 158 123 96
203 924 198 161 125 97
203 924 199 161 125 98
203 925 198 158 124 96
203 925 199 159 124 96
202 926 196 155 122 93
202 926 197 156 123 94
202 927 196 157 124 94
203 926 197 157 123 95
203 927 196 157 124 95
203 927 197 156 123 94
203 926 198 159 125 98
203 926 199 160 125 98
203 927 198 158 124 96
203 927 199 160 125 98
204 920 199 151 121 97
204 921 199 164 132 106
204 925 199 160 125 97
204 926 199 160 125 98
204 927 199 160 125 98
203 922 200 167 131 104
203 923 200 165 128 101
203 924 200 162 125 98
204 920 200 150 121 99
204 920 201 142 113 93
204 921 200 163 132 107
204 921 201 161 132 108
205 920 201 138 108 90
205 920 202 130 101 84
205 920 203 126 97 80
205 921 202 154 127 105
205 921 203 145 120 100
204 922 200 167 132 106
204 922 201 167 133 108
204 923 200 165 128 102
204 923 201 166 130 104
204 922 202 166 135 110
204 923 202 167 132 106
205 922 202 165 135 109
205 922 203 160 133 108
205 923 202 168 134 107
205 923 203 167 135 108
206 920 203 125 95 78
206 921 203 137 113 95
205 923 204 167 135 107
206 920 204 126 96 79
206 921 204 130 106 88
207 920 204 127 97 79
207 920 205 127 96 79
207 921 205 123 96 80
207 921 206 120 91 75
206 922 204 151 126 104
206 922 205 144 120 99
206 923 204 164 135 108
206 923 205 163 134 108
207 922 205 138 115 95
207 923 205 160 132 108
207 922 206 130 109 90
207 923 206 155 129 105
204 924 200 162 126 99
204 924 201 163 126 99
204 925 200 161 125 97
204 925 201 162 126 98
204 924 202 165 127 101
204 925 202 163 126 99
205 924 202 167 130 104
205 924 203 167 131 104
205 925 202 164 128 100
205 925 203 167 130 103
204 926 200 161 125 98
204 926 201 162 126 98
204 927 200 162 127 99
204 927 201 163 128 100
205 927 201 165 129 102
204 926 202 163 126 99
205 926 202 164 127 100
205 926 203 166 128 102
205 927 202 165 128 102
205 927 203 166 128 102
206 927 203 167 129 103
205 924 204 168 132 104
206 924 204 168 132 105
206 924 205 168 133 105
206 925 204 170 132 106
206 925 205 171 133 107
207 924 205 169 133 107
207 925 205 171 133 107
207 924 206 169 135 108
207 925 206 170 133 106
206 926 204 169 130 105
206 926 205 171 132 106
206 927 204 169 130 104
206 927 205 170 131 105
207 926 205 171 133 107
207 927 205 171 131 106
207 926 206 171 132 106
207 927 206 172 132 106
208 896 195 163 125 99
208 897 195 165 128 102
208 898 195 167 128 102
208 899 195 170 131 105
208 896 196 164 126 102
208 897 196 165 127 102
209 896 196 165 127 103
209 896 197 166 128 104
209 897 196 166 128 103
209 897 197 167 128 105
208 898 196 167 128 103
208 899 196 170 131 106
209 898 196 168 129 105
209 898 197 169 130 106
209 899 196 171 131 107
209 899 197 171 132 108
210 896 197 167 128 104
210 897 197 168 129 105
210 896 198 167 128 104
210 897 198 169 130 106
211 896 198 169 130 107
211 896 199 171 132 109
211 897 198 170 131 108
211 897 199 171 132 109
210 898 197 169 130 106
210 899 197 172 133 108
210 898 198 170 130 107
210 899 198 171 132 108
211 898 198 170 130 107
211 898 199 170 130 107
211 899 198 171 131 107
211 899 199 170 131 107
208 900 195 172 131 107
208 901 195 174 132 108
208 902 195 175 134 109
208 903 195 174 133 108
208 900 196 172 132 107
208 901 196 174 133 109
209 900 196 172 132 108
209 900 197 173 133 109
209 901 196 174 134 110
209 901 197 174 135 111
208 902 196 175 135 111
208 903 196 175 134 110
209 902 196 175 135 111
209 902 197 173 134 109
209 903 196 174 134 109
209 903 197 171 132 107
210 900 197 174 135 110
210 900 198 173 135 110
210 901 198 173 135 111
211 900 198 171 132 108
211 900 199 170 131 107
211 901 199 170 132 107
210 902 197 172 133 109
210 902 198 171 132 108
210 903 198 169 131 107
211 902 199 169 131 108
211 903 199 167 130 108
212 896 199 171 132 110
212 897 199 171 132 109
212 898 199 170 129 107
212 899 199 170 130 107
212 900 199 169 130 107
212 901 199 168 131 107
212 902 199 168 130 107
212 896 200 172 133 110
212 897 200 171 132 109
213 896 200 172 133 111
213 896 201 172 133 112
213 897 200 171 130 109
213 897 201 170 130 108
212 898 200 169 128 106
212 899 200 169 129 106
213 898 200 169 128 106
213 898 201 168 128 106
213 899 200 168 129 106
213 899 201 168 129 106
214 896 201 171 131 110
214 897 201 169 130 108
215 896 201 171 131 110
215 897 201 169 129 108
215 896 202 170 131 110
215 897 202 168 128 106
214 898 201 166 126 103
214 899 201 166 128 105
214 899 202 165 127 103
215 898 202 165 125 102
215 899 202 164 125 102
212 900 200 169 130 106
212 901 200 168 130 106
213 900 200 168 129 106
213 900 201 168 130 107
213 901 200 168 130 107
213 901 201 168 131 108
212 902 200 167 129 107
212 903 200 167 130 108
213 902 200 167 130 107
213 902 201 166 130 107
213 903 201 165 129 108
214 900 201 168 130 107
214 901 201 167 131 108
214 900 202 167 129 105
214 901 202 167 132 108
215 900 202 164 128 104
215 901 202 166 131 107
215 901 203 164 130 106
214 903 201 163 129 107
214 902 202 165 131 107
214 903 202 164 129 107
215 902 202 164 130 107
215 902 203 163 130 106
215 903 202 163 130 107
215 903 203 163 130 108
208 904 195 173 133 108
208 905 195 171 132 107
208 906 195 168 130 105
208 904 196 173 133 108
208 905 196 169 131 106
209 904 196 172 133 108
209 904 197 170 131 107
209 905 196 170 131 107
209 905 197 167 129 106
208 906 196 164 127 103
208 906 197 161 125 101
208 907 196 159 124 100
208 907 197 156 122 98
209 906 197 161 125 101
209 907 197 156 122 98
209 906 198 157 122 98
209 907 198 152 120 96
210 904 198 168 130 107
210 905 198 164 128 105
210 905 199 158 123 101
211 904 199 163 127 105
211 905 199 158 124 101
210 906 198 155 122 97
210 906 199 151 119 96
210 907 199 148 117 94
211 906 199 152 119 96
208 908 197 153 119 96
208 909 197 149 115 93
208 908 198 150 117 95
208 909 198 145 111 90
208 909 199 142 108 89
209 908 198 150 118 96
209 908 199 146 115 94
209 909 198 148 114 93
209 909 199 141 107 89
208 910 198 135 103 82
208 910 199 133 100 81
208 911 198 131 104 81
208 911 199 125 99 78
209 910 199 129 97 79
209 911 199 120 93 74
210 908 199 146 116 94
211 905 200 156 122 100
210 907 200 143 114 92
211 906 200 148 116 94
211 907 200 142 114 92
211 907 201 140 112 92
209 909 200 136 104 87
209 910 200 120 89 72
209 911 200 108 84 66
210 908 200 142 113 93
210 909 200 136 106 89
210 909 201 129 98 84
211 908 201 136 108 89
211 909 201 126 96 82
211 908 202 127 97 84
211 909 202 114 82 72
210 910 200 125 93 78
210 910 201 110 80 67
210 911 201 95 73 58
210 911 202 86 63 52
211 910 202 94 66 57
211 910 203 86 58 53
211 911 202 77 59 49
211 911 203 67 51 46
212 904 200 163 128 107
212 905 200 156 122 101
212 905 201 153 120 98
213 904 201 161 126 106
213 905 201 151 119 96
213 904 202 156 123 101
213 905 202 152 119 98
212 906 201 145 116 93
212 907 201 140 112 91
212 907 202 137 110 91
213 906 202 142 114 91
213 907 202 139 113 92
213 907 203 135 108 91
214 904 201 162 127 106
214 904 202 159 126 104
214 905 202 150 118 96
214 905 203 146 114 90
215 904 202 159 126 104
215 904 203 158 126 104
215 905 203 147 115 91
214 906 202 142 112 90
214 906 203 140 110 89
214 907 203 135 108 90
215 906 203 139 109 87
214 907 204 129 101 86
215 906 204 139 109 87
215 907 204 134 107 89
215 907 205 126 97 84
212 908 202 128 98 85
212 908 203 122 92 81
212 909 203 103 72 66
213 908 203 124 94 83
212 910 203 76 52 50
212 911 203 56 45 45
213 908 204 110 79 72
213 909 204 97 70 66
212 910 204 75 54 53
212 911 204 56 46 49
213 910 204 73 55 53
213 910 205 77 61 59
213 911 204 51 44 46
213 911 205 51 45 46
214 908 204 115 86 76
214 908 205 109 81 72
214 909 204 101 73 68
214 909 205 100 76 71
215 908 205 111 82 72
215 909 205 101 78 70
215 909 206 99 77 71
214 910 205 83 67 65
214 911 205 57 49 49
214 910 206 78 64 61
214 911 206 57 49 47
215 910 206 81 67 62
215 911 206 58 50 47
216 896 202 170 131 109
216 897 202 168 129 107
217 896 202 168 129 108
217 896 203 167 128 106
217 897 202 167 128 107
217 897 203 164 125 103
216 898 202 165 126 103
216 898 203 163 125 103
216 899 202 162 124 102
216 899 203 161 124 101
217 898 203 161 123 100
217 899 203 157 121 98
218 896 203 165 126 104
218 897 203 161 122 101
219 896 203 165 125 104
218 898 203 159 121 99
218 899 203 156 119 97
219 896 204 165 125 104
219 897 204 161 121 101
218 898 204 156 119 97
218 899 204 152 116 95
219 898 204 156 117 97
219 899 204 151 113 92
216 900 203 160 125 102
216 901 203 161 127 103
217 900 203 157 122 99
217 901 203 156 123 100
216 902 203 160 128 105
216 903 203 161 130 107
217 900 204 155 121 99
217 901 204 154 122 99
217 902 204 155 123 102
217 903 204 155 125 104
218 900 204 152 118 96
218 901 204 150 118 98
219 900 204 147 111 91
219 901 204 147 114 95
219 901 205 145 112 94
218 902 204 150 119 99
218 902 205 147 116 97
218 903 204 150 120 100
218 903 205 147 116 98
219 902 205 144 113 94
219 903 205 141 111 93
220 896 204 166 126 105
220 897 204 163 123 103
221 896 204 168 127 107
221 896 205 168 127 107
221 897 204 165 125 105
221 897 205 167 127 107
220 898 204 158 118 98
220 899 204 151 112 92
220 899 205 150 111 91
221 898 204 162 123 103
221 898 205 162 122 102
221 899 205 155 116 96
222 896 205 169 128 109
222 897 205 168 128 108
223 896 206 169 128 108
223 897 206 170 129 109
222 898 205 165 125 105
222 899 205 160 120 100
223 898 206 168 127 107
223 899 206 166 125 105
220 900 204 147 109 89
220 900 205 146 108 89
220 901 205 143 108 89
221 900 205 148 110 91
221 901 205 144 107 88
220 902 205 140 108 89
220 903 205 136 105 86
221 902 205 139 104 85
221 903 205 132 99 80
222 900 205 154 115 95
222 901 205 146 108 89
222 900 206 155 116 96
222 901 206 149 110 92
223 900 206 160 120 101
223 901 206 155 115 97
222 902 205 141 104 85
222 903 205 134 98 79
222 902 206 144 106 88
222 903 206 133 97 79
223 902 206 147 109 90
223 903 206 136 100 82
216 904 203 153 122 99
216 905 203 149 117 94
216 904 204 155 124 102
216 905 204 143 111 88
217 904 204 151 121 100
217 905 204 142 111 89
217 905 205 139 108 87
216 906 204 139 108 88
216 906 205 139 110 92
216 907 204 136 107 90
216 907 205 130 101 86
217 906 205 139 108 90
217 907 205 135 105 90
217 907 206 126 96 83
218 904 204 149 120 100
218 904 205 145 116 97
218 905 205 138 108 88
219 904 205 140 111 92
219 905 205 136 106 87
218 906 205 135 105 86
218 906 206 134 104 86
218 907 206 128 99 85
219 906 206 132 102 84
219 907 206 126 98 83
216 908 205 117 87 76
216 908 206 111 81 72
216 909 206 98 74 69
217 908 206 111 81 72
217 909 206 97 72 67
216 910 206 80 65 60
216 911 206 57 47 44
216 911 207 61 57 56
217 910 206 77 59 55
217 910 207 66 49 44
217 911 207 57 48 45
218 908 206 112 82 72
218 909 206 98 72 67
218 909 207 96 72 67
219 908 206 113 84 75
219 908 207 107 78 70
219 909 207 99 73 68
218 910 207 79 58 54
218 911 207 59 49 46
219 910 207 81 62 58
219 911 207 65 54 51
220 904 205 135 105 87
220 905 205 134 104 86
221 904 205 129 98 80
220 905 206 132 103 85
221 904 206 126 95 77
221 905 206 127 98 81
220 906 206 129 100 82
220 907 206 124 96 82
221 906 206 125 97 81
221 907 206 121 93 80
222 904 206 125 92 74
222 905 206 123 93 77
223 904 206 125 92 75
223 905 206 120 89 73
222 906 206 123 96 81
222 907 206 118 91 78
223 906 206 120 92 78
223 907 206 118 92 77
220 908 206 115 86 75
220 908 207 107 79 70
220 909 207 98 71 67
221 908 206 114 86 75
221 908 207 107 78 70
221 909 207 97 68 64
220 910 207 83 62 60
220 911 207 68 55 52
221 910 207 85 58 57
221 911 207 70 54 49
222 908 206 111 83 72
222 908 207 104 75 66
222 909 207 96 63 57
223 908 207 110 81 68
223 909 207 97 63 53
222 910 207 83 51 47
222 911 207 73 49 43
223 910 207 84 49 39
223 911 207 80 50 40
222 911 208 73 54 44
223 911 208 80 55 42
208 912 199 123 100 79
208 913 199 123 100 78
208 912 200 120 98 79
208 913 200 121 98 77
209 912 200 114 93 75
209 912 201 109 89 71
209 913 200 118 96 75
209 913 201 117 95 74
208 914 200 119 96 71
208 914 201 119 95 69
208 915 201 123 100 76
209 914 201 117 93 68
208 915 202 124 102 79
209 914 202 117 93 68
209 915 202 120 97 73
209 915 203 120 98 75
210 912 201 106 87 70
210 912 202 102 84 70
210 913 202 114 92 74
211 912 202 93 75 65
211 912 203 93 80 70
211 913 203 113 93 79
210 914 202 118 93 71
210 914 203 117 91 70
210 915 203 115 92 69
211 914 203 119 94 75
211 913 204 119 97 82
210 915 204 116 93 71
211 914 204 118 92 72
211 915 204 115 91 68
211 915 205 114 90 67
208 916 202 130 108 85
208 916 203 130 108 85
208 917 203 140 117 94
209 916 203 123 102 80
208 918 203 147 122 98
208 917 204 137 114 92
209 916 204 124 103 80
209 917 204 134 112 91
209 917 205 137 115 93
208 918 204 148 123 100
208 918 205 149 125 102
208 919 205 149 123 101
209 918 205 145 121 99
208 919 206 149 121 100
209 918 206 146 122 101
209 919 206 150 125 102
209 919 207 150 125 102
210 916 204 119 97 75
210 916 205 121 100 78
210 917 205 130 109 87
211 916 205 117 96 74
210 917 206 136 114 93
211 916 206 118 98 77
211 917 206 127 107 86
211 917 207 133 112 93
210 918 206 143 120 98
210 918 207 145 121 99
210 919 207 149 124 100
211 918 207 141 118 97
212 912 203 83 73 67
212 913 203 108 92 81
212 912 204 78 70 66
212 913 204 117 97 84
213 912 204 70 64 61
213 912 205 79 72 67
213 913 204 105 91 82
213 913 205 118 99 87
212 914 204 121 94 76
212 914 205 124 95 78
212 915 205 115 89 66
213 914 205 126 101 88
212 915 206 115 88 65
213 914 206 128 99 84
213 915 206 120 90 71
213 915 207 116 89 66
214 912 205 75 68 64
214 913 205 102 90 81
214 912 206 74 68 65
214 913 206 109 95 85
215 912 206 77 71 68
215 913 206 108 93 85
215 913 207 109 95 86
214 914 206 130 105 91
214 914 207 133 103 88
214 915 207 119 89 67
215 914 207 132 107 95
215 915 207 131 101 85
212 916 206 114 93 71
212 916 207 114 93 70
212 917 207 123 103 83
213 916 207 111 88 64
208 920 205 136 106 86
208 920 206 135 104 84
208 921 206 118 88 72
208 921 207 116 85 69
209 920 207 138 108 87
209 921 207 116 86 70
208 922 206 118 96 80
208 922 207 113 91 77
208 923 206 147 123 101
208 923 207 145 120 99
209 922 207 111 89 76
209 923 207 125 105 88
210 920 207 145 118 95
208 924 206 167 135 108
208 924 207 165 133 108
208 925 206 171 133 107
208 925 207 171 134 108
208 926 206 171 132 106
208 926 207 172 132 107
208 927 206 173 132 107
208 927 207 173 132 107
209 926 207 173 133 108
209 927 207 173 133 107
216 912 207 83 76 73
216 913 207 110 94 85
217 912 207 81 74 69
217 913 207 112 95 85
216 914 207 131 107 95
217 914 207 125 103 90
218 912 207 82 74 68
218 913 207 109 93 83
219 912 207 87 77 71
220 912 207 78 67 61
210 919 208 148 123 99
211 918 208 142 119 97
211 919 208 144 120 97
211 919 209 141 117 93
215 915 208 119 89 69
212 917 208 122 102 82
213 916 208 113 92 70
213 917 208 119 99 79
212 918 208 136 114 95
212 918 209 139 117 97
212 919 209 139 116 93
213 918 208 128 109 90
213 918 209 131 110 91
212 919 210 133 110 87
213 918 210 132 110 91
213 919 210 129 107 87
213 919 211 120 98 79
214 916 208 111 88 65
214 917 208 112 91 68
214 917 209 115 95 74
215 916 208 113 89 66
215 916 209 111 89 67
215 917 209 111 90 70
214 917 210 118 98 79
215 917 210 112 93 73
214 918 210 123 103 83
214 918 211 123 103 84
214 919 211 119 98 80
215 918 210 116 97 78
215 918 211 118 98 80
214 919 212 103 82 64
215 919 212 102 83 65
209 921 208 110 81 69
209 922 208 112 92 79
209 923 208 140 118 97
210 920 208 136 107 86
210 921 208 115 85 69
210 921 209 109 82 66
211 920 208 140 115 91
211 920 209 123 97 75
211 921 209 108 81 64
211 921 210 97 74 60
210 922 208 103 80 69
210 922 209 109 90 77
210 923 209 143 121 101
210 923 210 150 126 105
211 922 210 105 89 76
211 922 211 120 103 88
211 923 210 141 119 99
211 923 211 146 122 102
209 924 208 164 133 108
209 925 208 171 134 108
209 926 208 172 133 109
209 927 208 172 133 107
210 924 209 164 134 109
210 925 209 171 133 108
210 924 210 165 134 110
210 925 210 171 133 109
211 924 210 166 134 110
211 924 211 162 133 110
211 925 210 172 134 110
211 925 211 173 133 111
210 926 209 172 133 109
210 927 209 173 134 108
210 926 210 172 133 109
211 926 210 173 133 110
211 926 211 174 134 111
211 927 210 174 135 111
211 927 211 175 135 111
212 920 209 127 103 81
212 920 210 113 90 70
212 920 211 99 76 59
212 921 210 92 70 59
212 921 211 88 70 61
213 920 210 116 93 72
213 920 211 98 77 60
213 921 211 86 67 58
212 922 211 109 93 80
212 923 211 149 124 104
213 922 211 96 82 70
214 920 211 98 76 60
213 921 212 84 70 60
212 923 212 160 132 110
213 922 212 112 96 82
213 923 212 147 124 104
213 923 213 159 133 110
214 920 212 88 69 55
214 921 212 83 67 58
214 921 213 90 76 66
215 920 212 86 66 50
215 920 213 83 66 54
215 921 213 92 78 67
215 921 214 105 91 77
214 922 213 117 100 85
214 923 213 149 126 106
214 923 214 164 137 114
215 922 214 131 113 95
215 923 214 164 137 113
212 924 211 167 134 112
212 925 211 173 134 112
212 926 211 174 134 111
212 927 211 176 136 112
212 924 212 170 136 114
212 925 212 173 135 114
213 924 212 171 136 114
213 924 213 172 137 115
213 925 212 174 135 113
213 925 213 174 136 113
213 926 212 174 134 111
213 926 213 174 136 111
213 927 212 177 138 113
213 927 213 176 137 112
214 924 213 174 139 117
214 925 213 175 137 114
214 924 214 175 140 117
214 925 214 176 138 115
215 924 214 176 141 117
215 924 215 177 140 118
215 925 214 176 138 116
215 925 215 177 139 116
214 926 213 175 137 112
214 927 213 178 140 114
214 926 214 176 138 113
214 927 214 179 141 115
215 926 214 177 138 114
215 926 215 176 137 114
215 927 214 180 140 116
216 915 208 123 94 76
217 914 208 129 105 92
217 915 208 124 96 79
217 915 209 110 82 61
218 913 208 112 94 83
219 913 208 104 89 78
218 914 208 122 100 87
218 915 208 119 93 77
218 915 209 107 80 60
219 914 208 115 92 78
219 915 209 101 76 56
219 915 210 96 74 53
216 916 209 110 86 64
217 916 209 109 84 64
216 916 210 107 86 65
216 917 210 109 89 69
216 917 211 112 93 74
217 916 210 106 84 63
217 917 210 106 86 66
217 917 211 110 90 70
216 918 211 114 95 77
217 918 211 112 93 74
218 916 209 106 81 60
218 916 210 102 80 59
218 917 210 104 83 62
218 917 211 106 86 64
219 916 210 99 77 56
219 916 211 100 79 57
219 917 211 102 82 59
216 918 212 115 97 80
216 919 212 102 84 67
216 919 213 89 70 54
217 918 212 114 95 77
217 918 213 108 90 73
217 919 213 93 74 58
217 919 214 82 63 50
218 917 212 111 92 71
219 917 212 109 90 70
219 917 213 113 94 76
218 918 212 115 95 77
218 918 213 110 92 75
218 919 213 101 82 66
219 918 213 113 95 77
218 919 214 91 72 56
218 919 215 87 68 54
219 918 214 104 85 67
219 919 214 91 71 55
219 919 215 88 69 55
220 912 208 84 74 66
220 913 208 98 83 73
221 912 208 79 65 56
221 913 208 92 74 64
220 914 208 104 83 69
220 914 209 98 74 59
220 915 209 97 72 54
221 914 208 96 75 62
221 914 209 92 69 53
221 915 209 92 67 48
220 915 210 93 71 50
221 915 210 93 71 50
222 912 208 79 61 51
222 913 208 86 67 56
222 913 209 88 67 54
223 912 208 83 62 48
223 913 209 87 66 51
222 914 209 89 67 50
222 914 210 92 70 50
222 915 210 93 73 51
222 915 211 98 78 56
223 914 210 93 73 54
223 914 211 98 78 56
223 915 211 100 80 58
223 915 212 103 83 61
220 916 210 96 75 53
220 916 211 99 79 57
220 917 211 102 81 59
221 916 210 95 74 53
221 916 211 99 79 57
222 916 211 100 80 58
220 917 212 107 87 66
220 917 213 113 94 75
221 916 212 104 84 63
221 917 212 106 86 66
221 917 213 111 92 73
221 917 214 112 93 75
220 918 213 114 95 77
220 918 214 106 88 70
220 919 214 91 72 54
220 919 215 92 74 59
221 918 214 104 85 67
221 918 215 95 77 58
221 919 215 95 76 58
222 916 212 104 84 63
222 916 213 109 89 70
222 917 213 110 91 71
223 916 212 105 84 63
223 916 213 109 89 68
222 917 214 110 91 72
223 916 214 113 93 73
223 917 214 113 93 73
223 917 215 108 87 65
222 918 214 103 85 66
222 918 215 100 81 59
223 918 215 105 84 60
221 919 216 98 79 60
222 918 216 103 82 59
222 919 216 104 84 63
222 919 217 116 94 72
223 918 216 110 88 63
223 919 216 112 90 67
223 919 217 122 99 74
216 920 213 81 63 50
216 920 214 83 69 57
216 921 214 106 91 77
217 920 214 85 70 57
217 921 214 106 90 75
217 921 215 122 104 87
216 922 214 141 121 102
216 922 215 146 125 105
216 923 215 167 138 114
217 922 215 151 128 106
217 923 215 167 136 112
218 920 214 84 67 55
218 920 215 98 81 66
218 921 215 126 107 88
219 920 215 101 82 67
216 924 215 177 140 118
216 925 215 178 138 116
217 924 215 177 140 118
216 926 215 178 138 115
216 927 215 180 140 116
220 920 215 96 78 64
217 923 216 169 136 112
218 921 216 141 119 97
219 920 216 117 97 80
219 921 216 138 116 95
218 922 216 155 130 106
218 923 216 168 134 110
219 922 216 158 131 105
219 923 216 167 134 109
219 923 217 169 134 110
217 924 216 177 139 117
217 925 216 178 138 116
217 926 216 179 137 115
217 927 216 180 139 115
218 924 216 175 137 115
218 925 216 177 138 115
218 925 217 178 138 115
219 924 217 174 135 114
219 925 217 178 137 115
218 926 216 180 140 117
218 926 217 181 140 118
218 927 216 181 139 116
218 927 217 182 140 116
219 926 217 182 141 118
219 927 217 182 140 117
220 920 216 113 93 74
220 921 216 142 118 96
220 921 217 151 125 101
221 920 216 114 93 73
221 920 217 133 110 89
221 921 217 149 123 100
220 922 217 160 131 105
220 923 217 169 133 109
221 922 217 162 131 105
221 923 217 168 132 108
221 923 218 168 132 107
222 920 216 115 93 73
222 920 217 135 111 89
222 921 217 152 125 101
223 920 217 138 113 90
222 921 218 156 126 102
223 920 218 150 122 98
223 921 218 157 126 101
222 922 217 161 129 103
222 922 218 163 129 104
222 923 218 168 131 107
223 922 218 164 129 104
223 923 218 168 131 107
223 923 219 169 131 108
220 924 217 173 135 113
220 925 217 179 139 117
221 924 217 173 135 113
221 924 218 174 136 113
221 925 218 180 140 117
220 926 217 183 141 119
220 927 217 183 140 118
220 927 218 183 140 117
221 926 218 182 141 118
221 927 218 182 140 117
222 924 218 174 135 112
222 925 218 180 139 116
223 924 218 172 133 111
223 924 219 174 135 112
223 925 219 179 138 114
222 926 218 181 139 116
222 927 218 181 139 115
222 927 219 182 139 116
223 926 219 180 138 114
223 927 219 181 139 115
