ply
format ascii 1.0
comment Version 2, Copyright 2017, 8i Labs, Inc.
comment frame_to_world_scale 0.179523
comment frame_to_world_translation -45.2095 7.18301 -54.3561
comment width 1023
element vertex 51
property float x
property float y
property float z
property uchar red
property uchar green
property uchar blue
end_header
223 213 256 111 49 64
223 214 256 102 63 73
223 215 256 93 75 82
223 215 257 93 56 67
223 216 256 85 72 79
223 216 257 91 50 60
223 217 256 82 56 64
223 217 257 89 40 49
223 216 258 92 38 48
223 217 258 91 44 44
223 217 259 102 76 65
223 218 256 86 55 58
223 218 257 89 56 49
223 219 256 93 62 56
223 219 257 111 98 89
223 218 258 101 76 65
223 218 259 123 109 100
223 219 258 128 119 113
223 219 259 135 127 123
223 219 260 135 129 128
223 220 256 106 84 72
223 220 257 129 120 115
223 221 256 121 106 96
223 221 257 134 126 122
223 220 258 134 129 128
223 220 259 126 122 122
223 221 258 130 125 125
223 221 259 123 119 120
222 222 256 130 119 112
222 223 256 136 129 126
222 223 257 142 136 135
223 222 256 136 126 120
223 222 257 139 131 128
223 223 257 142 136 134
222 223 258 140 135 136
223 222 258 137 131 131
223 222 259 134 129 130
223 223 258 141 135 135
223 223 259 140 135 136
223 220 260 127 123 123
223 220 261 133 129 130
223 221 260 126 122 124
223 221 261 137 132 133
223 221 262 141 137 138
223 222 260 136 131 132
223 222 261 141 136 138
223 223 260 143 138 139
223 223 261 142 137 139
223 222 262 140 136 137
223 223 262 133 129 131
223 223 263 125 122 124
