ply
format ascii 1.0
comment Version 2, Copyright 2017, 8i Labs, Inc.
comment frame_to_world_scale 0.179523
comment frame_to_world_translation -45.2095 7.18301 -54.3561
comment width 1023
element vertex 544
property float x
property float y
property float z
property uchar red
property uchar green
property uchar blue
end_header
221 226 256 132 128 129
221 227 256 136 132 133
221 227 257 138 134 135
222 224 256 135 130 131
222 224 257 136 132 133
222 225 256 133 129 130
222 225 257 128 125 127
222 224 258 133 130 132
222 224 259 135 132 134
222 225 258 125 123 126
222 225 259 131 129 131
223 224 259 138 134 135
222 226 256 131 127 129
222 226 257 124 122 125
222 227 257 132 128 130
222 226 258 122 121 124
222 226 259 130 128 131
222 227 258 132 129 131
222 227 259 136 133 135
222 225 260 138 134 135
223 224 260 142 137 138
223 224 261 141 136 136
223 225 260 143 137 138
223 225 261 144 138 137
223 224 262 133 128 129
223 224 263 128 124 125
223 225 262 142 136 136
223 225 263 139 134 135
222 226 260 141 136 138
222 227 260 140 136 139
222 227 261 134 131 134
223 226 260 144 139 140
223 226 261 144 138 138
223 227 261 138 134 137
223 226 262 143 138 138
223 226 263 143 139 140
223 227 262 136 133 134
223 227 263 141 136 137
221 228 256 140 136 137
221 228 257 139 135 136
221 229 256 136 131 133
221 229 257 136 132 134
221 229 258 140 135 136
221 230 256 129 126 128
221 230 257 132 128 130
221 231 256 127 124 127
221 231 257 129 126 128
221 230 258 138 134 135
221 231 258 137 133 134
221 231 259 144 139 140
222 228 258 140 136 137
222 228 259 141 136 138
222 229 258 141 136 137
222 229 259 142 137 138
222 230 259 143 138 138
222 231 259 144 139 140
222 228 260 138 134 135
222 228 261 129 127 129
222 229 260 140 135 136
222 229 261 134 130 132
222 229 262 133 130 132
223 228 262 129 126 128
223 228 263 137 133 135
223 229 262 131 128 131
223 229 263 139 135 136
222 230 260 144 138 138
222 230 261 141 136 136
222 231 260 145 139 139
222 231 261 143 138 138
222 230 262 140 135 136
222 230 263 142 137 138
222 231 262 143 138 138
222 231 263 142 137 138
223 230 263 142 138 139
223 224 264 128 125 126
223 225 264 139 135 136
223 226 264 143 139 140
223 227 264 145 140 140
223 227 265 146 140 140
223 228 264 145 140 141
223 228 265 148 143 143
223 229 264 145 141 142
223 229 265 145 141 142
223 228 266 147 142 143
223 229 266 145 141 142
222 231 264 140 135 137
223 230 264 141 137 138
223 230 265 137 134 137
223 231 264 135 132 134
223 231 265 130 128 131
223 230 266 138 135 137
223 230 267 141 138 140
223 231 266 133 131 134
223 231 267 140 137 139
219 239 256 140 135 135
220 232 256 139 135 136
220 233 256 143 137 138
221 232 256 135 131 133
221 232 257 135 131 133
221 233 256 141 136 137
221 233 257 141 136 137
221 232 258 137 134 135
221 232 259 141 137 139
221 233 258 137 133 135
221 233 259 134 131 134
220 234 256 143 138 138
220 234 257 143 137 138
220 235 256 137 133 134
220 235 257 143 138 138
221 234 257 141 136 137
220 235 258 142 138 139
221 234 258 139 134 135
221 234 259 133 131 133
221 235 258 141 136 137
221 235 259 139 136 138
221 232 260 138 135 137
221 233 260 130 127 130
221 233 261 131 128 131
221 234 260 128 126 129
221 234 261 132 130 133
221 235 260 137 134 136
221 235 261 137 134 136
221 235 262 138 135 137
222 232 260 141 137 138
222 232 261 140 135 137
222 233 261 134 132 135
222 232 262 144 139 139
222 232 263 145 139 140
222 233 262 142 137 139
222 233 263 147 141 142
222 234 262 140 137 140
222 234 263 143 140 142
222 235 262 138 135 138
222 235 263 136 133 136
220 236 256 133 130 133
220 236 257 142 138 140
220 237 256 134 132 135
220 237 257 139 136 139
220 236 258 143 139 141
220 236 259 142 138 140
220 237 258 140 137 139
220 237 259 139 136 138
221 236 259 141 138 140
220 238 256 136 133 135
220 238 257 134 131 134
220 239 256 138 133 134
220 239 257 131 128 130
220 238 258 132 129 133
220 238 259 132 130 133
220 239 258 126 125 128
220 239 259 127 126 129
221 236 260 142 138 140
221 236 261 142 138 139
221 237 260 140 136 138
221 237 261 143 138 139
221 236 262 141 136 138
221 237 262 143 139 139
220 238 260 136 133 136
220 239 260 136 133 136
221 238 260 139 136 138
221 238 261 142 138 139
221 239 261 139 136 138
221 238 262 143 139 140
221 238 263 143 138 140
221 239 262 138 135 138
221 239 263 139 136 138
222 236 262 137 134 137
222 236 263 132 129 132
222 237 263 141 137 138
222 238 263 143 138 139
222 239 263 141 137 139
222 232 264 144 139 140
222 233 264 147 141 142
223 232 264 142 138 140
223 232 265 141 137 139
223 233 265 148 142 143
223 232 266 142 138 140
223 232 267 142 139 141
223 233 266 147 143 144
223 233 267 144 140 142
222 234 264 143 139 141
222 235 264 133 131 134
222 235 265 133 131 135
223 234 265 146 141 143
223 235 265 140 137 139
223 234 266 148 143 144
223 234 267 147 142 143
223 235 266 146 141 143
223 235 267 150 145 146
223 233 268 138 135 138
223 234 268 141 137 139
223 235 268 147 143 145
222 236 264 128 126 130
222 236 265 132 130 134
222 237 264 139 135 137
222 237 265 140 136 139
223 236 265 138 135 138
223 237 265 142 138 140
223 236 266 143 140 142
223 236 267 146 142 144
223 237 266 142 139 141
223 237 267 133 132 137
222 238 264 143 138 139
222 238 265 142 138 139
222 239 264 143 138 139
222 239 265 143 138 139
222 239 266 142 138 141
223 238 266 139 136 139
223 238 267 128 128 135
223 239 266 139 136 139
223 239 267 129 130 137
223 236 268 141 140 144
223 237 268 125 127 135
223 238 268 112 118 129
223 239 268 112 120 131
219 240 256 142 136 135
219 241 256 142 137 137
219 241 257 144 139 139
219 242 256 138 135 137
219 242 257 140 136 138
219 243 256 130 129 133
219 243 257 130 129 133
219 242 258 142 137 139
219 242 259 143 139 139
219 243 258 135 133 136
219 243 259 141 137 138
219 243 260 142 139 140
219 244 256 128 127 130
219 244 257 128 127 131
219 245 256 134 132 134
219 245 257 135 133 136
219 244 258 133 132 135
219 244 259 138 135 138
219 245 258 137 135 138
219 245 259 136 135 139
219 246 256 139 135 136
219 246 257 140 137 138
219 247 256 138 134 135
219 247 257 140 136 137
219 246 258 137 135 138
219 246 259 135 133 137
219 247 258 140 136 138
219 247 259 134 133 137
219 244 260 138 136 139
219 245 260 129 129 135
219 246 260 123 125 132
219 246 261 113 119 130
219 247 260 122 125 133
219 247 261 111 119 131
219 247 262 107 117 131
220 240 256 142 136 136
220 240 257 141 136 136
220 241 257 144 139 139
220 240 258 137 134 136
220 240 259 135 133 136
220 241 258 143 139 140
220 241 259 140 137 139
220 242 259 144 139 141
220 240 260 136 134 136
220 240 261 132 130 133
220 241 260 138 135 138
220 241 261 133 130 133
221 240 261 132 130 133
221 240 262 130 128 131
221 240 263 134 131 135
221 241 262 125 124 127
221 241 263 130 129 132
220 242 260 144 140 142
220 242 261 141 138 141
220 243 260 143 139 142
220 243 261 143 140 142
220 242 262 139 136 139
220 243 262 141 138 141
221 242 262 135 132 135
221 242 263 134 133 137
221 243 263 136 135 140
220 244 260 137 136 139
220 244 261 138 137 141
220 245 260 132 132 137
220 245 261 128 130 137
220 244 262 137 136 141
220 244 263 131 133 140
220 245 262 126 129 137
220 245 263 121 126 135
221 244 263 132 133 140
220 246 261 115 121 131
220 246 262 111 119 131
220 246 263 110 119 131
220 247 262 107 117 130
220 247 263 107 118 132
221 241 264 137 135 140
221 242 264 133 134 141
221 242 265 124 129 139
221 243 264 127 131 139
221 243 265 115 123 136
222 240 264 141 137 139
222 240 265 141 138 141
222 241 264 137 136 141
222 241 265 133 134 141
222 240 266 134 134 140
222 241 266 120 124 133
222 241 267 111 117 128
223 240 266 134 134 139
223 240 267 122 125 133
223 241 267 106 114 126
222 242 265 123 128 138
222 243 265 111 120 134
222 242 266 109 118 131
222 242 267 106 116 130
222 243 266 104 117 132
222 243 267 107 119 134
223 242 267 106 116 129
223 240 268 109 118 131
223 240 269 107 119 134
223 241 268 105 116 130
223 241 269 108 120 136
222 243 268 111 122 137
223 242 268 109 120 135
223 242 269 110 122 137
223 243 268 110 122 137
223 243 269 111 123 138
220 244 264 120 125 135
220 245 264 111 120 132
221 244 264 117 124 135
221 244 265 109 120 134
221 245 264 107 117 131
221 245 265 110 121 134
221 244 266 108 120 135
221 245 266 113 123 137
221 245 267 111 122 136
220 246 264 110 120 133
220 246 265 112 122 136
220 247 264 109 120 135
220 247 265 112 123 137
221 246 265 113 123 136
220 247 266 112 123 138
221 246 266 114 124 138
221 246 267 110 121 135
221 247 266 112 124 138
221 247 267 108 120 136
222 244 266 107 119 135
222 244 267 110 122 137
222 245 267 109 121 135
222 246 267 107 118 133
221 247 268 103 116 132
222 244 268 109 121 136
222 245 268 101 114 130
222 245 269 99 113 130
223 244 268 110 122 137
223 244 269 109 121 137
223 245 269 105 118 134
223 244 270 109 121 136
223 245 270 104 117 132
223 245 271 99 111 126
222 246 268 101 114 130
222 246 269 97 111 128
222 247 268 97 112 128
222 247 269 84 101 119
223 246 269 100 114 130
223 246 270 103 115 129
223 246 271 106 116 128
223 247 270 98 109 122
223 247 271 114 118 126
218 249 256 133 131 134
218 249 257 138 136 139
219 248 256 136 133 135
219 248 257 140 136 138
219 249 256 135 133 135
219 249 257 139 136 139
218 249 258 138 136 140
218 249 259 132 133 139
219 248 258 141 137 140
219 248 259 135 135 140
219 249 259 128 131 139
218 250 256 133 132 135
218 250 257 134 134 138
218 251 256 133 133 137
218 251 257 128 130 136
218 250 258 133 133 139
218 250 259 123 128 137
218 251 258 120 125 134
218 251 259 112 121 133
219 251 259 109 119 133
219 248 260 121 126 136
219 248 261 111 120 132
219 249 260 118 124 135
219 249 261 108 118 132
219 248 262 108 119 133
219 248 263 107 120 135
219 249 262 106 119 134
219 249 263 107 120 136
218 250 260 117 123 135
219 250 260 110 120 133
219 250 261 107 119 133
219 251 260 109 120 134
219 251 261 112 123 137
219 250 262 109 121 137
219 250 263 106 120 136
219 251 262 111 123 138
219 251 263 105 119 136
218 252 256 125 128 135
218 252 257 117 123 133
218 253 256 115 121 132
218 253 257 106 116 129
218 252 258 109 118 131
218 252 259 105 116 131
218 253 258 100 113 128
218 253 259 101 114 130
219 252 259 104 116 131
218 254 256 110 117 129
218 254 257 103 113 127
218 255 256 108 116 128
218 255 257 106 115 128
218 254 258 99 112 127
218 254 259 105 116 131
218 255 258 108 117 131
218 255 259 107 118 133
218 253 260 105 117 132
219 252 260 108 119 134
219 252 261 112 123 137
219 253 260 107 119 134
219 253 261 104 117 132
219 252 262 110 122 137
219 252 263 105 118 134
219 253 262 103 117 133
219 253 263 102 116 132
218 254 260 99 113 129
218 254 261 96 111 128
218 255 260 98 112 129
218 255 261 97 112 130
218 254 262 101 115 132
218 255 262 96 112 129
219 254 262 101 116 132
219 254 263 102 116 133
219 255 263 102 116 133
220 248 263 108 119 134
219 249 264 104 119 136
219 250 264 98 114 132
219 251 264 99 115 132
219 251 265 97 113 131
219 252 264 95 111 129
219 252 265 93 111 131
219 253 264 90 109 127
219 253 265 89 110 130
219 252 266 98 116 136
219 253 266 97 117 138
219 253 267 98 120 141
219 254 264 95 112 131
219 254 265 89 110 131
219 255 264 105 120 137
219 255 265 95 116 137
219 254 266 92 115 137
219 254 267 95 119 141
219 255 266 91 115 138
219 255 267 90 116 141
220 248 264 109 121 137
220 248 265 105 119 135
220 249 264 102 117 134
220 249 265 98 113 130
220 248 266 102 116 133
220 249 266 93 110 127
220 249 267 83 102 121
221 248 266 108 120 136
221 248 267 98 113 130
221 249 267 78 99 119
220 250 264 100 115 133
220 250 265 98 114 131
220 251 265 94 111 129
220 250 266 87 105 124
220 250 267 77 97 117
220 251 266 87 106 125
220 251 267 78 99 119
221 248 268 91 107 125
221 249 268 80 100 119
221 249 269 89 107 125
220 251 268 76 98 118
221 250 268 83 102 121
221 250 269 95 112 130
221 251 268 74 97 118
221 251 269 75 97 119
222 248 268 95 110 127
222 248 269 85 102 119
222 249 269 96 111 128
222 248 270 91 103 117
222 249 270 93 105 120
223 248 270 96 105 117
223 248 271 96 98 105
223 249 271 82 88 98
222 250 269 95 113 131
222 250 270 89 107 126
222 250 271 78 98 116
222 251 270 71 97 120
222 251 271 79 103 125
223 250 271 76 91 106
223 251 271 79 101 120
220 252 266 96 114 133
220 252 267 94 114 134
220 253 267 98 119 140
220 254 267 92 117 141
220 255 267 87 115 140
220 252 268 83 106 128
220 253 268 88 113 136
220 253 269 83 108 131
221 252 268 74 98 119
221 252 269 65 93 116
221 253 269 78 104 127
221 252 270 63 90 115
221 253 270 70 96 120
220 254 268 85 113 137
220 254 269 86 113 137
220 255 268 84 114 139
220 255 269 82 112 138
221 254 269 85 111 134
221 254 270 82 108 132
221 254 271 74 101 126
221 255 270 76 105 131
221 255 271 70 99 126
222 252 270 70 97 121
222 252 271 83 109 131
222 253 271 74 101 125
222 254 271 68 95 121
222 255 271 66 94 121
223 247 272 122 121 125
223 248 272 101 95 95
223 249 272 87 77 81
223 249 273 88 67 70
223 250 272 75 77 88
223 250 273 81 69 76
223 251 272 82 99 116
223 251 273 82 87 97
222 252 272 90 115 137
222 253 272 79 106 131
223 252 272 92 114 135
223 252 273 88 106 124
223 253 272 85 112 136
223 253 273 85 112 136
223 253 274 87 114 138
222 254 272 68 95 122
222 255 272 72 101 127
222 255 273 74 104 130
223 254 273 75 103 130
223 255 273 78 108 134
223 254 274 85 114 139
223 255 274 83 114 140
