ply
format ascii 1.0
comment Version 2, Copyright 2017, 8i Labs, Inc.
comment frame_to_world_scale 0.179523
comment frame_to_world_translation -45.2095 7.18301 -54.3561
comment width 1023
element vertex 712
property float x
property float y
property float z
property uchar red
property uchar green
property uchar blue
end_header
223 288 74 138 133 134
223 288 75 139 134 136
223 289 75 137 133 135
223 290 75 137 133 135
223 288 76 139 135 137
223 288 77 138 135 136
223 289 76 138 134 136
223 289 77 138 134 136
223 288 78 138 134 137
223 288 79 137 133 136
223 289 78 139 135 137
223 289 79 138 134 137
223 290 76 138 134 135
223 290 77 138 134 136
223 291 76 137 133 135
223 291 77 137 133 135
223 290 78 139 135 137
223 290 79 137 134 137
223 291 78 138 134 137
223 291 79 136 133 137
223 292 76 132 129 131
223 292 77 134 130 133
223 293 76 132 128 131
223 293 77 134 131 134
223 292 78 135 132 136
223 292 79 134 131 135
223 293 78 133 131 135
223 293 79 130 129 134
223 294 77 133 131 134
223 295 77 131 129 134
223 294 78 128 127 132
223 294 79 125 125 131
223 295 78 127 127 132
223 295 79 124 125 132
220 303 64 137 137 142
221 302 64 132 132 138
221 303 64 136 136 141
223 301 64 131 132 138
222 302 64 133 133 139
222 303 64 135 135 141
222 303 65 134 134 140
223 302 64 133 133 138
223 302 65 135 134 140
223 303 65 135 134 140
223 296 78 127 128 134
223 296 79 124 127 135
223 297 78 125 128 137
223 297 79 121 127 137
223 288 80 138 134 136
223 288 81 138 135 137
223 289 80 135 132 135
223 289 81 132 130 134
223 288 82 138 135 138
223 288 83 137 134 138
223 289 82 131 129 134
223 289 83 131 130 135
223 290 80 132 131 134
223 290 81 129 128 132
223 291 80 132 130 134
223 291 81 129 128 134
223 290 82 128 127 132
223 290 83 125 126 132
223 291 82 127 127 133
223 291 83 121 124 132
223 288 84 138 135 139
223 288 85 136 134 139
223 289 84 128 129 135
223 289 85 126 128 135
223 288 86 134 133 138
223 289 86 123 126 135
223 289 87 111 117 128
223 290 84 118 121 130
223 290 85 113 119 129
223 291 84 109 116 128
223 291 85 103 113 126
223 290 86 105 114 127
223 290 87 100 111 125
223 291 86 99 111 127
223 291 87 91 107 125
223 292 80 130 129 133
223 292 81 128 128 134
223 293 80 128 127 132
223 293 81 125 126 133
223 292 82 125 127 134
223 292 83 115 120 130
223 293 82 120 123 132
223 293 83 108 116 128
223 294 80 123 124 131
223 294 81 121 124 132
223 295 80 122 124 132
223 295 81 118 122 131
223 294 82 117 122 132
223 294 83 109 118 131
223 295 82 113 120 131
223 295 83 105 115 129
223 292 84 102 112 126
223 292 85 98 110 126
223 293 84 99 110 126
223 293 85 96 110 126
223 292 86 93 108 126
223 293 86 86 104 123
223 293 87 77 97 119
223 294 84 103 115 131
223 294 85 98 112 128
223 295 84 99 113 129
223 295 85 94 110 128
223 294 86 91 108 127
223 294 87 88 107 126
223 295 86 90 107 127
223 295 87 89 108 128
223 296 80 120 124 133
223 296 81 113 120 131
223 297 80 116 124 136
223 297 81 110 120 133
223 296 82 104 113 127
223 296 83 94 107 122
223 297 82 103 115 130
223 297 83 98 112 129
223 298 80 108 119 134
223 298 81 106 118 134
223 298 82 105 119 135
223 298 83 99 115 133
223 299 83 95 112 131
223 296 84 85 102 121
223 296 85 80 100 120
223 297 84 92 109 127
223 297 85 91 108 127
223 296 86 77 99 120
223 296 87 76 97 119
223 297 86 88 107 127
223 297 87 82 102 122
223 298 84 93 110 129
223 298 85 93 111 130
223 299 84 94 112 130
223 299 85 94 112 132
223 298 86 94 112 131
223 298 87 93 110 130
223 299 86 93 112 132
223 301 81 103 115 130
223 300 82 99 114 131
223 300 83 102 116 134
223 301 82 103 116 132
223 301 83 107 119 135
223 302 81 105 116 130
223 303 81 110 119 133
223 302 82 108 118 132
223 302 83 106 117 131
223 303 82 109 119 132
223 303 83 109 118 132
223 300 84 103 117 135
223 300 85 97 113 132
223 301 84 103 117 134
223 301 85 94 110 128
223 300 86 93 110 129
223 300 87 92 110 130
223 301 86 95 109 126
223 301 87 96 110 126
223 302 84 103 114 130
223 302 85 105 115 129
223 303 84 114 121 134
223 303 85 117 123 133
223 302 86 111 118 130
223 302 87 113 119 129
223 303 86 119 123 132
223 303 87 124 125 132
223 302 88 111 117 128
223 302 89 120 124 133
223 303 88 129 128 134
223 303 89 130 130 136
223 303 90 131 131 138
218 305 64 131 133 139
219 304 64 136 136 142
219 305 64 133 134 140
219 305 65 134 135 141
218 306 64 133 134 141
218 307 64 134 135 143
219 306 64 133 135 141
219 306 65 134 135 142
219 307 64 131 134 142
219 307 65 128 132 141
218 308 64 131 134 142
218 308 65 123 128 139
218 309 64 124 129 139
218 309 65 122 129 140
219 308 65 125 130 140
219 309 65 121 129 141
219 309 66 123 131 143
218 310 64 122 129 140
218 310 65 121 128 141
218 311 64 118 127 140
218 311 65 119 129 142
219 310 65 123 131 144
219 311 65 120 129 142
219 310 66 121 130 143
219 311 66 117 127 141
219 311 67 106 119 135
220 304 64 136 136 142
220 304 65 135 135 140
220 305 65 135 136 142
221 304 65 136 136 141
221 305 65 137 137 143
220 306 65 134 135 142
220 307 65 126 131 140
220 306 66 132 135 142
221 306 66 134 136 143
221 307 66 128 131 141
222 304 65 136 136 141
222 305 65 137 137 143
223 304 65 135 135 140
222 305 66 138 138 144
223 304 66 135 135 141
223 305 66 137 137 143
222 306 66 136 137 144
222 307 66 129 133 141
222 307 67 128 132 141
223 306 66 135 137 143
223 306 67 131 134 142
223 307 67 128 132 142
223 307 68 124 130 141
220 308 65 125 130 140
220 308 66 125 130 141
220 309 66 123 130 143
221 308 66 124 130 141
221 309 66 122 130 142
221 309 67 119 127 140
220 310 66 121 129 142
220 310 67 116 126 141
220 311 66 115 125 140
220 311 67 108 121 137
221 310 67 114 125 140
221 311 67 106 120 136
222 308 66 125 130 140
222 308 67 124 130 141
222 309 67 122 130 143
223 308 67 124 130 141
223 309 67 121 129 143
222 310 67 116 127 141
221 311 68 105 119 136
223 308 68 121 129 141
223 309 68 118 128 142
222 310 68 108 121 137
222 311 68 107 121 138
222 311 69 107 121 139
223 310 68 113 124 139
223 310 69 106 120 136
223 311 69 106 120 137
223 310 70 104 118 135
223 311 70 104 118 135
223 311 71 100 117 134
223 311 77 79 93 112
223 310 78 86 91 107
223 310 79 86 87 102
223 311 78 83 90 109
223 311 79 83 84 104
217 314 64 98 113 130
217 314 65 103 116 132
217 315 64 99 114 131
218 312 64 110 122 136
218 312 65 112 123 139
218 313 64 103 116 132
218 313 65 106 120 135
218 312 66 110 122 138
218 313 66 104 118 135
219 312 66 107 120 137
219 312 67 102 118 135
219 313 66 101 116 134
219 313 67 100 116 134
218 314 64 99 113 130
218 314 65 103 117 133
218 315 64 100 115 132
218 315 65 103 117 134
218 314 66 107 121 137
218 315 66 108 121 137
218 315 67 100 115 132
219 314 66 106 120 138
219 314 67 101 117 134
219 315 66 107 121 138
219 315 67 100 116 133
219 315 68 96 114 133
219 315 69 93 112 132
217 316 64 96 112 130
217 316 65 99 114 131
217 317 64 91 107 126
217 317 65 89 106 124
217 316 66 100 114 131
217 316 67 96 111 128
217 317 66 91 108 126
217 317 67 95 109 125
217 318 64 91 108 126
217 318 65 92 108 124
217 319 64 97 111 127
217 319 65 101 113 129
217 318 66 93 107 123
217 318 67 97 107 122
217 319 66 102 113 128
217 319 67 100 110 123
218 316 65 100 115 132
218 316 66 97 112 129
218 316 67 94 110 127
218 317 66 92 107 125
218 317 67 95 108 125
219 316 67 94 111 129
218 318 67 99 109 124
218 319 67 93 104 119
218 316 68 92 110 129
218 316 69 95 112 131
218 317 68 96 108 125
218 317 69 95 109 126
219 316 68 95 113 132
219 316 69 95 114 133
219 317 69 95 112 130
218 317 70 90 107 125
219 317 70 89 110 131
218 318 68 97 105 120
218 318 69 92 100 115
218 319 68 91 91 103
218 319 69 86 82 96
218 318 70 85 99 117
218 319 70 84 85 103
218 319 71 85 95 111
219 318 70 87 109 129
219 318 71 87 109 130
219 319 71 84 103 122
220 312 67 102 118 135
220 314 67 98 114 132
220 312 68 103 118 135
220 313 68 100 116 133
221 312 68 104 119 136
221 313 68 99 115 133
221 313 69 99 115 133
220 314 68 99 115 132
220 314 69 94 111 129
220 315 68 94 112 131
220 315 69 92 111 130
221 314 68 99 114 132
221 314 69 95 112 130
221 315 69 90 109 128
221 315 70 89 108 127
222 312 68 104 119 137
222 312 69 103 118 136
222 313 69 98 115 132
223 312 69 102 118 136
223 313 69 99 115 133
223 312 70 101 117 135
223 312 71 96 114 132
223 313 70 96 114 132
223 313 71 94 112 132
222 314 69 96 112 131
222 314 70 94 112 130
222 315 70 93 112 131
222 315 71 97 115 135
223 314 70 96 114 133
223 314 71 94 114 134
223 315 71 95 115 136
220 316 69 91 112 131
220 316 70 89 111 132
220 317 70 86 110 132
221 316 70 87 109 131
221 317 70 83 109 133
221 317 71 83 109 132
220 318 71 82 108 130
220 319 71 83 107 129
221 318 71 81 110 134
222 316 70 87 109 130
222 316 71 89 112 133
222 317 71 82 107 129
219 319 72 81 102 121
223 312 72 88 108 128
223 312 73 81 104 126
223 313 72 87 108 129
223 313 73 87 109 130
223 312 74 79 103 126
223 313 74 88 111 132
223 313 75 85 109 131
223 314 72 88 110 131
223 314 73 85 109 131
223 315 72 90 113 135
223 315 73 83 111 135
223 314 74 84 110 134
223 314 75 83 109 133
223 315 74 81 109 134
223 315 75 82 110 135
223 312 76 77 100 121
223 312 77 70 91 111
223 313 76 79 104 126
223 313 77 74 98 120
223 312 78 73 86 106
223 312 79 80 87 107
223 313 78 69 91 112
223 313 79 75 95 114
223 314 76 81 107 131
223 314 77 79 105 129
223 315 76 80 109 134
223 315 77 78 106 132
223 314 78 78 102 124
223 314 79 76 99 120
223 315 78 76 102 127
223 315 79 75 100 123
220 318 72 79 105 128
220 319 72 77 104 127
221 318 72 78 108 132
221 319 72 76 107 133
221 319 73 78 107 133
221 319 74 79 108 133
222 316 72 82 107 130
222 317 72 77 104 129
222 317 73 75 104 130
223 316 72 86 110 133
223 316 73 77 107 133
223 317 73 73 104 131
222 317 74 74 105 132
223 316 74 78 109 135
223 316 75 80 111 137
223 317 74 74 106 133
223 317 75 77 109 136
222 318 72 74 104 130
222 318 73 76 107 132
222 318 74 78 109 135
222 318 75 76 108 135
222 319 74 80 111 137
222 319 75 80 112 138
222 317 76 79 110 137
222 317 77 77 108 135
223 316 76 79 109 135
223 316 77 76 106 133
223 317 76 78 109 136
223 317 77 78 109 135
222 317 78 74 106 132
222 317 79 74 105 132
223 316 78 74 103 129
223 316 79 73 102 127
223 317 78 76 106 133
223 317 79 74 104 130
222 318 76 76 109 136
222 318 77 76 109 135
222 319 76 76 108 136
222 319 77 76 108 135
222 318 78 75 106 133
222 318 79 75 105 131
222 319 78 77 108 135
222 319 79 76 106 132
223 318 79 76 106 132
223 304 81 105 115 129
223 305 81 99 109 122
223 304 82 106 115 128
223 304 83 110 118 130
223 305 82 102 109 121
223 305 83 108 113 122
223 306 80 107 114 125
223 306 81 105 111 121
223 307 80 116 120 129
223 307 81 121 123 131
223 306 82 109 113 121
223 306 83 117 118 124
223 307 82 127 127 132
223 307 83 133 131 134
223 304 84 116 122 133
223 304 85 122 125 134
223 305 84 116 118 126
223 305 85 124 124 130
223 304 86 129 130 137
223 304 87 135 135 139
223 305 86 130 129 133
223 305 87 136 134 138
223 306 84 130 128 131
223 306 85 135 132 135
223 307 84 135 132 135
223 307 85 136 133 136
223 306 86 135 133 135
223 306 87 136 134 137
223 307 86 135 132 135
223 307 87 131 128 131
223 308 80 116 119 126
223 308 81 125 125 130
223 309 80 106 105 111
223 309 81 110 107 109
223 308 82 134 132 135
223 308 83 137 134 137
223 309 82 122 116 117
223 309 83 124 119 119
223 310 80 88 84 92
223 310 81 93 86 88
223 311 80 86 83 97
223 311 81 87 81 90
223 310 82 105 89 92
223 310 83 113 99 97
223 311 82 92 78 83
223 311 83 107 83 85
222 309 85 123 119 119
223 308 84 136 133 136
223 308 85 136 133 136
223 309 84 126 123 124
223 309 85 128 125 127
223 308 86 137 134 137
223 308 87 134 131 134
223 309 86 131 128 130
223 309 87 139 135 137
222 310 85 119 112 110
222 311 85 115 97 96
223 310 84 115 105 102
223 310 85 119 114 113
223 311 84 112 88 89
222 310 86 126 120 118
222 310 87 137 133 133
222 311 86 120 109 107
222 311 87 132 127 126
223 310 86 127 124 124
223 310 87 134 130 131
223 304 88 137 135 138
223 304 89 137 135 138
223 305 88 136 134 137
223 305 89 135 132 135
223 304 90 137 135 139
223 304 91 136 134 139
223 305 90 133 130 133
223 305 91 135 132 134
223 306 88 137 134 138
223 306 89 138 135 138
223 307 88 133 130 133
223 307 89 137 135 138
223 306 90 137 134 137
223 306 91 134 131 133
223 307 90 139 137 141
223 307 91 138 136 139
223 305 92 137 133 135
223 306 92 136 132 135
223 306 93 137 134 137
223 307 92 138 135 139
223 307 93 136 134 138
222 308 89 133 130 132
223 308 88 132 129 131
223 308 89 135 132 134
223 309 88 141 137 139
223 309 89 141 137 139
223 308 90 138 135 138
223 308 91 135 133 137
223 309 90 141 138 140
223 309 91 138 136 139
222 310 88 138 135 136
222 310 89 137 134 135
222 311 88 139 134 136
222 311 89 138 135 136
223 310 88 139 135 137
223 310 89 140 136 138
222 310 90 135 132 133
222 310 91 130 126 128
222 311 90 136 132 133
222 311 91 132 129 131
223 310 91 134 130 132
223 308 92 132 131 135
223 308 93 131 129 133
223 309 92 135 132 136
223 309 93 132 130 133
223 308 94 125 124 128
223 309 94 129 127 131
222 311 92 131 128 130
223 310 92 135 132 135
223 310 93 138 135 138
223 311 92 131 128 130
223 311 93 135 132 134
223 310 94 139 136 137
223 310 95 141 137 138
223 311 94 139 135 137
223 311 95 138 135 137
223 312 80 87 91 108
223 312 81 87 88 102
223 313 80 83 98 116
223 313 81 85 96 113
223 312 82 88 81 91
223 312 83 95 75 81
223 313 82 88 92 109
223 313 83 89 81 93
223 314 80 77 97 117
223 314 81 77 97 118
223 315 80 75 99 122
223 315 81 72 98 121
222 315 83 84 105 124
223 314 82 81 98 118
223 314 83 84 90 106
223 315 82 76 101 123
223 315 83 81 100 119
222 312 84 103 74 80
222 312 85 108 77 81
222 313 84 92 71 78
222 313 85 102 72 77
223 312 84 103 74 78
223 313 84 92 69 77
222 312 86 110 88 87
222 312 87 117 106 102
222 313 86 109 81 83
222 313 87 112 92 90
222 314 84 85 87 99
222 314 85 89 80 86
222 315 84 84 99 115
222 315 85 83 91 104
223 314 84 89 79 89
223 314 85 96 74 76
222 314 86 96 78 81
222 314 87 104 81 83
222 315 86 80 78 88
222 315 87 87 72 77
223 316 80 75 104 129
223 316 81 77 106 131
223 317 80 75 105 131
223 317 81 77 108 134
222 316 83 83 109 133
222 317 82 80 111 138
222 317 83 80 111 137
223 316 82 80 108 132
223 316 83 82 108 129
223 317 82 79 110 136
222 318 81 72 104 130
222 319 80 74 103 128
222 319 81 71 101 127
223 318 80 74 105 131
223 318 81 73 105 131
223 319 81 73 103 129
222 318 82 77 109 136
222 318 83 79 111 138
222 319 82 72 104 131
222 319 83 75 107 134
223 318 82 76 109 135
221 318 87 83 109 132
221 319 87 81 110 134
222 316 84 80 105 126
222 316 85 75 96 116
222 317 84 78 108 134
222 317 85 76 104 127
222 316 86 74 89 106
222 316 87 80 80 95
222 317 86 79 103 124
222 317 87 82 97 116
222 318 84 77 109 137
222 318 85 77 108 135
222 319 84 73 106 133
222 319 85 74 106 133
222 318 86 79 108 133
222 318 87 82 107 129
222 319 86 77 108 133
222 319 87 80 109 134
222 312 88 125 120 119
222 312 89 133 129 130
222 313 88 113 102 99
222 313 89 121 115 114
222 312 90 137 134 136
222 312 91 138 135 137
222 313 90 130 126 127
222 313 91 138 134 135
222 314 88 113 91 89
222 314 89 119 102 101
222 315 88 97 67 70
222 315 89 106 79 81
222 314 90 128 118 116
222 314 91 139 133 131
222 315 90 113 92 91
222 315 91 126 116 110
222 312 92 139 135 137
222 313 92 141 137 138
223 312 92 137 133 135
223 312 93 139 135 137
223 313 93 141 137 138
223 312 94 141 137 138
223 312 95 139 136 138
223 313 94 138 135 137
223 313 95 138 135 137
222 314 92 142 137 137
222 314 93 140 135 136
222 315 92 137 130 127
222 315 93 141 135 135
222 314 94 136 133 135
222 315 94 141 138 139
222 315 95 139 136 138
223 314 94 133 130 132
223 314 95 131 128 131
223 315 95 137 133 136
221 318 88 85 107 126
221 318 89 88 103 119
221 319 88 85 112 134
221 319 89 87 112 134
221 318 90 88 97 111
221 319 90 85 104 123
221 319 91 82 92 107
222 316 88 81 64 75
222 316 89 85 59 65
222 317 88 82 89 104
222 317 89 84 78 89
222 316 90 94 67 66
222 316 91 105 87 78
222 317 90 80 63 69
222 317 91 91 65 62
222 318 90 85 80 88
222 318 91 87 71 79
221 318 92 86 56 70
221 319 92 82 77 89
221 319 93 86 58 71
221 319 94 92 55 65
222 316 92 119 107 100
222 316 93 129 122 118
222 317 92 101 79 71
222 317 93 111 94 86
222 316 94 137 132 130
222 316 95 141 136 136
222 317 94 124 112 107
222 317 95 134 126 121
223 316 95 142 138 139
222 318 92 92 57 64
222 318 93 95 51 58
222 319 92 86 67 82
222 318 94 104 65 63
222 318 95 113 88 81
222 319 94 97 45 56
222 319 95 99 48 56
