ply
format ascii 1.0
comment Version 2, Copyright 2017, 8i Labs, Inc.
comment frame_to_world_scale 0.179523
comment frame_to_world_translation -45.2095 7.18301 -54.3561
comment width 1023
element vertex 282
property float x
property float y
property float z
property uchar red
property uchar green
property uchar blue
end_header
223 288 239 150 132 113
223 288 240 150 132 113
223 288 241 146 125 103
223 289 240 144 126 104
223 289 241 148 129 108
222 288 242 143 120 95
222 288 243 149 126 101
222 289 243 151 129 106
223 288 242 145 123 100
223 289 242 148 128 107
223 290 240 127 97 70
223 290 241 135 112 83
223 291 241 119 51 37
222 290 243 152 133 111
223 290 242 141 121 95
223 290 243 149 130 107
223 291 242 125 82 52
223 291 243 135 113 82
221 288 245 156 134 113
221 289 245 156 134 113
220 288 247 155 133 112
220 289 247 154 133 112
221 288 246 156 134 114
221 288 247 155 133 113
221 289 246 156 136 116
221 289 247 155 134 113
221 290 246 157 136 116
221 290 247 153 131 109
221 291 246 157 136 116
221 291 247 154 132 109
222 288 244 153 130 106
222 288 245 154 132 108
222 289 244 154 131 107
222 289 245 156 133 111
222 290 244 155 135 114
222 290 245 157 137 116
222 291 244 150 131 109
222 291 245 157 137 116
222 291 246 157 137 117
223 292 241 122 22 49
223 292 242 122 34 44
223 292 243 124 67 52
223 293 242 124 30 56
223 293 243 125 40 53
223 294 242 126 29 59
223 294 243 127 31 62
223 295 243 129 30 66
221 292 247 157 135 113
221 293 247 153 133 109
222 292 244 137 112 83
222 292 245 149 127 103
222 293 245 131 93 67
223 292 244 129 85 63
223 293 244 126 55 54
223 293 245 127 61 55
222 292 246 155 135 113
222 293 246 140 115 86
222 293 247 148 126 100
222 294 245 125 53 50
222 295 245 125 26 54
223 294 244 126 34 57
223 294 245 126 43 54
223 295 244 128 33 64
223 295 245 127 20 56
222 294 246 123 64 47
222 294 247 129 89 62
222 295 246 124 35 47
222 295 247 123 49 48
219 288 250 157 134 112
219 288 251 156 133 110
219 289 251 154 132 110
219 288 252 151 132 114
219 288 253 137 126 120
219 289 252 145 129 116
219 289 253 129 123 122
219 288 254 119 120 127
219 288 255 106 116 130
219 289 254 111 117 129
219 289 255 102 115 131
219 290 252 139 128 122
219 290 253 124 122 124
219 291 253 118 120 127
219 290 254 108 116 128
219 290 255 106 116 130
219 291 254 112 117 127
219 291 255 114 118 127
219 292 254 117 120 128
219 292 255 126 123 126
219 293 255 136 127 124
220 288 248 158 136 115
220 288 249 157 135 113
220 289 248 156 134 112
220 289 249 155 133 111
220 288 250 155 132 108
220 289 250 151 127 102
220 289 251 152 129 106
220 290 248 155 132 109
220 290 249 157 134 110
220 291 248 155 131 108
220 291 249 157 134 110
221 290 248 152 129 105
221 291 248 150 126 99
220 290 250 156 133 110
220 290 251 154 133 113
220 291 250 156 134 111
220 291 251 153 133 114
220 289 252 148 129 112
220 290 252 144 129 118
220 291 252 141 130 123
220 291 253 124 123 127
220 292 249 155 132 109
221 292 248 152 129 105
221 292 249 153 130 108
221 293 248 151 131 108
221 293 249 150 131 112
220 292 250 150 129 107
220 292 251 142 123 105
220 293 250 147 129 113
220 293 251 138 126 116
221 293 250 148 131 115
221 294 248 146 127 105
221 294 249 141 124 107
221 295 249 117 92 77
220 294 251 135 129 129
221 294 250 142 130 120
221 294 251 136 130 128
221 295 250 118 109 102
221 295 251 125 124 126
222 294 248 137 111 87
222 295 248 123 70 61
222 295 249 119 85 69
220 292 252 132 125 121
220 292 253 120 122 129
220 293 252 125 121 121
220 293 253 119 120 128
220 292 254 118 121 128
220 293 254 124 122 126
220 293 255 135 126 123
220 294 252 125 124 129
220 294 253 123 121 125
220 295 252 121 122 128
220 295 253 126 121 122
221 295 252 122 124 131
220 294 254 132 124 120
220 294 255 143 130 122
220 295 254 133 120 110
220 295 255 138 124 114
223 296 243 127 21 62
223 296 244 127 22 63
223 296 245 127 19 60
223 297 244 125 14 56
223 297 245 125 17 55
222 296 247 125 33 59
223 296 246 127 24 58
223 296 247 127 22 60
223 297 246 128 25 58
223 297 247 126 38 66
223 298 245 127 23 59
223 299 245 127 32 62
223 298 246 128 34 62
223 298 247 125 56 73
223 299 246 127 42 67
223 299 247 125 65 80
223 300 246 126 51 68
223 300 247 123 69 83
223 301 246 125 58 72
223 301 247 120 75 85
221 296 250 110 102 102
221 296 251 117 118 121
221 297 251 120 120 125
222 296 248 122 51 69
222 296 249 118 79 86
222 297 248 122 66 84
222 297 249 121 92 102
223 297 248 122 61 78
222 296 250 114 96 102
222 297 250 118 110 116
222 297 251 119 119 125
222 298 248 118 87 95
222 298 249 117 105 109
222 299 249 113 107 111
223 298 248 121 79 89
223 299 248 119 89 96
222 298 250 117 117 120
222 298 251 114 114 118
222 299 250 112 112 118
222 299 251 108 99 105
220 296 253 133 126 124
221 296 252 124 124 128
221 296 253 132 127 125
221 297 252 127 124 126
221 297 253 137 128 123
220 296 254 139 126 117
220 296 255 135 123 115
220 297 254 142 132 124
220 297 255 128 123 122
221 297 254 141 129 121
221 298 252 117 104 105
221 298 253 121 97 93
221 299 252 113 73 83
221 299 253 114 64 71
220 298 255 116 114 117
220 299 255 102 100 110
221 298 254 123 104 99
221 298 255 113 99 98
221 299 254 112 70 78
221 299 255 107 86 98
222 298 252 112 104 105
222 299 252 109 71 84
222 300 249 112 111 117
223 300 248 118 98 102
223 300 249 113 109 115
223 301 248 118 104 108
223 301 249 114 111 118
222 300 250 110 106 116
222 300 251 108 87 100
222 301 250 111 101 114
222 301 251 112 81 97
223 301 250 112 103 114
223 302 248 118 107 112
223 302 249 114 110 119
223 303 248 116 110 117
223 303 249 114 109 118
222 302 251 114 70 88
223 302 250 113 100 112
223 302 251 114 78 93
223 303 250 115 97 109
223 303 251 116 74 90
221 300 253 114 54 72
221 300 254 117 67 84
221 300 255 112 93 107
221 301 254 118 78 95
221 301 255 111 104 114
221 302 255 108 106 119
222 300 252 110 53 77
222 300 253 116 54 75
222 301 252 113 53 74
222 301 253 118 62 85
222 301 254 116 79 99
222 301 255 113 106 115
222 302 252 115 60 77
222 302 253 117 80 98
222 303 252 116 71 83
222 303 253 115 91 104
223 302 252 117 60 79
223 303 252 116 67 80
222 302 254 115 99 113
222 302 255 111 107 119
222 303 254 112 107 118
222 303 255 111 102 117
223 304 249 112 106 116
223 304 250 116 93 107
223 304 251 117 70 89
223 305 250 118 82 101
223 305 251 118 62 83
223 306 251 115 59 74
222 304 253 114 103 113
223 304 252 117 71 87
223 304 253 113 91 104
223 305 252 115 73 91
223 305 253 112 95 108
222 304 254 114 109 120
222 304 255 115 95 111
222 305 254 115 103 117
222 305 255 118 87 103
223 305 254 114 104 116
223 306 252 115 77 94
223 306 253 113 95 107
223 307 252 116 87 101
223 307 253 114 94 107
222 306 254 116 94 108
222 306 255 118 66 84
222 307 255 120 48 72
223 306 254 113 92 106
223 307 254 113 84 99
223 307 255 119 65 85
223 308 253 114 94 108
223 308 254 115 83 99
223 308 255 121 50 76
223 309 254 114 78 96
223 309 255 121 46 71
223 310 255 122 43 65
