ply
format ascii 1.0
comment Version 2, Copyright 2017, 8i Labs, Inc.
comment frame_to_world_scale 0.179523
comment frame_to_world_translation -45.2095 7.18301 -54.3561
comment width 1023
element vertex 1219
property float x
property float y
property float z
property uchar red
property uchar green
property uchar blue
end_header
224 455 271 150 149 182
225 455 271 161 157 185
226 455 271 166 159 188
227 454 271 145 139 180
227 455 271 158 152 188
228 454 271 136 132 177
228 455 271 152 146 187
229 454 271 135 134 180
229 455 271 142 139 184
230 454 271 143 144 182
230 455 270 140 139 182
230 455 271 128 129 173
231 454 271 159 160 188
231 455 270 134 136 175
231 455 271 133 136 173
224 456 271 141 143 178
224 457 270 156 161 190
224 457 271 153 156 186
225 456 271 146 147 179
225 457 270 153 158 189
225 457 271 148 152 184
224 458 269 168 177 193
224 459 269 197 198 207
225 458 269 168 175 191
225 459 269 194 194 202
224 458 270 142 151 179
225 458 270 148 155 183
226 456 271 150 149 181
226 457 270 139 143 179
227 456 270 138 136 176
227 456 271 153 149 185
227 457 270 134 135 175
226 459 269 192 190 199
227 458 269 155 157 186
227 459 268 203 197 201
227 459 269 186 183 195
226 458 270 150 155 185
227 458 270 149 150 186
224 462 267 140 148 181
224 463 266 98 109 174
224 463 267 116 127 177
225 462 267 159 163 189
225 463 266 96 103 176
225 463 267 121 128 181
226 461 267 210 203 204
227 461 267 209 201 202
226 462 267 190 191 203
226 463 266 123 132 178
226 463 267 147 155 187
227 462 266 144 154 182
227 462 267 191 190 201
227 463 266 145 157 185
224 460 268 195 191 199
224 460 269 199 196 202
224 461 268 184 183 194
225 460 268 208 200 202
225 460 269 210 202 204
225 461 268 201 197 201
224 462 268 172 174 191
225 462 268 179 181 196
226 460 268 211 202 202
226 460 269 211 203 203
226 461 268 209 202 203
227 460 268 211 202 201
227 461 268 212 201 200
231 459 267 159 159 184
229 457 269 129 127 174
228 456 270 147 143 184
228 456 271 155 150 189
228 457 270 132 131 175
229 456 270 152 147 190
229 457 270 132 129 176
228 458 269 152 152 188
228 459 268 197 193 198
228 459 269 173 171 190
229 458 269 150 149 188
229 459 268 180 177 192
229 459 269 162 160 189
230 457 269 138 133 179
231 457 269 143 135 181
230 456 270 151 146 190
230 457 270 141 136 182
231 456 270 148 144 186
230 458 269 146 144 184
230 459 268 171 170 191
231 458 268 141 139 182
231 458 269 135 131 178
231 459 268 160 160 188
228 461 267 208 200 201
229 460 267 206 200 201
229 461 267 201 196 201
228 463 265 197 199 209
229 463 265 196 195 203
228 462 266 158 162 184
228 462 267 192 189 198
228 463 266 154 162 185
229 462 266 152 155 177
229 462 267 174 174 189
229 463 266 156 162 182
230 460 267 200 196 201
230 461 266 181 180 194
230 461 267 196 193 201
231 460 267 178 178 193
231 461 266 165 164 187
231 461 267 184 184 199
230 463 265 200 195 199
231 462 265 175 177 193
231 463 264 207 197 196
231 463 265 198 193 198
230 462 266 159 162 181
230 463 266 178 180 192
231 462 266 164 167 186
228 460 268 208 200 200
229 460 268 202 197 199
230 460 268 199 194 198
232 453 271 178 179 197
233 453 271 171 174 194
232 454 271 162 163 188
232 455 270 138 141 178
232 455 271 157 159 187
233 454 271 162 164 189
233 455 270 151 154 186
234 453 271 173 174 194
235 452 271 191 189 201
235 453 271 181 182 197
235 455 269 163 166 196
234 454 270 164 168 186
234 454 271 168 171 191
234 455 270 157 160 189
235 454 270 168 172 189
235 454 271 172 175 192
235 455 270 164 168 190
238 451 271 167 166 189
239 451 271 164 162 182
236 452 271 191 189 201
236 453 271 179 180 195
237 452 271 186 185 200
237 453 270 170 171 187
237 453 271 172 173 189
236 455 269 171 173 195
237 455 269 190 189 199
236 454 270 179 181 197
236 455 270 181 184 200
237 454 270 188 189 200
237 455 270 190 191 204
238 452 271 184 180 198
238 453 270 176 173 186
238 453 271 176 174 189
239 452 271 180 177 196
239 453 270 183 180 191
238 454 269 196 192 197
238 455 269 196 194 201
239 454 269 190 186 192
239 455 268 192 191 206
239 455 269 191 189 196
238 454 270 196 194 200
239 454 270 191 188 194
234 463 263 184 177 190
235 463 263 191 189 196
236 463 263 180 180 188
237 463 263 174 177 189
238 462 263 156 156 181
238 463 262 190 189 196
238 463 263 163 167 184
239 462 263 152 149 184
239 463 262 190 190 199
239 463 263 152 156 180
232 459 267 155 155 186
233 459 267 151 151 185
234 459 267 136 134 179
235 458 267 146 142 188
235 459 266 127 126 169
235 459 267 131 128 178
232 456 269 146 141 184
232 457 269 148 140 184
233 456 269 138 137 181
233 457 269 147 142 184
232 456 270 139 138 180
233 456 270 135 135 179
232 458 268 136 132 179
232 458 269 136 130 178
232 459 268 147 146 186
233 458 268 138 134 181
233 459 268 130 129 180
234 456 269 139 139 183
234 457 268 145 141 184
234 457 269 136 133 178
235 456 269 147 146 188
235 457 268 132 129 178
234 458 268 143 139 187
235 458 268 141 138 184
232 460 266 147 148 175
232 460 267 158 158 185
232 461 266 143 145 178
233 460 266 147 150 174
233 460 267 156 157 182
233 461 266 158 161 189
232 462 265 165 167 187
232 463 264 193 186 189
232 463 265 188 185 191
233 462 265 169 168 188
233 463 264 179 173 180
233 463 265 175 172 181
232 462 266 146 151 180
234 461 265 176 177 199
235 461 265 167 168 191
234 460 266 158 161 183
234 461 266 167 170 193
235 460 266 156 158 182
234 462 264 201 198 202
234 462 265 187 185 196
234 463 264 183 178 187
235 462 264 196 193 201
235 462 265 199 196 203
235 463 264 198 196 202
237 457 267 138 136 181
236 458 267 137 134 180
236 459 266 127 124 171
236 459 267 145 141 188
237 458 267 138 135 180
237 459 266 142 139 180
237 459 267 148 144 188
238 457 267 151 150 190
239 457 267 161 162 193
238 459 265 150 146 183
239 459 265 153 147 184
238 458 267 138 136 179
238 459 266 149 146 185
239 458 266 139 139 178
239 458 267 146 147 181
239 459 266 150 145 184
236 456 268 153 152 196
236 456 269 162 161 196
236 457 268 128 125 176
237 456 268 161 160 196
237 456 269 163 163 194
237 457 268 142 140 186
238 456 268 162 162 193
238 457 268 159 157 196
239 456 268 165 165 194
236 460 265 155 154 180
236 461 265 156 153 184
237 460 265 143 139 173
237 461 264 157 150 189
237 461 265 157 152 186
236 460 266 139 139 170
236 462 264 183 182 197
236 463 264 193 194 203
237 462 264 170 169 192
238 460 265 141 135 175
238 461 264 162 157 194
238 461 265 158 152 189
239 460 265 146 139 181
239 461 264 149 143 188
238 462 264 159 157 185
239 462 264 160 155 193
224 448 275 190 190 198
224 449 274 146 155 179
225 448 275 175 178 190
225 449 274 142 151 176
225 449 275 146 155 176
224 451 273 139 146 177
225 451 273 139 148 171
224 450 274 117 129 166
224 451 274 129 141 168
225 450 274 159 167 188
225 451 274 145 155 176
226 448 275 157 163 182
226 449 274 168 172 189
226 449 275 155 161 182
227 448 275 145 154 180
227 449 274 195 193 200
227 449 275 171 175 192
226 451 273 168 172 185
227 451 273 193 191 196
226 450 274 190 191 201
226 451 274 172 177 191
227 450 274 205 199 202
224 452 273 146 151 186
224 453 272 138 138 176
224 453 273 132 135 178
225 452 273 149 156 185
225 453 272 139 139 177
225 453 273 144 148 184
224 454 272 165 160 187
224 455 272 164 160 189
225 454 272 158 153 181
225 455 272 165 160 187
226 452 273 152 157 179
226 453 272 144 145 182
226 453 273 149 152 185
227 452 273 162 164 179
227 453 272 149 151 186
227 453 273 152 155 185
226 454 272 151 147 180
227 454 272 141 138 180
228 448 275 146 152 183
228 449 274 201 198 202
228 449 275 180 182 198
229 448 275 132 137 178
229 449 274 196 194 202
229 449 275 169 172 193
228 451 273 204 197 198
229 451 273 208 199 199
228 450 274 208 200 200
229 450 274 206 199 200
230 448 275 145 148 183
230 449 274 175 174 189
230 449 275 157 159 184
231 448 275 181 182 198
231 449 274 173 172 187
231 449 275 175 175 190
230 451 273 204 197 199
231 450 273 178 173 184
231 451 273 191 186 193
230 450 274 194 190 196
231 450 274 172 170 184
228 452 273 178 178 186
228 453 272 154 157 185
229 452 273 194 190 193
229 453 272 159 162 187
228 454 272 139 138 183
229 454 272 144 144 186
230 452 272 196 192 197
230 452 273 205 198 199
230 453 272 168 169 188
231 452 272 197 194 200
231 452 273 201 196 201
231 453 272 183 183 196
230 454 272 159 160 189
232 448 275 201 200 207
232 449 274 192 189 197
232 449 275 193 191 199
233 448 275 200 199 206
233 449 274 202 197 202
232 450 273 177 173 183
232 451 273 183 178 186
233 450 273 192 187 194
233 451 272 186 183 191
233 451 273 186 182 189
232 450 274 186 182 192
233 450 274 198 193 199
235 449 273 162 166 190
234 448 274 182 183 199
234 448 275 170 173 195
234 449 274 191 190 201
235 448 274 151 157 188
235 449 274 162 165 190
234 450 273 196 194 201
234 451 272 190 187 196
234 451 273 193 190 197
235 450 273 184 183 198
235 451 272 191 188 198
234 450 274 200 196 202
232 452 272 188 185 192
232 453 272 187 186 199
233 452 272 180 177 188
233 453 272 176 175 193
234 452 272 182 180 192
235 452 272 188 184 195
236 449 273 158 164 191
237 449 273 142 151 182
236 448 274 145 152 186
236 449 274 150 158 188
237 448 274 153 160 189
236 450 272 177 176 197
236 450 273 164 166 193
236 451 272 187 184 199
237 450 273 143 151 183
237 451 272 164 167 191
238 448 273 192 193 205
238 449 273 175 180 198
239 448 273 214 208 210
239 449 273 211 208 213
238 448 274 186 187 202
239 448 274 214 208 211
238 450 272 152 157 182
238 450 273 168 173 193
238 451 272 149 151 177
239 450 272 194 196 207
239 451 272 166 167 186
236 452 272 190 187 199
225 467 263 201 199 206
226 467 263 164 169 193
227 466 263 143 157 184
227 467 263 116 133 178
224 468 263 213 205 206
224 469 262 175 179 195
224 469 263 197 196 203
225 468 263 192 192 202
225 469 262 141 147 180
225 469 263 175 177 191
224 470 261 120 125 178
224 471 261 128 127 179
225 470 261 98 107 170
225 471 261 116 118 175
224 470 262 150 154 188
225 470 262 118 126 175
227 469 261 131 136 190
226 468 262 135 143 184
226 468 263 158 163 192
226 469 262 118 124 174
227 468 262 135 145 193
227 469 262 138 144 194
226 470 261 80 93 162
226 471 260 120 124 179
226 471 261 108 117 176
227 470 260 124 139 181
227 470 261 97 112 170
227 471 260 126 136 186
226 470 262 91 103 164
228 466 263 150 165 189
228 467 262 123 142 192
228 467 263 105 128 178
229 466 263 153 163 188
229 467 262 99 119 181
230 465 263 202 199 202
231 465 263 185 185 197
231 467 261 168 180 202
230 466 262 90 108 174
230 466 263 158 165 192
230 467 262 84 106 175
231 466 262 103 120 178
231 466 263 133 140 183
231 467 262 119 140 184
228 471 259 140 145 193
229 471 259 151 155 190
230 470 259 200 196 199
230 471 259 179 180 196
231 470 259 211 201 198
231 471 258 200 197 203
231 471 259 202 198 201
228 469 261 132 145 190
229 468 261 104 122 174
229 469 260 159 173 197
229 469 261 149 162 192
228 468 262 121 135 189
229 468 262 93 113 176
228 470 260 135 148 182
228 470 261 122 136 179
228 471 260 142 150 193
229 470 260 170 177 194
229 471 260 153 160 193
230 468 261 132 147 183
230 469 260 203 204 211
230 469 261 183 190 204
231 468 261 193 196 208
231 469 260 209 204 207
231 469 261 205 204 211
230 470 260 194 195 202
231 470 260 209 201 202
224 465 265 89 102 160
225 465 265 97 106 165
224 464 266 72 84 162
224 465 266 50 59 151
225 464 266 78 79 165
224 466 264 209 206 212
224 466 265 172 179 201
224 467 264 214 207 208
225 466 264 192 194 207
225 466 265 161 169 195
225 467 264 207 204 210
226 464 265 145 149 188
226 465 265 158 164 190
227 464 265 194 197 209
227 465 264 203 201 208
227 465 265 205 202 208
226 464 266 135 141 187
226 466 264 167 173 193
226 466 265 154 163 188
226 467 264 191 191 205
227 466 264 186 190 204
228 464 265 210 205 208
228 465 264 212 205 207
229 464 264 214 203 201
229 464 265 211 202 202
229 465 264 212 202 200
228 466 264 207 204 208
230 464 264 209 197 194
230 465 264 208 199 198
231 464 264 205 196 196
231 465 264 203 197 199
224 473 259 117 121 180
225 473 259 117 121 179
224 474 259 137 137 190
224 475 258 137 138 189
225 474 258 133 135 191
225 474 259 122 125 183
225 475 258 134 136 188
226 473 259 130 132 182
227 472 259 127 126 179
227 473 258 131 131 182
227 473 259 134 134 183
226 475 257 133 138 190
227 474 257 117 121 178
227 475 257 128 133 187
226 474 258 124 128 184
226 474 259 118 124 178
226 475 258 133 135 189
227 474 258 121 125 180
224 472 260 129 130 181
224 472 261 134 132 182
224 473 260 116 121 178
225 472 260 132 131 182
225 473 260 129 129 183
226 472 260 132 129 182
227 472 260 125 126 181
224 476 257 161 172 200
224 477 257 181 190 210
225 476 257 145 154 192
225 477 256 165 175 203
225 477 257 165 174 204
224 476 258 137 147 187
224 478 256 157 166 192
224 478 257 175 183 201
224 479 256 129 138 182
225 478 256 149 159 195
226 476 257 133 140 189
226 477 256 125 135 186
227 476 256 130 136 188
227 476 257 132 137 190
227 477 256 109 117 179
226 478 256 121 130 186
228 472 259 118 118 176
228 473 258 129 128 181
228 473 259 128 125 179
229 472 259 122 121 174
229 473 258 123 119 176
228 474 257 117 119 180
228 475 256 129 138 188
228 475 257 124 130 185
229 474 257 122 119 183
229 475 256 122 133 184
229 475 257 111 118 179
228 474 258 123 123 180
229 474 258 132 126 185
231 473 257 111 118 169
230 472 258 141 144 181
230 472 259 147 149 185
230 473 258 115 115 171
231 472 258 169 173 195
231 473 258 114 122 166
230 474 257 127 123 184
230 475 256 114 121 178
231 474 256 126 122 182
231 474 257 126 122 183
231 475 256 116 120 177
228 476 256 129 137 186
228 477 256 119 126 182
229 476 256 129 139 187
230 476 256 128 138 186
232 464 263 192 188 197
232 465 263 156 155 185
233 464 263 180 173 192
233 465 262 134 132 179
233 465 263 160 154 190
232 467 261 187 192 206
233 466 261 148 158 181
233 467 261 199 198 206
232 466 262 104 119 170
233 466 262 94 107 160
234 464 263 173 165 188
234 465 262 160 157 193
235 464 262 168 169 181
235 464 263 170 167 180
235 465 262 176 177 197
234 466 261 145 151 177
234 467 260 193 190 199
234 467 261 183 183 196
235 466 261 165 169 189
235 467 260 168 171 190
235 467 261 172 175 193
234 466 262 138 143 182
235 466 262 164 168 192
233 469 259 207 197 197
232 470 259 210 197 194
232 471 258 206 199 199
233 470 258 208 197 195
233 470 259 207 196 195
233 471 258 203 197 200
234 469 259 205 198 201
235 468 259 178 180 195
235 469 259 185 187 199
234 471 257 153 159 184
235 471 257 108 119 170
234 470 258 204 200 204
234 470 259 208 201 203
234 471 258 188 188 198
235 470 258 182 187 204
232 468 260 212 204 206
232 468 261 207 203 207
232 469 260 209 200 200
233 468 260 207 199 201
233 469 260 207 198 198
234 468 260 202 196 200
235 468 260 174 176 192
237 467 259 200 198 205
238 467 259 205 201 205
239 467 259 208 201 203
236 465 261 200 198 205
237 465 261 206 200 203
236 464 262 176 178 188
236 464 263 169 169 178
236 465 262 192 192 201
237 464 262 194 192 198
237 465 262 202 198 203
236 466 261 194 194 203
236 467 260 183 184 198
237 466 260 203 197 201
237 466 261 203 198 203
237 467 260 199 197 204
238 464 261 210 200 200
238 465 261 208 199 200
239 464 261 209 201 201
239 465 261 210 201 202
238 464 262 206 199 201
239 464 262 208 202 204
238 466 260 206 198 201
238 466 261 206 198 200
238 467 260 206 200 203
239 466 260 207 199 201
239 467 260 206 199 201
236 468 259 166 171 192
236 469 258 149 159 186
236 469 259 158 166 189
237 468 259 189 191 205
237 469 258 147 157 189
237 469 259 163 171 195
236 470 257 114 126 175
236 471 257 73 84 161
237 470 257 119 127 186
237 471 256 70 80 163
237 471 257 105 112 179
236 470 258 138 149 188
237 470 258 118 129 181
238 468 259 202 202 211
238 469 258 155 163 194
239 468 258 193 194 206
239 468 259 205 200 204
239 469 258 166 173 200
238 470 257 112 124 184
238 471 256 109 120 181
238 471 257 116 124 185
239 470 257 139 153 189
239 471 256 182 190 208
239 471 257 146 158 193
238 470 258 129 140 190
232 464 264 198 191 195
233 464 264 184 179 188
232 472 257 160 171 193
232 473 257 111 125 175
233 472 257 165 176 197
233 473 256 105 120 179
233 473 257 116 133 182
232 472 258 184 189 203
233 472 258 191 195 205
232 474 256 127 126 182
232 474 257 117 119 181
232 475 256 124 125 178
233 474 256 124 125 181
234 472 257 133 144 185
234 473 256 125 139 192
234 473 257 122 138 189
235 472 256 81 98 166
235 472 257 81 94 165
235 473 256 157 171 205
234 474 256 129 136 188
236 472 256 64 75 151
236 473 256 164 177 200
237 472 256 89 102 160
237 473 256 173 183 203
238 472 256 141 156 187
239 472 256 185 191 205
240 451 271 160 163 189
241 451 271 164 168 190
242 450 271 148 154 182
242 451 271 177 182 201
243 450 271 138 147 191
243 451 270 188 194 210
243 451 271 167 174 203
243 455 267 208 200 202
241 453 269 204 196 197
240 452 270 199 197 205
240 452 271 188 188 203
240 453 270 204 198 203
241 452 270 202 200 205
241 452 271 197 197 206
241 453 270 205 198 201
240 454 269 197 192 197
240 455 268 186 184 197
240 455 269 191 187 193
241 454 268 199 193 197
241 454 269 202 195 198
241 455 268 194 192 200
241 455 269 198 193 197
242 453 269 204 194 194
243 453 269 208 201 205
242 452 270 202 200 206
242 453 270 204 197 198
243 452 270 203 202 211
242 454 268 199 192 194
242 454 269 200 192 194
242 455 268 200 194 197
243 454 268 207 200 204
243 454 269 208 201 205
243 455 268 210 202 204
244 450 271 127 136 191
244 451 270 161 168 198
244 451 271 138 147 190
245 450 271 139 148 193
245 451 270 156 161 197
245 451 271 139 147 188
246 450 271 177 184 210
246 451 270 182 184 206
246 451 271 169 173 203
247 450 271 206 207 216
247 451 270 205 203 212
244 455 267 213 206 209
245 455 267 200 197 204
246 455 267 180 181 196
247 455 267 166 168 194
244 453 269 205 202 209
245 452 269 182 182 204
245 453 269 197 196 207
244 452 270 188 190 207
245 452 270 176 177 204
244 454 268 208 203 209
244 454 269 210 204 209
244 455 268 211 205 208
245 454 268 198 197 205
245 455 268 203 200 206
246 452 269 185 185 203
246 453 269 188 189 204
247 452 269 200 198 209
247 453 269 194 192 207
246 452 270 181 181 203
247 452 270 204 201 210
246 454 268 183 184 199
247 454 268 172 173 191
240 462 263 156 152 187
240 463 262 178 181 195
240 463 263 148 151 179
241 462 263 153 151 184
241 463 262 165 168 191
241 463 263 157 160 184
242 461 263 138 133 182
243 461 263 138 133 187
243 463 261 147 147 192
242 462 263 141 140 181
242 463 262 153 155 190
243 462 262 131 132 182
243 462 263 132 130 182
243 463 262 142 144 187
244 461 263 138 133 191
245 460 263 128 130 183
245 461 263 135 133 192
244 463 261 150 150 196
245 463 261 137 142 192
244 462 262 131 133 184
244 462 263 139 137 192
244 463 262 138 142 187
245 462 262 137 138 190
245 462 263 141 139 194
245 463 262 128 131 183
246 460 263 137 140 189
246 461 263 131 133 190
247 460 263 155 159 195
247 461 262 135 141 190
247 461 263 140 144 194
246 463 261 131 136 192
247 462 261 134 140 192
247 463 261 133 134 192
246 462 262 136 140 193
246 463 262 139 144 195
247 462 262 129 135 189
240 456 267 160 161 188
240 457 267 155 159 185
241 456 267 181 182 194
241 457 266 148 157 177
241 457 267 157 163 183
240 459 265 150 144 180
241 459 265 144 139 177
240 458 266 147 146 187
240 458 267 155 158 188
240 459 266 148 141 181
241 458 266 152 154 189
242 456 267 195 193 199
242 457 266 152 161 176
242 457 267 179 182 192
243 456 267 206 200 205
243 457 266 179 182 193
242 458 265 152 152 191
242 459 265 139 134 178
243 458 265 151 154 193
243 459 264 141 136 184
243 459 265 143 140 187
242 458 266 150 157 185
243 458 266 145 154 179
240 456 268 171 172 194
241 456 268 182 182 199
240 460 264 146 140 181
240 460 265 153 147 181
240 461 264 141 135 182
241 460 264 153 147 185
241 460 265 156 151 183
241 461 264 141 135 180
240 462 264 158 153 192
242 460 264 146 140 182
242 461 264 146 140 186
243 460 264 138 131 181
244 456 266 206 204 211
244 456 267 212 207 211
244 457 266 182 185 199
245 456 266 191 190 203
245 456 267 203 199 207
245 457 266 177 180 198
244 458 265 156 163 190
244 459 264 156 154 194
244 459 265 163 165 200
245 458 265 176 181 201
245 459 264 163 165 196
245 459 265 170 174 200
246 457 265 183 186 205
247 457 265 177 180 195
246 456 266 178 176 201
246 457 266 172 171 198
247 456 266 170 167 199
247 457 266 167 167 191
246 458 264 192 193 206
246 458 265 197 199 211
246 459 264 168 170 194
247 458 264 196 196 206
247 458 265 194 196 204
247 459 264 174 177 193
244 460 264 138 132 183
245 460 264 141 143 185
246 460 264 154 157 193
248 449 271 202 205 215
249 449 271 206 208 216
248 450 270 212 208 212
248 450 271 211 208 214
248 451 270 211 206 211
249 450 270 211 205 209
249 450 271 211 207 211
249 451 270 211 205 208
250 449 271 200 203 215
251 449 271 159 167 202
250 451 269 208 204 209
251 451 269 203 202 211
250 450 270 210 205 210
250 450 271 207 205 212
250 451 270 210 205 210
251 450 270 197 200 212
251 450 271 182 189 208
251 451 270 201 202 212
248 455 266 169 168 196
248 455 267 174 176 200
249 454 267 198 199 209
249 455 266 173 173 195
249 455 267 176 179 198
250 454 267 190 191 204
250 455 266 183 186 200
250 455 267 172 173 195
251 454 267 177 178 198
251 455 266 197 200 212
251 455 267 172 174 197
248 452 269 209 204 210
248 453 268 203 201 210
248 453 269 210 205 211
249 452 269 210 203 206
249 453 268 207 202 207
249 453 269 209 202 205
248 454 268 193 193 206
249 454 268 203 201 211
250 452 269 209 203 207
250 453 268 207 202 207
250 453 269 208 202 206
251 452 269 207 204 212
251 453 268 206 203 212
250 454 268 201 199 207
251 454 268 193 193 207
252 449 271 120 130 187
253 449 271 118 127 188
252 451 269 182 188 204
253 451 269 149 160 187
252 450 270 169 182 203
252 450 271 145 158 193
252 451 270 178 186 204
253 450 270 155 170 197
253 450 271 141 153 194
253 451 270 150 163 188
254 448 271 123 133 197
254 449 270 137 148 192
254 449 271 124 133 191
255 448 271 119 133 194
255 449 270 127 138 186
255 449 271 123 134 192
254 451 269 168 179 202
255 451 269 195 203 220
254 450 270 169 180 209
254 450 271 146 156 197
255 450 270 162 172 204
252 454 267 164 168 199
252 455 266 196 199 213
252 455 267 180 184 207
253 454 267 158 164 198
253 455 266 176 181 206
253 455 267 170 175 204
254 453 267 175 183 207
255 453 267 175 184 206
254 454 267 161 169 201
254 455 266 156 163 197
255 454 267 167 178 201
255 455 266 170 179 203
252 452 269 189 194 209
252 453 268 195 198 212
253 452 269 152 162 188
253 453 268 179 185 206
252 454 268 180 185 206
253 454 268 176 182 207
254 452 268 139 149 178
254 452 269 139 150 180
254 453 268 162 169 194
255 452 268 168 173 201
255 452 269 182 187 211
255 453 268 160 167 196
250 459 263 200 201 209
251 459 263 204 202 209
248 460 263 163 169 198
248 461 262 146 152 196
248 461 263 161 166 205
249 460 263 171 177 198
249 461 262 156 161 202
249 461 263 167 171 205
248 462 261 133 138 189
248 463 261 138 139 192
249 462 261 127 134 185
249 463 261 136 140 192
248 462 262 129 134 188
249 462 262 131 136 187
251 461 261 157 161 195
250 460 263 187 192 207
250 461 262 168 172 202
250 461 263 170 175 204
251 460 262 204 205 213
251 460 263 203 203 211
251 461 262 174 179 200
250 462 261 128 135 186
250 463 260 130 138 190
250 463 261 128 136 189
251 462 261 134 141 189
251 463 260 127 135 188
251 463 261 125 135 187
250 462 262 143 147 192
252 459 263 208 203 209
253 459 263 207 201 206
254 458 263 202 198 204
254 459 263 203 199 204
255 458 263 187 188 199
255 459 263 190 192 202
252 461 261 158 165 196
253 461 261 160 171 195
252 460 262 206 205 212
252 460 263 209 206 211
252 461 262 188 192 207
253 460 262 198 199 209
253 460 263 208 204 210
253 461 262 174 182 201
252 462 261 147 156 197
252 463 260 134 141 194
252 463 261 136 144 194
253 462 261 150 162 197
253 463 260 144 153 200
254 461 261 170 180 199
255 461 261 188 191 202
254 460 262 187 191 204
255 460 262 179 184 199
254 462 261 178 189 209
254 463 260 162 172 205
255 462 261 204 207 217
255 463 260 181 189 208
248 457 265 181 183 194
249 457 265 199 198 205
248 456 266 175 172 198
248 457 266 174 175 193
249 456 266 188 187 202
248 458 265 190 190 199
248 459 264 185 186 197
249 458 264 198 197 205
249 458 265 199 198 206
249 459 264 188 189 199
250 457 265 209 204 209
251 457 265 211 206 210
250 456 266 202 201 209
251 456 266 207 206 214
250 458 264 206 203 210
250 458 265 209 204 210
250 459 264 205 203 211
251 458 264 208 203 208
251 458 265 210 205 209
251 459 264 207 203 210
252 457 265 210 206 211
253 456 265 202 202 212
253 457 264 209 204 210
253 457 265 208 206 212
252 456 266 206 205 214
253 456 266 195 196 211
252 458 264 209 204 209
252 458 265 211 205 209
253 458 264 209 203 208
254 456 265 183 185 204
254 457 264 200 199 207
254 457 265 195 195 208
255 456 265 180 182 204
255 457 264 185 186 202
255 457 265 182 183 204
254 456 266 171 175 203
255 456 266 176 180 204
254 458 264 203 200 205
255 458 264 184 185 198
240 448 273 211 205 207
240 449 272 203 200 208
240 449 273 209 205 210
241 448 273 203 200 207
241 449 272 194 195 208
241 449 273 203 202 210
240 450 272 192 194 207
240 451 272 161 166 190
241 450 272 171 175 196
242 448 273 171 177 200
242 449 272 174 182 203
242 449 273 180 188 205
243 448 273 101 112 168
243 449 272 124 138 183
242 450 272 147 155 187
243 450 272 135 145 190
244 448 273 76 88 150
244 449 272 94 103 173
245 448 273 127 140 178
245 449 272 107 116 179
244 450 272 129 137 196
245 450 272 142 149 201
246 448 272 151 165 197
246 448 273 182 195 215
246 449 272 134 147 190
247 448 272 148 164 198
247 448 273 162 176 209
247 449 272 166 177 202
248 448 272 146 158 198
248 448 273 134 146 194
248 449 272 175 185 207
249 448 272 146 157 199
249 449 272 190 198 214
250 448 272 149 157 200
250 449 272 187 194 215
251 448 272 128 136 191
252 448 272 117 126 190
253 448 272 120 129 195
254 448 272 119 130 196
255 448 272 111 128 190
240 467 259 204 198 201
241 467 259 198 193 198
242 466 259 193 189 195
242 467 259 184 180 192
243 466 259 177 176 188
243 467 258 161 154 191
243 467 259 169 163 189
240 464 261 204 199 203
240 465 260 208 200 202
240 465 261 206 200 203
241 464 261 186 187 200
241 465 260 203 198 202
241 465 261 197 195 202
240 464 262 201 199 205
240 466 260 206 198 200
241 466 260 203 197 201
242 464 261 162 165 189
242 465 260 188 187 197
242 465 261 186 187 198
243 464 261 154 157 190
243 465 260 175 177 193
242 466 260 194 190 196
243 466 260 181 179 189
240 469 257 161 172 196
241 469 257 160 168 190
240 468 258 193 193 201
240 468 259 202 197 202
240 469 258 178 184 201
241 468 258 179 182 196
241 468 259 189 187 195
240 470 257 167 177 199
240 471 256 194 196 207
241 470 256 198 197 204
241 470 257 185 190 203
241 471 256 202 198 203
242 469 257 158 163 185
243 468 257 150 147 184
243 469 257 171 174 192
242 468 258 162 159 188
243 468 258 163 155 195
242 470 256 198 195 200
242 470 257 196 196 205
242 471 256 200 194 197
243 470 256 194 192 200
245 465 259 188 192 209
244 466 259 176 180 192
244 467 258 156 155 186
244 467 259 155 158 182
245 466 259 186 191 205
245 467 258 160 168 185
246 465 259 170 176 198
247 465 259 156 160 193
247 467 257 206 201 203
246 466 259 174 182 201
246 467 258 188 191 202
247 466 258 167 171 198
247 466 259 157 162 195
247 467 258 193 194 205
244 464 260 164 170 199
244 464 261 153 157 194
244 465 260 182 187 201
245 464 260 159 167 198
245 464 261 147 154 195
245 465 260 180 186 204
246 464 260 144 152 191
246 464 261 144 153 194
246 465 260 160 166 196
247 464 260 133 138 184
247 465 260 151 154 191
244 468 257 171 171 191
244 469 256 180 184 196
244 469 257 177 181 195
245 468 257 189 189 198
245 469 256 186 187 198
245 469 257 188 189 199
244 468 258 166 163 192
245 468 258 178 180 192
244 470 256 185 185 195
245 470 256 183 183 194
246 468 257 206 200 204
246 469 256 197 195 204
246 469 257 199 196 204
247 468 257 205 199 202
247 469 256 203 198 204
246 468 258 198 195 201
246 470 256 193 191 200
247 470 256 202 197 202
240 472 256 201 200 208
248 465 259 147 151 192
249 465 259 129 135 184
248 467 257 203 199 205
249 467 257 194 196 206
248 466 258 173 178 202
248 466 259 155 159 195
248 467 258 195 197 208
249 466 258 161 169 196
249 466 259 151 156 195
250 465 259 126 134 187
251 465 259 129 136 193
250 467 257 164 173 192
251 467 257 140 152 188
250 466 258 149 158 195
250 466 259 138 146 193
251 466 258 137 146 196
251 466 259 126 134 193
248 464 260 126 127 182
248 465 260 138 142 188
249 464 260 125 127 186
250 464 260 131 137 191
251 464 260 132 138 191
248 468 257 204 198 201
248 469 256 205 198 202
249 468 257 204 200 206
249 469 256 204 199 203
248 470 256 206 199 203
249 470 256 206 199 203
250 468 256 188 191 203
250 468 257 180 185 198
250 469 256 195 194 204
251 468 256 165 171 195
251 468 257 158 167 192
251 469 256 177 180 199
250 470 256 199 196 203
251 470 256 189 188 201
252 465 259 122 130 192
253 464 259 113 122 187
253 465 258 119 129 196
253 465 259 113 124 190
252 467 257 133 146 195
253 467 257 117 132 191
252 466 258 121 131 193
252 466 259 122 130 194
253 466 258 110 123 190
254 464 259 124 134 194
254 465 258 112 123 193
254 465 259 105 118 187
255 464 259 140 151 198
255 465 258 104 118 189
255 465 259 114 126 190
254 467 257 107 123 187
255 467 257 103 119 190
254 466 258 110 124 191
255 466 258 108 123 192
252 464 260 129 134 191
253 464 260 128 133 193
254 464 260 140 150 197
255 464 260 159 171 203
252 468 256 167 176 204
252 468 257 153 165 200
252 469 256 183 186 207
253 468 256 154 165 201
253 468 257 139 153 197
253 469 256 183 188 210
253 470 256 198 200 211
254 468 257 127 140 194
254 469 256 159 169 202
255 468 257 109 125 193
255 469 256 149 163 201
254 470 256 191 197 211
