ply
format ascii 1.0
comment Version 2, Copyright 2017, 8i Labs, Inc.
comment frame_to_world_scale 0.179523
comment frame_to_world_translation -45.2095 7.18301 -54.3561
comment width 1023
element vertex 183
property float x
property float y
property float z
property uchar red
property uchar green
property uchar blue
end_header
236 512 64 113 116 122
237 512 64 107 113 122
238 512 64 100 109 120
238 513 64 97 106 117
239 512 64 97 106 117
239 512 65 98 106 117
239 513 64 95 104 115
240 512 64 92 101 112
240 512 65 92 102 113
240 513 64 94 103 114
241 512 64 85 97 111
241 512 65 86 98 112
241 513 64 107 115 126
242 512 65 93 105 119
242 513 64 95 107 121
243 512 65 90 106 123
243 513 64 94 108 124
243 512 66 79 100 120
244 512 65 90 106 122
244 513 64 95 110 125
245 512 65 97 109 122
245 513 64 87 102 117
244 512 66 83 102 121
244 514 64 72 96 117
245 514 64 54 84 107
246 512 65 105 114 125
246 513 64 91 104 117
246 513 65 100 110 122
247 512 65 122 129 140
247 513 64 90 107 124
247 513 65 90 107 123
247 512 66 124 130 139
246 514 64 60 84 106
247 514 64 70 93 113
247 514 65 87 104 122
248 512 65 116 124 135
248 513 65 79 95 113
249 513 65 50 73 94
248 512 66 115 122 132
249 512 66 83 96 111
249 513 66 54 71 92
248 514 64 74 94 113
248 514 65 87 103 120
248 515 64 65 88 108
249 514 64 83 97 113
249 514 65 76 92 110
249 515 64 77 93 109
250 513 65 36 64 88
251 513 65 32 56 80
250 512 66 73 90 107
250 513 66 34 62 85
251 512 66 81 95 111
251 513 66 25 55 78
250 514 65 57 78 98
250 515 64 88 99 113
251 514 65 65 81 99
251 515 64 99 106 117
252 513 65 37 61 81
253 513 65 41 62 81
252 512 66 63 79 95
252 512 67 97 108 120
252 513 66 29 53 75
253 512 66 61 74 91
253 512 67 90 103 115
253 513 66 36 58 78
252 514 65 70 84 99
252 515 64 102 108 116
252 515 65 101 108 118
253 514 65 75 89 104
253 515 64 102 109 118
254 512 66 56 73 93
254 512 67 83 98 113
254 513 66 51 72 91
255 512 66 59 71 92
255 512 67 70 82 99
255 513 66 79 93 109
254 514 65 81 93 108
254 515 64 92 100 110
254 515 65 88 99 110
255 514 65 82 97 113
255 515 65 66 86 104
252 516 64 101 105 112
253 516 64 100 106 114
254 516 64 76 88 100
254 517 64 71 90 107
255 516 64 51 78 99
255 516 65 52 79 100
255 517 64 35 74 100
247 541 64 180 184 197
247 542 64 179 181 194
247 543 64 174 175 186
252 535 64 139 162 193
253 534 64 140 163 196
253 535 64 138 161 193
254 533 64 147 166 207
255 532 64 142 164 191
255 533 64 146 166 194
254 534 64 142 164 196
254 535 64 136 160 190
255 534 64 139 161 191
255 534 65 139 157 183
255 535 64 136 157 185
255 535 65 153 164 187
249 539 64 162 170 187
251 536 64 157 180 211
251 537 64 155 170 194
250 538 64 172 177 193
250 539 64 168 174 189
251 538 64 153 166 188
251 539 64 162 169 184
248 540 64 170 176 190
248 541 64 190 190 199
249 540 64 178 181 193
249 541 64 204 199 205
249 541 65 190 189 196
248 542 64 191 189 197
248 542 65 193 190 196
248 543 64 184 181 188
248 543 65 193 189 194
249 542 65 197 192 198
249 543 65 200 195 198
250 540 64 187 186 193
250 540 65 196 191 194
250 541 65 194 189 194
251 540 64 191 188 195
251 540 65 187 185 193
251 541 65 180 179 187
250 542 65 197 192 197
250 543 65 203 197 201
251 542 65 189 185 190
250 543 66 204 197 200
251 542 66 196 190 194
251 543 66 200 192 194
251 543 67 200 190 189
252 536 64 148 171 201
252 537 64 154 169 194
253 536 64 144 163 191
253 537 64 155 168 192
253 537 65 162 171 191
252 538 64 152 165 186
252 539 64 158 166 183
252 539 65 167 172 188
253 538 65 167 173 190
253 539 65 177 180 194
253 539 66 189 188 200
254 536 64 152 166 192
254 536 65 158 169 191
254 537 65 171 175 194
255 536 65 172 176 192
255 537 65 182 182 194
255 536 66 182 182 194
255 537 66 188 186 193
254 538 65 181 183 196
254 538 66 205 200 206
254 539 66 194 191 198
255 538 66 190 187 193
255 539 66 193 189 193
255 539 67 183 182 189
252 540 65 175 177 189
252 541 65 175 175 183
253 540 65 175 176 189
252 541 66 176 175 182
253 540 66 183 182 193
253 541 66 176 175 182
252 542 66 186 181 186
252 542 67 190 183 184
252 543 66 193 187 189
252 543 67 193 184 184
253 542 66 179 174 179
253 542 67 184 179 182
253 543 67 177 171 173
254 540 66 186 183 192
254 541 66 186 183 189
254 541 67 184 182 189
255 540 66 186 184 191
255 540 67 190 186 190
255 541 67 199 192 194
254 542 67 181 176 180
254 543 67 163 159 162
255 542 67 188 180 181
254 543 68 162 157 159
255 542 68 182 173 173
255 543 68 170 162 162
