ply
format ascii 1.0
comment Version 2, Copyright 2017, 8i Labs, Inc.
comment frame_to_world_scale 0.179523
comment frame_to_world_translation -45.2095 7.18301 -54.3561
comment width 1023
element vertex 1116
property float x
property float y
property float z
property uchar red
property uchar green
property uchar blue
end_header
230 608 71 175 183 210
224 608 73 132 153 193
224 609 73 130 152 191
225 608 73 160 175 207
225 609 73 160 177 208
224 610 73 126 151 192
225 610 73 159 175 207
224 610 74 154 175 221
224 611 74 118 143 202
225 611 74 125 147 203
226 608 72 72 103 184
226 608 73 95 124 195
226 609 73 92 121 189
227 608 72 164 169 200
227 609 72 186 188 212
227 609 73 137 147 187
226 610 73 92 119 185
226 611 73 117 136 198
227 610 73 165 173 206
227 611 73 137 152 202
226 611 74 76 104 182
227 611 74 101 126 200
224 612 74 97 122 192
224 612 75 88 109 189
224 613 75 103 117 192
225 612 74 85 117 194
225 612 75 83 110 192
225 613 75 108 127 194
224 614 75 113 123 193
225 614 75 133 144 193
226 612 74 79 107 192
226 613 75 104 123 193
227 612 74 81 106 195
227 612 75 94 108 197
227 613 75 112 129 200
226 614 75 123 137 190
227 614 75 154 169 216
224 614 76 116 127 195
224 615 76 102 120 199
225 614 76 139 146 194
225 615 76 154 164 211
226 614 76 137 150 199
226 615 76 138 153 203
227 614 76 167 179 220
227 615 76 144 160 206
228 608 72 137 155 201
228 609 72 152 169 205
229 608 72 77 112 191
229 609 72 85 123 192
228 610 72 194 199 219
228 610 73 132 160 205
228 611 73 106 138 198
229 610 72 89 121 197
229 610 73 71 108 192
229 611 73 78 109 194
228 611 74 78 112 199
229 611 74 63 98 197
230 608 72 170 180 208
230 609 72 165 177 204
231 608 72 134 161 202
231 609 72 139 162 205
231 609 73 126 157 214
230 610 72 162 176 203
230 610 73 138 160 204
230 611 73 108 140 201
231 610 73 125 150 199
231 611 73 108 138 195
230 611 74 80 115 200
231 611 74 97 127 198
228 612 74 85 107 197
228 613 75 108 126 206
229 612 74 89 116 196
229 613 75 116 136 192
228 614 75 131 146 188
229 614 75 120 139 185
230 612 74 93 124 196
230 612 75 97 124 198
230 613 75 124 144 190
231 612 74 95 125 197
231 612 75 101 130 196
231 613 75 123 144 194
228 614 76 141 156 193
228 615 76 151 167 203
229 614 76 127 148 187
229 615 76 133 151 191
229 615 77 151 165 197
230 613 76 138 153 192
231 613 76 137 156 195
230 614 76 136 154 186
230 614 77 141 160 191
230 615 77 152 169 194
231 614 76 134 152 189
231 614 77 126 150 187
231 615 77 140 160 189
231 615 78 131 153 183
224 616 76 90 116 198
224 616 77 91 120 198
224 617 76 115 133 201
224 617 77 129 146 199
225 616 77 102 131 194
225 617 77 149 164 205
224 618 77 133 151 198
224 619 77 134 151 194
225 618 77 172 182 209
224 619 78 140 161 204
225 618 78 158 173 207
225 619 78 157 172 202
226 616 77 76 109 193
226 617 77 81 110 198
227 616 77 100 125 200
227 617 77 119 139 202
226 617 78 95 117 201
227 618 77 161 169 203
226 618 78 80 109 201
226 619 78 133 148 182
227 618 78 157 168 199
227 619 78 140 155 185
227 619 79 137 154 183
224 620 78 142 154 196
224 621 78 166 172 195
224 621 79 145 155 193
225 620 78 155 167 194
225 621 79 147 157 197
224 622 79 130 146 192
224 623 79 136 152 180
225 622 79 172 178 205
226 620 78 149 159 186
226 620 79 153 164 190
226 621 79 160 171 198
227 620 79 153 166 189
227 621 79 168 178 195
226 622 79 176 178 206
228 616 77 172 182 206
228 617 77 176 187 210
229 616 77 160 173 197
228 617 78 162 178 203
229 617 78 154 172 197
229 617 79 150 170 196
228 618 78 165 178 202
228 618 79 143 161 188
228 619 79 137 154 184
229 618 79 147 165 192
229 619 79 141 158 187
230 616 77 155 170 191
230 616 78 152 169 192
230 617 78 153 172 195
230 617 79 146 167 192
231 616 78 142 163 190
231 616 79 141 164 192
231 617 79 138 162 189
230 618 79 148 167 192
228 620 79 141 156 185
232 608 72 111 144 200
232 609 72 138 164 208
232 609 73 118 147 204
233 608 72 157 171 209
233 608 73 132 151 204
233 609 73 124 146 201
232 610 73 117 141 202
233 610 73 123 146 204
232 611 74 107 138 200
232 611 75 111 143 201
233 610 74 105 138 196
233 611 74 113 147 200
233 611 75 110 145 195
234 608 73 83 119 195
234 609 73 84 115 196
235 608 73 73 111 192
234 609 74 59 102 189
235 608 74 52 97 185
235 609 74 37 87 184
235 609 75 39 90 176
234 610 74 74 118 187
234 610 75 78 124 182
234 611 75 97 136 186
235 610 75 59 107 175
233 611 76 116 147 190
234 611 76 106 139 184
235 610 76 83 117 176
235 611 76 102 135 180
235 611 77 115 147 184
232 612 75 121 148 195
232 612 76 131 156 195
232 613 76 140 162 197
232 613 77 135 158 191
233 612 76 129 155 193
233 612 77 133 160 192
233 613 76 142 165 195
233 613 77 134 159 191
232 614 77 120 149 182
232 614 78 108 139 171
232 615 78 124 150 179
232 615 79 138 160 188
233 614 78 110 138 172
233 614 79 119 143 177
233 615 79 139 160 190
234 612 77 127 156 191
234 613 77 128 154 189
235 612 77 118 150 185
234 612 78 125 153 187
234 613 78 120 146 180
235 612 78 114 144 178
235 612 79 122 146 175
235 613 78 122 147 178
235 613 79 127 149 176
234 614 78 113 139 171
234 614 79 125 147 178
235 614 79 125 147 175
236 608 74 73 115 181
236 608 75 40 90 172
236 609 75 51 91 171
237 608 75 96 130 181
236 609 76 80 110 174
237 608 76 101 132 180
237 609 76 96 123 175
237 609 77 95 123 173
237 609 78 95 127 171
236 610 76 87 119 175
236 610 77 98 133 175
236 611 77 109 143 179
237 610 77 91 128 171
236 610 78 101 138 173
236 611 78 105 139 174
237 610 78 114 145 177
237 610 79 144 163 189
237 611 79 129 152 180
238 608 76 116 148 184
238 608 77 105 139 175
238 609 77 98 129 172
238 608 78 83 122 161
238 609 78 100 131 168
238 609 79 128 151 179
239 608 78 99 131 167
239 608 79 111 139 171
238 610 79 145 164 190
236 612 78 109 138 172
236 612 79 123 146 174
232 616 79 143 164 193
224 623 80 109 133 189
225 622 80 162 172 199
225 623 80 124 141 184
227 621 80 167 177 194
226 622 80 155 164 191
226 623 80 127 140 181
226 623 81 78 76 183
227 622 80 159 171 192
227 623 80 143 156 189
227 623 81 140 157 188
229 619 80 145 162 189
231 617 80 127 151 179
230 618 80 144 163 189
230 619 80 143 161 186
231 618 80 137 158 184
231 619 80 149 166 189
231 619 81 156 169 191
228 620 80 150 163 187
228 621 80 152 166 186
229 620 80 144 161 185
229 621 80 147 163 184
229 621 81 146 162 184
228 622 80 151 167 188
228 622 81 152 170 195
228 623 81 151 171 197
229 622 81 144 165 190
229 623 81 150 172 198
228 623 82 145 166 193
229 622 82 148 170 196
229 623 82 149 168 193
230 620 80 140 158 183
230 620 81 142 159 183
230 621 81 137 156 180
231 620 81 148 162 184
231 621 81 137 153 177
230 621 82 132 152 178
231 620 82 146 159 180
231 621 82 130 149 173
230 622 82 144 164 190
230 623 82 153 169 191
230 623 83 154 167 189
231 622 82 136 155 181
231 622 83 145 162 185
231 623 83 152 165 185
233 615 80 158 176 203
235 613 80 126 149 176
234 614 80 138 160 188
234 615 80 153 171 196
235 614 80 127 152 180
235 614 81 144 161 185
235 615 80 147 165 190
235 615 81 151 165 187
235 615 82 153 163 183
237 611 80 143 161 185
238 609 80 131 155 182
239 608 80 108 138 168
239 608 81 108 139 169
239 609 80 118 145 174
239 609 81 124 150 179
239 608 82 128 151 179
239 609 82 129 150 176
239 609 83 139 154 177
238 610 80 146 164 187
238 610 81 130 154 182
238 611 80 144 162 186
238 611 81 125 152 181
239 610 81 125 151 178
238 610 82 115 145 175
238 611 82 119 145 173
238 611 83 156 161 175
239 610 82 125 147 173
239 610 83 151 160 177
239 611 83 149 156 171
239 610 84 171 171 181
239 611 84 168 168 178
239 611 85 176 174 181
239 611 86 156 166 193
236 612 80 133 154 180
236 613 80 125 149 178
236 613 81 130 155 185
237 612 80 137 158 184
237 612 81 130 156 186
237 613 81 134 158 187
237 612 82 129 153 182
237 613 82 133 153 180
237 613 83 132 149 174
236 614 80 122 149 179
236 614 81 134 156 184
236 614 82 141 158 183
236 615 82 152 164 184
236 615 83 163 170 185
237 614 82 138 155 180
237 614 83 147 158 179
237 615 83 162 169 184
238 612 81 122 150 181
238 612 82 121 145 173
238 612 83 131 144 165
238 613 83 129 144 167
237 614 84 159 166 182
237 615 84 173 176 189
237 615 85 180 179 188
238 612 84 142 151 168
238 613 84 138 149 169
238 613 85 159 163 178
239 612 84 153 158 172
239 612 85 165 168 181
239 613 85 166 169 183
239 612 86 159 167 193
239 612 87 170 175 194
239 613 86 162 170 191
239 613 87 172 176 196
238 614 84 157 164 181
238 614 85 172 174 186
238 615 85 181 179 189
238 614 86 160 169 190
238 615 86 155 164 189
238 615 87 161 168 192
239 614 86 165 171 191
239 614 87 174 176 194
239 615 86 159 167 190
239 615 87 168 173 193
239 614 88 186 187 204
239 615 88 181 182 201
239 615 89 178 179 194
232 616 80 147 167 193
232 617 80 131 153 181
232 617 81 126 147 175
233 616 80 151 169 194
233 617 80 136 156 181
233 617 81 135 153 178
232 618 80 134 155 182
232 618 81 143 161 187
232 619 81 162 173 192
233 618 81 147 162 186
232 619 82 169 177 194
233 618 82 162 173 196
233 619 82 180 183 198
233 619 83 187 185 194
234 616 80 152 168 191
234 616 81 149 162 185
234 617 81 144 156 179
235 616 81 148 160 181
234 617 82 150 161 181
235 616 82 151 161 181
235 616 83 157 166 186
235 617 82 150 161 180
235 617 83 163 169 184
234 618 82 160 169 188
234 618 83 177 179 191
234 619 83 187 186 196
235 618 83 171 174 188
234 619 84 190 187 197
235 618 84 179 180 191
235 619 84 190 187 196
235 619 85 186 184 195
232 620 82 159 168 185
232 621 82 143 156 176
232 621 83 132 148 170
233 620 83 174 176 188
233 621 83 151 157 176
232 622 83 143 157 178
232 623 83 153 165 189
234 620 83 187 184 192
233 621 84 158 165 187
232 622 84 155 166 190
232 623 84 160 169 191
233 622 84 156 164 186
233 623 84 159 166 187
233 623 85 170 173 188
234 620 84 192 186 192
234 620 85 195 188 194
234 621 84 166 169 189
234 621 85 175 175 192
235 620 85 189 185 194
235 621 85 183 181 195
235 620 86 182 181 194
235 621 86 182 180 194
234 622 85 173 174 191
234 623 85 175 175 190
234 622 86 177 177 192
234 623 86 180 178 192
235 622 86 181 179 193
235 622 87 196 189 199
235 623 86 181 179 193
235 623 87 197 191 202
236 616 83 167 173 189
236 617 83 170 173 187
236 616 84 166 169 182
236 617 84 168 169 183
236 617 85 161 161 174
237 616 84 169 170 182
237 616 85 168 167 177
237 617 85 159 158 169
237 616 86 156 165 188
237 617 86 160 167 188
236 618 84 174 175 186
236 618 85 173 172 185
236 619 85 171 175 191
236 618 86 172 175 193
236 619 86 176 178 193
236 619 87 178 178 194
237 618 86 168 173 191
237 618 87 169 172 190
237 619 87 173 175 192
238 616 86 157 164 183
238 616 87 166 169 189
238 617 87 167 170 189
238 618 87 170 171 186
236 620 86 180 180 194
236 620 87 180 178 192
236 621 87 184 181 193
236 622 87 192 187 196
236 623 87 192 188 199
237 618 88 191 185 202
237 619 88 194 188 199
238 616 88 172 173 193
238 617 88 170 170 186
238 617 89 165 164 188
239 616 88 174 175 195
239 616 89 167 167 185
239 617 89 161 162 183
239 616 90 173 173 194
239 617 90 170 169 196
238 618 88 185 181 194
238 618 89 180 178 194
238 619 89 190 186 197
238 619 90 185 182 198
239 618 90 177 176 196
239 618 91 179 177 201
239 619 90 181 180 199
239 619 91 177 178 196
236 621 88 194 190 200
237 620 88 195 190 201
237 620 89 194 188 200
237 621 88 194 189 200
237 621 89 191 187 198
236 622 88 193 188 198
236 623 88 184 182 196
237 622 88 192 188 198
237 622 89 187 184 195
237 623 89 169 171 187
238 620 89 191 185 199
238 621 89 190 185 197
238 620 90 180 177 197
238 621 90 176 174 190
239 620 90 164 166 191
239 620 91 157 161 185
239 621 91 162 163 186
238 622 90 184 182 192
238 623 90 174 177 190
239 622 90 189 186 193
239 622 91 187 183 192
239 623 90 186 185 192
239 623 91 187 186 193
239 622 92 183 180 193
239 623 92 184 184 192
224 624 80 106 125 166
224 625 80 106 123 169
225 624 80 96 114 173
225 624 81 77 97 186
225 625 80 76 100 185
225 625 81 118 138 180
224 626 80 121 139 174
224 626 81 130 145 169
224 627 80 101 124 155
224 627 81 102 123 155
225 626 81 138 153 174
225 627 81 109 130 167
226 624 80 107 126 171
226 624 81 109 130 181
226 625 81 125 145 173
227 624 81 131 152 180
227 625 81 126 146 170
227 625 82 119 142 166
226 626 81 151 166 186
226 627 81 128 149 186
227 626 81 131 149 170
226 627 82 136 152 180
227 626 82 129 147 174
227 627 82 136 151 180
224 628 81 108 123 173
224 629 81 120 132 178
225 628 81 127 145 175
225 629 81 130 145 175
225 629 82 126 139 174
224 630 81 142 146 176
224 631 81 151 153 177
225 630 81 135 142 176
224 631 82 162 163 181
225 630 82 138 145 177
225 631 82 165 165 183
226 628 82 154 165 187
226 629 82 145 155 180
227 628 82 150 162 185
227 629 82 147 158 186
227 629 83 147 160 188
226 630 82 152 156 182
226 631 82 159 160 180
226 631 83 160 161 182
227 630 83 148 158 185
227 631 83 159 163 184
228 624 81 133 155 183
228 624 82 123 147 175
228 625 82 111 136 167
229 624 82 133 154 181
229 625 82 114 139 171
229 625 83 122 145 176
228 626 82 121 143 172
228 627 82 136 152 181
228 627 83 133 149 179
229 626 82 115 138 172
229 626 83 124 145 175
229 627 83 130 148 177
230 624 82 145 162 185
230 624 83 140 158 183
230 625 83 140 157 185
231 624 83 139 157 185
230 626 83 138 157 186
230 627 83 134 152 182
231 624 84 146 159 185
231 625 84 140 155 185
230 626 84 140 160 188
230 627 84 138 156 187
231 626 84 142 160 188
231 627 84 142 160 190
231 627 85 141 160 190
228 628 82 145 159 186
228 628 83 141 158 183
228 629 83 149 164 188
229 628 83 132 152 181
229 629 83 137 157 184
228 630 83 150 161 187
228 631 83 163 168 188
229 630 83 147 160 185
229 631 83 155 166 188
229 628 84 130 152 182
229 629 84 137 157 185
229 630 84 145 159 184
229 631 84 158 167 189
230 628 84 134 155 185
230 629 84 132 156 184
231 628 84 134 153 186
231 628 85 131 153 186
231 629 85 127 152 181
230 630 84 140 158 185
230 630 85 134 153 181
230 631 84 147 161 186
230 631 85 133 152 179
231 630 85 132 152 181
231 631 85 123 144 175
224 632 82 175 171 182
224 633 82 178 172 180
225 632 82 176 173 184
225 633 82 178 174 183
225 633 83 182 176 184
224 634 82 180 175 182
224 634 83 178 171 178
224 635 82 180 175 180
224 635 83 178 171 179
225 634 83 176 171 179
225 635 83 177 171 177
226 632 82 169 168 182
226 632 83 171 169 182
226 633 83 180 175 180
227 632 83 174 172 185
227 633 83 175 172 183
226 634 83 179 174 180
226 635 83 179 174 181
227 634 83 182 177 185
226 635 84 177 174 183
227 634 84 180 177 186
227 635 84 179 174 181
224 636 83 177 172 179
224 637 82 173 171 179
224 637 83 174 173 180
225 636 83 178 174 179
225 637 83 175 174 181
224 638 82 166 166 176
224 639 82 153 156 175
225 638 83 161 163 174
225 639 82 138 146 170
225 639 83 152 155 172
226 636 83 176 173 181
226 637 83 171 172 183
226 638 83 160 164 179
226 639 83 142 150 175
227 639 83 142 151 176
226 636 84 174 173 183
226 637 84 167 168 180
227 636 84 174 174 182
227 637 84 163 166 181
227 638 84 154 159 177
227 639 84 141 150 177
228 632 83 167 169 186
228 632 84 169 171 190
228 633 84 167 168 186
229 632 84 161 166 188
229 633 84 152 157 180
228 634 84 172 169 183
228 635 84 172 170 183
229 634 84 163 164 181
229 635 84 165 166 182
230 632 84 155 165 188
230 632 85 149 162 184
230 633 84 163 167 188
230 633 85 162 169 187
231 632 85 133 153 178
231 633 85 152 164 182
231 633 86 167 173 185
230 634 84 161 164 183
230 634 85 160 165 184
230 635 85 157 162 181
231 634 85 155 162 179
231 635 85 157 161 180
231 634 86 168 171 186
231 635 86 159 161 180
228 636 84 165 167 180
228 637 84 154 160 176
229 636 84 160 163 180
229 636 85 162 166 183
229 637 84 157 162 180
229 637 85 157 163 182
228 638 84 144 153 178
228 639 84 135 147 178
229 638 84 150 157 179
229 638 85 150 158 179
229 639 84 133 146 176
229 639 85 128 142 174
230 636 85 152 159 177
230 637 85 151 157 178
231 636 86 154 162 178
231 637 86 123 139 168
230 638 85 133 144 171
230 639 85 122 135 171
230 638 86 135 145 176
230 639 86 113 128 166
231 638 86 110 127 170
231 639 86 106 124 165
232 624 84 159 168 190
232 625 84 144 157 185
232 625 85 156 164 187
233 624 85 166 171 188
233 625 85 159 165 187
233 625 86 163 166 185
232 626 84 140 156 182
232 626 85 144 159 185
232 627 85 140 157 186
233 626 85 149 160 183
233 627 85 140 155 181
233 626 86 150 159 182
233 627 86 143 156 179
234 624 86 181 179 191
234 625 86 180 179 192
235 624 86 186 183 194
235 624 87 192 189 201
235 625 87 188 187 199
234 626 86 164 169 194
234 626 87 167 173 196
234 627 87 145 158 189
235 626 87 156 165 187
235 627 87 132 147 179
232 628 85 127 148 182
232 629 85 132 155 184
232 628 86 124 146 181
232 629 86 134 156 186
233 628 86 135 152 181
233 628 87 121 146 176
233 629 86 137 157 188
233 629 87 96 135 170
232 630 86 133 153 184
232 631 86 114 138 174
233 630 86 134 158 188
233 630 87 129 154 185
233 631 87 124 147 183
234 628 87 134 155 182
234 629 87 123 148 179
234 630 87 131 154 185
235 625 88 180 181 195
235 626 88 157 165 184
235 627 88 134 150 180
234 629 88 138 158 186
235 628 88 141 158 186
235 629 88 138 159 185
235 629 89 138 159 186
234 630 88 143 161 189
234 631 88 125 149 183
235 630 88 140 159 188
235 630 89 115 145 179
235 631 88 121 147 181
235 631 89 115 144 181
236 624 88 178 179 194
236 625 88 179 180 196
236 625 89 175 177 194
237 624 89 149 159 178
237 625 89 165 171 187
237 624 90 152 162 179
237 625 90 169 175 189
236 626 88 164 170 187
236 626 89 172 176 193
236 627 88 144 156 183
236 627 89 153 164 190
237 626 89 175 180 197
237 627 89 162 171 192
237 626 90 170 177 195
237 627 90 151 166 189
238 624 90 162 170 185
238 624 91 182 183 197
238 625 90 174 179 193
238 625 91 175 178 193
239 624 91 184 184 198
238 626 91 152 163 187
238 627 91 134 153 179
238 625 92 163 168 187
239 624 92 182 180 192
239 625 92 172 173 188
239 625 93 165 168 184
238 626 92 142 154 178
238 627 92 123 144 171
239 626 92 138 150 174
239 626 93 151 157 175
239 627 92 126 145 171
239 627 93 146 156 176
236 628 89 142 157 189
236 629 89 136 158 185
236 628 90 140 158 191
236 629 90 135 158 186
237 628 90 135 156 188
237 628 91 128 151 186
237 629 90 136 159 187
237 629 91 134 157 186
236 630 89 115 146 179
236 630 90 108 142 177
236 631 90 109 142 180
237 630 90 124 152 181
237 630 91 128 154 182
237 631 90 117 147 183
237 631 91 126 152 184
238 628 91 124 147 177
238 629 91 127 149 185
238 630 91 125 151 180
238 631 91 137 158 182
238 628 92 116 141 171
238 629 92 120 143 182
239 628 92 126 147 173
239 628 93 143 157 179
239 629 92 120 142 178
239 629 93 127 147 180
238 630 92 122 147 179
238 631 92 142 162 185
239 630 92 122 147 181
239 630 93 118 144 180
239 631 93 136 158 183
232 632 86 123 146 177
232 633 86 146 159 178
233 632 87 88 121 167
233 633 87 95 126 165
232 634 86 165 168 181
232 634 87 168 169 188
232 635 86 163 164 185
232 635 87 144 152 180
233 634 87 142 155 178
233 635 87 132 144 176
232 636 86 135 147 170
232 636 87 115 132 163
232 637 86 108 128 164
232 637 87 106 126 168
233 636 87 108 125 163
233 637 87 105 123 168
232 638 87 97 119 166
232 639 87 87 109 160
233 638 87 96 117 165
233 639 87 89 110 161
233 634 88 124 145 178
234 632 88 78 117 164
234 633 88 86 123 165
235 632 88 103 135 174
235 632 89 104 135 175
235 633 89 101 134 174
234 634 88 126 148 182
234 634 89 124 147 179
234 635 88 113 132 170
234 635 89 127 145 178
235 634 89 122 148 182
235 635 89 124 144 174
233 636 88 111 124 170
233 639 88 97 118 162
234 636 88 118 129 174
234 636 89 111 127 165
234 637 88 116 131 171
234 637 89 90 113 154
235 636 89 83 110 148
235 637 89 51 88 135
235 636 90 89 111 149
235 637 90 94 114 154
234 638 88 106 128 162
234 638 89 73 107 146
234 639 88 98 122 160
234 639 89 95 122 157
235 638 89 67 93 138
235 639 89 91 116 153
235 638 90 68 95 141
235 639 90 90 115 153
236 632 89 115 143 178
236 633 89 103 135 174
236 632 90 121 147 180
236 633 90 98 133 174
237 632 91 130 154 182
237 633 91 101 133 174
236 634 90 109 142 180
236 635 90 117 142 172
236 635 91 122 146 175
237 634 91 99 136 179
237 635 90 110 141 175
237 635 91 91 129 167
238 632 91 137 159 185
237 633 92 124 149 185
237 634 92 106 139 179
238 632 92 139 161 187
238 633 92 130 154 188
239 632 93 124 151 179
239 633 93 120 149 183
238 634 92 89 129 172
238 634 93 100 137 177
238 635 92 79 119 166
238 635 93 74 119 166
239 634 93 82 127 171
239 635 92 89 128 173
239 635 93 94 133 177
236 636 90 134 147 175
236 637 90 115 131 167
237 636 91 133 149 177
237 637 91 75 107 147
236 638 90 54 82 136
236 639 90 80 107 150
237 638 91 35 68 128
237 639 91 91 119 158
238 636 91 108 131 169
238 637 91 49 91 137
238 638 91 83 115 154
238 639 91 124 144 176
238 636 92 107 133 175
238 637 92 97 127 169
239 636 92 114 141 184
239 636 93 105 137 180
239 637 92 111 139 182
239 637 93 107 138 182
238 638 92 107 136 175
238 639 92 117 142 177
239 638 92 109 139 179
239 638 93 105 136 179
239 639 92 113 141 178
239 639 93 110 139 178
240 608 82 124 148 175
240 608 83 129 147 170
240 609 83 140 152 171
240 608 84 158 165 179
240 608 85 175 178 190
240 609 84 165 168 181
240 609 85 176 176 186
241 608 84 159 165 181
241 608 85 169 172 184
240 609 86 160 169 196
241 608 86 161 169 191
241 608 87 170 174 194
241 609 86 163 170 195
241 609 87 169 174 195
240 610 84 178 176 186
240 610 85 181 178 186
240 610 86 158 168 192
240 610 87 166 172 194
240 611 86 158 167 192
240 611 87 171 176 197
241 610 87 168 173 194
242 608 87 171 175 192
240 612 87 173 177 194
241 609 88 173 175 193
240 610 88 173 176 192
240 611 88 174 176 195
241 610 88 180 182 200
241 610 89 193 196 214
241 611 88 185 187 206
241 611 89 186 189 207
241 611 90 188 193 215
242 608 88 177 178 192
242 608 89 194 195 212
242 609 88 195 194 211
242 609 89 201 200 216
243 608 89 175 178 190
242 609 90 195 195 210
243 608 90 182 182 201
243 608 91 190 188 208
243 609 90 191 190 207
243 609 91 193 191 210
242 610 89 197 197 214
242 610 90 192 194 210
242 610 91 192 193 212
242 611 90 188 193 214
242 611 91 179 183 208
243 610 91 193 191 209
243 609 92 193 190 209
242 611 92 178 179 202
243 610 92 192 189 207
243 610 93 194 188 205
243 611 92 190 187 206
243 611 93 193 188 205
240 612 88 171 173 194
240 612 89 177 179 198
240 613 88 178 179 197
240 613 89 187 186 208
241 612 89 187 187 212
240 613 90 191 188 212
241 612 90 186 189 212
241 612 91 170 178 201
241 613 90 186 185 210
241 613 91 181 182 204
240 614 88 191 190 210
240 614 89 192 191 210
240 615 89 187 187 204
240 614 90 192 190 208
240 615 90 189 187 205
240 615 91 190 187 205
241 614 90 193 190 211
241 614 91 191 190 204
241 615 91 188 185 202
242 612 91 163 171 196
241 613 92 185 186 206
241 614 92 186 186 203
241 615 92 181 181 197
242 612 92 171 174 202
242 613 92 180 182 206
242 613 93 186 185 207
243 612 92 187 185 206
243 612 93 184 181 201
243 613 93 186 183 203
243 613 94 175 174 192
242 614 92 187 187 206
242 614 93 185 184 202
242 615 93 179 180 195
243 614 93 183 182 199
243 614 94 179 176 191
243 615 94 183 180 193
244 608 91 194 191 211
244 608 92 193 191 211
244 608 93 186 185 206
244 609 92 193 190 210
244 609 93 187 185 206
245 608 93 180 180 201
245 608 94 188 185 203
245 609 94 186 184 202
244 610 93 189 185 205
244 611 93 187 182 199
244 610 94 184 181 201
244 611 94 179 176 194
245 610 94 187 183 202
245 610 95 190 187 202
245 611 94 181 179 196
245 611 95 187 184 199
246 608 93 185 183 204
246 608 94 195 189 207
246 608 95 193 188 202
246 609 95 192 188 202
247 608 95 185 181 198
246 610 95 192 189 202
244 612 94 166 167 183
244 613 94 171 170 187
244 613 95 177 175 190
245 612 95 182 180 196
245 613 95 182 180 196
244 614 95 178 176 190
244 615 95 178 175 190
245 614 95 180 177 192
245 615 95 179 176 191
240 616 90 183 181 200
240 616 91 182 179 198
240 617 90 179 178 203
240 617 91 172 171 197
240 618 91 169 169 194
240 619 91 179 180 194
240 617 92 153 155 180
241 616 92 165 165 183
241 616 93 162 164 179
241 617 92 144 148 169
241 617 93 152 154 171
240 618 92 170 170 192
240 619 92 182 182 194
241 618 92 164 164 185
241 618 93 173 170 188
241 619 93 185 182 195
241 619 94 184 180 195
242 616 93 176 177 191
242 617 93 177 176 188
242 617 94 184 183 195
243 616 94 182 181 195
243 616 95 179 178 194
243 617 94 184 183 196
243 617 95 177 178 194
242 618 94 185 182 194
242 619 94 181 179 193
243 618 95 181 180 194
243 619 95 172 171 185
240 620 91 167 169 188
240 620 92 177 179 192
240 620 93 185 185 194
240 621 92 170 171 193
240 621 93 182 180 196
241 620 93 185 184 192
241 621 93 182 180 194
241 620 94 181 180 192
241 621 94 177 177 190
240 622 92 182 178 196
240 622 93 179 176 193
240 623 93 171 172 186
241 622 94 171 171 184
241 623 94 154 158 174
241 623 95 157 161 171
242 620 94 170 172 186
242 620 95 148 156 171
242 621 94 168 171 186
242 621 95 157 162 177
243 620 95 156 159 173
243 621 95 155 160 174
242 622 94 172 173 186
242 622 95 171 171 182
242 623 95 162 165 176
244 616 95 173 172 188
244 617 95 171 173 192
240 624 93 171 173 186
240 625 93 167 168 184
240 624 94 164 167 183
240 625 94 167 169 181
241 624 94 149 156 173
241 624 95 151 158 178
241 625 95 163 168 182
240 626 93 162 164 178
240 627 93 157 162 177
240 626 94 170 169 180
240 627 94 167 168 179
241 626 95 170 172 183
241 627 95 169 170 182
242 624 95 161 165 179
242 625 95 167 168 183
242 626 95 163 164 182
240 628 93 156 162 178
240 629 93 132 150 181
240 628 94 163 167 181
240 629 94 144 158 183
241 628 95 162 168 183
241 629 95 141 155 177
240 630 93 112 142 180
240 631 93 127 153 182
240 630 94 119 145 183
240 631 94 120 147 180
241 630 95 117 141 179
241 631 95 109 138 176
240 632 94 95 134 169
240 633 94 109 141 180
241 632 95 89 127 167
241 633 95 96 130 175
240 634 94 100 137 177
240 635 94 99 135 178
241 634 95 100 135 179
241 635 95 103 136 180
242 632 95 90 128 175
242 633 95 96 131 181
242 634 95 94 132 181
240 637 93 103 134 177
240 636 94 103 136 179
240 636 95 104 137 179
240 637 94 106 136 178
241 636 95 105 138 181
241 637 94 111 139 181
241 637 95 107 137 179
240 638 93 108 137 178
240 639 93 110 139 178
240 638 94 108 137 177
240 639 94 108 138 178
241 638 95 106 137 178
241 639 95 86 124 170
