ply
format ascii 1.0
comment Version 2, Copyright 2017, 8i Labs, Inc.
comment frame_to_world_scale 0.179523
comment frame_to_world_translation -45.2095 7.18301 -54.3561
comment width 1023
element vertex 2045
property float x
property float y
property float z
property uchar red
property uchar green
property uchar blue
end_header
224 64 246 117 96 74
224 64 247 118 97 75
224 65 247 117 96 74
225 64 247 118 97 76
225 65 247 117 96 74
224 66 247 117 96 75
224 67 247 116 96 75
225 66 247 117 96 74
225 67 247 117 96 74
226 64 247 117 96 74
226 65 247 117 96 73
227 64 247 116 94 71
227 65 247 116 95 73
226 66 247 117 96 74
226 67 247 116 95 74
227 66 247 114 93 71
224 68 247 116 95 74
224 69 247 116 96 75
225 68 247 117 96 74
225 69 247 116 96 74
224 70 247 116 96 75
224 71 247 116 95 74
225 70 247 116 95 74
225 71 247 116 95 74
226 68 247 117 95 74
226 69 247 116 95 73
226 70 247 115 94 72
227 65 248 116 94 72
227 66 248 115 94 72
227 67 248 116 94 72
226 68 248 116 95 73
226 69 248 116 96 74
227 68 248 115 94 72
227 69 248 116 95 74
226 70 248 116 95 74
226 71 248 114 93 71
227 70 248 115 94 73
227 71 248 114 93 71
228 64 248 114 93 70
228 65 248 114 93 71
229 64 248 115 94 73
229 65 248 116 96 74
228 66 248 114 93 70
228 67 248 114 92 70
229 66 248 115 94 72
229 67 248 113 92 70
229 67 249 112 91 69
230 64 249 116 95 74
230 65 249 117 96 75
231 64 249 116 95 74
231 65 249 117 96 75
231 65 250 117 96 74
230 66 249 115 94 73
230 67 249 112 91 69
231 66 249 115 94 72
231 67 249 112 91 68
231 66 250 115 94 72
231 67 250 112 91 69
228 68 248 114 93 71
228 69 248 114 93 72
229 68 248 112 91 70
229 68 249 111 90 69
229 69 248 112 90 69
229 69 249 111 90 68
228 70 248 113 93 71
228 71 248 112 91 69
228 71 249 111 90 68
229 70 249 111 90 68
229 71 249 110 89 67
230 68 249 111 90 68
230 69 249 111 90 68
231 68 250 112 91 69
231 69 250 111 91 69
230 70 249 110 89 66
230 71 249 111 89 66
230 70 250 112 90 68
230 71 250 111 90 67
231 70 250 111 91 68
231 71 250 111 90 68
224 72 247 117 96 74
224 73 247 117 96 75
225 72 247 116 95 73
225 73 247 116 95 73
224 74 247 119 98 76
224 75 247 121 99 77
225 74 247 118 96 75
225 75 247 118 97 75
224 76 246 123 102 80
224 76 247 122 100 79
224 77 246 124 102 81
224 77 247 122 101 79
225 76 247 120 99 77
225 77 247 121 99 78
224 79 245 124 103 83
224 78 246 124 102 81
224 79 246 123 102 81
225 78 247 121 100 79
225 79 246 121 100 80
225 79 247 120 99 78
226 78 247 118 97 76
226 79 247 117 96 75
225 72 248 116 94 72
225 73 248 116 95 72
225 74 248 117 96 73
225 75 248 118 96 74
226 72 248 115 93 71
226 73 248 115 93 70
227 72 248 113 92 70
227 73 248 113 92 70
227 73 249 113 92 70
226 74 248 115 93 71
226 75 248 116 94 72
227 74 248 113 92 70
227 74 249 112 92 70
227 75 248 113 92 70
227 75 249 113 92 70
225 76 248 119 98 76
226 76 248 116 95 73
226 77 248 117 96 75
227 76 249 114 93 72
227 77 248 114 94 74
227 77 249 113 93 72
226 78 248 116 96 75
226 79 248 115 94 73
227 78 248 113 93 73
227 78 249 112 92 72
227 79 248 113 93 72
227 79 249 113 93 72
228 72 249 111 90 68
228 73 249 112 91 69
229 72 249 111 89 66
229 73 249 111 90 68
228 74 249 112 91 69
228 75 249 112 91 70
229 74 249 111 90 68
229 75 249 111 90 68
230 72 249 110 89 66
230 73 249 111 90 67
230 72 250 111 90 67
230 73 250 111 90 67
231 72 250 112 91 68
231 73 250 112 91 68
230 74 249 111 89 67
230 74 250 111 90 67
230 75 250 111 90 67
231 74 250 112 91 68
231 75 250 111 90 67
231 75 251 111 90 67
228 76 249 112 92 70
228 77 249 112 92 71
229 76 249 111 90 69
229 77 249 111 91 71
229 76 250 111 90 69
229 77 250 110 90 69
228 78 249 111 92 71
228 79 249 112 92 70
229 78 249 111 91 71
229 78 250 110 91 70
229 79 250 110 90 70
230 76 250 111 90 68
230 77 250 109 89 67
231 76 250 110 89 67
231 76 251 110 89 67
231 77 251 110 89 66
230 78 250 109 89 68
230 78 251 108 88 66
230 79 250 109 90 69
230 79 251 108 88 67
231 78 251 108 88 65
231 79 251 108 88 67
232 64 250 114 94 72
232 65 250 116 95 74
233 64 250 112 92 71
233 65 250 113 93 71
232 66 250 113 92 70
232 67 250 113 91 69
233 66 250 112 92 70
233 67 250 112 91 68
233 67 251 112 91 68
234 64 250 111 91 70
234 65 250 112 91 70
234 65 251 111 91 70
235 64 250 111 91 70
235 65 251 112 91 70
234 66 251 111 91 69
234 67 251 112 91 69
235 66 251 111 91 69
235 67 251 112 92 70
232 68 250 112 91 70
232 69 250 112 91 70
233 68 250 112 91 69
233 68 251 111 91 69
233 69 251 112 91 70
232 70 250 111 91 69
232 71 250 111 90 68
232 71 251 111 90 68
233 70 251 111 90 69
233 71 251 111 90 68
234 68 251 112 91 69
234 69 251 112 91 69
235 68 251 112 92 69
235 69 251 111 91 69
234 70 251 111 90 68
234 71 251 110 89 67
235 70 251 112 91 69
234 71 252 110 89 67
235 70 252 111 90 69
235 71 252 111 90 68
236 64 250 111 90 68
236 65 251 111 91 69
237 64 250 112 91 69
237 65 250 112 91 69
237 65 251 112 91 70
236 66 251 112 92 70
236 67 251 112 92 70
237 66 251 112 92 71
237 67 251 113 92 70
238 64 250 112 90 68
238 65 250 111 91 68
238 65 251 112 91 69
239 64 250 110 90 67
239 65 250 110 90 67
238 66 251 112 91 69
238 67 251 112 91 69
239 66 251 111 90 68
239 67 251 111 90 68
236 68 251 112 92 70
236 69 251 111 91 69
237 68 251 112 92 69
238 68 251 112 91 69
239 68 251 111 90 68
236 69 252 112 91 69
237 69 252 112 91 70
236 70 252 111 90 69
236 71 252 111 90 68
237 70 252 111 91 69
237 71 252 111 90 68
238 69 252 111 91 68
239 69 252 111 90 68
238 70 252 111 90 69
238 71 252 110 90 69
239 70 252 111 91 69
239 71 252 111 90 69
232 72 250 111 90 68
232 72 251 111 90 68
232 73 251 111 90 68
233 72 251 111 90 68
233 73 251 110 89 67
232 74 251 110 90 67
232 75 251 110 90 68
233 74 251 109 88 67
233 75 251 109 88 67
234 72 251 110 89 67
233 74 252 109 89 66
233 75 252 108 87 65
234 72 252 110 89 67
234 73 252 109 89 67
235 72 252 110 90 68
235 73 252 110 89 67
234 74 252 109 88 67
234 75 252 108 87 65
234 75 253 108 87 66
235 74 252 109 89 67
235 74 253 109 89 67
235 75 253 108 87 66
232 76 251 111 90 68
232 77 251 110 89 68
232 78 251 109 88 66
232 79 251 108 88 67
233 76 252 109 88 67
233 77 252 108 87 65
232 78 252 109 89 67
232 79 252 107 88 68
233 78 252 108 87 65
233 79 252 108 88 68
234 76 252 108 87 66
234 76 253 108 87 66
234 77 252 107 86 65
234 77 253 107 86 65
235 76 253 107 87 66
235 77 253 106 86 64
234 78 252 106 86 65
234 78 253 107 86 65
234 79 253 106 87 67
235 78 253 106 87 66
235 79 253 106 87 67
236 72 252 110 89 67
236 73 252 109 89 67
236 73 253 110 89 67
237 72 252 110 90 68
237 72 253 110 90 68
237 73 253 110 90 68
236 74 253 109 89 68
236 75 253 108 88 67
237 74 253 108 88 67
237 75 253 108 88 67
238 72 253 111 90 68
238 73 253 112 91 69
239 72 253 111 90 69
239 73 253 112 91 69
238 74 253 111 90 68
238 75 253 109 89 67
239 74 253 112 91 68
239 75 253 111 90 68
238 75 254 110 89 67
239 75 254 111 90 68
236 76 253 107 87 66
236 77 253 106 86 65
237 76 253 107 87 66
237 76 254 106 86 65
237 77 254 106 86 65
236 78 253 107 87 66
236 78 254 106 87 66
236 79 254 106 87 67
237 78 254 106 87 66
237 79 254 106 87 66
238 76 254 108 88 66
238 77 254 107 87 66
239 76 254 112 91 70
239 77 254 110 90 69
238 78 254 107 88 66
238 79 254 106 86 65
239 78 254 109 89 68
239 79 254 108 89 68
224 95 239 127 103 87
224 80 245 121 100 80
224 81 244 121 101 81
224 81 245 121 101 81
224 80 246 121 100 80
225 80 246 120 99 79
225 80 247 119 99 78
225 81 246 120 100 80
225 81 247 120 100 80
224 82 244 121 102 83
224 82 245 121 101 82
224 83 244 121 101 82
224 83 245 121 101 82
225 82 245 121 101 82
225 83 245 119 100 80
225 82 246 120 100 81
225 83 246 119 99 79
226 80 247 117 97 76
226 81 247 119 99 79
226 82 247 119 99 79
226 83 246 118 97 78
226 83 247 117 97 76
227 82 247 118 98 78
227 83 247 117 97 76
224 84 243 121 101 81
224 85 243 121 101 82
224 86 243 121 101 82
224 87 243 123 102 83
224 84 244 120 100 80
224 85 244 121 101 82
225 84 245 119 99 80
225 85 245 120 100 81
225 84 246 118 97 77
224 86 244 121 101 82
224 87 244 123 102 83
225 86 244 121 101 82
225 86 245 121 101 82
225 87 244 122 101 83
225 87 245 122 101 82
226 84 246 118 97 78
226 84 247 118 97 77
226 85 246 119 99 79
226 85 247 119 98 78
227 84 247 118 97 77
227 85 247 118 97 77
226 87 245 121 100 82
226 86 246 120 100 80
226 87 246 120 99 79
227 86 247 119 98 78
227 87 247 118 98 77
228 87 247 117 96 75
226 80 248 116 96 74
226 81 248 117 97 76
227 80 248 115 95 74
227 80 249 115 94 74
227 81 248 116 96 76
227 82 248 117 97 77
227 83 248 117 97 77
228 80 249 112 92 72
228 81 249 115 95 75
229 80 250 110 91 71
229 81 250 111 92 73
228 82 248 117 97 77
228 82 249 115 96 76
228 83 248 116 96 76
228 83 249 114 94 75
229 82 249 112 93 74
229 83 249 112 93 74
229 82 250 111 92 73
229 83 250 111 92 74
230 80 250 110 91 71
230 80 251 109 90 70
230 81 250 110 91 73
230 81 251 109 91 71
231 80 251 108 89 69
231 81 251 108 89 70
230 82 250 110 91 73
230 82 251 108 90 71
230 83 250 109 91 72
230 83 251 107 88 70
231 82 251 107 88 69
231 83 251 106 87 69
231 81 252 107 88 69
231 82 252 106 88 69
231 83 252 105 87 68
228 84 248 117 97 76
228 84 249 114 94 75
228 85 248 117 97 77
229 84 249 113 93 75
229 85 249 112 93 74
229 84 250 110 92 73
229 85 250 110 91 73
228 86 248 117 96 77
228 87 248 116 96 75
229 86 249 113 94 74
229 87 249 113 93 73
230 84 250 108 90 72
230 84 251 107 88 70
230 85 250 109 91 73
230 85 251 109 90 72
231 84 251 106 88 69
231 85 251 108 90 71
230 86 250 111 92 73
230 86 251 111 92 74
230 87 250 111 92 73
230 87 251 111 92 74
231 86 251 110 92 74
231 87 251 112 93 74
231 84 252 105 87 68
231 85 252 106 88 70
224 88 243 125 104 85
224 89 243 126 104 86
224 90 242 128 104 87
224 90 243 126 104 86
224 91 242 128 103 87
224 91 243 126 103 86
225 90 243 125 103 86
225 91 243 124 102 85
225 88 244 124 103 85
225 88 245 122 101 83
225 89 244 124 103 85
225 89 245 122 101 84
225 90 244 123 102 85
225 91 244 122 100 83
226 88 245 121 100 82
226 89 245 121 101 83
226 88 246 120 99 81
226 89 246 121 101 83
227 88 246 120 99 80
227 88 247 119 98 77
227 89 246 121 101 82
227 89 247 121 100 80
226 90 245 122 101 84
226 91 245 121 100 83
226 90 246 122 102 84
226 91 246 122 102 84
227 90 246 122 102 84
227 90 247 122 102 83
227 91 246 121 101 83
227 91 247 121 101 82
224 92 241 128 103 87
224 93 241 127 102 85
224 92 242 127 102 86
224 92 243 125 101 84
224 93 242 124 101 83
225 92 243 122 100 82
225 93 243 119 98 80
224 94 240 128 103 87
224 94 241 126 102 85
224 95 240 127 103 87
224 95 241 124 101 84
225 95 241 122 101 83
224 94 242 123 101 83
225 94 242 122 101 83
225 94 243 118 98 79
225 95 242 120 100 82
225 95 243 117 98 79
226 95 243 115 96 78
225 92 244 119 98 79
225 93 244 117 97 78
226 92 244 117 97 78
226 92 245 117 97 78
226 93 244 116 96 77
226 93 245 115 96 76
227 92 246 118 98 79
227 92 247 119 99 79
227 93 246 117 97 77
227 93 247 118 97 77
226 94 244 114 95 76
226 94 245 114 95 76
226 95 244 114 95 77
226 95 245 114 96 78
227 94 245 115 95 76
227 95 245 115 96 78
227 94 246 117 97 77
227 94 247 118 97 77
227 95 246 116 96 77
228 88 247 118 97 76
228 89 247 120 100 80
228 90 247 121 100 81
228 91 247 121 100 80
228 92 247 121 100 80
228 93 247 119 98 77
228 94 247 119 97 76
228 95 247 119 98 76
228 88 248 116 96 75
228 89 248 120 99 79
229 88 248 116 96 76
229 88 249 114 94 74
229 89 248 118 98 79
229 89 249 117 97 78
228 90 248 120 100 80
228 91 248 121 100 81
229 90 248 119 99 80
229 90 249 118 98 79
229 91 248 121 100 81
229 91 249 120 100 80
230 88 250 113 93 74
230 89 250 116 96 77
231 88 251 113 94 74
231 89 251 117 97 77
230 90 249 118 98 79
230 91 249 119 99 79
230 90 250 117 97 78
230 91 250 118 98 78
231 90 251 117 97 77
231 91 251 117 97 76
228 92 248 120 100 79
228 93 248 119 98 77
229 92 248 120 99 79
229 92 249 119 99 79
229 93 248 119 98 77
229 93 249 119 98 77
229 94 248 119 98 76
229 94 249 120 99 78
229 95 248 120 98 76
229 95 249 120 99 78
230 92 249 119 98 78
230 93 249 118 97 76
230 92 250 117 97 76
230 93 250 116 96 75
231 92 251 116 96 76
231 93 250 117 96 75
231 93 251 116 96 76
230 94 249 119 98 77
230 95 249 119 98 78
230 94 250 117 96 76
230 95 250 118 98 77
231 94 250 116 96 75
231 94 251 115 95 75
231 95 250 117 97 76
231 95 251 115 95 76
232 80 252 107 88 68
232 81 252 106 87 68
233 80 252 107 88 68
233 81 252 106 87 67
233 81 253 105 86 66
232 82 252 105 86 67
232 83 252 104 86 66
233 82 252 104 86 66
233 82 253 104 85 65
233 83 252 104 85 65
233 83 253 103 84 64
234 80 253 105 86 67
234 81 253 104 85 65
235 80 253 106 87 67
235 81 253 104 85 65
235 80 254 106 87 67
235 81 254 105 86 66
234 82 253 103 84 63
234 83 253 103 83 62
234 83 254 102 83 61
235 82 254 103 84 64
235 83 254 103 84 63
232 84 252 105 86 67
232 85 252 107 88 69
233 84 253 105 86 66
233 85 253 107 88 67
232 86 252 111 92 73
232 87 252 113 93 73
233 86 253 111 91 71
233 87 253 113 93 72
234 84 253 104 84 62
234 85 253 106 86 64
234 84 254 104 84 62
234 85 254 106 86 65
235 84 254 104 84 63
235 85 254 105 86 65
234 86 253 110 90 69
234 87 253 112 92 70
234 86 254 109 89 68
234 87 254 111 91 70
235 86 254 107 88 67
235 87 254 109 90 70
236 80 254 105 86 66
236 81 254 105 86 66
237 80 254 105 85 65
237 81 254 105 85 65
236 82 254 104 85 64
236 83 254 104 85 64
237 82 254 104 85 64
237 83 254 105 85 65
237 83 255 105 86 65
238 80 254 105 86 65
238 81 254 105 85 65
239 80 254 107 88 68
239 81 254 106 87 67
239 81 255 106 87 68
238 82 254 105 86 66
238 82 255 106 87 67
238 83 255 105 86 67
239 82 255 106 87 68
239 83 255 106 87 67
236 84 254 104 85 64
236 85 254 105 85 65
236 85 255 105 85 64
237 84 255 105 86 65
237 85 255 105 86 65
236 86 254 105 86 66
236 86 255 105 86 66
236 87 255 107 88 68
237 86 255 105 85 65
237 87 255 105 86 66
238 84 255 105 86 66
238 85 255 105 86 66
239 84 255 105 86 67
239 85 255 105 86 66
238 86 255 105 86 66
238 87 255 104 85 65
239 86 255 106 87 67
239 87 255 107 88 67
232 88 252 115 95 75
232 89 252 117 96 76
233 88 253 116 95 73
233 89 253 116 95 74
232 90 252 118 97 77
232 91 252 118 97 77
233 90 253 117 96 75
233 91 252 116 96 75
233 91 253 116 96 75
234 88 253 114 93 72
234 89 253 115 94 73
234 88 254 113 93 72
234 89 254 113 92 72
235 88 254 110 91 71
235 88 255 109 90 71
235 89 254 111 91 71
235 89 255 110 90 71
234 90 253 115 95 74
234 91 253 115 95 74
234 90 254 112 92 72
234 91 254 113 93 72
235 90 254 110 90 70
235 90 255 109 90 70
235 91 254 111 91 71
235 91 255 110 90 71
232 92 252 117 96 76
232 93 252 115 95 75
233 92 252 117 97 76
233 92 253 116 96 76
233 93 252 116 95 75
233 93 253 115 95 76
232 94 252 114 93 74
232 95 252 113 93 75
233 94 252 113 93 74
233 94 253 113 93 74
233 95 252 112 92 73
233 95 253 112 91 72
234 92 253 115 95 75
234 93 253 114 94 75
234 92 254 114 93 73
234 93 254 113 93 73
235 92 254 112 92 71
235 92 255 110 91 71
235 93 255 112 92 72
234 94 253 113 93 73
234 95 253 112 92 72
234 94 254 113 93 73
234 95 254 113 92 73
235 94 255 112 93 73
235 95 255 112 92 73
236 88 255 108 89 69
236 89 255 108 89 70
237 88 255 106 87 67
237 89 255 106 87 68
236 90 255 108 89 69
236 91 255 109 89 70
237 90 255 106 87 68
237 91 255 107 88 69
238 88 255 105 86 66
238 89 255 106 87 67
239 88 255 107 88 67
238 90 255 106 87 68
236 92 255 109 90 71
236 93 255 110 91 71
237 92 255 108 89 69
236 94 255 111 91 72
236 95 255 112 92 73
243 68 224 62 55 51
243 69 224 63 56 51
242 71 224 63 56 51
243 70 224 65 58 53
243 71 224 65 59 53
244 67 224 64 57 53
245 66 224 64 57 52
245 67 224 66 59 54
245 67 225 69 61 54
245 67 226 71 62 54
246 65 224 68 61 56
247 65 224 69 61 55
247 65 225 71 63 56
247 65 226 75 64 56
247 65 227 79 68 58
246 66 224 66 59 55
246 66 225 72 64 58
246 67 225 70 62 55
246 66 226 75 65 58
246 67 226 74 64 56
246 67 227 79 69 61
247 66 226 76 66 57
247 66 227 80 70 60
247 67 227 81 71 62
247 67 228 82 72 63
244 68 224 64 57 52
244 68 225 68 60 54
244 69 224 66 59 53
244 69 225 69 61 55
245 68 225 70 62 55
245 69 225 72 63 56
245 68 226 72 63 56
245 69 226 73 64 57
244 70 224 66 59 54
244 70 225 69 61 55
244 71 225 69 61 55
245 70 225 72 63 56
245 71 225 72 63 56
245 70 226 74 65 57
245 71 226 73 64 56
246 68 226 74 64 56
246 68 227 78 68 60
246 69 226 76 67 58
246 69 227 78 68 60
247 68 227 81 72 63
247 69 227 80 70 62
246 70 226 76 67 59
246 71 226 76 66 57
246 71 227 78 68 59
247 70 227 80 70 62
247 71 227 80 70 61
247 68 228 83 73 65
247 69 228 80 71 63
247 70 228 80 71 63
247 71 228 80 71 63
242 72 224 64 56 50
242 73 224 67 58 52
243 72 224 66 58 52
243 73 224 67 59 53
242 74 224 70 62 55
242 75 224 72 63 55
243 74 224 70 63 56
243 75 224 71 61 54
242 76 224 74 65 57
242 77 224 73 63 55
243 76 224 74 65 57
243 77 224 77 68 61
242 78 224 72 63 55
243 78 224 77 68 61
243 79 224 76 67 59
244 72 225 69 61 55
244 73 224 67 60 54
244 73 225 68 60 54
245 72 225 72 64 56
245 73 225 72 63 56
244 74 224 71 63 58
244 74 225 71 63 57
244 75 224 73 64 57
244 75 225 75 67 61
245 74 225 70 63 57
245 75 225 75 67 61
246 72 226 75 66 57
246 72 227 78 67 58
246 73 226 76 66 57
246 73 227 77 67 58
247 72 227 79 69 60
247 73 227 80 69 59
246 75 225 76 68 62
246 74 226 75 66 58
246 75 226 74 66 59
247 74 227 80 69 59
247 75 226 76 67 61
247 75 227 79 69 61
247 72 228 80 70 61
244 76 224 72 62 53
244 76 225 76 67 60
244 77 224 77 67 59
244 77 225 75 65 56
245 76 225 74 64 57
245 77 225 74 64 56
244 78 224 76 67 58
244 79 224 76 67 59
245 78 225 78 68 61
245 79 224 73 64 55
245 79 225 77 68 60
246 76 225 77 69 63
246 77 225 73 64 57
246 76 226 76 68 61
246 77 226 76 67 60
247 76 226 75 67 60
247 76 227 77 68 61
247 77 226 77 68 61
247 77 227 78 69 62
246 78 225 76 67 59
246 79 225 77 67 59
246 78 226 74 65 57
246 79 226 76 66 58
247 78 226 77 68 60
247 79 226 76 66 58
248 64 224 69 62 56
248 64 225 73 64 58
248 65 225 73 64 57
249 64 224 72 64 58
249 64 225 74 66 58
248 64 226 77 68 60
248 65 226 77 66 58
248 65 227 81 69 59
249 64 226 79 69 60
249 64 227 81 70 59
249 65 227 82 70 58
248 66 227 83 72 62
250 64 226 77 67 57
250 64 227 83 71 60
251 64 227 84 72 61
249 65 228 85 73 62
249 65 229 88 76 66
248 66 228 83 72 62
248 66 229 84 73 63
248 67 228 81 71 61
248 67 229 83 73 64
249 66 229 86 74 64
249 66 230 90 78 67
249 67 230 85 74 64
249 67 231 87 75 66
250 64 228 88 75 64
250 64 229 88 76 65
250 65 228 87 74 63
250 65 229 90 78 67
251 64 228 89 76 63
251 64 229 92 77 63
250 65 230 93 80 69
251 64 230 95 80 64
251 64 231 98 82 67
251 65 230 94 81 69
251 65 231 96 82 69
250 66 230 94 81 70
250 66 231 94 81 69
250 67 231 90 78 67
251 66 231 95 82 68
248 68 228 82 72 65
248 68 229 84 74 66
248 69 228 81 71 64
248 69 229 82 73 65
249 68 230 85 75 66
249 68 231 87 76 67
249 69 230 84 74 66
249 69 231 86 76 67
248 70 228 80 71 63
248 70 229 81 72 64
248 71 228 81 71 63
248 71 229 81 71 64
249 71 229 81 72 65
249 70 230 84 74 66
249 70 231 85 75 67
249 71 230 84 75 67
250 68 231 91 79 69
250 69 231 91 79 70
250 70 231 87 75 66
250 71 231 86 76 67
252 64 229 90 75 59
252 64 230 96 80 64
252 64 231 99 83 68
251 65 232 98 84 70
250 67 232 94 80 68
251 66 232 98 83 69
251 67 232 97 82 69
250 68 232 93 80 69
250 69 232 93 81 70
251 68 232 96 81 68
251 68 233 98 83 69
251 69 232 94 81 69
251 69 233 96 81 68
251 70 232 94 81 70
251 70 233 96 82 69
251 71 232 92 79 69
251 71 233 94 81 69
252 64 232 101 86 72
252 65 232 101 85 71
252 65 233 102 86 71
253 64 232 102 86 71
253 64 233 103 87 72
253 65 233 103 87 71
253 64 234 105 88 72
253 65 234 104 88 72
252 66 233 101 85 70
252 67 233 100 85 70
252 67 234 102 86 70
253 66 234 103 87 70
253 66 235 105 88 71
253 67 234 103 86 69
253 67 235 104 87 70
254 64 234 106 89 73
254 64 235 109 92 75
254 65 235 108 91 75
255 64 235 108 91 74
254 66 235 106 89 72
254 67 235 105 88 71
254 65 236 108 90 73
255 64 236 108 90 73
255 64 237 108 90 70
255 65 236 108 90 74
255 65 237 107 90 73
255 64 238 111 92 71
255 64 239 111 91 72
255 65 238 108 89 71
255 65 239 110 91 72
254 66 236 107 89 72
254 67 236 107 89 71
255 66 237 107 89 72
255 67 237 107 89 72
255 66 238 107 88 70
255 66 239 108 90 73
255 67 238 108 89 71
255 67 239 108 90 72
252 68 233 100 84 70
252 69 233 98 82 67
252 68 234 102 86 70
252 69 234 99 83 67
253 68 234 103 86 70
253 68 235 103 86 69
253 69 234 101 84 68
253 69 235 103 86 70
252 70 233 96 81 68
252 71 233 95 82 69
252 70 234 97 81 65
252 71 234 97 82 67
253 70 234 99 82 66
253 70 235 101 84 68
253 71 234 98 82 67
253 71 235 99 83 67
254 68 235 105 87 69
254 69 235 105 88 71
254 70 235 104 87 70
254 71 235 102 85 69
254 68 236 107 89 70
254 69 236 107 89 71
255 68 237 108 89 72
255 69 237 108 89 71
255 68 238 108 90 71
255 68 239 108 90 72
255 69 238 108 90 71
255 69 239 108 90 72
254 70 236 107 89 71
254 71 236 106 88 70
255 70 236 107 89 71
255 70 237 107 89 71
255 71 236 107 89 70
255 71 237 107 89 71
255 70 238 108 90 71
255 70 239 108 90 72
255 71 238 107 89 71
255 71 239 107 89 71
248 74 227 81 70 60
248 75 227 81 70 60
248 72 228 81 71 63
248 72 229 81 72 64
248 73 228 81 71 62
249 72 229 82 72 65
249 73 229 83 73 66
249 72 230 83 73 65
249 73 230 82 72 64
248 74 228 81 71 61
248 75 228 82 71 61
249 74 228 82 71 63
249 74 229 83 73 65
249 75 228 82 71 62
249 75 229 83 73 64
250 72 230 84 74 66
250 72 231 85 75 67
250 73 230 83 73 64
250 73 231 84 74 66
251 72 231 86 75 66
251 73 231 86 75 66
250 74 229 84 74 66
250 75 229 84 74 66
250 74 230 85 75 66
250 74 231 84 74 65
250 75 230 85 75 66
251 74 231 86 75 66
251 75 230 86 75 66
251 75 231 87 76 67
248 76 227 79 70 62
248 77 227 79 69 61
248 78 227 80 71 63
248 79 227 79 69 61
249 79 227 80 70 61
248 76 228 81 71 62
249 76 228 82 71 62
249 77 228 82 71 62
249 78 228 82 72 63
249 79 228 82 71 62
250 76 229 83 73 63
250 77 229 84 73 64
250 76 230 84 73 64
251 76 230 85 74 64
251 76 231 87 76 66
251 77 230 84 73 63
251 77 231 85 74 64
250 78 229 83 72 62
250 79 228 82 71 61
250 79 229 81 70 59
251 78 230 84 74 65
251 78 231 84 73 63
251 79 230 82 71 62
251 79 231 82 72 64
252 75 231 87 76 66
252 76 231 87 76 66
252 77 231 86 75 65
252 78 231 84 73 62
252 79 231 82 72 62
251 72 232 88 76 65
251 73 232 87 75 64
251 74 232 87 76 66
252 72 233 93 79 67
252 73 232 87 75 64
252 73 233 89 75 63
252 72 234 96 81 67
253 72 234 97 82 68
253 72 235 98 83 68
253 73 234 95 80 65
253 73 235 96 81 66
252 74 232 89 77 67
252 74 233 91 78 66
252 75 232 89 77 67
252 75 233 93 80 69
253 75 233 94 81 69
253 74 234 93 79 65
253 74 235 97 82 68
253 75 234 95 81 68
253 75 235 97 82 69
254 72 235 101 86 70
254 73 235 100 85 70
254 74 235 100 84 70
254 75 235 99 84 71
254 72 236 107 89 71
254 73 236 107 90 73
255 72 236 107 89 72
255 72 237 108 90 73
255 73 236 107 90 73
255 73 237 108 90 73
255 72 238 109 91 73
255 72 239 108 90 72
255 73 238 109 91 74
255 73 239 108 91 74
254 74 236 107 90 73
254 75 236 105 88 71
255 74 236 107 90 73
255 74 237 107 89 73
255 75 236 106 89 72
255 75 237 107 90 74
255 74 238 107 90 73
255 74 239 108 90 73
255 75 238 107 89 72
255 75 239 107 90 73
252 76 232 88 76 66
252 77 232 88 76 66
253 76 233 93 80 68
253 77 232 88 76 65
253 77 233 93 80 68
253 76 234 95 81 69
253 77 234 94 81 68
252 78 232 86 74 63
253 78 232 88 75 64
253 78 233 92 79 67
253 79 232 84 72 61
253 79 233 87 74 62
254 76 234 96 82 70
254 76 235 99 85 72
254 77 234 96 82 70
254 77 235 99 86 74
254 79 233 87 75 62
254 78 234 94 81 68
254 78 235 98 84 72
254 79 234 92 79 66
254 79 235 96 83 70
255 78 235 101 87 74
255 79 235 99 85 72
254 76 236 103 86 69
255 76 236 104 88 71
255 76 237 107 90 74
255 77 236 105 88 73
255 77 237 106 90 75
255 76 238 108 91 75
255 76 239 107 90 74
255 77 238 107 91 76
255 77 239 107 90 74
255 78 236 105 89 75
255 78 237 106 90 75
255 79 236 104 88 73
255 79 237 105 89 74
255 78 238 106 90 75
255 78 239 106 89 73
255 79 238 106 89 74
255 79 239 106 89 72
240 64 250 110 90 67
240 65 250 110 89 67
241 64 250 110 89 66
241 65 250 110 89 67
240 66 250 110 89 67
240 66 251 110 89 67
240 67 251 110 90 68
241 66 250 109 89 67
241 66 251 109 89 67
241 67 251 109 89 67
242 64 249 107 87 65
243 64 249 107 87 67
242 64 250 107 86 62
242 65 250 108 87 64
243 64 250 106 87 67
243 65 250 106 86 65
242 66 250 109 88 65
242 67 250 108 87 65
242 67 251 108 88 66
243 66 250 107 86 65
243 67 250 108 87 65
243 67 251 107 87 64
240 68 251 110 90 67
240 69 251 110 90 68
241 68 251 109 88 66
241 69 251 109 89 67
242 68 251 108 87 65
242 69 251 108 87 65
243 68 251 107 86 64
243 69 251 107 86 64
240 69 252 111 90 68
241 69 252 109 89 67
240 70 252 111 91 69
240 71 252 110 90 69
241 70 252 110 90 68
241 71 252 110 90 68
242 69 252 108 88 66
242 70 252 108 88 66
242 71 252 109 89 67
243 70 252 107 86 64
243 71 252 107 87 65
244 64 249 107 88 68
245 64 249 108 89 69
244 64 250 107 88 67
244 65 250 106 87 67
245 65 250 108 88 68
244 66 250 106 86 66
244 67 250 106 87 66
244 67 251 106 87 67
245 66 250 106 87 67
245 67 250 106 86 66
246 64 249 108 89 69
246 65 249 107 89 70
247 64 249 104 86 65
247 65 249 104 85 66
246 65 250 108 89 70
247 66 249 105 86 65
247 67 249 104 84 63
246 66 250 108 89 69
246 67 250 106 87 65
247 66 250 106 87 66
247 67 250 105 85 64
244 68 251 106 86 65
244 69 251 106 86 64
245 68 251 106 86 66
245 69 251 105 86 66
244 70 251 106 86 64
245 70 251 104 85 65
246 68 250 105 86 64
246 68 251 106 86 66
246 69 251 106 87 66
247 68 250 105 85 63
247 69 250 105 85 63
247 69 251 105 85 64
246 70 251 104 85 64
246 71 251 103 83 62
247 70 251 105 86 65
247 71 251 104 84 63
244 70 252 107 86 65
244 71 252 106 85 63
245 70 252 105 86 66
245 71 252 106 86 66
246 71 252 103 84 62
247 71 252 103 83 61
240 72 253 111 91 69
240 73 253 112 92 70
241 72 253 110 90 68
241 73 253 111 91 69
240 74 253 112 91 69
240 75 253 111 90 68
241 74 253 112 92 70
241 75 253 111 91 69
240 75 254 110 89 66
241 75 254 110 89 66
242 72 253 109 89 67
242 73 253 109 88 66
243 72 252 108 88 66
243 72 253 108 87 65
243 73 253 107 87 65
242 74 253 110 90 68
242 75 253 111 91 70
243 74 253 107 87 64
243 75 253 109 88 66
242 75 254 110 90 68
243 75 254 110 89 67
240 76 254 110 90 67
240 77 254 111 90 68
241 76 254 110 89 65
241 77 254 110 89 66
240 78 254 109 89 67
240 79 254 109 89 68
241 78 254 109 88 66
241 79 254 108 88 66
242 76 254 109 89 66
242 77 254 109 89 66
243 76 254 109 89 66
243 77 254 109 89 66
242 78 254 109 88 65
242 79 254 109 89 66
243 78 254 109 89 66
243 79 254 109 89 66
244 72 252 106 85 63
244 72 253 106 85 62
244 73 253 106 86 63
245 72 252 105 85 62
245 73 253 104 83 60
244 74 253 107 86 64
244 75 253 107 87 64
245 74 253 105 84 61
245 75 253 107 86 64
244 75 254 108 87 65
245 75 254 107 87 64
246 72 252 104 84 64
246 73 252 104 85 63
246 73 253 103 84 62
247 72 252 102 82 60
247 73 252 102 83 60
246 74 253 103 83 61
246 75 253 105 84 62
247 74 252 103 83 61
247 74 253 103 83 61
247 75 253 103 83 60
244 76 254 109 88 66
244 77 254 110 89 67
245 76 254 107 87 64
245 77 254 109 89 67
244 78 254 109 89 66
244 79 254 108 88 64
245 78 254 110 89 67
245 79 254 108 87 64
246 76 253 105 84 61
247 76 253 105 84 61
247 77 253 107 86 63
246 76 254 106 85 62
246 77 254 108 87 63
247 77 254 107 86 63
246 78 254 109 88 66
246 79 254 108 87 63
247 78 254 107 86 61
247 79 254 109 87 63
250 64 247 104 84 62
250 65 247 105 85 63
251 64 246 103 84 63
251 65 246 104 85 65
251 65 247 105 86 65
250 66 247 105 85 64
251 66 247 104 85 64
251 67 247 102 83 62
253 64 243 104 86 67
255 64 240 110 91 73
255 64 241 108 90 71
255 65 240 110 91 71
255 65 241 108 89 70
254 64 242 105 87 69
254 64 243 105 86 68
254 65 242 106 87 67
254 65 243 105 86 66
255 64 242 106 88 69
255 65 242 106 87 68
255 66 240 109 91 72
255 66 241 108 90 70
255 67 240 108 90 72
255 67 241 107 89 72
254 66 242 106 87 67
254 66 243 105 86 65
254 67 243 105 86 67
255 66 242 106 87 68
255 67 242 106 89 71
255 67 243 106 88 70
252 64 245 103 84 63
252 65 245 103 84 63
253 64 244 104 84 64
253 64 245 103 84 62
253 65 244 105 85 64
253 65 245 104 85 63
252 64 246 103 84 64
252 65 246 103 84 63
253 66 244 105 85 64
253 66 245 104 84 63
253 67 245 104 84 63
252 66 246 103 84 63
252 67 246 102 83 62
252 67 247 101 82 62
253 67 246 103 84 63
254 65 244 105 85 64
254 66 244 105 85 63
254 67 244 105 85 65
254 67 245 106 87 67
255 68 240 108 90 73
255 68 241 107 90 72
255 69 240 108 90 73
255 69 241 107 90 72
254 68 243 105 87 67
254 69 243 105 87 68
255 68 242 106 89 71
255 68 243 106 88 70
255 69 242 107 89 72
255 69 243 106 88 70
255 70 240 107 90 72
255 70 241 107 90 72
255 71 240 107 89 72
255 71 241 107 89 72
255 70 242 107 89 72
255 70 243 106 89 70
255 71 242 106 88 70
255 71 243 106 88 70
253 68 245 106 87 67
252 68 247 101 83 65
252 69 247 101 84 66
253 68 246 103 85 66
253 68 247 102 84 66
253 69 246 104 86 67
253 69 247 103 85 67
252 70 247 102 84 67
253 70 246 104 86 67
253 70 247 104 86 68
253 71 247 103 85 68
254 68 244 105 86 66
254 68 245 106 87 67
254 69 244 105 86 67
254 69 245 105 87 66
254 69 246 105 86 66
254 70 244 105 87 67
254 70 245 105 86 66
254 71 245 105 86 66
255 70 244 106 87 69
255 71 244 105 87 68
255 71 245 104 85 66
254 70 246 105 86 66
254 71 246 105 87 67
254 71 247 104 86 67
248 64 248 103 85 65
248 64 249 102 84 64
248 65 249 101 83 62
249 64 248 104 84 64
249 65 248 103 84 64
248 66 249 102 83 63
248 67 249 102 82 61
249 66 248 104 86 67
249 66 249 103 84 65
249 67 249 102 83 64
248 67 250 103 84 62
250 64 248 104 83 60
250 65 248 104 84 61
250 66 248 104 84 61
250 67 248 102 83 62
250 67 249 101 82 63
251 67 248 101 83 63
249 68 249 100 81 61
249 69 249 101 83 63
248 68 250 104 84 63
248 69 250 104 85 64
249 68 250 102 83 63
249 69 250 103 84 65
248 70 250 104 85 64
248 70 251 104 85 63
248 71 251 104 85 64
249 70 250 104 84 65
249 71 250 103 84 64
249 71 251 102 83 62
250 68 248 100 82 63
250 68 249 100 81 61
250 69 249 100 81 62
251 68 248 100 82 64
251 69 248 100 82 63
250 70 249 101 82 63
250 71 249 101 83 64
251 70 248 99 81 62
251 70 249 101 83 64
251 71 249 101 83 63
250 70 250 101 82 63
250 71 250 101 83 64
251 71 250 103 85 66
252 69 248 100 83 65
252 70 248 100 82 64
252 71 248 100 82 64
252 71 249 100 82 62
253 71 248 102 84 66
255 72 240 107 89 72
255 72 241 107 90 72
255 73 240 108 90 74
255 73 241 108 90 73
255 72 242 107 89 72
255 72 243 106 88 69
255 73 242 108 90 73
255 73 243 106 89 71
255 74 240 107 90 73
255 74 241 107 90 73
255 75 240 107 89 72
255 75 241 107 90 73
255 74 242 107 89 72
255 74 243 106 88 71
255 75 243 105 88 71
253 72 247 103 85 67
255 72 244 105 87 68
255 72 245 104 86 66
255 73 244 106 89 70
255 73 245 105 87 69
254 72 246 105 86 67
254 72 247 104 85 66
254 73 246 105 87 67
254 73 247 103 85 66
255 72 246 105 87 67
255 73 246 105 87 67
255 74 244 106 88 71
255 74 245 106 88 71
255 75 244 105 88 71
255 75 245 106 88 71
254 74 247 104 85 66
254 75 247 104 85 66
255 74 246 105 87 68
255 74 247 104 86 66
255 75 246 105 87 69
255 75 247 104 85 65
255 76 240 107 89 72
255 77 240 106 88 71
255 76 243 105 88 71
255 78 240 106 88 71
255 76 244 104 87 70
255 76 245 105 87 70
255 77 244 103 86 69
255 77 245 103 86 69
255 76 246 105 88 70
255 76 247 105 86 67
255 77 246 104 86 69
255 77 247 105 86 67
255 78 244 103 86 69
255 78 245 103 86 69
255 79 245 104 87 69
255 78 246 104 86 69
255 78 247 105 86 66
255 79 246 103 86 68
255 79 247 104 86 66
248 72 251 104 85 64
249 72 251 103 84 63
249 73 251 103 84 64
251 72 249 102 83 64
250 72 250 100 83 64
250 72 251 101 82 63
250 73 250 100 83 65
250 73 251 101 83 64
251 72 250 102 84 65
251 73 250 102 84 65
250 74 251 102 84 65
250 75 251 102 84 66
251 74 250 102 84 64
251 74 251 101 84 66
251 75 251 101 83 65
248 72 252 104 84 63
248 73 252 104 84 62
249 73 252 104 85 64
248 74 252 103 83 61
248 75 252 103 83 60
248 75 253 103 82 59
249 74 252 104 84 63
249 75 252 102 82 60
249 75 253 103 82 59
250 74 252 102 84 63
250 75 252 101 82 61
251 76 251 101 83 65
251 77 251 101 83 65
248 76 253 105 84 60
248 77 253 107 87 63
249 76 253 104 84 61
249 77 253 107 86 63
248 78 253 108 87 64
249 78 253 108 87 64
249 79 253 107 86 62
248 78 254 108 86 62
248 79 254 110 88 64
249 79 254 109 87 63
250 76 252 102 83 62
250 76 253 104 84 62
250 77 252 104 85 64
250 77 253 106 86 64
251 76 252 101 83 64
251 77 252 102 83 65
250 78 252 105 86 66
250 78 253 107 87 65
250 79 253 107 86 63
251 78 252 103 84 65
251 79 252 106 87 67
251 79 253 107 88 67
252 72 248 100 82 64
252 72 249 101 83 63
252 73 249 101 83 64
253 72 248 102 84 66
253 73 248 101 83 65
253 73 249 101 83 64
252 73 250 102 83 64
252 74 249 101 83 64
253 74 248 101 83 64
253 74 249 101 83 64
253 75 249 101 83 63
252 74 250 102 83 64
252 75 250 102 83 63
253 75 250 102 83 63
254 74 248 101 83 64
254 75 248 102 83 64
253 76 249 101 82 63
253 77 249 101 83 63
252 76 250 102 83 62
252 76 251 102 82 62
252 77 251 102 83 62
253 76 250 101 83 63
253 77 250 102 83 63
252 78 251 102 83 63
252 79 251 104 84 63
253 78 250 103 84 64
253 78 251 103 84 64
253 79 250 103 85 65
253 79 251 104 85 64
254 76 248 102 84 66
254 76 249 101 83 64
254 77 248 102 84 65
254 77 249 101 83 64
255 77 248 103 85 66
254 78 248 102 84 65
254 78 249 102 84 65
254 79 249 102 84 65
255 78 248 103 85 65
255 79 248 103 84 64
255 79 249 102 84 65
254 79 250 102 84 65
252 79 252 103 85 65
243 80 224 78 70 62
244 80 224 78 69 62
244 81 224 78 69 62
245 80 224 75 66 57
245 80 225 74 65 57
245 81 224 79 71 63
244 82 224 77 68 61
245 82 224 80 71 64
245 83 224 77 69 62
246 80 225 76 66 58
246 81 225 76 67 59
247 80 226 75 66 57
247 81 226 77 67 59
246 82 224 79 71 63
246 82 225 78 70 63
246 83 224 80 72 65
246 83 225 78 70 63
247 82 225 77 68 61
247 83 225 79 71 64
247 82 226 77 68 60
246 84 224 81 72 66
246 85 224 82 74 67
247 84 224 81 73 66
247 84 225 81 73 66
247 85 224 81 73 66
247 86 224 81 73 67
248 80 226 76 66 58
248 80 227 78 68 60
248 81 226 75 65 56
248 81 227 76 66 57
249 80 227 79 69 60
249 81 227 79 69 61
248 83 225 79 71 64
248 82 226 77 67 59
248 83 226 79 71 63
249 82 227 78 68 60
249 83 226 80 71 64
249 83 227 79 70 63
250 82 227 79 70 61
250 83 227 81 72 64
249 80 228 80 69 60
250 80 228 80 70 59
250 80 229 81 70 59
250 81 228 82 71 62
250 81 229 82 71 61
251 80 229 82 71 60
251 81 229 83 72 61
251 80 230 82 71 62
251 81 230 82 72 63
250 82 228 83 73 64
250 83 228 84 74 66
251 82 229 83 72 62
251 83 228 83 73 65
251 83 229 84 74 64
251 82 230 83 72 63
248 84 225 80 72 65
248 85 225 81 73 66
249 85 225 82 74 68
248 84 226 80 72 65
249 84 226 81 72 65
249 85 226 81 72 66
248 86 224 83 76 69
248 86 225 83 75 69
248 87 224 84 76 70
249 86 225 81 73 67
249 87 224 84 76 69
249 87 225 80 73 67
250 84 227 82 73 66
250 85 226 82 74 67
250 85 227 83 74 67
251 85 227 84 75 67
250 87 225 85 77 70
250 86 226 82 75 68
250 86 227 83 75 68
250 87 226 84 76 69
251 86 227 85 76 69
251 87 226 87 77 70
251 87 227 86 77 70
250 84 228 82 73 66
251 84 228 84 74 66
251 85 228 84 75 68
252 80 231 82 72 63
252 81 230 82 73 64
252 81 231 83 72 63
253 81 231 84 73 64
252 83 229 83 72 62
252 82 230 82 72 63
252 82 231 82 72 64
252 83 230 83 73 63
252 83 231 82 72 64
253 82 231 83 73 64
253 83 231 84 73 64
254 83 231 83 73 63
252 87 227 87 78 70
252 84 229 84 74 65
252 85 228 85 76 68
252 85 229 87 77 68
253 85 229 86 77 69
252 84 230 83 72 63
253 84 230 85 74 65
253 84 231 83 73 63
253 85 230 85 75 66
252 86 228 86 77 69
252 87 228 87 79 71
253 86 229 90 81 72
253 87 228 90 80 71
253 87 229 90 81 73
253 86 230 93 81 71
254 84 231 87 76 66
254 85 231 87 76 67
254 87 229 92 82 75
254 86 230 90 79 71
254 86 231 91 81 71
254 87 230 92 82 73
254 87 231 96 84 73
255 86 231 91 81 71
255 87 230 91 81 72
255 87 231 93 82 73
253 80 232 85 74 64
253 80 233 87 75 65
253 81 232 86 74 64
253 82 232 85 73 64
253 83 232 84 73 63
254 80 233 88 76 65
254 81 233 88 75 65
254 80 234 94 81 70
254 80 235 97 84 72
254 81 234 92 79 68
255 80 235 99 86 74
255 81 234 94 81 70
255 81 235 99 86 75
254 82 232 85 74 63
254 82 233 87 75 64
254 83 232 85 73 62
254 83 233 86 74 62
255 83 233 87 74 62
254 82 234 88 76 64
255 82 234 91 78 67
255 82 235 98 84 73
255 83 234 90 77 65
255 83 235 95 82 71
255 80 236 102 86 71
255 80 237 104 88 73
255 81 236 103 87 70
255 82 236 103 86 68
254 84 232 88 76 66
255 84 232 86 74 63
255 84 233 88 75 63
255 85 232 87 76 65
255 85 233 90 77 65
255 84 234 88 75 63
255 86 232 92 80 70
255 87 232 93 82 72
249 88 224 84 76 69
250 88 224 88 80 74
250 88 225 89 81 75
250 89 224 85 76 69
250 89 225 89 81 75
251 89 225 90 81 74
251 88 226 86 78 71
251 89 226 89 81 75
250 90 224 84 77 72
251 90 224 85 77 71
251 90 225 89 81 75
251 91 224 86 77 69
251 91 225 89 81 75
251 92 224 85 76 68
252 88 227 87 79 72
252 89 226 89 81 74
252 89 227 87 78 71
253 88 227 90 81 74
253 89 227 91 81 73
252 90 225 92 81 72
252 91 225 89 82 76
252 90 226 90 82 75
252 91 226 90 82 76
253 90 227 89 80 73
253 91 226 91 82 75
253 91 227 90 81 73
254 90 227 91 81 73
254 91 227 91 81 73
253 88 228 90 81 74
253 89 228 91 82 74
254 88 228 91 82 74
254 88 229 92 82 75
254 89 228 91 82 74
254 89 229 92 82 74
255 89 229 92 83 75
254 88 230 93 83 75
255 88 230 93 83 74
255 88 231 93 82 74
255 89 230 94 84 76
254 90 228 92 82 74
254 91 228 92 82 73
255 90 229 93 83 75
255 91 228 93 82 74
255 91 229 93 83 74
255 90 230 94 84 76
252 92 224 89 79 68
252 92 225 92 81 72
252 93 224 89 78 67
253 92 225 94 82 70
253 93 224 87 76 66
253 93 225 94 81 69
253 92 226 92 83 75
253 92 227 91 82 75
253 93 226 95 83 71
253 94 224 87 77 69
253 94 225 92 80 68
253 95 224 90 79 69
254 92 227 92 82 74
254 93 226 96 84 71
254 93 227 93 83 74
255 93 227 94 84 75
254 94 225 94 82 70
254 95 224 86 77 69
254 95 225 90 78 69
254 94 226 96 84 71
254 94 227 95 84 73
254 95 226 95 83 71
255 94 227 94 84 75
255 95 226 96 84 72
255 95 227 95 84 74
254 92 228 93 82 74
255 92 228 94 83 74
255 92 229 94 83 74
255 93 228 95 84 75
255 93 229 95 84 74
255 94 228 95 85 76
255 95 228 93 84 78
240 80 254 108 89 68
240 81 255 107 88 68
241 80 254 107 88 67
241 81 254 107 87 67
241 81 255 106 87 68
240 82 255 106 88 68
240 83 255 106 87 68
241 82 255 106 87 68
241 83 255 106 88 68
242 80 254 109 88 64
242 81 254 108 88 65
242 81 255 108 88 66
243 80 254 111 89 65
243 81 254 111 89 64
242 82 255 107 88 66
242 83 255 107 88 67
243 82 255 110 90 66
243 83 255 110 89 67
240 84 255 106 87 66
240 85 255 107 87 67
241 84 255 107 88 68
241 85 255 108 89 69
240 86 255 107 88 67
240 87 255 108 89 69
241 86 255 108 89 69
241 87 255 109 90 70
242 84 255 108 89 68
242 85 255 109 89 69
243 84 255 109 89 68
243 85 255 109 89 69
242 86 255 108 89 69
242 87 255 109 90 71
243 86 255 109 89 69
243 87 255 109 89 69
244 80 254 111 90 67
244 81 254 112 89 62
245 80 254 110 89 67
245 81 254 112 89 63
244 82 254 112 89 63
244 82 255 112 90 64
244 83 255 112 90 66
245 82 254 112 89 62
245 82 255 112 89 62
245 83 255 113 90 64
246 80 254 109 88 64
246 81 254 111 90 67
247 80 254 110 88 62
247 81 254 111 88 63
246 82 254 113 90 62
246 82 255 113 89 61
246 83 255 114 90 63
247 82 254 112 89 62
247 83 254 114 90 62
247 83 255 114 90 62
244 84 255 111 90 67
244 85 255 110 90 68
245 84 255 111 89 65
245 85 255 111 90 66
244 86 255 110 90 69
244 87 255 110 90 69
245 86 255 110 90 66
246 84 255 113 90 63
246 85 255 111 89 62
247 84 255 114 91 64
247 85 255 113 90 63
246 86 255 111 89 63
246 87 255 111 88 62
247 86 255 113 90 63
247 87 255 112 89 63
240 88 255 108 88 68
255 80 246 102 85 67
255 80 247 104 86 66
255 81 246 102 85 68
255 81 247 104 85 66
255 82 247 104 85 66
255 83 247 104 85 66
255 84 247 104 86 66
255 85 247 104 85 64
248 80 254 111 88 63
248 81 254 111 89 64
249 80 254 110 88 63
249 81 254 112 90 65
248 82 254 111 88 62
248 83 254 114 90 61
248 83 255 113 89 61
249 82 254 112 89 64
249 83 254 113 90 63
250 80 253 107 86 62
250 81 253 109 87 63
251 80 252 106 87 66
251 80 253 107 87 65
251 81 253 108 87 65
250 80 254 109 87 62
250 81 254 110 88 63
250 82 253 109 88 63
251 82 253 107 87 63
251 83 253 107 86 62
250 82 254 111 89 64
250 83 254 111 89 63
251 83 254 109 87 62
248 84 255 113 90 62
248 85 255 114 91 65
249 84 254 113 90 63
249 84 255 113 89 61
249 85 255 113 90 63
248 86 255 114 92 66
248 87 255 113 90 65
249 86 255 113 90 65
249 87 255 112 90 65
251 84 253 107 86 61
250 84 254 111 89 62
250 85 254 110 87 60
250 85 255 112 89 63
251 84 254 108 86 60
251 85 254 107 85 59
250 86 254 109 86 60
250 86 255 112 89 63
250 87 255 111 89 64
251 86 254 108 85 60
251 87 254 108 87 62
251 87 255 109 87 62
253 80 251 104 85 65
253 81 251 104 85 64
253 82 251 104 85 64
254 80 249 102 84 66
254 81 249 103 85 66
255 80 248 103 84 64
255 80 249 102 84 65
255 81 248 102 84 64
255 81 249 102 84 65
254 80 250 103 84 65
254 81 250 103 84 65
254 81 251 103 84 64
255 82 248 102 84 64
255 82 249 103 85 66
255 83 248 103 84 63
255 83 249 102 84 65
254 82 250 103 84 65
254 82 251 103 84 64
254 83 250 102 84 65
254 83 251 103 84 64
255 82 250 103 85 66
255 83 250 103 85 66
252 80 252 104 85 64
252 81 252 105 86 65
253 81 252 105 85 64
252 82 252 105 86 64
252 82 253 106 86 64
252 83 252 106 86 64
252 83 253 106 86 64
253 82 252 105 85 64
253 83 252 106 86 65
254 83 252 104 85 64
255 84 248 105 87 67
255 84 249 104 85 64
255 85 248 105 86 66
255 85 249 105 86 66
254 84 251 105 86 65
254 85 251 105 86 66
255 84 250 105 86 66
255 85 250 104 84 63
255 85 251 105 85 64
255 86 248 105 86 65
255 86 249 104 85 64
255 87 248 106 87 67
255 87 249 106 87 67
254 86 251 106 87 67
254 87 251 106 87 67
255 86 250 105 86 66
255 86 251 106 87 67
255 87 250 106 87 67
255 87 251 106 87 67
252 84 253 105 84 60
252 85 253 104 83 58
253 84 252 105 86 66
253 84 253 104 84 61
253 85 252 104 85 64
253 85 253 104 83 60
252 86 253 105 84 60
252 87 253 106 85 63
253 86 252 106 88 69
253 86 253 106 85 62
253 87 252 106 88 69
253 87 253 108 88 67
252 86 254 107 85 61
252 87 254 107 87 64
254 84 252 103 84 63
254 85 252 105 86 66
254 86 252 106 87 67
254 87 252 105 86 65
249 88 255 111 89 64
250 88 255 111 89 65
250 89 255 111 89 66
251 88 254 108 87 63
251 88 255 109 87 63
251 89 255 110 88 64
251 90 255 110 89 66
251 91 255 110 88 65
255 88 249 107 87 66
255 88 250 106 87 66
255 88 251 105 86 65
255 89 250 108 88 68
255 89 251 108 89 69
255 90 250 108 89 69
255 90 251 109 90 70
255 91 251 106 86 63
253 88 253 108 88 67
253 89 253 108 89 69
252 88 254 108 87 65
252 89 254 109 88 66
252 89 255 109 89 66
253 89 254 108 88 66
253 90 253 109 90 69
252 90 254 110 90 69
252 90 255 110 89 67
252 91 255 110 89 67
253 90 254 109 89 68
253 91 254 110 90 69
254 88 252 108 89 70
254 89 252 109 90 71
254 89 253 109 90 71
255 89 252 108 89 70
254 90 252 108 89 69
254 90 253 109 90 71
254 91 252 112 93 74
254 91 253 111 92 73
255 90 252 108 89 69
255 91 252 108 89 69
255 92 251 107 87 66
252 92 255 110 89 66
252 93 255 110 89 67
253 92 254 110 90 69
253 92 255 110 91 70
253 93 254 111 92 72
253 93 255 111 91 71
252 94 255 111 90 67
253 94 254 111 92 72
253 94 255 111 91 70
253 95 255 111 91 70
254 92 252 111 92 73
254 92 253 110 91 71
254 93 253 111 92 72
255 92 252 109 89 69
255 93 252 109 89 68
254 92 254 110 90 70
254 93 254 111 92 72
254 94 253 112 93 72
254 95 253 111 91 70
255 94 252 109 89 67
255 94 253 110 90 69
255 95 252 110 89 67
255 95 253 110 90 68
254 94 254 112 93 73
254 95 254 111 91 71
