ply
format ascii 1.0
comment Version 2, Copyright 2017, 8i Labs, Inc.
comment frame_to_world_scale 0.179523
comment frame_to_world_translation -45.2095 7.18301 -54.3561
comment width 1023
element vertex 2078
property float x
property float y
property float z
property uchar red
property uchar green
property uchar blue
end_header
230 928 103 84 69 57
231 928 102 81 68 58
231 928 103 82 68 57
231 929 102 79 64 52
231 929 103 85 68 55
231 930 102 82 67 54
231 930 103 88 71 57
231 931 103 94 76 61
231 932 103 102 85 69
231 933 103 106 88 73
225 928 104 87 69 57
225 929 104 89 70 58
225 930 104 89 70 58
227 929 105 90 71 58
226 929 106 90 71 57
227 928 107 86 67 50
227 929 107 89 70 53
226 930 105 91 72 57
227 930 105 91 72 58
226 930 107 92 71 55
226 931 107 87 66 50
227 930 107 88 68 51
227 931 107 82 65 51
224 928 109 87 67 54
224 929 109 85 64 51
225 928 109 90 71 54
225 929 108 93 74 56
225 929 109 90 70 55
224 928 110 84 65 52
224 930 109 82 60 47
224 931 109 81 61 49
225 930 108 87 64 48
225 930 109 88 65 48
225 931 108 81 60 47
226 928 108 92 72 53
226 928 109 92 72 53
226 929 108 93 74 56
227 928 108 93 72 54
227 929 108 94 74 55
226 930 108 92 71 55
226 931 108 86 66 50
224 932 106 77 57 43
224 933 106 80 58 44
224 933 107 79 58 45
225 932 106 85 63 48
225 934 107 74 55 43
225 935 107 72 56 45
226 933 105 76 58 46
226 932 107 83 63 48
226 933 107 79 60 47
227 932 107 80 64 52
227 933 107 80 61 47
226 934 107 74 57 46
226 935 106 72 54 41
226 935 107 73 55 44
227 934 106 76 58 44
227 934 107 79 62 48
227 935 106 75 58 44
224 932 108 78 57 43
224 932 109 81 61 48
224 933 108 75 55 41
224 933 109 79 60 46
225 932 108 79 59 45
225 933 108 74 55 41
224 934 108 87 65 50
224 935 108 77 61 48
225 934 108 76 58 45
226 932 108 83 61 48
229 928 105 85 67 53
229 929 105 89 73 57
228 928 106 78 60 48
228 928 107 81 63 50
228 929 106 85 64 52
228 929 107 77 59 46
229 928 106 83 65 54
229 929 106 86 68 53
229 930 105 92 75 58
229 931 105 88 69 50
228 930 106 79 59 46
228 930 107 80 59 47
228 931 106 80 61 49
228 931 107 79 59 48
229 930 106 87 68 49
229 931 106 82 62 44
230 928 104 85 69 55
230 928 105 86 70 54
230 929 104 87 70 54
230 929 105 88 73 57
230 930 104 91 75 59
230 930 105 92 75 57
230 931 104 96 77 62
230 931 105 103 81 62
231 931 104 100 82 66
229 932 105 84 66 49
228 932 106 79 64 53
228 933 106 73 58 49
229 932 106 82 64 48
229 933 106 82 65 49
228 934 106 74 57 44
228 935 106 77 59 41
229 934 106 82 65 49
229 935 106 80 64 50
230 932 104 102 85 68
230 932 105 104 81 63
230 933 105 91 74 60
231 932 104 111 87 67
231 933 104 108 88 71
230 934 105 89 72 58
230 935 105 114 86 63
231 934 104 88 71 54
231 934 105 86 70 56
231 935 104 88 70 52
231 935 105 89 70 53
227 937 99 74 59 44
225 938 103 70 55 40
225 939 102 69 54 39
225 939 103 70 55 38
227 937 100 72 56 44
227 938 101 71 58 47
226 938 102 69 54 43
226 938 103 66 51 38
226 939 103 69 53 38
227 938 102 70 57 47
227 938 103 67 53 42
229 937 97 82 67 56
228 937 99 77 63 48
229 937 98 88 74 64
229 937 99 76 61 50
230 936 97 82 67 53
230 937 96 86 71 57
230 937 97 81 67 53
231 937 97 86 71 57
231 937 98 86 72 60
231 937 99 85 71 58
228 937 100 72 59 48
228 938 101 64 51 40
228 938 102 64 50 40
231 937 100 82 69 57
225 936 107 79 59 43
225 937 107 79 59 41
224 939 104 70 55 41
225 938 104 68 53 37
225 939 104 69 53 35
224 939 106 71 54 34
224 939 107 70 52 34
225 938 107 77 60 44
226 936 106 72 51 40
226 936 107 74 54 41
226 937 106 73 53 43
226 937 107 72 54 40
227 936 106 71 54 38
227 937 106 74 55 40
226 939 104 68 52 37
226 939 105 66 50 35
227 939 104 66 51 38
227 939 105 65 50 36
226 938 106 74 56 46
226 938 107 87 65 51
226 939 107 95 69 56
227 938 106 84 61 45
227 938 107 71 54 40
227 939 107 80 61 50
224 936 108 75 58 44
224 937 108 75 58 42
224 938 108 74 56 39
224 939 108 74 57 40
224 939 109 72 55 40
225 938 108 92 67 41
225 939 108 103 75 51
225 940 105 66 50 31
225 940 106 68 52 33
225 941 106 68 53 35
226 940 105 66 50 35
226 940 106 66 50 35
227 940 106 66 51 38
227 940 107 93 65 48
227 941 106 66 50 34
224 940 109 67 50 37
224 941 109 73 57 46
225 940 108 79 62 49
225 940 109 72 55 40
225 941 109 69 52 38
224 941 110 74 58 48
225 942 109 69 51 37
224 942 110 73 55 45
224 943 111 74 55 43
225 942 110 71 53 40
225 943 110 74 55 41
225 943 111 74 55 40
226 940 108 68 53 42
226 941 108 70 54 44
226 941 109 66 50 41
227 940 108 65 50 39
227 941 108 67 51 38
227 941 109 67 52 43
226 942 109 65 48 39
227 942 109 64 45 35
226 942 110 65 46 39
226 943 110 69 51 40
226 943 111 73 54 38
227 943 110 65 46 39
229 936 105 105 79 61
228 936 106 77 60 45
228 937 106 69 55 43
229 936 106 78 64 53
229 937 106 68 54 45
228 939 105 65 51 39
228 938 106 88 65 47
228 938 107 105 76 52
228 939 107 62 49 35
229 938 106 71 56 46
229 938 107 77 62 51
229 939 106 60 47 37
229 939 107 70 56 43
230 936 105 105 80 63
230 937 105 79 64 50
231 936 105 96 76 60
231 937 105 90 72 55
230 937 106 78 64 53
231 937 106 81 65 50
230 938 106 91 73 61
230 938 107 91 73 61
230 939 106 75 60 46
230 939 107 73 57 43
231 938 106 85 68 54
231 939 106 72 56 42
231 939 107 75 60 45
228 940 106 64 49 35
228 940 107 67 51 35
228 941 107 67 52 36
229 940 107 64 51 38
229 941 107 65 50 33
229 942 107 64 51 36
230 940 107 77 62 47
230 941 107 75 59 42
231 940 107 78 62 46
231 941 107 73 56 36
228 940 108 72 55 37
228 941 108 66 52 38
228 941 109 65 49 37
229 940 108 66 53 39
229 941 108 69 53 37
228 942 109 66 50 36
229 942 109 65 51 36
229 943 109 71 54 38
228 943 110 66 49 35
229 943 110 73 56 40
230 940 108 75 58 43
230 941 108 75 58 43
231 941 108 79 61 44
230 942 108 75 58 42
230 942 109 79 62 46
230 943 109 81 63 45
231 942 108 78 59 44
231 942 109 84 66 50
231 943 108 76 56 39
231 943 109 80 62 41
230 943 110 79 62 45
233 928 98 81 69 57
233 928 99 91 77 65
233 929 99 81 68 55
234 928 97 79 67 56
234 929 97 73 62 51
235 928 96 69 57 46
235 928 97 72 61 50
235 929 96 70 58 47
235 929 97 72 60 50
234 928 98 81 69 57
234 929 98 75 62 50
234 929 99 75 62 49
235 930 96 73 63 56
235 930 97 69 58 49
235 931 97 68 53 41
234 930 98 70 58 46
234 930 99 72 59 46
234 931 99 72 59 47
235 930 98 68 56 44
235 931 98 71 56 44
232 928 100 85 73 61
232 928 101 79 66 53
232 929 101 75 62 50
233 928 100 85 72 59
233 929 100 77 64 51
232 928 102 75 60 51
232 929 102 76 63 51
232 930 101 73 59 47
233 930 100 73 60 48
233 930 101 74 61 49
233 931 100 74 59 44
233 931 101 77 63 52
232 930 102 80 65 52
232 931 102 84 68 56
233 931 102 80 66 56
234 931 100 73 58 44
235 932 97 74 58 44
235 933 96 95 78 64
235 933 97 82 65 51
234 932 99 79 65 52
234 933 99 87 71 55
235 932 98 74 60 48
235 932 99 84 69 55
235 933 98 85 69 57
235 933 99 88 72 59
235 934 96 97 79 65
235 934 97 96 79 65
235 935 96 91 74 61
235 935 97 81 64 51
235 934 98 87 69 56
235 934 99 80 66 54
235 935 98 79 61 49
235 935 99 88 73 59
233 932 101 81 67 55
233 933 101 70 56 43
232 932 102 92 77 66
232 932 103 96 80 65
232 933 102 104 89 78
232 933 103 96 81 69
233 932 102 87 73 62
233 933 102 76 63 51
233 934 101 75 62 51
232 934 103 84 69 57
233 934 102 71 58 47
233 934 103 82 70 60
233 935 102 81 67 58
233 935 103 83 65 55
234 932 100 81 66 52
234 933 100 83 68 55
234 933 101 76 62 50
234 934 100 79 64 52
234 934 101 75 61 49
234 935 100 92 76 61
234 935 101 88 69 54
235 935 100 93 77 60
234 935 102 84 63 48
236 929 96 68 56 45
236 930 96 70 59 52
236 930 97 66 55 46
236 931 96 74 61 52
236 931 97 70 55 44
236 932 96 76 59 45
236 932 97 74 57 44
236 933 96 88 70 55
236 933 97 78 61 47
237 932 96 74 60 48
236 934 96 98 80 66
232 934 104 81 66 53
232 935 104 82 64 49
233 935 104 81 61 47
232 938 96 85 69 58
232 938 97 86 71 58
233 938 96 80 65 50
232 938 98 86 71 57
233 938 98 86 71 57
233 938 99 65 54 43
235 936 96 72 57 44
235 936 97 76 62 51
235 936 98 77 65 52
235 936 99 82 66 51
234 938 97 68 53 35
235 938 96 62 50 40
235 938 97 66 52 39
234 938 98 64 51 38
234 938 99 65 53 43
235 938 98 62 50 36
235 938 99 63 49 36
233 936 103 81 62 49
233 937 103 80 62 50
232 938 100 66 55 46
232 938 101 69 56 46
233 938 100 68 56 46
233 939 101 64 53 41
233 938 102 68 54 41
233 939 102 70 57 44
233 939 103 74 60 46
234 936 101 74 56 39
235 936 100 84 67 50
235 936 101 82 65 51
235 937 100 93 76 61
235 937 101 85 68 50
234 936 102 92 72 53
234 936 103 108 81 63
234 937 102 98 74 58
234 937 103 108 81 63
235 937 102 72 55 40
234 938 103 81 63 48
234 939 103 69 54 38
235 938 102 69 51 34
235 938 103 74 54 35
235 939 103 63 47 31
235 940 101 64 48 31
235 941 101 67 50 33
234 941 103 72 57 41
235 940 102 66 50 34
235 940 103 73 56 40
235 942 101 71 54 35
235 943 103 81 63 42
236 936 96 69 55 45
236 936 97 75 62 53
236 937 97 73 60 49
237 936 96 59 44 35
237 936 97 69 56 45
237 937 97 71 59 48
236 936 98 68 54 43
236 937 98 69 55 43
236 937 99 75 61 49
237 937 98 62 50 39
237 937 99 69 57 47
236 938 96 63 51 41
236 938 97 60 49 38
236 939 97 64 52 42
237 938 96 63 51 42
237 939 97 63 49 39
236 938 98 61 49 37
236 939 98 63 50 38
237 938 99 69 58 47
237 939 98 63 50 36
238 936 96 57 44 36
238 936 97 63 51 41
238 937 96 58 46 37
238 937 97 65 53 42
239 936 96 60 49 41
239 937 96 58 47 40
239 937 97 60 48 37
238 937 98 66 52 45
238 937 99 63 51 42
239 937 98 70 56 48
239 937 99 66 52 44
238 938 96 63 49 42
238 938 97 59 48 36
238 939 97 62 48 37
239 938 96 57 47 38
239 938 97 54 40 35
238 938 99 67 56 46
238 939 98 59 48 36
238 939 99 59 48 38
239 938 98 58 46 35
239 938 99 58 45 34
239 939 99 59 49 39
236 937 100 85 69 54
236 938 100 70 56 41
236 938 101 75 60 44
236 939 101 69 56 44
237 938 100 68 55 42
237 938 101 86 64 46
237 939 101 67 51 38
236 938 102 84 61 40
236 939 102 68 53 39
237 939 102 67 50 36
238 938 100 77 59 43
238 938 101 119 84 61
238 939 101 64 51 39
239 938 100 57 46 35
239 938 101 85 66 47
239 939 100 58 48 38
239 939 101 63 51 41
238 939 102 62 46 35
239 939 102 75 58 43
237 940 99 60 48 35
238 940 99 61 49 38
236 940 100 68 56 43
236 940 101 69 55 41
237 940 100 70 54 40
237 940 101 67 49 35
236 940 102 70 55 41
236 940 103 71 54 38
236 941 102 73 56 41
236 941 103 76 56 38
237 940 102 67 50 34
237 940 103 71 56 40
237 941 102 70 54 37
237 941 103 72 55 38
236 942 101 76 59 44
236 942 102 76 59 42
236 942 103 82 65 48
237 942 102 72 54 37
237 942 103 74 56 41
238 940 100 64 50 42
238 940 101 62 45 36
238 941 101 62 47 36
239 940 100 63 49 41
239 940 101 63 49 38
239 941 100 61 47 36
238 940 102 60 46 31
238 941 102 62 47 32
238 941 103 67 51 36
239 940 102 61 48 36
239 940 103 63 50 37
239 941 102 64 51 40
239 941 103 67 51 38
238 942 100 61 48 40
238 942 101 65 50 42
239 942 100 63 50 38
239 943 100 65 49 35
239 943 101 68 50 39
238 942 103 73 56 42
238 943 103 73 58 42
239 943 103 67 53 36
232 936 104 96 77 63
232 936 105 91 74 60
232 937 104 126 94 80
232 937 105 85 67 52
233 936 104 97 76 63
233 937 104 88 70 58
232 938 104 72 56 40
232 938 105 72 55 40
233 938 104 84 67 54
233 938 105 59 43 36
233 939 104 89 65 45
233 939 105 65 49 36
232 938 106 68 52 40
232 939 106 64 50 41
232 939 107 65 52 41
233 939 106 62 47 36
234 939 104 74 59 45
234 939 105 71 55 40
233 941 104 69 53 38
232 940 106 65 51 41
232 940 107 68 54 43
232 941 107 67 51 40
233 940 106 65 50 38
233 941 106 65 49 34
233 941 107 62 46 30
232 942 107 69 53 40
233 942 107 71 55 39
233 943 106 79 61 44
233 943 107 75 58 42
234 940 104 72 57 43
234 940 105 78 61 46
234 941 104 70 55 40
234 941 105 71 55 39
235 940 104 67 52 37
235 941 104 74 59 46
235 941 105 75 59 43
234 941 106 80 63 47
234 942 104 79 62 44
234 942 105 73 57 39
235 942 105 90 68 49
234 942 106 78 62 45
234 943 106 83 64 47
234 943 107 89 68 46
235 942 106 79 60 39
235 943 106 84 65 46
232 942 108 70 54 39
232 943 108 73 56 42
233 943 108 72 55 41
236 941 104 76 59 41
236 942 105 92 69 49
236 943 105 84 65 45
237 942 104 77 59 41
237 942 105 120 85 58
237 943 105 102 74 47
236 943 106 87 67 44
238 941 105 72 56 41
238 942 104 67 51 37
238 943 104 76 60 43
238 943 105 94 70 49
239 942 104 67 52 39
239 943 104 68 52 35
224 943 112 72 54 34
224 944 111 75 57 41
225 944 111 75 56 40
226 944 111 69 49 36
227 944 111 68 50 40
228 944 110 68 50 38
228 944 111 72 54 39
228 945 111 65 48 34
229 944 110 77 59 46
229 944 111 80 61 47
229 945 111 79 59 44
231 944 109 84 67 46
230 944 110 84 66 48
230 945 110 85 66 46
230 945 111 86 66 49
231 944 110 87 68 48
231 945 110 87 68 49
231 945 111 87 68 46
230 946 111 86 66 47
231 946 110 88 70 51
231 946 111 89 70 50
231 947 111 94 74 57
239 944 100 66 50 34
239 944 101 66 50 34
234 944 105 86 66 47
234 945 105 88 67 46
235 944 104 86 67 47
235 945 104 86 67 47
235 945 105 87 67 46
234 944 107 89 68 48
235 944 106 84 64 44
235 944 107 93 72 51
235 945 107 82 64 46
235 946 106 94 72 46
235 947 106 98 78 58
232 944 109 75 57 41
232 945 109 79 57 37
233 944 108 78 58 37
233 944 109 73 51 33
233 945 108 86 67 50
233 945 109 75 55 37
232 945 110 80 60 43
233 946 109 82 62 45
232 946 110 80 60 43
232 947 110 79 57 39
232 947 111 81 59 39
233 946 110 85 64 45
233 947 110 87 65 43
233 947 111 86 65 44
234 944 108 91 70 49
234 945 108 88 67 49
235 945 108 94 75 55
234 946 108 92 71 51
234 946 109 93 70 45
234 947 109 96 72 45
235 946 108 95 75 53
235 947 108 95 73 51
235 947 109 102 78 54
234 947 110 97 73 46
232 948 111 82 60 39
233 948 111 93 71 48
233 949 111 99 75 54
235 948 109 108 81 59
234 948 110 103 77 51
234 948 111 100 72 47
234 949 111 106 79 52
235 948 110 108 81 55
235 949 110 113 85 58
235 949 111 112 84 54
234 950 111 122 91 63
235 950 111 121 92 66
235 951 111 126 95 75
237 944 105 82 61 40
236 944 106 87 67 45
236 944 107 86 67 46
236 945 106 86 65 42
236 945 107 93 72 53
237 944 106 84 62 40
237 945 106 89 67 45
236 947 105 97 77 60
237 947 105 95 70 46
236 946 106 92 71 52
236 946 107 106 82 63
236 947 106 101 78 56
236 947 107 101 78 54
237 946 106 93 69 45
237 946 107 102 73 45
237 947 106 98 71 42
237 947 107 96 70 42
238 944 105 81 62 44
239 944 104 70 52 34
239 944 105 74 52 34
239 945 105 77 58 38
238 944 106 83 62 42
238 945 106 83 62 35
239 945 106 81 62 41
238 947 105 100 75 47
238 946 106 88 64 36
238 946 107 103 76 47
238 947 106 101 75 45
238 947 107 100 74 46
239 946 106 83 64 43
239 946 107 86 64 45
239 947 107 92 69 47
236 946 108 96 75 53
236 947 108 102 80 56
236 947 109 107 82 57
237 947 108 100 76 49
238 947 108 100 74 48
239 947 108 100 75 48
237 948 107 105 78 48
236 948 109 108 83 57
237 948 108 99 73 40
237 948 109 112 87 61
237 949 108 111 84 57
237 949 109 115 89 66
236 948 110 109 84 58
236 949 110 113 88 65
237 949 110 117 91 69
236 950 110 116 87 63
236 950 111 116 86 60
236 951 111 119 87 55
237 950 110 116 88 63
237 951 110 115 84 53
237 951 111 117 85 51
238 948 108 105 78 51
238 948 109 107 77 45
238 949 109 111 81 48
239 948 108 100 74 46
239 949 109 110 81 48
238 949 110 120 89 56
239 949 110 111 82 47
238 950 110 122 93 64
238 951 110 119 87 60
238 951 111 118 85 55
239 950 110 120 91 58
239 951 111 129 99 69
236 952 111 122 90 52
237 952 111 117 84 47
238 952 111 113 80 48
239 952 111 127 97 68
224 944 112 75 55 37
224 944 113 76 57 38
224 945 113 76 57 40
225 944 112 77 59 42
225 945 112 75 57 44
225 945 113 78 60 46
224 945 114 78 59 43
225 946 113 80 62 46
224 946 114 85 65 50
224 946 115 88 68 52
224 947 115 89 69 53
225 946 114 80 62 46
225 947 115 82 62 46
226 945 112 72 54 40
226 945 113 74 56 40
227 945 112 67 50 39
226 946 113 70 53 39
227 946 113 66 50 39
226 946 114 74 57 41
226 947 114 75 57 41
226 947 115 77 58 41
227 946 114 67 50 37
227 947 114 69 52 37
224 947 116 84 64 46
225 948 115 85 64 45
226 948 115 82 62 42
227 948 114 77 59 44
227 948 115 77 59 42
227 949 115 79 59 42
224 948 116 87 65 47
224 948 117 86 63 47
224 949 117 85 61 49
225 948 116 90 69 52
225 948 117 90 68 50
225 949 116 94 73 53
225 949 117 90 68 48
224 949 118 84 62 49
225 950 117 87 63 40
224 950 118 79 61 49
224 951 118 75 57 42
224 951 119 76 56 35
225 950 118 86 62 47
225 951 118 85 61 49
226 949 116 88 68 45
226 949 117 95 75 54
227 949 116 84 64 43
226 950 117 93 70 48
226 951 117 92 69 43
227 950 116 83 62 45
227 950 117 86 63 42
227 951 117 86 63 42
226 951 118 92 69 47
228 945 112 65 49 34
229 945 112 74 55 36
228 946 112 64 48 31
228 946 113 67 51 37
228 947 113 69 52 38
229 946 112 76 57 38
229 946 113 73 53 35
229 947 113 73 54 37
228 947 114 70 53 41
230 946 112 87 66 47
230 947 112 89 68 50
230 947 113 83 63 46
231 947 112 93 72 52
229 948 113 76 56 38
228 948 114 73 56 44
228 949 115 77 58 43
229 948 114 74 55 39
229 949 114 80 60 42
229 949 115 80 60 40
228 950 115 80 61 42
229 950 115 79 56 34
229 951 115 81 57 36
230 948 113 88 66 47
230 949 113 92 69 48
231 948 112 94 72 56
231 948 113 97 74 52
231 949 112 96 73 55
231 949 113 98 73 50
230 949 114 87 64 42
231 950 113 97 73 51
230 950 114 88 64 38
230 950 115 85 61 37
230 951 115 83 58 34
231 950 114 100 76 52
231 951 114 104 81 57
231 951 115 99 75 52
228 950 116 81 62 46
228 951 116 81 60 41
228 951 117 82 62 45
229 951 116 79 57 37
224 952 119 83 61 37
224 953 119 95 72 46
225 952 118 81 60 43
225 952 119 79 58 39
225 953 119 83 62 37
224 954 119 101 78 53
224 955 119 99 75 49
225 954 119 91 69 42
225 955 119 97 74 49
227 952 117 88 65 41
226 952 118 95 72 52
226 952 119 80 56 36
226 953 118 96 71 51
226 953 119 86 62 42
227 952 118 95 71 48
227 953 118 97 71 50
226 954 119 87 63 43
226 955 119 86 62 41
227 954 118 96 72 50
227 954 119 97 73 54
227 955 119 95 69 51
225 956 119 104 81 54
226 956 119 96 73 46
226 957 119 103 79 48
227 956 119 92 65 45
227 957 119 96 72 46
227 958 119 100 75 46
230 952 115 83 56 38
231 952 115 96 72 50
231 953 115 100 75 55
228 952 116 81 60 44
228 952 117 83 59 39
229 952 116 82 61 39
229 952 117 83 61 42
229 953 117 84 62 41
228 952 118 91 66 47
228 953 118 94 68 46
229 953 118 84 56 34
229 954 117 84 62 39
229 955 117 83 58 35
228 954 118 96 71 49
228 955 118 99 74 51
229 954 118 87 61 37
229 955 118 95 68 43
230 952 116 82 57 36
230 953 116 81 57 39
230 953 117 85 65 49
231 953 116 87 59 36
230 954 117 86 64 48
230 955 117 86 61 41
231 954 116 85 56 30
231 954 117 83 57 36
231 955 116 88 57 30
231 955 117 87 61 39
228 956 118 103 78 55
228 956 119 99 73 52
228 957 119 95 69 46
229 956 118 104 77 52
229 957 118 114 86 61
229 957 119 108 81 55
228 958 119 93 65 38
228 959 119 95 65 42
229 958 118 118 87 62
229 958 119 108 78 54
229 959 119 103 71 49
230 956 117 93 67 47
231 956 117 93 64 39
231 957 117 95 66 39
230 956 118 93 63 33
230 957 118 107 76 46
231 957 118 97 69 33
230 958 118 117 87 55
230 959 118 123 93 60
230 959 119 122 93 67
231 958 118 102 73 40
231 959 118 118 87 54
224 955 120 87 61 35
224 956 120 85 57 34
224 957 120 74 40 26
225 956 120 103 79 54
225 957 120 99 73 46
224 958 120 76 48 38
224 959 120 80 57 43
224 959 121 94 74 57
225 958 120 85 54 32
225 959 120 76 43 26
225 959 121 81 58 43
226 957 120 109 84 55
226 958 120 109 83 54
226 959 120 105 77 53
227 958 120 107 81 49
227 959 120 111 84 53
228 959 120 105 78 57
232 948 112 83 61 37
232 949 112 85 63 39
232 949 113 91 68 42
233 949 112 91 69 46
233 949 113 89 66 42
232 950 113 87 64 40
233 950 112 97 71 48
233 950 113 88 64 42
233 951 113 92 66 41
232 950 114 97 75 53
232 951 114 96 74 48
234 950 112 105 74 45
234 951 112 107 77 53
234 951 113 101 73 51
235 951 112 118 87 63
233 952 113 95 69 44
232 952 114 92 68 38
232 952 115 104 81 56
232 953 115 103 79 55
233 952 114 91 66 38
233 953 114 91 66 42
233 953 115 94 69 46
232 954 115 104 79 51
233 954 115 99 75 51
233 955 115 105 80 54
234 952 113 103 75 50
234 953 113 102 75 46
235 952 112 122 92 62
235 953 112 122 92 59
235 953 113 117 89 62
234 953 114 94 68 40
235 954 113 114 85 62
234 954 114 91 64 35
234 954 115 98 75 52
234 955 114 90 60 26
234 955 115 103 78 50
235 954 114 121 88 61
235 955 114 108 74 46
235 955 115 101 67 37
232 953 116 104 78 53
232 954 116 103 77 49
232 955 116 103 75 48
233 955 116 106 77 51
234 956 115 112 87 61
235 956 115 110 78 49
235 957 115 110 80 48
232 956 116 102 71 44
232 956 117 96 65 32
232 957 117 98 67 43
233 956 116 108 79 54
233 957 116 109 80 54
233 957 117 106 76 45
232 958 117 98 67 41
233 958 117 105 75 44
233 959 117 103 73 35
232 958 118 95 63 37
232 959 118 102 70 37
233 959 118 100 67 32
234 956 116 104 76 40
234 957 116 107 77 46
234 957 117 111 81 51
235 957 116 111 79 48
234 958 117 111 79 51
234 959 117 114 84 51
235 958 116 114 80 46
235 958 117 117 83 50
235 959 117 120 86 53
234 959 118 108 80 48
236 952 112 125 91 56
236 953 112 128 95 60
236 953 113 125 94 61
237 953 112 123 93 62
236 954 113 127 95 65
237 954 113 124 95 66
237 955 113 127 97 68
236 955 114 128 95 67
237 955 114 132 100 74
238 953 112 112 82 54
239 952 112 127 97 63
239 953 112 120 91 62
238 954 113 114 84 53
238 955 113 119 88 56
239 954 112 118 88 58
239 954 113 117 86 56
239 955 113 118 86 57
238 955 114 127 97 68
236 956 114 126 91 64
236 956 115 122 87 61
236 957 115 117 83 57
237 956 114 136 104 77
237 957 115 129 94 60
238 956 114 125 91 55
238 957 114 128 94 57
238 957 115 135 101 68
239 956 114 120 88 58
239 957 114 123 91 61
239 957 115 125 94 63
239 958 115 133 102 72
236 957 116 117 85 55
236 958 116 118 85 49
236 959 116 121 87 42
236 959 117 122 89 48
237 958 116 126 90 54
237 959 116 125 91 50
237 959 117 126 92 50
238 958 116 135 101 69
238 959 116 133 99 65
238 959 117 133 98 62
239 958 116 129 99 67
239 959 116 135 103 72
239 959 117 137 105 73
241 929 96 70 62 56
241 930 96 71 59 48
241 931 96 76 63 50
242 928 96 93 81 73
242 929 96 88 78 71
243 928 97 94 79 69
243 929 97 98 84 74
243 928 98 92 74 69
243 928 99 84 67 58
243 929 98 92 76 67
243 929 99 82 66 56
242 930 96 81 70 61
242 930 97 91 78 68
242 931 96 78 64 52
242 931 97 93 77 64
243 930 97 93 78 67
243 931 97 98 82 68
243 930 98 92 76 61
243 930 99 82 66 53
243 931 98 99 82 68
243 931 99 93 78 67
241 932 96 85 70 58
241 935 96 75 59 43
242 932 96 85 70 55
242 932 97 93 76 61
242 933 96 97 81 67
242 933 97 103 83 65
243 932 97 96 80 66
243 933 97 106 89 76
242 933 98 107 91 80
243 932 98 92 76 64
243 932 99 96 80 72
243 933 98 109 91 79
243 933 99 103 84 72
242 934 96 109 85 64
242 934 97 106 88 72
242 935 96 88 71 55
242 935 97 87 71 56
243 935 96 87 71 57
242 934 98 104 86 72
242 935 98 103 83 68
242 935 99 106 86 72
243 934 98 104 88 76
243 934 99 105 86 70
243 933 100 104 85 72
242 935 100 113 94 80
243 934 100 107 87 74
243 935 100 113 92 77
243 935 101 111 88 70
244 928 99 81 61 53
244 929 99 80 62 53
244 930 99 82 67 54
244 931 99 92 78 68
244 928 100 82 60 54
244 929 100 80 57 49
245 928 100 81 61 50
245 928 101 80 61 48
245 929 100 78 59 48
245 929 101 78 60 46
244 930 100 83 63 53
244 931 100 89 71 59
245 930 100 77 56 45
245 930 101 79 60 46
245 931 100 82 62 51
245 931 101 83 62 49
246 928 101 78 61 51
246 929 101 78 60 47
246 929 102 78 59 49
247 928 102 78 62 51
247 928 103 77 61 48
247 929 102 77 60 48
247 929 103 78 61 52
246 930 101 81 63 51
246 931 101 88 67 53
246 930 102 81 62 52
246 931 102 88 66 53
246 931 103 89 65 53
247 930 102 80 61 52
247 930 103 79 61 52
247 931 103 85 64 52
244 934 96 91 76 65
244 935 96 91 76 64
244 935 97 94 77 64
245 934 96 96 78 66
245 934 97 96 78 65
245 935 96 95 77 65
245 935 97 95 78 65
244 935 98 97 77 64
245 935 98 95 77 63
246 935 96 96 78 66
246 935 97 99 79 66
247 935 96 93 73 61
247 935 97 100 78 65
246 935 98 99 79 65
247 935 98 100 79 66
244 932 100 93 75 64
244 932 101 94 75 63
244 933 100 91 74 64
244 933 101 93 74 62
245 932 101 87 67 54
245 933 101 96 74 61
244 933 102 102 79 67
245 932 102 86 64 48
245 933 102 95 74 60
245 933 103 104 83 70
244 934 100 107 86 72
244 934 101 105 84 71
244 935 101 108 88 75
244 934 102 107 87 76
244 935 102 97 78 66
245 934 102 109 87 74
245 934 103 107 82 70
245 935 102 100 75 65
245 935 103 97 72 66
246 932 102 84 62 47
246 932 103 86 63 48
246 933 102 89 67 50
246 933 103 94 73 58
247 932 103 87 64 52
247 933 103 90 68 57
246 934 103 100 75 66
246 935 103 93 73 68
247 934 103 99 77 71
247 932 104 85 66 54
247 933 104 93 71 58
246 935 104 85 64 60
247 934 104 99 76 64
247 935 104 95 73 63
247 935 105 97 73 62
240 936 96 65 54 45
240 936 97 68 56 46
241 936 96 73 59 45
241 936 97 67 53 40
240 936 98 77 64 53
240 937 98 69 57 48
240 937 99 69 55 46
241 936 98 69 57 46
241 936 99 87 74 64
241 937 98 81 69 58
241 937 99 71 59 47
240 938 96 63 53 46
241 938 96 62 51 42
241 938 98 63 52 39
241 938 99 65 52 40
242 936 96 84 67 52
243 936 96 80 64 51
242 936 98 103 80 64
242 936 99 105 85 71
242 937 99 72 60 50
242 938 97 64 52 42
243 938 97 60 48 40
243 939 96 57 45 34
243 939 97 49 41 36
242 938 98 67 56 46
242 938 99 63 52 42
243 938 99 63 52 43
240 937 100 62 48 37
241 937 100 61 50 39
240 938 100 56 46 35
240 938 101 72 56 41
240 939 101 60 47 36
241 938 100 62 51 40
241 938 101 62 50 38
241 939 101 65 53 43
240 939 102 60 47 34
241 939 102 60 47 35
242 936 100 113 90 74
242 937 100 88 68 50
243 936 100 99 75 55
243 936 101 106 82 62
243 937 100 92 69 48
243 937 101 81 64 48
243 936 102 93 75 60
243 937 102 64 52 43
242 938 101 62 52 43
243 938 101 59 49 40
242 939 102 64 54 46
242 939 103 70 59 51
243 938 102 56 47 39
243 939 102 54 46 38
243 939 103 57 47 38
240 940 102 59 47 34
240 940 103 58 46 36
240 941 103 62 47 35
241 940 102 63 50 37
241 940 103 63 50 40
241 941 103 57 44 34
240 942 100 62 46 31
240 943 100 65 48 32
240 943 101 66 50 36
241 943 100 67 49 33
240 943 103 62 49 36
242 940 103 68 55 47
242 941 102 71 58 49
243 940 103 58 46 37
242 942 101 77 64 56
244 936 96 80 64 53
244 936 97 90 71 59
244 937 96 71 58 49
244 937 97 97 73 59
245 937 96 69 56 46
245 937 97 91 69 54
244 936 98 104 79 63
244 937 98 117 86 66
245 936 98 100 78 63
245 937 98 100 76 60
244 939 96 60 53 49
244 939 97 63 54 48
245 938 97 62 52 44
245 939 96 66 55 47
244 939 98 64 55 47
244 939 99 67 57 49
245 938 98 66 55 46
245 938 99 62 52 43
246 937 96 73 57 46
246 937 97 85 66 53
247 937 96 69 55 45
246 936 98 99 80 67
246 936 99 98 79 66
246 937 98 90 71 57
247 936 98 103 82 68
247 936 99 103 81 68
247 937 98 82 66 56
246 938 96 71 57 46
246 938 97 79 63 51
246 939 96 62 50 39
246 939 97 54 44 36
247 938 96 72 58 47
247 938 97 75 60 49
247 939 97 54 44 36
246 938 98 75 60 49
246 938 99 63 52 44
247 938 98 77 62 52
247 938 99 61 51 44
244 937 101 80 65 53
244 936 102 88 64 47
244 936 103 87 63 47
244 937 102 69 52 39
244 937 103 73 56 45
245 936 103 113 77 64
245 937 103 110 74 57
244 938 100 66 56 49
244 938 101 62 53 46
245 938 100 60 51 42
245 938 101 63 53 45
244 938 102 57 48 41
244 938 103 66 52 42
244 939 102 57 48 40
244 939 103 59 49 40
245 938 102 64 54 47
245 939 103 59 49 40
246 937 102 63 53 44
247 937 102 66 54 46
246 938 101 62 52 45
247 938 101 59 47 36
246 938 102 61 51 44
246 938 103 60 50 42
246 939 103 60 50 42
244 940 102 63 52 44
244 941 102 60 48 38
245 940 103 60 50 40
245 943 100 69 54 44
245 943 101 71 56 47
246 940 103 61 51 41
240 941 104 69 52 39
241 941 104 74 56 41
240 942 104 68 52 38
240 943 104 69 53 39
241 942 104 73 54 41
241 943 104 77 58 42
242 940 104 66 54 46
242 941 104 75 59 48
243 940 104 58 45 35
243 941 104 74 59 44
242 942 104 80 58 44
242 943 104 79 58 39
243 942 104 78 60 43
243 942 105 77 58 37
243 943 104 77 58 40
243 943 105 74 58 39
244 937 104 107 72 48
245 936 104 107 71 61
245 937 104 108 73 59
245 937 105 78 59 48
244 938 104 74 57 45
244 938 105 63 52 44
244 939 104 58 48 39
244 939 105 61 52 44
245 938 105 72 57 48
245 939 105 62 52 43
245 938 106 82 61 52
245 938 107 87 65 52
245 939 106 63 53 44
245 939 107 66 55 46
246 936 104 71 53 50
246 936 105 85 61 53
247 936 105 105 75 62
246 936 106 69 53 43
246 937 106 88 64 50
247 936 106 80 58 49
247 936 107 77 58 47
247 937 106 74 54 45
247 937 107 103 75 58
247 938 104 62 51 42
247 939 104 59 49 41
246 938 106 121 81 68
246 938 107 90 66 53
246 939 107 97 69 51
247 938 107 102 75 59
247 939 107 68 55 45
246 939 108 68 55 46
247 938 108 72 56 45
247 939 108 75 58 45
244 940 104 61 50 41
244 940 105 62 50 42
244 941 105 61 48 37
245 940 105 61 51 41
245 941 105 66 53 43
245 940 106 60 50 41
245 940 107 60 48 38
245 941 106 62 51 41
244 942 105 80 61 40
244 943 105 75 57 41
245 942 105 82 64 46
244 943 106 69 54 42
245 942 106 75 60 46
245 943 106 74 57 43
247 941 104 59 49 41
246 940 106 60 50 41
246 940 107 71 56 44
246 941 107 62 52 42
247 941 107 63 53 44
246 942 106 63 51 39
246 942 107 64 52 41
246 943 106 69 54 41
246 943 107 73 56 43
247 942 107 64 53 42
247 943 107 88 72 56
246 940 108 68 55 46
247 940 108 64 50 40
247 941 108 60 49 39
247 942 108 63 51 39
247 943 108 76 62 48
248 928 103 77 59 50
248 929 103 77 60 52
248 930 103 79 61 55
248 935 96 98 79 63
248 935 97 103 82 66
249 935 96 98 79 62
248 935 98 97 79 66
255 930 102 106 82 61
255 930 103 95 71 48
248 928 104 73 56 48
248 929 104 75 56 51
249 928 104 67 51 45
249 928 105 68 52 43
249 929 104 72 55 47
249 929 105 68 52 44
248 930 104 80 61 54
248 931 104 81 61 50
249 930 105 73 55 46
249 931 105 82 61 52
250 928 105 63 46 44
250 929 105 68 52 43
250 928 106 65 47 44
250 929 106 66 51 45
251 928 106 70 51 42
251 928 107 78 58 44
251 929 106 72 52 43
251 929 107 74 54 41
250 930 105 70 54 43
250 931 105 77 59 43
250 930 106 70 53 46
250 931 106 74 57 43
251 930 106 72 52 41
251 931 106 71 52 42
248 932 104 89 66 52
248 933 104 90 69 53
249 932 104 86 64 54
249 932 105 86 63 53
249 933 104 88 65 52
249 933 105 86 64 52
248 934 104 98 74 58
248 934 105 97 72 57
248 935 105 101 73 59
249 934 105 91 68 55
249 935 105 95 70 61
248 935 106 99 71 57
249 935 106 80 62 53
249 935 107 103 75 65
250 932 105 82 62 51
250 933 105 85 65 52
250 932 106 75 58 43
250 933 106 77 59 45
251 932 106 70 53 42
251 933 106 71 53 44
250 934 105 86 65 51
250 934 106 86 66 52
250 934 107 75 59 46
250 935 106 91 69 58
250 935 107 76 60 50
251 934 106 76 57 47
251 934 107 72 55 47
251 935 107 69 55 48
252 928 107 72 54 44
252 929 107 65 48 41
253 928 107 62 47 38
252 930 107 67 49 41
252 931 106 68 49 42
252 931 107 65 47 39
253 930 107 60 46 41
253 931 107 64 51 45
254 928 106 58 41 30
254 928 107 60 46 36
254 929 107 59 45 33
255 928 107 78 56 43
255 929 107 83 62 46
255 931 104 95 74 49
255 931 105 90 71 51
254 930 107 60 46 33
254 931 107 65 49 35
255 930 107 91 68 47
255 931 107 97 74 51
253 928 108 58 43 37
253 929 108 59 43 37
253 930 108 57 44 35
253 931 108 62 49 39
254 929 108 59 48 36
254 930 108 59 47 36
252 932 106 70 53 42
252 932 107 63 48 39
252 933 106 69 53 44
252 933 107 65 50 37
253 932 107 68 54 47
253 933 107 68 53 43
252 934 106 68 52 43
252 934 107 64 51 41
252 935 107 61 49 40
253 934 107 70 56 45
253 935 107 68 54 41
254 932 107 67 51 39
254 933 107 68 51 38
255 932 106 85 66 48
255 932 107 85 67 50
255 933 107 87 69 51
254 934 107 75 57 41
254 935 107 87 67 51
255 934 107 90 72 54
255 935 107 91 72 54
248 937 96 81 65 56
249 936 96 93 75 61
249 936 97 98 78 64
249 937 96 84 68 57
248 936 98 101 80 64
248 936 99 104 82 67
248 937 98 83 68 59
248 937 99 95 77 66
249 936 98 99 78 62
249 936 99 98 78 62
249 937 98 81 66 58
249 937 99 92 74 61
248 938 96 69 57 49
248 938 97 68 56 49
248 939 96 59 49 42
249 938 97 72 60 53
249 939 96 64 55 49
248 938 98 76 62 55
248 939 98 63 53 45
249 938 98 76 63 55
249 939 98 67 56 49
250 936 96 89 71 59
250 936 97 91 73 59
250 937 96 83 67 56
250 937 97 79 65 55
251 936 97 89 73 56
251 937 97 87 70 58
250 936 98 94 75 59
250 936 99 89 72 59
250 937 98 80 66 56
250 937 99 88 71 58
251 936 98 88 72 56
251 937 98 87 70 57
250 939 96 71 59 52
251 939 96 70 58 50
251 939 97 69 58 51
250 939 98 74 61 55
251 938 99 70 59 48
251 939 98 71 57 49
248 937 102 62 51 43
248 938 101 60 48 38
249 938 102 66 54 46
250 938 103 64 51 41
252 938 97 70 59 49
252 939 96 69 59 50
252 939 97 71 60 51
253 938 96 65 54 44
252 938 98 72 61 51
253 938 98 70 57 45
253 938 99 75 62 49
254 937 96 66 55 45
253 937 103 62 50 41
248 937 104 65 51 43
249 937 104 68 54 45
248 936 106 106 75 58
248 936 107 97 70 55
248 937 107 92 68 53
249 936 107 91 68 55
248 938 105 65 52 41
248 939 105 62 50 40
249 938 104 68 54 44
249 939 105 65 52 42
250 936 107 94 69 60
251 936 107 83 62 52
250 938 104 66 53 44
250 938 105 64 51 43
250 939 105 64 51 41
251 938 104 64 51 42
249 937 108 86 65 52
248 938 108 81 61 47
248 939 108 71 55 43
248 939 109 80 60 46
249 938 108 77 60 48
249 938 109 71 56 46
249 939 109 67 52 40
250 936 108 83 61 51
250 937 108 77 57 49
251 936 108 76 58 49
251 937 108 61 47 42
251 937 109 66 50 45
250 938 109 64 49 41
250 939 109 61 47 38
251 938 109 65 50 42
251 939 109 66 50 39
248 941 104 58 48 39
248 941 105 61 50 41
248 942 105 65 52 39
249 942 105 57 47 38
249 943 106 62 49 36
251 941 104 61 48 37
250 942 104 58 45 38
250 943 107 54 43 38
248 940 108 86 62 48
248 940 109 69 53 42
248 941 108 60 48 38
248 941 109 61 49 40
249 940 109 78 58 46
249 941 109 68 52 44
248 942 108 63 51 40
248 942 109 63 52 39
248 943 108 69 56 42
248 943 109 70 57 43
249 942 109 61 50 39
249 943 109 63 50 36
250 940 109 80 57 45
250 941 109 70 52 43
251 940 109 80 56 45
251 941 109 72 53 42
250 942 109 61 41 28
250 943 109 60 48 37
251 942 109 66 39 28
251 943 108 60 44 34
251 943 109 57 45 33
253 937 104 65 53 41
253 937 105 68 54 40
252 936 107 61 49 38
253 936 107 69 54 39
254 936 104 73 59 46
254 936 105 77 61 46
255 936 104 86 65 49
254 936 106 81 63 46
254 936 107 79 61 42
254 937 106 77 60 45
255 936 107 87 70 51
255 937 107 83 67 47
252 936 108 62 49 39
252 937 108 63 48 43
253 936 108 66 50 37
253 937 108 66 49 38
252 938 108 60 48 40
252 938 109 59 48 39
252 939 109 63 50 40
253 938 108 65 52 41
253 939 108 71 58 45
253 939 109 70 58 47
254 937 108 73 57 40
255 936 108 87 70 51
255 937 108 79 63 46
254 938 108 74 60 46
254 939 108 80 65 49
254 939 109 86 71 59
255 938 108 77 62 47
255 939 108 81 66 54
255 939 109 81 66 54
252 940 109 70 53 42
252 941 109 73 56 42
253 940 109 70 58 46
253 941 109 81 66 50
252 942 108 62 48 36
252 942 109 74 54 44
252 943 109 68 53 40
253 942 109 81 59 45
253 943 108 72 56 42
253 943 109 72 55 38
253 942 110 80 59 41
253 943 110 79 63 46
254 940 109 90 76 62
254 941 109 94 78 62
255 940 108 83 68 52
255 940 109 88 73 58
255 941 109 86 71 56
254 942 109 90 69 53
255 943 108 78 60 46
254 942 110 86 65 48
254 943 110 83 65 47
255 942 110 77 59 44
255 943 110 71 52 41
241 944 99 71 54 42
242 944 99 73 59 48
243 944 99 65 53 45
240 944 100 66 49 34
241 944 100 69 52 37
241 944 101 68 53 38
240 944 102 62 50 38
240 944 103 71 56 41
241 944 102 73 57 41
241 944 103 68 56 44
241 945 103 81 64 46
242 944 100 72 57 46
242 944 101 72 57 45
242 945 101 75 59 47
243 944 100 70 54 42
243 944 101 71 55 43
243 945 101 74 58 44
243 945 103 79 62 46
244 944 100 71 56 46
244 944 101 69 53 38
244 945 101 71 57 43
245 944 101 67 51 38
244 945 102 67 52 37
244 945 103 76 59 41
245 945 102 69 53 39
245 945 103 73 56 40
245 946 103 77 57 45
240 944 104 73 55 39
240 944 105 74 55 39
240 945 105 75 56 37
241 944 104 72 58 44
241 945 104 79 60 42
241 945 105 79 58 36
240 945 106 74 56 37
240 946 105 74 56 37
240 947 105 78 58 35
241 946 104 80 59 36
241 946 105 81 59 36
241 947 105 81 60 36
240 946 106 77 57 37
240 947 106 80 60 38
240 947 107 81 63 43
241 946 106 83 60 35
241 947 106 81 60 36
241 947 107 76 57 36
242 944 104 73 58 39
242 944 105 75 58 36
242 945 104 80 61 39
242 945 105 81 62 38
243 944 105 75 60 43
243 945 105 77 61 44
242 945 106 83 63 42
243 945 106 76 58 41
242 946 104 83 62 37
242 946 105 85 62 37
242 947 105 85 63 39
243 946 104 81 63 44
243 947 105 83 62 36
242 946 106 86 64 39
242 947 107 84 62 38
243 946 106 81 61 40
243 946 107 81 61 39
243 947 107 92 68 42
243 947 108 101 75 51
241 948 107 78 59 39
241 949 106 84 63 42
243 948 105 84 62 35
242 948 106 87 63 38
242 948 107 89 66 44
242 949 106 89 67 45
243 948 106 85 63 40
243 949 106 89 65 43
242 950 107 94 70 47
243 950 107 91 67 45
240 948 108 85 66 43
240 949 109 98 74 44
241 948 108 88 67 45
241 949 109 93 71 47
240 950 110 107 81 49
240 951 111 121 91 57
241 950 110 99 74 48
241 951 110 103 74 48
241 951 111 106 76 46
242 948 108 101 75 52
242 949 109 103 77 52
243 948 108 93 69 46
243 949 108 95 71 49
243 949 109 91 68 44
242 950 109 95 73 50
243 950 109 94 70 46
242 950 110 100 77 51
242 951 110 104 81 58
242 951 111 107 82 53
243 950 110 99 74 48
243 951 110 104 79 51
243 951 111 104 77 47
244 944 105 70 54 37
244 944 106 77 58 43
244 945 106 75 56 39
244 945 107 81 61 44
245 944 106 76 53 38
245 944 107 74 56 41
245 945 106 79 60 46
245 945 107 80 61 45
244 946 104 78 59 39
244 947 104 80 60 36
244 947 105 81 61 39
245 946 104 77 59 39
245 946 105 77 57 38
245 947 105 84 64 47
244 946 107 80 60 42
244 947 107 82 62 43
245 946 107 81 62 45
245 947 106 82 62 43
246 945 104 76 59 44
247 945 104 74 59 42
246 944 107 76 54 37
246 945 107 75 54 40
246 946 104 75 56 39
246 946 105 79 61 45
246 947 105 84 65 49
247 946 105 75 61 45
246 946 106 75 55 34
246 947 106 81 62 44
247 946 106 81 62 42
244 947 108 91 68 46
245 946 108 79 62 46
245 947 108 81 62 42
246 944 108 76 57 38
246 945 108 77 54 33
247 944 108 83 67 50
247 945 108 79 60 40
247 945 109 85 68 48
246 946 108 73 54 36
246 947 108 78 57 38
246 947 109 83 62 39
247 946 109 83 65 47
247 947 109 84 64 44
244 948 105 83 63 41
244 948 106 87 66 45
244 949 106 85 62 38
244 950 106 84 59 33
244 950 107 87 61 36
244 951 107 87 61 36
245 951 107 88 62 38
244 948 108 88 66 43
244 949 109 90 66 41
245 948 108 84 62 42
245 948 109 83 60 40
245 949 109 89 65 43
244 950 109 101 74 46
244 951 108 90 63 37
245 950 109 90 67 46
244 950 110 96 70 45
244 951 110 91 67 38
245 950 110 92 66 43
245 951 110 93 68 44
246 948 108 79 58 40
246 948 109 83 61 43
246 949 109 82 58 35
247 948 109 84 64 43
247 949 109 83 59 35
247 949 110 89 65 42
246 950 109 85 60 36
246 950 110 86 60 35
246 951 110 87 59 33
247 950 110 90 66 41
247 951 110 93 67 41
240 952 111 127 97 62
241 952 111 115 88 59
242 952 111 112 84 50
243 952 111 110 82 52
244 952 108 87 62 36
245 952 108 89 63 41
244 952 110 88 64 31
244 952 111 99 72 41
244 953 111 100 72 40
245 952 110 95 70 45
245 952 111 101 77 50
245 953 111 103 78 49
246 952 110 90 62 36
246 952 111 97 70 46
246 953 111 97 72 44
247 952 110 96 71 46
247 952 111 93 67 39
247 953 111 98 72 42
248 944 109 73 58 45
248 945 109 78 61 45
249 944 109 67 53 41
249 945 109 69 54 39
248 946 109 84 66 47
248 947 109 89 69 51
249 946 109 72 54 36
248 946 110 76 59 40
248 947 110 78 60 40
249 946 110 69 55 39
249 947 110 71 57 41
250 944 109 70 55 45
250 945 109 91 68 55
251 944 109 59 44 42
250 945 110 89 68 56
251 945 110 71 54 37
250 946 110 67 53 42
250 947 110 61 48 36
250 947 111 62 47 33
251 946 110 59 45 33
251 947 110 61 46 33
251 947 111 62 45 32
248 948 110 82 62 41
248 949 110 84 61 39
249 948 110 79 62 44
249 948 111 76 60 44
249 949 111 77 59 41
248 950 110 89 64 43
248 951 110 91 66 44
248 951 111 88 64 41
249 950 111 80 58 40
249 951 111 84 60 40
250 948 111 67 51 34
250 949 111 71 53 35
251 948 111 67 49 35
251 949 111 69 51 39
250 950 111 74 54 38
252 944 108 77 57 47
252 944 109 75 57 40
252 945 109 110 79 56
253 944 108 75 56 43
252 944 110 69 55 41
252 945 110 81 61 39
253 944 110 80 61 45
253 945 110 82 65 46
252 946 110 79 62 44
252 947 110 79 61 41
253 946 110 88 70 51
253 947 110 89 71 52
254 944 110 80 63 45
254 945 110 79 63 45
255 944 110 69 53 42
255 945 110 71 57 41
254 946 110 82 65 46
254 947 110 85 67 46
254 947 111 80 63 43
255 946 110 76 61 44
255 946 111 75 60 47
255 947 111 78 62 47
252 948 111 79 60 37
252 949 111 84 65 46
253 948 110 89 70 50
253 948 111 89 68 44
253 949 111 91 71 49
254 948 111 89 70 50
254 949 111 91 71 51
255 948 111 81 65 51
255 949 111 86 69 56
248 952 110 95 70 48
248 952 111 91 67 44
248 953 111 93 68 44
249 952 111 88 66 45
249 953 111 89 66 44
240 952 112 126 95 59
240 953 112 123 93 56
241 952 112 120 91 61
241 953 112 116 86 50
240 954 113 121 92 59
240 955 113 117 87 52
241 954 113 112 81 38
241 955 113 117 86 52
240 955 114 116 86 49
241 955 114 117 86 54
242 952 112 114 85 50
242 953 112 117 88 53
243 953 112 115 85 54
242 954 113 116 86 49
242 955 113 112 83 47
243 954 112 120 92 59
243 954 113 123 95 64
243 955 113 122 94 61
242 955 114 112 82 47
243 955 114 114 85 49
240 956 114 113 79 44
240 957 115 113 81 36
241 956 114 120 89 61
241 957 115 122 92 59
242 956 114 117 89 58
242 956 115 119 90 56
242 957 115 124 95 60
243 956 114 112 85 52
243 956 115 117 89 56
243 957 115 122 94 62
240 958 116 120 88 49
240 959 116 125 93 58
240 959 117 128 96 60
241 958 116 132 101 66
241 959 117 136 103 67
242 957 116 130 102 69
243 957 116 128 99 67
242 958 116 136 106 71
242 958 117 141 112 81
242 959 117 142 111 75
243 958 116 135 106 70
243 958 117 137 107 73
243 959 117 143 112 77
243 959 118 148 117 85
244 953 112 107 80 43
245 953 112 101 75 42
244 954 112 107 78 39
244 954 113 111 82 42
244 955 113 113 83 44
245 954 112 103 75 42
245 954 113 107 77 39
245 955 113 112 83 45
244 955 114 116 86 49
245 955 114 112 82 41
245 955 115 112 82 40
246 953 112 96 70 41
247 953 112 100 74 46
246 954 112 100 75 48
246 954 113 103 76 48
246 955 113 106 79 47
247 954 112 103 77 51
247 954 113 104 78 50
247 955 113 104 78 51
246 955 114 107 79 45
246 955 115 109 80 44
247 955 114 107 80 54
247 955 115 109 84 57
244 956 115 114 84 46
244 957 115 117 87 50
245 956 115 113 83 44
246 956 115 108 79 43
247 956 115 111 83 56
244 957 116 119 87 48
245 957 116 111 79 42
244 958 116 118 85 45
244 958 117 128 97 60
244 959 117 137 105 69
245 958 117 114 81 42
244 959 118 143 111 77
245 959 118 123 88 45
246 956 116 107 78 41
246 957 116 112 84 51
246 957 117 112 82 47
247 956 116 118 89 60
247 957 116 120 91 62
247 957 117 120 90 57
246 958 117 111 82 47
247 958 117 119 87 53
246 958 118 117 86 52
246 959 118 127 95 64
247 958 118 121 88 57
247 959 118 123 90 60
249 951 112 80 57 35
251 949 112 70 52 38
250 950 112 72 51 34
250 951 112 75 53 33
251 950 112 74 54 37
251 951 112 79 57 39
252 949 112 86 67 48
253 949 112 93 74 54
252 950 112 87 67 48
252 951 112 89 68 44
253 950 112 97 78 57
253 951 112 100 80 58
254 949 112 93 73 54
255 949 112 85 68 50
254 950 112 94 73 51
254 951 112 94 73 50
255 950 112 86 67 47
255 951 112 87 67 42
255 951 113 86 64 38
248 953 112 95 70 45
249 952 112 85 63 43
249 953 112 91 67 42
248 954 112 97 71 45
248 954 113 99 73 46
248 955 113 97 70 41
249 954 112 91 64 32
249 954 113 96 68 36
249 955 113 98 71 40
248 955 114 100 71 42
248 955 115 102 73 42
249 955 114 106 79 49
250 952 112 80 57 36
250 953 112 86 61 38
250 953 113 91 67 48
251 952 112 85 62 37
251 953 113 92 68 43
250 954 112 87 61 32
250 954 113 98 71 45
251 954 113 101 76 50
251 955 113 112 86 55
250 955 114 107 79 48
251 955 114 115 88 57
248 956 115 107 79 47
249 956 115 112 85 54
250 956 115 116 88 54
250 957 115 126 97 65
251 956 114 125 97 67
251 956 115 126 98 64
251 957 115 127 97 60
248 956 116 115 87 56
248 957 116 119 90 60
248 957 117 120 89 57
249 957 116 122 94 63
248 958 117 118 86 54
248 959 117 117 85 54
249 958 117 121 89 55
249 959 117 120 87 54
248 959 118 116 84 53
249 959 118 129 96 65
250 957 116 126 97 67
251 957 116 129 99 63
250 958 117 137 105 73
250 959 117 143 111 76
251 958 116 132 102 66
251 958 117 145 115 82
251 959 117 149 119 86
250 959 118 145 111 74
252 952 112 94 72 45
252 952 113 102 80 57
252 953 113 103 80 55
253 952 112 101 78 52
253 952 113 102 79 51
253 953 113 106 83 57
252 954 113 113 90 64
252 955 113 118 94 65
253 954 113 109 86 58
253 955 113 113 89 61
252 955 114 121 96 67
253 955 114 117 93 67
254 952 112 98 76 52
254 952 113 94 73 50
254 953 113 98 77 53
255 952 113 88 66 40
255 953 113 93 72 47
254 954 113 101 80 56
254 955 113 103 81 55
255 954 113 99 77 54
255 955 113 103 80 53
254 955 114 109 86 61
255 955 114 101 76 46
252 956 114 128 102 74
252 956 115 128 101 72
252 957 115 125 98 66
253 956 114 122 100 77
253 956 115 122 97 74
253 957 115 118 92 67
253 958 115 120 95 71
255 956 113 113 88 61
254 956 114 114 92 68
254 957 114 110 85 60
254 957 115 114 90 64
255 956 114 114 89 63
255 957 114 120 95 67
254 958 115 116 91 64
254 959 115 121 95 68
255 958 114 125 99 72
255 958 115 118 93 66
255 959 115 126 98 69
252 957 116 129 101 71
252 958 116 138 110 80
252 958 117 144 114 81
252 959 117 155 127 97
253 958 116 127 101 76
253 959 116 133 106 79
253 959 117 146 118 89
254 959 116 122 97 71
