ply
format ascii 1.0
comment Version 2, Copyright 2017, 8i Labs, Inc.
comment frame_to_world_scale 0.179523
comment frame_to_world_translation -45.2095 7.18301 -54.3561
comment width 1023
element vertex 1434
property float x
property float y
property float z
property uchar red
property uchar green
property uchar blue
end_header
225 128 192 135 66 1
225 128 193 138 68 0
225 129 193 142 66 0
225 128 194 140 68 0
225 128 195 140 63 0
225 129 194 142 64 0
225 129 195 142 62 0
226 129 192 139 66 0
226 129 193 142 64 0
226 129 194 143 62 0
226 129 195 142 61 0
226 130 193 143 65 0
227 130 192 140 70 0
227 130 193 143 65 0
227 131 192 144 68 0
227 131 193 145 67 0
226 130 194 143 61 0
226 130 195 143 60 0
226 131 194 144 62 0
226 131 195 143 63 0
227 131 194 145 65 0
224 128 197 138 66 0
225 128 196 141 63 0
225 128 197 139 63 0
225 129 196 143 61 0
225 129 197 140 62 0
224 128 198 135 66 0
224 128 199 134 64 0
224 129 198 136 66 0
224 129 199 137 64 0
225 129 198 137 64 0
225 129 199 137 63 0
225 130 196 141 59 0
225 130 197 139 60 0
225 131 197 138 61 0
225 130 198 136 63 0
225 130 199 135 63 0
225 131 198 135 65 0
225 131 199 135 67 0
226 130 196 141 59 0
226 131 196 142 61 0
226 131 197 139 62 0
227 132 193 146 69 0
226 132 195 143 64 0
227 132 194 143 68 0
227 132 195 142 65 0
227 133 194 142 70 0
227 133 195 141 69 0
225 132 199 137 67 0
226 132 196 141 63 0
226 132 197 140 64 0
226 133 197 140 63 0
227 132 196 140 62 0
227 133 196 141 64 0
227 133 197 140 63 0
226 132 198 137 67 0
226 132 199 139 66 0
226 133 198 138 66 0
226 133 199 141 65 0
227 133 198 138 66 0
227 133 199 138 68 0
227 134 197 138 63 0
227 134 198 131 69 11
227 134 199 127 76 32
227 135 199 115 89 69
228 132 192 147 67 0
228 132 193 145 69 0
228 133 192 147 68 0
228 133 193 145 69 0
229 133 192 146 68 0
228 133 194 143 71 0
228 133 195 143 69 0
229 134 192 146 67 0
229 134 193 146 67 0
229 135 192 146 69 0
229 135 193 142 71 0
228 134 194 144 67 0
228 134 195 142 67 0
228 135 195 137 72 0
229 134 194 145 68 0
229 135 194 139 72 0
229 135 195 132 77 21
230 135 192 144 72 0
228 134 196 140 66 0
228 134 197 135 69 0
228 135 196 131 75 23
228 135 197 125 76 37
228 135 198 119 82 56
228 135 199 107 96 87
224 128 200 135 62 0
224 128 201 137 64 0
224 129 200 138 61 0
224 129 201 139 61 0
225 129 200 139 62 0
225 129 201 141 62 0
224 128 202 139 67 0
224 128 203 141 67 0
224 129 202 141 66 0
224 129 203 143 68 0
225 130 200 138 62 0
225 130 201 141 62 0
225 131 200 139 65 0
225 131 201 142 64 0
225 130 202 142 65 0
225 130 203 143 69 0
225 131 202 144 65 0
225 131 203 144 69 0
224 128 204 144 66 0
224 128 205 145 63 0
224 129 204 144 69 0
224 129 205 146 65 0
225 129 204 143 68 0
225 129 205 146 64 0
224 128 206 145 61 0
224 128 207 147 61 0
224 129 206 147 59 0
224 129 207 148 56 0
225 129 206 146 59 0
225 129 207 146 56 0
225 130 204 144 68 0
225 130 205 144 65 0
225 131 204 142 70 4
225 131 205 141 72 0
225 130 206 143 62 6
225 130 207 142 59 13
226 131 205 134 69 5
226 130 206 138 64 27
226 130 207 134 62 28
226 131 206 128 71 39
226 131 207 117 76 64
225 132 200 141 65 0
225 132 201 144 63 0
225 132 202 144 64 0
225 132 203 142 68 0
226 132 200 142 63 0
226 132 201 143 61 0
226 133 200 139 64 6
226 133 201 135 63 17
226 132 202 141 65 8
226 132 203 138 67 16
226 133 202 130 68 41
226 133 203 122 77 59
227 133 203 109 88 84
227 134 200 122 77 46
227 134 201 116 81 65
227 135 200 110 91 78
227 135 201 104 101 99
227 134 202 109 89 85
227 134 203 103 99 100
227 135 202 102 104 108
227 135 203 103 108 116
226 132 204 135 76 33
226 132 205 124 78 46
226 133 204 118 82 69
226 133 205 114 85 78
227 133 204 106 93 95
227 133 205 102 96 101
226 132 206 116 83 72
227 132 206 108 94 94
227 132 207 103 94 97
227 133 206 103 104 112
227 133 207 106 109 116
227 134 204 102 106 112
227 134 205 103 110 120
228 135 200 104 100 97
228 135 202 103 111 120
228 135 203 105 113 123
228 133 206 103 111 121
228 133 207 110 114 120
228 134 205 104 112 123
228 135 204 105 113 122
228 135 205 101 108 118
228 134 206 103 111 121
228 134 207 103 105 111
228 135 206 94 100 108
228 135 207 88 89 94
229 135 206 80 84 90
229 135 207 77 69 79
229 136 194 127 79 32
229 136 195 120 84 49
229 137 195 107 97 86
230 136 192 137 74 10
230 136 193 131 77 23
230 137 193 120 89 62
231 137 192 115 90 70
231 137 193 109 99 93
230 136 194 123 83 51
230 137 194 111 99 89
230 137 195 108 108 110
231 137 194 106 106 107
231 138 193 105 110 118
230 138 195 106 113 122
231 138 194 105 112 122
231 138 195 103 113 126
231 139 194 100 111 124
231 139 195 92 104 119
228 136 197 113 89 71
229 136 196 116 88 65
229 136 197 107 96 86
229 137 196 105 103 103
229 137 197 106 109 115
228 136 198 107 99 94
228 136 199 102 104 108
229 136 198 105 100 96
229 137 198 108 113 121
229 137 199 106 113 123
230 137 196 109 113 122
230 137 197 110 116 126
230 138 196 106 115 126
230 138 197 105 114 127
231 139 196 82 98 115
231 139 197 72 91 109
230 138 198 96 107 120
230 138 199 81 93 106
230 139 198 67 86 104
230 139 199 55 70 87
231 139 198 52 76 98
231 139 199 49 63 84
231 140 196 54 79 100
231 140 197 50 77 100
231 140 198 45 72 97
231 140 199 46 67 91
228 136 200 104 108 116
228 136 201 105 112 123
229 137 200 103 109 119
229 137 201 94 102 112
228 136 202 102 112 125
228 136 203 99 108 119
229 136 203 88 97 108
229 137 202 85 91 101
229 137 203 73 75 88
230 137 202 68 63 79
230 137 203 65 50 73
230 138 200 69 77 89
230 138 201 58 62 76
230 139 200 47 56 75
230 139 201 51 47 72
231 139 200 43 52 77
231 139 201 51 48 76
230 138 202 62 45 70
230 138 203 68 39 71
230 139 202 61 45 73
231 139 202 64 44 74
231 139 203 69 45 74
228 136 204 94 102 113
229 136 204 77 86 97
229 136 205 73 79 91
229 137 204 65 61 79
229 137 205 64 49 76
229 136 206 64 57 76
229 136 207 69 47 70
229 137 206 64 42 74
230 137 204 67 47 74
230 137 205 69 48 77
230 137 206 69 45 76
230 137 207 71 48 76
231 137 207 63 52 79
230 138 204 69 42 73
230 138 205 70 46 76
231 138 204 70 41 73
231 138 205 68 47 76
231 139 204 69 51 76
231 139 205 64 53 77
231 138 206 68 56 79
231 138 207 63 65 85
231 139 206 58 56 78
231 140 200 47 62 87
231 140 201 52 57 83
231 140 202 56 49 78
231 140 203 57 48 75
232 138 192 105 109 115
232 138 193 106 114 125
232 139 192 100 112 126
232 139 193 98 111 126
233 139 192 102 114 128
232 139 194 97 109 123
232 140 193 83 101 118
233 140 192 86 104 121
233 140 193 77 97 116
233 141 192 57 83 106
233 141 193 39 70 98
232 140 194 75 94 112
232 140 195 64 86 106
232 141 194 45 74 97
232 141 195 36 69 95
233 140 194 71 92 111
233 141 194 38 67 95
233 141 195 39 63 95
233 142 194 45 67 97
233 142 195 45 67 97
234 141 192 37 65 96
234 142 192 44 61 94
234 142 193 42 63 94
234 143 192 55 73 95
234 143 193 47 70 92
234 142 194 44 67 95
234 143 194 41 67 91
234 143 195 38 66 94
232 140 196 50 77 99
232 140 197 42 72 97
232 141 196 35 65 94
232 141 197 38 67 93
233 141 196 51 69 98
233 141 197 55 75 98
232 141 198 43 72 95
232 141 199 55 77 99
233 141 198 54 75 96
233 141 199 51 73 97
233 142 196 46 68 97
233 142 197 46 72 96
233 143 196 32 61 92
233 143 197 33 62 92
233 142 198 39 69 94
233 142 199 47 69 97
234 143 196 40 65 95
234 143 197 46 70 99
234 143 198 43 71 101
234 143 199 42 71 100
232 139 205 55 54 78
232 139 206 47 60 80
232 139 207 47 68 87
232 140 201 55 63 88
232 141 200 60 78 101
232 141 201 60 78 100
233 141 200 45 73 97
233 141 201 37 72 96
232 140 202 56 61 86
232 140 203 52 55 80
232 141 202 56 74 96
232 141 203 55 74 94
233 141 202 41 75 99
233 141 203 51 81 104
233 142 200 49 75 100
233 142 201 44 78 102
233 142 202 52 85 109
233 142 203 58 89 114
234 142 200 55 81 106
234 142 201 56 86 110
234 143 200 45 79 106
234 143 201 45 84 110
234 142 202 58 91 116
234 142 203 60 92 118
234 143 202 61 93 119
234 143 203 59 95 122
235 143 202 55 92 119
235 143 203 59 96 124
232 140 204 48 53 79
232 140 205 52 66 87
232 141 204 49 73 93
233 141 204 54 82 105
233 141 205 52 84 107
232 140 206 54 73 92
232 140 207 57 80 100
233 140 206 60 83 102
233 140 207 57 83 105
233 141 206 46 80 105
233 141 207 36 75 102
234 141 206 51 88 115
234 141 207 48 85 112
234 142 204 60 94 121
234 142 205 58 95 123
234 143 204 55 94 123
234 143 205 52 92 121
235 143 204 60 97 125
235 143 205 55 94 123
234 142 206 58 95 123
234 142 207 57 93 121
234 143 206 51 93 122
234 143 207 52 93 122
235 143 206 54 95 124
235 143 207 54 94 124
224 128 208 147 60 0
224 128 209 148 62 0
224 129 208 148 54 0
224 129 209 148 59 0
225 129 208 144 55 1
225 129 209 144 64 0
224 129 210 143 67 0
224 129 211 138 69 4
225 130 208 136 68 29
225 130 209 132 74 38
224 130 210 128 73 31
224 130 211 123 78 58
225 130 210 125 77 49
225 130 211 116 81 69
225 131 210 109 87 84
225 131 211 103 95 98
226 130 208 130 68 36
226 131 208 111 84 79
226 131 209 109 90 86
226 131 210 101 97 102
224 129 212 134 69 33
224 130 212 120 80 72
224 130 213 117 82 79
224 131 212 107 94 97
224 131 213 104 99 103
225 131 212 104 100 104
225 131 213 102 104 109
224 130 214 110 87 87
224 131 214 101 102 106
224 131 215 106 106 108
226 132 208 102 101 107
226 132 209 99 100 108
227 132 208 104 104 109
227 132 209 106 110 117
227 133 208 111 113 117
227 133 209 114 114 117
226 132 210 101 107 115
226 132 211 106 112 119
226 133 211 116 112 116
227 132 210 103 110 118
227 133 210 114 111 116
227 133 211 119 99 106
225 132 212 104 109 115
225 132 213 108 109 113
224 132 214 109 111 114
224 132 215 114 111 113
224 133 215 121 110 111
225 132 214 113 110 112
225 132 215 117 112 113
225 133 214 119 104 107
225 133 215 117 95 98
225 134 215 116 94 90
226 132 212 112 113 117
226 132 213 111 110 112
226 133 212 119 110 113
226 133 213 120 101 104
227 133 212 120 90 97
227 133 213 118 83 90
226 133 214 120 96 101
226 133 215 119 88 97
227 134 212 119 68 82
227 134 213 114 67 79
226 134 214 113 79 88
226 134 215 111 78 87
226 135 215 100 71 79
227 134 214 110 67 80
227 135 214 111 76 85
227 135 215 109 80 89
228 133 208 116 114 116
228 133 209 117 111 109
228 133 210 120 98 105
228 134 208 104 97 101
228 134 209 107 88 95
229 135 208 82 62 77
229 135 209 86 55 77
228 134 210 115 77 92
228 134 211 118 67 87
228 135 211 112 68 88
229 135 210 93 57 79
229 135 211 105 70 88
228 134 212 118 62 81
228 135 212 110 69 84
228 135 213 109 71 82
229 135 212 108 77 91
228 135 214 103 77 81
224 132 216 116 112 112
224 132 217 117 112 111
224 133 216 120 108 108
224 133 217 119 108 107
225 133 216 115 94 94
224 133 218 120 108 106
224 133 219 119 104 101
224 134 217 120 99 99
225 134 216 117 92 92
225 134 217 118 91 93
225 135 216 115 87 91
225 135 217 119 94 95
224 134 218 120 102 101
224 134 219 119 97 94
224 135 218 121 100 98
224 135 219 124 100 95
225 135 218 120 99 97
226 135 216 112 84 88
224 135 220 125 90 86
224 135 221 126 89 83
227 136 215 112 78 91
227 137 215 114 77 92
229 136 208 75 48 71
229 136 209 76 50 75
229 136 210 77 60 79
229 136 211 81 66 82
230 136 208 78 56 79
230 136 209 78 65 83
230 137 208 72 58 82
230 137 209 70 65 85
231 137 208 58 56 81
231 137 209 54 61 83
230 136 210 76 70 84
230 137 210 71 73 94
230 137 211 72 78 97
231 137 210 55 63 89
231 138 208 62 73 91
231 138 209 56 74 94
230 138 211 55 77 101
231 138 210 54 77 101
231 138 211 58 82 106
231 139 210 36 71 98
231 139 211 40 77 102
228 136 213 104 85 90
229 136 212 90 74 86
229 136 213 96 80 90
229 137 212 82 81 96
229 137 213 88 78 95
228 136 214 108 80 87
228 136 215 112 78 90
228 137 214 114 85 98
228 137 215 112 81 98
229 137 214 99 80 97
229 137 215 101 76 94
228 138 215 105 83 97
229 138 214 75 76 94
229 138 215 91 82 96
229 139 215 64 78 91
230 137 212 70 78 99
230 137 213 73 77 96
230 138 212 52 77 100
230 138 213 53 74 96
230 139 213 59 87 109
231 138 212 59 85 108
231 139 212 47 82 107
231 139 213 46 81 106
230 138 214 53 73 92
230 139 214 55 82 103
230 139 215 59 83 102
229 140 215 59 79 96
231 140 212 32 74 101
231 140 213 37 75 102
231 141 213 49 72 102
230 140 214 44 77 101
230 140 215 51 79 102
230 141 215 52 78 104
231 140 214 42 75 101
231 141 214 49 70 100
231 141 215 51 71 101
231 142 214 51 74 101
231 142 215 48 71 99
231 143 215 53 74 101
225 136 217 113 95 95
224 136 219 122 100 94
224 137 219 121 100 94
225 136 218 114 99 97
225 136 219 119 100 96
225 137 218 112 99 97
225 137 219 119 104 100
225 138 219 118 102 101
226 136 216 112 84 94
226 136 217 112 88 94
226 137 217 111 89 97
227 136 216 111 80 96
227 137 216 112 79 96
227 137 217 108 80 93
226 137 218 107 95 97
226 137 219 113 102 100
227 138 217 107 87 93
226 138 218 109 93 94
226 138 219 113 98 99
226 139 219 116 101 100
227 138 218 109 90 93
227 139 218 106 86 85
227 139 219 109 92 91
224 136 220 127 98 92
224 136 221 130 98 90
224 137 220 123 96 92
224 137 221 125 92 87
225 137 220 124 103 99
224 136 222 128 94 85
224 136 223 128 86 76
224 137 222 126 90 86
224 137 223 130 89 87
224 138 221 129 94 91
225 138 220 122 101 101
225 138 221 125 96 94
225 139 220 118 104 105
225 139 221 115 100 98
224 138 222 131 91 91
224 138 223 132 81 85
224 139 223 130 88 91
225 139 222 121 94 95
225 139 223 124 89 93
226 139 220 118 105 103
227 140 219 114 91 93
227 141 219 114 87 93
224 140 223 122 76 82
225 140 222 121 97 98
225 140 223 122 82 89
225 141 223 121 89 93
226 140 220 117 103 96
226 140 221 118 105 100
226 141 221 115 100 95
227 140 220 113 95 91
227 141 220 113 92 90
227 141 221 115 96 89
226 140 222 118 102 99
226 141 222 115 101 95
226 141 223 113 92 91
227 141 222 116 102 92
227 142 221 120 91 91
226 142 222 118 99 96
226 142 223 119 94 96
226 143 223 122 97 98
227 142 222 119 96 95
227 143 222 123 96 96
227 143 223 122 100 98
228 137 216 110 85 100
228 138 216 101 82 92
228 138 217 100 84 89
228 139 216 93 89 92
228 139 217 96 87 89
229 139 216 80 83 88
228 139 218 102 88 89
228 140 217 89 85 94
229 140 216 64 83 98
229 140 217 78 85 97
229 141 216 56 81 103
229 141 217 75 83 102
228 140 218 100 85 97
228 140 219 109 83 95
228 141 218 102 81 102
228 141 219 114 79 99
229 141 218 93 80 102
229 141 219 109 81 103
228 142 219 122 79 97
229 142 218 95 74 96
229 142 219 112 77 95
229 143 219 112 80 85
230 141 216 52 81 103
230 141 217 68 84 101
230 142 216 49 77 95
230 142 217 67 80 94
230 143 217 73 78 90
231 142 216 51 73 94
231 143 216 65 75 98
231 143 217 68 74 90
230 142 218 86 76 92
230 143 218 89 78 88
230 143 219 103 72 82
228 141 220 114 88 93
228 142 220 119 89 91
228 142 221 118 93 92
228 143 220 120 96 90
228 143 221 122 97 93
229 143 220 117 84 79
228 143 222 122 96 92
232 139 208 47 74 95
232 139 209 48 78 100
232 139 210 38 75 100
232 139 211 29 72 99
232 140 208 59 84 106
232 140 209 60 87 109
233 140 208 57 84 107
233 140 209 60 87 110
233 141 208 33 75 103
233 141 209 30 73 102
232 140 210 60 87 108
232 140 211 48 81 105
232 141 210 50 79 102
232 141 211 46 77 101
233 141 210 37 75 99
233 142 209 36 79 108
232 142 211 45 77 103
233 142 210 41 78 105
233 142 211 40 76 103
233 143 210 33 76 107
233 143 211 26 71 102
234 142 208 52 89 116
234 142 209 37 81 110
234 143 208 54 92 121
234 143 209 47 88 116
234 143 210 47 85 114
232 140 212 51 78 104
232 141 212 49 74 103
232 141 213 47 71 101
232 142 212 45 76 103
232 142 213 50 77 104
232 143 212 27 71 100
232 143 213 30 71 99
233 143 212 26 72 101
232 142 214 50 77 103
232 143 214 34 72 99
232 143 215 40 71 99
234 144 192 45 72 91
234 144 193 47 72 92
235 144 192 41 70 92
235 144 193 50 74 95
235 145 192 45 68 97
235 145 193 46 70 98
234 144 194 52 71 95
234 144 195 55 70 98
235 145 194 35 66 94
235 145 195 40 65 92
234 144 196 53 69 98
234 144 197 43 65 98
235 144 197 34 61 94
235 145 196 44 68 94
235 145 197 46 73 98
234 144 198 23 59 97
235 144 198 30 65 97
235 144 199 30 74 103
235 145 198 51 80 104
235 145 199 59 93 118
236 146 192 44 68 98
236 146 193 45 72 99
236 147 192 40 68 100
236 147 193 43 69 100
236 146 194 47 73 97
236 146 195 45 71 96
236 147 194 39 69 95
236 147 195 19 62 92
237 147 194 28 62 93
237 147 195 15 61 94
236 145 196 49 74 97
236 145 197 50 80 103
236 145 198 50 84 110
236 145 199 53 91 119
236 146 196 42 74 99
236 146 197 26 70 100
236 147 196 22 69 98
236 147 197 21 73 104
237 147 196 24 71 100
237 147 197 34 80 109
236 146 198 35 79 109
236 146 199 49 89 117
237 147 198 44 87 116
237 147 199 53 92 121
237 148 192 37 59 96
237 148 193 34 58 97
237 149 192 52 70 95
237 149 193 53 76 102
237 148 194 37 68 99
237 148 195 44 78 106
237 149 194 49 79 107
237 149 195 48 86 112
238 149 192 64 62 84
238 149 193 54 66 89
238 149 194 44 72 99
238 149 195 50 86 111
238 150 192 82 61 78
238 150 193 73 62 80
238 151 192 100 67 74
238 151 193 89 67 75
239 151 192 98 69 72
239 151 193 93 72 73
238 150 194 66 70 90
238 150 195 55 81 102
238 151 194 82 74 85
238 151 195 78 83 96
239 151 194 89 81 85
239 151 195 92 90 99
237 148 196 48 85 112
237 148 197 50 89 116
237 149 196 51 90 118
237 149 197 50 91 120
237 148 198 55 93 121
237 148 199 52 93 123
237 149 198 46 90 120
237 149 199 39 89 121
238 149 196 54 92 119
238 149 197 53 93 121
238 150 196 55 89 114
238 150 197 55 93 120
238 151 196 72 87 104
238 151 197 75 89 109
239 151 196 87 87 102
238 150 198 47 91 119
238 150 199 38 87 117
238 151 198 65 88 113
238 151 199 57 86 112
235 144 200 35 81 109
235 144 201 44 87 116
235 145 200 61 95 122
235 145 201 59 96 124
235 144 202 52 93 121
235 144 203 58 96 125
235 144 204 60 97 125
235 144 205 59 96 125
235 144 206 58 97 125
235 144 207 56 96 125
235 145 206 55 96 125
235 145 207 55 95 125
236 145 200 56 95 123
236 145 201 57 96 125
236 145 202 58 96 124
236 145 203 57 95 123
236 146 200 52 93 122
236 146 201 52 94 124
237 146 201 52 94 124
237 147 200 54 94 123
237 147 201 53 94 123
236 146 202 56 95 123
236 146 203 57 95 123
237 146 202 55 94 122
237 146 203 54 94 123
237 147 202 54 93 122
237 147 203 53 94 123
236 145 204 55 94 123
236 145 205 51 93 122
236 145 206 51 93 122
236 145 207 53 94 123
236 146 205 52 94 124
237 146 204 53 94 123
237 146 205 52 95 124
237 147 204 52 93 123
237 147 205 52 94 123
236 146 206 52 93 123
236 146 207 52 93 122
236 147 207 61 98 126
237 146 206 53 94 124
237 147 206 55 96 125
237 147 207 59 98 127
237 148 200 53 95 125
237 148 201 49 93 122
237 149 200 42 90 121
237 149 201 44 91 122
237 148 202 48 91 121
237 148 203 54 94 124
237 149 202 46 91 121
238 149 201 41 90 121
238 148 203 51 93 123
238 149 202 44 89 120
238 149 203 46 90 120
238 150 200 42 88 117
238 150 201 48 90 119
238 151 200 59 88 112
238 151 201 61 90 113
238 150 202 50 90 119
238 150 203 50 91 119
238 151 202 64 93 116
238 151 203 64 95 119
239 151 202 64 91 113
239 151 203 64 94 117
237 148 204 55 95 124
237 148 205 55 94 123
237 148 206 54 94 124
237 148 207 55 95 125
237 149 207 57 94 122
238 148 204 54 94 123
238 148 205 55 94 122
238 149 204 49 90 120
238 149 205 51 92 121
238 148 206 53 94 123
238 149 206 53 92 121
238 149 207 62 94 120
238 150 204 48 91 120
238 150 205 50 91 120
239 151 204 60 92 117
239 151 205 57 90 115
238 150 206 59 92 119
238 150 207 73 97 118
238 151 206 66 93 116
238 151 207 76 95 114
239 151 206 66 92 114
239 152 192 99 76 73
239 152 193 100 88 84
239 153 192 98 81 84
239 153 193 98 88 89
239 152 194 95 88 89
239 152 195 94 84 91
239 153 194 93 82 89
239 153 195 92 74 83
239 152 196 91 78 91
239 152 197 90 79 95
239 153 196 95 75 85
239 153 197 97 79 88
239 152 198 91 80 102
239 152 199 82 83 102
239 153 198 95 81 91
239 153 199 90 83 94
239 152 200 79 87 102
239 152 201 72 86 103
239 153 200 84 81 92
239 153 201 79 80 92
239 152 202 68 87 105
239 152 203 72 90 109
239 153 202 82 84 98
239 153 203 86 93 106
239 152 204 74 92 110
239 152 205 75 93 109
239 153 204 87 95 106
239 153 205 94 94 100
238 152 207 79 93 109
239 152 206 78 93 108
239 152 207 81 93 107
239 153 206 97 93 98
239 153 207 103 95 102
239 154 207 112 93 89
227 144 223 124 107 98
227 145 223 128 112 100
231 144 217 78 73 92
231 145 217 92 82 98
230 144 218 93 77 86
230 144 219 112 85 89
230 145 219 114 90 92
231 144 218 91 80 91
231 145 218 106 90 97
231 145 219 110 94 95
231 146 218 97 79 78
231 146 219 104 89 80
231 147 219 106 91 78
228 144 221 118 96 91
229 144 220 119 83 79
229 144 221 117 90 85
229 145 220 120 88 90
229 145 221 120 84 90
228 144 222 119 98 92
228 144 223 123 102 94
228 145 222 123 90 90
228 145 223 128 99 94
229 145 222 124 84 90
229 146 221 117 87 89
228 146 223 128 98 95
229 146 222 120 88 89
229 146 223 123 90 90
229 147 222 120 100 94
229 147 223 121 96 94
230 145 220 117 89 93
230 146 220 120 97 94
230 146 221 119 97 96
230 147 220 107 88 81
230 147 221 108 90 82
231 147 220 105 87 76
230 147 222 116 99 92
231 148 219 115 94 86
229 148 223 126 96 101
230 148 221 111 95 89
231 148 220 116 92 88
231 148 221 116 96 91
231 149 220 114 73 83
231 149 221 115 79 79
230 148 222 115 94 91
230 148 223 119 89 91
230 149 223 127 95 96
231 149 222 118 84 81
231 149 223 115 80 75
231 150 222 118 91 81
231 150 223 112 90 76
233 144 210 49 87 115
233 144 211 40 82 110
233 145 210 53 91 118
233 145 211 52 90 116
233 146 211 63 97 123
234 144 208 51 93 122
234 144 209 52 92 121
234 145 209 56 96 125
235 144 208 55 95 124
235 145 208 54 95 125
235 145 209 52 95 125
234 144 210 53 91 118
234 145 210 58 94 122
234 145 211 61 95 122
234 146 209 49 94 125
235 146 208 47 91 121
235 146 209 46 91 122
235 147 209 55 93 122
234 146 210 58 96 124
234 146 211 63 97 124
234 147 210 51 92 121
234 147 211 53 92 121
235 147 210 51 92 121
232 144 213 33 75 102
233 144 212 32 77 104
233 144 213 26 74 102
233 145 212 46 85 112
233 145 213 35 78 105
232 144 214 36 74 101
232 144 215 46 72 101
232 145 214 29 72 99
232 145 215 52 75 98
233 145 214 38 75 100
233 145 215 44 75 98
233 146 212 63 96 122
233 146 213 64 93 116
233 147 212 62 95 120
233 147 213 69 95 117
232 146 215 76 88 101
233 146 214 64 87 107
233 146 215 71 87 102
233 147 214 73 91 109
233 147 215 80 87 98
234 147 212 62 95 120
234 147 213 70 96 119
234 148 211 52 90 118
235 148 210 55 93 121
235 148 211 57 92 119
235 149 210 65 95 121
235 149 211 71 97 119
233 148 214 89 100 113
233 148 215 95 96 104
233 149 215 101 93 101
234 148 212 66 94 118
234 148 213 76 96 115
234 149 213 78 95 111
235 149 212 76 95 113
235 149 213 84 96 109
234 148 214 87 99 112
234 148 215 92 97 106
234 149 214 89 96 106
234 149 215 95 96 102
235 149 214 90 96 106
235 150 212 86 96 108
235 150 213 88 95 105
234 150 215 95 97 104
235 150 214 89 94 102
235 150 215 89 93 100
235 151 214 95 98 106
235 151 215 93 97 105
236 146 208 52 92 121
236 147 208 63 97 124
236 147 209 60 96 124
236 148 208 61 98 126
236 148 209 61 97 124
236 149 209 57 95 123
237 148 208 57 95 124
237 149 208 58 93 120
237 149 209 62 94 119
236 148 210 62 97 124
236 149 210 69 95 118
236 149 211 76 96 115
237 149 210 68 93 115
237 150 209 78 95 112
237 151 209 92 99 109
236 150 210 81 95 110
236 150 211 86 97 110
236 151 211 95 100 110
237 150 210 82 94 109
237 151 210 93 98 109
237 151 211 92 97 107
238 149 208 64 93 118
238 150 208 77 95 115
238 150 209 84 96 111
238 151 208 82 95 110
238 151 209 92 99 109
236 150 212 87 96 108
236 151 212 94 98 106
236 151 213 96 99 107
236 151 214 100 102 109
232 144 216 70 70 98
232 144 217 79 76 97
232 145 216 74 77 95
232 145 217 91 81 96
232 145 218 104 80 87
232 146 216 83 86 92
232 146 217 98 86 92
232 147 216 85 84 85
232 147 217 94 86 83
233 147 216 85 83 83
232 146 218 100 83 83
232 147 218 103 90 83
232 147 219 109 95 85
232 148 217 94 79 74
233 148 216 103 93 95
233 148 217 105 91 91
233 149 216 103 93 100
233 149 217 105 91 95
232 148 218 102 80 76
232 148 219 107 79 77
232 149 218 119 94 97
232 149 219 118 86 90
233 149 218 109 88 91
233 149 219 109 84 84
233 150 217 102 99 102
233 150 218 104 100 100
233 150 219 108 93 88
233 151 218 94 97 102
233 151 219 98 96 99
234 149 216 98 97 103
234 150 216 99 101 106
234 150 217 99 100 105
234 151 216 92 96 102
234 151 217 90 95 103
235 151 216 98 99 105
234 151 218 88 94 103
234 151 219 86 92 100
232 149 220 121 85 89
232 149 221 121 85 84
232 150 220 112 83 72
232 150 221 112 81 73
232 151 221 110 91 87
233 150 220 114 95 89
233 151 220 104 95 93
233 151 221 111 96 94
232 150 222 110 84 72
232 150 223 107 89 69
232 151 222 108 87 82
232 151 223 107 87 75
235 152 215 101 101 109
235 153 215 101 99 104
237 152 210 89 93 104
237 152 211 90 93 103
237 153 211 93 97 105
238 152 208 85 93 107
238 152 209 89 93 104
238 153 209 100 99 112
239 153 208 104 98 107
239 153 209 106 100 109
238 152 210 88 92 103
238 153 210 96 96 106
238 153 211 94 96 103
239 154 208 110 92 85
239 154 209 103 90 87
239 155 209 119 99 85
238 154 210 98 93 95
238 154 211 97 94 96
238 155 211 99 93 93
239 154 210 100 91 90
239 155 210 108 95 87
239 155 211 103 94 89
236 152 212 95 97 104
236 152 213 93 95 101
236 153 213 97 98 104
237 152 212 94 96 103
237 153 212 95 97 104
237 153 213 98 99 106
236 152 214 96 98 104
236 152 215 95 97 104
236 153 214 99 99 105
236 153 215 102 102 107
237 153 214 100 100 107
237 154 212 92 93 100
237 154 213 93 95 101
237 155 213 101 101 107
236 154 215 96 97 102
236 155 215 99 98 105
237 154 214 95 96 102
237 154 215 93 94 99
237 155 214 103 103 109
237 155 215 104 105 110
238 154 212 92 92 96
238 155 212 96 94 96
238 155 213 100 100 104
239 156 210 116 91 79
239 156 211 105 90 80
239 157 210 123 83 76
239 157 211 121 84 76
237 156 214 99 99 107
237 156 215 103 102 109
237 157 215 89 92 102
237 158 215 106 85 100
238 156 212 97 92 90
238 156 213 95 94 97
238 157 213 105 92 91
239 156 212 99 87 79
239 157 212 116 89 82
239 157 213 123 92 92
238 156 214 92 94 100
238 157 214 100 93 99
238 157 215 96 92 100
238 158 213 125 93 94
239 158 212 123 81 66
239 158 213 125 87 83
239 159 212 123 79 56
239 159 213 123 78 65
238 158 214 120 89 94
238 158 215 110 88 98
238 159 214 122 85 85
238 159 215 116 86 91
239 159 214 122 76 72
234 152 217 103 102 113
235 152 216 106 101 111
235 152 217 107 103 114
235 153 216 103 100 103
235 153 217 99 98 102
234 152 218 101 101 112
234 152 219 100 99 109
234 153 218 102 101 108
234 153 219 98 97 102
235 153 218 95 96 102
235 153 219 90 93 98
235 154 217 100 103 108
235 154 218 99 103 109
235 154 219 100 103 110
235 155 218 99 98 109
235 155 219 103 100 110
233 152 220 99 91 98
233 152 221 101 85 91
233 153 221 104 91 92
232 152 223 120 92 95
233 152 222 105 78 86
233 152 223 111 72 85
233 153 222 105 90 90
233 153 223 108 79 87
233 154 223 93 82 82
233 155 223 90 82 86
234 152 220 105 98 105
234 153 220 101 96 98
234 153 221 101 95 95
234 153 222 99 94 93
234 154 220 91 93 99
234 154 221 90 92 98
234 155 221 96 95 103
235 154 220 97 100 108
235 155 220 105 103 111
235 155 221 97 96 106
234 154 222 90 88 91
234 154 223 87 84 85
234 155 222 89 86 95
234 155 223 88 84 89
235 156 219 98 89 96
233 156 223 93 83 91
235 156 220 95 86 92
235 156 221 96 87 95
235 157 220 83 77 79
235 157 221 81 76 76
234 156 222 88 80 93
234 156 223 90 81 90
234 157 222 86 82 83
234 157 223 84 82 85
235 156 222 91 84 92
235 157 222 83 80 80
235 158 220 81 78 85
235 158 221 78 73 79
235 159 220 82 80 85
235 159 221 77 75 78
234 158 223 81 80 83
234 159 223 78 78 80
235 158 222 80 77 78
235 159 222 79 75 76
236 153 216 109 107 108
236 154 216 97 98 104
236 154 217 93 97 104
236 155 216 99 95 110
236 155 217 97 93 108
236 155 218 98 93 106
236 156 216 110 108 112
236 156 217 108 104 109
236 157 217 99 102 108
237 156 216 110 107 107
237 157 216 92 95 103
237 157 217 90 95 105
236 156 218 103 97 102
236 156 219 99 91 96
236 157 218 94 97 104
236 157 219 84 84 88
237 158 216 98 78 97
237 158 217 94 81 98
237 159 216 100 78 93
237 159 217 97 75 93
236 158 218 92 88 100
236 158 219 86 86 95
236 159 218 89 75 93
236 159 219 84 77 90
237 159 218 93 76 94
236 157 220 79 77 81
236 158 220 82 81 88
236 159 220 81 78 86
240 153 192 89 71 81
240 153 193 92 79 89
240 153 194 91 76 90
240 153 195 96 77 90
240 154 192 90 78 86
240 154 193 94 84 93
240 155 192 96 89 95
241 155 192 93 82 93
241 155 193 92 84 95
240 154 194 90 79 89
241 154 194 90 83 90
241 154 195 88 74 86
241 155 194 93 87 96
241 155 195 91 81 93
242 155 195 97 89 99
240 153 196 97 75 87
240 153 197 91 73 85
240 153 198 90 78 89
240 153 199 91 81 90
241 154 196 90 72 91
241 154 197 94 76 97
241 155 196 94 84 99
240 154 199 93 82 90
241 154 198 91 74 95
241 154 199 90 79 89
241 155 199 85 77 85
242 155 196 92 82 97
242 155 197 91 79 98
242 155 198 92 82 98
242 155 199 93 81 91
241 156 192 88 74 88
241 156 193 92 81 94
241 157 192 93 78 90
241 157 193 93 79 92
241 156 194 95 87 97
242 157 192 88 75 84
242 157 193 87 72 84
242 156 194 95 84 96
242 156 195 91 83 94
242 157 194 90 75 90
243 157 194 91 77 91
243 157 195 90 84 92
242 158 192 90 77 84
242 158 193 92 79 87
242 159 192 96 79 89
243 159 192 95 74 88
243 159 193 95 75 89
242 158 194 93 75 87
243 158 194 96 78 88
243 158 195 95 83 89
243 159 194 95 74 86
242 156 196 85 81 93
242 156 197 85 80 94
243 156 196 91 90 98
243 156 197 93 90 99
243 157 196 94 93 98
243 157 197 96 94 100
242 156 198 90 83 97
242 156 199 100 86 95
243 156 198 93 85 97
243 156 199 98 80 89
244 158 195 93 77 85
244 159 194 92 71 86
244 159 195 96 72 86
245 159 195 106 76 88
244 157 196 87 78 83
244 157 197 94 80 88
244 157 198 103 83 94
244 157 199 110 85 91
245 157 198 116 79 87
245 157 199 121 81 85
244 158 196 97 75 82
245 158 196 108 74 82
245 158 197 115 78 84
245 159 196 116 76 86
245 159 197 120 72 81
245 158 198 120 80 84
245 158 199 129 81 80
246 159 197 131 78 77
246 158 198 132 81 73
246 158 199 136 83 74
246 159 198 135 80 66
246 159 199 136 81 55
240 153 200 89 83 92
240 153 201 88 84 94
240 153 202 92 82 95
240 153 203 97 83 95
240 154 200 93 84 92
240 154 201 92 82 92
241 154 200 89 79 88
241 154 201 92 79 91
241 155 200 87 77 87
241 155 201 96 79 90
240 154 202 96 77 90
240 154 203 105 78 87
241 154 202 100 77 89
241 154 203 109 76 85
241 155 202 104 75 87
241 155 203 113 74 80
242 155 200 101 83 92
242 155 201 105 82 91
242 155 202 112 75 82
242 155 203 119 75 73
240 153 204 102 89 96
240 153 205 112 93 94
240 153 206 112 96 95
240 154 204 113 85 89
240 154 205 120 88 83
241 154 204 117 83 84
241 155 204 121 78 74
241 155 205 127 84 68
240 154 206 121 89 82
240 154 207 120 94 85
240 155 206 127 86 68
240 155 207 131 92 75
241 155 206 129 84 66
242 155 204 126 79 68
242 156 200 108 85 92
242 156 201 117 85 89
243 156 200 109 82 84
243 156 201 121 85 75
242 156 202 127 85 80
242 156 203 130 83 67
243 156 202 132 90 70
243 156 203 132 86 57
243 157 202 129 87 55
243 157 203 130 86 56
240 156 207 130 84 66
241 156 206 132 80 65
241 156 207 133 85 69
241 157 206 132 78 63
241 157 207 135 86 70
242 156 204 132 84 63
242 156 205 132 79 67
242 157 205 131 79 66
243 157 204 129 82 63
243 157 205 129 81 66
242 156 206 132 77 65
242 157 206 132 82 66
242 157 207 134 88 70
243 158 205 129 82 64
243 159 205 131 84 63
242 158 206 130 86 65
242 158 207 132 88 64
242 159 207 132 88 67
243 158 206 129 84 64
243 159 206 132 87 67
244 157 200 118 89 85
244 157 201 125 90 70
245 157 200 124 84 79
244 157 202 129 88 64
244 157 203 128 81 62
245 158 200 131 84 70
245 158 201 131 87 67
244 158 203 133 79 79
245 158 202 131 83 67
245 158 203 131 76 73
245 159 202 130 77 58
245 159 203 129 73 65
246 158 200 136 84 70
246 159 200 134 79 54
246 159 201 133 79 55
246 159 202 131 77 53
244 158 204 130 78 75
244 158 205 129 82 62
244 159 204 131 73 69
244 159 205 132 84 62
240 155 208 129 97 81
240 155 209 131 98 83
240 156 208 129 86 67
240 156 209 128 90 72
240 157 209 130 87 68
241 157 208 135 90 72
241 157 209 134 93 74
240 156 210 123 87 70
240 157 210 127 83 68
240 157 211 126 81 68
241 158 208 129 86 61
241 158 209 126 83 55
241 159 209 124 84 56
240 158 210 124 84 54
240 158 211 125 84 59
240 159 210 123 82 53
240 159 211 124 83 54
241 158 210 124 83 53
241 159 210 121 80 47
242 158 208 130 88 63
242 159 208 130 90 66
240 159 212 123 79 52
