ply
format ascii 1.0
comment Version 2, Copyright 2017, 8i Labs, Inc.
comment frame_to_world_scale 0.179523
comment frame_to_world_translation -45.2095 7.18301 -54.3561
comment width 1023
element vertex 1513
property float x
property float y
property float z
property uchar red
property uchar green
property uchar blue
end_header
231 129 166 110 95 80
231 129 167 112 95 80
231 131 165 108 93 80
231 130 166 110 94 80
231 130 167 110 94 79
231 131 166 108 93 79
231 131 167 108 93 78
231 132 166 107 92 79
231 132 167 106 91 76
230 129 168 111 94 78
230 129 169 111 94 78
231 128 168 113 96 79
231 128 169 113 96 78
231 129 168 112 95 79
231 129 169 112 95 78
230 128 170 112 95 78
230 128 171 113 95 77
230 129 170 112 94 76
230 129 171 113 94 76
231 128 170 113 95 78
230 130 168 110 94 78
230 130 169 112 94 78
230 131 168 110 93 78
230 131 169 112 96 81
231 130 168 111 94 78
231 131 168 109 93 78
231 131 169 112 97 83
230 130 170 112 94 77
230 130 171 113 94 75
230 131 170 116 100 85
230 131 171 118 102 86
229 129 173 117 97 77
229 128 174 118 98 77
229 128 175 118 98 78
229 129 174 118 98 78
229 129 175 119 99 77
229 130 174 120 98 76
229 130 175 123 98 70
230 128 172 114 95 77
230 128 173 116 97 77
230 129 172 114 95 76
230 129 173 116 96 77
230 128 174 117 98 77
230 130 172 116 98 80
230 130 173 117 99 80
230 131 172 118 100 78
230 131 173 120 97 65
230 130 174 121 98 72
230 130 175 125 98 61
230 131 174 124 94 48
230 131 175 128 92 29
231 132 168 107 90 75
231 132 169 109 93 80
231 133 168 107 90 75
231 133 169 103 87 75
230 132 171 118 97 74
231 132 170 113 96 79
231 132 171 116 94 72
231 133 170 112 92 66
231 133 171 120 90 56
230 132 172 118 92 57
230 132 173 122 86 26
230 133 173 134 76 5
231 132 172 118 91 60
231 133 172 125 87 27
231 133 173 133 78 7
230 132 174 131 82 8
230 132 175 136 79 3
230 133 174 139 74 2
230 133 175 143 70 0
231 133 174 143 72 0
231 133 175 145 72 0
231 134 172 134 78 8
231 134 173 141 72 1
231 134 174 143 69 0
231 134 175 143 70 0
231 135 174 143 67 0
231 135 175 142 68 0
233 129 163 107 94 82
233 130 162 107 94 83
233 130 163 108 95 83
233 131 162 107 94 83
233 131 163 108 94 83
235 129 161 107 94 84
234 128 163 107 95 83
234 129 162 107 94 82
234 129 163 107 94 82
235 128 162 106 94 82
235 128 163 107 95 83
235 129 162 106 94 83
234 130 161 109 96 85
234 131 161 109 96 85
235 130 161 109 96 85
235 131 160 111 98 87
235 131 161 110 98 86
234 130 162 107 94 83
234 131 162 107 94 84
232 129 165 111 97 83
233 128 165 112 97 84
233 129 164 109 95 83
233 129 165 111 97 84
232 128 166 113 97 82
232 128 167 113 96 80
232 129 166 112 97 82
232 129 167 113 97 81
233 128 166 113 98 83
233 128 167 113 97 82
232 130 164 109 96 83
232 130 165 110 95 82
232 131 164 108 94 83
232 131 165 108 94 81
233 130 164 108 95 83
233 131 164 108 94 83
234 128 164 109 96 83
234 128 165 111 97 83
234 129 164 109 96 84
235 128 164 109 95 83
235 128 165 110 96 83
234 128 166 112 97 83
233 132 162 107 94 84
233 132 163 107 94 84
233 133 162 106 94 85
233 133 163 107 95 85
234 132 161 108 95 85
234 133 161 107 95 85
235 132 160 111 97 87
235 132 161 109 96 85
235 133 160 108 95 85
235 133 161 107 95 84
234 132 162 107 94 84
234 133 162 106 94 85
234 133 163 107 95 86
235 134 160 105 91 81
235 134 161 105 91 82
235 135 161 99 88 81
234 134 162 107 95 84
234 134 163 111 99 88
234 135 162 105 93 83
234 135 163 110 97 87
235 135 162 104 92 81
235 135 163 109 96 84
232 132 164 108 94 83
232 132 165 108 94 82
232 133 165 111 97 85
233 132 164 108 94 84
233 133 164 112 99 87
233 133 165 115 101 88
232 132 166 107 91 77
232 133 166 109 95 81
232 133 167 107 92 76
233 133 166 108 95 83
233 133 167 104 90 77
233 134 166 112 98 83
233 134 167 106 91 74
234 134 164 116 103 92
234 134 165 120 105 91
234 135 164 115 101 91
234 135 165 121 102 85
235 135 164 116 99 85
235 135 165 122 99 75
234 134 166 116 98 81
234 134 167 110 90 68
234 135 166 123 97 69
234 135 167 119 90 54
235 135 166 124 94 56
235 135 167 123 90 46
236 128 161 106 94 83
236 129 160 109 97 86
236 129 161 107 95 84
237 128 161 106 94 83
237 129 160 108 95 85
237 129 161 107 94 84
236 128 162 106 94 83
236 128 163 107 95 83
237 128 162 106 94 83
236 130 160 111 98 87
236 131 160 112 98 87
238 128 160 105 93 83
238 128 161 106 94 83
238 129 160 106 94 84
239 128 160 105 93 83
236 133 160 108 94 83
236 134 160 104 93 82
236 135 160 102 91 82
236 135 161 98 88 80
232 128 168 113 96 80
232 128 169 113 96 79
232 133 168 107 91 74
232 133 169 109 90 68
232 133 170 114 89 51
232 133 171 125 89 34
232 134 169 113 89 54
233 134 168 107 86 62
233 134 169 115 85 43
233 135 169 131 77 18
232 134 170 119 78 6
232 134 171 128 78 3
232 135 171 143 68 1
233 134 170 123 83 33
233 135 170 136 71 5
233 135 171 149 64 3
234 135 168 121 82 33
234 135 169 127 76 11
232 134 172 135 76 0
232 134 173 141 72 0
232 135 172 142 67 0
232 135 173 144 66 0
232 135 174 143 65 0
232 135 175 141 67 0
235 136 161 95 84 75
235 136 162 102 88 72
235 136 163 109 92 72
235 137 163 112 87 48
235 136 164 117 95 64
235 136 165 122 93 50
235 137 164 118 86 35
235 137 165 127 79 12
235 136 166 125 85 18
235 136 167 129 79 12
235 137 166 135 72 4
235 137 167 139 62 0
235 138 167 138 58 1
236 136 160 99 90 80
236 136 161 96 82 70
236 137 161 101 83 59
237 136 160 102 87 77
237 136 161 102 84 68
237 137 161 120 90 44
236 137 162 108 84 46
236 137 163 120 80 21
237 137 162 125 87 20
236 138 163 138 66 1
237 138 162 135 78 11
237 138 163 140 64 4
237 139 163 141 60 0
238 136 160 109 88 70
238 137 160 117 90 50
238 137 161 127 91 38
239 137 160 124 90 35
238 138 161 138 82 10
239 138 160 126 87 22
239 138 161 137 79 6
239 139 161 143 70 0
238 138 162 142 70 0
238 139 162 143 65 0
238 139 163 142 62 0
239 139 162 144 66 0
236 137 164 127 75 11
236 137 165 134 67 2
236 137 166 139 63 9
236 138 164 138 57 3
236 138 165 140 58 2
236 139 165 138 55 3
237 138 164 140 57 2
237 139 164 139 56 3
237 139 165 137 56 3
236 138 166 139 60 2
236 138 167 137 56 3
236 139 166 137 55 3
236 139 167 135 56 3
238 140 163 139 62 0
238 141 163 138 63 0
239 140 162 142 67 0
239 140 163 139 64 0
239 141 162 141 67 0
239 141 163 140 66 0
239 142 163 141 67 0
239 143 162 142 68 0
239 143 163 141 68 0
237 140 164 136 59 3
237 140 165 135 58 2
237 141 165 133 55 5
236 140 166 136 56 3
236 140 167 134 57 3
236 141 167 134 61 1
237 140 166 135 57 3
237 141 166 133 57 4
237 142 165 136 57 11
237 143 165 137 60 8
236 142 167 135 60 6
236 143 167 137 57 8
237 142 166 135 55 8
237 143 166 136 55 10
238 140 164 136 58 2
238 141 164 137 59 2
238 141 165 135 52 6
238 142 164 139 61 0
238 142 165 138 56 4
238 143 164 139 66 0
238 143 165 139 63 1
239 142 164 140 64 0
239 143 164 140 68 0
233 136 170 145 61 3
233 136 171 150 60 4
233 137 171 149 60 10
233 138 171 145 57 0
234 136 169 139 63 10
234 137 169 142 51 4
235 136 168 133 69 12
235 137 168 140 60 8
235 137 169 141 55 5
234 136 170 142 63 4
234 137 170 146 52 5
234 137 171 146 55 8
235 138 168 137 57 2
235 138 169 137 52 4
235 139 168 133 57 3
235 139 169 133 55 4
234 138 170 141 51 3
234 138 171 145 55 0
234 139 170 138 55 4
234 139 171 143 56 0
232 136 172 149 63 0
232 136 173 145 64 0
232 137 173 146 64 0
233 136 172 149 61 0
233 137 172 149 60 0
233 137 173 147 63 0
232 136 174 142 66 0
232 136 175 140 68 0
232 137 174 142 67 0
232 137 175 139 69 0
232 138 173 144 65 0
232 139 173 143 64 0
233 138 172 150 61 0
233 138 173 145 64 0
233 139 172 146 59 0
233 139 173 145 62 0
232 138 174 141 67 0
232 138 175 138 70 0
232 139 174 141 65 0
232 139 175 138 70 0
235 140 169 133 57 4
235 141 169 133 60 4
234 140 170 137 56 5
234 140 171 142 56 1
234 141 170 138 58 3
234 141 171 139 56 6
235 140 170 135 56 5
235 141 170 135 59 3
235 142 169 135 62 2
235 143 169 136 62 1
234 142 170 140 60 2
234 142 171 140 59 6
234 143 170 140 60 1
234 143 171 143 59 1
235 142 170 137 60 2
235 143 170 139 62 1
233 140 172 145 58 0
233 140 173 145 59 0
233 141 172 142 57 0
233 141 173 144 56 0
232 140 174 142 61 0
232 140 175 138 66 0
232 141 174 143 61 0
232 141 175 142 63 1
233 141 174 144 59 0
233 142 172 142 57 0
233 142 173 143 59 1
233 143 173 146 59 0
232 142 175 141 65 14
233 142 174 142 61 6
233 142 175 142 65 13
233 143 174 143 59 4
233 143 175 141 65 16
234 140 172 144 57 0
234 141 172 142 56 3
234 142 172 142 58 3
234 143 172 145 59 0
236 139 168 134 57 3
236 140 168 133 59 3
236 141 168 133 61 3
236 142 168 134 62 2
236 143 168 136 62 1
229 128 176 117 98 78
229 128 177 115 97 77
229 129 176 121 100 77
229 129 177 122 99 69
228 128 179 116 95 73
229 128 178 114 94 74
229 128 179 120 98 75
229 129 178 123 94 49
229 129 179 125 94 42
229 130 176 124 97 61
229 130 177 128 93 34
229 130 178 130 85 13
229 130 179 133 78 16
230 130 176 128 95 43
230 130 177 133 89 14
230 131 176 133 89 16
230 131 177 138 80 7
230 130 178 136 80 10
230 130 179 139 72 3
230 131 178 140 71 1
230 131 179 141 64 0
228 128 180 117 93 69
228 128 181 120 94 63
228 129 180 125 97 58
228 129 181 127 94 38
229 129 180 128 91 27
229 129 181 129 87 10
228 128 182 122 95 53
228 128 183 119 90 44
228 129 182 133 84 11
228 129 183 135 74 4
229 129 182 137 81 0
229 130 180 134 72 4
229 130 181 136 69 0
229 130 182 136 65 0
229 130 183 138 59 0
229 131 182 137 60 0
229 131 183 138 57 1
230 130 180 138 68 0
230 131 180 139 62 0
230 131 181 138 61 0
230 131 182 138 62 0
230 132 176 140 76 2
230 132 177 141 73 0
231 132 177 142 71 0
231 133 176 143 71 0
231 133 177 141 70 0
230 132 178 141 69 0
230 132 179 139 63 0
231 132 178 140 68 0
231 132 179 137 66 0
231 133 178 138 66 0
231 133 179 135 64 0
231 134 176 141 70 0
231 134 177 139 70 0
231 135 176 140 66 0
231 134 179 134 60 0
230 132 180 137 61 0
230 132 181 136 60 0
231 132 180 136 65 0
231 132 181 136 63 0
231 133 180 134 65 0
231 133 181 135 65 0
230 132 182 136 64 0
230 132 183 139 65 0
230 133 182 137 68 0
230 133 183 138 67 0
231 133 182 137 67 0
231 133 183 138 66 0
231 134 180 136 67 0
231 134 181 137 69 0
231 135 181 140 71 0
231 134 182 139 68 0
231 134 183 140 66 0
231 135 182 141 71 0
231 135 183 140 68 0
227 128 184 115 84 31
227 128 185 118 81 15
227 128 186 122 82 16
227 128 187 123 82 13
227 129 186 133 69 8
227 129 187 131 63 4
225 128 190 127 71 0
225 128 191 131 69 0
226 128 188 122 86 0
226 128 189 125 77 0
226 129 189 128 65 0
227 128 188 125 76 5
227 129 188 128 65 3
227 129 189 130 63 0
226 128 190 128 71 3
226 128 191 134 65 0
226 129 190 132 62 0
226 129 191 136 65 0
227 129 190 133 64 0
227 129 191 136 67 0
227 130 189 134 66 0
227 130 190 137 68 0
227 130 191 138 70 0
227 131 190 140 66 0
227 131 191 142 68 0
228 128 184 124 84 24
228 129 184 136 68 5
228 129 185 135 68 0
228 129 186 133 63 0
228 129 187 131 62 0
228 130 184 138 62 0
228 130 185 136 66 0
229 130 184 139 60 0
229 130 185 137 65 0
229 131 184 140 59 0
229 131 185 139 64 0
228 130 186 131 68 0
228 130 187 130 67 0
228 131 186 133 70 0
228 131 187 133 69 0
229 131 186 136 68 0
229 131 187 136 67 0
228 130 188 132 63 0
228 130 189 136 65 0
228 131 188 136 64 0
228 131 189 139 63 0
228 131 190 141 64 0
228 131 191 144 67 0
229 132 184 141 64 0
229 132 185 140 65 0
229 132 186 137 64 0
229 132 187 137 66 0
229 133 187 137 67 0
230 132 184 141 67 0
230 132 185 141 66 0
230 133 184 139 65 0
230 133 185 139 67 0
230 133 186 137 67 0
230 133 187 138 68 0
230 134 184 140 65 0
230 134 185 140 67 0
231 134 184 140 65 0
231 135 184 140 67 0
231 135 185 141 68 0
230 134 186 139 67 0
230 134 187 141 68 0
230 135 187 143 68 0
231 135 186 142 67 0
231 135 187 144 69 0
228 132 189 141 64 0
229 132 188 138 67 0
229 132 189 141 66 0
229 133 188 138 67 0
229 133 189 141 64 0
228 132 190 144 66 0
228 132 191 145 67 0
228 133 191 146 68 0
229 132 190 143 65 0
229 133 190 144 64 0
229 133 191 146 66 0
229 134 190 147 63 0
229 134 191 147 66 0
230 133 188 138 65 0
230 133 189 141 61 0
230 134 188 143 67 0
230 134 189 145 63 0
230 135 188 145 70 0
230 135 189 147 66 0
231 135 188 145 70 0
230 134 190 147 61 0
230 135 190 148 63 0
230 135 191 147 66 0
231 137 178 138 62 0
231 137 179 138 67 0
231 139 177 136 67 4
231 138 178 138 63 0
231 138 179 139 65 0
231 139 178 138 66 0
231 139 179 140 68 0
231 136 181 141 71 0
231 137 180 138 73 0
231 137 181 141 72 0
231 136 182 142 71 0
231 136 183 141 70 0
231 137 182 142 70 0
231 137 183 142 66 0
231 138 180 139 69 0
231 138 181 140 70 6
231 139 180 140 71 0
231 139 181 141 73 0
231 138 182 141 66 6
231 138 183 140 64 0
231 139 182 141 69 7
231 139 183 141 70 5
231 140 178 137 69 0
231 140 179 140 71 1
231 141 178 137 68 1
231 141 179 139 72 4
231 142 178 139 69 8
231 142 179 139 70 20
231 140 180 140 73 2
231 140 181 142 73 2
231 141 180 140 72 7
231 141 181 139 72 12
231 140 182 141 69 5
231 140 183 138 69 8
231 141 182 137 69 13
231 142 180 136 68 15
231 142 181 133 73 28
231 136 184 141 68 11
231 136 185 142 68 5
231 137 184 141 64 2
231 137 185 143 66 1
231 136 186 143 65 0
231 136 187 144 66 0
231 137 186 143 68 0
231 137 187 142 69 6
231 138 184 140 65 0
231 138 185 141 67 2
231 139 184 139 70 5
231 139 185 137 68 9
231 138 186 140 70 5
231 138 187 134 67 3
231 136 188 144 68 0
231 136 189 144 66 5
231 137 188 140 70 17
231 137 189 140 68 15
230 136 190 145 63 0
230 136 191 141 70 4
231 136 190 141 66 2
231 136 191 138 71 11
231 137 190 132 72 34
231 137 191 121 81 56
232 133 178 135 62 0
232 134 177 137 67 0
232 135 176 138 68 0
232 135 177 136 69 0
232 134 178 136 61 0
232 134 179 135 59 0
232 135 178 136 64 1
232 135 179 136 63 0
232 134 180 136 65 0
232 135 180 137 67 0
232 136 176 137 70 0
232 136 177 134 71 0
232 137 176 137 70 0
232 137 177 135 70 0
232 136 178 134 70 0
232 136 179 134 71 0
232 137 178 135 66 0
232 137 179 136 69 0
232 138 176 136 70 0
232 138 177 135 68 0
232 139 176 135 71 2
232 139 177 135 67 3
232 138 178 136 65 0
232 136 180 137 72 0
232 137 180 137 73 0
232 140 176 136 70 2
232 140 177 135 68 3
232 141 176 139 65 0
232 141 177 137 68 0
232 141 178 138 70 0
232 142 176 140 65 8
232 142 177 139 68 8
232 143 176 139 67 20
232 143 177 137 70 23
233 143 176 138 70 23
232 142 178 138 69 10
232 142 179 137 71 27
232 143 178 133 74 33
232 143 179 128 75 45
232 140 183 132 68 19
232 141 182 128 73 31
232 141 183 120 74 47
232 142 180 133 72 39
232 142 181 125 77 54
232 143 180 122 81 65
232 143 181 110 89 83
232 142 182 116 90 74
232 142 183 107 94 89
232 143 182 103 100 100
233 142 183 105 106 108
233 143 182 102 107 113
233 143 183 107 113 120
232 139 185 133 71 20
232 138 186 136 74 22
232 138 187 128 72 35
232 139 186 126 72 35
232 139 187 114 82 68
232 137 189 129 72 38
232 137 190 120 81 62
232 137 191 114 91 80
232 138 188 122 76 50
232 138 189 112 83 64
232 139 188 108 94 89
232 139 189 103 100 100
233 139 188 104 104 106
233 139 189 102 107 113
232 138 190 108 95 89
232 138 191 106 104 105
232 139 190 106 109 115
232 139 191 102 110 121
233 139 190 106 112 122
233 139 191 104 114 127
232 140 184 128 70 24
232 140 185 120 76 46
232 141 184 112 82 67
232 141 185 104 87 82
233 141 184 103 98 99
233 141 185 103 104 109
232 140 186 110 86 76
232 140 187 103 90 91
233 140 186 102 99 103
233 140 187 104 104 111
233 141 186 104 109 117
233 141 187 106 115 126
233 142 184 105 110 117
233 142 185 108 114 122
233 143 184 108 113 121
234 141 186 109 117 126
234 141 187 108 116 126
234 142 185 113 117 123
234 143 184 115 116 120
234 143 185 116 112 117
234 142 186 113 114 120
234 142 187 105 104 112
234 143 186 108 97 106
234 143 187 103 85 101
235 143 186 105 81 99
235 143 187 96 69 94
233 140 188 104 111 120
233 140 189 106 116 128
233 141 188 108 118 130
233 141 189 105 118 132
233 140 190 100 113 128
233 140 191 94 109 126
233 141 190 91 108 126
233 141 191 80 100 120
234 141 188 105 113 124
234 141 189 93 107 121
234 141 190 74 95 115
234 141 191 57 82 105
234 142 188 87 90 104
234 142 189 67 76 99
235 143 188 82 68 99
235 143 189 70 65 99
234 142 190 46 65 95
234 142 191 44 62 94
234 143 190 48 59 93
234 143 191 52 67 94
235 143 190 56 64 97
235 149 167 135 59 7
235 150 166 131 65 11
235 150 167 129 62 16
235 151 166 128 74 30
235 151 167 123 68 35
239 144 162 143 65 0
239 144 163 142 66 0
239 145 162 143 62 0
239 145 163 144 63 1
239 146 161 140 62 0
239 147 161 140 62 0
238 146 163 143 63 0
238 147 163 142 65 0
239 146 162 142 63 0
239 146 163 143 65 0
239 147 162 141 62 0
237 144 165 137 64 0
237 145 165 139 63 7
236 144 167 137 57 4
236 145 167 136 56 2
237 144 166 136 58 3
237 145 166 136 60 1
237 146 165 141 63 0
237 147 164 143 66 0
237 147 165 143 65 0
236 146 166 138 61 0
236 146 167 137 60 0
236 147 166 141 58 1
236 147 167 138 59 0
237 146 166 139 61 0
237 147 166 141 59 0
238 144 164 139 69 0
238 144 165 138 68 1
238 145 164 142 63 0
238 145 165 140 65 9
239 144 164 140 67 0
238 146 164 143 63 0
238 146 165 142 64 0
238 147 164 143 65 0
237 149 163 143 58 0
237 150 163 143 57 0
237 151 163 141 59 7
239 148 161 139 60 0
239 149 161 140 58 1
238 148 162 140 60 0
238 148 163 141 62 1
238 149 162 143 54 1
238 149 163 142 57 0
239 148 162 140 59 0
239 149 162 142 56 2
239 150 161 139 59 8
239 151 161 138 60 12
238 150 162 142 53 6
238 150 163 142 54 7
238 151 162 137 60 15
238 151 163 140 59 15
239 150 162 141 55 8
239 151 162 136 62 16
236 148 165 142 61 0
236 149 165 141 64 1
237 148 164 142 64 0
237 148 165 143 64 0
237 149 164 142 59 0
237 149 165 142 63 2
236 148 166 141 56 1
236 148 167 138 56 2
236 149 166 141 63 2
236 149 167 139 61 3
236 150 164 141 60 0
236 150 165 138 63 2
236 151 164 136 60 2
236 151 165 133 67 13
237 150 164 141 56 0
237 151 164 139 55 1
236 150 166 135 64 2
236 151 166 128 76 30
236 151 167 120 81 60
238 148 164 142 64 0
235 144 168 136 59 2
235 144 169 136 61 1
235 145 168 136 54 3
235 145 169 137 58 2
234 144 170 140 62 2
234 144 171 144 60 3
234 145 170 140 62 5
234 145 171 142 62 6
235 146 168 138 54 2
235 146 169 137 58 3
235 147 168 137 58 2
235 147 169 137 59 7
234 146 170 137 61 6
234 146 171 138 64 4
234 147 170 135 67 15
234 147 171 131 70 23
235 146 170 137 61 6
235 147 170 134 66 21
233 144 173 148 53 2
233 144 174 145 60 6
233 144 175 140 63 11
233 145 174 145 63 18
233 145 175 137 67 25
234 144 172 147 56 4
234 144 173 149 54 4
234 145 172 146 60 3
234 145 173 146 55 7
234 145 174 138 66 27
234 145 175 129 73 43
234 146 172 137 63 7
234 146 173 135 63 23
234 147 172 127 72 39
234 147 173 122 79 61
235 147 173 116 89 80
234 146 174 126 74 53
234 146 175 118 86 73
234 147 174 113 85 79
235 147 174 110 98 96
235 147 175 108 106 110
235 148 168 135 58 3
235 148 169 132 62 12
235 149 168 131 59 10
235 149 169 122 68 33
235 148 170 127 70 35
235 148 171 120 76 50
235 149 170 115 82 68
235 149 171 111 90 83
235 150 168 123 70 43
235 150 169 115 80 65
235 148 172 114 89 72
235 148 173 108 101 99
235 149 172 107 103 102
235 149 173 105 111 119
235 148 174 109 111 117
235 148 175 109 116 125
236 144 168 136 60 2
236 145 168 137 55 3
236 146 168 138 55 3
236 147 168 137 57 3
236 149 171 105 102 105
236 150 169 108 92 87
236 151 168 115 83 69
236 151 169 106 99 96
237 151 169 107 111 118
236 150 170 104 102 105
236 150 171 104 110 118
236 151 170 105 107 112
237 151 170 103 113 125
237 151 171 100 113 128
236 149 172 106 113 122
236 149 173 105 118 131
237 149 173 93 113 131
236 148 174 108 119 130
236 148 175 108 118 130
236 149 174 103 118 133
236 149 175 102 113 127
237 149 174 85 104 124
237 149 175 85 93 114
236 150 172 104 116 129
236 150 173 103 117 132
237 150 172 95 112 129
237 150 173 76 102 125
237 151 172 84 107 127
237 151 173 54 91 119
237 150 174 56 83 113
237 150 175 61 70 101
238 151 172 65 97 121
238 151 173 32 77 113
238 150 174 48 71 108
238 150 175 53 68 102
238 151 174 35 66 108
238 151 175 54 61 97
237 152 163 134 68 31
238 152 163 126 71 40
239 152 162 126 73 39
239 152 163 117 83 63
239 153 163 112 95 86
236 152 164 131 62 12
236 152 165 122 74 47
237 152 164 127 68 37
237 152 165 116 88 72
237 153 164 117 80 64
237 153 165 114 92 80
236 152 166 116 86 66
236 152 167 115 93 81
237 152 166 109 95 88
237 152 167 108 103 102
237 153 166 108 100 95
238 152 164 118 80 63
238 153 164 114 89 76
238 153 165 109 98 94
239 153 164 111 101 99
239 153 165 108 109 115
238 152 167 106 109 115
238 153 166 108 108 113
238 153 167 107 113 122
239 153 166 107 115 126
239 153 167 101 113 127
236 152 168 110 98 93
237 152 168 107 107 111
237 152 169 107 113 121
238 152 168 105 113 123
238 152 169 96 112 128
238 153 168 102 114 129
238 153 169 91 111 130
239 153 168 85 106 127
239 153 169 57 91 118
238 152 170 81 104 125
238 152 171 59 92 117
238 153 171 37 78 108
239 153 170 41 82 111
239 153 171 38 74 104
239 154 170 40 78 107
239 154 171 48 75 103
238 152 172 33 80 110
238 152 173 27 68 107
238 153 172 25 68 104
238 153 173 41 66 104
239 153 172 46 70 102
239 153 173 63 71 100
238 152 174 45 67 107
238 152 175 67 68 100
238 153 174 58 65 101
238 153 175 82 68 95
239 153 174 79 70 97
239 153 175 92 68 91
239 154 172 63 73 98
239 154 173 74 68 91
239 155 172 68 72 95
239 155 173 84 69 89
239 154 174 90 67 88
239 154 175 97 63 80
239 155 174 97 63 81
239 155 175 101 63 74
239 156 173 95 63 79
239 156 174 99 63 78
232 144 177 135 69 13
233 144 176 136 68 21
233 144 177 132 74 34
233 145 176 128 74 42
233 145 177 121 83 61
232 144 178 125 80 50
232 144 179 113 90 76
233 144 178 127 75 40
233 145 178 111 95 85
233 145 179 106 105 105
234 145 176 121 83 65
234 145 177 110 91 84
234 145 178 107 100 97
234 146 176 109 94 89
234 146 177 106 104 105
235 147 176 108 111 115
235 147 177 111 114 118
234 146 178 108 111 116
234 146 179 109 114 122
235 147 178 115 108 112
235 147 179 112 94 98
232 144 180 108 97 92
232 144 181 105 101 101
233 144 181 103 106 111
233 145 180 105 109 115
233 145 181 110 114 120
233 144 182 105 111 119
233 145 182 110 114 121
234 145 180 111 114 120
234 145 181 111 113 118
234 144 183 114 115 119
234 145 182 109 105 109
234 145 183 101 88 96
234 146 180 110 110 115
234 146 181 108 100 106
235 147 180 108 84 92
235 147 181 107 67 84
234 146 182 101 78 89
234 146 183 94 66 85
235 146 183 97 67 86
235 147 182 106 62 84
235 147 183 101 61 85
235 148 178 121 84 90
235 148 179 119 66 74
235 148 180 120 54 67
235 148 181 121 47 67
235 148 182 117 55 74
235 148 183 108 59 80
236 148 176 109 112 120
236 148 177 112 100 104
236 149 176 99 100 113
236 149 177 106 82 94
237 149 176 85 80 101
237 149 177 99 63 85
236 148 178 119 77 83
236 148 179 123 49 57
236 149 178 119 54 68
236 149 179 130 42 49
237 149 178 119 44 66
237 150 176 74 59 92
237 150 177 96 48 82
237 150 178 119 39 69
237 150 179 130 39 51
237 151 178 120 42 70
237 151 179 127 42 56
238 151 176 76 55 92
238 151 177 99 49 84
238 151 178 112 44 75
236 148 180 124 48 60
236 149 180 131 42 49
236 149 181 129 42 50
236 148 183 108 52 74
236 149 182 120 41 51
236 149 183 108 43 58
236 150 180 131 45 47
236 150 181 128 48 45
237 150 180 131 45 50
237 150 181 126 48 48
237 151 180 128 50 57
237 151 181 122 45 51
236 150 182 121 48 45
237 150 182 117 48 48
237 150 183 109 46 50
237 151 182 113 43 46
237 151 183 104 41 45
238 151 183 101 43 47
234 144 184 108 101 107
234 144 185 108 95 106
234 145 184 99 85 94
235 144 185 99 78 98
235 145 184 86 61 83
235 145 185 82 57 87
235 144 186 91 65 94
235 144 187 82 62 94
235 145 186 67 60 92
235 145 187 50 65 97
235 146 184 94 71 89
235 146 185 85 69 88
235 147 184 96 69 87
235 147 185 84 67 83
235 146 186 66 60 91
235 146 187 49 55 95
235 144 188 70 65 97
235 144 189 61 69 101
235 145 188 41 67 95
235 145 189 30 68 96
235 144 190 49 67 98
235 144 191 40 65 92
235 145 190 38 72 100
235 145 191 45 70 99
235 148 184 103 64 84
236 147 185 79 65 81
236 146 186 61 62 94
236 146 187 52 64 98
236 147 186 74 71 95
236 147 187 58 66 97
236 146 188 42 66 99
236 146 189 40 68 99
236 147 188 45 65 97
236 147 189 41 67 96
236 146 190 42 68 98
236 146 191 42 67 97
236 147 190 38 69 95
236 147 191 39 70 98
236 148 184 99 57 75
236 148 185 87 58 75
236 149 184 99 45 57
236 149 185 92 48 62
237 149 184 102 50 56
237 149 185 98 47 54
236 148 186 75 62 79
236 148 187 61 61 85
236 149 186 87 51 67
237 148 187 64 60 81
237 149 186 95 50 65
237 149 187 88 50 69
237 150 184 102 47 51
237 150 185 99 48 52
237 151 184 100 44 48
237 150 186 99 41 48
238 151 184 99 47 50
238 151 185 99 50 52
238 150 186 102 51 53
238 150 187 103 52 56
238 151 186 101 53 53
238 151 187 100 54 48
236 148 188 48 65 94
237 148 188 61 65 89
237 148 189 51 67 93
237 149 188 85 50 78
237 149 189 79 59 85
237 148 190 49 71 94
237 148 191 43 66 95
237 149 190 68 61 86
237 149 191 58 69 92
238 149 188 99 43 72
238 149 189 99 54 78
238 149 190 90 62 82
238 149 191 75 67 84
238 150 188 102 47 54
238 150 189 100 41 52
238 151 188 96 54 36
238 151 189 99 54 41
238 150 190 94 39 58
238 150 191 84 47 67
238 151 190 102 45 54
238 151 191 101 49 63
237 152 179 123 51 59
238 152 176 85 63 95
238 152 177 100 58 83
238 153 176 93 64 90
238 153 177 101 64 80
239 153 176 98 62 83
238 152 178 114 54 71
238 152 179 120 56 60
238 153 178 105 59 67
238 153 179 107 53 56
239 154 176 100 58 74
239 154 177 100 57 68
239 155 176 105 66 71
239 155 177 106 68 71
238 154 179 96 46 53
239 154 178 99 56 64
239 154 179 98 52 61
239 155 178 104 66 73
239 155 179 101 62 67
237 152 180 121 50 58
237 152 181 116 40 50
237 152 182 112 39 47
238 152 180 117 49 54
238 152 181 112 37 47
238 153 180 106 47 51
238 153 181 103 40 46
238 152 182 107 39 46
238 152 183 101 43 50
238 153 182 101 45 45
238 153 183 99 49 50
238 154 180 98 46 52
238 154 181 100 49 52
239 154 180 98 47 56
239 154 181 99 47 52
239 155 180 99 50 59
239 155 181 97 41 50
238 154 182 96 47 45
239 154 182 95 46 46
239 154 183 95 45 50
239 155 182 96 44 51
239 155 183 96 43 55
238 152 184 100 49 52
238 152 185 99 50 52
238 153 184 98 51 51
238 153 185 101 53 55
239 153 184 97 51 52
239 153 185 101 55 57
238 152 186 101 48 50
238 152 187 100 48 46
238 153 186 103 51 55
239 153 186 106 56 60
239 153 187 107 53 59
239 154 184 97 50 54
239 154 185 100 51 54
239 155 184 96 43 52
239 155 185 97 43 50
239 154 186 104 53 57
239 154 187 104 54 57
239 155 186 101 49 55
239 155 187 101 56 57
238 152 188 99 59 50
238 152 189 100 60 52
239 152 188 103 59 60
239 152 189 103 59 60
239 153 188 105 50 62
239 153 189 101 44 59
239 152 190 106 62 66
239 152 191 101 63 66
239 153 190 99 51 64
239 153 191 96 68 75
239 154 188 104 57 62
239 154 189 103 63 67
239 155 188 101 61 63
239 155 189 98 65 65
239 154 190 99 66 71
240 138 160 128 77 4
240 139 160 135 69 0
240 139 161 141 69 0
241 139 160 133 64 0
240 140 161 142 66 0
240 141 161 142 64 0
241 140 160 137 61 2
241 140 161 141 62 0
241 141 160 137 63 1
241 141 161 141 63 0
240 141 162 142 66 0
240 142 161 141 63 0
240 143 161 142 63 0
241 142 160 136 65 0
241 142 161 139 64 0
241 143 160 138 63 0
241 143 161 140 62 0
240 142 162 142 66 0
240 143 162 143 66 0
240 144 161 142 60 0
240 145 160 139 60 0
240 145 161 140 59 0
241 144 160 139 59 1
241 144 161 140 59 0
241 145 160 138 59 1
240 144 162 143 63 0
240 145 162 142 61 0
240 146 160 140 62 0
240 146 161 139 61 0
240 147 160 140 65 0
240 147 161 139 63 0
241 146 160 139 62 0
241 147 160 140 66 0
240 148 160 140 66 0
240 148 161 140 64 0
240 149 160 141 66 0
240 149 161 139 62 0
241 148 160 141 65 0
241 149 160 141 63 0
240 150 160 142 62 3
240 150 161 140 58 3
240 151 161 137 61 16
241 150 160 140 63 5
241 151 160 139 63 11
241 151 161 138 63 13
242 151 160 137 60 11
240 152 161 129 72 36
241 152 160 132 68 26
241 152 161 123 71 39
241 153 161 113 90 79
240 152 162 121 82 58
240 153 162 113 94 83
240 153 163 110 100 96
241 153 162 107 99 98
241 153 163 106 111 120
242 152 160 127 72 46
242 153 160 110 86 74
242 153 161 110 100 96
243 153 160 105 100 99
243 153 161 102 107 113
242 153 162 105 110 119
242 154 161 104 113 124
243 154 161 104 115 129
242 154 162 105 117 131
242 154 163 102 116 131
243 154 162 101 115 131
243 155 162 91 109 127
243 155 163 72 98 120
240 153 164 109 111 119
240 153 165 106 116 128
241 153 164 107 115 127
240 153 166 102 115 129
241 154 164 106 118 132
241 154 165 96 113 130
240 154 166 92 109 128
240 154 167 76 100 122
241 154 166 70 97 121
241 154 167 50 86 113
241 155 167 41 82 111
242 154 164 95 113 131
242 154 165 84 106 127
242 155 164 73 99 121
242 155 165 58 91 116
243 155 164 37 81 109
243 155 165 50 84 110
242 154 166 56 92 119
242 155 166 56 86 111
242 155 167 51 79 104
243 156 165 56 79 103
242 156 167 51 67 89
243 156 166 62 76 99
243 156 167 65 61 84
244 154 160 106 117 130
244 154 161 105 118 133
244 155 160 104 118 133
244 155 161 92 108 125
245 155 160 97 112 128
245 155 161 87 104 121
244 155 162 70 94 114
244 155 163 49 84 109
245 156 160 53 77 97
245 156 161 40 67 90
245 157 161 61 72 92
244 156 162 42 75 100
244 156 163 42 76 102
245 156 162 35 63 91
245 156 163 41 67 96
245 157 162 60 68 92
245 157 163 60 60 89
246 156 160 44 69 91
246 157 160 51 64 88
246 157 161 64 72 89
247 157 160 54 58 84
246 157 162 69 65 85
246 157 163 74 57 79
246 158 161 68 55 70
247 158 160 69 51 75
247 158 161 72 52 69
247 159 160 91 59 73
247 159 161 100 71 74
246 158 162 80 63 75
246 158 163 92 63 71
247 158 162 95 70 75
247 158 163 99 68 72
247 159 162 105 71 65
247 159 163 107 68 60
244 156 164 40 73 101
244 156 165 46 62 90
244 157 165 55 46 74
245 157 164 72 64 90
245 157 165 87 60 78
244 156 166 57 47 78
244 157 166 79 49 72
244 157 167 85 53 70
245 157 166 94 60 70
245 157 167 97 59 66
245 158 166 110 72 67
245 158 167 109 74 64
246 157 164 84 53 75
246 158 164 98 62 67
246 158 165 105 64 62
246 159 165 114 76 65
247 159 164 112 72 63
247 159 165 121 87 75
246 158 166 113 71 59
246 158 167 112 76 61
246 159 166 115 79 65
246 159 167 113 80 65
247 159 166 116 81 68
240 154 168 53 88 115
240 154 169 38 81 110
240 155 169 48 78 107
241 154 168 41 81 109
241 155 168 47 80 108
241 155 169 55 78 104
240 154 170 40 79 108
240 154 171 57 79 107
240 155 170 50 74 104
240 155 171 60 72 102
241 155 170 59 70 98
242 155 168 55 76 99
240 155 172 72 72 95
241 156 169 64 71 97
240 156 171 70 64 90
241 156 170 73 66 91
241 156 171 77 63 88
241 157 171 92 60 76
242 156 168 53 57 82
242 156 169 69 61 84
242 157 169 85 53 69
243 156 168 72 54 75
243 157 168 83 54 70
243 157 169 91 55 63
242 156 170 81 62 83
242 157 170 91 53 66
242 157 171 96 54 61
243 157 170 99 59 59
242 158 171 105 67 56
243 158 170 108 67 62
243 158 171 109 70 56
240 156 172 78 62 83
240 156 173 87 64 75
240 157 173 97 66 71
241 157 172 96 58 71
241 157 173 102 64 65
240 156 174 102 67 69
240 156 175 108 70 74
240 157 174 107 76 73
240 157 175 109 75 74
241 157 174 104 71 65
241 157 175 101 67 62
242 157 172 101 57 57
242 158 172 104 65 52
242 158 173 98 56 42
243 158 172 104 65 45
243 158 173 100 58 35
243 159 172 105 64 44
243 159 173 104 69 55
242 158 174 94 52 41
242 158 175 94 55 50
242 159 175 97 63 66
243 159 174 103 76 73
243 159 175 93 69 75
244 157 168 93 57 67
244 157 169 98 61 61
244 158 168 101 66 67
244 158 169 109 76 69
245 158 168 110 78 68
245 158 169 113 82 67
245 159 168 112 80 61
245 159 169 106 71 51
244 158 170 113 78 65
244 158 171 111 73 56
244 159 170 111 75 57
244 159 171 110 71 56
245 159 170 105 70 50
245 159 171 110 78 68
246 159 168 112 80 62
246 159 169 101 66 41
244 159 172 107 70 60
244 159 173 103 76 67
248 159 160 92 63 74
248 159 161 102 71 73
240 156 176 109 72 75
240 156 177 104 70 74
241 157 176 93 57 56
241 157 177 76 43 49
240 156 178 96 62 71
240 156 179 91 51 63
241 157 178 70 48 64
241 157 179 77 48 69
242 158 176 88 57 58
242 158 177 75 54 67
242 159 176 89 60 70
242 159 177 76 53 72
243 159 176 75 57 75
243 159 177 55 52 76
242 158 178 58 47 74
242 158 179 61 44 78
243 159 178 53 56 83
243 159 179 58 54 84
240 156 180 95 47 56
240 156 181 96 42 49
241 157 180 87 44 60
241 157 181 94 40 53
240 156 182 95 37 49
240 156 183 94 42 51
241 157 182 98 37 51
241 157 183 98 44 52
242 157 180 85 47 59
242 157 181 90 44 56
242 157 182 97 39 52
242 157 183 97 39 50
242 158 180 79 52 71
242 158 181 86 44 60
243 159 180 69 49 74
243 159 181 80 44 64
242 158 182 92 37 49
242 158 183 93 44 51
243 158 182 93 42 50
243 159 182 88 42 54
243 159 183 93 57 62
240 155 188 100 63 65
240 155 189 97 70 70
240 154 190 94 73 76
240 154 191 91 74 79
240 155 190 96 79 80
240 155 191 99 89 92
240 156 184 94 41 47
240 156 185 97 47 52
241 157 184 97 47 52
241 157 185 96 49 51
240 156 186 101 51 57
240 156 187 102 61 67
240 157 186 100 51 56
240 157 187 102 65 72
241 157 186 97 52 56
241 157 187 96 63 70
242 157 184 98 47 56
242 158 184 95 54 58
242 158 185 97 57 62
243 159 184 96 67 69
243 159 185 97 71 74
242 158 186 98 63 73
242 158 187 96 71 83
242 159 187 99 77 89
243 159 186 97 74 82
243 159 187 95 74 85
240 156 188 100 69 74
240 156 189 99 77 82
240 157 188 100 72 78
240 157 189 98 77 85
241 157 188 95 69 77
241 157 189 94 75 84
240 156 190 95 79 90
240 156 191 95 81 92
240 157 190 99 82 94
241 156 191 89 72 87
241 157 190 91 77 88
241 157 191 89 75 87
241 158 188 91 71 81
241 158 189 90 76 86
241 158 190 90 79 88
242 158 188 96 76 89
242 158 189 89 78 90
242 159 188 95 77 91
242 159 189 89 76 89
243 159 188 93 75 87
243 159 189 93 77 90
242 158 190 90 80 90
242 158 191 89 76 84
242 159 190 90 77 90
242 159 191 89 72 84
243 159 190 92 77 90
243 159 191 92 75 89
