ply
format ascii 1.0
comment Version 2, Copyright 2017, 8i Labs, Inc.
comment frame_to_world_scale 0.179523
comment frame_to_world_translation -45.2095 7.18301 -54.3561
comment width 1023
element vertex 1069
property float x
property float y
property float z
property uchar red
property uchar green
property uchar blue
end_header
235 165 29 125 105 89
235 165 30 124 106 90
235 165 31 126 109 94
235 166 28 130 104 84
235 166 29 125 103 85
235 167 28 125 91 62
235 167 29 123 94 68
235 166 30 126 106 88
235 166 31 126 108 91
235 167 30 122 97 74
235 167 31 123 102 83
238 163 27 127 113 102
239 163 27 127 110 99
236 163 29 129 109 96
237 163 28 122 106 93
237 163 29 123 108 96
236 163 30 124 107 94
236 163 31 126 110 98
237 162 30 124 111 101
237 162 31 126 110 99
237 163 30 122 107 95
237 163 31 127 111 98
239 161 28 132 117 106
239 161 29 129 112 100
238 162 28 127 110 100
238 162 29 126 110 101
238 163 28 125 109 98
239 162 28 127 111 102
239 162 29 130 114 104
238 162 30 126 110 100
238 162 31 126 110 99
238 163 31 127 111 99
239 162 30 128 112 101
239 162 31 125 109 99
237 164 27 124 106 92
237 165 27 128 110 95
236 166 27 128 102 81
236 167 27 127 92 63
237 166 26 127 108 91
237 166 27 126 106 87
237 167 26 128 97 67
239 165 25 125 109 95
238 164 26 130 114 99
238 164 27 125 109 95
238 165 26 130 114 99
238 165 27 128 113 100
239 164 26 125 110 98
239 164 27 128 113 102
239 165 26 128 112 98
238 166 25 127 106 87
238 167 25 128 98 63
239 166 25 125 105 81
239 167 24 125 90 36
239 167 25 125 98 65
238 166 26 128 109 93
236 164 28 128 108 93
236 164 29 127 108 95
236 165 28 126 106 90
236 165 29 125 105 90
237 164 28 125 107 94
237 164 29 124 105 90
237 165 28 128 106 90
236 164 30 128 109 96
236 164 31 126 110 98
236 165 30 124 105 90
236 165 31 124 107 93
236 166 28 128 103 84
236 166 29 124 105 89
236 167 28 127 92 64
236 166 30 125 105 87
238 164 28 125 112 100
239 169 23 145 60 0
239 170 23 142 62 1
239 171 23 142 62 2
238 173 23 144 61 0
239 172 23 145 62 3
239 173 23 145 60 1
238 174 23 142 60 2
238 175 23 141 54 4
239 174 23 143 57 1
239 175 22 143 53 5
239 175 23 142 56 5
235 169 27 141 71 12
235 170 27 147 67 5
235 171 27 149 65 3
235 168 28 132 80 31
235 168 29 128 85 41
235 169 28 143 71 9
235 169 29 138 77 15
235 168 30 123 91 56
235 168 31 121 94 63
235 169 30 135 79 19
235 169 31 133 79 25
235 170 28 149 66 2
235 170 29 148 68 1
235 171 28 151 66 1
235 171 29 149 65 1
235 170 30 148 66 1
235 170 31 145 67 4
235 171 30 148 63 1
235 171 31 146 62 1
235 172 27 151 63 2
235 173 27 148 65 2
235 174 26 145 64 4
235 174 27 146 65 4
235 175 26 144 63 4
235 175 27 143 64 6
235 172 28 150 64 0
235 172 29 148 64 0
235 173 28 148 64 3
235 173 29 146 63 2
234 172 31 142 61 0
234 173 30 141 59 2
234 173 31 141 59 0
235 172 30 147 63 0
235 172 31 143 62 0
235 173 30 143 61 2
235 173 31 141 61 0
234 175 29 143 62 2
235 174 28 146 65 4
235 174 29 144 64 2
235 175 28 143 64 5
235 175 29 144 63 1
234 174 30 142 59 2
234 174 31 141 58 1
234 175 30 141 58 2
234 175 31 139 57 2
237 168 25 133 79 19
237 169 25 139 68 4
236 168 26 131 80 34
236 168 27 132 79 33
236 169 26 138 70 12
236 169 27 139 72 14
237 168 26 130 81 33
236 170 25 142 66 6
237 170 24 143 61 0
237 170 25 142 63 2
237 171 24 143 63 0
237 171 25 144 63 2
236 170 26 144 66 6
236 171 26 146 65 5
238 168 24 137 75 0
238 168 25 132 83 24
238 169 24 139 69 0
238 169 25 139 73 0
239 168 24 138 71 4
239 169 24 144 62 0
238 170 24 143 60 2
238 171 24 143 60 0
239 170 24 143 62 1
236 172 25 146 61 3
236 173 25 145 59 4
237 172 24 145 62 4
237 172 25 145 61 3
237 173 24 145 62 3
237 173 25 146 61 5
236 172 26 148 62 3
236 173 26 148 61 3
236 174 25 143 59 1
236 175 25 143 59 2
237 174 24 143 60 3
237 175 24 142 57 4
236 174 26 145 63 4
236 175 26 144 62 5
238 172 24 145 62 0
238 173 24 144 62 1
237 176 23 141 55 5
237 177 23 141 62 9
237 178 23 135 70 24
237 179 23 125 92 76
238 176 23 141 57 7
238 177 23 141 62 11
239 176 22 142 59 11
239 177 22 141 65 17
238 178 23 135 73 32
238 179 23 124 93 78
239 178 22 135 78 43
239 179 22 123 94 83
237 180 23 118 104 100
237 181 23 117 115 117
237 182 23 121 105 98
237 183 23 120 67 60
238 180 23 118 107 106
238 181 23 120 115 117
239 180 22 121 110 109
239 180 23 117 116 119
239 181 22 123 118 117
239 181 23 121 117 117
238 182 23 123 100 93
238 183 23 127 69 58
239 182 23 130 102 95
239 183 23 134 66 56
235 176 26 142 60 3
235 176 27 141 59 5
235 177 26 143 58 8
235 177 27 142 58 7
235 178 26 141 62 14
235 178 27 142 62 9
235 179 26 135 73 27
235 179 27 136 71 20
234 176 29 142 60 3
234 177 29 141 58 5
235 176 28 141 61 3
235 176 29 142 62 2
235 177 28 143 58 3
235 177 29 141 58 6
234 176 30 141 57 3
234 176 31 139 56 2
234 177 30 139 60 5
234 177 31 137 60 4
234 178 29 141 58 8
234 179 29 138 61 8
235 178 28 143 61 10
235 178 29 142 58 9
235 179 28 138 66 14
234 178 30 139 58 6
234 178 31 136 60 5
234 179 30 137 59 5
234 179 31 138 55 6
235 180 26 117 90 69
235 180 27 124 83 57
235 181 26 110 102 99
235 181 27 113 95 88
235 182 25 112 109 111
235 183 25 116 97 90
234 182 27 106 110 114
234 183 27 113 102 98
235 182 26 110 107 110
235 182 27 108 107 110
235 183 26 116 101 94
235 183 27 113 105 103
234 180 29 130 72 27
234 181 28 116 91 81
234 181 29 117 87 67
235 180 28 127 79 48
235 181 28 117 93 85
234 180 30 131 65 22
234 180 31 132 62 20
234 181 30 117 84 62
234 181 31 120 77 52
234 182 28 106 105 106
234 182 29 106 105 105
234 183 28 112 108 109
234 183 29 112 109 112
234 182 30 107 103 104
234 182 31 109 97 92
234 183 30 108 109 113
234 183 31 107 107 111
236 176 25 142 58 4
236 177 25 141 59 7
237 176 24 142 58 5
237 177 24 141 62 11
236 176 26 142 59 4
236 177 26 142 59 8
236 178 24 140 66 20
236 178 25 141 63 20
236 179 24 125 88 60
236 179 25 134 76 42
237 178 24 140 67 18
237 179 24 129 87 61
236 179 26 129 79 42
236 180 24 119 96 83
236 180 25 119 94 77
236 181 24 114 109 108
236 181 25 112 107 106
237 180 24 116 101 95
237 181 24 114 110 111
236 182 24 117 107 103
236 182 25 116 109 109
236 183 24 116 85 80
236 183 25 116 88 84
237 182 24 120 107 102
237 183 24 117 76 70
237 184 23 121 43 39
237 185 23 121 41 36
238 184 23 128 45 29
238 185 23 125 44 32
239 184 23 136 45 26
239 185 23 132 49 22
238 186 23 111 41 46
239 186 23 110 50 50
235 184 25 111 71 60
235 185 25 110 48 39
234 184 27 115 90 81
234 185 27 111 51 42
235 184 26 112 76 64
235 184 27 115 85 75
235 185 26 111 44 31
235 185 27 113 54 43
235 186 25 104 40 38
235 187 25 89 44 54
234 186 27 103 36 36
235 186 26 109 33 30
235 186 27 106 36 38
235 187 26 91 47 52
235 187 27 91 47 50
234 184 28 115 99 92
234 184 29 116 102 96
234 185 28 108 68 59
234 185 29 110 84 74
234 184 30 113 103 100
234 184 31 109 105 106
234 185 30 108 84 78
234 185 31 107 89 84
234 186 28 97 34 34
234 186 29 93 34 36
234 187 28 90 39 45
234 187 29 91 38 44
234 186 30 92 36 39
234 186 31 96 49 50
234 187 30 95 40 43
234 187 31 96 36 40
235 188 25 85 45 69
235 188 26 81 47 67
235 188 27 83 44 51
235 189 26 81 39 66
235 189 27 80 49 66
235 190 27 79 54 70
233 191 31 82 36 51
234 188 28 86 41 40
234 188 29 87 45 38
234 189 29 79 42 43
235 188 28 88 45 43
235 189 28 81 52 63
235 189 29 77 45 53
234 188 30 88 45 32
234 188 31 95 51 30
234 189 30 79 42 36
234 189 31 81 43 39
235 190 28 80 45 57
235 190 29 79 44 52
235 191 28 84 51 60
235 191 29 83 42 54
234 190 30 80 44 54
234 190 31 81 43 57
234 191 30 81 40 52
234 191 31 84 37 53
235 191 30 78 42 52
236 184 24 114 54 48
236 185 24 116 50 38
237 184 24 118 44 39
237 185 24 119 43 37
236 186 24 106 39 40
236 187 24 98 51 62
236 187 25 92 45 61
237 186 24 105 46 51
237 187 24 91 53 72
238 186 24 99 50 61
238 187 24 85 52 80
239 187 24 84 55 85
236 188 25 86 47 74
236 189 25 82 49 74
237 188 25 88 50 78
237 189 25 81 55 81
236 189 26 77 44 69
237 190 25 73 51 84
237 191 25 86 54 82
236 190 26 77 54 77
236 190 27 78 46 65
236 191 26 81 48 72
236 191 27 81 45 66
237 190 26 78 50 84
237 191 26 84 52 78
238 188 24 87 49 78
238 189 24 82 56 84
238 189 25 80 57 85
239 188 24 85 52 88
239 189 25 80 60 90
238 190 25 76 53 89
238 191 25 83 51 86
239 190 25 76 57 89
239 191 25 79 50 85
239 191 26 77 51 84
241 167 23 120 80 39
243 165 23 116 101 89
242 166 23 116 95 75
242 167 23 118 80 44
243 166 23 116 94 73
243 167 23 119 80 43
245 162 23 135 118 102
245 163 23 134 118 104
246 161 23 131 115 103
247 161 23 130 115 103
246 162 23 132 115 100
246 163 22 136 119 105
246 163 23 135 118 104
247 162 22 130 113 100
247 162 23 130 113 100
247 163 22 134 117 105
244 164 23 129 113 100
244 165 23 120 103 88
245 164 23 132 115 102
245 165 22 127 107 90
245 165 23 126 108 91
244 166 23 118 94 66
244 167 22 122 82 41
244 167 23 118 87 48
245 166 22 122 95 68
245 166 23 120 100 81
245 167 22 125 80 39
246 164 22 136 116 101
246 164 23 136 116 102
246 165 22 131 109 90
247 164 22 135 116 101
247 165 22 130 107 85
246 166 22 124 95 67
246 167 22 128 79 39
247 166 22 129 92 59
247 167 22 137 77 36
240 161 27 127 109 98
241 161 26 126 109 98
241 161 27 125 108 97
241 163 25 118 105 95
240 162 26 126 108 98
240 162 27 127 109 99
240 163 26 121 106 97
240 163 27 122 104 95
241 162 26 126 107 98
241 163 26 121 105 96
242 161 26 127 110 98
242 161 27 119 105 94
243 160 27 122 108 96
243 161 26 127 111 98
243 161 27 121 107 95
242 162 25 118 104 95
242 163 25 118 105 94
243 162 25 131 113 101
243 163 24 123 109 98
243 163 25 122 108 99
242 162 26 123 107 98
243 162 26 124 111 98
240 160 28 125 108 96
240 161 28 127 109 98
240 161 29 128 111 98
241 160 28 124 108 97
241 160 29 126 109 97
241 161 28 124 108 97
241 161 29 126 109 97
240 161 30 127 110 98
240 161 31 124 108 97
241 161 30 127 110 98
241 161 31 126 110 99
240 162 30 127 110 99
240 162 31 125 109 98
242 160 28 125 110 98
242 160 29 130 112 99
243 160 28 120 106 95
243 160 29 128 112 100
242 160 30 129 112 100
242 161 30 129 112 101
242 161 31 128 112 102
243 160 30 129 113 102
243 160 31 128 113 103
243 161 31 128 112 102
240 165 25 122 108 94
241 164 25 118 104 92
241 165 24 118 103 91
241 165 25 117 103 90
240 164 26 122 109 97
240 166 24 120 100 79
240 166 25 121 104 89
240 167 24 122 90 48
241 166 24 119 100 82
241 167 24 118 88 52
242 164 24 116 102 91
242 164 25 118 104 92
242 165 24 114 100 89
243 164 24 121 107 95
243 165 24 113 99 88
242 166 24 117 97 77
244 161 25 132 115 102
245 160 25 129 115 104
245 161 24 133 116 103
245 161 25 132 116 104
244 160 26 126 112 102
244 160 27 127 112 101
244 161 26 125 111 99
245 160 26 130 115 104
245 160 27 133 117 104
244 162 24 132 118 105
244 162 25 132 117 104
244 163 24 130 116 105
245 162 24 134 117 103
245 163 24 133 117 103
246 160 24 130 116 105
246 160 25 131 117 105
246 161 24 130 114 104
246 161 25 134 118 107
247 160 24 132 117 104
247 160 25 131 116 103
246 160 26 134 118 106
246 160 27 135 119 106
247 160 26 132 117 103
246 162 24 131 115 99
244 160 28 129 113 100
244 160 29 131 115 103
245 160 28 133 117 105
245 160 29 132 116 105
244 160 30 130 114 104
244 160 31 129 114 104
245 160 30 133 117 107
245 160 31 129 114 104
246 160 28 135 118 106
244 164 24 126 112 98
240 168 23 135 61 4
240 169 23 144 61 1
241 168 23 132 62 9
241 169 23 143 57 5
240 170 23 144 62 1
240 171 23 142 61 4
241 170 23 147 61 4
241 171 22 147 59 0
241 171 23 149 59 2
242 168 23 131 59 11
242 169 23 140 52 5
243 168 22 135 57 1
243 168 23 132 59 15
243 169 22 141 55 3
242 170 22 152 61 1
242 170 23 154 61 2
242 171 22 153 61 0
243 170 22 149 57 2
243 171 22 156 59 0
240 172 23 144 59 3
240 173 22 146 58 1
240 173 23 145 58 2
241 172 22 148 60 0
241 172 23 147 60 2
241 173 22 150 60 0
241 173 23 147 59 1
240 174 22 146 53 2
240 174 23 145 53 2
240 175 22 146 54 4
241 174 22 152 57 1
241 175 22 154 54 2
242 172 22 152 61 0
242 173 22 156 62 0
243 172 22 156 59 0
243 173 22 159 62 0
242 174 22 157 61 0
242 175 22 156 57 1
243 174 22 160 64 0
243 175 22 158 60 2
244 168 22 132 62 16
244 169 22 141 57 1
245 168 22 135 60 8
245 169 22 140 59 1
244 170 22 148 56 1
244 171 22 158 60 0
245 170 22 149 60 0
245 171 22 158 62 0
246 168 22 138 60 9
246 169 22 145 61 0
247 168 22 145 66 23
247 169 22 151 63 5
246 170 22 152 61 0
246 171 22 156 64 0
247 170 22 155 61 2
247 171 22 158 62 5
244 172 22 158 63 0
244 173 22 159 65 0
245 172 22 161 65 0
245 173 22 162 68 0
244 174 22 161 66 1
244 175 22 161 61 3
245 174 22 169 68 1
245 175 22 172 64 3
246 172 22 164 68 1
246 173 22 164 70 1
247 172 22 162 67 5
247 173 22 164 69 2
247 173 23 164 68 2
246 174 22 165 74 17
246 175 22 167 74 35
246 175 23 176 77 52
247 174 23 164 70 23
247 175 23 172 77 51
240 168 24 131 72 10
247 175 24 171 73 43
247 175 25 155 81 61
247 175 26 149 81 52
247 175 27 150 79 53
247 173 31 130 102 101
247 174 29 143 88 62
247 175 28 154 82 56
247 175 29 143 91 69
246 175 31 122 94 85
247 174 30 136 97 89
247 174 31 132 103 102
247 175 30 130 101 95
247 175 31 129 100 94
248 160 23 130 116 106
248 161 22 131 117 104
248 161 23 130 117 104
249 160 23 135 120 111
249 161 22 138 121 108
248 162 22 128 113 101
248 163 22 130 113 100
249 162 22 133 114 96
249 163 22 134 108 90
250 160 22 141 122 110
250 160 23 141 125 115
250 161 22 140 116 99
251 160 22 141 118 101
251 160 23 141 122 108
251 161 22 141 118 101
250 162 22 137 114 94
250 163 22 140 107 87
251 162 22 141 114 94
251 163 22 143 110 89
251 163 23 148 98 68
248 164 22 131 113 97
248 165 22 128 105 84
249 164 22 135 104 87
249 165 22 129 105 80
248 166 22 133 91 60
248 167 22 145 75 26
249 166 22 139 90 58
249 166 23 150 77 45
249 167 23 155 72 12
250 164 22 141 103 82
250 165 22 130 105 79
250 165 23 137 94 60
251 164 22 149 96 65
251 164 23 145 96 66
251 165 23 140 94 57
250 166 23 149 81 51
250 167 23 157 75 23
251 166 23 148 85 54
252 160 23 141 118 101
252 161 22 141 118 99
252 161 23 141 117 99
253 160 23 140 118 100
253 161 23 140 113 94
252 162 22 142 115 95
252 162 23 143 111 89
252 163 23 149 98 68
253 162 23 144 105 78
253 163 23 148 100 71
254 160 23 140 116 101
254 161 23 140 104 83
252 164 23 151 94 64
248 160 24 129 115 107
251 165 24 147 89 51
251 166 24 156 80 46
251 166 25 158 81 46
251 167 24 160 78 37
251 167 25 160 81 46
251 167 26 159 75 34
251 167 27 155 72 26
251 164 31 142 78 49
251 165 30 150 81 49
251 165 31 138 77 46
250 167 29 144 67 33
251 166 28 144 78 35
251 166 29 145 76 33
251 167 28 147 74 29
251 167 29 148 73 32
250 166 30 143 68 30
250 166 31 144 72 29
250 167 30 144 67 33
250 167 31 139 69 34
251 166 30 144 72 37
251 166 31 140 70 28
253 162 24 144 101 73
253 163 24 149 94 66
253 163 25 147 91 64
253 163 26 147 90 62
253 163 27 147 91 66
254 160 24 139 110 93
254 161 24 138 102 81
254 161 25 134 96 74
255 160 24 136 108 90
255 160 25 136 106 84
255 161 25 135 99 75
255 160 26 135 105 79
255 160 27 136 101 74
255 161 26 138 99 73
255 161 27 139 96 71
254 162 24 140 100 73
254 162 25 139 95 68
254 163 25 145 92 65
254 162 26 142 93 68
254 162 27 143 92 68
254 163 26 145 92 65
254 163 27 145 91 67
253 162 29 147 88 62
253 163 28 146 89 66
253 163 29 149 88 65
252 163 31 151 85 61
253 162 30 145 88 65
253 162 31 144 85 65
253 163 30 143 88 66
253 163 31 145 86 64
254 161 28 143 92 68
254 161 29 137 93 62
255 160 28 136 98 72
255 160 29 134 96 71
255 161 28 141 95 70
255 161 29 138 92 65
254 161 30 142 85 60
254 161 31 137 82 63
255 160 30 136 99 78
255 160 31 130 91 67
255 161 30 136 91 63
255 161 31 135 87 63
254 162 28 145 90 68
254 162 29 145 87 62
254 162 30 146 85 62
254 162 31 145 86 65
252 164 24 151 91 61
252 165 24 152 88 55
252 165 25 153 87 55
253 164 24 149 91 62
253 164 25 151 88 60
252 165 26 155 86 54
252 165 27 156 88 53
253 164 26 150 88 58
253 164 27 148 89 62
253 165 26 153 87 56
252 166 25 156 82 44
252 167 25 156 77 31
252 166 26 157 81 43
252 166 27 154 81 37
252 167 26 162 77 28
252 167 27 153 76 26
252 164 28 150 89 69
252 164 29 149 88 65
252 165 28 143 88 64
252 165 29 146 87 59
253 164 28 148 89 65
253 164 29 151 91 71
252 164 30 146 83 58
252 164 31 145 81 55
252 165 30 152 85 56
252 166 28 147 82 40
252 166 29 143 81 38
248 168 22 154 65 9
248 169 22 158 64 3
249 168 23 159 65 10
249 169 23 160 63 11
248 170 22 157 62 6
248 170 23 157 61 8
248 171 22 159 62 9
248 171 23 160 60 9
249 170 23 160 62 6
249 171 23 160 59 3
250 168 23 162 69 28
250 169 23 162 67 23
250 170 23 163 63 12
248 172 23 159 61 9
248 173 23 162 65 7
249 172 23 159 60 4
248 174 23 160 66 13
249 171 24 162 62 1
250 168 24 163 75 42
250 169 24 163 73 42
251 168 24 163 76 42
251 168 25 164 77 42
251 169 24 165 75 42
251 169 25 166 77 41
251 168 26 182 75 41
251 168 27 168 71 30
251 169 26 157 74 41
251 169 27 153 70 35
250 170 24 164 73 42
250 170 25 164 73 42
250 171 24 163 66 15
250 171 25 164 68 39
251 170 24 164 76 42
251 170 25 165 75 41
250 170 26 156 71 40
250 170 27 151 68 35
250 171 26 161 66 30
250 171 27 154 67 27
251 170 26 163 73 41
251 170 27 155 72 43
249 168 31 135 69 44
249 169 30 138 71 42
249 169 31 137 70 44
249 170 29 146 69 30
249 171 28 152 68 27
249 171 29 144 72 34
248 171 30 126 89 73
248 171 31 135 76 53
249 170 30 138 71 43
249 170 31 133 76 53
249 171 30 132 79 53
249 171 31 130 82 59
250 168 29 150 66 29
250 169 28 155 67 32
250 169 29 149 68 34
251 168 28 152 70 30
251 168 29 153 70 30
251 169 28 155 69 33
250 168 30 151 69 39
250 168 31 141 69 41
250 169 30 141 69 42
250 170 28 154 67 29
250 170 29 150 69 30
250 171 28 154 67 27
248 173 24 161 63 6
249 172 24 161 63 3
249 172 25 163 63 12
249 173 24 159 63 3
249 173 25 163 63 6
248 173 27 136 70 40
249 172 26 162 63 36
249 172 27 155 65 35
249 173 26 151 66 25
249 173 27 152 67 29
248 174 24 163 63 13
248 174 25 161 65 15
248 175 25 162 66 25
248 174 26 148 69 23
248 174 27 144 68 24
248 175 26 150 75 44
248 175 27 147 80 52
250 172 25 163 65 36
250 172 26 158 64 35
248 172 29 144 72 47
248 173 28 166 69 33
248 173 29 145 71 42
249 172 28 147 67 29
249 172 29 153 71 42
249 173 28 160 72 42
248 172 30 132 77 58
248 172 31 133 89 77
248 173 30 143 84 67
248 173 31 131 98 93
248 174 28 153 71 33
248 174 29 150 80 51
248 174 30 138 93 85
240 176 22 144 56 6
240 177 22 145 63 18
241 176 22 151 54 3
241 177 22 150 62 11
240 178 22 140 76 43
240 179 22 130 93 79
241 178 22 144 76 38
241 179 22 127 100 90
242 176 22 158 55 2
242 177 22 158 57 3
243 176 22 159 56 2
243 177 22 159 57 5
242 178 22 144 74 34
242 179 22 127 102 93
242 179 23 126 109 106
243 178 22 146 74 35
243 178 23 142 83 51
243 179 23 133 102 90
240 180 22 122 117 121
240 181 22 127 124 124
241 180 22 121 117 122
241 181 22 132 130 131
240 182 22 135 123 117
240 182 23 135 101 90
240 183 23 137 61 50
241 182 22 138 122 115
241 182 23 136 105 92
241 183 23 137 66 52
242 180 22 122 117 122
242 180 23 125 119 122
242 181 22 134 129 128
242 181 23 135 130 129
243 180 23 126 121 125
243 181 23 135 128 128
242 182 23 139 117 105
242 183 23 136 77 64
243 182 23 140 116 106
244 176 22 180 55 2
244 177 22 159 56 3
244 177 23 172 60 16
245 176 22 181 56 3
245 176 23 181 60 6
245 177 23 179 66 15
244 178 23 141 83 52
244 179 23 128 108 102
245 178 23 145 76 34
246 176 23 179 71 37
246 177 23 177 70 8
244 180 23 127 123 128
244 181 23 131 128 131
243 182 24 141 106 96
243 183 24 136 70 62
245 177 24 175 71 8
244 179 24 127 111 108
245 178 24 154 87 60
245 178 25 150 97 79
245 179 24 127 110 107
245 179 25 129 118 120
245 179 26 132 111 106
245 179 27 133 100 89
246 176 24 177 78 53
246 176 25 175 70 11
246 177 24 176 71 15
246 177 25 166 76 44
247 176 24 174 78 53
247 176 25 162 80 54
246 177 26 152 85 68
246 177 27 145 93 85
247 176 26 155 86 66
247 176 27 147 89 72
246 178 25 159 85 60
246 178 26 151 90 73
246 178 27 142 99 87
245 179 28 128 85 71
245 179 29 120 72 64
245 178 30 117 69 65
245 178 31 125 65 59
245 179 30 117 70 66
245 179 31 111 72 67
246 176 29 153 89 62
246 177 28 143 99 89
246 177 29 146 93 76
247 176 28 146 91 72
247 176 29 151 93 74
246 176 30 136 91 76
246 176 31 125 87 78
246 177 30 139 72 55
246 177 31 125 62 50
247 176 30 142 96 89
246 178 28 138 96 84
246 178 29 131 76 64
246 178 30 147 57 36
246 178 31 143 55 39
244 180 24 125 123 128
244 180 25 133 124 122
244 181 24 136 126 123
244 181 25 138 114 113
245 180 25 132 122 122
245 181 25 137 110 110
245 180 26 130 109 108
245 180 27 131 97 90
245 181 26 130 99 102
245 181 27 125 95 97
244 182 24 141 108 101
244 182 25 135 90 87
244 183 25 127 63 57
244 182 26 129 89 84
244 182 27 124 84 78
244 183 26 120 57 51
244 183 27 115 54 55
245 182 26 136 89 83
245 182 27 120 96 98
245 180 28 125 83 77
245 180 29 116 82 82
245 181 28 123 91 93
245 181 29 116 86 90
244 181 31 93 78 89
245 180 30 112 78 76
245 180 31 105 70 66
245 181 30 105 82 86
245 181 31 98 76 81
244 182 28 118 78 73
244 182 29 110 74 73
244 183 28 110 57 64
244 183 29 100 59 71
245 182 28 120 89 89
245 182 29 117 87 88
244 182 30 103 77 80
244 182 31 95 75 83
244 183 30 94 64 72
244 183 31 89 65 74
240 184 23 136 45 34
240 185 23 134 49 22
241 184 23 136 47 35
241 185 23 134 45 21
240 186 23 119 55 45
241 186 23 126 56 45
242 184 23 136 45 33
242 185 23 136 42 17
240 186 24 100 50 61
240 187 24 82 51 80
241 186 24 107 50 56
241 187 24 80 50 80
241 187 25 82 51 81
242 184 24 135 43 28
242 185 24 130 48 35
243 184 24 132 43 33
243 184 25 126 47 47
243 185 25 115 54 57
243 185 26 105 53 73
243 185 27 99 47 74
242 186 24 111 50 54
242 186 25 96 49 70
242 187 24 81 48 79
242 187 25 82 50 88
243 186 25 103 53 68
242 187 26 84 42 87
243 186 26 94 46 77
243 186 27 90 44 78
243 187 26 84 45 85
243 187 27 77 45 83
243 185 28 95 45 74
243 185 29 93 49 75
243 185 30 88 47 72
243 185 31 84 46 71
243 186 28 89 48 79
243 186 29 81 49 79
243 187 28 77 49 81
243 187 29 72 51 79
242 187 31 59 53 88
243 186 30 79 48 77
243 186 31 82 45 77
243 187 30 66 53 85
243 187 31 68 56 84
240 188 24 83 51 92
240 189 25 78 53 90
241 188 24 81 53 95
241 188 25 80 56 96
241 189 25 75 51 90
241 189 26 72 53 89
240 190 25 77 59 90
240 190 26 80 55 91
240 191 26 72 51 87
241 190 26 73 56 90
241 190 27 69 53 90
241 191 26 71 55 91
241 191 27 66 55 91
242 188 25 79 53 95
242 188 26 80 50 93
242 188 27 69 50 88
242 189 26 70 53 90
242 189 27 65 52 87
243 188 27 73 47 86
242 190 26 70 55 89
242 190 27 64 53 88
242 191 27 59 54 89
241 191 28 61 57 89
241 191 29 62 56 88
241 191 31 55 56 97
242 188 28 64 49 84
242 188 29 65 52 84
242 189 28 63 51 85
242 189 29 61 54 91
243 188 28 68 47 82
243 188 29 67 51 83
242 188 30 64 52 84
242 188 31 62 56 89
242 189 30 62 55 84
242 189 31 59 54 89
243 188 30 61 53 87
243 188 31 61 55 89
243 189 31 55 53 89
242 190 28 61 53 89
242 190 29 60 54 86
242 191 28 60 54 87
242 191 29 61 55 89
242 190 30 59 53 87
242 190 31 53 53 88
242 191 30 58 55 87
242 191 31 53 55 93
243 190 30 55 52 86
243 190 31 51 51 90
243 191 31 47 54 99
244 184 25 116 46 53
244 184 26 113 50 58
244 184 27 112 53 68
244 185 26 108 53 70
244 185 27 103 51 75
244 184 28 109 54 74
244 184 29 103 49 70
244 185 28 97 50 80
244 185 29 90 46 80
244 184 30 95 54 70
244 184 31 81 55 70
244 185 30 91 47 80
244 185 31 80 50 73
