ply
format ascii 1.0
comment Version 2, Copyright 2017, 8i Labs, Inc.
comment frame_to_world_scale 0.179523
comment frame_to_world_translation -45.2095 7.18301 -54.3561
comment width 1023
element vertex 1344
property float x
property float y
property float z
property uchar red
property uchar green
property uchar blue
end_header
227 167 256 116 70 67
229 163 256 94 49 58
230 160 256 94 46 60
230 161 256 96 49 62
231 160 256 93 50 59
231 161 256 94 50 60
231 161 257 93 52 61
230 162 256 95 50 61
230 163 256 93 49 59
230 163 257 92 47 58
231 162 256 95 50 61
231 162 257 91 49 58
231 163 257 91 50 58
228 165 256 98 54 59
229 164 256 95 50 59
229 165 256 96 50 59
228 166 256 106 61 63
228 167 256 114 67 67
229 166 256 102 53 60
229 166 257 104 57 61
229 167 257 110 62 64
230 164 256 93 49 61
230 164 257 92 49 60
230 165 256 94 49 61
230 165 257 97 55 63
231 164 257 94 49 61
231 164 258 95 50 60
231 165 258 98 53 63
230 166 257 101 57 62
230 167 257 107 60 64
230 166 258 101 55 63
230 167 258 106 55 61
231 166 258 101 51 60
231 166 259 101 46 60
231 167 258 106 51 61
231 167 259 108 50 62
227 168 256 120 72 67
227 169 256 123 70 64
226 170 256 128 73 69
226 171 256 128 73 71
227 170 256 123 67 62
227 170 257 123 67 63
227 171 256 126 72 69
227 171 257 124 69 65
225 174 256 129 67 74
225 175 256 132 76 82
226 172 256 128 71 71
226 173 256 132 76 79
227 172 256 126 70 69
227 172 257 124 68 66
227 173 257 127 72 72
227 173 258 125 69 69
226 174 256 130 69 74
226 174 257 128 70 72
226 175 256 132 73 78
226 175 257 128 71 71
227 174 257 128 72 73
227 174 258 126 70 72
227 175 258 126 69 68
227 175 259 125 67 67
228 168 256 120 71 68
228 168 257 118 67 66
228 169 256 123 72 67
228 169 257 123 71 67
229 168 257 114 62 62
229 169 257 122 68 66
229 168 258 114 60 60
229 169 258 117 62 61
228 170 257 122 66 62
228 171 257 124 67 65
228 170 258 124 67 64
228 171 258 124 67 66
229 170 258 124 66 65
229 171 258 124 65 67
229 171 259 125 66 69
230 168 258 110 53 58
230 168 259 111 49 59
230 169 258 115 57 60
230 169 259 118 58 66
231 168 259 115 53 64
231 169 259 119 59 68
230 170 258 123 64 66
230 170 259 122 60 66
230 171 259 122 60 65
231 170 259 120 57 66
231 169 260 120 55 66
230 171 260 121 57 65
231 170 260 121 54 66
231 171 260 123 50 66
228 172 258 125 68 69
228 173 258 123 64 67
228 173 259 121 61 66
229 172 258 127 70 73
229 172 259 127 69 73
229 173 259 127 68 73
228 174 258 126 69 72
228 174 259 126 66 71
228 175 259 127 67 67
229 174 259 128 67 70
230 172 259 127 69 71
230 173 259 129 73 74
229 174 260 130 73 71
229 175 260 132 77 75
230 172 260 126 64 69
230 173 260 125 64 67
231 172 260 123 56 67
231 172 261 123 50 66
231 173 260 122 55 64
231 173 261 123 54 64
230 174 260 128 71 70
230 174 261 128 70 70
230 175 260 133 80 79
230 175 261 132 81 80
231 174 261 123 59 63
231 175 261 129 76 76
231 175 262 125 69 70
232 160 257 90 49 59
232 161 257 93 54 61
233 160 257 92 50 61
233 160 258 94 53 62
233 161 258 94 53 62
232 162 257 93 53 60
232 162 258 93 52 60
232 163 258 92 49 57
233 162 258 95 52 62
233 163 258 93 46 57
233 163 259 92 44 55
234 160 258 95 54 63
234 160 259 93 53 59
234 161 258 95 51 62
234 161 259 93 46 57
235 160 259 90 51 55
235 161 259 91 43 55
234 162 258 95 49 60
234 162 259 95 46 58
234 163 259 93 43 53
235 162 259 93 41 57
235 161 260 91 42 52
234 163 260 94 45 55
235 162 260 96 43 58
235 163 260 99 51 64
232 164 258 95 47 60
232 165 258 99 48 61
232 165 259 97 41 59
233 164 259 95 43 56
233 165 259 99 44 59
232 166 259 103 49 63
232 167 259 109 52 66
233 166 259 105 53 66
234 164 259 95 42 53
234 165 259 98 42 57
232 167 260 112 53 67
233 166 260 107 52 65
233 167 260 110 49 64
234 164 260 97 49 57
234 165 260 102 53 63
235 164 260 99 55 63
235 164 261 100 58 64
235 165 260 102 60 68
235 165 261 103 59 68
234 166 260 106 57 66
234 166 261 103 52 62
234 167 260 109 49 61
234 167 261 109 45 60
235 166 261 103 47 60
235 167 261 110 41 60
235 167 262 116 44 65
236 160 260 89 49 54
236 161 260 95 47 56
237 160 260 87 47 55
237 160 261 87 49 59
237 161 261 97 52 63
236 162 260 98 44 58
236 162 261 102 47 65
236 163 260 103 53 65
236 163 261 105 55 67
237 162 261 102 49 64
237 163 261 106 53 67
237 163 262 104 49 62
238 160 261 85 53 64
238 161 261 98 58 69
238 160 262 76 51 64
238 161 262 92 58 69
239 160 262 64 44 58
239 161 262 82 54 66
239 161 263 73 49 63
238 162 261 100 54 67
238 162 262 98 49 66
238 163 262 100 45 61
238 163 263 98 44 60
239 162 262 88 55 68
239 162 263 81 43 59
239 163 263 86 36 55
236 164 261 101 53 61
236 165 261 101 54 61
237 164 261 102 50 59
236 165 262 102 51 60
237 164 262 102 49 58
237 165 262 103 50 58
236 166 261 101 49 59
236 166 262 103 44 56
236 167 262 116 51 67
237 166 262 107 48 58
237 167 262 119 56 70
237 167 263 119 56 70
238 164 262 101 46 57
238 164 263 99 44 57
238 165 262 101 40 52
238 165 263 99 35 52
239 164 263 93 42 58
239 165 263 97 44 60
238 166 263 106 46 59
238 167 263 117 50 67
239 166 263 102 45 59
239 165 264 99 48 62
238 167 264 119 39 64
239 166 264 103 43 59
239 167 264 115 41 63
232 168 259 113 53 66
232 168 260 117 55 68
232 169 260 119 52 66
233 168 260 116 52 66
233 168 261 118 53 68
233 169 260 120 51 68
233 169 261 120 50 67
232 170 260 120 49 66
232 170 261 124 48 69
232 171 261 125 42 67
233 170 261 125 47 70
233 171 261 126 41 69
233 171 262 127 40 69
234 168 261 118 52 67
234 169 261 122 50 67
235 168 261 120 52 70
234 169 262 126 58 73
235 168 262 126 57 74
235 169 262 133 67 80
234 170 261 122 44 66
234 170 262 124 38 65
234 171 262 127 41 69
234 171 263 129 48 72
235 170 262 125 48 68
235 170 263 125 39 65
235 171 263 126 43 70
232 172 261 124 43 66
232 173 261 122 47 63
232 173 262 124 46 65
233 172 262 126 45 69
233 173 262 129 54 74
232 174 261 121 49 61
232 174 262 119 48 58
232 175 262 120 61 64
233 174 262 118 43 59
233 174 263 119 45 62
233 175 263 115 51 56
234 172 262 131 55 76
234 172 263 133 58 79
234 173 263 128 53 75
235 172 263 126 51 74
235 173 263 124 46 72
234 174 263 120 46 66
234 175 263 114 46 57
236 168 262 126 60 76
236 168 263 131 68 81
236 169 262 134 71 84
236 169 263 131 65 79
237 168 263 126 59 75
237 169 263 124 53 69
236 170 263 124 47 67
236 171 263 123 40 67
237 170 263 122 47 66
238 168 263 121 49 67
238 169 263 120 41 60
235 173 264 121 39 68
234 174 264 118 47 67
234 175 264 114 42 59
235 174 264 117 38 63
235 175 264 111 32 57
236 171 264 121 40 64
237 170 264 123 47 66
237 171 264 120 38 61
238 168 264 122 41 66
238 169 264 121 44 63
239 168 264 121 43 65
239 169 264 123 48 66
238 170 264 123 51 68
238 171 264 119 37 61
238 171 265 121 40 65
239 170 264 123 48 66
239 170 265 122 43 64
239 171 265 122 45 66
236 172 264 122 44 66
236 173 264 118 28 60
237 172 264 117 32 58
237 173 264 116 27 57
237 173 265 117 27 58
236 174 264 114 31 59
236 174 265 113 35 58
236 175 265 112 37 60
237 174 265 115 29 56
237 175 265 113 37 58
238 172 264 116 29 57
238 172 265 120 35 62
238 173 265 120 32 61
239 172 265 123 40 65
239 173 265 122 30 61
239 173 266 123 31 59
238 174 265 118 31 56
238 175 265 114 36 56
238 174 266 118 37 56
238 175 266 117 44 60
239 174 266 121 39 60
239 175 266 119 44 60
225 176 256 120 68 75
225 177 256 116 76 82
225 178 256 115 84 90
226 176 256 124 69 72
226 176 257 126 71 70
226 177 256 122 74 78
226 177 257 125 70 71
226 176 258 127 72 68
226 177 258 128 71 70
227 176 258 128 72 69
227 176 259 128 73 68
227 177 258 128 70 68
227 177 259 129 74 70
226 178 256 112 74 86
226 178 257 123 73 83
226 179 256 106 76 92
226 179 257 110 65 84
226 178 258 128 71 79
226 179 258 113 59 74
227 178 258 130 69 73
227 178 259 128 67 71
227 179 259 120 63 71
227 179 260 124 65 70
226 180 256 101 80 96
226 180 257 102 70 88
226 181 256 92 79 93
226 181 257 93 79 93
226 180 258 104 68 83
226 181 258 100 84 94
226 181 259 117 100 104
227 180 259 119 75 82
227 181 259 123 97 99
226 182 256 103 102 108
226 182 257 100 102 109
226 183 256 98 101 107
226 183 257 102 106 112
226 182 258 100 100 105
226 182 259 104 100 102
226 183 258 101 105 112
226 183 259 104 105 110
227 182 259 106 97 96
227 183 259 101 101 103
227 180 260 125 75 77
227 181 260 126 94 91
227 182 260 109 93 85
227 183 260 106 103 103
228 176 259 128 73 68
228 177 259 130 77 71
228 176 260 131 78 70
228 177 260 132 80 72
229 176 260 130 72 69
229 177 260 134 79 74
229 177 261 133 76 74
228 178 260 127 68 68
228 179 260 127 69 74
229 178 260 131 72 70
229 178 261 128 66 66
229 179 261 126 65 65
230 176 261 131 75 75
230 177 261 130 70 69
230 177 262 129 67 66
231 176 262 131 78 77
231 177 262 130 72 70
230 178 261 127 64 64
230 179 261 123 59 60
230 178 262 129 66 64
230 179 262 128 66 63
231 178 262 129 65 61
231 178 263 131 69 65
231 179 262 132 70 67
231 179 263 135 75 71
228 180 260 126 73 73
228 180 261 125 73 68
228 181 260 124 84 71
228 181 261 123 84 67
229 180 261 127 75 64
229 181 261 131 94 71
228 182 260 116 93 73
228 182 261 115 96 75
228 183 261 112 102 93
229 182 261 123 97 73
229 183 261 119 105 90
229 182 262 122 96 70
229 183 262 120 103 87
230 180 262 130 75 63
230 181 262 131 89 66
231 180 263 132 74 63
231 181 263 136 90 72
230 182 262 129 95 68
230 182 263 129 91 63
230 183 262 124 96 69
230 183 263 125 90 64
231 182 263 132 91 65
231 183 263 129 91 64
231 183 264 134 97 73
226 184 256 100 101 107
226 184 257 99 100 106
226 185 256 102 101 105
226 185 257 102 100 105
226 184 258 99 101 107
226 184 259 106 107 113
226 185 258 99 100 105
226 185 259 100 101 107
226 186 256 99 99 104
226 186 257 99 99 105
226 187 256 101 102 108
226 187 257 104 105 111
226 186 258 100 101 107
226 186 259 107 107 114
226 187 258 101 102 109
226 187 259 101 103 109
227 184 260 104 104 108
227 185 260 99 99 107
227 185 261 99 97 101
226 187 260 100 101 107
227 186 260 107 108 114
227 186 261 100 101 107
227 187 260 99 101 108
227 187 261 99 101 107
226 188 256 103 102 106
226 188 257 101 102 108
226 189 256 105 101 101
226 189 257 103 101 104
226 188 258 100 101 107
226 188 259 102 102 108
226 189 258 99 99 103
226 189 259 100 100 104
226 190 256 109 98 93
226 190 257 106 100 100
226 191 256 112 96 88
226 191 257 109 98 98
226 190 258 105 101 104
226 190 259 104 102 106
226 191 258 104 98 101
226 191 259 100 99 104
226 188 260 102 103 108
226 189 260 101 100 105
227 188 260 103 104 110
227 188 261 102 102 107
227 189 260 101 100 105
227 189 261 103 103 109
227 189 262 101 101 108
226 190 260 103 101 106
226 191 260 96 98 105
227 190 260 97 98 103
227 190 261 94 96 103
227 191 261 91 96 105
227 190 262 97 99 106
227 191 262 91 97 106
227 191 263 96 102 112
228 184 261 104 99 99
228 185 261 101 99 102
228 185 262 108 101 100
229 184 262 110 97 88
229 185 262 114 100 94
228 186 261 100 99 105
228 187 261 100 102 107
228 186 262 98 94 98
228 187 262 101 101 105
229 186 262 101 92 93
229 186 263 104 89 87
229 187 263 103 99 99
230 184 262 122 97 77
230 184 263 127 96 77
230 185 263 122 90 76
231 184 263 130 91 66
230 186 263 113 89 81
230 187 263 105 99 96
228 188 262 100 100 105
228 188 263 98 98 103
228 189 262 103 103 110
228 189 263 101 102 109
229 188 263 100 99 102
229 189 263 98 97 104
228 190 262 98 101 108
228 190 263 100 104 112
228 191 263 97 103 112
229 190 263 104 106 114
230 185 264 124 89 73
231 184 264 129 91 68
231 185 264 129 92 74
230 186 264 115 91 76
230 187 264 106 91 78
231 186 264 120 89 72
231 186 265 117 86 68
231 187 264 114 90 72
231 187 265 115 89 71
229 189 264 100 98 106
228 191 264 92 100 112
229 190 264 96 100 108
229 191 264 84 94 106
230 188 264 107 98 93
230 189 264 102 96 102
230 189 265 109 98 94
231 188 265 115 92 76
231 189 265 105 89 78
230 190 264 93 94 103
230 190 265 82 85 93
230 191 265 79 92 106
231 190 265 84 85 87
231 190 266 86 84 83
231 191 266 72 86 100
232 176 262 129 76 76
232 176 263 127 71 71
232 177 263 131 74 74
233 176 263 119 58 61
233 177 263 123 59 64
232 178 263 131 67 65
232 179 263 138 78 73
233 178 263 123 54 61
232 180 263 138 82 69
232 181 263 141 94 77
232 182 263 137 91 69
233 177 264 121 52 60
232 179 264 135 74 68
233 178 264 125 54 61
233 179 264 131 64 63
234 176 264 115 45 59
234 177 264 118 48 60
234 177 265 117 46 59
235 176 264 110 30 54
235 176 265 111 32 56
235 177 265 114 42 58
234 178 264 122 51 61
234 178 265 119 47 58
234 179 264 122 48 53
234 179 265 121 54 54
235 178 265 118 50 59
235 179 265 120 57 53
235 179 266 123 63 57
232 180 264 140 85 72
232 181 264 144 97 79
233 180 264 139 84 69
233 181 264 140 91 71
232 182 264 137 94 71
232 183 264 137 100 77
233 182 264 138 94 72
233 182 265 135 90 70
233 183 264 134 95 71
233 183 265 131 91 66
234 180 265 130 73 60
234 181 265 137 87 69
235 180 266 133 82 68
235 181 266 136 89 68
234 182 265 136 89 69
234 183 265 129 87 61
234 182 266 135 88 66
234 183 266 132 88 62
235 182 266 135 90 66
235 183 266 133 87 61
236 176 265 113 39 59
236 177 265 115 44 61
237 176 265 114 39 59
236 177 266 116 43 62
237 176 266 114 33 56
237 177 266 116 34 57
236 178 265 117 49 62
236 178 266 119 50 61
236 179 266 127 68 64
237 178 266 118 41 57
237 179 266 126 62 62
237 179 267 130 69 66
238 176 266 116 37 58
238 177 266 116 27 55
239 176 266 118 37 58
239 176 267 118 35 58
239 177 267 119 31 58
238 178 266 118 33 54
238 178 267 119 33 54
238 179 267 123 50 56
239 178 267 122 37 60
239 179 267 124 49 60
236 180 266 138 90 77
236 181 266 134 87 65
236 181 267 136 88 66
237 180 266 137 85 76
237 180 267 135 80 70
237 181 267 136 83 66
236 182 266 140 97 73
236 182 267 143 100 77
236 183 267 136 88 64
237 182 267 141 90 70
237 183 267 138 85 64
238 180 267 131 69 64
238 181 267 137 79 68
239 180 267 131 68 68
239 181 267 135 73 68
238 182 267 136 77 63
238 183 267 141 87 69
239 182 267 132 66 57
238 183 268 138 82 65
239 182 268 132 67 59
239 183 268 134 73 58
232 184 264 128 90 66
232 185 264 130 94 73
232 185 265 129 91 68
233 184 265 128 90 61
233 185 265 124 86 53
232 186 265 123 86 67
232 187 265 119 83 64
233 186 265 125 85 61
232 187 266 120 79 61
233 186 266 125 83 62
233 187 266 125 80 64
234 184 265 127 88 57
234 184 266 128 86 55
234 185 266 126 86 54
235 184 266 132 87 58
235 184 267 138 91 68
235 185 266 134 92 65
235 185 267 134 88 63
234 186 266 126 82 58
234 186 267 126 79 56
234 187 266 125 79 59
234 187 267 126 80 58
235 186 267 130 84 56
235 187 267 129 84 60
232 188 265 118 86 66
232 188 266 119 82 65
232 189 266 109 80 64
233 188 266 124 80 60
233 189 266 116 81 62
233 189 267 120 79 57
232 190 266 96 86 79
232 190 267 88 85 84
232 191 266 71 78 86
232 191 267 74 84 94
233 190 267 103 87 74
233 191 267 85 87 92
234 188 267 126 79 56
234 189 267 124 83 57
235 188 267 129 82 60
234 190 267 112 87 68
234 189 268 126 85 57
235 188 268 130 83 59
235 189 268 129 85 59
234 190 268 116 89 69
234 191 268 94 87 84
235 190 268 119 84 62
235 190 269 109 76 62
235 191 268 95 74 64
235 191 269 90 72 66
236 184 267 134 85 60
236 185 267 132 83 54
237 184 267 135 79 56
237 185 267 134 84 59
236 186 267 131 86 55
237 185 268 137 89 66
236 186 268 134 89 60
236 187 268 134 90 65
237 186 268 134 90 62
237 187 268 136 93 71
238 184 268 140 86 65
238 185 268 135 86 59
239 184 268 140 84 65
239 185 268 134 80 56
238 186 268 131 85 56
238 187 268 129 84 61
239 186 268 132 83 57
239 187 268 128 82 58
239 187 269 127 82 59
236 188 268 133 83 58
236 189 268 131 85 60
237 188 268 134 88 66
237 189 268 131 82 55
237 189 269 129 84 55
236 190 268 127 86 64
236 190 269 119 82 65
236 191 269 95 73 67
237 190 269 125 91 71
237 191 269 100 79 71
237 191 270 96 82 79
238 188 268 135 91 72
238 188 269 133 91 69
238 189 269 129 91 64
239 188 269 126 84 59
239 189 269 122 88 63
238 190 269 121 95 76
239 190 269 106 86 68
238 191 270 99 85 79
239 190 270 99 88 80
239 191 270 96 90 87
240 160 263 51 41 56
240 161 263 60 44 59
241 160 263 45 39 55
241 161 263 51 37 58
240 162 263 59 40 51
240 163 263 75 38 51
241 160 264 45 39 56
241 161 264 49 37 57
240 162 264 54 38 45
240 163 264 71 45 54
241 162 264 51 42 54
241 163 264 66 46 57
242 160 264 54 48 62
242 161 264 52 41 61
242 161 265 50 43 62
243 160 265 56 47 64
243 161 265 48 40 59
242 162 264 52 45 58
242 162 265 48 46 60
242 163 264 57 43 56
242 163 265 52 40 57
243 162 265 44 42 57
243 163 265 44 40 58
240 164 264 87 48 60
240 165 264 94 49 61
241 164 264 79 51 64
241 165 264 87 52 62
240 166 264 98 44 56
240 167 264 113 43 63
241 166 264 95 48 56
241 166 265 92 45 54
241 167 264 109 44 61
241 167 265 111 39 60
242 164 265 62 40 57
242 165 265 72 43 56
243 164 265 53 41 59
243 165 265 63 40 55
243 164 266 49 41 59
243 165 266 62 43 58
242 166 265 85 34 48
242 167 265 109 39 60
243 166 265 82 38 55
243 167 265 111 49 67
243 166 266 83 46 63
243 167 266 110 50 69
244 160 265 55 45 61
244 161 265 50 40 57
244 161 266 50 41 54
245 160 266 52 43 54
245 161 266 53 43 54
244 162 265 44 37 53
244 162 266 47 43 57
244 163 266 45 44 63
245 162 266 52 46 59
245 163 266 52 48 67
246 160 266 54 49 55
246 161 266 54 48 53
247 160 266 47 47 49
247 161 266 47 45 46
246 162 266 50 44 54
246 163 266 51 40 61
247 162 266 48 41 49
247 163 266 52 40 56
244 164 266 46 42 63
244 165 266 62 50 65
245 164 266 50 43 66
245 165 266 61 50 67
244 166 266 83 47 64
244 167 266 107 43 66
245 166 266 77 38 58
245 167 266 102 30 62
246 164 266 53 38 64
246 164 267 57 38 62
246 165 266 60 39 62
246 165 267 65 37 61
247 164 267 58 41 59
247 165 267 69 37 59
246 166 266 77 33 55
246 166 267 82 32 54
246 167 266 100 24 60
246 167 267 103 26 58
247 166 267 95 41 62
247 167 267 108 36 61
240 168 264 119 41 63
240 168 265 121 44 64
240 169 264 123 47 64
240 169 265 124 47 65
241 168 265 121 43 65
241 169 265 124 49 66
240 170 265 122 41 62
240 171 265 122 45 64
241 170 265 123 40 61
241 171 265 122 42 62
242 168 265 121 48 67
242 169 265 123 47 63
243 168 265 123 57 72
243 169 265 122 50 64
243 168 266 122 57 73
243 169 266 121 46 60
242 170 265 123 40 61
242 170 266 123 37 60
242 171 266 122 42 61
243 170 266 123 45 64
243 171 266 123 40 61
240 172 265 122 41 62
240 172 266 122 40 60
240 173 266 122 35 58
241 172 266 123 43 62
241 173 266 123 36 58
240 174 266 123 43 59
240 175 266 120 38 57
240 175 267 119 31 54
241 174 266 123 38 55
241 175 267 121 32 55
242 172 266 123 41 61
242 173 266 123 36 58
243 172 266 123 38 57
243 173 266 123 37 57
243 173 267 124 35 58
242 174 266 123 36 55
242 174 267 124 39 58
242 175 267 123 37 55
243 174 267 124 31 57
243 175 267 124 33 57
244 168 266 117 52 68
244 169 266 118 50 59
245 168 266 110 39 62
245 169 266 108 35 47
244 170 266 120 43 61
244 171 266 122 37 58
245 170 266 114 33 54
245 171 266 121 37 58
245 171 267 122 39 59
246 168 266 110 33 61
246 168 267 113 38 66
246 169 266 108 36 53
246 169 267 109 37 52
247 168 267 116 48 69
247 169 267 113 48 62
246 170 267 110 30 50
246 171 267 122 42 62
247 170 267 109 33 50
247 171 267 120 46 64
247 171 268 122 49 65
244 172 266 123 40 57
244 172 267 124 42 58
244 173 267 125 40 60
245 172 267 123 37 56
245 173 267 124 32 56
244 174 267 124 28 60
244 175 267 126 35 65
245 174 267 124 27 58
245 175 267 125 32 64
246 172 267 124 39 59
246 173 267 123 32 56
247 172 267 125 44 63
246 174 267 124 31 58
245 175 268 125 35 65
246 173 268 124 35 58
247 172 268 121 40 60
247 173 268 122 34 57
246 174 268 124 33 60
246 175 268 125 31 61
247 174 268 125 36 62
247 175 268 126 29 59
251 160 263 41 37 47
251 161 263 43 37 46
255 160 259 37 44 56
252 160 262 39 34 45
252 160 263 42 34 45
252 161 263 44 36 45
253 160 262 40 40 48
253 161 262 41 39 46
252 162 263 42 36 44
253 162 262 40 35 44
253 162 263 41 35 45
253 163 262 39 33 45
253 163 263 41 36 45
254 160 261 44 43 48
254 161 261 44 41 44
255 160 260 41 43 50
255 161 260 41 41 47
255 161 261 44 40 42
254 162 261 41 37 42
254 163 261 41 37 46
255 162 260 44 38 45
255 163 260 43 38 45
255 163 261 43 38 45
254 162 262 41 36 43
254 163 262 40 34 44
253 164 263 42 36 46
253 165 263 45 34 43
253 166 263 49 34 39
254 164 261 38 37 46
255 164 260 39 38 45
255 164 261 38 37 45
255 165 260 40 37 44
255 165 261 39 37 45
254 164 262 41 37 47
254 165 262 40 37 44
254 165 263 44 35 44
255 166 260 44 34 40
255 166 261 47 33 38
255 167 261 63 30 32
254 166 262 46 37 36
254 166 263 54 39 35
254 167 263 67 42 35
255 166 262 49 37 35
255 167 262 61 33 31
248 160 265 44 44 46
249 160 265 47 45 49
249 161 265 49 43 47
248 160 266 46 45 46
248 161 266 47 44 46
249 161 266 49 41 46
249 162 265 50 36 47
248 162 266 49 39 47
248 163 266 51 41 52
249 162 266 49 33 47
249 163 266 51 39 50
250 160 264 39 38 46
250 160 265 42 42 48
250 161 264 44 36 46
250 161 265 45 39 47
251 160 264 40 38 47
251 161 264 44 36 46
250 162 265 45 36 46
250 163 265 47 39 46
251 162 264 44 37 47
251 162 265 45 37 46
251 163 264 42 38 45
251 163 265 46 38 45
250 162 266 49 36 47
250 163 266 52 40 48
248 164 266 57 47 55
248 164 267 58 46 55
248 165 267 76 43 58
249 164 266 58 46 53
249 165 267 75 44 54
248 166 267 101 46 62
248 167 267 109 38 58
249 166 267 97 41 55
249 167 267 106 39 52
251 164 265 47 39 45
251 165 265 52 35 41
250 164 266 57 42 47
250 165 266 65 39 45
250 165 267 75 40 49
251 165 266 61 37 42
250 166 266 75 39 47
250 166 267 86 39 47
250 167 267 95 40 51
251 166 266 68 34 38
251 167 266 82 32 41
251 167 267 90 35 48
252 162 264 41 37 44
252 163 264 40 39 45
252 164 264 45 37 43
252 165 264 48 36 40
252 165 265 51 35 41
253 164 264 44 34 41
253 165 264 48 35 38
252 166 264 58 37 40
252 166 265 63 36 39
252 167 265 80 38 44
253 166 264 64 39 38
253 167 264 78 44 43
253 167 265 81 45 48
252 166 266 70 35 34
252 167 266 81 34 42
254 167 264 73 43 38
254 168 263 82 44 40
255 168 262 78 36 38
255 168 263 77 41 39
255 169 262 88 38 38
255 169 263 83 34 37
255 170 263 87 35 36
248 168 267 112 43 62
248 169 267 113 51 65
249 168 267 107 41 57
249 169 267 110 49 60
248 170 267 107 37 51
250 168 267 100 34 53
250 169 267 99 32 51
251 168 266 90 27 44
251 168 267 92 30 45
251 169 267 92 32 47
250 170 267 99 38 54
251 170 267 98 45 56
251 171 267 102 40 58
249 169 268 106 42 57
248 170 268 109 34 54
248 171 268 114 37 57
249 170 268 104 33 51
249 171 268 112 44 59
250 170 268 102 35 51
250 171 268 108 48 59
251 171 268 104 43 58
248 172 268 116 34 55
248 173 268 115 26 49
249 172 268 115 49 62
249 173 268 113 34 49
248 174 268 125 39 62
248 175 268 129 37 62
249 174 268 123 38 57
249 175 268 130 39 63
250 172 268 113 52 62
250 173 268 111 33 51
251 172 268 107 42 59
251 173 268 107 36 55
250 174 268 119 29 56
250 175 268 129 43 69
251 174 268 111 30 55
251 175 268 121 42 66
253 168 264 80 39 41
253 168 265 84 36 44
253 169 265 88 36 48
252 168 266 87 33 44
252 169 266 90 37 47
252 169 267 90 39 48
253 169 266 88 38 48
253 170 265 88 32 46
252 170 266 90 42 47
252 170 267 93 41 50
252 171 267 97 35 51
253 170 266 89 33 43
253 171 266 92 33 46
253 171 267 94 38 47
254 168 264 83 42 41
254 169 264 83 32 36
254 169 265 89 34 48
255 169 264 87 32 36
254 170 264 87 34 42
254 170 265 89 29 44
254 171 265 86 37 37
255 170 264 88 35 40
255 171 264 88 32 40
254 171 266 88 30 40
252 172 267 100 38 54
252 173 267 103 47 58
253 172 266 93 33 45
253 172 267 96 37 48
253 173 267 96 33 44
253 174 267 100 30 49
253 175 267 110 37 61
254 172 265 89 41 39
255 172 264 91 34 48
255 172 265 91 39 45
255 173 264 97 40 54
255 173 265 95 40 50
254 172 266 90 34 40
254 173 266 92 34 41
255 174 265 94 33 45
255 175 265 98 42 46
254 174 266 98 32 49
254 174 267 99 31 50
254 175 267 105 36 55
255 174 266 99 34 51
255 175 266 100 36 49
252 173 268 104 42 57
252 174 268 106 34 56
252 175 268 113 33 60
253 175 268 112 38 63
240 176 267 120 40 60
240 177 267 122 41 62
241 176 267 122 41 60
241 177 267 123 44 62
240 178 267 123 41 62
240 179 267 126 55 64
241 178 267 122 42 60
241 179 267 131 64 68
242 176 267 122 35 55
242 177 267 123 35 59
243 176 267 123 30 56
243 177 267 123 29 57
242 178 267 122 38 56
241 179 268 134 72 72
243 177 268 124 31 59
242 178 268 125 41 58
242 179 268 134 67 69
243 178 268 124 36 56
243 179 268 127 50 56
240 180 267 129 62 64
240 181 267 132 68 66
240 180 268 129 63 63
240 181 268 131 67 64
241 180 268 131 67 65
241 181 268 132 68 63
240 182 268 133 70 65
240 183 268 134 73 60
241 182 268 133 72 67
241 183 268 131 68 58
242 180 268 133 69 64
242 181 268 130 65 55
243 180 268 134 68 64
243 181 268 133 69 58
242 182 268 129 64 55
242 183 268 127 62 54
243 182 268 129 64 53
243 183 268 131 66 61
244 176 267 126 37 65
244 176 268 125 31 64
244 177 268 124 29 58
245 176 268 124 29 63
245 177 268 123 26 57
244 178 268 124 33 53
244 179 268 125 42 49
245 178 268 126 38 56
245 179 268 128 45 53
246 176 268 124 27 58
246 177 268 124 22 52
247 176 268 127 29 54
247 177 268 127 30 52
246 178 268 128 38 55
246 179 268 134 55 59
247 178 268 134 49 60
247 179 268 148 81 79
244 180 268 135 67 66
244 181 268 135 70 63
245 180 268 133 61 59
245 181 268 135 66 59
244 182 268 131 62 55
244 183 268 132 63 62
245 182 268 132 62 56
245 183 268 136 68 65
246 180 268 134 59 53
246 181 268 139 72 63
247 180 268 140 70 61
247 181 268 141 73 61
246 182 268 137 69 61
246 183 268 137 66 60
247 182 268 140 70 59
247 183 268 135 59 51
240 184 268 139 86 68
240 185 268 135 83 62
241 184 268 135 80 66
241 185 268 135 84 67
240 186 268 133 84 63
240 187 268 129 81 59
240 187 269 126 80 55
241 186 268 132 82 64
241 187 268 130 82 61
241 187 269 127 80 55
242 184 268 131 71 63
242 185 268 133 78 68
243 184 268 131 65 62
243 185 268 133 68 62
242 186 268 130 75 63
242 187 268 127 76 58
243 186 268 131 69 59
243 187 268 129 75 60
240 188 269 125 83 56
240 189 269 118 87 63
241 188 269 124 82 55
241 189 269 116 84 60
240 190 269 100 84 70
241 190 269 99 83 70
240 191 270 93 89 88
241 191 270 90 87 87
242 188 269 123 77 55
242 189 269 115 80 60
243 188 268 126 77 59
243 188 269 122 77 58
243 189 269 115 80 62
242 190 269 100 82 71
242 191 269 88 82 79
243 190 269 97 79 69
243 191 269 82 77 76
242 191 270 83 82 83
244 184 268 133 62 60
244 185 268 133 64 60
245 184 268 137 67 65
245 185 268 136 63 60
244 186 268 135 71 62
244 187 268 129 70 58
245 186 268 136 68 63
245 187 268 131 67 58
246 184 268 140 70 66
246 185 268 137 62 58
247 184 268 140 68 61
247 185 268 141 68 64
246 186 268 137 64 62
246 187 268 133 65 62
247 186 268 136 58 55
247 187 268 133 62 58
244 188 268 123 74 57
244 189 269 113 74 59
245 188 268 126 73 61
245 189 268 121 75 66
245 189 269 114 74 61
244 190 269 94 73 66
244 191 269 84 79 78
245 190 269 95 71 66
245 191 269 85 79 79
246 188 268 130 70 66
246 189 268 122 72 68
246 189 269 116 71 67
247 188 268 125 59 55
247 189 268 123 68 65
246 190 269 98 68 68
246 191 269 87 78 79
247 190 268 116 71 71
247 190 269 103 66 70
247 191 269 87 72 77
248 176 268 129 30 53
248 177 268 130 32 52
249 176 268 131 32 58
249 177 268 133 38 58
248 178 268 137 51 61
248 179 268 147 79 76
249 178 268 137 47 59
249 179 268 143 63 64
250 176 268 129 32 63
250 177 268 131 34 61
251 176 268 113 13 43
251 177 268 120 18 44
250 178 268 134 40 53
250 179 268 141 57 55
251 178 268 132 41 52
251 179 268 140 53 52
248 180 268 141 67 55
248 181 268 138 63 52
249 180 268 142 67 60
249 181 268 137 56 48
248 182 268 140 66 58
248 183 268 135 56 49
249 182 268 139 61 57
249 183 268 135 57 49
250 180 268 147 71 64
250 181 268 140 55 47
251 180 268 145 61 58
251 181 268 140 52 45
250 182 268 137 52 52
250 183 268 136 61 50
251 182 268 136 48 46
251 183 268 141 69 64
253 176 267 110 30 54
253 177 267 112 29 48
254 176 267 108 39 54
254 177 267 105 32 40
255 176 266 102 38 47
255 177 266 103 39 42
255 177 267 104 42 42
254 178 267 121 63 60
254 179 267 134 75 69
255 178 266 108 50 42
255 178 267 114 62 51
255 179 266 113 59 47
255 179 267 117 61 46
252 176 268 110 17 48
252 177 268 117 17 47
253 176 268 114 33 59
253 177 268 116 28 50
252 178 268 128 39 52
252 179 268 134 47 48
253 178 268 126 51 58
253 179 268 137 64 63
254 180 267 119 49 39
254 181 267 130 59 50
255 180 266 108 41 32
255 180 267 111 39 26
255 181 266 111 42 29
255 181 267 120 46 38
254 182 267 130 53 51
254 183 267 126 47 39
255 182 267 130 59 54
255 183 267 131 57 44
252 180 268 140 57 53
252 181 268 142 63 56
253 180 268 139 66 60
253 181 268 141 68 62
252 182 268 135 51 46
252 183 268 136 61 56
253 182 268 131 48 43
253 183 268 128 50 43
254 180 268 130 59 52
254 181 268 136 63 56
254 182 268 128 47 44
254 183 268 129 54 45
248 184 268 138 61 53
248 185 268 141 66 60
249 184 268 133 53 41
249 185 268 137 58 48
248 186 268 134 57 50
248 187 268 135 66 61
249 186 268 134 54 45
249 187 268 137 67 62
250 184 268 132 56 36
250 185 268 137 57 38
251 184 268 134 56 43
251 185 268 133 49 33
250 186 268 137 56 43
250 187 268 139 61 55
251 186 268 135 52 37
251 187 268 139 58 52
248 188 268 129 62 57
248 189 268 124 67 64
249 188 268 130 63 59
249 189 268 118 56 55
248 190 268 111 66 69
248 190 269 100 62 70
248 191 269 85 66 74
249 190 268 105 55 63
249 190 269 96 59 71
249 191 269 88 64 76
250 188 268 135 69 65
250 189 268 119 59 62
251 188 268 137 73 69
251 189 268 119 64 65
250 190 268 98 57 74
250 191 269 86 65 81
251 190 268 96 59 77
251 191 268 87 67 85
251 191 269 83 66 82
255 184 267 135 63 45
255 185 267 129 48 28
255 186 267 126 45 34
255 187 267 123 46 42
252 184 268 129 46 35
252 185 268 130 44 27
253 184 268 129 50 38
253 185 268 128 43 24
252 186 268 134 53 38
252 187 268 135 55 50
253 186 268 130 51 33
253 187 268 131 52 47
254 184 268 135 63 52
254 185 268 129 45 26
254 186 268 128 50 30
254 187 268 129 54 48
255 186 268 127 47 26
255 187 268 126 52 46
255 188 267 112 34 41
252 188 268 131 61 60
252 189 268 114 59 60
253 188 268 129 61 60
253 189 268 116 66 70
252 190 268 97 63 80
252 191 268 87 69 87
253 190 268 96 64 80
253 191 268 87 68 88
254 188 268 125 56 57
254 189 268 113 62 67
255 188 268 116 39 44
255 189 268 102 43 53
254 190 268 93 63 79
254 191 268 86 65 86
255 190 268 85 57 74
255 191 268 82 60 81
