ply
format ascii 1.0
comment Version 2, Copyright 2017, 8i Labs, Inc.
comment frame_to_world_scale 0.179523
comment frame_to_world_translation -45.2095 7.18301 -54.3561
comment width 1023
element vertex 954
property float x
property float y
property float z
property uchar red
property uchar green
property uchar blue
end_header
247 160 163 114 77 64
247 160 164 119 83 73
247 160 165 117 82 70
247 160 166 104 66 53
247 160 167 99 61 47
247 161 167 106 74 66
245 160 170 106 79 70
245 160 171 102 78 74
246 160 168 104 72 57
246 160 169 107 80 65
246 161 169 100 76 69
247 160 168 104 76 62
247 161 168 105 79 68
247 161 169 100 74 66
246 160 170 105 79 69
246 160 171 99 77 73
246 161 170 90 69 65
246 161 171 75 60 61
247 161 170 88 65 59
247 162 169 90 60 57
246 162 171 57 55 66
247 162 170 79 56 61
247 162 171 66 60 75
244 160 173 96 74 71
245 160 172 95 75 75
245 160 173 78 67 71
245 161 172 68 59 67
245 161 173 60 63 80
244 160 174 75 67 72
244 160 175 63 65 80
245 161 174 54 73 93
245 161 175 61 81 101
245 162 175 45 74 100
246 161 172 64 58 65
246 161 173 58 65 84
246 162 172 52 61 77
246 162 173 52 74 95
247 162 172 51 68 88
247 162 173 43 75 98
247 163 172 31 62 89
247 163 173 36 71 96
246 162 174 41 76 101
246 162 175 32 72 98
247 163 174 47 79 103
247 163 175 52 81 104
247 164 175 51 77 102
248 160 160 104 70 68
248 160 161 110 80 69
248 161 161 116 84 69
249 161 160 115 82 73
249 161 161 113 81 69
248 160 162 114 80 64
248 160 163 117 81 69
248 161 162 116 85 69
248 161 163 113 77 64
249 161 162 113 79 64
249 161 163 109 73 59
249 162 161 108 72 60
249 162 162 106 72 55
249 162 163 115 84 70
250 162 160 112 82 73
250 162 161 111 82 72
250 163 161 116 89 81
251 163 160 118 93 85
251 163 161 110 82 74
250 162 162 111 82 69
250 162 163 121 95 84
250 163 162 111 83 74
250 163 163 106 75 68
251 163 162 104 73 65
251 163 163 102 70 62
248 160 164 115 77 66
248 161 164 108 67 56
248 161 165 111 68 60
248 161 166 111 76 70
248 161 167 108 78 71
248 162 165 113 74 71
249 162 164 116 81 71
249 162 165 112 77 73
248 162 166 110 74 74
248 162 167 100 61 59
249 162 166 100 62 61
249 162 167 96 52 51
249 163 166 101 68 56
249 163 167 107 79 72
250 162 164 120 90 81
250 163 164 108 77 70
250 163 165 106 74 67
250 163 166 102 72 61
250 163 167 112 88 79
251 164 160 101 73 62
251 164 161 100 69 59
251 164 162 106 78 69
251 164 163 113 86 78
250 164 165 112 88 82
251 164 164 117 91 84
251 164 165 115 93 88
251 165 164 117 94 86
251 165 165 94 78 77
250 164 166 105 87 82
250 164 167 98 85 82
250 165 167 66 64 71
251 164 166 107 91 90
251 165 166 82 72 80
251 165 167 65 67 79
251 166 166 58 58 83
251 166 167 58 77 98
252 165 160 109 82 71
252 165 161 116 92 82
252 165 162 118 95 86
252 165 163 116 93 86
252 166 160 117 93 81
252 166 161 115 92 82
253 166 160 109 81 73
253 166 161 100 69 62
253 167 160 100 69 61
253 167 161 102 73 70
252 166 162 107 83 75
252 166 163 96 72 70
253 166 162 94 65 61
253 166 163 90 69 70
253 167 162 102 80 79
253 167 163 97 84 89
252 165 164 102 82 77
252 165 165 89 72 70
252 166 164 82 66 71
252 166 165 63 61 78
252 167 165 60 74 97
253 166 164 82 72 82
253 167 164 85 81 93
253 167 165 65 74 94
252 166 166 58 71 95
252 166 167 59 81 104
252 167 166 52 78 102
252 167 167 49 81 105
248 161 168 105 77 69
248 162 168 96 57 54
248 162 169 92 59 60
248 163 169 92 66 72
249 162 168 98 54 52
249 163 168 105 78 75
249 163 169 93 70 76
248 162 170 84 65 78
248 163 170 74 63 80
248 163 171 59 62 85
248 163 172 41 60 88
248 163 173 39 66 94
249 164 168 98 83 82
249 164 169 79 70 77
248 164 171 54 75 92
249 164 170 61 66 81
249 164 171 61 76 93
249 165 170 76 87 100
249 165 171 79 94 110
250 164 168 90 79 79
250 164 169 80 75 79
250 165 168 61 69 81
250 165 169 65 78 91
250 165 170 76 93 109
250 165 171 78 96 114
250 166 169 65 88 107
251 166 168 59 85 106
251 166 169 56 86 109
251 167 169 34 73 101
250 166 170 58 84 106
250 166 171 51 80 103
251 166 170 44 79 103
251 166 171 38 73 98
251 167 170 45 78 104
251 167 171 49 79 103
248 164 172 57 79 99
248 164 173 57 81 103
249 164 172 73 92 110
249 165 172 75 95 114
249 165 173 58 83 104
248 164 174 54 80 102
248 164 175 48 75 99
248 165 174 41 72 95
248 165 175 38 67 92
249 165 174 37 69 93
249 166 173 50 77 100
249 166 174 45 70 94
249 166 175 47 70 93
249 167 175 44 65 92
250 166 172 45 74 98
250 166 173 44 72 95
250 167 173 45 70 94
251 167 172 47 77 100
251 167 173 45 72 96
250 166 174 52 71 95
250 167 174 44 67 93
250 167 175 43 65 92
252 167 168 37 77 104
252 167 169 34 72 101
253 168 160 109 84 76
253 168 161 109 89 85
253 168 162 101 88 91
253 168 163 89 84 92
253 169 163 67 73 88
254 168 160 113 91 84
254 168 161 111 90 85
254 169 160 108 91 88
254 169 161 97 86 88
254 168 162 98 87 89
254 168 163 84 80 89
254 169 162 79 79 90
254 169 163 60 69 86
254 170 160 82 77 84
254 170 161 69 74 88
254 171 160 64 76 94
254 171 161 59 80 100
254 170 162 61 76 96
254 170 163 48 70 94
254 171 162 67 88 109
254 171 163 64 87 110
252 168 165 59 73 93
253 168 164 75 79 93
253 168 165 47 69 92
253 169 164 47 64 85
253 169 165 33 65 93
252 168 167 30 72 99
253 168 166 25 65 94
253 168 167 35 74 100
253 169 166 43 74 101
253 169 167 49 80 104
253 170 165 49 77 105
253 170 166 52 77 106
253 170 167 51 78 104
253 171 166 40 67 99
253 171 167 44 72 102
254 169 164 43 64 87
254 170 164 43 71 98
254 170 165 42 71 99
254 171 164 51 80 106
254 171 165 43 72 102
254 170 167 48 75 104
254 171 167 32 67 97
253 172 163 53 81 105
254 172 160 63 81 101
254 172 161 58 81 103
254 173 160 51 74 97
254 173 161 41 70 95
255 173 160 47 69 93
254 172 162 54 80 104
254 172 163 48 78 103
254 173 162 39 70 97
254 173 163 42 74 100
254 174 161 55 78 100
255 174 160 60 72 94
255 174 161 64 80 101
255 175 160 91 88 104
255 175 161 88 88 105
254 174 162 60 82 105
254 174 163 69 89 110
255 174 162 74 89 110
255 175 162 83 84 102
255 175 163 72 78 98
253 172 165 38 71 98
253 173 165 47 77 100
253 172 167 48 75 99
253 173 167 53 81 103
254 172 164 42 74 100
254 172 165 39 72 98
254 173 164 47 78 102
254 173 165 54 82 105
254 172 166 45 74 99
254 172 167 53 80 103
254 173 166 50 80 103
254 173 167 46 76 101
254 174 164 62 86 109
254 174 165 49 77 102
254 175 164 57 78 101
254 175 165 43 71 97
255 175 164 60 77 98
255 175 165 52 75 99
254 174 166 37 70 98
254 174 167 26 67 95
254 175 166 54 80 103
254 175 167 56 81 103
255 175 166 66 86 106
251 168 171 58 84 107
251 168 172 50 77 101
251 168 173 38 66 95
251 169 172 39 70 98
251 169 173 41 68 98
250 168 174 39 63 93
250 168 175 45 68 96
250 169 175 51 73 99
251 168 174 40 65 95
251 169 174 47 71 99
251 169 175 52 75 100
251 170 173 46 74 101
251 170 174 40 69 97
251 170 175 44 68 95
251 171 175 56 76 98
252 168 168 43 78 104
252 168 169 50 82 106
252 169 169 54 83 107
253 168 168 48 81 106
253 169 168 58 85 108
253 169 169 51 81 105
252 168 170 55 82 107
252 168 171 52 80 105
252 169 170 41 76 101
252 169 171 39 73 100
253 170 168 47 77 102
253 170 169 42 76 100
253 171 168 33 68 97
253 171 169 50 81 104
252 170 170 36 72 99
252 170 171 43 76 101
253 170 170 42 77 101
253 170 171 48 79 103
253 171 170 57 85 107
253 171 171 53 83 106
254 171 168 43 75 102
254 171 169 39 75 100
252 169 172 45 74 100
252 170 172 53 81 105
252 170 173 49 78 103
252 171 172 48 79 103
252 171 173 44 76 101
253 171 172 44 76 101
252 171 174 51 78 101
252 171 175 61 80 101
253 172 169 43 77 103
253 172 170 43 76 101
253 172 171 46 78 102
253 173 170 41 73 99
253 173 171 54 81 104
253 174 171 60 81 104
254 172 168 48 80 105
254 172 169 40 75 102
254 173 168 40 73 100
254 173 169 34 70 98
254 173 170 46 76 101
254 174 168 35 71 97
254 174 169 48 77 100
254 175 168 61 83 103
254 175 169 55 77 99
254 174 170 58 82 104
254 174 171 58 78 100
254 175 170 50 67 93
254 175 171 48 58 87
252 172 173 57 82 105
252 173 173 62 81 102
253 172 172 47 79 103
253 172 173 58 83 106
253 173 172 59 82 105
253 173 173 58 78 100
252 172 174 60 81 101
252 172 175 58 75 94
252 173 174 56 71 92
252 173 175 49 60 83
253 174 172 54 72 97
253 174 173 47 56 83
253 175 172 51 59 86
253 175 173 53 50 78
252 174 175 51 50 76
253 174 174 49 47 75
253 174 175 53 41 69
253 175 174 57 42 68
253 175 175 57 35 64
254 175 172 52 55 81
254 175 173 60 51 75
243 160 182 91 57 68
243 160 183 94 64 72
244 160 176 62 70 89
244 160 177 61 78 96
244 161 176 64 84 105
244 161 177 52 79 101
245 161 176 56 80 103
245 161 177 40 72 98
244 160 178 55 74 96
244 160 179 50 60 90
244 161 178 32 61 91
244 161 179 38 51 88
245 161 178 29 59 92
245 161 179 47 60 92
245 162 176 33 69 96
245 162 177 29 67 95
245 162 178 45 71 99
245 162 179 59 72 99
246 162 176 38 73 98
246 162 177 47 77 102
246 163 176 53 81 104
246 163 177 55 81 105
247 163 176 51 78 103
247 163 177 49 76 102
246 162 178 51 75 101
246 162 179 49 69 96
246 163 178 51 73 100
246 163 179 45 65 94
247 163 178 49 73 100
244 160 180 58 50 78
244 160 181 72 46 68
244 161 180 53 50 80
244 161 181 66 48 73
245 161 180 59 60 88
245 161 181 71 61 83
244 160 182 87 53 67
244 160 183 94 67 78
244 161 182 85 57 74
244 161 183 92 67 82
245 161 182 77 57 77
245 162 180 63 69 95
245 162 181 72 68 92
244 162 183 93 70 88
245 162 182 85 66 87
245 162 183 93 69 89
245 163 182 80 62 90
245 163 183 92 67 91
246 162 180 51 66 93
246 163 180 48 62 92
246 163 181 62 61 92
246 163 182 79 63 91
247 164 176 42 70 97
247 164 177 40 66 95
246 164 179 46 62 94
247 164 178 44 63 95
247 164 179 46 64 96
247 165 178 46 68 96
247 165 179 44 63 95
247 166 179 41 63 94
246 164 180 53 64 95
246 164 181 65 64 95
246 165 181 70 65 95
247 165 180 48 62 95
247 165 181 61 61 94
246 164 182 80 65 94
246 164 183 93 66 91
246 165 182 81 63 93
246 165 183 89 56 87
247 165 182 71 61 92
247 166 180 45 59 92
247 166 181 59 60 91
247 166 182 78 63 90
247 166 183 91 61 87
243 160 184 97 72 77
243 160 185 99 77 82
243 160 186 93 74 83
243 160 187 92 73 85
243 160 188 96 76 91
243 160 189 96 78 92
243 160 190 94 75 88
243 160 191 93 76 90
244 160 184 96 72 82
244 160 185 97 76 84
244 161 184 93 69 84
244 161 185 93 73 87
244 160 186 93 75 87
244 160 187 93 73 87
244 161 186 92 74 89
244 161 187 93 66 88
244 162 184 93 72 88
244 162 185 91 70 89
245 162 184 93 71 90
245 162 185 89 67 88
245 163 184 93 68 90
245 163 185 92 71 91
244 162 186 88 67 87
245 162 186 88 64 87
245 162 187 93 65 88
245 163 186 95 73 92
246 163 186 94 70 90
246 163 187 92 63 86
244 160 188 97 72 91
244 160 189 97 74 90
244 161 188 94 65 87
244 161 189 97 71 90
245 161 188 93 61 85
245 161 189 93 61 85
244 160 190 95 73 88
244 160 191 91 72 89
245 161 190 94 67 87
245 161 191 93 72 90
245 162 188 95 63 88
245 162 189 94 60 84
245 162 190 94 63 85
246 161 191 94 67 89
246 162 188 96 64 88
246 162 189 93 58 85
246 163 188 92 60 86
246 163 189 96 62 88
247 163 189 96 63 90
246 162 190 94 58 86
246 162 191 97 61 87
247 162 191 103 61 87
247 163 190 99 58 87
247 163 191 110 58 83
246 164 184 93 63 89
246 164 185 92 66 88
246 165 184 92 60 86
246 165 185 92 61 83
247 165 184 93 61 85
247 165 185 95 62 85
246 164 186 92 64 87
246 164 187 94 66 89
246 165 186 93 61 84
247 164 187 95 69 92
247 165 186 93 61 87
247 165 187 92 65 91
247 166 184 92 58 83
247 166 185 95 61 86
247 166 186 92 56 85
247 164 188 91 64 90
247 164 189 91 59 88
247 165 188 87 60 88
247 164 190 100 56 87
248 164 176 40 69 95
248 165 176 43 68 93
248 165 177 47 69 96
248 165 178 51 71 98
248 166 176 51 73 95
248 166 177 49 70 95
249 166 176 51 71 94
249 166 177 42 65 92
249 167 176 44 66 92
249 167 177 39 66 93
248 166 178 38 64 92
248 166 179 39 61 91
248 167 178 39 67 93
248 167 179 45 68 94
249 167 178 38 65 93
249 167 179 47 69 94
248 166 180 46 64 92
248 166 181 59 65 92
248 167 180 49 67 91
248 167 181 56 62 86
248 167 182 71 59 82
248 167 183 84 59 80
248 165 187 89 61 88
248 166 185 90 53 82
248 167 184 89 56 83
248 167 185 91 52 84
248 166 186 92 55 84
248 166 187 96 63 88
248 167 186 97 58 86
249 166 187 107 60 84
249 167 186 103 56 82
249 167 187 121 54 71
248 164 189 94 54 86
248 165 188 94 54 84
248 165 189 101 51 82
249 165 189 120 58 81
248 164 190 108 50 78
248 164 191 119 54 72
248 165 190 111 49 78
249 165 190 126 53 68
249 165 191 128 52 61
248 166 188 102 61 87
249 166 188 117 53 76
249 166 189 126 57 74
249 167 188 130 53 63
249 166 190 135 59 69
250 165 191 139 65 66
250 166 189 137 55 58
250 167 188 137 51 54
250 167 189 139 48 46
250 166 190 139 57 57
250 166 191 140 58 56
250 167 190 140 48 44
251 166 191 140 54 50
251 167 190 139 46 41
251 167 191 140 46 43
249 168 177 53 73 98
249 168 178 52 69 94
249 168 179 47 63 88
249 169 179 45 52 79
250 168 176 51 72 97
250 168 177 58 76 99
250 169 176 47 69 95
250 169 177 48 64 90
250 169 178 50 59 85
250 169 179 47 43 72
250 170 176 43 64 90
250 170 177 44 54 82
251 170 176 48 66 91
251 170 177 51 57 84
251 171 176 60 72 93
251 171 177 56 55 81
250 170 178 50 44 74
250 170 179 52 38 66
251 170 178 55 45 73
251 171 178 56 40 70
251 171 179 56 35 63
248 168 181 52 56 80
249 168 180 48 58 83
249 168 181 50 49 74
249 169 180 43 40 69
249 169 181 47 37 64
248 168 182 64 45 70
248 168 183 82 54 77
249 168 182 60 44 68
249 168 183 82 55 78
249 169 182 62 41 65
249 169 183 78 50 75
249 170 181 51 35 58
249 170 182 59 39 62
249 170 183 77 50 73
250 170 180 52 36 61
250 170 181 51 36 59
250 171 180 56 41 62
250 171 181 56 41 62
251 171 180 56 41 63
251 171 181 56 41 62
250 170 182 60 39 61
250 170 183 78 49 71
250 171 182 61 39 61
250 171 183 78 45 64
251 171 182 63 40 61
251 171 183 81 42 62
251 172 176 59 66 87
251 172 177 57 54 79
251 172 178 57 41 70
251 172 179 61 44 69
251 172 180 58 44 67
251 172 181 55 38 62
251 173 180 60 45 69
251 173 181 56 40 62
251 172 182 61 32 58
251 172 183 85 40 61
251 173 182 62 34 59
251 173 183 83 32 57
252 172 176 56 64 86
252 172 177 54 49 75
252 173 176 47 47 74
252 173 177 50 40 69
252 173 178 59 45 70
252 173 179 64 51 72
252 174 176 53 40 69
252 174 177 55 38 65
253 174 176 55 39 67
253 174 177 56 35 64
253 175 176 56 32 62
253 175 177 56 34 62
252 174 178 57 42 64
252 174 179 57 47 66
252 175 178 56 43 64
253 175 178 55 40 64
253 175 179 55 44 65
252 173 180 60 47 69
252 173 181 54 40 62
252 173 182 63 36 60
252 173 183 81 30 55
252 174 180 56 43 64
252 174 181 53 39 60
252 175 180 53 37 60
253 175 180 54 40 62
253 175 181 53 36 59
252 174 182 60 36 56
252 174 183 78 32 48
252 175 182 60 35 56
252 175 183 74 36 51
253 175 182 62 34 56
253 175 183 74 34 49
248 168 184 90 57 85
249 168 184 89 58 86
249 168 185 96 57 87
249 169 184 88 54 82
249 169 185 96 51 80
249 168 186 107 55 81
249 168 187 126 50 66
249 169 186 107 54 80
249 170 184 92 58 82
250 168 186 120 51 71
250 168 187 131 43 58
250 169 186 119 45 69
250 169 187 133 33 55
251 169 187 137 36 52
250 170 184 98 56 78
250 170 185 110 52 75
250 171 184 102 49 69
250 171 185 117 50 68
251 171 184 106 48 66
251 171 185 125 49 62
250 170 186 124 45 64
251 170 186 135 46 56
251 170 187 139 45 48
251 171 186 136 47 51
251 171 187 138 46 34
250 168 188 139 43 44
250 168 189 140 40 35
251 168 189 140 38 32
251 169 188 140 41 45
251 169 189 140 38 38
251 168 190 139 40 37
251 168 191 139 44 40
251 169 190 139 32 35
251 170 188 139 46 39
251 170 189 138 37 35
251 172 184 109 47 60
251 172 185 126 47 54
251 173 184 105 36 51
251 173 185 120 44 49
251 172 186 136 46 45
252 171 187 138 46 31
252 168 191 139 42 40
252 169 190 138 34 35
252 169 191 139 45 44
252 170 188 137 42 32
252 170 189 138 38 38
252 171 188 138 45 36
252 171 189 138 45 45
253 171 189 139 45 48
252 170 190 139 40 44
252 170 191 141 51 54
253 170 190 140 47 50
253 170 191 140 50 53
253 171 190 139 44 46
253 171 191 139 42 43
252 173 184 104 36 48
252 173 185 125 45 47
252 172 186 139 48 42
252 172 187 139 46 34
252 173 186 136 48 42
252 173 187 138 44 39
252 174 184 98 36 48
252 174 185 117 45 48
252 175 184 88 29 43
252 175 185 105 37 41
253 175 184 83 22 38
253 175 185 98 35 40
252 174 186 127 47 45
252 174 187 134 41 42
253 174 186 125 50 48
253 174 187 129 42 45
253 175 186 114 52 48
253 175 187 117 52 46
252 172 188 139 48 42
252 173 188 138 43 41
253 172 188 139 45 45
253 172 189 139 44 47
253 173 188 137 39 44
253 173 189 137 38 44
253 172 190 139 45 44
253 172 191 139 46 43
253 173 190 138 39 43
253 174 188 129 40 44
253 174 189 131 38 44
253 175 188 117 47 42
254 172 191 140 52 46
254 173 190 139 47 46
254 173 191 140 53 48
254 174 189 126 41 46
254 175 188 109 38 32
254 175 189 110 38 33
254 174 190 131 46 48
254 174 191 133 49 50
254 175 190 119 53 46
255 175 190 118 58 52
255 175 191 125 58 57
255 176 160 96 76 97
255 176 161 92 72 95
255 177 160 93 72 92
255 177 161 98 78 97
255 176 162 90 71 95
255 176 163 91 78 98
255 177 162 96 74 96
255 177 163 100 82 101
255 178 160 100 83 99
255 178 161 102 86 101
255 178 162 101 83 101
255 178 163 94 76 95
255 179 163 91 73 94
255 176 164 82 82 99
255 176 165 86 90 107
255 177 164 102 87 104
255 177 165 101 89 105
255 176 166 83 91 108
255 176 167 76 85 104
255 177 166 92 82 100
255 177 167 81 72 93
255 178 164 93 75 94
255 178 165 94 76 94
255 179 164 91 72 93
255 179 165 93 75 93
255 178 166 98 75 94
255 178 167 99 78 96
255 179 167 111 86 101
254 176 168 60 76 98
254 176 169 58 70 94
255 176 168 63 74 95
255 177 168 79 74 93
255 177 169 84 79 97
254 176 170 65 67 92
254 176 171 69 62 88
254 177 170 85 78 98
254 177 171 86 66 89
255 177 170 97 81 99
255 178 168 103 82 98
255 178 169 106 83 99
255 179 168 110 76 94
255 179 169 109 63 86
255 178 170 105 73 93
255 178 171 101 54 79
255 179 170 106 44 75
255 179 171 108 34 66
253 176 175 54 32 60
254 176 172 62 50 77
254 176 173 58 42 71
254 177 172 75 43 75
254 177 173 71 34 68
254 176 174 56 38 65
254 176 175 55 37 64
254 177 174 72 42 69
254 177 175 68 46 69
255 178 172 99 42 70
255 178 173 99 46 71
255 179 172 113 40 65
255 179 173 114 48 69
254 178 175 82 45 67
255 178 174 97 52 73
255 178 175 95 44 65
255 179 174 112 45 68
255 179 175 107 35 63
255 180 175 115 34 66
253 176 176 56 36 61
253 176 177 57 41 65
253 176 178 56 43 66
253 176 179 56 44 67
253 177 178 58 44 67
253 177 179 61 45 69
254 176 176 55 40 65
254 177 176 61 43 66
254 177 177 56 41 65
254 177 178 61 44 66
254 177 179 65 45 68
254 178 176 77 36 61
254 178 177 74 34 59
255 178 176 92 32 58
255 178 177 92 36 60
255 179 176 108 31 62
255 179 177 108 41 67
254 178 178 81 44 67
254 178 179 81 38 64
254 179 179 105 41 67
255 179 178 108 44 70
255 179 179 112 42 68
253 176 180 58 43 65
253 176 181 66 43 66
253 177 180 66 45 69
253 177 181 73 41 65
253 176 182 71 35 60
253 176 183 81 31 52
253 177 182 82 32 58
253 177 183 99 43 61
254 177 180 70 43 68
254 177 181 79 40 65
254 177 182 89 37 62
254 178 180 88 36 62
254 178 181 97 43 65
254 179 180 113 45 68
254 179 181 118 50 71
255 179 180 116 45 68
254 178 182 103 41 64
254 178 183 108 36 60
254 179 182 117 40 64
254 179 183 113 21 51
255 180 176 115 35 65
255 180 177 116 38 65
255 180 178 119 43 68
255 180 179 121 43 65
255 181 178 123 45 65
255 181 179 126 47 63
255 180 180 126 49 70
255 180 181 128 51 72
255 181 180 129 48 66
255 181 181 132 50 69
254 180 182 124 38 65
254 180 183 124 34 62
255 180 182 130 41 68
255 180 183 129 39 68
255 181 182 134 45 69
255 181 183 133 41 68
255 182 180 131 47 65
255 182 181 134 45 66
255 182 182 135 41 65
255 182 183 136 35 65
255 183 182 135 31 61
255 183 183 136 29 61
253 176 184 92 34 48
253 176 185 104 48 54
253 177 184 107 49 62
253 177 185 109 46 56
253 176 186 109 55 50
253 176 187 107 50 43
253 177 186 107 45 46
254 177 185 107 37 48
254 176 186 102 47 39
254 176 187 101 40 30
254 177 186 104 38 36
254 177 187 104 45 39
254 178 184 110 36 56
254 178 185 111 37 53
254 179 184 114 29 51
254 179 185 118 45 59
254 178 186 112 48 54
254 178 187 112 56 57
254 179 186 113 47 55
254 179 187 108 47 50
255 178 187 107 49 52
255 179 187 104 36 42
254 176 188 100 41 27
254 176 189 104 49 39
254 177 188 108 59 51
255 176 189 105 53 41
255 177 188 112 65 58
255 177 189 111 64 56
255 176 190 111 57 50
255 176 191 113 55 54
255 177 190 106 49 45
255 177 191 105 39 40
254 178 188 109 54 52
255 178 188 105 43 44
255 178 189 107 42 44
255 179 188 102 27 39
255 179 189 103 25 40
255 178 190 107 38 48
255 178 191 106 33 50
255 179 190 108 39 53
254 180 184 124 37 60
254 180 185 122 39 59
255 181 184 132 41 66
255 181 185 129 40 63
254 180 186 114 34 51
255 180 186 107 28 44
255 180 187 103 29 43
255 181 186 117 29 53
255 181 187 105 25 45
255 182 184 136 31 64
255 182 185 134 29 64
255 183 184 138 27 63
255 183 185 138 24 64
255 182 186 124 25 58
255 182 187 109 18 46
255 183 186 130 25 63
255 183 187 116 24 54
255 180 188 103 32 48
255 180 189 103 29 47
255 181 188 99 27 46
255 181 189 100 24 47
255 180 190 99 19 40
255 181 190 100 22 46
255 182 188 100 22 42
255 182 189 100 33 49
255 183 188 105 29 52
255 183 189 102 33 54
255 182 190 107 43 61
255 184 184 138 27 64
255 184 185 139 27 65
255 184 186 133 23 63
255 184 187 117 21 53
255 184 188 106 25 49
