ply
format ascii 1.0
comment Version 2, Copyright 2017, 8i Labs, Inc.
comment frame_to_world_scale 0.179523
comment frame_to_world_translation -45.2095 7.18301 -54.3561
comment width 1023
element vertex 1675
property float x
property float y
property float z
property uchar red
property uchar green
property uchar blue
end_header
225 194 256 90 83 86
225 195 256 73 79 91
226 192 256 107 89 81
226 192 257 103 91 91
226 193 256 105 89 84
226 193 257 96 85 86
226 192 258 97 93 97
226 192 259 97 98 105
226 193 258 85 85 93
226 193 259 80 89 100
226 194 256 91 82 86
226 194 257 79 79 88
226 195 256 70 76 90
226 195 257 64 78 95
226 194 258 73 81 95
226 194 259 64 82 100
226 195 258 59 80 99
226 195 259 51 78 99
226 192 260 96 102 112
226 192 261 92 103 117
226 193 260 83 97 113
226 193 261 80 100 119
227 192 261 89 99 112
227 193 261 84 101 120
227 192 262 79 94 111
227 192 263 78 95 113
227 193 262 72 97 120
227 193 263 63 93 118
226 194 260 63 89 110
226 194 261 64 94 118
226 195 260 39 75 100
226 195 261 44 80 107
226 194 262 63 95 121
226 195 262 50 86 112
227 194 262 65 97 122
227 194 263 62 97 123
227 195 262 54 89 115
227 195 263 62 95 122
225 196 256 67 78 93
225 196 257 60 77 97
225 197 256 67 77 94
225 197 257 54 75 97
225 197 258 48 76 99
225 198 256 78 82 94
225 198 257 59 77 95
225 199 256 87 84 92
225 199 257 73 81 94
225 198 258 46 76 98
225 199 258 59 79 97
225 199 259 53 79 100
226 196 257 57 78 99
226 196 258 55 79 101
226 196 259 49 78 101
226 197 258 48 77 100
226 197 259 44 76 99
226 198 259 45 77 101
226 199 259 47 77 101
226 196 260 47 78 101
226 196 261 40 75 101
226 197 260 44 76 100
226 197 261 44 75 100
226 196 262 43 79 105
226 197 262 44 77 101
227 196 263 53 87 112
227 197 263 51 83 107
226 198 260 46 78 102
226 198 261 44 78 103
226 199 260 44 78 102
226 199 261 41 78 104
226 198 262 38 75 101
226 198 263 40 75 102
226 199 262 43 79 106
226 199 263 48 81 108
227 198 263 43 78 104
227 199 263 49 82 109
228 192 263 79 95 112
227 194 264 61 96 124
227 195 264 63 97 123
227 196 264 63 95 120
227 197 264 61 91 115
227 198 264 47 81 107
227 199 264 40 79 106
227 199 265 40 79 106
228 192 264 76 95 112
228 193 264 65 93 119
229 192 264 76 95 114
229 192 265 72 93 112
229 193 264 69 95 119
229 193 265 65 93 119
228 194 264 61 96 122
228 194 265 61 95 121
228 195 264 63 96 123
228 195 265 61 94 121
229 194 265 63 95 121
229 195 265 61 93 121
229 194 266 65 97 122
229 195 266 62 93 118
230 192 265 60 86 107
230 193 265 59 90 115
230 192 266 53 82 105
230 193 266 58 90 115
231 192 266 57 83 104
231 192 267 56 85 107
231 193 266 56 88 112
231 193 267 58 90 114
230 194 266 64 95 120
230 194 267 60 91 116
230 195 266 61 93 118
230 195 267 62 93 116
231 194 267 57 89 114
231 195 267 64 91 114
231 195 268 63 92 115
228 196 264 65 96 120
228 196 265 63 94 120
228 197 265 59 91 117
228 197 266 59 93 118
229 196 266 61 93 119
229 197 266 60 93 120
229 197 267 60 93 120
228 198 265 52 86 112
228 199 265 45 82 109
228 198 266 55 89 116
228 199 266 52 88 115
229 198 266 57 91 118
229 198 267 58 93 120
229 199 266 56 91 118
229 199 267 62 95 121
230 196 267 62 92 118
230 197 267 62 94 120
230 198 267 59 93 120
230 196 268 63 92 118
230 197 268 62 94 120
231 196 268 62 93 118
231 197 268 62 95 120
231 197 269 63 95 121
230 198 268 58 92 118
230 199 268 63 93 118
231 198 268 61 93 118
231 198 269 62 93 118
231 199 268 63 92 115
231 199 269 62 90 114
225 200 256 92 84 92
225 200 257 82 83 93
225 201 256 98 90 95
225 201 257 89 86 95
225 200 258 71 80 94
225 200 259 62 80 97
225 201 258 83 85 96
225 201 259 72 82 96
224 202 256 109 102 104
224 203 256 113 109 110
225 202 256 103 95 100
225 202 257 97 91 97
225 203 256 106 100 103
225 203 257 102 96 99
225 202 258 90 87 96
225 202 259 83 84 94
225 203 258 97 92 96
225 203 259 91 87 93
225 200 260 53 77 97
225 201 260 62 79 97
225 202 260 70 81 96
225 203 260 83 83 93
225 203 261 68 78 93
226 200 260 50 78 101
226 200 261 44 77 102
226 201 260 51 76 98
226 201 261 48 77 100
226 200 262 39 76 102
226 200 263 37 76 103
226 201 262 47 79 103
226 201 263 43 78 103
227 200 263 37 76 105
226 202 261 60 80 99
226 203 261 59 76 95
226 202 262 54 80 101
226 202 263 48 79 102
226 203 262 54 76 96
226 203 263 52 80 101
224 204 256 116 113 114
224 204 257 108 105 106
224 205 256 115 107 107
224 205 257 108 97 99
225 204 257 107 102 103
224 205 258 105 89 91
225 204 258 101 96 98
225 204 259 97 90 95
225 205 258 104 91 94
225 205 259 104 86 93
224 206 256 103 65 67
224 206 257 104 66 72
224 207 256 109 14 45
224 207 257 110 16 45
224 206 258 103 64 70
224 207 258 112 15 44
225 206 258 103 62 69
225 206 259 104 60 70
225 207 258 108 19 43
225 207 259 111 19 47
225 204 260 91 85 94
225 204 261 82 82 96
225 205 260 100 82 91
225 205 261 95 83 94
225 205 262 91 86 96
225 206 260 101 61 71
225 206 261 100 67 76
225 207 260 108 23 45
225 207 261 105 29 49
225 206 262 98 72 81
225 207 262 102 32 51
225 207 263 103 30 49
226 204 262 71 83 99
226 204 263 60 82 100
226 205 262 86 85 97
226 205 263 76 83 96
226 206 263 91 72 84
226 207 263 100 43 60
227 200 264 39 78 106
227 200 265 43 80 108
227 201 264 42 78 106
227 201 265 46 81 107
226 202 264 47 79 104
226 203 264 52 82 104
227 202 264 46 81 107
227 202 265 56 88 113
227 203 264 43 79 104
227 203 265 45 80 105
226 204 264 55 82 101
226 205 264 68 80 95
227 204 264 46 78 100
227 204 265 44 76 98
227 205 264 58 78 95
227 205 265 58 73 91
227 204 266 53 77 98
227 205 266 57 70 88
226 206 264 82 70 85
226 207 264 97 41 60
226 207 265 101 38 56
227 206 265 77 67 84
227 207 265 94 49 65
227 206 266 71 61 79
227 207 266 95 45 64
227 207 267 98 39 61
228 200 265 50 85 112
228 201 265 47 82 108
228 200 266 56 89 115
228 201 266 47 82 108
229 200 267 61 93 118
229 201 267 51 85 110
228 202 266 52 85 110
228 202 267 45 81 106
228 203 266 54 84 107
228 203 267 56 84 106
229 202 267 42 77 103
229 203 267 57 84 106
229 200 268 60 90 116
229 201 268 59 90 114
229 202 268 49 81 107
229 203 268 60 84 105
230 200 268 63 92 117
230 200 269 64 93 118
230 201 268 62 92 117
230 201 269 63 93 119
231 200 269 65 93 118
231 201 269 62 93 119
231 201 270 63 93 119
230 202 268 57 89 113
230 202 269 62 94 118
230 203 268 59 85 107
230 203 269 54 81 104
231 202 269 64 95 119
231 203 269 57 87 110
231 202 270 65 96 121
231 203 270 50 80 103
228 204 266 56 77 98
228 204 267 54 70 93
228 205 266 59 68 86
228 205 267 60 64 83
228 206 267 70 58 75
228 207 267 91 47 68
229 204 268 50 63 86
229 205 268 56 56 75
228 206 268 69 54 72
228 207 268 94 42 63
229 206 268 69 53 69
229 207 268 91 46 64
229 207 269 93 44 63
230 204 268 45 58 83
230 204 269 40 53 81
230 205 269 49 49 72
230 205 270 52 49 70
231 204 270 37 59 84
231 205 270 47 54 75
230 206 269 71 53 68
230 207 269 94 44 63
230 206 270 68 53 70
230 207 270 94 40 62
231 206 270 63 54 71
231 206 271 71 51 69
231 207 270 90 41 64
231 207 271 88 41 64
232 192 267 61 84 103
232 193 267 54 86 110
233 192 267 69 86 102
232 194 267 55 88 114
232 193 268 49 82 107
233 192 268 74 87 101
233 193 268 58 84 105
232 194 268 59 89 113
232 195 268 63 91 114
232 195 269 64 93 116
233 194 268 59 88 111
233 194 269 60 88 111
233 195 269 61 90 113
234 192 268 79 87 96
234 192 269 80 84 88
234 193 268 72 89 105
234 193 269 74 87 100
235 192 269 84 79 80
235 193 269 74 80 87
234 194 269 65 88 107
234 195 269 63 90 112
235 194 269 66 80 94
234 194 270 67 89 108
234 195 270 61 88 110
235 194 270 64 81 97
235 195 270 65 88 107
232 196 268 63 93 118
232 196 269 61 93 118
232 197 269 60 94 119
233 196 269 59 91 115
233 197 269 59 92 117
233 196 270 59 90 115
233 197 270 61 92 117
232 198 269 59 91 116
232 199 269 58 88 112
232 198 270 59 88 113
232 199 270 63 89 112
233 198 270 62 91 115
233 199 270 64 90 112
233 199 271 64 90 111
234 196 270 62 91 114
234 197 270 66 94 117
234 197 271 62 91 114
235 196 270 61 88 110
235 196 271 61 86 107
235 197 271 62 89 111
234 198 270 65 93 116
234 198 271 63 90 113
234 199 271 64 90 112
235 198 271 63 89 112
236 192 269 84 75 75
236 192 270 82 76 79
236 193 270 73 75 83
237 192 270 89 82 85
237 193 270 83 85 93
236 194 270 69 82 95
236 195 270 70 86 102
236 195 271 71 86 102
237 194 270 71 80 93
237 194 271 70 80 92
237 195 271 70 82 96
238 192 270 86 82 83
238 193 270 82 84 89
239 192 270 88 87 89
239 193 270 86 86 91
239 193 271 84 85 90
238 194 270 71 77 86
238 194 271 78 82 89
238 195 271 77 83 93
239 194 271 81 82 86
239 195 271 84 85 91
236 196 271 70 87 104
236 197 271 70 90 109
237 196 271 64 79 96
237 197 271 66 84 101
238 196 271 67 79 93
232 200 270 64 92 116
232 201 270 63 93 119
233 200 271 63 91 114
233 201 271 62 92 117
232 202 270 65 96 121
232 202 271 63 94 120
232 203 270 51 84 108
232 203 271 49 82 107
233 202 271 61 92 118
233 203 271 50 82 107
234 200 271 63 90 114
232 204 270 38 69 93
232 204 271 39 67 89
232 205 271 49 65 83
233 204 271 44 73 95
233 205 271 45 71 91
232 206 271 64 63 79
232 207 271 82 47 65
234 199 272 64 89 111
235 198 272 64 90 112
235 199 272 62 88 111
236 197 272 69 90 108
237 197 272 63 82 99
236 198 272 66 89 110
236 199 272 61 86 109
236 199 273 60 85 108
237 198 272 63 85 105
237 199 272 61 86 107
237 199 273 61 85 107
238 196 272 66 79 92
238 197 272 65 82 97
239 196 272 80 85 93
239 197 272 80 87 98
238 198 272 64 83 100
238 198 273 60 79 98
238 199 273 57 79 99
239 198 272 81 89 102
239 198 273 78 89 103
239 199 273 64 81 98
233 203 272 46 79 103
234 200 272 61 90 113
234 201 272 64 94 118
235 200 272 61 90 113
235 200 273 63 91 114
235 201 272 65 93 117
235 201 273 65 93 117
234 202 272 62 93 118
234 203 272 45 79 103
234 203 273 48 81 105
235 202 273 64 93 117
235 203 273 45 77 102
233 204 272 48 75 97
233 205 272 50 72 91
232 207 272 92 33 59
233 206 272 58 73 89
233 207 272 77 54 71
234 204 272 45 73 97
234 204 273 39 69 94
234 205 272 43 72 94
234 205 273 41 70 94
235 204 273 36 69 93
235 205 273 41 69 93
234 206 272 52 73 90
234 206 273 45 69 89
234 207 272 67 71 85
234 207 273 72 64 80
235 206 273 40 67 88
235 207 273 56 66 83
235 206 274 41 66 89
235 207 274 60 65 81
236 200 273 61 88 111
236 201 273 67 93 115
237 200 273 61 85 107
237 201 273 66 91 113
236 202 273 63 90 113
236 203 273 42 75 99
237 202 273 63 89 111
236 203 274 39 73 98
237 202 274 54 83 106
237 203 274 35 71 96
238 200 273 56 80 102
238 201 273 59 86 109
239 200 273 65 85 104
238 201 274 61 87 109
239 201 274 65 87 106
238 202 274 49 79 102
238 203 274 38 70 94
239 202 274 51 78 99
239 203 274 41 69 92
236 204 274 34 67 92
236 205 274 38 68 91
237 204 274 33 68 93
237 205 274 37 68 93
236 206 274 38 65 88
236 207 274 52 65 83
237 206 274 41 67 89
237 207 274 50 67 85
237 207 275 55 66 82
238 204 274 37 68 92
238 205 274 36 66 90
238 205 275 37 66 90
239 204 274 37 67 91
239 204 275 41 69 91
239 205 275 40 68 90
238 206 274 39 67 90
238 206 275 42 68 90
238 207 275 44 66 86
239 206 275 41 67 90
239 207 275 40 66 86
224 208 256 108 33 55
224 208 257 112 30 56
224 209 256 94 65 76
224 209 257 97 59 73
224 208 258 114 26 56
224 208 259 113 39 59
224 209 258 101 58 73
224 209 259 103 60 74
225 208 259 115 30 53
225 209 259 109 48 66
224 210 256 86 85 91
224 210 257 87 85 91
224 211 256 93 52 65
224 211 257 92 60 69
224 210 258 91 85 91
224 210 259 96 74 84
224 211 258 93 64 72
224 211 259 97 67 77
225 208 260 115 31 52
225 208 261 113 27 50
225 209 260 108 51 68
225 209 261 109 46 65
225 208 262 111 23 44
225 208 263 108 16 41
225 209 262 107 40 62
225 209 263 106 36 55
224 211 260 99 66 76
225 210 260 100 73 84
225 210 261 101 70 81
225 211 260 97 70 80
225 211 261 99 70 82
225 210 262 102 66 80
225 210 263 102 67 80
225 211 262 99 68 82
225 211 263 100 70 84
224 212 256 116 20 52
224 212 257 115 21 50
224 213 256 115 37 59
224 213 257 118 35 60
224 212 258 113 20 51
224 212 259 111 25 54
224 213 258 119 31 62
224 213 259 117 28 61
224 214 256 105 56 66
224 214 257 110 52 67
224 215 257 102 57 69
224 214 258 115 48 70
224 214 259 114 44 69
224 215 258 101 46 64
224 215 259 100 50 65
224 212 260 111 35 61
224 213 260 118 29 63
224 213 261 120 23 67
225 212 260 107 45 65
225 212 261 111 37 66
225 213 261 119 22 67
225 212 262 109 37 64
225 212 263 106 34 63
225 213 262 119 20 65
225 213 263 118 18 61
224 214 260 115 42 67
224 214 261 115 41 66
224 215 260 102 58 70
224 215 261 111 74 78
225 214 261 118 32 68
224 215 262 119 95 89
225 214 262 120 40 68
225 214 263 120 41 68
225 215 262 120 84 82
225 215 263 124 91 88
225 209 264 108 33 54
225 210 264 102 59 74
225 211 264 97 68 81
226 208 264 107 17 43
226 208 265 108 21 46
226 209 264 108 32 54
226 209 265 109 27 52
226 209 266 109 24 52
227 208 266 108 16 46
227 208 267 109 14 48
227 209 266 110 18 49
227 209 267 113 13 49
226 210 264 101 56 72
226 210 265 100 50 65
226 211 264 96 72 83
226 211 265 97 76 84
226 210 266 102 50 65
226 211 266 94 76 82
227 210 266 101 46 62
227 210 267 103 47 59
227 211 267 88 74 80
227 210 268 99 51 59
227 211 268 88 76 82
225 212 264 105 39 62
225 213 264 116 21 56
225 213 265 112 25 56
225 214 264 119 37 64
225 214 265 116 33 63
225 215 264 123 86 87
225 215 265 119 74 81
225 215 266 118 93 89
226 212 265 102 46 64
226 213 265 113 20 57
226 212 266 98 47 65
226 212 267 97 50 69
226 213 266 112 20 57
226 213 267 110 23 57
227 212 267 96 56 74
227 213 267 110 23 57
226 214 265 117 27 62
226 214 266 117 26 63
226 214 267 116 21 61
226 215 266 115 60 71
226 215 267 116 57 69
227 214 267 116 10 59
227 212 268 98 66 79
227 213 268 109 25 55
227 214 268 118 15 58
227 215 268 117 45 66
228 208 267 109 14 49
228 208 268 108 15 49
228 209 268 115 21 51
229 208 268 107 24 49
229 208 269 106 21 47
229 209 268 115 16 49
229 209 269 115 23 51
228 210 268 107 44 59
228 211 268 91 80 87
228 211 269 95 92 99
229 210 269 108 51 67
229 211 269 96 83 91
229 211 270 96 94 101
230 208 269 106 16 45
230 209 269 115 20 51
230 208 270 108 16 48
230 209 270 114 23 52
231 208 271 107 18 52
231 209 271 113 27 53
230 210 270 109 45 63
230 210 271 103 58 71
230 211 270 97 87 94
230 211 271 93 86 94
231 210 271 107 46 64
231 211 271 92 79 86
228 212 268 100 73 84
228 212 269 101 76 85
228 213 268 110 30 56
228 213 269 109 33 56
229 212 269 101 75 85
229 212 270 100 74 84
229 213 270 110 31 57
228 214 269 120 14 58
228 215 269 120 33 66
228 215 270 121 33 66
229 214 270 121 17 56
229 215 270 122 27 64
229 215 271 119 46 66
230 212 270 97 71 83
230 212 271 93 69 82
230 213 270 107 34 60
230 213 271 110 25 58
231 212 271 91 82 90
230 214 271 122 14 56
230 215 271 122 29 65
224 216 258 90 36 48
224 216 259 91 50 54
224 217 259 99 72 64
224 216 260 100 83 78
224 216 261 117 106 101
224 217 260 114 103 96
224 217 261 128 122 118
224 216 262 130 122 116
224 217 262 136 131 129
224 217 263 143 138 136
225 216 263 138 130 126
225 217 263 143 139 137
224 218 260 133 124 119
224 218 261 138 132 129
224 219 260 138 133 131
224 219 261 140 135 136
224 218 262 141 136 135
224 218 263 143 138 138
224 219 262 142 137 138
224 219 263 138 134 135
224 220 261 138 134 135
224 220 262 142 137 138
224 220 263 137 133 134
224 221 262 142 137 138
224 221 263 141 136 137
224 222 262 141 136 137
224 222 263 135 131 132
224 223 263 124 121 123
225 216 264 141 133 128
225 216 265 137 130 124
225 217 264 145 140 139
225 217 265 141 138 136
225 216 266 132 125 119
225 217 266 141 138 137
224 219 264 129 126 127
225 218 264 139 135 136
225 218 265 135 132 132
225 219 264 129 126 127
225 219 265 129 125 127
225 218 266 140 136 136
225 219 266 137 133 133
225 219 267 143 137 137
226 216 266 130 123 117
226 216 267 129 118 111
226 217 266 140 137 135
226 217 267 141 137 135
226 218 267 142 138 138
226 219 267 144 138 138
226 216 268 128 115 108
226 217 268 140 136 134
227 216 268 126 108 101
227 216 269 125 111 104
227 217 268 134 130 128
227 217 269 126 123 119
226 218 268 138 134 135
226 219 268 143 138 138
227 218 268 129 127 127
227 218 269 123 122 123
227 219 268 138 133 134
227 219 269 131 128 128
224 220 264 131 127 129
224 221 264 140 135 136
224 221 265 142 137 137
225 220 265 135 131 131
225 221 265 144 138 139
225 220 266 141 136 136
225 220 267 144 139 139
225 221 266 144 139 139
225 221 267 142 137 139
224 222 264 137 133 134
224 222 265 142 137 138
224 223 264 129 125 127
224 223 265 139 135 136
224 223 266 142 138 138
225 222 266 143 138 139
225 222 267 139 135 137
225 223 266 143 138 139
225 223 267 141 137 138
226 220 267 144 139 139
225 222 268 129 127 130
225 223 268 137 133 135
226 220 268 142 138 139
226 221 268 134 132 135
226 221 269 135 132 135
227 220 269 139 135 137
227 221 269 137 135 138
227 220 270 137 134 137
227 221 270 139 135 137
226 222 268 126 124 127
226 222 269 129 127 130
226 223 268 132 129 131
226 223 269 136 132 134
227 222 269 134 132 135
227 222 270 140 136 137
227 223 270 139 136 138
227 223 271 136 133 135
228 216 269 120 90 89
228 217 269 126 122 118
228 216 270 121 91 88
228 217 270 129 124 120
229 216 270 123 91 88
229 216 271 127 106 99
229 217 270 134 128 124
229 217 271 136 130 124
228 218 269 122 121 122
228 218 270 131 129 130
228 219 270 133 130 131
229 218 270 137 135 134
229 218 271 141 138 138
229 219 271 139 136 138
230 216 271 121 85 85
230 217 271 135 126 120
230 218 271 142 139 140
230 219 271 141 138 139
228 220 270 138 135 137
228 220 271 138 135 137
228 221 270 139 135 137
228 221 271 139 135 136
229 220 271 130 128 131
228 222 271 142 137 139
228 223 271 134 131 132
232 208 271 105 20 53
232 209 271 111 25 53
231 211 272 90 86 92
231 212 272 93 72 82
231 213 272 106 30 61
230 214 272 123 17 57
230 215 272 121 25 64
231 214 272 122 16 57
231 215 272 123 25 65
231 215 273 124 37 72
230 216 272 117 78 80
230 217 272 131 124 119
231 216 272 117 75 80
231 216 273 121 79 85
231 217 272 126 117 111
231 217 273 128 117 110
230 218 272 141 137 136
230 219 272 138 135 136
230 219 273 136 133 135
231 218 272 137 133 131
231 218 273 139 135 134
231 219 273 139 136 137
229 220 272 124 123 126
229 221 272 129 127 130
228 222 272 141 137 139
228 223 272 134 131 133
229 222 272 141 137 139
229 223 272 141 137 138
229 223 273 143 138 139
230 220 272 126 125 128
230 220 273 133 131 133
230 221 272 127 126 129
230 221 273 133 131 134
231 220 273 139 135 136
231 221 273 138 134 136
231 220 274 141 136 137
231 221 274 136 132 133
230 222 273 135 132 135
230 223 273 141 137 138
230 223 274 135 132 134
231 222 274 126 123 126
231 223 274 126 124 127
231 223 275 129 126 129
232 208 272 103 22 52
232 209 272 111 25 53
233 208 272 97 24 52
233 208 273 100 23 50
233 209 272 109 23 53
233 209 273 108 23 52
232 210 272 106 45 62
232 211 272 94 72 79
233 210 272 109 39 60
233 210 273 107 42 60
233 211 273 96 67 72
234 208 273 91 38 61
234 209 273 104 24 53
234 209 274 101 27 54
235 208 274 85 56 70
235 209 274 98 32 53
234 210 273 108 36 58
234 211 273 102 54 62
234 210 274 107 35 56
234 211 274 97 67 70
235 210 274 106 30 51
235 211 274 103 50 63
235 211 275 98 56 66
232 212 272 93 78 85
232 212 273 94 80 87
232 213 272 98 50 68
232 213 273 102 38 63
233 212 273 91 82 86
233 213 273 96 49 66
233 213 274 92 58 68
232 214 273 120 18 55
232 215 273 125 34 68
233 214 273 113 29 57
233 214 274 115 27 55
233 215 274 124 34 65
234 212 274 90 87 88
234 212 275 90 89 89
234 213 274 92 68 74
234 213 275 93 81 84
235 212 275 88 84 86
235 213 275 91 84 87
234 214 274 105 36 58
234 214 275 103 38 62
234 215 274 122 28 62
234 215 275 119 30 64
235 214 275 95 55 68
235 215 275 110 26 59
235 214 276 100 39 60
235 215 276 114 27 62
236 208 274 79 63 74
236 209 274 93 36 53
236 209 275 90 43 58
237 208 274 72 65 79
237 208 275 73 61 76
237 209 275 85 49 64
236 210 275 102 30 45
236 211 275 102 42 60
237 210 275 97 31 48
237 211 275 104 32 54
238 208 275 63 63 79
238 209 275 80 56 70
239 208 275 53 62 79
238 210 275 91 38 55
237 211 276 103 42 60
238 209 276 81 51 65
239 208 276 59 61 78
239 209 276 76 57 72
238 210 276 90 39 54
238 211 276 102 32 53
239 210 276 90 42 59
239 211 276 101 28 49
236 212 275 89 78 83
236 212 276 92 75 81
236 213 276 91 86 89
237 212 276 91 65 74
237 213 276 89 81 87
236 214 276 91 62 69
236 215 276 108 31 58
236 215 277 113 26 58
237 214 276 88 67 74
237 214 277 89 70 77
237 215 277 105 37 57
238 212 276 97 54 67
238 212 277 94 54 66
238 213 276 89 76 83
238 213 277 89 75 82
239 212 276 101 37 56
239 212 277 99 43 61
239 213 277 90 67 75
238 214 277 90 77 81
238 215 277 100 41 59
239 214 277 91 82 84
238 215 278 105 34 59
239 215 278 97 52 66
232 216 273 125 77 86
232 217 273 134 125 119
232 216 274 128 96 96
232 217 274 135 125 119
233 216 274 124 74 85
233 217 274 131 118 114
232 218 273 139 136 134
232 219 273 137 133 134
232 218 274 135 131 129
232 219 274 136 132 133
233 218 274 132 128 126
233 218 275 128 125 125
233 219 274 130 127 128
233 219 275 128 126 127
234 216 275 121 62 78
234 217 275 129 110 108
234 218 275 135 130 127
234 219 275 132 129 130
234 217 276 129 105 105
235 216 276 117 50 71
235 217 276 126 95 97
234 218 276 140 134 131
234 219 276 139 135 136
235 218 276 141 132 127
235 218 277 144 137 133
235 219 276 144 141 141
235 219 277 145 141 141
232 220 274 140 136 136
232 221 274 137 133 134
232 221 275 137 132 133
233 220 275 140 135 137
233 221 275 142 137 138
232 222 274 130 127 129
232 222 275 131 128 129
232 223 275 133 130 133
233 222 275 139 135 136
233 223 275 138 134 136
234 220 275 140 135 136
234 221 275 143 139 140
233 222 276 142 138 139
233 223 276 140 137 140
234 220 276 140 136 137
234 221 276 140 137 139
235 220 276 137 134 136
235 220 277 133 131 134
235 221 277 126 125 128
234 222 276 144 140 142
234 222 277 144 140 143
234 223 276 140 138 142
234 223 277 136 135 141
235 222 277 133 131 135
235 223 277 136 135 140
235 223 278 133 134 140
236 216 276 116 34 64
236 216 277 115 41 66
236 217 277 119 75 84
237 216 277 116 33 64
237 217 277 116 62 78
237 217 278 117 56 75
236 218 277 135 122 118
236 219 277 145 140 139
237 218 277 121 96 94
236 219 278 143 140 140
237 218 278 124 104 100
237 219 278 141 136 132
238 216 278 116 31 65
238 217 278 116 42 70
239 216 278 113 29 63
239 217 278 117 30 65
239 217 279 117 34 65
238 218 278 115 75 81
238 219 278 132 122 117
238 219 279 126 117 113
239 218 279 114 52 71
239 219 279 114 100 99
236 220 277 136 134 136
236 221 277 127 126 129
236 220 278 140 137 139
236 221 278 134 131 134
237 220 278 144 140 141
237 221 278 143 140 141
236 222 278 133 131 134
236 223 278 133 133 139
237 222 278 140 137 140
237 222 279 142 140 144
237 223 278 136 135 140
237 223 279 128 131 139
238 220 278 143 138 137
238 220 279 137 134 134
238 221 279 142 140 142
239 220 279 120 120 121
239 221 279 125 127 131
238 222 279 140 139 144
238 223 279 125 130 139
239 222 279 130 132 139
239 221 280 121 124 130
238 223 280 118 125 135
239 222 280 126 130 138
239 223 280 119 126 136
240 192 270 88 88 91
240 193 270 87 89 93
240 193 271 89 90 95
241 192 270 87 88 92
241 193 270 88 90 95
241 193 271 88 91 96
240 194 271 85 85 92
240 195 271 88 87 94
241 194 271 88 90 97
241 195 271 85 86 93
242 192 270 84 85 89
242 193 270 87 88 93
242 193 271 87 90 96
243 192 270 87 84 87
243 193 270 87 85 91
242 194 271 86 89 95
242 195 271 85 87 94
243 194 270 85 85 91
243 194 271 83 85 91
243 195 271 84 86 92
243 196 271 88 90 96
244 192 269 87 83 85
245 192 269 82 80 83
244 192 270 88 83 87
244 193 270 86 80 85
245 193 270 83 77 80
244 194 270 79 76 82
244 194 271 83 83 88
244 195 271 88 88 93
245 194 270 83 78 82
245 194 271 86 84 88
245 195 271 84 83 86
246 192 269 82 81 82
246 193 269 83 82 84
247 192 269 83 80 82
247 193 269 83 82 84
246 193 270 83 80 81
246 194 270 87 82 84
246 195 270 82 78 81
246 195 271 82 78 83
247 194 270 85 83 84
247 195 270 78 75 80
244 196 271 90 90 95
245 196 271 82 81 85
245 197 271 86 84 88
246 196 271 80 76 80
246 197 271 87 83 86
247 196 270 79 77 81
247 196 271 80 78 81
247 197 271 82 80 82
246 198 271 84 81 82
247 198 271 85 80 82
248 192 269 84 77 81
248 193 269 83 81 84
249 192 269 85 73 81
249 193 269 81 74 81
248 194 269 84 81 85
249 194 269 79 72 79
248 194 270 85 81 85
248 195 270 80 77 81
249 194 270 82 76 81
249 195 270 83 78 82
250 192 269 83 66 79
250 193 269 82 68 79
251 192 269 80 63 79
251 193 269 86 69 83
250 194 269 79 67 77
250 195 269 85 79 84
251 194 269 83 68 79
251 195 269 82 75 79
250 195 270 86 80 86
248 196 270 81 78 82
248 196 271 81 78 82
248 197 271 82 78 82
249 196 270 82 78 83
249 197 270 84 80 84
249 197 271 85 80 84
248 198 271 83 77 79
248 199 271 87 80 80
249 198 271 84 77 80
249 199 271 85 76 75
251 196 269 82 77 80
250 196 270 83 79 83
250 197 270 82 78 82
251 196 270 82 76 80
251 197 270 82 76 81
250 198 270 84 78 82
250 198 271 83 77 79
250 199 271 87 75 74
251 198 270 85 77 80
251 199 271 89 73 74
252 192 269 81 63 82
252 193 269 84 68 84
253 192 268 87 70 88
253 192 269 83 67 85
253 193 269 88 72 88
252 194 269 86 71 83
252 195 269 85 75 82
253 194 269 87 73 85
253 195 269 83 72 83
254 192 268 92 72 90
254 193 268 87 66 84
254 193 269 89 70 87
255 192 268 88 63 84
255 193 268 86 64 81
254 194 269 82 67 82
254 195 269 85 75 88
255 194 268 83 67 81
255 194 269 81 67 82
255 195 269 81 71 83
252 196 269 81 74 79
253 196 269 84 75 83
253 197 269 84 74 82
252 197 270 84 75 81
253 197 270 87 76 83
252 198 270 86 74 80
252 199 270 87 73 76
252 199 271 89 70 72
253 198 270 88 76 82
253 199 270 86 71 75
253 199 271 89 69 72
254 196 269 84 76 86
254 197 269 84 73 83
255 196 269 80 71 83
255 197 269 81 71 82
255 198 269 86 74 83
254 198 270 88 76 83
254 199 270 88 70 75
255 198 270 88 74 82
255 199 270 86 67 73
250 200 271 90 70 69
251 200 271 91 65 65
251 201 271 91 59 60
252 200 271 90 63 64
252 201 271 89 52 53
253 200 271 89 64 65
253 201 271 89 54 55
253 202 271 90 47 50
254 200 270 87 62 65
254 200 271 87 60 62
254 201 271 88 52 52
255 200 270 89 62 64
255 200 271 89 60 63
255 201 270 88 53 51
255 201 271 89 51 52
254 202 271 91 46 48
254 203 271 92 42 46
255 202 271 90 42 43
255 203 271 88 41 38
255 204 271 89 50 44
240 196 272 88 88 94
240 197 272 87 87 94
241 196 272 89 86 93
241 197 272 83 78 86
240 198 272 85 85 95
240 198 273 81 84 95
240 199 273 67 78 92
241 198 272 88 83 92
241 198 273 89 85 94
241 199 273 77 81 91
242 196 272 87 86 91
242 197 272 85 80 87
243 196 272 91 91 96
243 197 272 91 90 96
242 198 272 86 80 88
242 199 273 85 87 94
243 198 272 90 89 95
243 199 272 91 90 96
243 199 273 89 90 96
244 197 272 93 92 97
245 197 272 90 87 92
244 198 272 92 91 96
244 199 272 89 88 93
244 199 273 87 87 92
245 198 272 93 88 93
245 199 272 91 88 90
246 198 272 89 84 86
246 199 272 89 81 83
247 198 272 86 82 82
247 199 272 90 82 82
240 200 273 71 88 104
241 200 273 75 88 102
240 201 274 69 87 104
241 201 274 67 84 101
240 202 274 58 80 100
240 203 274 46 70 93
240 203 275 46 69 91
241 202 274 52 74 94
241 203 274 46 68 92
241 203 275 47 68 91
242 200 273 80 88 98
242 201 273 72 80 92
243 200 273 81 83 92
243 201 273 74 78 87
242 201 274 65 77 92
243 201 274 72 75 87
242 202 274 55 67 85
242 203 274 50 62 85
242 203 275 52 66 89
243 202 274 67 70 84
243 203 274 58 62 83
240 204 275 39 65 88
240 205 275 41 67 89
241 204 275 43 66 89
241 205 275 43 67 90
240 206 275 36 63 88
240 207 275 42 66 88
241 206 275 39 65 88
241 207 275 43 66 89
242 204 275 51 67 90
242 205 275 45 65 88
243 204 275 60 66 89
243 205 275 49 64 87
242 206 275 42 66 87
242 207 275 42 68 89
243 206 275 45 66 86
243 207 275 43 67 87
242 207 276 45 68 91
243 207 276 45 67 90
244 200 273 84 82 89
244 201 273 82 79 87
245 200 273 90 84 87
245 201 273 83 73 78
245 202 273 78 61 70
244 202 274 75 69 80
244 203 274 65 59 77
245 202 274 76 61 72
245 203 274 72 57 70
246 200 272 90 77 79
246 200 273 89 76 78
246 201 273 85 66 70
247 200 272 91 77 77
247 201 272 87 66 67
247 201 273 86 63 65
246 202 273 81 57 64
247 202 273 86 54 59
247 203 273 88 56 57
246 202 274 79 56 66
246 203 274 81 56 63
247 203 274 88 58 59
244 204 274 63 59 77
244 204 275 64 64 84
244 205 275 57 60 81
245 204 274 72 59 73
245 204 275 68 61 77
245 205 275 68 62 77
244 206 275 49 63 83
244 207 275 48 65 85
245 206 275 60 63 80
245 207 275 56 65 84
246 204 274 79 59 68
246 205 274 73 56 63
246 205 275 71 59 69
247 204 274 85 58 59
247 205 274 79 57 61
246 206 275 68 60 73
246 207 275 63 62 79
247 206 274 79 58 66
247 206 275 75 58 69
247 207 275 70 56 72
244 207 276 48 66 87
245 207 276 51 62 84
248 199 272 90 81 79
249 199 272 86 76 73
248 200 272 89 74 72
248 201 272 87 64 64
248 201 273 87 60 63
249 200 272 87 72 69
249 201 272 88 63 62
248 202 273 88 55 57
248 203 273 90 55 51
249 202 272 91 59 59
249 202 273 91 56 55
249 203 273 90 53 48
248 203 274 89 54 50
250 200 272 91 69 68
250 201 272 90 60 61
251 201 272 91 57 59
250 202 272 91 52 55
250 203 272 91 47 46
250 203 273 93 55 52
251 202 272 91 49 53
251 203 272 92 48 51
251 203 273 93 50 50
249 204 273 89 53 45
248 204 274 86 52 49
248 205 274 84 54 54
249 204 274 89 52 46
249 205 274 88 54 49
248 206 274 81 51 60
248 206 275 80 53 66
248 207 275 79 54 69
249 206 274 85 50 54
249 207 274 87 51 60
249 207 275 84 52 64
250 204 273 94 60 51
250 205 273 94 59 47
251 204 273 92 49 45
251 205 273 91 50 42
250 204 274 91 58 46
250 205 274 90 55 44
250 206 274 88 49 45
250 207 274 91 49 54
250 207 275 91 53 60
251 206 274 92 50 45
251 207 274 94 48 52
252 201 272 90 51 54
252 202 272 89 46 49
252 203 272 93 51 54
253 202 272 90 44 48
253 203 272 91 44 48
254 203 272 92 43 47
255 203 272 89 40 41
252 204 272 94 53 55
252 204 273 93 52 52
252 205 273 90 47 44
253 204 272 93 50 51
253 204 273 92 50 51
253 205 273 91 50 46
252 206 273 91 49 46
253 206 273 91 49 45
253 207 273 94 55 53
252 206 274 92 47 45
252 207 274 95 50 53
253 207 274 95 52 54
254 204 272 91 49 48
254 205 272 91 51 45
254 205 273 89 51 44
255 204 272 90 47 44
255 205 272 89 47 42
254 206 273 89 50 42
254 207 273 92 51 50
255 206 272 88 45 41
255 206 273 89 48 42
255 207 272 91 48 45
255 207 273 93 49 48
240 208 275 48 62 83
240 208 276 57 61 80
240 209 276 75 58 74
241 208 276 50 62 84
241 209 276 72 58 78
240 210 276 91 38 58
240 211 276 100 28 51
240 211 277 104 31 51
241 210 276 89 44 63
241 211 276 98 31 51
241 211 277 103 29 50
242 208 276 49 64 88
242 209 276 64 57 82
243 208 276 47 65 89
243 209 276 59 58 84
242 210 276 82 47 69
242 211 276 92 38 56
242 211 277 101 32 50
243 210 276 77 54 74
243 211 276 90 44 60
243 211 277 99 33 50
240 212 277 102 39 57
240 213 277 93 62 70
241 212 277 103 38 55
241 213 277 94 60 65
240 214 277 92 82 83
240 214 278 92 86 88
240 215 278 94 61 72
241 214 278 92 82 84
241 215 278 93 68 76
242 212 277 105 34 52
242 213 277 99 54 62
243 212 277 107 34 52
243 213 277 105 48 62
243 214 277 98 60 70
242 214 278 93 77 81
242 215 278 95 73 82
243 214 278 94 71 77
243 215 278 96 76 83
246 208 275 61 63 80
247 208 275 64 58 74
244 208 276 52 67 89
244 209 276 60 64 85
245 208 276 50 63 85
245 209 276 56 61 82
244 210 276 73 56 75
244 211 276 90 44 63
244 211 277 102 35 55
245 210 276 68 55 76
245 211 276 89 48 70
245 211 277 100 37 63
246 208 276 58 64 83
246 209 276 60 63 83
247 209 276 62 59 77
246 210 276 66 57 80
246 211 276 90 49 71
247 210 276 68 59 77
247 211 276 88 51 69
244 212 277 106 32 55
244 213 277 107 42 59
245 212 277 105 30 57
245 213 277 107 37 56
244 214 277 100 56 68
245 214 277 101 54 65
244 214 278 95 67 76
244 215 278 97 79 83
245 214 278 98 62 72
245 215 278 97 77 80
246 212 277 105 35 59
246 213 277 109 34 56
247 212 276 104 40 60
247 212 277 107 35 58
247 213 277 110 28 54
246 214 277 104 48 61
246 215 277 102 62 68
247 214 277 109 39 59
247 215 277 104 54 65
246 215 278 100 72 75
247 215 278 98 61 68
240 216 278 110 30 62
240 216 279 113 24 61
240 217 279 118 31 63
241 216 278 105 35 63
241 216 279 112 23 61
241 217 279 117 25 63
240 218 279 115 46 67
240 219 279 111 88 91
241 218 279 117 39 68
241 219 279 112 82 90
242 216 279 105 34 64
242 217 279 115 24 64
243 216 278 98 53 69
243 216 279 103 36 62
243 217 279 113 27 63
242 218 279 118 37 68
242 219 279 115 58 76
243 218 279 119 35 66
243 219 279 118 45 69
240 220 279 110 112 114
244 216 278 93 57 66
244 216 279 98 41 60
244 217 279 109 32 62
245 216 278 92 62 65
245 217 278 101 42 60
245 217 279 107 35 61
244 218 279 118 30 65
244 219 279 117 45 69
245 218 279 116 27 63
245 219 279 115 45 67
246 216 278 94 65 70
246 217 278 102 50 68
246 217 279 108 40 66
247 216 278 98 65 73
247 217 278 101 57 72
246 218 279 113 32 63
246 219 279 115 48 67
247 218 278 105 42 64
247 218 279 109 35 62
247 219 279 114 44 61
246 220 279 114 72 81
247 220 279 113 70 77
247 221 279 118 94 94
242 219 280 113 78 88
243 219 280 116 68 82
240 220 280 107 112 116
240 221 280 113 117 124
241 220 280 109 111 114
241 221 280 108 115 123
240 222 280 115 121 131
240 223 280 116 123 135
241 222 280 110 117 127
241 223 280 111 120 132
242 220 280 112 108 113
242 221 280 110 118 127
243 220 280 111 96 103
243 221 280 111 116 124
242 222 280 106 115 127
242 223 280 111 119 131
243 222 280 108 117 128
243 223 280 111 119 130
244 219 280 115 65 79
245 219 280 113 59 75
244 220 280 113 89 96
244 221 280 114 113 119
245 220 280 113 83 90
245 221 280 112 108 111
244 222 280 116 122 129
244 223 280 118 121 128
245 222 280 123 125 129
245 223 280 131 129 130
246 220 280 113 82 87
246 221 280 119 109 108
247 221 280 123 108 105
246 222 280 129 124 123
246 223 280 139 131 126
247 222 280 135 125 117
247 223 280 146 133 121
248 208 275 74 59 70
248 209 275 69 59 71
249 208 275 81 56 63
249 209 275 74 53 62
249 210 275 78 52 66
250 208 275 90 52 57
250 209 275 85 51 58
251 208 274 93 46 53
251 208 275 92 44 50
251 209 275 94 50 54
250 210 275 88 51 61
250 211 275 98 52 60
251 210 275 97 55 58
251 211 275 103 51 55
248 209 276 71 65 78
248 210 276 76 62 77
248 211 276 88 53 67
249 210 276 81 57 72
249 211 276 93 58 69
250 210 276 86 53 67
250 211 276 100 54 66
251 211 276 108 52 59
248 212 276 105 40 58
248 213 277 111 29 55
249 212 276 107 48 65
249 213 276 111 34 57
249 213 277 112 32 56
248 214 277 112 33 60
248 215 277 106 51 65
249 214 277 112 30 57
249 215 277 108 45 63
248 215 278 103 61 68
250 212 276 111 49 67
250 213 276 112 38 58
251 212 276 114 52 60
251 213 276 115 44 57
250 214 276 112 31 54
250 214 277 113 28 54
250 215 277 112 32 57
251 214 276 114 31 54
251 215 276 115 24 53
251 215 277 114 26 54
252 208 274 94 46 52
252 209 274 95 49 53
252 209 275 98 54 56
253 208 274 94 46 50
253 209 274 95 45 48
252 210 275 100 51 52
252 211 275 107 49 50
253 210 274 103 49 53
253 210 275 100 47 49
253 211 275 112 48 50
254 208 273 93 50 51
255 208 273 92 47 49
255 209 273 96 47 47
254 208 274 94 50 52
254 209 274 94 45 47
255 209 274 97 46 48
255 210 273 107 46 43
255 211 273 116 51 50
254 210 274 104 45 48
254 211 274 112 46 49
254 211 275 118 49 49
255 210 274 106 45 43
255 211 274 119 49 49
252 212 275 118 55 56
253 212 275 121 51 53
253 213 275 121 46 54
254 212 275 123 51 53
254 213 275 123 46 54
255 212 274 124 47 49
255 212 275 124 48 50
255 213 274 123 48 49
255 213 275 123 47 52
254 214 275 118 42 53
254 215 275 115 37 51
255 214 274 122 47 52
255 214 275 119 42 52
255 215 275 115 31 49
252 212 276 118 53 56
252 213 276 117 43 53
253 213 276 120 44 54
252 214 276 116 33 51
252 215 276 115 26 50
252 215 277 116 30 57
253 214 276 118 39 54
253 215 276 114 29 49
254 214 276 116 40 52
254 215 276 114 30 50
255 215 276 113 25 47
249 216 277 106 52 67
248 216 278 105 65 75
248 217 278 98 60 71
249 216 278 106 60 73
249 217 278 99 64 74
248 218 278 103 50 65
248 218 279 108 44 64
248 219 279 111 41 59
249 218 278 102 57 69
249 219 279 109 42 60
250 216 277 108 47 64
250 217 277 103 53 65
251 216 277 112 39 58
251 217 277 104 56 68
250 217 278 100 61 71
251 218 277 102 70 81
250 218 278 104 70 77
250 219 278 107 48 65
250 219 279 110 38 59
251 218 278 102 71 81
251 219 278 103 55 69
248 220 279 111 60 67
248 221 279 119 94 89
249 220 279 113 56 64
249 221 279 121 87 80
249 222 279 133 109 95
250 220 278 113 42 60
250 220 279 115 49 62
250 221 279 121 74 70
251 220 278 113 49 62
251 221 278 117 56 65
251 221 279 119 60 64
250 222 279 131 100 86
250 223 279 140 116 96
251 222 279 124 83 74
251 223 279 135 109 87
255 216 275 113 23 48
252 216 277 114 36 58
252 217 277 107 53 67
253 216 276 114 31 55
253 216 277 114 38 60
253 217 277 109 44 64
252 218 277 100 66 77
252 219 277 100 69 79
253 218 277 101 59 72
253 219 277 104 71 81
252 219 278 102 62 73
253 219 278 104 61 73
254 216 276 116 27 53
254 217 276 114 34 59
254 217 277 110 41 63
255 216 276 115 25 51
255 217 276 114 33 57
254 218 277 104 50 66
254 219 277 105 68 80
255 218 276 109 44 64
255 219 276 103 57 75
255 219 277 103 64 79
252 220 278 110 48 60
252 221 278 117 52 62
252 221 279 119 58 64
253 220 278 108 51 63
253 221 278 116 50 58
252 222 279 122 71 69
252 223 279 130 100 81
253 222 278 122 66 67
253 223 278 123 77 72
253 223 279 128 95 79
254 220 277 105 55 71
255 220 277 103 65 78
255 221 277 107 45 64
254 220 278 108 49 64
254 221 278 112 48 58
255 222 277 112 37 56
255 223 277 119 46 56
254 222 278 119 58 63
254 223 278 121 78 67
254 223 279 128 97 77
255 222 278 114 43 54
255 223 278 119 69 59
248 222 280 138 121 109
248 223 280 148 132 116
249 222 280 141 121 105
249 223 280 149 130 111
250 223 280 147 127 105
