ply
format ascii 1.0
comment Version 2, Copyright 2017, 8i Labs, Inc.
comment frame_to_world_scale 0.179523
comment frame_to_world_translation -45.2095 7.18301 -54.3561
comment width 1023
element vertex 1937
property float x
property float y
property float z
property uchar red
property uchar green
property uchar blue
end_header
231 194 43 100 41 32
231 195 43 101 34 29
231 192 45 106 37 28
231 193 45 111 42 26
230 193 47 122 42 29
231 192 46 112 39 30
231 192 47 117 39 30
231 193 46 117 43 33
231 193 47 121 44 33
231 194 44 104 39 23
231 194 45 114 43 22
231 195 44 109 38 26
231 195 45 117 44 23
230 194 46 122 41 25
230 194 47 123 40 24
230 195 46 123 40 17
230 195 47 123 36 14
231 194 46 120 44 29
231 195 46 122 41 16
231 196 42 99 32 25
231 196 43 106 31 25
231 197 42 108 31 23
231 197 43 114 34 26
231 199 41 113 35 27
231 198 42 114 35 24
231 198 43 119 36 25
231 199 42 114 35 28
231 199 43 118 37 27
229 199 47 122 41 19
230 197 45 122 42 23
231 196 44 115 36 25
231 196 45 119 39 21
231 197 44 118 34 24
231 197 45 121 39 22
230 196 46 123 39 17
230 196 47 124 36 16
230 197 46 122 39 17
230 197 47 124 39 18
230 198 45 122 39 21
230 199 45 119 36 19
231 198 44 121 35 23
231 198 45 123 40 23
231 199 44 120 38 22
230 198 46 122 40 20
230 198 47 123 37 16
230 199 46 120 39 21
230 199 47 122 42 19
231 206 39 114 37 25
231 207 39 112 31 29
231 200 41 114 35 26
231 201 41 117 36 24
231 200 42 115 38 25
231 200 43 118 37 25
231 201 42 117 37 22
231 201 43 118 36 22
231 202 41 119 32 20
231 203 40 118 41 20
231 203 41 117 40 20
230 202 43 118 31 18
230 203 43 119 33 20
231 202 42 118 34 21
231 202 43 119 35 20
231 203 42 118 34 20
231 203 43 119 34 19
229 200 47 119 38 20
229 201 47 119 38 21
229 202 47 118 38 23
229 203 47 112 39 28
230 200 44 117 34 19
230 200 45 117 37 21
230 201 44 119 34 25
230 201 45 118 36 22
231 200 44 119 32 22
231 201 44 119 31 24
230 200 46 119 40 23
230 200 47 118 39 20
230 201 46 117 37 22
230 201 47 118 36 20
230 202 44 120 32 24
230 202 45 120 33 22
230 203 44 119 37 22
230 203 45 117 39 23
230 202 46 118 36 22
230 202 47 118 35 20
230 203 46 116 41 23
231 204 40 119 38 25
231 204 41 118 40 27
231 205 40 117 38 29
231 205 41 116 37 29
230 204 43 119 36 24
230 205 43 117 42 21
231 204 42 118 40 25
231 204 43 119 39 24
231 205 42 116 39 24
231 205 43 118 42 24
231 206 40 116 34 28
231 206 41 115 32 28
231 207 40 116 26 30
231 207 41 112 30 28
230 206 43 113 40 23
230 207 42 110 37 26
230 207 43 109 39 27
231 206 42 115 41 26
231 207 42 112 36 25
229 204 47 109 36 21
229 205 46 107 31 18
229 205 47 105 32 17
229 207 45 105 32 25
229 206 46 106 37 30
229 206 47 104 38 26
229 207 46 103 33 29
229 207 47 103 41 31
230 204 44 118 40 26
230 204 45 115 37 21
230 205 44 118 41 26
230 205 45 112 33 19
230 204 46 111 34 17
230 205 46 109 32 20
230 206 44 114 42 27
230 206 45 110 35 23
230 207 44 107 37 26
230 207 45 106 34 25
230 207 46 105 33 25
233 192 32 77 39 42
233 192 33 75 35 37
233 193 32 95 50 53
233 193 33 94 43 49
233 192 34 80 36 47
233 192 35 83 36 41
233 193 34 95 37 48
233 193 35 91 38 42
233 194 32 98 40 43
233 194 33 100 39 47
233 195 32 91 35 32
233 195 33 89 38 36
233 194 34 93 39 42
233 194 35 93 43 40
233 195 34 86 38 37
233 195 35 84 36 31
233 192 36 84 42 41
233 192 37 84 44 39
233 193 36 89 43 40
233 193 37 90 47 30
233 192 38 86 40 40
233 192 39 89 40 40
233 193 38 90 42 34
233 193 39 91 40 37
233 194 36 89 40 32
233 194 37 92 44 32
233 195 36 87 32 28
233 195 37 93 40 27
232 195 39 94 43 35
233 194 38 89 42 24
233 194 39 88 37 27
233 195 38 95 44 31
233 195 39 94 45 32
233 196 32 96 46 34
233 196 33 92 48 35
233 197 32 104 41 36
233 197 33 106 42 33
233 196 34 89 44 33
233 196 35 91 43 36
233 197 34 99 44 33
233 197 35 98 43 33
233 198 32 105 40 44
233 198 33 109 40 40
233 199 32 100 40 48
233 199 33 104 43 42
233 198 34 106 38 33
233 198 35 105 37 37
233 199 34 106 40 38
233 199 35 109 42 41
233 196 36 92 41 30
233 196 37 96 41 28
233 197 36 101 41 31
233 197 37 101 43 29
232 196 39 101 41 38
232 197 38 97 37 29
232 197 39 103 39 34
233 196 38 98 42 32
233 196 39 99 48 40
233 197 38 100 39 28
233 197 39 103 38 30
232 198 37 108 33 30
232 199 37 107 32 27
233 198 36 106 33 29
233 198 37 105 32 26
233 199 36 108 39 32
233 199 37 106 34 26
232 198 39 106 34 25
232 199 39 111 33 25
233 198 38 104 37 26
233 198 39 104 37 26
233 199 38 108 34 21
239 198 32 46 39 62
239 199 32 50 44 66
239 199 33 51 42 65
232 192 41 86 36 29
232 193 41 91 37 36
233 192 40 88 39 36
233 192 41 87 41 36
233 193 40 90 35 33
233 193 41 88 33 32
232 192 42 85 37 31
232 192 43 89 33 30
232 193 42 87 34 31
232 193 43 92 33 24
232 194 40 92 42 36
232 194 41 91 37 33
232 195 40 95 44 37
232 195 41 94 40 33
233 194 40 90 35 31
232 194 42 92 39 37
232 194 43 96 39 34
232 195 42 94 38 33
232 192 44 98 34 26
232 192 45 102 34 28
232 193 44 101 35 21
232 196 40 100 44 41
232 196 41 98 38 33
232 197 40 102 33 29
232 197 41 101 28 25
232 196 42 97 34 29
232 197 42 100 29 24
232 198 40 106 32 24
232 198 41 109 29 21
232 199 40 113 31 24
232 199 41 112 32 24
233 200 32 101 39 44
233 200 33 102 39 42
233 201 32 101 38 46
233 201 33 105 39 48
233 200 34 105 38 39
233 200 35 109 38 32
233 201 34 106 41 45
233 201 35 108 36 35
233 202 32 103 40 51
233 202 33 106 45 47
233 203 32 102 43 59
233 203 33 102 39 55
233 202 34 107 44 47
233 202 35 109 41 46
233 203 34 103 40 43
233 203 35 110 42 44
232 200 37 108 34 20
233 200 36 109 38 24
233 200 37 108 37 25
233 201 36 108 34 30
233 201 37 111 36 33
232 200 38 110 29 19
232 200 39 113 35 24
232 201 38 113 35 31
232 201 39 118 41 26
232 202 37 120 39 28
232 203 37 122 41 33
233 202 36 117 40 34
233 202 37 120 39 27
233 203 36 120 43 37
233 203 37 123 40 31
232 202 38 120 39 34
232 202 39 120 36 23
232 203 38 122 38 35
232 203 39 119 33 28
233 204 32 103 51 68
233 204 33 98 39 60
233 205 33 96 44 65
233 204 34 103 42 54
233 204 35 109 40 48
233 205 34 104 42 60
233 205 35 107 38 52
233 206 34 98 45 72
233 206 35 101 43 55
233 207 35 95 45 56
234 204 32 95 44 66
234 205 32 96 41 69
234 206 32 98 38 67
234 206 33 97 42 66
234 207 33 98 44 67
235 206 32 95 36 66
235 206 33 93 41 65
235 207 32 97 47 70
235 207 33 93 46 65
234 206 34 98 46 69
234 207 34 93 43 62
234 207 35 95 45 59
235 207 34 89 42 60
235 207 35 87 39 55
232 204 36 117 39 38
232 204 37 119 41 40
232 205 36 111 45 43
232 205 37 113 41 45
233 204 36 118 42 44
233 205 36 110 44 44
232 204 38 119 38 35
232 204 39 119 38 28
232 205 38 117 37 36
232 205 39 116 40 31
232 206 36 106 43 40
232 206 37 109 42 41
232 207 37 105 34 45
233 206 36 105 46 48
233 207 36 101 42 53
233 207 37 103 33 44
232 206 38 113 38 34
232 206 39 113 32 31
232 207 38 108 38 38
232 207 39 110 34 32
237 202 32 66 42 55
237 203 32 75 39 59
237 203 33 65 39 58
237 203 34 82 35 53
238 200 32 55 46 68
238 201 32 54 47 64
238 201 33 61 45 58
239 200 32 52 45 67
239 200 33 52 40 63
239 201 32 54 47 66
239 201 33 61 46 65
239 200 34 61 38 50
239 201 34 62 43 56
239 201 35 64 40 51
238 202 32 62 44 59
238 202 33 65 46 61
238 203 32 68 42 59
238 203 33 66 42 59
238 202 34 65 45 62
238 203 34 68 41 60
238 203 35 67 36 50
239 202 34 60 39 52
239 202 35 62 35 45
239 203 35 63 39 49
239 202 36 70 39 43
239 203 36 78 39 49
239 203 37 89 40 48
239 203 38 97 38 43
236 205 32 85 31 60
236 205 33 81 32 56
237 204 32 79 34 59
237 204 33 76 34 56
237 205 32 83 30 59
237 205 33 80 32 57
236 205 34 82 40 57
237 204 34 73 41 56
237 204 35 79 39 55
237 205 34 82 42 59
237 205 35 82 37 56
236 206 32 89 34 61
236 206 33 85 36 59
236 207 33 91 50 64
236 206 34 83 42 58
236 206 35 75 34 48
236 207 34 87 44 59
236 207 35 85 37 53
237 206 35 80 34 50
237 207 35 86 42 56
238 204 35 72 35 50
237 205 36 82 29 52
236 207 36 88 38 57
237 206 36 90 36 52
237 207 36 88 41 53
237 207 37 93 33 57
238 204 36 84 38 53
238 204 37 91 35 48
238 205 36 85 27 48
238 205 37 92 32 46
239 204 37 92 35 48
239 205 37 94 28 45
239 204 38 98 34 45
239 205 38 100 38 52
239 205 39 101 36 51
238 206 37 93 41 57
238 207 37 92 32 58
238 206 38 94 37 56
238 207 38 90 29 53
239 206 38 91 27 51
239 206 39 90 22 45
239 207 38 89 27 54
239 207 39 88 34 50
232 200 40 115 30 23
232 200 41 114 31 25
232 201 40 117 32 25
232 201 41 116 33 26
232 202 40 119 33 23
232 203 40 118 38 23
232 204 40 118 38 25
227 192 55 114 42 23
227 193 55 113 44 19
227 194 54 109 42 19
227 194 55 110 43 20
227 195 54 108 43 25
227 195 55 107 45 29
227 196 53 106 39 31
227 197 53 107 40 33
226 197 55 102 45 39
227 196 54 107 43 30
227 196 55 105 44 32
227 197 54 105 43 37
227 197 55 104 45 36
227 198 53 106 40 35
227 199 53 105 44 38
226 198 55 100 46 41
226 199 55 98 47 45
227 198 54 103 45 40
227 198 55 103 46 40
227 199 54 102 48 44
227 199 55 101 48 43
229 193 49 120 37 14
229 192 50 120 40 12
229 192 51 120 42 20
229 193 50 120 37 12
229 193 51 118 41 15
229 194 49 121 39 12
229 195 49 122 37 12
229 194 50 120 40 11
229 194 51 118 44 13
229 195 50 121 42 10
229 195 51 119 46 18
230 192 48 121 43 26
230 192 49 120 40 15
230 193 48 122 39 23
230 193 49 120 39 17
230 192 50 119 39 13
230 194 48 123 37 18
230 194 49 123 39 16
230 195 48 123 33 13
228 192 52 114 44 24
228 192 53 112 38 22
228 193 52 114 44 20
228 193 53 112 42 20
229 192 52 117 42 20
229 192 53 114 39 21
229 193 52 116 42 18
228 192 54 112 40 21
228 192 55 115 44 24
228 193 54 110 44 20
228 194 52 114 43 19
228 194 53 110 42 22
228 195 52 114 44 23
228 195 53 109 41 26
229 194 52 116 42 15
228 194 54 108 40 17
229 196 48 123 38 17
229 196 49 122 36 14
229 197 48 123 38 16
229 197 49 121 32 14
228 196 51 117 45 15
228 197 51 115 45 17
229 196 50 120 38 11
229 196 51 120 42 12
229 197 50 119 36 12
229 197 51 117 41 12
229 198 48 122 33 16
229 198 49 121 32 17
229 199 48 121 38 19
229 199 49 118 35 19
228 198 51 114 44 19
228 199 50 114 40 20
228 199 51 112 42 24
229 198 50 118 39 17
229 199 50 115 37 18
230 196 48 123 34 12
230 197 48 125 39 18
230 198 48 123 33 13
228 196 52 112 42 21
228 196 53 109 41 29
228 197 52 111 42 24
228 197 53 108 40 31
228 198 52 110 41 30
228 199 52 108 41 32
228 199 53 107 42 36
225 192 59 101 40 26
225 193 58 102 42 23
225 193 59 100 40 25
225 194 58 102 50 39
225 194 59 98 44 33
225 195 58 100 45 39
225 195 59 95 44 40
226 192 57 112 37 27
226 193 57 109 44 32
227 192 56 116 43 27
227 192 57 115 39 29
227 193 56 114 40 23
227 193 57 114 39 31
226 192 58 106 40 30
226 193 58 106 42 23
226 194 57 108 43 32
226 195 56 106 43 26
226 195 57 105 44 33
227 194 56 110 43 22
227 195 56 107 45 29
226 194 58 105 47 35
226 195 58 103 46 37
224 192 61 90 39 35
224 193 60 94 43 38
224 193 61 89 41 40
225 192 60 96 43 34
225 193 60 97 37 27
224 192 62 84 42 36
224 194 60 90 44 42
224 194 61 86 44 47
224 195 60 87 44 46
224 195 61 79 46 51
225 194 60 94 43 38
225 195 60 92 45 43
225 197 57 98 46 43
225 196 58 98 45 41
225 196 59 91 43 43
225 197 58 92 46 44
225 197 59 88 48 47
225 198 57 93 48 46
225 199 57 88 48 47
224 198 59 81 46 50
224 199 59 80 50 55
225 198 58 86 44 45
225 198 59 84 47 49
225 199 58 84 47 49
225 199 59 80 47 51
226 196 56 103 44 31
226 196 57 102 45 36
226 197 56 101 46 39
226 197 57 100 48 42
226 198 56 98 44 42
226 198 57 95 47 46
226 199 56 94 43 46
226 199 57 91 44 45
224 196 60 85 47 49
224 196 61 77 47 54
224 197 60 82 50 52
224 197 61 76 48 55
224 198 60 81 52 58
224 199 60 80 51 58
227 200 53 104 42 36
227 201 53 103 44 40
226 200 55 94 47 47
226 201 54 93 45 47
226 201 55 92 46 48
227 200 54 99 49 47
227 201 54 96 47 47
227 202 52 105 45 41
227 202 53 101 46 43
227 203 52 103 46 42
227 203 53 100 47 45
226 202 54 93 47 51
226 202 55 91 45 50
226 203 54 93 47 49
226 203 55 88 46 49
227 202 54 96 46 47
227 203 54 95 48 50
227 205 51 102 49 43
227 206 51 98 46 41
227 207 51 93 44 41
225 206 55 80 44 50
225 207 55 79 48 52
227 204 52 101 47 44
227 204 53 98 45 43
227 205 52 99 48 42
227 205 53 94 45 43
226 204 54 92 45 46
226 204 55 85 44 48
226 205 54 89 41 46
226 205 55 83 45 51
226 206 53 84 37 38
226 207 53 83 43 42
227 206 52 95 47 38
227 206 53 91 46 43
227 207 52 89 44 38
227 207 53 88 43 39
226 206 54 81 36 42
226 206 55 80 40 48
226 207 54 80 46 50
226 207 55 79 48 54
229 200 48 118 37 20
229 200 49 117 37 20
229 201 48 117 40 21
229 201 49 115 42 24
228 200 50 113 40 24
228 200 51 111 42 29
228 201 50 112 42 30
228 201 51 110 41 31
229 200 50 114 37 21
229 201 50 113 40 26
228 202 49 108 36 21
228 203 49 108 36 20
229 202 48 116 39 20
229 202 49 111 39 20
229 203 48 111 34 25
229 203 49 108 34 19
228 202 50 109 40 31
228 202 51 106 37 32
228 203 50 106 39 27
228 203 51 105 42 35
228 200 52 108 40 30
228 201 52 107 43 37
228 202 52 105 40 37
228 203 52 104 44 41
228 204 49 105 38 25
228 205 49 104 39 29
229 204 48 108 38 26
229 204 49 106 39 25
229 205 48 106 35 21
229 205 49 106 41 26
228 204 50 105 39 29
228 204 51 104 44 38
228 205 50 102 42 36
228 205 51 102 47 41
228 206 49 102 43 34
228 207 48 100 43 27
228 207 49 100 45 38
229 206 48 104 37 22
229 206 49 105 41 27
229 207 48 102 44 29
228 206 50 100 42 39
228 206 51 102 48 42
228 207 50 96 42 41
225 200 57 86 48 50
225 201 57 85 47 51
224 200 59 78 48 53
224 201 58 82 51 52
224 201 59 80 50 55
225 200 58 81 49 52
225 201 58 84 53 52
225 202 56 86 46 48
225 202 57 84 49 49
225 203 56 85 45 48
225 203 57 82 48 50
224 202 58 81 49 52
224 202 59 79 48 54
224 203 58 79 47 52
224 203 59 77 46 55
225 202 58 81 51 51
225 203 58 78 48 49
226 200 56 90 46 50
226 201 56 90 47 52
226 202 56 89 47 51
226 203 56 87 45 49
224 200 60 76 47 56
224 201 60 75 48 57
224 202 60 77 50 59
224 203 60 75 47 57
225 204 56 83 47 52
225 204 57 81 50 52
225 205 56 80 45 51
225 205 57 77 45 51
224 204 58 77 47 51
224 204 59 76 46 53
224 205 58 78 49 52
224 205 59 76 45 50
225 204 58 79 52 54
224 207 57 79 46 44
225 206 56 78 44 48
225 206 57 77 42 48
225 207 56 78 47 48
225 207 57 79 45 45
224 206 58 79 45 49
224 206 59 78 49 48
224 207 58 82 47 44
224 207 59 85 52 50
231 208 40 113 31 32
231 208 41 111 36 32
231 209 40 104 33 38
231 209 41 105 38 38
230 208 42 111 40 33
230 208 43 106 41 32
230 209 42 107 38 34
230 209 43 104 34 34
231 208 42 111 41 37
231 209 42 106 39 36
231 210 40 101 41 43
231 210 41 101 41 41
231 211 41 99 40 40
230 210 42 104 36 36
230 210 43 103 35 36
230 211 43 100 36 39
231 210 42 103 40 41
231 211 42 99 41 43
229 208 45 103 31 28
229 209 45 101 35 36
229 208 46 102 34 31
229 208 47 100 43 32
229 209 46 101 38 34
229 209 47 97 41 32
229 210 45 99 41 38
229 211 45 98 44 41
228 210 47 96 42 36
228 211 47 94 42 37
229 210 46 99 42 38
229 210 47 96 42 36
229 211 46 98 45 40
229 211 47 98 47 44
230 208 44 104 35 27
230 208 45 102 30 31
230 209 44 104 34 33
230 209 45 103 34 35
230 210 44 103 35 36
230 210 45 102 39 37
230 211 44 98 38 36
230 211 45 98 42 40
231 212 41 92 44 47
231 213 41 90 46 45
230 212 43 93 41 45
230 213 43 85 41 51
231 212 42 90 39 43
231 212 43 88 36 45
231 213 42 87 42 47
231 213 43 84 38 48
231 214 42 82 45 53
231 214 43 81 45 54
231 215 43 70 48 65
229 212 45 96 47 45
229 213 45 89 48 49
228 212 47 90 46 45
229 212 46 94 45 39
229 212 47 93 46 43
229 213 46 90 46 42
229 213 47 84 46 46
229 214 46 79 47 47
229 214 47 77 45 46
229 215 46 69 47 53
229 215 47 73 46 50
230 212 44 96 45 45
230 212 45 97 47 47
230 213 44 92 50 51
230 213 45 91 50 50
230 214 44 79 47 54
230 214 45 79 48 52
230 215 44 68 45 60
230 215 45 71 46 55
231 215 44 69 48 63
230 215 46 65 47 57
231 216 42 56 46 63
231 216 43 64 46 63
231 217 42 57 51 68
231 217 43 58 47 62
231 218 42 50 51 75
231 218 43 52 53 71
231 219 42 56 51 74
231 219 43 54 53 72
229 216 46 66 44 54
229 216 47 66 48 58
229 217 46 64 42 57
229 217 47 62 45 63
229 218 47 62 46 64
229 219 47 61 49 67
230 216 44 64 44 62
230 216 45 62 44 63
230 217 45 63 48 68
231 216 44 62 45 65
231 217 44 56 45 66
230 216 46 61 43 60
230 217 46 61 46 64
230 218 45 58 46 64
230 219 45 53 45 62
231 218 44 54 51 69
231 218 45 57 45 61
231 219 44 48 51 66
230 218 46 61 46 65
230 218 47 59 43 66
230 219 46 59 44 65
230 219 47 59 47 68
231 220 41 58 51 78
231 221 41 48 51 82
230 221 43 46 51 74
231 220 42 56 50 74
231 220 43 48 50 73
231 221 42 46 51 81
231 221 43 46 48 73
231 222 41 42 48 81
231 223 41 40 47 79
230 222 43 49 51 75
230 223 43 48 50 74
231 222 42 39 48 80
231 222 43 38 49 78
231 223 42 36 49 81
231 223 43 42 48 76
229 221 45 46 52 73
228 221 47 68 52 60
229 220 46 54 48 69
229 220 47 60 49 66
229 221 46 52 51 71
229 221 47 61 52 66
229 222 45 48 50 71
229 223 45 52 52 71
228 222 47 65 50 60
228 223 47 63 48 57
229 222 46 57 51 68
229 222 47 64 51 62
229 223 46 57 47 64
229 223 47 61 46 58
230 220 44 45 51 70
230 220 45 49 52 72
230 221 44 47 56 78
230 221 45 48 54 74
231 220 44 43 52 72
231 221 44 46 52 73
230 220 46 51 48 70
230 221 46 46 52 73
230 222 44 50 52 72
230 222 45 48 50 70
230 223 44 50 52 73
234 208 35 98 45 63
235 208 35 92 43 58
233 208 36 99 35 58
233 208 37 102 41 56
233 209 37 101 41 62
232 208 38 104 41 44
232 208 39 109 34 38
232 209 38 99 40 49
232 209 39 103 32 43
233 208 38 104 44 50
233 209 38 100 40 52
233 210 37 101 38 62
232 210 38 95 37 49
232 210 39 94 37 45
232 211 39 91 28 40
233 210 38 90 36 51
233 211 38 90 43 56
233 211 39 91 32 45
234 208 36 99 39 63
234 209 36 99 41 59
234 209 37 100 40 60
235 208 36 96 33 61
235 209 36 97 38 60
234 210 37 99 35 61
234 211 37 92 42 57
235 210 36 97 36 64
235 210 37 99 38 65
235 211 37 95 37 60
234 211 38 92 45 58
233 212 38 84 39 48
233 212 39 91 28 42
233 213 39 94 40 48
233 214 39 92 40 41
235 212 37 86 35 53
234 212 38 87 37 50
234 213 38 87 39 46
234 213 39 90 39 47
235 212 38 85 38 51
235 213 38 90 37 48
234 214 39 89 37 49
234 215 39 88 37 50
235 214 38 92 40 50
235 215 38 91 36 49
235 215 39 88 35 47
236 208 35 90 42 58
236 208 36 91 34 57
236 209 36 93 36 60
237 208 36 93 30 59
237 208 37 92 31 59
237 209 37 94 33 62
237 209 38 93 35 61
236 210 36 93 37 60
236 210 37 93 33 63
236 211 37 93 34 60
237 210 37 92 31 62
237 211 37 90 35 59
237 210 38 88 32 56
237 211 38 89 40 57
238 208 38 93 33 60
238 208 39 86 33 48
238 209 38 86 31 51
238 209 39 85 36 47
239 208 39 86 36 49
239 209 39 85 38 47
238 210 38 86 36 53
238 210 39 85 37 52
238 211 38 90 43 58
238 211 39 82 35 46
239 210 39 80 35 46
239 211 39 83 38 46
236 212 37 88 41 53
237 212 37 89 38 55
236 213 38 91 35 48
237 212 38 90 40 54
237 213 38 93 39 51
236 214 38 92 39 50
236 215 38 90 38 50
237 214 38 90 41 50
237 215 38 92 42 50
237 215 39 89 41 50
238 212 38 89 38 50
238 212 39 89 37 51
238 213 38 91 41 51
238 213 39 92 47 53
239 212 39 89 40 51
239 213 39 86 41 44
238 214 38 91 42 51
238 214 39 90 39 48
238 215 39 91 40 47
232 209 40 101 34 43
232 210 40 97 36 43
232 211 40 96 35 41
232 211 41 98 40 43
232 212 40 94 45 51
232 212 41 90 45 49
232 213 40 95 41 45
232 213 41 89 48 48
233 213 40 93 41 50
232 214 40 92 39 42
232 214 41 85 49 57
232 215 41 74 43 54
233 214 40 85 37 39
233 215 40 84 43 52
233 215 41 75 40 50
232 214 42 73 47 59
232 215 42 70 52 68
234 214 40 88 41 51
234 215 40 87 39 53
239 208 40 83 37 44
239 209 40 81 37 43
239 210 40 78 39 43
239 211 40 84 37 48
238 213 40 89 40 49
239 212 40 91 41 54
239 213 40 88 42 47
238 214 40 88 36 46
238 215 40 94 48 53
239 214 40 93 42 49
239 215 40 95 48 51
239 215 41 93 46 45
235 216 39 89 40 51
235 217 39 87 40 53
234 219 39 81 47 55
235 218 39 88 41 52
235 219 39 88 47 52
232 221 39 57 46 72
233 220 39 68 47 65
233 221 39 59 46 67
232 222 39 55 48 77
232 223 39 45 47 77
233 222 39 55 47 72
234 220 39 77 46 55
234 221 39 68 46 62
235 220 39 81 45 53
234 222 39 62 48 70
236 216 38 89 40 52
236 216 39 89 43 54
236 217 39 88 40 52
237 216 39 89 38 51
237 217 39 91 44 54
236 218 39 89 42 51
236 219 39 88 45 51
237 218 39 91 45 54
238 216 39 92 41 50
233 216 41 74 40 47
233 217 41 78 41 44
232 216 42 62 47 62
232 217 42 55 50 68
233 216 42 65 38 51
233 217 42 80 42 46
232 219 41 61 47 72
233 218 40 75 45 62
233 218 41 89 45 56
233 219 40 70 46 66
232 218 42 60 48 64
233 218 42 92 44 54
234 216 40 87 42 52
234 216 41 80 42 46
234 217 40 84 46 48
234 217 41 79 45 52
235 217 40 85 46 48
234 218 40 86 40 51
234 218 41 77 39 47
234 219 40 86 46 58
235 219 40 81 40 52
232 220 40 57 42 72
232 220 41 55 47 76
232 221 40 52 48 77
233 220 40 66 45 67
232 222 40 49 48 78
232 222 41 41 48 81
232 223 40 44 46 77
232 223 41 41 49 80
233 223 40 45 47 74
234 221 40 67 45 62
235 220 40 74 40 57
235 221 40 72 48 66
235 221 41 71 46 64
234 222 40 59 44 67
234 223 40 45 46 73
234 223 41 47 44 72
235 222 40 64 43 65
235 222 41 60 43 64
235 223 41 48 47 71
237 217 40 93 51 55
236 218 40 87 52 51
236 219 40 84 44 53
237 218 40 90 51 52
237 219 40 81 44 50
237 219 41 81 45 51
238 216 40 93 46 51
238 216 41 93 49 48
238 217 40 93 52 50
238 217 41 89 48 45
239 216 41 89 41 40
239 217 41 88 46 42
238 218 40 88 51 50
238 218 41 85 47 48
238 219 41 80 42 46
239 218 41 84 45 44
239 219 41 81 45 45
236 220 40 78 42 56
236 220 41 77 48 63
236 221 41 71 47 63
237 220 41 78 45 57
237 221 41 70 46 63
237 221 42 61 40 60
236 222 41 63 43 60
236 222 42 57 40 59
236 223 42 50 48 63
237 222 42 53 40 61
237 223 42 46 48 65
238 220 41 76 42 54
238 221 41 65 42 61
239 220 41 79 46 52
239 221 41 65 40 58
238 221 42 67 43 61
238 222 41 52 44 69
238 223 41 47 50 74
239 222 41 56 46 72
239 223 40 47 48 75
239 223 41 50 51 78
238 222 42 56 44 64
238 223 42 47 49 70
227 208 50 92 42 43
227 208 51 90 44 43
227 209 50 89 41 40
227 209 51 85 43 46
227 211 49 81 42 46
227 210 50 82 42 43
227 210 51 77 40 49
227 211 50 78 44 50
227 211 51 78 46 56
225 208 54 75 45 47
225 208 55 77 47 46
225 209 54 78 48 51
225 209 55 79 48 48
225 210 55 79 44 44
225 211 54 81 45 49
225 211 55 82 44 45
226 208 53 80 45 47
226 209 52 79 44 46
226 209 53 76 42 48
227 208 52 85 46 42
227 209 52 81 45 45
226 208 54 76 45 50
226 209 54 77 47 52
226 210 52 78 45 54
226 210 53 79 45 55
226 211 52 78 46 56
226 211 53 79 42 53
227 210 52 78 46 53
226 210 54 80 46 52
226 211 54 81 45 51
227 212 50 73 43 54
227 212 51 74 45 55
227 213 50 74 45 57
227 213 51 72 43 54
227 214 50 75 45 56
227 214 51 74 47 54
227 215 50 73 44 51
227 215 51 76 51 51
225 212 54 82 44 46
225 212 55 82 42 41
225 213 54 82 42 44
225 213 55 83 42 38
225 215 53 80 42 43
224 214 55 83 42 35
224 215 55 88 48 38
225 214 54 84 47 44
225 214 55 83 42 38
225 215 54 82 41 36
225 215 55 85 46 38
226 212 52 79 47 57
226 212 53 82 47 56
226 213 52 79 47 56
226 213 53 81 43 51
227 212 52 76 45 57
227 213 52 77 44 56
226 212 54 82 44 49
226 213 54 81 43 46
226 214 52 78 45 50
226 214 53 82 45 49
226 215 52 81 52 51
226 215 53 80 45 47
227 214 52 76 44 52
228 208 48 97 42 30
228 208 49 96 41 31
228 209 48 96 40 32
228 209 49 93 40 34
229 208 48 100 44 31
228 208 50 94 42 38
228 209 50 91 40 37
228 210 48 94 42 36
228 210 49 90 43 38
228 211 48 88 39 35
228 211 49 86 44 42
228 210 50 88 45 45
228 212 48 85 44 41
228 212 49 80 45 51
228 213 48 77 43 49
228 213 49 73 39 52
228 214 48 72 43 56
228 214 49 75 43 58
228 215 48 71 46 59
228 215 49 72 43 56
229 214 48 71 46 54
229 215 48 69 49 60
224 208 57 81 50 43
224 209 57 80 46 35
225 208 56 80 51 48
225 209 56 79 47 42
224 208 58 81 43 35
224 209 58 80 42 30
224 210 56 82 46 35
224 210 57 81 46 30
224 211 56 83 42 32
224 211 57 84 44 27
225 210 56 80 45 41
225 211 56 83 45 42
224 210 58 83 45 31
224 211 58 85 43 28
224 212 56 87 43 36
224 212 57 89 46 34
224 213 56 88 43 38
224 213 57 89 44 33
225 212 56 84 40 37
224 212 58 89 47 34
224 214 56 87 43 33
224 214 57 91 45 35
224 215 56 90 47 36
224 215 57 94 50 43
226 216 51 77 49 49
226 217 51 77 46 47
227 216 50 76 47 55
227 216 51 76 49 50
227 217 50 73 41 51
227 217 51 75 43 48
226 218 51 79 43 47
226 219 51 79 40 38
227 218 50 75 44 52
227 218 51 78 43 48
227 219 50 75 44 47
227 219 51 77 40 41
225 216 53 83 45 43
225 217 53 82 43 42
224 216 55 88 47 35
224 217 55 91 47 38
225 216 54 84 44 38
225 216 55 86 45 35
225 217 54 85 40 36
225 217 55 87 42 34
225 218 53 82 38 37
225 219 53 85 42 32
224 218 55 94 49 41
224 219 55 98 46 41
225 218 54 90 42 37
225 218 55 95 46 42
225 219 54 93 44 36
225 219 55 96 46 41
226 216 52 78 49 46
226 216 53 80 45 44
226 217 52 78 47 43
226 217 53 80 45 42
226 218 52 81 45 42
226 219 52 81 42 37
227 220 49 70 44 41
227 221 49 76 48 46
226 220 51 82 42 35
226 221 51 85 43 33
227 220 50 76 43 41
227 221 50 80 43 37
227 222 49 80 44 43
227 223 49 81 44 43
226 222 50 86 42 35
226 222 51 89 45 36
226 223 50 86 39 34
226 223 51 90 39 34
227 222 50 84 43 37
227 223 50 84 41 39
225 220 52 87 44 35
225 220 53 89 43 33
225 221 52 89 46 36
225 221 53 98 51 42
224 220 55 99 49 44
224 221 54 103 50 45
224 221 55 99 46 42
225 220 54 99 50 41
225 221 54 101 52 45
225 222 52 93 45 35
225 222 53 97 47 38
225 223 52 96 45 38
225 223 53 102 50 43
224 222 54 102 47 42
224 222 55 96 45 42
224 223 54 102 47 42
224 223 55 95 46 45
225 222 54 100 48 42
225 223 54 101 48 42
226 220 52 84 42 32
226 221 52 86 42 31
226 222 52 91 44 34
226 223 52 92 41 36
228 216 48 65 47 58
228 216 49 71 48 58
228 217 48 66 50 60
228 217 49 70 48 55
229 216 48 63 48 61
229 217 48 64 50 63
228 218 48 66 50 57
228 218 49 68 48 53
228 219 48 67 50 57
228 219 49 68 49 53
229 218 48 64 47 61
229 219 48 65 50 63
228 219 50 73 48 53
228 220 48 68 52 54
228 220 49 69 47 47
228 221 48 69 51 54
229 220 48 64 51 62
228 222 48 70 47 50
228 223 48 69 47 50
228 223 49 74 46 46
224 216 56 91 47 37
224 216 57 92 45 37
224 217 56 92 48 37
224 217 57 94 48 39
224 218 56 94 49 39
224 219 56 97 45 41
224 220 56 98 45 43
224 221 56 96 45 44
240 193 32 53 52 78
241 192 32 55 57 87
241 192 33 53 57 90
241 193 32 54 55 81
241 193 33 55 54 85
241 192 34 52 55 90
241 193 34 53 50 85
241 193 35 57 49 82
240 194 32 56 46 72
240 195 32 52 47 68
241 194 32 66 51 73
241 194 33 56 52 75
241 195 33 55 49 69
241 194 34 48 47 75
241 194 35 46 45 75
241 195 34 60 44 61
241 195 35 64 45 58
242 192 33 49 56 91
242 193 33 54 53 88
242 192 34 49 55 91
242 192 35 49 46 74
242 193 34 53 53 88
242 193 35 47 46 71
243 192 34 47 51 85
243 192 35 48 49 78
242 194 34 46 43 73
242 194 35 46 45 74
241 195 36 65 44 54
242 193 36 44 45 70
242 193 37 37 40 67
243 192 36 49 50 76
243 192 37 49 45 68
243 193 36 48 46 71
243 193 37 44 44 60
243 193 38 40 41 56
242 194 36 45 41 66
242 194 37 53 38 51
242 195 36 63 44 53
242 195 37 63 41 45
243 194 37 46 38 51
243 194 38 48 38 50
243 195 38 64 41 44
240 196 32 55 48 64
240 196 33 58 51 64
240 197 32 50 45 63
240 197 33 51 48 63
241 196 33 58 48 67
240 197 34 48 49 62
240 197 35 63 51 54
241 196 34 60 45 58
241 196 35 62 41 50
241 197 35 64 46 51
240 198 32 45 41 61
240 198 33 42 39 59
240 199 33 46 43 65
240 198 34 54 44 55
240 198 35 59 42 47
240 199 34 50 41 58
240 199 35 58 34 46
241 196 36 66 41 49
241 197 36 62 42 43
241 197 37 61 44 42
240 198 36 59 36 43
240 199 36 66 35 46
241 198 36 61 41 44
241 198 37 63 39 44
241 199 37 69 39 46
241 198 38 61 29 42
241 199 38 67 35 41
242 196 37 64 37 41
242 197 37 61 42 38
242 196 38 61 35 33
242 197 38 61 35 41
242 197 39 60 33 42
243 196 38 62 36 36
243 197 38 61 40 38
243 197 39 61 35 43
242 198 38 61 31 41
242 198 39 61 32 42
242 199 38 61 31 42
242 199 39 66 32 37
243 198 39 63 31 42
243 199 39 71 28 36
244 192 38 49 44 61
244 193 38 44 42 54
245 192 38 49 43 54
245 192 39 49 39 53
245 193 38 45 41 46
244 194 38 47 38 47
244 195 38 52 40 50
245 194 38 48 39 43
245 195 38 52 38 45
246 192 38 47 42 50
246 193 38 45 42 47
247 192 38 47 42 52
247 193 38 47 42 50
247 194 37 51 44 52
246 194 38 53 42 49
246 195 38 59 41 48
247 194 38 52 43 50
247 195 38 59 44 50
244 196 38 51 37 47
244 196 39 60 42 43
244 197 39 62 36 43
245 196 38 53 39 45
245 197 38 57 41 46
245 197 39 58 38 44
244 198 39 69 35 44
244 199 39 78 32 41
245 198 38 71 41 48
245 198 39 76 39 47
245 199 39 76 33 44
246 196 38 55 40 46
246 197 38 60 41 45
246 197 39 63 40 46
247 196 38 55 41 47
247 196 39 56 42 49
247 197 39 58 41 48
246 198 38 70 38 44
246 198 39 69 38 45
246 199 38 75 31 45
246 199 39 75 33 45
247 198 39 65 36 42
247 199 39 73 35 42
240 200 34 52 40 58
240 200 35 62 39 49
240 201 35 64 45 54
240 200 36 68 35 42
240 200 37 69 37 41
240 201 36 73 39 47
240 201 37 77 36 40
241 200 37 71 44 46
241 200 38 67 39 35
241 201 38 74 36 34
241 201 39 73 34 27
240 202 36 78 43 47
240 202 37 84 41 43
240 203 37 89 36 36
240 202 38 93 38 32
240 203 38 99 39 37
240 203 39 104 37 35
241 202 38 84 42 35
241 202 39 93 36 36
241 203 39 109 36 39
242 200 39 72 41 35
242 201 39 83 37 37
243 200 39 80 41 38
243 201 39 80 43 37
242 202 39 91 32 35
240 204 38 102 40 39
240 204 39 102 33 40
240 205 39 99 26 47
244 200 39 80 39 33
244 201 39 85 41 36
245 200 39 78 34 36
245 201 39 84 39 41
244 202 39 90 34 36
244 203 39 81 38 48
245 202 39 83 37 41
245 203 39 81 39 50
246 200 38 79 30 44
246 200 39 81 33 45
246 201 39 82 31 41
247 200 39 81 32 41
247 201 38 79 24 34
247 201 39 82 31 37
247 203 37 79 38 49
246 202 39 76 34 42
246 203 39 84 39 52
247 202 38 77 32 46
247 202 39 73 33 44
247 203 38 82 38 51
247 203 39 77 39 48
244 204 39 84 39 52
245 204 39 87 39 54
245 205 38 88 31 53
245 205 39 87 36 51
244 206 39 87 40 53
244 207 39 86 39 53
245 206 38 89 37 56
245 206 39 89 38 55
245 207 38 87 37 54
247 204 37 75 32 44
247 205 36 76 35 42
247 205 37 81 37 48
246 204 38 82 33 49
246 204 39 85 36 52
246 205 38 83 34 50
246 205 39 86 28 49
247 204 38 79 34 47
246 206 37 88 42 57
246 207 37 82 39 50
247 206 36 82 41 50
247 206 37 86 43 53
247 207 36 82 36 50
247 207 37 86 42 51
246 206 38 87 38 56
241 203 40 106 34 36
242 201 40 84 28 30
243 201 40 88 39 35
242 202 40 100 32 38
242 203 40 105 33 39
243 202 40 104 40 43
243 203 40 96 34 38
240 204 40 97 24 41
240 205 40 96 24 35
241 204 40 98 30 37
241 205 40 95 33 41
241 205 41 79 38 46
240 206 40 90 32 45
240 207 40 84 38 45
241 206 40 83 40 47
241 206 41 79 34 43
241 207 40 80 36 41
241 207 41 78 34 44
242 204 40 93 33 33
242 204 41 89 35 35
242 205 41 78 36 44
243 204 40 87 35 43
243 204 41 79 29 39
243 205 40 79 35 45
243 205 41 78 36 43
242 206 41 76 30 41
242 207 41 83 37 53
243 206 41 78 34 45
243 207 40 82 36 55
243 207 41 83 37 56
243 207 42 86 39 57
244 201 40 88 39 36
244 202 40 94 35 37
244 203 40 81 36 43
244 204 40 85 38 51
244 205 40 84 37 50
245 205 40 86 35 50
244 206 40 86 40 52
244 206 41 81 38 52
244 207 40 85 41 56
244 207 41 87 42 61
245 206 40 89 39 53
244 207 42 87 39 59
248 193 37 43 44 52
248 192 38 42 45 51
248 193 38 44 44 50
249 192 38 44 44 50
249 193 38 44 42 48
248 194 38 47 42 48
248 195 38 53 42 47
248 195 39 53 42 45
249 194 38 43 40 47
249 195 38 47 41 49
250 192 38 41 41 49
250 193 38 41 40 48
251 192 38 43 42 47
251 193 38 43 42 47
250 194 38 42 39 48
250 195 38 46 43 53
251 194 38 43 40 50
251 195 38 46 41 51
248 196 38 56 43 49
248 196 39 55 43 49
248 197 39 59 42 49
249 196 38 53 43 51
249 197 38 61 42 49
249 197 39 58 42 51
249 199 37 73 38 43
248 198 38 70 35 34
248 198 39 67 37 39
248 199 38 74 39 39
248 199 39 80 39 35
249 198 38 65 37 41
249 199 38 73 41 43
251 196 37 60 45 53
251 197 37 63 38 46
250 196 38 50 43 53
250 197 38 57 42 50
251 196 38 56 49 54
251 197 38 58 43 49
250 198 37 66 43 48
250 199 36 77 36 53
250 199 37 69 40 45
251 198 37 64 38 46
251 199 36 78 39 53
251 199 37 68 40 50
250 198 38 63 40 46
255 192 35 69 39 59
255 193 35 68 40 58
255 194 35 64 42 50
255 195 35 64 41 45
252 192 37 45 41 46
252 193 37 48 44 47
253 192 37 60 45 56
253 193 37 51 44 49
252 192 38 45 41 46
252 193 38 44 42 47
253 192 38 55 41 50
252 194 37 49 39 46
252 195 36 50 42 46
252 195 37 49 39 47
253 194 36 53 37 45
253 194 37 52 43 48
253 195 36 55 43 46
254 192 37 63 42 57
254 193 36 61 44 53
254 193 37 62 45 56
255 192 36 69 40 59
255 193 36 67 38 57
254 194 36 57 41 48
254 195 36 59 41 45
255 194 36 64 39 51
253 199 35 85 32 42
254 196 35 61 37 45
254 197 34 76 31 42
254 197 35 68 34 42
255 196 34 82 35 44
255 196 35 66 32 46
255 197 34 97 30 41
255 198 33 112 32 41
255 199 32 115 31 37
255 199 33 109 30 40
254 198 34 96 34 39
254 198 35 67 32 36
254 199 34 97 32 36
254 199 35 102 35 44
255 198 34 102 35 40
252 196 36 57 38 48
252 196 37 58 41 51
252 197 37 67 37 51
253 196 36 57 40 44
253 197 36 66 38 46
253 197 37 65 37 49
252 198 36 70 31 45
252 198 37 69 35 42
252 199 36 75 33 47
253 198 36 68 34 43
253 199 36 72 34 43
254 198 36 64 33 35
249 202 35 79 39 57
249 203 35 76 34 53
250 200 35 75 29 54
250 201 35 76 32 56
251 200 35 76 31 50
251 201 35 74 27 51
250 203 33 89 27 30
251 203 33 91 34 30
250 202 34 91 35 53
250 202 35 78 36 56
250 203 34 82 32 51
250 203 35 80 39 57
251 202 34 96 33 50
248 201 37 77 33 44
249 200 37 68 33 43
249 201 36 73 35 50
249 201 37 70 34 44
248 200 38 80 33 39
248 200 39 83 34 38
248 201 38 75 31 40
249 200 38 76 36 45
249 201 38 75 30 43
248 202 36 84 38 56
248 202 37 83 39 51
248 203 36 78 35 47
248 203 37 82 40 52
249 202 36 81 39 56
249 203 36 82 36 54
248 202 38 83 35 52
250 200 36 72 30 52
250 200 37 64 32 41
250 201 36 75 31 55
251 200 36 72 31 49
249 205 33 87 33 48
248 204 35 75 27 50
248 205 35 77 25 50
249 204 34 76 25 48
249 204 35 72 26 48
249 205 34 85 30 49
249 205 35 77 26 50
249 206 33 90 32 48
249 207 33 93 34 49
248 206 35 80 27 54
248 207 34 90 27 47
248 207 35 82 26 49
249 206 34 89 27 51
249 207 34 91 27 48
250 204 33 84 32 34
250 205 32 92 37 27
250 205 33 88 35 33
251 204 32 94 32 24
251 204 33 91 27 27
251 205 32 97 39 29
250 206 32 94 39 26
250 206 33 94 31 46
250 207 32 102 42 26
250 207 33 95 32 47
251 206 32 103 46 27
251 207 32 110 53 32
248 204 36 77 32 47
248 204 37 76 35 43
248 205 36 78 26 47
248 206 36 80 36 44
248 207 36 78 29 53
252 200 35 82 33 49
252 201 34 101 42 50
252 201 35 92 34 49
253 200 35 92 30 52
253 201 34 107 38 52
253 201 35 92 33 50
252 203 33 101 32 31
253 202 33 110 29 33
253 203 32 112 32 30
253 203 33 111 27 28
252 202 34 101 36 50
253 202 34 108 41 52
254 200 33 112 31 40
254 201 32 118 28 41
254 201 33 121 21 38
255 200 32 116 30 37
255 200 33 116 31 38
255 201 32 117 36 40
255 201 33 107 31 17
254 200 34 101 34 40
254 200 35 99 31 41
254 201 34 114 26 49
254 202 32 120 31 20
254 202 33 117 29 33
254 203 32 120 39 31
255 202 32 123 36 33
255 203 32 124 38 28
252 204 32 105 40 28
253 204 32 120 39 37
243 214 39 83 43 43
243 215 38 84 52 56
243 215 39 83 51 53
247 208 35 86 39 54
247 209 35 92 43 59
247 210 35 101 43 65
247 211 35 100 43 64
244 208 38 85 34 50
244 208 39 83 32 51
244 209 38 85 37 51
244 209 39 84 31 49
245 208 38 83 38 51
245 209 38 80 38 49
244 210 39 84 32 49
244 211 39 85 35 54
245 210 38 76 34 45
245 210 39 77 28 43
245 211 38 74 34 44
245 211 39 80 39 50
246 208 37 79 40 50
246 209 37 80 40 51
247 208 36 84 37 52
247 208 37 81 41 52
247 209 36 84 38 55
246 210 36 85 40 57
246 210 37 79 37 49
246 211 36 89 42 60
246 211 37 81 41 52
247 210 36 87 42 60
247 211 36 100 44 63
246 213 35 90 51 54
247 212 34 97 48 50
247 212 35 99 49 58
247 213 34 97 47 45
247 213 35 91 45 50
247 215 33 97 64 52
246 214 35 93 50 59
246 215 34 85 41 44
246 215 35 92 42 56
247 214 34 98 51 48
247 214 35 92 51 57
247 215 34 93 45 43
245 212 37 80 42 47
245 213 37 81 34 52
244 212 38 84 39 57
244 212 39 87 40 57
244 213 38 83 40 54
244 213 39 86 44 51
245 212 38 81 40 54
245 213 38 79 29 52
244 215 37 84 46 56
245 214 37 86 38 54
245 215 36 91 38 55
245 215 37 88 43 54
244 214 38 83 46 55
244 214 39 79 41 47
244 215 38 84 50 56
246 212 36 90 49 55
246 212 37 78 48 45
246 213 36 88 50 53
246 213 37 81 44 53
247 212 36 99 47 61
246 214 36 91 43 54
240 208 40 82 35 41
240 208 41 80 36 40
240 209 40 81 38 46
240 209 41 81 38 48
241 208 41 84 41 50
241 209 41 84 39 54
240 210 40 82 38 50
240 210 41 80 38 49
240 211 40 89 41 56
241 210 41 86 38 55
241 211 40 93 46 63
241 211 41 91 42 60
242 208 41 89 44 60
242 209 41 86 40 56
243 208 40 77 31 48
243 208 41 82 35 54
243 209 40 83 28 51
243 209 41 85 33 55
242 208 42 87 41 58
242 209 42 85 37 55
243 208 42 84 37 56
243 209 42 83 34 54
242 210 41 88 36 57
242 211 41 85 31 52
243 210 40 92 37 58
243 210 41 89 35 57
243 211 40 88 35 53
243 211 41 86 34 51
240 212 40 82 32 47
240 213 40 80 36 43
241 212 40 79 34 45
241 213 40 82 40 47
241 213 41 83 42 49
240 214 40 91 41 49
240 214 41 93 42 50
240 215 41 91 39 42
241 214 41 94 43 52
241 215 41 91 38 46
242 212 41 78 39 44
242 213 41 87 45 54
243 212 40 85 40 50
243 212 41 80 38 46
243 213 40 90 50 52
242 214 40 86 38 47
242 214 41 92 40 52
242 215 40 88 39 45
242 215 41 90 35 44
243 214 40 82 43 41
243 215 40 84 46 46
244 208 41 87 37 58
244 209 40 86 25 52
244 210 40 91 37 57
244 211 40 88 34 56
244 212 40 87 36 51
244 213 40 91 48 56
243 219 35 74 47 46
243 216 38 78 42 50
243 216 39 77 46 52
243 217 38 81 47 49
243 217 39 79 46 48
243 218 36 78 54 55
243 218 37 79 51 50
243 219 36 75 50 54
243 219 37 77 51 52
242 218 39 86 49 56
242 219 39 83 40 47
243 218 38 81 48 50
243 218 39 85 49 53
243 219 38 79 44 49
243 220 35 75 45 39
243 221 34 82 44 42
243 221 35 78 46 43
243 222 33 81 44 41
243 223 33 60 51 47
242 223 35 70 38 44
243 222 34 82 45 44
243 222 35 83 47 46
243 223 34 70 48 46
243 223 35 78 42 42
241 221 39 85 48 43
241 223 37 60 40 47
240 223 39 50 39 63
241 222 38 79 42 55
241 222 39 77 46 48
241 223 38 69 43 58
241 223 39 62 41 58
242 221 37 75 44 48
243 220 36 73 46 38
243 220 37 75 45 52
243 221 36 77 45 41
243 221 37 71 49 37
242 220 38 78 40 50
242 220 39 85 38 45
242 221 38 80 42 51
242 221 39 83 45 49
243 220 38 76 46 52
242 222 36 79 45 45
242 222 37 76 46 49
242 223 36 72 41 41
242 223 37 69 42 45
243 222 36 80 45 44
242 222 38 80 41 56
245 216 35 90 40 50
245 217 34 87 52 39
245 217 35 87 42 40
245 218 33 84 54 45
245 219 32 79 60 62
245 219 33 84 57 50
244 218 35 82 55 45
244 219 34 85 55 43
244 219 35 80 51 44
245 218 34 87 55 43
246 217 32 94 62 53
246 217 33 91 54 43
247 216 32 106 74 62
247 216 33 100 66 59
247 217 32 93 63 54
247 217 33 100 58 51
246 216 34 88 36 35
246 216 35 91 37 50
246 217 34 90 47 38
247 216 34 91 42 41
246 218 32 84 60 60
246 218 33 88 58 60
246 219 32 85 61 62
244 216 36 85 44 55
244 216 37 89 53 57
244 217 36 82 46 49
244 217 37 82 47 48
245 216 36 91 45 60
245 216 37 88 46 61
245 217 36 85 47 55
244 216 38 80 44 51
244 217 38 81 45 47
244 218 36 78 49 49
244 220 33 83 50 46
244 221 32 73 60 60
244 221 33 76 53 50
245 220 32 80 62 63
245 220 33 79 52 56
245 221 32 75 62 63
244 220 34 84 52 44
244 220 35 78 48 42
244 221 34 83 46 41
244 222 32 73 60 60
244 222 33 73 52 50
244 223 32 67 58 61
244 223 33 67 58 52
246 220 32 83 65 68
240 216 41 89 37 36
240 217 41 90 47 42
241 216 41 92 43 42
241 217 40 86 41 47
241 217 41 91 47 46
240 218 40 88 50 50
240 218 41 87 48 47
240 219 40 86 53 51
240 219 41 85 51 49
241 218 40 88 50 50
241 219 40 90 56 55
242 216 40 93 53 59
242 216 41 96 50 55
242 217 40 83 46 53
243 216 40 87 54 58
242 218 40 88 49 54
242 219 40 89 48 55
240 220 40 79 50 46
240 220 41 79 50 51
240 221 40 68 46 52
240 221 41 67 44 56
241 220 40 83 49 43
241 221 40 77 49 42
240 222 40 65 48 65
240 222 41 60 48 76
240 223 40 54 44 68
241 222 40 70 49 53
242 220 40 87 43 47
249 208 33 99 38 47
249 209 33 103 52 50
248 208 34 89 38 49
248 208 35 86 34 49
248 209 34 95 40 48
248 209 35 91 29 48
249 208 34 95 37 48
249 209 34 98 45 48
249 211 33 118 64 24
248 211 34 102 40 51
249 210 34 98 40 48
249 211 34 113 56 32
250 208 32 112 49 25
250 208 33 103 50 38
250 209 32 116 60 26
250 209 33 115 64 33
251 208 32 112 58 32
251 209 32 122 64 30
250 210 32 118 68 16
250 210 33 114 63 17
250 211 32 128 71 13
250 211 33 125 60 13
251 210 32 121 72 36
248 212 33 113 57 35
248 213 33 111 56 42
249 212 32 126 71 28
249 212 33 117 63 31
249 213 32 122 70 43
249 213 33 115 60 42
248 212 34 104 46 49
248 213 34 99 43 38
248 214 32 126 65 39
248 214 33 107 62 45
248 215 32 116 68 43
248 215 33 112 63 41
249 214 32 119 66 48
250 212 32 134 76 24
248 216 32 108 70 55
