ply
format ascii 1.0
comment Version 2, Copyright 2017, 8i Labs, Inc.
comment frame_to_world_scale 0.179523
comment frame_to_world_translation -45.2095 7.18301 -54.3561
comment width 1023
element vertex 623
property float x
property float y
property float z
property uchar red
property uchar green
property uchar blue
end_header
227 262 231 113 108 107
227 263 231 117 113 114
231 256 227 96 96 98
231 257 227 109 106 108
231 258 227 119 116 118
231 259 227 115 113 115
229 256 229 114 112 114
229 257 229 107 106 109
228 256 231 116 112 111
228 257 231 111 109 111
229 256 230 115 111 112
229 257 230 110 109 112
229 258 229 113 109 110
229 259 229 111 108 109
228 258 231 113 110 110
228 259 231 117 112 112
229 258 230 113 110 111
229 259 230 112 108 108
230 256 229 110 109 111
230 257 228 107 106 108
230 257 229 104 103 107
231 256 228 102 101 104
231 257 228 107 105 108
230 258 228 116 113 114
230 258 229 114 111 112
230 259 228 120 117 118
230 259 229 115 112 114
231 258 228 118 114 115
231 259 228 119 117 119
230 260 227 114 112 114
230 261 227 119 116 116
231 260 226 116 113 114
231 260 227 114 112 114
231 261 226 121 117 118
231 261 227 120 116 118
230 262 227 120 116 117
230 263 227 122 118 118
231 262 226 118 115 115
231 262 227 122 118 118
231 263 226 120 115 115
231 263 227 122 118 119
229 260 229 113 110 112
229 261 229 117 113 114
228 260 230 101 99 100
228 260 231 104 100 100
228 261 230 107 103 104
228 261 231 93 91 90
229 260 230 106 104 104
229 261 230 111 108 109
228 263 229 105 103 105
229 262 228 113 110 111
229 262 229 114 111 112
229 263 228 112 110 111
229 263 229 105 104 106
228 262 230 117 113 113
228 262 231 111 107 106
228 263 230 113 111 112
228 263 231 118 114 114
230 260 228 116 114 116
230 260 229 116 113 115
230 261 228 116 114 115
230 261 229 118 114 115
230 262 228 116 113 113
230 263 228 117 114 115
225 258 235 114 112 115
225 259 235 106 104 106
227 256 233 118 114 114
227 257 232 102 99 101
227 257 233 106 104 105
226 256 234 124 120 121
226 256 235 124 120 121
226 257 234 117 115 117
226 257 235 125 123 125
227 256 234 121 117 118
227 257 234 107 105 107
227 258 232 105 103 105
227 258 233 100 99 102
227 259 232 116 112 114
227 259 233 111 108 110
226 258 234 110 109 112
226 258 235 118 116 118
226 259 234 109 108 111
226 259 235 107 106 109
227 258 234 102 101 104
224 256 237 123 117 115
224 257 237 127 121 120
225 256 236 123 118 117
225 257 236 127 122 123
224 256 238 125 119 119
224 257 238 127 121 120
224 258 237 123 118 118
224 259 236 104 102 103
224 259 237 116 112 112
225 258 236 120 116 118
225 259 236 105 102 104
224 258 238 127 122 121
224 259 238 123 118 119
225 260 235 100 99 101
225 261 235 105 103 104
225 262 235 114 109 109
225 263 234 119 115 114
225 263 235 119 114 114
226 260 233 118 116 118
226 261 233 109 105 104
227 260 232 120 117 119
227 260 233 120 117 119
227 261 232 98 95 94
227 261 233 112 108 108
226 260 234 113 111 114
226 260 235 105 103 106
226 261 234 113 111 112
226 262 233 106 101 100
226 263 233 115 110 110
227 262 232 104 99 98
227 262 233 105 100 98
227 263 232 115 110 110
227 263 233 113 107 106
226 262 234 112 108 107
226 263 234 116 112 111
224 260 236 100 98 100
224 260 237 110 107 108
224 261 236 108 107 109
224 261 237 110 108 110
225 260 236 98 96 98
225 261 236 106 103 105
224 260 238 119 115 116
224 262 236 115 111 112
224 262 237 113 111 112
224 263 236 117 113 113
224 263 237 116 112 112
225 262 236 113 110 110
225 263 236 118 113 113
228 256 232 117 113 112
228 257 232 107 104 105
228 258 232 109 106 108
228 259 232 119 114 114
228 260 232 119 115 115
227 264 231 116 113 113
227 265 230 106 103 105
227 265 231 110 108 108
226 266 231 116 113 114
226 267 231 119 116 117
227 266 230 118 116 118
227 266 231 116 113 114
227 267 230 118 115 117
227 267 231 120 116 118
226 268 231 119 115 116
226 269 231 122 118 119
227 268 230 115 112 113
227 268 231 119 115 116
227 269 230 122 118 119
227 269 231 120 116 117
226 270 231 125 122 122
226 271 231 122 119 119
227 270 230 127 122 123
227 271 230 123 120 120
231 264 225 116 112 112
231 265 225 114 111 111
230 264 227 121 117 117
230 265 227 113 110 111
231 264 226 120 115 115
231 265 226 116 112 112
231 266 225 112 109 111
231 267 225 108 106 109
230 266 226 118 115 115
230 266 227 114 111 114
230 267 226 117 115 117
230 267 227 119 117 120
231 266 226 116 112 113
231 267 226 111 110 112
228 264 229 101 100 102
228 265 229 115 113 116
229 264 228 117 114 116
229 264 229 103 101 104
229 265 228 116 114 115
228 264 230 102 100 102
228 264 231 110 107 108
228 265 230 108 107 108
228 266 229 116 114 116
228 267 228 109 107 109
228 267 229 109 106 108
229 266 228 107 105 107
229 267 228 110 108 110
230 264 228 120 117 118
230 265 228 116 113 114
229 268 227 115 115 119
229 269 227 108 108 113
229 270 227 103 105 111
229 271 226 95 98 104
229 271 227 104 106 112
230 269 225 89 92 98
231 268 224 108 108 113
231 268 225 104 104 109
231 269 224 92 95 101
231 269 225 93 95 101
230 268 226 103 103 107
230 268 227 115 114 118
230 269 226 94 96 102
230 269 227 102 104 109
231 268 226 104 104 108
230 270 225 86 89 95
230 271 225 94 97 103
231 270 224 89 92 99
231 270 225 85 89 94
231 271 224 94 99 106
230 270 226 91 94 101
230 271 226 92 95 101
228 268 228 118 116 117
228 268 229 114 111 112
228 269 229 124 120 121
229 268 228 120 118 121
229 269 228 118 116 119
228 269 230 126 122 123
228 270 229 120 117 119
228 271 228 116 116 120
228 271 229 121 118 121
229 270 228 113 113 117
229 271 228 111 112 117
228 270 230 125 121 122
228 271 230 122 119 120
224 265 235 119 114 114
225 264 234 119 114 114
225 264 235 122 117 116
225 265 234 113 109 110
225 265 235 116 112 112
224 266 235 113 110 110
224 267 235 115 111 112
225 266 234 116 112 113
225 266 235 111 107 108
225 267 234 122 117 118
225 267 235 117 113 114
226 264 232 121 117 117
226 264 233 118 114 113
226 265 232 119 116 117
226 265 233 117 114 115
227 264 232 120 116 116
227 265 232 120 117 117
226 264 234 118 113 113
226 265 234 113 110 110
226 266 232 119 116 117
226 266 233 120 117 118
226 267 232 121 117 118
226 267 233 123 119 120
224 264 236 122 117 116
224 264 237 120 115 115
224 265 236 122 117 118
224 265 237 121 117 116
224 266 236 119 115 115
224 266 237 123 118 119
224 267 236 118 114 114
224 267 237 122 118 118
225 268 233 122 118 119
225 269 233 112 110 113
224 268 235 121 117 118
224 269 235 115 113 115
225 268 234 122 118 120
225 268 235 122 118 119
225 269 234 111 110 112
225 269 235 119 117 119
225 270 233 119 117 120
225 271 233 126 123 125
224 270 235 106 105 107
224 271 235 120 117 119
225 270 234 109 108 111
225 271 234 123 120 123
226 268 232 119 116 117
226 268 233 120 117 118
226 269 232 117 114 116
226 269 233 114 112 114
226 270 232 124 120 122
226 271 232 123 120 121
224 268 236 120 116 116
224 268 237 121 117 117
224 269 236 116 113 116
224 269 237 113 110 113
224 270 236 112 110 113
224 270 237 112 110 113
224 271 236 119 117 119
224 271 237 122 120 122
233 256 225 112 110 111
233 257 225 108 107 109
232 256 226 105 103 105
232 256 227 101 99 101
232 257 226 114 113 116
232 257 227 113 111 113
233 256 226 110 108 109
232 259 225 103 101 103
233 258 224 103 102 104
233 258 225 101 100 102
233 259 224 108 106 108
233 259 225 106 104 106
232 258 226 110 108 111
232 259 226 107 106 107
234 256 224 109 106 107
234 257 224 107 105 107
234 258 224 107 106 108
234 259 224 111 109 111
232 260 225 114 111 112
232 261 225 110 108 109
233 260 224 110 108 109
233 260 225 112 109 111
233 261 224 103 102 103
232 260 226 115 112 113
232 261 226 121 117 117
232 262 224 104 102 104
232 262 225 108 106 106
232 263 224 114 111 112
232 263 225 114 111 111
233 262 224 109 106 108
233 263 224 115 112 113
232 264 224 112 109 110
232 264 225 115 111 111
232 265 224 108 105 106
232 265 225 113 110 110
233 264 224 107 104 104
233 265 224 103 101 102
232 266 224 111 109 111
232 267 224 111 110 113
232 268 224 107 108 113
227 272 229 120 119 122
227 273 229 110 113 120
226 272 231 117 115 116
226 273 231 118 117 121
227 272 230 122 120 122
227 273 230 118 119 124
227 273 231 120 119 123
227 274 229 81 90 102
227 275 229 88 98 110
226 274 231 112 114 120
226 275 231 91 97 107
227 274 230 96 101 110
227 275 230 76 87 100
227 276 229 97 105 116
227 277 229 105 113 124
226 276 231 85 96 110
226 277 230 99 107 119
226 277 231 95 105 118
227 276 230 91 101 114
227 277 230 104 111 122
227 278 229 97 109 123
227 279 228 92 100 112
227 279 229 89 101 116
226 278 230 109 116 127
226 278 231 105 111 122
226 279 230 99 110 123
226 279 231 107 113 124
227 278 230 105 114 126
227 279 230 95 107 121
228 273 227 91 98 109
229 272 226 95 98 104
229 272 227 98 102 109
229 273 226 96 102 110
229 273 227 96 101 111
228 274 227 106 113 123
228 275 227 104 111 121
229 274 226 90 99 110
229 274 227 103 110 120
229 275 226 92 101 113
229 275 227 95 103 115
230 272 224 99 103 111
230 272 225 94 99 107
230 273 224 94 100 110
230 273 225 91 98 107
231 272 224 97 101 109
231 273 224 96 103 112
230 272 226 96 99 105
230 273 226 96 100 107
230 274 224 94 103 114
230 274 225 91 98 109
230 275 224 84 97 111
230 275 225 89 99 111
231 274 224 92 102 114
231 275 224 85 97 112
228 272 228 108 110 117
228 272 229 116 116 120
228 273 228 90 98 108
228 273 229 102 106 115
229 272 228 104 107 114
228 274 228 93 102 113
228 274 229 85 93 103
228 275 228 105 111 122
228 276 227 101 109 120
228 277 227 90 103 117
229 276 226 87 100 114
229 276 227 96 106 118
229 277 226 83 96 110
229 277 227 81 96 111
228 278 227 72 86 101
228 279 227 106 107 111
229 278 226 101 100 104
229 278 227 77 86 98
229 279 226 126 116 109
229 279 227 116 112 112
230 276 224 84 96 109
230 276 225 82 96 111
230 277 224 108 109 113
230 277 225 96 102 112
230 277 226 88 96 106
230 278 224 127 117 110
230 278 225 120 113 110
230 279 224 134 119 104
230 279 225 133 119 107
228 276 228 104 110 120
228 277 228 101 111 124
228 278 228 81 96 113
228 279 228 91 98 108
225 272 233 114 113 115
225 273 233 104 104 107
224 272 235 127 124 126
224 273 235 123 120 123
225 272 234 123 120 123
225 272 235 124 122 124
225 273 234 109 108 111
225 273 235 118 116 119
225 274 233 117 115 117
225 275 232 123 121 124
225 275 233 127 123 124
225 274 234 119 116 118
225 274 235 120 117 119
225 275 234 129 124 124
225 275 235 129 124 125
226 272 232 112 110 112
226 273 232 111 110 113
226 273 233 103 103 106
226 274 232 122 120 123
226 274 233 117 116 119
226 275 232 112 112 118
224 272 236 125 122 125
224 272 237 124 121 123
224 273 236 121 119 121
224 273 237 122 119 121
224 273 238 122 119 120
224 274 236 123 119 120
224 274 237 124 120 122
224 275 236 130 125 125
224 275 237 129 125 125
224 274 238 125 121 122
224 275 238 128 125 126
225 276 232 112 113 119
225 276 233 122 121 124
225 277 232 94 101 112
225 277 233 103 107 115
224 276 235 130 125 126
224 277 235 123 121 124
225 276 234 130 125 125
225 276 235 132 127 127
225 277 234 118 118 123
225 277 235 124 122 125
225 278 232 94 103 115
225 278 233 88 98 111
225 279 232 104 110 121
225 279 233 93 103 115
224 278 235 109 112 119
224 279 235 84 94 107
225 278 234 89 99 111
225 278 235 96 103 114
225 279 234 86 98 111
225 279 235 82 94 109
226 276 232 97 103 113
226 277 232 92 101 114
224 276 236 131 127 127
224 276 237 130 126 127
224 277 236 123 120 123
224 277 237 120 118 122
224 276 238 129 126 128
224 278 236 107 110 116
224 278 237 102 105 113
224 279 236 91 99 110
224 279 237 88 96 108
224 278 238 99 103 111
224 279 238 83 92 103
227 280 229 112 112 117
227 281 229 136 123 110
226 280 230 93 104 116
226 280 231 98 108 121
226 281 230 119 113 112
226 281 231 101 103 108
227 280 230 98 105 116
227 281 230 126 118 112
227 282 229 144 125 104
227 283 229 137 117 94
226 282 230 138 122 108
226 282 231 134 121 111
226 283 231 147 128 109
227 282 230 143 124 106
227 283 230 143 123 101
227 284 229 113 74 60
227 285 229 117 36 50
226 284 230 125 108 84
226 284 231 143 125 104
226 285 230 110 61 47
226 285 231 120 88 69
227 284 230 120 95 73
227 285 230 113 43 49
227 286 229 123 37 64
227 287 229 123 37 66
226 286 230 120 29 55
226 286 231 117 37 50
226 287 230 122 37 66
226 287 231 120 33 63
227 286 230 121 33 59
227 287 230 124 47 68
228 280 227 134 125 119
228 281 227 139 123 105
229 280 226 134 120 105
229 280 227 136 123 113
229 281 226 128 111 91
228 282 227 132 114 90
228 283 227 112 74 51
229 282 226 105 68 51
229 283 226 103 34 40
229 283 227 106 50 34
230 280 224 120 98 75
230 280 225 133 116 97
230 281 224 101 51 35
230 281 225 105 77 52
230 282 224 107 37 50
230 282 225 98 38 45
230 283 224 108 39 57
230 283 225 103 31 53
228 280 228 129 122 118
228 281 228 142 125 107
228 282 228 143 125 103
228 283 228 127 103 80
229 284 225 106 29 50
229 285 225 110 38 59
228 284 227 109 16 42
228 285 227 116 22 56
229 284 226 107 27 46
229 284 227 110 25 41
229 285 226 109 31 51
229 285 227 112 27 52
229 286 225 106 19 49
229 287 225 106 11 49
228 286 227 113 24 52
228 287 227 113 22 54
229 286 226 108 21 49
229 286 227 111 22 49
229 287 226 107 15 48
229 287 227 110 18 49
230 284 224 111 45 61
230 284 225 110 38 60
230 285 224 108 33 55
230 285 225 110 39 58
231 284 224 109 42 56
231 285 224 108 33 56
230 286 224 107 26 52
230 286 225 106 18 49
230 287 224 108 25 52
230 287 225 108 19 52
231 286 224 107 30 53
231 287 224 109 32 54
228 284 228 111 39 49
228 285 228 119 24 56
228 285 229 118 29 53
228 286 228 119 29 60
228 286 229 123 36 65
228 287 228 117 24 58
228 287 229 122 27 62
225 280 232 106 114 125
225 280 233 106 113 124
225 281 232 97 105 118
225 281 233 107 114 126
225 280 234 102 110 121
225 280 235 85 96 110
225 281 234 112 119 130
225 281 235 109 116 127
225 282 233 107 110 117
225 283 233 135 127 123
225 282 234 108 114 125
225 282 235 109 116 128
225 283 234 123 120 122
225 283 235 113 114 120
226 280 232 105 113 125
226 281 232 92 102 115
226 282 232 117 113 114
226 283 232 144 129 117
224 280 236 79 91 106
224 280 237 88 98 111
224 281 236 94 104 117
224 281 237 87 99 112
225 281 236 111 118 130
224 280 238 92 102 114
224 281 238 90 101 115
224 282 236 109 116 128
224 282 237 102 112 126
224 283 236 102 105 112
224 283 237 100 106 117
225 282 236 107 115 126
225 283 236 104 109 118
224 282 238 99 109 123
224 283 238 105 111 122
225 284 233 145 128 112
225 285 233 144 126 104
225 284 234 139 125 113
225 284 235 131 119 111
225 285 234 148 129 107
225 285 235 147 127 105
225 286 233 123 93 68
225 287 233 113 38 38
225 286 234 136 114 87
225 286 235 147 127 103
225 287 234 115 66 39
225 287 235 126 96 62
226 284 232 147 128 109
226 285 232 135 115 92
226 286 232 113 60 48
226 287 232 117 28 54
224 284 236 124 116 113
224 284 237 113 110 111
224 285 236 142 122 103
224 285 237 138 122 108
225 285 236 146 125 101
224 284 238 109 111 117
224 285 238 133 119 108
224 286 236 150 129 105
224 286 237 148 128 105
224 287 236 135 115 87
224 287 237 146 127 104
225 286 236 148 128 104
225 287 236 137 114 85
224 286 238 148 127 106
224 287 238 149 129 108
