ply
format ascii 1.0
comment Version 2, Copyright 2017, 8i Labs, Inc.
comment frame_to_world_scale 0.179523
comment frame_to_world_translation -45.2095 7.18301 -54.3561
comment width 1023
element vertex 444
property float x
property float y
property float z
property uchar red
property uchar green
property uchar blue
end_header
224 256 275 87 117 142
224 256 276 85 114 139
224 256 277 78 107 133
224 257 276 81 113 140
224 257 277 79 112 139
225 256 277 74 105 131
225 257 277 78 111 138
225 256 278 82 111 136
225 257 278 83 114 141
225 257 279 89 118 143
224 258 276 81 113 140
224 258 277 78 111 139
224 259 276 82 112 139
224 259 277 80 112 139
224 259 278 79 111 137
225 258 278 75 108 135
225 258 279 80 110 136
225 259 278 84 114 139
225 259 279 85 114 139
226 256 279 90 114 135
226 257 279 93 120 144
226 258 279 87 116 142
224 260 277 82 113 139
224 261 277 80 112 138
224 260 278 85 115 141
224 261 278 76 109 137
224 261 279 73 105 134
225 260 279 77 107 134
225 261 279 71 103 132
224 262 278 77 110 137
224 262 279 75 109 136
224 263 278 77 109 136
224 263 279 77 110 137
225 262 279 73 106 134
225 259 280 79 109 135
226 256 280 92 114 133
226 257 280 95 121 145
227 256 280 79 89 105
227 256 281 77 93 109
227 257 280 93 117 138
227 257 281 91 111 130
226 258 280 91 119 144
226 259 280 79 110 137
227 258 280 91 120 146
227 258 281 90 119 143
227 259 281 83 116 144
225 260 280 71 102 130
225 261 280 74 106 134
224 263 280 76 108 136
225 262 280 76 108 134
225 262 281 80 109 135
225 263 280 76 108 134
225 263 281 75 103 129
226 260 280 68 100 130
226 260 281 73 107 136
226 261 280 80 112 139
226 261 281 84 115 141
227 260 281 77 112 140
227 261 281 84 115 142
227 260 282 81 114 143
227 261 282 84 116 142
226 262 281 84 114 140
226 263 281 75 102 129
226 263 282 79 109 135
227 262 282 87 117 143
227 262 283 85 117 143
227 263 282 84 114 140
227 263 283 85 116 142
228 256 281 79 71 79
228 257 281 84 101 117
228 256 282 84 81 90
228 257 282 73 81 95
229 256 282 91 81 80
229 257 282 76 65 78
229 257 283 85 60 77
228 258 281 83 109 130
228 258 282 79 102 122
228 259 282 84 113 137
229 258 282 74 82 100
229 258 283 84 68 86
229 259 283 80 93 110
230 256 282 112 105 102
230 256 283 118 110 107
230 257 283 94 72 70
231 256 283 138 133 134
230 258 283 88 51 62
230 259 283 79 77 89
230 257 284 101 80 73
231 256 284 141 136 135
231 257 284 128 118 112
230 258 284 92 56 56
230 259 284 83 58 68
231 258 284 105 84 75
231 259 284 87 41 47
231 259 285 93 61 62
228 260 282 83 115 141
228 260 283 84 115 141
228 261 282 81 114 141
228 261 283 82 114 141
229 260 283 83 106 127
229 261 283 88 115 138
228 262 283 83 115 141
228 263 283 85 116 142
230 260 283 76 88 101
229 261 284 95 117 138
228 263 284 82 114 141
229 262 284 82 112 138
229 263 284 78 111 138
229 263 285 77 110 137
230 260 284 79 81 93
230 261 284 94 110 127
230 261 285 85 102 118
231 260 284 86 53 65
231 260 285 86 58 71
231 261 285 77 76 89
230 262 285 74 103 127
230 263 285 81 112 138
231 262 285 71 94 112
231 263 285 83 109 132
231 262 286 75 94 110
231 263 286 87 111 132
224 264 278 76 108 136
224 264 279 76 109 138
224 265 279 80 114 142
224 266 279 83 116 144
224 264 280 75 108 136
224 265 280 77 110 138
225 264 280 75 106 132
225 264 281 76 103 129
225 265 280 81 111 138
225 265 281 80 110 135
224 266 280 80 114 142
224 267 280 81 116 144
225 266 281 75 106 134
225 267 281 79 114 143
225 267 282 77 111 139
226 264 281 77 105 130
226 264 282 76 104 130
226 265 282 67 95 122
227 264 282 82 111 137
227 264 283 76 107 134
227 265 283 68 94 123
226 266 282 70 102 131
226 266 283 74 106 133
226 267 282 75 110 139
226 267 283 79 112 140
227 266 283 76 107 133
227 267 283 82 114 141
227 266 284 82 113 139
227 267 284 85 116 142
224 268 280 78 114 144
224 268 281 80 116 146
224 269 280 75 109 138
224 269 281 79 115 145
225 268 281 79 115 145
225 269 281 78 115 145
225 268 282 77 114 143
225 269 282 76 112 142
224 270 280 79 111 136
224 270 281 79 114 142
224 271 280 81 106 127
224 271 281 80 111 136
225 270 282 80 116 145
225 271 282 80 114 143
226 268 282 74 109 138
226 268 283 72 104 134
226 269 283 76 109 137
227 268 283 78 110 138
226 270 283 88 118 144
226 271 283 83 114 142
227 268 284 83 115 142
227 269 284 81 110 137
226 271 284 79 109 137
227 270 284 81 110 136
227 270 285 70 101 130
227 271 284 73 106 135
227 271 285 71 105 134
228 264 283 81 114 141
228 264 284 78 111 138
228 265 284 75 107 135
229 264 284 81 114 142
229 264 285 82 115 142
229 265 284 80 113 141
229 265 285 79 113 140
228 266 284 80 112 138
228 267 284 84 116 143
228 267 285 81 115 142
229 266 285 76 111 138
229 267 285 78 112 140
229 266 286 75 108 135
229 267 286 80 112 139
230 264 285 84 116 143
230 265 285 77 110 137
230 264 286 86 117 143
230 265 286 76 107 135
231 264 286 90 117 141
231 265 286 85 116 142
231 265 287 84 115 141
230 266 286 73 106 133
230 267 286 85 114 139
231 266 286 71 101 129
231 266 287 81 110 136
231 267 287 76 105 131
228 268 284 85 116 143
228 268 285 83 116 143
228 269 284 84 116 142
228 269 285 81 112 140
229 268 285 81 115 143
228 269 286 79 112 140
229 268 286 83 114 141
229 269 286 79 113 142
228 270 285 71 100 130
228 271 285 70 102 132
228 270 286 75 110 138
228 271 286 74 108 139
229 270 286 78 114 143
229 270 287 78 113 143
229 271 286 76 112 142
229 271 287 77 113 143
230 268 287 76 105 133
230 269 287 73 106 135
231 269 287 74 106 133
230 270 287 77 112 141
230 271 287 75 111 142
232 256 284 148 143 144
232 256 285 149 144 144
232 257 284 146 139 137
232 257 285 143 136 134
233 256 285 150 145 146
233 257 285 143 138 140
232 258 285 129 120 114
232 259 285 110 94 87
233 258 285 128 123 121
233 259 285 123 115 111
233 258 286 130 126 127
233 259 286 121 114 110
234 256 285 149 145 146
234 256 286 144 140 142
234 257 286 143 140 143
234 257 287 141 139 143
235 256 287 139 136 139
235 257 287 130 128 132
234 258 286 140 138 140
234 258 287 145 142 146
234 259 286 131 127 128
234 259 287 139 135 136
235 258 287 140 138 141
235 259 287 148 144 146
232 260 285 95 66 71
232 261 285 83 55 70
232 261 286 84 47 62
233 260 286 110 88 87
233 261 286 96 47 59
233 261 287 97 51 59
232 262 286 72 68 78
232 263 286 79 93 107
232 263 287 74 87 100
233 262 286 91 48 63
233 262 287 89 49 60
233 263 287 78 58 69
234 260 286 128 116 111
234 260 287 138 128 124
234 261 287 127 110 104
235 260 287 150 144 144
234 262 287 101 68 69
236 256 287 145 143 146
232 264 286 88 111 131
232 264 287 81 104 123
232 265 287 84 116 142
233 264 287 69 78 91
233 265 287 86 113 136
232 266 287 79 112 139
232 267 287 74 103 130
232 268 287 66 97 125
224 272 280 77 92 106
224 272 281 85 106 126
224 273 280 77 68 80
224 273 281 75 80 93
225 272 282 80 112 138
225 272 283 77 112 140
225 273 282 81 102 121
225 273 283 80 109 133
224 274 281 75 44 61
224 275 281 92 51 63
224 274 282 70 60 72
224 275 282 89 38 58
225 274 282 74 77 87
225 274 283 83 98 112
225 275 282 82 39 55
225 275 283 80 73 81
226 272 283 73 109 139
226 273 283 77 110 137
226 274 283 85 105 124
226 272 284 72 106 137
226 273 284 73 109 138
227 272 284 74 110 140
227 272 285 78 115 145
227 273 285 76 113 144
226 274 284 79 108 132
226 275 284 81 98 112
227 274 285 68 100 130
227 275 285 71 98 123
224 276 281 110 85 85
224 277 281 139 130 126
224 276 282 104 59 67
224 277 282 114 96 92
225 276 282 97 38 54
225 276 283 84 37 49
225 277 283 90 45 56
224 278 281 149 143 143
224 279 281 149 146 149
224 278 282 133 127 126
224 279 282 142 140 143
225 278 283 99 82 85
225 279 283 119 115 116
225 279 284 108 97 97
226 276 284 80 75 83
226 277 284 86 54 65
227 276 285 84 101 117
227 277 285 86 87 94
226 278 284 94 53 68
226 279 284 98 64 73
227 278 285 82 49 60
227 279 285 93 37 52
228 272 285 81 118 148
228 272 286 80 117 147
228 273 286 83 120 150
229 272 286 78 116 146
229 272 287 77 112 144
229 273 286 82 121 151
229 273 287 79 117 149
228 274 286 74 110 141
228 275 286 69 101 130
229 274 286 82 119 149
229 274 287 81 118 148
229 275 287 78 114 143
230 272 287 73 110 141
230 273 287 76 114 146
230 274 287 80 118 150
230 275 287 83 119 148
228 276 286 77 104 128
228 277 286 76 96 113
229 276 287 67 102 131
229 277 287 63 93 119
228 278 286 81 85 94
228 279 286 85 68 75
229 278 287 84 105 124
229 279 287 89 101 114
224 280 281 139 139 144
224 281 281 122 125 133
224 280 282 146 144 148
224 281 282 135 134 139
225 280 283 140 137 138
225 281 283 149 145 146
224 282 281 119 125 136
224 282 282 133 134 141
224 283 282 123 129 141
225 282 283 147 144 146
225 283 283 142 142 148
225 280 284 134 128 127
225 281 284 152 146 146
225 282 284 151 147 148
225 283 284 146 144 149
226 280 284 124 108 105
226 281 284 151 144 142
227 280 285 108 66 70
227 281 285 134 117 113
227 280 286 100 42 54
226 282 284 150 146 147
226 283 284 146 144 147
226 283 285 142 141 146
227 282 285 146 142 142
227 283 285 129 130 135
227 282 286 145 141 142
224 284 282 97 114 134
224 284 283 104 119 136
224 285 282 97 116 137
224 285 283 96 116 137
225 284 283 116 126 140
225 285 283 96 115 136
224 286 282 105 121 139
224 286 283 103 119 139
224 287 282 118 128 143
224 287 283 111 124 141
225 286 283 100 118 138
225 284 284 122 130 143
225 285 284 96 115 135
225 286 284 98 117 138
225 287 284 107 121 139
226 284 284 129 135 146
226 284 285 130 135 146
226 285 284 102 118 136
226 285 285 106 121 138
227 284 285 121 127 138
227 285 285 108 121 138
227 284 286 118 124 135
227 285 286 106 119 136
226 286 285 97 117 137
226 287 285 104 120 138
227 286 285 96 116 137
227 287 285 102 119 139
227 286 286 96 116 137
227 287 286 100 118 139
228 280 286 90 50 60
228 281 286 102 64 65
229 280 287 79 82 91
229 281 287 78 52 63
228 282 286 122 108 105
228 282 287 118 108 105
228 283 286 142 141 144
228 283 287 141 137 137
229 282 287 96 68 70
229 283 287 118 107 105
228 284 286 135 136 143
228 284 287 138 139 145
228 285 286 105 117 133
228 285 287 110 120 132
229 284 287 137 133 135
229 285 287 125 130 139
228 286 286 100 117 137
228 286 287 102 118 136
228 287 286 100 118 139
228 287 287 101 119 139
229 286 287 106 119 135
229 287 287 101 118 137
249 256 287 119 116 115
250 256 287 121 112 106
251 256 287 120 110 102
251 257 287 116 109 106
252 256 286 121 109 99
252 256 287 118 108 101
252 257 287 117 111 109
253 256 286 120 111 103
253 256 287 118 111 107
253 257 287 118 112 111
253 258 287 117 114 116
254 256 286 118 111 106
254 257 287 122 119 120
255 256 286 117 113 112
255 257 286 121 122 126
255 257 287 122 123 128
254 258 287 118 119 124
255 258 287 120 122 129
255 259 287 118 123 131
