ply
format ascii 1.0
comment Version 2, Copyright 2017, 8i Labs, Inc.
comment frame_to_world_scale 0.179523
comment frame_to_world_translation -45.2095 7.18301 -54.3561
comment width 1023
element vertex 1236
property float x
property float y
property float z
property uchar red
property uchar green
property uchar blue
end_header
239 318 191 122 29 61
239 319 191 121 29 58
247 295 173 74 96 117
247 294 174 78 99 119
247 294 175 82 101 120
247 295 174 80 100 120
247 295 175 88 105 123
247 303 160 111 106 106
247 303 161 115 118 124
247 302 163 98 112 128
247 303 162 102 114 128
247 303 163 91 109 128
247 301 166 87 107 127
247 301 167 88 108 128
247 302 164 86 105 125
247 302 165 79 103 126
247 303 164 80 104 126
247 303 165 79 104 128
247 302 166 83 106 127
247 302 167 86 107 128
247 303 166 84 108 130
247 303 167 86 108 130
247 297 171 83 104 125
247 298 169 78 102 125
247 299 169 79 103 126
247 298 170 76 100 123
247 298 171 75 99 122
247 299 170 72 98 122
247 299 171 72 98 121
247 296 172 81 101 121
247 296 173 78 99 119
247 297 172 83 103 124
247 297 173 81 101 121
247 296 174 85 103 122
247 296 175 94 108 125
247 297 174 87 104 122
247 297 175 96 110 126
246 299 173 83 103 122
247 298 172 73 98 121
247 298 173 78 99 120
247 299 172 75 99 121
247 299 173 81 101 121
246 298 174 91 107 124
246 298 175 98 112 128
246 299 174 86 104 123
246 299 175 88 106 124
247 298 174 86 103 121
247 298 175 91 106 123
247 300 168 87 108 129
247 300 169 76 102 125
247 301 168 85 107 128
247 301 169 76 101 125
247 300 170 72 99 122
247 300 171 76 100 123
247 301 170 76 100 123
247 301 171 82 102 123
246 303 169 81 103 124
247 302 168 83 106 127
247 302 169 77 102 124
247 303 168 83 106 128
247 303 169 80 103 125
246 302 170 85 104 125
246 302 171 91 107 124
246 303 170 88 106 125
246 303 171 101 112 126
247 302 170 80 102 124
245 303 175 127 131 140
246 300 173 85 104 123
246 301 172 90 107 125
246 301 173 97 111 126
247 300 172 80 102 123
247 300 173 82 102 123
247 301 172 85 104 123
246 300 174 84 103 122
246 300 175 84 102 121
246 301 174 97 111 126
246 301 175 98 111 127
246 302 172 105 115 128
246 302 173 116 123 133
246 303 172 112 119 129
246 303 173 119 122 130
246 302 174 120 126 136
246 302 175 121 127 138
246 303 174 125 127 134
246 303 175 127 130 138
249 291 162 102 116 133
250 288 160 115 122 133
250 288 161 118 123 133
250 289 160 102 113 127
250 289 161 105 115 128
251 288 160 119 125 136
251 288 161 125 128 137
250 288 162 123 128 137
250 289 162 115 123 134
250 289 163 125 131 141
251 288 162 130 132 140
251 288 163 135 136 144
250 290 160 98 113 129
250 290 161 95 111 127
250 291 160 102 116 133
250 291 161 98 114 130
250 290 162 101 114 130
250 290 163 106 118 132
250 291 162 98 113 130
250 291 163 98 112 129
250 289 164 129 133 143
250 289 165 123 128 137
251 288 164 135 136 143
251 288 165 129 131 138
250 288 166 120 125 133
250 288 167 117 122 131
250 289 166 115 121 131
250 289 167 109 116 127
251 288 166 123 126 134
250 290 164 108 119 133
250 290 165 105 116 130
250 291 164 92 107 123
250 291 165 92 106 123
250 290 166 96 109 124
250 290 167 95 107 121
250 291 166 88 104 121
250 291 167 86 101 118
249 292 161 99 114 131
249 293 160 94 110 128
249 293 161 98 113 130
249 292 162 106 120 136
249 292 163 106 119 134
249 293 162 108 121 136
249 293 163 110 122 138
249 294 160 86 104 123
249 294 161 82 102 121
249 295 160 87 106 125
249 295 161 83 102 122
249 294 162 97 112 129
249 294 163 101 115 131
249 295 162 84 102 120
249 295 163 79 99 118
250 292 160 99 114 131
249 292 164 101 115 130
249 292 165 92 107 123
249 293 164 105 118 133
249 293 165 96 110 126
249 292 166 87 103 121
249 292 167 85 103 121
249 293 166 92 108 125
249 293 167 92 109 127
249 294 164 99 113 130
249 294 165 97 111 128
249 295 164 77 98 117
249 295 165 82 100 120
249 294 166 98 114 131
249 294 167 96 113 131
249 295 166 89 107 126
249 295 167 86 106 125
250 292 164 96 110 126
250 292 165 91 106 122
250 292 166 88 104 121
249 289 171 130 133 140
249 290 169 103 114 128
249 291 168 87 102 118
249 291 169 85 101 118
249 290 170 112 120 133
249 290 171 112 121 134
249 291 170 85 102 119
249 291 171 85 102 120
250 288 168 116 120 129
250 288 169 120 122 130
250 289 168 108 115 126
250 289 169 115 120 129
250 288 170 124 125 132
250 288 171 130 131 137
250 289 170 124 127 135
250 289 171 130 132 139
250 290 168 99 110 123
250 290 169 107 116 128
250 291 168 88 103 119
249 288 172 132 134 140
249 288 173 129 131 138
249 289 172 131 133 141
249 289 173 126 129 137
248 289 175 115 119 127
249 288 174 121 124 132
249 288 175 114 119 127
249 289 174 119 122 131
249 289 175 111 116 124
248 290 173 87 101 116
248 291 172 76 97 117
248 291 173 73 94 113
249 290 172 111 120 133
249 290 173 109 117 129
249 291 172 82 100 118
249 291 173 74 94 113
248 290 174 102 111 123
248 290 175 113 119 128
248 291 174 77 94 112
248 291 175 90 102 116
249 290 174 114 120 129
250 288 172 133 134 140
249 292 168 86 103 120
249 292 169 76 96 115
249 293 168 91 108 126
249 293 169 82 103 122
248 292 171 82 101 121
248 293 170 79 100 121
248 293 171 81 102 122
249 292 170 76 97 117
249 292 171 81 101 120
249 293 170 79 100 121
248 294 169 89 108 127
248 295 168 77 100 120
248 295 169 75 98 120
249 294 168 93 110 129
249 294 169 92 109 128
249 295 168 86 105 125
248 294 170 84 104 125
248 294 171 76 99 120
248 295 170 76 99 120
248 295 171 70 95 117
248 292 172 80 100 121
248 292 173 80 101 120
248 293 172 80 101 122
248 293 173 82 103 123
248 292 174 85 102 120
248 292 175 91 105 122
248 293 174 86 104 124
248 293 175 89 105 123
248 294 172 70 95 117
248 294 173 72 96 118
248 295 172 63 90 112
248 295 173 65 91 114
248 294 174 79 100 120
248 294 175 82 101 120
249 296 160 95 113 131
249 296 161 94 111 128
249 297 160 94 111 128
249 297 161 94 109 125
249 296 162 94 109 125
249 296 163 87 103 121
249 297 162 92 105 120
249 297 163 89 103 120
248 298 161 71 75 90
248 299 160 76 85 97
248 299 161 75 75 83
249 298 160 83 99 116
249 298 161 79 92 106
249 299 160 78 92 107
248 298 162 78 84 95
248 298 163 92 103 116
248 299 162 91 91 96
248 299 163 109 113 122
249 298 162 81 93 108
249 296 164 80 99 118
249 296 165 82 100 120
249 297 164 88 103 120
249 297 165 89 105 123
248 296 167 78 99 119
248 297 166 90 107 125
248 297 167 87 105 123
249 296 166 82 102 121
249 296 167 77 98 119
249 297 166 88 105 123
248 298 164 103 113 127
248 298 165 103 115 130
248 299 164 113 121 133
248 299 165 107 119 134
249 298 165 98 112 127
248 298 166 99 114 131
248 298 167 96 113 131
248 299 166 101 116 133
248 299 167 96 114 133
248 300 160 73 74 82
248 300 161 86 77 80
248 301 160 79 71 75
248 301 161 98 91 93
248 300 162 106 103 106
248 300 163 119 121 129
248 301 162 116 116 121
248 301 163 117 122 132
248 302 160 89 82 82
248 302 161 106 105 108
248 303 160 104 97 97
248 303 161 114 113 117
248 302 162 112 117 127
248 302 163 106 116 130
248 300 164 113 122 134
248 300 165 101 115 131
248 301 164 104 116 131
248 301 165 91 109 127
248 300 166 95 112 130
248 300 167 92 110 130
248 301 166 89 108 128
248 302 164 93 109 126
248 302 165 85 105 126
248 296 168 73 96 116
248 296 169 69 94 115
248 297 168 84 103 123
248 297 169 82 103 123
248 296 170 76 99 120
248 296 171 78 100 121
248 297 170 81 103 124
248 297 171 83 104 125
248 298 168 93 110 129
248 298 169 85 105 126
248 299 168 91 111 131
248 299 169 85 107 128
248 298 170 80 102 124
248 296 172 77 98 119
248 300 168 90 111 131
247 289 178 117 120 126
247 289 179 122 124 130
247 290 177 125 126 132
247 291 177 121 124 132
247 290 178 121 122 129
247 290 179 123 124 130
247 291 178 125 127 133
247 291 179 125 126 132
247 288 180 125 127 134
247 288 181 122 125 131
247 289 180 125 126 133
247 289 181 121 124 130
246 289 183 103 107 113
247 288 182 116 119 125
247 288 183 113 116 122
247 289 182 110 113 119
247 289 183 103 107 114
246 291 181 120 123 130
247 290 180 125 127 133
247 290 181 124 126 132
247 291 180 124 126 132
247 291 181 123 125 132
246 290 182 115 117 123
246 290 183 113 115 120
246 291 182 120 121 127
246 291 183 121 122 127
247 290 182 118 120 126
247 292 176 101 111 124
247 292 177 113 119 129
247 293 176 90 104 121
247 293 177 96 108 122
246 293 179 111 116 126
247 292 178 121 124 132
247 292 179 121 124 131
247 293 178 109 115 126
247 293 179 117 121 130
247 294 176 82 99 117
247 294 177 81 97 114
247 295 176 95 109 125
247 295 177 96 109 124
246 294 178 96 105 117
246 294 179 99 108 119
246 295 178 101 110 123
246 295 179 103 110 122
247 294 178 93 104 117
247 295 178 98 110 124
245 293 183 121 121 125
245 295 181 94 104 116
245 294 182 108 113 123
245 294 183 119 121 126
245 295 182 95 104 116
245 295 183 111 116 125
246 292 180 116 119 127
246 292 181 113 116 124
246 293 180 107 112 122
246 293 181 103 108 117
247 292 180 120 122 129
246 292 182 113 116 123
246 292 183 122 122 127
246 293 182 109 113 120
246 293 183 119 120 124
246 294 180 96 105 117
246 294 181 97 105 116
246 295 180 97 106 118
246 295 181 94 104 117
246 294 182 105 110 119
243 294 191 127 128 133
243 295 190 126 126 131
243 295 191 123 123 129
245 288 187 120 121 126
245 289 187 120 120 125
245 290 185 123 122 126
245 291 185 125 124 128
245 290 186 123 123 127
245 290 187 121 121 125
245 291 186 124 124 128
245 291 187 124 124 128
246 288 184 116 117 123
246 288 185 121 122 126
246 289 184 110 111 117
246 289 185 119 119 124
247 288 184 116 117 123
246 288 186 123 123 127
246 288 187 122 122 126
246 289 186 122 122 126
246 289 187 121 122 126
246 290 184 115 115 120
246 290 185 120 120 124
246 291 184 123 123 127
246 290 186 122 122 126
245 288 188 118 119 125
245 288 189 119 120 126
245 289 188 114 116 121
245 289 189 110 112 118
244 289 191 113 113 118
245 288 190 120 120 126
245 288 191 112 113 118
245 289 190 111 113 120
245 289 191 111 113 118
244 291 188 125 125 129
244 291 189 122 122 127
245 290 188 114 115 120
245 290 189 106 108 114
245 291 188 122 121 126
245 291 189 118 119 124
244 290 190 113 115 120
244 290 191 118 118 123
244 291 190 121 121 126
244 291 191 124 123 127
245 290 190 105 108 114
246 288 188 119 119 124
245 292 184 124 124 128
245 292 185 124 124 128
245 293 184 123 123 126
245 293 185 122 122 126
244 292 187 120 120 125
244 293 187 111 113 118
245 292 186 123 123 128
245 292 187 123 122 127
245 293 186 118 119 123
245 293 187 115 116 122
244 294 185 125 124 127
244 295 184 122 123 129
244 295 185 126 126 131
245 294 184 126 124 128
245 294 185 123 123 126
245 295 184 121 122 129
244 294 186 119 119 122
244 294 187 110 110 115
244 295 186 128 127 130
244 295 187 126 124 127
245 294 186 118 119 123
246 292 184 125 124 128
244 292 188 124 124 128
244 292 189 125 124 129
244 293 188 115 116 121
244 293 189 120 120 124
244 292 190 122 122 126
244 292 191 121 121 125
244 293 190 123 122 126
244 293 191 123 123 127
244 294 188 112 113 117
244 294 189 119 119 123
244 295 188 122 121 124
244 295 189 125 124 128
244 294 190 125 124 128
244 294 191 127 127 131
244 295 190 126 126 130
245 299 179 89 105 123
246 296 177 104 115 129
246 297 176 105 117 132
246 297 177 108 119 133
247 296 176 101 113 128
247 296 177 103 114 128
247 297 176 105 116 131
246 296 178 103 113 127
246 296 179 104 113 125
246 297 178 105 116 130
246 297 179 101 112 126
246 298 176 106 118 133
246 298 177 108 119 134
246 299 176 93 110 129
246 299 177 95 112 130
246 298 178 104 116 131
246 298 179 96 110 126
246 299 178 95 111 129
246 299 179 92 108 125
245 296 181 93 103 116
245 297 180 98 109 122
245 297 181 99 109 122
244 296 183 90 101 115
244 297 182 89 102 116
244 297 183 79 95 111
245 296 182 86 97 111
245 296 183 94 104 116
245 297 182 94 105 119
245 297 183 79 93 108
245 298 180 93 107 122
245 298 181 98 110 124
245 299 180 93 107 123
245 299 181 97 109 124
244 298 182 100 111 125
244 298 183 95 107 122
244 299 182 107 117 129
244 299 183 107 116 128
245 298 182 103 113 126
245 299 182 105 114 127
246 296 180 98 108 120
246 296 181 94 104 117
246 297 180 100 110 123
246 298 180 95 108 123
245 301 177 94 112 131
245 300 178 88 107 126
245 300 179 87 104 122
245 301 178 90 109 128
245 301 179 83 102 121
245 302 176 123 130 142
245 302 177 113 124 138
245 303 176 121 128 139
245 303 177 110 120 134
245 302 178 98 113 129
245 302 179 85 102 119
245 303 178 98 110 125
245 303 179 92 105 120
246 300 176 84 104 124
246 300 177 87 108 128
246 301 176 98 112 129
246 301 177 94 112 130
246 300 178 88 109 129
246 302 176 116 125 138
245 300 180 91 106 123
245 300 181 96 110 126
245 301 180 79 99 118
245 301 181 80 99 117
244 300 182 106 116 129
244 300 183 112 120 132
244 301 182 91 106 122
244 301 183 99 112 127
245 300 182 102 113 128
245 301 182 89 104 122
244 302 181 95 106 120
244 303 180 104 111 122
244 303 181 110 114 124
245 302 180 81 98 116
245 302 181 82 99 116
245 303 180 99 109 122
244 302 182 96 108 121
244 302 183 98 109 122
244 303 182 117 119 126
244 303 183 114 116 122
243 297 186 98 108 121
243 297 187 118 123 131
243 298 185 90 103 119
243 299 185 99 110 123
243 298 186 91 103 118
243 298 187 97 107 119
243 299 186 96 107 120
243 299 187 88 100 114
243 296 189 122 123 129
243 297 188 122 125 132
243 297 189 116 120 127
243 296 190 120 121 127
243 296 191 113 116 123
243 297 190 107 112 120
243 297 191 94 101 111
243 298 188 98 107 118
243 298 189 100 107 118
243 299 188 82 94 107
243 299 189 83 94 106
242 299 191 93 102 113
243 298 190 94 102 113
243 298 191 89 99 111
243 299 190 86 96 109
243 299 191 92 102 114
243 300 185 106 114 125
243 301 185 110 118 131
243 300 186 103 111 123
243 300 187 96 106 119
243 301 186 109 118 130
243 301 187 111 119 131
243 302 184 95 107 121
243 302 185 96 108 121
243 303 184 117 116 120
243 303 185 103 106 113
243 302 186 104 113 126
243 302 187 112 119 130
243 303 186 107 110 116
243 303 187 115 117 123
242 301 189 100 109 121
243 300 188 83 95 109
243 300 189 73 87 100
243 301 188 109 117 129
243 301 189 89 99 112
242 300 190 81 92 103
242 300 191 91 100 110
242 301 190 94 102 112
242 301 191 96 102 110
243 300 190 77 89 101
242 302 188 115 122 132
242 302 189 107 115 127
242 303 188 118 119 125
242 303 189 109 113 118
243 302 188 115 122 133
243 303 188 116 120 127
242 302 190 104 110 119
242 302 191 111 112 117
242 303 190 106 109 114
242 303 191 118 117 118
244 296 184 104 111 122
244 296 185 113 117 125
244 297 184 77 94 110
244 297 185 91 103 116
244 296 186 124 125 130
244 296 187 131 129 133
244 297 186 110 116 126
244 297 187 127 128 135
244 298 184 87 102 119
244 298 185 86 101 117
244 299 184 105 114 127
244 299 185 102 112 125
244 296 188 128 127 130
244 296 189 124 124 129
244 297 188 130 130 135
244 300 184 113 120 131
244 300 185 111 117 128
244 301 184 106 117 131
244 302 184 96 108 121
244 303 184 105 109 116
248 288 176 112 116 125
248 288 177 116 120 129
248 289 176 112 116 125
248 289 177 110 114 122
249 288 176 114 118 127
248 288 178 123 125 133
248 288 179 125 127 134
248 289 178 115 118 125
248 289 179 121 123 130
248 290 176 121 124 131
248 290 177 121 123 129
248 291 176 107 114 124
248 291 177 122 125 132
248 290 178 116 118 125
248 288 180 126 128 134
248 292 176 99 110 123
248 293 176 92 106 122
247 304 160 121 117 119
247 304 161 116 120 129
247 305 160 123 124 130
247 305 161 109 119 132
247 304 162 97 112 129
247 304 163 85 106 127
247 305 162 90 109 129
247 305 163 81 105 128
247 306 160 116 122 132
247 306 161 99 114 131
247 307 160 111 120 132
247 307 161 92 110 129
247 306 162 83 106 128
247 306 163 79 106 130
247 307 162 80 104 128
247 307 163 79 106 130
247 304 164 80 104 127
247 304 165 82 107 130
247 305 164 82 106 129
247 305 165 85 108 131
246 305 166 89 111 132
246 305 167 87 108 130
247 304 166 86 109 132
247 304 167 86 108 130
247 305 166 88 110 132
247 305 167 86 109 130
246 306 165 88 110 131
246 307 164 84 108 131
246 307 165 88 109 131
247 306 164 83 107 130
247 306 165 86 109 131
247 307 164 81 107 131
246 306 166 89 110 131
246 306 167 88 109 129
246 307 166 88 108 129
246 307 167 86 106 126
246 308 160 102 115 131
246 308 161 85 106 126
246 309 160 104 117 133
246 309 161 84 105 126
247 308 160 107 117 131
247 308 161 88 108 127
246 308 162 77 103 127
246 308 163 80 106 130
246 309 162 77 102 126
246 309 163 82 106 129
247 308 162 78 104 128
246 310 160 104 117 133
246 310 161 88 107 126
246 311 160 105 117 131
246 311 161 92 109 127
246 310 162 81 104 126
246 310 163 92 111 131
246 311 162 97 113 132
246 311 163 105 119 136
245 310 167 115 122 132
245 311 166 117 123 135
245 311 167 125 129 137
246 308 164 85 108 131
246 308 165 90 110 130
246 309 164 89 110 131
246 309 165 94 112 131
246 308 166 90 109 128
246 308 167 89 107 125
246 309 166 95 111 128
246 309 167 96 110 126
246 310 164 97 114 133
246 310 165 101 116 133
246 311 164 106 119 136
246 311 165 107 119 135
246 310 166 105 116 130
246 310 167 105 115 129
246 311 166 110 120 133
245 307 171 129 132 140
246 304 168 83 106 128
246 304 169 85 105 126
246 305 168 85 106 128
246 305 169 89 107 126
247 304 168 83 106 128
246 304 170 93 108 125
246 304 171 106 115 127
246 305 170 101 112 127
246 305 171 114 120 131
246 306 168 85 106 126
246 306 169 94 109 126
246 307 168 88 105 123
246 307 169 104 114 128
246 306 170 112 120 132
246 306 171 124 128 137
246 307 170 122 127 137
246 307 171 129 132 141
245 305 173 126 129 136
245 304 174 127 129 136
245 304 175 125 129 138
245 305 174 125 129 137
245 305 175 124 129 138
245 306 172 131 134 142
245 306 173 128 132 140
245 307 172 127 131 140
245 307 173 120 127 137
245 306 174 123 129 139
245 306 175 118 126 138
245 307 174 115 124 137
245 307 175 110 121 136
246 304 172 116 121 129
246 304 173 120 122 129
246 305 172 124 127 135
246 305 173 124 127 134
246 304 174 123 125 133
246 306 172 130 132 140
246 306 173 130 132 139
245 309 169 120 125 134
245 308 170 128 131 140
245 308 171 126 130 139
245 309 170 127 130 139
245 309 171 123 127 136
245 310 168 119 124 134
245 310 169 126 129 137
245 311 168 130 132 139
245 311 169 130 133 139
245 310 170 126 129 137
245 310 171 120 125 134
245 311 170 126 130 138
245 311 171 119 125 135
246 308 168 94 108 124
246 308 169 111 119 131
246 309 168 104 114 127
246 309 169 113 120 131
246 308 170 126 130 138
245 308 172 119 124 135
245 308 173 110 119 132
245 309 172 111 119 131
245 309 173 101 113 128
244 309 174 105 119 136
244 309 175 105 119 137
245 308 174 108 119 134
245 308 175 107 121 137
245 309 174 104 118 134
245 309 175 107 121 138
244 310 173 98 112 129
244 311 173 101 114 129
245 310 172 110 118 130
245 310 173 100 113 128
245 311 172 110 118 131
245 311 173 103 113 127
244 310 174 101 116 133
244 310 175 100 115 132
244 311 174 103 117 133
244 311 175 99 113 130
245 313 160 105 116 130
245 313 161 113 122 136
245 313 162 119 127 140
245 313 163 115 125 139
245 314 160 104 116 130
245 314 161 115 124 138
245 315 160 106 118 133
245 315 161 114 124 138
245 314 162 117 126 139
245 314 163 114 123 136
245 315 162 116 125 138
245 315 163 116 124 136
246 312 160 103 115 129
246 312 161 101 114 130
246 313 160 104 115 129
246 313 161 110 119 133
246 312 162 110 122 137
246 312 163 115 125 140
245 312 164 112 122 136
245 312 165 113 122 136
245 313 164 114 123 136
245 313 165 117 124 135
245 312 166 122 128 138
245 312 167 129 132 139
245 313 166 124 128 138
245 313 167 126 129 137
245 314 164 116 123 135
245 314 165 121 126 135
245 315 164 120 126 136
245 315 165 122 126 135
244 315 167 119 124 133
245 314 166 120 124 132
245 314 167 119 122 131
245 315 166 120 124 132
245 315 167 119 123 132
246 312 164 111 122 137
245 316 160 107 118 133
245 316 161 114 124 138
245 317 160 108 120 135
245 317 161 114 123 138
245 316 162 116 125 138
245 316 163 118 126 138
245 317 162 116 125 138
245 317 163 121 129 140
244 318 161 116 125 138
244 319 160 109 120 135
244 319 161 117 125 138
245 318 160 109 120 136
245 318 161 113 123 137
245 319 160 107 119 134
244 318 162 120 127 139
244 318 163 124 130 142
244 319 162 123 129 141
244 319 163 122 129 140
245 318 162 117 126 139
244 317 164 127 132 143
244 317 165 123 129 139
245 316 164 124 129 139
245 316 165 126 130 139
245 317 164 127 132 142
245 317 165 127 131 141
244 316 166 122 126 135
244 316 167 119 124 134
244 317 166 118 124 134
244 317 167 109 118 131
245 316 166 124 128 136
244 318 164 123 130 141
244 318 165 110 120 132
244 319 164 111 120 134
244 319 165 97 111 127
244 318 166 102 113 128
244 318 167 97 111 127
244 319 166 90 108 126
244 319 167 89 108 127
243 313 175 95 105 118
243 315 173 84 103 122
243 314 174 91 107 124
243 314 175 94 105 118
243 315 174 87 104 121
243 315 175 102 110 122
243 317 171 87 108 129
243 318 170 85 109 132
243 318 171 86 109 132
243 319 170 85 109 133
243 319 171 84 109 133
243 316 172 83 105 126
243 316 173 79 101 121
243 317 172 86 106 127
243 317 173 86 105 125
243 316 174 88 103 120
243 316 175 107 115 127
243 317 174 94 108 124
243 317 175 103 113 127
243 318 172 86 108 129
243 318 173 87 107 127
243 319 172 83 107 130
243 319 173 86 108 130
243 318 174 93 110 127
243 318 175 96 111 128
243 319 174 91 110 130
243 319 175 93 111 130
245 312 168 129 131 138
245 312 169 129 131 138
245 313 168 125 127 135
245 313 169 124 129 137
244 313 171 109 120 134
245 312 170 124 129 138
245 312 171 117 124 134
245 313 170 119 126 137
245 313 171 114 122 135
244 314 169 114 121 132
244 315 168 118 124 133
244 315 169 109 119 131
245 314 168 121 125 133
245 314 169 119 125 135
244 314 170 107 118 131
244 314 171 101 115 131
244 315 170 98 112 128
244 315 171 92 110 128
244 312 172 108 117 130
244 312 173 105 117 131
244 313 172 105 117 133
244 313 173 105 119 135
245 312 172 111 120 132
244 312 174 108 120 135
244 312 175 101 113 128
244 313 174 103 117 134
244 313 175 98 110 124
244 314 172 97 113 130
244 314 173 97 114 132
244 315 172 88 107 127
244 315 173 88 107 126
244 314 174 95 110 128
244 316 168 116 123 134
244 316 169 105 116 130
244 317 168 108 118 132
244 317 169 97 112 130
244 316 170 91 108 126
244 316 171 85 105 125
244 317 170 86 106 126
244 317 171 84 106 127
244 318 168 96 112 130
244 318 169 90 110 131
244 319 168 90 109 131
244 319 169 86 109 132
244 318 170 85 108 131
244 319 170 85 109 133
244 316 172 84 105 126
243 304 183 136 129 126
243 305 183 141 129 120
243 306 182 142 126 112
243 306 183 143 126 109
243 307 182 143 126 109
243 307 183 145 126 107
243 309 179 138 126 119
243 311 177 118 115 117
243 310 178 130 122 119
243 310 179 138 126 118
243 311 178 128 120 116
243 311 179 138 124 114
243 308 181 142 125 109
243 309 180 142 128 115
243 309 181 147 128 110
243 308 182 146 127 108
243 308 183 148 129 109
243 309 182 149 129 110
243 309 183 150 130 111
243 310 180 143 126 110
243 310 181 148 129 109
243 311 180 140 123 106
243 311 181 148 128 108
242 310 183 148 130 112
242 311 182 148 130 112
242 311 183 148 130 112
243 310 182 150 130 111
243 310 183 149 130 112
243 311 182 149 130 111
245 304 176 116 123 134
245 304 177 99 111 126
245 305 176 113 122 134
245 305 177 99 111 126
244 305 179 102 110 120
245 304 178 91 104 119
245 304 179 96 107 120
245 305 178 97 109 123
245 305 179 100 110 122
244 307 177 89 102 117
245 306 176 109 119 134
245 306 177 98 110 125
245 307 176 103 116 132
245 307 177 94 108 123
244 306 178 96 104 116
244 306 179 100 105 114
244 307 178 92 100 111
244 307 179 98 100 105
245 306 178 99 110 122
244 304 180 107 112 121
244 304 181 118 118 121
244 305 180 108 111 118
244 305 181 123 119 119
245 304 180 99 108 120
244 304 182 132 127 125
244 304 183 136 129 127
244 305 182 137 127 120
244 306 180 107 106 108
244 306 181 123 114 108
244 307 180 118 111 108
244 307 181 134 120 109
244 306 182 137 124 114
244 308 176 96 111 128
244 308 177 89 103 118
244 309 176 96 111 129
244 309 177 95 105 119
245 308 176 100 115 132
244 308 178 99 104 112
244 308 179 114 111 110
244 309 178 111 112 116
244 309 179 129 121 118
244 310 176 94 109 125
244 310 177 100 107 117
244 311 176 94 106 120
244 311 177 105 109 117
244 310 178 121 117 118
244 308 180 131 120 112
244 308 181 139 123 110
244 309 180 137 125 115
243 304 184 135 128 124
243 304 185 131 125 123
243 305 184 142 129 119
243 305 185 143 129 119
242 304 187 133 127 124
242 305 186 144 129 117
242 305 187 143 129 117
243 304 186 130 124 121
243 304 187 126 123 124
243 305 186 143 129 118
243 305 187 140 129 120
243 306 184 140 122 105
243 306 185 141 123 106
243 307 184 144 125 105
243 307 185 141 121 102
242 306 186 138 119 100
242 306 187 142 125 107
242 307 186 137 118 98
242 307 187 141 122 103
243 306 186 141 123 106
241 305 191 137 124 110
241 307 189 139 123 105
241 306 190 141 124 107
241 306 191 137 122 105
241 307 190 140 123 105
241 307 191 133 116 98
242 304 188 134 127 125
242 304 189 130 123 121
242 305 188 144 130 118
242 305 189 143 129 117
242 304 190 126 120 117
242 304 191 129 121 116
242 305 190 140 127 114
242 305 191 137 125 114
242 306 188 145 128 111
242 306 189 144 127 110
242 307 188 141 124 106
242 307 189 141 124 107
242 306 190 141 125 108
241 311 187 143 125 103
242 308 185 145 126 107
242 309 184 150 131 111
242 309 185 149 130 110
243 308 184 148 128 109
243 308 185 147 127 108
243 309 184 150 130 111
242 308 186 143 124 105
242 308 187 142 123 104
242 309 186 148 129 109
242 309 187 146 126 107
242 310 184 150 131 112
242 310 185 150 131 112
242 311 184 149 131 114
242 311 185 150 132 114
242 310 186 150 131 112
242 310 187 148 129 109
242 311 186 149 131 112
242 311 187 146 128 107
241 308 188 137 119 100
241 308 189 137 120 101
241 309 188 137 119 97
241 309 189 135 117 94
241 308 190 138 121 103
241 308 191 131 112 94
241 309 190 130 110 89
241 309 191 118 88 69
241 310 188 141 121 99
241 310 189 129 108 80
241 311 188 135 115 89
241 311 189 120 94 61
241 310 190 117 87 59
241 310 191 110 59 45
241 311 190 110 63 39
241 311 191 111 36 41
242 308 188 140 122 104
242 309 188 141 123 102
243 312 177 114 113 115
243 313 176 103 108 116
243 313 177 119 114 113
243 312 178 132 121 114
243 312 179 138 123 110
243 313 178 133 119 107
243 313 179 137 119 102
243 314 176 112 112 117
243 314 177 130 120 114
243 315 176 124 122 125
243 315 177 138 127 119
242 315 179 146 125 105
243 314 178 135 119 103
243 314 179 139 119 99
243 315 178 143 125 108
243 315 179 141 122 102
242 312 181 150 131 114
242 313 181 149 131 115
243 312 180 140 123 106
243 312 181 147 128 110
243 313 180 143 125 108
243 313 181 147 129 113
242 312 182 149 131 114
242 312 183 148 131 115
242 313 182 150 132 116
242 313 183 150 133 117
242 314 180 148 128 109
242 314 181 149 131 114
242 315 180 148 127 106
242 315 181 149 129 110
243 314 180 144 125 105
242 314 182 150 133 117
242 314 183 150 132 115
242 315 182 150 132 116
242 315 183 146 129 111
242 317 177 133 125 121
243 316 176 125 125 129
243 316 177 140 129 122
243 317 176 116 120 128
243 317 177 129 124 123
242 316 178 148 129 111
242 316 179 149 128 107
242 317 178 142 128 117
242 317 179 150 131 114
243 316 178 146 129 113
242 318 177 112 117 125
242 319 176 94 111 130
242 319 177 99 111 127
243 318 176 101 113 128
243 318 177 113 118 126
243 319 176 95 111 131
242 318 178 127 123 123
242 318 179 140 130 124
242 319 178 112 116 126
242 319 179 124 123 126
241 316 183 142 124 106
241 317 183 145 127 107
241 319 180 133 126 122
241 319 181 139 126 116
241 318 182 150 132 112
241 318 183 145 127 106
241 319 182 145 129 113
241 319 183 138 118 96
242 316 180 146 125 102
242 316 181 146 125 104
242 317 180 149 129 109
242 317 181 148 128 106
242 316 182 148 129 110
242 316 183 144 127 108
242 317 182 149 130 109
242 318 180 147 132 118
242 318 181 148 130 112
242 319 180 133 126 122
242 318 182 151 131 111
244 312 176 98 106 118
244 313 176 98 107 118
241 312 187 138 119 97
241 313 186 141 124 104
241 313 187 131 110 87
241 314 185 147 130 113
241 315 184 144 127 109
241 315 185 145 129 111
241 314 186 139 122 102
241 314 187 122 97 73
241 315 186 134 115 95
241 315 187 116 84 62
242 312 184 149 132 116
242 312 185 149 132 115
242 313 184 150 134 117
242 313 185 149 133 117
242 312 186 147 129 110
242 313 186 146 130 112
242 314 184 150 133 116
242 314 185 149 132 115
242 315 184 145 128 111
241 312 188 124 101 73
241 312 189 111 76 45
241 313 188 115 83 56
241 313 189 108 50 39
240 312 191 116 12 50
240 313 190 115 13 49
240 313 191 117 8 52
241 312 190 109 43 34
241 312 191 113 17 44
241 313 190 109 21 38
241 313 191 115 5 48
240 315 189 118 32 59
241 314 188 112 64 47
241 314 189 114 37 49
241 315 188 112 56 52
241 315 189 116 37 56
240 314 190 115 18 55
240 314 191 120 25 56
240 315 190 118 25 61
240 315 191 119 26 59
241 314 190 113 18 51
241 316 184 140 123 104
241 316 185 139 122 102
241 317 184 139 122 102
241 317 185 131 112 90
241 316 186 127 103 82
241 316 187 112 69 55
241 317 186 117 85 63
241 317 187 114 51 51
241 318 184 132 112 88
241 318 185 118 89 64
241 319 184 122 92 66
241 319 185 111 60 42
240 318 187 116 21 50
240 319 186 115 11 44
240 319 187 118 3 50
241 318 186 111 52 43
241 318 187 115 32 47
241 319 186 111 23 37
240 316 189 118 31 63
240 317 188 118 33 62
240 317 189 119 29 64
241 316 188 113 48 55
241 316 189 116 39 60
241 317 188 116 37 58
240 316 190 120 28 65
240 316 191 120 32 62
240 317 190 121 27 63
240 317 191 121 33 63
240 318 188 118 19 59
240 318 189 120 23 63
240 319 188 119 5 56
240 319 189 120 17 59
240 318 190 122 26 63
240 318 191 122 27 60
240 319 190 121 22 61
240 319 191 121 25 57
