ply
format ascii 1.0
comment Version 2, Copyright 2017, 8i Labs, Inc.
comment frame_to_world_scale 0.179523
comment frame_to_world_translation -45.2095 7.18301 -54.3561
comment width 1023
element vertex 620
property float x
property float y
property float z
property uchar red
property uchar green
property uchar blue
end_header
227 288 64 124 120 119
227 288 65 127 123 123
227 289 64 124 121 124
227 289 65 120 118 121
227 288 66 123 119 121
227 288 67 127 122 124
227 289 66 121 118 119
227 289 67 127 122 124
227 290 64 124 122 124
227 290 65 122 120 124
227 291 64 134 131 133
227 291 65 131 128 131
227 290 66 123 121 123
227 290 67 126 122 124
227 291 66 127 125 128
227 291 67 126 122 125
225 288 70 129 125 126
225 288 71 130 126 126
225 289 70 133 129 130
225 289 71 133 129 130
225 290 71 135 130 131
225 291 71 136 132 133
226 288 68 130 125 125
226 288 69 131 126 127
226 289 68 130 126 127
226 289 69 133 128 130
226 288 70 129 125 125
226 289 70 134 129 131
226 290 68 128 124 125
226 290 69 130 126 127
226 291 68 125 121 122
226 291 69 130 125 126
227 290 68 128 124 125
227 291 68 126 121 122
226 290 70 134 129 130
226 291 70 135 130 131
226 293 64 136 135 139
227 292 64 136 133 136
227 292 65 133 130 133
227 293 64 136 134 138
227 293 65 136 133 135
227 292 66 130 127 129
227 292 67 126 123 126
227 293 66 134 131 133
227 293 67 134 130 132
226 294 64 134 133 138
226 295 64 133 133 138
226 295 65 135 134 139
227 294 65 137 135 138
227 295 65 137 135 139
226 295 67 136 132 135
227 294 66 138 135 137
227 294 67 138 133 135
227 295 66 136 134 138
227 295 67 136 133 135
225 292 71 133 130 131
225 293 71 131 128 130
225 294 71 127 124 127
225 295 71 126 123 125
226 292 68 126 122 123
226 292 69 129 125 127
226 293 68 132 127 128
226 293 69 132 127 128
227 292 68 126 122 122
227 293 68 131 127 128
226 292 70 133 128 130
226 293 70 132 129 131
226 294 68 135 131 133
226 294 69 133 129 130
226 295 68 135 131 133
226 295 69 132 128 130
227 294 68 136 132 133
226 294 70 129 125 127
226 295 70 128 125 126
226 295 71 127 124 126
224 288 72 135 130 131
224 288 73 136 131 133
224 289 73 132 129 130
225 288 72 135 130 132
225 289 72 133 129 131
225 289 73 134 130 132
224 288 74 136 131 133
224 288 75 136 133 135
224 289 74 132 129 131
224 289 75 135 131 133
224 290 73 134 130 131
224 291 73 138 133 135
225 290 72 135 130 132
225 290 73 136 131 132
225 291 72 137 133 134
225 291 73 138 133 135
224 290 74 134 130 132
224 290 75 135 131 133
224 291 74 138 133 135
224 291 75 137 133 135
224 291 76 136 132 134
224 292 73 138 133 134
224 293 73 137 133 134
225 292 72 135 131 132
225 292 73 138 133 134
225 293 72 132 128 130
225 293 73 136 131 133
224 292 74 137 133 134
224 292 75 134 131 132
224 293 74 138 133 135
224 293 75 136 132 134
224 295 73 135 131 133
225 294 72 128 125 127
225 294 73 134 130 132
225 295 72 130 127 129
225 295 73 133 129 131
224 294 74 136 132 134
224 294 75 136 132 134
224 295 74 133 130 132
224 295 75 133 130 132
224 292 76 133 130 132
224 293 76 135 132 134
224 294 76 135 132 134
224 295 76 133 130 133
224 295 77 132 130 133
225 297 64 136 135 141
224 299 64 137 136 142
225 298 64 139 139 144
225 299 64 139 138 143
225 299 65 138 137 142
226 296 64 133 133 138
226 296 65 134 134 139
226 297 64 136 135 140
226 297 65 134 134 139
226 296 66 133 132 137
226 296 67 135 132 136
226 297 66 130 130 135
226 297 67 131 131 135
227 296 66 134 132 136
227 296 67 134 132 135
226 298 64 140 139 143
226 298 65 138 137 142
226 299 65 136 135 140
226 298 66 134 133 138
226 298 67 133 132 137
226 299 66 134 133 138
226 299 67 132 132 136
225 296 71 133 129 130
226 296 68 135 132 135
226 296 69 135 132 133
226 297 68 133 131 135
226 297 69 134 131 134
226 296 70 135 130 132
226 296 71 132 128 129
226 297 70 135 131 133
226 297 71 134 130 131
226 298 68 132 131 136
226 298 69 133 131 135
226 299 68 132 131 135
226 299 69 131 129 133
226 298 70 132 130 133
226 298 71 133 130 132
226 299 70 131 129 132
226 299 71 132 129 133
224 300 64 133 133 139
224 301 64 132 132 138
224 301 65 136 136 141
225 300 64 137 136 142
225 300 65 138 137 143
225 301 65 139 138 143
225 301 66 140 139 143
224 302 65 136 136 141
224 303 65 134 134 139
225 302 65 138 137 142
224 302 66 135 135 140
224 303 66 132 132 137
225 302 66 137 137 142
225 302 67 139 137 142
225 303 67 135 135 140
226 300 66 137 136 141
226 300 67 135 134 139
226 301 66 140 139 143
226 301 67 140 139 143
226 302 67 140 138 142
225 303 68 138 137 141
225 303 69 138 137 142
225 303 70 138 137 142
226 300 68 134 133 137
226 300 69 133 131 135
226 301 68 139 137 141
226 301 69 136 134 138
226 300 70 133 131 135
226 300 71 133 130 134
226 301 70 134 132 136
226 301 71 132 130 134
226 302 68 139 137 141
226 302 69 136 135 139
226 303 68 138 137 141
226 303 69 139 137 141
226 302 70 134 132 136
226 302 71 131 130 135
226 303 70 135 134 139
226 303 71 130 131 136
225 296 72 133 129 131
225 296 73 131 127 129
225 297 72 132 128 130
225 297 73 130 127 129
224 296 74 129 126 129
224 296 75 129 127 130
224 297 75 129 127 131
225 296 74 128 125 127
225 297 74 130 128 131
225 297 75 131 130 134
225 298 72 135 132 134
225 298 73 132 130 133
225 299 72 133 131 134
225 299 73 131 129 133
224 298 75 130 129 135
225 298 74 132 130 134
225 298 75 129 129 135
225 299 74 127 126 132
225 299 75 124 125 132
226 297 72 134 130 132
226 298 72 133 131 133
226 299 72 132 130 134
224 296 76 130 128 131
224 296 77 130 129 133
224 297 76 129 128 133
224 297 77 127 127 133
224 296 78 127 127 133
224 297 78 124 127 135
224 297 79 119 125 136
224 298 76 126 128 134
224 298 77 121 124 132
224 299 76 121 124 132
224 299 77 116 122 132
224 298 78 113 120 132
224 298 79 108 118 132
224 299 78 107 116 129
224 299 79 100 113 128
225 300 73 127 127 132
225 301 73 124 125 130
225 300 74 125 126 131
225 300 75 124 126 133
225 301 74 123 124 130
225 301 75 123 125 133
225 302 73 123 125 132
225 303 72 126 129 136
225 303 73 120 124 133
225 302 74 119 123 131
225 302 75 114 120 130
225 303 74 113 120 131
225 303 75 108 117 130
226 300 72 132 130 133
226 301 72 128 128 132
226 302 72 128 128 133
226 303 72 127 128 134
224 300 76 119 124 134
224 300 77 116 122 133
224 301 76 117 123 134
224 301 77 111 119 131
225 300 76 122 126 135
225 301 76 120 125 134
224 300 78 109 118 132
224 300 79 104 116 131
224 301 78 107 117 130
224 301 79 106 117 131
224 302 76 108 116 129
224 302 77 104 115 128
224 303 76 103 114 129
224 303 77 101 114 129
225 302 76 110 118 129
225 303 76 104 115 129
224 302 78 103 114 129
224 302 79 104 115 130
224 303 78 102 114 129
224 303 79 105 116 130
224 288 86 134 132 136
224 288 87 130 130 136
224 289 87 121 125 134
224 290 87 98 110 126
224 291 87 89 106 124
224 292 87 79 100 122
224 293 87 70 95 118
224 294 87 84 104 125
224 295 87 88 107 127
224 288 88 127 128 136
224 288 89 121 124 133
224 289 88 117 122 133
224 289 89 114 121 133
225 288 89 117 122 132
225 289 89 111 119 131
225 288 90 114 120 130
225 288 91 113 120 131
225 289 90 106 116 129
225 289 91 109 118 131
224 290 88 95 109 125
224 290 89 93 109 126
224 291 88 87 105 125
224 291 89 89 108 128
225 290 90 91 108 126
225 290 91 88 106 125
225 291 90 89 108 128
225 291 91 87 107 127
226 288 91 113 120 132
226 289 91 102 114 130
226 290 91 84 104 125
226 291 91 84 105 126
226 288 92 108 118 131
226 289 92 94 110 127
227 288 92 107 117 132
227 288 93 107 118 133
227 289 92 96 111 128
227 289 93 96 111 128
227 289 94 93 108 124
226 290 92 82 103 124
226 290 93 81 102 123
226 291 92 86 106 127
226 291 93 86 106 127
227 290 93 81 101 122
227 291 93 85 104 125
227 290 94 81 99 117
227 291 94 83 102 121
227 291 95 77 95 114
224 292 88 80 102 125
224 292 89 84 106 128
224 293 88 77 100 123
224 293 89 79 103 126
224 292 90 85 107 129
224 293 90 79 103 126
225 292 90 86 107 129
225 292 91 86 108 130
225 293 90 81 105 127
225 293 91 86 108 130
224 294 88 84 105 127
224 294 89 84 106 128
224 295 88 89 108 128
224 295 89 91 109 129
224 294 90 85 106 128
224 295 90 93 110 129
225 294 90 86 107 128
225 294 91 87 108 129
225 295 90 93 111 131
225 295 91 93 111 130
225 293 92 88 110 132
225 294 92 90 110 130
225 295 92 95 112 130
226 292 92 88 109 131
226 292 93 88 108 130
226 293 92 88 109 131
226 293 93 87 108 130
226 293 94 89 110 131
227 292 94 88 107 127
227 292 95 87 104 122
227 293 94 91 110 129
227 293 95 96 111 129
226 294 92 90 110 131
226 294 93 90 110 131
226 295 93 95 111 130
226 294 94 91 111 132
226 295 94 95 112 131
227 294 94 92 111 132
227 294 95 95 113 132
227 295 94 96 112 131
227 295 95 97 113 132
228 288 94 106 117 132
228 288 95 105 115 128
228 289 94 96 109 125
228 289 95 95 107 122
228 290 95 82 97 113
228 291 95 82 99 115
228 292 95 88 103 120
228 293 95 95 109 126
224 298 80 105 117 132
224 298 81 104 117 133
224 299 80 99 113 130
224 299 81 99 114 131
224 299 82 98 114 132
224 296 87 75 96 118
224 297 87 81 100 121
224 299 85 95 113 133
224 298 87 93 111 131
224 299 86 94 112 132
224 299 87 89 110 132
224 300 80 102 115 131
224 300 81 99 114 131
224 301 80 104 116 131
224 301 81 102 115 131
224 300 82 98 113 131
224 302 80 104 115 130
224 302 81 105 116 130
224 303 80 107 118 132
224 303 81 109 119 133
224 300 85 95 112 131
224 300 86 94 111 131
224 300 87 91 110 130
224 301 86 90 107 126
224 301 87 93 108 126
224 296 88 79 99 119
224 296 89 87 103 122
224 297 88 79 99 118
224 297 89 87 103 120
224 296 90 92 107 125
224 297 90 89 104 121
225 296 90 96 111 128
225 296 91 97 111 128
225 297 91 93 106 122
224 298 88 91 110 130
224 298 89 92 109 128
224 299 88 89 110 132
224 299 89 88 109 131
224 298 90 90 106 125
224 298 91 94 109 127
224 299 90 88 109 130
224 299 91 90 109 130
225 298 91 95 108 124
225 299 91 91 109 129
225 296 92 102 114 129
225 296 93 106 115 128
225 297 92 97 108 122
225 297 93 99 107 119
225 298 92 91 104 119
225 298 93 87 99 114
225 299 92 89 107 127
225 299 93 86 104 123
226 296 93 105 115 130
226 297 93 103 110 120
226 296 94 107 116 129
226 297 94 111 113 121
227 296 94 103 114 130
227 296 95 108 116 129
227 297 95 115 115 120
226 298 93 93 101 113
226 299 93 86 103 122
226 298 94 94 98 106
226 298 95 98 98 102
226 299 94 86 100 117
226 299 95 91 99 110
227 298 95 103 100 100
227 299 95 94 99 108
224 300 88 90 109 130
224 300 89 90 110 130
224 301 88 89 107 125
224 301 89 90 108 127
224 300 90 88 109 130
224 300 91 86 108 130
224 301 90 90 109 129
224 301 91 84 106 129
225 300 91 85 107 130
225 301 91 80 104 127
224 302 88 98 111 126
224 302 89 105 116 129
224 302 90 103 115 130
224 302 91 90 108 127
224 303 90 123 126 135
224 303 91 116 122 132
225 300 92 82 106 128
225 300 93 80 104 127
225 301 92 77 103 127
225 301 93 72 102 127
224 302 92 88 106 126
224 303 92 106 115 128
224 303 93 99 110 125
225 302 92 74 100 124
225 302 93 69 98 124
225 303 93 86 104 123
225 302 94 72 100 125
225 302 95 76 103 127
225 303 94 93 109 127
225 303 95 90 108 127
226 300 93 78 102 125
226 300 94 78 101 123
226 300 95 80 99 118
226 301 94 71 101 127
226 301 95 75 101 126
226 302 94 69 100 127
226 302 95 74 102 128
226 303 95 85 106 127
224 304 66 133 133 139
224 304 67 132 132 138
224 305 66 136 136 142
224 305 67 134 135 142
225 304 67 134 134 140
225 305 67 133 134 141
224 306 67 130 134 142
224 307 67 126 131 141
225 306 67 132 134 142
225 304 68 137 137 143
225 304 69 137 137 142
225 305 68 135 136 143
225 305 69 133 135 143
225 304 70 134 135 142
225 304 71 129 131 139
225 305 70 130 133 141
225 305 71 125 129 139
224 306 68 124 130 140
224 307 68 122 129 139
224 307 69 114 123 137
225 306 68 128 132 142
225 306 69 123 129 140
224 307 70 109 120 135
225 306 70 119 126 138
225 306 71 115 124 136
225 307 70 109 120 135
225 307 71 107 119 134
224 308 68 118 126 139
224 308 69 112 123 137
224 309 68 116 126 141
224 309 69 113 124 139
224 308 70 107 120 135
224 308 71 106 119 135
224 309 70 108 121 136
224 309 71 106 120 136
225 308 71 104 118 134
224 310 69 107 120 136
224 310 70 105 118 135
224 310 71 100 116 133
224 311 71 101 117 134
225 304 72 123 128 137
225 304 73 117 123 134
225 305 72 117 125 136
225 305 73 110 120 134
225 304 74 108 118 131
225 304 75 105 116 130
225 305 74 104 116 132
225 305 75 102 115 131
225 306 72 111 121 135
225 306 73 104 117 133
225 307 72 104 117 133
225 307 73 103 116 133
224 307 75 108 120 135
225 306 74 102 116 132
225 306 75 100 114 130
225 307 74 104 117 133
225 307 75 105 118 134
224 304 76 102 115 131
224 304 77 100 114 130
224 305 76 99 113 129
224 305 77 97 111 127
225 304 76 104 116 131
225 305 76 102 115 131
224 304 78 100 113 128
224 304 79 105 116 130
224 305 78 101 112 128
224 305 79 103 114 128
224 306 76 99 112 128
224 306 77 99 112 127
224 307 76 107 119 134
224 307 77 105 116 131
224 306 78 100 112 126
224 306 79 102 112 126
224 307 78 103 114 128
224 307 79 108 117 130
224 309 72 101 116 133
224 309 73 100 114 131
225 308 72 105 118 134
225 308 73 104 117 133
225 309 72 105 118 134
225 309 73 104 117 133
224 308 75 106 119 134
224 309 74 96 111 127
224 309 75 91 107 124
225 308 74 106 119 135
225 308 75 107 120 136
225 309 74 104 117 133
224 310 72 98 115 133
224 310 73 96 112 130
224 311 72 97 114 133
224 311 73 93 112 132
224 310 74 91 108 126
224 310 75 82 100 119
224 311 74 86 106 127
224 311 75 81 102 121
224 308 76 105 117 133
224 308 77 101 114 129
224 309 76 82 99 117
224 309 77 83 98 115
224 308 78 100 111 125
224 308 79 106 115 126
224 309 78 90 102 116
224 309 79 94 100 111
224 310 76 80 95 115
224 310 77 83 95 114
224 311 76 79 97 116
224 311 77 82 95 115
224 310 78 84 94 109
224 310 79 87 89 101
224 312 73 84 106 128
224 312 74 80 104 125
224 312 75 78 101 123
224 312 76 72 96 116
224 304 80 107 117 131
224 304 81 108 118 132
224 305 80 102 111 125
224 306 80 102 110 123
224 306 81 98 107 119
224 307 80 113 119 129
224 308 80 118 122 130
224 309 80 100 100 106
224 304 91 134 134 138
224 304 92 131 131 137
224 304 93 126 128 135
224 305 92 139 135 137
224 305 93 139 136 139
224 304 94 122 125 134
224 305 94 136 135 139
225 304 94 114 121 132
225 304 95 109 119 132
225 305 94 132 134 140
225 305 95 127 130 139
224 306 93 136 132 135
224 307 93 138 136 139
224 306 94 134 132 135
224 306 95 133 131 134
224 307 94 137 134 138
224 307 95 136 134 137
225 306 94 134 133 138
225 306 95 129 129 133
225 307 95 134 131 135
224 308 94 130 128 132
224 308 95 133 132 136
224 309 94 129 127 131
224 309 95 134 131 134
224 310 95 139 136 138
224 311 95 137 134 136
