ply
format ascii 1.0
comment Version 2, Copyright 2017, 8i Labs, Inc.
comment frame_to_world_scale 0.179523
comment frame_to_world_translation -45.2095 7.18301 -54.3561
comment width 1023
element vertex 1276
property float x
property float y
property float z
property uchar red
property uchar green
property uchar blue
end_header
256 512 67 71 82 99
256 513 66 83 97 113
257 512 67 80 95 111
257 513 66 75 93 111
257 513 67 75 93 111
256 514 65 66 87 106
256 515 65 50 78 100
257 514 65 62 85 105
257 515 65 49 78 100
256 514 66 74 92 110
257 514 66 66 88 108
258 512 67 77 95 112
258 513 66 64 88 108
258 513 67 62 86 106
259 513 67 56 81 103
258 515 65 66 88 107
259 515 65 71 90 108
258 514 66 69 91 110
258 515 66 73 92 111
259 514 66 66 89 109
259 515 66 72 92 110
257 512 68 70 85 101
258 512 68 79 96 112
259 512 68 70 88 105
256 516 64 51 79 101
256 516 65 49 78 100
256 517 64 39 73 98
257 516 65 54 81 103
257 517 64 53 81 103
257 518 64 50 78 100
258 516 65 66 86 105
258 517 64 73 93 111
259 516 65 65 85 101
259 517 64 83 101 121
259 517 65 94 104 115
258 518 64 65 89 109
258 519 64 81 99 118
259 518 64 63 87 115
259 519 64 80 98 119
260 513 67 54 80 102
261 513 67 57 83 105
260 514 66 55 77 101
260 514 67 62 84 106
260 515 66 69 90 109
261 514 66 50 72 98
261 514 67 52 77 102
261 515 66 61 84 104
262 513 67 63 87 108
263 513 67 67 89 108
262 514 67 55 81 104
262 515 66 50 81 103
262 515 67 58 86 109
263 514 67 65 85 105
263 515 66 35 76 101
263 515 67 64 89 110
260 512 68 63 83 101
260 513 68 55 78 99
261 512 68 65 84 102
261 512 69 75 90 106
261 513 68 57 80 100
262 512 68 76 89 103
262 512 69 80 91 103
262 513 68 68 87 104
263 512 68 70 84 99
263 512 69 88 95 104
263 513 68 69 88 105
260 516 65 67 84 100
260 517 65 94 107 121
261 516 65 65 84 99
261 517 65 85 102 120
260 516 66 68 85 101
261 516 66 60 81 98
260 518 64 66 91 116
260 519 64 82 102 123
261 518 64 63 89 115
261 518 65 67 92 118
261 519 64 76 99 121
261 519 65 66 92 114
262 517 65 41 75 105
263 517 65 58 84 114
262 516 66 40 73 95
262 517 66 24 69 93
263 516 66 40 69 105
263 517 66 52 79 107
262 518 65 51 80 112
262 519 65 72 96 120
263 518 65 58 86 115
263 519 65 70 94 123
259 520 64 89 110 133
259 521 64 96 120 154
259 522 64 93 120 166
259 523 64 96 118 179
257 527 64 118 130 161
258 525 64 109 129 191
259 524 64 110 130 192
259 525 64 118 135 194
258 526 64 120 131 173
258 527 64 112 129 167
259 526 64 119 130 171
259 527 64 97 118 188
260 520 64 93 116 142
260 521 64 97 122 157
261 520 64 92 115 140
261 521 64 99 123 159
260 522 64 95 121 168
260 523 64 94 118 182
261 522 64 99 123 172
261 523 64 93 118 182
262 520 64 90 112 136
262 520 65 96 116 144
262 521 64 99 123 163
262 521 65 100 121 158
263 520 65 96 115 144
263 521 65 101 123 158
262 522 64 94 119 173
262 522 65 93 120 168
262 523 64 90 117 183
262 523 65 90 117 182
263 522 65 97 123 169
263 523 65 92 121 179
260 524 64 102 126 192
260 525 64 120 132 196
261 524 64 88 119 188
261 525 64 116 127 194
260 526 64 116 133 187
260 527 64 104 124 185
260 527 65 102 125 184
261 526 64 117 134 185
261 526 65 123 142 182
261 527 65 136 155 192
262 524 64 85 118 187
262 524 65 86 120 187
262 525 64 109 122 192
262 525 65 113 127 188
263 524 65 84 117 186
263 525 65 99 125 186
262 526 65 129 148 183
262 527 65 159 174 199
263 526 65 141 159 190
263 527 65 178 188 209
264 513 67 72 90 107
265 513 67 48 74 95
264 514 67 77 92 109
264 515 67 50 84 107
265 514 67 72 91 109
265 515 67 68 93 114
266 513 67 17 53 82
266 514 67 45 74 95
266 515 67 78 97 115
267 514 67 38 69 90
267 515 67 82 98 115
264 512 68 53 74 93
264 512 69 83 94 105
264 513 68 56 79 99
265 512 68 45 66 84
265 512 69 82 92 103
265 513 68 34 60 84
266 512 68 49 68 83
266 512 69 80 91 102
266 513 68 21 47 77
267 512 68 48 67 82
267 512 69 75 87 100
267 513 68 19 47 76
264 517 65 71 95 121
265 517 65 75 99 122
264 516 66 37 69 111
264 517 66 64 89 113
265 516 66 48 80 110
265 517 66 76 98 118
264 518 65 60 90 119
264 519 65 65 95 128
265 518 65 60 91 118
265 519 65 60 91 126
266 516 66 77 96 114
266 517 66 91 107 123
267 516 66 93 106 120
267 517 66 101 114 129
266 518 65 59 91 118
266 519 65 52 86 122
267 519 65 51 86 121
266 518 66 84 105 126
267 518 66 84 106 128
267 519 66 54 89 120
268 514 67 47 67 83
268 515 67 83 100 117
269 514 67 53 74 93
269 515 67 72 94 115
270 514 67 63 84 103
270 515 67 68 90 113
271 515 67 60 84 109
268 512 68 38 67 88
268 512 69 36 66 89
268 513 68 24 54 74
269 512 69 39 66 88
269 513 68 40 66 84
269 514 68 61 81 98
270 512 69 83 92 103
270 513 68 80 91 103
271 512 69 86 93 104
271 513 68 91 97 106
270 514 68 66 84 102
271 514 68 74 90 106
268 516 66 95 110 127
268 516 67 93 109 126
268 517 66 98 114 131
269 516 66 85 105 125
269 516 67 70 97 121
269 517 66 70 97 121
268 518 66 79 102 124
268 519 66 53 87 115
269 518 66 62 90 116
269 519 66 44 80 110
270 516 67 51 83 111
270 517 66 50 81 111
270 517 67 44 78 108
271 516 67 57 83 112
271 517 66 56 81 109
271 517 67 57 83 111
270 518 66 60 87 113
270 519 66 58 86 113
271 518 66 69 92 116
271 519 66 75 99 123
264 520 65 90 114 143
264 521 65 102 125 156
265 520 65 90 111 143
265 521 65 103 124 156
264 522 65 98 125 165
264 523 65 93 122 174
265 522 65 99 123 165
265 523 65 95 122 177
266 520 65 82 103 137
266 521 65 101 119 152
267 520 65 76 99 134
267 521 65 99 115 149
267 521 66 98 114 149
266 522 65 99 121 161
266 523 65 91 118 170
267 522 65 100 120 159
267 523 65 88 117 164
267 522 66 99 118 159
264 524 65 80 116 182
264 525 65 89 121 183
265 524 65 85 118 182
265 525 65 94 120 182
264 526 65 142 161 199
264 527 65 173 185 210
265 526 65 132 149 199
265 527 65 144 163 200
264 527 66 151 170 203
265 526 66 125 146 195
265 527 66 121 147 191
266 524 65 84 115 180
266 525 65 99 121 181
267 524 65 89 119 179
267 525 65 104 128 184
266 526 65 116 137 187
267 526 65 125 151 189
266 526 66 93 128 176
266 527 66 126 150 191
267 526 66 129 152 188
267 527 66 134 158 196
268 520 66 69 95 128
268 521 66 94 111 149
269 520 66 56 85 121
269 521 66 91 108 146
268 522 66 95 113 158
268 523 66 91 113 164
269 522 66 95 112 158
269 523 66 91 112 163
270 520 66 67 92 123
270 521 66 89 109 141
271 520 66 70 97 127
271 521 66 75 101 135
270 522 66 90 109 148
270 523 66 81 104 149
271 522 66 84 107 142
271 523 66 73 93 137
268 524 65 109 132 190
268 525 65 126 148 199
268 524 66 97 122 178
268 525 66 134 153 207
269 524 66 96 119 177
269 525 66 108 132 195
268 526 66 152 168 202
268 527 66 144 164 197
269 526 66 115 137 190
269 527 66 126 147 182
270 524 66 92 111 163
270 525 66 97 116 168
271 524 66 88 106 153
271 525 66 93 111 164
270 526 66 94 114 168
270 527 66 104 125 166
271 526 66 88 110 166
271 527 66 102 121 169
257 528 64 125 136 164
257 529 64 137 146 167
256 530 64 145 152 168
256 531 64 144 162 192
257 530 64 159 169 190
257 531 64 151 156 170
258 528 64 133 157 193
258 529 64 156 179 208
259 528 64 132 155 196
259 528 65 130 155 192
259 529 64 156 175 209
259 529 65 150 161 182
258 530 64 164 178 199
258 530 65 158 168 186
258 531 65 156 161 181
259 530 65 154 158 172
259 531 65 163 177 205
256 532 64 147 169 196
256 533 64 152 171 196
256 533 65 155 175 199
257 532 64 149 167 195
257 532 65 157 175 203
257 533 65 140 161 184
256 534 64 138 160 187
256 534 65 147 162 183
256 535 65 171 176 191
257 534 65 159 167 183
257 535 65 184 186 198
256 535 66 187 186 197
257 535 66 184 181 188
258 532 65 153 163 198
258 533 65 153 155 172
259 532 65 156 168 196
259 533 65 161 162 173
259 533 66 173 173 183
258 534 65 156 165 180
258 534 66 182 183 195
258 535 66 196 191 196
259 534 66 193 191 201
259 535 66 185 182 188
260 528 64 116 143 184
260 528 65 113 140 185
260 529 65 146 161 185
261 528 65 143 163 199
261 529 65 156 173 202
260 530 65 152 163 187
260 531 65 153 163 182
261 530 65 152 168 202
261 530 66 151 165 199
261 531 66 156 165 185
262 528 65 170 183 209
262 529 65 166 177 208
263 528 65 179 187 213
263 529 65 154 167 199
263 529 66 146 157 185
262 530 66 143 156 192
262 531 66 161 165 182
263 530 66 150 155 182
263 531 66 178 175 188
260 532 65 161 169 188
260 532 66 164 167 179
260 533 66 180 179 188
261 532 66 173 174 182
261 533 66 178 176 183
260 534 66 196 191 201
260 535 66 184 181 187
261 534 66 185 181 187
261 535 66 198 191 195
261 535 67 205 196 196
262 532 66 192 189 196
262 533 67 207 199 203
263 532 66 198 191 197
263 532 67 200 193 197
263 533 67 209 200 204
262 534 66 177 174 180
262 534 67 191 185 189
262 535 67 192 184 186
263 534 67 208 197 197
263 535 67 197 187 188
263 535 68 202 190 190
256 536 66 201 196 202
256 537 66 211 201 202
257 536 66 190 185 190
257 537 66 206 197 197
257 537 67 206 196 196
256 538 66 192 187 191
256 538 67 178 176 183
256 539 67 181 178 184
257 538 67 208 198 198
257 539 67 199 192 194
258 536 66 194 187 190
258 537 66 199 191 192
258 537 67 200 191 193
259 536 66 189 183 186
259 536 67 186 179 182
259 537 67 196 188 189
258 538 67 194 186 189
259 538 67 184 178 182
257 539 68 209 199 199
258 538 68 206 196 197
258 539 68 203 194 194
259 539 68 195 186 187
256 540 67 197 190 192
256 540 68 208 198 198
256 541 68 205 195 194
257 540 68 206 196 196
257 541 68 204 193 191
256 542 68 194 184 183
256 543 68 181 173 172
257 542 68 203 191 189
257 543 68 197 186 184
258 540 68 203 193 192
258 541 68 206 194 191
258 541 69 206 194 190
259 540 68 198 187 184
259 540 69 200 187 182
259 541 69 196 184 181
258 542 68 209 196 193
258 542 69 207 194 190
258 543 68 203 191 188
259 542 69 192 183 182
259 543 69 203 191 187
260 536 67 188 182 187
260 537 67 190 184 187
261 536 67 198 191 193
261 537 67 191 185 187
260 538 67 187 181 184
261 538 67 191 183 183
262 536 67 181 175 179
262 537 67 199 189 191
263 536 67 182 176 180
263 537 67 196 185 188
262 538 67 198 188 188
263 538 67 196 186 187
260 538 68 177 170 171
260 539 68 185 177 178
261 538 68 184 175 175
261 539 68 187 177 175
263 536 68 202 189 190
263 537 68 192 184 186
262 538 68 194 185 183
262 539 68 192 182 181
263 538 68 190 180 179
263 539 68 197 188 187
263 539 69 164 153 150
260 540 68 193 182 180
260 540 69 192 179 174
260 541 69 175 164 162
261 540 68 195 183 179
261 540 69 194 181 175
261 541 69 181 169 165
260 542 69 167 158 160
260 543 69 191 179 174
261 542 69 176 163 163
261 543 69 196 181 174
261 543 70 207 191 182
262 540 68 197 184 180
262 540 69 200 186 180
262 541 69 197 183 178
263 540 69 188 175 171
263 540 70 183 169 163
263 541 70 196 181 174
262 542 69 195 181 175
262 543 69 201 185 177
262 542 70 197 182 175
262 543 70 199 183 175
263 542 70 192 178 172
263 543 70 183 171 166
264 528 65 160 171 202
264 529 65 145 158 190
265 528 65 160 175 205
265 529 65 122 145 187
264 528 66 174 185 211
264 529 66 136 151 183
265 528 66 135 155 194
265 529 66 110 132 173
264 530 66 146 151 169
264 531 66 174 170 177
265 530 66 123 133 153
265 531 66 157 154 162
266 528 66 130 153 194
266 529 66 137 155 187
267 528 66 122 150 195
267 529 66 135 155 190
266 530 66 141 154 176
266 531 66 156 156 172
266 531 67 157 157 174
267 530 66 129 143 172
267 531 66 147 151 167
267 531 67 153 155 169
264 532 67 195 188 193
264 533 67 206 197 197
265 532 67 187 177 185
265 533 67 207 195 194
264 534 67 208 196 193
264 535 67 208 195 191
265 534 67 211 199 196
266 532 67 176 170 180
266 533 67 198 187 190
267 532 67 170 166 176
267 533 67 194 183 190
266 534 67 205 195 196
264 535 68 207 194 190
265 534 68 211 197 193
265 535 68 208 195 191
267 533 68 202 188 196
266 534 68 208 198 198
266 535 68 200 192 193
266 535 69 191 187 191
267 534 68 202 193 198
267 535 68 203 194 202
267 535 69 191 185 192
268 528 66 129 153 193
268 529 66 107 133 174
269 528 66 138 157 185
269 529 66 141 156 187
268 530 66 115 125 161
268 531 66 122 131 158
268 531 67 141 147 169
269 530 66 133 137 177
269 531 66 111 125 162
269 531 67 108 124 165
270 528 66 123 144 170
270 529 66 145 160 185
271 528 66 121 138 175
271 529 66 135 151 183
271 529 67 141 157 181
270 530 66 150 159 185
270 530 67 153 162 184
270 531 67 150 157 187
271 530 67 147 160 182
271 531 67 156 164 187
268 532 67 170 167 184
268 533 67 195 184 192
269 532 67 112 130 164
269 533 67 113 138 169
270 532 67 128 145 176
270 533 67 122 152 183
271 532 67 156 165 190
270 534 67 132 153 192
268 533 68 196 186 195
269 533 68 144 154 177
268 534 68 208 197 198
268 535 68 211 199 198
268 535 69 209 196 194
269 534 68 162 167 187
269 535 68 175 176 193
269 535 69 191 185 192
270 533 68 131 152 184
271 532 68 149 159 189
271 533 68 141 155 186
270 534 68 127 151 191
270 535 68 124 148 184
270 535 69 96 127 166
271 534 68 140 156 192
271 535 68 126 147 186
264 536 67 185 178 181
264 537 67 186 178 181
264 536 68 204 192 189
264 537 68 206 193 190
264 537 69 214 198 190
265 536 68 208 194 190
265 536 69 203 191 188
265 537 68 214 199 193
265 537 69 212 197 191
264 538 68 195 184 183
264 538 69 193 179 172
264 539 69 172 160 155
265 538 69 209 195 190
265 539 69 206 190 183
264 539 70 175 161 155
265 539 70 193 176 166
266 536 68 198 188 188
266 536 69 181 178 185
266 537 69 181 176 180
267 536 69 169 168 178
267 537 69 164 160 168
266 538 69 192 181 180
266 539 69 203 188 182
266 538 70 187 177 175
266 539 70 200 184 177
267 538 70 173 164 162
267 539 70 194 179 171
265 540 69 204 186 175
264 540 70 181 168 161
264 541 70 192 177 170
265 540 70 195 179 170
265 541 70 199 182 172
264 542 70 194 180 172
264 543 70 185 171 165
265 542 70 202 184 173
265 543 70 202 184 173
266 540 70 201 184 174
266 541 70 197 180 171
267 540 70 198 181 173
267 541 70 190 176 170
266 542 70 191 176 169
266 543 70 189 174 167
267 542 70 178 166 163
267 543 70 165 154 151
268 536 69 205 191 187
268 537 69 198 184 179
269 536 69 198 188 188
269 537 69 205 192 188
268 537 70 207 190 182
268 538 70 200 183 175
268 539 70 201 183 174
269 538 70 211 196 190
269 539 70 210 194 187
270 536 68 133 149 177
270 536 69 147 155 177
270 537 69 155 158 173
271 536 68 114 138 175
271 536 69 109 134 173
271 537 69 107 128 163
271 538 69 103 121 163
270 538 70 190 183 184
270 539 70 206 192 187
271 538 70 141 148 170
271 539 70 158 159 173
268 540 70 205 186 175
268 541 70 202 185 175
269 540 70 202 186 178
269 541 70 200 184 175
268 542 70 197 181 171
268 543 70 183 168 161
269 542 70 203 185 174
269 543 70 202 184 173
270 540 70 201 187 181
270 541 70 189 177 173
271 540 70 169 169 177
271 541 70 166 167 177
270 542 70 186 173 169
270 543 70 195 182 179
271 542 70 164 162 167
271 542 71 155 156 166
271 543 70 179 170 171
272 515 67 54 81 107
273 515 67 38 70 101
272 512 68 89 94 106
272 512 69 88 94 105
272 513 68 91 98 109
273 512 68 98 104 114
273 512 69 93 99 108
273 513 68 93 102 114
272 514 68 78 91 107
272 515 68 48 74 102
273 514 68 80 93 111
273 515 68 46 72 100
274 512 68 117 120 128
274 512 69 111 114 120
274 513 68 101 109 120
275 512 68 121 123 130
275 512 69 114 117 124
275 513 68 109 116 126
274 514 68 79 94 112
274 515 68 40 74 101
275 514 68 70 87 105
275 515 68 63 85 107
272 516 67 60 86 114
272 517 66 73 92 113
272 517 67 74 93 116
273 516 67 51 80 111
273 517 67 67 86 111
272 518 66 90 106 125
272 519 66 91 110 131
273 518 66 92 108 127
273 518 67 77 96 117
273 519 66 93 110 129
274 516 67 40 73 105
274 517 67 60 80 109
275 516 67 61 88 113
275 517 67 67 87 114
274 518 67 64 85 112
274 519 66 93 110 129
274 519 67 84 102 123
275 518 67 50 75 106
275 519 67 66 90 115
275 516 68 69 93 116
276 512 68 119 122 129
276 512 69 111 115 124
276 513 68 113 117 125
277 512 68 104 109 118
277 512 69 101 107 118
277 513 68 107 113 122
276 514 68 83 96 110
276 515 68 91 103 119
277 514 68 100 109 121
277 515 68 101 111 125
278 512 68 85 98 114
278 512 69 86 97 112
278 513 68 96 107 122
279 512 68 79 97 115
279 512 69 81 96 113
279 513 68 87 103 122
278 514 68 103 113 127
278 515 68 108 116 130
279 514 68 96 110 127
279 515 68 96 109 126
276 516 67 74 94 117
276 517 67 71 91 113
277 516 67 86 103 123
277 517 67 67 89 111
276 518 67 53 78 105
276 519 67 61 87 115
277 518 67 54 81 107
277 519 67 68 93 119
278 517 67 64 89 112
278 518 67 71 96 120
278 519 67 74 98 124
279 518 67 78 100 122
279 519 67 76 100 125
276 516 68 93 107 124
277 516 68 95 108 125
278 516 68 87 103 122
278 517 68 66 90 113
279 516 68 79 98 119
279 517 68 69 93 115
272 520 66 69 97 126
272 521 66 68 97 131
273 520 66 80 103 128
273 521 66 80 102 134
272 522 66 83 106 141
272 523 66 77 99 142
273 522 66 91 112 145
273 523 66 84 106 144
274 520 66 90 109 133
274 520 67 89 108 130
274 521 66 94 111 141
275 520 67 87 106 132
275 521 66 89 109 141
275 521 67 85 106 138
274 522 66 101 120 150
274 523 66 89 110 146
274 523 67 84 104 145
275 522 66 93 113 146
275 522 67 80 103 140
275 523 66 85 107 145
275 523 67 82 101 142
272 524 66 89 106 154
272 525 66 91 108 161
273 524 66 90 107 152
273 525 66 93 113 158
272 526 66 84 108 162
272 527 66 84 110 163
273 526 66 81 109 158
273 527 66 77 104 163
273 527 67 80 105 163
274 524 66 96 111 154
274 524 67 97 111 153
274 525 66 96 116 156
275 524 66 109 121 156
275 524 67 98 112 151
275 525 66 102 118 154
275 525 67 99 117 155
274 526 66 81 111 156
274 526 67 75 108 156
274 527 67 76 105 159
275 526 67 87 111 156
275 527 67 74 102 157
276 520 67 84 103 133
276 521 67 78 101 136
277 520 67 74 97 128
277 521 67 68 94 131
276 522 67 79 102 141
276 523 67 85 103 144
277 522 67 73 98 138
277 523 67 85 106 143
278 520 67 74 99 124
278 521 67 75 100 133
279 520 67 75 101 129
279 521 67 89 111 141
278 522 67 64 95 135
278 523 67 72 101 137
279 522 67 75 105 138
279 523 67 73 105 138
276 524 67 103 117 149
276 525 67 101 117 152
277 524 67 96 114 144
277 525 67 102 119 152
276 526 67 88 111 154
276 527 67 78 105 157
277 526 67 89 113 155
277 527 67 77 106 159
278 524 67 92 110 141
278 525 67 100 117 152
279 524 67 88 108 144
279 525 67 100 118 153
278 526 67 88 113 156
278 527 67 78 107 160
279 526 67 91 115 155
279 527 67 80 110 159
279 527 68 77 106 159
280 512 68 88 103 121
280 512 69 90 103 118
280 513 68 88 105 123
281 512 69 98 109 124
281 513 68 93 109 126
280 514 68 86 104 124
280 515 68 81 98 121
281 514 68 87 103 122
281 515 68 81 98 120
282 512 69 105 111 123
282 513 68 98 111 125
282 513 69 102 113 127
283 512 69 114 116 123
283 513 69 111 117 128
282 514 68 90 106 123
282 515 68 82 100 120
283 514 68 91 106 123
283 514 69 93 107 123
283 515 68 79 98 118
280 518 67 75 97 120
280 519 67 79 101 126
281 519 67 74 97 123
280 516 68 66 90 115
280 517 68 70 93 116
281 516 68 65 91 116
281 517 68 72 95 120
280 518 68 68 91 115
281 518 68 68 92 117
281 519 68 77 97 122
282 516 68 74 97 120
282 517 68 71 94 118
283 516 68 89 106 126
283 517 68 88 104 124
282 518 68 72 94 118
282 519 68 80 100 126
283 518 68 82 101 122
283 519 68 84 105 129
284 512 69 125 125 130
284 513 69 114 119 129
285 512 69 124 126 132
285 513 69 109 115 126
284 514 69 91 102 118
284 515 68 83 95 118
284 515 69 79 93 113
285 514 69 95 103 116
285 515 69 90 100 116
286 512 69 113 118 127
286 513 69 109 114 123
287 512 69 87 96 109
287 513 69 103 108 118
287 512 70 74 89 106
286 514 69 103 110 120
286 515 69 103 109 120
287 514 69 115 121 131
287 515 69 116 119 128
284 516 68 80 97 119
284 517 68 96 111 129
285 516 68 64 86 107
285 516 69 81 97 114
285 517 68 78 97 116
284 518 68 102 116 135
284 519 68 93 110 131
285 518 68 101 114 132
285 519 68 101 115 134
286 516 69 65 83 102
286 517 68 57 79 103
286 517 69 54 76 100
287 516 69 93 103 117
287 517 69 66 84 105
286 518 68 78 96 120
286 519 68 100 113 133
287 518 69 57 76 102
287 519 68 89 103 125
287 519 69 75 93 115
280 520 67 67 94 125
280 521 67 89 113 140
281 520 67 70 94 124
281 521 67 84 109 136
280 522 67 97 120 147
280 523 67 78 107 141
281 522 67 89 115 143
281 523 67 81 108 144
282 520 67 70 95 127
282 521 67 72 99 131
283 520 67 75 100 132
283 521 67 61 94 128
282 522 67 86 111 142
282 523 67 81 107 144
283 522 67 68 101 136
282 520 68 65 91 122
283 520 68 70 97 126
283 521 68 57 90 126
283 522 68 64 96 134
283 523 68 63 94 134
280 524 67 88 107 146
280 525 67 104 117 152
281 524 67 88 103 145
281 525 67 108 116 149
280 526 67 99 117 155
282 524 67 87 102 144
280 527 68 83 109 157
281 526 68 102 117 153
281 527 68 83 108 156
282 524 68 86 101 142
282 525 68 110 119 148
283 524 68 82 98 137
283 525 68 107 119 145
282 526 68 105 121 152
282 527 68 84 112 155
283 526 68 105 123 151
283 527 68 89 115 154
284 520 68 75 100 126
284 521 68 54 87 125
285 520 68 83 106 130
285 521 68 54 90 127
284 522 68 58 89 130
284 523 68 56 87 129
285 522 68 63 97 134
285 523 68 63 98 135
286 520 68 98 115 136
286 521 68 79 106 134
287 520 68 108 121 139
287 520 69 108 120 136
287 521 68 100 116 137
287 521 69 111 123 140
286 522 68 82 108 138
286 523 68 87 114 142
287 522 68 96 114 137
287 522 69 108 121 140
287 523 68 94 117 142
287 523 69 90 115 141
284 524 68 71 92 134
284 525 68 99 116 147
285 524 68 72 100 138
285 525 68 96 115 146
284 526 68 104 124 152
284 527 68 93 116 156
285 526 68 105 124 152
285 527 68 99 120 157
286 524 68 75 106 140
286 525 68 88 111 145
287 524 68 83 112 144
287 524 69 74 105 141
287 525 68 87 109 145
287 525 69 90 109 145
286 526 68 103 121 150
286 527 68 104 122 156
286 527 69 103 122 156
287 526 68 105 117 151
287 526 69 105 116 151
287 527 69 107 122 155
272 528 66 106 124 171
272 529 66 124 139 178
272 529 67 133 146 179
273 528 66 92 112 167
273 528 67 97 114 170
273 529 67 117 132 173
272 530 67 155 166 189
272 531 67 158 170 190
273 530 67 133 150 180
273 531 67 144 159 183
274 528 67 95 113 168
274 529 67 111 125 174
275 528 67 89 110 163
275 529 67 109 123 171
274 530 67 113 133 177
274 531 67 115 140 180
275 530 67 107 126 174
275 531 67 104 129 176
273 531 68 133 151 179
274 531 68 123 146 181
275 531 68 87 122 171
272 532 67 160 172 193
273 532 67 140 156 182
274 532 67 124 145 176
272 532 68 159 171 194
272 533 68 152 167 193
273 532 68 139 156 182
273 533 68 155 170 193
272 534 68 149 165 192
272 535 68 147 164 196
272 535 69 150 166 197
273 534 68 158 172 195
273 535 68 157 171 194
273 535 69 161 175 198
274 532 68 120 146 178
274 533 68 138 159 190
275 532 68 106 138 180
275 533 68 130 156 192
274 534 68 150 166 191
274 535 69 157 172 194
275 534 68 130 151 189
275 534 69 121 145 184
275 535 68 137 156 185
275 535 69 131 154 186
276 528 67 89 108 160
276 529 67 109 123 166
277 528 67 89 109 159
276 530 67 106 124 174
278 528 67 81 105 160
276 529 68 114 128 167
277 528 68 105 118 160
277 529 68 115 125 163
276 530 68 107 126 173
276 531 68 81 113 173
277 530 68 106 123 174
277 531 68 75 109 175
278 528 68 98 114 160
278 529 68 114 125 164
279 528 68 89 110 160
279 529 68 113 127 165
278 530 68 106 123 174
278 531 68 65 105 173
279 530 68 107 123 175
279 531 68 79 111 174
276 532 68 96 129 180
276 533 68 119 146 189
277 532 68 86 122 181
277 533 68 94 126 182
277 533 69 88 123 184
276 534 68 132 159 198
276 534 69 125 147 191
276 535 69 114 144 184
277 534 69 120 145 191
277 535 69 117 145 187
278 532 68 79 117 181
278 533 68 88 121 182
278 533 69 96 127 179
279 532 68 71 109 177
279 533 68 90 121 188
279 533 69 89 120 181
278 534 69 93 127 184
278 535 69 115 145 190
279 534 69 92 124 188
279 535 69 99 136 189
272 536 69 132 152 187
272 537 69 122 140 183
273 536 69 162 171 196
273 537 69 158 165 197
272 538 69 116 130 178
273 538 69 146 161 196
272 538 70 110 127 171
272 539 70 111 134 168
273 538 70 151 160 198
273 539 70 141 161 190
274 536 69 156 174 200
274 537 69 149 165 200
275 536 69 141 164 197
275 537 69 131 157 201
275 537 70 130 156 190
274 538 69 144 162 199
275 538 69 123 148 186
274 538 70 147 165 199
274 539 70 145 168 197
275 538 70 127 151 186
275 539 70 129 152 183
272 540 70 133 154 177
272 541 70 146 158 179
273 540 70 136 159 184
273 541 70 144 161 183
273 541 71 146 159 178
272 542 71 159 162 176
272 543 70 180 175 181
272 543 71 180 174 177
273 542 71 149 155 167
273 543 71 169 165 170
274 540 70 146 167 191
274 541 70 148 165 186
274 541 71 149 163 187
275 540 70 139 161 188
275 541 70 140 159 183
275 541 71 146 165 197
274 542 71 154 162 176
274 543 71 145 151 166
275 542 71 142 158 179
275 543 71 132 152 176
276 536 69 106 143 181
276 537 69 131 158 192
277 536 69 96 133 177
277 537 69 116 147 187
276 537 70 123 150 178
277 537 70 128 155 189
276 538 70 137 153 187
276 539 70 131 149 187
277 538 70 130 154 191
277 539 70 131 155 191
278 536 69 122 151 194
279 536 69 90 134 183
278 536 70 124 153 195
278 537 70 128 156 199
279 536 70 96 137 186
279 537 70 123 158 196
278 538 70 122 152 194
278 539 70 124 154 192
278 539 71 125 155 192
279 538 70 117 153 197
279 539 71 112 146 191
276 540 70 135 157 191
276 540 71 145 164 190
276 541 71 135 158 189
277 540 70 143 164 196
277 540 71 154 171 195
277 541 71 153 169 195
276 542 71 145 162 183
276 543 71 134 153 175
277 542 71 166 174 191
278 540 71 153 169 193
278 541 71 169 178 195
279 540 71 137 156 191
279 541 71 150 163 192
278 542 71 169 175 192
274 543 72 140 143 154
275 543 72 111 132 155
276 542 72 140 157 177
276 543 72 135 152 176
277 542 72 152 162 184
277 543 72 141 154 177
278 542 72 151 158 183
278 543 72 130 147 173
279 542 72 126 143 175
279 543 72 115 140 173
280 528 68 81 107 158
280 529 68 108 122 164
281 528 68 81 106 159
281 529 68 114 125 169
280 530 68 110 125 174
280 531 68 80 108 172
281 530 68 114 128 175
281 531 68 88 110 172
281 531 69 86 112 172
282 528 68 82 106 162
282 529 68 116 125 172
283 528 68 85 107 162
283 529 68 115 126 171
282 530 68 118 131 175
282 531 68 105 126 174
282 531 69 99 125 174
283 530 68 124 134 175
283 530 69 107 124 165
283 531 69 105 126 177
280 532 68 44 89 163
280 532 69 49 96 171
280 533 69 80 112 177
281 532 69 47 84 161
281 533 69 74 106 169
280 534 69 71 106 182
280 535 69 82 120 181
281 534 69 68 102 179
281 535 69 50 88 174
281 535 70 76 108 176
282 532 69 75 111 172
282 533 69 87 121 178
283 532 69 88 121 175
283 533 69 90 128 184
283 533 70 81 122 187
282 534 69 78 116 186
282 534 70 77 114 183
282 535 70 82 114 177
283 534 70 87 119 179
283 535 70 82 115 177
284 528 68 87 107 163
284 529 68 103 119 168
284 529 69 117 130 173
285 528 68 86 108 162
285 528 69 85 105 163
285 529 69 103 119 169
284 530 69 116 130 173
284 531 69 107 127 180
285 530 69 109 125 169
285 531 69 111 128 180
286 528 68 89 113 158
286 528 69 88 110 161
286 529 69 103 119 169
287 528 69 91 115 162
287 529 69 105 121 171
286 530 69 114 128 170
286 531 69 116 130 178
287 530 69 122 133 175
286 531 70 95 117 170
287 530 70 116 130 173
287 531 70 108 126 173
284 532 69 89 122 178
284 533 69 94 129 179
285 532 69 93 118 182
284 532 70 79 120 179
284 533 70 85 126 188
285 532 70 78 112 178
285 533 70 86 122 188
284 534 70 89 124 185
284 535 70 76 116 186
284 535 71 71 111 194
285 534 70 101 133 188
285 535 71 67 117 190
286 532 70 81 112 175
286 533 70 80 117 185
287 532 70 83 111 181
287 533 70 86 117 187
287 533 71 91 120 186
286 534 70 108 134 188
286 534 71 105 132 184
286 535 71 77 118 190
287 534 71 105 128 184
287 535 71 77 116 191
280 536 70 85 125 180
280 537 70 116 156 195
281 536 70 53 105 167
281 537 70 88 137 183
280 538 70 127 162 202
280 538 71 126 162 204
280 539 71 114 151 194
281 538 70 113 152 196
281 538 71 109 149 198
281 539 71 114 149 196
282 536 70 56 103 171
282 537 70 66 113 177
282 537 71 71 116 183
283 536 70 34 72 161
283 537 70 13 73 160
283 537 71 89 124 178
282 538 70 95 138 190
282 538 71 64 117 187
282 539 71 81 130 191
283 538 71 82 132 192
283 539 71 94 145 197
280 540 71 129 153 194
280 541 71 138 156 196
281 540 71 126 153 195
281 541 71 139 159 200
282 540 71 121 152 197
283 540 71 120 156 200
284 536 70 64 96 177
284 536 71 77 107 191
284 537 71 94 128 183
285 536 71 64 106 193
285 537 71 53 96 170
284 538 71 83 136 189
284 539 71 109 151 196
285 538 71 46 110 170
286 536 71 78 114 193
286 537 71 83 119 184
287 536 71 88 124 190
287 537 71 101 134 191
280 541 72 131 149 191
281 541 72 136 159 198
280 542 72 119 141 182
280 543 72 105 135 175
281 542 72 122 149 188
281 543 72 113 142 182
282 540 72 123 155 200
282 541 72 132 157 200
283 540 72 119 157 201
283 541 72 131 161 203
282 542 72 123 151 192
282 543 72 126 153 192
282 543 73 122 150 192
283 542 72 122 149 195
283 542 73 114 141 192
283 543 73 124 153 194
284 539 72 113 152 195
285 538 72 79 122 178
285 539 72 115 151 195
286 537 72 44 96 171
287 536 72 59 111 194
287 537 72 63 112 180
286 538 72 88 127 179
286 539 72 130 157 201
287 538 72 113 144 188
287 539 72 135 161 205
284 540 72 120 158 202
284 541 72 128 161 204
285 540 72 125 158 202
285 541 72 128 161 202
285 541 73 122 156 200
284 542 73 122 151 199
284 543 73 117 148 192
285 542 73 125 154 200
285 543 73 107 142 189
285 543 74 95 132 180
286 540 72 127 157 201
286 540 73 125 157 199
286 541 73 116 150 197
287 540 73 123 155 200
287 541 73 114 147 195
286 542 73 121 152 197
287 542 73 119 151 196
286 543 74 101 137 183
287 542 74 117 148 193
287 543 74 120 149 192
