ply
format ascii 1.0
comment Version 2, Copyright 2017, 8i Labs, Inc.
comment frame_to_world_scale 0.179523
comment frame_to_world_translation -45.2095 7.18301 -54.3561
comment width 1023
element vertex 959
property float x
property float y
property float z
property uchar red
property uchar green
property uchar blue
end_header
256 672 99 78 116 149
256 673 99 82 122 155
257 672 99 79 117 148
257 673 99 81 119 152
256 674 99 81 122 156
256 675 99 78 117 149
257 674 99 82 120 152
257 675 99 71 104 136
258 672 99 71 108 140
258 673 99 72 110 142
258 674 99 82 115 144
258 675 99 70 100 129
259 674 99 83 113 140
259 675 99 71 99 123
257 672 100 79 116 147
258 672 100 73 109 140
258 673 100 65 103 135
259 672 100 72 106 137
259 673 100 69 105 135
259 674 100 80 109 135
256 676 99 73 107 137
256 677 99 74 108 137
257 676 99 71 101 131
257 677 99 76 111 140
256 678 98 73 107 136
256 678 99 74 109 138
256 679 98 73 107 137
257 678 99 74 111 141
257 679 98 71 109 139
257 679 99 71 110 140
258 676 99 72 103 131
258 677 99 80 113 140
259 676 99 76 98 120
259 677 99 81 99 116
258 678 99 74 109 138
258 679 99 68 104 131
259 678 99 77 86 103
259 679 99 79 74 92
260 675 99 79 88 107
260 672 100 75 110 138
260 673 100 74 102 125
261 672 100 77 105 130
261 673 100 76 92 113
260 674 100 83 98 116
260 675 100 84 84 103
261 674 100 87 85 104
261 675 100 90 76 93
262 672 100 82 91 111
262 673 100 83 77 95
263 672 100 103 52 59
263 673 100 97 45 50
262 674 100 89 65 82
262 675 100 100 57 73
263 674 100 96 54 56
263 675 100 100 62 67
260 676 99 86 74 90
260 677 99 90 65 74
261 676 99 94 60 71
261 677 99 96 53 57
260 678 99 91 54 57
260 679 99 91 47 50
261 678 99 99 57 59
261 679 99 101 65 69
262 676 99 100 53 54
262 677 99 107 68 67
263 677 99 122 105 103
262 678 99 112 85 82
262 679 99 116 97 97
263 678 99 133 122 120
263 679 99 139 133 133
261 676 100 94 62 76
262 676 100 101 53 61
263 676 100 107 80 80
256 680 98 75 108 136
256 681 98 74 108 137
257 680 98 75 109 137
257 681 98 73 104 130
256 683 97 71 108 138
257 683 97 66 101 130
256 682 98 72 108 138
257 682 98 66 98 124
257 683 98 60 93 120
258 680 98 80 102 123
258 680 99 73 100 124
258 681 98 75 90 107
259 680 98 90 75 87
259 680 99 85 71 88
259 681 98 88 68 75
258 682 98 65 77 96
258 683 98 57 83 107
259 682 98 83 57 68
259 683 98 74 83 101
256 684 97 73 111 141
256 685 97 72 109 140
257 684 97 72 109 138
257 685 97 71 110 140
256 686 97 72 108 139
256 687 97 84 114 141
257 686 97 66 106 136
257 687 97 75 107 136
258 684 97 76 111 139
258 685 97 71 110 141
259 684 97 77 111 139
259 685 97 76 112 142
258 684 98 67 101 128
259 684 98 75 101 125
258 686 97 67 107 138
258 687 97 76 109 138
259 686 97 69 108 140
259 687 97 65 104 135
260 680 98 99 67 72
260 680 99 94 60 61
260 681 98 99 74 75
261 680 99 103 83 85
261 681 98 102 95 98
261 681 99 112 104 108
260 682 98 93 71 75
260 683 98 82 82 92
261 682 98 102 96 103
261 683 98 107 109 118
262 680 99 122 112 114
262 681 98 126 124 128
262 681 99 125 121 124
263 680 99 138 134 136
263 681 98 135 134 138
263 681 99 135 135 139
262 682 98 124 124 130
262 683 98 130 133 140
263 682 98 136 137 144
263 683 98 137 139 147
260 685 97 87 116 141
261 685 97 114 130 148
260 684 98 86 102 123
261 684 98 113 122 135
261 685 98 114 128 144
260 686 97 82 115 144
260 687 97 79 112 140
261 686 97 108 127 147
261 687 97 105 123 143
262 685 97 128 136 148
263 685 97 138 143 153
262 684 98 135 139 149
262 685 98 134 140 151
263 684 98 138 142 152
263 685 98 139 144 155
262 686 97 119 130 144
262 687 97 117 128 142
263 686 97 133 139 151
263 687 97 125 132 144
264 672 100 113 52 58
264 673 100 105 66 64
265 672 100 123 113 115
265 672 101 113 91 92
265 673 100 128 124 127
264 674 100 108 90 90
264 675 100 111 102 103
265 674 100 135 133 137
265 675 100 136 136 140
266 672 100 133 133 136
266 672 101 132 132 135
266 673 100 139 139 144
267 672 101 127 126 129
267 673 100 132 132 136
267 673 101 125 125 130
266 674 100 145 145 150
266 675 100 143 144 150
267 674 100 135 136 142
267 675 100 134 137 146
264 677 99 139 136 139
265 677 99 137 135 139
264 678 99 143 140 143
264 679 99 142 140 145
265 678 99 142 140 144
265 679 99 148 145 149
266 677 99 140 138 143
267 677 99 132 133 141
266 678 99 140 138 143
266 679 99 140 139 144
267 678 99 132 133 140
267 679 99 138 137 143
264 676 100 124 121 124
265 676 100 135 134 139
266 676 100 143 141 147
267 676 100 131 134 143
267 677 100 128 131 139
268 672 101 126 125 130
268 673 100 125 124 129
268 673 101 125 125 130
269 672 101 129 127 130
269 673 101 130 129 134
268 674 100 126 126 132
268 675 100 125 127 134
269 674 100 132 131 137
269 674 101 132 131 136
269 675 100 129 130 138
270 672 101 127 126 130
270 673 101 128 129 134
271 672 101 116 120 128
271 673 101 107 116 129
271 672 102 109 115 126
270 674 101 126 129 137
270 675 100 123 127 138
271 674 101 102 114 129
271 675 100 107 118 133
271 675 101 100 114 131
268 678 99 126 129 137
268 679 99 139 139 145
269 678 99 126 129 138
269 679 99 130 132 140
270 679 99 125 128 136
271 679 99 128 129 135
268 676 100 123 126 136
268 677 100 124 127 136
269 676 100 124 126 135
269 677 100 121 124 132
268 678 100 124 127 136
269 678 100 123 125 134
270 676 100 124 127 136
270 677 100 126 127 133
271 676 100 116 124 136
271 677 100 128 130 137
270 678 100 122 124 132
271 678 100 128 129 135
271 679 100 130 130 136
264 680 99 140 139 145
264 681 99 134 135 143
265 680 99 147 144 148
265 681 99 135 136 144
264 682 98 126 131 141
264 683 98 127 135 147
265 682 98 120 126 138
265 682 99 122 126 137
265 683 98 114 125 140
266 680 99 140 138 142
266 681 99 126 128 137
267 680 99 132 131 137
267 681 99 117 119 128
266 682 98 113 120 132
266 682 99 116 121 133
266 683 98 110 121 136
267 682 98 111 117 129
267 682 99 105 110 120
267 683 98 112 117 129
264 685 97 128 138 153
264 684 98 132 140 153
264 685 98 131 140 154
265 684 98 124 134 149
265 685 98 120 133 149
264 686 97 134 142 154
264 687 97 133 139 150
265 686 97 122 134 149
265 687 97 129 136 148
264 686 98 129 138 152
266 684 98 109 124 141
266 685 98 112 126 143
267 684 98 115 126 142
267 685 98 105 120 138
266 686 97 118 130 146
266 687 97 122 131 145
267 686 97 110 120 136
267 687 97 113 126 142
267 686 98 102 112 131
268 680 99 136 134 140
268 681 99 120 121 129
269 680 99 134 133 139
269 681 99 129 128 134
268 682 99 103 101 107
268 683 98 108 95 99
269 682 99 125 116 118
269 683 98 116 92 90
270 680 99 133 133 139
270 681 99 136 133 137
271 680 99 132 132 136
271 681 99 135 133 137
270 682 99 137 131 132
270 683 98 117 92 88
270 683 99 126 113 111
271 682 99 136 135 139
271 683 98 115 98 97
271 683 99 128 122 123
268 684 98 125 126 133
268 685 98 117 127 140
269 684 98 130 118 118
269 685 98 133 136 144
268 687 97 107 119 136
269 686 97 118 118 133
269 687 97 115 117 132
268 686 98 105 109 127
269 686 98 127 133 145
270 684 98 124 104 102
270 685 98 135 133 137
271 684 98 110 90 88
271 685 98 127 122 125
270 686 97 129 132 143
270 687 97 122 121 135
271 687 97 125 128 139
270 686 98 137 140 149
271 686 98 133 136 144
256 688 96 119 133 150
256 688 97 101 123 145
256 689 96 128 138 152
257 688 96 128 138 153
257 688 97 110 127 146
257 689 96 134 141 152
256 690 96 124 135 150
256 691 96 115 129 146
257 690 96 134 140 152
257 691 96 128 136 149
258 688 97 107 125 146
258 689 96 131 138 151
258 689 97 127 137 151
259 688 97 87 115 140
259 689 96 128 139 153
259 689 97 119 133 149
258 690 96 133 139 151
258 691 96 131 138 151
259 690 96 132 140 153
259 691 96 131 139 152
256 692 96 109 126 144
257 692 96 120 132 147
257 693 96 117 129 145
258 692 96 125 135 149
258 693 96 119 130 145
259 692 96 125 135 150
259 693 96 120 132 147
259 694 96 115 128 144
260 688 97 94 118 141
260 689 97 123 135 150
261 688 97 111 126 144
261 689 97 124 134 148
260 690 96 131 140 153
260 691 96 130 138 150
261 690 96 133 140 151
261 691 96 132 138 149
262 688 97 123 133 147
262 689 97 127 136 147
263 688 97 122 131 143
263 689 97 124 132 146
262 690 96 131 137 149
262 691 96 133 138 149
263 690 96 127 135 148
263 690 97 127 135 148
263 691 96 129 137 149
260 692 96 126 136 150
260 693 96 123 135 150
261 692 96 128 136 149
261 693 96 128 137 151
260 694 96 117 130 146
261 694 96 123 134 149
262 692 96 131 137 148
262 693 96 130 138 150
263 692 96 132 138 149
263 693 96 129 136 147
262 694 96 128 137 150
263 694 96 127 136 149
263 695 96 126 135 149
264 688 97 128 134 146
264 689 97 120 128 141
265 688 97 130 135 145
265 689 97 126 132 144
264 690 96 121 130 143
264 690 97 120 129 143
264 691 96 125 134 148
265 690 96 122 131 143
265 690 97 123 131 143
265 691 96 123 132 146
266 688 97 127 133 144
266 689 97 126 133 144
267 688 97 115 128 145
267 689 97 121 131 144
266 690 96 125 132 144
266 690 97 126 133 144
266 691 96 126 134 147
267 690 96 120 129 141
267 690 97 119 128 141
267 691 96 121 129 142
264 692 96 128 136 149
264 693 96 126 134 147
265 692 96 123 133 147
265 693 96 121 132 146
264 694 96 124 134 147
264 695 96 122 132 146
265 694 96 121 132 146
265 695 96 122 132 147
266 692 96 123 133 146
266 693 96 120 130 145
267 692 96 123 132 145
267 693 96 125 134 147
266 694 96 119 130 145
266 695 96 120 131 146
267 694 96 122 133 147
267 695 96 119 131 146
268 688 97 103 122 141
268 689 97 105 122 141
269 688 97 113 127 144
269 689 97 108 124 142
268 690 96 110 124 141
268 690 97 111 125 141
268 691 96 114 126 141
269 690 96 104 121 139
269 690 97 110 125 142
269 691 96 108 123 140
270 688 97 125 134 148
270 689 97 120 131 147
271 688 97 127 130 142
271 689 97 125 135 149
270 690 96 111 127 144
270 690 97 117 131 147
270 691 96 113 128 145
271 690 97 121 134 150
271 691 96 116 130 148
271 691 97 117 132 150
268 692 96 117 128 142
268 693 96 119 130 144
269 692 96 114 126 142
269 693 96 117 128 143
268 694 96 119 130 145
268 695 96 122 133 148
269 694 96 117 129 143
269 695 96 115 127 142
270 692 96 116 128 144
270 693 96 118 129 144
271 692 96 118 131 147
271 693 96 120 131 145
270 694 96 118 128 142
270 695 96 112 122 136
271 694 96 122 131 143
271 695 96 119 126 136
269 696 96 111 124 139
270 696 96 100 112 125
271 696 96 112 117 127
272 673 101 89 106 127
273 673 101 91 108 128
272 672 102 95 109 127
272 673 102 90 107 127
273 672 102 91 108 127
273 673 102 96 111 130
272 674 101 87 106 128
272 675 101 93 110 130
273 674 101 95 111 131
273 675 101 95 111 130
274 672 102 95 110 128
274 673 102 104 118 135
275 672 102 101 113 128
275 673 102 100 113 129
274 674 101 102 116 135
274 675 101 101 115 132
275 675 101 97 112 131
274 674 102 102 117 134
275 674 102 103 117 133
275 675 102 94 110 129
272 679 99 128 129 135
273 679 99 123 125 132
272 676 100 114 121 133
272 676 101 111 119 132
272 677 100 129 130 137
273 676 100 115 121 131
273 676 101 108 117 130
273 677 100 123 125 132
272 678 100 131 130 135
272 679 100 129 129 135
273 678 100 125 125 131
273 679 100 123 125 132
274 676 101 108 117 130
274 677 100 115 120 130
274 677 101 113 119 129
275 676 101 105 116 131
275 677 100 116 122 131
275 677 101 115 121 132
274 678 100 112 116 124
274 679 100 120 123 132
275 678 100 115 120 129
275 679 100 121 125 134
276 672 102 98 111 126
276 672 103 99 110 125
276 673 102 100 112 127
277 672 103 100 111 126
277 673 102 99 111 126
276 675 101 88 105 125
276 674 102 100 114 130
276 675 102 91 107 126
277 674 102 100 112 127
277 675 102 93 108 126
278 672 103 101 112 127
278 673 102 104 114 127
278 673 103 103 114 128
279 672 103 105 115 129
279 673 103 108 117 131
278 674 102 105 115 127
278 675 102 97 110 126
279 674 102 111 118 130
279 674 103 111 119 131
279 675 102 107 116 129
276 676 101 99 112 130
276 677 101 115 123 135
277 676 101 98 111 128
277 677 101 115 122 133
277 676 102 91 107 126
276 678 100 123 127 137
276 678 101 124 128 137
276 679 100 127 130 138
277 678 101 125 128 137
277 679 100 128 132 139
278 676 101 99 113 130
278 677 101 113 120 131
279 676 101 100 112 128
279 677 101 110 118 131
278 676 102 91 108 127
279 676 102 94 108 125
278 678 101 122 125 133
278 679 100 118 125 136
278 679 101 118 124 134
279 678 101 121 125 135
279 679 100 111 120 134
279 679 101 119 125 137
272 680 99 125 125 132
272 681 99 128 128 133
273 680 99 118 121 129
273 681 99 121 123 130
272 682 99 136 135 140
272 683 98 118 111 111
272 683 99 133 129 132
273 682 99 134 134 140
273 683 98 127 123 125
273 683 99 137 135 139
274 680 99 113 118 127
274 681 99 120 124 133
275 681 99 116 123 134
274 682 99 133 136 145
274 683 98 134 133 139
274 683 99 135 137 145
275 682 99 124 130 141
275 683 99 130 135 144
274 680 100 117 121 130
275 680 100 116 121 131
272 684 98 106 94 95
272 685 98 116 107 114
273 684 98 107 98 100
273 685 98 109 98 106
272 687 97 126 133 144
272 686 98 133 133 140
272 687 98 131 137 148
273 686 98 128 128 135
273 687 98 132 138 149
274 684 98 118 116 121
274 685 98 114 111 116
275 684 98 126 130 139
275 684 99 127 132 142
275 685 98 127 132 141
274 686 98 126 127 134
274 687 98 131 137 147
275 686 98 128 133 143
275 687 98 128 134 144
276 681 99 115 123 134
276 682 99 116 123 134
276 683 99 122 127 137
277 682 99 119 125 137
277 683 99 119 125 136
278 682 99 120 128 140
278 683 99 120 127 138
279 683 99 117 127 141
276 680 100 121 127 137
276 681 100 118 125 136
277 680 100 128 133 144
277 681 100 124 129 140
278 680 100 119 129 143
278 681 100 124 132 144
279 680 100 105 119 135
279 681 100 107 121 137
278 682 100 121 129 142
279 682 100 111 124 141
279 683 100 111 126 143
276 684 99 122 128 139
276 685 98 123 130 142
276 685 99 119 127 139
277 684 99 118 125 136
277 685 99 116 124 136
276 686 98 123 130 141
276 687 98 125 131 143
277 686 98 118 126 139
277 686 99 115 124 136
277 687 98 121 129 141
278 684 99 119 125 135
278 685 99 114 122 133
279 684 99 121 128 139
279 685 99 118 125 136
278 686 98 114 123 135
278 686 99 113 122 134
278 687 98 117 125 137
279 686 99 115 124 135
279 687 98 114 123 135
279 687 99 112 122 135
280 672 103 101 112 127
280 673 103 107 116 129
281 673 103 105 114 128
280 674 103 112 119 131
280 675 102 111 119 131
281 674 103 111 118 129
281 675 102 110 118 131
281 675 103 114 121 132
282 674 103 106 115 127
282 675 103 115 121 131
283 674 103 104 113 126
283 675 103 111 117 127
280 677 101 109 118 131
280 676 102 94 109 128
280 677 102 102 114 131
281 676 102 97 112 130
281 677 102 102 115 132
280 678 101 120 124 133
280 679 101 121 126 136
281 678 101 116 121 131
281 679 101 124 126 134
282 676 102 100 113 129
282 676 103 111 119 132
282 677 102 101 114 132
283 676 102 96 111 128
283 676 103 106 116 130
283 677 102 92 109 128
282 678 101 109 118 130
282 679 101 119 124 134
283 679 101 107 117 130
282 678 102 106 117 132
283 678 102 96 111 128
283 679 102 93 108 126
284 675 103 108 115 126
285 675 103 105 112 123
286 675 103 102 110 121
284 676 103 105 115 129
284 677 102 83 102 122
285 676 103 102 112 126
285 677 102 76 98 120
285 677 103 86 102 122
284 679 101 91 107 124
284 678 102 80 101 122
284 679 102 86 104 124
285 678 102 72 96 119
285 679 102 75 98 121
286 676 103 97 108 121
286 677 103 81 99 118
287 676 103 95 107 121
287 677 103 84 101 120
286 678 102 71 96 119
286 679 102 72 97 121
287 678 102 72 97 119
287 679 102 72 97 119
280 672 104 98 110 125
281 672 104 95 108 123
281 673 104 99 112 128
282 672 104 100 109 122
282 673 104 99 112 127
283 672 104 100 109 121
283 672 105 114 115 121
283 673 104 94 107 124
283 674 104 99 110 124
284 672 104 100 109 121
284 672 105 109 113 121
284 673 104 96 108 123
285 672 105 106 112 121
285 673 104 96 107 121
284 674 104 102 111 123
285 674 104 102 111 124
285 675 104 106 114 125
286 672 105 112 116 124
286 673 104 101 110 122
286 673 105 103 111 122
287 672 105 117 120 127
287 673 104 105 112 123
287 673 105 108 114 125
286 674 104 103 111 123
286 675 104 102 111 122
287 674 104 103 112 125
287 675 104 99 110 124
287 676 104 98 109 124
280 680 100 107 119 134
280 680 101 114 123 135
280 681 100 96 113 131
281 680 100 114 121 133
281 680 101 120 125 134
281 681 100 108 120 134
280 682 100 93 113 134
280 683 100 103 121 140
281 682 100 93 113 134
281 683 100 89 112 135
282 680 101 124 127 134
282 681 100 122 127 135
282 681 101 126 128 135
283 680 101 116 122 133
283 681 100 127 129 136
283 681 101 127 129 136
282 682 100 110 120 134
282 683 100 97 114 132
283 682 100 121 126 135
283 683 100 114 123 135
280 684 99 116 128 144
280 685 99 119 129 143
281 684 99 104 121 140
281 685 99 114 128 144
280 686 99 116 126 140
280 687 98 114 124 138
280 687 99 115 125 139
281 686 99 118 130 145
281 687 98 114 126 141
281 687 99 117 128 143
282 684 99 92 113 134
282 685 99 99 117 136
283 684 99 102 117 135
283 685 99 106 120 136
282 686 99 110 124 140
282 687 99 115 126 141
283 686 99 110 123 138
283 687 99 111 123 138
281 684 100 95 117 137
282 684 100 95 115 134
283 684 100 109 121 137
284 680 101 98 111 128
284 681 101 115 121 132
285 680 101 82 103 125
285 681 101 100 112 127
284 682 100 119 123 132
284 683 100 117 122 131
285 682 100 117 123 134
285 682 101 112 119 131
285 683 100 117 123 132
286 680 101 75 98 120
286 681 101 89 104 122
287 680 101 76 97 118
287 681 101 83 100 118
286 680 102 72 97 120
287 680 102 78 98 118
286 682 100 115 122 134
286 682 101 105 114 127
286 683 100 119 126 137
287 682 101 97 109 123
287 683 100 115 122 133
284 685 99 116 126 139
285 685 99 114 124 138
284 686 99 118 128 141
284 687 99 116 127 140
285 686 99 120 129 142
285 687 99 122 130 143
286 685 99 110 121 135
286 686 99 119 128 141
286 687 99 122 131 144
287 686 99 126 131 142
287 687 99 125 132 144
284 684 100 117 123 135
284 685 100 116 125 138
285 684 100 114 121 132
285 685 100 113 123 136
286 684 100 118 125 136
286 685 100 114 123 136
287 684 100 123 128 137
287 685 100 125 130 140
272 688 97 121 124 137
272 689 97 128 137 151
273 688 97 128 135 148
273 689 97 127 136 150
272 690 97 123 136 151
272 691 97 119 134 152
273 690 97 124 136 151
273 691 97 119 134 152
274 688 97 130 137 149
274 689 97 131 139 153
275 688 97 129 136 146
275 689 97 131 138 150
275 688 98 127 133 144
274 690 97 130 139 153
274 691 97 127 137 151
275 690 97 134 141 153
275 691 97 133 140 152
272 692 96 117 131 148
272 692 97 115 130 148
272 693 96 120 133 148
273 692 96 119 133 149
273 692 97 118 133 151
273 693 96 120 132 148
272 694 96 125 134 147
272 695 96 124 130 140
273 694 96 123 132 144
273 695 96 110 114 120
274 692 96 118 131 147
274 692 97 121 133 148
274 693 96 117 130 144
275 692 97 126 134 147
275 693 96 118 128 141
274 694 96 114 122 131
274 695 96 99 88 89
275 694 96 113 117 124
275 695 96 107 81 85
276 688 97 127 134 146
276 689 97 129 136 147
277 688 97 125 132 144
277 689 97 128 135 146
276 688 98 126 132 144
277 688 98 123 131 143
276 690 97 129 136 148
276 691 97 131 138 150
277 690 97 128 136 147
277 691 97 128 135 147
278 689 97 125 133 145
278 688 98 122 130 142
278 689 98 124 131 143
279 688 98 118 127 139
279 689 98 121 130 142
278 690 97 126 133 145
278 691 97 126 133 145
279 690 97 121 129 142
279 691 97 121 129 141
279 690 98 121 129 141
276 692 97 128 136 149
276 693 96 124 133 145
277 692 97 125 134 146
277 693 96 125 134 146
277 693 97 125 134 146
276 694 96 124 130 140
276 695 96 123 116 119
277 694 96 124 132 144
277 695 96 125 130 137
278 692 97 123 132 145
278 693 96 124 133 146
278 693 97 124 132 145
279 692 97 121 129 141
279 693 97 119 128 141
278 694 96 122 131 143
278 695 96 121 130 141
279 694 96 118 128 140
279 695 96 119 128 141
272 696 96 120 124 131
273 696 96 85 74 70
274 696 96 102 34 41
275 696 96 122 31 39
275 697 96 137 24 27
276 696 96 118 69 62
276 697 96 128 36 30
277 696 96 123 112 108
277 697 96 123 78 71
276 698 96 138 25 28
277 698 96 128 50 52
278 696 96 126 131 138
278 697 96 124 119 119
279 696 96 124 133 145
279 697 96 124 130 141
278 698 96 124 100 100
279 698 96 121 123 132
280 688 98 114 124 137
280 689 98 117 127 140
281 688 98 114 126 140
281 689 98 113 125 139
280 691 97 118 127 138
281 691 97 115 124 137
280 690 98 120 129 142
280 691 98 120 129 141
281 690 98 115 126 140
281 691 98 115 124 138
282 688 98 117 127 140
282 689 98 115 125 139
283 688 98 117 127 141
283 688 99 117 127 141
283 689 98 119 129 142
282 690 98 117 127 140
282 691 98 119 128 140
283 690 98 119 128 141
283 691 98 122 129 141
280 692 97 117 125 137
280 693 97 116 124 136
281 692 97 114 123 136
281 693 97 114 123 135
280 694 96 117 126 138
280 694 97 116 125 137
280 695 96 117 126 138
281 694 97 114 123 135
281 695 96 115 123 135
282 692 97 116 124 136
282 693 97 115 122 133
283 692 97 123 129 139
283 693 97 120 126 135
282 694 97 112 120 131
282 695 96 110 119 130
282 695 97 110 118 130
283 694 97 116 122 132
283 695 96 110 119 130
283 695 97 113 119 130
284 688 98 118 128 142
284 688 99 117 127 141
284 689 98 119 129 142
285 688 98 115 125 138
285 688 99 120 129 142
285 689 98 115 125 139
285 689 99 116 126 140
284 690 98 119 128 141
284 691 98 120 129 141
285 690 98 115 126 139
285 691 98 119 128 141
286 688 99 124 133 146
286 689 98 115 126 139
286 689 99 121 130 144
287 688 99 127 133 145
287 689 98 120 126 136
287 689 99 125 132 142
286 690 98 108 119 133
286 691 98 113 122 135
287 690 98 110 117 127
287 691 98 98 107 117
284 692 97 123 129 141
284 693 97 126 131 141
285 692 97 122 130 141
285 693 97 126 131 142
284 694 97 125 129 138
284 695 97 120 124 133
285 694 97 127 131 141
285 695 97 124 128 137
286 692 97 115 123 135
286 693 97 121 128 139
287 693 97 112 120 129
286 692 98 113 122 134
287 692 98 100 110 120
287 693 98 103 111 118
286 694 97 123 130 140
286 695 97 123 129 139
287 694 97 121 127 135
287 695 97 125 129 136
280 696 96 120 129 141
280 697 96 125 134 147
281 696 96 116 124 136
281 697 96 122 130 143
280 698 96 123 134 146
281 698 96 125 135 148
282 696 96 109 119 132
282 697 96 116 125 138
283 696 96 109 118 130
283 697 96 110 120 133
282 698 96 123 132 145
282 699 96 125 134 148
283 698 96 116 126 139
283 699 96 119 129 142
284 696 96 116 121 130
284 697 96 116 122 132
285 696 97 121 125 134
285 697 96 116 121 130
284 698 96 117 125 136
284 699 96 115 123 134
285 698 96 116 122 132
285 699 96 115 122 133
286 696 97 123 129 139
286 697 96 117 124 134
286 697 97 119 126 136
287 696 97 126 130 134
287 697 96 119 127 136
287 697 97 126 127 129
286 698 96 114 123 133
286 699 96 114 122 132
287 698 96 120 125 130
287 699 96 117 123 130
284 700 96 111 119 131
285 700 96 113 121 132
286 700 96 111 120 131
287 700 96 113 120 128
287 701 96 110 118 126
