ply
format ascii 1.0
comment Version 2, Copyright 2017, 8i Labs, Inc.
comment frame_to_world_scale 0.179523
comment frame_to_world_translation -45.2095 7.18301 -54.3561
comment width 1023
element vertex 1566
property float x
property float y
property float z
property uchar red
property uchar green
property uchar blue
end_header
256 97 225 83 74 66
256 96 227 94 83 74
256 97 226 91 79 68
256 97 227 94 82 72
256 98 224 83 73 67
256 98 225 80 72 67
256 99 224 88 78 71
256 99 225 80 73 68
257 99 225 81 73 68
256 98 226 88 76 66
256 98 227 94 82 70
257 98 227 94 81 70
257 99 226 86 74 65
257 99 227 93 80 69
256 96 228 93 84 77
256 96 229 95 85 77
256 97 228 93 83 75
257 96 229 96 85 76
257 97 228 93 83 75
257 97 229 96 85 76
257 96 230 98 85 74
257 97 230 99 86 75
257 98 228 94 83 73
257 98 229 96 84 75
257 99 228 94 82 72
258 96 231 99 87 76
258 97 230 97 83 71
258 97 231 96 84 71
258 98 229 97 85 74
258 99 228 94 83 72
258 99 229 97 85 73
258 98 230 99 86 73
258 98 231 99 84 70
258 99 230 99 86 73
258 99 231 100 84 69
259 99 231 100 85 70
257 100 224 91 81 73
257 100 225 83 74 69
257 101 224 92 82 73
257 100 226 86 75 65
257 100 227 92 78 67
258 101 224 93 82 73
258 101 225 88 78 71
258 100 226 87 76 66
258 100 227 92 79 67
258 101 226 91 79 69
258 101 227 95 81 68
258 102 224 93 82 72
258 102 225 93 82 73
258 103 224 96 85 74
258 103 225 97 85 73
258 102 226 96 82 70
258 102 227 96 82 68
258 103 226 99 85 71
258 103 227 99 84 69
259 103 227 97 82 67
258 100 228 94 82 70
258 100 229 96 83 72
258 101 228 95 82 70
258 101 229 95 82 71
259 101 229 96 83 71
258 100 230 98 85 72
258 100 231 100 84 68
259 100 230 98 84 70
259 100 231 100 84 68
259 101 230 98 84 71
259 101 231 100 85 71
258 102 228 95 82 70
259 102 228 95 81 69
259 102 229 96 83 71
259 103 228 95 82 69
259 103 229 95 82 71
259 102 230 97 84 72
259 102 231 99 86 73
259 103 230 96 83 72
259 103 231 97 85 74
258 96 232 99 86 75
258 97 232 98 86 77
259 96 232 99 86 75
259 96 233 101 87 74
259 97 232 98 86 77
259 97 233 100 87 77
259 96 234 104 89 75
259 96 235 105 90 75
259 97 234 102 87 74
259 97 235 105 89 73
259 98 232 99 86 75
259 98 233 99 87 76
259 99 232 101 87 74
259 99 233 101 88 75
259 98 234 103 89 77
259 98 235 107 91 76
259 99 234 103 89 77
259 99 235 104 89 76
259 96 236 106 89 73
259 96 237 105 88 73
259 97 236 107 92 78
259 97 237 105 91 78
259 96 238 102 87 72
259 96 239 100 85 70
259 97 238 102 88 75
259 97 239 99 85 71
259 98 236 106 91 77
259 98 237 104 89 77
259 99 236 104 88 73
259 99 237 102 86 72
259 98 238 101 87 75
259 98 239 99 84 71
259 99 238 100 85 71
259 99 239 99 83 69
259 100 232 101 86 71
259 100 233 102 88 75
259 101 232 101 86 73
259 101 233 101 87 73
259 100 234 102 88 76
259 100 235 102 88 76
259 101 234 101 87 75
259 101 235 100 86 75
259 102 232 100 87 74
259 102 233 100 86 73
259 103 232 99 86 75
259 103 233 100 86 74
259 102 234 101 87 74
259 102 235 100 86 74
259 103 234 99 85 73
259 103 235 98 84 72
259 100 236 103 87 73
259 100 237 101 86 71
259 101 236 101 86 72
259 101 237 100 85 71
259 100 238 100 84 70
259 100 239 99 83 68
259 101 238 100 85 72
259 101 239 100 85 71
259 102 236 100 86 73
259 102 237 99 85 72
259 103 236 99 85 72
259 103 237 99 85 72
259 102 238 99 85 71
259 102 239 100 85 71
259 103 238 99 85 71
259 103 239 98 84 70
258 104 224 98 86 75
258 104 225 98 86 73
259 104 224 100 88 77
259 104 225 101 88 75
259 105 224 97 85 75
259 105 225 101 89 77
258 104 226 98 84 71
259 104 226 100 86 72
259 104 227 100 85 71
259 105 226 100 87 75
259 105 227 100 86 74
259 106 224 89 79 70
259 106 225 93 81 72
259 107 224 82 72 64
259 107 225 84 74 66
259 106 226 97 85 75
259 106 227 98 86 76
259 107 226 88 77 68
259 107 227 93 83 73
259 104 228 97 83 72
259 104 229 95 83 72
259 105 228 97 84 72
259 105 229 95 83 73
259 104 230 94 82 71
259 104 231 95 83 73
259 105 230 94 82 71
259 105 231 94 82 71
259 106 228 96 85 74
259 106 229 95 83 72
259 107 228 95 84 75
259 107 229 95 83 72
259 106 230 95 82 71
259 106 231 94 81 70
259 107 230 95 83 72
259 107 231 93 81 69
259 108 224 79 71 65
259 108 225 80 71 64
259 108 226 80 71 64
259 108 227 82 72 64
259 108 228 85 75 67
259 108 229 89 78 68
259 109 228 79 70 63
259 109 229 82 72 63
259 108 230 92 80 70
259 108 231 88 76 65
259 109 230 84 74 64
259 109 231 85 75 65
260 108 224 77 70 64
260 108 225 78 70 64
260 109 224 74 68 62
260 109 225 76 69 63
260 109 226 77 69 63
260 109 227 76 68 62
260 110 224 72 66 62
260 110 225 71 65 60
261 110 224 71 66 62
261 110 225 74 67 60
261 111 224 70 65 61
261 111 225 68 63 59
260 110 226 72 65 59
260 110 227 72 64 58
261 110 226 75 66 58
261 110 227 83 73 63
261 111 226 66 61 56
261 111 227 70 63 57
262 111 224 74 67 60
262 111 225 76 67 60
262 111 226 72 65 58
262 111 227 72 65 58
260 109 228 78 70 63
260 109 229 80 72 64
260 110 228 73 66 60
260 110 229 76 69 62
261 111 228 77 68 59
261 111 229 79 69 60
260 110 230 81 71 62
260 110 231 80 71 62
260 111 230 78 69 62
260 111 231 79 70 61
261 111 230 82 71 62
261 111 231 81 71 62
262 111 228 73 66 59
262 111 229 70 64 58
262 111 230 77 68 61
262 111 231 73 66 61
259 104 232 97 84 74
259 104 233 97 84 73
259 105 232 95 83 73
259 105 233 96 84 74
259 104 234 97 84 72
259 104 235 98 84 73
259 105 234 97 85 76
259 105 235 98 86 76
259 106 232 94 82 72
259 106 233 94 83 74
259 107 232 90 78 67
259 107 233 90 78 69
259 106 234 95 84 75
259 106 235 97 86 76
259 107 234 89 79 70
259 107 235 94 84 75
259 104 236 99 85 72
259 104 237 99 85 72
259 105 236 99 86 75
259 105 237 99 87 76
259 104 238 99 85 72
259 104 239 98 84 69
259 105 238 98 85 74
259 105 239 96 82 69
259 106 236 99 87 77
259 106 237 99 86 75
259 107 236 99 87 76
259 107 237 99 86 75
259 106 238 97 84 72
259 106 239 96 83 70
259 107 238 97 84 71
259 107 239 95 82 69
259 108 232 87 75 65
259 108 233 91 80 70
259 109 232 85 75 66
259 109 233 87 77 67
259 108 234 89 79 69
259 108 235 93 83 74
259 109 234 91 80 71
259 109 235 93 83 74
259 108 236 97 85 74
259 108 237 99 86 74
259 109 236 94 83 73
259 109 237 92 80 69
259 108 238 101 88 75
259 108 239 100 87 74
259 109 238 90 78 66
259 109 239 91 79 67
259 110 236 93 83 75
259 110 237 87 77 68
259 110 238 85 74 66
259 110 239 84 73 64
260 110 232 80 71 62
260 110 233 82 72 63
260 111 232 78 69 60
260 111 233 77 69 60
261 111 232 86 74 64
261 111 233 84 73 64
260 110 234 84 74 65
260 110 235 88 78 70
260 111 234 80 71 63
260 111 235 80 72 64
261 111 234 77 68 61
261 111 235 78 69 62
260 110 236 88 78 70
260 110 237 85 75 67
260 111 236 81 72 64
260 111 237 80 72 64
260 111 238 84 74 66
260 111 239 79 70 62
259 96 240 100 85 69
259 96 241 102 85 69
259 97 240 99 83 68
259 97 241 101 85 69
259 96 242 104 87 70
259 96 243 105 87 69
259 97 242 105 89 73
259 97 243 107 90 72
259 98 240 99 83 67
259 98 241 101 84 68
259 99 240 99 82 67
259 99 241 101 84 68
259 98 242 106 89 73
259 98 243 109 92 75
259 99 242 106 88 72
259 99 243 108 90 74
259 96 244 108 90 72
259 96 245 109 90 71
259 97 244 108 90 71
259 97 245 110 91 72
258 96 246 110 90 69
258 96 247 112 91 69
258 97 247 113 92 69
259 96 246 111 91 69
259 97 246 111 91 69
259 97 247 112 91 69
259 98 244 108 90 72
259 98 245 109 91 73
259 99 244 107 90 72
259 99 245 108 90 72
258 98 247 113 92 69
259 98 246 109 90 72
259 98 247 111 90 69
259 99 246 108 90 72
259 99 247 110 91 71
259 100 240 101 84 69
259 100 241 103 86 69
259 101 240 102 86 71
259 101 241 104 87 71
259 100 242 106 89 72
259 100 243 106 88 70
259 101 242 105 87 70
259 101 243 105 86 68
259 102 240 100 85 69
259 102 241 102 86 70
259 103 240 100 85 70
259 103 241 101 85 69
259 102 242 103 86 69
259 102 243 103 86 68
259 103 242 102 85 68
259 103 243 102 85 69
259 100 244 105 86 67
259 100 245 106 88 69
259 101 244 103 84 64
259 101 245 105 86 66
259 100 246 108 90 72
259 100 247 111 92 73
259 101 246 108 89 69
259 101 247 110 92 73
259 102 244 103 85 66
259 102 245 105 86 66
259 103 244 104 87 70
259 103 245 106 88 71
259 102 246 107 87 67
259 102 247 109 90 70
259 103 246 106 88 69
259 103 247 108 88 68
257 96 249 108 89 68
256 96 251 109 89 67
257 96 250 108 88 68
257 96 251 109 89 69
257 97 250 109 90 69
257 97 251 110 91 71
257 98 250 110 91 73
257 98 251 110 92 72
257 99 251 110 91 72
258 96 248 112 92 71
258 96 249 110 91 70
258 97 248 113 93 70
258 97 249 113 93 71
258 97 250 110 90 70
258 98 248 113 92 69
258 98 249 114 93 70
258 99 248 112 92 69
258 99 249 113 92 69
259 99 248 113 93 72
258 98 250 112 93 74
258 99 250 112 92 71
258 99 251 110 91 71
256 96 252 109 89 67
256 97 252 110 90 68
256 98 252 111 91 69
256 98 253 110 89 66
256 99 252 111 91 70
256 99 253 111 91 70
257 98 252 110 90 70
257 99 252 110 90 69
257 100 251 110 90 71
258 100 248 113 93 73
258 100 249 114 93 72
258 101 249 113 94 73
259 100 248 113 94 74
259 100 249 113 94 74
259 101 248 112 94 74
259 101 249 112 92 72
258 100 250 114 94 73
258 100 251 110 91 71
258 101 250 113 94 74
258 101 251 111 92 73
259 102 248 111 92 72
259 102 249 111 91 70
259 103 248 111 91 70
259 103 249 111 91 70
258 102 250 112 92 72
258 102 251 111 92 73
258 103 250 112 92 71
258 103 251 112 93 74
259 103 250 113 93 71
256 100 252 109 90 69
256 100 253 111 92 71
256 101 253 111 91 70
257 100 252 110 90 70
257 101 252 110 91 72
256 101 254 110 90 69
256 102 253 110 90 70
256 103 253 110 90 69
257 102 252 111 92 73
257 102 253 110 90 70
257 103 252 112 93 74
257 103 253 110 90 70
256 102 254 111 92 71
256 103 254 111 92 71
258 101 252 110 91 72
258 102 252 112 93 74
258 103 252 112 94 75
259 104 240 97 82 67
259 104 241 98 82 66
259 105 240 94 80 66
259 105 241 95 80 65
259 104 242 100 84 68
259 104 243 101 85 70
259 105 242 96 81 66
259 105 243 99 84 69
259 106 240 94 81 67
259 106 241 93 79 66
259 107 240 94 81 68
259 107 241 93 80 67
259 106 242 94 80 66
259 106 243 96 81 66
259 107 242 93 80 67
259 107 243 95 80 66
259 104 244 101 86 72
259 104 245 104 88 73
259 105 244 100 86 72
259 105 245 101 86 71
259 104 246 106 89 73
259 104 247 107 89 70
259 105 246 104 89 74
259 105 247 107 91 74
259 106 244 98 82 67
259 106 245 99 84 68
259 107 244 96 80 64
259 107 245 98 82 65
259 106 246 102 86 70
259 106 247 107 90 74
259 107 246 100 84 67
259 107 247 104 86 68
259 108 240 100 87 75
259 108 241 97 85 73
259 109 240 102 89 77
259 109 241 104 92 80
259 108 242 94 81 69
259 108 243 92 79 66
259 109 242 100 88 76
259 109 243 93 82 72
259 110 240 82 71 62
259 110 241 91 80 70
259 111 240 81 71 63
259 111 241 81 71 63
259 110 242 98 87 76
259 110 243 94 84 76
259 111 242 81 72 64
259 111 243 85 76 68
259 108 244 94 80 67
259 108 245 95 80 64
259 109 244 92 81 70
259 109 245 93 81 70
259 108 246 96 80 63
259 108 247 101 83 65
259 109 246 97 84 72
259 109 247 100 86 71
259 110 244 91 84 77
259 110 245 93 84 75
259 111 244 84 74 66
259 111 245 87 78 71
259 110 246 100 90 81
259 110 247 106 95 85
259 111 246 97 88 81
259 111 247 109 98 89
260 111 240 74 65 57
260 111 241 76 67 59
259 104 248 110 91 71
259 104 249 112 92 71
259 105 248 111 93 75
259 105 249 112 94 74
258 104 250 115 95 75
258 104 251 114 95 77
258 105 250 115 95 75
258 105 251 114 95 77
259 104 250 114 94 73
259 105 250 113 94 74
259 106 248 111 93 76
259 106 249 113 95 77
259 107 248 108 90 71
259 107 249 112 94 75
258 106 250 115 96 77
258 106 251 113 95 77
258 107 250 114 95 76
258 107 251 113 95 77
259 106 250 114 95 77
259 107 250 113 95 76
256 104 253 110 91 70
256 105 253 112 92 72
257 104 252 112 93 74
257 104 253 111 92 72
257 105 252 113 93 74
257 105 253 113 93 74
256 104 254 111 91 70
256 105 254 112 92 71
257 106 252 113 94 75
257 106 253 112 93 73
257 107 252 113 94 76
257 107 253 114 95 76
256 106 254 113 93 73
256 107 254 112 92 72
258 104 252 112 94 75
258 105 252 113 94 76
258 106 252 114 95 77
258 107 252 113 95 77
259 108 248 104 86 66
259 108 249 108 89 68
259 109 248 103 87 70
259 109 249 105 87 68
258 108 250 113 93 73
258 108 251 111 93 76
258 109 251 109 92 75
259 108 250 111 92 72
259 109 250 107 88 67
259 110 248 106 94 81
259 110 249 106 91 77
259 111 248 110 100 90
259 111 249 109 98 88
258 110 251 106 90 74
258 111 251 105 91 77
259 110 250 106 90 72
259 110 251 107 91 74
259 111 250 107 95 82
259 111 251 106 93 79
257 108 252 114 96 78
257 108 253 114 96 79
257 109 253 111 95 79
256 108 254 112 94 77
256 108 255 109 90 71
256 109 254 110 93 77
257 109 254 108 92 76
257 110 253 108 94 80
257 111 253 108 95 83
256 110 254 111 97 83
256 110 255 109 95 81
256 111 254 109 96 84
256 111 255 107 95 82
257 110 254 111 96 82
257 111 254 109 97 84
258 108 252 112 95 78
258 109 252 111 95 80
258 110 252 105 91 76
258 111 252 103 90 77
258 111 253 105 92 79
263 112 224 75 67 60
263 112 225 74 66 60
263 112 226 73 66 59
263 112 227 74 66 59
262 112 229 70 64 59
263 112 228 77 68 60
263 112 229 77 68 60
262 112 230 72 65 60
262 112 231 73 66 60
263 112 230 80 69 61
263 112 231 81 71 62
261 112 232 85 74 64
261 112 233 86 74 64
261 112 234 86 75 65
261 112 235 83 74 65
262 112 232 77 68 59
262 112 233 77 68 60
263 112 232 82 71 61
263 112 233 79 69 59
262 112 234 77 68 60
262 112 235 77 68 60
263 112 234 79 69 60
263 112 235 76 67 59
263 113 234 83 72 63
263 113 235 82 71 62
261 112 236 81 72 64
261 112 237 82 73 64
260 112 238 78 70 63
260 112 239 76 68 61
261 112 238 80 71 64
261 112 239 78 69 62
262 112 236 77 68 60
262 112 237 75 67 61
263 112 236 72 64 57
263 113 236 82 72 62
263 113 237 79 70 61
262 112 238 74 67 60
262 112 239 75 67 61
262 113 238 73 66 59
262 113 239 75 67 60
263 113 238 78 69 61
263 113 239 79 70 61
264 112 224 74 65 57
264 112 225 75 68 60
264 113 224 76 68 60
264 113 225 74 66 58
265 113 224 79 72 66
265 113 225 77 69 63
264 112 226 75 67 60
264 112 227 76 68 60
264 113 226 74 66 59
264 113 227 76 69 62
265 113 226 75 67 59
265 113 227 77 70 64
266 113 224 80 73 67
266 113 225 79 73 68
266 113 226 78 71 65
266 113 227 80 73 65
266 114 224 80 73 67
266 114 225 80 72 67
267 114 224 90 81 73
267 114 225 82 74 68
266 114 226 79 72 67
267 114 226 81 74 67
267 114 227 83 76 69
264 112 228 75 68 61
264 112 229 70 65 60
264 113 228 78 69 61
265 113 228 78 71 64
265 113 229 84 76 69
264 112 230 82 72 64
264 112 231 85 75 65
264 113 231 91 79 68
265 113 230 82 73 66
265 113 231 77 70 63
266 113 228 81 74 67
266 113 229 87 78 70
267 113 229 88 79 71
266 113 230 85 77 70
266 113 231 82 74 66
267 113 230 78 72 66
267 113 231 80 72 66
267 114 228 85 76 68
267 114 229 88 78 69
267 114 230 83 75 66
267 114 231 80 72 66
268 114 225 85 77 71
268 115 224 88 80 73
268 115 225 86 78 72
269 115 224 97 87 78
269 115 225 94 85 77
268 114 226 84 76 69
268 114 227 85 77 71
268 115 226 88 80 74
268 115 227 82 74 70
269 115 226 91 83 77
269 115 227 83 75 70
270 115 225 96 87 79
270 115 226 95 87 80
270 115 227 85 80 74
268 114 228 81 71 63
268 114 229 84 75 67
268 115 228 71 65 61
269 115 228 80 72 66
269 115 229 77 70 63
268 114 230 79 71 64
268 114 231 75 69 62
269 115 230 76 69 63
269 115 231 83 75 67
270 115 228 79 73 68
270 115 229 84 76 69
270 115 230 83 75 69
270 115 231 75 69 63
270 116 224 89 80 71
270 116 225 88 80 72
271 116 224 88 80 72
271 116 225 84 77 71
271 117 224 86 78 71
271 117 225 84 77 71
270 116 226 85 78 73
270 116 227 87 81 76
271 116 226 86 79 73
271 116 227 87 82 77
271 117 226 84 77 72
271 117 227 85 79 74
270 116 228 84 77 72
271 116 228 86 81 76
271 116 229 86 80 74
271 116 230 85 78 73
271 116 231 87 79 73
264 112 232 88 76 65
264 113 232 90 78 68
264 113 233 89 77 67
265 113 232 82 73 66
265 113 233 83 74 66
264 113 234 88 77 66
264 113 235 83 72 62
265 113 234 76 69 62
265 113 235 71 64 57
266 113 232 86 75 66
266 113 233 83 74 65
267 113 232 77 70 64
267 113 233 75 68 62
266 113 234 80 72 64
266 113 235 75 68 61
267 113 234 71 66 62
267 114 232 73 68 63
267 114 233 70 65 61
266 114 235 79 71 63
267 114 234 71 66 61
267 114 235 75 68 62
264 113 236 80 70 61
264 113 237 79 70 61
265 113 236 72 65 57
265 113 237 72 65 58
264 113 238 78 69 61
264 113 239 71 64 58
265 113 238 71 64 57
265 113 239 70 63 56
264 114 239 71 64 58
265 114 238 71 64 57
265 114 239 72 65 58
266 114 236 81 71 62
266 114 237 79 70 61
267 114 236 76 69 62
267 114 237 71 64 58
267 115 237 93 82 73
266 114 238 80 71 62
266 114 239 81 72 64
267 114 238 71 65 59
267 114 239 71 64 59
267 115 238 90 80 71
267 115 239 73 67 60
268 114 232 72 67 63
268 114 233 73 68 63
269 115 232 73 67 63
269 115 233 73 68 64
268 114 234 74 69 63
268 114 235 79 72 65
268 115 234 68 64 60
268 115 235 68 64 60
269 115 234 73 68 64
269 115 235 74 69 64
270 115 232 75 68 60
270 115 233 73 66 59
270 115 234 75 67 60
270 115 235 73 65 60
268 115 236 75 68 63
268 115 237 75 69 63
269 115 236 73 68 62
269 115 237 75 69 64
268 115 238 76 69 63
268 115 239 71 65 59
269 115 238 71 66 61
269 115 239 71 66 60
270 115 236 71 64 59
271 116 232 80 73 67
271 116 233 83 76 69
270 116 235 80 69 61
271 116 234 87 79 72
271 116 235 90 80 71
271 117 235 96 87 79
269 116 238 70 65 60
269 116 239 74 66 62
270 116 236 76 64 60
270 116 237 75 66 57
271 116 236 88 75 65
271 116 237 83 70 61
271 117 236 98 87 75
271 117 237 94 81 68
270 116 238 71 65 58
270 116 239 71 65 60
271 116 238 78 68 58
271 116 239 75 68 61
271 117 238 88 77 65
271 117 239 76 69 62
259 112 243 77 68 61
259 112 244 77 68 60
259 112 245 78 69 61
259 112 246 80 71 63
259 112 247 104 94 85
260 112 240 74 65 57
260 112 241 72 63 55
261 112 240 75 67 60
261 112 241 83 74 65
261 113 240 73 65 57
261 113 241 72 64 55
260 112 242 73 64 56
260 112 243 74 65 57
260 113 243 88 77 67
261 113 242 80 71 61
261 113 243 78 68 59
262 113 240 74 66 59
262 113 241 75 66 58
263 113 240 77 68 60
263 113 241 77 67 58
262 113 242 76 67 57
262 113 243 76 66 57
263 113 242 74 65 56
263 114 241 75 67 59
263 114 242 74 66 58
263 114 243 73 64 54
260 112 244 72 64 56
260 112 245 76 67 60
260 113 244 70 61 52
260 113 245 70 62 55
261 113 244 78 68 57
261 113 245 78 69 59
260 112 246 78 69 61
260 112 247 81 71 62
260 113 246 68 60 51
260 113 247 71 62 52
261 113 246 67 60 52
261 113 247 67 59 51
261 114 247 77 69 62
262 113 244 74 65 55
262 113 245 70 60 50
262 114 244 84 75 66
262 114 245 83 73 64
263 114 244 73 63 54
263 114 245 69 59 52
262 114 246 67 59 50
262 114 247 67 60 53
263 114 246 68 57 52
263 114 247 65 56 52
263 115 246 68 57 53
263 115 247 72 63 58
259 112 248 109 99 89
259 112 249 104 95 85
259 112 250 107 97 88
259 112 251 106 96 87
259 113 250 107 98 90
259 113 251 108 99 91
257 112 253 105 94 83
256 112 254 106 95 83
256 112 255 105 95 84
256 113 255 105 95 87
257 112 254 106 95 85
257 113 254 101 91 85
257 113 255 97 88 85
256 114 255 107 95 85
257 114 254 93 87 84
257 114 255 96 90 84
257 115 255 103 95 87
258 112 252 99 88 78
258 112 253 101 90 80
258 113 252 98 89 80
258 113 253 101 91 83
259 112 252 103 92 82
259 113 252 105 96 87
258 113 254 99 91 84
258 114 253 99 92 84
259 114 252 108 98 89
259 114 253 103 94 86
259 115 252 112 101 92
259 115 253 106 95 89
258 114 254 91 85 83
258 115 254 92 86 83
258 115 255 96 91 85
259 115 254 98 89 84
257 116 255 102 94 88
259 116 253 109 97 90
258 116 254 93 85 81
258 116 255 96 88 83
258 117 255 97 86 80
259 116 254 99 88 84
259 117 254 105 92 86
259 117 255 97 84 78
258 118 255 95 82 76
258 119 255 98 86 78
259 118 254 108 95 87
259 118 255 99 85 78
259 119 254 112 98 89
259 119 255 100 86 80
260 112 248 85 75 65
260 113 248 73 63 56
260 113 249 88 78 72
261 113 248 69 60 57
260 113 250 103 94 87
260 113 251 107 98 91
260 114 249 99 89 82
261 114 248 81 72 68
261 114 249 96 87 80
260 114 250 101 91 84
260 114 251 113 103 95
260 115 251 114 105 95
261 114 250 111 102 93
261 115 250 114 104 96
261 115 251 115 105 97
262 114 248 82 74 67
262 114 249 90 81 74
262 115 248 97 88 80
262 115 249 99 90 82
263 115 248 86 78 71
263 115 249 90 82 74
262 115 250 110 101 93
260 114 252 114 103 94
260 115 252 115 104 94
261 116 251 112 102 93
263 116 248 99 91 82
263 116 249 98 89 81
262 116 250 104 94 86
262 116 251 109 99 89
262 117 251 105 95 85
263 116 250 96 86 79
263 117 250 93 83 77
263 117 251 100 90 81
262 118 251 104 95 89
262 119 251 99 90 88
263 118 250 96 87 81
263 118 251 99 90 83
263 119 250 100 91 85
263 119 251 95 87 85
260 116 252 118 106 95
260 116 253 115 103 95
260 117 253 116 104 96
261 116 252 115 105 95
261 117 252 117 105 96
261 117 253 118 106 97
260 118 253 119 106 98
260 119 253 119 107 98
261 118 252 113 102 96
261 118 253 119 107 97
261 119 252 112 102 96
261 119 253 119 108 97
260 118 254 115 102 95
260 119 254 117 104 95
262 117 252 112 102 92
262 118 252 108 98 94
262 119 252 102 94 91
259 120 254 114 101 91
259 120 255 109 97 87
259 121 254 120 108 97
259 121 255 120 107 94
259 122 255 127 110 90
259 123 255 126 102 69
259 124 255 127 87 30
259 125 255 138 73 10
259 126 255 143 66 5
259 127 255 144 63 3
263 120 250 99 90 85
263 120 251 90 82 81
263 121 251 86 78 74
263 122 251 87 79 73
263 123 251 90 81 76
260 120 253 118 106 96
261 120 252 110 101 92
261 120 253 115 104 94
261 121 252 103 95 87
261 121 253 111 101 91
260 120 254 116 104 95
260 121 254 116 105 95
261 122 253 104 94 89
261 123 253 106 95 85
260 122 254 120 107 96
260 123 254 123 107 89
262 120 252 100 92 87
262 121 252 93 87 80
262 122 252 90 84 80
262 123 252 87 79 77
263 124 251 98 86 77
263 125 251 108 88 61
263 126 251 113 82 36
263 127 251 122 71 16
261 124 253 113 93 65
261 125 253 118 81 24
260 124 254 122 95 59
260 125 254 127 81 17
261 125 254 127 76 10
261 126 253 126 65 5
261 127 253 134 60 4
260 126 254 139 67 9
260 126 255 141 64 7
260 127 254 143 63 4
260 127 255 144 65 4
261 126 254 134 66 9
261 127 254 140 64 5
262 124 252 96 81 67
262 125 252 108 80 35
263 125 252 103 80 43
262 126 252 118 70 16
262 127 252 128 58 9
263 126 252 109 70 17
263 127 252 124 59 8
264 114 240 71 65 59
264 114 241 73 65 59
265 114 240 82 73 65
265 114 241 82 73 66
264 114 242 77 68 61
264 114 243 77 68 60
265 114 242 79 70 63
265 114 243 78 69 62
265 115 243 74 66 58
266 114 240 72 65 59
266 114 241 77 70 64
266 115 241 70 64 59
267 115 240 69 63 58
267 115 241 69 63 57
266 115 242 70 64 60
266 115 243 73 66 59
267 115 242 71 65 60
267 115 243 70 65 60
264 114 244 81 73 65
264 114 245 71 61 51
264 115 244 72 63 53
264 115 245 71 61 52
265 115 244 73 65 56
265 115 245 77 67 57
264 115 246 70 60 53
264 115 247 92 81 71
265 115 246 87 77 68
265 115 247 101 89 78
266 115 244 80 72 63
266 115 245 82 72 62
267 115 244 75 67 59
267 116 243 72 67 62
264 116 247 108 97 87
265 116 246 95 84 75
265 116 247 110 98 88
265 117 247 120 108 99
266 116 245 83 73 64
267 116 244 78 71 64
267 116 245 84 76 68
267 117 245 88 81 75
266 116 246 97 87 78
266 116 247 115 103 93
266 117 246 110 99 90
266 117 247 116 103 94
267 116 246 94 85 78
267 117 246 101 92 86
266 118 247 115 103 93
266 119 247 116 104 91
267 118 246 98 90 83
267 118 247 109 98 88
267 119 246 93 85 79
267 119 247 106 96 86
268 115 240 70 64 58
268 115 241 68 63 57
268 116 240 69 64 58
268 116 241 69 64 58
269 116 240 78 68 64
269 116 241 82 72 66
268 116 242 75 67 62
268 116 243 79 69 61
268 117 243 86 75 66
269 116 242 81 71 63
269 117 242 90 78 70
269 117 243 89 78 69
269 118 243 93 82 72
269 119 243 97 86 75
270 116 240 85 70 70
270 117 240 87 77 71
270 117 241 103 90 80
271 117 240 80 74 69
271 117 241 101 90 79
270 117 242 103 92 82
271 118 240 79 73 69
271 118 241 93 85 77
271 119 241 80 72 68
270 118 242 96 86 78
270 118 243 92 82 75
270 119 243 92 84 77
271 118 242 95 83 75
271 119 242 85 75 72
268 116 244 81 74 66
268 117 244 84 75 67
268 117 245 81 75 70
268 118 244 84 75 69
268 118 245 84 78 74
268 119 245 82 76 71
269 118 244 86 75 69
269 119 244 92 82 74
268 119 246 86 80 75
264 116 248 107 96 87
264 116 249 100 90 80
264 117 249 102 90 81
265 117 248 120 109 99
264 118 249 109 97 87
264 119 249 112 101 91
265 118 248 121 108 96
265 119 248 119 106 94
265 119 249 119 106 93
264 118 250 97 86 81
264 119 250 105 94 87
266 119 248 120 107 95
266 120 247 101 90 86
266 121 247 96 87 84
267 120 246 90 82 75
267 120 247 96 86 80
267 121 246 79 72 68
267 121 247 84 76 73
266 122 247 99 90 83
266 123 247 94 86 78
267 122 246 74 68 64
267 122 247 81 75 69
267 123 246 72 66 61
267 123 247 77 71 64
266 124 247 88 81 74
266 125 247 85 76 70
267 124 246 75 68 64
267 124 247 77 70 64
267 125 246 86 77 71
267 125 247 81 73 67
266 126 247 83 68 54
266 127 247 83 59 21
267 126 246 96 84 69
267 126 247 82 70 57
267 127 246 92 73 48
267 127 247 82 61 28
270 120 243 103 94 86
270 121 243 105 96 88
271 120 242 90 82 78
271 120 243 96 89 83
271 121 242 83 78 74
271 121 243 94 87 82
271 122 243 96 90 84
271 123 243 90 84 79
268 120 245 86 79 75
268 121 245 91 84 80
269 120 244 103 92 82
269 120 245 97 88 82
269 121 245 103 92 86
268 120 246 83 77 72
268 121 246 81 76 72
268 122 245 91 82 78
268 123 245 87 77 73
269 122 244 105 92 85
269 122 245 102 89 83
269 123 244 103 89 81
269 123 245 100 86 79
268 122 246 77 73 69
268 123 246 77 71 66
270 120 244 103 92 82
270 121 244 107 96 87
270 122 244 107 95 88
270 123 244 103 92 84
271 124 243 83 77 71
271 125 243 76 70 69
271 126 243 75 68 65
271 127 243 81 66 52
268 124 245 87 78 74
268 125 245 94 84 80
269 124 245 100 89 81
269 125 245 99 88 84
268 124 246 79 71 66
268 125 246 91 81 76
268 126 245 100 88 78
268 127 245 106 89 69
269 126 245 102 91 81
269 127 245 102 86 71
268 126 246 100 88 74
268 127 246 102 84 61
270 124 244 101 91 82
270 125 244 94 86 81
270 126 244 98 89 81
270 127 244 99 85 69
271 126 244 83 76 73
271 127 244 89 75 60
264 120 249 117 106 93
264 121 249 116 104 92
265 120 248 118 106 95
265 120 249 120 107 95
265 121 248 115 104 95
265 121 249 119 108 97
264 120 250 106 96 88
264 121 250 102 91 82
264 122 249 112 100 89
264 123 249 110 99 89
265 122 248 111 100 91
265 122 249 113 102 93
265 123 248 107 96 87
265 123 249 110 98 90
264 122 250 101 90 81
264 123 250 104 93 85
266 120 248 113 101 93
266 121 248 109 99 92
266 122 248 106 96 88
266 123 248 101 91 83
265 124 248 106 95 86
265 124 249 109 97 89
265 125 248 97 84 78
265 125 249 105 92 82
264 124 250 108 96 89
264 125 250 112 94 78
265 126 248 99 81 61
265 126 249 107 88 66
265 127 248 99 71 29
265 127 249 111 81 33
264 126 250 113 87 52
264 127 250 118 77 19
266 124 248 98 89 82
266 125 248 90 79 74
266 126 248 88 72 56
266 127 248 91 64 23
272 117 224 82 75 69
272 117 225 84 77 70
272 117 226 86 79 73
272 117 227 86 79 74
273 118 224 80 74 67
273 118 225 81 75 68
273 118 226 87 79 73
273 118 227 86 79 73
274 118 224 82 73 66
274 118 225 79 72 66
274 119 224 86 78 70
274 119 225 79 72 66
275 119 224 84 78 72
275 119 225 85 78 72
274 118 226 82 75 70
274 118 227 84 77 72
274 119 226 80 73 67
274 119 227 84 77 72
275 119 226 80 73 67
272 117 228 88 83 78
272 117 229 88 83 78
272 116 231 88 81 75
272 117 230 86 81 76
272 117 231 87 81 75
273 117 231 88 81 76
273 118 228 85 79 75
273 118 229 87 82 78
273 118 230 90 84 80
273 118 231 89 82 78
274 118 228 83 77 74
274 118 229 82 77 74
274 119 228 83 77 74
274 119 229 82 77 74
274 119 230 86 80 77
274 119 231 92 85 80
272 116 232 90 82 75
272 117 232 92 85 77
272 117 233 94 86 78
273 117 232 91 84 77
273 117 233 92 84 77
272 117 234 86 80 75
272 117 235 94 88 82
273 117 234 94 86 79
273 117 235 86 82 78
273 118 232 91 84 78
273 118 233 91 84 77
273 118 234 90 83 78
273 118 235 93 87 81
273 119 235 95 89 84
274 119 232 90 84 79
274 119 233 90 83 78
274 119 234 87 81 77
274 119 235 90 85 81
272 117 236 99 90 82
272 117 237 96 85 76
272 117 238 95 83 74
272 117 239 80 70 64
272 118 237 95 84 79
273 118 236 99 93 87
273 118 237 103 95 87
273 119 236 99 92 85
273 119 237 100 93 87
272 118 238 95 83 78
272 118 239 85 74 69
272 119 239 96 85 74
273 118 238 102 91 83
273 118 239 100 87 79
273 119 238 107 97 87
273 119 239 102 90 81
274 119 236 97 91 87
274 119 237 99 91 87
274 119 238 104 95 87
275 120 224 82 76 72
275 120 225 83 77 73
275 120 226 82 76 73
275 120 227 83 78 72
275 120 228 86 80 74
275 120 229 83 78 73
274 120 230 82 76 73
274 120 231 91 84 79
275 120 230 81 76 71
275 120 231 87 80 74
275 121 230 80 73 69
275 121 231 86 79 74
275 122 231 88 81 74
276 120 224 81 76 72
276 120 225 81 76 73
276 121 224 82 76 72
276 121 225 82 77 74
277 121 224 83 77 72
277 121 225 82 76 73
276 120 226 82 77 74
276 120 227 85 79 75
276 121 226 82 77 75
276 121 227 84 79 76
277 121 226 83 78 75
277 122 225 80 75 73
277 122 226 81 77 75
277 122 227 85 80 77
278 121 224 82 76 71
278 122 224 83 77 72
278 122 225 82 77 73
279 122 224 83 78 74
279 122 225 84 78 74
279 123 224 81 76 73
279 123 225 83 77 73
278 122 226 80 76 73
278 122 227 81 77 76
278 123 226 79 75 73
278 123 227 82 78 76
279 123 226 80 75 72
279 123 227 78 74 72
276 121 228 83 78 73
276 121 229 80 74 70
276 121 230 78 72 68
276 122 228 81 76 73
276 122 229 79 74 70
277 122 228 84 79 75
277 122 229 81 76 72
277 123 228 85 79 75
277 123 229 81 76 71
276 122 230 79 73 68
276 122 231 85 79 72
276 123 230 77 71 68
276 123 231 86 79 73
277 123 230 79 73 69
277 123 231 81 74 69
278 123 228 84 79 76
278 123 229 83 77 73
279 123 228 81 77 74
279 124 227 78 74 71
277 124 231 81 73 68
278 124 229 86 79 74
279 124 228 83 78 74
279 124 229 85 79 74
278 124 230 83 77 71
278 124 231 82 74 68
278 125 231 82 73 66
279 124 230 87 80 73
279 124 231 84 76 69
279 125 230 86 78 71
279 125 231 82 72 65
279 126 231 84 74 66
274 120 232 90 83 78
274 120 233 88 82 76
274 121 233 87 80 74
275 120 232 92 84 78
275 121 232 89 82 76
275 121 233 87 80 74
274 120 234 85 79 74
274 120 235 87 82 78
274 121 234 83 77 71
274 121 235 84 78 73
275 121 234 84 77 72
275 122 232 93 85 78
275 122 233 90 83 77
275 123 233 93 85 76
274 122 235 81 76 71
275 122 234 83 77 72
275 122 235 80 75 70
275 123 234 88 79 70
275 123 235 78 72 66
273 120 239 97 82 78
273 121 239 102 87 76
274 120 236 95 89 84
274 120 237 99 92 86
274 121 236 92 86 80
274 121 237 98 91 84
274 120 238 102 92 86
274 120 239 102 89 84
274 121 238 100 91 83
274 121 239 102 89 81
274 122 236 93 87 81
274 122 237 99 92 86
274 123 237 98 91 85
275 122 236 86 81 77
275 123 236 85 80 76
275 123 237 95 88 81
274 122 238 102 94 86
274 122 239 100 89 81
274 123 238 103 93 85
274 123 239 97 87 81
275 124 234 86 75 67
275 124 235 76 65 55
275 124 236 83 71 60
275 124 237 98 84 74
275 125 236 86 73 61
275 125 237 91 78 67
274 124 238 103 91 80
274 124 239 95 85 77
274 125 239 93 78 67
275 124 238 100 86 75
275 125 238 93 75 66
275 126 237 90 76 62
274 126 239 98 79 66
274 127 239 97 72 51
275 126 238 95 77 62
275 126 239 96 75 63
275 127 238 96 71 44
275 127 239 98 72 47
276 122 232 93 86 78
276 123 232 92 84 77
276 123 233 92 83 75
276 124 232 89 81 75
276 124 233 91 82 75
277 124 232 85 77 71
277 125 232 85 77 72
277 125 233 92 83 75
276 124 234 91 81 73
276 124 235 82 70 61
276 125 234 96 83 71
276 125 235 86 72 59
277 125 234 95 83 72
276 126 235 84 68 50
277 126 234 93 80 67
277 126 235 91 74 57
277 127 235 91 64 31
278 125 232 85 75 70
278 125 233 89 80 75
279 125 232 84 74 67
278 126 233 86 76 69
279 126 232 84 71 59
279 126 233 88 72 59
279 127 233 88 68 46
278 126 234 92 75 60
278 127 234 92 72 49
278 127 235 91 63 29
279 127 234 89 65 34
276 125 236 86 74 62
276 126 236 85 69 52
276 126 237 90 71 55
276 127 236 88 60 25
276 127 237 93 67 37
277 127 236 91 54 27
280 123 224 77 73 71
280 123 225 80 75 72
281 123 224 74 70 69
280 123 226 82 76 71
280 124 225 80 75 71
281 124 224 74 70 68
281 124 225 78 73 70
280 124 226 81 75 71
280 124 227 81 75 72
281 124 226 83 77 73
281 124 227 88 81 76
281 125 227 88 81 75
282 124 224 72 67 66
282 124 225 74 70 67
283 124 224 72 68 65
283 125 224 74 69 64
283 125 225 74 67 63
282 124 226 80 75 71
282 125 226 79 74 71
282 125 227 84 78 73
283 125 226 76 70 67
283 125 227 81 75 71
283 126 227 80 74 69
280 124 228 82 77 73
280 124 229 86 79 73
280 125 229 83 77 72
281 125 228 83 76 72
281 125 229 80 74 71
280 125 230 86 78 72
280 125 231 85 76 68
281 125 230 83 77 72
280 126 231 85 73 62
281 126 230 83 76 72
281 126 231 86 75 64
281 127 231 83 70 54
282 125 228 82 74 72
282 125 229 81 73 71
282 126 229 78 70 68
283 126 228 81 75 72
283 126 229 80 72 69
283 127 229 77 69 64
282 126 230 80 72 68
282 126 231 89 79 68
282 127 231 85 69 53
283 126 230 79 68 63
283 127 230 77 64 56
283 127 231 81 66 52
284 125 224 76 70 64
284 125 225 73 66 59
285 125 224 78 72 67
284 125 226 71 65 60
284 126 225 71 64 58
285 126 224 76 70 66
285 126 225 73 67 61
284 126 226 73 65 61
284 126 227 77 71 66
285 126 226 69 63 59
285 126 227 73 66 62
285 127 227 73 67 62
286 126 224 76 73 71
286 126 225 69 68 66
287 126 224 81 76 73
287 126 225 76 70 66
287 127 224 77 71 72
287 127 225 71 67 66
286 126 226 67 63 60
286 127 226 65 61 60
286 127 227 68 62 60
287 127 226 68 62 60
287 127 227 71 63 61
284 126 228 76 71 68
284 127 228 78 70 67
284 127 229 77 69 64
285 127 228 74 67 60
285 127 229 77 67 58
284 127 230 77 65 55
284 127 231 76 60 46
285 127 230 76 67 57
286 127 228 74 64 57
280 126 232 83 67 52
280 127 232 84 65 45
280 127 233 85 63 34
281 127 232 83 64 49
281 127 233 87 54 32
282 127 232 84 59 42
272 118 240 80 74 67
272 119 240 83 75 70
272 119 241 75 68 67
273 119 240 92 81 72
272 120 240 71 62 63
272 120 241 75 66 63
272 121 241 74 64 59
273 120 240 90 77 68
273 121 240 92 78 67
273 121 241 75 63 59
272 120 242 81 73 69
272 121 242 74 66 63
272 122 241 74 66 59
272 123 241 75 69 63
273 122 240 89 78 70
273 122 241 75 66 61
273 123 240 89 80 75
273 123 241 76 68 65
272 122 242 75 69 65
272 123 242 71 67 64
273 124 240 90 83 78
273 124 241 75 70 67
273 125 240 87 76 66
273 125 241 86 79 72
272 124 242 69 64 61
272 125 242 72 64 60
273 126 240 93 74 61
273 126 241 92 81 71
273 127 240 92 68 50
273 127 241 93 73 53
272 126 242 82 72 62
272 126 243 77 68 61
272 127 242 88 71 48
272 127 243 82 65 46
274 124 240 86 76 69
274 125 240 90 76 65
274 126 240 95 77 64
274 127 240 93 70 50
