ply
format ascii 1.0
comment Version 2, Copyright 2017, 8i Labs, Inc.
comment frame_to_world_scale 0.179523
comment frame_to_world_translation -45.2095 7.18301 -54.3561
comment width 1023
element vertex 1665
property float x
property float y
property float z
property uchar red
property uchar green
property uchar blue
end_header
261 975 191 112 90 71
263 972 191 98 79 64
263 973 191 100 80 63
263 975 189 111 89 65
262 974 191 115 94 75
262 975 190 121 100 82
262 975 191 121 100 82
263 974 190 104 82 60
263 974 191 105 84 63
263 975 190 113 92 70
267 967 191 98 75 60
269 962 191 108 82 67
269 963 191 102 77 62
270 961 191 111 79 63
271 960 190 116 88 74
271 960 191 122 94 79
271 961 190 109 81 67
271 961 191 112 82 68
271 963 189 96 74 59
270 962 191 109 81 68
270 963 190 101 77 65
270 963 191 103 77 65
271 962 190 103 76 63
271 962 191 107 78 67
271 963 190 100 75 61
268 964 191 104 85 68
268 965 191 105 84 68
269 964 191 100 77 62
269 965 190 106 86 70
269 965 191 107 86 71
269 967 189 98 76 59
268 966 190 101 77 60
268 966 191 103 80 65
268 967 190 101 78 63
268 967 191 102 80 65
269 966 190 103 82 65
269 967 190 99 76 59
271 964 189 100 82 67
271 965 189 98 79 63
270 964 190 96 74 58
270 964 191 100 75 62
270 965 190 98 78 61
271 964 190 97 76 60
271 965 190 95 76 58
270 966 189 98 79 61
270 967 189 98 78 60
271 966 189 95 76 58
271 967 188 98 78 62
271 967 189 96 77 59
270 966 190 100 81 64
268 975 183 92 77 66
269 975 182 89 71 55
269 975 183 93 77 64
271 975 181 79 63 49
270 974 183 94 77 65
270 975 182 92 77 62
270 975 183 93 76 62
271 974 182 82 65 50
271 974 183 86 68 55
271 975 182 83 67 53
265 969 191 101 78 59
264 971 191 98 76 60
265 970 190 96 71 54
265 970 191 101 76 58
265 971 190 95 70 53
265 971 191 101 77 61
267 969 189 96 77 67
266 968 191 100 79 62
266 969 190 97 77 62
266 969 191 100 79 62
267 968 190 99 79 66
267 968 191 100 81 67
267 969 190 97 78 66
266 971 189 83 59 50
267 970 189 92 73 64
267 971 188 85 69 58
267 971 189 86 67 57
266 970 190 92 69 56
266 971 190 85 60 46
267 970 190 94 75 65
265 975 187 109 89 69
267 973 187 82 68 57
267 975 185 80 62 51
266 974 187 81 64 52
266 975 186 85 66 51
266 975 187 85 65 48
267 974 186 83 67 56
267 974 187 82 67 56
267 975 186 83 65 53
265 972 189 90 69 50
265 973 189 93 73 53
264 972 190 100 78 60
264 972 191 99 78 62
264 973 190 104 84 64
265 972 190 94 72 55
264 974 189 107 86 65
264 975 188 113 92 69
264 975 189 109 87 61
265 974 188 98 77 58
265 974 189 101 81 60
265 975 188 105 85 65
264 974 190 106 85 63
266 972 188 82 65 56
266 972 189 82 60 50
266 973 188 80 62 50
266 973 189 83 61 48
267 972 188 80 64 53
267 973 188 79 65 55
266 974 188 83 64 47
271 969 187 98 78 63
270 970 187 96 76 63
270 971 187 94 73 60
271 970 187 100 79 69
271 971 186 95 74 60
271 971 187 97 76 65
268 968 189 95 73 62
268 969 189 94 74 63
269 968 189 95 73 60
269 969 188 91 73 59
269 969 189 92 73 60
268 968 190 98 77 65
268 970 188 88 71 56
268 970 189 92 74 62
268 971 188 87 71 56
269 970 188 90 73 57
269 971 188 86 67 52
270 968 189 94 74 57
270 969 188 94 76 60
270 969 189 92 73 58
271 968 188 98 79 63
271 968 189 94 75 56
271 969 188 102 83 69
270 970 188 94 75 60
270 971 188 90 69 54
271 970 188 103 84 72
268 972 187 82 65 53
268 973 187 84 68 58
269 972 187 87 68 56
269 973 186 91 74 63
269 973 187 87 70 60
268 974 185 87 71 60
268 975 184 86 70 59
268 975 185 84 67 56
269 974 184 93 76 64
269 974 185 91 76 63
269 975 184 93 78 66
268 974 186 85 70 60
269 974 186 92 76 64
270 973 185 90 71 56
271 972 185 92 72 59
271 973 184 90 71 60
271 973 185 94 75 63
270 972 186 91 72 57
270 972 187 90 69 55
270 973 186 92 74 60
271 972 186 91 71 55
270 974 184 95 79 66
270 974 185 93 76 62
271 974 184 97 80 69
268 972 188 84 68 54
269 972 188 85 67 53
263 987 166 93 68 43
263 987 167 94 70 46
261 989 167 118 93 67
260 991 167 123 97 70
261 990 166 117 90 62
261 990 167 124 98 71
261 991 166 119 92 67
261 991 167 123 97 70
262 989 165 108 82 56
263 988 165 103 78 54
263 989 165 107 81 55
262 988 167 101 78 53
262 989 166 112 87 62
262 989 167 112 88 63
263 988 166 100 77 52
263 988 167 97 73 46
263 989 166 108 85 63
262 990 165 110 83 57
262 991 165 111 84 58
263 990 164 102 72 42
263 990 165 107 79 53
263 991 164 104 75 47
263 991 165 106 77 50
262 990 166 112 83 55
262 991 166 114 88 63
259 991 169 141 114 88
259 990 171 130 106 81
259 991 170 146 120 94
259 991 171 142 116 89
256 991 175 110 88 70
257 990 175 103 81 61
257 991 174 144 121 101
257 991 175 118 96 79
259 989 173 134 114 96
258 989 175 89 69 52
259 988 175 78 64 50
259 989 174 118 101 84
259 989 175 87 72 58
258 991 173 151 127 103
259 990 172 131 107 83
259 990 173 138 115 93
259 991 172 144 118 93
259 991 173 147 123 99
258 990 174 137 116 97
258 990 175 109 89 68
258 991 174 149 126 106
259 990 174 132 113 96
263 985 171 77 55 40
262 987 169 110 91 73
263 986 169 93 74 54
263 987 168 102 79 58
263 987 169 104 84 65
262 986 171 80 65 49
262 987 170 109 93 79
262 987 171 103 89 75
263 986 170 84 65 47
263 986 171 80 62 45
263 987 170 97 81 66
261 987 172 96 82 69
261 987 173 72 58 46
260 987 174 61 44 38
260 987 175 65 51 39
261 986 174 62 41 39
261 986 175 63 44 39
261 987 174 59 42 37
261 987 175 61 45 37
263 985 172 82 63 46
263 985 173 88 70 56
262 985 174 81 64 53
262 985 175 75 54 47
263 984 174 90 72 61
263 984 175 94 77 65
263 985 174 88 73 61
263 985 175 90 73 62
262 986 172 79 66 52
262 986 173 78 64 53
262 987 172 92 78 64
262 987 173 71 58 43
263 986 172 79 63 47
263 986 173 88 72 61
262 986 174 71 54 47
262 986 175 68 47 42
261 988 169 110 83 65
261 989 168 116 92 67
261 989 169 113 87 62
260 989 170 115 90 64
260 989 171 115 91 67
261 988 170 116 92 72
261 988 171 117 97 79
261 989 170 110 85 59
261 989 171 114 91 69
260 990 168 134 109 83
260 990 169 134 110 87
260 991 168 127 100 72
260 991 169 136 110 83
261 990 168 131 106 81
260 990 170 127 103 78
260 990 171 124 101 76
260 991 170 142 116 92
262 988 168 99 73 51
262 988 169 105 80 62
262 989 168 104 80 56
263 988 168 98 74 49
262 988 170 117 96 80
260 988 173 113 97 83
260 989 172 119 97 74
260 989 173 125 106 87
261 988 172 116 99 84
261 988 173 106 90 76
261 989 172 116 95 74
260 988 174 79 63 49
260 988 175 71 55 42
260 989 174 105 89 74
260 990 172 125 102 78
271 981 160 94 71 49
271 981 161 91 68 49
270 983 160 75 53 38
270 983 161 76 53 37
271 982 160 83 60 40
271 982 161 80 58 41
270 983 162 76 52 33
270 983 163 81 60 43
271 982 162 79 55 41
271 982 163 79 54 39
271 983 162 76 51 33
271 983 163 77 53 34
269 983 165 81 61 45
268 983 167 81 59 42
269 983 166 81 58 42
269 983 167 80 58 42
271 981 165 83 63 45
271 981 166 84 63 47
271 981 167 89 67 53
270 983 164 82 62 45
270 983 165 81 60 45
271 982 164 80 57 40
271 982 165 81 60 42
271 983 164 80 56 38
270 982 166 82 59 44
270 982 167 84 60 46
270 983 166 81 58 43
271 982 166 84 61 46
271 982 167 87 63 47
267 983 170 88 69 56
267 983 171 91 71 58
264 983 175 92 74 59
265 983 174 88 69 52
265 983 175 89 69 54
267 981 175 100 81 64
266 983 173 94 75 62
267 982 173 96 76 60
267 983 172 94 73 60
267 983 173 97 77 62
266 982 175 96 77 62
266 983 174 95 76 61
266 983 175 92 72 56
267 982 174 101 82 66
267 982 175 102 82 66
267 983 174 102 84 70
271 979 172 96 78 65
271 979 173 87 72 61
270 979 174 75 58 49
270 979 175 74 58 45
271 978 175 76 62 51
271 979 174 81 66 56
271 979 175 73 58 47
268 983 168 80 58 43
268 983 169 82 58 44
269 982 168 86 63 50
269 982 169 89 67 54
269 983 168 82 59 46
269 983 169 85 62 48
268 982 171 89 70 57
268 983 170 85 64 49
268 983 171 90 70 57
269 982 170 85 63 49
269 982 171 83 62 49
270 981 169 94 72 55
271 980 169 97 75 57
271 981 168 93 69 53
271 981 169 96 73 55
270 981 170 91 70 55
270 981 171 87 66 54
271 980 170 99 78 60
271 980 171 97 76 62
271 981 170 96 74 57
271 981 171 91 68 55
270 982 168 88 65 50
270 982 169 91 70 55
270 982 170 89 68 54
269 981 172 80 60 47
269 981 173 83 64 48
268 981 174 101 83 67
268 981 175 105 86 69
269 980 175 100 85 71
269 981 174 94 77 62
269 981 175 108 93 80
268 982 172 93 75 62
268 982 173 98 80 65
268 983 172 95 77 64
269 982 172 85 65 52
269 982 173 86 68 52
268 982 174 100 80 63
270 980 172 85 68 59
270 980 173 82 65 57
270 981 172 84 66 56
270 981 173 79 60 48
271 980 172 92 73 62
271 980 173 86 71 61
270 980 174 78 59 47
270 980 175 80 61 45
267 985 163 83 61 38
267 986 161 88 66 38
267 987 160 104 81 55
267 987 161 100 77 51
266 987 163 99 76 52
267 986 162 90 68 44
267 986 163 88 65 43
267 987 162 99 77 52
267 987 163 95 72 48
264 987 165 89 65 44
265 987 164 94 69 48
265 987 165 91 66 44
264 986 167 91 69 49
264 987 166 91 68 46
264 987 167 96 73 53
265 986 166 92 71 52
265 986 167 89 68 48
267 985 164 82 57 37
267 985 165 85 61 43
266 985 166 84 60 37
266 985 167 84 62 40
267 984 166 85 64 45
267 984 167 85 64 46
267 985 166 85 62 42
267 985 167 85 63 43
266 986 164 88 60 41
266 986 165 88 63 45
266 987 164 92 67 43
267 986 164 87 61 43
266 986 166 88 66 48
265 988 163 109 87 63
265 989 163 113 89 66
265 990 163 108 81 56
265 991 163 103 75 47
266 989 161 110 83 58
267 988 160 108 83 57
267 988 161 108 84 60
267 989 160 111 84 58
267 989 161 110 84 59
266 988 162 111 89 67
266 988 163 110 88 66
266 989 162 113 88 64
266 989 163 118 95 73
267 990 160 108 80 52
267 990 161 107 79 54
267 991 160 104 78 53
267 991 161 105 77 54
266 990 162 107 77 49
266 991 162 103 73 47
266 991 163 103 73 43
264 988 165 101 77 54
264 989 164 107 81 56
264 989 165 107 81 57
265 988 164 103 79 55
265 988 165 100 76 55
265 989 164 109 86 64
264 990 164 100 70 42
264 991 164 101 72 46
268 985 160 86 66 43
268 985 161 86 65 40
269 984 160 73 50 31
269 984 161 78 54 35
269 985 160 76 56 31
269 985 161 79 58 33
268 985 162 84 63 39
268 985 163 81 60 38
269 984 162 81 60 41
269 984 163 84 64 47
269 985 162 82 60 38
268 986 160 92 71 46
268 986 161 90 68 41
268 987 160 103 80 57
268 986 162 90 69 43
270 984 160 74 51 35
270 984 161 76 52 35
270 984 162 79 56 39
270 984 163 81 59 43
268 984 164 81 60 43
268 984 165 82 61 43
268 985 164 80 57 39
269 984 164 83 64 47
269 984 165 81 61 44
268 984 166 82 61 42
268 984 167 82 61 44
268 988 160 106 79 52
268 989 160 109 81 53
268 990 160 106 78 47
268 991 160 101 76 47
265 985 168 81 60 36
265 985 169 82 59 41
264 985 170 80 56 40
264 985 171 82 60 46
265 984 171 89 67 56
265 985 170 84 60 45
265 985 171 87 64 52
264 986 168 92 72 51
264 986 169 83 63 42
265 986 168 85 64 41
265 986 169 79 58 36
264 986 170 79 55 40
266 984 169 86 63 47
266 985 168 83 63 41
266 985 169 83 62 45
267 984 168 85 66 48
267 984 169 85 65 48
267 985 168 86 66 47
266 984 170 86 61 48
266 984 171 89 66 54
266 985 170 83 58 44
267 984 170 88 67 53
267 984 171 90 68 55
264 984 173 87 68 52
264 985 172 85 64 49
264 985 173 86 66 50
265 984 172 88 69 57
265 984 173 89 70 56
264 984 174 88 69 55
264 984 175 95 76 64
265 984 174 88 69 52
266 984 172 91 70 57
266 984 173 92 73 60
268 984 168 81 59 42
259 982 183 106 88 70
259 983 182 102 84 68
259 983 183 110 91 75
263 979 183 136 113 92
261 983 179 92 65 53
263 981 179 115 93 71
263 983 176 102 84 69
263 983 177 104 83 67
262 983 178 92 64 46
262 983 179 98 68 49
263 982 178 110 87 67
263 982 179 112 88 67
263 983 178 106 82 62
261 981 183 111 87 74
260 983 181 95 77 60
261 982 181 105 80 63
261 983 180 95 71 57
261 983 181 99 76 59
260 982 182 98 77 57
260 982 183 99 80 61
260 983 182 97 78 60
261 982 182 105 82 66
261 982 183 105 84 69
262 981 181 115 87 64
263 980 181 131 108 87
263 981 180 121 97 75
263 981 181 126 101 79
262 980 183 114 85 64
262 981 182 114 85 64
262 981 183 113 85 68
263 980 182 131 107 86
263 980 183 126 101 78
263 981 182 120 94 68
262 982 180 107 78 58
262 982 181 110 82 62
262 983 180 101 72 54
263 982 180 116 91 68
263 982 181 119 94 70
262 982 182 111 84 66
257 979 189 114 96 81
256 979 190 103 81 69
256 979 191 101 81 71
257 978 191 110 92 77
257 979 190 113 94 79
257 979 191 108 89 75
258 977 191 102 85 68
259 977 190 92 74 62
259 977 191 94 76 61
258 979 189 115 97 82
259 978 189 95 77 61
259 979 188 100 82 65
259 979 189 98 80 62
258 978 190 109 91 75
258 978 191 109 92 76
258 979 190 114 96 81
259 978 190 93 75 60
257 981 187 103 79 60
257 983 185 99 75 57
256 982 187 96 75 59
256 983 186 99 79 63
256 983 187 103 84 70
257 982 186 99 76 57
257 982 187 98 74 56
257 983 186 97 74 55
259 981 185 108 91 74
258 981 186 120 101 83
258 981 187 118 98 81
259 980 186 104 86 72
259 980 187 109 91 75
259 981 186 115 97 81
259 981 187 120 102 85
258 982 185 117 96 78
258 983 184 109 87 67
258 983 185 109 86 66
259 982 184 109 90 73
259 982 185 117 98 82
259 983 184 116 95 79
258 982 186 114 93 74
259 982 186 123 105 88
256 981 188 93 71 58
256 981 189 97 79 66
257 980 189 108 89 73
257 981 188 99 76 60
257 981 189 98 75 58
256 980 190 99 80 67
256 980 191 100 82 72
256 981 190 98 80 67
256 982 188 100 80 66
258 980 188 119 101 85
258 980 189 119 101 85
259 980 188 108 90 73
260 979 187 99 80 67
261 979 186 103 80 62
261 979 187 102 80 63
263 977 187 127 104 81
262 979 185 113 83 65
263 978 185 130 106 83
263 979 184 132 108 87
263 979 185 123 97 74
262 978 187 114 87 66
262 979 186 112 84 65
262 979 187 110 83 65
263 978 186 126 102 79
263 978 187 123 99 75
263 979 186 118 91 67
260 977 189 98 79 68
261 977 189 100 77 59
260 976 191 90 70 55
260 977 190 94 76 64
260 977 191 92 73 61
261 976 190 100 78 59
261 976 191 98 75 53
261 977 190 97 76 60
260 978 188 99 81 68
260 978 189 99 81 70
260 979 188 99 82 68
261 978 188 102 81 63
261 978 189 100 78 63
261 979 188 100 80 65
260 978 190 96 79 68
262 976 189 118 95 75
262 977 188 119 95 73
262 977 189 111 85 64
263 976 188 122 100 77
263 976 189 120 99 78
263 977 188 124 101 79
262 976 190 118 96 76
263 976 190 125 104 84
262 978 188 113 87 66
260 981 184 99 79 62
260 981 185 98 79 63
261 980 185 104 79 67
261 981 184 106 83 71
261 981 185 101 79 67
260 980 186 99 80 64
260 980 187 100 81 67
260 981 186 98 80 63
261 980 186 101 79 64
260 982 184 99 80 62
262 980 184 114 86 68
262 980 185 111 82 67
262 981 184 113 86 72
263 980 184 121 95 71
257 987 179 82 65 52
259 985 179 84 66 58
259 987 176 68 52 40
259 987 177 70 53 41
258 986 179 70 54 41
258 987 178 79 64 53
258 987 179 76 59 48
259 986 178 75 55 44
259 986 179 73 54 42
259 987 178 73 56 44
256 985 183 89 72 58
257 984 183 90 69 50
257 985 182 82 62 48
257 985 183 86 66 49
256 986 181 88 73 62
256 987 180 94 77 65
256 987 181 92 76 65
257 986 181 81 65 50
257 987 180 84 69 56
257 987 181 84 69 55
256 986 182 89 73 63
256 986 183 93 77 66
257 986 182 81 63 48
258 985 181 85 60 50
259 984 181 97 79 66
259 985 180 85 66 56
259 985 181 88 66 56
258 984 182 99 76 63
258 984 183 101 78 61
258 985 182 91 69 58
259 984 182 102 82 69
259 984 183 107 86 70
258 986 180 74 57 43
258 986 181 78 59 46
258 987 180 74 58 44
259 986 180 75 54 45
257 989 177 93 75 62
256 988 179 90 73 57
256 989 178 98 78 61
256 989 179 92 73 57
257 988 178 90 73 59
257 988 179 89 72 58
257 989 178 95 77 62
256 990 176 98 76 62
256 990 177 100 79 64
256 991 176 101 78 62
257 990 176 95 76 59
257 990 177 100 82 68
256 990 178 98 77 60
258 988 176 79 63 50
258 988 177 81 66 56
258 989 176 83 65 48
258 989 177 84 67 55
259 988 176 76 61 49
259 988 177 77 62 52
259 989 176 78 61 48
258 988 178 83 68 58
258 988 179 80 64 52
256 988 180 89 71 58
260 985 177 70 50 42
261 984 177 70 38 31
261 985 176 64 37 36
261 985 177 67 40 34
260 984 179 84 64 51
260 985 178 79 60 51
260 985 179 84 64 54
261 984 178 79 51 41
261 984 179 87 63 50
261 985 178 71 46 36
260 986 176 68 53 42
260 986 177 73 57 48
260 987 176 67 52 40
260 987 177 69 52 41
261 986 176 65 47 39
260 986 178 79 62 52
262 984 176 78 52 40
262 984 177 79 48 36
262 985 176 71 44 39
262 985 177 68 35 29
263 984 176 93 74 61
263 984 177 89 66 51
262 984 178 83 54 38
260 984 180 89 70 57
260 984 181 93 75 59
261 984 180 92 70 59
256 984 184 87 68 49
256 984 185 93 74 58
256 985 184 90 73 58
257 984 184 93 72 54
257 984 185 93 72 54
256 984 186 101 83 70
258 984 184 98 75 54
266 979 179 91 74 64
267 978 179 93 77 63
267 979 178 97 82 67
267 979 179 96 81 68
265 979 181 99 79 62
264 979 182 125 103 81
264 979 183 132 109 88
265 978 182 103 81 64
265 978 183 113 91 72
265 979 182 105 84 66
267 977 181 94 78 67
266 977 183 86 66 53
267 976 183 83 66 55
267 977 182 89 73 62
267 977 183 79 60 50
266 978 181 88 73 60
266 979 180 89 73 63
266 979 181 88 71 59
267 978 180 95 79 68
267 978 181 94 78 67
267 979 180 94 78 68
266 978 182 85 66 54
266 978 183 92 72 58
267 978 182 84 66 55
265 981 177 91 72 57
264 981 178 98 78 62
264 981 179 105 84 64
265 980 179 97 78 67
265 981 178 94 75 62
265 981 179 97 78 65
264 982 177 98 79 61
264 983 176 96 78 63
264 983 177 103 84 67
265 982 176 90 70 55
265 982 177 90 70 53
265 983 176 91 71 57
264 982 178 102 82 63
266 981 177 95 77 61
267 980 177 103 86 72
267 981 176 103 83 68
267 981 177 105 87 73
266 980 178 95 79 68
266 980 179 91 75 65
266 981 178 92 75 62
267 980 178 101 86 73
266 982 176 96 76 61
266 982 177 91 71 55
264 980 180 110 89 68
264 980 181 120 97 77
264 981 180 112 90 69
265 980 180 98 80 64
265 980 181 101 80 60
264 980 182 130 106 85
266 980 180 87 70 60
269 977 179 94 78 64
268 979 177 102 85 70
269 979 176 105 90 77
269 979 177 105 90 76
268 978 179 86 69 52
268 979 178 94 78 61
268 979 179 89 72 55
269 978 178 96 81 66
269 978 179 92 76 61
269 979 178 99 83 69
271 977 177 69 52 44
270 977 178 90 74 60
270 977 179 92 76 62
271 976 178 72 54 46
271 976 179 77 60 49
271 977 178 74 56 46
271 977 179 83 66 54
270 978 177 86 70 57
270 979 176 83 67 53
270 979 177 94 79 65
271 978 176 71 54 43
271 978 177 72 55 42
270 978 178 94 78 65
271 978 178 80 63 52
268 977 180 85 66 52
268 977 181 87 68 55
269 976 181 88 71 55
269 977 180 89 72 57
269 977 181 86 68 53
268 976 182 91 75 63
268 976 183 93 78 67
268 977 182 89 73 60
269 976 182 88 70 55
268 978 180 86 67 54
270 976 180 90 74 60
270 976 181 93 76 63
270 977 180 91 74 61
271 976 180 81 65 52
271 976 181 81 65 51
270 976 182 95 80 66
268 980 176 105 87 71
268 980 177 102 84 69
268 981 176 101 82 65
269 980 176 107 92 80
265 977 184 110 89 69
265 977 185 119 97 76
264 976 187 121 99 75
264 977 186 128 106 82
265 976 186 111 91 73
265 976 187 117 96 76
265 977 186 123 101 80
264 978 184 132 110 87
264 978 185 133 110 86
264 979 184 137 113 90
265 978 184 118 96 76
264 978 186 132 109 84
266 976 185 88 68 54
266 977 184 90 69 53
266 977 185 97 76 58
267 976 184 78 59 48
267 976 185 80 62 51
267 977 184 77 57 44
266 976 186 91 71 54
264 976 188 116 93 68
268 976 184 85 68 58
279 971 165 104 86 70
279 971 166 105 83 65
279 971 167 111 90 69
277 975 162 93 71 58
277 975 163 99 76 62
279 973 162 82 67 52
279 973 163 94 76 62
278 975 160 87 73 62
278 975 161 87 70 56
279 974 160 89 74 64
279 974 161 81 67 55
279 975 160 89 74 64
279 975 161 84 70 59
278 974 162 91 73 59
278 974 163 99 79 66
278 975 162 95 75 62
278 975 163 97 76 61
279 974 162 86 70 56
279 974 163 95 77 63
277 975 164 107 82 65
277 975 165 112 89 68
277 975 166 99 77 57
277 975 167 81 59 44
278 973 164 105 86 71
278 973 165 110 87 69
279 972 164 103 85 73
279 972 165 106 88 72
279 973 164 106 88 74
279 973 165 108 88 72
278 973 166 120 98 79
278 973 167 121 102 84
279 972 166 110 87 70
279 972 167 114 93 73
279 973 166 116 94 74
278 974 164 104 82 65
278 974 165 112 89 69
278 975 164 104 80 64
278 974 166 118 97 78
278 974 167 107 87 70
275 975 173 81 64 50
274 975 174 78 60 47
274 975 175 84 67 54
275 974 175 75 58 45
275 975 174 76 58 43
275 975 175 78 60 48
279 971 168 104 83 64
279 971 169 96 79 64
279 970 171 88 73 59
279 971 170 91 76 63
279 971 171 96 81 68
279 969 173 90 75 64
279 968 174 85 70 57
279 968 175 83 67 54
279 969 174 91 76 64
279 969 175 88 73 61
279 970 172 96 81 68
279 970 173 97 82 72
279 971 172 94 79 67
279 971 173 87 70 59
278 970 175 80 62 52
278 971 174 81 63 54
278 971 175 79 61 51
279 970 174 93 77 67
279 970 175 84 67 55
279 971 174 81 63 52
276 975 169 75 59 49
277 974 169 81 61 52
277 975 168 77 57 46
277 975 169 79 60 50
276 975 170 76 61 51
276 975 171 81 67 57
277 974 170 78 59 51
277 974 171 74 55 46
277 975 170 76 58 50
277 975 171 77 61 52
278 973 168 111 93 78
278 973 169 97 79 66
279 972 168 111 92 76
279 972 169 108 93 81
278 972 170 96 79 66
278 972 171 88 70 58
278 973 170 88 68 57
278 973 171 78 58 50
279 972 170 103 88 76
279 972 171 93 77 63
278 974 168 92 72 58
278 974 169 86 65 54
278 974 170 80 61 54
277 973 172 74 57 47
277 973 173 79 65 54
276 973 174 84 70 60
276 973 175 78 64 52
277 972 174 80 65 55
277 972 175 83 69 59
277 973 174 82 69 58
277 973 175 83 69 59
276 974 173 83 69 57
276 975 172 82 67 56
276 975 173 81 66 52
277 974 172 79 64 54
277 974 173 82 68 56
276 974 174 81 66 54
276 974 175 75 59 47
276 975 174 79 63 49
278 972 172 78 60 49
278 972 173 77 58 47
278 973 172 74 55 44
278 973 173 76 59 47
278 972 174 78 61 51
278 972 175 81 65 55
283 964 167 95 78 66
283 965 166 95 77 64
283 965 167 97 80 66
282 967 165 86 67 51
283 966 164 77 60 51
283 966 165 82 62 50
283 967 164 75 58 51
283 967 165 77 57 45
282 966 167 104 88 74
282 967 166 104 87 72
282 967 167 106 90 76
283 966 166 93 74 60
283 966 167 104 87 72
283 967 166 92 74 59
287 960 163 83 65 55
287 961 162 82 63 52
287 961 163 84 67 57
287 963 161 81 66 51
286 962 163 82 65 53
286 963 163 82 67 53
287 962 162 85 69 57
287 962 163 84 67 56
287 963 162 83 69 55
287 963 163 83 68 55
285 961 165 83 66 54
285 960 166 88 68 56
285 960 167 95 73 60
285 961 166 86 67 55
285 961 167 95 73 60
285 962 165 86 70 57
285 963 164 85 69 55
285 963 165 86 69 54
284 962 167 94 77 66
284 963 166 89 71 58
284 963 167 95 78 68
285 962 166 87 68 55
285 962 167 93 73 61
285 963 166 85 67 53
286 960 164 80 62 50
286 960 165 84 67 53
286 961 164 82 64 52
286 961 165 84 68 55
287 960 164 83 65 54
287 961 164 81 62 52
286 960 166 84 65 53
286 962 164 83 67 54
286 962 165 84 68 53
286 963 164 83 68 53
285 965 163 82 66 55
285 967 160 85 69 57
285 967 161 85 70 58
284 966 163 78 61 55
284 967 162 82 69 56
284 967 163 78 64 55
285 966 162 79 62 49
285 966 163 83 68 58
285 967 162 81 66 53
285 967 163 84 71 61
286 965 161 87 71 59
287 964 160 82 66 53
287 964 161 83 67 52
287 965 160 84 67 56
287 965 161 86 70 57
286 964 162 81 65 52
286 964 163 82 66 52
286 965 162 79 61 48
286 965 163 80 63 50
287 964 162 83 68 54
286 966 160 89 72 62
286 966 161 86 69 58
286 967 160 87 70 59
286 967 161 87 70 59
287 966 160 82 64 53
286 966 162 78 59 47
284 964 165 85 67 53
284 965 164 82 64 54
284 965 165 84 67 54
285 964 164 81 64 50
285 964 165 81 63 47
285 965 164 82 64 55
284 964 166 91 74 62
284 964 167 98 81 71
284 965 166 88 69 57
284 966 164 78 61 52
284 966 165 81 63 52
284 967 164 75 59 52
283 961 171 81 65 53
283 963 168 93 75 67
283 963 169 92 78 69
282 963 171 80 61 46
283 962 170 85 71 60
283 962 171 81 66 54
283 963 170 84 69 60
283 963 171 79 63 49
281 962 175 79 64 53
281 963 175 81 65 54
283 960 172 83 66 53
283 960 173 87 69 55
283 961 172 82 65 52
283 961 173 87 69 52
282 960 174 85 68 51
282 960 175 85 69 55
282 961 174 90 73 56
282 961 175 89 73 59
283 960 174 88 72 55
282 962 173 95 78 60
282 963 172 88 70 55
282 963 173 97 80 64
283 962 172 82 64 50
283 962 173 87 68 51
283 963 172 83 64 50
282 962 174 94 78 62
282 962 175 86 71 61
282 963 174 95 79 65
281 967 168 90 73 60
281 967 169 90 71 57
281 966 171 102 87 73
281 967 170 100 84 70
281 967 171 95 79 64
282 965 169 84 66 57
283 964 168 94 77 66
283 964 169 89 75 66
283 965 168 96 80 67
283 965 169 90 75 66
282 964 170 78 60 49
282 964 171 84 66 51
282 965 170 81 62 49
282 965 171 95 79 65
283 964 170 82 65 56
282 966 168 97 81 70
282 966 169 86 69 59
282 967 168 94 78 67
282 967 169 86 68 57
283 966 168 99 83 69
282 966 170 87 69 55
282 966 171 101 85 72
282 967 170 87 69 56
281 965 172 100 85 71
281 965 173 88 72 59
280 965 175 83 68 58
281 964 174 84 68 55
281 964 175 81 65 55
281 965 174 79 63 52
281 965 175 81 64 54
280 967 173 75 58 52
281 966 172 94 78 64
281 966 173 80 63 52
281 967 172 81 64 50
281 967 173 76 59 51
280 966 174 79 62 51
280 966 175 82 66 55
280 967 174 78 61 52
280 967 175 82 65 54
281 966 174 77 60 50
281 967 174 76 60 53
282 964 172 96 80 66
282 964 173 102 86 72
282 965 172 103 87 74
282 965 173 97 82 68
282 964 174 90 74 59
284 960 169 100 83 70
284 961 168 96 75 61
284 961 169 94 75 63
285 960 168 101 79 64
285 960 169 103 82 67
285 961 168 98 77 62
284 960 170 92 75 65
284 960 171 84 66 56
284 961 170 90 74 65
284 961 171 82 67 55
284 962 168 91 72 62
284 962 169 89 71 61
284 963 168 91 72 63
284 963 169 90 73 65
284 962 170 90 76 66
284 960 172 83 66 55
280 971 163 86 71 61
281 971 162 84 71 61
281 971 163 84 69 61
283 969 161 86 73 63
282 969 163 77 63 53
283 968 162 84 71 61
283 968 163 77 64 53
283 969 162 86 72 62
283 969 163 78 65 55
282 971 161 88 72 61
283 970 160 75 57 41
283 970 161 85 69 61
283 971 160 78 63 48
283 971 161 86 72 62
282 970 162 83 68 56
282 970 163 75 60 49
282 971 162 84 69 57
283 970 162 87 72 61
281 969 165 101 85 73
281 968 167 98 82 68
281 969 166 107 91 76
281 969 167 94 77 63
280 971 164 97 79 66
280 971 165 106 89 76
281 970 164 92 76 66
281 970 165 103 85 71
281 971 164 94 76 65
280 970 166 100 83 69
280 970 167 98 79 63
280 971 166 102 83 68
280 971 167 106 85 68
281 970 166 107 90 76
282 968 164 74 57 48
282 968 165 85 67 55
282 969 164 80 63 52
282 969 165 96 79 67
283 968 164 73 58 49
282 968 166 109 92 79
282 968 167 106 90 76
282 970 164 79 64 56
280 973 161 84 70 58
281 972 161 93 77 65
281 973 160 90 73 59
281 973 161 95 80 69
280 972 162 78 64 53
280 972 163 87 71 60
280 973 162 78 64 52
281 972 162 85 71 61
280 974 160 95 80 68
280 974 161 83 67 56
282 972 160 81 64 49
282 972 161 87 70 56
280 972 164 101 83 70
284 968 161 85 72 60
284 969 160 81 66 49
284 969 161 84 71 59
285 968 160 84 69 55
285 968 161 85 71 58
284 968 162 84 72 61
284 970 160 76 59 44
280 969 168 103 84 68
280 969 169 109 92 77
281 968 168 92 74 59
281 968 169 102 84 68
281 969 168 98 79 63
281 969 169 109 93 77
280 968 171 77 62 53
280 969 170 98 81 68
280 969 171 79 63 53
281 968 170 103 88 74
281 968 171 86 71 58
280 970 168 107 88 71
280 970 169 101 83 68
280 971 168 104 84 67
280 971 169 94 75 60
280 970 170 84 68 57
280 970 171 80 64 49
280 971 170 85 69 56
280 968 172 75 57 48
280 968 173 74 59 51
280 969 172 80 64 51
280 969 173 85 70 60
281 968 172 76 58 48
280 968 174 81 66 56
280 968 175 82 67 56
280 969 174 86 72 61
280 970 172 88 72 58
279 962 179 85 67 55
279 963 179 85 68 57
277 960 183 97 76 64
277 961 183 91 71 57
277 962 183 86 66 52
277 963 182 82 63 52
277 963 183 83 64 51
279 960 180 92 75 60
279 960 181 94 76 62
279 961 180 92 74 62
279 961 181 95 77 65
278 960 182 98 80 66
278 960 183 98 79 66
278 961 182 93 74 61
279 960 182 95 76 62
278 962 181 86 66 54
278 963 181 80 60 50
279 962 180 87 69 58
279 962 181 88 68 57
279 963 180 85 67 58
279 963 181 83 64 55
278 962 182 82 61 48
278 963 182 79 59 48
279 964 179 87 72 62
279 965 178 88 72 64
279 965 179 82 65 55
279 966 177 84 68 57
279 967 176 81 64 50
279 967 177 80 63 51
278 967 179 83 64 55
279 966 178 80 63 53
279 966 179 79 60 49
279 967 178 81 65 54
279 967 179 82 65 55
276 964 183 82 65 51
276 965 183 84 68 55
277 964 182 82 64 53
277 964 183 82 64 52
277 965 182 82 65 52
277 965 183 85 69 55
277 967 181 84 69 55
276 966 183 87 71 58
276 967 183 86 69 56
277 966 182 83 65 51
277 966 183 87 70 56
277 967 182 88 71 58
277 967 183 91 74 61
278 964 181 80 63 53
278 965 180 79 62 52
278 965 181 81 65 55
279 964 180 83 66 58
279 964 181 81 62 54
279 965 180 80 62 52
278 964 182 81 64 53
278 965 182 81 65 53
278 966 180 82 64 54
278 966 181 81 64 53
278 967 180 81 64 52
278 967 181 80 63 51
279 966 180 80 62 51
278 966 182 80 63 49
273 962 187 92 72 55
273 963 187 92 73 58
275 960 185 98 74 62
275 961 185 94 72 58
274 960 187 106 85 71
274 961 186 99 76 62
274 961 187 101 82 66
275 960 186 101 77 63
275 961 186 96 74 59
274 963 185 86 67 53
275 962 185 92 73 59
275 963 185 87 69 55
274 962 186 94 74 60
274 962 187 95 76 59
274 963 186 89 70 55
274 963 187 90 71 55
275 962 186 95 74 60
272 960 189 113 86 73
272 961 189 105 78 63
273 960 188 109 86 71
273 960 189 114 88 76
273 961 188 105 83 67
273 961 189 105 79 63
272 960 190 118 92 78
272 962 189 102 77 63
272 963 188 94 71 56
272 963 189 97 74 60
273 962 188 98 75 58
273 962 189 100 75 59
273 963 188 95 74 59
274 960 188 110 89 75
274 961 188 106 85 69
273 964 186 87 70 57
273 964 187 88 69 56
273 965 186 88 71 58
273 965 187 89 70 58
272 966 187 89 68 55
272 967 187 89 69 55
273 966 186 91 74 61
273 966 187 89 69 57
273 967 186 89 72 60
273 967 187 89 69 55
274 964 185 81 65 52
274 965 185 85 70 59
275 964 184 80 64 50
275 964 185 80 63 49
275 965 184 83 67 56
275 965 185 83 67 57
274 964 186 85 67 54
274 965 186 89 74 61
274 966 185 86 70 59
274 967 185 86 69 58
275 966 184 85 70 59
275 967 184 84 67 56
274 966 186 90 75 63
274 967 186 91 75 64
272 964 188 94 73 60
272 964 189 97 76 63
272 965 188 93 72 58
273 964 188 91 69 55
272 966 188 93 73 58
272 967 188 94 74 58
276 960 185 97 72 59
276 961 184 94 74 60
276 961 185 96 74 61
277 960 184 95 72 61
277 960 185 97 71 60
277 961 184 92 73 59
276 962 184 89 70 55
276 962 185 92 72 58
276 963 184 86 67 53
276 964 184 83 65 52
276 965 184 83 68 56
276 966 184 87 71 60
276 967 184 84 67 54
275 968 183 80 62 50
275 969 183 78 58 45
275 971 181 81 61 47
274 971 183 88 73 60
275 970 182 77 57 43
275 970 183 79 60 47
275 971 182 83 66 53
275 971 183 84 68 54
273 975 177 75 57 45
272 975 179 77 63 55
273 974 179 72 54 42
273 975 178 71 53 43
273 975 179 72 56 47
275 973 176 76 57 45
275 973 177 78 59 47
274 973 178 83 67 54
274 973 179 86 69 59
275 972 179 80 62 48
275 973 178 80 63 49
275 973 179 81 63 50
274 974 177 85 68 56
274 975 176 85 69 57
274 975 177 82 65 53
275 974 176 77 59 47
275 974 177 81 63 49
275 975 176 83 66 54
274 974 178 82 65 53
274 974 179 80 64 53
274 975 178 76 58 46
273 973 181 76 60 48
272 973 182 83 68 58
272 973 183 80 62 51
273 972 182 78 62 50
273 972 183 82 66 54
273 973 182 77 61 50
273 973 183 79 62 50
272 974 181 80 65 55
272 975 180 77 61 52
272 975 181 76 60 49
273 974 180 75 59 46
273 974 181 79 63 54
272 974 182 79 64 53
272 974 183 76 57 45
274 972 181 86 71 58
274 973 180 85 69 57
274 973 181 84 69 56
275 972 180 81 61 47
275 972 181 84 66 53
275 973 180 86 69 57
274 972 182 86 71 59
274 972 183 87 73 61
277 969 179 86 69 58
277 970 177 83 66 56
277 971 176 80 66 55
277 971 177 82 67 57
276 970 179 85 69 60
276 971 178 86 71 62
276 971 179 85 69 59
277 970 178 84 67 56
277 970 179 86 69 61
277 971 178 85 70 60
278 968 177 77 60 44
278 969 176 74 56 39
278 969 177 78 61 47
279 968 176 83 68 55
279 968 177 82 67 54
279 969 176 81 64 50
278 968 178 79 64 50
278 968 179 80 63 49
278 969 178 81 64 51
278 969 179 84 68 56
279 968 178 84 69 58
278 970 176 77 60 46
278 970 177 79 62 49
278 971 176 77 61 49
276 969 181 82 63 51
277 968 180 88 72 61
277 968 181 87 71 59
277 969 180 86 69 58
277 969 181 83 64 53
276 968 182 83 64 51
276 968 183 82 64 52
276 969 182 83 63 52
276 969 183 80 60 50
277 968 182 86 69 57
277 969 182 83 63 52
276 970 180 83 65 54
276 970 181 83 64 54
276 971 180 83 65 53
276 971 181 83 63 51
277 970 180 83 66 56
276 970 182 81 61 49
278 968 180 84 69 56
276 972 177 82 66 56
276 973 176 78 62 51
276 973 177 78 60 49
277 972 176 84 70 60
277 972 177 83 68 58
276 972 178 83 67 55
276 972 179 84 67 55
276 973 178 82 65 53
273 969 185 91 72 59
272 968 186 89 71 57
272 968 187 92 72 57
272 969 186 93 75 61
272 969 187 96 78 63
273 968 186 88 69 55
273 969 186 90 72 58
272 971 185 85 65 49
273 970 185 89 70 57
273 971 184 85 68 54
273 971 185 86 67 53
272 970 186 88 68 51
272 971 186 89 68 52
273 970 186 90 71 57
274 968 185 87 68 57
274 969 184 84 66 53
274 969 185 89 70 58
275 968 184 82 64 52
275 969 184 81 62 49
274 970 184 87 69 56
274 971 184 87 70 57
275 970 184 82 64 49
272 968 188 96 76 60
272 972 184 82 64 52
272 972 185 86 66 51
272 973 184 80 59 46
273 972 184 85 67 55
272 972 186 93 73 59
281 960 177 79 66 52
281 961 176 81 67 55
281 961 177 83 70 58
280 960 178 82 66 50
280 960 179 84 67 53
280 961 178 87 73 60
280 961 179 88 73 60
281 960 178 82 67 53
281 961 178 85 71 59
280 963 177 84 70 58
281 962 176 78 64 51
281 962 177 79 65 52
281 963 176 78 64 52
281 963 177 81 68 55
280 962 178 81 66 51
280 962 179 84 68 54
280 963 178 86 71 59
280 963 179 84 68 56
282 960 176 83 68 56
282 960 177 80 65 52
282 961 176 82 67 55
280 960 180 87 69 55
280 964 176 83 69 57
280 964 177 87 73 62
280 965 176 86 72 61
280 965 177 86 71 61
281 964 176 81 67 55
280 964 178 89 76 66
280 964 179 88 73 62
280 965 178 89 74 65
280 966 176 84 69 57
280 966 177 86 72 60
280 967 176 83 67 54
273 979 160 88 63 41
273 979 161 99 76 52
275 977 160 83 62 48
275 977 161 90 64 51
275 977 162 100 74 59
275 977 163 100 79 59
274 978 160 85 59 41
274 978 161 95 71 50
274 979 160 84 59 40
274 979 161 96 72 50
275 978 160 82 58 44
275 978 161 91 66 51
274 978 162 100 80 57
274 978 163 96 78 57
274 979 162 98 77 55
274 979 163 87 69 49
275 978 162 101 79 58
275 978 163 95 76 57
273 979 166 86 68 53
275 977 164 91 72 56
275 977 165 76 58 47
275 977 166 71 54 44
275 977 167 77 60 48
274 979 164 74 55 40
274 979 165 75 56 43
275 978 164 82 64 49
275 978 165 71 53 44
274 979 166 82 65 51
274 979 167 85 67 53
275 978 166 75 57 47
275 978 167 81 64 52
272 980 160 98 72 49
272 980 161 99 77 59
272 981 160 97 74 55
272 981 161 93 72 54
273 980 160 92 66 42
273 980 161 100 77 55
272 980 162 91 71 53
272 981 162 83 62 46
272 981 163 80 57 43
273 980 162 91 71 51
273 980 163 79 58 40
272 981 164 82 61 44
272 981 165 85 66 48
273 980 164 76 54 37
273 980 165 83 64 48
272 980 167 89 69 55
272 981 166 88 68 53
272 981 167 89 69 54
273 980 166 89 71 55
273 980 167 86 67 51
274 980 164 72 51 35
274 980 165 72 51 36
276 976 161 88 65 53
276 977 160 86 67 55
276 977 161 87 63 51
277 976 160 86 70 59
277 976 161 89 69 56
277 977 160 85 69 58
276 976 162 92 68 54
276 976 163 102 78 60
276 977 162 97 73 57
276 977 163 102 78 57
277 976 162 92 70 57
277 976 163 102 77 63
278 976 160 87 73 62
278 976 161 88 73 61
276 976 164 103 80 61
276 976 165 91 70 55
276 977 164 97 77 60
276 977 165 82 64 51
277 976 164 108 86 66
277 976 165 99 78 60
276 976 166 76 57 46
276 976 167 74 55 47
276 977 166 72 54 44
276 977 167 75 58 48
277 976 166 83 62 46
277 976 167 76 56 44
273 979 168 88 69 51
273 979 169 97 79 64
272 979 170 94 73 52
272 979 171 99 79 61
273 978 171 89 71 52
273 979 170 96 77 60
273 979 171 91 72 51
275 977 168 81 65 52
275 977 169 82 67 56
274 977 170 91 77 66
274 977 171 90 75 61
275 976 170 84 69 59
275 976 171 85 70 58
275 977 170 86 71 60
275 977 171 90 74 63
274 978 168 86 70 59
274 978 169 87 71 59
274 979 168 86 68 54
274 979 169 94 77 63
275 978 168 84 68 57
275 978 169 85 70 58
274 978 170 96 81 70
274 978 171 90 73 58
273 977 173 90 73 57
272 977 175 87 71 59
273 976 174 89 74 60
273 976 175 88 72 59
273 977 174 92 75 60
273 977 175 86 69 56
272 978 173 99 81 66
272 979 172 102 85 70
272 979 173 94 78 64
273 978 172 94 76 59
273 978 173 97 79 64
272 978 174 88 72 58
272 978 175 84 69 58
273 978 174 93 76 59
274 976 172 84 68 54
274 976 173 83 66 51
274 977 172 86 68 52
274 977 173 88 70 55
275 976 172 84 69 56
275 976 173 81 64 48
274 976 174 81 65 51
274 976 175 87 72 59
274 978 172 86 68 50
272 980 168 95 75 60
272 980 169 99 77 61
273 980 168 91 70 55
273 980 169 97 77 63
272 980 170 98 76 57
272 980 171 101 81 63
276 976 168 78 61 51
276 976 169 76 61 51
276 977 168 79 63 51
276 976 170 81 66 56
276 976 171 84 69 59
272 976 177 78 65 57
272 977 176 81 67 58
272 977 177 71 56 48
273 976 176 80 63 51
273 976 177 75 59 49
272 976 178 73 57 51
272 976 179 75 60 53
273 976 178 71 56 48
274 976 176 85 69 57
272 976 180 76 60 49
