ply
format ascii 1.0
comment Version 2, Copyright 2017, 8i Labs, Inc.
comment frame_to_world_scale 0.179523
comment frame_to_world_translation -45.2095 7.18301 -54.3561
comment width 1023
element vertex 49
property float x
property float y
property float z
property uchar red
property uchar green
property uchar blue
end_header
256 153 31 124 106 92
257 153 31 128 108 97
256 154 29 128 111 105
256 155 28 143 124 108
256 155 29 136 117 107
257 155 28 144 124 110
257 155 29 131 116 106
256 154 30 127 110 99
256 154 31 122 107 95
256 155 30 127 112 103
257 154 30 131 114 102
257 154 31 128 109 97
257 155 30 130 115 104
258 154 30 131 115 102
258 154 31 131 112 97
258 155 30 130 115 104
258 155 31 123 109 97
259 155 31 123 107 93
256 156 27 141 122 107
256 157 27 140 121 106
257 156 27 141 122 109
257 157 27 134 109 93
256 158 27 138 110 88
257 158 27 131 108 93
256 156 28 139 121 107
256 157 28 143 123 107
257 156 28 141 121 105
257 156 29 132 116 102
257 157 28 129 107 92
257 157 29 120 99 86
257 156 30 126 111 99
257 157 30 117 96 80
257 157 31 120 101 85
256 158 28 134 105 85
256 159 28 133 104 82
256 159 29 131 98 77
257 158 28 127 102 86
257 158 29 125 98 81
257 159 28 132 106 85
257 159 29 130 100 79
256 159 30 132 101 85
256 159 31 126 101 84
257 158 30 121 94 77
257 158 31 125 93 75
257 159 30 129 96 78
257 159 31 130 93 77
258 156 30 118 105 93
258 156 31 119 105 91
258 157 31 120 98 79
