ply
format ascii 1.0
comment Version 2, Copyright 2017, 8i Labs, Inc.
comment frame_to_world_scale 0.179523
comment frame_to_world_translation -45.2095 7.18301 -54.3561
comment width 1023
element vertex 264
property float x
property float y
property float z
property uchar red
property uchar green
property uchar blue
end_header
257 194 195 42 35 45
257 195 195 39 34 46
258 192 192 64 26 35
258 192 193 61 31 36
258 193 192 50 27 36
258 193 193 50 32 38
258 192 194 56 34 39
258 192 195 51 32 44
258 193 194 48 36 40
258 193 195 45 35 44
258 194 192 39 26 40
258 194 193 40 32 43
258 195 192 39 24 43
258 195 193 38 28 45
258 194 194 41 35 43
258 194 195 42 34 44
258 195 194 40 33 48
257 192 197 45 33 45
257 193 196 43 29 44
257 193 197 43 31 44
256 192 199 52 35 48
256 193 199 47 32 45
257 192 198 44 30 43
257 192 199 53 35 48
257 193 198 43 30 42
257 194 196 42 33 46
257 194 197 42 29 43
257 195 196 40 34 45
257 195 197 41 31 43
256 194 198 45 38 46
256 194 199 45 38 47
256 195 198 40 32 41
256 195 199 40 39 48
257 194 198 44 33 43
257 195 198 40 30 41
258 192 196 48 32 45
258 192 197 47 35 47
258 193 196 42 34 44
257 196 194 40 33 48
257 196 195 38 34 46
257 197 194 40 32 44
257 197 195 38 33 43
257 198 194 40 34 43
257 198 195 39 36 40
257 199 194 38 29 44
257 199 195 39 33 42
258 196 192 38 27 42
258 196 193 41 28 46
258 197 192 38 32 41
258 197 193 39 30 42
258 196 194 42 32 49
258 197 194 40 29 43
258 198 192 35 31 44
258 198 193 36 30 41
258 199 192 41 37 58
258 199 193 38 36 50
258 198 194 40 30 41
258 199 194 38 29 43
256 196 197 33 35 43
256 197 197 35 36 44
257 196 196 36 36 43
257 196 197 35 34 42
257 197 196 37 37 42
257 197 197 35 36 42
256 196 198 33 33 46
256 196 199 34 35 54
256 197 198 40 42 54
256 197 199 44 47 67
256 198 197 38 37 45
256 199 197 35 34 44
257 198 196 37 36 41
257 198 197 39 38 44
257 199 196 37 33 40
257 199 197 37 34 42
256 198 198 43 45 57
256 198 199 54 59 75
256 199 198 38 41 55
256 199 199 39 49 69
256 192 200 51 39 54
256 193 200 48 36 51
256 194 200 45 38 51
256 195 200 41 39 51
256 196 200 37 36 56
257 200 194 36 27 51
257 200 195 35 29 50
257 201 195 29 33 57
257 202 195 25 43 67
257 203 194 41 64 87
257 203 195 35 58 80
258 200 192 50 48 67
258 200 193 38 44 59
258 201 192 63 62 76
258 201 193 36 45 64
258 200 194 38 36 54
258 201 194 30 38 60
258 202 192 70 70 82
258 202 193 42 54 73
258 203 192 72 75 86
258 203 193 52 66 84
258 202 194 25 45 68
258 203 194 36 59 82
256 200 197 30 33 48
256 201 197 28 43 57
257 200 196 34 27 41
257 200 197 32 28 42
257 201 196 33 42 56
257 201 197 33 42 57
256 200 198 33 40 57
256 201 198 32 48 65
256 202 197 40 58 74
256 203 197 36 63 82
257 202 196 34 53 70
257 202 197 40 57 74
257 203 196 33 59 80
257 203 197 36 61 81
256 202 198 37 57 75
256 203 198 34 63 85
257 204 194 36 63 89
257 204 195 33 63 85
257 205 194 33 60 91
257 205 195 28 61 85
257 206 194 32 58 89
257 206 195 31 59 85
257 207 194 37 56 83
257 207 195 26 56 81
258 204 192 74 78 89
258 204 193 55 69 89
258 205 192 77 80 92
258 205 193 56 68 90
258 204 194 37 62 91
258 205 194 42 62 93
258 206 192 83 85 95
258 206 193 64 72 91
258 207 192 84 85 93
258 207 193 69 73 89
258 206 194 45 63 92
256 204 197 17 60 85
256 205 197 22 58 86
257 204 196 33 63 85
257 204 197 26 61 85
257 205 196 28 59 84
257 205 197 23 57 84
256 204 198 22 61 88
256 205 198 25 61 91
256 206 197 24 56 85
256 207 197 26 56 83
257 206 196 28 57 83
257 206 197 25 56 83
257 207 196 25 56 80
256 206 198 34 63 92
256 207 198 37 62 90
257 209 193 69 71 79
257 208 194 45 57 81
257 208 195 28 54 79
257 209 194 47 54 77
257 209 195 35 53 78
257 210 193 70 64 72
257 211 193 77 65 73
257 210 194 55 48 72
257 210 195 45 48 78
257 211 194 65 47 68
257 211 195 55 45 76
258 208 192 91 92 96
258 208 193 77 80 90
258 209 192 89 88 92
258 209 193 81 81 86
258 210 192 86 81 84
258 210 193 77 72 77
258 211 192 91 82 86
258 211 193 83 74 80
256 208 197 36 61 84
256 209 196 47 61 80
256 209 197 47 62 82
257 208 196 29 57 79
257 209 196 40 59 78
256 208 198 45 65 90
256 209 198 55 64 86
256 210 196 52 54 80
256 210 197 59 55 83
256 211 196 56 46 80
256 211 197 61 45 80
257 210 196 48 52 79
257 211 196 53 45 80
256 210 198 72 64 90
256 211 198 72 53 86
257 212 193 66 52 63
257 213 193 62 53 65
257 212 194 66 47 65
257 212 195 59 46 70
257 213 194 66 49 64
257 213 195 63 48 65
257 214 193 61 57 71
257 215 192 47 64 85
257 215 193 56 60 77
256 215 195 70 45 64
257 214 194 66 53 66
257 214 195 68 46 62
257 215 194 61 57 70
257 215 195 67 47 64
258 212 192 75 64 73
258 212 193 69 56 66
258 213 192 63 56 70
258 213 193 60 48 63
258 214 192 54 57 74
258 215 192 45 63 84
256 212 196 57 48 76
256 212 197 60 47 75
256 213 196 65 50 67
256 213 197 73 52 70
257 212 196 54 46 75
257 213 196 60 48 68
256 212 198 65 53 76
256 213 198 80 58 74
256 214 196 76 52 63
256 214 197 87 55 68
256 215 196 79 43 58
256 215 197 91 43 61
256 214 198 93 55 70
257 216 192 48 65 88
257 216 193 47 61 83
257 217 192 43 61 85
257 217 193 49 61 84
256 216 194 55 50 72
256 216 195 67 47 66
256 217 194 57 52 77
256 217 195 64 45 68
257 216 194 56 55 75
257 217 194 59 59 82
257 218 192 49 63 85
257 218 193 54 59 82
257 219 192 57 61 82
257 219 193 62 57 77
256 218 194 64 53 80
256 218 195 66 45 73
256 219 194 70 51 72
256 219 195 72 47 73
257 218 194 60 58 81
257 219 194 65 54 77
258 216 192 45 65 89
258 217 192 44 63 87
256 216 196 81 35 50
256 216 197 90 28 49
256 217 196 84 36 50
256 218 196 77 34 57
256 219 196 77 57 79
256 221 193 89 33 54
257 220 192 62 58 78
257 220 193 69 56 72
257 221 192 76 54 69
257 221 193 80 47 63
256 220 194 79 55 69
256 220 195 81 47 65
256 221 194 87 42 60
256 221 195 91 47 61
256 222 193 87 30 53
256 223 193 91 47 64
257 222 192 83 40 63
257 222 193 86 35 59
257 223 192 93 39 66
257 223 193 91 41 62
256 222 194 96 33 58
256 222 195 101 45 63
256 223 194 93 47 62
256 223 195 99 58 68
