ply
format ascii 1.0
comment Version 2, Copyright 2017, 8i Labs, Inc.
comment frame_to_world_scale 0.179523
comment frame_to_world_translation -45.2095 7.18301 -54.3561
comment width 1023
element vertex 1609
property float x
property float y
property float z
property uchar red
property uchar green
property uchar blue
end_header
261 224 160 121 97 95
261 224 161 116 97 94
261 225 160 123 92 93
261 225 161 117 90 94
261 224 162 111 96 93
261 224 163 104 95 93
261 225 162 110 90 94
261 225 163 91 85 93
261 226 160 125 93 94
261 226 161 118 86 93
261 227 160 127 96 96
261 227 161 123 91 97
261 226 162 110 87 95
261 226 163 96 86 96
261 227 162 115 90 97
261 227 163 102 89 99
262 224 163 95 87 89
262 225 163 95 85 91
261 224 164 98 93 95
261 224 165 78 84 96
261 225 164 78 85 97
261 225 165 71 83 98
261 225 167 56 85 108
261 226 164 82 86 99
261 226 165 66 84 104
261 227 164 87 86 101
261 227 165 71 85 104
261 226 166 54 82 106
261 226 167 47 81 106
261 227 166 61 84 107
261 227 167 54 84 109
262 224 164 86 86 92
262 224 165 73 81 95
262 225 164 81 83 93
262 225 165 64 81 99
262 224 166 63 82 100
262 224 167 50 80 102
262 225 166 60 84 105
262 225 167 52 83 106
262 226 166 56 85 108
262 226 167 47 82 107
261 228 160 126 102 101
261 228 161 123 97 100
261 229 160 125 105 102
261 229 161 119 97 99
261 228 162 119 97 101
261 228 163 111 95 104
261 229 162 116 95 99
261 229 163 113 93 103
261 230 160 128 110 107
261 230 161 120 102 102
261 231 160 131 115 108
261 231 161 124 108 107
261 230 162 118 98 102
261 230 163 116 95 103
261 231 162 119 100 103
261 231 163 117 98 103
261 228 164 103 92 105
261 228 165 90 89 105
261 229 164 110 93 106
261 229 165 101 90 106
261 228 166 73 84 104
261 228 167 61 82 104
261 229 166 89 88 104
261 229 167 79 85 103
261 230 164 114 94 104
261 230 165 108 89 103
261 231 164 113 94 102
261 231 165 109 89 100
261 230 166 99 89 102
261 230 167 92 87 100
261 231 166 105 91 100
261 231 167 101 90 98
261 225 171 42 78 107
261 226 168 40 80 107
261 226 169 34 76 106
261 227 168 47 81 108
261 227 169 42 79 108
261 226 170 34 75 105
261 226 171 42 78 108
261 227 170 42 80 109
261 227 171 44 82 109
262 224 168 44 78 103
262 224 169 41 77 104
262 225 168 47 82 107
262 225 169 47 82 108
262 224 170 43 79 107
262 224 171 44 80 109
262 225 170 47 81 109
262 225 171 51 83 111
262 226 169 38 78 106
262 226 170 36 76 105
261 226 172 50 81 109
261 227 172 47 82 109
261 227 173 51 83 109
262 224 172 47 81 110
262 224 173 49 83 111
262 225 172 46 79 109
262 225 173 45 80 108
262 224 174 50 84 112
262 224 175 52 84 112
262 225 174 46 80 107
262 225 175 50 82 108
262 226 172 50 81 109
262 226 173 53 83 110
262 227 173 58 85 111
262 226 174 59 88 111
262 226 175 60 87 109
262 227 174 57 85 109
262 227 175 55 81 102
261 228 168 52 80 104
261 228 169 50 80 107
261 229 168 71 84 103
261 229 169 63 81 104
261 228 170 52 85 111
261 228 171 57 89 114
261 229 170 58 84 108
261 229 171 59 89 112
261 230 168 84 83 98
261 230 169 77 79 99
261 231 168 97 88 98
261 231 169 95 87 100
261 230 170 67 79 100
261 230 171 68 85 104
261 231 170 92 86 101
261 231 171 86 81 98
261 228 172 58 90 114
261 228 173 55 87 109
261 229 172 61 90 112
261 229 173 57 83 104
261 228 174 58 84 105
261 229 174 56 76 94
261 229 175 64 70 85
261 230 172 72 89 105
261 230 173 72 83 99
261 231 172 84 83 98
261 231 173 85 71 88
261 230 174 73 72 87
261 230 175 83 65 81
261 231 174 88 63 81
261 231 175 95 50 75
262 228 173 56 84 105
262 228 174 63 85 104
262 228 175 63 79 97
262 229 174 58 75 92
262 229 175 63 69 85
262 231 172 87 77 92
262 231 173 86 78 93
262 230 175 73 69 83
261 232 160 132 114 104
261 232 161 129 116 110
261 233 160 134 113 101
261 233 161 133 121 112
261 232 162 121 109 106
261 232 163 118 103 104
261 233 162 128 119 114
261 233 163 121 113 111
261 234 160 131 102 91
261 234 161 131 115 105
261 235 160 127 86 72
261 235 161 131 109 97
261 234 162 131 123 117
261 234 163 127 120 117
261 235 162 134 123 113
261 235 163 130 123 116
261 232 164 114 98 103
261 232 165 109 93 101
261 233 164 116 108 108
261 233 165 110 98 103
261 232 166 106 91 99
261 232 167 104 90 98
261 233 166 107 92 100
261 233 167 108 89 97
261 234 164 118 112 110
261 234 165 111 102 102
261 235 164 121 113 107
261 235 165 111 98 96
261 234 166 109 93 99
261 234 167 109 83 94
261 235 166 106 78 84
261 235 167 106 55 75
261 236 160 132 84 79
261 236 161 131 98 90
261 237 160 125 62 71
261 237 161 121 61 71
261 236 162 130 111 102
261 236 163 125 110 101
261 237 162 119 66 72
261 237 163 115 65 71
261 238 160 118 43 65
261 238 161 115 30 60
261 239 160 115 24 59
261 239 161 114 11 54
261 238 162 112 24 56
261 238 163 110 22 51
261 239 162 113 8 52
261 239 163 112 16 52
261 236 164 117 94 89
261 236 165 107 68 73
261 237 164 110 55 65
261 237 165 107 34 53
261 236 166 105 39 60
261 236 167 108 25 56
261 237 166 108 19 54
261 237 167 111 28 59
261 238 164 108 23 49
261 238 165 109 26 55
261 239 164 109 27 51
261 239 165 105 45 63
261 238 166 109 33 63
261 238 167 109 46 69
261 239 166 104 61 76
261 239 167 104 68 80
261 232 168 103 90 97
261 232 169 105 89 98
261 233 168 109 89 98
261 233 169 110 82 93
261 232 170 105 85 97
261 232 171 98 75 89
261 233 170 107 64 83
261 233 171 106 57 77
261 234 168 109 76 90
261 234 169 108 59 79
261 235 168 106 37 67
261 235 169 107 28 62
261 234 170 105 37 66
261 234 171 107 31 62
261 235 170 106 27 59
261 235 171 107 34 62
262 232 171 103 67 83
262 233 171 107 44 70
262 234 171 107 26 61
262 235 170 107 25 58
262 235 171 108 23 59
261 232 172 93 73 88
261 232 173 97 45 69
261 233 172 104 27 59
261 233 173 103 28 57
261 232 174 99 34 64
261 232 175 101 23 63
261 233 174 102 30 54
261 233 175 103 36 62
261 234 172 106 25 55
261 234 173 105 35 57
261 235 172 107 40 64
261 235 173 103 52 68
261 234 174 102 44 58
261 234 175 99 52 63
261 235 174 101 67 75
261 235 175 100 74 80
262 232 172 98 60 79
262 232 173 91 64 81
262 233 172 104 37 66
262 234 172 106 27 58
261 236 168 107 22 54
261 236 169 110 31 60
261 237 168 111 36 63
261 237 169 107 48 69
261 236 170 107 41 65
261 236 171 103 50 69
261 237 170 105 61 76
261 237 171 102 68 79
261 238 168 109 53 73
261 238 169 105 63 78
261 239 168 107 76 87
261 239 169 108 73 86
261 238 170 104 71 81
261 238 171 104 74 83
261 239 170 105 59 78
261 239 171 106 49 71
261 236 172 101 60 73
261 236 173 100 68 78
261 237 172 104 74 83
261 237 173 105 73 84
261 236 174 99 69 81
261 236 175 101 67 83
261 237 174 104 64 80
261 237 175 103 44 72
260 239 173 112 27 62
261 238 172 102 64 79
261 238 173 105 52 76
261 239 172 108 39 68
261 239 173 109 30 65
260 239 174 113 30 65
260 239 175 111 45 67
261 238 174 107 36 71
261 238 175 111 27 66
261 239 174 113 26 68
261 239 175 113 33 67
261 224 178 63 93 116
261 224 179 61 91 113
262 224 176 52 85 111
262 224 177 55 87 111
262 225 176 51 82 106
262 225 177 57 84 105
262 224 178 61 90 112
262 224 179 59 86 108
262 225 178 57 82 102
262 225 179 53 75 97
262 226 176 57 83 104
262 226 177 53 77 96
262 227 176 54 74 94
262 227 177 55 64 84
262 226 178 51 68 88
262 226 179 52 55 82
262 227 178 63 54 76
262 227 179 72 49 74
261 224 180 51 83 106
261 224 181 41 76 99
261 225 180 45 61 88
261 225 181 48 62 86
261 224 182 46 76 97
261 224 183 54 78 97
261 225 182 56 66 86
261 225 183 69 72 88
261 226 180 58 43 78
261 226 181 64 44 77
261 227 180 84 46 71
261 227 181 85 38 70
261 226 182 71 50 76
261 226 183 82 51 73
261 227 182 93 31 66
261 227 183 97 25 59
262 225 180 46 65 91
262 226 180 56 45 80
262 227 180 75 43 72
261 229 176 79 59 74
261 229 177 91 46 69
261 228 178 85 46 71
261 228 179 90 45 68
261 229 178 94 36 66
261 229 179 99 26 62
261 230 176 89 56 76
261 230 177 96 37 67
261 231 176 101 36 68
261 231 177 104 28 62
261 230 178 102 17 61
261 230 179 105 16 57
261 231 178 106 25 61
261 231 179 105 32 60
262 228 176 64 71 89
262 228 177 70 57 77
262 229 176 68 62 78
262 229 177 82 52 72
262 228 178 78 48 71
262 228 179 84 48 71
261 228 180 94 42 63
261 228 181 100 27 58
261 229 180 103 22 54
261 229 181 106 23 55
260 228 183 106 23 57
260 229 182 104 30 59
260 229 183 104 33 62
261 228 182 103 19 56
261 228 183 103 18 55
261 229 182 106 26 56
260 230 181 103 40 63
260 231 180 97 53 69
260 231 181 97 59 71
261 230 180 107 14 54
261 230 181 106 27 58
261 231 180 101 37 62
261 231 181 103 37 64
260 230 182 102 44 65
260 230 183 98 55 70
260 231 182 96 71 77
260 231 183 100 81 85
259 224 187 83 66 86
259 225 187 93 50 74
259 226 187 97 33 64
259 227 187 100 35 61
257 224 191 100 48 68
257 225 191 98 58 68
257 226 191 96 64 72
257 227 191 94 62 70
258 224 189 86 43 58
258 225 189 90 46 59
259 224 188 82 59 77
259 224 189 83 49 67
259 225 188 91 45 67
259 225 189 89 42 61
258 224 190 91 42 64
258 224 191 96 45 68
258 225 190 92 49 64
258 225 191 95 55 71
258 226 189 95 45 62
258 227 189 97 52 67
259 226 188 98 36 63
259 226 189 96 46 63
259 227 188 99 38 63
259 227 189 96 46 64
258 226 190 92 54 63
258 226 191 93 63 71
258 227 190 95 58 66
258 227 191 92 61 68
259 228 187 99 58 71
259 229 187 96 77 84
259 230 186 100 84 89
259 230 187 100 83 90
259 231 186 100 67 78
259 231 187 102 62 79
257 228 191 95 57 69
257 229 191 94 51 67
258 228 189 93 55 69
258 229 189 97 64 74
259 228 188 99 63 76
259 228 189 95 56 70
259 229 188 94 72 80
259 229 189 95 67 77
258 228 190 96 59 69
258 228 191 96 59 69
258 229 190 96 51 68
258 229 191 96 49 66
258 230 189 97 57 71
258 231 188 103 46 70
258 231 189 99 47 65
259 230 188 98 72 82
259 230 189 95 60 75
259 231 188 102 53 75
259 231 189 102 54 74
258 230 190 98 46 67
258 230 191 96 44 67
258 231 190 98 49 65
258 231 191 93 53 68
260 224 185 62 74 93
260 225 185 80 65 84
261 224 184 56 76 95
261 224 185 66 75 92
261 225 184 76 72 88
260 224 186 74 70 91
260 224 187 79 71 91
260 225 186 87 60 80
260 225 187 87 60 79
260 226 184 89 51 72
260 226 185 94 45 68
260 227 184 102 23 56
260 227 185 102 25 56
261 226 184 85 52 72
261 227 184 98 26 59
260 226 186 97 38 66
260 227 186 103 32 60
260 228 184 106 24 59
260 228 185 104 35 61
260 229 184 103 50 70
260 229 185 99 66 78
260 228 186 102 52 69
260 228 187 102 70 80
260 229 186 92 70 77
260 230 184 93 68 76
260 230 185 97 82 87
260 231 184 98 82 86
260 231 185 96 75 83
260 230 186 100 86 90
260 231 186 99 76 84
259 239 181 131 129 129
259 238 183 132 130 129
259 239 182 128 128 130
259 239 183 129 129 132
261 232 176 104 23 61
261 232 177 104 35 62
261 233 176 102 41 63
261 233 177 99 59 68
261 232 178 101 44 67
261 232 179 99 55 73
261 233 178 97 68 76
261 233 179 100 69 81
261 234 176 99 64 71
261 234 177 99 75 78
261 235 176 100 73 82
261 235 177 101 65 80
260 235 179 109 30 64
261 234 178 100 81 84
261 234 179 100 71 81
261 235 178 102 52 72
261 235 179 104 46 68
260 232 180 97 69 82
260 232 181 96 75 84
260 233 180 100 71 82
260 233 181 103 72 85
261 232 180 98 65 79
260 232 182 94 78 83
260 232 183 97 79 83
260 233 182 102 63 79
260 233 183 103 52 74
260 234 180 100 56 71
260 234 181 105 44 71
260 235 180 111 37 69
260 235 181 112 27 66
260 234 182 110 39 71
260 234 183 113 31 69
260 235 182 114 28 66
260 235 183 116 35 67
261 236 176 101 57 78
261 236 177 105 33 71
261 237 176 105 30 67
261 237 177 112 25 67
260 236 179 116 23 68
260 237 178 116 32 72
260 237 179 116 28 70
261 236 178 111 21 67
261 236 179 114 24 66
261 237 178 116 24 70
260 238 177 114 29 64
260 239 176 112 59 69
260 239 177 112 67 71
261 238 176 113 27 66
261 238 177 112 21 62
261 239 176 114 38 65
260 238 178 113 52 74
260 238 179 114 67 82
260 239 178 112 87 85
260 239 179 117 106 103
260 236 180 118 32 72
260 236 181 115 39 68
260 237 180 115 49 75
260 237 181 114 77 84
260 236 182 115 60 71
260 236 183 117 79 80
260 237 182 119 100 98
260 237 183 126 116 112
260 238 180 115 87 90
260 238 181 117 104 101
260 239 180 123 117 114
260 239 181 125 121 119
260 238 182 123 117 115
260 238 183 130 127 124
259 233 185 115 30 68
259 232 186 108 46 72
259 232 187 110 39 71
259 233 186 116 36 69
259 233 187 116 52 73
259 234 185 117 51 69
259 235 185 119 82 80
259 234 186 118 60 74
259 234 187 119 75 82
259 235 186 123 93 91
259 235 187 122 101 97
258 232 188 108 36 67
258 232 189 101 43 62
258 233 188 110 56 68
258 233 189 102 59 65
259 232 188 110 35 69
259 233 188 114 51 71
258 232 190 92 53 62
258 232 191 84 67 72
258 233 190 89 66 71
258 233 191 75 78 88
258 234 188 106 71 74
258 234 189 98 67 69
258 235 188 102 80 79
258 235 189 89 71 70
259 234 188 114 78 82
259 235 188 111 92 88
258 234 190 84 72 75
258 234 191 77 83 92
258 235 190 75 72 77
258 235 191 71 84 95
259 236 185 129 116 108
259 237 184 134 128 123
259 237 185 132 126 123
259 236 186 132 122 115
259 236 187 126 117 111
259 237 186 127 121 118
259 237 187 116 110 107
259 238 184 131 128 128
259 238 185 126 122 121
259 239 184 124 123 126
259 239 185 115 109 110
258 239 186 96 84 84
258 239 187 92 78 81
259 238 186 117 111 109
259 238 187 103 94 93
259 239 186 106 97 96
259 239 187 99 88 88
257 238 191 69 93 114
257 239 190 75 95 112
257 239 191 72 95 114
258 236 188 91 76 74
258 236 189 77 62 65
258 237 188 86 70 72
258 237 189 73 64 67
259 236 188 105 94 89
259 237 188 98 87 86
258 236 190 67 72 80
258 236 191 68 86 102
258 237 190 64 73 81
258 237 191 68 89 106
258 238 188 82 65 72
258 238 189 69 67 74
258 239 188 80 68 76
258 239 189 72 78 87
258 238 190 69 81 94
258 238 191 68 90 108
258 239 190 76 90 105
260 232 184 101 70 80
260 232 185 105 53 75
260 233 184 108 44 72
260 233 185 113 35 69
260 234 184 115 31 68
260 234 185 118 47 71
260 235 184 118 55 72
260 235 185 118 70 75
260 236 184 125 104 98
260 236 185 124 99 92
260 237 184 132 125 120
259 247 160 115 39 70
259 247 161 110 46 73
259 247 162 102 61 79
259 247 163 96 73 85
259 244 167 108 56 72
259 245 166 98 83 92
259 245 167 95 82 91
259 246 165 91 91 99
259 247 164 89 87 97
259 247 165 87 100 112
259 246 166 91 94 104
259 246 167 88 100 113
259 247 166 89 107 124
259 247 167 88 109 129
260 241 161 105 60 73
261 240 160 115 15 56
261 240 161 115 23 60
261 241 160 113 37 65
261 241 161 108 46 68
260 241 162 106 72 80
260 241 163 102 73 82
261 240 162 112 35 61
261 240 163 108 42 61
261 241 162 105 58 71
261 241 163 101 62 73
260 242 160 108 59 74
260 242 161 107 71 81
260 243 160 105 74 80
260 243 161 108 77 84
260 242 162 107 79 86
260 242 163 107 79 88
260 243 162 109 70 82
260 243 163 113 65 84
260 241 164 101 67 78
260 241 165 105 68 78
261 240 164 107 52 68
261 240 165 105 68 77
260 240 167 106 79 87
260 241 166 107 66 78
260 241 167 109 59 76
261 240 166 105 79 84
260 242 164 107 65 82
260 242 165 108 49 73
260 243 164 112 51 78
260 243 165 114 31 69
260 242 166 111 37 66
260 242 167 114 30 64
260 243 166 119 29 67
260 243 167 122 29 66
260 244 160 106 74 85
260 244 161 108 56 74
260 245 160 110 42 73
260 245 161 113 27 66
260 244 162 112 41 70
260 244 163 114 32 68
260 245 162 118 29 69
260 245 163 118 38 70
260 246 160 115 23 69
260 246 161 118 35 72
260 247 160 117 27 68
260 246 162 114 42 72
260 246 163 111 55 77
260 244 164 116 35 67
260 244 165 117 37 69
260 245 164 115 43 70
260 245 165 109 63 77
260 244 166 114 42 70
260 244 167 113 48 71
260 245 166 103 70 81
260 246 164 103 68 80
260 246 165 97 78 87
259 243 168 118 45 70
259 243 169 117 53 72
259 243 170 115 55 71
259 243 171 112 65 73
259 243 172 111 75 78
259 243 173 118 95 93
259 242 174 127 116 109
259 242 175 129 122 116
259 243 174 124 111 105
259 243 175 127 121 116
259 244 168 105 61 72
259 244 169 107 63 74
259 245 168 90 85 92
259 245 169 89 86 93
259 244 170 106 65 73
259 244 171 104 65 72
259 245 170 90 83 89
259 245 171 94 73 80
259 246 168 88 104 118
259 246 169 88 106 121
259 247 168 84 110 132
259 247 169 83 112 134
258 247 170 80 112 138
258 247 171 79 109 132
259 246 170 83 99 112
259 246 171 76 85 97
259 247 170 82 110 132
259 247 171 77 103 124
259 244 172 101 61 69
259 244 173 98 62 67
259 245 172 94 63 71
259 245 173 92 52 61
258 245 175 96 59 57
259 244 174 102 79 74
259 244 175 107 93 85
259 245 174 92 51 54
259 245 175 93 60 58
258 246 173 79 65 76
258 247 172 74 99 120
258 247 173 67 86 104
259 246 172 75 72 82
259 246 173 87 60 71
259 247 172 70 92 109
258 246 174 89 56 65
258 246 175 93 59 66
258 247 174 73 76 91
258 247 175 84 72 80
259 246 174 91 54 64
260 240 168 103 68 83
260 240 169 105 53 75
260 241 168 110 50 73
260 241 169 110 34 66
260 240 170 110 41 71
260 240 171 114 24 67
260 241 170 115 33 69
260 241 171 117 38 69
261 240 170 109 35 70
261 240 171 110 26 66
260 242 168 118 30 67
260 242 169 118 34 67
260 243 168 122 31 67
260 243 169 121 40 69
260 242 170 117 38 67
260 242 171 116 56 71
260 243 170 116 46 68
260 243 171 115 63 73
260 240 172 116 33 68
260 240 173 115 37 65
260 241 172 115 46 70
260 241 173 115 61 72
261 240 172 116 27 68
260 240 174 113 51 66
260 240 175 112 68 74
260 241 174 116 82 79
260 241 175 119 101 93
260 242 172 117 73 80
260 242 173 119 91 90
260 243 172 118 83 86
260 243 173 123 101 98
260 242 174 123 106 100
260 242 175 125 116 108
260 244 168 117 46 70
259 248 160 103 59 73
259 248 161 90 74 82
259 249 160 88 87 93
259 249 161 86 100 110
259 248 162 85 89 98
259 248 163 83 94 107
259 249 162 87 106 123
259 249 163 84 108 127
258 251 160 77 99 117
258 251 161 68 95 119
259 250 160 87 101 112
259 250 161 85 106 122
259 251 160 73 95 114
259 251 161 77 101 122
258 250 162 78 106 128
258 250 163 79 106 128
258 251 162 74 103 127
258 251 163 75 106 131
259 250 162 80 106 126
259 250 163 78 107 130
259 251 162 77 105 128
259 248 164 80 99 116
259 248 165 82 105 124
259 249 164 75 104 127
259 249 165 72 103 127
258 249 166 66 98 124
258 249 167 71 102 127
259 248 166 82 109 130
259 248 167 84 111 134
259 249 166 70 101 125
258 250 164 76 107 132
258 250 165 75 107 132
258 251 164 76 108 133
258 251 165 77 109 134
259 250 164 77 107 131
258 250 166 71 103 129
258 250 167 69 101 127
258 251 166 75 107 133
258 251 167 73 105 131
258 252 160 69 97 119
258 252 161 67 97 123
258 253 160 76 105 129
258 253 161 74 106 131
258 252 162 73 104 129
258 252 163 75 107 133
258 253 162 77 109 135
258 253 163 79 112 138
258 254 160 75 107 134
258 254 161 76 108 135
258 255 160 70 103 131
258 255 161 72 103 131
258 254 162 79 111 137
258 254 163 81 113 140
258 255 162 75 106 133
258 255 163 78 109 135
257 254 167 73 106 134
257 255 166 75 109 138
257 255 167 76 109 136
258 252 164 75 108 134
258 252 165 74 107 134
258 253 164 78 112 140
258 253 165 77 110 138
258 252 166 73 106 132
258 252 167 72 105 131
258 253 166 74 107 135
258 253 167 69 103 131
258 254 164 79 114 141
258 254 165 77 112 141
258 255 164 79 111 138
258 255 165 76 111 139
258 254 166 77 111 139
258 254 167 73 107 135
258 255 166 76 111 139
258 248 168 80 110 135
258 248 169 78 110 136
258 249 168 75 105 130
258 249 169 77 107 132
259 248 168 81 111 135
259 248 169 79 111 137
258 248 170 74 109 137
258 248 171 74 109 135
258 249 170 73 107 134
258 249 171 71 106 134
259 248 170 80 112 138
258 250 168 68 100 127
258 250 169 72 103 129
258 251 168 73 105 131
258 251 169 74 106 132
258 250 170 74 107 134
258 250 171 72 106 134
258 251 170 78 110 136
258 251 171 76 110 137
258 248 172 74 107 133
258 248 173 73 104 129
258 249 172 71 106 133
258 249 173 73 106 133
258 248 174 71 97 118
258 248 175 73 91 107
258 249 174 74 106 131
258 249 175 71 103 129
258 250 172 72 106 133
258 250 173 71 104 132
258 251 172 75 108 135
258 251 173 73 106 133
258 250 174 69 104 131
258 250 175 68 104 133
258 251 174 69 103 131
258 251 175 69 104 132
257 253 169 69 100 128
257 254 168 68 102 130
257 254 169 66 97 125
257 255 168 75 107 133
257 255 169 72 104 130
257 254 170 66 94 122
257 254 171 69 97 124
257 255 170 71 101 126
257 255 171 69 95 121
258 252 168 75 107 133
258 252 169 78 109 135
258 253 168 69 101 129
258 253 169 76 107 134
258 252 170 80 111 137
258 252 171 78 111 137
258 253 170 76 107 133
258 253 171 77 108 134
258 254 168 68 101 130
258 254 170 68 98 125
258 254 171 73 103 129
257 253 173 74 108 135
257 252 174 73 107 134
257 252 175 71 103 130
257 253 174 73 107 135
257 253 175 74 106 133
257 254 172 73 103 129
257 254 173 71 104 131
257 255 172 68 94 121
257 255 173 68 99 126
257 254 174 71 104 132
257 254 175 72 105 133
257 255 174 70 103 130
257 255 175 69 102 130
258 252 172 76 109 137
258 252 173 75 108 136
258 253 172 75 107 134
258 253 173 74 107 135
258 252 174 73 107 134
258 252 175 69 102 130
259 241 177 132 128 125
259 240 179 127 125 124
259 241 178 132 129 128
259 241 179 132 130 131
259 242 176 130 125 122
259 242 177 129 127 126
259 243 176 125 121 118
259 243 177 122 120 119
259 242 178 130 128 129
259 242 179 131 130 132
259 243 178 125 122 124
259 243 179 129 127 129
259 240 180 130 128 128
259 240 181 132 131 133
259 241 180 131 129 132
259 241 181 131 129 132
259 240 182 132 132 135
259 240 183 128 128 133
259 241 182 131 130 135
259 241 183 130 129 133
258 243 180 133 131 133
258 243 181 133 132 135
259 242 180 130 128 131
259 242 181 128 127 130
259 243 180 132 129 132
259 243 181 130 129 132
258 242 182 132 130 134
258 242 183 132 129 132
258 243 182 133 132 135
258 243 183 129 126 128
259 242 182 130 129 133
259 242 183 130 129 132
258 245 176 95 58 58
258 245 177 97 68 66
259 244 176 108 96 91
259 244 177 110 102 100
259 245 176 94 65 62
259 245 177 95 70 65
258 244 178 114 106 105
258 244 179 126 121 121
258 245 178 99 79 75
258 245 179 110 99 95
259 244 178 119 115 115
259 244 179 125 122 123
258 246 176 97 57 63
258 246 177 95 48 55
258 247 176 88 63 70
258 247 177 90 52 62
258 246 178 93 41 47
258 246 179 92 57 55
258 247 178 93 37 49
258 247 179 94 38 48
257 247 182 93 53 61
257 247 183 87 49 62
258 244 180 133 129 130
258 244 181 135 133 135
258 245 180 120 112 111
258 245 181 127 124 126
258 244 182 131 129 131
258 244 183 119 115 117
258 245 182 124 121 122
258 245 183 108 105 105
258 246 180 96 72 67
258 246 181 105 94 90
258 247 180 95 49 54
258 247 181 98 64 64
258 246 182 109 101 98
258 246 183 98 90 89
258 247 182 97 67 68
258 247 183 92 68 73
260 240 176 115 88 84
260 240 177 119 105 97
260 241 176 125 117 109
260 241 177 131 125 120
260 240 178 122 116 110
260 240 179 123 120 118
257 243 187 68 65 76
258 240 185 96 82 82
258 241 184 109 103 103
258 241 185 98 83 83
259 240 184 120 118 121
259 240 185 106 99 100
259 241 184 119 116 119
258 240 186 92 77 76
258 240 187 87 72 76
258 241 186 86 62 66
258 241 187 78 58 68
258 242 184 116 110 111
258 242 185 95 73 74
258 243 184 108 98 99
258 243 185 87 62 70
258 242 186 84 51 61
258 242 187 73 55 66
258 243 186 78 53 63
258 243 187 72 59 70
257 240 189 68 87 104
257 241 189 64 86 103
257 240 190 72 94 113
257 240 191 73 98 119
257 241 190 65 93 116
257 241 191 70 98 121
257 242 188 62 79 93
257 242 189 64 88 108
257 243 188 67 80 93
257 243 189 67 91 111
256 242 191 68 98 123
256 243 190 67 96 121
256 243 191 68 98 123
257 242 190 64 94 117
257 242 191 66 96 120
257 243 190 67 95 118
258 240 188 73 73 81
258 240 189 69 83 96
258 241 188 63 70 81
258 242 188 63 68 79
257 245 185 74 80 93
257 244 186 72 72 82
257 244 187 70 77 89
257 245 186 74 84 98
257 245 187 77 93 109
257 246 185 75 89 103
257 247 184 69 72 85
257 247 185 77 94 110
257 246 186 76 96 114
257 246 187 80 101 120
257 247 186 81 103 124
257 247 187 80 104 125
258 244 184 96 89 91
258 244 185 79 62 73
258 245 184 84 81 87
258 245 185 75 74 85
258 244 186 75 62 73
258 246 184 77 80 87
258 246 185 76 86 100
258 247 184 75 69 79
256 244 189 66 89 112
256 245 188 68 91 110
256 245 189 64 89 112
257 244 188 69 86 102
257 244 189 68 91 112
257 245 188 72 93 110
256 244 190 68 95 118
256 244 191 71 99 124
256 245 190 66 93 118
256 245 191 68 97 122
256 246 188 69 94 115
256 246 189 68 93 116
256 247 188 69 95 118
256 247 189 69 95 120
257 246 188 72 96 116
256 246 190 68 96 121
256 247 190 68 97 122
257 248 179 73 74 86
257 249 178 78 103 124
257 249 179 75 98 116
257 250 178 78 112 138
257 250 179 79 111 137
257 251 178 78 111 139
257 251 179 78 112 139
258 248 176 70 85 99
258 248 177 68 79 92
258 249 176 72 104 130
258 249 177 76 106 130
258 248 178 71 68 80
258 248 179 83 51 64
258 249 178 75 100 119
258 250 176 71 107 136
258 250 177 74 110 137
258 251 176 73 107 135
258 251 177 76 110 137
258 250 178 76 111 139
258 251 178 77 111 138
257 248 180 83 71 81
257 248 181 88 62 69
257 249 180 77 96 112
257 249 181 73 86 98
257 248 182 80 54 66
257 248 183 81 53 70
257 249 182 66 74 89
257 249 183 63 66 84
256 251 181 77 111 139
257 250 180 80 109 134
257 250 181 76 104 126
257 251 180 79 112 139
257 251 181 78 111 138
256 251 182 77 111 138
257 250 182 64 92 115
257 250 183 54 83 107
257 251 182 74 107 133
257 251 183 69 101 127
258 248 180 89 50 64
257 252 176 69 99 126
257 252 177 69 99 126
257 253 176 72 102 128
257 253 177 67 96 123
257 252 178 72 102 129
257 252 179 76 107 134
257 253 178 67 96 123
257 253 179 67 98 126
257 254 176 73 105 131
257 254 177 71 103 130
257 255 176 69 102 130
257 255 177 69 102 130
257 254 178 66 99 127
257 254 179 65 97 126
257 255 178 68 102 130
257 255 179 71 105 133
258 252 177 75 106 132
258 252 178 75 106 133
256 252 181 74 109 138
256 253 181 72 107 136
257 252 180 77 109 136
257 252 181 74 107 135
257 253 180 70 102 131
257 253 181 71 106 134
256 252 182 75 109 137
256 252 183 76 108 136
256 253 182 72 106 136
256 253 183 72 105 135
257 252 182 77 110 137
257 252 183 77 109 136
256 255 181 77 113 141
257 254 180 68 103 131
257 254 181 73 108 137
257 255 180 75 109 137
257 255 181 77 112 140
256 254 182 73 109 138
256 254 183 73 109 138
256 255 182 77 112 141
256 255 183 76 112 141
257 248 184 65 72 88
257 248 185 74 95 114
257 249 184 61 77 95
257 249 185 75 99 121
256 249 187 72 102 127
257 248 186 79 105 128
257 248 187 75 102 126
257 249 186 79 107 131
257 249 187 76 107 132
256 251 185 74 107 134
257 250 184 62 89 111
257 250 185 74 102 125
257 251 184 68 100 126
257 251 185 72 104 130
256 250 186 78 108 134
256 250 187 74 104 130
256 251 186 76 109 135
256 251 187 74 105 132
257 250 186 79 108 132
257 250 187 76 107 134
257 251 186 77 108 134
257 251 187 71 102 128
256 248 188 69 95 120
256 248 189 69 96 121
256 249 188 67 96 122
256 249 189 67 97 123
256 248 190 70 97 122
256 250 188 67 98 124
256 250 189 66 98 124
256 251 188 68 98 124
256 251 189 68 96 122
256 250 190 69 100 126
256 251 190 71 99 125
256 252 184 74 105 133
256 252 185 75 108 136
256 253 184 74 107 136
256 253 185 77 111 140
257 252 184 74 106 133
256 252 186 76 110 137
256 252 187 74 105 132
256 253 186 76 112 140
256 253 187 74 106 133
256 254 184 75 111 140
256 254 185 78 114 142
256 255 184 78 113 142
256 255 185 80 115 142
256 254 186 78 112 140
256 254 187 73 104 131
256 255 186 78 111 139
256 255 187 72 103 131
256 252 188 68 95 121
256 252 189 66 93 119
256 253 188 68 97 122
256 253 189 67 95 120
256 254 188 70 98 123
287 224 179 30 47 71
287 225 179 16 41 68
285 224 181 38 49 72
285 225 181 37 52 73
285 224 182 29 43 70
285 224 183 40 49 74
285 225 182 34 49 74
285 225 183 39 50 76
285 226 181 42 55 74
285 226 182 44 55 78
285 226 183 42 51 77
285 227 182 42 53 76
285 227 183 37 49 71
286 224 180 41 52 74
286 225 180 45 56 75
286 225 181 38 52 70
287 224 180 35 51 74
287 225 180 38 52 74
286 226 180 39 52 70
286 226 181 41 54 73
286 227 180 38 50 69
286 227 181 40 49 73
287 226 180 44 53 74
287 227 180 39 49 68
287 227 181 44 50 71
285 228 182 35 48 72
285 228 183 32 46 70
285 229 182 44 58 75
285 229 183 39 53 73
285 230 183 51 61 79
286 228 181 40 48 76
286 229 181 36 47 76
287 228 180 40 46 66
287 228 181 48 52 73
287 229 181 48 54 75
286 228 182 37 49 75
286 229 182 33 49 72
287 230 181 40 54 70
287 231 181 42 56 70
286 230 182 51 63 79
286 231 182 49 57 72
286 231 183 50 55 72
287 231 182 51 60 74
285 224 184 47 53 77
285 225 184 42 51 75
285 226 184 31 39 67
285 226 185 29 44 67
285 227 184 36 44 69
285 227 185 34 41 70
285 226 186 37 49 69
285 227 186 32 47 72
286 224 185 39 46 71
286 225 185 34 47 70
286 224 186 37 43 64
286 225 186 31 41 62
287 224 187 34 44 69
287 225 187 33 44 68
286 226 185 33 46 68
286 226 186 38 50 69
286 227 186 37 51 72
286 227 187 40 54 74
287 226 187 40 51 72
287 227 187 43 55 76
287 227 188 49 61 82
285 228 184 40 52 74
285 228 185 43 52 76
285 229 184 38 51 73
285 229 185 33 49 74
285 228 186 29 47 72
285 230 184 32 47 71
285 230 185 18 41 68
285 231 184 42 46 68
285 231 185 35 47 68
286 228 186 23 43 70
286 228 187 18 43 72
286 229 186 28 49 74
286 229 187 21 46 74
287 228 187 27 48 75
286 230 185 18 43 68
286 231 184 45 44 65
286 231 185 35 46 67
286 230 186 40 56 78
286 230 187 53 64 83
286 231 186 45 53 71
286 231 187 57 56 72
287 230 187 53 61 81
287 231 187 54 57 74
287 228 188 34 56 81
287 229 188 20 52 80
287 230 188 44 59 81
287 231 188 57 59 77
285 234 183 74 41 52
287 232 181 51 62 73
286 232 182 47 50 66
286 232 183 55 43 60
286 233 183 72 48 60
287 232 182 58 59 69
287 233 182 58 49 58
286 234 183 78 50 57
286 235 183 77 45 50
287 234 182 66 51 57
287 235 182 73 52 56
285 237 183 78 45 50
285 238 183 77 57 61
285 239 183 65 57 61
286 236 183 87 54 60
286 237 183 83 51 59
287 236 182 77 44 48
287 237 182 80 51 52
286 238 183 77 52 58
286 239 183 65 45 54
287 238 182 80 53 53
287 239 182 74 45 54
285 232 184 54 35 55
285 232 185 46 45 64
285 233 184 62 24 44
285 233 185 61 38 50
285 233 186 82 63 69
285 234 184 71 25 42
285 234 185 80 52 59
285 235 184 91 63 68
285 235 185 83 53 60
285 234 186 81 57 64
285 235 186 84 59 67
286 232 184 56 41 60
286 232 185 49 37 53
286 232 186 60 53 68
286 232 187 65 57 71
286 233 186 76 60 68
286 233 187 74 57 69
287 232 187 64 58 72
287 233 187 72 55 68
286 234 184 69 24 43
286 235 184 86 58 64
286 234 187 80 58 70
286 235 186 77 48 62
286 235 187 77 49 67
287 234 187 74 52 66
287 235 187 77 48 66
287 232 188 67 58 72
287 233 188 76 59 71
287 234 188 76 51 66
287 235 188 75 47 66
285 236 184 84 47 59
285 236 185 83 52 65
285 237 184 80 52 60
285 237 185 75 47 63
285 236 186 80 61 71
285 237 186 66 42 63
285 237 187 63 52 67
285 238 184 79 62 66
285 238 185 69 55 68
285 239 184 61 62 69
285 239 185 57 63 74
285 238 186 55 43 62
285 238 187 63 53 68
285 239 186 51 53 71
285 239 187 65 47 65
286 236 184 79 36 46
286 236 187 73 55 69
286 237 187 71 61 72
286 238 187 67 60 71
286 236 188 68 48 64
286 237 188 70 58 69
287 236 188 68 45 63
287 237 188 66 50 64
287 237 189 62 46 59
286 238 188 78 63 72
286 239 188 79 55 66
286 239 189 87 54 64
287 238 189 71 51 60
287 239 189 85 51 62
285 240 183 50 52 64
286 240 183 47 48 61
286 241 183 48 52 74
287 240 182 58 45 56
287 241 182 55 54 68
287 241 183 52 55 72
286 242 183 56 55 79
286 243 183 56 52 74
287 242 182 51 56 74
287 242 183 50 56 77
287 243 183 51 50 73
287 244 183 66 46 66
283 246 187 84 34 62
283 247 186 87 32 62
283 247 187 89 31 58
283 247 188 90 35 64
285 240 184 51 55 69
285 240 185 59 55 69
285 241 184 55 51 73
285 241 185 67 47 63
285 240 186 71 60 77
285 240 187 74 35 64
285 241 186 75 38 59
285 241 187 84 32 59
284 242 185 76 36 56
284 243 185 80 34 57
285 242 184 62 48 69
285 242 185 71 44 60
285 243 185 78 36 59
284 242 186 75 35 54
284 243 186 79 35 57
285 242 186 77 35 55
285 242 187 85 27 54
285 243 186 79 33 54
285 243 187 83 34 57
286 243 184 67 44 63
285 241 188 89 26 57
285 242 188 88 21 51
285 243 188 86 32 52
286 240 188 83 28 55
286 240 189 87 32 48
286 241 188 88 25 53
286 241 189 88 24 50
287 240 189 88 34 50
287 241 189 88 22 45
287 241 190 88 20 43
286 242 188 88 23 51
286 242 189 87 22 52
286 243 188 88 25 51
286 243 189 86 31 56
287 242 189 89 21 51
287 242 190 89 20 50
287 243 190 86 33 59
284 244 185 81 31 59
284 245 185 81 42 63
285 244 184 82 27 55
285 244 185 82 32 60
285 245 184 84 29 54
285 245 185 83 36 62
284 244 186 79 34 60
284 244 187 83 45 65
284 245 186 80 42 63
284 245 187 82 47 66
285 244 187 83 41 60
284 246 185 76 54 67
284 247 185 78 42 64
285 246 185 80 45 64
285 247 185 79 52 67
284 246 186 80 49 67
284 246 187 78 41 63
284 247 186 80 32 59
284 247 187 87 33 56
286 244 184 76 40 57
286 245 184 83 31 53
287 244 184 74 42 60
287 245 184 80 34 56
286 246 184 83 41 62
286 247 184 84 56 70
286 247 185 84 60 73
287 246 184 84 37 58
287 247 184 86 54 69
284 245 188 82 43 63
285 244 188 83 45 61
285 245 188 82 43 62
285 245 189 85 51 67
284 246 188 81 40 64
284 247 188 89 35 62
284 247 189 88 37 67
285 246 188 80 39 64
285 246 189 83 41 65
285 247 189 86 36 66
285 247 190 87 35 66
286 244 188 85 41 58
286 244 189 80 42 60
286 245 189 82 46 63
286 244 190 85 48 65
286 245 190 84 48 65
287 244 190 85 44 64
287 245 190 82 42 62
286 246 189 86 48 67
286 246 190 85 38 61
286 247 190 89 37 65
287 246 190 85 40 61
287 247 190 87 37 62
283 248 185 89 41 67
283 249 185 88 50 70
282 248 187 88 43 69
282 249 186 87 49 70
282 249 187 86 53 71
283 248 186 90 37 67
283 248 187 90 33 66
283 249 186 88 49 69
283 250 185 87 55 72
283 251 185 83 68 83
282 250 186 84 58 73
282 250 187 84 59 75
282 251 186 80 72 88
282 251 187 79 73 90
283 250 186 84 59 74
283 251 186 88 61 76
283 248 188 84 46 71
283 248 189 85 47 72
283 249 188 83 54 74
283 249 189 83 53 74
282 250 188 84 63 82
282 251 188 78 74 91
283 250 188 83 60 77
283 250 189 84 66 83
283 251 189 75 78 94
283 252 185 78 80 95
283 253 185 78 83 100
282 252 186 75 83 102
282 252 187 73 82 101
282 253 187 68 79 101
283 252 186 76 84 102
283 253 186 73 84 104
282 254 187 68 79 100
283 254 186 74 84 104
283 254 187 68 79 100
283 255 186 75 85 104
283 255 187 75 84 104
282 252 188 73 83 103
282 253 188 70 81 103
282 253 189 73 85 106
283 252 189 74 83 101
283 253 188 70 83 105
283 253 189 73 85 107
282 254 188 70 81 102
282 255 188 75 85 104
283 254 188 71 83 105
283 254 189 71 84 107
283 255 188 74 85 105
283 255 189 73 86 107
283 254 190 72 85 108
284 248 185 88 41 68
284 249 185 91 49 73
285 248 185 85 49 70
285 249 185 92 53 75
284 250 185 90 55 73
284 251 185 88 62 77
285 250 185 93 56 76
285 251 185 95 60 77
286 248 184 87 63 75
286 248 185 87 62 75
286 249 185 89 62 77
287 248 184 90 64 74
287 248 185 90 67 77
287 249 185 92 71 80
286 250 185 92 63 79
286 251 185 96 62 79
287 250 185 93 72 84
287 251 185 98 71 84
287 251 186 97 69 83
284 248 189 86 44 72
284 249 189 83 54 75
284 248 190 85 45 71
284 249 190 82 54 76
285 248 190 87 46 74
285 249 190 84 52 77
284 250 189 82 60 78
284 250 190 80 62 80
284 251 190 74 74 90
285 250 190 80 64 82
285 251 190 73 71 87
286 248 190 86 45 71
286 249 190 84 52 77
287 248 190 85 43 68
287 248 191 86 46 68
287 249 190 82 52 75
287 249 191 81 54 76
286 250 190 82 57 80
286 251 190 76 71 89
286 251 191 72 73 91
287 250 190 80 60 82
287 250 191 79 61 83
287 251 191 74 68 87
284 252 185 81 76 89
284 253 185 79 82 97
285 252 185 87 70 83
285 253 185 82 78 92
285 253 186 82 78 92
284 254 185 78 84 101
285 254 185 81 83 98
284 254 186 78 85 103
284 255 186 76 85 104
284 255 187 76 85 104
285 254 186 79 84 101
285 255 186 77 86 105
285 255 187 75 85 105
286 252 185 94 65 79
286 252 186 91 70 84
286 253 186 85 75 89
287 252 186 95 68 81
287 253 186 90 71 85
287 253 187 82 75 89
286 254 186 80 82 98
286 254 187 76 83 101
286 255 187 75 85 105
287 254 187 77 82 99
284 252 189 75 80 98
284 253 189 72 84 106
284 252 190 74 79 97
284 253 190 72 84 106
285 252 190 71 79 98
285 253 190 71 82 103
284 255 189 73 86 108
284 254 190 71 86 108
284 255 190 72 87 109
285 254 190 70 85 108
285 255 190 71 87 110
286 252 190 69 76 94
286 252 191 71 76 95
286 253 190 69 79 101
286 253 191 69 79 101
287 252 191 71 77 96
287 253 190 68 78 100
287 253 191 68 78 99
286 255 188 72 88 111
286 255 189 71 87 110
287 254 188 72 87 108
287 254 189 70 85 108
287 255 189 71 87 110
286 254 190 69 84 107
286 254 191 69 80 102
286 255 190 71 86 109
287 254 190 68 83 106
287 254 191 69 80 102
