ply
format ascii 1.0
comment Version 2, Copyright 2017, 8i Labs, Inc.
comment frame_to_world_scale 0.179523
comment frame_to_world_translation -45.2095 7.18301 -54.3561
comment width 1023
element vertex 583
property float x
property float y
property float z
property uchar red
property uchar green
property uchar blue
end_header
288 320 173 124 129 139
288 320 174 124 131 143
288 320 175 127 135 148
288 321 174 118 126 140
288 321 175 115 126 143
289 320 175 126 135 150
289 321 175 108 124 142
288 322 174 126 133 145
288 322 175 116 127 143
288 323 175 118 130 146
289 322 175 100 120 141
288 324 175 109 126 147
289 320 176 112 127 145
289 321 176 99 120 141
289 321 177 90 116 142
288 322 176 101 120 141
288 323 176 100 121 143
289 322 176 90 114 139
289 322 177 85 113 139
289 323 176 86 113 140
289 323 177 79 110 137
290 320 177 94 117 141
290 321 177 81 112 140
290 320 178 87 115 141
290 321 178 81 112 141
291 320 179 83 113 140
291 321 179 88 116 142
290 322 177 84 112 139
290 322 178 83 112 140
290 323 178 85 112 138
290 323 179 91 115 140
291 322 179 91 116 142
291 323 179 96 118 141
288 324 176 94 118 143
288 324 177 84 111 137
288 325 176 90 115 139
288 325 177 88 113 137
289 324 176 85 113 139
289 324 177 80 109 135
289 325 177 88 112 136
289 324 178 87 112 136
289 325 178 93 115 137
288 326 176 92 114 136
288 326 177 109 124 143
288 327 177 121 131 146
289 326 177 106 123 142
288 327 178 124 133 148
289 326 178 116 129 146
289 326 179 126 136 152
289 327 178 124 134 149
289 327 179 122 133 149
290 324 178 87 112 136
290 324 179 93 116 139
290 325 178 93 115 137
290 325 179 100 119 140
291 324 179 98 120 142
291 325 179 103 121 142
290 326 179 118 131 148
291 324 180 110 127 147
291 325 180 113 129 147
290 326 180 117 131 148
290 327 180 120 131 147
291 326 180 119 131 148
291 326 181 111 126 146
291 327 180 116 128 145
291 327 181 114 125 141
292 320 179 86 115 142
292 321 179 91 118 143
292 320 180 94 120 146
292 321 180 95 120 145
292 321 181 103 126 150
293 320 181 105 128 152
293 321 181 109 130 154
293 320 182 109 131 155
293 321 182 105 128 152
292 322 180 102 123 146
292 322 181 112 130 153
292 323 180 109 126 146
292 323 181 115 132 153
293 322 181 111 131 153
293 322 182 105 127 150
293 322 183 97 121 146
293 323 182 107 127 150
293 323 183 102 122 144
294 320 182 104 128 153
294 320 183 98 124 149
294 321 183 97 121 147
294 322 183 97 120 145
294 323 183 101 121 143
292 324 181 111 129 150
292 325 181 109 126 146
292 324 182 103 123 144
292 325 182 101 120 141
293 324 182 103 123 144
293 324 183 101 119 140
293 325 182 95 115 137
293 325 183 100 117 136
292 326 181 103 120 140
292 327 181 105 121 140
292 326 182 98 115 135
292 326 183 109 119 133
292 327 182 113 122 137
292 327 183 125 130 140
293 326 183 114 124 138
293 327 183 127 131 140
294 320 184 94 121 147
294 321 184 97 121 146
294 321 185 106 125 146
295 320 184 93 121 148
295 320 185 99 123 148
295 321 185 106 126 148
295 320 186 108 130 153
295 320 187 114 135 157
295 321 186 120 136 156
295 321 187 131 144 162
294 322 184 101 122 144
294 322 185 114 128 146
294 323 184 109 125 144
294 323 185 124 134 149
295 322 185 113 128 147
294 323 186 141 145 155
295 322 186 131 140 155
295 322 187 147 152 164
295 323 186 143 146 155
295 323 187 149 150 157
293 320 191 107 127 150
293 321 191 110 130 153
293 322 191 125 140 160
295 320 188 112 133 156
295 320 189 101 128 155
295 321 188 130 142 159
295 321 189 121 137 157
294 320 190 98 128 155
294 320 191 105 128 152
294 321 190 111 133 157
294 321 191 111 133 156
295 320 190 95 126 156
294 322 189 158 162 173
294 323 188 158 158 165
294 323 189 157 160 169
295 322 188 157 160 171
295 322 189 160 163 174
295 323 188 156 157 164
294 322 190 145 155 170
294 322 191 132 145 164
294 323 190 141 149 163
294 323 191 132 144 161
293 325 184 118 129 143
293 326 184 136 141 151
293 327 184 150 150 156
293 327 185 154 153 158
294 324 184 116 128 145
294 324 185 138 144 155
294 325 184 134 139 151
294 325 185 150 152 161
294 324 186 152 152 159
294 324 187 152 151 157
294 325 186 163 162 168
294 325 187 162 160 166
295 324 187 149 149 155
294 326 185 156 156 164
294 327 185 157 157 163
294 326 186 162 161 167
294 326 187 157 159 167
294 327 186 144 146 155
294 327 187 136 143 156
294 324 188 155 155 161
294 324 189 156 158 167
295 324 189 142 149 161
295 325 188 157 158 166
295 325 189 147 153 165
294 324 190 127 139 154
294 324 191 122 136 155
294 325 190 127 139 155
294 325 191 126 140 159
294 326 188 148 154 168
294 326 189 141 150 165
294 327 188 135 147 163
294 327 189 131 145 164
295 326 188 154 158 169
295 326 189 146 153 166
294 326 190 131 142 159
294 326 191 133 146 163
294 327 190 129 143 161
294 327 191 133 146 163
288 328 177 123 131 144
288 329 177 123 129 141
288 328 178 124 132 146
288 329 178 120 128 141
289 328 178 122 132 146
289 328 179 120 130 146
289 329 178 119 128 142
289 329 179 117 127 141
288 330 177 119 126 138
288 330 178 120 127 139
288 331 178 126 132 143
289 330 179 125 132 145
289 331 179 136 140 149
289 330 180 131 136 148
289 331 180 139 141 150
290 328 180 120 129 144
290 328 181 127 132 143
290 329 180 127 134 147
290 329 181 134 138 148
291 328 181 129 134 144
291 329 181 139 140 148
291 328 182 134 136 144
291 329 182 143 143 148
290 330 180 134 139 149
290 330 181 139 141 150
290 331 180 136 138 146
290 331 181 129 130 137
291 330 181 138 139 147
291 330 182 139 138 143
291 331 182 126 126 132
288 332 178 136 139 147
288 332 179 146 145 150
288 333 178 145 145 152
288 333 179 147 146 152
289 332 179 148 146 151
289 333 179 146 145 151
288 334 178 139 140 147
288 334 179 131 134 142
288 335 178 131 134 142
288 335 179 115 121 132
289 334 179 135 138 146
289 332 180 149 146 150
289 333 180 143 143 150
288 335 180 103 115 131
289 334 180 127 132 142
289 334 181 112 120 132
289 335 180 108 119 133
289 335 181 104 116 132
290 332 180 145 143 148
290 332 181 136 136 141
290 333 180 147 146 150
290 333 181 141 140 145
291 332 182 131 131 137
291 332 183 141 141 148
291 333 182 139 139 144
291 333 183 139 140 147
290 334 181 122 125 135
290 335 181 105 117 132
290 334 182 119 124 134
290 335 182 106 118 133
291 334 182 128 131 139
291 334 183 127 132 143
291 335 182 113 122 136
291 335 183 109 121 137
292 328 182 139 139 145
292 328 183 142 142 148
292 329 182 145 144 149
292 329 183 150 147 151
293 328 183 148 146 151
292 330 183 148 145 148
292 331 183 145 143 148
292 332 183 139 141 149
292 333 183 132 136 147
292 334 183 124 132 145
293 328 184 156 153 157
293 328 185 148 149 155
293 329 184 157 154 157
293 329 185 151 151 157
292 330 184 157 153 156
292 331 184 148 149 155
293 330 184 155 154 159
293 330 185 153 153 160
293 331 184 150 151 158
293 331 185 140 143 153
293 330 186 141 145 156
293 331 186 130 138 151
293 331 187 129 139 154
294 328 186 132 137 148
294 328 187 123 134 150
294 329 186 139 144 155
294 329 187 123 135 152
294 330 186 132 139 152
294 330 187 124 136 151
294 331 186 129 137 150
294 331 187 129 139 154
293 330 191 115 129 148
293 331 190 107 125 146
293 331 191 123 133 148
294 328 188 124 140 160
294 328 189 124 142 163
294 329 188 124 140 159
294 329 189 124 141 161
295 329 189 125 142 163
294 328 190 113 133 155
294 328 191 111 130 152
294 329 190 113 134 157
294 329 191 108 129 153
294 330 188 127 141 159
294 330 189 126 142 161
294 331 188 133 145 162
294 331 189 127 142 162
294 330 190 117 136 158
294 330 191 107 128 152
294 331 190 107 128 151
292 332 184 125 131 143
292 333 184 114 124 139
293 332 185 126 134 147
293 333 185 115 127 143
293 332 186 126 136 151
293 332 187 130 142 158
293 333 186 118 132 149
293 333 187 119 136 155
292 334 184 108 121 138
292 334 185 105 120 138
292 335 184 97 115 134
292 335 185 96 115 136
293 334 185 103 120 139
293 335 185 99 117 137
293 334 186 102 120 140
293 334 187 107 127 148
293 335 186 103 122 144
293 335 187 97 120 144
293 332 188 135 148 166
293 332 189 118 137 159
293 333 188 121 138 159
293 333 189 113 132 153
293 332 190 114 129 147
293 332 191 145 144 149
293 333 190 115 126 142
293 333 191 159 150 145
293 334 188 105 126 149
293 334 189 101 119 140
293 335 188 95 118 141
293 335 189 108 123 142
293 334 190 127 129 137
293 334 191 174 156 142
293 335 190 153 145 143
293 335 191 190 166 144
294 332 189 126 144 165
294 333 189 116 135 157
294 332 190 108 127 149
294 334 189 107 125 147
288 336 179 100 109 123
288 337 179 98 110 125
288 338 179 103 115 132
288 336 180 102 115 131
288 337 180 95 109 125
289 336 180 98 113 130
289 336 181 95 111 131
289 337 181 73 94 117
288 338 180 95 108 127
288 339 180 98 113 133
289 338 180 83 99 118
289 338 181 73 92 114
289 339 181 91 109 129
289 339 182 91 108 128
290 336 181 100 115 133
290 336 182 97 113 132
290 336 183 101 116 134
290 337 182 93 111 130
291 336 182 103 117 134
291 336 183 103 118 136
291 337 183 101 116 134
290 338 182 88 104 125
290 338 183 96 111 129
290 339 182 93 109 128
290 339 183 95 110 129
291 338 183 98 113 131
291 339 183 95 112 131
288 340 180 85 104 125
288 340 181 73 95 118
288 341 180 64 89 112
288 341 181 58 84 106
289 340 181 84 104 126
289 341 181 54 81 103
289 340 182 87 105 126
289 341 182 56 79 101
288 342 180 91 108 126
288 342 181 77 95 114
288 343 180 98 111 128
288 343 181 90 104 121
289 342 181 75 92 110
289 343 181 88 102 118
289 342 182 83 97 113
289 343 182 99 109 124
289 343 183 104 113 126
290 340 182 95 112 131
290 340 183 98 114 133
290 341 182 79 97 117
290 341 183 93 110 129
290 342 183 98 110 126
290 343 183 107 117 130
291 336 184 98 117 137
291 337 184 101 118 137
291 338 184 99 114 132
291 339 184 98 113 131
291 339 185 102 116 134
291 340 184 105 118 134
291 340 185 111 121 136
291 341 184 104 116 132
291 341 185 118 124 134
290 342 184 98 113 130
291 342 184 107 117 132
291 342 185 136 133 136
291 343 184 103 117 134
291 343 185 106 116 129
291 343 186 115 120 129
291 343 191 179 154 131
292 336 184 97 116 137
292 336 185 100 119 141
292 337 184 98 116 137
292 337 185 101 119 140
292 337 186 108 125 146
293 336 186 106 125 147
293 336 187 107 127 150
293 337 186 111 128 148
293 337 187 111 129 151
292 338 185 101 118 137
292 339 185 102 119 138
292 338 186 108 126 148
292 338 187 110 129 151
292 339 186 111 128 148
292 339 187 113 131 153
293 338 186 112 129 149
293 338 187 111 130 152
293 339 187 112 132 155
293 336 188 107 128 151
293 336 189 125 136 152
293 337 188 109 131 154
293 337 189 116 134 155
293 336 190 159 152 151
293 336 191 185 164 145
293 337 190 135 139 149
293 337 191 153 146 145
293 338 188 112 133 156
293 338 189 112 134 158
293 339 188 114 133 156
293 339 189 115 135 158
292 339 191 115 133 155
293 338 190 118 135 157
293 338 191 131 139 153
293 339 190 116 136 159
293 339 191 119 136 157
292 340 185 110 123 140
292 340 186 124 133 147
292 340 187 121 134 152
292 341 186 145 142 145
292 341 187 146 146 151
292 342 186 163 152 146
292 342 187 169 154 143
292 343 186 142 136 135
292 343 187 159 145 136
292 340 189 123 138 158
292 341 188 148 144 147
292 341 189 133 142 157
293 340 188 118 134 154
293 340 189 119 136 157
293 341 188 137 142 153
293 341 189 141 145 155
292 340 190 123 139 160
292 340 191 113 132 155
292 341 190 137 144 159
292 341 191 124 138 157
292 342 188 167 148 133
292 342 189 177 158 142
292 343 188 174 154 136
292 343 189 187 163 141
293 342 189 160 153 152
292 342 190 167 155 148
292 342 191 148 145 148
292 343 190 182 155 128
292 343 191 170 146 123
288 344 180 94 109 127
288 344 181 92 108 127
288 345 180 93 109 128
288 345 181 96 112 130
288 345 182 98 113 130
289 344 182 98 112 128
289 344 183 102 113 128
289 345 182 98 112 129
289 345 183 101 114 131
288 346 180 95 109 125
288 346 181 101 112 126
288 347 181 125 120 120
288 346 182 100 113 130
288 347 182 128 126 129
289 346 182 101 115 131
289 346 183 100 115 132
289 347 182 121 122 128
289 347 183 106 113 123
290 344 183 107 117 132
290 345 183 103 116 132
288 348 181 149 132 117
288 349 181 156 133 109
288 348 182 154 135 119
288 349 182 162 136 109
289 348 182 153 135 119
289 348 183 146 131 121
289 349 182 163 137 109
289 349 183 161 137 111
288 350 181 155 134 113
288 351 181 154 135 117
288 350 182 160 136 110
288 351 182 152 131 112
289 350 182 161 136 108
289 350 183 162 136 109
289 351 182 157 134 110
289 351 183 157 134 111
289 347 184 91 101 117
290 344 184 104 117 134
290 345 184 100 116 134
291 344 184 100 116 136
291 344 185 89 110 132
291 345 184 100 117 137
291 345 185 85 109 133
291 344 186 96 114 135
291 345 186 77 108 138
291 345 187 84 116 147
290 346 184 93 111 132
290 347 184 77 97 123
290 347 185 76 99 129
291 346 185 83 108 133
291 347 185 74 102 132
291 346 186 83 111 139
291 346 187 88 117 146
291 347 186 82 110 138
291 347 187 92 119 147
291 346 188 95 123 151
291 347 188 98 125 152
291 347 189 99 126 153
291 346 191 121 130 143
291 347 190 97 125 152
291 347 191 101 126 151
289 348 184 132 124 120
289 349 184 158 137 119
289 350 184 161 136 110
289 351 184 163 138 113
290 348 184 124 119 120
290 348 185 102 108 124
290 349 184 157 138 124
290 349 185 147 135 128
291 348 186 96 112 136
291 348 187 97 120 146
291 349 186 137 133 133
291 349 187 129 133 143
290 350 184 162 137 112
290 350 185 165 142 120
290 351 185 169 144 118
290 350 186 171 148 126
290 351 186 175 148 121
291 350 186 166 148 133
291 350 187 167 153 143
291 351 186 175 150 125
291 351 187 178 152 125
291 348 188 99 126 152
291 348 189 98 126 153
291 349 188 117 130 147
291 349 189 107 128 150
291 348 190 95 123 151
291 348 191 95 123 151
291 349 190 104 127 152
291 349 191 98 125 151
291 350 188 158 150 147
291 350 189 139 140 145
291 351 188 172 148 120
291 351 189 167 147 124
291 350 190 130 137 148
291 350 191 126 136 149
291 351 190 165 148 133
291 351 191 155 130 121
292 344 187 112 125 141
292 345 187 88 117 147
292 344 188 138 137 141
292 344 189 162 151 144
292 345 188 97 121 148
292 345 189 114 129 147
292 344 190 173 154 138
292 344 191 178 152 125
292 345 190 132 137 146
292 345 191 155 145 140
292 346 188 92 122 153
292 346 189 95 125 153
292 347 189 99 126 155
292 346 190 101 126 151
292 346 191 109 126 145
292 347 190 99 126 153
292 348 189 98 126 153
292 349 190 101 127 153
