ply
format ascii 1.0
comment Version 2, Copyright 2017, 8i Labs, Inc.
comment frame_to_world_scale 0.179523
comment frame_to_world_translation -45.2095 7.18301 -54.3561
comment width 1023
element vertex 1331
property float x
property float y
property float z
property uchar red
property uchar green
property uchar blue
end_header
288 448 76 113 126 154
288 448 77 99 119 153
288 449 76 90 111 153
288 449 77 64 91 147
289 448 76 117 127 152
289 448 77 103 118 152
289 449 77 55 87 143
288 450 77 61 83 148
288 451 77 55 84 138
289 450 77 33 76 140
289 451 77 24 66 136
290 448 76 117 125 153
290 448 77 111 123 152
290 449 77 92 116 148
291 448 77 119 127 151
291 449 77 138 146 161
290 450 77 59 97 138
290 451 77 27 68 139
291 450 77 122 137 157
291 451 77 79 103 148
288 452 77 114 125 148
288 453 77 161 157 157
289 452 77 86 105 138
289 453 77 159 155 158
288 454 77 173 162 158
289 454 77 176 165 161
288 455 78 176 167 168
289 455 78 179 169 170
290 452 77 49 85 136
290 453 77 131 136 150
291 452 77 46 85 135
291 453 77 112 124 146
290 454 77 171 163 163
291 454 77 162 160 168
290 455 78 181 172 171
291 454 78 175 169 172
291 455 78 184 176 177
292 448 77 126 128 143
292 449 77 168 163 164
293 448 77 130 131 149
293 449 77 170 166 168
292 450 77 167 165 169
292 451 77 149 153 168
293 450 77 174 168 168
293 451 77 174 168 171
294 448 77 130 133 155
294 449 77 171 168 172
295 448 77 127 131 153
295 449 77 173 170 175
295 449 78 172 169 176
294 450 77 178 171 172
294 451 77 181 173 174
294 451 78 182 175 176
295 450 78 182 175 176
295 451 78 186 178 178
292 452 77 109 125 152
292 453 77 81 105 141
293 452 77 158 160 170
293 453 77 118 134 163
293 453 78 111 130 164
292 454 77 120 133 161
292 454 78 150 156 177
292 455 78 171 172 183
293 454 78 90 111 160
293 455 78 107 124 165
294 452 77 177 173 176
294 452 78 177 175 180
294 453 78 151 160 179
295 452 78 188 182 184
295 453 78 169 173 186
294 454 78 66 93 155
294 455 78 49 78 155
295 454 78 93 116 167
295 455 78 57 90 162
288 456 78 180 170 172
288 457 78 184 174 174
289 456 78 182 173 173
289 457 78 184 174 175
288 458 78 185 177 178
288 459 78 172 173 182
289 458 78 180 175 179
289 459 78 158 161 177
290 456 78 184 175 175
290 457 78 184 176 178
291 456 78 187 179 179
291 457 78 173 170 179
290 458 78 168 166 178
290 459 78 133 141 168
291 458 78 140 144 167
291 459 78 139 144 168
288 460 78 116 139 170
288 461 78 49 88 143
289 460 78 108 129 165
289 461 78 60 98 144
288 462 78 118 126 156
288 463 78 101 116 150
289 462 78 118 128 156
289 463 78 102 115 149
290 460 78 106 129 167
290 461 78 84 118 158
291 460 78 152 160 180
291 461 78 133 150 175
290 462 78 121 132 159
290 463 78 113 121 150
291 462 78 121 132 158
291 463 78 118 124 148
292 456 78 173 173 184
292 457 78 142 149 173
293 456 78 112 130 170
293 457 78 113 130 167
292 458 78 137 144 166
292 459 78 172 169 178
293 458 78 158 160 176
293 459 78 180 174 177
294 456 78 82 102 167
294 457 78 111 127 168
295 456 78 79 105 165
295 457 78 111 126 163
295 457 79 103 122 157
294 458 78 163 164 176
294 458 79 171 167 170
294 459 79 175 167 165
295 458 79 158 156 161
295 459 79 167 158 155
292 460 78 181 177 181
292 461 78 159 164 175
293 460 78 178 171 171
293 460 79 171 164 164
293 461 78 158 158 166
293 461 79 155 153 158
292 462 78 122 128 150
292 463 78 115 121 142
292 463 79 114 119 141
293 462 79 120 126 143
293 463 79 112 117 139
294 460 79 165 158 159
294 461 79 153 151 155
295 460 79 167 160 160
295 461 79 161 157 161
294 462 79 125 131 146
294 463 79 109 116 139
295 462 79 127 135 150
295 463 79 106 119 143
296 448 78 121 129 156
296 449 78 159 160 175
297 448 78 107 120 151
297 449 78 119 131 160
296 450 78 172 171 180
296 451 78 181 176 183
297 450 78 127 138 163
297 451 78 141 149 172
298 448 78 94 113 144
298 449 78 84 107 146
299 448 78 87 107 143
299 448 79 79 103 148
299 449 78 54 88 138
299 449 79 61 92 140
298 450 78 72 101 142
298 451 78 113 130 161
298 451 79 108 127 159
299 450 78 25 78 129
299 450 79 72 100 139
299 451 79 118 135 164
296 452 78 182 181 188
296 453 78 160 168 184
297 452 78 149 158 180
297 453 78 134 150 175
297 453 79 124 142 172
296 454 78 116 136 172
296 454 79 141 150 176
296 455 78 110 130 171
296 455 79 143 152 173
297 454 79 122 135 164
297 455 79 162 161 168
298 452 79 121 139 172
298 453 79 112 131 162
299 452 79 125 138 164
299 453 79 109 127 156
298 454 79 115 129 156
298 455 79 159 156 159
299 454 79 118 131 154
299 455 79 149 150 158
300 448 79 89 112 152
300 449 79 97 119 153
301 448 79 98 119 152
301 449 79 109 128 156
300 450 79 108 124 152
300 451 79 122 135 159
301 450 79 127 135 155
301 451 79 132 141 159
302 448 79 97 113 151
302 449 79 101 119 150
300 452 79 116 129 153
300 453 79 100 115 153
301 452 79 107 124 150
300 454 79 99 115 153
296 456 78 103 127 170
296 456 79 127 140 166
296 457 79 112 125 149
297 456 79 156 155 159
297 457 79 140 142 154
296 458 79 142 141 149
296 459 79 166 160 162
297 458 79 129 133 149
297 459 79 152 151 162
298 456 79 164 158 158
298 457 79 161 159 164
299 456 79 172 165 166
299 457 79 160 158 162
298 458 79 138 143 161
298 459 79 140 142 159
299 458 79 158 158 169
296 460 79 172 165 167
296 461 79 162 159 162
297 460 79 165 161 166
297 461 79 161 158 163
296 462 79 127 135 149
296 463 79 108 121 145
297 462 79 137 141 152
298 460 79 158 156 162
298 461 79 163 161 165
301 451 80 126 133 148
302 448 80 90 105 145
302 449 80 104 118 141
303 448 80 77 93 130
303 449 80 90 106 133
302 450 80 118 126 145
302 451 80 136 139 154
303 450 80 126 133 151
303 451 80 139 143 158
303 451 81 145 148 162
301 452 80 132 138 153
301 453 80 133 139 156
300 454 80 124 133 155
300 455 80 128 135 154
301 454 80 137 142 161
301 455 80 126 136 158
302 452 80 146 147 159
302 453 80 150 151 162
303 452 80 156 155 165
303 452 81 164 163 171
303 453 80 155 155 164
303 453 81 165 164 170
302 454 80 152 153 165
302 454 81 156 155 164
302 455 80 144 147 162
302 455 81 151 152 163
303 454 81 162 161 168
303 455 81 137 143 159
299 456 80 143 146 157
299 457 80 146 148 157
299 458 80 154 153 160
299 459 80 150 150 162
297 462 80 129 136 150
297 463 80 115 125 144
298 460 80 157 156 162
298 461 80 155 155 162
299 460 80 148 149 159
299 461 80 144 147 158
298 462 80 133 138 151
298 463 80 119 126 144
299 462 80 132 136 149
299 463 80 116 125 142
300 456 80 133 139 155
300 457 80 142 144 156
301 456 80 132 140 157
301 457 80 150 151 159
300 458 80 151 150 158
300 459 80 160 157 164
301 458 80 156 154 159
301 459 80 163 162 170
301 459 81 162 162 170
302 456 80 133 141 158
302 456 81 140 144 157
302 457 81 129 135 149
303 456 81 101 116 141
303 457 81 109 120 140
303 456 82 97 111 138
303 457 82 102 115 138
302 458 81 132 136 148
302 459 81 138 140 152
303 458 81 125 129 142
303 459 81 128 133 145
303 458 82 130 132 146
303 459 82 131 135 146
300 460 80 146 148 163
300 461 80 122 132 150
301 460 80 149 150 168
301 460 81 149 148 157
301 461 81 122 131 149
300 462 80 114 126 145
300 463 80 111 122 140
301 462 81 112 124 143
301 463 81 114 123 142
302 460 81 139 141 153
302 461 81 140 144 158
303 460 81 133 136 148
303 461 81 159 160 171
303 460 82 133 136 148
303 461 82 149 150 160
302 462 81 130 138 154
302 463 81 123 132 149
303 462 81 139 145 160
303 463 81 127 135 152
303 462 82 143 147 158
303 463 82 130 138 155
288 464 78 99 110 141
288 465 78 132 134 154
288 465 79 145 147 164
289 464 78 107 112 139
289 465 78 133 135 153
289 465 79 142 144 159
288 466 79 119 130 166
288 467 79 98 113 164
289 466 79 127 134 163
289 467 79 104 115 159
290 464 78 112 116 140
290 464 79 118 119 137
290 465 79 137 136 149
291 464 78 113 117 138
291 464 79 117 119 135
291 465 79 129 129 141
290 466 79 129 133 157
290 467 79 118 125 160
291 466 79 133 135 157
291 467 79 131 135 162
288 468 79 128 136 172
288 469 79 87 106 151
289 468 79 125 132 167
289 469 79 81 104 150
288 470 79 71 98 138
288 471 79 152 155 165
289 470 79 75 108 143
289 471 79 128 138 154
290 468 79 131 138 168
290 469 79 102 120 157
291 468 79 134 139 168
291 469 79 117 129 158
290 470 79 125 139 166
290 471 79 121 132 154
291 470 79 158 160 172
291 471 79 148 151 164
292 464 79 119 122 138
292 465 79 137 136 150
293 464 79 122 123 142
293 465 79 141 140 154
292 466 79 136 138 162
292 467 79 135 139 164
293 466 79 136 140 165
293 467 79 129 135 166
294 464 79 112 116 139
294 465 79 130 133 149
295 464 79 104 114 139
295 465 79 123 127 150
294 466 79 124 129 155
294 467 79 121 130 162
295 466 79 118 124 155
295 467 79 122 133 164
292 468 79 135 140 164
292 469 79 132 138 160
293 468 79 135 141 162
293 469 79 142 144 161
292 470 79 171 166 167
292 471 79 172 166 167
293 470 79 171 164 167
293 471 79 173 165 163
294 468 79 133 140 165
294 469 79 148 148 164
295 468 79 134 142 168
294 470 79 170 162 164
294 471 79 173 163 161
288 472 79 168 163 165
288 473 79 169 162 161
289 472 79 159 158 165
289 473 79 168 161 162
288 474 79 166 157 155
289 474 79 165 157 155
290 472 79 132 139 154
290 473 79 153 152 160
291 472 79 131 138 154
291 473 79 131 138 153
290 474 79 162 156 158
291 474 79 153 153 159
292 472 79 155 156 165
292 473 79 129 137 156
293 472 79 168 164 168
293 473 79 138 143 159
292 474 79 113 126 151
293 474 79 90 110 147
296 464 79 108 118 142
296 465 79 116 123 146
296 466 79 116 125 153
295 467 80 124 134 164
294 469 80 150 149 165
295 468 80 134 141 164
295 469 80 151 150 164
294 470 80 168 160 162
294 471 80 171 162 161
295 470 80 168 160 160
295 471 80 168 161 161
288 474 80 167 157 155
288 475 80 180 169 166
289 474 80 168 158 155
289 475 80 180 169 164
290 474 80 168 158 155
290 475 80 179 169 166
291 475 80 170 166 169
288 476 80 184 175 174
288 477 80 164 164 173
289 476 80 176 170 173
289 477 80 138 143 165
288 478 80 105 121 155
288 479 80 74 97 137
289 478 80 90 106 150
289 479 80 113 123 147
290 476 80 168 165 174
290 477 80 114 127 160
291 476 80 148 152 169
291 477 80 99 118 155
290 478 80 89 107 150
290 479 80 133 139 154
291 478 80 128 138 159
291 479 80 149 147 151
292 475 80 114 126 153
293 474 80 88 109 147
293 475 80 69 90 147
294 472 80 167 162 164
294 473 80 145 148 162
295 472 80 162 159 164
295 473 80 132 140 156
294 474 80 76 104 144
294 475 80 55 85 147
295 474 80 89 114 143
295 475 80 93 114 152
292 476 80 95 114 153
292 477 80 81 107 146
293 476 80 55 73 141
293 477 80 107 122 150
292 478 80 149 153 165
292 479 80 154 148 148
293 478 80 160 159 165
293 479 80 156 150 149
294 476 80 66 86 146
294 477 80 138 145 164
295 476 80 113 127 155
295 477 80 129 138 155
294 478 80 162 158 161
294 479 80 155 149 148
295 478 80 150 149 157
295 479 80 150 148 153
296 464 80 108 118 140
296 465 80 116 125 144
297 464 80 110 118 139
297 465 80 117 123 140
296 466 80 114 125 152
296 467 80 121 132 163
297 466 80 111 122 146
297 467 80 118 129 158
298 464 80 110 118 137
298 465 80 115 121 137
299 464 80 104 115 136
299 465 80 109 117 137
298 466 80 114 122 145
298 467 80 117 127 154
299 466 80 113 119 141
299 467 80 114 122 146
296 468 80 133 140 162
296 469 80 149 150 161
297 468 80 133 140 160
297 469 80 149 148 159
296 470 80 167 161 161
296 471 80 162 158 161
297 470 80 164 158 159
297 471 80 152 150 156
298 468 80 132 139 157
298 469 80 142 142 154
299 468 80 130 137 155
299 469 80 132 137 154
298 470 80 154 152 157
298 471 80 138 139 149
299 470 80 141 143 155
299 470 81 130 135 148
299 471 81 128 133 144
300 464 80 107 116 135
300 465 80 109 115 134
301 464 81 111 119 138
301 465 81 108 116 134
300 466 80 112 118 138
300 467 80 111 119 141
300 467 81 113 122 143
301 466 81 108 116 137
301 467 81 108 118 139
302 464 81 108 119 138
302 465 81 104 115 134
303 464 81 109 120 142
303 465 81 99 112 135
303 464 82 110 121 143
303 465 82 95 110 134
302 466 81 109 118 140
302 467 81 102 113 136
303 466 81 102 112 140
303 467 81 102 113 139
303 466 82 104 114 142
303 467 82 101 111 135
300 468 80 124 134 152
300 468 81 121 131 149
300 469 81 118 128 149
301 468 81 122 132 150
301 469 81 118 127 147
300 470 81 113 123 140
300 471 81 125 132 144
301 470 81 110 120 137
301 471 81 125 130 142
302 468 81 118 127 145
302 469 81 128 134 148
303 468 81 113 122 139
303 469 81 129 133 145
303 468 82 115 122 138
303 469 82 131 133 143
302 470 81 134 138 148
302 471 81 132 134 142
303 470 81 149 148 155
303 471 81 144 144 150
303 470 82 152 151 156
303 471 82 153 152 158
296 472 80 143 146 158
296 473 80 118 131 147
297 472 80 119 127 145
297 473 80 130 136 151
296 474 80 139 145 158
296 475 80 153 156 168
297 474 80 158 154 157
297 475 80 168 160 158
298 472 80 119 125 144
298 472 81 132 135 148
298 473 80 150 148 156
298 473 81 155 152 156
299 472 81 143 144 154
299 473 81 159 154 155
298 474 80 162 154 152
298 474 81 160 152 150
298 475 80 164 155 153
298 475 81 159 152 151
299 474 81 157 149 147
299 475 81 148 147 151
296 476 80 154 157 169
296 477 80 120 131 149
297 476 80 163 161 168
297 477 80 120 132 150
296 478 80 118 129 146
296 479 80 123 131 147
297 478 80 99 117 140
297 479 80 104 119 141
298 476 80 149 149 157
298 477 80 108 124 145
299 476 81 128 136 149
299 477 80 92 114 142
299 477 81 91 112 140
298 478 80 100 119 145
298 479 80 109 123 145
299 478 80 87 108 139
299 478 81 83 105 140
299 479 80 90 107 130
299 479 81 84 101 128
300 472 81 145 145 153
300 473 81 157 151 152
301 472 81 144 143 150
301 473 81 157 152 154
300 474 81 154 148 147
300 475 81 130 134 143
301 474 81 148 145 148
301 475 81 108 117 130
302 472 81 132 132 138
302 473 81 142 140 145
303 472 81 134 135 142
303 473 81 126 129 139
303 472 82 144 144 150
303 473 82 129 132 142
302 474 81 121 126 137
302 475 81 73 94 114
303 474 81 96 110 128
303 475 81 56 84 109
303 474 82 101 114 133
303 475 82 59 86 110
300 476 81 91 110 131
300 477 81 68 98 134
301 476 81 77 97 122
301 477 81 70 94 124
300 478 81 79 101 134
300 479 81 120 128 143
301 478 81 110 123 145
301 479 81 149 148 152
302 476 81 80 99 121
302 477 81 122 129 142
303 476 81 101 114 130
303 477 81 158 153 154
303 476 82 122 127 137
303 477 82 158 151 151
302 478 81 157 154 158
302 479 81 162 155 155
303 478 81 166 155 151
303 479 81 171 161 159
303 478 82 166 154 148
304 448 80 90 104 135
304 448 81 102 114 142
304 449 80 103 116 141
304 449 81 115 126 150
305 448 81 110 121 154
305 449 81 128 136 156
304 450 81 136 143 159
304 451 81 160 160 169
305 450 81 173 171 177
305 450 82 159 161 172
305 451 82 172 171 179
306 448 81 113 123 149
306 449 81 137 145 164
307 448 81 109 121 157
307 448 82 103 120 156
307 449 82 122 135 161
306 450 82 147 153 168
306 451 82 166 167 179
307 450 82 143 150 172
307 451 82 158 162 178
307 451 83 129 142 162
304 452 81 170 167 174
304 453 81 176 172 176
304 452 82 176 173 178
304 453 82 176 172 176
305 452 82 175 172 178
305 453 82 173 171 176
304 454 82 169 166 170
304 455 82 151 152 163
305 454 82 166 164 168
305 454 83 158 157 163
305 455 82 154 154 162
305 455 83 148 150 159
306 452 82 163 163 171
306 452 83 153 155 167
306 453 83 161 162 171
307 452 83 142 147 164
307 453 83 154 158 169
306 454 83 159 160 170
306 455 83 135 142 155
307 454 83 126 136 154
307 455 83 120 132 153
307 454 84 109 123 148
307 455 84 122 133 158
308 448 82 103 119 159
308 449 82 122 135 171
308 449 83 122 135 160
309 448 83 102 120 154
309 449 83 124 137 160
308 450 82 126 139 174
308 450 83 118 133 157
308 451 83 100 121 148
309 450 83 139 148 168
309 451 83 104 124 148
310 448 83 103 120 155
310 449 83 120 134 156
309 451 84 117 133 154
310 449 84 116 131 155
311 448 84 106 121 156
311 449 84 115 130 154
310 450 84 149 155 170
310 451 84 134 146 163
311 450 84 144 152 167
311 450 85 145 152 168
311 451 84 148 154 168
311 451 85 133 141 159
308 452 83 105 122 147
308 453 83 116 128 146
308 452 84 76 104 133
308 453 84 102 119 143
309 452 84 76 102 133
309 453 84 74 102 132
308 454 84 103 120 147
308 455 84 118 130 154
309 454 84 90 110 139
309 454 85 93 114 145
309 455 85 120 133 158
310 452 84 97 116 143
310 452 85 103 121 145
310 453 84 84 109 138
310 453 85 100 120 149
311 452 85 121 134 155
311 453 85 129 139 159
310 454 85 104 121 155
310 455 85 110 123 147
311 454 85 130 138 154
311 455 85 113 125 144
311 454 86 140 145 158
311 455 86 125 133 148
304 456 82 120 128 147
304 457 82 111 120 138
305 456 82 130 135 149
305 456 83 127 133 147
305 457 82 119 125 139
305 457 83 124 130 143
304 458 82 129 131 143
304 459 82 137 136 145
305 458 82 131 134 143
305 458 83 142 142 151
305 459 83 145 144 152
306 456 83 117 130 151
306 457 83 131 136 151
306 458 83 146 145 152
306 459 83 154 150 156
307 456 84 140 145 162
307 457 84 161 157 165
306 458 84 156 152 157
306 459 84 157 153 155
307 458 84 167 162 166
307 459 84 165 160 163
304 460 82 145 145 153
304 461 82 153 153 161
305 460 83 150 148 155
305 461 82 160 159 165
305 461 83 154 153 160
304 462 82 143 145 156
304 463 82 131 136 152
305 462 82 146 150 162
305 462 83 146 149 160
305 463 82 128 135 151
305 463 83 127 135 152
306 460 83 157 153 161
306 461 83 157 155 163
306 462 83 139 144 159
306 463 83 125 134 151
307 460 84 163 159 162
307 461 84 157 154 159
307 462 84 138 142 153
307 463 84 121 131 147
308 456 84 142 146 157
308 456 85 130 138 154
308 457 84 152 151 157
309 456 85 139 144 155
309 457 84 150 149 154
309 457 85 148 148 154
308 458 84 162 157 160
308 459 84 163 159 162
309 458 84 154 151 155
309 458 85 154 151 155
309 459 85 162 158 161
310 456 85 126 133 145
310 457 85 144 146 154
310 457 86 157 157 166
311 456 86 134 139 152
311 457 86 144 145 154
310 458 85 152 149 155
310 459 85 155 153 157
310 458 86 154 152 160
311 458 86 148 149 156
311 459 86 146 146 153
311 459 87 137 139 147
308 460 84 166 162 165
308 461 84 163 159 162
309 460 85 162 157 159
309 461 85 160 156 158
308 462 84 144 146 154
308 463 84 127 134 147
309 462 85 151 151 157
309 463 85 127 133 144
310 460 85 158 153 156
310 461 85 160 155 156
311 460 86 155 152 157
311 461 86 156 152 159
310 462 85 156 155 164
310 463 85 129 136 152
311 462 86 149 149 155
311 463 86 132 136 146
312 448 84 106 121 154
312 448 85 113 126 159
312 449 84 104 121 154
312 449 85 107 125 156
313 448 85 111 123 158
313 449 85 104 123 157
313 448 86 115 126 161
313 449 86 103 123 158
312 450 85 126 141 162
312 451 85 131 139 156
313 450 85 110 129 155
313 450 86 104 127 159
313 451 86 125 135 152
314 448 86 113 124 162
314 449 86 108 125 163
315 448 86 109 122 162
315 448 87 107 121 163
315 449 86 110 127 162
315 449 87 111 126 162
314 450 86 103 127 156
314 451 86 135 146 162
315 450 86 103 127 157
315 450 87 105 128 157
315 451 86 127 143 164
315 451 87 139 151 169
312 452 85 138 142 154
312 453 85 143 147 159
312 452 86 147 148 155
312 453 86 150 152 162
313 452 86 149 149 156
313 453 86 163 161 166
312 454 86 155 156 166
312 455 86 154 155 163
313 454 86 165 163 167
313 454 87 171 167 170
313 455 86 162 159 164
313 455 87 172 167 169
314 452 86 151 151 158
314 452 87 159 160 168
314 453 86 160 157 161
314 453 87 166 162 165
315 452 87 170 171 180
315 453 87 175 170 174
314 454 87 169 163 165
314 455 87 172 166 167
316 448 87 103 119 162
316 449 87 111 125 164
317 448 87 98 117 161
316 450 87 97 122 152
316 451 87 114 133 157
315 452 88 168 170 181
315 453 88 172 169 175
315 454 88 167 163 167
315 455 88 169 163 165
317 448 88 94 116 159
317 449 88 107 122 164
316 450 88 93 118 151
316 451 88 122 138 160
317 450 88 98 120 156
317 450 89 102 120 159
317 451 88 104 126 152
317 451 89 121 138 161
318 448 88 93 118 158
318 448 89 94 120 158
318 449 88 99 118 159
318 449 89 105 120 161
319 448 89 92 120 156
319 449 89 101 122 157
319 448 90 90 117 154
319 449 90 102 120 156
318 450 89 100 117 157
318 451 89 131 146 170
318 450 90 101 116 157
318 451 90 150 161 180
319 450 90 104 117 157
319 451 90 127 140 167
316 452 88 150 156 170
316 453 88 170 171 179
316 453 89 170 170 178
317 452 88 127 138 157
317 452 89 126 137 154
317 453 89 138 145 158
316 454 88 177 173 178
316 454 89 175 172 178
316 455 88 166 162 166
316 455 89 168 165 170
317 454 89 167 168 177
317 455 89 172 170 178
318 452 89 140 150 165
318 453 89 131 138 152
318 452 90 156 163 177
318 453 90 122 130 145
319 452 90 163 170 184
319 452 91 170 175 187
319 453 90 145 149 163
319 453 91 158 160 171
318 454 89 142 147 160
318 454 90 132 139 154
318 455 90 154 156 168
319 454 90 115 124 140
319 454 91 120 128 144
319 455 91 136 142 157
312 456 86 151 151 159
312 457 86 146 146 153
312 457 87 146 146 153
313 456 87 162 159 164
313 457 87 155 153 158
312 458 87 141 143 152
312 459 87 136 139 150
313 458 87 134 135 143
313 459 87 131 135 152
314 456 87 169 163 165
314 457 87 172 168 173
312 460 86 140 140 149
312 460 87 128 132 144
312 461 86 143 142 150
312 461 87 136 137 148
313 460 87 122 127 141
313 461 87 122 127 138
312 462 86 143 143 149
312 463 86 135 138 145
313 462 87 136 137 144
313 463 87 136 136 142
313 459 88 125 129 141
314 456 88 170 164 165
314 457 88 166 161 164
315 456 88 169 164 166
315 457 88 167 161 163
314 458 88 148 146 153
314 459 88 128 131 141
315 458 88 155 152 157
315 459 88 137 142 155
315 459 89 152 151 157
313 460 88 121 127 140
313 461 88 127 134 156
313 462 88 142 145 156
313 463 88 134 134 139
314 460 88 125 130 143
314 461 88 130 135 147
315 460 88 129 132 141
315 460 89 142 143 149
315 461 88 127 131 141
315 461 89 134 137 144
314 462 88 132 134 142
314 463 88 142 143 151
315 462 88 132 134 142
315 462 89 130 132 140
315 463 88 139 139 144
315 463 89 139 139 144
316 456 89 163 161 167
316 457 88 166 161 166
316 457 89 155 153 159
317 456 89 162 162 170
317 457 89 152 152 161
317 457 90 151 148 154
316 458 89 155 152 157
316 459 89 154 151 155
317 458 89 160 157 162
317 459 89 155 151 153
317 458 90 154 150 153
317 459 90 155 151 152
318 456 90 148 150 163
318 457 90 146 149 162
318 457 91 126 131 146
319 456 91 132 137 152
319 457 91 126 133 148
318 458 90 150 149 155
318 459 90 155 151 154
318 459 91 157 153 156
319 458 91 150 151 161
319 459 91 162 159 165
319 459 92 166 165 173
316 460 89 148 145 148
316 461 89 144 143 147
317 460 89 157 152 154
316 461 90 151 147 150
317 460 90 157 152 153
317 461 90 156 151 152
317 461 91 161 154 154
316 462 89 138 138 144
316 463 89 135 135 140
317 462 90 151 148 151
317 462 91 159 153 153
317 463 90 145 143 146
318 460 90 160 154 155
318 460 91 161 155 156
318 461 91 161 155 155
319 460 91 159 156 160
319 461 91 159 154 157
318 462 90 156 151 153
318 462 91 160 154 155
318 463 90 152 148 150
318 463 91 158 152 153
319 462 91 161 155 157
319 463 91 161 156 157
319 460 92 159 158 165
319 461 92 157 153 157
319 462 92 160 155 158
319 463 92 161 156 158
304 464 82 111 122 144
304 465 82 97 112 136
305 464 82 112 122 144
305 464 83 109 120 142
305 465 82 98 112 134
305 465 83 98 112 132
304 466 82 101 113 137
304 467 82 103 114 135
305 466 82 103 115 136
305 466 83 102 113 133
305 467 82 101 113 134
305 467 83 96 110 131
306 464 83 110 122 142
306 465 83 102 114 134
307 464 83 109 122 142
307 465 83 107 118 136
306 466 83 102 112 131
306 467 83 95 109 131
307 466 83 102 113 132
307 467 83 91 108 131
307 464 84 116 126 143
307 465 84 109 119 136
307 466 84 100 110 128
307 467 84 95 108 128
304 468 82 116 124 139
304 469 82 126 130 142
305 468 82 113 122 139
305 468 83 108 119 137
305 469 82 122 127 141
305 469 83 118 125 142
304 470 82 145 144 151
304 471 82 158 155 160
305 470 82 142 143 150
305 471 82 154 153 160
306 468 83 101 114 134
306 469 83 117 125 141
307 468 83 95 110 131
307 469 83 113 121 137
306 470 83 134 137 147
306 471 83 140 143 152
307 470 83 123 129 142
307 471 83 135 138 148
307 468 84 96 109 127
307 469 84 108 118 136
308 464 84 117 126 140
308 465 84 107 118 134
309 464 85 117 125 140
309 465 84 104 116 134
309 465 85 104 115 132
308 466 84 97 108 126
308 467 84 95 108 126
309 466 84 96 108 125
309 466 85 94 106 124
309 467 84 95 107 125
309 467 85 95 108 125
310 464 85 113 122 138
310 465 85 104 115 132
311 464 85 113 124 145
311 465 85 108 119 139
311 464 86 116 124 140
311 465 86 105 116 135
310 466 85 95 107 125
310 467 85 94 107 124
311 466 85 95 108 126
311 467 85 94 107 125
311 466 86 93 105 123
311 467 86 90 103 120
308 471 83 137 139 148
308 468 84 95 107 124
308 469 84 105 116 133
309 468 84 94 106 121
309 468 85 95 107 122
309 469 84 105 115 130
308 470 84 122 130 144
308 471 84 140 142 151
309 470 84 128 132 143
309 471 84 144 143 148
310 468 85 94 106 122
310 469 85 104 114 129
311 468 85 94 106 124
311 469 85 104 114 130
311 468 86 92 105 123
311 469 86 96 109 125
310 470 84 128 132 141
310 470 85 118 125 137
310 471 84 137 137 142
310 471 85 119 122 130
311 470 85 106 116 130
311 471 85 100 107 118
311 470 86 96 108 123
311 471 86 99 104 113
304 472 82 147 147 152
304 473 82 121 124 133
305 472 82 133 135 143
305 473 82 114 118 125
304 474 82 101 112 127
304 475 82 87 101 118
305 474 82 119 122 130
305 475 82 110 116 125
306 472 82 116 120 128
306 472 83 124 127 135
306 473 82 130 129 134
306 473 83 131 130 134
307 472 83 130 131 137
307 473 83 138 134 135
306 474 82 141 138 140
306 475 82 125 127 133
307 474 83 145 139 138
307 475 82 136 136 140
307 475 83 137 135 138
304 476 82 133 133 139
304 477 82 155 148 147
305 476 82 124 126 131
305 477 82 148 142 143
304 479 81 184 174 172
304 478 82 165 153 148
304 479 82 184 173 171
305 478 82 171 161 157
305 479 82 191 181 179
306 476 82 108 114 123
306 477 82 131 130 135
307 476 82 113 119 128
307 476 83 122 125 132
307 477 82 115 121 131
307 477 83 112 119 136
306 478 82 178 169 167
306 479 82 189 181 180
307 478 82 166 162 167
307 478 83 150 154 167
307 479 82 175 174 182
308 472 83 135 133 137
308 473 83 142 137 136
308 474 83 148 141 140
308 475 83 144 140 140
309 475 83 147 143 144
308 472 84 140 139 143
308 473 84 150 142 140
309 472 84 144 139 139
309 473 84 146 139 137
309 474 84 147 141 139
309 475 84 141 136 135
310 472 85 127 126 129
310 473 84 143 137 137
310 473 85 140 137 139
311 472 85 114 116 123
311 473 85 135 134 137
310 474 84 146 141 141
310 475 84 139 134 133
311 474 84 144 139 138
311 474 85 143 138 139
311 475 84 138 133 133
311 475 85 140 136 137
308 476 83 138 136 139
308 477 83 132 137 151
309 476 83 143 142 147
309 477 83 136 140 153
308 478 83 130 141 166
308 479 83 117 134 165
309 478 83 119 135 166
309 479 83 105 125 170
309 476 84 146 143 147
310 476 84 137 136 141
310 477 84 125 132 148
311 476 84 134 135 143
311 476 85 135 135 140
311 477 84 130 137 155
310 478 84 121 137 168
310 479 84 110 128 166
311 478 84 128 139 164
311 479 84 133 143 167
312 464 86 123 129 141
312 465 86 109 119 135
313 464 87 125 129 138
313 465 87 112 120 134
312 466 86 92 105 124
312 467 86 86 101 120
312 467 87 94 108 127
313 466 87 93 107 125
313 467 87 87 102 120
312 468 86 92 105 122
312 468 87 94 106 122
312 469 86 86 99 115
313 468 87 90 103 120
313 469 87 79 94 113
312 470 86 86 99 114
312 471 86 101 109 119
313 470 86 90 101 114
313 470 87 80 94 111
313 471 86 105 111 122
313 471 87 108 114 125
314 468 87 79 96 117
314 469 87 76 94 113
314 470 87 82 95 110
314 471 87 104 111 121
313 464 88 127 130 138
313 465 88 108 117 132
313 466 88 93 107 124
314 464 88 130 132 139
314 465 88 117 122 134
315 464 88 133 133 140
315 464 89 138 138 145
315 465 88 120 124 135
315 465 89 136 139 153
314 466 88 102 114 132
314 467 88 85 101 121
315 466 88 103 115 132
315 466 89 115 125 146
315 467 88 84 102 122
315 467 89 85 102 122
314 468 88 80 97 117
314 469 88 74 92 111
315 468 88 74 94 117
315 468 89 75 95 115
315 469 88 75 93 113
315 469 89 77 95 115
314 471 88 109 113 122
315 470 88 84 97 112
315 470 89 75 92 110
315 471 88 97 105 117
316 464 89 144 143 149
316 465 89 130 131 138
317 464 90 140 138 142
317 465 90 136 136 141
316 466 89 113 121 134
316 467 89 88 103 122
317 467 89 85 101 119
317 466 90 123 128 140
317 467 90 98 110 127
318 464 90 147 144 148
318 464 91 153 149 152
318 465 90 139 139 143
318 465 91 144 143 148
319 464 91 155 151 154
319 465 91 148 147 152
318 466 90 120 124 135
318 466 91 126 129 138
318 467 90 99 111 129
318 467 91 104 114 130
319 466 91 124 127 137
319 467 91 103 113 128
319 464 92 153 152 160
319 465 92 147 146 151
319 466 92 136 137 146
316 468 89 76 94 114
316 469 89 77 94 115
317 468 89 76 94 114
317 469 89 81 98 118
317 468 90 79 96 115
317 469 90 79 97 118
316 470 89 75 93 112
316 471 89 92 103 116
317 470 89 71 92 112
317 471 89 97 109 125
317 470 90 75 95 114
317 471 90 87 101 117
318 468 90 80 99 119
318 468 91 89 104 122
318 469 90 80 97 118
319 468 91 85 102 120
319 469 91 80 98 118
318 470 90 83 100 120
318 471 90 85 99 116
319 470 90 82 97 115
319 470 91 82 98 117
319 471 90 81 96 114
319 471 91 86 100 116
312 473 85 131 131 135
312 472 86 117 120 127
312 473 86 123 124 131
313 472 86 117 122 130
313 472 87 121 125 133
313 473 86 118 122 130
312 474 85 126 127 132
312 475 85 127 127 132
313 475 85 124 126 135
312 474 86 121 123 130
313 474 86 112 117 126
313 475 86 115 120 129
314 472 87 125 127 135
314 473 87 121 124 132
314 474 86 109 115 126
314 474 87 111 116 125
314 475 86 120 124 134
314 475 87 124 127 136
315 474 87 118 121 128
315 475 87 141 141 148
312 476 85 129 130 137
312 477 85 133 137 148
313 476 85 125 128 137
313 477 85 128 132 141
313 476 86 126 129 138
313 477 86 131 134 143
312 478 85 150 152 162
312 479 85 169 168 177
313 478 85 162 159 164
313 479 85 175 170 173
313 478 86 155 153 159
313 479 86 173 169 172
314 476 86 128 130 139
314 476 87 140 141 150
314 477 86 135 136 143
314 477 87 137 138 145
315 476 87 141 141 148
315 477 87 133 134 141
314 478 86 148 147 152
314 479 86 168 164 168
315 478 87 138 138 144
315 479 87 166 163 167
316 476 87 141 140 146
316 477 87 133 132 137
316 478 87 135 134 139
316 479 87 151 149 155
314 472 88 119 122 129
315 472 88 110 115 123
315 473 88 116 119 126
315 474 88 129 129 133
316 472 89 107 113 123
316 473 88 117 119 126
316 473 89 119 120 126
317 472 89 106 113 123
317 473 89 123 124 129
317 472 90 107 114 125
316 474 88 139 137 141
316 475 88 155 151 154
317 474 89 148 144 146
317 475 88 156 152 154
317 475 89 158 153 155
318 472 90 100 108 120
318 473 90 126 127 133
319 472 90 101 109 121
319 472 91 100 110 123
319 473 90 129 130 137
319 473 91 127 129 139
318 474 89 157 152 152
318 475 89 159 153 154
318 474 90 155 151 153
318 475 90 156 150 151
319 474 90 151 147 150
319 474 91 144 143 147
319 475 90 154 149 150
319 475 91 149 145 147
316 476 88 149 146 150
316 477 88 138 136 140
317 476 88 150 147 150
317 476 89 151 147 149
317 477 88 143 140 143
316 478 88 133 131 135
317 478 88 136 134 137
317 479 88 137 138 146
318 476 89 153 148 148
318 477 89 147 143 144
318 476 90 152 147 148
318 477 90 150 145 145
319 476 90 152 147 148
319 476 91 150 145 146
319 477 90 149 145 147
318 478 89 141 139 142
318 479 88 133 134 143
318 479 89 133 135 143
319 478 89 143 140 144
319 478 90 142 141 145
319 479 90 131 132 140
