ply
format ascii 1.0
comment Version 2, Copyright 2017, 8i Labs, Inc.
comment frame_to_world_scale 0.179523
comment frame_to_world_translation -45.2095 7.18301 -54.3561
comment width 1023
element vertex 1295
property float x
property float y
property float z
property uchar red
property uchar green
property uchar blue
end_header
288 676 103 94 106 122
288 677 103 88 104 122
289 676 103 99 111 126
289 677 103 102 113 127
288 678 102 81 100 120
288 678 103 81 100 120
288 679 102 83 101 120
289 678 102 103 113 127
289 678 103 103 113 127
289 679 102 102 112 126
290 676 103 108 117 130
290 677 103 114 121 132
291 677 103 114 121 132
290 678 103 112 120 131
290 679 102 113 120 131
291 678 103 116 123 133
291 679 102 117 124 135
291 679 103 115 123 135
292 677 103 105 115 127
292 678 103 106 117 130
292 679 102 114 124 136
292 679 103 108 119 133
293 678 103 93 108 125
293 679 103 95 111 128
294 678 103 90 108 126
294 679 103 88 107 126
295 679 103 95 112 130
288 672 105 116 119 126
288 673 105 107 113 125
289 672 105 107 111 119
289 673 105 101 108 121
288 672 106 115 117 123
289 672 106 114 116 122
288 674 104 96 109 125
288 674 105 94 106 123
288 675 104 96 110 126
289 674 104 87 103 122
289 674 105 88 103 120
289 675 104 91 107 125
290 673 105 101 108 120
291 673 105 104 109 118
290 672 106 115 117 123
291 672 106 122 123 128
291 673 106 113 116 123
290 674 105 88 102 119
290 675 104 88 104 122
291 674 105 98 109 122
291 675 104 92 106 124
291 675 105 93 107 124
288 676 104 94 108 124
289 676 104 96 110 126
290 676 104 99 112 127
291 676 104 99 110 125
292 673 105 112 116 124
292 672 106 121 123 129
292 673 106 119 121 128
293 672 106 125 125 132
293 673 106 121 123 130
292 674 105 105 114 127
292 675 104 98 110 126
292 675 105 100 112 127
293 674 105 112 118 129
293 675 104 96 109 125
293 675 105 101 112 127
294 672 106 121 122 127
294 673 106 122 122 128
295 672 106 119 119 123
295 672 107 118 119 124
295 673 106 119 120 125
294 674 105 115 120 130
294 675 105 100 111 125
295 674 105 110 116 127
295 675 105 99 110 123
295 674 106 119 122 130
292 676 104 98 110 124
292 677 104 101 111 125
293 676 104 91 105 121
293 677 104 94 108 124
294 676 104 89 105 122
294 676 105 94 107 124
294 677 104 91 107 125
295 676 104 86 104 122
295 676 105 91 107 124
295 677 104 83 103 123
294 678 104 94 111 129
295 678 104 90 109 128
295 679 104 94 111 129
288 680 101 99 110 124
288 681 101 101 112 125
289 680 101 115 120 130
289 681 101 114 120 130
288 680 102 90 105 121
289 680 102 109 116 128
288 682 101 106 115 127
288 683 100 119 124 133
288 683 101 114 120 130
289 682 101 115 121 130
289 683 101 119 123 132
290 681 101 116 122 133
291 681 101 121 126 136
290 680 102 116 123 133
290 681 102 118 124 134
291 680 102 121 127 137
291 681 102 124 130 139
290 682 101 116 122 132
290 683 101 117 122 131
291 682 101 124 128 137
291 683 101 120 125 134
288 686 99 130 134 143
288 687 99 131 136 145
289 686 99 124 129 137
289 687 99 128 132 140
290 687 99 120 123 129
288 684 100 122 126 133
288 685 100 126 129 137
289 684 100 120 124 132
289 685 100 120 124 133
289 686 100 122 127 136
290 684 100 117 122 131
290 684 101 118 122 131
290 685 100 117 123 133
291 684 100 116 122 132
291 684 101 116 121 131
291 685 100 116 122 132
291 685 101 115 122 132
290 686 100 116 122 131
290 687 100 115 119 127
291 686 100 112 119 128
291 687 100 109 113 118
292 680 102 116 125 137
292 681 102 122 129 139
293 680 102 106 119 134
293 680 103 103 117 133
293 681 102 110 122 137
292 683 101 123 129 140
293 683 101 122 130 142
292 682 102 125 131 142
292 683 102 122 129 141
293 682 102 118 129 142
293 683 102 121 130 142
294 680 103 96 113 130
294 681 102 104 119 136
295 680 103 94 112 131
295 681 102 95 114 134
295 681 103 93 113 132
294 682 102 109 123 139
294 683 102 116 127 141
295 682 102 96 115 134
295 683 102 99 117 135
292 684 101 119 126 136
292 685 101 118 123 132
293 684 101 123 130 142
293 685 101 124 129 137
292 686 100 116 120 127
292 687 100 113 114 118
293 686 100 123 126 133
293 686 101 123 127 134
293 687 100 122 124 129
294 684 101 122 130 142
294 685 101 124 131 141
295 684 101 114 127 142
295 685 101 118 129 143
294 684 102 119 129 142
295 684 102 110 124 140
294 686 101 127 131 140
294 687 100 126 130 138
295 686 101 124 132 145
295 687 100 123 131 143
295 687 101 125 132 143
296 679 103 98 113 130
297 679 103 99 112 128
296 672 106 118 117 121
296 672 107 122 122 125
296 673 106 116 117 123
297 672 107 118 120 126
297 673 106 109 114 123
296 674 105 108 115 125
296 675 105 99 111 125
297 675 105 96 110 127
296 674 106 111 116 126
297 674 106 102 112 126
297 675 106 96 110 127
298 672 107 106 113 124
298 673 106 97 108 122
298 673 107 101 109 121
299 672 107 92 105 121
299 673 106 90 103 119
299 673 107 89 103 118
298 675 105 75 97 117
299 675 105 75 95 115
298 674 106 94 107 123
298 675 106 83 101 119
299 674 106 92 105 121
299 675 106 84 100 117
296 676 105 91 108 128
296 677 104 79 102 125
296 677 105 82 102 126
297 676 105 86 105 126
297 677 104 78 101 125
297 677 105 79 102 127
296 678 104 81 103 125
296 679 104 89 107 126
297 678 104 80 102 123
297 679 104 91 108 126
298 676 105 80 101 124
298 677 105 81 104 127
299 676 105 77 98 120
299 677 105 78 101 125
298 678 104 83 103 125
298 679 104 87 105 124
299 678 104 83 104 127
299 678 105 85 104 126
299 679 104 76 99 122
300 672 107 85 103 122
300 673 106 95 109 125
300 673 107 90 106 123
301 672 107 92 107 124
301 673 106 103 114 128
301 673 107 96 109 125
300 675 105 99 111 125
301 675 105 103 114 128
300 674 106 101 113 128
300 675 106 95 108 124
301 674 106 106 116 129
301 675 106 104 114 127
302 672 107 99 111 127
302 673 106 101 113 128
302 673 107 98 111 126
303 672 107 103 114 128
303 673 106 102 112 126
303 673 107 100 112 126
302 674 106 103 114 128
302 675 106 101 112 126
303 674 106 105 113 126
303 675 106 106 114 125
300 676 105 88 104 122
300 677 105 81 100 120
301 676 105 99 111 125
301 677 105 91 105 122
300 678 104 83 102 123
300 678 105 81 100 120
300 679 104 81 100 122
301 678 104 87 103 120
301 678 105 89 104 121
301 679 104 87 102 120
302 676 105 97 108 122
302 677 105 98 109 123
303 676 105 105 112 124
303 677 105 105 112 123
302 678 104 104 113 125
302 678 105 102 111 125
302 679 104 103 112 124
303 678 104 112 118 129
303 678 105 109 116 126
303 679 104 115 120 129
296 680 103 105 117 133
296 681 102 107 120 135
296 681 103 105 119 135
297 680 103 108 117 130
297 681 102 118 126 137
297 681 103 116 123 134
296 682 102 106 119 135
296 683 102 103 117 133
297 682 102 121 127 137
297 683 102 120 126 136
298 680 103 99 110 125
298 681 103 115 121 131
299 680 103 75 94 115
299 681 103 100 110 123
298 682 102 121 125 134
298 683 102 124 128 136
299 682 102 112 118 128
299 682 103 103 112 124
299 683 102 119 123 131
296 684 101 100 117 135
296 685 101 107 121 137
297 685 101 114 122 134
296 684 102 101 116 132
296 685 102 103 117 133
297 684 102 118 125 136
297 685 102 112 121 134
296 686 101 113 125 140
296 687 100 126 134 147
296 687 101 121 131 145
297 686 101 113 124 137
297 687 101 118 128 141
298 685 101 121 128 138
299 685 101 124 130 140
298 684 102 124 129 138
299 684 102 123 127 136
298 686 101 115 124 137
298 687 101 112 123 136
299 686 101 119 127 140
299 687 101 114 125 138
300 680 103 76 96 118
300 681 103 92 105 121
301 680 103 94 107 123
301 681 103 101 111 124
300 682 102 112 119 129
300 682 103 105 114 127
300 683 102 119 123 131
301 682 102 123 126 135
301 682 103 114 120 131
301 683 102 126 129 136
302 680 103 107 114 126
302 681 103 109 116 127
303 680 103 115 120 129
303 681 103 116 120 129
302 682 102 124 127 135
302 682 103 118 122 131
302 683 102 128 130 137
303 682 102 119 122 130
303 682 103 117 121 129
303 683 102 121 124 132
300 685 101 118 125 134
301 685 101 120 124 132
300 684 102 118 122 131
301 684 102 124 127 134
300 686 101 121 129 141
300 687 101 121 130 142
301 686 101 122 127 137
301 687 101 123 129 140
302 685 101 126 129 136
303 685 101 129 131 137
302 684 102 129 131 137
303 684 102 124 126 133
303 685 102 126 128 135
302 686 101 125 128 135
302 687 101 125 129 138
303 686 101 130 132 138
303 687 101 130 132 139
301 680 104 91 105 122
302 680 104 105 113 125
303 680 104 115 120 128
288 688 99 135 138 147
288 689 99 133 136 143
289 688 99 134 136 141
289 689 99 137 134 136
288 690 98 118 123 129
288 690 99 127 130 135
288 691 98 104 108 113
289 690 98 126 122 122
289 690 99 130 115 114
289 691 98 118 94 91
290 688 99 121 119 121
290 689 99 125 103 102
291 688 99 107 101 100
291 689 99 113 74 73
290 690 99 130 76 71
290 691 98 132 52 53
290 691 99 138 42 42
291 690 99 128 38 43
291 691 99 140 34 43
291 688 100 105 101 101
288 693 97 101 93 90
288 692 98 89 91 94
288 693 98 90 86 85
289 692 98 110 64 68
289 693 98 110 35 38
288 694 97 107 86 77
288 695 97 113 79 68
289 694 97 117 22 28
289 695 97 125 16 29
290 692 98 135 27 37
290 693 98 127 18 23
291 692 98 142 36 37
291 693 98 133 32 38
290 694 97 122 17 21
290 695 97 124 19 25
291 695 97 119 20 25
290 694 98 122 16 23
291 694 98 121 28 31
292 689 99 107 72 69
293 689 99 103 87 81
292 690 99 115 52 50
292 691 99 126 39 36
293 690 99 103 71 65
293 691 99 108 44 29
294 690 99 109 102 98
294 691 99 102 82 71
295 690 99 112 114 118
295 691 99 111 111 113
292 688 100 109 104 104
292 689 100 106 92 91
293 688 100 118 118 120
293 689 100 108 103 100
294 688 100 123 125 131
294 689 100 118 118 120
295 688 100 123 129 139
295 689 100 117 122 130
295 690 100 111 116 124
292 692 98 131 37 35
292 692 99 130 26 29
292 693 98 126 43 42
293 692 98 118 29 25
293 692 99 113 35 24
293 693 98 117 44 37
292 695 97 112 38 30
293 695 97 121 61 50
292 694 98 116 52 43
292 695 98 114 54 42
293 694 98 115 59 46
293 695 98 121 60 45
294 692 99 99 57 42
294 693 98 105 38 22
295 692 99 107 103 101
295 693 98 96 71 59
295 693 99 101 89 80
294 694 98 116 41 29
294 695 98 125 39 28
295 694 98 103 43 37
295 695 98 114 29 34
288 696 97 117 75 65
288 697 97 122 81 74
289 696 97 130 23 36
289 697 97 134 19 35
288 698 96 122 78 74
288 699 96 119 81 75
289 698 96 135 18 30
289 699 96 132 18 28
290 696 97 132 28 32
290 697 97 136 28 31
291 696 97 123 21 27
291 697 97 126 26 29
290 698 96 137 23 31
290 699 96 136 20 26
291 698 96 131 33 39
291 698 97 128 29 35
291 699 96 133 35 37
288 700 96 115 82 76
288 701 96 108 86 82
289 700 96 126 25 29
289 701 96 114 30 31
289 702 96 113 26 25
290 700 96 133 25 25
290 701 96 125 16 19
291 700 96 135 34 36
291 701 96 132 29 27
290 702 96 122 15 17
291 702 96 130 23 16
291 703 96 131 26 22
292 696 97 116 30 25
292 697 97 118 26 25
293 696 97 125 48 41
293 697 97 124 29 32
292 698 97 119 25 25
292 699 96 128 28 29
292 699 97 122 23 26
293 698 97 120 23 23
293 699 96 121 28 28
293 699 97 118 34 28
294 696 97 133 40 36
294 697 97 133 33 34
295 696 97 131 26 39
295 697 97 134 31 37
295 696 98 120 25 38
294 698 97 125 35 29
294 699 97 117 49 33
295 698 97 133 37 31
295 699 97 128 40 30
292 700 96 133 31 36
292 701 96 136 34 37
293 700 96 121 45 33
293 701 96 127 49 38
292 702 96 135 23 28
292 703 96 135 29 26
293 702 96 134 36 40
293 703 96 135 31 37
294 700 96 119 68 54
294 700 97 114 54 32
294 701 96 120 66 55
294 701 97 114 48 36
295 700 97 124 36 25
295 701 97 120 32 22
294 702 96 126 40 49
294 703 96 130 28 40
295 702 96 118 23 26
295 703 96 120 29 30
296 690 99 116 120 128
296 691 99 119 122 128
297 690 99 124 127 135
297 691 99 124 127 133
298 691 99 128 130 137
299 691 99 125 129 138
296 688 100 125 132 145
296 689 100 121 127 137
297 688 100 125 133 144
297 689 100 126 131 141
296 690 100 117 122 130
297 690 100 124 127 135
298 688 100 119 127 139
298 689 100 126 130 140
299 688 100 116 125 138
299 689 100 118 126 137
298 690 100 126 129 137
299 690 100 122 128 138
299 691 100 119 126 137
296 692 99 118 119 124
296 693 98 103 98 96
296 693 99 112 113 116
297 692 99 127 128 133
297 693 99 121 123 127
296 694 98 98 90 89
296 694 99 105 107 109
296 695 98 86 68 71
297 694 98 104 109 114
297 694 99 111 115 121
297 695 98 91 97 105
298 692 99 131 132 137
298 693 99 130 130 136
299 692 99 126 130 138
299 693 99 129 132 138
298 694 98 114 118 124
298 694 99 120 123 130
298 695 98 111 116 124
299 694 99 124 129 137
299 695 98 121 126 134
299 695 99 124 129 138
300 688 100 121 130 142
300 689 100 119 128 141
301 688 100 123 131 142
301 688 101 123 130 141
301 689 100 125 133 145
300 690 100 115 124 136
300 691 100 113 122 136
301 690 100 125 133 146
301 691 100 119 128 140
302 688 100 123 129 138
302 688 101 125 129 139
302 689 100 123 130 142
303 688 100 126 129 137
303 688 101 129 132 139
303 689 100 122 128 137
303 689 101 126 131 139
302 690 100 129 137 148
302 691 100 130 136 147
303 690 100 124 131 140
303 691 100 129 136 146
300 692 99 115 124 137
300 693 99 122 130 141
301 692 99 113 122 134
301 693 99 116 124 136
300 694 99 125 132 143
300 695 98 122 130 141
300 695 99 124 131 143
301 694 99 119 127 138
301 695 99 121 128 139
302 693 99 115 123 134
303 693 99 120 128 137
302 694 99 115 123 134
302 695 99 117 124 135
303 694 99 119 126 134
303 695 99 120 125 132
301 692 100 113 122 134
302 692 100 122 129 140
303 692 100 127 135 145
303 693 100 124 132 142
296 697 97 105 35 59
297 697 97 62 52 77
296 696 98 85 45 61
296 697 98 84 36 63
297 696 98 73 73 88
297 697 98 67 49 74
296 698 97 116 40 57
296 699 97 125 35 44
297 698 97 77 57 81
297 699 97 103 81 82
298 696 98 98 105 113
298 697 98 71 78 94
299 696 98 118 125 134
299 697 98 108 115 126
298 698 97 47 52 82
298 699 97 55 65 86
299 698 97 62 74 94
299 699 97 31 43 84
299 698 98 89 97 110
296 700 97 127 34 33
296 701 97 126 33 25
297 700 97 113 82 71
297 701 97 111 67 51
296 702 96 123 26 19
296 702 97 126 31 20
296 703 96 122 29 24
297 702 96 116 39 35
297 702 97 113 54 40
297 703 96 118 35 37
298 700 97 82 84 95
298 701 97 96 90 96
299 700 97 40 47 89
299 701 97 56 58 95
298 702 96 95 78 79
298 702 97 95 85 89
298 703 96 89 58 55
299 702 96 75 76 91
299 702 97 64 64 93
299 703 96 76 71 80
300 696 98 124 131 142
300 697 98 127 132 142
301 696 98 126 132 143
301 696 99 123 130 140
301 697 98 130 136 147
300 698 97 110 115 125
300 699 97 78 86 101
301 698 97 127 132 140
301 699 97 124 128 136
300 698 98 122 128 137
301 698 98 130 135 145
302 696 98 123 130 140
302 696 99 120 128 138
302 697 98 126 133 143
303 696 99 121 126 131
303 697 98 126 131 137
302 699 97 128 133 142
303 699 97 133 137 144
302 698 98 128 134 144
303 698 98 131 135 141
303 699 98 133 137 143
300 700 97 44 49 83
300 701 97 48 43 82
301 700 97 111 115 123
301 701 97 79 82 94
300 702 97 54 45 85
300 703 96 56 51 82
300 703 97 54 46 81
301 702 97 58 60 80
301 703 96 48 41 76
301 703 97 48 47 74
302 700 97 129 133 140
302 701 97 124 128 135
303 700 97 132 136 143
303 701 97 131 136 144
302 702 97 104 110 119
302 703 97 72 82 97
303 702 97 126 132 141
303 703 97 112 120 130
304 672 107 102 113 128
304 673 107 100 111 124
305 672 107 105 114 127
305 673 107 99 108 120
304 674 106 110 116 126
304 675 106 119 123 131
305 674 106 107 113 123
305 675 106 120 123 131
306 672 107 112 116 124
306 673 107 109 112 120
307 672 107 124 123 126
307 673 107 123 121 124
306 674 106 113 117 125
306 675 106 117 122 131
307 674 106 121 122 127
307 674 107 121 120 124
307 675 106 119 123 131
304 672 108 101 113 129
305 672 108 106 114 127
306 672 108 114 117 125
307 672 108 124 123 126
304 676 105 117 121 129
304 677 105 117 121 129
305 676 105 121 124 132
305 677 105 121 124 132
305 676 106 122 125 133
304 678 104 118 123 132
304 678 105 118 123 132
304 679 104 119 123 131
305 678 105 120 125 133
305 679 104 118 123 133
306 676 105 116 122 132
306 677 105 112 120 132
307 676 105 106 116 128
307 677 105 99 113 127
306 676 106 114 121 132
307 676 106 113 120 130
306 678 104 116 122 133
306 678 105 114 121 132
306 679 104 117 122 132
307 678 104 106 117 130
307 678 105 100 113 128
307 679 104 111 118 129
308 673 107 122 121 124
309 673 107 112 112 117
308 674 106 119 119 124
308 674 107 115 115 120
308 675 106 116 118 125
309 674 107 110 109 114
309 675 106 113 113 118
309 675 107 111 110 114
310 673 107 119 117 120
310 674 107 120 118 120
310 675 107 121 118 121
311 674 107 122 120 123
311 675 107 117 116 121
308 672 108 125 122 124
308 673 108 120 119 122
309 672 108 121 119 122
309 673 108 116 116 120
310 672 108 126 123 125
310 673 108 122 120 123
311 672 108 130 127 129
311 673 108 126 123 125
311 674 108 123 121 124
308 676 105 114 120 131
308 677 105 103 114 128
309 677 105 115 120 129
308 676 106 120 123 132
309 676 106 122 121 126
309 677 106 124 126 131
308 678 105 93 109 125
308 679 104 98 112 128
309 678 105 104 114 126
309 679 104 96 111 128
310 677 105 125 125 129
311 677 105 123 123 127
310 676 106 126 123 125
310 677 106 128 125 128
311 676 106 119 119 122
311 676 107 117 116 120
311 677 106 121 120 125
310 678 105 119 122 129
310 679 104 106 117 132
310 679 105 114 121 132
311 678 105 123 123 128
311 679 105 122 124 130
304 681 103 120 123 131
305 681 103 121 124 132
304 682 102 118 120 127
304 682 103 119 122 129
304 683 102 117 119 126
305 682 103 122 125 132
305 683 102 118 121 128
306 681 103 121 123 130
307 681 103 119 123 130
306 682 103 124 126 133
306 683 102 125 126 131
306 683 103 126 126 132
307 682 103 121 124 130
307 683 102 123 122 127
307 683 103 123 124 129
304 685 101 123 125 131
304 684 102 118 120 126
304 685 102 120 122 128
305 684 102 116 118 124
305 685 102 112 114 118
304 686 101 127 128 133
304 687 101 130 131 136
305 686 101 118 116 117
305 687 101 120 113 112
305 686 102 111 109 109
306 684 102 121 121 125
306 685 102 106 103 103
307 684 102 119 117 119
307 685 102 105 93 89
306 687 101 108 68 67
307 687 101 109 21 34
306 686 102 101 83 81
306 687 102 103 65 63
307 686 102 103 60 56
307 687 102 107 28 31
308 681 103 115 122 133
309 681 103 103 116 131
308 682 103 116 123 133
308 683 103 117 121 129
309 682 103 104 118 133
309 683 103 108 119 132
310 682 103 100 113 128
310 683 103 105 116 130
311 683 103 110 119 132
308 684 102 111 112 116
308 684 103 111 115 122
308 685 102 99 87 86
309 684 103 112 118 127
309 685 102 107 103 103
309 685 103 114 116 122
308 686 102 97 41 41
308 687 102 109 29 37
309 686 102 100 73 63
309 687 102 108 58 49
310 684 103 111 119 130
310 685 102 119 121 124
310 685 103 117 121 129
311 684 103 116 124 135
311 685 102 122 127 135
311 685 103 120 127 138
310 686 102 117 114 114
310 687 102 115 106 99
311 686 102 124 129 137
311 687 102 122 125 131
304 680 104 121 124 131
305 680 104 118 123 132
305 681 104 119 123 131
306 680 104 118 122 131
307 680 104 114 120 129
307 681 104 116 120 129
308 680 104 105 116 130
308 681 104 111 120 132
309 680 104 92 109 127
309 681 104 93 109 127
310 680 104 106 118 132
310 681 104 101 114 129
311 680 104 121 126 136
311 680 105 122 125 131
311 681 104 121 125 133
311 681 105 123 124 129
310 682 104 102 115 129
311 682 104 114 121 131
311 683 104 115 122 132
312 675 107 107 108 113
313 675 107 123 121 124
314 675 107 134 130 132
312 672 108 127 124 127
312 672 109 128 125 128
312 673 108 118 116 120
313 672 108 126 123 125
313 672 109 129 126 128
313 673 108 127 124 126
312 674 108 110 110 115
313 674 108 125 122 125
313 675 108 130 127 129
314 672 108 130 126 128
314 672 109 129 126 128
314 673 108 130 126 128
315 672 108 128 125 128
315 672 109 127 125 127
315 673 108 126 123 126
314 674 108 130 126 128
314 675 108 127 124 126
315 674 108 116 114 116
315 675 108 112 112 115
312 676 107 113 113 118
312 677 106 121 120 123
312 677 107 126 124 127
313 676 107 129 126 129
313 677 106 129 126 129
313 677 107 130 127 130
312 678 105 122 121 125
312 679 105 123 122 126
313 679 105 126 124 127
312 678 106 122 121 124
313 678 106 128 125 128
313 679 106 126 124 127
314 676 107 123 122 125
314 677 107 119 117 121
315 676 107 101 103 109
315 677 107 94 97 103
314 678 106 124 122 124
314 678 107 116 116 120
314 679 106 126 123 126
315 678 106 115 113 115
315 678 107 105 106 110
315 679 106 119 118 122
315 676 108 100 102 108
316 672 109 132 129 132
316 673 108 129 126 129
316 673 109 132 129 132
317 672 109 131 128 131
317 673 108 130 128 131
317 673 109 127 125 129
316 674 108 120 118 120
316 675 108 112 113 117
317 674 108 130 130 135
317 675 108 128 130 136
318 672 109 127 125 129
318 673 109 120 120 125
319 672 109 127 126 130
319 673 109 116 117 122
319 672 110 128 127 132
318 674 108 127 129 136
318 674 109 121 123 129
318 675 108 126 130 138
319 674 109 118 120 127
319 675 108 124 127 135
319 675 109 119 123 130
316 676 107 111 112 118
316 677 107 116 119 125
317 677 107 122 125 132
316 678 107 121 123 130
316 679 106 121 123 130
316 679 107 122 126 133
317 678 107 120 124 133
317 679 106 120 124 132
317 679 107 120 125 133
318 677 107 127 129 137
319 677 107 130 132 140
318 678 107 126 129 136
318 679 107 125 128 135
319 678 107 129 132 139
319 679 107 128 130 138
316 676 108 116 117 122
317 676 108 126 128 135
317 677 108 126 128 136
318 676 108 126 129 138
318 677 108 127 131 139
319 676 108 124 128 137
319 677 108 127 130 139
312 684 103 118 126 137
312 685 103 118 127 140
313 684 103 118 127 139
313 685 103 120 129 141
312 686 102 119 128 140
312 686 103 119 128 141
312 687 102 118 127 138
313 686 103 122 130 143
313 687 102 122 130 142
314 685 103 121 127 138
315 685 103 123 127 134
314 686 103 123 130 141
314 687 102 124 131 142
314 687 103 125 132 142
315 686 103 125 128 136
315 687 103 125 130 139
316 686 103 123 126 133
316 687 103 124 128 136
317 687 103 122 125 132
312 680 105 122 122 126
312 681 104 120 122 129
312 681 105 119 121 127
313 680 105 124 123 126
313 681 105 119 120 125
312 682 104 118 121 129
312 683 104 116 121 131
313 682 104 116 120 128
313 682 105 116 119 127
313 683 104 115 121 130
314 680 105 124 123 126
314 681 105 123 123 128
315 681 105 127 126 132
314 680 106 126 124 128
315 680 106 126 125 130
315 681 106 127 127 131
314 682 105 118 120 127
314 683 104 115 120 128
314 683 105 115 119 128
315 682 105 126 126 132
315 683 105 122 123 129
312 684 104 116 123 134
313 684 104 117 124 135
314 684 104 117 123 132
315 684 104 121 123 129
315 684 105 120 122 127
315 685 104 123 125 131
316 681 105 126 127 133
316 680 106 123 125 131
316 681 106 125 127 134
317 680 106 120 124 132
317 681 106 120 124 132
316 682 105 125 127 133
316 683 105 125 126 132
317 682 105 123 126 134
317 683 105 124 127 134
317 682 106 121 125 133
318 680 106 122 125 132
318 681 106 119 122 129
319 680 106 124 126 133
319 681 106 121 123 130
318 683 105 119 122 130
319 683 105 118 121 127
318 682 106 117 121 129
319 682 106 119 122 128
319 683 106 119 121 128
316 684 104 122 123 129
316 684 105 123 124 130
316 685 104 122 123 129
317 684 105 124 127 134
317 685 104 123 125 131
316 686 104 122 124 131
317 686 104 121 123 129
317 687 104 120 122 129
318 684 105 122 125 132
318 685 104 127 129 136
318 685 105 125 128 135
319 684 105 119 122 129
319 685 105 122 125 132
318 686 104 125 127 134
318 687 104 122 125 132
319 686 104 125 127 135
319 686 105 124 126 134
319 687 104 125 128 137
304 688 101 132 132 136
304 689 101 129 128 130
305 688 101 120 104 100
305 689 101 122 91 87
304 690 100 120 121 124
304 690 101 121 116 114
304 691 100 119 114 117
305 690 101 123 68 61
305 691 100 125 48 44
305 691 101 124 54 49
306 688 101 116 55 58
306 689 101 121 24 41
307 688 101 116 20 32
307 689 101 120 18 30
306 690 101 127 17 33
306 691 100 131 27 31
306 691 101 129 20 32
307 690 101 122 30 27
307 691 101 121 36 27
304 693 99 118 110 111
304 694 99 116 100 100
304 695 99 114 92 91
305 694 99 123 31 38
305 695 99 124 18 31
306 695 99 129 20 26
304 692 100 118 111 112
304 693 100 116 103 101
305 692 100 126 30 32
305 693 100 124 29 29
305 694 100 129 11 25
306 692 100 132 25 32
306 693 100 135 18 33
307 692 100 126 32 39
307 693 100 134 25 43
306 694 100 133 20 30
306 695 100 132 28 30
307 694 100 134 27 36
307 695 100 130 31 34
308 688 101 124 24 30
308 689 101 123 26 22
309 688 101 129 21 33
309 689 101 129 22 31
308 688 102 122 26 37
309 688 102 122 40 40
308 690 101 121 27 23
308 691 101 116 29 25
309 690 101 130 18 30
309 691 101 128 26 29
310 689 101 119 48 38
311 689 101 120 97 87
310 688 102 117 85 74
310 689 102 117 80 66
311 688 102 121 120 121
311 689 102 123 117 114
310 690 101 122 32 28
310 691 101 127 24 30
311 690 101 116 91 80
311 691 101 111 66 56
308 692 100 118 29 39
308 692 101 116 30 28
308 693 100 125 31 42
309 692 101 126 27 26
309 693 100 122 27 25
309 693 101 125 23 25
308 694 100 127 32 34
308 695 100 126 34 27
309 694 100 126 33 20
309 695 100 127 35 26
310 692 101 130 27 30
310 693 101 130 27 22
311 692 101 114 45 37
311 693 101 125 32 31
310 694 100 129 35 23
310 694 101 131 34 25
310 695 100 132 32 29
311 694 101 128 32 32
311 695 100 135 28 35
311 695 101 131 31 39
304 696 99 115 89 87
304 697 98 117 100 98
304 697 99 113 69 65
305 696 99 124 11 26
305 697 98 126 20 29
305 697 99 126 10 25
304 699 97 133 129 131
304 698 98 123 105 102
304 699 98 127 105 102
305 698 98 128 23 30
305 699 98 130 32 32
306 696 99 126 21 22
306 697 99 124 24 22
307 696 99 122 33 25
307 697 99 120 39 33
306 698 98 127 26 25
306 698 99 123 29 28
306 699 98 131 21 25
307 698 98 124 35 35
307 698 99 123 43 42
307 699 98 128 33 36
307 696 100 123 32 28
304 700 97 131 120 118
304 701 97 131 123 121
305 700 97 129 51 43
305 701 97 125 43 40
305 700 98 132 35 34
305 701 98 131 18 32
304 702 97 128 124 125
304 703 97 122 121 124
305 702 97 118 48 43
305 703 97 114 54 51
306 701 97 125 11 28
306 700 98 132 17 28
306 701 98 128 16 27
307 700 98 129 21 30
307 701 98 128 19 28
306 702 97 121 12 25
306 703 97 120 17 26
306 702 98 123 22 25
307 702 98 125 21 29
307 703 98 125 22 34
308 697 99 117 36 32
309 697 99 126 32 30
308 698 99 123 44 42
308 699 98 127 39 37
308 699 99 128 41 41
309 698 99 131 36 34
309 699 99 130 25 36
310 698 99 130 29 38
310 699 99 128 29 32
308 696 100 123 37 31
308 697 100 122 35 34
309 696 100 129 33 33
309 697 100 129 31 33
310 696 100 132 28 30
310 697 100 131 26 29
311 696 100 133 28 34
311 697 100 131 26 25
310 698 100 130 25 32
311 698 100 127 25 21
311 699 100 127 24 22
308 700 98 125 24 27
308 700 99 126 26 33
308 701 98 121 26 23
309 700 99 125 29 35
309 701 98 114 34 23
309 701 99 118 33 24
308 702 98 115 30 25
308 703 98 117 34 32
309 702 98 107 33 20
309 702 99 111 34 19
309 703 98 108 38 28
309 703 99 111 36 28
310 700 99 125 34 27
310 701 99 122 36 20
311 700 99 127 30 28
311 701 99 129 33 28
310 702 99 121 36 20
310 703 99 120 36 24
311 702 99 129 36 26
311 703 99 129 36 25
312 688 102 108 115 124
312 689 102 97 103 111
313 688 102 114 121 133
313 689 102 82 93 107
312 690 101 120 117 117
312 691 101 112 109 108
313 691 101 67 78 98
312 690 102 99 103 109
313 690 102 60 73 90
313 691 102 53 70 94
314 688 102 124 130 141
314 689 102 116 123 135
315 688 102 125 131 141
315 689 102 124 132 144
314 690 102 88 101 117
314 691 102 58 77 99
315 690 102 122 129 141
315 691 102 108 116 130
312 692 101 107 95 87
312 693 101 100 70 64
313 692 101 84 94 110
313 693 101 100 106 117
312 694 101 96 59 51
312 695 101 97 52 44
313 694 101 100 103 108
313 695 101 90 92 94
314 692 101 50 65 95
314 693 101 66 74 103
315 692 101 39 50 87
315 693 101 52 52 91
314 692 102 49 71 95
315 692 102 79 88 107
315 693 102 61 64 92
314 694 101 81 88 108
314 695 101 96 103 115
315 694 101 51 49 89
315 695 101 64 63 98
316 688 102 124 131 141
316 688 103 125 129 138
316 689 102 124 131 142
317 688 103 125 128 136
317 689 102 125 130 140
317 689 103 125 130 139
316 690 102 125 132 143
316 691 102 125 132 143
317 690 102 124 130 141
317 690 103 124 130 140
317 691 102 124 132 143
318 688 103 121 126 134
318 689 103 124 128 137
319 688 103 122 126 135
319 689 103 122 126 136
318 690 102 124 130 140
318 690 103 124 129 139
318 691 102 124 131 142
318 691 103 126 131 141
319 690 103 124 128 137
319 691 103 125 130 138
316 692 102 117 123 134
316 693 102 100 107 120
317 692 102 124 131 143
317 693 102 123 130 140
316 694 101 59 66 90
316 695 101 52 57 90
317 695 101 88 95 109
316 694 102 85 93 107
317 694 102 118 124 134
317 695 102 105 112 123
318 692 102 126 132 143
318 693 102 127 133 143
319 692 103 127 131 140
319 693 102 128 133 143
319 693 103 129 134 142
318 694 102 124 130 140
318 695 102 119 125 134
319 694 102 126 131 141
319 695 102 122 128 137
319 688 104 125 129 138
312 696 100 104 43 34
312 696 101 93 49 33
312 697 100 105 46 40
313 696 101 76 74 74
313 697 100 74 55 53
313 697 101 62 56 58
312 698 100 106 52 43
312 699 100 112 52 39
313 698 100 67 60 56
313 698 101 54 53 56
313 699 100 73 62 60
314 696 101 92 98 106
314 697 101 80 84 89
315 696 101 70 72 102
315 697 101 81 84 101
314 698 101 62 61 66
314 699 100 52 49 50
314 699 101 59 56 59
315 698 101 89 87 94
315 699 101 85 78 82
312 700 99 124 38 24
312 701 99 124 42 31
313 701 99 104 71 64
312 702 99 126 40 28
312 703 99 125 36 27
313 702 99 93 63 54
313 703 99 92 60 47
314 702 99 59 47 46
314 703 99 57 46 46
315 703 99 67 42 48
312 700 100 115 58 44
313 700 100 86 69 65
313 701 100 83 65 59
314 700 100 59 52 52
314 701 100 60 49 48
315 700 101 77 66 68
315 701 100 68 51 52
314 702 100 56 44 48
315 702 100 66 43 48
315 703 100 72 42 42
316 696 101 45 47 90
316 697 101 48 51 95
317 696 101 80 83 102
317 697 101 70 68 96
317 696 102 100 104 116
316 698 101 63 63 92
316 699 101 67 64 91
317 698 101 53 49 90
317 699 101 52 47 89
318 697 101 96 100 111
319 697 101 113 119 128
318 696 102 112 117 126
318 697 102 110 114 123
319 696 102 118 124 133
319 697 102 115 122 131
318 698 101 80 84 99
318 699 101 68 68 91
319 698 101 113 120 129
319 699 101 109 115 124
319 698 102 117 123 133
316 703 99 89 44 42
316 700 101 73 70 87
316 701 100 78 62 61
316 701 101 76 71 80
317 700 101 56 50 89
317 701 101 53 52 85
316 702 100 82 63 63
316 703 100 90 56 55
317 702 100 64 57 83
317 702 101 53 51 83
317 703 100 77 62 82
318 700 101 57 50 85
318 701 101 50 40 80
319 700 101 96 103 114
319 701 101 73 81 100
318 702 100 50 42 83
318 702 101 46 37 81
318 703 100 53 46 83
318 703 101 48 40 84
319 702 101 60 66 91
319 703 101 53 54 85
