ply
format ascii 1.0
comment Version 2, Copyright 2017, 8i Labs, Inc.
comment frame_to_world_scale 0.179523
comment frame_to_world_translation -45.2095 7.18301 -54.3561
comment width 1023
element vertex 941
property float x
property float y
property float z
property uchar red
property uchar green
property uchar blue
end_header
299 783 159 203 149 117
301 781 159 200 147 116
300 782 159 200 146 113
300 783 158 200 145 115
300 783 159 201 146 114
301 782 159 200 147 115
301 783 158 200 145 115
301 783 159 200 145 115
302 781 159 200 147 116
303 780 159 200 145 113
303 781 159 200 146 115
303 783 157 200 145 114
302 782 158 199 146 115
302 782 159 200 147 116
302 783 158 199 145 115
303 782 158 199 146 115
303 782 159 200 147 116
303 783 158 199 145 113
291 791 159 204 148 122
295 787 159 202 148 118
293 789 159 202 145 115
292 790 159 203 147 120
292 791 159 204 148 121
293 790 158 203 148 118
293 790 159 202 147 117
293 791 158 203 148 118
294 788 159 202 148 117
294 789 158 203 150 119
294 789 159 202 148 118
295 788 158 204 152 122
295 788 159 203 150 120
295 789 158 205 152 121
294 791 157 203 147 118
295 790 157 204 149 118
295 791 157 203 147 117
294 790 158 203 150 118
294 791 158 203 149 119
295 790 158 204 151 119
292 799 151 204 149 120
293 798 151 206 150 122
293 799 150 206 149 122
293 799 151 206 149 122
295 796 151 208 152 120
295 797 150 209 153 121
295 797 151 208 151 120
294 799 149 209 153 122
295 798 149 211 157 123
295 799 149 211 157 123
294 798 150 208 152 124
294 798 151 207 150 122
294 799 150 208 151 123
295 798 150 209 154 122
295 798 151 207 150 121
295 799 150 209 154 124
289 793 159 202 146 120
289 795 157 201 143 117
288 794 159 204 147 123
288 795 158 202 145 119
288 795 159 205 150 125
289 794 158 203 146 120
289 794 159 203 146 121
289 795 158 200 143 117
290 792 159 202 146 120
290 793 158 202 145 119
290 793 159 202 145 119
291 792 158 202 144 117
291 792 159 203 146 120
291 793 158 202 144 118
290 795 156 201 144 117
290 795 157 201 143 118
291 794 157 200 142 117
291 795 156 202 145 118
291 795 157 201 143 117
290 794 158 202 144 119
291 794 158 202 144 119
289 797 155 201 147 117
289 799 153 203 148 121
288 798 155 200 145 118
288 799 154 200 146 119
288 799 155 199 144 119
289 798 154 203 150 121
289 798 155 201 147 117
289 799 154 203 149 122
290 796 155 200 144 115
290 797 155 202 147 118
291 796 155 201 145 117
291 797 154 202 147 118
291 797 155 201 146 116
290 798 153 204 150 121
290 799 153 204 148 120
291 798 153 203 149 119
291 799 152 203 148 118
291 799 153 203 148 117
290 798 154 204 151 122
290 798 155 203 149 119
290 799 154 204 151 123
291 798 154 202 147 117
288 796 157 200 143 117
288 797 156 200 144 117
288 797 157 200 143 116
289 796 156 200 143 117
289 796 157 201 143 118
289 797 156 199 143 115
288 798 156 200 145 119
290 796 156 201 144 116
291 796 156 201 144 116
292 795 155 202 146 118
293 794 155 203 146 118
293 795 154 202 144 115
293 795 155 203 146 118
294 793 155 204 147 118
295 793 155 202 146 115
294 795 153 203 148 114
295 795 152 207 153 119
295 795 153 205 150 117
294 794 154 203 146 116
294 794 155 204 147 117
294 795 154 203 145 114
295 794 154 204 148 116
295 794 155 204 147 116
295 795 154 203 147 114
292 793 157 201 144 118
293 792 157 201 146 117
293 793 156 202 146 118
293 793 157 201 145 117
292 792 158 202 145 117
292 792 159 203 147 119
292 793 158 201 145 118
293 792 158 201 146 117
292 794 156 202 145 118
292 794 157 200 143 116
292 795 156 202 145 119
293 794 156 202 145 118
294 792 156 203 147 118
294 792 157 203 147 118
294 793 156 204 148 120
295 792 156 202 147 117
295 792 157 202 145 116
292 797 153 204 149 120
293 796 153 203 146 117
293 797 152 205 150 119
293 797 153 204 149 118
292 796 154 203 148 119
292 796 155 203 148 120
292 797 154 203 148 119
293 796 154 202 144 115
292 798 152 204 149 119
292 798 153 203 147 117
292 799 152 203 149 118
293 798 152 205 150 120
293 798 153 204 149 119
294 796 152 206 150 119
294 796 153 204 148 116
294 797 152 206 149 119
295 796 152 207 152 120
295 797 152 207 150 120
297 785 159 201 144 114
296 786 159 202 146 117
296 787 159 202 148 118
297 786 158 203 148 117
297 786 159 202 146 116
297 787 158 202 148 116
298 784 159 203 146 116
298 785 158 202 147 113
298 785 159 202 146 114
299 784 158 202 147 115
299 784 159 203 148 116
299 785 158 202 146 113
298 787 157 201 145 112
299 786 157 201 146 113
299 787 157 201 146 113
298 786 158 202 147 114
298 787 158 202 147 114
299 786 158 202 146 114
297 791 155 203 146 117
299 789 155 203 147 115
298 790 155 203 146 118
298 791 154 204 149 118
298 791 155 204 147 118
299 790 155 204 147 118
299 791 154 204 147 116
299 791 155 204 147 118
296 789 157 204 150 118
297 788 157 200 142 112
297 789 156 202 145 116
297 789 157 202 145 116
296 788 158 203 151 119
296 788 159 203 150 120
296 789 158 205 151 120
297 788 158 202 147 115
296 790 157 204 147 117
296 791 156 204 148 120
296 791 157 203 147 117
297 790 156 203 145 117
297 790 157 204 147 120
297 791 156 203 147 118
298 788 156 197 138 106
298 788 157 200 142 110
298 789 156 201 143 112
299 788 156 199 142 108
299 788 157 199 142 108
299 789 156 202 145 113
298 790 156 202 144 116
302 787 155 203 147 114
303 787 155 203 147 113
300 785 157 200 145 112
301 784 157 201 146 116
301 785 157 200 144 113
300 784 158 201 145 114
300 784 159 202 147 115
300 785 158 201 145 113
301 784 158 200 145 115
301 785 158 200 144 113
300 786 157 201 145 112
300 787 156 203 148 113
300 787 157 201 146 111
301 786 156 200 145 112
301 786 157 201 146 114
301 787 156 202 147 112
302 784 157 201 146 117
302 785 157 201 146 115
303 784 157 201 146 115
303 785 156 201 147 115
303 785 157 201 146 116
302 784 158 201 146 117
302 786 156 200 144 111
302 787 156 201 145 110
303 786 156 202 146 113
303 787 156 202 147 113
300 788 155 204 148 113
300 789 155 203 146 113
301 788 155 204 149 114
301 789 154 204 148 115
301 789 155 204 148 113
300 791 153 207 150 119
301 791 153 208 151 120
300 790 154 205 148 118
300 790 155 205 148 117
300 791 154 205 148 118
301 790 154 204 149 116
302 788 155 204 148 115
302 789 154 204 147 113
303 788 154 204 147 114
303 788 155 204 146 113
303 789 154 205 148 115
302 790 153 207 150 116
302 791 152 211 154 119
302 791 153 209 152 119
303 790 153 206 149 114
303 791 152 210 153 117
303 791 153 209 152 118
302 790 154 205 148 114
303 790 154 206 148 114
300 788 156 202 147 112
301 788 156 202 147 111
297 795 151 210 154 119
298 795 150 213 157 123
298 795 151 211 155 122
299 794 151 212 155 122
299 795 150 216 160 126
299 795 151 214 158 125
296 799 147 211 153 123
297 799 147 210 152 122
299 799 145 205 148 116
298 799 146 206 147 118
298 799 147 209 151 120
299 798 147 211 153 122
299 799 146 206 148 116
299 799 147 209 151 121
297 797 149 212 156 121
296 796 151 209 154 120
296 797 150 210 155 121
297 796 150 210 155 120
297 796 151 210 155 120
297 797 150 211 155 121
296 798 149 211 156 121
296 799 148 212 155 122
296 799 149 211 155 121
297 798 148 212 156 123
297 798 149 212 156 122
297 799 148 212 156 124
296 798 150 211 156 122
298 796 149 212 156 122
298 797 148 214 157 123
298 797 149 214 158 123
299 796 149 214 158 123
299 797 148 214 158 124
299 797 149 215 158 124
298 796 150 212 156 122
299 796 150 214 158 123
298 798 148 213 156 123
299 798 148 214 156 124
301 793 151 214 156 121
301 795 149 216 158 124
300 794 151 214 156 122
300 795 150 215 158 123
300 795 151 216 159 125
301 794 151 215 157 122
301 795 150 216 158 123
302 793 151 214 156 121
303 792 151 213 155 120
303 793 151 215 158 123
302 795 149 215 157 123
303 795 149 212 155 119
302 794 150 215 157 122
302 794 151 215 157 121
302 795 150 215 157 123
303 794 150 213 155 119
303 794 151 215 156 122
303 795 150 213 155 119
300 797 147 212 155 123
301 797 147 212 155 122
300 799 145 205 146 113
301 799 145 205 146 112
300 798 146 206 148 114
300 798 147 210 152 120
300 799 146 205 148 113
301 798 146 207 149 114
301 798 147 209 152 118
301 799 146 206 147 113
302 797 147 210 153 120
303 797 147 209 152 118
302 799 145 204 146 112
303 799 145 203 145 112
302 798 146 207 149 115
302 798 147 209 152 118
303 798 146 206 148 114
303 798 147 208 151 117
300 796 149 216 159 126
300 797 148 215 158 126
300 797 149 216 159 126
301 796 149 215 158 125
301 797 148 214 157 125
302 796 148 213 156 122
302 796 149 213 156 121
302 797 148 212 156 122
303 796 148 211 154 121
303 796 149 212 154 119
303 797 148 211 154 121
297 793 153 206 153 119
296 792 155 203 149 118
296 793 154 205 151 119
296 793 155 204 150 118
297 792 154 205 151 120
297 792 155 204 149 118
297 793 154 206 153 120
296 794 153 207 153 119
296 795 152 208 154 120
296 795 153 208 154 120
297 794 152 208 153 118
297 794 153 207 154 118
297 795 152 208 154 118
296 794 154 205 151 118
298 792 153 205 150 117
298 793 153 205 151 116
299 792 153 205 149 116
299 793 152 208 150 117
299 793 153 207 150 118
298 792 154 205 150 118
299 792 154 204 148 116
298 794 152 208 152 117
298 794 153 206 151 116
299 794 152 209 151 119
296 792 156 203 148 119
296 796 152 208 153 119
300 792 152 210 153 120
300 792 153 208 150 119
300 793 152 211 153 120
301 792 152 212 155 121
301 792 153 210 152 119
301 793 152 214 157 122
300 794 152 211 153 120
302 792 152 213 155 119
302 793 152 214 156 121
303 792 152 211 153 118
309 775 159 197 142 112
310 775 159 197 144 112
311 774 159 196 143 111
311 775 159 196 143 110
304 779 159 198 143 109
305 779 159 198 144 111
307 777 159 197 142 108
306 778 159 198 144 110
306 779 158 197 144 109
306 779 159 198 144 110
307 778 159 197 143 109
307 779 158 197 144 108
307 779 159 197 143 108
304 780 159 199 144 111
304 781 158 199 146 113
304 781 159 200 146 114
305 780 158 198 144 111
305 780 159 199 144 112
305 781 158 199 146 112
304 783 157 199 146 111
305 782 157 197 143 108
305 783 157 198 144 110
304 782 158 198 145 110
304 783 158 198 144 109
305 782 158 198 144 109
307 781 157 198 146 110
306 780 158 198 145 110
306 781 158 199 147 112
307 780 158 198 146 109
307 781 158 198 146 111
306 782 157 198 144 110
306 783 156 198 144 111
306 783 157 197 143 109
307 782 157 196 144 109
307 783 156 197 145 111
307 783 157 197 144 110
308 776 159 196 141 111
308 777 159 197 142 110
309 776 159 196 141 110
309 777 158 196 144 111
309 777 159 195 142 109
309 779 157 195 143 109
308 778 158 197 144 109
308 778 159 197 143 110
308 779 158 197 145 109
309 778 158 196 144 110
309 779 158 196 145 110
310 776 159 197 144 112
310 777 158 196 144 110
311 776 158 197 145 112
311 776 159 197 144 111
311 777 158 196 145 112
310 779 157 194 141 108
311 778 157 195 143 110
311 779 157 195 143 110
310 778 158 196 143 110
311 778 158 195 144 111
309 783 155 196 146 112
310 783 155 195 144 110
311 782 155 195 144 108
311 783 155 196 145 109
308 780 157 197 145 110
308 781 157 197 145 110
309 780 157 195 142 108
309 781 156 193 141 106
309 781 157 194 141 107
308 780 158 197 146 109
308 782 156 197 145 111
308 782 157 196 144 110
308 783 156 197 145 111
309 782 156 195 143 109
309 783 156 195 145 111
310 780 157 193 141 108
310 781 156 194 142 108
311 780 156 197 146 113
311 780 157 196 144 111
311 781 156 197 146 112
310 782 156 195 143 108
310 783 156 195 144 110
311 782 156 195 143 108
314 771 159 198 145 111
315 771 159 198 146 112
312 773 159 197 142 111
313 772 159 197 143 111
313 773 159 197 143 111
312 774 159 196 141 108
312 775 158 197 144 111
312 775 159 196 141 108
313 774 158 198 146 111
313 774 159 197 143 110
313 775 158 197 145 111
314 772 159 198 146 111
314 773 158 197 145 109
314 773 159 197 145 109
315 772 159 198 146 111
315 773 158 198 145 110
315 773 159 198 145 110
314 775 157 198 147 111
315 775 157 198 146 112
314 774 158 198 146 110
314 775 158 198 147 111
315 774 158 198 146 111
315 775 158 199 147 113
316 770 159 198 146 110
316 771 159 198 146 111
317 770 159 195 143 107
317 771 159 197 144 110
319 769 159 192 140 105
318 770 159 194 142 107
318 771 158 196 143 109
318 771 159 195 143 108
319 770 159 194 142 106
319 771 158 195 143 110
319 771 159 196 144 110
316 772 158 198 144 111
316 772 159 198 145 111
316 773 158 198 145 112
317 772 158 197 143 111
317 773 158 197 143 112
316 775 157 197 145 112
317 774 157 197 144 112
317 775 157 197 145 113
316 774 158 197 145 111
317 774 158 197 144 112
319 773 157 194 143 110
318 772 158 196 144 111
318 773 158 195 143 111
319 772 158 195 144 111
319 773 158 194 144 111
318 774 157 194 142 110
318 775 157 196 145 112
319 774 157 194 143 111
319 775 157 196 146 113
312 777 157 196 144 109
313 776 157 199 148 112
313 777 157 198 147 111
312 776 158 197 145 112
312 777 158 196 144 111
313 776 158 198 147 112
312 778 157 196 144 110
312 779 156 198 146 110
312 779 157 197 145 110
313 778 157 198 147 111
313 779 156 197 145 107
313 779 157 198 146 109
314 776 157 198 147 112
314 777 157 198 147 111
315 776 157 198 147 113
315 777 157 198 146 113
314 778 156 197 145 109
314 778 157 198 145 109
314 779 156 198 146 110
315 778 156 198 147 114
315 778 157 198 147 113
315 779 156 198 147 113
313 781 155 199 147 111
312 782 155 198 145 108
312 783 155 199 147 111
313 782 155 199 148 110
313 783 154 199 147 111
313 783 155 200 149 113
314 780 155 200 150 113
314 781 155 199 149 111
315 780 155 199 150 113
315 781 155 199 150 113
314 782 155 199 149 111
314 783 154 198 148 111
314 783 155 199 148 111
315 782 155 198 148 111
315 783 154 199 149 113
315 783 155 199 149 112
312 780 156 199 148 113
312 781 156 200 148 113
313 780 156 199 147 110
313 781 156 201 148 112
312 782 156 197 144 108
314 780 156 200 148 113
315 780 156 198 148 112
319 779 155 197 148 113
316 776 157 197 145 112
316 777 156 198 148 114
316 777 157 198 147 113
317 776 156 198 149 115
317 776 157 199 149 115
317 777 156 198 149 114
317 777 157 199 149 115
316 778 156 198 148 114
316 779 156 198 149 114
317 778 156 199 150 114
317 779 156 198 150 114
318 776 156 197 147 112
318 776 157 197 147 113
318 777 156 198 148 113
319 776 156 198 148 114
319 777 156 198 149 113
318 778 156 198 149 113
318 779 156 198 150 113
319 778 156 197 148 112
319 779 156 197 148 112
316 780 155 199 150 114
316 781 155 198 149 112
317 780 155 199 150 114
317 781 155 197 148 112
316 782 155 197 148 111
316 783 154 199 151 114
316 783 155 198 148 112
317 782 155 197 148 112
317 783 154 198 151 115
317 783 155 197 149 113
318 780 155 197 148 112
318 781 155 195 147 111
319 780 155 196 147 113
319 781 155 196 147 115
318 782 155 196 147 112
318 783 154 197 150 114
318 783 155 196 149 113
319 782 155 195 147 114
319 783 154 195 147 111
319 783 155 194 147 111
316 780 156 198 149 114
317 780 156 199 150 114
304 786 155 202 146 113
304 787 155 202 145 112
305 786 155 200 145 111
305 787 154 202 146 111
305 787 155 201 145 111
306 785 155 200 147 112
307 785 155 199 147 113
306 786 155 200 146 112
306 787 154 202 146 112
306 787 155 201 145 111
307 786 155 200 147 112
307 787 154 201 146 111
307 787 155 201 146 112
304 784 156 201 147 113
304 784 157 200 147 113
304 785 156 202 148 115
305 784 156 200 145 112
305 785 156 201 146 113
304 786 156 202 147 113
305 786 156 201 145 112
306 784 156 199 145 111
306 785 156 200 146 113
307 784 156 199 147 113
307 785 156 200 147 113
304 789 153 205 148 114
305 789 153 204 146 113
304 788 154 204 146 113
304 788 155 203 145 112
304 789 154 205 148 115
305 788 154 204 146 113
305 789 154 205 147 114
304 790 153 206 148 115
304 791 152 208 150 116
304 791 153 207 149 116
305 790 153 205 147 115
305 791 152 207 149 116
306 789 153 204 146 112
307 788 153 202 145 110
307 789 153 204 148 112
306 788 154 203 145 111
307 788 154 202 145 110
306 790 152 205 147 115
306 790 153 205 147 114
306 791 152 206 148 114
307 790 152 206 149 114
307 790 153 205 149 114
307 791 152 205 147 112
308 784 155 198 148 114
308 785 155 199 149 114
309 784 155 197 148 114
309 785 155 198 148 113
308 786 154 199 147 112
308 786 155 199 148 112
308 787 154 201 146 110
309 786 154 199 147 111
309 786 155 198 147 112
309 787 154 201 148 111
310 784 155 197 146 112
310 785 155 197 147 111
311 784 155 197 146 110
311 785 154 198 147 110
311 785 155 198 147 110
310 786 154 200 148 112
310 787 154 202 149 112
311 786 154 200 148 109
311 787 154 201 149 111
308 784 156 198 148 114
308 788 153 203 148 111
308 789 153 203 148 110
309 788 153 203 149 112
309 789 153 203 150 111
308 788 154 202 147 110
309 788 154 202 148 110
308 790 152 203 147 111
308 790 153 202 147 110
308 791 152 203 146 109
309 790 152 203 148 112
309 790 153 203 149 112
309 791 152 203 147 111
310 788 153 203 150 112
310 789 153 204 151 114
311 788 153 202 150 113
311 789 153 203 150 115
311 788 154 202 149 112
310 790 153 203 150 115
310 791 152 201 145 111
311 790 153 202 148 115
311 791 152 201 146 113
304 792 151 211 153 118
304 793 151 212 154 119
305 792 151 208 149 113
305 793 151 210 153 116
304 795 149 209 151 116
305 795 149 206 148 116
304 794 150 210 153 116
304 795 150 210 152 116
305 794 150 208 150 114
305 795 150 207 150 115
306 792 151 206 148 110
306 793 151 206 149 112
307 792 151 205 147 110
307 793 151 204 146 110
306 795 149 203 145 113
307 795 149 199 142 109
306 794 150 205 147 113
306 795 150 204 147 114
307 794 150 202 145 110
307 795 150 199 142 109
304 797 147 205 148 115
305 797 147 203 146 112
304 799 145 202 144 111
305 799 145 200 142 109
304 798 146 204 147 112
304 798 147 205 148 115
304 799 146 203 145 112
305 798 147 202 144 111
305 799 146 201 143 109
306 798 147 200 142 108
306 799 146 199 141 108
306 799 147 198 140 107
307 798 147 197 141 106
307 799 146 198 140 107
307 799 147 197 141 108
304 796 148 207 150 117
304 796 149 208 150 117
304 797 148 207 149 116
305 796 148 203 146 113
305 796 149 205 148 116
305 797 148 202 145 112
306 796 148 201 143 110
306 796 149 201 144 111
306 797 148 200 142 109
307 796 149 199 141 108
307 797 148 198 140 106
307 798 148 197 141 107
308 792 151 201 146 109
308 793 151 200 144 109
309 792 151 201 147 112
309 793 151 201 146 112
308 795 149 198 141 108
308 794 150 199 143 109
308 794 151 199 143 109
308 795 150 198 142 108
309 794 150 200 145 111
309 794 151 201 146 112
309 795 150 200 145 110
310 793 151 203 149 115
311 793 151 203 150 115
310 794 151 203 149 115
310 795 150 203 147 112
311 794 151 204 150 115
311 795 150 204 148 115
308 798 147 196 141 107
308 799 146 199 140 106
308 799 147 197 140 106
309 799 147 199 142 107
310 799 147 200 144 108
311 799 147 200 144 110
308 796 149 198 141 107
308 797 148 197 141 106
308 797 149 198 142 107
309 796 149 200 143 108
309 797 148 199 142 108
309 797 149 200 143 108
308 798 148 197 141 106
309 798 148 197 141 105
310 796 149 202 145 112
310 797 149 202 146 112
311 796 149 205 149 116
311 797 149 204 148 115
311 796 150 204 148 116
310 798 148 200 145 109
310 799 148 200 145 109
311 798 148 203 148 114
311 799 148 201 147 112
304 792 152 210 152 117
308 792 152 203 147 110
309 792 152 202 148 113
310 792 152 201 148 113
311 792 152 202 149 115
312 784 154 200 150 114
312 784 155 199 148 112
312 785 154 200 149 113
313 784 154 200 149 113
313 785 154 200 150 115
312 787 153 201 149 114
313 787 153 201 150 114
312 786 154 200 149 113
312 787 154 200 148 112
313 786 154 200 150 115
313 787 154 200 149 113
314 784 154 200 150 114
314 785 154 200 152 116
315 784 154 199 151 115
315 785 154 200 152 115
314 787 153 202 152 114
314 786 154 200 152 115
314 787 154 201 152 114
315 786 154 202 154 117
315 787 154 202 154 115
312 788 153 201 149 113
312 789 153 201 149 113
313 788 153 203 151 115
313 789 153 202 151 114
312 788 154 201 149 112
312 790 153 201 148 113
312 791 152 200 146 112
313 790 153 201 150 113
313 791 152 202 149 114
313 791 153 202 150 114
314 788 153 203 153 115
314 789 153 203 154 115
315 788 153 202 153 114
315 789 153 204 155 115
314 790 153 203 153 115
314 791 152 203 151 115
314 791 153 203 153 116
315 790 153 204 155 116
315 791 152 204 155 118
315 791 153 204 155 117
316 784 154 199 151 115
316 785 154 199 152 115
317 784 154 198 151 115
317 785 154 198 151 115
316 786 154 200 153 116
316 787 154 202 153 116
317 786 154 199 151 115
317 787 154 200 152 115
318 784 154 197 150 114
318 785 154 197 150 114
319 784 154 195 149 113
319 785 154 196 149 113
319 787 153 199 150 115
318 786 154 198 150 115
318 787 154 200 150 116
319 786 154 198 150 114
319 787 154 199 150 116
316 788 153 202 153 114
316 789 153 203 154 115
317 788 153 202 152 116
317 789 153 202 153 117
316 790 153 204 155 117
316 791 152 204 155 119
316 791 153 204 155 119
317 790 153 203 154 117
317 791 152 202 151 116
317 791 153 202 153 117
318 788 153 201 151 116
318 789 153 201 150 116
319 788 153 200 150 115
319 789 153 200 151 116
318 790 153 201 151 116
318 791 152 201 151 118
318 791 153 201 151 117
319 790 153 200 150 115
319 791 152 201 151 118
312 793 151 203 150 116
313 793 151 203 150 115
312 794 151 204 150 117
312 795 150 205 149 117
312 795 151 205 150 117
313 794 151 204 150 116
313 795 150 206 151 118
313 795 151 204 150 116
314 793 151 203 150 114
315 793 151 204 152 116
314 794 151 204 151 115
314 795 150 207 152 119
314 795 151 205 151 116
315 794 151 204 151 116
315 795 150 206 151 119
315 795 151 205 151 117
312 799 147 205 151 117
312 796 149 205 149 116
312 797 149 205 150 117
313 797 149 208 153 121
312 796 150 206 150 117
313 796 150 207 152 119
312 798 148 206 152 119
312 798 149 205 151 117
312 799 148 204 150 116
313 798 148 207 153 119
313 798 149 207 153 119
313 799 148 207 154 119
314 797 149 207 151 118
315 797 149 206 151 117
314 796 150 206 151 118
315 796 150 206 150 118
315 797 150 206 150 117
314 798 149 207 153 118
314 799 148 208 154 118
315 798 149 208 153 118
315 799 148 208 152 117
316 793 151 205 153 117
317 793 151 204 152 120
316 794 151 205 152 119
316 795 150 207 152 120
316 795 151 205 151 119
317 794 151 204 152 121
317 795 150 206 152 120
317 795 151 206 152 121
318 793 151 204 152 121
319 793 151 204 154 121
318 794 151 204 153 121
318 795 150 205 153 120
318 795 151 205 153 121
319 794 151 204 153 120
319 795 150 205 153 119
319 795 151 205 154 120
316 797 149 207 152 118
317 797 149 207 153 120
316 796 150 207 152 120
316 797 150 207 152 118
317 796 150 206 153 120
317 797 150 207 153 120
316 798 149 207 153 119
316 799 148 208 153 118
317 798 149 207 153 119
317 799 148 208 153 117
318 797 149 207 154 119
319 797 149 208 155 120
318 796 150 206 153 120
318 797 150 206 154 119
319 796 150 206 153 119
319 797 150 207 155 120
318 798 149 207 153 118
318 799 148 209 153 118
319 798 149 207 152 118
319 799 148 209 152 118
312 792 152 203 149 116
312 793 152 203 150 116
313 792 152 203 149 115
313 793 152 203 149 116
314 792 152 203 150 116
314 793 152 203 150 114
315 792 152 204 152 117
315 793 152 204 152 115
316 792 152 204 153 118
316 793 152 204 152 118
317 792 152 202 151 118
317 793 152 203 152 120
318 792 152 202 153 119
318 793 152 203 153 120
319 792 152 202 152 119
319 793 152 203 153 120
