ply
format ascii 1.0
comment Version 2, Copyright 2017, 8i Labs, Inc.
comment frame_to_world_scale 0.179523
comment frame_to_world_translation -45.2095 7.18301 -54.3561
comment width 1023
element vertex 347
property float x
property float y
property float z
property uchar red
property uchar green
property uchar blue
end_header
288 122 160 92 84 78
288 122 161 86 79 72
288 123 160 93 85 78
288 123 161 89 81 74
288 123 162 84 76 69
288 123 163 79 71 66
288 123 164 78 70 64
288 123 165 81 73 67
289 124 160 92 83 75
289 124 161 90 81 75
289 125 160 90 79 71
289 125 161 88 78 72
288 124 163 81 74 67
289 124 162 86 78 70
289 124 163 84 75 68
289 125 162 86 77 71
289 125 163 84 75 68
290 125 160 93 80 70
290 125 161 89 77 68
291 125 160 97 79 62
291 125 161 93 78 65
290 125 162 85 75 68
290 125 163 83 74 67
291 126 160 96 74 58
291 126 161 93 76 63
291 126 162 88 75 63
291 126 163 85 73 63
288 124 164 80 72 65
288 124 165 85 76 70
289 124 164 82 73 66
289 124 165 83 74 68
289 125 164 82 73 67
289 125 165 82 73 68
288 124 166 89 79 73
288 124 167 92 82 75
288 125 167 93 82 76
289 125 166 87 77 71
289 125 167 91 81 75
290 125 164 81 72 66
290 125 165 82 72 67
290 125 166 86 76 71
290 125 167 90 79 73
290 126 165 81 71 67
291 126 164 82 71 62
291 126 165 79 69 62
290 126 166 82 73 69
290 126 167 89 78 73
291 126 166 81 71 66
291 126 167 88 77 72
292 126 160 96 71 51
292 126 161 94 72 56
292 127 160 96 65 39
292 127 161 93 67 46
293 127 160 95 63 36
293 127 161 92 63 42
292 126 162 91 72 59
292 127 162 88 70 56
292 127 163 86 70 57
293 127 162 90 67 51
293 127 163 86 67 51
292 127 164 83 68 56
292 127 165 79 66 55
293 127 164 82 65 49
293 127 165 79 64 51
292 126 166 82 71 66
292 126 167 85 75 70
292 127 166 80 67 60
292 127 167 83 72 66
293 127 166 78 65 53
293 127 167 81 69 58
288 124 168 94 84 77
288 124 169 96 86 78
288 125 168 95 85 78
288 125 169 96 86 78
289 125 168 95 84 77
289 125 169 98 87 79
288 124 170 96 86 79
288 125 170 97 87 79
288 125 171 98 87 80
289 125 170 99 88 80
289 125 171 101 90 82
290 125 168 95 84 78
290 126 168 95 84 77
290 126 169 99 88 80
291 126 168 92 81 74
291 126 169 100 89 80
290 126 170 101 90 81
290 126 171 103 91 83
291 126 170 103 91 83
291 126 171 104 92 84
288 124 173 104 93 84
288 125 172 101 90 82
288 125 173 104 93 84
289 125 172 103 92 83
289 125 173 107 95 85
288 124 174 106 95 86
288 124 175 108 96 87
288 125 174 107 95 86
288 125 175 108 97 87
289 125 174 109 97 86
289 125 175 109 98 88
290 125 173 108 96 86
290 125 174 110 98 87
290 125 175 111 99 89
290 126 172 104 93 84
290 126 173 108 96 86
291 126 172 105 93 85
291 126 173 107 96 86
290 126 174 110 98 88
290 126 175 112 100 89
291 126 174 110 98 88
291 126 175 112 100 90
292 126 168 85 76 71
292 127 168 88 77 71
292 127 169 97 86 77
293 127 168 85 73 63
293 127 169 92 81 73
292 126 171 106 94 85
292 127 170 104 92 83
292 127 171 108 95 86
293 127 170 101 89 80
293 127 171 105 93 84
292 126 172 107 95 86
292 126 173 108 96 87
292 127 172 108 96 87
292 127 173 109 97 88
293 127 172 109 97 87
293 127 173 111 98 89
292 126 174 109 97 88
292 126 175 112 100 90
292 127 174 111 99 89
292 127 175 111 99 89
293 127 174 113 101 91
293 127 175 115 103 92
294 127 172 113 100 90
294 127 173 110 99 89
294 127 174 112 100 90
294 127 175 116 104 94
288 124 176 109 97 88
288 124 177 110 98 89
288 125 176 110 98 88
288 125 177 111 99 89
289 125 176 111 99 89
289 125 177 111 99 89
288 124 178 111 99 89
288 124 179 111 99 90
289 125 178 112 100 90
289 125 179 112 100 91
290 125 176 112 100 90
290 125 177 113 101 91
291 125 177 113 101 91
290 125 178 113 101 91
290 125 179 112 100 91
291 125 178 113 101 91
291 125 179 113 101 92
291 126 176 113 101 91
291 126 177 114 101 91
291 126 178 115 103 93
291 126 179 114 102 92
288 124 180 111 99 90
288 124 181 111 99 91
289 124 181 111 100 91
289 125 180 111 100 91
289 125 181 111 100 91
288 124 182 110 99 91
288 124 183 110 99 91
289 124 182 110 99 91
289 124 183 110 99 91
290 125 180 112 100 91
290 125 181 111 100 91
291 125 180 113 101 92
291 125 181 112 100 92
290 124 182 110 99 91
290 124 183 109 99 91
290 125 182 110 99 91
290 125 183 109 99 91
291 125 182 110 99 92
291 125 183 109 99 91
292 126 176 114 101 91
292 126 177 114 102 92
293 126 177 116 104 93
293 127 176 116 104 93
293 127 177 116 104 93
292 126 178 116 103 93
292 126 179 115 102 92
293 126 178 117 104 94
293 126 179 116 104 93
293 127 178 117 105 94
294 127 176 120 108 98
294 127 177 118 106 96
295 127 176 121 109 99
295 127 177 119 107 97
294 126 179 116 104 94
294 127 178 116 104 94
294 127 179 116 104 94
295 127 178 117 105 94
295 127 179 116 103 93
292 125 181 112 101 92
292 125 182 111 100 92
292 125 183 110 99 91
293 125 182 111 100 92
293 125 183 109 98 91
292 126 180 114 102 93
292 126 181 113 102 93
293 126 180 115 103 93
293 126 181 113 102 93
293 126 182 112 101 92
294 125 183 109 98 91
294 126 180 115 103 93
294 126 181 113 102 93
295 126 180 116 103 92
295 126 181 114 102 93
295 127 180 116 103 93
295 127 181 115 103 93
294 126 182 111 100 92
294 126 183 108 98 91
295 126 182 111 100 92
295 126 183 108 98 91
288 123 186 108 98 91
288 123 187 107 97 91
288 123 188 107 97 91
288 123 189 106 97 90
288 123 190 105 96 90
288 123 191 105 96 90
288 124 184 109 98 91
288 124 185 109 98 91
289 124 184 109 98 91
289 124 185 108 98 91
288 124 186 108 98 91
288 124 187 107 97 91
289 124 186 108 98 91
289 124 187 107 97 91
290 124 184 109 98 91
290 124 185 108 98 91
291 124 185 108 98 91
291 125 184 109 98 91
291 125 185 108 98 91
290 124 186 107 97 91
290 124 187 107 97 91
291 124 186 107 97 91
291 124 187 107 97 91
291 125 186 107 97 91
291 125 187 107 97 91
288 124 188 107 97 91
288 124 189 106 97 90
289 124 188 107 97 91
289 124 189 106 97 90
288 124 190 105 96 90
288 124 191 105 96 90
289 124 190 105 96 90
289 124 191 105 96 90
290 124 188 106 97 90
290 124 189 105 96 90
291 124 188 106 97 90
291 124 189 105 96 90
291 125 188 106 97 90
291 125 189 105 96 90
290 124 190 105 96 90
290 124 191 105 96 90
291 124 190 105 96 90
291 124 191 104 96 90
292 125 184 108 98 91
292 125 185 108 97 91
293 125 184 108 98 91
293 125 185 107 97 91
292 125 186 107 97 91
292 125 187 106 97 91
293 125 186 106 97 91
293 125 187 106 97 90
294 125 184 107 97 90
294 125 185 106 96 90
294 125 186 106 97 90
294 125 187 106 96 90
295 125 187 106 96 90
294 126 184 106 97 90
294 126 185 106 96 90
295 126 184 106 96 90
295 126 185 106 96 90
295 126 186 106 97 90
295 126 187 105 96 90
292 125 188 106 96 90
292 125 189 105 96 90
293 125 188 105 96 90
293 125 189 105 96 90
292 125 190 104 96 90
292 125 191 104 95 89
293 125 190 104 96 90
293 125 191 104 95 89
294 125 188 105 96 90
294 125 189 105 96 90
295 125 188 105 96 90
295 125 189 104 96 90
294 125 190 104 95 89
294 125 191 103 95 89
295 125 190 104 95 89
295 125 191 103 95 89
295 126 188 105 96 90
295 126 189 104 96 90
295 126 190 104 95 89
295 126 191 103 95 89
296 127 179 115 103 93
296 127 180 116 103 93
296 127 181 115 103 93
297 127 180 116 103 93
297 127 181 115 103 93
296 126 182 110 100 92
296 126 183 106 96 90
296 127 182 113 102 93
297 126 183 104 95 90
297 127 182 111 100 92
297 127 183 107 97 90
298 127 182 112 101 93
298 127 183 108 98 91
296 126 184 106 96 90
296 126 185 105 96 90
297 126 184 106 97 90
297 126 185 106 96 90
297 127 184 107 97 90
296 126 186 106 97 90
296 126 187 105 97 90
297 126 186 106 97 90
297 126 187 105 97 90
298 127 184 107 98 90
298 127 185 106 97 90
298 127 186 106 97 90
298 127 187 106 97 90
299 127 186 106 97 90
299 127 187 106 97 91
296 126 188 105 96 90
296 126 189 104 96 90
297 126 188 105 96 90
297 126 189 104 96 90
296 126 190 104 95 89
296 126 191 103 95 89
297 126 190 103 95 89
297 126 191 103 95 89
298 126 189 104 95 89
298 127 188 105 97 90
298 127 189 104 96 89
299 127 188 105 97 90
299 127 189 104 96 89
298 126 190 103 95 89
298 126 191 103 95 89
298 127 190 103 95 89
298 127 191 103 95 89
299 127 190 103 95 89
299 127 191 103 95 88
