ply
format ascii 1.0
comment Version 2, Copyright 2017, 8i Labs, Inc.
comment frame_to_world_scale 0.179523
comment frame_to_world_translation -45.2095 7.18301 -54.3561
comment width 1023
element vertex 1696
property float x
property float y
property float z
property uchar red
property uchar green
property uchar blue
end_header
293 128 160 93 58 29
293 128 161 92 61 37
294 128 160 92 57 27
294 128 161 90 57 30
294 129 160 91 58 14
294 129 161 89 57 21
295 129 160 92 61 30
295 129 161 88 58 22
294 128 162 87 59 35
294 128 163 86 61 41
294 129 162 87 56 27
295 129 162 87 57 19
295 129 163 85 56 26
295 130 160 92 55 12
294 128 164 82 62 45
294 128 165 78 61 45
295 129 164 82 56 33
295 129 165 79 57 37
294 128 166 76 61 46
294 128 167 77 64 50
295 129 166 77 60 42
295 129 167 78 63 48
294 128 168 80 67 55
294 128 169 88 76 67
295 128 169 83 71 60
295 129 168 79 64 48
295 129 169 80 67 53
294 128 170 96 85 76
294 128 171 103 91 82
295 128 170 93 81 71
295 128 171 100 88 79
295 129 170 86 74 63
295 129 171 93 82 71
294 128 172 109 96 86
294 128 173 112 100 90
295 128 172 107 95 85
295 128 173 112 100 90
294 128 174 112 100 90
295 128 174 113 101 91
295 128 175 115 104 93
296 130 160 92 57 14
296 130 161 90 54 13
296 131 160 92 58 16
296 131 161 91 55 14
297 131 160 91 54 17
297 131 161 89 56 16
296 130 162 88 54 12
296 130 163 87 54 11
297 130 163 86 51 10
297 131 162 88 56 20
297 131 163 87 50 14
298 131 162 86 54 8
298 131 163 86 52 10
296 129 164 84 53 21
296 129 165 80 55 30
296 129 166 78 56 30
296 129 167 78 61 44
296 130 164 85 53 15
296 130 165 83 51 18
297 130 164 86 52 10
297 130 165 85 50 12
297 131 164 86 49 14
297 131 165 84 49 12
296 130 166 79 54 27
296 130 167 77 57 32
297 130 166 82 50 19
297 130 167 79 54 27
297 131 166 83 48 16
297 131 167 81 51 22
298 131 165 81 57 37
298 131 166 83 49 20
298 131 167 79 48 22
297 132 161 87 61 39
297 132 162 87 61 40
298 132 160 91 52 24
298 132 161 89 54 24
298 133 160 92 53 21
298 133 161 88 60 43
299 133 160 91 53 22
299 133 161 89 54 28
298 132 162 84 53 19
298 132 163 84 55 26
299 133 162 85 50 19
299 133 163 83 52 17
299 134 160 90 55 21
299 134 161 89 53 20
299 134 162 88 51 19
299 134 163 86 54 22
298 132 164 84 50 16
298 132 165 83 54 24
299 132 164 82 54 17
299 132 165 82 53 19
299 133 164 83 54 20
299 133 165 82 56 25
298 132 166 83 50 20
298 132 167 83 51 27
299 132 166 82 55 26
299 132 167 81 51 27
299 133 166 81 56 26
299 133 167 80 54 27
299 134 164 84 53 25
300 135 160 89 54 21
300 135 161 88 56 24
301 135 160 87 55 22
301 135 161 83 54 21
300 134 162 89 55 21
300 134 163 88 57 23
300 135 162 87 56 26
300 135 163 88 61 29
301 135 162 84 58 30
301 135 163 85 60 32
300 133 166 84 64 42
300 133 167 82 61 41
300 134 164 85 56 27
300 134 165 81 56 31
301 135 164 84 60 34
301 135 165 85 64 42
300 134 166 83 62 42
300 134 167 89 71 52
301 134 167 93 76 59
301 135 166 89 72 54
301 135 167 95 80 66
296 129 168 78 63 48
296 129 169 79 63 47
296 129 170 79 66 54
296 129 171 87 75 64
297 129 170 78 65 54
297 129 171 78 65 53
296 130 168 77 60 43
297 130 168 78 58 38
297 130 169 78 63 47
297 131 168 78 53 31
297 131 169 78 59 44
297 130 170 80 67 54
297 130 171 83 69 54
298 131 168 79 53 28
298 131 169 79 59 37
298 130 170 82 67 53
298 130 171 85 73 60
298 131 170 86 70 56
298 131 171 89 77 65
299 131 171 98 85 73
296 128 173 108 96 86
296 129 172 95 83 73
296 129 173 104 93 82
297 129 172 89 77 66
297 129 173 98 87 77
296 128 174 113 102 91
296 128 175 118 106 94
296 129 174 112 100 90
296 129 175 118 107 96
297 129 174 111 100 90
297 129 175 115 104 94
297 130 172 85 72 58
298 129 175 113 103 93
298 130 172 89 77 65
298 130 173 94 82 70
299 131 172 94 83 73
299 131 173 98 87 77
298 130 174 101 91 81
298 130 175 109 100 92
299 131 174 96 86 78
299 131 175 99 92 84
299 132 168 81 57 39
299 132 169 82 62 43
299 133 168 79 55 40
299 132 170 88 73 58
299 132 171 98 85 73
299 132 172 103 91 79
299 132 173 103 90 81
299 132 174 101 89 82
299 132 175 107 95 86
300 133 168 84 64 49
300 133 169 87 72 59
300 132 170 88 73 57
300 132 171 94 82 70
300 133 170 89 75 61
300 133 171 92 80 70
300 134 168 94 77 62
300 134 169 96 81 70
301 134 168 98 82 66
301 134 169 102 88 76
301 135 168 101 87 73
301 135 169 105 91 81
300 134 170 93 80 70
300 134 171 89 77 68
301 134 170 98 85 75
301 134 171 94 82 75
301 135 170 104 92 83
301 135 171 106 94 84
300 132 172 105 94 81
300 132 173 106 95 85
300 133 172 101 90 79
300 133 173 107 96 86
300 132 174 107 95 87
300 132 175 115 102 91
300 133 174 111 101 91
300 133 175 117 105 94
301 133 174 112 102 92
301 134 172 99 88 79
301 134 173 107 96 86
301 135 172 109 96 86
301 135 173 107 94 85
300 134 175 113 102 91
301 134 174 110 99 90
301 134 175 109 97 88
301 135 174 103 90 83
301 135 175 102 89 81
301 136 160 84 54 24
301 136 161 81 55 26
301 136 162 83 59 37
301 136 163 86 63 41
302 137 160 82 58 34
302 137 161 83 61 39
302 137 162 86 66 49
302 137 163 85 67 54
303 137 162 93 77 62
303 137 163 98 82 68
302 138 160 88 70 53
303 138 160 88 74 61
303 138 161 90 73 58
303 139 160 88 74 63
303 138 162 96 81 66
303 138 163 102 88 74
301 136 164 86 65 43
301 136 165 86 66 49
301 136 166 88 72 56
302 136 164 88 68 50
302 136 165 87 69 55
302 137 164 87 70 57
302 137 165 90 75 63
303 137 164 98 84 71
303 137 165 98 86 74
302 136 166 89 75 65
302 136 167 96 84 73
302 137 166 91 78 68
302 137 167 93 81 74
303 137 166 96 84 74
303 137 167 96 86 78
303 138 164 106 93 81
303 138 165 106 95 83
303 139 165 106 95 85
303 138 166 103 93 82
303 138 167 101 90 80
303 139 166 106 95 87
303 139 167 104 92 82
303 143 167 110 96 87
297 143 174 142 67 5
297 143 175 144 65 4
299 141 173 117 95 64
299 140 174 121 99 73
299 140 175 125 102 74
299 141 174 125 94 50
299 141 175 129 92 44
298 142 173 129 78 31
298 143 173 135 72 33
299 142 172 116 87 54
299 142 173 124 84 42
299 143 172 122 82 49
299 143 173 129 77 40
298 142 174 136 70 14
298 142 175 139 70 12
298 143 174 138 66 16
298 143 175 142 63 9
299 142 174 132 80 25
301 136 169 107 94 83
301 136 170 108 94 85
301 136 171 113 100 89
301 138 171 113 100 89
301 139 171 112 100 90
302 136 168 100 88 79
302 136 169 105 93 85
302 137 168 99 89 81
302 137 169 108 96 87
303 137 168 103 92 84
302 136 170 111 98 87
302 136 171 115 102 90
302 137 170 111 99 88
302 137 171 116 102 90
302 138 169 104 92 85
302 139 169 100 89 82
303 138 168 103 92 82
303 138 169 107 95 87
303 139 168 103 90 80
303 139 169 104 92 83
302 138 170 103 92 85
302 138 171 113 99 88
302 139 170 103 92 84
302 139 171 107 95 85
301 136 172 119 106 93
301 136 173 114 100 90
301 137 172 122 109 96
301 137 173 124 109 96
300 137 175 107 93 84
301 136 174 106 91 84
301 136 175 99 86 79
301 137 174 115 101 90
301 137 175 107 93 85
300 139 173 118 106 96
301 138 172 123 109 97
301 138 173 125 111 99
301 139 172 112 101 92
301 139 173 118 106 97
300 138 174 125 112 98
300 138 175 117 103 91
300 139 174 121 107 95
300 139 175 120 106 92
301 138 174 124 110 97
301 140 171 104 93 84
301 141 170 100 89 80
301 141 171 100 88 79
301 143 169 116 102 89
300 142 171 106 91 78
300 143 171 112 90 67
301 142 170 110 98 86
301 142 171 102 89 78
301 143 170 115 101 86
301 143 171 110 95 81
302 140 169 109 97 87
302 141 169 109 97 87
303 140 168 116 101 87
303 140 169 110 97 86
303 141 168 119 105 92
303 141 169 114 101 89
302 140 170 103 93 84
302 141 170 106 94 85
302 142 168 113 100 90
302 142 169 115 103 93
302 143 168 111 99 89
302 143 169 116 103 91
303 142 168 116 102 91
303 143 168 113 100 88
302 142 170 111 99 89
300 140 172 106 95 86
300 140 173 111 98 87
300 141 172 107 92 78
300 141 173 112 94 73
301 140 172 109 99 89
300 140 174 117 101 84
300 140 175 124 106 85
300 142 172 110 90 69
300 143 172 112 86 61
295 128 176 120 109 99
295 128 177 119 108 98
295 128 178 118 106 96
296 128 176 120 109 99
296 128 177 118 106 97
297 128 177 117 106 97
297 129 176 119 108 97
297 129 177 118 107 97
296 128 178 117 105 95
296 128 179 116 103 93
297 128 178 116 104 94
297 128 179 114 102 93
297 129 178 116 105 96
298 129 176 117 106 96
298 129 177 118 107 97
298 128 179 112 101 92
298 129 178 116 104 95
298 129 179 115 103 93
299 129 178 117 105 95
299 129 179 117 104 94
298 130 176 113 104 95
298 130 177 116 106 95
299 130 176 113 103 94
299 130 177 113 103 94
299 131 176 109 100 92
299 131 177 108 99 91
299 130 178 112 101 92
299 130 179 115 104 93
299 131 178 104 95 89
299 131 179 103 94 88
297 128 180 115 102 93
298 128 180 112 100 92
298 128 181 115 103 94
298 129 180 110 98 92
299 128 181 117 105 95
299 129 180 116 104 94
299 129 181 119 107 96
298 128 182 111 100 92
298 128 183 108 97 91
299 128 182 111 100 93
299 128 183 108 98 91
299 129 182 114 103 94
299 129 183 109 98 92
299 130 180 117 105 95
299 130 181 121 109 97
299 131 180 109 99 91
299 132 176 112 100 88
299 132 177 111 99 90
299 132 178 101 91 85
299 132 179 98 89 84
299 133 178 115 101 91
299 133 179 114 102 92
299 134 179 118 106 95
299 135 180 121 108 96
300 129 182 113 101 94
300 129 183 110 99 93
300 130 180 119 108 97
300 130 181 125 112 100
300 131 180 109 100 91
300 131 181 120 109 99
300 130 182 119 107 97
300 130 183 112 100 94
300 131 182 119 108 99
301 130 183 114 103 95
301 131 183 109 99 91
300 132 176 118 105 91
300 132 177 119 106 93
300 133 176 121 108 97
300 133 177 119 105 95
300 132 179 99 90 85
300 133 178 117 104 93
300 133 179 119 106 94
300 134 176 117 104 94
300 134 177 121 106 95
300 135 176 111 99 88
300 135 177 120 106 93
301 135 176 109 96 86
300 134 178 122 108 95
300 134 179 121 108 97
300 135 178 123 109 96
300 135 179 124 111 99
300 132 180 101 92 85
300 132 181 111 100 92
300 133 180 108 97 88
300 133 181 104 93 84
300 132 182 114 104 96
300 132 183 110 103 97
300 133 182 106 94 84
300 133 183 111 100 90
301 132 183 113 104 95
300 134 180 113 101 90
300 134 181 107 94 81
300 135 180 118 104 89
300 135 181 114 98 82
300 134 182 105 89 74
300 134 183 107 90 72
300 135 182 109 90 71
300 135 183 102 80 59
298 128 184 108 98 90
298 128 185 108 98 90
299 128 184 108 98 90
299 128 185 108 98 90
299 128 186 107 97 89
299 128 187 106 97 90
299 128 188 105 97 90
299 128 189 105 96 90
300 129 184 109 99 92
300 129 185 109 98 90
300 129 186 107 96 89
300 129 187 107 96 89
300 130 184 110 99 92
300 130 185 109 99 91
301 130 184 110 99 92
301 130 185 109 99 91
301 131 184 106 96 89
301 131 185 104 94 87
300 130 186 107 97 89
301 130 186 106 96 88
301 130 187 106 95 88
301 131 186 103 92 84
301 131 187 103 92 86
300 128 188 106 97 90
300 128 189 105 96 89
300 129 188 106 97 90
300 129 189 105 96 89
301 129 188 107 97 90
301 129 189 103 94 88
300 128 190 103 95 88
300 128 191 102 94 88
301 128 191 101 94 87
301 129 190 102 93 87
301 129 191 100 93 87
301 130 188 106 96 89
301 130 189 104 95 89
301 131 188 105 93 88
301 131 189 103 93 88
301 130 190 100 92 87
301 130 191 99 91 86
302 131 188 107 94 88
302 131 189 103 93 89
302 130 191 96 89 85
302 131 190 100 91 86
302 131 191 98 89 84
300 133 184 111 96 80
301 132 184 107 98 90
301 132 185 103 92 83
301 133 184 111 98 86
301 133 185 108 94 79
301 132 186 107 94 82
301 132 187 107 95 83
301 133 186 116 97 74
300 134 184 109 89 65
300 135 184 107 81 46
301 134 184 109 90 69
301 134 185 111 86 56
301 135 185 109 76 34
301 134 186 118 90 50
301 135 186 118 75 11
302 132 187 114 99 83
302 133 187 119 99 74
302 134 187 124 89 40
302 135 187 127 75 11
302 132 188 110 96 84
302 132 189 108 95 82
302 133 188 119 97 68
302 133 189 113 91 62
302 132 190 102 91 83
302 132 191 100 91 84
302 133 190 105 88 69
303 132 191 102 92 84
303 133 190 106 86 63
303 133 191 106 92 78
302 134 188 124 82 35
302 134 189 121 78 34
302 135 188 132 68 10
302 135 189 133 65 12
302 134 190 117 84 44
303 134 190 114 75 35
303 134 191 110 85 53
303 135 190 125 59 13
303 135 191 115 64 18
299 138 179 118 90 54
299 139 178 117 92 55
299 139 179 117 86 44
299 137 180 113 92 73
299 138 180 116 89 53
299 139 180 118 79 29
299 139 181 118 73 18
297 143 176 145 65 2
297 143 177 145 66 2
297 143 178 142 63 3
298 141 176 136 80 24
298 141 177 140 72 15
299 140 176 126 96 59
299 140 177 126 93 53
299 141 176 131 87 33
299 141 177 135 79 23
298 141 178 137 66 5
299 140 178 127 82 27
299 140 179 126 76 16
299 141 178 133 67 6
299 141 179 134 65 4
298 142 176 142 68 6
298 142 177 143 66 3
298 143 177 143 63 4
298 142 178 140 64 2
298 142 179 136 63 3
298 143 178 141 62 3
298 143 179 138 62 3
299 140 180 126 69 7
299 140 181 126 67 3
299 141 180 132 64 3
299 141 181 131 63 4
299 140 182 131 68 5
299 141 182 133 68 4
298 142 180 134 63 3
298 143 180 135 62 3
298 143 181 134 64 3
299 142 180 133 63 3
299 142 181 133 66 3
299 143 181 135 67 3
299 142 182 135 70 3
299 142 183 140 71 5
299 143 182 137 69 7
299 143 183 141 68 7
300 136 176 104 92 82
300 136 177 110 98 87
300 137 176 103 90 82
300 137 177 98 86 80
301 136 176 100 87 79
300 136 178 117 104 93
300 136 179 118 104 93
300 137 178 103 89 80
300 137 179 110 92 79
300 138 176 115 102 90
300 138 177 112 98 85
300 139 176 119 102 86
300 139 177 119 100 76
300 138 178 114 97 79
300 138 179 116 94 68
300 139 178 117 95 66
300 136 180 116 100 85
300 136 181 112 93 71
300 137 180 113 90 66
300 137 181 113 87 58
300 136 182 111 84 57
300 136 183 105 73 38
300 137 182 112 75 38
300 137 183 114 69 24
300 138 180 116 90 55
300 138 181 117 83 42
300 139 181 121 79 29
300 138 182 117 73 25
300 138 183 121 67 7
300 139 182 124 71 15
300 139 183 129 64 3
300 140 176 124 102 80
300 140 181 123 69 3
300 140 182 127 66 3
300 140 183 134 66 3
300 141 183 137 71 3
300 142 183 142 72 5
299 143 184 145 69 5
299 143 185 147 69 4
300 136 184 108 70 21
300 137 184 117 66 7
301 136 185 113 67 7
301 137 185 124 67 3
301 136 186 124 65 2
301 137 186 134 67 3
300 138 184 126 65 3
300 138 185 132 65 3
300 139 184 133 62 3
300 139 185 137 64 3
301 138 185 130 66 3
301 139 185 140 66 3
301 138 186 140 67 4
301 139 186 145 66 3
302 136 187 135 66 3
302 137 187 142 65 3
302 138 187 146 68 6
302 139 187 149 67 4
302 136 188 139 60 3
302 136 189 145 62 9
302 137 188 146 64 3
302 137 189 152 66 12
303 136 190 141 59 6
303 136 191 133 51 3
303 137 190 148 60 6
303 137 191 142 56 3
302 138 188 149 68 5
302 138 189 155 67 11
302 139 188 151 67 7
302 139 189 157 69 10
302 138 190 157 68 14
302 139 190 157 67 9
302 139 191 146 51 4
303 138 190 151 58 7
303 138 191 145 50 4
303 139 190 151 57 3
303 139 191 145 51 7
300 140 184 139 66 3
300 140 185 143 65 3
300 141 184 143 73 5
300 141 185 148 74 5
301 140 185 145 66 3
300 141 186 151 73 8
301 140 186 150 68 4
301 140 187 152 69 5
301 141 186 151 71 6
301 141 187 149 63 4
300 142 184 146 72 8
300 142 185 148 72 6
300 143 185 148 71 5
300 142 186 149 70 5
300 143 186 148 67 7
300 143 187 146 65 7
301 142 186 151 71 6
301 142 187 147 63 4
302 140 187 152 65 4
301 141 188 148 55 6
300 143 188 145 60 3
301 142 188 146 57 5
301 142 189 149 64 10
301 143 188 145 61 5
301 143 189 148 64 11
301 142 190 152 74 13
301 143 190 150 73 12
302 140 188 151 61 4
302 140 189 157 66 11
302 141 188 151 60 6
302 141 189 156 69 13
302 140 190 156 65 11
302 140 191 147 54 4
302 141 190 158 73 13
302 141 191 148 59 4
302 142 190 151 73 9
302 142 191 143 60 4
302 143 190 149 74 13
302 143 191 143 64 13
295 155 175 115 67 45
295 156 174 104 81 76
295 156 175 106 83 75
295 157 174 100 88 91
295 157 175 103 99 101
295 159 173 105 108 114
295 158 174 101 101 106
295 158 175 105 103 106
295 159 174 106 107 113
295 159 175 100 93 101
302 144 167 105 93 83
302 145 167 105 90 78
303 144 167 105 93 85
303 145 166 107 94 84
303 145 167 106 94 84
302 146 167 109 90 74
302 147 167 115 91 67
303 146 166 109 94 81
303 146 167 110 93 76
303 147 166 115 96 78
303 147 167 115 95 75
302 148 167 124 91 60
302 149 167 130 80 31
303 148 167 122 95 71
303 149 167 124 91 57
302 150 167 132 70 8
302 151 167 135 61 0
303 150 167 125 77 31
303 151 167 131 62 9
299 144 171 124 83 49
299 145 171 132 76 33
298 147 171 142 64 1
299 146 171 136 71 11
299 147 170 138 72 3
299 147 171 139 69 4
297 144 173 139 67 13
297 145 173 140 67 7
296 145 174 144 67 2
296 145 175 145 67 2
297 144 174 142 71 7
297 144 175 144 68 2
297 145 174 143 69 3
297 145 175 146 69 2
297 146 173 143 64 2
297 147 173 141 58 2
296 146 174 144 65 2
296 146 175 144 67 3
296 147 174 144 62 2
296 147 175 144 64 4
297 146 174 143 65 2
298 144 172 135 69 34
298 144 173 138 66 22
298 145 172 138 67 19
298 145 173 139 67 8
299 144 172 129 74 41
299 145 172 136 70 32
298 146 172 140 62 3
298 147 172 141 62 1
298 148 171 141 67 2
298 149 171 140 66 2
299 148 170 140 71 2
299 148 171 141 68 2
299 149 170 141 67 2
299 149 171 140 69 4
299 150 169 142 62 2
299 151 169 141 61 1
298 150 171 141 63 1
298 151 171 141 63 2
299 150 170 141 60 1
299 150 171 141 60 1
299 151 170 142 59 1
299 151 171 142 60 1
297 148 172 141 63 1
297 148 173 141 58 2
297 149 172 141 63 0
297 149 173 142 61 1
296 148 174 144 63 2
296 148 175 143 63 2
296 149 174 143 65 2
296 149 175 143 65 2
297 148 174 143 61 2
297 149 174 143 62 1
297 150 173 142 61 8
297 151 173 141 63 3
296 150 175 141 62 2
296 151 175 139 58 3
297 150 174 142 62 5
297 150 175 143 63 2
297 151 174 141 62 2
297 151 175 140 58 2
298 148 172 140 64 2
298 149 172 141 64 1
298 150 172 142 63 2
298 150 173 142 61 4
298 151 172 142 66 4
298 151 173 141 65 4
301 144 169 115 98 80
301 145 168 110 90 72
301 145 169 115 92 66
300 144 171 122 94 66
300 145 170 122 90 58
300 145 171 124 88 54
301 144 170 119 99 76
301 145 170 120 92 60
300 147 169 132 76 29
301 146 168 114 89 66
301 146 169 118 85 51
301 147 168 122 84 51
301 147 169 125 78 35
300 146 170 128 81 35
300 146 171 126 84 44
300 147 170 135 77 18
302 144 168 109 96 85
302 144 169 113 98 84
302 145 168 108 92 79
302 146 168 109 88 70
302 147 168 118 89 62
300 148 169 136 72 10
300 149 169 139 67 3
301 148 168 130 79 31
301 148 169 132 76 21
301 149 168 135 69 10
300 148 170 137 73 5
300 149 170 140 68 2
300 150 168 139 60 1
300 150 169 141 61 1
300 151 168 138 62 0
300 151 169 139 61 1
301 150 168 137 61 1
301 151 168 137 61 1
302 148 168 126 87 50
302 149 168 130 80 29
302 152 167 137 62 2
302 153 167 137 64 1
303 152 167 135 59 6
303 153 167 138 59 1
302 154 167 137 60 2
302 155 167 137 57 0
303 154 167 137 57 0
303 155 166 135 57 6
303 155 167 136 57 2
301 156 167 137 63 1
301 157 167 135 64 1
300 158 167 137 63 1
300 159 167 136 62 3
301 158 166 133 63 0
301 158 167 135 62 1
301 159 166 136 63 2
301 159 167 136 62 3
303 157 165 135 62 0
302 156 167 137 59 3
302 157 166 135 59 4
302 157 167 135 61 0
303 156 166 136 61 10
303 157 166 135 61 1
302 158 166 134 60 0
302 159 166 136 63 1
303 158 166 134 58 1
303 159 166 134 61 1
299 152 170 142 61 1
299 152 171 141 64 4
299 153 170 141 61 0
299 153 171 140 63 5
298 154 171 139 62 2
298 155 171 141 64 2
299 154 170 139 62 0
299 154 171 139 60 2
299 155 170 140 63 0
299 155 171 140 64 2
297 152 173 140 66 3
297 153 173 139 64 3
296 152 175 140 60 3
296 153 175 139 58 5
297 152 174 140 63 2
297 152 175 140 61 2
297 153 174 139 61 2
297 153 175 140 62 2
297 154 173 138 61 6
297 155 173 138 64 5
296 154 174 137 58 10
296 154 175 133 57 15
296 155 174 129 66 23
296 155 175 125 62 24
297 154 174 139 61 7
297 155 174 139 61 6
298 152 172 140 65 3
298 152 173 139 66 2
298 153 172 140 65 4
298 153 173 139 66 2
298 154 172 138 62 2
298 154 173 139 63 4
298 155 172 140 65 3
298 155 173 139 65 3
297 158 171 115 72 62
297 159 171 99 90 92
298 156 171 140 62 2
298 157 171 135 60 7
299 156 170 140 63 1
299 156 171 141 63 1
299 157 170 140 61 1
299 157 171 139 60 3
299 158 169 138 63 2
299 159 168 136 64 9
299 159 169 132 66 23
298 158 171 127 61 25
298 159 170 117 74 52
298 159 171 111 74 62
299 158 170 136 62 10
299 159 170 128 63 27
296 156 173 113 62 40
296 157 173 102 70 67
297 156 173 129 64 18
297 157 172 116 55 33
297 157 173 107 63 54
296 156 174 114 70 47
296 157 174 101 79 78
296 158 172 95 92 98
296 158 173 99 91 96
296 159 172 97 101 108
296 159 173 101 104 111
297 158 172 104 76 73
297 159 172 96 95 101
296 158 174 99 89 93
298 156 172 136 63 6
298 157 172 127 58 22
300 152 169 140 63 3
300 153 168 140 61 13
300 153 169 141 60 6
301 152 168 138 64 4
301 153 168 138 62 6
300 153 170 141 62 0
300 154 169 140 53 3
300 155 169 139 59 0
301 154 168 140 57 8
301 155 168 138 58 3
300 154 170 140 57 0
300 155 170 140 62 0
300 156 169 138 65 1
300 157 168 138 68 1
300 157 169 138 65 1
301 156 168 137 64 0
301 157 168 136 67 1
300 158 168 138 63 1
300 158 169 139 61 1
300 159 168 138 62 3
295 153 177 125 60 24
295 153 178 117 66 39
294 155 177 102 93 91
295 154 176 117 61 36
295 154 177 117 68 46
295 155 176 110 77 65
295 155 177 108 82 75
295 154 178 112 76 62
295 154 179 109 86 76
295 155 178 101 95 93
295 155 179 106 98 94
295 155 180 108 97 94
295 155 181 105 54 61
294 156 176 102 100 100
294 156 177 100 95 96
294 157 176 105 100 102
294 157 177 102 93 97
295 156 176 103 99 98
295 157 177 95 80 86
294 156 178 100 97 98
294 157 178 98 89 93
295 156 178 99 94 95
295 156 179 102 95 94
295 157 178 88 71 77
295 157 179 89 68 75
294 158 176 102 91 96
294 158 177 102 91 94
295 158 176 105 96 101
295 158 177 92 75 83
295 159 176 90 75 86
295 159 177 84 59 75
295 158 178 88 63 73
295 158 179 98 59 67
295 159 178 90 61 73
295 159 179 99 58 67
295 156 180 102 79 77
295 156 181 104 51 52
295 157 180 102 55 59
295 157 181 109 42 45
295 158 180 108 56 63
295 158 181 115 47 55
295 159 180 107 49 58
295 159 181 112 43 52
295 158 182 118 39 47
295 159 182 114 43 49
295 159 183 114 40 48
296 144 176 146 67 3
296 145 176 144 68 2
296 145 177 143 66 2
297 144 176 146 67 2
297 144 177 144 66 2
297 145 176 145 67 2
297 145 177 143 67 2
297 144 178 141 65 3
297 144 179 136 61 3
297 145 178 140 68 2
297 145 179 135 62 3
296 146 176 144 69 2
296 146 177 143 70 2
296 147 176 144 70 7
296 147 177 142 70 4
297 146 177 141 69 2
296 147 178 140 71 3
297 146 178 139 69 3
297 146 179 135 63 3
297 147 178 139 71 3
297 147 179 134 66 4
298 144 178 139 62 5
298 144 179 135 60 2
297 145 180 131 55 0
297 146 180 131 58 5
297 146 181 133 60 9
297 147 180 129 60 5
297 147 181 132 63 13
297 147 182 137 68 14
297 147 183 140 71 12
298 144 180 134 61 2
298 144 181 135 64 6
298 145 180 132 56 1
298 145 181 135 60 9
298 144 182 137 66 8
298 144 183 141 69 6
298 145 182 136 65 7
298 145 183 140 69 5
299 144 182 139 67 12
299 144 183 141 67 7
298 146 180 132 57 6
298 146 181 133 59 10
298 146 182 136 66 8
298 146 183 141 71 6
298 147 183 141 72 8
296 148 176 143 65 7
296 148 177 141 68 4
296 149 176 141 65 3
296 149 177 140 66 3
296 148 178 139 70 5
296 149 178 137 69 5
297 148 179 133 68 7
297 149 178 136 70 6
297 149 179 131 67 6
296 150 176 140 62 3
296 150 177 139 62 4
296 151 176 138 58 3
296 151 177 137 61 6
296 150 178 136 67 5
296 150 179 131 66 11
296 151 178 131 64 6
296 151 179 126 62 18
297 150 179 130 65 14
297 148 180 129 63 6
297 148 181 132 63 15
297 149 180 128 64 12
297 149 181 128 64 25
297 148 182 134 63 17
297 148 183 134 66 18
297 149 182 129 67 34
297 149 183 123 74 46
296 150 180 125 65 19
296 151 180 120 72 42
296 151 181 115 80 64
297 150 180 124 64 23
297 150 181 122 70 43
297 151 181 117 80 60
297 150 182 118 78 61
297 150 183 109 82 74
297 151 182 113 87 75
297 151 183 106 93 92
297 147 184 140 70 10
297 147 185 136 71 24
298 144 184 145 68 5
298 145 184 145 70 5
298 145 185 145 67 5
299 144 184 145 69 6
299 144 185 147 67 5
298 145 186 142 64 5
298 145 187 136 60 14
299 144 186 145 64 5
299 144 187 142 63 7
299 145 187 139 61 6
298 146 184 143 71 7
298 146 185 140 67 8
298 147 185 136 68 18
298 146 186 134 64 12
298 146 187 127 66 40
298 147 186 124 73 46
298 147 187 111 75 64
298 145 188 129 64 32
299 144 188 141 63 6
299 145 188 133 64 11
299 145 189 126 67 14
298 146 188 120 66 56
298 147 188 108 80 85
299 146 188 122 68 45
299 146 189 119 72 56
299 147 189 104 78 84
299 146 190 114 79 62
299 147 190 102 87 91
297 148 184 132 73 26
297 148 185 125 76 46
297 149 184 117 87 67
297 149 185 108 91 82
297 148 186 112 85 73
297 149 186 106 93 87
297 150 184 105 96 94
297 150 185 103 102 103
297 151 184 102 103 106
297 151 185 103 108 114
298 148 186 115 81 63
298 148 187 106 90 87
298 149 186 100 101 103
298 149 187 100 104 108
298 150 185 101 105 110
298 151 185 104 110 116
298 150 186 101 109 115
298 150 187 102 109 118
298 151 186 107 111 116
298 151 187 110 108 112
298 148 188 96 93 97
298 148 189 98 92 98
298 149 188 99 106 112
298 149 189 97 101 105
299 148 189 95 91 96
299 149 189 99 104 109
299 148 190 93 97 105
299 149 190 100 105 111
298 150 188 104 109 116
298 151 188 109 103 107
299 150 189 106 106 111
299 151 188 110 102 105
299 151 189 111 98 102
299 150 190 107 106 109
299 151 190 110 98 99
300 144 187 145 63 4
300 144 188 141 61 4
300 144 189 143 64 5
300 145 189 134 66 8
301 144 189 147 66 4
300 145 190 126 67 14
301 144 190 147 70 9
301 144 191 145 70 13
301 145 190 139 69 11
301 145 191 133 64 7
300 146 190 114 77 52
300 147 190 101 94 95
300 147 191 103 95 92
301 146 191 111 71 46
301 147 191 107 100 98
302 144 191 143 64 16
302 145 191 138 60 9
300 148 191 90 100 110
300 149 191 99 106 114
301 148 191 95 104 115
301 149 191 98 108 119
300 150 190 109 108 111
300 150 191 108 109 113
300 151 190 109 96 95
300 151 191 107 95 96
301 150 191 107 109 115
301 151 191 105 93 96
296 152 176 137 57 6
296 152 177 135 61 10
296 153 176 134 56 6
296 153 177 127 59 20
296 152 178 128 65 19
296 152 179 118 67 37
296 153 178 120 67 37
296 153 179 111 77 60
296 154 176 126 56 14
296 154 179 108 86 76
296 152 180 114 78 61
296 152 181 112 83 71
296 153 180 112 89 77
296 153 181 114 88 76
297 152 181 112 84 72
297 153 181 105 92 83
297 152 182 112 92 85
297 152 183 110 98 95
297 153 182 108 94 86
297 153 183 111 98 96
296 154 180 105 92 85
296 155 180 109 100 97
296 155 181 111 91 91
297 154 181 107 96 91
297 155 181 110 91 92
297 154 182 111 91 89
297 154 183 115 78 79
297 155 182 114 66 74
297 155 183 114 59 65
296 156 181 107 59 63
296 157 181 110 44 44
296 156 182 111 43 52
296 156 183 117 37 43
296 157 182 116 41 45
296 157 183 117 37 37
297 156 182 113 50 59
297 156 183 117 36 43
296 158 182 120 40 44
296 158 183 119 37 42
296 159 183 117 28 45
297 152 184 106 106 108
297 152 185 110 110 113
297 153 184 113 104 102
297 153 185 113 102 100
297 154 184 114 77 78
297 154 185 114 54 56
297 155 184 117 57 59
297 155 185 119 33 40
297 154 186 116 28 41
297 155 186 120 29 41
298 152 185 108 110 114
298 152 186 115 110 108
298 152 187 116 96 95
298 153 186 112 76 70
298 153 187 111 54 51
298 154 186 113 33 39
298 154 187 116 32 38
298 155 186 119 11 35
298 155 187 116 16 36
299 152 188 111 78 83
299 152 189 108 69 77
299 153 188 114 37 46
299 153 189 112 33 47
298 154 188 115 24 32
299 154 188 117 28 30
299 154 189 115 27 30
299 155 188 115 28 31
299 155 189 114 38 31
296 157 184 116 34 29
297 156 184 119 31 36
297 156 185 118 24 26
297 157 184 118 31 29
297 157 185 115 34 30
297 156 186 116 22 21
297 157 186 115 34 33
296 158 184 116 38 37
296 158 185 114 28 35
296 159 184 113 33 44
296 159 185 111 33 41
297 158 185 114 33 39
297 159 185 110 37 42
297 158 186 113 29 37
297 159 186 109 32 42
297 159 187 105 39 46
298 156 186 115 19 25
298 156 187 115 23 38
298 157 186 115 36 32
298 157 187 112 32 39
298 158 186 113 33 33
298 158 187 111 36 37
298 159 187 108 40 44
298 156 188 113 27 43
298 157 188 112 32 45
299 156 188 114 29 33
299 156 189 113 38 39
299 157 188 113 26 40
299 157 189 110 37 44
299 157 190 99 46 42
298 158 188 109 39 44
298 158 189 100 43 45
298 159 188 105 42 43
298 159 189 92 39 37
299 158 189 104 38 45
299 159 189 87 37 36
299 158 190 92 45 41
299 159 190 85 42 41
300 152 190 102 71 68
300 152 191 98 67 64
300 153 190 102 44 40
300 153 191 96 42 37
301 152 191 99 69 70
301 153 191 98 50 50
300 154 190 109 38 43
300 154 191 104 45 43
300 155 190 108 37 41
300 155 191 104 40 45
301 154 191 100 45 45
301 155 191 102 41 46
300 156 190 105 41 44
300 156 191 100 33 47
300 157 190 96 43 44
300 157 191 91 35 41
301 156 191 97 36 47
301 157 191 92 36 47
300 158 191 85 40 40
300 159 191 86 48 47
304 138 161 91 77 63
304 139 160 88 74 64
304 139 161 89 76 66
304 138 162 96 82 69
304 138 163 101 88 74
304 139 162 93 80 68
304 139 163 95 82 70
304 138 164 105 93 81
304 139 164 103 91 80
304 139 165 108 97 87
304 139 166 107 96 87
304 139 167 105 93 83
304 140 160 85 72 63
305 140 160 87 74 65
305 140 161 87 74 64
305 140 162 90 77 66
305 140 163 90 77 67
305 141 163 92 79 68
306 141 160 96 84 72
306 141 161 96 83 72
306 141 162 96 82 70
306 141 163 93 80 69
306 142 160 97 86 76
307 142 160 94 83 73
307 142 161 98 86 75
307 143 160 91 81 72
306 142 163 98 83 72
307 142 162 101 88 76
307 142 163 99 86 75
304 140 164 98 85 75
304 140 165 102 90 81
305 140 164 95 82 72
305 140 165 95 83 74
305 141 164 92 79 69
305 141 165 99 87 77
304 140 166 104 92 83
304 140 167 110 96 84
304 141 167 111 97 86
305 140 166 103 91 83
305 141 166 101 89 81
304 142 166 111 98 89
304 142 167 113 99 89
304 143 167 108 95 87
305 142 166 104 91 83
305 143 166 107 95 87
306 141 164 96 83 73
306 142 164 101 87 76
306 142 165 103 91 81
306 143 165 110 97 86
307 142 164 103 89 77
307 143 164 107 94 81
307 143 165 110 97 84
306 142 166 101 89 82
306 143 166 113 100 91
308 143 160 88 79 71
308 143 161 88 77 69
309 143 160 89 79 72
309 143 161 90 79 71
308 143 162 94 82 72
308 143 163 100 87 77
309 143 162 89 78 70
309 143 163 95 83 75
308 143 164 99 86 77
308 143 165 108 95 82
304 140 168 108 94 82
304 144 166 103 91 85
304 144 167 104 92 86
304 145 166 105 93 83
305 144 166 105 93 87
305 145 166 108 95 86
304 146 166 111 96 84
304 147 166 119 103 87
305 146 166 114 100 88
305 147 166 119 105 92
306 144 165 116 103 93
307 144 165 110 97 85
306 144 166 113 100 91
306 145 166 115 102 91
307 144 166 118 104 94
307 145 166 116 103 92
306 146 166 117 104 91
306 147 166 117 104 93
307 146 166 115 102 91
307 147 166 113 101 91
304 148 166 120 104 87
304 148 167 118 99 81
304 149 167 120 93 63
305 148 166 119 104 89
305 149 166 115 99 83
305 149 167 116 95 71
304 150 167 120 80 36
304 151 167 128 63 11
305 150 166 113 79 46
305 151 166 117 65 24
306 148 166 117 103 91
306 149 166 110 93 78
307 148 166 113 100 89
307 149 166 111 97 85
306 150 166 108 85 61
306 151 166 118 80 45
307 150 166 109 92 75
307 151 166 114 89 64
309 144 160 95 85 75
309 144 161 95 85 75
309 144 162 90 80 71
309 144 163 92 80 72
310 144 160 103 92 81
310 144 161 102 91 80
310 145 160 99 88 77
310 145 161 101 90 79
311 145 160 93 81 72
311 145 161 93 81 71
310 144 162 99 88 78
310 144 163 99 87 76
311 144 163 103 90 79
311 145 162 97 85 75
311 145 163 102 89 79
311 146 160 88 76 67
308 144 165 109 96 84
308 145 165 108 95 83
309 144 164 102 89 80
309 144 165 105 93 81
309 145 165 107 95 83
308 145 166 112 99 90
309 145 166 110 98 88
308 146 166 110 98 89
308 147 166 111 98 90
309 146 166 112 100 89
309 147 166 112 100 89
310 144 164 99 87 77
310 145 165 106 93 83
311 145 164 101 89 77
311 145 165 100 88 78
310 145 166 112 99 87
310 146 166 112 100 89
310 147 166 111 98 88
311 146 166 106 93 85
311 147 166 106 92 85
308 148 166 113 100 90
308 149 166 111 98 89
309 148 166 113 101 92
309 149 166 112 99 89
308 150 166 108 95 85
308 151 166 109 91 74
309 150 166 108 95 86
309 151 166 104 89 74
310 148 166 111 98 89
310 149 166 108 96 88
311 148 166 108 95 86
311 149 166 108 95 87
311 149 167 107 93 85
310 150 166 107 95 85
310 151 166 104 92 80
311 150 166 107 96 86
311 150 167 108 95 86
311 151 166 106 94 84
311 151 167 109 96 87
304 152 166 133 59 4
304 152 167 133 57 4
304 153 166 136 57 2
305 152 166 129 63 1
305 153 166 133 61 3
304 154 166 135 57 0
304 154 167 136 56 0
304 155 166 134 58 0
305 154 166 135 60 0
305 155 166 134 62 0
306 152 166 124 73 22
306 153 166 130 69 7
307 152 166 121 83 48
307 153 166 128 76 22
306 154 166 134 59 0
306 155 166 134 61 2
307 154 166 131 62 5
307 155 166 133 58 3
304 156 166 134 61 1
304 157 166 134 62 0
305 156 166 133 63 0
305 157 166 134 63 1
304 158 166 134 60 0
304 159 166 134 60 2
305 158 166 134 60 1
305 159 166 134 59 1
306 156 166 134 66 2
306 157 166 134 63 2
307 156 166 133 61 3
307 157 166 132 63 2
306 158 166 134 59 2
306 159 166 134 59 2
307 158 166 134 61 3
307 159 166 133 60 1
308 152 166 117 89 64
308 153 166 126 80 32
309 152 166 112 88 67
309 153 166 118 81 47
308 154 166 128 66 11
308 155 166 131 57 4
309 154 166 121 73 27
309 155 166 123 62 13
310 152 166 106 90 73
310 153 166 111 87 63
311 152 166 108 94 80
311 152 167 111 97 84
311 153 167 112 96 77
310 154 166 117 84 49
310 155 166 121 73 27
311 154 167 116 94 70
311 155 166 121 81 37
311 155 167 121 90 55
308 156 166 132 57 4
308 157 166 131 61 5
309 156 166 127 60 15
309 157 166 132 63 6
308 158 166 133 64 6
308 159 166 133 63 3
309 158 166 134 64 8
309 158 167 132 64 8
309 159 166 132 63 6
310 156 166 128 63 4
310 157 166 132 63 3
311 156 166 126 70 16
311 156 167 124 72 18
311 157 166 130 62 7
311 157 167 130 63 7
310 158 167 132 62 4
310 159 166 132 63 6
310 159 167 132 63 6
311 158 167 132 63 5
311 159 167 133 63 5
312 145 162 88 76 67
312 145 163 96 84 74
312 146 160 84 73 64
312 146 161 85 73 65
313 146 161 82 70 60
313 147 160 82 72 63
313 147 161 82 71 62
312 146 162 85 73 65
312 146 163 86 73 67
313 146 162 82 71 61
313 146 163 86 75 65
313 147 162 81 70 59
314 147 160 81 71 63
314 147 161 80 70 61
315 147 161 80 70 61
314 146 163 84 73 62
314 147 162 80 70 60
314 147 163 83 72 61
315 147 162 80 69 59
315 147 163 82 71 59
312 145 164 96 83 76
312 145 165 97 85 77
312 146 165 97 86 80
313 146 164 91 79 71
313 146 165 97 85 78
313 147 165 100 89 82
312 146 166 98 87 83
312 147 166 105 93 86
313 147 166 106 95 87
314 146 164 91 80 69
314 146 165 96 86 76
314 147 164 91 80 70
314 147 165 98 87 77
315 147 164 84 74 64
315 147 165 90 81 72
314 147 166 104 92 84
315 148 160 83 73 64
315 148 161 84 73 64
315 148 162 83 73 62
312 148 166 112 97 85
312 149 166 113 99 87
312 149 167 113 99 88
313 148 166 112 98 85
313 149 167 114 100 88
312 150 167 111 98 89
312 151 167 112 99 90
313 150 167 114 101 91
313 151 167 114 101 91
314 148 166 105 93 84
314 148 167 109 95 86
314 149 167 113 98 87
315 148 166 97 85 77
315 148 167 98 86 77
315 149 167 107 93 83
314 150 167 115 101 91
314 151 167 114 101 91
316 147 164 87 76 65
316 147 165 87 77 67
316 148 160 86 76 67
316 148 161 90 79 70
316 149 160 86 76 67
317 148 161 96 85 76
317 149 160 89 80 71
317 149 161 95 85 75
316 148 162 90 79 68
316 148 163 89 77 65
317 148 162 98 86 76
317 148 163 98 86 75
317 149 162 101 90 81
317 149 163 106 94 83
318 149 160 93 84 76
318 149 161 96 86 78
318 149 162 102 91 81
318 149 163 107 95 85
319 149 163 105 94 84
318 150 160 94 84 75
318 150 161 97 86 78
319 150 160 97 87 78
319 150 161 94 84 76
319 150 162 96 86 78
319 150 163 101 91 82
316 148 164 89 77 65
316 148 165 94 83 72
317 148 164 102 89 77
317 148 165 102 90 79
316 148 166 95 84 74
316 148 167 98 87 76
316 149 167 102 89 80
317 148 166 101 89 79
317 148 167 101 90 80
317 149 167 103 91 81
318 148 165 110 97 85
318 149 164 114 101 89
318 149 165 113 100 88
319 149 164 111 99 88
319 149 165 114 100 88
318 148 166 104 92 81
318 149 166 109 97 85
318 149 167 106 94 82
319 149 166 111 98 86
319 149 167 116 102 90
319 150 164 108 96 86
314 151 168 114 101 90
315 150 168 114 100 89
315 151 168 114 99 90
316 149 168 104 90 81
317 149 168 106 94 83
316 150 168 111 98 86
316 151 168 113 99 89
317 150 168 115 102 89
317 151 169 113 100 90
318 149 168 105 93 81
319 149 168 110 98 86
318 150 168 107 94 81
318 150 169 113 100 90
318 151 169 115 103 93
319 150 168 108 96 84
319 150 169 110 97 85
319 151 169 113 101 91
312 152 167 113 99 87
312 153 167 115 99 83
313 152 167 114 101 89
313 153 167 114 100 87
312 154 167 117 98 78
312 155 167 121 95 68
313 154 167 115 98 83
313 155 167 120 98 76
314 155 167 118 98 80
312 156 167 126 82 35
312 157 167 130 67 6
313 156 167 127 91 53
313 157 167 129 74 15
312 158 167 132 65 4
312 159 167 134 64 3
313 158 167 133 64 3
313 159 167 134 64 6
314 156 167 126 96 63
314 157 167 128 83 30
315 157 167 127 86 40
314 158 167 131 67 7
314 159 167 135 63 5
315 158 167 131 73 18
315 159 167 135 67 13
314 152 168 113 100 90
314 153 168 114 101 89
315 152 168 112 98 89
315 153 168 112 100 89
314 154 168 112 98 84
314 155 168 114 97 82
315 154 168 112 98 86
315 155 168 115 99 86
314 156 168 120 99 78
315 156 168 122 98 73
315 157 168 126 93 53
315 158 168 128 77 19
315 159 168 134 68 14
316 152 168 110 96 87
316 152 169 113 99 89
316 153 168 111 98 90
316 153 169 114 101 91
317 152 169 115 101 90
317 153 169 118 104 93
316 154 168 115 101 89
316 154 169 120 105 94
316 155 168 119 103 90
317 154 169 122 107 96
317 155 168 123 107 94
317 155 169 124 109 95
318 152 169 120 106 94
318 153 169 121 107 95
319 152 169 119 106 95
319 153 169 120 107 95
318 154 169 121 108 97
318 155 169 121 107 95
319 154 169 117 104 93
319 155 169 112 100 91
316 156 168 124 104 83
316 157 168 129 100 63
317 156 168 124 107 90
317 156 169 122 107 93
317 157 168 126 103 77
316 158 168 127 83 26
316 159 168 132 71 10
317 158 168 122 89 48
317 158 169 120 83 45
317 159 168 127 75 22
317 159 169 123 75 29
318 156 169 118 104 89
318 157 169 116 97 76
319 156 169 109 97 86
319 157 169 107 91 76
318 158 169 118 88 58
318 159 169 122 82 42
319 158 169 116 93 68
319 159 169 122 89 55
