ply
format ascii 1.0
comment Version 2, Copyright 2017, 8i Labs, Inc.
comment frame_to_world_scale 0.179523
comment frame_to_world_translation -45.2095 7.18301 -54.3561
comment width 1023
element vertex 2047
property float x
property float y
property float z
property uchar red
property uchar green
property uchar blue
end_header
293 224 175 45 57 80
295 224 173 81 55 73
294 224 174 67 66 82
294 224 175 46 60 81
294 225 175 51 65 85
295 224 174 73 63 79
295 225 174 68 69 84
295 225 175 53 60 80
294 226 175 47 63 84
295 226 175 50 64 84
295 227 175 58 70 90
295 228 175 49 66 88
295 229 175 27 59 84
295 230 175 42 66 92
295 231 175 48 69 93
296 224 173 87 54 75
296 224 174 85 60 80
296 225 174 79 72 86
296 225 175 80 72 88
297 224 174 91 43 76
297 225 175 88 64 85
296 226 175 61 64 82
296 227 175 65 71 89
297 226 175 77 66 84
297 227 175 80 70 90
298 224 174 92 37 74
298 224 175 92 45 77
298 225 175 87 53 80
299 224 174 93 44 75
299 224 175 90 42 73
299 225 175 85 47 76
298 226 175 80 61 83
298 227 175 83 66 89
299 226 175 84 59 82
296 228 175 62 70 90
296 229 175 43 65 88
297 228 175 72 68 90
297 229 175 64 73 92
296 230 175 38 63 88
296 231 175 53 70 92
297 230 175 50 67 86
297 231 175 52 69 84
298 228 175 77 61 88
298 229 175 75 71 91
299 229 175 75 65 87
298 230 175 65 67 86
298 231 175 62 66 82
299 230 175 73 67 86
299 231 175 70 63 81
300 224 175 89 43 71
300 225 175 85 50 74
301 224 175 90 44 73
301 225 175 83 50 74
300 226 175 84 59 79
302 224 175 88 44 71
302 225 175 81 47 72
303 224 175 91 39 71
296 232 175 46 65 88
297 232 175 64 73 89
297 233 175 52 69 87
298 232 175 69 71 88
298 233 175 62 71 89
299 232 175 72 68 85
288 224 179 43 53 72
288 225 179 41 44 68
289 224 178 61 48 71
289 224 179 76 59 73
289 225 179 67 52 71
288 226 179 25 45 72
289 226 179 36 48 74
289 227 179 39 54 74
291 224 177 47 64 83
290 224 178 34 47 68
290 225 178 31 47 72
290 225 179 46 44 71
291 224 178 33 58 78
291 225 178 24 52 76
290 226 179 36 50 76
290 227 179 38 43 75
291 226 178 30 59 84
291 226 179 36 56 83
291 227 178 45 69 92
291 227 179 40 59 85
288 225 180 24 44 71
288 226 180 37 51 74
288 227 180 40 51 70
289 227 180 39 51 70
290 228 179 43 43 70
290 229 179 42 45 65
291 228 179 29 51 79
291 229 179 24 50 75
290 230 179 42 54 71
290 231 179 35 51 69
291 230 179 41 61 79
291 231 179 35 58 78
288 228 180 38 48 66
288 229 180 47 54 71
288 229 181 52 57 75
289 228 180 32 47 66
289 229 180 35 47 64
288 230 180 45 54 72
288 230 181 46 57 73
288 231 180 32 51 63
288 231 181 37 54 67
289 230 180 38 50 67
289 231 180 38 53 67
290 229 180 33 43 63
290 230 180 42 50 68
290 231 180 38 51 69
292 224 176 43 61 82
292 224 177 47 62 83
292 225 176 51 71 89
292 225 177 43 64 85
293 224 176 36 57 79
293 225 176 50 70 89
292 226 177 33 60 82
292 227 177 37 61 84
293 226 176 46 65 86
293 226 177 31 57 80
293 227 176 34 55 80
293 227 177 37 59 82
292 226 178 35 65 85
292 227 178 46 70 92
294 225 176 53 71 90
294 226 176 48 66 87
294 227 176 37 56 82
295 227 176 55 69 90
292 228 177 44 66 88
293 228 176 43 57 83
293 228 177 46 64 88
293 229 176 54 68 93
293 229 177 44 64 90
292 228 178 42 65 90
292 228 179 32 61 89
292 229 178 30 58 86
292 229 179 31 57 84
293 228 178 47 67 92
293 229 178 31 56 85
293 230 177 26 54 83
293 231 177 42 63 88
292 230 178 39 62 87
292 230 179 47 68 90
292 231 178 40 65 89
292 231 179 41 60 85
293 230 178 34 60 86
293 231 178 47 71 92
294 228 176 40 60 84
294 229 176 49 66 90
295 228 176 36 59 83
295 229 176 41 61 87
294 230 176 40 60 88
294 230 177 31 54 84
294 231 176 29 47 81
294 231 177 36 53 83
295 230 176 48 65 92
295 231 176 38 57 88
288 224 188 26 41 73
288 224 189 22 39 75
288 225 188 41 50 78
288 225 189 30 45 79
289 224 188 15 34 72
289 224 189 26 46 79
289 225 188 40 53 82
289 225 189 28 48 82
288 226 188 44 53 80
288 226 189 39 52 84
288 227 188 44 60 87
289 226 188 40 53 83
289 226 189 30 51 84
289 227 189 35 54 87
290 224 190 40 59 86
290 225 190 35 58 88
291 224 190 46 64 89
291 225 190 42 63 91
291 225 191 39 62 91
290 226 190 29 55 88
290 227 190 31 56 89
291 226 190 38 62 92
291 226 191 39 62 92
291 227 190 34 61 92
291 227 191 37 63 94
288 228 188 47 64 89
288 228 189 49 65 91
288 229 188 37 62 88
288 229 189 40 63 90
289 228 189 40 61 90
289 229 189 39 61 90
288 230 188 48 61 84
288 230 189 44 60 85
288 231 188 63 64 81
288 231 189 68 66 84
289 230 189 39 57 85
289 231 189 56 60 82
290 228 190 34 60 91
290 229 190 33 59 90
291 228 190 33 60 92
291 228 191 34 61 93
291 229 190 30 60 91
291 229 191 33 61 92
290 230 189 35 56 85
290 231 189 64 63 83
290 230 190 29 58 88
290 231 190 42 54 80
291 230 190 23 57 87
291 230 191 24 57 89
291 231 190 32 55 82
292 224 191 40 60 87
292 225 191 37 62 90
293 224 191 41 60 88
293 225 191 36 59 89
292 226 191 30 59 90
292 227 191 35 61 94
293 226 191 28 58 90
293 227 191 23 56 90
292 228 191 36 62 94
292 229 191 35 62 92
293 228 191 31 59 93
292 230 191 32 60 90
292 231 191 28 56 83
291 232 179 28 55 79
291 233 179 41 67 90
291 234 179 56 69 90
291 235 179 57 52 73
288 232 181 48 61 73
288 233 181 52 58 70
289 232 180 38 56 70
289 233 180 45 55 72
288 234 181 47 43 56
288 235 181 65 49 53
289 234 180 42 42 62
289 235 180 44 39 55
289 235 181 52 37 49
288 235 182 75 55 57
290 232 180 40 55 72
290 233 180 47 56 79
290 234 180 49 46 69
290 235 180 58 47 63
291 234 180 51 54 75
291 236 179 77 62 72
291 237 179 88 72 74
291 238 179 83 54 53
288 236 181 79 58 59
288 237 181 80 56 57
289 236 181 67 46 52
289 237 181 71 48 52
288 236 182 77 53 53
288 237 182 78 50 51
288 238 181 78 51 53
288 239 181 79 55 57
289 238 181 72 46 47
289 239 181 76 55 55
288 238 182 75 48 48
288 239 182 76 52 56
290 236 180 69 51 63
290 237 180 62 41 48
290 238 180 63 41 44
290 239 180 69 44 44
290 239 181 71 53 52
291 238 180 75 45 42
291 239 180 77 45 43
293 232 177 59 75 97
293 233 177 41 61 87
292 232 178 29 60 88
292 232 179 26 56 83
292 233 178 33 64 90
292 233 179 41 68 92
293 232 178 49 70 94
293 233 178 26 57 86
293 234 177 21 42 76
293 235 177 48 61 83
292 234 178 51 73 93
292 235 178 53 62 82
292 235 179 46 44 67
293 234 178 34 62 88
293 235 178 57 68 87
294 232 176 52 68 90
294 233 176 50 67 89
295 232 176 32 54 83
295 233 176 47 66 88
294 234 176 36 55 82
294 234 177 24 44 76
294 235 177 46 54 79
295 234 176 43 65 89
295 235 176 24 48 76
295 235 177 41 51 76
293 236 177 72 71 86
292 236 178 59 43 65
292 236 179 62 47 64
292 237 178 84 62 72
292 237 179 89 70 77
293 236 178 62 44 66
293 237 178 74 40 58
292 238 179 91 62 67
292 239 179 85 52 53
293 238 178 95 66 72
293 239 178 106 84 81
293 239 179 100 75 75
294 236 177 80 70 85
294 237 177 83 56 75
295 236 177 74 70 85
295 237 177 98 78 90
294 237 178 78 42 64
295 238 177 88 51 66
294 238 178 87 51 64
294 239 178 108 84 85
295 239 178 92 61 66
288 232 188 68 57 72
288 233 188 77 56 70
289 232 189 76 64 80
289 233 189 75 53 70
288 234 188 76 47 62
288 235 188 73 44 65
288 235 189 75 45 65
289 234 189 79 50 65
289 235 189 78 46 67
290 232 189 70 60 80
290 233 189 76 55 75
291 233 189 74 55 76
290 232 190 60 53 77
291 232 190 53 50 76
291 233 190 68 49 74
290 234 189 75 43 65
290 235 189 78 43 66
291 234 189 75 43 67
291 235 189 75 36 63
291 235 190 77 39 65
288 236 188 70 46 67
288 236 189 67 43 65
288 237 189 67 50 65
289 236 189 69 44 64
288 237 190 77 61 72
289 236 190 68 45 65
289 237 190 71 52 68
288 238 190 77 56 66
288 239 190 83 45 61
289 238 190 82 62 73
289 239 190 84 50 65
289 239 191 84 47 63
290 236 189 77 47 68
290 236 190 74 46 67
290 237 190 69 43 62
290 237 191 66 40 57
291 236 190 76 41 64
291 236 191 73 41 60
291 237 191 68 39 56
290 238 190 79 61 73
290 238 191 77 56 68
290 239 191 84 54 67
291 238 191 71 45 57
291 239 191 81 52 63
292 232 190 54 46 73
292 232 191 44 52 79
292 233 190 60 40 69
292 233 191 56 43 71
293 232 191 49 57 81
293 233 191 54 44 73
292 234 190 73 43 70
292 234 191 65 36 67
292 235 190 79 42 67
292 235 191 76 41 67
293 234 191 63 40 70
293 235 191 69 36 67
292 236 191 78 46 67
292 237 191 74 45 61
299 227 176 85 60 86
299 228 176 83 57 86
299 229 176 78 59 85
299 230 176 74 62 84
300 226 176 81 62 80
300 227 176 84 55 82
301 226 176 77 56 75
301 227 176 83 61 83
302 225 176 78 54 74
303 224 176 89 44 71
303 225 176 84 53 74
302 226 176 74 56 74
302 227 176 80 64 82
303 226 176 80 58 76
303 227 176 79 61 79
303 227 177 82 65 83
300 228 176 85 57 85
300 229 176 81 58 84
301 228 176 86 60 85
301 229 176 80 57 81
300 230 176 77 64 84
300 231 176 79 65 85
301 230 176 79 64 84
301 231 176 80 64 85
302 228 176 83 63 84
302 229 176 80 60 83
302 229 177 78 59 81
303 228 176 84 67 85
303 228 177 82 66 84
303 229 177 79 62 81
302 230 176 79 63 81
302 230 177 79 63 82
302 231 176 76 57 80
302 231 177 79 60 82
303 230 177 75 60 79
303 231 177 78 62 81
296 232 176 31 57 82
296 233 176 31 60 83
297 233 176 39 61 82
296 234 176 47 73 94
296 235 176 45 68 90
296 235 177 35 55 79
297 234 176 36 66 86
297 235 176 45 73 93
297 235 177 48 75 93
298 233 176 59 67 87
299 232 176 71 65 82
299 233 176 68 65 84
298 234 176 44 62 83
298 235 176 30 65 86
298 235 177 41 68 87
299 234 176 62 65 86
299 234 177 67 68 87
299 235 177 45 61 84
296 236 177 58 63 83
296 237 177 92 81 94
297 236 177 46 64 85
297 237 177 74 65 85
296 238 177 89 62 75
296 239 177 81 44 58
297 238 177 88 71 85
296 239 178 82 48 55
297 238 178 90 71 84
297 239 178 92 72 79
298 236 177 54 73 91
298 237 177 59 56 81
299 236 177 53 69 89
299 237 177 57 61 85
298 237 178 62 52 78
299 236 178 51 64 86
299 237 178 60 57 82
298 238 178 83 65 82
298 239 178 98 79 86
299 238 178 71 53 76
299 239 178 90 69 80
300 232 176 75 61 82
300 233 176 71 62 80
301 232 176 76 59 81
301 233 176 74 65 81
301 233 177 75 62 81
300 234 176 76 69 84
300 234 177 75 69 86
300 235 177 61 60 82
301 234 176 76 69 83
301 234 177 77 70 84
301 235 177 69 63 83
302 232 177 78 60 85
302 233 177 76 63 83
303 232 177 79 61 85
303 233 177 75 60 84
303 232 178 79 62 84
302 234 177 74 65 82
302 235 177 76 66 84
303 234 177 76 65 83
302 235 178 75 66 84
303 234 178 78 66 85
303 235 178 79 66 83
300 236 178 52 58 82
300 237 178 64 60 85
301 236 178 61 58 81
301 237 178 69 58 83
300 238 178 74 56 81
300 239 178 77 49 70
301 238 178 79 56 81
301 239 178 86 58 78
301 239 179 90 58 75
302 236 178 70 61 81
302 237 178 75 58 80
303 236 178 78 63 80
303 237 178 77 54 74
302 238 178 82 54 79
302 238 179 88 53 77
302 239 179 94 58 76
303 238 178 81 48 69
303 238 179 88 51 71
303 239 179 96 56 70
303 241 160 120 94 92
302 243 160 128 108 103
303 242 160 129 108 105
303 242 161 127 99 101
303 243 160 127 105 102
303 243 161 132 102 105
301 244 160 132 102 105
301 245 160 131 94 101
300 246 160 125 89 99
300 247 160 120 89 97
301 246 160 130 95 102
301 246 161 132 100 102
301 247 160 128 99 105
301 247 161 129 101 103
302 244 160 132 104 105
302 244 161 131 98 105
302 245 160 133 95 102
302 245 161 132 99 102
303 244 161 132 98 105
303 245 161 131 96 104
302 245 162 133 104 102
303 244 162 133 100 105
303 245 162 135 107 108
303 245 163 134 117 115
302 246 161 133 104 103
302 246 162 135 111 108
302 247 162 134 110 108
302 247 163 128 112 111
303 246 162 134 113 111
303 246 163 130 117 116
303 247 163 121 110 109
299 249 160 115 95 108
299 250 160 114 96 109
299 251 160 115 98 109
297 255 160 112 102 114
298 252 160 117 97 111
298 253 160 112 93 110
299 252 160 115 101 111
299 252 161 110 101 109
299 253 160 112 97 109
299 253 161 112 106 111
298 254 160 110 100 114
298 255 160 107 104 111
298 255 161 111 112 117
299 254 161 111 107 112
299 255 161 120 118 120
299 254 162 126 118 119
299 255 162 130 122 119
300 248 160 124 101 109
300 248 161 124 98 107
300 249 160 116 95 107
300 249 161 118 97 107
301 248 161 125 99 104
301 249 161 126 100 110
301 248 162 130 107 112
301 249 162 126 107 113
301 249 163 125 114 114
300 250 160 115 98 110
300 250 161 112 98 106
300 251 161 113 104 110
300 250 162 113 102 107
300 251 162 114 105 110
301 250 162 121 108 112
301 250 163 125 115 116
301 251 162 123 112 114
301 251 163 117 102 98
302 248 162 130 109 110
302 248 163 124 110 108
302 249 163 118 107 106
303 248 163 115 104 104
302 250 163 119 102 99
302 251 163 117 99 92
303 248 164 114 90 92
303 249 164 122 86 93
303 249 165 132 80 91
302 250 164 119 83 85
302 251 164 123 85 82
303 250 164 126 77 85
303 250 165 132 77 87
303 251 164 126 77 81
303 251 165 135 80 87
300 252 161 111 105 109
300 252 162 122 113 115
300 253 162 127 116 118
300 253 163 129 111 109
301 252 162 127 115 114
301 252 163 123 105 100
301 253 163 125 100 96
300 254 162 130 119 116
300 254 163 130 106 102
300 255 163 130 107 103
301 254 163 131 95 92
302 252 163 115 94 85
301 253 164 127 84 82
300 255 164 134 98 95
301 254 164 133 91 90
301 255 164 136 94 91
301 255 165 133 87 84
302 252 164 127 87 85
302 252 165 134 83 87
302 253 164 130 85 85
302 253 165 137 87 89
303 252 165 136 86 89
303 253 165 135 84 84
303 252 166 135 86 85
303 253 166 136 88 86
302 254 165 138 92 91
302 255 165 131 85 83
302 254 166 137 91 91
302 255 166 131 83 83
303 254 166 141 95 96
303 254 167 135 87 90
303 255 166 130 78 83
303 255 167 131 75 85
289 240 181 77 59 57
288 240 182 68 48 56
288 241 182 61 51 61
289 240 182 72 52 57
289 241 182 67 47 54
288 242 182 55 57 71
288 243 182 43 52 75
288 243 183 46 51 74
289 242 182 57 55 69
289 243 182 50 55 73
289 243 183 48 60 79
290 240 181 72 55 54
290 241 181 71 50 50
291 240 180 87 58 53
291 240 181 79 49 39
291 241 180 84 54 51
291 241 181 81 46 47
290 242 181 71 50 57
291 242 180 83 43 44
291 242 181 82 44 49
291 243 181 84 49 56
290 242 182 67 56 66
290 243 182 62 49 65
288 244 183 55 49 71
288 245 183 67 43 62
289 244 182 49 59 77
289 244 183 46 53 72
289 245 183 58 47 63
289 246 183 66 43 58
291 244 181 83 57 63
291 245 181 76 52 61
290 244 182 59 50 66
290 244 183 60 50 65
290 245 182 59 47 61
290 245 183 62 48 60
291 244 182 67 50 63
291 245 182 66 46 62
290 246 183 65 41 56
290 247 183 71 25 43
291 246 182 71 44 64
291 247 182 70 40 64
291 247 183 71 31 55
292 240 179 91 61 61
292 241 179 99 70 71
293 240 178 89 59 56
293 240 179 89 60 58
293 241 178 82 42 42
293 241 179 91 56 55
292 242 179 98 70 72
292 243 179 90 62 65
293 242 179 97 68 69
293 243 179 95 67 70
294 240 178 103 79 77
294 241 178 85 48 48
295 240 178 105 80 82
295 241 178 93 62 64
294 242 178 92 62 61
294 242 179 104 79 77
294 243 178 105 79 83
294 243 179 101 74 76
295 242 178 81 45 48
295 243 178 96 64 72
295 243 179 102 75 81
292 241 180 99 71 69
292 242 180 89 62 58
292 243 180 88 58 56
292 243 181 90 63 61
293 243 180 89 56 57
293 244 179 90 52 55
293 245 179 102 70 69
293 246 179 99 71 66
294 244 179 90 54 60
294 245 179 103 72 73
295 244 178 106 77 86
295 244 179 104 75 82
295 245 179 98 66 69
294 246 179 102 74 71
294 247 179 84 57 57
295 246 179 100 71 71
295 247 179 90 61 64
292 244 180 90 60 58
292 244 181 82 59 61
292 245 180 85 62 61
292 245 181 78 57 59
293 244 180 90 56 57
293 245 180 95 66 62
292 246 180 82 57 56
292 246 181 74 53 62
292 247 181 72 55 68
293 246 180 92 66 60
293 247 180 75 53 56
292 247 182 69 49 69
294 247 180 72 47 52
288 240 190 87 31 54
288 241 190 88 19 44
289 240 190 88 29 54
289 240 191 87 34 58
289 241 190 89 20 47
288 242 190 89 18 49
288 243 190 87 28 55
288 243 191 85 28 55
289 242 190 90 15 48
289 242 191 90 22 49
289 243 191 88 25 52
290 240 191 86 36 57
290 241 191 89 20 49
291 240 191 86 43 60
291 241 191 89 27 53
290 242 191 91 18 50
290 243 191 90 24 52
291 242 191 90 15 47
291 243 191 90 21 52
288 245 184 75 35 55
288 246 184 81 31 53
288 247 184 87 44 61
289 246 184 72 33 53
289 247 184 77 42 56
290 246 184 64 40 49
290 247 184 81 25 49
288 244 190 85 41 62
288 244 191 85 31 56
288 245 190 84 42 63
288 245 191 85 43 64
289 244 191 86 34 58
289 245 191 87 42 63
288 246 190 85 41 62
288 246 191 85 41 63
288 247 190 87 39 62
289 246 190 85 44 65
289 246 191 87 39 61
289 247 191 89 41 62
290 244 191 88 34 58
290 245 191 86 36 58
291 244 191 89 32 57
291 245 191 89 44 62
290 246 191 87 39 58
290 247 191 87 43 61
291 246 191 87 41 59
291 247 191 85 41 59
292 240 191 87 48 62
292 244 191 89 32 57
292 245 191 89 41 62
293 244 191 89 34 58
293 245 191 89 33 57
292 246 191 88 47 66
292 247 191 85 42 60
293 246 191 89 53 70
293 247 191 85 43 63
291 248 183 78 33 53
291 249 183 87 34 56
295 248 179 80 47 58
292 248 181 67 47 60
292 249 181 83 38 57
293 248 180 66 38 58
293 248 181 70 44 61
293 249 180 77 35 64
293 249 181 79 39 61
292 248 182 71 47 64
292 249 182 83 38 57
292 249 183 91 19 49
292 250 181 99 14 52
293 250 180 94 33 63
293 250 181 99 17 55
293 251 181 106 20 51
292 250 182 98 17 50
292 250 183 94 24 53
292 251 182 101 32 58
292 251 183 95 37 61
294 248 180 64 32 55
294 249 180 79 42 68
295 248 180 74 42 58
295 249 180 77 47 67
294 250 180 95 42 68
294 251 180 102 24 54
294 251 181 104 14 45
295 250 180 92 51 71
295 251 180 101 29 58
292 252 181 99 37 61
293 252 181 99 37 59
293 253 181 90 58 78
292 252 182 91 51 70
292 252 183 90 57 74
292 253 182 84 68 82
292 253 183 80 67 76
293 253 182 83 67 81
293 254 181 79 77 88
292 254 182 80 70 80
292 254 183 82 64 72
292 255 182 92 53 70
292 255 183 96 30 60
293 254 182 82 81 90
293 255 182 93 54 73
294 252 181 106 23 51
294 253 181 97 46 73
295 252 180 106 15 45
295 252 181 108 13 47
295 253 181 103 31 61
294 254 181 88 80 92
295 254 181 94 61 81
294 255 182 95 79 91
295 255 182 100 87 99
288 248 184 94 65 75
288 249 185 103 83 90
289 248 184 97 66 73
289 248 185 88 58 66
289 249 185 107 78 81
288 250 185 100 84 90
288 251 185 96 78 89
289 250 185 105 82 88
288 250 186 102 82 88
288 251 186 103 74 84
289 250 186 118 106 109
289 251 186 108 94 98
290 248 184 76 24 45
290 249 184 77 25 43
290 249 185 81 38 50
291 248 184 78 23 47
291 249 184 84 24 49
291 249 185 81 28 48
290 250 185 82 50 57
290 251 185 77 56 63
291 250 184 87 33 55
291 250 185 83 42 58
291 251 184 87 47 65
291 251 185 84 53 69
290 251 186 82 64 70
291 251 186 78 54 64
288 248 191 88 46 67
288 249 191 81 52 73
289 248 191 87 45 64
289 249 191 83 50 68
288 250 191 79 59 79
288 251 190 67 70 88
288 251 191 73 65 83
289 250 191 80 55 73
289 251 190 77 60 78
289 251 191 76 61 78
290 248 191 85 43 62
290 249 191 83 46 65
291 248 191 85 39 56
291 249 191 86 44 63
290 250 190 80 54 73
290 250 191 81 50 70
290 251 191 76 58 77
291 250 191 82 48 70
291 251 191 78 49 73
288 252 186 98 65 78
288 253 186 91 67 82
288 253 187 90 65 79
289 252 186 98 63 75
289 252 187 99 54 66
289 253 187 97 52 65
288 254 187 78 78 94
291 252 185 82 56 71
290 252 186 89 64 73
290 252 187 89 46 60
290 253 187 91 40 57
291 252 186 82 54 68
291 253 186 79 47 61
291 253 187 89 39 57
291 254 185 93 29 50
291 255 184 99 20 58
291 255 185 97 26 56
291 254 186 92 27 47
291 254 187 90 37 56
291 255 186 91 32 51
291 255 187 83 49 60
289 253 188 90 56 71
289 253 189 73 73 91
288 252 190 68 76 96
288 252 191 70 72 90
288 253 190 71 76 96
289 252 190 72 66 83
289 252 191 75 66 82
289 253 190 71 70 88
288 254 188 77 80 98
288 254 189 74 84 104
289 254 188 79 84 101
289 254 189 75 77 96
288 254 190 68 82 104
290 253 188 87 48 66
290 253 189 77 66 83
291 253 188 89 38 59
291 253 189 81 67 81
290 252 190 72 65 82
290 253 190 72 68 85
291 252 190 74 67 82
291 252 191 73 57 78
291 253 190 73 62 77
291 253 191 72 68 83
291 254 188 87 47 67
291 254 189 82 65 79
291 254 190 72 58 73
292 251 184 88 43 64
292 248 191 85 40 57
292 249 191 87 47 63
293 248 191 84 41 59
293 249 191 88 46 63
292 250 191 86 46 66
292 251 191 80 45 70
292 252 184 87 53 71
292 252 185 83 52 69
292 253 184 81 62 71
292 253 185 81 51 63
292 253 186 81 43 59
292 254 184 87 54 64
292 254 185 90 42 57
292 255 184 98 20 60
292 254 186 89 39 53
292 254 187 89 35 54
292 255 187 85 38 53
292 252 191 73 53 74
292 253 191 79 69 83
292 254 188 89 40 59
292 255 188 80 59 74
292 255 189 77 72 90
292 254 190 73 62 76
292 254 191 74 71 85
292 255 190 77 80 97
292 255 191 72 79 95
293 254 191 66 73 89
293 255 191 66 78 97
296 240 178 92 64 64
296 241 178 109 84 83
297 240 178 86 63 61
297 241 178 101 76 75
296 242 178 87 50 53
296 243 178 86 44 53
297 242 178 103 74 74
297 243 178 95 64 63
298 240 178 92 69 69
298 241 178 89 62 59
299 240 178 100 80 79
299 241 178 94 69 63
298 242 178 104 76 78
298 243 178 105 78 78
298 243 179 105 80 79
299 242 178 99 73 71
299 242 179 98 70 68
299 243 179 107 81 79
296 244 178 100 68 78
296 244 179 110 82 89
296 245 179 100 71 73
297 244 178 91 57 65
297 244 179 94 64 70
297 245 179 112 87 87
296 246 179 97 64 65
296 247 179 103 71 72
297 246 179 96 61 61
297 247 179 99 62 60
298 244 179 88 58 59
298 245 179 101 75 73
299 244 179 93 62 61
299 245 179 90 60 56
298 246 179 109 81 79
298 247 179 98 62 60
299 246 179 111 87 82
298 247 180 92 53 50
299 246 180 111 86 81
299 247 180 107 80 75
300 240 178 98 78 81
300 241 178 105 84 79
300 241 179 107 88 86
301 240 179 86 60 69
301 241 179 100 77 77
300 242 179 96 70 67
300 243 179 94 61 59
301 242 179 97 71 68
301 243 179 90 57 56
302 240 179 92 59 67
302 241 179 94 65 63
303 240 179 100 62 67
303 241 179 100 65 64
302 242 179 97 68 65
302 243 179 95 63 62
303 242 179 100 65 62
302 243 180 98 65 64
303 242 180 102 66 65
303 243 180 103 67 69
300 244 179 103 73 70
300 245 179 93 63 57
301 244 179 92 57 58
300 245 180 95 66 59
301 244 180 98 69 67
301 245 180 101 77 70
300 246 180 99 71 66
300 247 180 109 83 77
301 246 180 90 62 58
301 247 180 97 71 66
302 244 180 93 62 59
302 245 180 97 73 65
303 244 180 97 62 63
303 245 180 93 65 60
302 246 180 94 69 62
302 247 180 91 64 59
303 246 180 96 71 65
303 247 180 95 68 64
303 247 181 97 69 67
296 248 179 98 65 70
297 248 179 104 70 69
296 248 180 87 53 64
296 249 180 83 53 66
297 248 180 103 69 67
297 249 180 89 54 62
296 250 180 83 47 65
296 251 180 94 36 61
297 250 180 76 35 53
297 251 180 80 36 59
297 251 181 85 32 61
298 248 180 104 71 65
298 249 180 103 72 70
299 248 180 99 66 61
299 249 180 108 77 76
298 250 180 86 45 56
298 251 180 83 37 59
298 251 181 85 39 64
299 250 180 96 52 64
299 251 180 89 36 61
299 251 181 88 36 63
296 252 181 104 10 49
296 253 181 107 19 53
297 252 181 97 22 57
297 253 181 107 10 50
296 254 181 101 44 69
297 254 181 108 15 56
296 254 182 102 43 68
296 255 182 96 73 90
297 254 182 103 35 67
297 255 182 100 54 78
298 252 181 92 32 63
298 253 181 104 13 54
299 252 181 87 33 64
299 253 181 97 26 57
298 254 181 112 15 57
299 254 181 108 7 54
298 255 182 107 33 67
299 255 182 113 15 57
300 248 180 104 75 69
300 249 180 101 68 67
301 248 180 106 81 74
301 249 180 99 67 63
300 250 180 101 60 69
300 251 180 89 25 56
300 251 181 92 31 64
301 250 180 100 61 65
301 250 181 101 59 67
301 251 181 98 41 67
302 248 180 99 73 64
302 248 181 98 75 66
302 249 181 100 71 64
303 248 181 93 66 59
303 249 181 102 74 69
302 250 181 101 64 65
302 251 181 102 49 68
303 250 181 110 78 76
303 251 181 108 64 74
300 252 181 91 38 65
300 253 181 92 42 61
301 252 181 98 47 72
301 253 181 93 46 65
300 254 181 98 28 55
301 254 181 94 38 59
300 255 182 110 15 51
301 255 182 105 17 52
302 252 181 99 44 69
302 253 181 94 39 65
303 252 181 102 48 67
303 253 181 99 43 65
302 254 181 94 42 63
303 254 181 98 41 61
303 255 181 102 36 58
302 255 182 102 26 56
303 255 182 105 26 54
311 226 160 103 99 119
311 227 160 112 102 117
311 227 161 110 98 115
309 229 160 112 96 113
308 230 160 113 87 108
308 231 160 117 88 108
309 230 160 114 89 109
309 231 160 119 87 103
309 231 161 120 84 99
310 228 160 112 97 109
310 229 160 111 94 110
310 229 161 112 85 101
311 228 160 115 101 112
311 228 161 114 91 107
311 229 161 117 86 103
311 228 162 116 82 100
311 229 162 119 78 97
311 229 163 123 81 98
310 230 160 112 89 105
310 230 161 111 79 98
310 231 161 119 84 99
310 230 162 116 72 93
310 231 162 118 70 90
310 231 163 119 68 89
311 230 162 120 75 95
311 230 163 122 77 94
311 231 163 122 76 92
311 230 164 122 99 108
311 231 164 119 101 109
311 231 165 95 116 134
306 233 160 121 80 106
307 232 160 113 74 100
307 233 160 122 76 102
307 233 161 123 71 98
306 234 160 122 74 103
306 235 160 118 61 92
307 234 160 125 76 101
307 234 161 123 72 95
307 235 160 122 74 96
307 235 161 123 78 94
305 236 160 123 70 94
305 237 160 124 83 92
304 238 160 127 102 100
304 239 160 119 94 91
305 238 160 129 100 100
305 239 160 122 96 95
305 239 161 129 104 103
306 236 160 123 69 93
306 236 161 123 76 92
306 237 160 122 76 90
306 237 161 121 78 91
307 236 161 123 77 93
307 237 161 125 81 96
307 236 162 123 80 94
307 237 162 125 83 97
306 238 161 120 84 90
306 239 161 128 101 103
306 238 162 119 79 90
306 239 162 125 93 99
307 238 162 123 83 95
307 238 163 130 95 105
307 239 162 120 82 91
307 239 163 130 103 108
307 239 164 126 115 118
308 232 160 109 63 90
308 232 161 115 61 88
308 233 161 121 66 90
309 232 161 117 68 89
308 233 162 121 70 88
309 232 162 119 71 90
309 233 162 121 68 88
309 233 163 124 79 97
308 234 161 120 69 89
308 234 162 118 71 87
308 235 162 120 77 89
308 235 163 125 83 92
309 234 162 120 75 91
309 234 163 126 89 102
309 235 163 126 88 100
310 232 162 120 70 91
310 232 163 121 74 93
310 233 163 126 88 104
309 234 164 131 104 114
309 235 164 128 106 115
310 232 164 118 94 106
310 233 164 121 101 113
310 233 165 98 113 129
311 232 164 115 102 111
311 232 165 89 114 136
311 233 165 79 113 139
311 232 166 75 118 149
311 232 167 70 117 150
311 233 166 72 117 150
311 233 167 69 115 148
310 234 164 126 112 121
310 234 165 96 118 137
310 235 164 124 117 124
310 235 165 102 119 134
310 234 166 78 117 147
310 235 166 83 115 142
310 235 167 77 113 141
311 234 166 73 117 149
311 234 167 72 115 147
311 235 166 76 116 145
311 235 167 75 114 143
308 236 162 125 83 94
308 236 163 128 89 99
308 237 163 126 88 98
309 236 163 129 95 106
308 238 163 130 98 106
308 237 164 131 108 114
309 236 164 129 112 121
309 236 165 116 118 130
309 237 164 131 123 129
309 237 165 119 121 133
309 237 166 112 115 129
308 238 164 126 113 119
308 238 165 121 121 130
308 239 164 126 116 120
308 239 165 119 121 131
309 238 165 118 119 130
309 239 165 116 117 127
309 238 166 112 112 123
309 238 167 114 108 112
309 239 166 108 106 113
309 239 167 121 111 109
310 236 165 108 119 133
310 236 166 94 113 134
310 236 167 89 110 133
310 237 166 103 110 126
310 237 167 104 108 121
310 238 167 117 109 112
311 233 168 71 111 141
311 233 169 84 110 135
311 234 168 71 109 139
311 234 169 86 110 132
311 235 168 74 108 136
311 235 169 89 110 131
311 234 170 96 109 127
311 235 170 104 113 130
311 235 171 113 112 126
311 235 175 113 113 124
309 239 168 137 115 103
310 236 168 94 105 125
310 236 169 110 111 123
310 237 168 109 104 113
310 237 169 116 107 110
311 236 168 80 106 132
311 236 169 102 112 130
310 237 170 124 113 113
311 236 170 109 113 124
311 236 171 111 109 123
311 237 170 120 112 117
311 237 171 125 114 120
310 238 168 126 107 103
310 238 169 133 109 99
310 239 168 134 109 98
310 239 169 144 112 94
310 238 170 140 116 105
310 238 171 141 111 104
310 239 170 152 116 94
310 239 171 151 112 96
311 238 171 133 107 106
311 236 172 112 112 124
311 236 173 111 112 122
311 237 172 120 113 119
311 237 173 118 113 122
311 236 174 112 112 124
311 236 175 111 111 123
311 237 174 119 116 128
311 237 175 113 112 125
310 239 172 151 114 99
311 238 172 135 113 110
311 238 173 134 115 118
311 239 172 151 114 99
311 239 173 151 114 104
311 238 174 134 116 121
311 238 175 127 111 120
311 239 174 152 115 112
311 239 175 142 103 106
312 224 160 64 97 125
312 224 161 61 96 124
312 225 160 77 95 119
312 225 161 71 88 116
313 224 161 59 95 125
312 225 162 79 88 114
313 224 162 63 93 120
313 224 163 74 95 118
313 225 162 77 92 115
313 225 163 78 88 108
312 226 160 97 102 123
312 226 161 99 98 121
312 227 161 114 98 117
312 226 162 91 87 110
312 226 163 95 88 106
312 227 162 113 94 113
312 227 163 107 85 104
313 226 163 88 86 102
314 224 163 75 95 118
313 224 164 89 92 109
313 225 164 101 97 110
313 225 165 108 110 125
312 227 164 115 96 108
313 226 164 108 103 112
313 226 165 103 114 131
313 227 164 111 105 114
313 227 165 96 113 131
313 226 166 78 114 142
313 227 166 78 116 145
313 227 167 73 120 155
314 224 164 90 89 110
314 224 165 103 107 126
314 225 164 106 102 115
314 225 165 103 111 129
314 224 166 94 113 135
314 224 167 74 111 140
314 225 166 81 111 137
314 225 167 69 114 146
315 224 167 77 108 136
314 226 166 76 111 139
314 226 167 69 117 151
314 227 167 71 121 157
312 228 162 118 88 106
312 228 163 119 84 103
312 229 163 125 87 105
312 228 164 118 101 112
312 228 165 93 113 132
312 229 164 121 102 112
312 229 165 91 115 135
313 228 165 88 113 134
312 229 166 66 113 145
312 229 167 70 119 153
313 228 166 73 116 148
313 228 167 72 120 155
313 229 166 67 115 148
313 229 167 71 120 155
312 230 164 119 110 118
312 230 165 93 117 137
312 231 165 84 116 141
312 230 166 73 117 149
312 230 167 68 118 154
312 231 166 76 118 150
312 231 167 67 117 152
313 227 168 65 120 158
314 224 168 69 113 145
314 225 168 69 116 151
314 225 169 70 116 150
315 224 168 68 109 141
315 224 169 63 109 142
314 225 170 59 108 143
314 225 171 55 104 138
315 224 170 50 104 140
315 224 171 44 100 136
315 225 170 53 106 141
315 225 171 41 98 134
314 226 168 67 119 155
314 226 169 70 119 154
314 227 168 64 118 156
314 227 169 66 118 155
314 226 170 70 114 147
314 226 171 70 110 141
314 227 170 75 116 148
314 227 171 80 112 139
313 224 175 112 88 98
313 225 175 114 87 92
313 226 175 111 97 102
313 227 174 108 110 121
313 227 175 111 109 117
314 224 173 60 86 120
314 225 172 56 98 131
314 225 173 70 93 124
315 224 172 40 94 131
315 224 173 50 88 123
315 225 172 43 93 130
314 224 174 77 88 114
314 224 175 104 91 109
314 225 174 93 92 115
314 225 175 113 91 104
314 226 172 76 111 138
314 226 173 84 105 128
314 227 172 85 110 134
314 227 173 99 114 132
314 226 174 100 100 116
314 227 174 106 113 126
313 228 168 67 120 157
313 228 169 68 118 153
313 229 168 71 120 155
313 229 169 74 117 150
313 228 170 80 115 143
313 228 171 97 115 135
313 229 170 89 116 140
313 229 171 102 116 133
312 231 168 65 114 149
312 231 169 73 111 141
313 230 168 66 117 152
313 230 169 70 112 144
313 231 169 71 111 141
312 231 170 85 111 135
313 230 170 91 114 137
313 230 171 108 118 132
313 231 170 94 115 137
313 231 171 107 117 133
314 228 169 67 118 153
314 228 170 75 115 146
314 228 171 90 114 137
313 228 172 102 114 131
313 228 173 97 107 123
313 229 172 103 111 125
313 229 173 103 110 123
312 229 175 106 108 120
313 228 174 107 113 126
313 228 175 104 108 121
313 229 174 108 112 126
313 229 175 111 113 126
313 230 172 113 118 129
313 230 173 115 118 130
313 231 172 110 114 128
313 231 173 110 112 127
312 230 175 107 108 121
312 231 174 114 113 129
312 231 175 109 110 125
313 230 174 104 105 121
313 230 175 107 106 121
313 231 174 107 108 123
314 228 172 97 114 133
314 228 173 102 113 130
312 232 166 74 118 150
312 232 167 70 116 150
312 232 168 71 114 146
312 232 169 79 111 137
312 233 168 75 112 140
312 233 169 90 111 134
312 232 170 95 111 130
312 232 171 105 113 129
312 233 170 107 114 129
312 233 171 114 116 129
312 234 170 103 110 126
312 234 171 113 115 127
312 235 171 113 113 127
312 232 172 112 114 130
312 232 173 109 112 128
312 233 172 113 112 127
312 233 173 109 111 127
312 232 174 107 113 129
312 232 175 101 107 124
312 233 174 102 111 126
312 233 175 105 113 129
312 234 172 111 113 124
312 234 173 111 115 126
312 235 172 110 112 123
312 235 173 115 117 126
312 234 174 113 119 131
312 234 175 114 119 131
312 235 174 116 117 126
312 235 175 113 114 124
304 224 176 86 44 66
304 224 177 86 46 66
304 225 176 81 52 72
304 225 177 80 52 71
305 224 177 84 46 63
305 225 177 79 55 71
304 226 176 79 63 79
304 226 177 79 63 80
304 227 177 80 66 86
305 226 177 78 61 76
305 227 177 81 67 85
305 227 178 83 70 83
306 224 177 89 56 70
306 225 177 81 60 74
307 224 177 95 64 73
306 225 178 82 62 75
307 224 178 91 66 77
307 225 178 84 68 80
306 226 177 79 64 75
306 226 178 81 69 78
306 227 178 84 75 83
307 226 178 82 73 83
307 227 178 85 80 87
304 228 177 82 67 88
304 229 177 77 65 83
305 228 177 83 69 90
305 229 177 80 68 87
305 228 178 85 70 87
305 229 178 81 67 86
304 230 177 74 62 79
304 231 177 74 58 79
304 231 178 78 60 84
305 230 178 77 66 82
305 231 178 77 63 83
306 228 178 86 73 87
306 229 178 79 64 83
307 228 178 86 79 89
307 229 178 80 68 85
306 230 178 78 62 83
306 231 178 82 68 87
307 230 178 78 63 85
307 231 178 85 70 92
309 224 177 97 62 67
309 225 177 93 73 82
308 224 178 95 67 73
308 225 178 87 73 83
309 224 178 95 61 67
309 225 178 92 79 88
309 226 177 101 95 102
309 227 177 97 98 107
308 226 178 85 80 92
308 227 178 91 90 99
309 226 178 96 91 100
309 227 178 97 97 107
310 224 177 103 68 73
310 225 177 102 79 87
311 224 176 113 79 81
311 224 177 111 79 82
311 225 176 112 82 88
311 225 177 106 79 86
310 226 177 104 96 103
310 227 177 97 99 107
311 226 176 111 98 102
311 226 177 105 92 98
311 227 176 106 106 113
311 227 177 104 103 111
309 228 177 95 98 109
309 229 177 91 95 107
308 228 178 89 88 97
308 229 178 82 77 90
309 228 178 94 96 107
309 229 178 91 92 103
309 230 177 96 100 111
309 231 177 102 103 114
308 230 178 82 74 92
308 231 178 85 74 95
309 230 178 87 87 99
309 231 178 95 92 105
310 228 177 96 100 111
310 229 177 100 104 117
311 228 176 99 105 118
311 228 177 96 101 114
311 229 176 103 109 122
311 229 177 102 107 119
310 230 177 104 108 119
310 231 177 103 104 116
311 230 176 99 105 118
311 230 177 98 102 115
311 231 176 106 110 124
311 231 177 104 106 120
304 232 178 81 66 87
304 233 178 76 62 84
305 232 178 84 71 90
305 233 178 81 72 88
304 234 178 77 64 85
304 235 178 81 65 85
305 234 178 75 66 82
305 235 178 78 62 83
306 232 178 83 70 91
306 233 178 84 76 91
307 232 178 85 74 95
307 233 178 84 76 91
306 234 178 78 71 85
306 235 178 79 65 85
306 235 179 82 67 88
307 234 178 84 76 88
307 235 178 87 75 90
307 235 179 86 73 92
304 236 178 80 62 80
304 237 178 80 57 73
304 237 179 88 63 78
305 236 178 85 68 88
305 236 179 86 68 89
305 237 179 92 69 86
304 238 179 95 60 75
304 239 179 103 61 73
305 238 179 100 67 82
305 239 179 112 70 81
306 236 178 84 67 89
306 236 179 86 70 92
306 237 179 94 73 92
307 236 179 85 68 91
307 237 179 94 76 96
306 238 179 100 66 85
306 239 179 112 70 85
307 238 179 104 75 94
307 239 179 115 74 90
308 232 178 91 79 98
308 233 178 88 78 93
309 232 178 103 97 111
309 233 178 98 89 105
308 234 178 91 80 92
308 235 178 91 76 92
309 234 178 93 81 99
309 235 178 94 79 98
310 232 177 103 101 113
310 233 177 95 95 106
311 232 176 103 108 123
311 232 177 114 115 127
311 233 176 102 109 121
311 233 177 110 113 123
310 233 178 100 96 108
310 234 177 110 106 118
311 234 176 113 117 130
311 234 177 106 107 118
311 235 176 113 113 124
311 235 177 110 107 118
310 234 178 101 94 109
310 235 178 103 92 107
308 236 179 92 75 97
308 237 179 94 76 98
309 236 178 102 84 107
309 236 179 100 81 107
309 237 178 105 86 107
309 237 179 96 74 98
308 238 179 106 80 97
308 239 179 116 72 88
309 238 178 113 91 105
309 238 179 114 88 101
309 239 178 136 85 89
309 239 179 128 85 92
310 237 177 105 100 117
311 236 176 111 112 125
311 236 177 106 104 117
311 237 176 106 106 121
311 237 177 103 101 119
310 236 178 102 89 109
310 237 178 111 97 116
310 238 177 112 90 111
310 239 177 132 81 99
311 238 176 116 101 115
311 238 177 114 96 116
311 239 176 129 84 96
310 238 178 116 91 105
310 239 178 129 82 93
312 224 176 116 80 81
312 225 176 115 85 89
313 224 176 116 85 87
313 225 176 115 83 87
312 226 176 112 98 102
312 227 176 107 108 115
312 228 176 109 113 125
312 229 176 104 109 120
312 230 176 106 111 123
312 231 176 107 111 125
312 232 176 97 104 119
312 233 176 109 117 132
312 234 176 119 125 139
304 240 160 119 94 94
304 241 160 119 93 94
304 241 161 124 96 100
305 240 160 120 96 98
305 240 161 121 95 98
305 241 161 120 92 96
305 240 162 124 98 101
305 241 162 126 97 100
304 242 161 129 101 104
304 243 161 133 101 107
304 242 162 132 104 106
304 243 162 135 107 109
305 242 162 135 111 110
305 242 163 137 119 118
305 243 163 139 127 126
306 240 162 128 101 104
306 240 163 131 109 111
306 241 162 129 102 105
306 241 163 132 113 116
307 240 163 131 113 114
306 242 163 134 124 126
306 243 163 138 134 135
307 240 164 124 122 126
307 241 164 124 124 130
307 241 165 114 117 127
306 242 164 125 125 130
306 243 164 123 125 131
307 242 164 118 120 128
307 242 165 114 115 123
307 243 165 116 113 117
307 243 166 120 108 105
304 244 162 134 107 109
304 244 163 134 120 118
304 245 163 130 120 119
305 244 163 137 127 125
304 246 163 120 113 112
305 244 164 127 125 127
305 245 164 119 115 115
304 246 164 118 112 110
304 247 164 116 101 97
305 246 164 127 113 109
305 246 165 134 115 104
305 247 165 135 110 98
305 247 166 143 115 97
306 244 164 115 117 123
306 244 165 111 108 113
306 245 165 118 108 106
307 244 165 117 110 112
306 245 166 133 111 103
307 244 166 128 109 103
307 244 167 137 108 92
307 245 166 134 109 99
307 245 167 141 110 94
306 246 165 135 115 104
306 246 166 141 115 99
306 247 166 143 114 91
306 247 167 145 115 88
307 246 167 143 111 89
307 247 167 148 117 90
308 240 165 113 117 126
308 241 165 109 113 123
308 240 166 112 111 118
308 241 166 105 101 106
309 240 166 115 109 112
309 240 167 125 110 101
309 241 167 128 108 96
308 242 165 113 112 119
308 242 166 116 106 105
308 242 167 128 108 95
308 243 166 130 110 101
308 243 167 136 112 94
309 242 167 133 109 92
308 244 166 130 109 100
308 244 167 140 111 91
308 245 167 143 110 94
307 246 168 146 109 88
307 247 168 147 113 90
307 247 169 145 110 89
309 240 168 140 114 98
309 240 169 148 115 97
309 241 168 142 114 95
309 241 169 148 113 95
308 243 168 141 111 91
309 242 168 142 111 90
309 242 169 149 113 93
309 243 168 141 109 90
309 243 169 148 113 96
309 242 170 156 121 99
309 243 170 153 118 95
309 243 171 154 118 96
310 240 168 139 107 89
310 240 169 151 116 97
310 241 169 153 117 99
310 240 170 156 118 94
310 240 171 153 111 86
310 241 170 156 118 97
310 241 171 155 114 92
310 242 170 159 123 101
310 242 171 160 122 101
310 243 171 157 121 99
310 240 172 157 118 91
310 240 173 157 117 88
310 241 172 158 119 92
310 241 173 157 118 90
311 240 173 158 116 93
310 241 174 159 116 94
310 241 175 156 99 84
311 240 174 159 112 97
311 240 175 152 93 85
311 241 174 159 113 94
311 241 175 156 100 82
310 242 172 160 121 99
310 242 173 160 120 97
310 243 172 156 116 96
310 243 173 158 114 98
310 242 174 160 115 97
310 242 175 159 107 95
310 243 174 160 111 98
310 243 175 156 99 88
308 244 168 146 113 94
308 244 169 148 116 96
308 245 168 147 112 94
308 245 169 146 113 91
309 244 169 150 117 97
309 245 169 145 113 88
309 244 170 152 119 98
309 244 171 152 115 99
309 245 170 148 116 92
309 245 171 152 117 98
308 246 168 146 110 93
308 246 169 147 112 94
308 247 169 143 107 88
308 246 170 147 113 92
308 247 170 147 110 92
308 247 171 149 112 90
309 246 170 147 113 89
309 246 171 148 115 89
309 247 171 149 113 93
309 244 172 153 112 100
309 244 173 152 103 96
309 245 172 154 114 102
309 245 173 151 101 95
309 246 172 152 115 99
309 246 173 151 104 95
309 247 172 150 110 97
309 247 173 148 95 90
309 246 174 155 102 98
309 247 174 150 91 89
309 247 175 158 100 100
310 244 172 153 112 94
310 244 173 152 102 93
310 244 174 148 88 83
310 244 175 149 83 80
310 245 174 155 97 99
310 245 175 153 88 91
310 246 174 157 99 101
310 246 175 153 89 94
310 247 175 155 95 97
304 248 164 119 89 89
304 248 165 128 91 88
304 249 165 134 83 92
305 248 165 135 104 93
304 249 166 139 90 94
305 248 166 140 105 94
305 248 167 145 112 91
305 249 166 137 92 88
305 249 167 136 96 82
304 250 165 134 72 85
304 250 166 134 70 86
304 251 166 139 82 91
304 251 167 132 74 83
305 250 166 134 74 86
305 250 167 136 83 88
305 251 167 134 76 86
306 248 166 147 117 93
306 248 167 144 114 87
306 249 167 140 104 87
306 250 167 143 100 97
304 252 166 137 81 87
304 252 167 131 72 81
304 253 167 135 83 88
305 252 167 132 71 84
305 253 167 136 80 86
304 254 167 130 71 84
304 255 167 130 67 83
306 248 168 143 112 83
306 249 168 143 111 89
307 248 168 143 110 82
307 248 169 143 108 81
307 249 168 146 116 89
307 249 169 146 113 86
306 250 168 141 105 91
306 251 168 137 83 82
306 251 169 129 71 66
307 250 168 144 112 88
307 250 169 142 109 86
307 251 169 131 80 70
307 250 170 144 106 89
307 251 170 136 86 82
305 252 168 134 73 83
305 253 168 139 81 89
304 255 168 128 60 80
305 254 168 128 53 76
305 254 169 128 48 75
305 255 168 127 51 76
305 255 169 130 50 77
306 252 168 134 73 77
306 252 169 131 64 76
306 253 169 133 62 81
307 252 169 127 57 70
306 253 170 131 50 81
307 252 170 129 57 77
307 252 171 129 47 73
307 253 170 130 47 81
307 253 171 129 47 75
306 254 169 127 43 75
306 255 169 132 51 80
306 254 170 130 49 80
306 255 170 129 48 78
307 254 170 133 56 86
307 254 171 133 55 86
307 255 171 129 50 80
307 253 172 129 48 74
307 254 172 130 48 79
307 254 173 138 66 90
307 255 172 130 54 80
307 255 173 140 75 92
308 248 169 142 104 82
308 248 170 144 103 85
308 248 171 141 97 83
308 249 170 144 104 87
308 249 171 142 94 86
308 250 170 144 103 91
308 250 171 146 101 91
308 251 170 140 94 86
308 251 171 138 85 79
308 248 172 141 91 84
308 249 172 144 90 87
308 249 173 147 92 90
309 248 172 143 92 87
309 248 173 145 88 88
309 249 173 146 88 87
309 248 174 153 97 97
309 248 175 155 98 98
309 249 174 146 87 86
309 249 175 146 84 86
308 250 172 146 92 83
308 250 173 145 88 81
308 251 172 141 82 76
308 251 173 147 91 87
309 250 173 146 88 83
308 251 174 157 104 100
308 251 175 160 104 104
309 250 174 153 98 94
309 250 175 156 98 99
309 251 175 163 108 108
308 252 171 129 48 70
308 252 172 131 50 72
308 252 173 139 66 84
308 253 172 130 47 75
308 253 173 134 46 80
308 252 174 142 66 81
308 252 175 149 76 90
308 253 174 141 50 84
308 253 175 149 60 93
308 254 173 137 58 86
308 255 173 141 73 89
308 254 174 143 58 89
308 254 175 146 55 91
308 255 174 143 69 89
308 255 175 142 55 87
304 240 179 108 64 68
304 241 179 109 69 69
305 240 179 115 67 72
306 240 179 123 76 85
307 240 179 127 79 88
307 241 179 134 82 87
304 241 180 112 69 68
305 241 180 116 64 64
304 242 180 113 69 69
304 243 180 111 68 69
305 242 180 125 74 76
305 243 180 126 75 74
306 240 180 123 72 78
306 241 180 123 69 71
307 241 180 131 78 82
306 242 180 128 75 77
306 243 180 134 84 85
307 242 180 130 73 78
307 243 180 135 81 85
304 244 180 107 66 67
304 245 180 102 64 66
305 244 180 122 72 72
305 245 180 123 79 81
304 246 180 100 67 66
304 247 180 108 76 75
304 247 181 104 76 75
305 246 180 120 82 80
305 247 180 118 81 77
306 244 180 131 79 79
306 245 180 128 74 78
307 244 180 140 86 91
307 245 180 132 70 80
306 246 180 132 86 87
306 247 180 130 89 83
307 246 180 134 75 84
307 247 180 141 93 92
308 240 179 130 74 85
308 241 179 139 86 90
309 240 178 139 71 77
309 240 179 136 71 77
309 241 178 140 69 73
309 241 179 140 76 80
308 242 179 137 82 86
308 243 179 134 76 82
309 242 178 146 84 87
309 242 179 145 95 96
309 243 178 153 102 106
309 243 179 143 94 96
310 240 176 153 85 83
310 240 177 148 82 92
310 241 176 157 98 89
310 241 177 157 95 97
311 240 176 144 79 80
310 240 178 148 81 91
310 241 178 150 81 88
310 242 176 157 102 94
310 242 177 151 92 90
310 243 176 152 92 85
310 243 177 150 90 87
310 242 178 146 82 85
310 243 178 153 100 102
308 242 180 138 83 88
308 243 180 135 76 83
308 244 179 141 78 86
308 245 179 146 82 88
309 244 178 149 92 94
309 244 179 142 75 83
309 245 178 152 89 88
309 245 179 149 82 85
309 246 177 152 88 84
309 247 176 159 102 102
309 247 177 157 98 94
308 246 179 141 78 81
308 247 179 145 92 88
309 246 178 157 99 94
309 246 179 151 90 89
309 247 178 150 89 83
310 244 176 154 90 85
310 244 177 153 91 86
310 245 176 154 86 85
310 245 177 145 76 71
310 244 178 155 103 99
310 246 176 150 80 81
310 246 177 150 81 78
310 247 176 157 96 96
310 247 177 157 96 93
308 244 180 139 80 88
308 245 180 141 77 87
308 246 180 137 69 80
307 249 179 145 96 86
307 250 179 148 100 92
307 251 179 140 89 94
304 248 181 103 74 73
304 249 181 103 74 69
305 248 180 120 86 81
305 248 181 117 86 84
305 249 180 115 82 76
305 249 181 111 77 70
304 250 181 113 86 79
304 251 181 113 78 79
305 250 181 112 77 69
305 251 180 118 84 81
305 251 181 116 83 80
306 248 180 127 87 77
306 249 180 124 84 74
307 248 180 136 90 81
307 249 180 138 92 83
306 250 180 122 82 74
306 251 180 125 82 85
307 250 180 140 95 87
307 251 180 137 78 93
307 252 179 139 69 89
307 253 179 134 57 83
307 254 179 132 51 79
307 255 179 135 60 85
304 252 181 105 55 69
304 253 181 105 49 68
305 252 180 112 64 77
305 252 181 110 58 76
305 253 180 121 66 86
305 253 181 112 57 78
304 254 181 106 46 67
304 255 181 109 41 63
305 254 180 128 72 89
305 254 181 119 61 81
305 255 180 121 55 75
305 255 181 117 49 70
306 252 180 128 76 93
306 253 180 131 76 94
307 252 180 139 77 94
306 254 180 132 73 91
306 255 180 120 45 70
309 248 176 154 94 95
309 248 177 154 93 93
309 249 176 153 94 97
309 249 177 153 91 93
308 248 179 152 102 94
308 249 178 154 99 95
308 249 179 147 95 86
309 248 178 158 101 97
309 249 178 154 93 94
308 250 177 151 88 88
308 251 177 153 90 95
309 250 176 158 99 103
309 250 177 155 92 94
309 251 176 156 93 98
309 251 177 155 92 97
308 250 178 150 92 90
308 251 178 152 90 95
308 251 179 153 96 103
308 252 176 154 80 95
308 252 177 156 86 100
308 253 176 155 76 98
308 253 177 150 67 90
308 252 178 148 74 90
308 252 179 142 65 83
308 253 178 149 70 91
308 253 179 142 58 80
308 254 176 150 70 97
308 254 177 149 70 95
308 255 176 144 58 91
308 255 177 153 77 104
308 254 178 149 68 95
308 254 179 146 66 89
308 255 178 147 65 95
308 255 179 148 74 95
