ply
format ascii 1.0
comment Version 2, Copyright 2017, 8i Labs, Inc.
comment frame_to_world_scale 0.179523
comment frame_to_world_translation -45.2095 7.18301 -54.3561
comment width 1023
element vertex 40
property float x
property float y
property float z
property uchar red
property uchar green
property uchar blue
end_header
288 233 256 141 97 89
288 234 256 133 87 78
288 235 256 132 88 81
288 236 256 122 86 81
288 237 256 118 79 73
288 238 256 128 94 90
288 239 256 122 77 78
288 240 256 121 65 77
288 241 256 113 48 70
288 242 256 111 44 63
288 243 256 113 30 56
289 242 256 111 41 61
289 243 256 116 27 55
288 244 256 115 27 60
288 245 256 116 44 63
289 244 256 118 25 61
289 245 256 116 48 69
288 246 256 113 75 86
288 247 256 103 83 94
289 246 256 114 81 94
289 247 256 108 86 98
288 248 256 107 52 73
288 249 256 123 31 64
289 248 256 109 53 77
289 249 256 129 25 66
288 250 256 127 39 71
288 251 256 116 56 79
289 250 256 128 41 75
289 251 256 118 65 89
288 252 256 104 83 96
288 253 256 92 80 92
289 252 256 98 97 113
289 253 256 89 100 118
288 254 256 87 67 78
288 254 257 88 58 66
288 255 257 94 55 63
289 254 256 89 88 104
289 255 256 91 68 81
289 255 257 94 56 66
290 255 256 90 72 83
