ply
format ascii 1.0
comment Version 2, Copyright 2017, 8i Labs, Inc.
comment frame_to_world_scale 0.179523
comment frame_to_world_translation -45.2095 7.18301 -54.3561
comment width 1023
element vertex 1183
property float x
property float y
property float z
property uchar red
property uchar green
property uchar blue
end_header
291 256 128 89 55 86
291 257 128 112 37 68
291 257 129 115 38 68
291 258 128 119 28 61
291 258 129 120 37 68
291 259 128 117 39 64
291 259 129 118 50 75
291 260 128 114 67 84
291 260 129 107 67 83
291 261 128 107 82 95
291 261 129 107 81 94
290 263 128 110 57 79
291 262 128 101 66 89
291 262 129 111 65 89
291 263 128 109 48 76
291 263 129 113 44 75
292 256 128 73 64 97
292 256 129 91 56 86
292 257 129 108 37 67
292 256 130 94 49 79
292 256 131 102 41 72
292 257 130 113 36 63
292 257 131 116 39 67
293 256 131 105 38 70
293 257 131 118 37 66
292 258 129 120 33 67
292 259 129 116 46 75
292 258 130 120 24 62
292 258 131 122 35 66
292 259 130 115 39 72
292 259 131 115 53 77
293 256 132 112 40 69
293 256 133 117 36 70
293 257 132 124 32 62
293 257 133 133 19 58
293 256 134 123 27 64
293 257 134 136 20 54
293 257 135 138 16 48
293 258 132 127 37 69
293 258 133 131 28 66
293 259 132 117 57 80
293 259 133 124 64 88
293 258 134 138 20 63
293 258 135 142 20 59
293 259 134 125 59 86
293 259 135 123 56 85
294 256 134 119 40 76
294 256 135 119 41 78
294 257 135 137 12 49
292 260 129 111 74 90
292 261 129 105 81 92
292 260 130 110 76 91
292 260 131 113 86 99
292 261 130 107 72 87
292 261 131 107 75 88
292 262 130 114 62 86
292 262 131 117 61 82
292 263 130 117 45 77
292 263 131 123 36 74
292 261 132 111 77 93
293 260 132 110 91 103
293 260 133 110 98 110
293 261 132 109 85 98
293 261 133 110 83 98
293 260 134 109 99 113
293 260 135 108 100 115
293 261 134 109 90 105
293 261 135 109 90 106
292 262 132 122 63 85
292 262 133 126 60 84
292 263 132 129 34 77
292 263 133 134 34 76
293 262 133 123 60 83
292 263 134 138 24 73
292 263 135 141 12 68
293 262 134 125 58 81
293 262 135 125 57 80
293 263 134 137 30 72
293 263 135 139 26 70
293 257 139 142 0 46
293 258 136 142 25 64
293 259 136 125 60 88
293 259 137 127 59 87
293 258 138 144 9 53
293 258 139 144 8 50
293 259 138 126 55 84
293 259 139 129 54 84
294 256 136 112 56 91
294 256 137 112 63 96
294 257 136 138 5 45
294 257 137 137 5 48
294 256 138 110 60 93
294 256 139 108 60 93
294 257 138 135 5 49
294 257 139 133 6 52
294 258 136 146 5 48
294 258 137 144 11 55
294 258 138 145 0 45
293 257 140 134 3 48
293 257 141 134 3 53
293 256 142 118 29 75
293 256 143 108 46 84
293 257 142 134 4 55
293 257 143 130 6 61
293 258 140 143 5 48
293 258 141 143 9 50
293 259 140 128 48 79
293 259 141 129 44 76
293 258 142 143 8 53
293 258 143 141 11 55
293 259 142 131 46 75
293 259 143 130 50 76
294 256 140 104 55 90
294 256 141 102 46 86
294 257 140 129 8 56
294 256 142 97 54 90
294 256 143 90 57 92
293 260 136 107 104 119
293 260 137 100 107 121
293 261 136 107 91 109
293 261 137 106 92 111
293 260 138 98 108 126
293 260 139 102 106 124
293 261 138 107 97 117
293 261 139 109 95 115
292 263 136 143 10 67
292 263 137 145 12 68
293 262 136 125 57 82
293 262 137 127 48 79
293 263 136 140 27 68
293 263 137 141 13 66
292 262 139 130 28 70
292 263 138 145 4 66
292 263 139 145 1 66
293 262 138 128 34 73
293 262 139 123 44 79
292 261 141 115 76 100
293 260 140 105 109 126
293 260 141 105 102 119
293 261 140 112 92 113
293 261 141 111 92 113
293 260 142 107 102 117
293 260 143 106 99 114
293 261 142 113 91 112
293 261 143 112 93 114
292 262 140 129 32 71
292 262 141 132 17 71
292 263 140 145 3 68
292 263 141 144 1 67
293 262 141 121 27 76
292 262 142 136 4 70
292 262 143 135 0 67
292 263 142 144 0 70
292 263 143 144 3 70
293 262 142 121 27 77
293 262 143 120 26 78
290 264 128 119 35 69
290 265 128 113 51 74
291 264 128 116 40 68
291 264 129 116 49 72
291 265 128 114 52 74
291 265 129 119 68 86
291 264 130 118 51 75
291 265 130 122 79 95
290 266 128 118 96 101
290 267 128 129 118 115
290 267 129 122 118 121
291 266 128 111 87 96
291 266 129 110 91 102
291 267 129 118 116 120
291 266 130 119 101 115
291 266 131 121 114 125
291 267 130 110 114 121
291 267 131 114 122 132
291 266 132 121 118 130
291 266 133 120 118 130
291 267 132 116 125 138
291 267 133 119 126 138
291 267 134 123 129 139
289 268 128 146 133 121
289 269 128 145 130 116
289 270 128 138 117 96
289 271 128 135 109 82
289 271 129 132 101 73
290 268 128 140 132 125
290 268 129 131 130 132
290 269 128 141 132 125
290 269 129 137 130 127
290 268 130 127 130 137
290 269 130 126 127 132
290 269 131 122 126 134
291 268 130 118 125 134
291 268 131 119 129 141
291 269 131 121 130 142
290 270 129 136 120 106
290 271 129 129 95 68
290 270 130 135 127 123
290 270 131 125 125 128
290 271 130 133 112 93
290 271 131 130 122 117
291 270 131 121 126 134
291 271 131 124 124 128
291 268 132 113 126 141
291 268 133 120 131 145
291 269 132 119 131 146
291 269 133 116 130 147
291 268 134 126 133 145
291 268 135 131 138 149
291 269 134 120 132 148
291 269 135 122 133 148
291 270 132 118 128 141
291 270 133 109 125 144
291 271 132 118 124 135
291 271 133 111 125 142
291 270 134 109 126 145
291 270 135 115 130 148
291 271 134 107 124 143
291 271 135 105 122 141
292 264 130 121 51 75
292 264 131 126 51 83
292 265 131 125 91 108
292 264 132 130 50 85
292 264 133 135 48 81
292 265 132 128 96 112
292 265 133 131 94 110
292 264 134 139 44 79
292 264 135 140 41 78
292 265 134 137 96 111
292 265 135 144 109 121
292 266 132 124 115 127
292 266 133 121 113 125
292 266 134 123 118 128
292 266 135 137 135 143
292 267 134 126 133 141
292 267 135 135 141 149
292 268 135 135 140 151
291 267 141 150 151 156
291 266 143 135 137 141
291 267 142 144 144 149
291 267 143 134 136 141
291 269 136 124 134 148
291 269 137 125 134 147
291 269 138 141 144 153
291 269 139 140 143 151
291 270 136 116 130 147
291 270 137 118 129 144
291 271 136 108 124 143
291 271 137 117 130 147
291 270 138 129 136 149
291 270 139 137 142 152
291 271 138 125 136 151
291 271 139 127 137 151
291 268 140 132 134 142
291 268 141 143 143 149
291 269 140 130 133 142
291 269 141 139 139 146
291 268 142 150 149 154
291 268 143 148 147 151
291 269 142 150 148 154
291 269 143 151 149 154
291 270 140 141 145 154
291 270 141 144 145 153
291 271 140 130 137 150
291 271 141 128 134 146
291 270 142 147 147 154
291 270 143 148 148 154
291 271 142 130 134 144
291 271 143 142 143 150
292 264 136 141 44 79
292 264 137 141 43 82
292 265 136 148 117 126
292 265 137 149 117 124
292 264 138 140 38 85
292 264 139 138 32 85
292 265 138 149 118 126
292 265 139 148 117 126
292 266 136 148 146 152
292 266 137 157 154 157
292 267 136 143 147 155
292 267 137 150 152 159
292 266 138 160 156 158
292 266 139 160 157 158
292 267 138 150 152 158
292 267 139 147 149 154
292 264 140 138 29 84
292 264 141 136 31 79
292 265 140 147 118 127
292 265 141 143 116 125
292 264 142 137 41 80
292 264 143 138 53 85
292 265 142 141 123 128
292 265 143 143 124 127
292 266 140 159 158 159
292 266 141 153 153 155
292 267 140 150 151 157
292 267 141 151 152 157
292 266 142 142 143 146
292 266 143 140 142 144
292 268 136 139 144 153
292 268 137 146 149 157
292 269 137 139 144 154
292 268 138 144 146 154
292 268 139 138 140 148
292 269 138 144 146 155
292 269 139 134 137 145
292 268 140 134 137 144
293 256 144 105 50 85
293 256 145 107 53 82
293 257 144 128 9 62
293 257 145 126 12 62
293 256 146 111 52 75
293 257 146 125 10 58
293 258 144 140 9 57
293 258 145 138 3 54
293 259 144 131 42 71
293 259 145 131 39 71
293 258 146 137 0 51
293 258 147 138 0 48
293 259 146 131 28 67
293 259 147 133 23 63
294 256 145 91 59 85
294 256 146 97 58 81
294 256 147 96 57 80
294 257 146 117 34 64
294 257 147 122 22 59
294 258 147 134 2 49
293 259 148 132 39 71
294 256 148 95 57 84
294 256 149 97 65 91
294 257 148 118 41 72
294 257 149 122 36 71
294 256 150 99 68 97
294 256 151 97 65 101
294 257 150 120 36 73
294 257 151 118 41 78
294 258 148 136 6 56
294 258 149 136 6 58
294 259 148 138 21 66
294 259 149 140 20 66
294 258 150 134 3 54
294 258 151 133 2 56
294 259 150 141 16 58
294 259 151 141 5 53
293 260 144 106 100 115
293 260 145 106 94 111
293 261 144 111 93 115
293 261 145 108 93 113
293 260 146 107 89 108
293 260 147 109 87 103
293 261 146 108 94 114
293 261 147 109 98 116
292 262 144 132 0 65
292 262 145 133 2 66
292 263 144 143 2 68
292 263 145 141 3 67
293 262 144 117 27 76
293 262 145 121 24 74
292 263 146 142 10 68
292 263 147 143 12 69
293 262 146 123 22 72
293 262 147 124 32 78
293 260 148 111 85 100
293 260 149 112 79 96
293 261 148 111 106 122
293 261 149 112 111 126
293 260 150 115 70 89
293 260 151 114 73 93
293 261 150 110 108 123
293 261 151 111 107 122
292 263 148 145 11 68
292 263 149 142 5 64
293 262 148 123 39 81
293 262 149 124 48 87
292 263 150 141 7 66
292 263 151 140 13 68
293 262 150 121 58 93
293 262 151 118 70 96
293 263 151 132 20 70
294 260 151 133 36 69
294 256 152 98 74 106
294 256 153 95 78 104
294 257 152 117 44 79
294 257 153 114 47 80
294 256 154 102 88 109
294 256 155 110 96 110
294 257 154 113 58 82
294 257 155 114 70 84
295 256 155 108 102 117
294 258 152 130 3 55
294 258 153 127 1 55
294 259 152 140 5 53
294 259 153 137 4 49
294 258 154 122 8 51
294 258 155 118 16 53
294 259 154 133 7 40
294 259 155 130 7 41
294 257 156 114 72 87
295 256 156 113 102 114
295 256 157 113 98 111
295 257 156 117 88 101
295 257 157 113 78 93
295 256 158 115 96 110
295 257 158 113 83 97
294 258 156 115 23 57
294 259 156 127 2 48
294 259 157 124 0 53
295 258 157 111 32 61
295 259 157 121 5 55
295 258 158 108 33 62
295 258 159 105 26 53
295 259 158 118 5 51
295 259 159 116 0 50
293 260 152 112 75 99
293 260 153 118 62 91
293 261 152 110 101 119
293 261 153 110 96 117
293 261 154 108 94 114
292 263 152 141 10 67
293 262 152 114 75 97
293 262 153 112 81 101
293 263 152 131 20 67
293 263 153 129 16 62
293 262 154 113 95 111
293 262 155 109 100 115
293 263 154 125 19 65
293 263 155 118 35 72
294 260 152 131 28 71
294 260 153 130 28 69
294 260 154 127 33 66
294 260 155 128 26 64
294 261 154 104 79 101
294 261 155 103 82 102
293 262 156 109 99 114
293 263 156 113 41 79
293 263 157 110 31 70
294 260 156 126 21 64
294 260 157 125 19 62
294 261 156 103 81 99
294 261 157 105 64 85
294 261 158 102 66 78
295 260 158 120 16 56
295 260 159 117 15 58
295 261 159 103 67 82
294 262 156 104 103 117
294 262 157 96 97 110
294 263 157 96 65 86
294 262 158 94 91 100
294 262 159 97 93 99
294 263 158 99 59 82
294 263 159 99 60 77
295 262 159 99 94 100
291 266 144 138 140 144
291 266 145 153 152 155
291 267 144 139 140 144
291 267 145 155 154 158
291 266 146 157 155 157
291 266 147 161 159 160
291 267 146 161 160 164
291 267 147 161 161 166
291 266 148 163 161 162
291 266 149 158 155 157
291 267 148 159 159 164
291 267 149 157 158 164
291 266 150 155 147 151
291 266 151 156 148 150
291 267 150 149 152 158
291 267 151 144 146 151
291 268 144 149 148 152
291 268 145 157 156 161
291 269 144 147 146 152
291 269 145 153 153 160
291 268 146 160 159 164
291 268 147 153 152 159
291 269 146 158 158 166
291 269 147 151 152 159
290 271 145 138 139 147
291 270 144 145 145 152
291 270 145 137 139 147
291 271 144 152 151 158
291 271 145 139 140 148
290 270 146 150 152 160
290 270 147 153 154 162
290 271 146 143 144 152
290 271 147 150 151 158
291 270 146 148 149 158
291 271 146 134 136 144
290 269 148 140 142 150
290 269 149 144 144 150
291 268 148 147 147 154
291 268 149 154 153 159
291 269 148 139 140 148
291 269 149 141 141 148
290 269 150 155 153 159
290 269 151 157 156 161
291 268 150 154 154 160
291 268 151 145 146 153
290 270 148 147 148 156
290 270 149 146 146 153
290 271 148 154 154 161
290 271 149 152 153 160
290 270 150 153 152 158
290 270 151 159 157 163
290 271 150 155 155 162
290 271 151 161 160 166
292 264 144 139 55 86
292 264 145 138 49 86
292 265 144 148 125 127
292 265 145 147 128 130
292 264 146 138 43 85
292 264 147 141 44 86
292 265 146 141 117 121
292 265 147 146 113 120
292 266 144 146 144 145
292 266 145 153 151 150
292 266 146 153 151 151
292 266 147 150 136 137
292 264 148 145 37 83
292 264 149 143 25 75
292 265 148 149 113 122
292 265 149 147 97 115
292 264 150 144 19 75
292 264 151 146 20 78
292 265 150 146 85 106
292 265 151 144 78 102
292 266 148 156 140 141
292 266 151 157 132 136
291 266 152 156 143 143
291 266 153 154 139 141
291 267 152 146 147 151
291 267 153 158 158 161
291 266 154 143 127 126
291 266 155 137 123 122
291 267 154 157 156 159
291 267 155 149 148 149
291 267 156 149 148 149
291 267 157 151 151 152
289 271 153 149 150 158
289 271 154 145 146 153
289 271 155 147 147 154
290 268 152 144 145 151
290 268 153 158 157 163
290 269 152 157 156 163
290 269 153 160 160 166
291 268 152 141 143 149
291 268 153 153 153 158
290 268 154 158 158 163
290 268 155 154 154 159
290 269 154 158 156 162
290 269 155 154 153 158
291 268 154 158 158 163
291 268 155 154 154 159
290 270 152 160 159 166
290 270 153 157 157 164
290 271 152 161 160 167
290 271 153 153 153 160
290 270 154 154 154 160
290 270 155 154 154 160
290 271 155 152 152 158
290 268 156 150 150 156
290 269 156 148 147 152
290 269 157 142 142 148
291 268 156 151 151 156
291 268 157 151 150 154
291 269 157 141 140 144
291 269 158 142 140 144
290 270 156 151 151 158
290 270 157 139 141 148
290 271 156 153 153 160
290 271 157 151 151 158
290 271 158 144 145 153
291 270 158 133 134 141
291 270 159 135 134 140
291 271 158 143 145 153
291 271 159 144 145 151
292 264 152 145 11 77
292 264 153 144 4 74
292 265 152 142 77 101
292 265 153 138 65 96
292 264 154 143 11 76
292 265 154 134 37 83
292 265 155 133 34 81
293 264 154 141 9 66
293 264 155 139 9 70
292 266 154 136 94 105
292 266 155 129 86 98
292 265 156 127 27 77
293 264 156 134 2 66
293 264 157 130 4 63
293 265 156 132 16 76
293 265 157 127 26 73
293 264 158 132 12 68
293 265 158 127 32 70
293 265 159 125 33 70
292 266 156 127 83 96
292 266 157 129 86 99
292 267 156 143 141 139
292 267 157 147 143 142
293 266 157 124 55 81
292 267 158 140 137 137
293 266 158 125 74 87
293 266 159 121 61 75
293 267 158 128 120 118
293 267 159 120 100 104
294 264 157 121 7 63
294 264 158 126 14 68
294 264 159 126 14 67
294 265 159 128 31 73
292 268 157 151 151 154
292 268 158 148 148 152
292 268 159 138 139 143
292 269 158 151 149 152
292 269 159 146 144 149
293 268 159 131 130 132
292 270 159 143 141 144
296 256 158 112 94 109
296 256 159 111 93 111
296 257 158 118 97 111
296 257 159 113 92 104
297 256 159 111 97 112
296 258 159 104 48 66
296 259 159 116 0 48
288 272 128 140 110 75
288 273 128 136 97 54
289 272 128 137 106 75
289 272 129 134 89 51
289 273 128 136 92 51
289 273 129 139 86 39
289 273 130 142 75 22
288 274 128 135 83 27
288 275 128 134 72 7
288 275 129 139 72 12
289 274 128 137 79 20
289 274 129 142 78 20
289 275 129 143 74 11
289 274 130 145 75 24
289 275 130 147 75 14
289 275 131 145 75 22
290 272 129 134 87 54
290 272 130 134 91 56
290 272 131 127 106 87
290 273 130 140 80 35
290 273 131 135 83 46
290 274 130 147 74 22
290 274 131 145 74 29
290 275 131 145 76 26
290 273 132 136 85 50
291 272 132 120 120 123
291 272 133 111 123 138
291 273 132 128 103 86
291 273 133 118 113 113
291 272 134 113 126 142
291 272 135 114 127 144
291 273 134 113 120 130
291 273 135 116 126 140
290 274 132 139 77 44
290 275 132 143 74 28
290 275 133 137 77 39
291 274 132 133 88 64
291 274 133 128 92 74
290 275 134 131 84 57
290 275 135 124 98 89
291 274 134 115 107 108
291 274 135 104 111 121
291 275 134 127 94 80
291 275 135 117 108 111
288 276 128 138 67 5
288 276 129 143 69 4
288 277 128 139 63 2
288 277 129 142 67 5
289 276 129 145 73 4
289 276 130 144 75 11
289 276 131 146 77 16
289 277 130 145 73 8
289 277 131 146 75 11
288 278 128 136 60 4
288 278 129 142 68 12
288 279 128 137 64 9
288 279 129 141 69 17
288 278 130 144 71 5
288 279 130 140 67 8
289 278 130 143 71 6
289 278 131 143 72 8
289 279 130 140 67 13
289 279 131 143 70 11
289 277 132 145 75 17
289 278 132 144 70 15
289 279 132 143 70 17
290 276 132 145 79 29
290 276 133 144 79 37
290 277 132 146 78 24
290 277 133 145 78 27
290 276 134 138 82 47
290 276 135 130 86 62
290 277 134 143 77 33
290 277 135 140 80 46
290 278 132 145 73 16
290 278 133 146 77 26
290 279 133 145 74 19
290 278 134 145 80 31
290 278 135 143 82 38
290 279 134 145 79 22
290 279 135 144 79 23
291 272 136 108 124 142
291 272 137 110 126 144
291 273 136 112 125 142
291 273 137 107 122 141
291 272 138 115 130 148
291 272 139 118 132 150
291 273 138 110 126 145
291 273 139 116 131 150
291 274 136 100 115 131
291 274 137 103 120 138
291 275 136 104 108 118
291 275 137 98 112 128
291 274 138 109 124 142
291 274 139 112 126 144
291 275 138 103 120 139
291 275 139 112 127 145
291 272 140 118 131 148
291 272 141 113 125 141
291 273 140 118 132 151
291 273 141 112 126 143
291 272 142 118 126 139
291 272 143 133 136 145
291 273 142 114 125 140
291 273 143 134 138 148
291 274 140 112 127 144
291 274 141 110 125 143
291 275 140 118 131 148
291 275 141 115 128 145
291 274 142 111 123 139
291 274 143 126 134 146
291 275 142 110 124 141
291 275 143 117 128 144
290 276 136 120 99 95
290 276 137 107 111 120
290 277 136 134 87 65
290 277 137 120 100 94
290 276 138 101 114 128
290 277 138 109 111 118
291 276 138 99 115 132
291 276 139 107 123 140
291 277 138 104 112 124
291 277 139 101 115 131
290 278 136 142 83 48
290 278 137 128 87 64
290 279 136 142 84 37
291 278 137 126 89 65
291 279 136 140 82 33
291 279 137 128 82 47
291 278 138 113 101 97
291 278 139 101 108 119
291 279 138 111 87 72
291 279 139 96 96 101
291 276 140 120 133 149
291 276 141 125 136 152
291 277 140 107 122 140
291 277 141 118 131 148
290 277 143 111 129 149
291 276 142 120 132 149
291 276 143 116 131 149
291 277 142 120 134 151
291 277 143 115 130 149
291 278 140 96 112 130
291 278 141 96 116 137
291 279 140 92 106 122
291 279 141 84 108 130
291 278 142 105 125 146
291 278 143 108 128 150
291 279 142 76 107 134
291 279 143 85 114 141
288 280 128 136 67 6
288 280 129 137 68 8
288 281 128 135 70 5
288 281 129 136 69 9
288 280 130 137 64 10
288 281 130 136 64 9
289 280 130 138 65 13
289 280 131 142 68 13
289 281 131 138 65 14
288 282 129 134 66 9
288 283 129 135 64 11
288 282 130 134 61 7
288 283 130 132 56 5
289 282 131 137 65 15
289 283 131 135 64 17
289 280 132 143 70 14
289 281 132 140 71 18
289 282 132 140 70 16
289 282 133 139 71 22
289 283 132 137 68 20
289 283 133 137 67 22
290 280 133 145 73 16
290 281 133 143 74 11
290 280 134 143 75 13
290 280 135 143 75 18
290 281 134 141 75 18
290 281 135 142 77 23
291 280 135 141 77 20
291 281 135 139 79 31
290 282 133 142 74 10
290 283 133 136 69 24
290 282 134 140 78 29
290 283 134 133 76 30
291 282 134 137 85 45
291 282 135 134 83 36
291 283 134 132 86 49
291 283 135 127 90 54
288 284 129 134 65 10
288 285 129 132 67 14
288 284 130 133 60 18
288 285 130 132 69 31
289 284 131 132 64 22
289 285 131 128 68 29
288 286 129 132 70 15
288 287 129 129 74 22
288 286 130 130 75 35
288 287 130 125 73 24
289 286 131 124 77 43
289 287 131 120 78 45
289 284 132 131 65 22
289 285 132 127 79 47
289 286 132 129 98 77
289 287 132 128 104 86
290 284 133 132 73 42
290 285 133 126 90 67
290 284 134 127 83 53
290 285 134 119 93 73
291 284 134 124 90 60
291 284 135 124 97 67
291 285 134 114 91 69
291 285 135 111 92 69
290 286 133 127 107 88
290 287 133 130 115 102
290 286 134 116 100 85
290 287 134 122 110 100
291 286 134 110 96 81
291 286 135 113 103 93
291 287 134 114 105 97
291 287 135 107 102 99
291 280 136 139 83 21
291 280 137 133 88 46
291 281 136 136 87 37
291 281 137 139 101 62
291 280 138 117 91 70
291 280 139 100 93 90
291 282 136 131 92 53
291 282 137 134 105 74
291 283 136 128 97 64
291 283 137 133 106 78
291 280 140 92 101 112
291 280 141 92 111 130
291 281 141 93 110 127
291 280 142 76 109 136
291 280 143 78 111 140
291 281 142 96 120 145
291 281 143 94 122 150
291 282 141 95 114 133
291 282 142 99 122 146
291 282 143 97 124 150
291 283 142 100 124 148
291 283 143 96 124 151
291 284 136 126 102 75
291 285 136 122 106 88
291 286 136 119 110 102
291 287 136 110 107 107
291 284 143 99 125 150
291 285 143 112 129 149
291 286 143 134 138 146
291 287 143 144 140 139
292 281 137 139 108 74
292 281 138 126 103 75
292 281 139 111 99 85
292 282 137 136 107 76
292 283 136 128 102 73
292 283 137 133 111 88
292 282 138 133 112 88
292 282 139 123 112 100
292 283 138 135 119 101
292 283 139 130 124 120
292 281 140 93 94 97
292 281 141 88 97 107
292 282 140 111 110 111
292 282 141 99 112 127
292 283 140 124 127 133
292 283 141 115 126 142
292 283 142 105 125 148
292 284 136 130 108 84
292 284 137 131 113 94
292 285 137 129 116 102
292 284 138 136 124 112
292 284 139 131 130 133
292 285 138 133 125 120
292 285 139 130 130 133
293 285 139 126 131 139
292 286 136 120 111 103
292 286 137 127 121 118
292 287 136 110 110 113
292 287 137 120 121 125
292 286 138 127 127 129
292 286 139 122 130 141
292 287 138 128 132 141
292 287 139 123 131 144
292 284 140 125 132 143
292 284 141 118 131 147
292 285 140 116 128 145
292 285 141 114 130 148
293 285 140 118 129 146
292 284 142 109 128 149
292 285 142 117 131 149
292 285 143 122 134 151
292 286 140 118 130 146
292 286 141 120 132 148
292 287 140 119 128 140
292 287 141 123 127 136
292 286 142 128 136 148
292 286 143 135 139 147
292 287 142 135 136 141
292 287 143 145 141 142
289 275 147 144 147 157
290 272 145 151 151 157
290 273 144 153 153 160
290 273 145 157 156 163
291 272 144 151 151 158
291 272 145 154 153 160
291 273 144 149 149 157
290 272 146 148 148 155
290 272 147 151 151 158
290 273 146 153 153 159
290 273 147 151 151 158
290 274 144 150 152 160
290 274 145 156 156 163
290 275 144 135 142 155
290 275 145 143 147 158
291 274 144 142 146 156
291 275 144 126 136 152
290 274 146 153 152 160
290 274 147 143 144 152
290 275 146 149 151 160
290 275 147 143 145 154
289 272 150 140 143 153
289 272 151 146 148 156
289 273 150 145 148 157
289 273 151 136 140 149
289 274 148 136 139 148
289 274 149 149 150 158
289 275 148 128 132 143
289 275 149 133 137 146
289 274 150 153 154 162
289 274 151 143 145 154
289 275 150 154 154 162
289 275 151 155 155 163
290 272 148 155 154 161
290 272 149 153 153 161
290 273 148 154 154 161
290 273 149 156 156 164
290 272 150 149 150 159
290 272 151 154 155 163
290 273 150 150 151 160
290 274 148 140 142 150
290 274 149 151 152 160
289 276 147 143 148 160
289 277 147 135 144 159
289 278 147 118 134 154
289 279 146 94 121 148
289 279 147 104 128 152
290 276 144 121 135 154
290 276 145 123 136 153
290 277 144 113 132 153
290 277 145 118 135 157
290 276 146 132 140 154
290 276 147 146 150 161
290 277 146 119 134 153
290 278 144 92 119 144
290 278 145 100 124 149
290 279 144 94 121 148
290 279 145 87 117 145
291 279 144 94 121 147
290 278 146 108 128 151
290 279 146 93 120 147
289 276 148 141 146 157
289 276 149 141 144 153
289 277 148 136 143 156
289 277 149 136 142 154
288 277 150 139 144 155
288 277 151 149 152 161
289 276 150 154 154 162
289 276 151 154 155 162
289 277 150 146 149 159
289 277 151 155 156 164
288 279 149 93 118 144
289 278 148 121 135 153
289 278 149 109 124 143
289 279 148 105 128 151
289 279 149 99 121 145
288 278 150 111 125 143
288 278 151 125 135 149
288 279 150 95 117 140
288 279 151 102 120 140
289 278 150 118 129 145
289 272 152 155 156 164
289 272 153 153 154 162
289 273 152 138 140 149
289 273 153 149 151 159
289 272 154 142 144 153
289 272 155 138 140 148
289 273 154 153 154 161
289 273 155 153 153 160
289 274 152 138 140 149
289 274 153 148 149 157
289 275 152 151 152 160
289 275 153 155 155 162
289 274 154 158 157 163
289 274 155 160 158 163
289 275 154 160 159 165
289 275 155 160 158 164
289 272 156 146 146 152
289 273 156 157 156 161
289 273 157 158 156 161
289 274 156 159 157 162
289 274 157 157 156 161
289 275 156 157 156 162
289 275 157 153 153 160
289 275 158 152 153 160
290 272 156 151 150 156
290 272 157 153 152 157
290 273 157 156 154 159
290 272 158 151 150 156
290 273 158 155 153 158
290 273 159 150 149 155
291 272 158 150 150 157
291 272 159 149 149 155
291 273 159 145 146 152
290 274 157 158 156 161
290 274 158 155 154 161
290 274 159 147 149 157
290 275 158 154 155 162
290 275 159 151 152 160
291 274 159 140 142 150
288 276 152 152 153 161
288 276 153 154 154 161
288 277 152 154 155 164
288 277 153 150 151 160
289 276 152 153 154 161
289 276 153 157 157 164
288 276 154 159 160 167
288 276 155 160 160 167
288 277 154 148 150 158
288 277 155 153 154 162
289 276 154 163 162 168
289 276 155 162 161 167
288 278 152 141 147 159
288 278 153 151 154 163
288 279 152 118 130 146
288 279 153 144 149 160
288 278 154 142 145 154
288 278 155 137 139 147
288 279 154 154 155 164
288 279 155 149 150 158
288 277 156 156 157 163
288 277 157 157 157 163
289 276 156 157 157 163
289 276 157 148 149 156
289 277 156 158 158 165
289 277 157 152 153 159
289 276 158 143 145 153
289 277 158 141 143 151
289 277 159 141 142 150
288 278 156 147 148 155
288 278 157 155 154 160
288 279 156 148 149 156
288 279 157 154 153 158
289 278 157 155 154 160
289 278 158 154 153 160
289 278 159 151 151 157
289 279 158 156 155 160
289 279 159 156 154 160
290 276 158 148 150 158
290 276 159 151 151 158
290 277 159 143 143 150
290 278 159 151 151 157
289 280 147 98 126 153
289 281 146 88 123 153
289 281 147 95 125 155
289 282 146 85 121 152
289 282 147 83 120 151
289 283 146 90 122 152
289 283 147 85 120 151
290 280 145 93 122 150
290 281 145 91 122 152
291 280 144 90 119 147
291 281 144 92 121 149
290 280 146 92 122 150
290 281 146 91 123 154
290 282 145 91 123 152
290 283 145 94 124 153
291 282 144 93 123 152
291 283 144 92 123 152
290 282 146 89 123 153
290 283 146 95 125 154
288 280 149 89 116 143
288 281 149 74 108 140
289 280 148 97 125 152
289 280 149 91 119 146
289 281 148 96 125 154
289 281 149 92 122 151
288 280 150 90 116 143
288 280 151 89 113 139
288 281 150 72 103 134
288 281 151 87 111 139
288 282 148 90 122 153
288 282 149 82 116 147
288 283 148 86 119 149
288 283 149 84 117 147
289 282 148 87 121 152
289 283 148 83 119 150
288 282 150 60 98 134
288 282 151 82 110 142
288 283 150 83 116 147
288 283 151 89 118 149
288 285 147 98 124 150
289 284 146 98 125 153
289 284 147 95 124 152
289 285 146 113 130 151
289 285 147 102 126 151
289 287 145 90 104 121
288 286 147 104 126 151
288 287 147 102 125 150
289 286 146 117 128 144
289 287 146 100 116 134
290 284 145 100 125 151
290 285 145 113 126 143
291 284 144 97 124 151
291 285 144 113 128 146
290 284 146 102 127 153
290 285 146 113 130 150
290 286 145 109 113 121
290 287 144 125 121 119
290 287 145 95 99 105
291 286 144 127 129 135
291 287 144 133 128 126
288 284 148 93 122 149
288 284 149 87 117 145
288 285 148 98 123 148
288 285 149 93 118 145
288 284 150 80 112 142
288 284 151 90 120 150
288 285 150 75 105 134
288 286 148 101 125 150
288 286 149 105 126 152
288 287 148 108 130 155
288 287 149 109 130 154
288 280 152 92 112 134
288 280 153 126 135 149
288 281 152 86 109 134
288 281 153 104 119 137
288 280 154 153 155 165
288 280 155 157 159 167
288 281 154 146 150 160
288 281 155 158 160 168
288 282 152 96 118 145
288 280 156 156 157 164
288 280 157 157 157 163
288 281 156 159 160 168
288 281 157 158 158 166
288 280 158 158 157 162
288 281 158 156 157 164
288 281 159 156 157 164
289 280 158 156 155 160
289 280 159 154 154 159
289 281 159 154 155 162
288 282 157 157 158 166
288 283 157 155 156 165
288 282 158 154 155 163
288 282 159 155 156 164
288 283 158 150 152 160
288 283 159 151 152 160
289 282 159 156 156 163
288 284 158 145 147 156
288 284 159 137 142 152
288 285 158 147 149 157
288 285 159 139 142 152
288 286 159 145 148 157
