ply
format ascii 1.0
comment Version 2, Copyright 2017, 8i Labs, Inc.
comment frame_to_world_scale 0.179523
comment frame_to_world_translation -45.2095 7.18301 -54.3561
comment width 1023
element vertex 2219
property float x
property float y
property float z
property uchar red
property uchar green
property uchar blue
end_header
159 483 61 127 136 150
159 482 62 131 139 152
159 482 63 125 139 156
159 483 62 141 147 158
159 483 63 127 139 156
157 487 59 105 120 139
159 485 58 105 122 141
159 485 59 115 128 144
159 487 57 74 107 136
158 486 59 115 128 144
158 487 58 93 116 138
158 487 59 109 124 141
159 486 58 103 121 141
159 486 59 115 128 144
159 487 58 94 116 138
157 487 60 127 136 150
157 487 61 136 143 156
157 486 62 156 157 166
157 486 63 143 148 158
157 487 62 148 153 164
157 487 63 141 147 159
158 485 60 132 138 149
158 485 61 142 146 155
159 484 60 125 134 148
159 484 61 136 142 153
159 485 60 126 135 148
159 485 61 134 140 151
158 484 62 153 154 162
158 484 63 146 152 164
158 485 62 154 155 163
158 485 63 148 153 163
159 484 62 150 153 162
159 484 63 137 146 160
158 486 60 129 137 149
158 486 61 145 148 158
158 487 60 125 135 149
158 486 62 155 156 164
158 486 63 148 152 161
158 491 55 73 107 137
159 490 55 50 98 135
159 491 55 73 107 140
157 492 55 84 111 138
157 493 55 92 114 138
156 494 55 96 115 135
156 495 55 101 118 138
157 494 55 99 117 139
157 495 54 104 122 144
157 495 55 103 120 141
158 492 55 82 111 139
158 493 54 90 114 141
158 493 55 85 112 138
159 492 54 83 112 141
159 493 54 90 114 140
158 494 54 102 121 143
158 494 55 101 119 141
158 495 54 111 126 147
159 494 54 102 121 143
159 495 54 115 130 150
155 491 60 79 104 135
155 491 61 89 111 139
155 490 63 143 151 165
155 491 62 95 117 140
155 491 63 125 138 154
153 495 59 157 155 159
155 493 57 103 119 138
154 493 59 86 115 142
155 492 58 84 110 136
155 492 59 75 106 138
155 493 58 107 123 141
155 493 59 90 115 140
154 495 57 120 129 142
155 494 56 104 120 139
155 494 57 116 127 143
155 495 56 102 117 135
155 495 57 121 130 144
154 494 58 143 148 158
154 494 59 122 134 149
154 495 58 150 151 157
154 495 59 153 153 160
155 494 58 134 142 153
153 495 60 140 144 154
153 495 61 111 124 140
153 494 63 56 89 116
153 495 62 92 113 133
153 495 63 66 95 120
154 493 60 82 108 143
154 493 61 72 99 139
155 492 60 73 100 137
155 492 61 78 101 140
155 493 60 83 111 145
154 492 63 78 103 127
154 493 62 75 101 138
154 493 63 76 102 127
155 492 62 81 106 139
155 492 63 86 111 135
154 494 60 91 115 141
154 494 61 85 112 140
154 495 60 110 126 143
154 495 61 97 117 137
154 494 62 78 105 136
154 494 63 66 96 123
156 489 59 84 110 135
157 488 58 88 110 134
157 488 59 93 113 135
157 489 58 79 105 132
157 489 59 84 109 134
156 491 57 80 106 132
157 490 57 71 102 131
157 491 56 78 107 134
157 491 57 76 105 132
156 490 58 75 103 131
156 490 59 84 110 137
156 491 58 76 104 132
156 491 59 71 101 134
157 490 58 74 103 131
157 490 59 79 105 132
158 488 57 70 105 135
158 489 56 65 101 132
158 489 57 68 103 134
159 488 56 58 104 138
159 488 57 68 107 138
159 489 56 55 100 134
158 488 58 81 109 135
158 488 59 86 111 136
158 489 58 78 105 132
158 490 56 71 104 133
158 490 57 68 102 132
158 491 56 74 106 135
159 490 56 64 102 134
156 489 60 96 117 139
156 489 61 117 131 150
157 488 60 100 117 136
157 488 61 105 119 136
157 489 60 95 116 139
157 489 61 105 121 139
156 488 63 113 126 144
156 489 62 123 135 152
156 489 63 126 137 152
157 488 62 115 127 143
157 488 63 128 138 153
156 490 60 89 112 135
156 490 61 100 120 141
156 491 60 85 110 136
156 491 61 90 113 137
156 490 62 126 138 156
156 490 63 144 151 166
156 492 56 86 109 132
156 492 57 87 109 132
156 493 56 94 114 136
156 493 57 97 115 135
157 492 56 84 109 134
156 492 58 84 109 133
156 494 56 99 118 139
156 495 56 103 119 137
151 498 63 87 103 119
151 499 62 83 100 118
151 499 63 100 110 123
151 501 59 78 101 129
151 502 59 111 122 138
151 503 58 100 118 138
151 503 59 126 133 145
149 502 62 89 106 124
149 502 63 130 133 142
149 503 62 92 108 126
149 503 63 81 99 117
151 500 60 27 72 122
151 500 61 22 71 111
151 501 60 45 84 124
151 501 61 27 76 115
150 501 62 124 131 143
150 501 63 141 141 145
151 500 62 92 109 126
151 500 63 124 127 134
151 501 62 92 110 130
150 502 61 101 118 135
150 503 60 155 153 157
150 503 61 144 146 154
151 502 60 117 129 146
151 502 61 69 99 125
151 503 60 149 150 157
150 502 62 85 105 124
150 502 63 137 138 144
150 503 62 99 114 130
151 505 57 142 149 163
150 504 59 106 119 137
150 505 59 79 108 134
151 504 58 83 110 135
151 504 59 105 120 138
151 505 58 113 129 149
151 506 57 151 154 165
151 507 56 102 116 134
151 507 57 126 135 149
150 506 58 132 142 156
150 506 59 97 119 142
150 507 58 154 155 163
150 507 59 140 146 158
151 506 58 152 155 164
151 507 58 155 156 165
149 504 61 150 151 157
149 505 61 132 139 150
149 504 62 136 141 151
149 504 63 82 100 118
149 505 62 141 145 155
149 505 63 126 133 145
149 506 60 65 101 131
149 506 61 84 110 134
149 507 60 81 110 136
149 507 61 59 97 129
148 507 63 73 95 132
149 506 62 104 121 140
149 506 63 107 121 139
149 507 62 68 97 133
149 507 63 73 98 131
150 504 60 143 145 153
150 504 61 152 151 156
150 505 60 103 120 139
150 506 60 72 104 132
150 507 60 103 122 143
149 509 59 126 138 153
149 510 59 78 100 130
149 511 59 76 100 130
150 509 57 91 112 136
151 508 56 110 125 143
151 508 57 76 102 126
151 509 56 146 153 165
151 509 57 121 135 153
150 508 58 113 125 141
150 508 59 149 154 164
150 509 58 76 101 125
150 509 59 111 125 142
151 508 58 134 141 153
150 510 57 142 149 163
150 511 57 133 143 159
151 510 56 157 158 166
151 510 57 151 156 166
151 511 56 154 158 167
150 510 58 99 119 140
150 510 59 80 104 130
150 511 58 100 121 144
150 511 59 82 108 135
149 508 60 123 136 153
149 508 61 77 108 136
149 509 60 109 128 148
149 509 61 73 105 137
148 508 62 69 95 135
148 508 63 84 103 142
148 509 62 66 91 130
148 509 63 86 108 143
149 508 62 64 94 134
149 509 62 64 92 131
148 511 61 54 84 113
149 510 60 68 95 131
149 510 61 60 93 129
149 511 60 58 84 122
149 511 61 35 71 113
148 510 62 65 93 132
148 510 63 83 108 142
148 511 62 80 104 130
148 511 63 90 115 142
155 497 55 110 125 145
154 499 55 108 126 146
155 498 55 115 130 149
155 499 55 124 137 154
153 502 55 90 112 140
153 503 55 87 108 136
154 500 55 105 123 146
154 501 55 96 117 144
155 500 54 125 139 157
155 500 55 120 134 153
155 501 54 114 131 153
155 501 55 110 127 150
154 502 55 96 118 145
154 503 55 93 113 143
155 502 54 108 127 152
155 503 54 100 117 149
156 496 55 108 124 144
156 497 54 112 127 148
156 497 55 108 124 145
157 496 54 102 120 142
157 496 55 103 121 143
157 497 54 100 121 148
157 497 55 103 121 144
157 499 53 131 142 159
156 498 54 124 137 155
156 498 55 116 130 150
156 499 54 140 148 161
157 498 54 113 130 152
157 499 54 142 150 164
158 497 53 79 109 140
159 496 53 114 130 149
159 497 53 83 111 139
158 496 54 101 120 144
158 497 54 83 110 140
159 496 54 112 128 149
158 498 53 79 110 140
158 499 53 102 124 148
159 498 53 59 100 137
159 499 53 73 105 142
158 498 54 85 112 142
157 500 53 129 143 161
157 501 53 128 140 162
156 500 54 136 146 162
156 501 54 131 144 162
157 500 54 142 151 166
157 502 53 132 143 164
157 503 53 154 158 172
156 502 54 118 132 158
156 503 54 124 135 163
158 500 53 112 130 156
158 501 53 134 144 166
159 500 53 107 124 154
159 501 53 147 153 168
158 502 53 157 161 173
158 503 53 168 167 173
159 502 53 167 167 173
159 503 53 164 164 170
153 496 58 150 151 157
153 496 59 156 154 157
153 497 58 118 129 143
153 497 59 142 146 154
153 498 57 93 117 140
153 499 56 90 113 137
153 499 57 83 112 140
152 498 59 109 124 140
152 499 58 54 98 130
152 499 59 39 84 118
153 498 58 102 119 139
153 498 59 120 131 145
153 499 58 81 112 139
154 496 56 105 120 138
154 496 57 113 123 139
154 497 56 109 125 144
154 497 57 97 114 133
155 496 56 106 121 139
155 496 57 106 119 135
155 497 56 109 125 144
154 496 58 146 147 154
154 496 59 157 155 158
154 498 56 99 119 141
154 498 57 104 125 146
154 499 56 94 116 139
152 497 60 135 141 152
152 497 61 139 142 151
153 496 60 153 153 158
153 496 61 148 148 155
153 497 60 146 148 155
152 496 62 113 124 139
152 496 63 90 107 125
152 497 62 133 139 150
152 497 63 102 115 130
153 496 62 121 130 142
153 496 63 79 100 120
152 498 60 105 121 139
152 498 61 101 119 138
152 499 60 31 74 109
152 499 61 41 81 111
152 498 62 105 121 138
152 498 63 94 110 127
152 499 62 82 102 122
152 500 57 83 110 139
152 501 57 88 114 141
153 500 56 90 112 138
153 500 57 85 111 140
153 501 56 86 111 139
153 501 57 84 109 135
152 500 58 61 99 130
152 500 59 31 81 123
152 501 58 77 104 130
152 501 59 58 91 124
152 502 57 78 109 140
152 503 56 77 100 129
152 503 57 71 103 137
153 502 56 83 110 139
153 503 56 77 102 131
152 502 58 92 112 134
152 503 58 86 110 137
154 500 56 98 118 142
152 500 60 23 71 118
153 504 55 87 100 133
153 505 55 88 101 132
152 506 55 96 108 133
152 507 55 126 134 149
153 506 55 94 108 135
153 507 55 129 138 155
154 504 55 88 104 138
154 505 54 98 116 147
154 505 55 82 97 134
155 504 54 101 117 150
155 505 54 118 135 159
154 506 54 107 122 147
154 506 55 88 105 136
154 507 54 120 129 148
155 506 54 125 139 160
155 507 54 109 125 149
152 508 55 153 154 162
152 509 55 165 163 167
153 508 54 161 160 165
153 508 55 161 161 168
153 509 54 158 157 163
153 509 55 165 163 167
152 510 55 159 158 162
152 511 54 143 148 159
152 511 55 153 154 162
153 510 54 154 154 161
153 511 54 135 143 155
155 509 53 116 128 146
154 508 54 143 147 158
154 509 54 145 149 159
155 508 54 107 121 140
155 509 54 120 131 147
154 511 53 109 125 144
155 510 53 113 128 148
155 511 53 109 125 145
154 510 54 141 146 157
154 511 54 117 131 147
155 510 54 125 136 152
157 504 53 150 157 171
157 505 53 115 135 160
156 504 54 131 144 165
156 505 54 117 137 159
156 506 53 113 134 160
156 507 53 102 124 151
157 506 53 98 123 155
157 507 53 97 120 151
156 506 54 116 135 159
156 507 54 105 125 151
158 504 53 159 162 171
158 505 53 131 145 166
159 504 53 148 155 167
159 505 52 107 128 155
159 505 53 120 137 159
158 506 53 93 118 149
158 507 53 92 116 146
159 506 52 95 117 144
159 506 53 90 115 143
159 507 52 94 118 147
159 507 53 89 114 143
159 509 51 118 133 153
158 510 51 103 121 144
158 511 51 89 108 128
159 510 51 124 136 153
159 511 51 105 119 137
156 508 53 101 120 145
156 509 53 110 125 145
157 508 53 99 121 147
157 509 52 101 119 142
157 509 53 103 121 144
156 510 53 108 125 147
156 511 53 106 122 142
157 510 52 89 110 134
157 510 53 102 120 143
157 511 52 99 116 135
157 511 53 91 112 135
158 508 52 88 114 143
158 508 53 95 118 145
158 509 52 98 119 145
159 508 52 88 115 145
159 509 52 101 123 147
158 510 52 103 121 145
158 511 52 85 105 125
159 510 52 123 137 157
152 504 56 103 113 142
152 504 57 99 118 145
152 505 56 114 122 146
152 505 57 138 144 162
153 504 56 88 102 134
152 504 58 80 109 138
152 506 56 116 125 145
152 507 56 108 122 142
152 508 56 138 143 154
152 509 56 152 153 161
163 479 61 130 136 147
162 479 63 130 137 147
163 478 63 133 138 147
163 479 62 129 136 147
163 479 63 129 136 146
167 473 63 105 122 141
166 475 63 116 128 142
167 474 62 125 135 148
167 474 63 115 128 143
167 475 62 125 134 146
165 479 59 121 128 139
166 478 59 110 123 138
166 479 59 122 129 139
167 478 59 110 123 138
167 479 58 119 127 138
167 479 59 119 128 141
165 477 61 123 131 143
165 476 63 121 131 144
165 477 62 124 132 144
165 477 63 125 133 145
164 479 60 124 132 143
164 479 61 130 137 147
165 478 60 121 130 143
165 478 61 125 132 143
165 479 60 124 131 142
165 479 61 126 133 143
164 478 62 129 135 146
164 478 63 130 136 147
164 479 62 129 136 147
165 478 62 128 135 145
166 476 61 118 127 140
166 477 60 117 126 139
166 477 61 120 129 141
167 476 61 119 128 139
167 477 60 110 123 139
167 477 61 111 123 137
166 476 62 119 129 142
166 476 63 119 129 143
166 477 62 121 130 142
166 477 63 121 130 142
167 476 62 119 128 141
166 478 60 112 124 138
166 478 61 121 129 140
166 479 60 110 122 138
169 471 63 66 98 127
170 471 63 67 99 127
171 471 62 74 103 128
171 471 63 66 100 128
172 470 63 68 101 128
172 471 62 75 103 128
172 471 63 68 99 127
173 470 62 60 97 125
173 470 63 68 101 127
173 471 62 74 103 127
174 469 63 65 100 128
175 469 63 64 103 132
174 471 61 85 107 128
175 471 61 86 107 127
174 470 62 59 94 122
174 470 63 60 97 125
174 471 62 70 99 124
175 470 62 60 96 124
175 470 63 61 97 126
175 471 62 68 98 123
171 475 59 121 127 136
168 472 63 82 110 134
168 473 62 120 132 146
168 473 63 104 122 140
169 472 62 88 113 136
169 472 63 81 108 132
169 473 62 115 129 144
168 474 61 128 136 148
168 475 60 123 129 138
168 475 61 122 129 139
169 474 61 129 136 147
169 475 60 123 129 139
169 475 61 126 132 141
168 474 62 126 135 148
168 475 62 129 137 147
169 474 62 128 136 148
170 473 61 115 126 140
171 472 61 92 111 130
171 473 61 114 124 137
170 472 62 85 109 132
170 473 62 115 127 141
171 472 62 88 110 131
170 474 61 128 135 144
170 475 60 126 131 140
171 474 60 131 135 143
171 475 60 125 130 138
168 477 59 112 123 138
169 476 59 117 126 138
169 477 59 114 125 138
169 479 57 117 122 130
168 478 58 109 122 136
168 478 59 108 121 136
168 479 58 114 124 136
169 478 58 110 122 136
169 478 59 110 123 138
169 479 58 116 124 134
170 476 59 118 126 137
170 477 58 119 128 141
170 477 59 117 127 139
171 476 58 125 130 139
171 476 59 123 129 138
171 477 58 122 129 140
170 479 57 124 128 135
171 478 57 129 133 140
171 479 57 131 133 139
170 478 58 119 129 141
170 479 58 122 129 140
171 478 58 124 131 141
168 476 60 123 130 141
168 477 60 115 125 138
169 476 60 123 129 139
172 475 59 128 130 136
173 474 59 130 133 140
173 475 59 130 133 138
174 474 59 129 133 141
174 475 58 134 134 137
174 475 59 133 134 138
175 474 59 127 131 138
175 475 59 132 133 138
172 472 61 91 110 130
172 473 60 127 134 144
172 473 61 101 117 133
173 472 61 88 110 131
173 473 60 95 115 133
173 473 61 92 112 130
172 472 62 86 109 131
173 472 62 86 111 133
172 474 60 124 130 140
173 474 60 121 129 141
174 472 61 89 109 129
174 473 60 94 113 131
175 472 61 92 109 127
175 473 60 99 113 129
174 474 60 115 124 136
175 474 60 120 126 136
172 477 57 130 132 137
172 476 58 132 133 138
172 476 59 130 131 136
172 477 58 128 132 139
173 476 58 134 134 137
173 476 59 134 133 137
173 477 58 132 133 137
172 478 57 127 130 137
172 479 57 132 133 137
173 478 57 131 132 136
173 479 57 132 132 136
174 477 57 129 131 135
175 477 57 132 131 135
174 476 58 133 132 135
174 477 58 130 130 135
175 476 58 133 132 135
175 477 58 131 130 133
174 478 57 132 132 137
174 479 57 137 136 140
175 478 57 134 133 136
175 479 57 135 134 137
178 467 63 101 119 137
179 467 63 103 120 139
176 468 63 91 113 134
176 469 62 69 101 128
176 469 63 70 103 130
177 468 63 99 116 135
177 469 62 75 100 122
177 469 63 75 98 120
176 471 61 96 113 132
177 470 61 97 115 133
177 471 61 103 119 135
176 470 62 62 98 126
176 471 62 70 100 125
177 470 62 76 102 124
178 468 63 91 111 131
178 469 62 83 104 124
179 468 62 82 107 129
179 468 63 91 112 133
179 469 62 84 105 126
178 471 61 108 120 134
179 470 61 101 114 128
179 471 61 114 122 133
178 470 62 86 106 126
179 470 62 85 105 125
180 467 63 116 128 143
181 466 63 99 117 135
181 467 63 105 119 134
182 466 63 83 108 130
182 467 63 83 105 125
183 466 63 67 98 124
183 467 63 62 92 117
180 468 62 81 104 125
180 468 63 96 116 135
180 469 62 85 104 124
181 468 62 78 101 121
181 468 63 91 109 128
181 469 62 81 101 120
180 470 61 101 113 126
180 471 61 112 120 131
181 470 61 97 110 125
181 471 61 107 117 129
180 470 62 92 107 124
183 469 61 85 103 120
182 468 62 78 99 119
182 468 63 73 97 118
182 469 62 84 103 120
183 468 62 70 95 117
183 469 62 82 101 119
182 470 61 90 106 123
182 471 60 104 115 127
182 471 61 93 108 125
183 470 61 85 103 121
183 471 60 72 96 117
183 471 61 71 96 117
176 474 59 118 125 135
176 475 59 126 129 136
177 474 59 112 120 131
177 475 59 120 124 130
178 474 59 108 116 126
178 475 59 114 119 128
179 474 59 106 113 123
179 475 59 107 115 125
176 472 60 94 107 122
176 472 61 97 112 127
176 473 60 104 115 128
177 472 61 104 117 130
177 473 60 105 116 128
176 474 60 113 121 132
177 474 60 110 118 129
178 472 60 99 114 129
178 472 61 106 120 135
178 473 60 106 116 128
179 472 60 110 120 132
179 473 60 110 118 129
178 474 60 108 117 128
179 474 60 108 116 126
176 477 57 134 132 134
177 477 57 135 134 137
176 476 58 131 130 132
176 477 58 132 131 133
177 476 58 129 129 133
177 477 58 133 131 135
176 478 57 134 132 135
176 479 57 131 130 133
177 478 57 135 134 137
177 479 57 131 131 135
177 478 58 136 135 138
178 476 58 121 124 131
178 477 58 130 130 134
179 476 58 114 120 130
179 476 59 110 118 128
179 477 58 120 124 130
178 478 57 132 132 135
178 479 57 128 130 135
179 478 57 122 125 131
179 479 57 115 122 131
178 478 58 134 132 135
179 478 58 117 122 131
180 474 59 105 113 125
180 475 59 99 111 125
181 474 59 98 112 127
181 475 59 86 104 122
182 474 59 77 100 122
182 475 59 71 96 119
183 474 59 57 91 118
183 475 59 57 90 117
180 472 60 114 121 132
180 473 60 111 119 129
181 472 60 112 120 131
181 473 60 106 117 130
180 474 60 110 117 127
182 472 60 93 109 126
182 473 60 77 102 124
183 472 60 62 93 117
183 473 60 54 90 118
182 474 60 73 99 122
183 474 60 53 90 117
180 476 58 94 109 124
180 476 59 102 113 126
180 477 58 99 111 125
181 476 58 69 94 117
181 476 59 81 101 120
181 477 58 73 96 118
180 478 57 99 111 126
180 479 57 95 110 126
181 478 57 75 99 121
181 479 57 74 98 119
180 478 58 86 104 123
181 478 58 71 97 119
182 476 59 64 92 117
182 477 58 61 92 118
182 477 59 59 91 117
183 476 59 58 91 117
183 477 58 65 94 120
183 477 59 62 93 119
182 478 57 67 95 119
182 479 57 71 96 119
183 478 57 75 100 124
183 479 57 74 99 123
182 478 58 65 95 119
183 478 58 69 96 120
184 467 63 50 85 113
185 466 63 44 77 106
185 467 63 47 81 108
186 466 63 52 87 113
186 467 63 46 81 108
187 466 63 54 90 117
187 467 63 54 88 114
184 469 61 84 103 122
184 468 62 69 93 115
184 469 62 80 100 119
185 468 62 59 88 111
185 469 62 72 97 118
184 470 61 75 97 119
184 471 60 65 91 115
184 471 61 62 89 115
185 470 61 60 90 116
185 471 61 49 83 113
186 468 62 54 87 112
186 468 63 49 85 110
186 469 62 57 90 115
187 468 62 55 89 116
187 468 63 54 87 112
187 469 62 57 89 117
186 470 61 51 88 116
186 471 61 49 87 115
187 470 61 58 91 119
187 471 61 68 97 124
186 470 62 48 85 114
187 470 62 57 90 118
188 466 63 62 93 118
188 467 63 68 97 120
189 466 63 67 94 117
189 467 63 96 112 130
190 466 63 69 95 118
190 467 63 99 113 129
191 466 63 66 96 121
191 467 63 78 101 123
188 468 62 74 99 123
188 469 62 65 94 121
189 468 62 101 117 135
189 468 63 117 126 140
189 469 62 70 100 124
188 470 61 70 99 125
188 471 61 75 101 127
189 470 61 71 100 126
189 471 61 71 100 125
188 470 62 66 95 121
189 470 62 65 98 126
190 468 62 84 105 125
190 468 63 104 118 134
190 469 62 64 96 122
191 468 62 69 97 120
191 468 63 74 99 122
191 469 62 69 99 125
190 471 61 83 106 128
190 470 62 71 103 129
190 471 62 79 105 129
191 470 62 75 104 129
191 471 62 83 108 129
184 474 59 50 86 116
184 475 59 56 90 117
185 475 59 70 95 118
186 475 59 82 101 121
187 475 59 79 100 121
184 472 60 49 85 114
184 473 60 39 81 113
185 472 60 40 78 109
185 472 61 38 79 108
185 473 60 45 81 111
184 474 60 46 84 115
185 474 60 60 90 116
186 472 60 62 93 118
186 472 61 65 96 121
186 473 60 81 104 127
187 472 61 82 105 129
187 473 60 79 102 126
187 473 61 76 101 126
186 474 60 78 100 122
186 475 60 82 102 122
187 474 60 71 95 118
187 475 60 72 96 118
184 476 59 62 94 120
184 477 58 64 93 118
184 477 59 63 94 120
185 476 59 67 93 116
185 477 59 66 91 113
184 479 57 62 92 117
184 478 58 62 90 115
184 479 58 58 88 114
185 478 58 64 89 113
185 478 59 68 92 114
185 479 58 74 96 118
186 476 59 84 103 122
186 477 59 78 99 118
187 476 59 75 98 120
187 477 59 86 106 126
186 478 58 89 106 125
186 478 59 85 104 123
186 479 58 95 110 128
187 478 59 97 113 131
187 479 58 96 111 130
187 479 59 97 112 130
188 472 61 76 101 125
188 473 60 67 94 118
188 473 61 69 96 120
189 472 61 71 98 121
189 473 61 68 94 117
188 474 60 63 90 114
188 475 60 70 95 118
189 474 60 69 94 116
189 474 61 68 92 114
189 475 60 79 101 123
190 472 61 76 99 121
190 473 61 73 97 119
191 472 61 82 105 126
191 473 61 71 99 122
191 472 62 92 112 131
190 474 60 83 102 122
190 474 61 79 100 120
190 475 60 93 110 130
191 474 60 95 112 131
191 474 61 86 106 126
191 475 60 99 115 134
188 476 59 79 102 124
188 477 59 92 110 130
189 476 59 86 107 128
189 477 59 95 112 132
188 478 59 98 113 132
188 479 59 96 112 130
189 478 59 100 115 132
189 479 59 98 113 130
190 477 59 98 114 132
190 478 59 99 115 133
190 479 59 98 114 132
191 479 59 99 115 134
189 476 60 87 107 128
190 476 60 97 114 134
190 477 60 97 114 133
191 476 60 99 116 135
191 477 60 93 111 131
191 478 60 96 113 133
161 487 55 53 107 143
162 487 55 66 111 144
163 487 55 61 105 137
164 486 55 84 112 137
164 487 55 57 100 132
165 486 55 100 120 141
165 487 55 73 103 129
166 486 55 122 133 147
166 487 55 82 107 130
167 486 55 115 127 142
167 487 55 77 102 124
160 483 59 117 128 143
161 482 59 118 128 142
161 483 58 113 125 140
161 483 59 114 126 141
162 481 59 121 129 141
163 481 59 121 130 141
163 483 57 111 122 135
162 482 58 119 128 140
162 482 59 120 129 141
162 483 58 113 124 138
163 482 58 118 127 139
163 482 59 121 129 140
163 483 58 104 118 135
161 481 60 120 130 143
161 481 61 124 133 146
160 481 62 125 134 147
160 481 63 126 136 150
161 480 62 127 135 147
161 480 63 130 136 148
161 481 62 125 134 147
160 482 60 121 131 144
160 482 61 128 136 148
160 483 60 123 133 147
160 483 61 129 137 149
161 482 60 119 129 143
161 482 61 118 128 142
160 482 62 128 136 149
160 482 63 123 134 150
162 480 60 123 132 144
162 480 61 128 135 146
162 481 60 121 130 143
162 481 61 124 133 146
163 480 60 125 134 146
163 480 61 129 136 147
163 481 60 122 130 143
162 480 62 128 135 147
162 480 63 127 133 145
162 481 62 125 133 146
163 480 62 130 136 147
160 485 57 106 121 139
161 485 57 100 118 137
160 484 58 111 125 142
160 484 59 118 130 145
160 485 58 108 123 141
160 485 59 114 127 143
161 484 58 108 122 138
160 486 57 97 116 136
160 487 56 61 101 134
160 487 57 77 108 136
161 486 56 99 117 137
161 486 57 95 112 131
161 487 56 77 111 142
160 486 58 102 119 139
162 484 57 105 119 135
162 485 56 102 121 141
162 485 57 98 117 136
163 484 57 114 125 138
163 485 56 106 122 139
162 484 58 113 124 138
162 486 56 108 127 147
162 487 56 94 124 150
163 486 56 105 126 147
160 484 60 122 132 147
164 480 59 126 133 143
164 481 58 123 128 137
164 481 59 123 129 139
165 480 59 127 132 141
165 481 58 126 129 136
164 483 57 126 132 142
165 482 57 131 136 145
165 483 57 132 135 143
164 482 58 120 127 138
164 483 58 129 134 142
165 482 58 127 132 140
167 481 57 136 138 144
166 480 58 127 130 138
166 480 59 127 131 140
166 481 58 133 135 142
167 480 58 127 131 139
167 481 58 136 138 144
166 482 57 134 137 143
166 483 57 136 138 143
167 482 57 136 138 144
167 483 57 139 139 144
166 482 58 133 136 144
164 480 60 129 137 148
164 484 56 126 132 143
164 484 57 123 130 141
164 485 56 117 128 142
165 484 56 132 136 145
165 484 57 132 136 143
165 485 56 129 134 143
164 486 56 98 120 141
165 486 56 121 131 145
166 484 56 138 139 144
166 484 57 139 139 143
166 485 56 131 136 145
167 484 56 142 141 146
167 485 56 138 140 147
166 486 56 122 131 145
167 486 56 127 133 143
160 488 55 46 98 136
160 489 55 40 94 135
161 488 55 48 98 137
161 489 54 38 96 144
161 489 55 41 96 140
160 490 55 46 96 132
160 491 54 82 111 141
160 491 55 76 109 140
161 490 54 53 99 135
161 490 55 38 94 132
161 491 54 82 111 138
162 488 55 53 95 134
162 489 54 52 94 138
162 489 55 60 100 136
163 488 54 70 98 128
163 488 55 56 93 133
163 489 54 56 91 134
163 491 53 69 101 127
162 490 54 50 95 133
162 491 54 70 104 132
163 490 54 49 89 127
163 491 54 64 99 126
160 493 53 91 112 135
161 492 53 82 106 130
161 493 53 97 115 135
160 492 54 82 111 140
160 493 54 88 112 137
161 492 54 80 108 134
160 494 53 101 119 139
160 495 53 121 133 150
161 494 53 98 115 136
161 495 53 110 124 140
160 494 54 97 116 138
162 492 53 83 107 130
162 493 53 115 125 140
163 492 53 85 107 128
163 493 53 122 130 142
162 494 53 113 125 141
162 495 53 100 117 136
163 494 53 127 135 148
163 495 53 105 120 140
164 488 55 59 94 133
164 489 54 60 93 127
165 488 55 65 95 125
165 489 54 51 91 123
164 490 53 57 91 119
164 491 53 71 99 122
165 490 53 62 93 120
165 491 53 73 99 122
164 490 54 48 85 121
165 490 54 50 89 121
166 488 55 60 92 117
166 489 54 64 96 123
167 488 55 75 98 119
167 489 54 80 104 127
166 490 53 65 95 120
166 491 53 71 98 121
167 491 53 71 97 121
166 490 54 63 96 122
167 490 54 66 96 122
164 492 53 77 102 124
164 493 53 104 119 136
165 492 53 62 95 124
165 493 53 62 96 125
164 494 53 112 125 143
164 495 53 86 107 130
165 494 53 75 104 131
165 495 52 79 103 126
165 495 53 72 99 126
166 492 53 61 95 127
166 493 53 55 94 127
167 492 53 67 97 129
167 493 53 63 95 127
166 494 53 73 104 132
166 495 52 74 99 123
166 495 53 71 99 126
167 494 53 69 98 126
167 495 52 90 108 126
167 495 53 77 101 124
160 488 56 48 99 135
160 489 56 51 99 134
168 485 55 134 135 141
169 485 55 130 131 137
168 486 55 116 124 136
168 487 55 82 103 122
169 486 55 108 117 130
169 487 55 92 107 124
170 484 55 136 134 136
170 485 55 132 131 135
171 484 55 134 133 137
171 485 55 132 133 138
170 486 55 113 120 131
170 487 55 90 106 123
171 486 55 109 118 130
171 487 54 83 103 123
171 487 55 89 106 124
172 482 55 117 121 128
175 483 55 88 102 118
172 484 55 123 127 136
172 485 55 109 119 131
173 484 55 109 118 130
173 485 55 97 111 126
172 486 55 96 110 125
172 487 54 86 105 125
172 487 55 87 104 122
173 486 54 89 107 125
173 486 55 92 108 126
173 487 54 88 106 125
174 484 55 95 108 123
174 485 55 88 106 125
175 484 55 83 99 117
175 485 55 78 98 119
174 486 54 84 103 125
174 486 55 90 107 126
174 487 54 84 104 125
175 486 54 81 101 122
175 486 55 78 100 121
175 487 54 83 104 125
168 480 57 123 128 137
168 481 57 132 135 141
169 480 57 125 127 134
169 481 57 132 133 138
168 480 58 125 130 140
168 482 57 137 138 144
168 483 56 142 141 143
168 483 57 141 140 144
169 482 56 139 139 143
169 482 57 139 139 143
169 483 56 143 141 144
170 480 57 122 125 131
170 481 56 126 128 135
170 481 57 124 127 134
171 480 56 124 126 132
171 480 57 123 126 131
171 481 56 123 126 132
170 482 56 134 135 141
170 483 56 140 139 142
171 482 56 123 127 134
171 483 56 128 129 134
168 484 56 143 142 145
168 485 56 137 138 144
169 484 56 140 138 140
169 485 56 136 135 139
170 484 56 136 134 136
171 484 56 132 131 136
172 480 56 127 129 135
172 480 57 130 130 135
172 481 56 124 127 134
173 480 56 132 133 138
173 481 56 127 129 136
172 482 56 117 121 128
172 483 56 120 124 131
173 482 56 117 122 129
173 483 56 114 120 130
174 480 56 132 131 135
174 481 56 126 126 130
175 480 56 129 129 132
175 481 56 125 126 130
174 482 56 119 123 130
174 483 56 111 118 128
175 482 56 121 123 130
175 483 56 109 116 126
168 488 55 91 106 123
168 489 54 82 105 128
169 488 55 90 107 126
169 489 54 76 103 127
168 490 53 74 102 127
168 491 53 75 102 129
169 490 53 75 102 128
169 491 53 74 102 128
168 490 54 70 99 125
169 490 54 76 103 128
170 488 54 85 107 129
170 488 55 86 106 126
170 489 54 78 103 129
171 488 54 83 106 129
171 488 55 83 105 126
171 489 54 78 103 128
170 490 53 76 102 127
170 491 53 80 105 129
171 490 53 80 104 127
171 491 53 92 111 131
171 490 54 77 102 126
168 492 53 77 103 131
168 493 53 77 102 129
169 492 53 77 103 128
169 493 53 97 114 133
168 494 53 82 104 128
168 495 52 96 112 130
168 495 53 93 110 129
169 494 53 93 111 131
169 495 53 90 110 131
170 492 53 93 112 132
170 493 53 115 126 141
171 492 53 103 118 135
171 493 53 107 121 136
170 494 53 108 121 138
170 495 53 97 114 134
171 494 53 96 113 132
171 495 53 91 111 132
172 488 54 85 107 131
172 489 54 76 102 128
173 488 54 85 106 129
173 489 54 72 99 125
172 490 53 82 105 127
172 491 53 85 107 128
173 490 53 74 100 126
173 491 53 76 102 126
172 490 54 73 100 125
173 490 54 69 97 123
174 488 54 81 103 126
174 489 54 72 98 123
175 488 54 82 104 127
175 489 54 73 99 124
174 491 53 78 103 127
175 491 53 67 98 126
174 490 54 75 101 126
174 491 54 75 102 128
175 490 54 73 100 125
175 491 54 68 98 126
172 492 53 83 105 126
172 493 53 85 105 126
173 492 53 79 102 125
173 493 53 83 104 125
172 494 53 85 106 127
172 495 53 83 106 130
173 494 53 86 105 127
173 495 53 85 105 127
174 492 53 78 103 127
174 493 53 83 105 127
175 492 53 72 100 127
175 493 53 70 98 124
174 493 54 80 104 127
175 492 54 65 96 125
175 493 54 66 96 123
174 494 53 84 105 126
174 495 53 85 105 125
175 494 53 67 95 122
175 495 53 68 96 121
160 496 53 126 137 154
160 497 53 89 114 138
161 496 53 125 135 150
161 497 53 99 119 141
160 498 53 63 99 133
160 499 53 76 104 141
161 498 52 95 114 138
161 498 53 82 106 134
161 499 52 107 122 143
161 499 53 97 116 143
162 496 53 96 116 138
162 497 52 78 103 130
162 497 53 83 108 134
163 496 52 85 105 130
163 496 53 86 106 131
163 497 52 86 108 132
162 498 52 112 125 143
162 499 52 135 140 150
163 498 52 125 135 149
163 499 52 140 144 154
160 500 52 76 103 136
160 500 53 88 111 140
160 501 52 135 143 156
160 501 53 125 137 153
161 500 52 82 103 126
161 501 52 91 108 128
160 502 52 153 156 165
160 502 53 163 163 170
160 503 52 148 153 163
160 503 53 157 159 167
161 502 52 121 131 148
161 503 52 127 138 154
162 500 52 111 119 130
162 501 52 80 98 118
163 500 52 129 135 145
163 501 52 105 117 133
162 502 52 88 109 132
162 503 52 99 121 143
163 502 52 97 114 135
163 503 52 92 114 137
167 499 51 104 118 136
164 496 52 90 108 130
164 496 53 87 105 129
164 497 52 100 116 136
165 496 52 101 117 135
165 497 52 120 132 148
164 498 52 106 121 138
164 499 52 109 122 139
165 498 52 102 119 138
165 499 52 90 109 132
166 496 52 101 115 131
166 497 52 125 133 145
167 496 52 105 117 133
167 497 52 108 121 137
166 498 52 112 125 142
166 499 52 99 116 135
167 498 52 106 120 138
167 499 52 104 118 136
165 502 51 107 122 141
165 503 51 89 110 132
166 500 51 101 118 137
166 501 51 102 118 136
167 500 51 100 116 135
167 501 51 93 111 132
166 502 51 98 114 133
166 503 51 100 114 132
167 502 51 98 114 132
167 503 51 113 123 137
164 500 52 106 120 137
164 501 52 105 120 138
165 500 52 95 113 134
165 501 52 102 118 137
164 502 52 101 118 138
164 503 52 88 111 134
165 502 52 108 124 142
166 501 52 102 118 137
163 505 51 72 98 124
162 506 51 102 118 136
162 507 51 150 150 155
163 506 51 105 118 134
163 507 51 147 147 151
160 504 52 124 138 156
160 504 53 137 147 162
160 505 52 106 127 150
161 504 52 111 128 148
161 505 52 103 123 147
160 506 52 99 121 146
160 507 52 93 115 143
161 506 52 98 116 138
161 507 52 113 125 143
162 504 52 93 117 141
162 505 52 76 103 131
163 504 52 70 100 128
163 505 52 63 95 124
162 506 52 99 116 135
162 507 52 140 143 152
160 509 51 103 121 141
161 508 51 143 149 160
161 509 51 132 139 152
160 510 51 120 132 147
160 511 51 122 133 148
161 510 51 113 124 138
161 511 51 120 130 144
162 508 51 154 153 158
162 509 51 151 151 157
163 508 50 153 150 153
163 508 51 153 150 153
163 509 50 152 150 155
162 510 50 136 141 151
162 510 51 132 137 148
162 511 50 112 125 141
162 511 51 110 122 137
163 510 50 150 150 155
163 511 50 119 130 145
160 508 52 98 120 145
160 509 52 103 123 144
161 508 52 124 135 153
161 509 52 121 133 150
164 504 51 65 96 123
164 505 51 67 92 120
165 504 51 80 102 124
165 505 51 56 85 112
164 506 50 81 98 116
164 506 51 72 93 114
164 507 50 125 129 137
165 506 50 55 81 105
165 506 51 41 74 102
165 507 50 95 106 121
166 504 51 103 115 132
166 505 50 109 120 134
166 505 51 88 105 124
167 504 51 122 130 141
167 505 50 127 132 143
166 506 50 75 94 114
166 507 50 75 95 115
167 506 50 120 128 139
167 507 50 96 111 129
164 504 52 71 101 127
164 508 50 147 144 147
164 509 50 150 148 150
165 508 50 134 135 141
165 509 50 143 142 148
164 510 50 149 147 151
164 511 50 121 130 144
165 510 50 141 142 148
165 511 50 118 127 142
166 509 49 94 108 126
167 509 49 73 96 119
166 508 50 94 108 124
166 509 50 108 118 132
167 508 50 80 100 122
166 510 49 114 123 137
166 511 49 118 126 139
167 510 49 82 101 122
167 511 49 114 123 136
166 510 50 131 135 145
168 499 51 102 115 132
169 499 51 97 113 130
168 496 52 99 114 131
168 496 53 97 113 131
168 497 52 98 114 132
169 496 52 94 112 131
169 496 53 93 111 131
169 497 52 98 115 134
168 498 52 99 114 133
169 498 52 98 114 133
169 499 52 80 98 118
170 496 52 96 114 134
170 496 53 95 114 134
170 497 52 95 113 132
171 496 52 89 110 131
171 496 53 95 113 134
171 497 52 84 105 126
170 498 52 83 104 125
170 499 52 66 90 113
171 498 52 77 99 120
171 499 52 76 97 119
168 500 51 100 115 132
168 501 51 100 115 133
169 500 51 91 106 124
169 501 51 91 106 123
168 502 51 110 121 136
168 503 51 122 128 140
169 502 51 107 117 132
169 503 51 119 126 137
170 500 51 77 97 118
170 501 51 86 103 122
171 500 51 87 104 124
171 501 51 89 107 126
170 502 51 104 118 133
170 503 51 112 122 137
171 502 51 95 111 130
171 503 51 97 113 132
172 496 52 82 105 128
172 497 52 79 102 125
173 496 52 85 104 126
173 496 53 85 105 126
173 497 52 84 104 124
172 498 52 78 100 122
172 499 52 80 101 123
173 498 52 83 103 123
173 499 52 84 103 124
174 496 52 87 105 125
174 496 53 83 104 125
174 497 52 81 102 124
175 496 53 69 95 120
175 497 52 67 94 118
174 498 52 79 101 123
174 499 52 80 101 123
175 498 52 69 95 120
175 499 52 72 97 120
172 500 51 84 104 125
172 501 51 84 104 125
173 500 51 87 105 125
173 501 51 86 104 124
172 502 51 88 107 127
172 503 51 89 107 127
173 502 51 87 105 125
173 503 51 87 105 125
174 500 51 84 103 124
174 501 51 82 102 123
175 501 51 77 98 121
174 502 51 83 103 124
174 503 51 84 104 126
175 502 51 82 102 123
175 503 51 81 101 123
172 500 52 83 103 125
173 500 52 86 104 124
174 500 52 79 100 121
174 501 52 78 99 121
175 500 52 73 96 120
168 504 50 132 136 145
168 504 51 128 134 144
168 505 50 132 136 144
169 504 50 130 134 143
169 504 51 125 130 140
169 505 50 132 136 144
168 506 50 138 140 147
168 507 50 122 128 140
169 506 50 128 133 143
169 507 50 126 132 143
170 504 50 116 126 140
170 505 50 119 128 141
171 504 50 97 114 132
171 504 51 97 114 132
171 505 50 98 114 133
170 506 50 115 125 139
170 507 50 110 123 138
171 506 50 97 114 133
171 507 50 96 113 132
168 508 49 105 117 133
168 509 49 86 104 124
169 508 49 108 120 136
169 509 49 97 112 131
168 508 50 106 117 133
169 508 50 120 128 141
168 510 49 87 105 124
168 511 49 114 124 138
169 510 49 90 108 128
169 511 49 101 115 132
170 508 49 105 118 135
170 509 49 99 115 134
171 508 49 92 110 129
171 509 49 92 109 128
170 508 50 115 126 140
170 510 49 87 106 127
170 511 49 82 102 122
171 510 49 90 107 126
171 511 49 91 107 125
172 504 50 88 107 127
172 504 51 89 107 126
172 505 50 88 107 127
173 504 50 88 106 126
173 504 51 88 105 126
173 505 50 88 106 126
172 506 50 87 106 128
172 507 50 86 106 128
173 506 50 87 106 127
173 507 50 88 107 128
174 504 50 81 103 126
174 504 51 83 104 126
174 505 50 79 101 124
175 504 50 76 99 121
175 504 51 79 100 122
175 505 50 74 97 120
174 506 50 82 102 124
174 507 50 83 102 124
175 506 50 74 96 120
175 507 50 77 98 119
172 508 49 86 106 127
172 509 49 89 107 127
173 508 49 90 107 128
173 509 49 90 108 128
172 510 49 89 106 126
172 511 49 89 105 126
173 510 49 88 106 127
173 511 49 87 105 127
174 508 49 82 102 124
174 509 49 80 101 124
175 508 49 78 98 120
175 509 49 81 100 122
174 510 49 80 101 123
174 511 49 77 98 122
175 510 49 84 102 123
175 511 49 85 102 122
176 483 55 85 99 114
177 483 55 104 112 124
178 483 55 122 128 139
179 483 55 117 126 139
176 484 55 81 99 118
176 485 55 83 102 121
177 484 55 109 119 134
177 485 55 110 122 138
176 486 54 88 107 127
176 486 55 87 106 126
176 487 54 89 107 128
177 486 54 91 109 128
177 486 55 94 111 130
177 487 54 87 105 126
178 484 55 123 131 144
178 485 55 112 123 137
179 484 55 103 116 132
179 485 55 89 106 125
178 486 55 87 106 125
178 487 54 81 102 123
178 487 55 79 101 122
179 486 55 80 100 120
179 487 55 80 101 123
180 484 55 82 103 124
180 485 55 75 96 118
181 484 55 76 100 123
181 485 55 77 99 121
180 486 55 79 100 121
180 487 55 80 101 123
181 486 55 81 102 123
181 487 55 77 100 123
182 485 55 73 96 119
182 486 55 84 103 123
182 487 55 78 100 123
183 486 55 84 103 123
183 487 55 77 97 120
176 480 56 127 127 132
176 480 57 129 129 133
176 481 56 121 123 129
176 481 57 125 126 130
177 480 57 128 130 136
177 481 56 120 122 128
177 481 57 118 121 128
176 482 56 111 117 126
176 483 56 95 105 117
177 482 56 102 110 119
177 483 56 107 114 125
178 480 57 117 123 132
178 481 56 103 112 122
178 481 57 111 117 127
179 480 56 103 114 127
179 480 57 106 116 128
179 481 56 112 120 130
179 481 57 111 119 130
178 482 56 114 120 129
178 483 56 125 131 141
179 482 56 123 128 138
179 483 56 123 129 141
180 480 56 101 113 127
180 480 57 98 111 126
180 481 56 105 115 129
181 480 56 84 102 119
181 480 57 77 98 118
181 481 56 86 104 124
180 482 56 107 117 132
180 483 56 98 113 129
181 482 56 84 106 127
181 483 56 75 101 124
182 480 56 84 103 122
182 480 57 79 101 123
182 481 56 85 105 125
182 481 57 81 104 126
183 480 57 73 99 123
183 481 57 71 97 121
182 482 56 77 101 125
182 483 56 68 96 121
183 482 56 66 91 114
183 482 57 71 95 118
183 483 56 61 88 112
181 484 56 74 99 124
182 484 56 67 93 119
182 485 56 73 95 118
183 484 56 68 92 116
183 485 56 78 99 121
183 486 56 86 104 124
183 487 56 80 99 121
176 488 54 80 103 127
176 489 54 69 95 122
177 488 54 77 100 123
177 489 54 66 92 118
176 490 54 68 96 122
176 491 54 66 96 123
177 490 54 70 95 119
177 491 54 74 99 122
178 488 54 73 96 120
178 489 54 59 86 113
179 488 55 67 93 117
179 489 54 54 83 112
179 489 55 55 83 112
178 490 54 74 97 121
178 491 54 77 100 122
179 490 54 65 92 117
179 491 54 76 100 123
176 493 53 67 95 120
177 493 53 77 99 122
176 492 54 67 96 123
176 493 54 67 94 121
177 492 54 77 100 123
177 493 54 74 97 121
176 494 53 66 94 120
176 495 53 68 94 119
177 494 53 79 100 122
177 495 53 87 104 124
176 494 54 68 94 120
178 493 53 81 101 123
179 493 53 90 107 126
178 492 54 76 99 120
178 493 54 77 99 121
179 492 54 84 104 126
179 493 54 85 105 125
178 494 53 89 106 125
178 495 53 95 108 126
179 494 53 98 112 128
179 495 53 106 116 131
180 488 55 66 92 116
180 489 54 57 83 111
180 489 55 61 85 113
181 488 55 66 91 116
181 489 55 66 88 114
180 490 54 74 96 119
180 491 54 79 101 123
181 490 54 79 99 119
181 490 55 75 96 118
181 491 54 81 100 120
182 488 55 65 90 117
182 489 55 60 82 111
183 488 55 61 88 115
183 489 55 61 85 113
182 490 54 75 95 116
182 490 55 69 90 114
182 491 54 93 108 124
183 490 55 76 97 119
183 491 54 112 120 132
183 491 55 94 109 126
180 493 53 115 125 138
181 493 53 119 126 137
180 492 54 95 110 127
180 493 54 107 118 132
181 492 54 110 118 130
181 493 54 124 129 137
180 494 53 119 126 138
180 495 53 119 125 135
181 494 53 129 132 140
181 495 53 127 130 137
182 492 54 126 129 137
182 493 54 137 136 139
183 492 54 132 133 138
183 493 54 138 135 137
182 494 53 136 136 139
182 495 53 134 134 138
183 495 53 136 135 138
182 494 54 137 136 139
183 494 54 139 136 138
184 480 57 66 93 118
184 481 57 73 97 119
185 480 57 76 97 119
185 481 57 81 101 121
185 480 58 86 103 123
185 481 58 89 106 125
184 482 57 78 97 118
184 483 56 71 94 117
184 483 57 81 101 122
185 482 57 81 101 123
185 483 57 78 100 123
186 480 58 94 110 128
186 481 58 89 107 126
187 480 58 91 108 127
187 481 58 89 107 127
186 482 57 84 104 125
186 483 57 86 106 127
187 483 57 95 112 131
186 482 58 86 105 126
187 482 58 91 108 128
187 483 58 99 115 134
184 484 56 81 102 123
184 484 57 82 104 125
184 485 56 84 104 125
185 484 57 80 102 123
185 485 56 88 106 125
185 485 57 87 105 125
184 486 56 88 105 126
184 487 56 77 96 121
185 486 56 90 108 126
185 487 56 77 96 119
186 484 57 88 108 128
186 485 57 92 110 128
187 484 57 93 111 130
187 485 57 91 110 129
186 486 56 87 106 126
186 486 57 90 109 129
186 487 56 67 92 117
187 486 56 84 105 127
187 486 57 88 109 129
187 487 56 60 89 115
188 480 58 91 108 127
188 480 59 96 113 131
188 481 58 100 115 133
188 481 59 102 117 134
189 480 59 97 113 131
189 481 59 102 117 134
188 482 58 100 114 133
188 483 58 95 111 131
189 482 58 98 114 132
189 482 59 100 115 132
189 483 58 91 109 130
190 480 59 99 115 133
190 481 59 102 117 134
191 480 59 100 116 135
191 481 59 96 113 132
190 482 59 97 113 131
190 483 58 83 104 125
190 483 59 76 98 120
191 482 59 85 105 126
191 483 59 72 97 120
188 484 57 86 107 128
188 485 57 84 105 127
189 485 57 76 100 122
188 484 58 84 105 126
189 484 58 81 104 126
189 485 58 75 99 121
188 486 57 78 100 124
188 487 56 63 90 117
188 487 57 67 92 118
189 486 57 77 97 120
189 487 57 67 92 116
190 484 58 73 99 122
190 485 58 78 100 121
191 484 58 80 102 123
191 484 59 80 101 123
191 485 58 89 107 125
190 486 57 80 98 118
190 487 57 73 95 116
191 487 57 72 96 119
190 486 58 82 100 119
191 486 58 84 103 122
191 487 58 69 95 118
184 488 55 51 81 111
184 489 55 61 86 113
185 489 55 75 94 120
184 490 55 90 105 124
184 491 55 112 121 132
185 490 55 96 109 126
185 491 55 115 122 133
186 489 55 75 96 121
186 490 55 96 110 126
186 491 55 119 123 132
187 490 55 100 112 126
187 491 55 122 125 131
184 492 54 132 132 135
184 492 55 126 129 136
184 493 54 137 134 135
185 492 54 132 131 134
185 492 55 129 130 135
185 493 54 133 131 133
184 495 53 133 133 137
185 495 53 126 128 133
184 494 54 137 134 136
184 495 54 135 134 137
185 494 54 131 131 134
185 495 54 127 128 133
186 492 54 128 127 131
186 492 55 128 128 133
186 493 54 127 127 131
187 492 55 124 125 129
187 493 54 122 124 130
186 495 53 127 128 134
186 494 54 125 126 131
186 495 54 125 127 131
187 494 54 122 123 129
187 495 54 121 122 126
188 490 55 103 114 126
188 491 55 122 124 129
189 491 55 123 124 129
188 492 55 124 124 128
188 493 54 118 122 130
188 493 55 115 120 128
189 492 55 124 124 128
189 493 55 111 117 127
188 494 54 113 118 126
188 495 54 113 116 121
189 494 54 103 111 122
189 494 55 101 110 122
189 495 54 108 113 122
190 492 55 118 120 125
190 493 55 107 113 123
191 493 55 106 113 122
190 494 54 104 111 122
190 494 55 103 111 121
190 495 54 113 118 126
191 494 55 104 112 123
191 495 54 117 120 127
191 495 55 112 117 125
184 488 56 59 84 116
185 488 56 49 80 111
185 489 56 60 86 115
186 488 56 46 80 110
186 489 56 65 92 117
187 488 56 49 83 112
187 489 56 77 100 123
187 490 56 95 110 126
188 488 56 56 85 113
188 489 56 82 101 122
189 488 56 61 88 115
189 488 57 60 88 115
189 489 56 85 103 123
188 490 56 98 111 125
189 490 56 100 112 125
189 491 56 121 124 130
190 488 57 57 86 113
190 489 56 84 101 120
190 489 57 78 96 117
191 488 57 47 82 111
191 489 57 70 91 113
190 490 56 105 114 126
190 491 56 124 125 131
191 490 56 121 124 131
191 490 57 106 114 125
191 491 56 124 125 130
190 492 56 121 122 125
191 492 56 115 118 124
191 493 56 106 113 122
176 496 53 71 95 120
176 497 52 73 96 120
176 497 53 72 95 119
177 496 53 88 105 124
177 497 52 83 102 123
177 497 53 85 102 123
176 498 52 80 100 123
176 499 52 84 103 124
177 498 52 88 105 126
177 499 52 93 109 127
178 496 53 94 108 125
178 497 52 84 103 122
178 497 53 90 106 124
179 496 53 107 117 131
179 497 52 107 118 131
179 497 53 106 117 131
178 498 52 88 106 125
178 499 52 95 111 129
179 498 52 108 118 131
179 499 52 110 120 134
176 500 51 85 102 122
176 501 51 88 105 124
177 501 51 88 105 124
176 502 51 89 105 124
176 503 51 88 104 122
177 502 51 86 103 123
177 503 51 89 105 123
178 501 51 82 101 122
178 502 51 86 103 123
178 503 51 94 107 123
179 502 51 101 111 125
179 503 51 109 117 128
176 500 52 92 107 126
177 500 52 92 108 126
177 501 52 83 102 122
178 500 52 95 110 127
178 501 52 92 106 124
179 500 52 106 116 131
179 501 52 99 112 128
179 502 52 93 107 122
180 496 53 120 126 135
180 497 52 117 125 136
180 497 53 117 125 136
181 496 53 123 127 136
181 497 52 121 126 136
180 498 52 112 122 135
180 499 52 113 123 136
181 498 52 111 119 131
181 499 52 96 110 126
182 496 53 124 128 135
182 497 52 115 122 133
183 496 53 128 130 136
183 497 52 108 118 130
183 497 53 113 120 131
182 498 52 96 109 124
182 499 52 62 87 109
183 498 52 82 100 119
183 499 52 66 90 112
180 501 51 90 105 122
181 501 51 92 106 121
180 502 51 104 114 127
180 503 51 126 129 137
181 502 51 122 127 135
181 503 51 137 136 140
182 501 51 114 120 129
183 501 51 123 126 134
182 502 51 137 137 141
182 503 51 139 137 140
183 502 51 138 136 140
183 503 51 137 136 138
180 500 52 99 112 129
180 501 52 84 103 121
181 500 52 72 92 112
181 501 52 77 97 116
182 500 52 60 85 106
183 500 52 78 97 115
176 504 50 85 102 121
176 504 51 92 106 123
176 505 50 90 105 123
177 504 50 92 106 123
177 504 51 92 106 123
177 505 50 93 107 123
176 506 50 88 103 121
176 507 50 86 102 121
177 506 50 90 104 121
177 507 50 83 101 121
178 504 50 99 110 125
178 504 51 98 110 124
178 505 50 103 113 127
179 504 50 117 123 133
179 504 51 121 125 134
179 505 50 124 127 135
178 507 49 92 106 122
179 507 49 97 108 122
178 506 50 105 114 126
178 507 50 92 106 122
179 506 50 120 124 133
179 507 50 105 114 125
176 508 49 87 104 123
176 509 49 84 101 122
177 508 49 81 101 122
177 509 49 73 96 119
176 510 49 83 100 120
176 511 48 95 108 124
176 511 49 91 105 122
177 510 49 75 96 118
177 511 48 97 109 124
177 511 49 89 104 122
178 508 49 88 106 125
178 509 49 73 96 120
179 508 49 91 105 122
179 509 49 72 93 115
178 510 49 65 89 113
178 511 48 97 108 122
178 511 49 87 102 119
179 510 49 66 89 111
179 511 48 103 112 125
179 511 49 94 106 121
180 504 51 135 135 140
180 505 50 135 135 140
181 504 51 140 137 139
181 505 50 139 137 139
180 507 49 97 109 123
180 506 50 128 131 137
180 507 50 114 120 130
181 506 50 131 131 137
181 507 50 105 115 128
182 504 50 137 135 137
182 504 51 140 137 139
182 505 50 136 135 137
183 504 50 134 134 138
183 504 51 136 135 138
183 505 50 130 130 135
182 506 50 127 128 134
182 507 50 93 108 123
183 506 50 120 124 132
183 507 50 86 102 119
180 508 49 91 106 123
180 509 49 75 94 115
181 508 49 83 101 120
181 509 49 84 101 119
180 510 49 76 93 111
180 511 48 122 126 135
180 511 49 98 108 121
181 510 49 90 103 118
181 511 48 134 134 138
181 511 49 119 122 130
182 508 49 83 102 121
182 509 49 96 110 126
183 508 49 92 107 125
183 509 49 97 111 128
182 510 49 96 106 119
182 511 48 130 131 136
182 511 49 120 123 131
183 510 49 95 108 123
183 511 48 117 122 134
183 511 49 106 115 127
184 496 53 130 130 135
184 497 52 104 115 128
184 497 53 112 120 131
185 496 53 127 128 134
185 497 53 105 114 125
184 498 52 82 100 117
184 499 52 82 100 119
185 498 52 91 105 120
185 498 53 95 106 119
185 499 52 92 106 123
186 496 53 124 127 133
186 497 53 108 114 124
187 496 53 117 120 127
187 497 53 116 119 125
187 496 54 121 123 128
186 498 52 107 114 123
186 498 53 107 113 123
186 499 52 110 117 126
187 498 52 120 122 128
187 498 53 118 120 126
187 499 52 122 124 130
184 501 51 125 127 133
185 501 51 122 124 130
184 502 51 133 132 136
184 503 51 133 132 135
185 502 51 129 128 131
185 503 51 128 127 130
186 501 51 116 118 125
187 501 51 111 116 123
186 502 51 120 122 128
186 503 51 123 125 131
187 502 51 108 114 123
187 503 51 107 115 125
184 500 52 94 107 122
185 500 52 104 114 126
185 501 52 114 120 129
186 500 52 113 118 127
186 501 52 117 120 126
187 500 52 119 122 128
187 501 52 114 118 125
188 496 53 123 123 128
188 497 53 125 125 128
189 496 53 126 125 129
189 497 53 130 129 131
188 496 54 120 121 126
189 496 54 122 122 127
188 498 52 129 128 131
188 498 53 128 127 130
188 499 52 130 129 132
189 498 52 133 131 132
189 498 53 132 130 131
189 499 52 132 130 132
190 497 53 131 130 132
191 497 53 128 128 131
190 496 54 127 127 130
191 496 54 125 126 130
191 497 54 125 126 130
190 498 53 132 130 131
190 499 52 131 129 131
191 498 53 127 127 131
191 499 52 126 127 131
191 499 53 125 126 130
188 501 51 108 114 123
189 501 51 114 118 126
188 502 51 102 109 120
188 503 51 99 108 120
189 502 51 108 113 122
189 503 51 104 111 121
190 501 51 119 122 129
190 502 51 111 116 124
190 503 51 110 115 124
191 502 51 111 118 128
191 503 51 113 119 128
188 500 52 124 125 130
188 501 52 112 117 124
189 500 52 128 127 131
189 501 52 119 121 127
190 500 52 127 127 131
190 501 52 121 123 129
191 500 52 121 123 130
191 501 52 116 120 128
184 504 51 130 129 134
184 505 50 120 124 132
185 504 50 117 123 132
185 504 51 121 124 130
185 505 50 107 115 127
185 507 49 108 116 126
184 506 50 102 113 126
184 507 50 82 99 118
185 506 50 89 104 120
185 507 50 93 105 120
186 504 50 109 117 128
186 504 51 113 118 128
186 505 50 102 112 125
187 504 50 104 111 121
187 504 51 101 109 121
187 505 50 107 114 124
186 507 49 125 127 133
187 507 49 137 135 137
186 506 50 99 110 123
186 507 50 113 119 128
187 506 50 117 121 129
187 507 50 131 131 135
184 508 49 98 110 124
184 509 49 107 117 129
185 508 49 117 121 129
185 509 49 129 130 135
184 510 49 102 114 129
184 511 48 88 105 124
184 511 49 92 108 125
185 510 49 116 123 133
185 511 48 71 94 118
185 511 49 86 105 123
186 508 49 133 132 135
186 509 49 136 134 136
187 508 49 137 135 136
187 509 49 135 135 139
186 510 49 121 126 135
186 511 48 81 101 120
186 511 49 83 102 121
187 510 49 122 127 137
187 511 48 88 104 121
187 511 49 94 108 125
188 504 50 102 109 117
188 504 51 92 103 114
188 505 50 117 120 127
189 504 50 114 117 124
189 504 51 101 107 116
189 505 50 128 128 133
188 506 50 129 130 134
188 507 50 136 134 135
189 506 50 134 133 136
189 507 50 135 133 135
190 504 51 112 116 124
190 505 50 129 129 134
191 504 51 110 115 123
191 505 50 121 123 129
190 506 50 132 132 135
190 507 50 128 128 133
191 506 50 121 125 132
191 507 50 119 123 132
188 508 49 135 133 136
188 509 49 130 131 136
189 508 49 126 127 133
189 509 49 119 122 129
188 510 49 116 122 131
188 511 48 111 118 128
189 510 49 121 124 131
189 511 48 134 135 139
189 511 49 132 133 137
190 508 49 120 123 129
190 509 49 124 126 132
191 508 49 123 124 130
191 509 49 129 128 132
190 508 50 122 124 130
191 508 50 120 122 128
190 510 49 132 132 136
190 511 48 140 137 137
190 511 49 139 136 138
191 510 49 134 132 134
191 511 48 132 132 136
191 511 49 134 133 136
