ply
format ascii 1.0
comment Version 2, Copyright 2017, 8i Labs, Inc.
comment frame_to_world_scale 0.179523
comment frame_to_world_translation -45.2095 7.18301 -54.3561
comment width 1023
element vertex 882
property float x
property float y
property float z
property uchar red
property uchar green
property uchar blue
end_header
223 29 256 129 110 96
223 29 257 128 108 92
223 29 258 127 106 90
222 31 256 131 115 103
223 30 256 129 111 98
223 30 257 129 109 94
223 31 256 130 113 100
223 31 257 130 112 98
223 30 258 128 108 91
223 31 258 119 99 82
222 32 256 131 116 105
222 33 256 133 119 110
223 32 256 129 113 101
223 32 257 131 113 100
223 33 256 135 120 109
223 33 257 135 119 107
223 32 258 128 110 95
222 34 256 142 128 120
222 35 256 148 136 129
223 34 256 141 126 116
223 34 257 138 123 112
223 35 256 151 136 127
223 35 257 149 134 125
222 36 256 151 138 132
222 37 256 149 138 132
223 36 256 154 141 133
223 36 257 155 141 133
223 37 256 153 140 134
223 37 257 156 142 135
222 38 256 146 135 130
222 39 256 142 132 127
223 38 256 152 140 135
223 38 257 155 142 136
223 39 256 149 138 133
222 40 256 137 126 122
222 41 256 124 117 115
223 40 256 145 134 129
223 41 256 132 123 120
222 42 256 116 106 100
223 42 256 119 110 106
223 43 256 133 117 108
231 23 259 115 96 80
230 23 260 118 97 80
230 23 261 118 97 80
231 23 260 117 97 80
231 23 261 117 97 80
230 23 262 118 97 80
231 23 262 118 97 79
225 27 256 126 106 90
225 27 257 125 103 86
225 27 258 124 101 84
225 27 259 123 99 81
227 25 259 120 97 79
226 26 256 123 102 86
226 26 257 122 101 84
226 27 256 124 104 89
226 27 257 124 102 86
227 26 256 121 101 84
227 26 257 121 99 82
227 27 256 122 102 86
226 26 258 122 100 82
226 26 259 122 99 80
226 27 258 123 101 84
226 27 259 123 99 81
227 26 258 121 98 81
227 26 259 120 98 80
225 27 260 124 99 80
227 25 260 120 97 78
227 25 261 120 96 77
226 26 260 122 97 78
226 26 261 122 96 77
226 27 260 123 98 79
226 27 261 123 96 77
227 26 260 121 97 78
227 26 261 121 96 76
227 27 261 123 96 77
227 26 262 120 95 75
227 27 262 121 93 73
224 28 256 127 108 93
224 28 257 126 105 89
224 29 256 128 109 94
224 29 257 127 107 91
225 28 256 126 106 91
225 28 257 125 105 88
224 28 258 126 104 87
224 28 259 126 103 85
224 29 258 127 105 88
224 29 259 126 103 86
225 28 258 125 103 85
225 28 259 125 101 83
225 29 259 125 102 83
224 30 258 124 104 86
224 30 259 121 97 78
224 31 258 122 100 80
224 31 259 121 93 76
225 30 259 120 93 75
225 31 259 122 92 76
225 28 260 125 101 82
225 29 260 125 101 82
225 30 260 119 91 72
226 28 260 124 99 80
226 28 261 123 96 77
226 29 260 125 103 84
226 29 261 124 97 80
227 28 261 126 94 79
227 29 261 127 93 82
227 28 262 135 91 85
226 30 260 116 85 66
226 30 261 119 87 70
226 31 260 123 89 73
227 30 260 123 84 70
227 30 261 125 86 75
227 31 260 129 91 77
228 25 257 118 97 81
229 25 256 117 96 81
229 25 257 117 96 80
228 25 258 119 97 80
228 25 259 118 97 79
229 24 259 117 96 79
229 25 258 117 96 80
229 25 259 118 96 79
228 26 256 119 98 82
228 26 257 119 98 81
229 26 256 118 97 81
230 24 257 115 95 79
230 25 256 115 95 80
230 25 257 116 95 79
231 24 256 114 94 78
231 24 257 114 95 79
231 25 256 114 94 78
230 24 258 116 96 79
230 24 259 117 96 80
230 25 258 116 96 79
231 24 258 115 95 79
231 24 259 116 96 80
228 24 260 119 96 78
228 24 261 119 96 78
228 25 260 119 97 78
228 25 261 120 96 78
229 24 260 118 97 79
229 24 261 119 97 79
228 24 262 120 97 77
228 25 262 120 96 76
229 24 262 119 97 78
229 25 263 121 97 76
228 26 262 120 94 74
228 26 263 121 95 73
228 27 262 127 95 76
228 27 263 141 110 93
229 26 263 123 97 73
229 27 263 140 110 91
230 24 260 117 97 80
230 24 261 118 97 79
230 24 262 119 98 79
230 24 263 120 98 78
230 25 263 122 100 78
231 24 262 118 97 78
231 24 263 120 99 79
231 25 263 123 102 80
230 26 263 124 100 76
230 27 263 130 100 79
228 29 261 136 91 86
228 28 262 137 95 88
228 29 262 139 94 89
229 28 262 143 101 91
229 28 263 139 100 86
229 29 262 146 103 94
228 30 261 136 95 87
228 31 260 133 94 82
228 31 261 134 95 85
229 30 261 144 104 95
229 31 261 141 104 93
229 30 262 147 106 97
230 28 263 135 97 80
230 29 262 151 110 98
230 29 263 148 107 93
231 28 263 132 95 77
231 29 263 148 108 93
230 30 261 149 110 98
230 31 261 149 111 97
231 31 261 155 116 99
230 30 262 153 114 100
231 30 262 156 113 100
231 30 263 155 112 99
231 31 262 155 114 100
231 25 264 125 103 80
230 26 264 134 113 91
230 27 264 127 101 78
231 26 264 135 115 95
231 27 264 122 97 74
233 23 257 112 93 78
232 23 258 114 95 79
232 23 259 115 96 80
233 23 258 113 94 79
233 23 259 114 95 80
234 23 256 110 91 76
234 23 257 111 93 77
235 22 257 110 92 76
235 23 256 110 91 75
235 23 257 110 91 76
234 22 258 111 93 78
234 22 259 112 94 79
234 23 258 112 93 78
234 23 259 113 94 79
235 22 258 111 92 77
235 22 259 111 93 78
232 23 260 116 96 80
232 23 261 116 97 80
233 23 260 115 96 80
233 23 261 115 96 79
232 23 262 116 96 78
233 23 262 114 95 77
234 22 260 113 94 80
234 23 260 113 95 80
234 23 261 113 94 78
235 22 260 111 93 79
235 22 261 111 93 78
235 23 261 109 91 75
234 23 262 110 91 72
235 23 262 106 87 69
238 19 259 109 91 76
239 19 258 110 91 76
239 19 259 110 91 76
238 19 260 109 91 76
239 19 260 110 91 76
237 21 257 110 91 76
236 21 258 110 91 77
236 21 259 110 92 77
237 20 259 110 91 77
237 21 258 110 91 76
237 21 259 110 91 77
236 22 256 110 90 75
236 22 257 110 91 76
236 23 256 109 90 74
237 22 256 109 90 74
237 22 257 110 91 75
236 22 258 110 92 77
236 22 259 110 92 77
238 20 257 109 90 75
238 21 256 109 90 75
238 21 257 109 91 75
239 20 257 109 90 75
239 21 256 109 90 74
238 20 258 109 91 76
238 20 259 109 91 76
238 21 258 110 91 76
239 20 258 110 91 75
238 22 256 109 89 74
239 22 256 108 89 73
236 21 260 110 92 77
237 20 260 109 91 77
237 21 260 109 91 77
237 21 261 109 90 77
236 22 260 110 92 78
236 22 261 108 90 76
237 22 261 105 87 72
236 23 262 102 82 64
237 22 262 100 80 64
237 23 262 94 71 54
238 20 260 109 91 77
238 20 261 109 91 77
238 21 261 109 91 77
239 20 261 110 91 77
239 21 261 109 91 77
238 22 261 105 86 72
239 22 261 104 84 68
238 22 262 101 81 64
238 23 262 102 80 63
239 22 262 103 83 65
239 23 262 107 84 68
232 24 256 113 93 78
232 24 257 114 94 78
232 25 256 113 93 77
233 24 256 112 92 77
233 24 257 112 93 78
232 24 258 114 95 79
234 24 256 111 92 76
232 24 262 116 96 78
232 24 263 119 99 78
232 25 263 129 107 87
233 24 262 114 94 75
233 24 263 117 97 78
233 25 263 129 108 88
232 27 263 118 86 64
233 26 263 126 106 84
233 27 263 116 86 64
234 24 262 112 92 73
234 24 263 118 98 78
234 25 263 126 105 83
235 24 262 117 94 75
235 25 263 117 93 72
234 26 263 113 88 62
234 27 263 120 87 67
235 26 263 111 80 56
235 27 263 122 82 63
232 28 263 132 95 77
232 29 263 148 105 90
233 28 263 133 96 80
233 29 263 147 104 90
232 31 261 156 114 97
233 31 261 156 112 93
232 30 262 155 110 96
232 30 263 154 110 96
232 31 262 155 112 97
233 30 262 153 107 93
233 31 262 154 110 93
234 28 263 135 96 80
234 29 262 145 101 87
234 29 263 144 102 88
235 28 262 135 92 75
235 28 263 133 90 74
235 29 262 141 98 80
234 30 261 151 109 89
234 31 261 154 111 90
235 30 261 147 107 85
235 31 260 151 113 89
235 31 261 151 113 90
234 30 262 150 106 89
235 30 262 146 103 85
236 24 262 109 81 61
236 25 262 109 77 56
236 25 263 109 76 55
237 24 262 102 75 57
237 25 262 112 79 60
236 26 263 114 77 55
236 27 262 135 93 74
236 27 263 126 84 65
237 26 262 128 87 69
237 26 263 122 82 62
237 27 262 140 100 80
238 24 262 109 84 64
238 25 262 120 88 67
239 24 262 114 87 68
239 25 262 124 92 71
238 26 262 137 98 79
238 27 262 151 112 92
239 26 262 142 102 83
239 27 262 153 113 93
237 31 259 140 102 81
238 30 259 149 112 94
238 31 259 145 107 91
239 30 259 138 99 75
239 31 258 141 102 84
239 31 259 145 108 91
236 29 261 147 108 87
237 29 261 155 117 97
236 28 262 138 96 77
236 29 262 143 102 82
237 28 262 151 112 93
237 29 262 152 113 93
236 30 260 145 107 84
236 30 261 146 108 85
236 31 260 146 109 84
237 30 260 149 110 89
237 30 261 152 113 93
237 31 260 143 105 81
238 28 261 156 119 98
238 29 260 149 113 87
238 29 261 154 116 94
239 28 261 153 119 92
239 29 260 147 114 86
238 28 262 156 119 99
238 30 260 150 112 91
239 30 260 142 104 78
232 25 264 125 102 80
232 26 264 134 114 95
232 27 264 115 89 65
233 26 264 117 94 71
240 19 258 110 91 75
240 19 259 110 91 76
241 19 258 110 91 75
241 19 259 110 91 75
242 19 258 110 91 75
242 19 259 110 91 75
240 19 260 110 91 76
241 19 260 110 91 76
240 20 257 110 90 75
240 21 256 109 89 74
241 20 256 109 90 74
241 20 257 110 91 75
241 21 256 109 89 73
242 20 256 110 90 73
242 20 257 110 90 74
242 21 256 109 89 73
243 20 256 110 90 73
243 20 257 110 90 73
243 21 256 110 89 72
242 20 259 110 91 75
243 20 258 110 91 74
243 20 259 110 91 75
243 21 259 110 91 75
240 20 260 110 91 76
240 20 261 110 91 76
240 21 261 109 91 76
241 20 260 110 91 76
241 21 260 109 90 74
241 21 261 109 91 76
240 22 261 106 85 68
240 23 261 107 82 63
241 22 261 107 86 67
241 23 261 112 85 64
240 23 262 110 83 65
242 20 260 110 91 76
242 21 260 110 91 75
243 21 260 110 91 75
242 22 260 107 86 66
242 22 261 108 86 62
242 23 261 114 88 63
243 22 260 107 87 66
243 23 261 114 91 64
244 20 256 110 89 72
244 20 257 110 90 72
244 21 256 110 89 72
244 21 257 110 90 72
245 21 256 110 89 72
245 21 257 110 89 72
244 20 258 110 90 73
244 20 259 110 90 73
244 21 258 110 90 73
244 21 259 110 90 73
245 21 258 110 90 72
245 21 259 110 90 72
244 22 259 108 88 69
245 22 258 107 86 66
245 22 259 107 86 66
246 21 256 111 89 72
246 21 257 110 89 72
246 21 258 107 86 66
246 22 256 111 89 71
246 22 257 109 86 66
247 22 256 111 88 68
247 22 257 109 85 63
247 23 256 112 88 66
247 23 257 112 88 64
246 22 258 107 86 65
246 22 259 108 86 64
246 23 259 113 90 64
247 22 258 106 83 60
247 23 258 114 89 65
247 23 259 115 91 65
244 22 260 108 87 65
244 23 260 113 91 65
244 23 261 116 93 64
245 22 260 108 87 64
245 23 260 116 93 66
246 23 260 113 90 64
240 24 262 116 87 67
240 25 262 127 94 72
241 24 262 119 89 66
241 25 262 128 94 72
241 27 261 156 121 104
240 26 262 141 102 83
240 27 262 154 115 96
241 26 262 140 101 82
241 27 262 151 112 96
242 24 261 117 89 60
243 24 261 120 93 62
242 24 262 120 90 63
242 25 262 127 93 69
243 24 262 121 91 61
243 25 262 127 93 65
242 27 261 148 116 94
243 27 261 142 113 91
242 26 262 138 100 81
242 27 262 147 109 92
243 26 262 137 99 80
243 27 262 143 109 91
240 29 259 149 120 97
241 29 259 149 124 101
241 31 257 143 108 87
240 30 258 137 99 75
240 30 259 141 108 83
240 31 258 136 97 75
241 30 258 143 113 90
241 30 259 146 118 95
241 31 258 142 107 86
242 29 258 130 104 75
242 29 259 133 109 82
243 28 259 124 102 79
243 29 258 127 103 77
243 29 259 126 103 79
242 30 257 136 104 79
242 31 257 140 106 83
243 30 257 135 107 82
243 31 257 140 107 83
242 30 258 135 106 79
243 30 258 132 108 81
240 28 260 156 127 102
240 28 261 157 126 103
240 29 260 150 122 96
241 28 260 156 130 107
241 28 261 161 131 111
241 29 260 156 131 107
242 28 260 141 115 91
242 28 261 148 119 96
242 29 260 145 120 95
243 28 260 131 108 85
243 28 261 138 113 90
247 24 258 117 92 66
247 24 259 123 97 66
247 25 259 129 103 72
246 27 259 141 112 86
247 26 259 145 115 89
247 27 258 155 123 98
247 27 259 151 119 93
244 24 261 121 95 63
244 25 261 127 96 65
245 24 260 122 96 65
245 24 261 124 97 65
245 25 261 129 100 67
244 25 262 129 94 66
244 27 261 130 102 78
245 26 261 135 103 74
245 27 260 113 84 46
245 27 261 128 96 65
244 26 262 135 100 77
244 27 262 137 106 85
245 26 262 135 102 76
246 24 260 124 97 63
246 25 260 134 105 68
246 25 261 133 104 70
247 24 260 125 95 55
247 25 260 135 107 73
246 26 260 144 114 83
246 26 261 137 106 75
246 27 260 129 99 67
247 26 260 145 115 83
247 27 260 145 116 88
244 29 257 130 106 84
245 29 257 119 90 67
244 28 259 114 92 66
244 29 258 122 97 75
244 29 259 120 96 72
245 28 258 107 79 52
245 28 259 104 78 50
245 29 258 112 84 61
244 30 257 135 107 84
244 31 256 141 107 84
244 31 257 139 107 84
245 30 256 134 102 78
245 30 257 133 103 78
245 31 256 142 106 85
246 28 257 143 116 93
246 29 256 141 111 89
246 29 257 132 103 79
247 28 257 154 123 100
247 29 256 150 121 98
247 29 257 148 121 98
246 28 258 131 102 78
246 28 259 117 88 66
246 29 258 116 88 58
247 28 258 153 124 101
246 30 256 138 105 81
246 30 257 128 96 72
246 31 256 143 107 86
247 30 256 144 114 90
244 28 260 114 92 66
244 28 261 128 105 80
245 28 260 101 75 42
246 28 260 106 75 45
248 23 256 113 87 65
248 24 256 116 90 68
248 24 257 117 91 67
248 25 256 119 91 71
248 25 257 120 93 70
249 25 256 120 92 72
248 24 258 119 93 66
248 25 258 123 96 70
248 25 259 125 98 70
248 26 257 134 94 80
248 27 256 151 109 91
248 27 257 153 111 93
249 26 256 128 90 76
249 27 256 144 99 84
248 26 258 139 102 84
248 26 259 143 110 87
248 27 258 155 118 96
248 28 256 152 114 96
248 29 256 150 118 96
249 28 256 147 107 93
224 32 258 129 109 90
224 32 259 128 106 87
224 33 258 134 117 102
224 33 259 131 110 93
225 32 259 130 104 87
225 33 259 132 109 94
224 34 257 141 125 115
224 35 257 147 132 122
224 34 258 138 121 108
224 35 258 146 130 120
225 34 258 138 120 107
225 34 259 135 114 100
225 35 258 143 125 114
226 32 259 129 100 84
226 33 259 133 107 92
226 34 259 136 112 98
226 35 259 140 118 106
227 34 259 136 110 96
227 35 259 137 113 100
226 32 260 130 98 82
226 33 260 133 105 89
227 32 260 131 97 81
227 33 260 133 103 87
227 34 260 136 108 93
224 36 257 155 141 132
224 37 257 161 147 140
225 37 257 164 149 142
224 36 258 154 139 131
225 36 258 151 135 126
225 37 258 162 148 140
224 38 257 161 148 143
224 39 256 154 142 138
224 39 257 159 147 142
225 38 257 167 153 147
225 39 257 166 153 147
225 38 258 167 153 146
226 36 258 150 131 121
226 36 259 144 123 113
226 37 258 159 142 134
227 36 259 140 118 106
227 37 258 155 136 128
227 37 259 147 127 117
226 38 257 170 156 149
226 39 257 171 157 150
227 39 257 173 159 152
226 38 258 169 154 147
227 38 258 168 152 145
227 39 258 174 159 153
228 35 259 136 110 97
228 32 260 133 96 83
228 33 260 135 101 86
229 32 260 137 99 85
229 32 261 140 102 89
229 33 260 140 104 89
228 34 260 137 108 92
228 35 260 135 109 94
229 34 260 139 107 91
229 35 260 134 108 93
230 32 261 147 111 95
230 33 260 145 111 93
230 33 261 148 114 96
231 32 261 155 119 99
231 33 260 151 119 98
231 33 261 154 122 101
230 34 260 141 110 92
230 35 260 134 108 91
231 34 260 148 117 98
231 35 260 137 109 90
228 36 259 137 114 101
228 37 259 146 124 115
229 36 259 132 109 96
229 37 259 139 117 107
228 38 258 165 146 140
228 39 258 176 160 154
229 38 258 165 144 139
229 38 259 151 127 121
229 39 258 179 162 156
230 36 259 128 104 89
230 37 259 133 109 97
231 37 259 130 104 88
230 38 258 164 142 137
230 38 259 149 125 118
230 39 258 176 157 152
231 38 258 159 134 129
231 38 259 147 120 112
231 39 258 173 151 147
230 36 260 130 105 90
231 36 260 129 103 86
224 40 256 151 139 134
224 40 257 157 144 139
224 41 256 142 132 128
225 40 257 161 148 143
225 41 256 148 138 134
225 41 257 157 145 140
224 42 256 127 118 115
224 43 256 133 120 113
225 42 256 138 128 125
225 43 256 134 122 116
226 40 257 168 155 149
226 41 257 161 148 143
227 40 257 175 160 154
227 41 257 169 156 151
226 42 256 146 135 131
226 42 257 156 144 139
226 43 256 141 130 126
227 42 256 161 149 144
227 42 257 163 151 146
227 43 256 154 143 139
224 44 256 142 127 119
225 44 256 137 124 118
226 44 256 128 118 114
227 44 256 139 129 126
228 40 257 180 164 160
228 41 257 173 159 154
229 40 257 183 166 162
229 41 257 182 166 161
228 40 258 181 166 160
229 40 258 183 167 162
228 42 256 167 154 149
228 42 257 171 158 152
228 43 256 167 155 150
229 42 257 179 163 159
229 43 256 174 160 155
230 40 257 184 167 162
230 41 257 184 167 163
231 40 257 186 167 164
231 41 257 185 167 164
230 40 258 185 167 162
231 40 258 185 165 161
230 42 257 182 165 161
230 43 256 175 161 156
231 42 257 183 166 162
231 43 256 177 163 158
228 44 256 155 145 141
229 44 256 162 152 148
229 45 256 145 136 133
230 44 256 163 152 148
230 45 256 146 138 134
231 44 256 162 150 146
235 35 259 146 109 87
232 32 261 158 120 100
232 33 260 162 128 107
232 33 261 159 125 104
233 32 261 160 119 99
233 33 260 161 125 104
233 33 261 161 122 102
232 34 260 156 125 105
232 35 260 145 117 95
233 34 260 159 126 104
233 35 260 152 124 100
234 32 260 158 114 94
234 32 261 159 116 95
234 33 260 160 117 97
235 32 260 153 112 90
235 33 260 153 112 90
234 34 260 158 120 99
234 35 260 152 121 96
235 34 260 152 113 93
235 35 260 148 112 89
232 37 259 128 100 82
233 37 259 131 104 87
232 38 259 143 115 105
232 39 258 169 145 142
233 38 259 140 111 100
233 39 258 166 139 137
234 36 259 143 115 89
234 37 259 138 110 92
235 36 259 144 109 87
235 37 259 141 108 87
235 39 257 173 143 140
234 38 258 150 121 111
234 38 259 142 113 101
234 39 258 166 139 132
235 38 258 149 119 105
235 38 259 142 111 94
235 39 258 165 137 130
232 36 260 132 105 85
233 36 260 141 115 92
234 36 260 147 119 93
236 33 259 144 109 81
237 32 259 138 101 79
237 33 259 138 102 81
236 34 259 145 107 83
236 35 259 143 103 82
237 34 259 137 102 83
237 35 259 135 98 81
238 32 259 136 96 80
238 33 258 131 92 75
238 33 259 132 94 76
239 32 258 142 106 90
239 33 258 134 98 82
238 34 258 127 90 73
238 34 259 130 94 76
238 35 258 128 91 77
238 35 259 131 95 78
239 34 258 122 84 66
239 35 258 118 80 66
236 32 260 147 112 85
236 33 260 149 112 87
237 32 260 141 106 78
236 36 259 141 102 83
236 37 259 139 102 84
237 36 258 131 91 76
237 36 259 133 94 78
237 37 258 133 95 81
237 37 259 135 96 81
236 39 257 168 141 135
237 38 257 152 123 115
237 39 256 172 149 140
237 39 257 167 142 133
236 38 258 147 117 110
236 38 259 141 109 94
236 39 258 162 132 128
237 38 258 141 109 100
238 37 257 134 99 95
239 36 257 120 83 77
239 37 257 131 96 94
238 36 258 126 88 75
238 37 258 130 93 84
239 36 258 119 80 70
238 38 256 162 129 129
238 38 257 152 118 115
238 39 256 173 148 143
238 39 257 166 139 132
239 38 256 158 127 126
239 38 257 144 112 111
239 39 256 174 148 146
238 38 258 142 108 100
232 40 257 186 165 163
232 41 257 186 167 164
233 40 257 186 164 161
233 41 257 186 166 162
232 40 258 183 160 158
233 40 258 181 157 155
232 42 256 182 167 162
232 42 257 183 166 162
232 43 256 177 164 158
233 42 256 181 165 159
233 42 257 183 165 161
233 43 256 176 163 157
234 40 257 183 158 154
234 41 257 187 165 161
235 40 257 183 156 152
235 41 256 186 166 158
235 41 257 187 164 158
234 40 258 179 155 152
234 42 256 182 166 158
234 42 257 185 167 161
234 43 256 172 159 153
235 42 256 180 164 156
235 43 256 171 157 151
232 44 256 160 148 143
233 44 256 162 150 144
236 40 256 182 163 153
236 40 257 180 156 149
236 41 256 182 165 155
237 40 256 178 159 149
237 41 256 179 164 154
236 42 256 179 163 155
237 42 256 176 161 152
238 40 256 177 159 151
238 41 256 179 163 154
241 32 257 141 106 86
241 33 257 142 110 92
240 32 258 141 106 89
240 33 258 141 108 92
241 32 258 139 103 83
240 34 257 123 88 72
240 35 257 113 73 57
241 34 257 137 106 90
241 35 257 122 88 73
240 34 258 127 92 76
240 35 258 115 75 59
242 32 257 142 107 85
242 33 257 144 110 90
243 32 256 144 108 86
243 32 257 143 107 84
243 33 256 146 111 90
242 34 256 142 109 91
242 34 257 139 109 91
242 35 256 141 112 98
242 35 257 134 105 90
243 34 256 144 110 92
243 35 256 147 117 103
240 36 257 112 72 63
240 37 256 136 106 104
240 37 257 125 90 87
241 36 256 121 86 78
241 36 257 108 66 52
241 37 256 135 106 102
240 38 256 155 128 126
241 38 256 150 123 122
242 36 256 142 115 105
242 37 256 144 118 113
244 32 256 144 108 87
244 33 256 145 109 90
245 32 256 144 108 89
245 33 256 143 106 89
244 34 256 144 110 93
245 34 256 144 110 93
246 32 256 144 108 91
246 33 256 144 108 92
