ply
format ascii 1.0
comment Version 2, Copyright 2017, 8i Labs, Inc.
comment frame_to_world_scale 0.179523
comment frame_to_world_translation -45.2095 7.18301 -54.3561
comment width 1023
element vertex 1073
property float x
property float y
property float z
property uchar red
property uchar green
property uchar blue
end_header
250 192 128 107 100 100
250 192 129 110 101 101
250 193 128 107 102 105
250 193 129 109 100 102
251 192 129 112 100 98
251 193 129 109 97 98
251 192 130 112 97 93
251 192 131 114 97 93
251 193 130 109 93 93
250 194 128 104 101 107
250 194 129 105 98 102
250 195 128 101 101 107
250 195 129 101 100 106
251 194 129 106 98 103
251 195 129 102 98 105
251 194 130 106 93 97
251 194 131 109 94 99
251 195 130 105 95 103
251 195 131 109 90 102
250 196 128 104 105 111
250 197 128 100 101 109
251 196 129 101 102 109
251 197 128 99 99 107
251 197 129 99 96 107
251 196 130 100 91 103
251 196 131 105 82 100
251 197 130 102 86 103
251 197 131 100 83 100
250 198 128 98 93 103
251 198 128 100 93 105
251 198 129 102 89 104
251 199 128 101 84 101
251 199 129 101 84 100
251 198 130 104 86 102
252 192 131 114 97 92
252 193 131 109 91 89
252 194 131 110 90 94
252 195 131 112 85 100
252 192 132 115 97 95
252 193 132 114 93 94
253 192 133 116 101 101
253 193 133 116 94 98
253 192 134 112 98 102
253 192 135 107 98 106
253 193 134 112 91 99
253 193 135 108 92 103
252 194 132 111 84 94
252 195 132 110 75 95
253 194 133 111 81 92
253 195 133 109 74 91
253 194 134 109 83 95
253 194 135 107 85 99
253 195 134 109 79 92
253 195 135 109 82 98
252 196 131 107 79 99
252 197 131 102 82 99
252 199 129 97 84 99
252 198 130 105 88 102
252 198 131 103 88 102
252 199 130 99 87 100
252 199 131 98 89 102
253 199 131 96 89 102
252 196 132 109 77 97
252 197 132 104 81 99
253 196 133 109 76 93
253 197 132 106 83 99
253 197 133 108 82 97
253 196 134 112 80 95
253 196 135 112 80 96
253 197 134 112 81 96
253 197 135 111 78 95
252 198 132 103 89 103
253 198 132 104 90 104
253 198 133 106 87 103
253 199 132 98 90 104
253 199 133 102 91 105
253 198 134 109 81 98
253 198 135 109 76 93
253 199 134 105 85 101
254 199 133 99 95 106
254 198 135 111 78 96
254 199 134 103 91 103
254 199 135 108 89 101
251 194 143 73 102 128
251 195 143 72 103 130
251 196 143 69 104 132
253 192 136 103 102 113
253 193 136 102 99 111
253 194 136 101 92 105
253 194 137 93 97 113
253 195 136 105 87 102
253 195 137 95 91 107
253 194 138 87 98 118
253 195 138 85 95 115
254 192 136 102 106 118
254 192 137 96 105 119
254 193 137 94 102 118
254 192 138 84 104 123
254 192 139 77 104 128
254 193 138 80 102 123
254 193 139 75 104 129
254 194 137 92 99 117
254 194 138 81 100 122
254 194 139 73 101 127
254 195 138 81 97 119
254 195 139 76 100 125
253 192 142 83 103 123
253 192 143 90 104 121
253 193 142 79 105 130
253 193 143 86 105 127
252 195 141 68 104 133
253 195 141 68 105 133
252 194 142 80 107 131
252 194 143 85 104 127
252 195 142 71 106 134
253 194 142 72 105 132
253 194 143 85 105 127
254 192 140 74 104 129
254 192 141 75 102 127
254 193 140 70 105 132
254 193 141 73 106 133
254 192 142 80 104 127
254 193 142 78 106 131
255 192 142 84 103 122
255 192 143 89 103 120
255 193 142 83 107 129
255 193 143 84 104 124
254 194 140 67 104 132
254 194 141 67 104 132
254 195 140 69 104 131
254 195 141 66 104 133
254 194 142 72 104 130
254 195 142 66 104 133
255 194 142 71 103 129
255 194 143 75 103 128
255 195 142 67 105 134
255 195 143 70 106 134
253 196 136 108 80 97
253 196 137 97 86 102
253 197 136 111 78 97
253 197 137 102 83 99
253 196 138 86 92 109
253 196 139 81 97 118
253 197 138 93 90 107
253 197 139 87 96 113
253 198 138 100 87 101
253 198 139 93 93 107
254 197 136 108 80 98
254 196 139 77 101 123
254 197 139 85 98 116
254 198 136 110 75 96
254 198 137 106 78 97
254 199 136 110 86 101
254 199 137 108 83 99
254 198 138 101 83 98
254 198 139 92 93 107
254 199 138 106 86 99
254 199 139 99 87 100
253 196 141 70 105 133
253 197 141 68 105 134
252 196 142 67 104 133
253 197 142 66 105 135
253 198 142 69 105 134
254 196 140 72 103 128
254 196 141 67 105 133
254 197 140 78 102 125
254 197 141 70 105 132
255 197 141 70 104 132
254 196 142 65 105 135
255 196 142 64 104 134
255 196 143 65 105 135
255 197 142 68 106 135
255 197 143 69 107 137
254 198 140 84 100 119
254 198 141 78 105 128
254 199 140 87 94 112
255 198 141 75 106 131
255 199 141 79 102 125
255 198 142 74 109 136
255 198 143 72 108 137
255 199 142 76 107 132
251 200 128 97 85 100
251 200 129 95 84 99
251 201 128 96 82 97
251 201 129 97 82 99
250 203 128 106 79 93
251 202 128 103 83 99
251 202 129 106 84 103
251 203 128 104 76 93
251 203 129 106 79 95
251 203 130 103 79 93
250 204 128 115 78 92
250 205 128 125 72 82
251 204 128 113 78 91
251 204 129 110 80 93
251 205 128 121 76 86
251 205 129 117 78 88
251 204 130 105 83 95
251 205 130 111 80 91
251 205 131 111 84 95
250 206 128 128 70 76
250 207 128 127 64 68
251 206 128 123 72 83
251 206 129 122 69 80
251 207 129 124 66 73
251 206 130 117 71 85
251 206 131 112 76 91
252 200 129 97 87 102
252 201 129 100 86 103
252 200 130 97 90 103
252 200 131 98 92 106
252 201 130 98 87 104
252 201 131 98 88 105
253 200 131 97 93 106
253 201 131 99 91 107
252 202 129 106 86 104
252 202 130 105 87 104
252 202 131 104 88 103
252 203 130 104 82 97
252 203 131 98 84 93
252 201 132 99 90 106
253 200 132 97 94 106
253 200 133 97 95 106
253 201 132 97 91 106
253 201 133 99 90 106
252 202 132 101 85 102
252 203 132 98 84 95
253 202 132 102 87 103
253 202 133 102 87 103
253 203 132 100 85 97
253 203 133 100 85 100
254 200 133 98 97 108
254 201 133 96 92 104
254 200 134 98 98 106
254 200 135 101 97 104
254 201 134 96 94 104
254 201 135 97 93 104
254 202 133 98 89 103
254 203 133 100 87 104
254 202 134 100 91 106
254 202 135 102 94 108
254 203 134 101 90 106
254 203 135 101 92 106
252 205 129 115 73 85
252 204 130 103 87 97
252 204 131 99 86 95
252 205 131 107 82 95
252 206 129 116 71 85
252 206 130 116 73 88
252 206 131 112 77 92
252 207 130 120 72 82
252 207 131 119 74 85
252 204 132 99 86 98
252 205 132 105 81 97
252 205 133 105 85 101
253 204 133 102 86 102
253 205 133 103 85 101
253 204 134 101 90 105
253 205 134 98 89 103
252 206 132 108 81 94
252 207 132 115 81 91
252 207 133 110 82 93
253 206 133 104 84 96
253 207 133 106 83 94
253 206 134 97 87 101
253 206 135 88 87 104
253 207 134 97 83 96
253 207 135 80 80 99
254 204 134 99 92 106
254 204 135 99 94 107
254 205 135 91 92 106
254 206 135 85 90 106
254 200 136 104 94 103
254 200 137 108 90 101
254 201 136 97 92 102
254 201 137 101 92 101
254 200 138 108 88 99
254 200 139 103 88 100
254 201 138 104 90 99
254 201 139 101 89 102
255 201 139 96 92 105
254 202 136 102 96 108
254 202 137 102 97 106
254 203 136 102 96 109
254 203 137 100 99 111
255 202 137 104 102 110
254 202 138 102 97 105
254 202 139 100 95 106
254 203 138 95 100 111
255 202 138 99 101 111
255 202 139 96 99 111
255 203 138 91 98 111
255 203 139 83 95 112
254 200 140 94 93 107
255 200 140 87 97 113
255 200 141 81 102 123
255 201 140 89 94 109
255 201 141 80 101 121
255 200 142 78 105 129
255 202 140 88 96 110
255 202 141 78 96 115
255 203 140 81 95 111
255 203 141 74 91 111
254 204 136 95 95 110
254 204 137 90 96 112
254 205 136 85 93 109
254 205 137 74 90 111
254 204 138 82 97 114
254 205 138 68 90 112
255 204 138 82 95 112
255 204 139 72 93 114
255 205 138 64 90 113
255 205 139 60 90 115
254 206 136 78 91 110
254 206 137 66 89 112
254 207 136 63 80 104
254 207 137 52 81 108
254 206 138 61 90 114
254 207 138 52 83 111
255 206 138 59 90 116
255 206 139 57 91 117
255 207 138 52 85 113
255 207 139 51 87 114
255 204 140 70 93 115
255 204 141 71 93 115
255 205 140 61 92 118
255 205 141 65 93 116
255 206 140 56 91 118
255 206 141 60 92 118
255 207 140 53 89 116
255 207 141 52 87 115
251 193 144 90 103 121
251 193 145 94 102 118
250 195 144 74 103 128
251 194 144 83 103 126
251 194 145 86 102 124
251 195 145 90 103 121
251 194 146 97 103 116
251 194 147 100 102 112
250 196 145 79 104 127
250 197 145 72 106 133
251 196 144 71 105 132
251 197 145 73 108 137
250 196 146 87 103 121
250 197 146 82 104 125
250 197 147 83 103 122
250 198 146 74 108 135
250 198 147 72 105 132
250 199 147 68 101 128
251 198 146 74 107 133
251 199 147 67 102 130
249 199 149 69 96 122
250 198 148 70 101 126
250 199 148 70 101 127
250 199 149 68 96 120
252 193 144 87 102 122
252 193 145 94 102 118
253 192 144 92 102 116
253 192 145 92 101 114
252 193 146 101 104 116
252 193 147 102 104 114
253 192 146 97 103 115
255 192 144 91 102 117
255 192 145 94 102 114
255 193 144 89 104 121
255 193 145 93 104 118
255 192 146 99 104 114
255 192 147 102 105 112
255 193 146 96 103 115
255 193 147 100 103 111
255 194 144 82 104 126
255 194 145 91 106 123
255 195 144 74 106 132
255 195 145 83 106 128
255 194 146 95 105 118
255 194 147 100 103 113
255 195 146 90 108 126
252 193 148 100 103 113
255 192 148 101 105 113
255 194 148 98 101 111
252 199 146 65 102 131
252 199 147 62 99 128
253 199 146 64 102 131
255 196 144 69 105 134
255 197 144 67 106 135
254 198 146 68 106 134
249 200 149 67 96 119
248 201 150 68 96 121
249 200 150 79 92 110
249 201 150 69 97 121
248 202 150 64 94 118
250 200 148 71 97 120
250 201 149 66 96 121
251 200 148 64 96 122
251 201 149 60 93 120
250 202 150 60 90 115
251 202 150 56 89 116
252 200 148 55 92 119
253 201 149 51 90 120
249 211 128 133 74 73
250 208 128 130 68 74
250 208 129 133 74 76
250 209 128 129 66 72
250 209 129 129 70 73
251 208 129 131 72 75
251 209 129 130 71 72
251 208 130 131 76 77
251 209 130 129 71 71
250 210 128 128 63 65
250 210 129 127 65 68
250 211 128 132 73 73
250 211 129 130 72 75
251 210 129 128 69 72
251 211 129 128 73 76
251 210 130 127 69 72
251 210 131 126 73 76
251 211 130 124 70 73
251 211 131 121 69 69
250 212 128 130 69 70
250 212 129 127 68 69
250 213 128 132 74 73
250 213 129 129 78 74
251 212 129 124 70 70
251 213 129 124 78 74
251 212 130 121 71 69
251 212 131 119 73 69
251 213 130 121 78 75
251 213 131 119 80 77
250 214 128 121 69 70
250 214 129 116 66 63
250 215 128 118 75 77
250 215 129 117 78 78
251 214 129 112 67 64
251 215 129 118 79 79
251 214 130 112 67 68
251 214 131 112 67 69
251 215 130 118 77 77
251 215 131 120 81 82
252 208 130 128 74 76
252 208 131 126 73 78
252 209 130 130 73 74
252 209 131 126 69 74
252 210 131 124 68 73
252 211 131 120 69 69
252 208 132 121 77 85
252 208 133 112 77 86
252 209 132 119 67 75
252 209 133 113 71 77
253 208 133 108 79 89
253 208 134 99 82 92
253 208 135 85 82 98
253 209 134 101 80 85
253 209 135 88 82 94
252 210 132 121 69 75
252 210 133 116 74 75
252 211 132 117 70 67
252 211 133 115 74 70
253 210 133 113 82 79
253 211 133 114 75 71
253 210 134 105 83 81
253 210 135 99 83 87
253 211 134 110 74 71
253 211 135 106 73 75
252 212 131 118 76 70
252 213 131 117 78 76
252 214 131 114 70 74
252 215 131 118 79 79
252 212 132 116 78 72
252 212 133 116 81 76
252 213 132 114 78 75
252 213 133 112 76 75
253 212 133 116 79 76
253 213 133 112 75 74
253 212 134 116 76 77
253 212 135 118 77 77
253 213 134 113 73 74
253 213 135 118 76 76
252 214 132 115 75 76
252 214 133 113 75 76
252 215 132 116 77 77
252 215 133 113 74 71
253 214 133 113 76 76
253 215 133 115 76 73
253 214 134 113 74 75
253 214 135 116 75 76
253 215 134 115 77 72
253 215 135 112 74 70
254 213 135 115 70 70
254 214 135 116 77 75
254 215 135 112 76 74
253 208 136 75 84 105
253 209 136 81 84 101
253 209 137 74 85 104
253 210 136 92 83 93
253 210 137 73 80 97
253 211 136 103 75 81
254 208 136 66 83 107
254 208 137 68 88 111
254 209 137 68 86 107
254 208 138 65 91 116
254 209 138 61 89 112
255 208 138 58 89 114
255 208 139 61 93 118
255 209 138 55 85 109
255 209 139 54 87 113
254 210 137 80 83 98
254 211 136 102 74 80
254 211 137 95 74 86
254 210 138 70 84 103
254 211 138 86 78 93
255 210 138 69 87 106
255 210 139 65 88 109
255 211 138 78 78 94
255 211 139 72 81 98
255 208 140 58 92 118
255 208 141 61 93 119
255 209 140 52 86 113
255 210 140 62 88 111
255 211 140 65 83 103
254 212 136 118 77 80
254 212 137 115 79 87
254 213 136 117 73 74
254 213 137 116 73 77
255 213 137 112 72 71
255 212 138 103 80 91
255 212 139 90 82 93
255 213 138 108 74 77
255 213 139 102 80 85
254 214 136 115 79 75
254 214 137 115 80 74
254 215 136 112 78 76
254 215 137 111 77 73
255 214 137 113 80 73
255 215 137 110 77 76
255 214 138 113 80 76
255 214 139 109 77 80
255 215 138 110 76 79
255 215 139 107 77 84
255 212 140 84 83 96
255 213 140 97 82 88
255 214 140 108 81 85
250 216 128 113 63 70
250 217 128 108 54 63
251 216 129 112 66 70
251 217 129 110 64 64
251 216 130 110 65 64
251 217 130 114 73 70
250 218 128 113 62 71
250 219 128 108 48 65
251 218 129 113 67 69
251 219 129 111 49 66
251 218 130 113 71 72
251 219 130 111 54 64
251 219 131 114 62 70
250 220 128 114 51 73
250 221 128 114 45 72
251 220 128 115 48 73
251 220 129 115 40 68
251 221 128 113 40 68
251 221 129 112 36 65
251 220 130 115 46 65
251 221 130 112 41 64
250 222 128 111 43 68
250 223 128 111 45 69
251 222 128 111 43 68
251 222 129 113 51 72
251 223 129 111 49 74
251 222 130 113 56 76
251 223 130 109 58 79
252 216 131 107 62 57
252 217 131 116 78 75
252 218 131 113 71 75
252 219 131 109 59 65
252 216 132 106 65 60
252 216 133 107 67 59
252 217 132 117 83 80
252 217 133 117 82 80
253 216 133 111 74 67
253 217 133 120 86 85
253 216 134 114 78 73
253 216 135 116 81 77
253 217 134 120 86 85
253 217 135 116 82 81
252 218 132 110 68 71
252 218 133 111 68 71
252 219 132 112 66 69
252 219 133 113 69 74
253 218 133 109 63 66
253 219 133 115 71 75
253 218 134 111 68 70
253 218 135 108 66 68
253 219 134 112 76 79
253 219 135 111 79 81
254 216 135 114 80 78
254 217 135 116 82 81
254 218 135 107 65 67
254 219 135 109 79 82
252 220 131 113 55 65
252 221 131 110 47 66
252 222 131 110 60 80
252 223 131 107 70 89
252 220 132 113 62 70
252 220 133 109 61 74
252 221 132 106 51 70
252 221 133 101 58 76
253 220 133 107 70 78
253 220 134 101 77 82
253 220 135 100 85 87
253 221 134 98 75 85
253 221 135 97 88 93
252 222 132 103 61 80
252 222 133 99 65 83
252 223 132 105 78 94
252 223 133 104 80 95
253 222 133 99 72 90
253 223 133 105 87 101
253 222 134 96 76 91
253 222 135 96 86 96
253 223 134 98 87 101
253 223 135 96 88 101
254 220 135 101 88 90
254 222 135 97 91 100
254 223 135 94 88 101
254 216 136 114 78 82
254 216 137 115 77 86
254 217 136 110 73 78
254 217 137 104 73 78
255 216 137 114 79 88
255 217 137 107 76 84
255 216 138 113 85 91
255 216 139 108 88 94
255 217 138 102 85 90
255 217 139 102 95 98
254 218 136 105 73 74
254 218 137 103 84 85
254 219 136 103 88 88
254 219 137 103 95 96
255 218 137 104 89 91
255 219 137 103 100 102
255 218 138 104 97 100
255 218 139 102 103 108
255 219 138 101 100 106
255 219 139 96 101 111
254 220 136 99 97 101
254 220 137 101 102 108
254 221 136 99 97 103
254 221 137 101 103 110
254 221 138 96 99 109
255 220 138 98 103 111
255 220 139 97 101 112
255 221 138 98 102 111
255 221 139 98 101 110
254 222 136 97 93 102
254 222 137 97 93 105
254 223 136 92 86 100
254 223 137 90 84 99
254 222 138 96 95 106
254 223 138 91 88 102
255 222 138 95 95 106
255 222 139 98 99 107
255 223 138 91 89 103
255 223 139 97 96 106
255 220 140 100 101 114
255 221 140 100 99 109
255 222 140 100 99 106
255 223 140 101 101 108
250 224 128 111 47 72
250 225 128 110 58 80
251 224 128 111 47 74
251 224 129 110 58 84
251 225 128 105 61 81
251 225 129 101 66 87
251 224 130 106 66 88
251 225 130 96 70 91
250 226 128 94 67 85
250 227 128 92 76 91
251 226 128 90 72 88
251 226 129 89 74 91
251 227 128 94 84 97
251 227 129 97 87 101
251 226 130 92 80 97
251 227 130 97 83 100
250 229 128 93 74 94
251 228 128 97 79 99
251 228 129 96 80 98
251 229 128 95 74 96
251 229 129 96 82 100
251 230 128 95 77 95
251 230 129 97 84 100
251 231 128 94 73 91
251 231 129 90 71 90
252 224 131 101 80 96
252 225 130 94 73 94
252 225 131 91 76 96
252 226 130 94 82 100
252 226 131 95 83 99
252 227 130 97 83 100
252 227 131 97 86 100
252 224 132 96 84 98
252 225 132 90 80 97
253 224 133 94 84 99
253 225 132 94 87 101
253 225 133 94 86 102
253 224 134 93 84 99
253 225 134 95 84 102
252 226 132 99 89 104
252 227 132 93 84 99
253 226 132 97 86 102
253 226 133 100 89 106
253 227 132 91 81 98
253 227 133 87 73 94
253 227 134 88 70 94
254 224 134 91 79 99
254 224 135 92 81 101
254 225 134 97 82 103
254 225 135 98 78 103
254 226 134 100 86 105
254 226 135 99 82 101
254 227 134 86 68 92
254 227 135 89 75 95
252 228 130 94 81 99
252 228 131 94 85 99
252 229 130 97 88 104
252 229 131 97 85 101
252 230 130 97 84 102
252 230 131 101 82 101
252 231 130 90 72 92
252 231 131 93 76 95
252 228 132 91 83 97
253 228 132 93 83 97
253 228 133 91 80 96
253 229 132 99 82 100
253 229 133 101 86 103
253 228 134 83 66 90
253 230 132 98 77 99
253 230 133 92 77 97
253 231 132 94 79 99
253 231 133 94 85 100
254 228 134 94 80 101
254 228 135 94 81 102
254 229 134 100 84 104
254 229 135 101 86 107
254 231 133 94 87 100
254 230 134 88 74 95
254 230 135 87 72 96
254 231 134 96 88 103
254 231 135 96 85 103
254 224 136 88 76 99
254 224 137 88 76 100
254 225 136 100 81 103
254 225 137 99 86 103
255 225 137 102 92 104
254 224 138 85 78 100
255 224 138 91 83 104
255 224 139 97 92 108
255 225 138 98 86 103
255 225 139 99 87 105
254 226 136 98 82 99
254 226 137 97 86 99
254 227 136 92 84 98
254 227 137 95 85 99
255 226 137 99 88 100
255 227 137 98 83 102
255 226 138 94 82 97
255 226 139 89 77 96
255 227 138 98 84 102
255 227 139 92 80 101
255 224 140 99 97 107
255 225 140 96 90 103
255 226 140 86 77 95
255 227 140 91 78 100
254 228 136 98 88 106
254 228 137 101 87 107
254 229 136 101 87 108
254 229 137 94 81 102
255 228 137 101 83 106
255 229 137 93 82 103
255 228 138 103 85 107
255 228 139 98 84 104
255 229 138 81 73 95
255 229 139 83 72 94
254 230 136 88 74 98
254 230 137 84 78 97
254 231 136 95 84 104
254 231 137 98 86 105
255 230 137 82 82 99
255 231 137 100 87 106
255 230 138 83 83 101
255 230 139 89 78 100
255 231 138 106 87 105
255 231 139 110 84 103
255 228 140 99 79 99
255 229 140 94 72 93
255 230 140 101 81 102
251 232 128 90 75 95
251 232 129 99 83 100
251 233 128 86 82 101
251 233 129 95 82 101
251 234 128 74 77 99
251 235 128 66 83 106
251 236 128 68 92 114
252 232 129 100 84 100
252 233 129 100 82 100
252 232 130 101 85 101
252 232 131 99 85 101
252 233 130 98 79 97
252 233 131 98 78 97
253 232 131 102 88 104
253 233 131 96 74 96
252 234 129 83 75 95
252 235 128 71 84 105
252 235 129 75 85 104
252 234 130 87 75 93
252 235 130 82 89 104
253 234 131 87 75 94
253 235 130 81 91 106
253 235 131 87 90 105
253 232 132 101 87 103
253 232 133 99 88 101
253 233 132 95 76 96
253 234 132 87 75 95
253 235 132 92 87 103
254 232 133 98 86 100
254 233 133 92 80 96
254 232 134 96 83 100
254 232 135 99 82 102
254 233 134 92 77 96
254 233 135 95 74 97
254 234 132 88 77 97
254 234 133 88 78 96
254 235 132 101 84 101
254 235 133 102 81 99
254 234 134 95 77 98
254 234 135 102 74 97
254 235 134 107 72 93
255 234 135 107 74 99
255 235 135 115 63 85
252 236 128 42 77 103
252 236 129 44 76 101
252 237 128 34 68 99
252 237 129 41 75 104
253 237 129 46 76 104
252 236 130 59 84 105
253 236 130 48 67 92
253 236 131 69 64 85
253 237 130 59 80 104
253 237 131 77 79 98
252 238 128 64 91 114
252 238 129 59 88 113
252 239 128 63 77 97
253 238 129 63 83 107
253 239 128 65 64 81
253 239 129 67 64 83
253 238 130 66 78 101
253 238 131 71 72 92
253 239 130 75 62 77
254 237 131 97 88 100
254 238 131 84 73 83
254 239 131 92 73 75
253 236 132 79 62 83
254 236 132 99 70 88
254 236 133 116 79 90
254 237 132 108 86 97
254 237 133 120 92 96
254 236 134 123 81 88
255 236 134 125 79 84
255 236 135 132 85 87
255 237 134 124 93 91
255 237 135 130 95 85
254 238 132 94 67 68
254 238 133 102 70 68
254 239 132 99 75 69
254 239 133 110 83 73
255 238 133 102 66 63
255 239 133 111 82 73
255 238 134 108 69 65
255 238 135 115 73 65
255 239 134 111 75 69
255 239 135 119 82 78
254 232 136 101 81 102
254 233 136 100 72 96
255 232 136 104 70 97
255 232 137 110 71 95
255 233 136 108 71 96
255 233 137 122 77 93
255 232 138 119 68 87
255 233 138 131 83 94
255 234 136 117 77 98
255 234 137 129 89 96
255 235 136 122 66 78
255 235 137 124 70 77
255 236 136 136 90 85
255 237 136 132 90 78
255 238 136 120 74 65
255 239 136 125 88 86
252 240 128 96 81 84
252 241 128 113 100 98
253 240 128 100 80 82
253 240 129 109 86 83
253 241 128 110 93 90
253 241 129 110 87 84
253 240 130 114 89 87
253 241 130 107 79 77
252 242 128 90 67 68
252 243 128 93 56 53
253 242 128 88 59 57
253 242 129 91 56 55
253 243 128 100 66 61
253 243 129 110 80 74
253 242 130 95 60 58
254 240 130 125 101 97
254 240 131 120 99 94
254 241 130 106 78 76
254 241 131 105 74 70
254 242 130 97 63 59
254 242 131 106 76 69
254 243 130 120 97 90
254 243 131 119 96 88
254 240 132 119 100 94
254 240 133 124 104 96
254 241 132 100 70 66
255 240 133 115 94 87
255 241 133 96 66 64
255 240 134 114 89 81
255 240 135 114 86 78
255 241 134 97 68 63
255 241 135 101 69 57
254 242 132 114 86 82
254 243 132 117 93 88
255 242 133 113 87 86
255 243 133 116 92 89
255 242 134 114 92 90
255 242 135 120 100 93
255 243 134 112 90 86
255 243 135 111 90 83
252 244 128 124 99 91
252 245 128 100 71 63
253 244 128 124 98 90
253 244 129 117 91 84
253 245 128 98 68 60
253 245 129 91 58 51
253 246 128 97 62 53
253 246 129 107 79 69
253 247 128 120 93 84
253 247 129 121 95 86
254 244 130 108 83 78
254 244 131 102 76 70
254 245 130 91 60 57
254 245 131 101 74 69
254 246 130 116 94 85
254 246 131 119 101 91
254 247 130 117 92 81
254 247 131 111 87 75
254 244 132 100 71 63
254 245 132 109 85 76
255 244 132 98 68 59
255 244 133 101 71 64
255 245 132 117 94 85
255 245 133 119 96 86
255 244 134 101 72 64
255 244 135 103 75 65
255 245 134 126 105 95
255 245 135 128 106 96
254 246 132 120 101 90
254 247 132 104 79 64
255 246 133 114 90 79
255 247 133 105 74 61
255 246 134 114 88 77
255 246 135 118 94 82
255 247 134 109 78 67
253 248 128 105 73 60
253 248 129 104 72 61
253 249 128 109 77 62
253 249 129 117 88 78
253 250 128 119 85 75
253 250 129 108 75 68
253 251 128 103 71 67
253 251 129 96 68 69
254 249 129 120 92 85
254 248 130 109 73 62
254 248 131 112 77 65
254 249 130 121 89 85
254 249 131 121 84 81
254 250 129 99 66 64
254 251 129 89 64 70
254 250 130 94 61 65
254 250 131 94 58 69
254 251 130 80 56 69
254 251 131 78 49 73
254 248 132 115 80 67
254 249 132 118 77 77
255 248 132 118 83 72
255 248 133 121 86 77
255 249 132 114 75 74
255 249 133 107 66 70
255 248 134 121 86 80
255 249 134 101 58 66
254 250 132 93 56 70
254 251 132 82 54 75
255 250 132 93 56 70
255 250 133 89 52 67
255 251 132 83 53 73
255 251 133 84 48 69
255 250 134 84 42 61
255 251 134 89 42 65
253 252 128 87 68 72
253 252 129 80 60 68
253 253 128 80 61 73
253 253 129 82 57 71
253 254 128 95 66 80
253 254 129 103 51 72
253 255 128 112 31 67
253 255 129 117 17 57
254 252 129 79 56 68
254 253 129 87 53 70
254 252 130 78 50 67
254 252 131 84 52 73
254 253 130 95 53 71
254 253 131 103 44 66
254 254 130 111 33 61
254 254 131 116 13 50
254 255 130 122 9 52
254 255 131 122 7 52
254 252 132 98 57 74
255 252 132 93 60 78
255 252 133 102 52 73
255 253 132 108 36 65
255 253 133 113 24 62
255 252 134 109 39 65
255 253 134 116 19 57
255 253 135 114 22 52
254 254 132 119 9 47
254 255 132 121 13 54
255 254 132 117 12 52
255 254 133 117 7 55
255 255 132 119 17 55
255 255 133 113 35 62
255 254 134 115 26 60
255 254 135 112 41 64
255 255 134 106 55 70
255 255 135 107 65 78
255 254 136 109 57 71
255 255 136 107 73 84
255 245 191 70 99 124
255 246 191 68 97 122
255 247 190 69 98 123
255 247 191 69 99 124
255 248 190 72 100 125
255 248 191 71 101 126
255 249 190 71 101 127
255 249 191 74 103 128
254 251 191 73 103 128
255 250 190 70 102 127
255 250 191 73 103 128
255 251 190 72 101 127
255 251 191 73 104 129
255 255 187 70 98 126
255 253 189 69 97 121
254 252 191 72 102 128
254 253 191 73 101 125
255 252 190 71 99 125
255 252 191 73 102 128
255 253 190 71 99 124
255 253 191 73 101 126
255 254 188 69 96 120
255 254 189 69 96 119
255 255 188 68 95 120
255 255 189 70 96 119
254 254 191 74 101 124
254 255 190 72 100 123
254 255 191 72 100 123
255 254 190 71 97 121
255 255 190 72 99 122
