ply
format ascii 1.0
comment Version 2, Copyright 2017, 8i Labs, Inc.
comment frame_to_world_scale 0.179523
comment frame_to_world_translation -45.2095 7.18301 -54.3561
comment width 1023
element vertex 674
property float x
property float y
property float z
property uchar red
property uchar green
property uchar blue
end_header
256 862 192 142 113 80
256 863 192 142 113 81
256 863 193 143 114 84
256 864 193 143 113 83
257 864 192 141 112 80
257 864 193 142 113 81
257 865 192 141 112 79
257 865 193 142 112 80
256 864 194 143 114 84
256 865 194 142 113 82
256 865 195 142 113 82
257 865 194 142 113 82
256 866 195 143 114 83
257 866 194 143 114 82
257 866 195 143 115 83
257 867 195 144 116 85
258 865 192 142 112 79
258 865 193 141 112 79
259 865 192 142 112 80
258 866 193 142 112 79
259 866 192 142 111 78
259 866 193 142 112 79
259 867 193 143 112 80
258 866 194 142 112 80
258 867 194 143 113 81
258 867 195 144 116 85
259 867 194 143 113 81
256 866 196 143 115 85
256 867 196 143 115 86
257 867 196 143 115 86
258 868 195 144 116 84
259 868 194 144 113 81
259 868 195 144 114 82
259 869 194 145 114 80
259 869 195 147 116 84
256 868 196 142 115 85
256 868 197 142 114 84
256 869 197 143 115 84
257 868 196 143 115 84
257 869 196 143 115 83
257 869 197 144 115 84
256 869 198 143 115 82
257 870 197 147 118 86
256 870 198 147 118 87
256 871 198 151 122 91
256 871 199 154 125 94
257 870 198 148 119 88
257 871 198 153 124 94
258 868 196 143 115 83
258 869 196 145 116 84
258 869 197 145 116 84
259 869 196 148 118 86
258 870 197 148 119 87
258 871 197 153 123 92
259 870 196 150 120 87
259 870 197 150 120 88
259 871 196 152 121 88
259 871 197 153 122 90
258 871 198 153 124 94
260 867 192 143 110 78
260 868 193 144 112 79
261 868 192 145 112 80
261 868 193 145 112 79
261 869 192 146 113 81
261 869 193 147 113 81
260 868 194 145 113 81
260 869 194 147 115 83
260 869 195 149 118 86
261 869 194 148 115 83
260 870 195 151 120 88
260 871 195 152 121 89
261 870 194 150 117 85
261 871 194 150 116 84
261 871 195 152 120 88
262 869 192 148 113 81
262 869 193 148 113 82
262 870 192 149 112 80
262 870 193 150 114 83
262 871 193 150 113 82
263 870 192 147 111 78
263 871 192 149 111 78
263 871 193 149 111 80
262 871 194 151 115 83
260 871 196 153 121 89
256 872 199 153 124 92
256 873 199 152 122 89
257 872 198 154 125 94
257 872 199 155 125 95
257 873 199 155 124 93
259 872 197 155 122 91
259 873 197 154 120 89
258 872 198 155 123 93
258 873 198 155 122 93
258 873 199 156 123 94
259 872 198 156 123 93
259 873 198 156 121 90
258 874 199 155 121 91
259 874 198 155 120 89
259 874 199 155 120 90
259 875 198 155 121 91
259 875 199 155 120 91
259 876 199 155 121 91
259 877 199 154 119 90
261 872 195 152 118 86
261 873 195 153 119 88
262 872 193 150 112 81
263 872 192 150 111 80
263 872 193 150 112 81
263 873 192 150 112 82
263 873 193 151 112 81
262 872 194 152 115 85
262 873 194 153 116 85
262 873 195 153 118 86
263 872 194 152 114 84
263 873 194 151 113 81
263 874 193 150 112 81
262 874 195 152 116 83
262 875 195 152 115 84
263 874 194 151 114 82
263 875 194 151 113 81
263 875 195 152 114 82
260 872 196 153 120 88
260 872 197 153 120 88
260 873 196 154 120 87
260 873 197 154 119 87
261 872 196 153 119 86
261 873 196 153 119 86
260 874 197 154 119 86
261 874 196 153 118 85
261 874 197 153 118 86
261 875 197 153 118 87
260 874 198 154 119 88
260 875 198 154 120 90
262 874 196 152 117 84
262 875 196 152 116 85
263 876 194 151 113 81
263 876 195 151 114 82
263 877 195 152 115 82
261 876 197 152 116 86
261 877 197 151 115 85
260 876 198 153 118 88
260 876 199 154 120 90
260 877 199 150 115 86
261 876 198 151 116 86
261 877 198 150 114 86
261 877 199 148 112 84
260 878 199 149 113 84
261 878 198 149 114 83
261 878 199 149 113 84
261 879 199 148 113 83
262 876 196 152 115 84
262 876 197 152 115 84
262 877 196 150 114 82
262 877 197 151 115 84
263 876 196 151 114 82
263 877 196 151 115 81
262 878 197 150 114 82
262 879 197 150 115 82
263 878 196 151 115 80
263 878 197 150 115 81
263 879 197 151 116 82
262 878 198 150 114 83
262 879 198 149 114 81
256 873 200 152 120 88
257 873 200 154 122 90
256 874 200 154 122 92
256 874 201 156 125 95
256 875 201 155 122 92
257 874 200 154 122 91
257 875 200 154 121 91
257 875 201 154 121 90
258 874 200 154 120 90
258 875 200 153 120 90
256 876 201 154 121 91
257 876 201 154 121 91
257 877 201 154 122 93
256 876 202 154 121 92
256 877 202 154 121 92
257 877 202 154 121 93
257 878 201 154 121 92
256 878 202 154 121 92
256 878 203 152 119 89
256 879 203 151 118 87
257 878 202 153 119 91
257 879 202 153 119 90
257 879 203 152 118 88
258 876 200 153 120 90
258 876 201 154 122 91
258 877 201 154 121 90
259 876 200 154 120 90
259 877 200 153 118 86
258 878 201 153 121 89
258 879 201 152 121 89
259 878 200 151 117 84
259 878 201 152 118 86
259 879 201 151 118 85
258 878 202 152 120 90
258 879 202 153 121 90
260 878 200 148 113 82
260 879 200 149 114 83
261 879 200 149 113 83
264 873 192 149 111 81
264 874 192 150 112 81
264 874 193 150 112 81
264 875 192 150 111 80
264 875 193 151 113 81
265 875 192 150 110 80
264 875 194 151 113 81
264 876 193 152 114 82
264 877 193 153 114 83
265 876 192 151 112 82
265 876 193 153 114 84
265 877 192 152 113 82
265 877 193 153 115 84
264 876 194 152 114 82
264 877 194 152 115 82
264 877 195 152 115 81
265 877 194 153 115 82
265 878 193 154 116 85
264 878 195 152 115 80
264 879 195 152 115 80
265 878 194 153 115 83
265 879 194 153 116 84
265 879 195 152 115 82
266 877 192 152 113 82
266 877 193 153 114 84
266 878 192 152 115 83
266 878 193 153 115 84
266 879 193 153 116 85
267 878 192 153 115 83
267 879 192 153 115 83
267 879 193 153 115 83
266 879 194 153 115 84
264 878 196 151 115 79
264 879 196 152 115 80
261 880 199 149 114 83
263 880 197 152 116 83
262 880 198 150 115 81
262 880 199 149 114 81
262 881 199 151 115 82
263 880 198 151 116 82
263 881 198 151 114 80
263 881 199 151 114 81
263 882 199 152 114 81
263 883 199 153 114 82
256 880 203 153 121 90
256 881 203 155 123 92
257 880 203 153 120 89
257 881 203 155 122 91
257 882 203 156 123 92
259 880 201 153 119 87
259 881 201 153 119 87
258 880 202 154 122 91
258 881 202 154 122 91
258 881 203 154 120 89
259 880 202 153 121 89
259 881 202 154 120 88
258 882 202 154 120 88
258 882 203 155 121 90
258 883 203 157 122 91
259 882 202 155 120 88
259 883 202 157 120 89
259 883 203 157 122 90
256 881 204 156 123 93
256 882 204 157 123 93
256 883 204 158 123 93
257 882 204 156 122 91
257 883 204 157 123 91
258 883 204 158 123 92
258 884 203 160 124 95
259 884 203 160 123 94
259 885 203 161 123 94
256 884 204 159 122 92
256 884 205 159 122 91
256 885 205 161 125 95
257 884 204 160 125 94
257 885 204 163 126 96
257 885 205 163 126 96
256 886 205 166 128 97
256 887 205 169 128 99
257 886 205 166 127 97
257 887 205 169 129 100
256 887 206 170 129 102
258 884 204 161 126 96
258 885 204 163 126 97
259 885 204 161 123 94
258 886 204 164 125 96
258 886 205 166 126 96
258 887 204 167 126 98
258 887 205 169 128 99
259 886 204 164 124 97
259 887 204 168 125 98
260 880 200 151 116 85
260 880 201 153 118 87
260 881 201 153 118 86
261 880 200 150 115 85
261 881 200 151 116 85
261 881 201 152 117 86
260 882 201 154 118 87
261 882 200 153 117 86
261 882 201 154 117 86
261 883 201 156 119 88
260 882 202 155 119 87
260 883 202 157 120 90
261 883 202 157 120 89
262 881 200 151 115 83
262 882 200 153 117 85
262 882 201 154 118 86
262 883 200 155 118 86
262 883 201 156 119 88
263 882 200 153 116 83
263 883 200 153 115 83
261 884 201 156 119 87
260 884 202 159 122 91
260 884 203 160 123 93
260 885 203 159 122 91
261 884 202 157 120 89
261 885 202 157 120 89
260 886 203 162 123 94
260 887 203 165 126 98
261 886 202 159 120 90
261 886 203 161 122 92
261 887 203 164 124 96
262 884 200 154 117 84
262 884 201 155 118 86
262 885 201 156 119 88
263 884 200 153 116 83
263 885 200 154 117 85
262 886 201 157 120 89
263 886 200 153 115 84
263 886 201 155 117 86
263 887 201 155 116 85
262 886 202 158 119 89
262 887 202 159 120 90
262 887 203 163 123 94
263 887 202 157 118 87
260 886 204 165 125 97
260 887 204 166 126 97
257 888 205 173 130 103
256 888 206 172 130 103
256 889 206 175 131 104
257 888 206 174 130 104
257 889 206 175 131 104
256 890 206 178 132 103
256 891 206 181 135 107
257 890 206 178 133 105
257 891 206 180 135 105
258 888 205 172 128 101
258 889 205 174 129 102
259 888 204 170 127 100
259 888 205 172 128 101
259 889 204 174 130 104
259 889 205 175 131 104
258 890 205 177 132 104
259 890 205 176 132 104
259 891 205 175 130 101
258 890 206 177 132 104
258 891 206 178 133 103
256 892 206 180 134 106
256 892 207 181 134 106
256 893 206 179 132 104
256 893 207 181 133 107
257 892 206 180 135 106
257 893 206 180 134 106
256 894 206 183 135 111
256 894 207 183 136 111
256 895 206 184 137 113
256 895 207 184 137 113
257 894 206 182 135 111
257 895 206 183 136 112
259 892 205 178 134 105
259 893 205 180 136 108
258 892 206 179 134 104
258 893 206 181 136 109
259 892 206 178 134 105
259 893 206 181 138 109
259 894 205 180 135 106
259 895 205 181 136 109
258 894 206 182 136 110
258 895 206 181 136 110
259 894 206 180 135 107
259 895 206 182 137 109
261 888 203 167 127 98
261 889 203 168 127 99
263 888 201 155 116 86
262 888 202 161 121 91
262 888 203 164 123 95
262 889 203 166 124 96
263 888 202 158 118 87
263 889 202 160 120 91
263 889 203 164 124 95
262 890 203 168 127 99
262 891 203 169 126 98
263 890 202 162 123 95
263 890 203 165 125 98
263 891 202 163 123 94
263 891 203 165 124 96
260 888 204 169 127 97
260 889 204 173 130 102
261 888 204 168 127 99
261 889 204 170 129 100
260 890 204 174 130 102
260 890 205 174 130 103
260 891 205 174 129 102
261 890 204 171 129 100
261 891 204 172 128 100
261 891 205 173 128 101
262 890 204 171 129 101
262 891 204 170 127 98
263 892 203 167 125 97
263 893 203 170 128 101
263 894 203 172 130 102
263 895 203 173 132 102
260 892 205 176 132 105
260 893 205 177 132 105
261 892 204 172 128 101
261 892 205 173 130 103
261 893 205 175 132 105
260 894 205 179 135 106
260 895 205 181 136 108
261 894 205 177 134 105
261 895 205 178 134 104
262 892 204 171 127 99
262 893 204 173 131 104
262 894 204 174 132 103
262 895 204 177 134 104
263 894 204 173 131 103
263 895 204 175 133 104
265 880 195 153 115 83
265 881 195 153 114 83
266 880 193 153 115 83
267 880 192 152 114 81
267 880 193 152 114 82
267 881 193 152 113 81
266 880 194 153 115 83
266 881 194 153 114 83
266 881 195 153 114 83
267 881 194 151 113 81
267 882 193 151 112 81
266 882 195 151 112 81
266 883 195 151 111 82
267 882 194 150 111 80
267 883 194 149 109 79
267 883 195 150 110 80
264 880 196 152 115 81
264 880 197 152 115 81
264 881 197 151 113 79
265 880 196 153 115 81
265 881 196 152 114 81
265 881 197 151 112 78
264 881 198 151 113 80
264 882 197 150 111 78
265 882 196 152 112 81
265 882 197 150 111 78
265 883 196 152 112 82
265 883 197 152 113 83
264 882 198 151 112 80
264 882 199 151 112 79
264 883 198 152 113 83
264 883 199 152 114 83
265 883 198 153 114 85
266 882 196 152 112 83
266 883 196 152 112 82
267 884 194 149 109 79
267 884 195 149 108 79
267 885 195 148 110 80
267 886 195 148 111 80
265 884 197 151 112 82
265 885 197 150 111 80
264 884 198 153 115 86
264 884 199 152 114 83
264 885 199 152 114 82
265 884 198 152 113 83
265 885 198 150 112 80
264 886 199 151 113 81
265 886 198 150 111 80
265 886 199 150 112 80
265 887 199 151 112 81
266 884 196 150 110 80
266 884 197 150 111 80
266 885 196 148 111 79
266 885 197 149 111 79
267 885 196 148 110 80
266 886 197 149 111 80
267 886 196 148 111 79
267 886 197 149 111 79
267 887 196 148 112 77
267 887 197 149 111 79
266 886 198 149 110 79
266 887 198 150 112 81
266 887 199 150 112 81
268 880 192 152 113 81
268 881 192 152 113 81
268 881 193 152 113 81
268 882 192 151 110 79
268 882 193 151 111 79
268 883 193 151 111 79
269 882 192 151 111 79
269 883 192 151 111 79
268 883 194 151 110 80
268 884 193 151 110 79
269 884 192 150 111 78
269 884 193 150 110 79
269 885 192 150 111 79
269 885 193 149 110 78
268 884 194 150 110 80
268 885 194 149 110 79
268 885 195 149 111 81
269 885 194 148 110 78
269 886 193 148 110 78
268 886 194 149 112 80
268 886 195 149 112 80
268 887 195 148 110 78
269 886 194 149 111 80
269 887 194 147 109 78
269 887 195 146 108 77
270 885 192 150 110 78
270 886 192 149 110 78
270 886 193 148 110 78
270 887 192 148 110 79
270 887 193 148 109 78
271 887 192 147 109 79
270 887 194 147 108 77
268 886 196 148 112 79
268 887 196 148 111 77
264 885 200 153 115 84
264 886 200 152 113 82
264 887 200 152 112 82
264 887 201 154 115 85
265 887 200 151 112 82
265 888 199 151 113 83
267 888 197 149 111 78
267 889 197 149 111 78
266 888 198 150 112 80
266 888 199 150 112 81
266 889 199 150 112 82
267 888 198 150 111 79
267 889 198 150 111 80
266 890 199 151 112 83
266 891 199 153 114 86
267 890 198 151 112 82
267 890 199 151 112 83
267 891 199 152 113 85
267 892 199 154 114 85
267 893 199 156 116 86
269 888 194 147 108 78
269 888 195 147 108 78
269 889 195 147 108 79
269 890 195 147 107 77
270 888 192 146 108 78
270 888 193 146 107 76
270 889 193 145 105 75
271 888 192 146 107 77
271 889 192 144 105 75
271 889 193 144 104 74
270 888 194 146 107 77
270 889 194 146 105 76
271 890 192 143 105 75
271 890 193 143 103 74
271 891 192 144 105 76
271 891 193 143 104 75
270 890 194 144 103 73
270 890 195 145 105 74
270 891 195 145 106 74
271 890 194 142 102 71
271 891 194 144 104 74
268 888 196 148 110 77
268 888 197 148 110 77
268 889 196 148 110 79
268 889 197 149 110 79
269 889 196 148 110 79
268 890 197 149 111 81
268 891 197 149 111 81
269 890 196 148 109 79
269 890 197 149 112 81
269 891 196 147 109 77
269 891 197 149 111 80
268 890 198 150 111 81
268 891 198 151 112 82
270 891 196 147 109 76
271 892 192 144 104 75
271 892 193 144 104 75
271 893 193 146 106 78
270 892 195 147 109 76
270 893 195 149 110 78
271 892 194 145 105 76
271 892 195 146 107 75
271 893 194 147 107 78
271 893 195 148 109 78
271 894 194 149 107 78
271 894 195 150 110 80
271 895 194 150 108 79
271 895 195 152 110 80
269 892 196 148 110 77
269 892 197 149 112 79
269 893 197 151 113 80
268 892 198 151 113 82
268 892 199 152 113 84
268 893 198 152 113 82
268 893 199 153 114 84
269 892 198 150 113 81
269 893 198 152 114 82
269 894 197 152 113 81
268 894 199 156 117 85
268 895 199 161 121 92
269 894 198 155 115 85
269 894 199 157 116 86
269 895 198 158 115 87
269 895 199 159 117 89
270 892 196 148 111 77
270 893 196 149 112 78
270 893 197 150 113 79
270 894 196 152 112 80
270 894 197 153 113 82
270 895 197 155 112 83
271 894 196 152 111 82
271 895 196 154 111 82
270 895 198 157 115 87
264 888 200 153 113 83
264 888 201 154 115 85
264 889 201 155 115 87
265 888 200 153 113 85
265 889 200 151 111 83
264 889 202 160 120 91
264 890 201 156 117 89
265 890 200 151 109 82
265 890 201 155 113 87
265 891 201 158 116 91
264 890 202 159 119 91
264 891 202 161 121 93
265 891 202 159 119 92
266 889 200 150 110 80
266 890 200 150 110 82
266 891 200 154 113 87
265 892 201 161 119 94
264 892 202 162 121 93
264 892 203 164 123 94
264 893 202 165 125 97
264 893 203 167 127 98
265 892 202 162 120 94
265 893 202 164 123 96
264 894 203 170 130 101
264 895 203 173 131 102
265 894 202 168 127 99
265 895 202 170 129 102
265 895 203 172 131 103
266 892 200 156 116 88
266 892 201 159 117 91
266 893 200 157 117 88
266 893 201 161 119 91
267 892 200 155 114 85
267 893 200 157 118 87
266 894 201 165 124 95
266 895 201 168 127 98
267 894 200 160 122 90
267 894 201 164 124 94
267 895 200 163 123 93
267 895 201 164 124 94
266 894 202 168 126 98
266 895 202 169 128 100
268 894 200 159 121 89
268 895 200 162 122 92
272 891 192 144 106 76
272 892 192 144 105 75
272 892 193 145 105 77
272 893 192 145 107 77
272 893 193 146 106 77
272 894 192 145 105 75
272 894 193 147 106 77
272 895 192 146 104 76
272 895 193 149 107 78
272 894 194 149 108 78
272 895 194 150 108 79
272 895 195 152 109 80
